999
Design created by Aurora
0
SECTION
2
HEADER
9
$ACADVER
1
AC1009
9
$INSUNITS
70
2
0
ENDSEC
0
SECTION
2
TABLES
0
TABLE
2
LTYPE
100
AcDbLinetypeTableRecord
2
LTYPE
0
LTYPE
2
DASHED
70
0
3
dashed line
72
65
73
2
40
4.0
49
2.0
49
-2.0
0
ENDTAB
0
TABLE
2
LAYER
70
6
0
LAYER
100
AcDbSymbolTable
100
AcDbLayerTable
2
Inverters
70
0
62
7
6
CONTINUOUS
0
LAYER
100
AcDbSymbolTable
100
AcDbLayerTable
2
Setbacks
70
0
62
7
6
CONTINUOUS
0
LAYER
100
AcDbSymbolTable
100
AcDbLayerTable
2
Connections
70
0
62
7
6
CONTINUOUS
0
LAYER
100
AcDbSymbolTable
100
AcDbLayerTable
2
Strings
70
0
62
7
6
CONTINUOUS
0
LAYER
100
AcDbSymbolTable
100
AcDbLayerTable
2
Modules
70
0
62
7
6
CONTINUOUS
0
LAYER
100
AcDbSymbolTable
100
AcDbLayerTable
2
Buildings
70
0
62
7
6
CONTINUOUS
0
ENDTAB
0
ENDSEC
0
SECTION
2
ENTITIES
0
LINE
8
Modules
10
65.4017561892
20
-11.5037543075
11
61.8207318502
21
-11.2426393548
62
254
0
LINE
8
Modules
10
61.8207318502
20
-11.2426393548
11
61.3201633252
21
-18.1076160721
62
254
0
LINE
8
Modules
10
61.3201633252
20
-18.1076160721
11
64.9011876642
21
-18.3687310249
62
254
0
LINE
8
Modules
10
64.9011876642
20
-18.3687310249
11
65.4017561892
21
-11.5037543075
62
254
0
LINE
8
Modules
10
64.8981575306
20
-18.4102873663
11
61.3171331916
21
-18.1491724135
62
254
0
LINE
8
Modules
10
61.3171331916
20
-18.1491724135
11
60.8165646666
21
-25.0141491309
62
254
0
LINE
8
Modules
10
60.8165646666
20
-25.0141491309
11
64.3975890056
21
-25.2752640837
62
254
0
LINE
8
Modules
10
64.3975890056
20
-25.2752640837
11
64.8981575306
21
-18.4102873663
62
254
0
LINE
8
Modules
10
64.3945588720
20
-25.3168204251
11
60.8135345330
21
-25.0557054723
62
254
0
LINE
8
Modules
10
60.8135345330
20
-25.0557054723
11
60.3129660080
21
-31.9206821897
62
254
0
LINE
8
Modules
10
60.3129660080
20
-31.9206821897
11
63.8939903470
21
-32.1817971425
62
254
0
LINE
8
Modules
10
63.8939903470
20
-32.1817971425
11
64.3945588720
21
-25.3168204251
62
254
0
LINE
8
Modules
10
63.8909602134
20
-32.2233534839
11
60.3099358744
21
-31.9622385311
62
254
0
LINE
8
Modules
10
60.3099358744
20
-31.9622385311
11
59.8093673494
21
-38.8272152484
62
254
0
LINE
8
Modules
10
59.8093673494
20
-38.8272152484
11
63.3903916884
21
-39.0883302012
62
254
0
LINE
8
Modules
10
63.3903916884
20
-39.0883302012
11
63.8909602134
21
-32.2233534839
62
254
0
LINE
8
Modules
10
63.3873615548
20
-39.1298865427
11
59.8063372158
21
-38.8687715899
62
254
0
LINE
8
Modules
10
59.8063372158
20
-38.8687715899
11
59.3057686908
21
-45.7337483072
62
254
0
LINE
8
Modules
10
59.3057686908
20
-45.7337483072
11
62.8867930298
21
-45.9948632600
62
254
0
LINE
8
Modules
10
62.8867930298
20
-45.9948632600
11
63.3873615548
21
-39.1298865427
62
254
0
LINE
8
Modules
10
62.8837628962
20
-46.0364196014
11
59.3027385572
21
-45.7753046486
62
254
0
LINE
8
Modules
10
59.3027385572
20
-45.7753046486
11
58.8021700322
21
-52.6402813660
62
254
0
LINE
8
Modules
10
58.8021700322
20
-52.6402813660
11
62.3831943712
21
-52.9013963188
62
254
0
LINE
8
Modules
10
62.3831943712
20
-52.9013963188
11
62.8837628962
21
-46.0364196014
62
254
0
LINE
8
Modules
10
62.3801642376
20
-52.9429526602
11
58.7991398986
21
-52.6818377074
62
254
0
LINE
8
Modules
10
58.7991398986
20
-52.6818377074
11
58.2985713736
21
-59.5468144248
62
254
0
LINE
8
Modules
10
58.2985713736
20
-59.5468144248
11
61.8795957125
21
-59.8079293776
62
254
0
LINE
8
Modules
10
61.8795957125
20
-59.8079293776
11
62.3801642376
21
-52.9429526602
62
254
0
LINE
8
Modules
10
61.8765655790
20
-59.8494857190
11
58.2955412400
21
-59.5883707662
62
254
0
LINE
8
Modules
10
58.2955412400
20
-59.5883707662
11
57.7949727150
21
-66.4533474836
62
254
0
LINE
8
Modules
10
57.7949727150
20
-66.4533474836
11
61.3759970539
21
-66.7144624363
62
254
0
LINE
8
Modules
10
61.3759970539
20
-66.7144624363
11
61.8765655790
21
-59.8494857190
62
254
0
LINE
8
Modules
10
61.3729669203
20
-66.7560187778
11
57.7919425814
21
-66.4949038250
62
254
0
LINE
8
Modules
10
57.7919425814
20
-66.4949038250
11
57.2913740564
21
-73.3598805423
62
254
0
LINE
8
Modules
10
57.2913740564
20
-73.3598805423
11
60.8723983953
21
-73.6209954951
62
254
0
LINE
8
Modules
10
60.8723983953
20
-73.6209954951
11
61.3729669203
21
-66.7560187778
62
254
0
LINE
8
Modules
10
60.8693682617
20
-73.6625518366
11
57.2883439228
21
-73.4014368838
62
254
0
LINE
8
Modules
10
57.2883439228
20
-73.4014368838
11
56.7877753978
21
-80.2664136011
62
254
0
LINE
8
Modules
10
56.7877753978
20
-80.2664136011
11
60.3687997367
21
-80.5275285539
62
254
0
LINE
8
Modules
10
60.3687997367
20
-80.5275285539
11
60.8693682617
21
-73.6625518366
62
254
0
LINE
8
Modules
10
60.3657696031
20
-80.5690848953
11
56.7847452642
21
-80.3079699425
62
254
0
LINE
8
Modules
10
56.7847452642
20
-80.3079699425
11
56.2841767391
21
-87.1729466599
62
254
0
LINE
8
Modules
10
56.2841767391
20
-87.1729466599
11
59.8652010781
21
-87.4340616127
62
254
0
LINE
8
Modules
10
59.8652010781
20
-87.4340616127
11
60.3657696031
21
-80.5690848953
62
254
0
LINE
8
Modules
10
59.8621709445
20
-87.4756179541
11
56.2811466056
21
-87.2145030013
62
254
0
LINE
8
Modules
10
56.2811466056
20
-87.2145030013
11
55.7805780805
21
-94.0794797187
62
254
0
LINE
8
Modules
10
55.7805780805
20
-94.0794797187
11
59.3616024195
21
-94.3405946715
62
254
0
LINE
8
Modules
10
59.3616024195
20
-94.3405946715
11
59.8621709445
21
-87.4756179541
62
254
0
LINE
8
Modules
10
59.3585722859
20
-94.3821510129
11
55.7775479469
21
-94.1210360601
62
254
0
LINE
8
Modules
10
55.7775479469
20
-94.1210360601
11
55.2769794219
21
-100.9860127775
62
254
0
LINE
8
Modules
10
55.2769794219
20
-100.9860127775
11
58.8580037609
21
-101.2471277302
62
254
0
LINE
8
Modules
10
58.8580037609
20
-101.2471277302
11
59.3585722859
21
-94.3821510129
62
254
0
LINE
8
Modules
10
58.8549736273
20
-101.2886840717
11
55.2739492883
21
-101.0275691189
62
254
0
LINE
8
Modules
10
55.2739492883
20
-101.0275691189
11
54.7733807633
21
-107.8925458362
62
254
0
LINE
8
Modules
10
54.7733807633
20
-107.8925458362
11
58.3544051023
21
-108.1536607890
62
254
0
LINE
8
Modules
10
58.3544051023
20
-108.1536607890
11
58.8549736273
21
-101.2886840717
62
254
0
LINE
8
Modules
10
61.7805915068
20
-11.2397124705
11
58.1995671679
21
-10.9785975177
62
254
0
LINE
8
Modules
10
58.1995671679
20
-10.9785975177
11
57.6989986428
21
-17.8435742350
62
254
0
LINE
8
Modules
10
57.6989986428
20
-17.8435742350
11
61.2800229818
21
-18.1046891878
62
254
0
LINE
8
Modules
10
61.2800229818
20
-18.1046891878
11
61.7805915068
21
-11.2397124705
62
254
0
LINE
8
Modules
10
61.2769928482
20
-18.1462455292
11
57.6959685092
21
-17.8851305765
62
254
0
LINE
8
Modules
10
57.6959685092
20
-17.8851305765
11
57.1953999842
21
-24.7501072938
62
254
0
LINE
8
Modules
10
57.1953999842
20
-24.7501072938
11
60.7764243232
21
-25.0112222466
62
254
0
LINE
8
Modules
10
60.7764243232
20
-25.0112222466
11
61.2769928482
21
-18.1462455292
62
254
0
LINE
8
Modules
10
60.7733941896
20
-25.0527785880
11
57.1923698506
21
-24.7916636352
62
254
0
LINE
8
Modules
10
57.1923698506
20
-24.7916636352
11
56.6918013256
21
-31.6566403526
62
254
0
LINE
8
Modules
10
56.6918013256
20
-31.6566403526
11
60.2728256646
21
-31.9177553054
62
254
0
LINE
8
Modules
10
60.2728256646
20
-31.9177553054
11
60.7733941896
21
-25.0527785880
62
254
0
LINE
8
Modules
10
60.2697955310
20
-31.9593116468
11
56.6887711920
21
-31.6981966940
62
254
0
LINE
8
Modules
10
56.6887711920
20
-31.6981966940
11
56.1882026670
21
-38.5631734114
62
254
0
LINE
8
Modules
10
56.1882026670
20
-38.5631734114
11
59.7692270060
21
-38.8242883642
62
254
0
LINE
8
Modules
10
59.7692270060
20
-38.8242883642
11
60.2697955310
21
-31.9593116468
62
254
0
LINE
8
Modules
10
59.7661968724
20
-38.8658447056
11
56.1851725334
21
-38.6047297528
62
254
0
LINE
8
Modules
10
56.1851725334
20
-38.6047297528
11
55.6846040084
21
-45.4697064702
62
254
0
LINE
8
Modules
10
55.6846040084
20
-45.4697064702
11
59.2656283474
21
-45.7308214229
62
254
0
LINE
8
Modules
10
59.2656283474
20
-45.7308214229
11
59.7661968724
21
-38.8658447056
62
254
0
LINE
8
Modules
10
59.2625982138
20
-45.7723777644
11
55.6815738748
21
-45.5112628116
62
254
0
LINE
8
Modules
10
55.6815738748
20
-45.5112628116
11
55.1810053498
21
-52.3762395289
62
254
0
LINE
8
Modules
10
55.1810053498
20
-52.3762395289
11
58.7620296888
21
-52.6373544817
62
254
0
LINE
8
Modules
10
58.7620296888
20
-52.6373544817
11
59.2625982138
21
-45.7723777644
62
254
0
LINE
8
Modules
10
58.7589995552
20
-52.6789108231
11
55.1779752162
21
-52.4177958704
62
254
0
LINE
8
Modules
10
55.1779752162
20
-52.4177958704
11
54.6774066912
21
-59.2827725877
62
254
0
LINE
8
Modules
10
54.6774066912
20
-59.2827725877
11
58.2584310301
21
-59.5438875405
62
254
0
LINE
8
Modules
10
58.2584310301
20
-59.5438875405
11
58.7589995552
21
-52.6789108231
62
254
0
LINE
8
Modules
10
58.2554008966
20
-59.5854438819
11
54.6743765576
21
-59.3243289291
62
254
0
LINE
8
Modules
10
54.6743765576
20
-59.3243289291
11
54.1738080326
21
-66.1893056465
62
254
0
LINE
8
Modules
10
54.1738080326
20
-66.1893056465
11
57.7548323715
21
-66.4504205993
62
254
0
LINE
8
Modules
10
57.7548323715
20
-66.4504205993
11
58.2554008966
21
-59.5854438819
62
254
0
LINE
8
Modules
10
57.7518022380
20
-66.4919769407
11
54.1707778990
21
-66.2308619879
62
254
0
LINE
8
Modules
10
54.1707778990
20
-66.2308619879
11
53.6702093740
21
-73.0958387053
62
254
0
LINE
8
Modules
10
53.6702093740
20
-73.0958387053
11
57.2512337129
21
-73.3569536581
62
254
0
LINE
8
Modules
10
57.2512337129
20
-73.3569536581
11
57.7518022380
21
-66.4919769407
62
254
0
LINE
8
Modules
10
57.2482035793
20
-73.3985099995
11
53.6671792404
21
-73.1373950467
62
254
0
LINE
8
Modules
10
53.6671792404
20
-73.1373950467
11
53.1666107154
21
-80.0023717640
62
254
0
LINE
8
Modules
10
53.1666107154
20
-80.0023717640
11
56.7476350543
21
-80.2634867168
62
254
0
LINE
8
Modules
10
56.7476350543
20
-80.2634867168
11
57.2482035793
21
-73.3985099995
62
254
0
LINE
8
Modules
10
56.7446049207
20
-80.3050430583
11
53.1635805818
21
-80.0439281055
62
254
0
LINE
8
Modules
10
53.1635805818
20
-80.0439281055
11
52.6630120567
21
-86.9089048228
62
254
0
LINE
8
Modules
10
52.6630120567
20
-86.9089048228
11
56.2440363957
21
-87.1700197756
62
254
0
LINE
8
Modules
10
56.2440363957
20
-87.1700197756
11
56.7446049207
21
-80.3050430583
62
254
0
LINE
8
Modules
10
56.2410062621
20
-87.2115761170
11
52.6599819232
21
-86.9504611643
62
254
0
LINE
8
Modules
10
52.6599819232
20
-86.9504611643
11
52.1594133981
21
-93.8154378816
62
254
0
LINE
8
Modules
10
52.1594133981
20
-93.8154378816
11
55.7404377371
21
-94.0765528344
62
254
0
LINE
8
Modules
10
55.7404377371
20
-94.0765528344
11
56.2410062621
21
-87.2115761170
62
254
0
LINE
8
Modules
10
55.7374076035
20
-94.1181091758
11
52.1563832646
21
-93.8569942230
62
254
0
LINE
8
Modules
10
52.1563832646
20
-93.8569942230
11
51.6558147395
21
-100.7219709404
62
254
0
LINE
8
Modules
10
51.6558147395
20
-100.7219709404
11
55.2368390785
21
-100.9830858932
62
254
0
LINE
8
Modules
10
55.2368390785
20
-100.9830858932
11
55.7374076035
21
-94.1181091758
62
254
0
LINE
8
Modules
10
55.2338089449
20
-101.0246422346
11
51.6527846059
21
-100.7635272818
62
254
0
LINE
8
Modules
10
51.6527846059
20
-100.7635272818
11
51.1522160809
21
-107.6285039992
62
254
0
LINE
8
Modules
10
51.1522160809
20
-107.6285039992
11
54.7332404199
21
-107.8896189519
62
254
0
LINE
8
Modules
10
54.7332404199
20
-107.8896189519
11
55.2338089449
21
-101.0246422346
62
254
0
LINE
8
Modules
10
58.1594268244
20
-10.9756706334
11
54.5784024855
21
-10.7145556806
62
254
0
LINE
8
Modules
10
54.5784024855
20
-10.7145556806
11
54.0778339604
21
-17.5795323980
62
254
0
LINE
8
Modules
10
54.0778339604
20
-17.5795323980
11
57.6588582994
21
-17.8406473507
62
254
0
LINE
8
Modules
10
57.6588582994
20
-17.8406473507
11
58.1594268244
21
-10.9756706334
62
254
0
LINE
8
Modules
10
57.6558281658
20
-17.8822036922
11
54.0748038268
21
-17.6210887394
62
254
0
LINE
8
Modules
10
54.0748038268
20
-17.6210887394
11
53.5742353018
21
-24.4860654567
62
254
0
LINE
8
Modules
10
53.5742353018
20
-24.4860654567
11
57.1552596408
21
-24.7471804095
62
254
0
LINE
8
Modules
10
57.1552596408
20
-24.7471804095
11
57.6558281658
21
-17.8822036922
62
254
0
LINE
8
Modules
10
57.1522295072
20
-24.7887367509
11
53.5712051682
21
-24.5276217982
62
254
0
LINE
8
Modules
10
53.5712051682
20
-24.5276217982
11
53.0706366432
21
-31.3925985155
62
254
0
LINE
8
Modules
10
53.0706366432
20
-31.3925985155
11
56.6516609822
21
-31.6537134683
62
254
0
LINE
8
Modules
10
56.6516609822
20
-31.6537134683
11
57.1522295072
21
-24.7887367509
62
254
0
LINE
8
Modules
10
56.6486308486
20
-31.6952698097
11
53.0676065096
21
-31.4341548569
62
254
0
LINE
8
Modules
10
53.0676065096
20
-31.4341548569
11
52.5670379846
21
-38.2991315743
62
254
0
LINE
8
Modules
10
52.5670379846
20
-38.2991315743
11
56.1480623236
21
-38.5602465271
62
254
0
LINE
8
Modules
10
56.1480623236
20
-38.5602465271
11
56.6486308486
21
-31.6952698097
62
254
0
LINE
8
Modules
10
56.1450321900
20
-38.6018028685
11
52.5640078510
21
-38.3406879157
62
254
0
LINE
8
Modules
10
52.5640078510
20
-38.3406879157
11
52.0634393260
21
-45.2056646331
62
254
0
LINE
8
Modules
10
52.0634393260
20
-45.2056646331
11
55.6444636650
21
-45.4667795859
62
254
0
LINE
8
Modules
10
55.6444636650
20
-45.4667795859
11
56.1450321900
21
-38.6018028685
62
254
0
LINE
8
Modules
10
55.6414335314
20
-45.5083359273
11
52.0604091924
21
-45.2472209745
62
254
0
LINE
8
Modules
10
52.0604091924
20
-45.2472209745
11
51.5598406674
21
-52.1121976919
62
254
0
LINE
8
Modules
10
51.5598406674
20
-52.1121976919
11
55.1408650064
21
-52.3733126446
62
254
0
LINE
8
Modules
10
55.1408650064
20
-52.3733126446
11
55.6414335314
21
-45.5083359273
62
254
0
LINE
8
Modules
10
55.1378348728
20
-52.4148689861
11
51.5568105338
21
-52.1537540333
62
254
0
LINE
8
Modules
10
51.5568105338
20
-52.1537540333
11
51.0562420088
21
-59.0187307506
62
254
0
LINE
8
Modules
10
51.0562420088
20
-59.0187307506
11
54.6372663478
21
-59.2798457034
62
254
0
LINE
8
Modules
10
54.6372663478
20
-59.2798457034
11
55.1378348728
21
-52.4148689861
62
254
0
LINE
8
Modules
10
54.6342362142
20
-59.3214020448
11
51.0532118752
21
-59.0602870921
62
254
0
LINE
8
Modules
10
51.0532118752
20
-59.0602870921
11
50.5526433502
21
-65.9252638094
62
254
0
LINE
8
Modules
10
50.5526433502
20
-65.9252638094
11
54.1336676891
21
-66.1863787622
62
254
0
LINE
8
Modules
10
54.1336676891
20
-66.1863787622
11
54.6342362142
21
-59.3214020448
62
254
0
LINE
8
Modules
10
54.1306375556
20
-66.2279351036
11
50.5496132166
21
-65.9668201508
62
254
0
LINE
8
Modules
10
50.5496132166
20
-65.9668201508
11
50.0490446916
21
-72.8317968682
62
254
0
LINE
8
Modules
10
50.0490446916
20
-72.8317968682
11
53.6300690305
21
-73.0929118210
62
254
0
LINE
8
Modules
10
53.6300690305
20
-73.0929118210
11
54.1306375556
21
-66.2279351036
62
254
0
LINE
8
Modules
10
53.6270388969
20
-73.1344681624
11
50.0460145580
21
-72.8733532096
62
254
0
LINE
8
Modules
10
50.0460145580
20
-72.8733532096
11
49.5454460330
21
-79.7383299270
62
254
0
LINE
8
Modules
10
49.5454460330
20
-79.7383299270
11
53.1264703719
21
-79.9994448798
62
254
0
LINE
8
Modules
10
53.1264703719
20
-79.9994448798
11
53.6270388969
21
-73.1344681624
62
254
0
LINE
8
Modules
10
53.1234402383
20
-80.0410012212
11
49.5424158994
21
-79.7798862684
62
254
0
LINE
8
Modules
10
49.5424158994
20
-79.7798862684
11
49.0418473744
21
-86.6448629858
62
254
0
LINE
8
Modules
10
49.0418473744
20
-86.6448629858
11
52.6228717133
21
-86.9059779385
62
254
0
LINE
8
Modules
10
52.6228717133
20
-86.9059779385
11
53.1234402383
21
-80.0410012212
62
254
0
LINE
8
Modules
10
52.6198415797
20
-86.9475342800
11
49.0388172408
21
-86.6864193272
62
254
0
LINE
8
Modules
10
49.0388172408
20
-86.6864193272
11
48.5382487157
21
-93.5513960445
62
254
0
LINE
8
Modules
10
48.5382487157
20
-93.5513960445
11
52.1192730547
21
-93.8125109973
62
254
0
LINE
8
Modules
10
52.1192730547
20
-93.8125109973
11
52.6198415797
21
-86.9475342800
62
254
0
LINE
8
Modules
10
52.1162429211
20
-93.8540673387
11
48.5352185822
21
-93.5929523860
62
254
0
LINE
8
Modules
10
48.5352185822
20
-93.5929523860
11
48.0346500571
21
-100.4579291033
62
254
0
LINE
8
Modules
10
48.0346500571
20
-100.4579291033
11
51.6156743961
21
-100.7190440561
62
254
0
LINE
8
Modules
10
51.6156743961
20
-100.7190440561
11
52.1162429211
21
-93.8540673387
62
254
0
LINE
8
Modules
10
51.6126442625
20
-100.7606003975
11
48.0316199235
21
-100.4994854447
62
254
0
LINE
8
Modules
10
48.0316199235
20
-100.4994854447
11
47.5310513985
21
-107.3644621621
62
254
0
LINE
8
Modules
10
47.5310513985
20
-107.3644621621
11
51.1120757375
21
-107.6255771149
62
254
0
LINE
8
Modules
10
51.1120757375
20
-107.6255771149
11
51.6126442625
21
-100.7606003975
62
254
0
LINE
8
Modules
10
54.5382621420
20
-10.7116287963
11
50.9572378031
21
-10.4505138435
62
254
0
LINE
8
Modules
10
50.9572378031
20
-10.4505138435
11
50.4566692780
21
-17.3154905609
62
254
0
LINE
8
Modules
10
50.4566692780
20
-17.3154905609
11
54.0376936170
21
-17.5766055137
62
254
0
LINE
8
Modules
10
54.0376936170
20
-17.5766055137
11
54.5382621420
21
-10.7116287963
62
254
0
LINE
8
Modules
10
54.0346634834
20
-17.6181618551
11
50.4536391445
21
-17.3570469023
62
254
0
LINE
8
Modules
10
50.4536391445
20
-17.3570469023
11
49.9530706194
21
-24.2220236197
62
254
0
LINE
8
Modules
10
49.9530706194
20
-24.2220236197
11
53.5340949584
21
-24.4831385724
62
254
0
LINE
8
Modules
10
53.5340949584
20
-24.4831385724
11
54.0346634834
21
-17.6181618551
62
254
0
LINE
8
Modules
10
53.5310648248
20
-24.5246949139
11
49.9500404858
21
-24.2635799611
62
254
0
LINE
8
Modules
10
49.9500404858
20
-24.2635799611
11
49.4494719608
21
-31.1285566784
62
254
0
LINE
8
Modules
10
49.4494719608
20
-31.1285566784
11
53.0304962998
21
-31.3896716312
62
254
0
LINE
8
Modules
10
53.0304962998
20
-31.3896716312
11
53.5310648248
21
-24.5246949139
62
254
0
LINE
8
Modules
10
53.0274661662
20
-31.4312279727
11
49.4464418272
21
-31.1701130199
62
254
0
LINE
8
Modules
10
49.4464418272
20
-31.1701130199
11
48.9458733022
21
-38.0350897372
62
254
0
LINE
8
Modules
10
48.9458733022
20
-38.0350897372
11
52.5268976412
21
-38.2962046900
62
254
0
LINE
8
Modules
10
52.5268976412
20
-38.2962046900
11
53.0274661662
21
-31.4312279727
62
254
0
LINE
8
Modules
10
52.5238675076
20
-38.3377610314
11
48.9428431686
21
-38.0766460786
62
254
0
LINE
8
Modules
10
48.9428431686
20
-38.0766460786
11
48.4422746436
21
-44.9416227960
62
254
0
LINE
8
Modules
10
48.4422746436
20
-44.9416227960
11
52.0232989826
21
-45.2027377488
62
254
0
LINE
8
Modules
10
52.0232989826
20
-45.2027377488
11
52.5238675076
21
-38.3377610314
62
254
0
LINE
8
Modules
10
52.0202688490
20
-45.2442940902
11
48.4392445100
21
-44.9831791374
62
254
0
LINE
8
Modules
10
48.4392445100
20
-44.9831791374
11
47.9386759850
21
-51.8481558548
62
254
0
LINE
8
Modules
10
47.9386759850
20
-51.8481558548
11
51.5197003240
21
-52.1092708076
62
254
0
LINE
8
Modules
10
51.5197003240
20
-52.1092708076
11
52.0202688490
21
-45.2442940902
62
254
0
LINE
8
Modules
10
51.5166701904
20
-52.1508271490
11
47.9356458514
21
-51.8897121962
62
254
0
LINE
8
Modules
10
47.9356458514
20
-51.8897121962
11
47.4350773264
21
-58.7546889136
62
254
0
LINE
8
Modules
10
47.4350773264
20
-58.7546889136
11
51.0161016654
21
-59.0158038663
62
254
0
LINE
8
Modules
10
51.0161016654
20
-59.0158038663
11
51.5166701904
21
-52.1508271490
62
254
0
LINE
8
Modules
10
51.0130715318
20
-59.0573602078
11
47.4320471928
21
-58.7962452550
62
254
0
LINE
8
Modules
10
47.4320471928
20
-58.7962452550
11
46.9314786678
21
-65.6612219723
62
254
0
LINE
8
Modules
10
46.9314786678
20
-65.6612219723
11
50.5125030067
21
-65.9223369251
62
254
0
LINE
8
Modules
10
50.5125030067
20
-65.9223369251
11
51.0130715318
21
-59.0573602078
62
254
0
LINE
8
Modules
10
50.5094728732
20
-65.9638932665
11
46.9284485342
21
-65.7027783138
62
254
0
LINE
8
Modules
10
46.9284485342
20
-65.7027783138
11
46.4278800092
21
-72.5677550311
62
254
0
LINE
8
Modules
10
46.4278800092
20
-72.5677550311
11
50.0089043481
21
-72.8288699839
62
254
0
LINE
8
Modules
10
50.0089043481
20
-72.8288699839
11
50.5094728732
21
-65.9638932665
62
254
0
LINE
8
Modules
10
50.0058742146
20
-72.8704263253
11
46.4248498756
21
-72.6093113725
62
254
0
LINE
8
Modules
10
46.4248498756
20
-72.6093113725
11
45.9242813506
21
-79.4742880899
62
254
0
LINE
8
Modules
10
45.9242813506
20
-79.4742880899
11
49.5053056895
21
-79.7354030427
62
254
0
LINE
8
Modules
10
49.5053056895
20
-79.7354030427
11
50.0058742146
21
-72.8704263253
62
254
0
LINE
8
Modules
10
49.5022755559
20
-79.7769593841
11
45.9212512170
21
-79.5158444313
62
254
0
LINE
8
Modules
10
45.9212512170
20
-79.5158444313
11
45.4206826920
21
-86.3808211487
62
254
0
LINE
8
Modules
10
45.4206826920
20
-86.3808211487
11
49.0017070309
21
-86.6419361015
62
254
0
LINE
8
Modules
10
49.0017070309
20
-86.6419361015
11
49.5022755559
21
-79.7769593841
62
254
0
LINE
8
Modules
10
48.9986768973
20
-86.6834924429
11
45.4176525584
21
-86.4223774901
62
254
0
LINE
8
Modules
10
45.4176525584
20
-86.4223774901
11
44.9170840333
21
-93.2873542075
62
254
0
LINE
8
Modules
10
44.9170840333
20
-93.2873542075
11
48.4981083723
21
-93.5484691602
62
254
0
LINE
8
Modules
10
48.4981083723
20
-93.5484691602
11
48.9986768973
21
-86.6834924429
62
254
0
LINE
8
Modules
10
48.4950782387
20
-93.5900255017
11
44.9140538998
21
-93.3289105489
62
254
0
LINE
8
Modules
10
44.9140538998
20
-93.3289105489
11
44.4134853747
21
-100.1938872662
62
254
0
LINE
8
Modules
10
44.4134853747
20
-100.1938872662
11
47.9945097137
21
-100.4550022190
62
254
0
LINE
8
Modules
10
47.9945097137
20
-100.4550022190
11
48.4950782387
21
-93.5900255017
62
254
0
LINE
8
Modules
10
47.9914795801
20
-100.4965585604
11
44.4104552412
21
-100.2354436077
62
254
0
LINE
8
Modules
10
44.4104552412
20
-100.2354436077
11
43.9098867161
21
-107.1004203250
62
254
0
LINE
8
Modules
10
43.9098867161
20
-107.1004203250
11
47.4909110551
21
-107.3615352778
62
254
0
LINE
8
Modules
10
47.4909110551
20
-107.3615352778
11
47.9914795801
21
-100.4965585604
62
254
0
LINE
8
Modules
10
50.9170974596
20
-10.4475869592
11
47.3360731207
21
-10.1864720065
62
254
0
LINE
8
Modules
10
47.3360731207
20
-10.1864720065
11
46.8355045956
21
-17.0514487238
62
254
0
LINE
8
Modules
10
46.8355045956
20
-17.0514487238
11
50.4165289346
21
-17.3125636766
62
254
0
LINE
8
Modules
10
50.4165289346
20
-17.3125636766
11
50.9170974596
21
-10.4475869592
62
254
0
LINE
8
Modules
10
50.4134988010
20
-17.3541200180
11
46.8324744621
21
-17.0930050652
62
254
0
LINE
8
Modules
10
46.8324744621
20
-17.0930050652
11
46.3319059370
21
-23.9579817826
62
254
0
LINE
8
Modules
10
46.3319059370
20
-23.9579817826
11
49.9129302760
21
-24.2190967354
62
254
0
LINE
8
Modules
10
49.9129302760
20
-24.2190967354
11
50.4134988010
21
-17.3541200180
62
254
0
LINE
8
Modules
10
49.9099001424
20
-24.2606530768
11
46.3288758035
21
-23.9995381240
62
254
0
LINE
8
Modules
10
46.3288758035
20
-23.9995381240
11
45.8283072784
21
-30.8645148414
62
254
0
LINE
8
Modules
10
45.8283072784
20
-30.8645148414
11
49.4093316174
21
-31.1256297942
62
254
0
LINE
8
Modules
10
49.4093316174
20
-31.1256297942
11
49.9099001424
21
-24.2606530768
62
254
0
LINE
8
Modules
10
49.4063014838
20
-31.1671861356
11
45.8252771448
21
-30.9060711828
62
254
0
LINE
8
Modules
10
45.8252771448
20
-30.9060711828
11
45.3247086198
21
-37.7710479001
62
254
0
LINE
8
Modules
10
45.3247086198
20
-37.7710479001
11
48.9057329588
21
-38.0321628529
62
254
0
LINE
8
Modules
10
48.9057329588
20
-38.0321628529
11
49.4063014838
21
-31.1671861356
62
254
0
LINE
8
Modules
10
48.9027028252
20
-38.0737191944
11
45.3216784862
21
-37.8126042416
62
254
0
LINE
8
Modules
10
45.3216784862
20
-37.8126042416
11
44.8211099612
21
-44.6775809589
62
254
0
LINE
8
Modules
10
44.8211099612
20
-44.6775809589
11
48.4021343002
21
-44.9386959117
62
254
0
LINE
8
Modules
10
48.4021343002
20
-44.9386959117
11
48.9027028252
21
-38.0737191944
62
254
0
LINE
8
Modules
10
48.3991041666
20
-44.9802522531
11
44.8180798276
21
-44.7191373004
62
254
0
LINE
8
Modules
10
44.8180798276
20
-44.7191373004
11
44.3175113026
21
-51.5841140177
62
254
0
LINE
8
Modules
10
44.3175113026
20
-51.5841140177
11
47.8985356416
21
-51.8452289705
62
254
0
LINE
8
Modules
10
47.8985356416
20
-51.8452289705
11
48.3991041666
21
-44.9802522531
62
254
0
LINE
8
Modules
10
47.8955055080
20
-51.8867853119
11
44.3144811690
21
-51.6256703591
62
254
0
LINE
8
Modules
10
44.3144811690
20
-51.6256703591
11
43.8139126440
21
-58.4906470765
62
254
0
LINE
8
Modules
10
43.8139126440
20
-58.4906470765
11
47.3949369830
21
-58.7517620293
62
254
0
LINE
8
Modules
10
47.3949369830
20
-58.7517620293
11
47.8955055080
21
-51.8867853119
62
254
0
LINE
8
Modules
10
47.3919068494
20
-58.7933183707
11
43.8108825104
21
-58.5322034179
62
254
0
LINE
8
Modules
10
43.8108825104
20
-58.5322034179
11
43.3103139854
21
-65.3971801353
62
254
0
LINE
8
Modules
10
43.3103139854
20
-65.3971801353
11
46.8913383244
21
-65.6582950880
62
254
0
LINE
8
Modules
10
46.8913383244
20
-65.6582950880
11
47.3919068494
21
-58.7933183707
62
254
0
LINE
8
Modules
10
46.8883081908
20
-65.6998514295
11
43.3072838518
21
-65.4387364767
62
254
0
LINE
8
Modules
10
43.3072838518
20
-65.4387364767
11
42.8067153268
21
-72.3037131940
62
254
0
LINE
8
Modules
10
42.8067153268
20
-72.3037131940
11
46.3877396657
21
-72.5648281468
62
254
0
LINE
8
Modules
10
46.3877396657
20
-72.5648281468
11
46.8883081908
21
-65.6998514295
62
254
0
LINE
8
Modules
10
46.3847095322
20
-72.6063844883
11
42.8036851932
21
-72.3452695355
62
254
0
LINE
8
Modules
10
42.8036851932
20
-72.3452695355
11
42.3031166682
21
-79.2102462528
62
254
0
LINE
8
Modules
10
42.3031166682
20
-79.2102462528
11
45.8841410071
21
-79.4713612056
62
254
0
LINE
8
Modules
10
45.8841410071
20
-79.4713612056
11
46.3847095322
21
-72.6063844883
62
254
0
LINE
8
Modules
10
45.8811108735
20
-79.5129175470
11
42.3000865346
21
-79.2518025942
62
254
0
LINE
8
Modules
10
42.3000865346
20
-79.2518025942
11
41.7995180096
21
-86.1167793116
62
254
0
LINE
8
Modules
10
41.7995180096
20
-86.1167793116
11
45.3805423485
21
-86.3778942644
62
254
0
LINE
8
Modules
10
45.3805423485
20
-86.3778942644
11
45.8811108735
21
-79.5129175470
62
254
0
LINE
8
Modules
10
45.3775122149
20
-86.4194506058
11
41.7964878760
21
-86.1583356530
62
254
0
LINE
8
Modules
10
41.7964878760
20
-86.1583356530
11
41.2959193510
21
-93.0233123704
62
254
0
LINE
8
Modules
10
41.2959193510
20
-93.0233123704
11
44.8769436899
21
-93.2844273232
62
254
0
LINE
8
Modules
10
44.8769436899
20
-93.2844273232
11
45.3775122149
21
-86.4194506058
62
254
0
LINE
8
Modules
10
44.8739135563
20
-93.3259836646
11
41.2928892174
21
-93.0648687118
62
254
0
LINE
8
Modules
10
41.2928892174
20
-93.0648687118
11
40.7923206923
21
-99.9298454292
62
254
0
LINE
8
Modules
10
40.7923206923
20
-99.9298454292
11
44.3733450313
21
-100.1909603819
62
254
0
LINE
8
Modules
10
44.3733450313
20
-100.1909603819
11
44.8739135563
21
-93.3259836646
62
254
0
LINE
8
Modules
10
44.3703148977
20
-100.2325167234
11
40.7892905588
21
-99.9714017706
62
254
0
LINE
8
Modules
10
40.7892905588
20
-99.9714017706
11
40.2887220337
21
-106.8363784879
62
254
0
LINE
8
Modules
10
40.2887220337
20
-106.8363784879
11
43.8697463727
21
-107.0974934407
62
254
0
LINE
8
Modules
10
43.8697463727
20
-107.0974934407
11
44.3703148977
21
-100.2325167234
62
254
0
LINE
8
Modules
10
47.2959327772
20
-10.1835451222
11
43.7149084383
21
-9.9224301694
62
254
0
LINE
8
Modules
10
43.7149084383
20
-9.9224301694
11
43.2143399133
21
-16.7874068867
62
254
0
LINE
8
Modules
10
43.2143399133
20
-16.7874068867
11
46.7953642522
21
-17.0485218395
62
254
0
LINE
8
Modules
10
46.7953642522
20
-17.0485218395
11
47.2959327772
21
-10.1835451222
62
254
0
LINE
8
Modules
10
46.7923341186
20
-17.0900781809
11
43.2113097797
21
-16.8289632282
62
254
0
LINE
8
Modules
10
43.2113097797
20
-16.8289632282
11
42.7107412546
21
-23.6939399455
62
254
0
LINE
8
Modules
10
42.7107412546
20
-23.6939399455
11
46.2917655936
21
-23.9550548983
62
254
0
LINE
8
Modules
10
46.2917655936
20
-23.9550548983
11
46.7923341186
21
-17.0900781809
62
254
0
LINE
8
Modules
10
46.2887354600
20
-23.9966112397
11
42.7077111211
21
-23.7354962869
62
254
0
LINE
8
Modules
10
42.7077111211
20
-23.7354962869
11
42.2071425960
21
-30.6004730043
62
254
0
LINE
8
Modules
10
42.2071425960
20
-30.6004730043
11
45.7881669350
21
-30.8615879571
62
254
0
LINE
8
Modules
10
45.7881669350
20
-30.8615879571
11
46.2887354600
21
-23.9966112397
62
254
0
LINE
8
Modules
10
45.7851368014
20
-30.9031442985
11
42.2041124624
21
-30.6420293457
62
254
0
LINE
8
Modules
10
42.2041124624
20
-30.6420293457
11
41.7035439374
21
-37.5070060631
62
254
0
LINE
8
Modules
10
41.7035439374
20
-37.5070060631
11
45.2845682764
21
-37.7681210159
62
254
0
LINE
8
Modules
10
45.2845682764
20
-37.7681210159
11
45.7851368014
21
-30.9031442985
62
254
0
LINE
8
Modules
10
45.2815381428
20
-37.8096773573
11
41.7005138038
21
-37.5485624045
62
254
0
LINE
8
Modules
10
41.7005138038
20
-37.5485624045
11
41.1999452788
21
-44.4135391219
62
254
0
LINE
8
Modules
10
41.1999452788
20
-44.4135391219
11
44.7809696178
21
-44.6746540746
62
254
0
LINE
8
Modules
10
44.7809696178
20
-44.6746540746
11
45.2815381428
21
-37.8096773573
62
254
0
LINE
8
Modules
10
44.7779394842
20
-44.7162104161
11
41.1969151452
21
-44.4550954633
62
254
0
LINE
8
Modules
10
41.1969151452
20
-44.4550954633
11
40.6963466202
21
-51.3200721806
62
254
0
LINE
8
Modules
10
40.6963466202
20
-51.3200721806
11
44.2773709592
21
-51.5811871334
62
254
0
LINE
8
Modules
10
44.2773709592
20
-51.5811871334
11
44.7779394842
21
-44.7162104161
62
254
0
LINE
8
Modules
10
44.2743408256
20
-51.6227434748
11
40.6933164866
21
-51.3616285221
62
254
0
LINE
8
Modules
10
40.6933164866
20
-51.3616285221
11
40.1927479616
21
-58.2266052394
62
254
0
LINE
8
Modules
10
40.1927479616
20
-58.2266052394
11
43.7737723006
21
-58.4877201922
62
254
0
LINE
8
Modules
10
43.7737723006
20
-58.4877201922
11
44.2743408256
21
-51.6227434748
62
254
0
LINE
8
Modules
10
43.7707421670
20
-58.5292765336
11
40.1897178280
21
-58.2681615808
62
254
0
LINE
8
Modules
10
40.1897178280
20
-58.2681615808
11
39.6891493030
21
-65.1331382982
62
254
0
LINE
8
Modules
10
39.6891493030
20
-65.1331382982
11
43.2701736420
21
-65.3942532510
62
254
0
LINE
8
Modules
10
43.2701736420
20
-65.3942532510
11
43.7707421670
21
-58.5292765336
62
254
0
LINE
8
Modules
10
43.2671435084
20
-65.4358095924
11
39.6861191694
21
-65.1746946396
62
254
0
LINE
8
Modules
10
39.6861191694
20
-65.1746946396
11
39.1855506444
21
-72.0396713570
62
254
0
LINE
8
Modules
10
39.1855506444
20
-72.0396713570
11
42.7665749834
21
-72.3007863098
62
254
0
LINE
8
Modules
10
42.7665749834
20
-72.3007863098
11
43.2671435084
21
-65.4358095924
62
254
0
LINE
8
Modules
10
42.7635448498
20
-72.3423426512
11
39.1825205108
21
-72.0812276984
62
254
0
LINE
8
Modules
10
39.1825205108
20
-72.0812276984
11
38.6819519858
21
-78.9462044157
62
254
0
LINE
8
Modules
10
38.6819519858
20
-78.9462044157
11
42.2629763247
21
-79.2073193685
62
254
0
LINE
8
Modules
10
42.2629763247
20
-79.2073193685
11
42.7635448498
21
-72.3423426512
62
254
0
LINE
8
Modules
10
42.2599461912
20
-79.2488757100
11
38.6789218522
21
-78.9877607572
62
254
0
LINE
8
Modules
10
38.6789218522
20
-78.9877607572
11
38.1783533272
21
-85.8527374745
62
254
0
LINE
8
Modules
10
38.1783533272
20
-85.8527374745
11
41.7593776661
21
-86.1138524273
62
254
0
LINE
8
Modules
10
41.7593776661
20
-86.1138524273
11
42.2599461912
21
-79.2488757100
62
254
0
LINE
8
Modules
10
41.7563475325
20
-86.1554087687
11
38.1753231936
21
-85.8942938160
62
254
0
LINE
8
Modules
10
38.1753231936
20
-85.8942938160
11
37.6747546686
21
-92.7592705333
62
254
0
LINE
8
Modules
10
37.6747546686
20
-92.7592705333
11
41.2557790075
21
-93.0203854861
62
254
0
LINE
8
Modules
10
41.2557790075
20
-93.0203854861
11
41.7563475325
21
-86.1554087687
62
254
0
LINE
8
Modules
10
41.2527488739
20
-93.0619418275
11
37.6717245350
21
-92.8008268747
62
254
0
LINE
8
Modules
10
37.6717245350
20
-92.8008268747
11
37.1711560100
21
-99.6658035921
62
254
0
LINE
8
Modules
10
37.1711560100
20
-99.6658035921
11
40.7521803489
21
-99.9269185449
62
254
0
LINE
8
Modules
10
40.7521803489
20
-99.9269185449
11
41.2527488739
21
-93.0619418275
62
254
0
LINE
8
Modules
10
40.7491502153
20
-99.9684748863
11
37.1681258764
21
-99.7073599335
62
254
0
LINE
8
Modules
10
37.1681258764
20
-99.7073599335
11
36.6675573513
21
-106.5723366509
62
254
0
LINE
8
Modules
10
36.6675573513
20
-106.5723366509
11
40.2485816903
21
-106.8334516037
62
254
0
LINE
8
Modules
10
40.2485816903
20
-106.8334516037
11
40.7491502153
21
-99.9684748863
62
254
0
LINE
8
Modules
10
59.2300469362
20
-108.0110596261
11
62.8086386438
21
-108.3036305143
62
254
0
LINE
8
Modules
10
62.8086386438
20
-108.3036305143
11
63.3695095415
21
-101.4433172551
62
254
0
LINE
8
Modules
10
63.3695095415
20
-101.4433172551
11
59.7909178338
21
-101.1507463669
62
254
0
LINE
8
Modules
10
59.7909178338
20
-101.1507463669
11
59.2300469362
21
-108.0110596261
62
254
0
LINE
8
Modules
10
59.7943130008
20
-101.1092182552
11
63.3729047085
21
-101.4017891433
62
254
0
LINE
8
Modules
10
63.3729047085
20
-101.4017891433
11
63.9337756061
21
-94.5414758842
62
254
0
LINE
8
Modules
10
63.9337756061
20
-94.5414758842
11
60.3551838985
21
-94.2489049960
62
254
0
LINE
8
Modules
10
60.3551838985
20
-94.2489049960
11
59.7943130008
21
-101.1092182552
62
254
0
LINE
8
Modules
10
60.3585790655
20
-94.2073768843
11
63.9371707732
21
-94.4999477724
62
254
0
LINE
8
Modules
10
63.9371707732
20
-94.4999477724
11
64.4980416708
21
-87.6396345132
62
254
0
LINE
8
Modules
10
64.4980416708
20
-87.6396345132
11
60.9194499631
21
-87.3470636251
62
254
0
LINE
8
Modules
10
60.9194499631
20
-87.3470636251
11
60.3585790655
21
-94.2073768843
62
254
0
LINE
8
Modules
10
60.9228451302
20
-87.3055355133
11
64.5014368378
21
-87.5981064015
62
254
0
LINE
8
Modules
10
64.5014368378
20
-87.5981064015
11
65.0623077355
21
-80.7377931423
62
254
0
LINE
8
Modules
10
65.0623077355
20
-80.7377931423
11
61.4837160278
21
-80.4452222542
62
254
0
LINE
8
Modules
10
61.4837160278
20
-80.4452222542
11
60.9228451302
21
-87.3055355133
62
254
0
LINE
8
Modules
10
61.4871111948
20
-80.4036941424
11
65.0657029025
21
-80.6962650306
62
254
0
LINE
8
Modules
10
65.0657029025
20
-80.6962650306
11
65.6265738002
21
-73.8359517714
62
254
0
LINE
8
Modules
10
65.6265738002
20
-73.8359517714
11
62.0479820925
21
-73.5433808832
62
254
0
LINE
8
Modules
10
62.0479820925
20
-73.5433808832
11
61.4871111948
21
-80.4036941424
62
254
0
LINE
8
Modules
10
62.0513772595
20
-73.5018527715
11
65.6299689672
21
-73.7944236597
62
254
0
LINE
8
Modules
10
65.6299689672
20
-73.7944236597
11
66.1908398648
21
-66.9341104005
62
254
0
LINE
8
Modules
10
66.1908398648
20
-66.9341104005
11
62.6122481571
21
-66.6415395123
62
254
0
LINE
8
Modules
10
62.6122481571
20
-66.6415395123
11
62.0513772595
21
-73.5018527715
62
254
0
LINE
8
Modules
10
62.6156433242
20
-66.6000114006
11
66.1942350318
21
-66.8925822888
62
254
0
LINE
8
Modules
10
66.1942350318
20
-66.8925822888
11
66.7551059295
21
-60.0322690296
62
254
0
LINE
8
Modules
10
66.7551059295
20
-60.0322690296
11
63.1765142218
21
-59.7396981414
62
254
0
LINE
8
Modules
10
63.1765142218
20
-59.7396981414
11
62.6156433242
21
-66.6000114006
62
254
0
LINE
8
Modules
10
63.1799093888
20
-59.6981700297
11
66.7585010965
21
-59.9907409179
62
254
0
LINE
8
Modules
10
66.7585010965
20
-59.9907409179
11
67.3193719942
21
-53.1304276587
62
254
0
LINE
8
Modules
10
67.3193719942
20
-53.1304276587
11
63.7407802865
21
-52.8378567705
62
254
0
LINE
8
Modules
10
63.7407802865
20
-52.8378567705
11
63.1799093888
21
-59.6981700297
62
254
0
LINE
8
Modules
10
63.7441754535
20
-52.7963286588
11
67.3227671612
21
-53.0888995470
62
254
0
LINE
8
Modules
10
67.3227671612
20
-53.0888995470
11
67.8836380588
21
-46.2285862878
62
254
0
LINE
8
Modules
10
67.8836380588
20
-46.2285862878
11
64.3050463512
21
-45.9360153996
62
254
0
LINE
8
Modules
10
64.3050463512
20
-45.9360153996
11
63.7441754535
21
-52.7963286588
62
254
0
LINE
8
Modules
10
64.3084415182
20
-45.8944872879
11
67.8870332258
21
-46.1870581761
62
254
0
LINE
8
Modules
10
67.8870332258
20
-46.1870581761
11
68.4479041235
21
-39.3267449169
62
254
0
LINE
8
Modules
10
68.4479041235
20
-39.3267449169
11
64.8693124158
21
-39.0341740287
62
254
0
LINE
8
Modules
10
64.8693124158
20
-39.0341740287
11
64.3084415182
21
-45.8944872879
62
254
0
LINE
8
Modules
10
64.8727075828
20
-38.9926459170
11
68.4512992905
21
-39.2852168051
62
254
0
LINE
8
Modules
10
68.4512992905
20
-39.2852168051
11
69.0121701882
21
-32.4249035460
62
254
0
LINE
8
Modules
10
69.0121701882
20
-32.4249035460
11
65.4335784805
21
-32.1323326578
62
254
0
LINE
8
Modules
10
65.4335784805
20
-32.1323326578
11
64.8727075828
21
-38.9926459170
62
254
0
LINE
8
Modules
10
65.4369736475
20
-32.0908045461
11
69.0155653552
21
-32.3833754342
62
254
0
LINE
8
Modules
10
69.0155653552
20
-32.3833754342
11
69.5764362528
21
-25.5230621750
62
254
0
LINE
8
Modules
10
69.5764362528
20
-25.5230621750
11
65.9978445452
21
-25.2304912869
62
254
0
LINE
8
Modules
10
65.9978445452
20
-25.2304912869
11
65.4369736475
21
-32.0908045461
62
254
0
LINE
8
Modules
10
66.0012397122
20
-25.1889631751
11
69.5798314198
21
-25.4815340633
62
254
0
LINE
8
Modules
10
69.5798314198
20
-25.4815340633
11
70.1407023175
21
-18.6212208041
62
254
0
LINE
8
Modules
10
70.1407023175
20
-18.6212208041
11
66.5621106098
21
-18.3286499160
62
254
0
LINE
8
Modules
10
66.5621106098
20
-18.3286499160
11
66.0012397122
21
-25.1889631751
62
254
0
LINE
8
Modules
10
66.5655057768
20
-18.2871218042
11
70.1440974845
21
-18.5796926924
62
254
0
LINE
8
Modules
10
70.1440974845
20
-18.5796926924
11
70.7049683822
21
-11.7193794332
62
254
0
LINE
8
Modules
10
70.7049683822
20
-11.7193794332
11
67.1263766745
21
-11.4268085450
62
254
0
LINE
8
Modules
10
67.1263766745
20
-11.4268085450
11
66.5655057768
21
-18.2871218042
62
254
0
LINE
8
Modules
10
62.8487517195
20
-108.3069099938
11
66.4273434271
21
-108.5994808819
62
254
0
LINE
8
Modules
10
66.4273434271
20
-108.5994808819
11
66.9882143248
21
-101.7391676227
62
254
0
LINE
8
Modules
10
66.9882143248
20
-101.7391676227
11
63.4096226171
21
-101.4465967346
62
254
0
LINE
8
Modules
10
63.4096226171
20
-101.4465967346
11
62.8487517195
21
-108.3069099938
62
254
0
LINE
8
Modules
10
63.4130177841
20
-101.4050686229
11
66.9916094918
21
-101.6976395110
62
254
0
LINE
8
Modules
10
66.9916094918
20
-101.6976395110
11
67.5524803894
21
-94.8373262518
62
254
0
LINE
8
Modules
10
67.5524803894
20
-94.8373262518
11
63.9738886818
21
-94.5447553637
62
254
0
LINE
8
Modules
10
63.9738886818
20
-94.5447553637
11
63.4130177841
21
-101.4050686229
62
254
0
LINE
8
Modules
10
63.9772838488
20
-94.5032272519
11
67.5558755565
21
-94.7957981401
62
254
0
LINE
8
Modules
10
67.5558755565
20
-94.7957981401
11
68.1167464541
21
-87.9354848809
62
254
0
LINE
8
Modules
10
68.1167464541
20
-87.9354848809
11
64.5381547464
21
-87.6429139927
62
254
0
LINE
8
Modules
10
64.5381547464
20
-87.6429139927
11
63.9772838488
21
-94.5032272519
62
254
0
LINE
8
Modules
10
64.5415499135
20
-87.6013858810
11
68.1201416211
21
-87.8939567692
62
254
0
LINE
8
Modules
10
68.1201416211
20
-87.8939567692
11
68.6810125188
21
-81.0336435100
62
254
0
LINE
8
Modules
10
68.6810125188
20
-81.0336435100
11
65.1024208111
21
-80.7410726218
62
254
0
LINE
8
Modules
10
65.1024208111
20
-80.7410726218
11
64.5415499135
21
-87.6013858810
62
254
0
LINE
8
Modules
10
65.1058159781
20
-80.6995445101
11
68.6844076858
21
-80.9921153983
62
254
0
LINE
8
Modules
10
68.6844076858
20
-80.9921153983
11
69.2452785835
21
-74.1318021391
62
254
0
LINE
8
Modules
10
69.2452785835
20
-74.1318021391
11
65.6666868758
21
-73.8392312509
62
254
0
LINE
8
Modules
10
65.6666868758
20
-73.8392312509
11
65.1058159781
21
-80.6995445101
62
254
0
LINE
8
Modules
10
65.6700820428
20
-73.7977031392
11
69.2486737505
21
-74.0902740274
62
254
0
LINE
8
Modules
10
69.2486737505
20
-74.0902740274
11
69.8095446481
21
-67.2299607682
62
254
0
LINE
8
Modules
10
69.8095446481
20
-67.2299607682
11
66.2309529404
21
-66.9373898800
62
254
0
LINE
8
Modules
10
66.2309529404
20
-66.9373898800
11
65.6700820428
21
-73.7977031392
62
254
0
LINE
8
Modules
10
66.2343481075
20
-66.8958617683
11
69.8129398151
21
-67.1884326565
62
254
0
LINE
8
Modules
10
69.8129398151
20
-67.1884326565
11
70.3738107128
21
-60.3281193973
62
254
0
LINE
8
Modules
10
70.3738107128
20
-60.3281193973
11
66.7952190051
21
-60.0355485091
62
254
0
LINE
8
Modules
10
66.7952190051
20
-60.0355485091
11
66.2343481075
21
-66.8958617683
62
254
0
LINE
8
Modules
10
66.7986141721
20
-59.9940203974
11
70.3772058798
21
-60.2865912856
62
254
0
LINE
8
Modules
10
70.3772058798
20
-60.2865912856
11
70.9380767775
21
-53.4262780264
62
254
0
LINE
8
Modules
10
70.9380767775
20
-53.4262780264
11
67.3594850698
21
-53.1337071382
62
254
0
LINE
8
Modules
10
67.3594850698
20
-53.1337071382
11
66.7986141721
21
-59.9940203974
62
254
0
LINE
8
Modules
10
67.3628802368
20
-53.0921790265
11
70.9414719445
21
-53.3847499146
62
254
0
LINE
8
Modules
10
70.9414719445
20
-53.3847499146
11
71.5023428421
21
-46.5244366555
62
254
0
LINE
8
Modules
10
71.5023428421
20
-46.5244366555
11
67.9237511345
21
-46.2318657673
62
254
0
LINE
8
Modules
10
67.9237511345
20
-46.2318657673
11
67.3628802368
21
-53.0921790265
62
254
0
LINE
8
Modules
10
67.9271463015
20
-46.1903376556
11
71.5057380091
21
-46.4829085437
62
254
0
LINE
8
Modules
10
71.5057380091
20
-46.4829085437
11
72.0666089068
21
-39.6225952845
62
254
0
LINE
8
Modules
10
72.0666089068
20
-39.6225952845
11
68.4880171991
21
-39.3300243964
62
254
0
LINE
8
Modules
10
68.4880171991
20
-39.3300243964
11
67.9271463015
21
-46.1903376556
62
254
0
LINE
8
Modules
10
68.4914123661
20
-39.2884962846
11
72.0700040738
21
-39.5810671728
62
254
0
LINE
8
Modules
10
72.0700040738
20
-39.5810671728
11
72.6308749715
21
-32.7207539136
62
254
0
LINE
8
Modules
10
72.6308749715
20
-32.7207539136
11
69.0522832638
21
-32.4281830255
62
254
0
LINE
8
Modules
10
69.0522832638
20
-32.4281830255
11
68.4914123661
21
-39.2884962846
62
254
0
LINE
8
Modules
10
69.0556784308
20
-32.3866549137
11
72.6342701385
21
-32.6792258019
62
254
0
LINE
8
Modules
10
72.6342701385
20
-32.6792258019
11
73.1951410361
21
-25.8189125427
62
254
0
LINE
8
Modules
10
73.1951410361
20
-25.8189125427
11
69.6165493285
21
-25.5263416545
62
254
0
LINE
8
Modules
10
69.6165493285
20
-25.5263416545
11
69.0556784308
21
-32.3866549137
62
254
0
LINE
8
Modules
10
69.6199444955
20
-25.4848135428
11
73.1985362032
21
-25.7773844310
62
254
0
LINE
8
Modules
10
73.1985362032
20
-25.7773844310
11
73.7594071008
21
-18.9170711718
62
254
0
LINE
8
Modules
10
73.7594071008
20
-18.9170711718
11
70.1808153931
21
-18.6245002836
62
254
0
LINE
8
Modules
10
70.1808153931
20
-18.6245002836
11
69.6199444955
21
-25.4848135428
62
254
0
LINE
8
Modules
10
70.1842105601
20
-18.5829721719
11
73.7628022678
21
-18.8755430601
62
254
0
LINE
8
Modules
10
73.7628022678
20
-18.8755430601
11
74.3236731655
21
-12.0152298009
62
254
0
LINE
8
Modules
10
74.3236731655
20
-12.0152298009
11
70.7450814578
21
-11.7226589127
62
254
0
LINE
8
Modules
10
70.7450814578
20
-11.7226589127
11
70.1842105601
21
-18.5829721719
62
254
0
LINE
8
Modules
10
66.4674565028
20
-108.6027603614
11
70.0460482104
21
-108.8953312496
62
254
0
LINE
8
Modules
10
70.0460482104
20
-108.8953312496
11
70.6069191081
21
-102.0350179904
62
254
0
LINE
8
Modules
10
70.6069191081
20
-102.0350179904
11
67.0283274004
21
-101.7424471023
62
254
0
LINE
8
Modules
10
67.0283274004
20
-101.7424471023
11
66.4674565028
21
-108.6027603614
62
254
0
LINE
8
Modules
10
67.0317225674
20
-101.7009189905
11
70.6103142751
21
-101.9934898787
62
254
0
LINE
8
Modules
10
70.6103142751
20
-101.9934898787
11
71.1711851728
21
-95.1331766195
62
254
0
LINE
8
Modules
10
71.1711851728
20
-95.1331766195
11
67.5925934651
21
-94.8406057313
62
254
0
LINE
8
Modules
10
67.5925934651
20
-94.8406057313
11
67.0317225674
21
-101.7009189905
62
254
0
LINE
8
Modules
10
67.5959886321
20
-94.7990776196
11
71.1745803398
21
-95.0916485078
62
254
0
LINE
8
Modules
10
71.1745803398
20
-95.0916485078
11
71.7354512374
21
-88.2313352486
62
254
0
LINE
8
Modules
10
71.7354512374
20
-88.2313352486
11
68.1568595297
21
-87.9387643604
62
254
0
LINE
8
Modules
10
68.1568595297
20
-87.9387643604
11
67.5959886321
21
-94.7990776196
62
254
0
LINE
8
Modules
10
68.1602546968
20
-87.8972362487
11
71.7388464044
21
-88.1898071369
62
254
0
LINE
8
Modules
10
71.7388464044
20
-88.1898071369
11
72.2997173021
21
-81.3294938777
62
254
0
LINE
8
Modules
10
72.2997173021
20
-81.3294938777
11
68.7211255944
21
-81.0369229895
62
254
0
LINE
8
Modules
10
68.7211255944
20
-81.0369229895
11
68.1602546968
21
-87.8972362487
62
254
0
LINE
8
Modules
10
68.7245207614
20
-80.9953948778
11
72.3031124691
21
-81.2879657660
62
254
0
LINE
8
Modules
10
72.3031124691
20
-81.2879657660
11
72.8639833668
21
-74.4276525068
62
254
0
LINE
8
Modules
10
72.8639833668
20
-74.4276525068
11
69.2853916591
21
-74.1350816186
62
254
0
LINE
8
Modules
10
69.2853916591
20
-74.1350816186
11
68.7245207614
21
-80.9953948778
62
254
0
LINE
8
Modules
10
69.2887868261
20
-74.0935535069
11
72.8673785338
21
-74.3861243951
62
254
0
LINE
8
Modules
10
72.8673785338
20
-74.3861243951
11
73.4282494314
21
-67.5258111359
62
254
0
LINE
8
Modules
10
73.4282494314
20
-67.5258111359
11
69.8496577238
21
-67.2332402477
62
254
0
LINE
8
Modules
10
69.8496577238
20
-67.2332402477
11
69.2887868261
21
-74.0935535069
62
254
0
LINE
8
Modules
10
69.8530528908
20
-67.1917121360
11
73.4316445984
21
-67.4842830242
62
254
0
LINE
8
Modules
10
73.4316445984
20
-67.4842830242
11
73.9925154961
21
-60.6239697650
62
254
0
LINE
8
Modules
10
73.9925154961
20
-60.6239697650
11
70.4139237884
21
-60.3313988768
62
254
0
LINE
8
Modules
10
70.4139237884
20
-60.3313988768
11
69.8530528908
21
-67.1917121360
62
254
0
LINE
8
Modules
10
70.4173189554
20
-60.2898707651
11
73.9959106631
21
-60.5824416532
62
254
0
LINE
8
Modules
10
73.9959106631
20
-60.5824416532
11
74.5567815608
21
-53.7221283941
62
254
0
LINE
8
Modules
10
74.5567815608
20
-53.7221283941
11
70.9781898531
21
-53.4295575059
62
254
0
LINE
8
Modules
10
70.9781898531
20
-53.4295575059
11
70.4173189554
21
-60.2898707651
62
254
0
LINE
8
Modules
10
70.9815850201
20
-53.3880293942
11
74.5601767278
21
-53.6806002823
62
254
0
LINE
8
Modules
10
74.5601767278
20
-53.6806002823
11
75.1210476254
21
-46.8202870231
62
254
0
LINE
8
Modules
10
75.1210476254
20
-46.8202870231
11
71.5424559178
21
-46.5277161350
62
254
0
LINE
8
Modules
10
71.5424559178
20
-46.5277161350
11
70.9815850201
21
-53.3880293942
62
254
0
LINE
8
Modules
10
71.5458510848
20
-46.4861880232
11
75.1244427924
21
-46.7787589114
62
254
0
LINE
8
Modules
10
75.1244427924
20
-46.7787589114
11
75.6853136901
21
-39.9184456522
62
254
0
LINE
8
Modules
10
75.6853136901
20
-39.9184456522
11
72.1067219824
21
-39.6258747641
62
254
0
LINE
8
Modules
10
72.1067219824
20
-39.6258747641
11
71.5458510848
21
-46.4861880232
62
254
0
LINE
8
Modules
10
72.1101171494
20
-39.5843466523
11
75.6887088571
21
-39.8769175405
62
254
0
LINE
8
Modules
10
75.6887088571
20
-39.8769175405
11
76.2495797548
21
-33.0166042813
62
254
0
LINE
8
Modules
10
76.2495797548
20
-33.0166042813
11
72.6709880471
21
-32.7240333931
62
254
0
LINE
8
Modules
10
72.6709880471
20
-32.7240333931
11
72.1101171494
21
-39.5843466523
62
254
0
LINE
8
Modules
10
72.6743832141
20
-32.6825052814
11
76.2529749218
21
-32.9750761696
62
254
0
LINE
8
Modules
10
76.2529749218
20
-32.9750761696
11
76.8138458194
21
-26.1147629104
62
254
0
LINE
8
Modules
10
76.8138458194
20
-26.1147629104
11
73.2352541118
21
-25.8221920222
62
254
0
LINE
8
Modules
10
73.2352541118
20
-25.8221920222
11
72.6743832141
21
-32.6825052814
62
254
0
LINE
8
Modules
10
73.2386492788
20
-25.7806639105
11
76.8172409865
21
-26.0732347987
62
254
0
LINE
8
Modules
10
76.8172409865
20
-26.0732347987
11
77.3781118841
21
-19.2129215395
62
254
0
LINE
8
Modules
10
77.3781118841
20
-19.2129215395
11
73.7995201764
21
-18.9203506513
62
254
0
LINE
8
Modules
10
73.7995201764
20
-18.9203506513
11
73.2386492788
21
-25.7806639105
62
254
0
LINE
8
Modules
10
73.8029153434
20
-18.8788225396
11
77.3815070511
21
-19.1713934278
62
254
0
LINE
8
Modules
10
77.3815070511
20
-19.1713934278
11
77.9423779488
21
-12.3110801686
62
254
0
LINE
8
Modules
10
77.9423779488
20
-12.3110801686
11
74.3637862411
21
-12.0185092804
62
254
0
LINE
8
Modules
10
74.3637862411
20
-12.0185092804
11
73.8029153434
21
-18.8788225396
62
254
0
LINE
8
Modules
10
70.0861612861
20
-108.8986107291
11
73.6647529937
21
-109.1911816173
62
254
0
LINE
8
Modules
10
73.6647529937
20
-109.1911816173
11
74.2256238914
21
-102.3308683581
62
254
0
LINE
8
Modules
10
74.2256238914
20
-102.3308683581
11
70.6470321837
21
-102.0382974699
62
254
0
LINE
8
Modules
10
70.6470321837
20
-102.0382974699
11
70.0861612861
21
-108.8986107291
62
254
0
LINE
8
Modules
10
70.6504273507
20
-101.9967693582
11
74.2290190584
21
-102.2893402464
62
254
0
LINE
8
Modules
10
74.2290190584
20
-102.2893402464
11
74.7898899561
21
-95.4290269872
62
254
0
LINE
8
Modules
10
74.7898899561
20
-95.4290269872
11
71.2112982484
21
-95.1364560990
62
254
0
LINE
8
Modules
10
71.2112982484
20
-95.1364560990
11
70.6504273507
21
-101.9967693582
62
254
0
LINE
8
Modules
10
71.2146934154
20
-95.0949279873
11
74.7932851231
21
-95.3874988755
62
254
0
LINE
8
Modules
10
74.7932851231
20
-95.3874988755
11
75.3541560207
21
-88.5271856163
62
254
0
LINE
8
Modules
10
75.3541560207
20
-88.5271856163
11
71.7755643130
21
-88.2346147281
62
254
0
LINE
8
Modules
10
71.7755643130
20
-88.2346147281
11
71.2146934154
21
-95.0949279873
62
254
0
LINE
8
Modules
10
71.7789594801
20
-88.1930866164
11
75.3575511877
21
-88.4856575046
62
254
0
LINE
8
Modules
10
75.3575511877
20
-88.4856575046
11
75.9184220854
21
-81.6253442454
62
254
0
LINE
8
Modules
10
75.9184220854
20
-81.6253442454
11
72.3398303777
21
-81.3327733572
62
254
0
LINE
8
Modules
10
72.3398303777
20
-81.3327733572
11
71.7789594801
21
-88.1930866164
62
254
0
LINE
8
Modules
10
72.3432255447
20
-81.2912452455
11
75.9218172524
21
-81.5838161337
62
254
0
LINE
8
Modules
10
75.9218172524
20
-81.5838161337
11
76.4826881501
21
-74.7235028745
62
254
0
LINE
8
Modules
10
76.4826881501
20
-74.7235028745
11
72.9040964424
21
-74.4309319863
62
254
0
LINE
8
Modules
10
72.9040964424
20
-74.4309319863
11
72.3432255447
21
-81.2912452455
62
254
0
LINE
8
Modules
10
72.9074916094
20
-74.3894038746
11
76.4860833171
21
-74.6819747627
62
254
0
LINE
8
Modules
10
76.4860833171
20
-74.6819747627
11
77.0469542147
21
-67.8216615036
62
254
0
LINE
8
Modules
10
77.0469542147
20
-67.8216615036
11
73.4683625071
21
-67.5290906154
62
254
0
LINE
8
Modules
10
73.4683625071
20
-67.5290906154
11
72.9074916094
21
-74.3894038746
62
254
0
LINE
8
Modules
10
73.4717576741
20
-67.4875625037
11
77.0503493817
21
-67.7801333918
62
254
0
LINE
8
Modules
10
77.0503493817
20
-67.7801333918
11
77.6112202794
21
-60.9198201326
62
254
0
LINE
8
Modules
10
77.6112202794
20
-60.9198201326
11
74.0326285717
21
-60.6272492445
62
254
0
LINE
8
Modules
10
74.0326285717
20
-60.6272492445
11
73.4717576741
21
-67.4875625037
62
254
0
LINE
8
Modules
10
74.0360237387
20
-60.5857211327
11
77.6146154464
21
-60.8782920209
62
254
0
LINE
8
Modules
10
77.6146154464
20
-60.8782920209
11
78.1754863441
21
-54.0179787617
62
254
0
LINE
8
Modules
10
78.1754863441
20
-54.0179787617
11
74.5968946364
21
-53.7254078736
62
254
0
LINE
8
Modules
10
74.5968946364
20
-53.7254078736
11
74.0360237387
21
-60.5857211327
62
254
0
LINE
8
Modules
10
74.6002898034
20
-53.6838797618
11
78.1788815111
21
-53.9764506500
62
254
0
LINE
8
Modules
10
78.1788815111
20
-53.9764506500
11
78.7397524087
21
-47.1161373908
62
254
0
LINE
8
Modules
10
78.7397524087
20
-47.1161373908
11
75.1611607011
21
-46.8235665026
62
254
0
LINE
8
Modules
10
75.1611607011
20
-46.8235665026
11
74.6002898034
21
-53.6838797618
62
254
0
LINE
8
Modules
10
75.1645558681
20
-46.7820383909
11
78.7431475757
21
-47.0746092791
62
254
0
LINE
8
Modules
10
78.7431475757
20
-47.0746092791
11
79.3040184734
21
-40.2142960199
62
254
0
LINE
8
Modules
10
79.3040184734
20
-40.2142960199
11
75.7254267657
21
-39.9217251317
62
254
0
LINE
8
Modules
10
75.7254267657
20
-39.9217251317
11
75.1645558681
21
-46.7820383909
62
254
0
LINE
8
Modules
10
75.7288219327
20
-39.8801970200
11
79.3074136404
21
-40.1727679082
62
254
0
LINE
8
Modules
10
79.3074136404
20
-40.1727679082
11
79.8682845381
21
-33.3124546490
62
254
0
LINE
8
Modules
10
79.8682845381
20
-33.3124546490
11
76.2896928304
21
-33.0198837608
62
254
0
LINE
8
Modules
10
76.2896928304
20
-33.0198837608
11
75.7288219327
21
-39.8801970200
62
254
0
LINE
8
Modules
10
76.2930879974
20
-32.9783556491
11
79.8716797051
21
-33.2709265373
62
254
0
LINE
8
Modules
10
79.8716797051
20
-33.2709265373
11
80.4325506027
21
-26.4106132781
62
254
0
LINE
8
Modules
10
80.4325506027
20
-26.4106132781
11
76.8539588951
21
-26.1180423899
62
254
0
LINE
8
Modules
10
76.8539588951
20
-26.1180423899
11
76.2930879974
21
-32.9783556491
62
254
0
LINE
8
Modules
10
76.8573540621
20
-26.0765142782
11
80.4359457698
21
-26.3690851664
62
254
0
LINE
8
Modules
10
80.4359457698
20
-26.3690851664
11
80.9968166674
21
-19.5087719072
62
254
0
LINE
8
Modules
10
80.9968166674
20
-19.5087719072
11
77.4182249597
21
-19.2162010190
62
254
0
LINE
8
Modules
10
77.4182249597
20
-19.2162010190
11
76.8573540621
21
-26.0765142782
62
254
0
LINE
8
Modules
10
77.4216201268
20
-19.1746729073
11
81.0002118344
21
-19.4672437955
62
254
0
LINE
8
Modules
10
81.0002118344
20
-19.4672437955
11
81.5610827321
21
-12.6069305363
62
254
0
LINE
8
Modules
10
81.5610827321
20
-12.6069305363
11
77.9824910244
21
-12.3143596481
62
254
0
LINE
8
Modules
10
77.9824910244
20
-12.3143596481
11
77.4216201268
21
-19.1746729073
62
254
0
LINE
8
Modules
10
73.7048660694
20
-109.1944610968
11
77.2834577770
21
-109.4870319850
62
254
0
LINE
8
Modules
10
77.2834577770
20
-109.4870319850
11
77.8443286747
21
-102.6267187258
62
254
0
LINE
8
Modules
10
77.8443286747
20
-102.6267187258
11
74.2657369670
21
-102.3341478376
62
254
0
LINE
8
Modules
10
74.2657369670
20
-102.3341478376
11
73.7048660694
21
-109.1944610968
62
254
0
LINE
8
Modules
10
74.2691321340
20
-102.2926197259
11
77.8477238417
21
-102.5851906141
62
254
0
LINE
8
Modules
10
77.8477238417
20
-102.5851906141
11
78.4085947394
21
-95.7248773549
62
254
0
LINE
8
Modules
10
78.4085947394
20
-95.7248773549
11
74.8300030317
21
-95.4323064667
62
254
0
LINE
8
Modules
10
74.8300030317
20
-95.4323064667
11
74.2691321340
21
-102.2926197259
62
254
0
LINE
8
Modules
10
74.8333981987
20
-95.3907783550
11
78.4119899064
21
-95.6833492432
62
254
0
LINE
8
Modules
10
78.4119899064
20
-95.6833492432
11
78.9728608040
21
-88.8230359840
62
254
0
LINE
8
Modules
10
78.9728608040
20
-88.8230359840
11
75.3942690964
21
-88.5304650958
62
254
0
LINE
8
Modules
10
75.3942690964
20
-88.5304650958
11
74.8333981987
21
-95.3907783550
62
254
0
LINE
8
Modules
10
75.3976642634
20
-88.4889369841
11
78.9762559710
21
-88.7815078723
62
254
0
LINE
8
Modules
10
78.9762559710
20
-88.7815078723
11
79.5371268687
21
-81.9211946131
62
254
0
LINE
8
Modules
10
79.5371268687
20
-81.9211946131
11
75.9585351610
21
-81.6286237249
62
254
0
LINE
8
Modules
10
75.9585351610
20
-81.6286237249
11
75.3976642634
21
-88.4889369841
62
254
0
LINE
8
Modules
10
75.9619303280
20
-81.5870956132
11
79.5405220357
21
-81.8796665013
62
254
0
LINE
8
Modules
10
79.5405220357
20
-81.8796665013
11
80.1013929334
21
-75.0193532422
62
254
0
LINE
8
Modules
10
80.1013929334
20
-75.0193532422
11
76.5228012257
21
-74.7267823540
62
254
0
LINE
8
Modules
10
76.5228012257
20
-74.7267823540
11
75.9619303280
21
-81.5870956132
62
254
0
LINE
8
Modules
10
76.5261963927
20
-74.6852542423
11
80.1047881004
21
-74.9778251304
62
254
0
LINE
8
Modules
10
80.1047881004
20
-74.9778251304
11
80.6656589980
21
-68.1175118712
62
254
0
LINE
8
Modules
10
80.6656589980
20
-68.1175118712
11
77.0870672904
21
-67.8249409831
62
254
0
LINE
8
Modules
10
77.0870672904
20
-67.8249409831
11
76.5261963927
21
-74.6852542423
62
254
0
LINE
8
Modules
10
77.0904624574
20
-67.7834128713
11
80.6690541650
21
-68.0759837595
62
254
0
LINE
8
Modules
10
80.6690541650
20
-68.0759837595
11
81.2299250627
21
-61.2156705003
62
254
0
LINE
8
Modules
10
81.2299250627
20
-61.2156705003
11
77.6513333550
21
-60.9230996122
62
254
0
LINE
8
Modules
10
77.6513333550
20
-60.9230996122
11
77.0904624574
21
-67.7834128713
62
254
0
LINE
8
Modules
10
77.6547285220
20
-60.8815715004
11
81.2333202297
21
-61.1741423886
62
254
0
LINE
8
Modules
10
81.2333202297
20
-61.1741423886
11
81.7941911274
21
-54.3138291294
62
254
0
LINE
8
Modules
10
81.7941911274
20
-54.3138291294
11
78.2155994197
21
-54.0212582412
62
254
0
LINE
8
Modules
10
78.2155994197
20
-54.0212582412
11
77.6547285220
21
-60.8815715004
62
254
0
LINE
8
Modules
10
78.2189945867
20
-53.9797301295
11
81.7975862944
21
-54.2723010177
62
254
0
LINE
8
Modules
10
81.7975862944
20
-54.2723010177
11
82.3584571920
21
-47.4119877585
62
254
0
LINE
8
Modules
10
82.3584571920
20
-47.4119877585
11
78.7798654844
21
-47.1194168703
62
254
0
LINE
8
Modules
10
78.7798654844
20
-47.1194168703
11
78.2189945867
21
-53.9797301295
62
254
0
LINE
8
Modules
10
78.7832606514
20
-47.0778887586
11
82.3618523591
21
-47.3704596468
62
254
0
LINE
8
Modules
10
82.3618523591
20
-47.3704596468
11
82.9227232567
21
-40.5101463876
62
254
0
LINE
8
Modules
10
82.9227232567
20
-40.5101463876
11
79.3441315490
21
-40.2175754994
62
254
0
LINE
8
Modules
10
79.3441315490
20
-40.2175754994
11
78.7832606514
21
-47.0778887586
62
254
0
LINE
8
Modules
10
79.3475267160
20
-40.1760473877
11
82.9261184237
21
-40.4686182759
62
254
0
LINE
8
Modules
10
82.9261184237
20
-40.4686182759
11
83.4869893214
21
-33.6083050167
62
254
0
LINE
8
Modules
10
83.4869893214
20
-33.6083050167
11
79.9083976137
21
-33.3157341285
62
254
0
LINE
8
Modules
10
79.9083976137
20
-33.3157341285
11
79.3475267160
21
-40.1760473877
62
254
0
LINE
8
Modules
10
79.9117927807
20
-33.2742060168
11
83.4903844884
21
-33.5667769050
62
254
0
LINE
8
Modules
10
83.4903844884
20
-33.5667769050
11
84.0512553860
21
-26.7064636458
62
254
0
LINE
8
Modules
10
84.0512553860
20
-26.7064636458
11
80.4726636784
21
-26.4138927576
62
254
0
LINE
8
Modules
10
80.4726636784
20
-26.4138927576
11
79.9117927807
21
-33.2742060168
62
254
0
LINE
8
Modules
10
80.4760588454
20
-26.3723646459
11
84.0546505531
21
-26.6649355340
62
254
0
LINE
8
Modules
10
84.0546505531
20
-26.6649355340
11
84.6155214507
21
-19.8046222749
62
254
0
LINE
8
Modules
10
84.6155214507
20
-19.8046222749
11
81.0369297430
21
-19.5120513867
62
254
0
LINE
8
Modules
10
81.0369297430
20
-19.5120513867
11
80.4760588454
21
-26.3723646459
62
254
0
LINE
8
Modules
10
81.0403249101
20
-19.4705232750
11
84.6189166177
21
-19.7630941631
62
254
0
LINE
8
Modules
10
84.6189166177
20
-19.7630941631
11
85.1797875154
21
-12.9027809039
62
254
0
LINE
8
Modules
10
85.1797875154
20
-12.9027809039
11
81.6011958077
21
-12.6102100158
62
254
0
LINE
8
Modules
10
81.6011958077
20
-12.6102100158
11
81.0403249101
21
-19.4705232750
62
254
0
LINE
8
Modules
10
77.3235708527
20
-109.4903114645
11
80.9021625603
21
-109.7828823527
62
254
0
LINE
8
Modules
10
80.9021625603
20
-109.7828823527
11
81.4630334580
21
-102.9225690935
62
254
0
LINE
8
Modules
10
81.4630334580
20
-102.9225690935
11
77.8844417503
21
-102.6299982053
62
254
0
LINE
8
Modules
10
77.8844417503
20
-102.6299982053
11
77.3235708527
21
-109.4903114645
62
254
0
LINE
8
Modules
10
77.8878369173
20
-102.5884700936
11
81.4664286250
21
-102.8810409818
62
254
0
LINE
8
Modules
10
81.4664286250
20
-102.8810409818
11
82.0272995227
21
-96.0207277226
62
254
0
LINE
8
Modules
10
82.0272995227
20
-96.0207277226
11
78.4487078150
21
-95.7281568344
62
254
0
LINE
8
Modules
10
78.4487078150
20
-95.7281568344
11
77.8878369173
21
-102.5884700936
62
254
0
LINE
8
Modules
10
78.4521029820
20
-95.6866287227
11
82.0306946897
21
-95.9791996108
62
254
0
LINE
8
Modules
10
82.0306946897
20
-95.9791996108
11
82.5915655873
21
-89.1188863517
62
254
0
LINE
8
Modules
10
82.5915655873
20
-89.1188863517
11
79.0129738797
21
-88.8263154635
62
254
0
LINE
8
Modules
10
79.0129738797
20
-88.8263154635
11
78.4521029820
21
-95.6866287227
62
254
0
LINE
8
Modules
10
79.0163690467
20
-88.7847873518
11
82.5949607543
21
-89.0773582399
62
254
0
LINE
8
Modules
10
82.5949607543
20
-89.0773582399
11
83.1558316520
21
-82.2170449807
62
254
0
LINE
8
Modules
10
83.1558316520
20
-82.2170449807
11
79.5772399443
21
-81.9244740926
62
254
0
LINE
8
Modules
10
79.5772399443
20
-81.9244740926
11
79.0163690467
21
-88.7847873518
62
254
0
LINE
8
Modules
10
79.5806351113
20
-81.8829459808
11
83.1592268190
21
-82.1755168690
62
254
0
LINE
8
Modules
10
83.1592268190
20
-82.1755168690
11
83.7200977167
21
-75.3152036098
62
254
0
LINE
8
Modules
10
83.7200977167
20
-75.3152036098
11
80.1415060090
21
-75.0226327217
62
254
0
LINE
8
Modules
10
80.1415060090
20
-75.0226327217
11
79.5806351113
21
-81.8829459808
62
254
0
LINE
8
Modules
10
80.1449011760
20
-74.9811046099
11
83.7234928837
21
-75.2736754981
62
254
0
LINE
8
Modules
10
83.7234928837
20
-75.2736754981
11
84.2843637813
21
-68.4133622389
62
254
0
LINE
8
Modules
10
84.2843637813
20
-68.4133622389
11
80.7057720737
21
-68.1207913507
62
254
0
LINE
8
Modules
10
80.7057720737
20
-68.1207913507
11
80.1449011760
21
-74.9811046099
62
254
0
LINE
8
Modules
10
80.7091672407
20
-68.0792632390
11
84.2877589483
21
-68.3718341272
62
254
0
LINE
8
Modules
10
84.2877589483
20
-68.3718341272
11
84.8486298460
21
-61.5115208680
62
254
0
LINE
8
Modules
10
84.8486298460
20
-61.5115208680
11
81.2700381383
21
-61.2189499798
62
254
0
LINE
8
Modules
10
81.2700381383
20
-61.2189499798
11
80.7091672407
21
-68.0792632390
62
254
0
LINE
8
Modules
10
81.2734333053
20
-61.1774218681
11
84.8520250130
21
-61.4699927563
62
254
0
LINE
8
Modules
10
84.8520250130
20
-61.4699927563
11
85.4128959107
21
-54.6096794971
62
254
0
LINE
8
Modules
10
85.4128959107
20
-54.6096794971
11
81.8343042030
21
-54.3171086089
62
254
0
LINE
8
Modules
10
81.8343042030
20
-54.3171086089
11
81.2734333053
21
-61.1774218681
62
254
0
LINE
8
Modules
10
81.8376993700
20
-54.2755804972
11
85.4162910777
21
-54.5681513854
62
254
0
LINE
8
Modules
10
85.4162910777
20
-54.5681513854
11
85.9771619753
21
-47.7078381262
62
254
0
LINE
8
Modules
10
85.9771619753
20
-47.7078381262
11
82.3985702677
21
-47.4152672380
62
254
0
LINE
8
Modules
10
82.3985702677
20
-47.4152672380
11
81.8376993700
21
-54.2755804972
62
254
0
LINE
8
Modules
10
82.4019654347
20
-47.3737391263
11
85.9805571424
21
-47.6663100145
62
254
0
LINE
8
Modules
10
85.9805571424
20
-47.6663100145
11
86.5414280400
21
-40.8059967553
62
254
0
LINE
8
Modules
10
86.5414280400
20
-40.8059967553
11
82.9628363323
21
-40.5134258671
62
254
0
LINE
8
Modules
10
82.9628363323
20
-40.5134258671
11
82.4019654347
21
-47.3737391263
62
254
0
LINE
8
Modules
10
82.9662314993
20
-40.4718977554
11
86.5448232070
21
-40.7644686436
62
254
0
LINE
8
Modules
10
86.5448232070
20
-40.7644686436
11
87.1056941047
21
-33.9041553844
62
254
0
LINE
8
Modules
10
87.1056941047
20
-33.9041553844
11
83.5271023970
21
-33.6115844962
62
254
0
LINE
8
Modules
10
83.5271023970
20
-33.6115844962
11
82.9662314993
21
-40.4718977554
62
254
0
LINE
8
Modules
10
83.5304975640
20
-33.5700563845
11
87.1090892717
21
-33.8626272726
62
254
0
LINE
8
Modules
10
87.1090892717
20
-33.8626272726
11
87.6699601693
21
-27.0023140135
62
254
0
LINE
8
Modules
10
87.6699601693
20
-27.0023140135
11
84.0913684617
21
-26.7097431253
62
254
0
LINE
8
Modules
10
84.0913684617
20
-26.7097431253
11
83.5304975640
21
-33.5700563845
62
254
0
LINE
8
Modules
10
84.0947636287
20
-26.6682150136
11
87.6733553364
21
-26.9607859017
62
254
0
LINE
8
Modules
10
87.6733553364
20
-26.9607859017
11
88.2342262340
21
-20.1004726425
62
254
0
LINE
8
Modules
10
88.2342262340
20
-20.1004726425
11
84.6556345263
21
-19.8079017544
62
254
0
LINE
8
Modules
10
84.6556345263
20
-19.8079017544
11
84.0947636287
21
-26.6682150136
62
254
0
LINE
8
Modules
10
84.6590296934
20
-19.7663736426
11
88.2376214010
21
-20.0589445308
62
254
0
LINE
8
Modules
10
88.2376214010
20
-20.0589445308
11
88.7984922987
21
-13.1986312716
62
254
0
LINE
8
Modules
10
88.7984922987
20
-13.1986312716
11
85.2199005910
21
-12.9060603835
62
254
0
LINE
8
Modules
10
85.2199005910
20
-12.9060603835
11
84.6590296934
21
-19.7663736426
62
254
0
LINE
8
Buildings
10
8.9565780821
20
-54.9194801421
11
18.8802487437
21
45.5021990008
62
252
0
LINE
8
Buildings
10
18.8802487437
20
45.5021990008
11
-12.1138979215
21
47.7498564700
62
252
0
LINE
8
Buildings
10
-12.1138979215
20
47.7498564700
11
-20.6573434184
21
-51.9930323224
62
252
0
LINE
8
Buildings
10
-20.6573434184
20
-51.9930323224
11
8.9565780821
21
-54.9194801421
62
252
0
LINE
8
Buildings
10
-50.2813607404
20
-49.0655868336
11
-20.6573434184
21
-51.9930323224
62
252
0
LINE
8
Buildings
10
-20.6573434184
20
-51.9930323224
11
-12.1138979215
21
47.7498564700
62
252
0
LINE
8
Buildings
10
-12.1138979215
20
47.7498564700
11
-43.0974818270
21
49.9967479407
62
252
0
LINE
8
Buildings
10
-43.0974818270
20
49.9967479407
11
-50.2813607404
21
-49.0655868336
62
252
0
LINE
8
Setbacks
10
18.5520699433
20
42.5148415624
11
-10.8789491133
21
44.6491429262
62
2
0
LINE
8
Setbacks
10
-10.8789491133
20
44.6491429262
11
-18.9130698735
21
-49.1474917722
62
2
0
LINE
8
Setbacks
10
-18.9130698735
20
-49.1474917722
11
9.2192743959
21
-51.9275303375
62
2
0
LINE
8
Setbacks
10
-50.0319137332
20
-46.0794299757
11
-49.9873851345
21
-46.0767802337
62
2
0
LINE
8
Setbacks
10
-49.9873851345
20
-46.0767802337
11
-49.9868676068
21
-46.0767903433
62
2
0
LINE
8
Setbacks
10
-49.9868676068
20
-46.0767903433
11
-21.8889606352
21
-48.8534258219
62
2
0
LINE
8
Setbacks
10
-21.8889606352
20
-48.8534258219
11
-13.8615024622
21
44.8654226903
62
2
0
LINE
8
Setbacks
10
-13.8615024622
20
44.8654226903
11
-43.2819831138
21
46.9989599408
62
2
0
LINE
8
Inverters
10
93.2316924733
20
-62.4779501813
11
95.6923224733
21
-62.4779501813
0
LINE
8
Inverters
10
95.6923224733
20
-62.4779501813
11
95.6923224733
21
-60.0173201813
0
LINE
8
Inverters
10
95.6923224733
20
-60.0173201813
11
93.2316924733
21
-60.0173201813
0
LINE
8
Inverters
10
93.2316924733
20
-60.0173201813
11
93.2316924733
21
-62.4779501813
0
LINE
8
Inverters
10
93.2316924733
20
-62.4779501813
11
95.6923224733
21
-60.0173201813
0
TEXT
8
Inverters
100
AcDbText
10
93.3957344733
20
-60.9359553813
1
DC
7
NewTextStyle_4
40
0.7545932000000003
50
0
0
TEXT
8
Inverters
100
AcDbText
10
94.2323486733
20
-62.3139081813
1
AC
7
NewTextStyle_4
40
0.7545932000000003
50
0
0
LINE
8
Inverters
10
28.5856523613
20
-53.7382011641
11
31.0462823613
21
-53.7382011641
0
LINE
8
Inverters
10
31.0462823613
20
-53.7382011641
11
31.0462823613
21
-51.2775711641
0
LINE
8
Inverters
10
31.0462823613
20
-51.2775711641
11
28.5856523613
21
-51.2775711641
0
LINE
8
Inverters
10
28.5856523613
20
-51.2775711641
11
28.5856523613
21
-53.7382011641
0
LINE
8
Inverters
10
28.5856523613
20
-53.7382011641
11
31.0462823613
21
-51.2775711641
0
TEXT
8
Inverters
100
AcDbText
10
28.7496943613
20
-52.1962063641
1
DC
7
NewTextStyle_4
40
0.7545932000000003
50
0
0
TEXT
8
Inverters
100
AcDbText
10
29.5863085613
20
-53.5741591641
1
AC
7
NewTextStyle_4
40
0.7545932000000003
50
0
0
LINE
8
Strings
10
38.7083537833
20
-103.2704057686
11
39.7155511006
21
-89.4573396510
62
11
0
LINE
8
Strings
10
39.7155511006
20
-89.4573396510
11
40.2191497592
21
-82.5508065922
62
11
0
LINE
8
Strings
10
40.2191497592
20
-82.5508065922
11
40.7227484178
21
-75.6442735335
62
11
0
LINE
8
Strings
10
40.7227484178
20
-75.6442735335
11
41.2263470764
21
-68.7377404747
62
11
0
LINE
8
Strings
10
41.2263470764
20
-68.7377404747
11
41.7299457350
21
-61.8312074159
62
11
0
LINE
8
Strings
10
42.3295184657
20
-103.5344476057
11
42.8331171243
21
-96.6279145469
62
11
0
LINE
8
Strings
10
42.8331171243
20
-96.6279145469
11
43.3367157829
21
-89.7213814881
62
11
0
LINE
8
Strings
10
43.3367157829
20
-89.7213814881
11
43.8403144416
21
-82.8148484293
62
11
0
LINE
8
Strings
10
43.8403144416
20
-82.8148484293
11
44.3439131002
21
-75.9083153705
62
11
0
LINE
8
Strings
10
44.3439131002
20
-75.9083153705
11
44.8475117588
21
-69.0017823118
62
11
0
LINE
8
Strings
10
44.8475117588
20
-69.0017823118
11
45.3511104174
21
-62.0952492530
62
11
0
LINE
8
Strings
10
45.9506831481
20
-103.7984894427
11
46.4542818067
21
-96.8919563840
62
11
0
LINE
8
Strings
10
46.4542818067
20
-96.8919563840
11
46.9578804653
21
-89.9854233252
62
11
0
LINE
8
Strings
10
46.9578804653
20
-89.9854233252
11
47.4614791240
21
-83.0788902664
62
11
0
LINE
8
Strings
10
47.4614791240
20
-83.0788902664
11
47.9650777826
21
-76.1723572076
62
11
0
LINE
8
Strings
10
47.9650777826
20
-76.1723572076
11
48.9722750998
21
-62.3592910901
62
11
0
LINE
8
Strings
10
49.5718478305
20
-104.0625312798
11
50.0754464891
21
-97.1559982210
62
11
0
LINE
8
Strings
10
50.0754464891
20
-97.1559982210
11
50.5790451477
21
-90.2494651622
62
11
0
LINE
8
Strings
10
50.5790451477
20
-90.2494651622
11
51.0826438063
21
-83.3429321035
62
11
0
LINE
8
Strings
10
51.0826438063
20
-83.3429321035
11
51.5862424650
21
-76.4363990447
62
11
0
LINE
8
Strings
10
51.5862424650
20
-76.4363990447
11
52.0898411236
21
-69.5298659859
62
11
0
LINE
8
Strings
10
52.0898411236
20
-69.5298659859
11
52.5934397822
21
-62.6233329271
62
11
0
LINE
8
Strings
10
53.1930125129
20
-104.3265731169
11
53.6966111715
21
-97.4200400581
62
11
0
LINE
8
Strings
10
53.6966111715
20
-97.4200400581
11
54.2002098301
21
-90.5135069993
62
11
0
LINE
8
Strings
10
54.2002098301
20
-90.5135069993
11
54.7038084887
21
-83.6069739405
62
11
0
LINE
8
Strings
10
54.7038084887
20
-83.6069739405
11
55.2074071474
21
-76.7004408818
62
11
0
LINE
8
Strings
10
55.2074071474
20
-76.7004408818
11
55.7110058060
21
-69.7939078230
62
11
0
LINE
8
Strings
10
55.7110058060
20
-69.7939078230
11
56.2146044646
21
-62.8873747642
62
11
0
LINE
8
Strings
10
56.8141771953
20
-104.5906149540
11
57.3177758539
21
-97.6840818952
62
11
0
LINE
8
Strings
10
57.3177758539
20
-97.6840818952
11
57.8213745125
21
-90.7775488364
62
11
0
LINE
8
Strings
10
57.8213745125
20
-90.7775488364
11
58.3249731711
21
-83.8710157776
62
11
0
LINE
8
Strings
10
58.3249731711
20
-83.8710157776
11
58.8285718297
21
-76.9644827188
62
11
0
LINE
8
Strings
10
58.8285718297
20
-76.9644827188
11
59.3321704884
21
-70.0579496601
62
11
0
LINE
8
Strings
10
59.3321704884
20
-70.0579496601
11
59.8357691470
21
-63.1514166013
62
11
0
LINE
8
Strings
10
45.2551363452
20
-13.4854760045
11
44.7515376866
21
-20.3920090632
62
11
0
LINE
8
Strings
10
44.7515376866
20
-20.3920090632
11
44.2479390280
21
-27.2985421220
62
11
0
LINE
8
Strings
10
44.2479390280
20
-27.2985421220
11
43.7443403694
21
-34.2050751808
62
11
0
LINE
8
Strings
10
43.7443403694
20
-34.2050751808
11
43.2407417108
21
-41.1116082396
62
11
0
LINE
8
Strings
10
43.2407417108
20
-41.1116082396
11
42.2335443936
21
-54.9246743571
62
11
0
LINE
8
Strings
10
48.8763010276
20
-13.7495178415
11
48.3727023690
21
-20.6560509003
62
11
0
LINE
8
Strings
10
48.3727023690
20
-20.6560509003
11
47.3655050518
21
-34.4691170179
62
11
0
LINE
8
Strings
10
47.3655050518
20
-34.4691170179
11
46.8619063932
21
-41.3756500766
62
11
0
LINE
8
Strings
10
46.8619063932
20
-41.3756500766
11
46.3583077346
21
-48.2821831354
62
11
0
LINE
8
Strings
10
46.3583077346
20
-48.2821831354
11
45.8547090760
21
-55.1887161942
62
11
0
LINE
8
Strings
10
52.4974657100
20
-14.0135596786
11
51.9938670514
21
-20.9200927374
62
11
0
LINE
8
Strings
10
51.9938670514
20
-20.9200927374
11
51.4902683928
21
-27.8266257962
62
11
0
LINE
8
Strings
10
51.4902683928
20
-27.8266257962
11
50.9866697342
21
-34.7331588549
62
11
0
LINE
8
Strings
10
50.9866697342
20
-34.7331588549
11
50.4830710756
21
-41.6396919137
62
11
0
LINE
8
Strings
10
50.4830710756
20
-41.6396919137
11
49.9794724170
21
-48.5462249725
62
11
0
LINE
8
Strings
10
49.9794724170
20
-48.5462249725
11
49.4758737584
21
-55.4527580313
62
11
0
LINE
8
Strings
10
56.1186303924
20
-14.2776015157
11
55.6150317338
21
-21.1841345745
62
11
0
LINE
8
Strings
10
55.6150317338
20
-21.1841345745
11
55.1114330752
21
-28.0906676332
62
11
0
LINE
8
Strings
10
55.1114330752
20
-28.0906676332
11
54.6078344166
21
-34.9972006920
62
11
0
LINE
8
Strings
10
54.6078344166
20
-34.9972006920
11
54.1042357580
21
-41.9037337508
62
11
0
LINE
8
Strings
10
54.1042357580
20
-41.9037337508
11
53.6006370994
21
-48.8102668096
62
11
0
LINE
8
Strings
10
53.6006370994
20
-48.8102668096
11
53.0970384408
21
-55.7167998683
62
11
0
LINE
8
Strings
10
59.7397950748
20
-14.5416433527
11
59.2361964162
21
-21.4481764115
62
11
0
LINE
8
Strings
10
59.2361964162
20
-21.4481764115
11
58.7325977576
21
-28.3547094703
62
11
0
LINE
8
Strings
10
58.7325977576
20
-28.3547094703
11
58.2289990990
21
-35.2612425291
62
11
0
LINE
8
Strings
10
58.2289990990
20
-35.2612425291
11
57.7254004404
21
-42.1677755879
62
11
0
LINE
8
Strings
10
57.7254004404
20
-42.1677755879
11
57.2218017818
21
-49.0743086466
62
11
0
LINE
8
Strings
10
57.2218017818
20
-49.0743086466
11
56.7182031232
21
-55.9808417054
62
11
0
LINE
8
Strings
10
63.3609597572
20
-14.8056851898
11
62.8573610986
21
-21.7122182486
62
11
0
LINE
8
Strings
10
62.8573610986
20
-21.7122182486
11
62.3537624400
21
-28.6187513074
62
11
0
LINE
8
Strings
10
62.3537624400
20
-28.6187513074
11
61.8501637814
21
-35.5252843662
62
11
0
LINE
8
Strings
10
61.8501637814
20
-35.5252843662
11
61.3465651228
21
-42.4318174249
62
11
0
LINE
8
Strings
10
61.3465651228
20
-42.4318174249
11
60.8429664642
21
-49.3383504837
62
11
0
LINE
8
Strings
10
60.8429664642
20
-49.3383504837
11
60.3393678056
21
-56.2448835425
62
11
0
LINE
8
Strings
10
79.3933021553
20
-106.2064402790
11
79.9575682200
21
-99.3045989081
62
11
0
LINE
8
Strings
10
79.9575682200
20
-99.3045989081
11
80.5218342847
21
-92.4027575372
62
11
0
LINE
8
Strings
10
80.5218342847
20
-92.4027575372
11
81.0861003493
21
-85.5009161663
62
11
0
LINE
8
Strings
10
81.0861003493
20
-85.5009161663
11
81.6503664140
21
-78.5990747953
62
11
0
LINE
8
Strings
10
81.6503664140
20
-78.5990747953
11
82.2146324787
21
-71.6972334244
62
11
0
LINE
8
Strings
10
82.2146324787
20
-71.6972334244
11
82.7788985433
21
-64.7953920535
62
11
0
LINE
8
Strings
10
75.7745973720
20
-105.9105899113
11
76.3388634367
21
-99.0087485404
62
11
0
LINE
8
Strings
10
76.3388634367
20
-99.0087485404
11
76.9031295014
21
-92.1069071695
62
11
0
LINE
8
Strings
10
76.9031295014
20
-92.1069071695
11
77.4673955660
21
-85.2050657986
62
11
0
LINE
8
Strings
10
77.4673955660
20
-85.2050657986
11
78.0316616307
21
-78.3032244277
62
11
0
LINE
8
Strings
10
78.0316616307
20
-78.3032244277
11
78.5959276954
21
-71.4013830567
62
11
0
LINE
8
Strings
10
78.5959276954
20
-71.4013830567
11
79.1601937600
21
-64.4995416858
62
11
0
LINE
8
Strings
10
72.1558925887
20
-105.6147395436
11
72.7201586534
21
-98.7128981727
62
11
0
LINE
8
Strings
10
72.7201586534
20
-98.7128981727
11
73.2844247181
21
-91.8110568018
62
11
0
LINE
8
Strings
10
73.2844247181
20
-91.8110568018
11
73.8486907827
21
-84.9092154309
62
11
0
LINE
8
Strings
10
73.8486907827
20
-84.9092154309
11
74.9772229121
21
-71.1055326891
62
11
0
LINE
8
Strings
10
74.9772229121
20
-71.1055326891
11
75.5414889767
21
-64.2036913182
62
11
0
LINE
8
Strings
10
68.5371878054
20
-105.3188891759
11
69.6657199348
21
-91.5152064341
62
11
0
LINE
8
Strings
10
69.6657199348
20
-91.5152064341
11
70.2299859994
21
-84.6133650632
62
11
0
LINE
8
Strings
10
70.2299859994
20
-84.6133650632
11
70.7942520641
21
-77.7115236923
62
11
0
LINE
8
Strings
10
70.7942520641
20
-77.7115236923
11
71.3585181288
21
-70.8096823214
62
11
0
LINE
8
Strings
10
71.3585181288
20
-70.8096823214
11
71.9227841934
21
-63.9078409505
62
11
0
LINE
8
Strings
10
64.9184830221
20
-105.0230388083
11
65.4827490868
21
-98.1211974373
62
11
0
LINE
8
Strings
10
65.4827490868
20
-98.1211974373
11
67.1755472808
21
-77.4156733246
62
11
0
LINE
8
Strings
10
67.1755472808
20
-77.4156733246
11
67.7398133455
21
-70.5138319537
62
11
0
LINE
8
Strings
10
67.7398133455
20
-70.5138319537
11
68.3040794101
21
-63.6119905828
62
11
0
LINE
8
Strings
10
61.2997782388
20
-104.7271884406
11
62.9925764328
21
-84.0216643278
62
11
0
LINE
8
Strings
10
62.9925764328
20
-84.0216643278
11
63.5568424975
21
-77.1198229569
62
11
0
LINE
8
Strings
10
63.5568424975
20
-77.1198229569
11
64.1211085622
21
-70.2179815860
62
11
0
LINE
8
Strings
10
64.1211085622
20
-70.2179815860
11
64.6853746268
21
-63.3161402151
62
11
0
LINE
8
Strings
10
86.7287609960
20
-16.4825024571
11
86.1644949313
21
-23.3843438280
62
11
0
LINE
8
Strings
10
86.1644949313
20
-23.3843438280
11
85.6002288667
21
-30.2861851990
62
11
0
LINE
8
Strings
10
85.6002288667
20
-30.2861851990
11
85.0359628020
21
-37.1880265699
62
11
0
LINE
8
Strings
10
85.0359628020
20
-37.1880265699
11
84.4716967373
21
-44.0898679408
62
11
0
LINE
8
Strings
10
84.4716967373
20
-44.0898679408
11
83.9074306727
21
-50.9917093117
62
11
0
LINE
8
Strings
10
83.9074306727
20
-50.9917093117
11
83.3431646080
21
-57.8935506826
62
11
0
LINE
8
Strings
10
83.1100562127
20
-16.1866520895
11
82.5457901480
21
-23.0884934604
62
11
0
LINE
8
Strings
10
82.5457901480
20
-23.0884934604
11
81.9815240834
21
-29.9903348313
62
11
0
LINE
8
Strings
10
81.9815240834
20
-29.9903348313
11
81.4172580187
21
-36.8921762022
62
11
0
LINE
8
Strings
10
81.4172580187
20
-36.8921762022
11
80.8529919540
21
-43.7940175731
62
11
0
LINE
8
Strings
10
80.8529919540
20
-43.7940175731
11
80.2887258894
21
-50.6958589440
62
11
0
LINE
8
Strings
10
80.2887258894
20
-50.6958589440
11
79.7244598247
21
-57.5977003149
62
11
0
LINE
8
Strings
10
79.4913514294
20
-15.8908017218
11
78.9270853647
21
-22.7926430927
62
11
0
LINE
8
Strings
10
78.9270853647
20
-22.7926430927
11
78.3628193001
21
-29.6944844636
62
11
0
LINE
8
Strings
10
78.3628193001
20
-29.6944844636
11
77.7985532354
21
-36.5963258345
62
11
0
LINE
8
Strings
10
77.7985532354
20
-36.5963258345
11
77.2342871707
21
-43.4981672054
62
11
0
LINE
8
Strings
10
77.2342871707
20
-43.4981672054
11
76.6700211061
21
-50.4000085763
62
11
0
LINE
8
Strings
10
76.6700211061
20
-50.4000085763
11
76.1057550414
21
-57.3018499472
62
11
0
LINE
8
Strings
10
75.8726466461
20
-15.5949513541
11
75.3083805814
21
-22.4967927250
62
11
0
LINE
8
Strings
10
75.3083805814
20
-22.4967927250
11
74.7441145168
21
-29.3986340959
62
11
0
LINE
8
Strings
10
74.7441145168
20
-29.3986340959
11
74.1798484521
21
-36.3004754668
62
11
0
LINE
8
Strings
10
74.1798484521
20
-36.3004754668
11
73.6155823874
21
-43.2023168377
62
11
0
LINE
8
Strings
10
73.6155823874
20
-43.2023168377
11
73.0513163228
21
-50.1041582086
62
11
0
LINE
8
Strings
10
73.0513163228
20
-50.1041582086
11
72.4870502581
21
-57.0059995796
62
11
0
LINE
8
Strings
10
72.2539418628
20
-15.2991009864
11
71.6896757981
21
-22.2009423573
62
11
0
LINE
8
Strings
10
71.6896757981
20
-22.2009423573
11
70.5611436688
21
-36.0046250991
62
11
0
LINE
8
Strings
10
70.5611436688
20
-36.0046250991
11
69.9968776041
21
-42.9064664701
62
11
0
LINE
8
Strings
10
69.9968776041
20
-42.9064664701
11
69.4326115395
21
-49.8083078410
62
11
0
LINE
8
Strings
10
69.4326115395
20
-49.8083078410
11
68.8683454748
21
-56.7101492119
62
11
0
LINE
8
Strings
10
68.6352370795
20
-15.0032506187
11
68.0709710148
21
-21.9050919896
62
11
0
LINE
8
Strings
10
68.0709710148
20
-21.9050919896
11
67.5067049502
21
-28.8069333605
62
11
0
LINE
8
Strings
10
67.5067049502
20
-28.8069333605
11
66.9424388855
21
-35.7087747315
62
11
0
LINE
8
Strings
10
66.9424388855
20
-35.7087747315
11
66.3781728208
21
-42.6106161024
62
11
0
LINE
8
Strings
10
66.3781728208
20
-42.6106161024
11
65.8139067562
21
-49.5124574733
62
11
0
LINE
8
Strings
10
65.8139067562
20
-49.5124574733
11
65.2496406915
21
-56.4142988442
62
11
0
LINE
8
Connections
10
41.7299457350
20
-61.8312074159
11
41.7299457350
21
-61.3390814159
62
91
0
LINE
8
Connections
10
41.7299457350
20
-61.3390814159
11
41.2378197350
21
-61.3390814159
62
91
0
LINE
8
Connections
10
41.2378197350
20
-61.3390814159
11
30.3080933613
21
-53.0000121641
62
91
0
LINE
8
Connections
10
30.3080933613
20
-53.0000121641
11
30.3080933613
21
-52.5078861641
62
91
0
LINE
8
Connections
10
30.3080933613
20
-52.5078861641
11
29.8159673613
21
-52.5078861641
62
91
0
LINE
8
Connections
10
45.3511104174
20
-62.0952492530
11
45.3511104174
21
-61.6031232530
62
91
0
LINE
8
Connections
10
45.3511104174
20
-61.6031232530
11
44.8589844174
21
-61.6031232530
62
91
0
LINE
8
Connections
10
44.8589844174
20
-61.6031232530
11
30.3080933613
21
-53.0000121641
62
91
0
LINE
8
Connections
10
30.3080933613
20
-53.0000121641
11
30.3080933613
21
-52.5078861641
62
91
0
LINE
8
Connections
10
30.3080933613
20
-52.5078861641
11
29.8159673613
21
-52.5078861641
62
91
0
LINE
8
Connections
10
48.9722750998
20
-62.3592910901
11
48.9722750998
21
-61.8671650901
62
91
0
LINE
8
Connections
10
48.9722750998
20
-61.8671650901
11
48.4801490998
21
-61.8671650901
62
91
0
LINE
8
Connections
10
48.4801490998
20
-61.8671650901
11
30.3080933613
21
-53.0000121641
62
91
0
LINE
8
Connections
10
30.3080933613
20
-53.0000121641
11
30.3080933613
21
-52.5078861641
62
91
0
LINE
8
Connections
10
30.3080933613
20
-52.5078861641
11
29.8159673613
21
-52.5078861641
62
91
0
LINE
8
Connections
10
52.5934397822
20
-62.6233329271
11
52.5934397822
21
-62.1312069271
62
91
0
LINE
8
Connections
10
52.5934397822
20
-62.1312069271
11
52.1013137822
21
-62.1312069271
62
91
0
LINE
8
Connections
10
52.1013137822
20
-62.1312069271
11
30.3080933613
21
-53.0000121641
62
91
0
LINE
8
Connections
10
30.3080933613
20
-53.0000121641
11
30.3080933613
21
-52.5078861641
62
91
0
LINE
8
Connections
10
30.3080933613
20
-52.5078861641
11
29.8159673613
21
-52.5078861641
62
91
0
LINE
8
Connections
10
56.2146044646
20
-62.8873747642
11
56.2146044646
21
-62.3952487642
62
91
0
LINE
8
Connections
10
56.2146044646
20
-62.3952487642
11
55.7224784646
21
-62.3952487642
62
91
0
LINE
8
Connections
10
55.7224784646
20
-62.3952487642
11
30.3080933613
21
-53.0000121641
62
91
0
LINE
8
Connections
10
30.3080933613
20
-53.0000121641
11
30.3080933613
21
-52.5078861641
62
91
0
LINE
8
Connections
10
30.3080933613
20
-52.5078861641
11
29.8159673613
21
-52.5078861641
62
91
0
LINE
8
Connections
10
59.8357691470
20
-63.1514166013
11
59.8357691470
21
-62.6592906013
62
91
0
LINE
8
Connections
10
59.8357691470
20
-62.6592906013
11
59.3436431470
21
-62.6592906013
62
91
0
LINE
8
Connections
10
59.3436431470
20
-62.6592906013
11
30.3080933613
21
-53.0000121641
62
91
0
LINE
8
Connections
10
30.3080933613
20
-53.0000121641
11
30.3080933613
21
-52.5078861641
62
91
0
LINE
8
Connections
10
30.3080933613
20
-52.5078861641
11
29.8159673613
21
-52.5078861641
62
91
0
LINE
8
Connections
10
42.2335443936
20
-54.9246743571
11
42.2335443936
21
-54.4325483571
62
91
0
LINE
8
Connections
10
42.2335443936
20
-54.4325483571
11
41.7414183936
21
-54.4325483571
62
91
0
LINE
8
Connections
10
41.7414183936
20
-54.4325483571
11
30.3080933613
21
-53.0000121641
62
91
0
LINE
8
Connections
10
30.3080933613
20
-53.0000121641
11
30.3080933613
21
-52.5078861641
62
91
0
LINE
8
Connections
10
30.3080933613
20
-52.5078861641
11
29.8159673613
21
-52.5078861641
62
91
0
LINE
8
Connections
10
45.8547090760
20
-55.1887161942
11
45.8547090760
21
-54.6965901942
62
91
0
LINE
8
Connections
10
45.8547090760
20
-54.6965901942
11
45.3625830760
21
-54.6965901942
62
91
0
LINE
8
Connections
10
45.3625830760
20
-54.6965901942
11
30.3080933613
21
-53.0000121641
62
91
0
LINE
8
Connections
10
30.3080933613
20
-53.0000121641
11
30.3080933613
21
-52.5078861641
62
91
0
LINE
8
Connections
10
30.3080933613
20
-52.5078861641
11
29.8159673613
21
-52.5078861641
62
91
0
LINE
8
Connections
10
49.4758737584
20
-55.4527580313
11
49.4758737584
21
-54.9606320313
62
91
0
LINE
8
Connections
10
49.4758737584
20
-54.9606320313
11
48.9837477584
21
-54.9606320313
62
91
0
LINE
8
Connections
10
48.9837477584
20
-54.9606320313
11
30.3080933613
21
-53.0000121641
62
91
0
LINE
8
Connections
10
30.3080933613
20
-53.0000121641
11
30.3080933613
21
-52.5078861641
62
91
0
LINE
8
Connections
10
30.3080933613
20
-52.5078861641
11
29.8159673613
21
-52.5078861641
62
91
0
LINE
8
Connections
10
53.0970384408
20
-55.7167998683
11
53.0970384408
21
-55.2246738683
62
91
0
LINE
8
Connections
10
53.0970384408
20
-55.2246738683
11
52.6049124408
21
-55.2246738683
62
91
0
LINE
8
Connections
10
52.6049124408
20
-55.2246738683
11
30.3080933613
21
-53.0000121641
62
91
0
LINE
8
Connections
10
30.3080933613
20
-53.0000121641
11
30.3080933613
21
-52.5078861641
62
91
0
LINE
8
Connections
10
30.3080933613
20
-52.5078861641
11
29.8159673613
21
-52.5078861641
62
91
0
LINE
8
Connections
10
56.7182031232
20
-55.9808417054
11
56.7182031232
21
-55.4887157054
62
91
0
LINE
8
Connections
10
56.7182031232
20
-55.4887157054
11
56.2260771232
21
-55.4887157054
62
91
0
LINE
8
Connections
10
56.2260771232
20
-55.4887157054
11
30.3080933613
21
-53.0000121641
62
91
0
LINE
8
Connections
10
30.3080933613
20
-53.0000121641
11
30.3080933613
21
-52.5078861641
62
91
0
LINE
8
Connections
10
30.3080933613
20
-52.5078861641
11
29.8159673613
21
-52.5078861641
62
91
0
LINE
8
Connections
10
60.3393678056
20
-56.2448835425
11
60.3393678056
21
-55.7527575425
62
91
0
LINE
8
Connections
10
60.3393678056
20
-55.7527575425
11
59.8472418056
21
-55.7527575425
62
91
0
LINE
8
Connections
10
59.8472418056
20
-55.7527575425
11
30.3080933613
21
-53.0000121641
62
91
0
LINE
8
Connections
10
30.3080933613
20
-53.0000121641
11
30.3080933613
21
-52.5078861641
62
91
0
LINE
8
Connections
10
30.3080933613
20
-52.5078861641
11
29.8159673613
21
-52.5078861641
62
91
0
LINE
8
Connections
10
82.7788985433
20
-64.7953920535
11
82.7788985433
21
-64.3032660535
62
91
0
LINE
8
Connections
10
82.7788985433
20
-64.3032660535
11
83.2710245433
21
-64.3032660535
62
91
0
LINE
8
Connections
10
83.2710245433
20
-64.3032660535
11
93.9698814733
21
-61.7397611813
62
91
0
LINE
8
Connections
10
93.9698814733
20
-61.7397611813
11
93.9698814733
21
-61.2476351813
62
91
0
LINE
8
Connections
10
93.9698814733
20
-61.2476351813
11
94.4620074733
21
-61.2476351813
62
91
0
LINE
8
Connections
10
79.1601937600
20
-64.4995416858
11
79.1601937600
21
-64.0074156858
62
91
0
LINE
8
Connections
10
79.1601937600
20
-64.0074156858
11
79.6523197600
21
-64.0074156858
62
91
0
LINE
8
Connections
10
79.6523197600
20
-64.0074156858
11
93.9698814733
21
-61.7397611813
62
91
0
LINE
8
Connections
10
93.9698814733
20
-61.7397611813
11
93.9698814733
21
-61.2476351813
62
91
0
LINE
8
Connections
10
93.9698814733
20
-61.2476351813
11
94.4620074733
21
-61.2476351813
62
91
0
LINE
8
Connections
10
75.5414889767
20
-64.2036913182
11
75.5414889767
21
-63.7115653182
62
91
0
LINE
8
Connections
10
75.5414889767
20
-63.7115653182
11
76.0336149767
21
-63.7115653182
62
91
0
LINE
8
Connections
10
76.0336149767
20
-63.7115653182
11
93.9698814733
21
-61.7397611813
62
91
0
LINE
8
Connections
10
93.9698814733
20
-61.7397611813
11
93.9698814733
21
-61.2476351813
62
91
0
LINE
8
Connections
10
93.9698814733
20
-61.2476351813
11
94.4620074733
21
-61.2476351813
62
91
0
LINE
8
Connections
10
71.9227841934
20
-63.9078409505
11
71.9227841934
21
-63.4157149505
62
91
0
LINE
8
Connections
10
71.9227841934
20
-63.4157149505
11
72.4149101934
21
-63.4157149505
62
91
0
LINE
8
Connections
10
72.4149101934
20
-63.4157149505
11
93.9698814733
21
-61.7397611813
62
91
0
LINE
8
Connections
10
93.9698814733
20
-61.7397611813
11
93.9698814733
21
-61.2476351813
62
91
0
LINE
8
Connections
10
93.9698814733
20
-61.2476351813
11
94.4620074733
21
-61.2476351813
62
91
0
LINE
8
Connections
10
68.3040794101
20
-63.6119905828
11
68.3040794101
21
-63.1198645828
62
91
0
LINE
8
Connections
10
68.3040794101
20
-63.1198645828
11
68.7962054101
21
-63.1198645828
62
91
0
LINE
8
Connections
10
68.7962054101
20
-63.1198645828
11
93.9698814733
21
-61.7397611813
62
91
0
LINE
8
Connections
10
93.9698814733
20
-61.7397611813
11
93.9698814733
21
-61.2476351813
62
91
0
LINE
8
Connections
10
93.9698814733
20
-61.2476351813
11
94.4620074733
21
-61.2476351813
62
91
0
LINE
8
Connections
10
64.6853746268
20
-63.3161402151
11
64.6853746268
21
-62.8240142151
62
91
0
LINE
8
Connections
10
64.6853746268
20
-62.8240142151
11
65.1775006268
21
-62.8240142151
62
91
0
LINE
8
Connections
10
65.1775006268
20
-62.8240142151
11
93.9698814733
21
-61.7397611813
62
91
0
LINE
8
Connections
10
93.9698814733
20
-61.7397611813
11
93.9698814733
21
-61.2476351813
62
91
0
LINE
8
Connections
10
93.9698814733
20
-61.2476351813
11
94.4620074733
21
-61.2476351813
62
91
0
LINE
8
Connections
10
83.3431646080
20
-57.8935506826
11
83.3431646080
21
-58.3856766826
62
91
0
LINE
8
Connections
10
83.3431646080
20
-58.3856766826
11
83.8352906080
21
-58.3856766826
62
91
0
LINE
8
Connections
10
83.8352906080
20
-58.3856766826
11
93.9698814733
21
-60.7555091813
62
91
0
LINE
8
Connections
10
93.9698814733
20
-60.7555091813
11
93.9698814733
21
-61.2476351813
62
91
0
LINE
8
Connections
10
93.9698814733
20
-61.2476351813
11
94.4620074733
21
-61.2476351813
62
91
0
LINE
8
Connections
10
79.7244598247
20
-57.5977003149
11
79.7244598247
21
-58.0898263149
62
91
0
LINE
8
Connections
10
79.7244598247
20
-58.0898263149
11
80.2165858247
21
-58.0898263149
62
91
0
LINE
8
Connections
10
80.2165858247
20
-58.0898263149
11
93.9698814733
21
-60.7555091813
62
91
0
LINE
8
Connections
10
93.9698814733
20
-60.7555091813
11
93.9698814733
21
-61.2476351813
62
91
0
LINE
8
Connections
10
93.9698814733
20
-61.2476351813
11
94.4620074733
21
-61.2476351813
62
91
0
LINE
8
Connections
10
76.1057550414
20
-57.3018499472
11
76.1057550414
21
-57.7939759472
62
91
0
LINE
8
Connections
10
76.1057550414
20
-57.7939759472
11
76.5978810414
21
-57.7939759472
62
91
0
LINE
8
Connections
10
76.5978810414
20
-57.7939759472
11
93.9698814733
21
-60.7555091813
62
91
0
LINE
8
Connections
10
93.9698814733
20
-60.7555091813
11
93.9698814733
21
-61.2476351813
62
91
0
LINE
8
Connections
10
93.9698814733
20
-61.2476351813
11
94.4620074733
21
-61.2476351813
62
91
0
LINE
8
Connections
10
72.4870502581
20
-57.0059995796
11
72.4870502581
21
-57.4981255796
62
91
0
LINE
8
Connections
10
72.4870502581
20
-57.4981255796
11
72.9791762581
21
-57.4981255796
62
91
0
LINE
8
Connections
10
72.9791762581
20
-57.4981255796
11
93.9698814733
21
-60.7555091813
62
91
0
LINE
8
Connections
10
93.9698814733
20
-60.7555091813
11
93.9698814733
21
-61.2476351813
62
91
0
LINE
8
Connections
10
93.9698814733
20
-61.2476351813
11
94.4620074733
21
-61.2476351813
62
91
0
LINE
8
Connections
10
68.8683454748
20
-56.7101492119
11
68.8683454748
21
-57.2022752119
62
91
0
LINE
8
Connections
10
68.8683454748
20
-57.2022752119
11
69.3604714748
21
-57.2022752119
62
91
0
LINE
8
Connections
10
69.3604714748
20
-57.2022752119
11
93.9698814733
21
-60.7555091813
62
91
0
LINE
8
Connections
10
93.9698814733
20
-60.7555091813
11
93.9698814733
21
-61.2476351813
62
91
0
LINE
8
Connections
10
93.9698814733
20
-61.2476351813
11
94.4620074733
21
-61.2476351813
62
91
0
LINE
8
Connections
10
65.2496406915
20
-56.4142988442
11
65.2496406915
21
-56.9064248442
62
91
0
LINE
8
Connections
10
65.2496406915
20
-56.9064248442
11
65.7417666915
21
-56.9064248442
62
91
0
LINE
8
Connections
10
65.7417666915
20
-56.9064248442
11
93.9698814733
21
-60.7555091813
62
91
0
LINE
8
Connections
10
93.9698814733
20
-60.7555091813
11
93.9698814733
21
-61.2476351813
62
91
0
LINE
8
Connections
10
93.9698814733
20
-61.2476351813
11
94.4620074733
21
-61.2476351813
62
91
0
ENDSEC
0
EOF