999
Design created by Aurora
0
SECTION
2
HEADER
9
$ACADVER
1
AC1009
9
$INSUNITS
70
2
0
ENDSEC
0
SECTION
2
TABLES
0
TABLE
2
LTYPE
100
AcDbLinetypeTableRecord
2
LTYPE
0
LTYPE
2
DASHED
70
0
3
dashed line
72
65
73
2
40
4.0
49
2.0
49
-2.0
0
ENDTAB
0
TABLE
2
LAYER
70
4
0
LAYER
100
AcDbSymbolTable
100
AcDbLayerTable
2
Obstructions
70
0
62
7
6
CONTINUOUS
0
LAYER
100
AcDbSymbolTable
100
AcDbLayerTable
2
Setbacks
70
0
62
7
6
CONTINUOUS
0
LAYER
100
AcDbSymbolTable
100
AcDbLayerTable
2
Modules
70
0
62
7
6
CONTINUOUS
0
LAYER
100
AcDbSymbolTable
100
AcDbLayerTable
2
Buildings
70
0
62
7
6
CONTINUOUS
0
ENDTAB
0
ENDSEC
0
SECTION
2
ENTITIES
0
LINE
8
Modules
10
-43.7024559154
20
-0.1199176371
11
-45.9991254418
21
-5.4381174516
62
254
0
LINE
8
Modules
10
-45.9991254418
20
-5.4381174516
11
-42.8516065575
21
-6.7973764034
62
254
0
LINE
8
Modules
10
-42.8516065575
20
-6.7973764034
11
-40.5549370311
21
-1.4791765889
62
254
0
LINE
8
Modules
10
-40.5549370311
20
-1.4791765889
11
-43.7024559154
21
-0.1199176371
62
254
0
LINE
8
Modules
10
-43.8161194944
20
-3.6725537107
11
-43.0631245460
21
-3.9977352781
62
254
0
LINE
8
Modules
10
-43.0631245460
20
-3.9977352781
11
-42.7379429786
21
-3.2447403297
62
254
0
LINE
8
Modules
10
-42.7379429786
20
-3.2447403297
11
-43.4909379270
21
-2.9195587623
62
254
0
LINE
8
Modules
10
-43.4909379270
20
-2.9195587623
11
-43.8161194944
21
-3.6725537107
62
254
0
LINE
8
Modules
10
-43.8161194944
20
-3.6725537107
11
-42.7379429786
21
-3.2447403297
62
254
0
TEXT
8
Modules
100
AcDbText
10
-43.5693272257
20
-3.2252077368
1
DC
7
NewTextStyle_4
40
0.2624672000000003
50
-23.357146200431945
0
TEXT
8
Modules
100
AcDbText
10
-43.4954106210
20
-3.7574466408
1
AC
7
NewTextStyle_4
40
0.2624672000000003
50
-23.357146200431945
0
LINE
8
Modules
10
-40.5162019992
20
-1.4968024587
11
-42.8128715256
21
-6.8150022732
62
254
0
LINE
8
Modules
10
-42.8128715256
20
-6.8150022732
11
-39.6653526413
21
-8.1742612250
62
254
0
LINE
8
Modules
10
-39.6653526413
20
-8.1742612250
11
-37.3686831149
21
-2.8560614106
62
254
0
LINE
8
Modules
10
-37.3686831149
20
-2.8560614106
11
-40.5162019992
21
-1.4968024587
62
254
0
LINE
8
Modules
10
-40.6298655781
20
-5.0494385324
11
-39.8768706297
21
-5.3746200998
62
254
0
LINE
8
Modules
10
-39.8768706297
20
-5.3746200998
11
-39.5516890623
21
-4.6216251514
62
254
0
LINE
8
Modules
10
-39.5516890623
20
-4.6216251514
11
-40.3046840107
21
-4.2964435840
62
254
0
LINE
8
Modules
10
-40.3046840107
20
-4.2964435840
11
-40.6298655781
21
-5.0494385324
62
254
0
LINE
8
Modules
10
-40.6298655781
20
-5.0494385324
11
-39.5516890623
21
-4.6216251514
62
254
0
TEXT
8
Modules
100
AcDbText
10
-40.3830733094
20
-4.6020925584
1
DC
7
NewTextStyle_4
40
0.2624672000000003
50
-23.357146200431945
0
TEXT
8
Modules
100
AcDbText
10
-40.3091567047
20
-5.1343314624
1
AC
7
NewTextStyle_4
40
0.2624672000000003
50
-23.357146200431945
0
LINE
8
Modules
10
-37.3299480787
20
-2.8700350657
11
-39.6266176051
21
-8.1882348802
62
254
0
LINE
8
Modules
10
-39.6266176051
20
-8.1882348802
11
-36.4790987208
21
-9.5474938320
62
254
0
LINE
8
Modules
10
-36.4790987208
20
-9.5474938320
11
-34.1824291944
21
-4.2292940175
62
254
0
LINE
8
Modules
10
-34.1824291944
20
-4.2292940175
11
-37.3299480787
21
-2.8700350657
62
254
0
LINE
8
Modules
10
-37.4436116577
20
-6.4226711393
11
-36.6906167093
21
-6.7478527068
62
254
0
LINE
8
Modules
10
-36.6906167093
20
-6.7478527068
11
-36.3654351419
21
-5.9948577584
62
254
0
LINE
8
Modules
10
-36.3654351419
20
-5.9948577584
11
-37.1184300903
21
-5.6696761909
62
254
0
LINE
8
Modules
10
-37.1184300903
20
-5.6696761909
11
-37.4436116577
21
-6.4226711393
62
254
0
LINE
8
Modules
10
-37.4436116577
20
-6.4226711393
11
-36.3654351419
21
-5.9948577584
62
254
0
TEXT
8
Modules
100
AcDbText
10
-37.1968193890
20
-5.9753251654
1
DC
7
NewTextStyle_4
40
0.2624672000000003
50
-23.357146200431945
0
TEXT
8
Modules
100
AcDbText
10
-37.1229027843
20
-6.5075640694
1
AC
7
NewTextStyle_4
40
0.2624672000000003
50
-23.357146200431945
0
LINE
8
Modules
10
-41.3915464799
20
5.2342286458
11
-43.6882160063
21
-0.0839711687
62
254
0
LINE
8
Modules
10
-43.6882160063
20
-0.0839711687
11
-40.5406971220
21
-1.4432301205
62
254
0
LINE
8
Modules
10
-40.5406971220
20
-1.4432301205
11
-38.2440275956
21
3.8749696940
62
254
0
LINE
8
Modules
10
-38.2440275956
20
3.8749696940
11
-41.3915464799
21
5.2342286458
62
254
0
LINE
8
Modules
10
-41.5052100589
20
1.6815925722
11
-40.7522151105
21
1.3564110048
62
254
0
LINE
8
Modules
10
-40.7522151105
20
1.3564110048
11
-40.4270335431
21
2.1094059531
62
254
0
LINE
8
Modules
10
-40.4270335431
20
2.1094059531
11
-41.1800284915
21
2.4345875206
62
254
0
LINE
8
Modules
10
-41.1800284915
20
2.4345875206
11
-41.5052100589
21
1.6815925722
62
254
0
LINE
8
Modules
10
-41.5052100589
20
1.6815925722
11
-40.4270335431
21
2.1094059531
62
254
0
TEXT
8
Modules
100
AcDbText
10
-41.2584177902
20
2.1289385461
1
DC
7
NewTextStyle_4
40
0.2624672000000003
50
-23.357146200431945
0
TEXT
8
Modules
100
AcDbText
10
-41.1845011855
20
1.5966996421
1
AC
7
NewTextStyle_4
40
0.2624672000000003
50
-23.357146200431945
0
LINE
8
Modules
10
-38.2052925636
20
3.8573438241
11
-40.5019620900
21
-1.4608559903
62
254
0
LINE
8
Modules
10
-40.5019620900
20
-1.4608559903
11
-37.3544432057
21
-2.8201149421
62
254
0
LINE
8
Modules
10
-37.3544432057
20
-2.8201149421
11
-35.0577736793
21
2.4980848723
62
254
0
LINE
8
Modules
10
-35.0577736793
20
2.4980848723
11
-38.2052925636
21
3.8573438241
62
254
0
LINE
8
Modules
10
-38.3189561426
20
0.3047077505
11
-37.5659611942
21
-0.0204738169
62
254
0
LINE
8
Modules
10
-37.5659611942
20
-0.0204738169
11
-37.2407796268
21
0.7325211315
62
254
0
LINE
8
Modules
10
-37.2407796268
20
0.7325211315
11
-37.9937745752
21
1.0577026989
62
254
0
LINE
8
Modules
10
-37.9937745752
20
1.0577026989
11
-38.3189561426
21
0.3047077505
62
254
0
LINE
8
Modules
10
-38.3189561426
20
0.3047077505
11
-37.2407796268
21
0.7325211315
62
254
0
TEXT
8
Modules
100
AcDbText
10
-38.0721638739
20
0.7520537245
1
DC
7
NewTextStyle_4
40
0.2624672000000003
50
-23.357146200431945
0
TEXT
8
Modules
100
AcDbText
10
-37.9982472692
20
0.2198148204
1
AC
7
NewTextStyle_4
40
0.2624672000000003
50
-23.357146200431945
0
LINE
8
Modules
10
-39.0777192313
20
10.5883749287
11
-41.3743887577
21
5.2701751142
62
254
0
LINE
8
Modules
10
-41.3743887577
20
5.2701751142
11
-38.2268698734
21
3.9109161624
62
254
0
LINE
8
Modules
10
-38.2268698734
20
3.9109161624
11
-35.9302003470
21
9.2291159769
62
254
0
LINE
8
Modules
10
-35.9302003470
20
9.2291159769
11
-39.0777192313
21
10.5883749287
62
254
0
LINE
8
Modules
10
-39.1913828102
20
7.0357388551
11
-38.4383878618
21
6.7105572876
62
254
0
LINE
8
Modules
10
-38.4383878618
20
6.7105572876
11
-38.1132062944
21
7.4635522360
62
254
0
LINE
8
Modules
10
-38.1132062944
20
7.4635522360
11
-38.8662012428
21
7.7887338035
62
254
0
LINE
8
Modules
10
-38.8662012428
20
7.7887338035
11
-39.1913828102
21
7.0357388551
62
254
0
LINE
8
Modules
10
-39.1913828102
20
7.0357388551
11
-38.1132062944
21
7.4635522360
62
254
0
TEXT
8
Modules
100
AcDbText
10
-38.9445905415
20
7.4830848290
1
DC
7
NewTextStyle_4
40
0.2624672000000003
50
-23.357146200431945
0
TEXT
8
Modules
100
AcDbText
10
-38.8706739368
20
6.9508459250
1
AC
7
NewTextStyle_4
40
0.2624672000000003
50
-23.357146200431945
0
LINE
8
Modules
10
-35.8914653108
20
9.2114901070
11
-38.1881348373
21
3.8932902926
62
254
0
LINE
8
Modules
10
-38.1881348373
20
3.8932902926
11
-35.0406159530
21
2.5340313407
62
254
0
LINE
8
Modules
10
-35.0406159530
20
2.5340313407
11
-32.7439464266
21
7.8522311552
62
254
0
LINE
8
Modules
10
-32.7439464266
20
7.8522311552
11
-35.8914653108
21
9.2114901070
62
254
0
LINE
8
Modules
10
-36.0051288898
20
5.6588540334
11
-35.2521339414
21
5.3336724660
62
254
0
LINE
8
Modules
10
-35.2521339414
20
5.3336724660
11
-34.9269523740
21
6.0866674144
62
254
0
LINE
8
Modules
10
-34.9269523740
20
6.0866674144
11
-35.6799473224
21
6.4118489818
62
254
0
LINE
8
Modules
10
-35.6799473224
20
6.4118489818
11
-36.0051288898
21
5.6588540334
62
254
0
LINE
8
Modules
10
-36.0051288898
20
5.6588540334
11
-34.9269523740
21
6.0866674144
62
254
0
TEXT
8
Modules
100
AcDbText
10
-35.7583366211
20
6.1062000074
1
DC
7
NewTextStyle_4
40
0.2624672000000003
50
-23.357146200431945
0
TEXT
8
Modules
100
AcDbText
10
-35.6844200164
20
5.5739611033
1
AC
7
NewTextStyle_4
40
0.2624672000000003
50
-23.357146200431945
0
LINE
8
Modules
10
-29.1061007736
20
-9.4457221947
11
-31.3818099596
21
-14.7729246739
62
254
0
LINE
8
Modules
10
-31.3818099596
20
-14.7729246739
11
-28.2289628575
21
-16.1197784805
62
254
0
LINE
8
Modules
10
-28.2289628575
20
-16.1197784805
11
-25.9532536715
21
-10.7925760012
62
254
0
LINE
8
Modules
10
-25.9532536715
20
-10.7925760012
11
-29.1061007736
21
-9.4457221947
62
254
0
LINE
8
Modules
10
-29.2057735529
20
-12.9987782390
11
-28.4515039141
21
-13.3209920749
62
254
0
LINE
8
Modules
10
-28.4515039141
20
-13.3209920749
11
-28.1292900782
21
-12.5667224361
62
254
0
LINE
8
Modules
10
-28.1292900782
20
-12.5667224361
11
-28.8835597170
21
-12.2445086002
62
254
0
LINE
8
Modules
10
-28.8835597170
20
-12.2445086002
11
-29.2057735529
21
-12.9987782390
62
254
0
LINE
8
Modules
10
-29.2057735529
20
-12.9987782390
11
-28.1292900782
21
-12.5667224361
62
254
0
TEXT
8
Modules
100
AcDbText
10
-28.9607447963
20
-12.5504638931
1
DC
7
NewTextStyle_4
40
0.2624672000000003
50
-23.131521224907658
0
TEXT
8
Modules
100
AcDbText
10
-28.8847328672
20
-13.0824075950
1
AC
7
NewTextStyle_4
40
0.2624672000000003
50
-23.131521224907658
0
LINE
8
Modules
10
-25.9140112269
20
-10.8116503723
11
-28.1897204129
21
-16.1388528515
62
254
0
LINE
8
Modules
10
-28.1897204129
20
-16.1388528515
11
-25.0368733109
21
-17.4857066581
62
254
0
LINE
8
Modules
10
-25.0368733109
20
-17.4857066581
11
-22.7611641249
21
-12.1585041789
62
254
0
LINE
8
Modules
10
-22.7611641249
20
-12.1585041789
11
-25.9140112269
21
-10.8116503723
62
254
0
LINE
8
Modules
10
-26.0136840063
20
-14.3647064166
11
-25.2594143675
21
-14.6869202525
62
254
0
LINE
8
Modules
10
-25.2594143675
20
-14.6869202525
11
-24.9372005315
21
-13.9326506137
62
254
0
LINE
8
Modules
10
-24.9372005315
20
-13.9326506137
11
-25.6914701703
21
-13.6104367778
62
254
0
LINE
8
Modules
10
-25.6914701703
20
-13.6104367778
11
-26.0136840063
21
-14.3647064166
62
254
0
LINE
8
Modules
10
-26.0136840063
20
-14.3647064166
11
-24.9372005315
21
-13.9326506137
62
254
0
TEXT
8
Modules
100
AcDbText
10
-25.7686552496
20
-13.9163920707
1
DC
7
NewTextStyle_4
40
0.2624672000000003
50
-23.131521224907658
0
TEXT
8
Modules
100
AcDbText
10
-25.6926433206
20
-14.4483357726
1
AC
7
NewTextStyle_4
40
0.2624672000000003
50
-23.131521224907658
0
LINE
8
Modules
10
-23.6235264956
20
-5.4465474453
11
-25.8992356816
21
-10.7737499245
62
254
0
LINE
8
Modules
10
-25.8992356816
20
-10.7737499245
11
-22.7463885796
21
-12.1206037311
62
254
0
LINE
8
Modules
10
-22.7463885796
20
-12.1206037311
11
-20.4706793936
21
-6.7934012519
62
254
0
LINE
8
Modules
10
-20.4706793936
20
-6.7934012519
11
-23.6235264956
21
-5.4465474453
62
254
0
LINE
8
Modules
10
-23.7231992750
20
-8.9996034897
11
-22.9689296362
21
-9.3218173256
62
254
0
LINE
8
Modules
10
-22.9689296362
20
-9.3218173256
11
-22.6467158002
21
-8.5675476868
62
254
0
LINE
8
Modules
10
-22.6467158002
20
-8.5675476868
11
-23.4009854390
21
-8.2453338509
62
254
0
LINE
8
Modules
10
-23.4009854390
20
-8.2453338509
11
-23.7231992750
21
-8.9996034897
62
254
0
LINE
8
Modules
10
-23.7231992750
20
-8.9996034897
11
-22.6467158002
21
-8.5675476868
62
254
0
TEXT
8
Modules
100
AcDbText
10
-23.4781705183
20
-8.5512891438
1
DC
7
NewTextStyle_4
40
0.2624672000000003
50
-23.131521224907658
0
TEXT
8
Modules
100
AcDbText
10
-23.4021585893
20
-9.0832328457
1
AC
7
NewTextStyle_4
40
0.2624672000000003
50
-23.131521224907658
0
LINE
8
Modules
10
-12.6007861662
20
-14.8640098478
11
-14.8519534844
21
-20.2016297186
62
254
0
LINE
8
Modules
10
-14.8519534844
20
-20.2016297186
11
-11.6929410504
21
-21.5339586820
62
254
0
LINE
8
Modules
10
-11.6929410504
20
-21.5339586820
11
-9.4417737321
21
-16.1963388111
62
254
0
LINE
8
Modules
10
-9.4417737321
20
-16.1963388111
11
-12.6007861662
21
-14.8640098478
62
254
0
LINE
8
Modules
10
-12.6841054022
20
-18.4174870724
11
-11.9283608008
21
-18.7362260588
62
254
0
LINE
8
Modules
10
-11.9283608008
20
-18.7362260588
11
-11.6096218143
21
-17.9804814574
62
254
0
LINE
8
Modules
10
-11.6096218143
20
-17.9804814574
11
-12.3653664158
21
-17.6617424709
62
254
0
LINE
8
Modules
10
-12.3653664158
20
-17.6617424709
11
-12.6841054022
21
-18.4174870724
62
254
0
LINE
8
Modules
10
-12.6841054022
20
-18.4174870724
11
-11.6096218143
21
-17.9804814574
62
254
0
TEXT
8
Modules
100
AcDbText
10
-12.4411425545
20
-17.9680497587
1
DC
7
NewTextStyle_4
40
0.2624672000000003
50
-22.867823235330807
0
TEXT
8
Modules
100
AcDbText
10
-12.3626832225
20
-18.4996379909
1
AC
7
NewTextStyle_4
40
0.2624672000000003
50
-22.867823235330807
0
LINE
8
Modules
10
-10.3336439522
20
-9.4879502794
11
-12.5848112704
21
-14.8255701502
62
254
0
LINE
8
Modules
10
-12.5848112704
20
-14.8255701502
11
-9.4257988364
21
-16.1578991136
62
254
0
LINE
8
Modules
10
-9.4257988364
20
-16.1578991136
11
-7.1746315182
21
-10.8202792428
62
254
0
LINE
8
Modules
10
-7.1746315182
20
-10.8202792428
11
-10.3336439522
21
-9.4879502794
62
254
0
LINE
8
Modules
10
-10.4169631882
20
-13.0414275040
11
-9.6612185868
21
-13.3601664904
62
254
0
LINE
8
Modules
10
-9.6612185868
20
-13.3601664904
11
-9.3424796003
21
-12.6044218890
62
254
0
LINE
8
Modules
10
-9.3424796003
20
-12.6044218890
11
-10.0982242018
21
-12.2856829025
62
254
0
LINE
8
Modules
10
-10.0982242018
20
-12.2856829025
11
-10.4169631882
21
-13.0414275040
62
254
0
LINE
8
Modules
10
-10.4169631882
20
-13.0414275040
11
-9.3424796003
21
-12.6044218890
62
254
0
TEXT
8
Modules
100
AcDbText
10
-10.1740003406
20
-12.5919901903
1
DC
7
NewTextStyle_4
40
0.2624672000000003
50
-22.867823235330807
0
TEXT
8
Modules
100
AcDbText
10
-10.0955410085
20
-13.1235784225
1
AC
7
NewTextStyle_4
40
0.2624672000000003
50
-22.867823235330807
0
LINE
8
Modules
10
2.6876507344
20
-19.1877879141
11
0.3867058026
21
-24.5041393510
62
254
0
LINE
8
Modules
10
0.3867058026
20
-24.5041393510
11
3.5331307251
21
-25.8659287003
62
254
0
LINE
8
Modules
10
3.5331307251
20
-25.8659287003
11
5.8340756570
21
-20.5495772634
62
254
0
LINE
8
Modules
10
5.8340756570
20
-20.5495772634
11
2.6876507344
21
-19.1877879141
62
254
0
LINE
8
Modules
10
2.5711306525
20
-22.7403314696
11
3.3238638922
21
-23.0661183845
62
254
0
LINE
8
Modules
10
3.3238638922
20
-23.0661183845
11
3.6496508071
21
-22.3133851448
62
254
0
LINE
8
Modules
10
3.6496508071
20
-22.3133851448
11
2.8969175673
21
-21.9875982299
62
254
0
LINE
8
Modules
10
2.8969175673
20
-21.9875982299
11
2.5711306525
21
-22.7403314696
62
254
0
LINE
8
Modules
10
2.5711306525
20
-22.7403314696
11
3.6496508071
21
-22.3133851448
62
254
0
TEXT
8
Modules
100
AcDbText
10
2.8182825341
20
-22.2931840759
1
DC
7
NewTextStyle_4
40
0.2624672000000003
50
-23.403215408241685
0
TEXT
8
Modules
100
AcDbText
10
2.8917711633
20
-22.8254822412
1
AC
7
NewTextStyle_4
40
0.2624672000000003
50
-23.403215408241685
0
LINE
8
Modules
10
5.8709868376
20
-20.5683249504
11
3.5700419057
21
-25.8846763874
62
254
0
LINE
8
Modules
10
3.5700419057
20
-25.8846763874
11
6.7164668283
21
-27.2464657367
62
254
0
LINE
8
Modules
10
6.7164668283
20
-27.2464657367
11
9.0174117602
21
-21.9301142998
62
254
0
LINE
8
Modules
10
9.0174117602
20
-21.9301142998
11
5.8709868376
21
-20.5683249504
62
254
0
LINE
8
Modules
10
5.7544667557
20
-24.1208685060
11
6.5071999954
21
-24.4466554209
62
254
0
LINE
8
Modules
10
6.5071999954
20
-24.4466554209
11
6.8329869103
21
-23.6939221811
62
254
0
LINE
8
Modules
10
6.8329869103
20
-23.6939221811
11
6.0802536705
21
-23.3681352663
62
254
0
LINE
8
Modules
10
6.0802536705
20
-23.3681352663
11
5.7544667557
21
-24.1208685060
62
254
0
LINE
8
Modules
10
5.7544667557
20
-24.1208685060
11
6.8329869103
21
-23.6939221811
62
254
0
TEXT
8
Modules
100
AcDbText
10
6.0016186373
20
-23.6737211122
1
DC
7
NewTextStyle_4
40
0.2624672000000003
50
-23.403215408241685
0
TEXT
8
Modules
100
AcDbText
10
6.0751072664
20
-24.2060192776
1
AC
7
NewTextStyle_4
40
0.2624672000000003
50
-23.403215408241685
0
LINE
8
Modules
10
5.0043958003
20
-13.8372938459
11
2.7034508685
21
-19.1536452828
62
254
0
LINE
8
Modules
10
2.7034508685
20
-19.1536452828
11
5.8498757910
21
-20.5154346321
62
254
0
LINE
8
Modules
10
5.8498757910
20
-20.5154346321
11
8.1508207229
21
-15.1990831952
62
254
0
LINE
8
Modules
10
8.1508207229
20
-15.1990831952
11
5.0043958003
21
-13.8372938459
62
254
0
LINE
8
Modules
10
4.8878757184
20
-17.3898374014
11
5.6406089581
21
-17.7156243163
62
254
0
LINE
8
Modules
10
5.6406089581
20
-17.7156243163
11
5.9663958730
21
-16.9628910766
62
254
0
LINE
8
Modules
10
5.9663958730
20
-16.9628910766
11
5.2136626332
21
-16.6371041617
62
254
0
LINE
8
Modules
10
5.2136626332
20
-16.6371041617
11
4.8878757184
21
-17.3898374014
62
254
0
LINE
8
Modules
10
4.8878757184
20
-17.3898374014
11
5.9663958730
21
-16.9628910766
62
254
0
TEXT
8
Modules
100
AcDbText
10
5.1350276000
20
-16.9426900077
1
DC
7
NewTextStyle_4
40
0.2624672000000003
50
-23.403215408241685
0
TEXT
8
Modules
100
AcDbText
10
5.2085162292
20
-17.4749881730
1
AC
7
NewTextStyle_4
40
0.2624672000000003
50
-23.403215408241685
0
LINE
8
Modules
10
8.1877319035
20
-15.2141786676
11
5.8867869716
21
-20.5305301045
62
254
0
LINE
8
Modules
10
5.8867869716
20
-20.5305301045
11
9.0332118942
21
-21.8923194538
62
254
0
LINE
8
Modules
10
9.0332118942
20
-21.8923194538
11
11.3341568261
21
-16.5759680169
62
254
0
LINE
8
Modules
10
11.3341568261
20
-16.5759680169
11
8.1877319035
21
-15.2141786676
62
254
0
LINE
8
Modules
10
8.0712118215
20
-18.7667222231
11
8.8239450613
21
-19.0925091380
62
254
0
LINE
8
Modules
10
8.8239450613
20
-19.0925091380
11
9.1497319761
21
-18.3397758982
62
254
0
LINE
8
Modules
10
9.1497319761
20
-18.3397758982
11
8.3969987364
21
-18.0139889834
62
254
0
LINE
8
Modules
10
8.3969987364
20
-18.0139889834
11
8.0712118215
21
-18.7667222231
62
254
0
LINE
8
Modules
10
8.0712118215
20
-18.7667222231
11
9.1497319761
21
-18.3397758982
62
254
0
TEXT
8
Modules
100
AcDbText
10
8.3183637031
20
-18.3195748294
1
DC
7
NewTextStyle_4
40
0.2624672000000003
50
-23.403215408241685
0
TEXT
8
Modules
100
AcDbText
10
8.3918523323
20
-18.8518729947
1
AC
7
NewTextStyle_4
40
0.2624672000000003
50
-23.403215408241685
0
LINE
8
Modules
10
7.3211408662
20
-8.4831475604
11
5.0201959344
21
-13.7994989973
62
254
0
LINE
8
Modules
10
5.0201959344
20
-13.7994989973
11
8.1666208569
21
-15.1612883466
62
254
0
LINE
8
Modules
10
8.1666208569
20
-15.1612883466
11
10.4675657888
21
-9.8449369097
62
254
0
LINE
8
Modules
10
10.4675657888
20
-9.8449369097
11
7.3211408662
21
-8.4831475604
62
254
0
LINE
8
Modules
10
7.2046207843
20
-12.0356911160
11
7.9573540240
21
-12.3614780308
62
254
0
LINE
8
Modules
10
7.9573540240
20
-12.3614780308
11
8.2831409389
21
-11.6087447911
62
254
0
LINE
8
Modules
10
8.2831409389
20
-11.6087447911
11
7.5304076991
21
-11.2829578762
62
254
0
LINE
8
Modules
10
7.5304076991
20
-11.2829578762
11
7.2046207843
21
-12.0356911160
62
254
0
LINE
8
Modules
10
7.2046207843
20
-12.0356911160
11
8.2831409389
21
-11.6087447911
62
254
0
TEXT
8
Modules
100
AcDbText
10
7.4517726659
20
-11.5885437222
1
DC
7
NewTextStyle_4
40
0.2624672000000003
50
-23.403215408241685
0
TEXT
8
Modules
100
AcDbText
10
7.5252612950
20
-12.1208418875
1
AC
7
NewTextStyle_4
40
0.2624672000000003
50
-23.403215408241685
0
LINE
8
Modules
10
10.5044769694
20
-9.8636845968
11
8.2035320375
21
-15.1800360337
62
254
0
LINE
8
Modules
10
8.2035320375
20
-15.1800360337
11
11.3499569601
21
-16.5418253830
62
254
0
LINE
8
Modules
10
11.3499569601
20
-16.5418253830
11
13.6509018919
21
-11.2254739461
62
254
0
LINE
8
Modules
10
13.6509018919
20
-11.2254739461
11
10.5044769694
21
-9.8636845968
62
254
0
LINE
8
Modules
10
10.3879568874
20
-13.4162281523
11
11.1406901272
21
-13.7420150672
62
254
0
LINE
8
Modules
10
11.1406901272
20
-13.7420150672
11
11.4664770420
21
-12.9892818275
62
254
0
LINE
8
Modules
10
11.4664770420
20
-12.9892818275
11
10.7137438023
21
-12.6634949126
62
254
0
LINE
8
Modules
10
10.7137438023
20
-12.6634949126
11
10.3879568874
21
-13.4162281523
62
254
0
LINE
8
Modules
10
10.3879568874
20
-13.4162281523
11
11.4664770420
21
-12.9892818275
62
254
0
TEXT
8
Modules
100
AcDbText
10
10.6351087690
20
-12.9690807586
1
DC
7
NewTextStyle_4
40
0.2624672000000003
50
-23.403215408241685
0
TEXT
8
Modules
100
AcDbText
10
10.7085973982
20
-13.5013789239
1
AC
7
NewTextStyle_4
40
0.2624672000000003
50
-23.403215408241685
0
LINE
8
Modules
10
13.6907308857
20
-11.2405694210
11
11.3897859538
21
-16.5569208579
62
254
0
LINE
8
Modules
10
11.3897859538
20
-16.5569208579
11
14.5362108764
21
-17.9187102072
62
254
0
LINE
8
Modules
10
14.5362108764
20
-17.9187102072
11
16.8371558082
21
-12.6023587703
62
254
0
LINE
8
Modules
10
16.8371558082
20
-12.6023587703
11
13.6907308857
21
-11.2405694210
62
254
0
LINE
8
Modules
10
13.5742108037
20
-14.7931129766
11
14.3269440435
21
-15.1188998914
62
254
0
LINE
8
Modules
10
14.3269440435
20
-15.1188998914
11
14.6527309583
21
-14.3661666517
62
254
0
LINE
8
Modules
10
14.6527309583
20
-14.3661666517
11
13.8999977186
21
-14.0403797368
62
254
0
LINE
8
Modules
10
13.8999977186
20
-14.0403797368
11
13.5742108037
21
-14.7931129766
62
254
0
LINE
8
Modules
10
13.5742108037
20
-14.7931129766
11
14.6527309583
21
-14.3661666517
62
254
0
TEXT
8
Modules
100
AcDbText
10
13.8213626853
20
-14.3459655828
1
DC
7
NewTextStyle_4
40
0.2624672000000003
50
-23.403215408241685
0
TEXT
8
Modules
100
AcDbText
10
13.8948513145
20
-14.8782637481
1
AC
7
NewTextStyle_4
40
0.2624672000000003
50
-23.403215408241685
0
LINE
8
Modules
10
11.3739858198
20
-16.5947157039
11
9.0730408879
21
-21.9110671408
62
254
0
LINE
8
Modules
10
9.0730408879
20
-21.9110671408
11
12.2194658105
21
-23.2728564901
62
254
0
LINE
8
Modules
10
12.2194658105
20
-23.2728564901
11
14.5204107423
21
-17.9565050532
62
254
0
LINE
8
Modules
10
14.5204107423
20
-17.9565050532
11
11.3739858198
21
-16.5947157039
62
254
0
LINE
8
Modules
10
11.2574657378
20
-20.1472592594
11
12.0101989776
21
-20.4730461743
62
254
0
LINE
8
Modules
10
12.0101989776
20
-20.4730461743
11
12.3359858924
21
-19.7203129346
62
254
0
LINE
8
Modules
10
12.3359858924
20
-19.7203129346
11
11.5832526527
21
-19.3945260197
62
254
0
LINE
8
Modules
10
11.5832526527
20
-19.3945260197
11
11.2574657378
21
-20.1472592594
62
254
0
LINE
8
Modules
10
11.2574657378
20
-20.1472592594
11
12.3359858924
21
-19.7203129346
62
254
0
TEXT
8
Modules
100
AcDbText
10
11.5046176194
20
-19.7001118657
1
DC
7
NewTextStyle_4
40
0.2624672000000003
50
-23.403215408241685
0
TEXT
8
Modules
100
AcDbText
10
11.5781062486
20
-20.2324100310
1
AC
7
NewTextStyle_4
40
0.2624672000000003
50
-23.403215408241685
0
LINE
8
Modules
10
9.0572407581
20
-21.9452097721
11
6.7562958262
21
-27.2615612090
62
254
0
LINE
8
Modules
10
6.7562958262
20
-27.2615612090
11
9.9027207487
21
-28.6233505583
62
254
0
LINE
8
Modules
10
9.9027207487
20
-28.6233505583
11
12.2036656806
21
-23.3069991214
62
254
0
LINE
8
Modules
10
12.2036656806
20
-23.3069991214
11
9.0572407581
21
-21.9452097721
62
254
0
LINE
8
Modules
10
8.9407206761
20
-25.4977533276
11
9.6934539158
21
-25.8235402425
62
254
0
LINE
8
Modules
10
9.6934539158
20
-25.8235402425
11
10.0192408307
21
-25.0708070028
62
254
0
LINE
8
Modules
10
10.0192408307
20
-25.0708070028
11
9.2665075910
21
-24.7450200879
62
254
0
LINE
8
Modules
10
9.2665075910
20
-24.7450200879
11
8.9407206761
21
-25.4977533276
62
254
0
LINE
8
Modules
10
8.9407206761
20
-25.4977533276
11
10.0192408307
21
-25.0708070028
62
254
0
TEXT
8
Modules
100
AcDbText
10
9.1878725577
20
-25.0506059339
1
DC
7
NewTextStyle_4
40
0.2624672000000003
50
-23.403215408241685
0
TEXT
8
Modules
100
AcDbText
10
9.2613611869
20
-25.5829040992
1
AC
7
NewTextStyle_4
40
0.2624672000000003
50
-23.403215408241685
0
LINE
8
Modules
10
-4.3316988673
20
-11.9604994361
11
-6.5828657753
21
-17.2981194799
62
254
0
LINE
8
Modules
10
-6.5828657753
20
-17.2981194799
11
-3.4238532509
21
-18.6304482289
62
254
0
LINE
8
Modules
10
-3.4238532509
20
-18.6304482289
11
-1.1726863428
21
-13.2928281851
62
254
0
LINE
8
Modules
10
-1.1726863428
20
-13.2928281851
11
-4.3316988673
21
-11.9604994361
62
254
0
LINE
8
Modules
10
-4.4150178362
20
-15.5139766813
11
-3.6592732103
21
-15.8327156097
62
254
0
LINE
8
Modules
10
-3.6592732103
20
-15.8327156097
11
-3.3405342819
21
-15.0769709837
62
254
0
LINE
8
Modules
10
-3.3405342819
20
-15.0769709837
11
-4.0962789079
21
-14.7582320553
62
254
0
LINE
8
Modules
10
-4.0962789079
20
-14.7582320553
11
-4.4150178362
21
-15.5139766813
62
254
0
LINE
8
Modules
10
-4.4150178362
20
-15.5139766813
11
-3.3405342819
21
-15.0769709837
62
254
0
TEXT
8
Modules
100
AcDbText
10
-4.1720550231
20
-15.0645393489
1
DC
7
NewTextStyle_4
40
0.2624672000000003
50
-22.867818832422973
0
TEXT
8
Modules
100
AcDbText
10
-4.0935956502
20
-15.5961275751
1
AC
7
NewTextStyle_4
40
0.2624672000000003
50
-22.867818832422973
0
LINE
8
Modules
10
-6.5988410771
20
-17.3365590045
11
-8.8500079852
21
-22.6741790483
62
254
0
LINE
8
Modules
10
-8.8500079852
20
-22.6741790483
11
-5.6909954607
21
-24.0065077973
62
254
0
LINE
8
Modules
10
-5.6909954607
20
-24.0065077973
11
-3.4398285527
21
-18.6688877535
62
254
0
LINE
8
Modules
10
-3.4398285527
20
-18.6688877535
11
-6.5988410771
21
-17.3365590045
62
254
0
LINE
8
Modules
10
-6.6821600461
20
-20.8900362497
11
-5.9264154201
21
-21.2087751780
62
254
0
LINE
8
Modules
10
-5.9264154201
20
-21.2087751780
11
-5.6076764917
21
-20.4530305521
62
254
0
LINE
8
Modules
10
-5.6076764917
20
-20.4530305521
11
-6.3634211177
21
-20.1342916237
62
254
0
LINE
8
Modules
10
-6.3634211177
20
-20.1342916237
11
-6.6821600461
21
-20.8900362497
62
254
0
LINE
8
Modules
10
-6.6821600461
20
-20.8900362497
11
-5.6076764917
21
-20.4530305521
62
254
0
TEXT
8
Modules
100
AcDbText
10
-6.4391972329
20
-20.4405989173
1
DC
7
NewTextStyle_4
40
0.2624672000000003
50
-22.867818832422973
0
TEXT
8
Modules
100
AcDbText
10
-6.3607378600
20
-20.9721871435
1
AC
7
NewTextStyle_4
40
0.2624672000000003
50
-22.867818832422973
0
LINE
8
Modules
10
-35.0190389109
20
2.4841111974
11
-37.3157080005
21
-2.8340888058
62
254
0
LINE
8
Modules
10
-37.3157080005
20
-2.8340888058
11
-34.1681890176
21
-4.1933475293
62
254
0
LINE
8
Modules
10
-34.1681890176
20
-4.1933475293
11
-31.8715199280
21
1.1248524738
62
254
0
LINE
8
Modules
10
-31.8715199280
20
1.1248524738
11
-35.0190389109
21
2.4841111974
62
254
0
LINE
8
Modules
10
-35.1327022046
20
-1.0685249007
11
-34.3797072295
21
-1.3937064063
62
254
0
LINE
8
Modules
10
-34.3797072295
20
-1.3937064063
11
-34.0545257239
21
-0.6407114312
62
254
0
LINE
8
Modules
10
-34.0545257239
20
-0.6407114312
11
-34.8075206990
21
-0.3155299256
62
254
0
LINE
8
Modules
10
-34.8075206990
20
-0.3155299256
11
-35.1327022046
21
-1.0685249007
62
254
0
LINE
8
Modules
10
-35.1327022046
20
-1.0685249007
11
-34.0545257239
21
-0.6407114312
62
254
0
TEXT
8
Modules
100
AcDbText
10
-34.8859099726
20
-0.6211789065
1
DC
7
NewTextStyle_4
40
0.2624672000000003
50
-23.357141494648456
0
TEXT
8
Modules
100
AcDbText
10
-34.8119933242
20
-1.1534178045
1
AC
7
NewTextStyle_4
40
0.2624672000000003
50
-23.357141494648456
0
LINE
8
Modules
10
-20.4314369489
20
-6.8088234109
11
-22.7071461349
21
-12.1360258901
62
254
0
LINE
8
Modules
10
-22.7071461349
20
-12.1360258901
11
-19.5542990329
21
-13.4828796966
62
254
0
LINE
8
Modules
10
-19.5542990329
20
-13.4828796966
11
-17.2785898469
21
-8.1556772174
62
254
0
LINE
8
Modules
10
-17.2785898469
20
-8.1556772174
11
-20.4314369489
21
-6.8088234109
62
254
0
LINE
8
Modules
10
-20.5311097283
20
-10.3618794552
11
-19.7768400895
21
-10.6840932911
62
254
0
LINE
8
Modules
10
-19.7768400895
20
-10.6840932911
11
-19.4546262535
21
-9.9298236523
62
254
0
LINE
8
Modules
10
-19.4546262535
20
-9.9298236523
11
-20.2088958923
21
-9.6076098164
62
254
0
LINE
8
Modules
10
-20.2088958923
20
-9.6076098164
11
-20.5311097283
21
-10.3618794552
62
254
0
LINE
8
Modules
10
-20.5311097283
20
-10.3618794552
11
-19.4546262535
21
-9.9298236523
62
254
0
TEXT
8
Modules
100
AcDbText
10
-20.2860809717
20
-9.9135651093
1
DC
7
NewTextStyle_4
40
0.2624672000000003
50
-23.131521224907658
0
TEXT
8
Modules
100
AcDbText
10
-20.2100690426
20
-10.4455088112
1
AC
7
NewTextStyle_4
40
0.2624672000000003
50
-23.131521224907658
0
LINE
8
Modules
10
-22.7219216761
20
-12.1739263378
11
-24.9976308621
21
-17.5011288170
62
254
0
LINE
8
Modules
10
-24.9976308621
20
-17.5011288170
11
-21.8447837601
21
-18.8479826236
62
254
0
LINE
8
Modules
10
-21.8447837601
20
-18.8479826236
11
-19.5690745741
21
-13.5207801444
62
254
0
LINE
8
Modules
10
-19.5690745741
20
-13.5207801444
11
-22.7219216761
21
-12.1739263378
62
254
0
LINE
8
Modules
10
-22.8215944555
20
-15.7269823821
11
-22.0673248167
21
-16.0491962181
62
254
0
LINE
8
Modules
10
-22.0673248167
20
-16.0491962181
11
-21.7451109807
21
-15.2949265793
62
254
0
LINE
8
Modules
10
-21.7451109807
20
-15.2949265793
11
-22.4993806195
21
-14.9727127433
62
254
0
LINE
8
Modules
10
-22.4993806195
20
-14.9727127433
11
-22.8215944555
21
-15.7269823821
62
254
0
LINE
8
Modules
10
-22.8215944555
20
-15.7269823821
11
-21.7451109807
21
-15.2949265793
62
254
0
TEXT
8
Modules
100
AcDbText
10
-22.5765656988
20
-15.2786680362
1
DC
7
NewTextStyle_4
40
0.2624672000000003
50
-23.131521224907658
0
TEXT
8
Modules
100
AcDbText
10
-22.5005537698
20
-15.8106117382
1
AC
7
NewTextStyle_4
40
0.2624672000000003
50
-23.131521224907658
0
LINE
8
Modules
10
-13.5315693837
20
-8.1402831933
11
-15.7827362917
21
-13.4779032371
62
254
0
LINE
8
Modules
10
-15.7827362917
20
-13.4779032371
11
-12.6237237673
21
-14.8102319861
62
254
0
LINE
8
Modules
10
-12.6237237673
20
-14.8102319861
11
-10.3725568592
21
-9.4726119423
62
254
0
LINE
8
Modules
10
-10.3725568592
20
-9.4726119423
11
-13.5315693837
21
-8.1402831933
62
254
0
LINE
8
Modules
10
-13.6148883526
20
-11.6937604385
11
-12.8591437267
21
-12.0124993669
62
254
0
LINE
8
Modules
10
-12.8591437267
20
-12.0124993669
11
-12.5404047983
21
-11.2567547409
62
254
0
LINE
8
Modules
10
-12.5404047983
20
-11.2567547409
11
-13.2961494242
21
-10.9380158125
62
254
0
LINE
8
Modules
10
-13.2961494242
20
-10.9380158125
11
-13.6148883526
21
-11.6937604385
62
254
0
LINE
8
Modules
10
-13.6148883526
20
-11.6937604385
11
-12.5404047983
21
-11.2567547409
62
254
0
TEXT
8
Modules
100
AcDbText
10
-13.3719255395
20
-11.2443231061
1
DC
7
NewTextStyle_4
40
0.2624672000000003
50
-22.867818832422973
0
TEXT
8
Modules
100
AcDbText
10
-13.2934661665
20
-11.7759113323
1
AC
7
NewTextStyle_4
40
0.2624672000000003
50
-22.867818832422973
0
LINE
8
Modules
10
-15.7987115935
20
-13.5126905470
11
-18.0498785015
21
-18.8503105908
62
254
0
LINE
8
Modules
10
-18.0498785015
20
-18.8503105908
11
-14.8908659771
21
-20.1826393398
62
254
0
LINE
8
Modules
10
-14.8908659771
20
-20.1826393398
11
-12.6396990690
21
-14.8450192960
62
254
0
LINE
8
Modules
10
-12.6396990690
20
-14.8450192960
11
-15.7987115935
21
-13.5126905470
62
254
0
LINE
8
Modules
10
-15.8820305625
20
-17.0661677922
11
-15.1262859365
21
-17.3849067206
62
254
0
LINE
8
Modules
10
-15.1262859365
20
-17.3849067206
11
-14.8075470081
21
-16.6291620946
62
254
0
LINE
8
Modules
10
-14.8075470081
20
-16.6291620946
11
-15.5632916341
21
-16.3104231663
62
254
0
LINE
8
Modules
10
-15.5632916341
20
-16.3104231663
11
-15.8820305625
21
-17.0661677922
62
254
0
LINE
8
Modules
10
-15.8820305625
20
-17.0661677922
11
-14.8075470081
21
-16.6291620946
62
254
0
TEXT
8
Modules
100
AcDbText
10
-15.6390677493
20
-16.6167304598
1
DC
7
NewTextStyle_4
40
0.2624672000000003
50
-22.867818832422973
0
TEXT
8
Modules
100
AcDbText
10
-15.5606083764
20
-17.1483186860
1
AC
7
NewTextStyle_4
40
0.2624672000000003
50
-22.867818832422973
0
LINE
8
Buildings
10
-40.1417474202
20
16.2319682952
11
-40.2634295149
21
15.9501995489
62
252
0
LINE
8
Buildings
10
-40.2634295149
20
15.9501995489
11
-26.0458059942
21
9.8103056342
62
252
0
LINE
8
Buildings
10
-26.0458059942
20
9.8103056342
11
-25.9251012502
21
10.0995887096
62
252
0
LINE
8
Buildings
10
-25.9251012502
20
10.0995887096
11
-40.2129717360
21
16.0612708692
62
252
0
LINE
8
Buildings
10
-40.2129717360
20
16.0612708692
11
-40.1417474202
21
16.2319682952
62
252
0
LINE
8
Buildings
10
-14.0975200786
20
-8.6094632747
11
-13.3927182235
21
-6.9203229695
62
252
0
LINE
8
Buildings
10
-13.3927182235
20
-6.9203229695
11
-14.1494173725
21
-6.5986082011
62
252
0
LINE
8
Buildings
10
-14.1494173725
20
-6.5986082011
11
-1.1508212252
21
23.9751409964
62
252
0
LINE
8
Buildings
10
-1.1508212252
20
23.9751409964
11
-31.6081956778
21
36.6836258670
62
252
0
LINE
8
Buildings
10
-31.6081956778
20
36.6836258670
11
-40.2129717360
21
16.0612708692
62
252
0
LINE
8
Buildings
10
-40.2129717360
20
16.0612708692
11
-25.9251012502
21
10.0995887096
62
252
0
LINE
8
Buildings
10
-25.9251012502
20
10.0995887096
11
-30.8201131841
21
-1.6318814805
62
252
0
LINE
8
Buildings
10
-30.8201131841
20
-1.6318814805
11
-14.0975200786
21
-8.6094632747
62
252
0
LINE
8
Buildings
10
-14.1494173725
20
-6.5986082011
11
2.2892858699
21
-13.5876125019
62
252
0
LINE
8
Buildings
10
2.2892858699
20
-13.5876125019
11
6.7767114051
21
-3.0328247926
62
252
0
LINE
8
Buildings
10
6.7767114051
20
-3.0328247926
11
21.5870779565
21
-9.3295328722
62
252
0
LINE
8
Buildings
10
21.5870779565
20
-9.3295328722
11
30.4581605894
21
11.5359707909
62
252
0
LINE
8
Buildings
10
30.4581605894
20
11.5359707909
11
-0.7909092044
21
24.8216831714
62
252
0
LINE
8
Buildings
10
-0.7909092044
20
24.8216831714
11
-14.1494173725
21
-6.5986082011
62
252
0
LINE
8
Buildings
10
-0.3894394343
20
24.7276492900
11
-0.4174594032
21
24.6629089525
62
252
0
LINE
8
Buildings
10
-0.4174594032
20
24.6629089525
11
9.6306280694
21
20.3909097853
62
252
0
LINE
8
Buildings
10
9.6306280694
20
20.3909097853
11
-0.3894394343
21
24.7276492900
62
252
0
LINE
8
Buildings
10
-14.9127416507
20
-8.4231254412
11
-14.8564574751
21
-8.2927930234
62
252
0
LINE
8
Buildings
10
-14.8564574751
20
-8.2927930234
11
-30.8201131841
21
-1.6318814805
62
252
0
LINE
8
Buildings
10
-30.8201131841
20
-1.6318814805
11
-26.0458059942
21
9.8103056342
62
252
0
LINE
8
Buildings
10
-26.0458059942
20
9.8103056342
11
-40.2634295149
21
15.9501995489
62
252
0
LINE
8
Buildings
10
-40.2634295149
20
15.9501995489
11
-48.9497471123
21
-4.1639579750
62
252
0
LINE
8
Buildings
10
-48.9497471123
20
-4.1639579750
11
-33.4924889158
21
-10.8391892752
62
252
0
LINE
8
Buildings
10
-33.4924889158
20
-10.8391892752
11
-29.7523287226
21
-2.0838549288
62
252
0
LINE
8
Buildings
10
-29.7523287226
20
-2.0838549288
11
-14.9127416507
21
-8.4231254412
62
252
0
LINE
8
Buildings
10
-14.5755831323
20
-8.4099891837
11
-18.8387981062
21
-18.5182653541
62
252
0
LINE
8
Buildings
10
-18.8387981062
20
-18.5182653541
11
-3.3288107522
21
-25.0596784712
62
252
0
LINE
8
Buildings
10
-3.3288107522
20
-25.0596784712
11
1.6281401993
21
-13.3065228158
62
252
0
LINE
8
Buildings
10
1.6281401993
20
-13.3065228158
11
-13.3927182235
21
-6.9203229695
62
252
0
LINE
8
Buildings
10
-13.3927182235
20
-6.9203229695
11
-14.0975200786
21
-8.6094632747
62
252
0
LINE
8
Buildings
10
-14.0975200786
20
-8.6094632747
11
-14.5755831323
21
-8.4099891837
62
252
0
LINE
8
Buildings
10
-29.7523287226
20
-2.0838549288
11
-34.5448000601
21
-13.3025425620
62
252
0
LINE
8
Buildings
10
-34.5448000601
20
-13.3025425620
11
-19.4826220783
21
-19.7369008950
62
252
0
LINE
8
Buildings
10
-19.4826220783
20
-19.7369008950
11
-14.6901507408
21
-8.5182132617
62
252
0
LINE
8
Buildings
10
-14.6901507408
20
-8.5182132617
11
-29.7523287226
21
-2.0838549288
62
252
0
LINE
8
Buildings
10
-18.1292344990
20
-16.5687583167
11
-18.0339728237
21
-16.6099880859
62
252
0
LINE
8
Buildings
10
-18.0339728237
20
-16.6099880859
11
-14.5755831323
21
-8.4099891837
62
252
0
LINE
8
Buildings
10
-14.5755831323
20
-8.4099891837
11
-14.7077253305
21
-8.3548522207
62
252
0
LINE
8
Buildings
10
-14.7077253305
20
-8.3548522207
11
-14.7646540591
21
-8.4863864537
62
252
0
LINE
8
Buildings
10
-14.7646540591
20
-8.4863864537
11
-14.6901507408
21
-8.5182132617
62
252
0
LINE
8
Buildings
10
-14.6901507408
20
-8.5182132617
11
-18.1292344990
21
-16.5687583167
62
252
0
LINE
8
Buildings
10
-2.5851133456
20
-23.2963381706
11
12.4186906494
21
-29.7900658308
62
252
0
LINE
8
Buildings
10
12.4186906494
20
-29.7900658308
11
21.3227576409
21
-9.2171556491
62
252
0
LINE
8
Buildings
10
21.3227576409
20
-9.2171556491
11
6.7767114051
21
-3.0328247926
62
252
0
LINE
8
Buildings
10
6.7767114051
20
-3.0328247926
11
2.2892858699
21
-13.5876125019
62
252
0
LINE
8
Buildings
10
2.2892858699
20
-13.5876125019
11
1.6281401993
21
-13.3065228158
62
252
0
LINE
8
Buildings
10
1.6281401993
20
-13.3065228158
11
-2.5851133456
21
-23.2963381706
62
252
0
LINE
8
Setbacks
10
-28.8491492408
20
35.4968507073
11
-36.8972460563
21
16.2086432558
62
2
0
LINE
8
Setbacks
10
-36.8972460563
20
16.2086432558
11
-27.7465836734
21
12.3904853979
62
2
0
LINE
8
Setbacks
10
-27.7465836734
20
12.3904853979
11
-27.5289688674
21
12.5659765216
62
2
0
LINE
8
Setbacks
10
-27.5289688674
20
12.5659765216
11
-27.5285362177
21
12.5662717157
62
2
0
LINE
8
Setbacks
10
-27.5285362177
20
12.5662717157
11
-27.5280621061
21
12.5664942994
62
2
0
LINE
8
Setbacks
10
-27.5280621061
20
12.5664942994
11
-26.6753872101
21
12.8864946377
62
2
0
LINE
8
Setbacks
10
-26.6753872101
20
12.8864946377
11
-26.6749027620
21
12.8866350351
62
2
0
LINE
8
Setbacks
10
-26.6749027620
20
12.8866350351
11
-26.6744025187
21
12.8866995167
62
2
0
LINE
8
Setbacks
10
-26.6744025187
20
12.8866995167
11
-25.7483969116
21
12.9341988621
62
2
0
LINE
8
Setbacks
10
-25.7483969116
20
12.9341988621
11
-25.7479073546
21
12.9341873806
62
2
0
LINE
8
Setbacks
10
-25.7479073546
20
12.9341873806
11
-25.7474249596
21
12.9341031605
62
2
0
LINE
8
Setbacks
10
-25.7474249596
20
12.9341031605
11
-24.8387330014
21
12.7044519064
62
2
0
LINE
8
Setbacks
10
-24.8387330014
20
12.7044519064
11
-24.8382735057
21
12.7042989110
62
2
0
LINE
8
Setbacks
10
-24.8382735057
20
12.7042989110
11
-24.8378415388
21
12.7040799395
62
2
0
LINE
8
Setbacks
10
-24.8378415388
20
12.7040799395
11
-24.0354120512
21
12.2197577455
62
2
0
LINE
8
Setbacks
10
-24.0354120512
20
12.2197577455
11
-24.0350128587
21
12.2194741189
62
2
0
LINE
8
Setbacks
10
-24.0350128587
20
12.2194741189
11
-24.0346603283
21
12.2191342350
62
2
0
LINE
8
Setbacks
10
-24.0346603283
20
12.2191342350
11
-23.4170412141
21
11.5275498952
62
2
0
LINE
8
Setbacks
10
-23.4170412141
20
11.5275498952
11
-23.4167351597
21
11.5271489824
62
2
0
LINE
8
Setbacks
10
-23.4167351597
20
11.5271489824
11
-23.4164941742
21
11.5267058951
62
2
0
LINE
8
Setbacks
10
-23.4164941742
20
11.5267058951
11
-23.0441414720
21
10.6955569184
62
2
0
LINE
8
Setbacks
10
-23.0441414720
20
10.6955569184
11
-23.0439661719
21
10.6950633644
62
2
0
LINE
8
Setbacks
10
-23.0439661719
20
10.6950633644
11
-23.0438716464
21
10.6945482037
62
2
0
LINE
8
Setbacks
10
-23.0438716464
20
10.6945482037
11
-22.9532345044
21
9.8051931884
62
2
0
LINE
8
Setbacks
10
-22.9532345044
20
9.8051931884
11
-22.9532241844
21
9.8046527663
62
2
0
LINE
8
Setbacks
10
-22.9532241844
20
9.8046527663
11
-22.9533027367
21
9.8041179840
62
2
0
LINE
8
Setbacks
10
-22.9533027367
20
9.8041179840
11
-23.1532532024
21
8.9436127071
62
2
0
LINE
8
Setbacks
10
-23.1532532024
20
8.9436127071
11
-23.1534210686
21
8.9430918944
62
2
0
LINE
8
Setbacks
10
-23.1534210686
20
8.9430918944
11
-27.5043874881
21
-1.4845092133
62
2
0
LINE
8
Setbacks
10
-27.5043874881
20
-1.4845092133
11
-17.0181977231
21
-5.8599223634
62
2
0
LINE
8
Setbacks
10
-17.0181977231
20
-5.8599223634
11
-16.9143604952
21
-5.4262290299
62
2
0
LINE
8
Setbacks
10
-16.9143604952
20
-5.4262290299
11
-16.9141891220
21
-5.4257092884
62
2
0
LINE
8
Setbacks
10
-16.9141891220
20
-5.4257092884
11
-3.9353936131
21
25.1014671842
62
2
0
LINE
8
Setbacks
10
-17.8224714413
20
13.1295995370
11
-17.8747857767
21
13.1216046747
62
2
0
LINE
8
Setbacks
10
-17.8747857767
20
13.1216046747
11
-17.8752814119
21
13.1215670209
62
2
0
LINE
8
Setbacks
10
-17.8752814119
20
13.1215670209
11
-18.0283870598
21
13.1215670209
62
2
0
LINE
8
Setbacks
10
-18.0283870598
20
13.1215670209
11
-18.0288759536
21
13.1216036516
62
2
0
LINE
8
Setbacks
10
-18.0288759536
20
13.1216036516
11
-18.0829521909
21
13.1297527981
62
2
0
LINE
8
Setbacks
10
-18.0829521909
20
13.1297527981
11
-18.1373669585
21
13.1330494036
62
2
0
LINE
8
Setbacks
10
-18.1373669585
20
13.1330494036
11
-18.1378506826
21
13.1331150931
62
2
0
LINE
8
Setbacks
10
-18.1378506826
20
13.1331150931
11
-18.2876105299
21
13.1649474432
62
2
0
LINE
8
Setbacks
10
-18.2876105299
20
13.1649474432
11
-18.2880759499
21
13.1650829831
62
2
0
LINE
8
Setbacks
10
-18.2880759499
20
13.1650829831
11
-18.3400163237
21
13.1844751293
62
2
0
LINE
8
Setbacks
10
-18.3400163237
20
13.1844751293
11
-18.3933827238
21
13.1993129102
62
2
0
LINE
8
Setbacks
10
-18.3933827238
20
13.1993129102
11
-18.3938383079
21
13.1994766515
62
2
0
LINE
8
Setbacks
10
-18.3938383079
20
13.1994766515
11
-18.5337070788
21
13.2617502755
62
2
0
LINE
8
Setbacks
10
-18.5337070788
20
13.2617502755
11
-18.5341339863
21
13.2619795174
62
2
0
LINE
8
Setbacks
10
-18.5341339863
20
13.2619795174
11
-18.5807631845
21
13.2916513048
62
2
0
LINE
8
Setbacks
10
-18.5807631845
20
13.2916513048
11
-18.6298534340
21
13.3172198862
62
2
0
LINE
8
Setbacks
10
-18.6298534340
20
13.3172198862
11
-18.6302662931
21
13.3174754340
62
2
0
LINE
8
Setbacks
10
-18.6302662931
20
13.3174754340
11
-18.7541314545
21
13.4074685472
62
2
0
LINE
8
Setbacks
10
-18.7541314545
20
13.4074685472
11
-18.7545051104
21
13.4077852145
62
2
0
LINE
8
Setbacks
10
-18.7545051104
20
13.4077852145
11
-18.7931267197
21
13.4458201705
62
2
0
LINE
8
Setbacks
10
-18.7931267197
20
13.4458201705
11
-18.8351701853
21
13.4803512586
62
2
0
LINE
8
Setbacks
10
-18.8351701853
20
13.4803512586
11
-18.8355260127
21
13.4806912763
62
2
0
LINE
8
Setbacks
10
-18.8355260127
20
13.4806912763
11
-18.9379735225
21
13.5944708075
62
2
0
LINE
8
Setbacks
10
-18.9379735225
20
13.5944708075
11
-18.9382785783
21
13.5948664537
62
2
0
LINE
8
Setbacks
10
-18.9382785783
20
13.5948664537
11
-18.9670789195
21
13.6387663014
62
2
0
LINE
8
Setbacks
10
-18.9670789195
20
13.6387663014
11
-19.0001487551
21
13.6799126492
62
2
0
LINE
8
Setbacks
10
-19.0001487551
20
13.6799126492
11
-19.0004327769
21
13.6803275356
62
2
0
LINE
8
Setbacks
10
-19.0004327769
20
13.6803275356
11
-19.0769856009
21
13.8129207157
62
2
0
LINE
8
Setbacks
10
-19.0769856009
20
13.8129207157
11
-19.0772063254
21
13.8133830119
62
2
0
LINE
8
Setbacks
10
-19.0772063254
20
13.8133830119
11
-19.0953499479
21
13.8605392970
62
2
0
LINE
8
Setbacks
10
-19.0953499479
20
13.8605392970
11
-19.1184484273
21
13.9058448972
62
2
0
LINE
8
Setbacks
10
-19.1184484273
20
13.9058448972
11
-19.1186458099
21
13.9063212542
62
2
0
LINE
8
Setbacks
10
-19.1186458099
20
13.9063212542
11
-19.1659581474
21
14.0519334636
62
2
0
LINE
8
Setbacks
10
-19.1659581474
20
14.0519334636
11
-19.1660800024
21
14.0524447299
62
2
0
LINE
8
Setbacks
10
-19.1660800024
20
14.0524447299
11
-19.1735324253
21
14.1005208820
62
2
0
LINE
8
Setbacks
10
-19.1735324253
20
14.1005208820
11
-19.1864019809
21
14.1477607867
62
2
0
LINE
8
Setbacks
10
-19.1864019809
20
14.1477607867
11
-19.1864993733
21
14.1482802138
62
2
0
LINE
8
Setbacks
10
-19.1864993733
20
14.1482802138
11
-19.2025033109
21
14.3005469509
62
2
0
LINE
8
Setbacks
10
-19.2025033109
20
14.3005469509
11
-19.2025155391
21
14.3010839603
62
2
0
LINE
8
Setbacks
10
-19.2025155391
20
14.3010839603
11
-19.1997252618
21
14.3481729929
62
2
0
LINE
8
Setbacks
10
-19.1997252618
20
14.3481729929
11
-19.2025590528
21
14.3954975971
62
2
0
LINE
8
Setbacks
10
-19.2025590528
20
14.3954975971
11
-19.2025469468
21
14.3960366376
62
2
0
LINE
8
Setbacks
10
-19.2025469468
20
14.3960366376
11
-19.1865433373
21
14.5483033747
62
2
0
LINE
8
Setbacks
10
-19.1865433373
20
14.5483033747
11
-19.1864415639
21
14.5488387295
62
2
0
LINE
8
Setbacks
10
-19.1864415639
20
14.5488387295
11
-19.1740519430
21
14.5934307809
62
2
0
LINE
8
Setbacks
10
-19.1740519430
20
14.5934307809
11
-19.1672290636
21
14.6393302998
62
2
0
LINE
8
Setbacks
10
-19.1672290636
20
14.6393302998
11
-19.1671041442
21
14.6398617480
62
2
0
LINE
8
Setbacks
10
-19.1671041442
20
14.6398617480
11
-19.1197918067
21
14.7854736293
62
2
0
LINE
8
Setbacks
10
-19.1197918067
20
14.7854736293
11
-19.1195797033
21
14.7859785131
62
2
0
LINE
8
Setbacks
10
-19.1195797033
20
14.7859785131
11
-19.0982500114
21
14.8268221521
62
2
0
LINE
8
Setbacks
10
-19.0982500114
20
14.8268221521
11
-19.0821735595
21
14.8699870941
62
2
0
LINE
8
Setbacks
10
-19.0821735595
20
14.8699870941
11
-19.0819403285
21
14.8704824278
62
2
0
LINE
8
Setbacks
10
-19.0819403285
20
14.8704824278
11
-19.0053878326
21
15.0030756079
62
2
0
LINE
8
Setbacks
10
-19.0053878326
20
15.0030756079
11
-19.0050771721
21
15.0035232075
62
2
0
LINE
8
Setbacks
10
-19.0050771721
20
15.0035232075
11
-18.9754350882
21
15.0394487990
62
2
0
LINE
8
Setbacks
10
-18.9754350882
20
15.0394487990
11
-18.9504944719
21
15.0786039562
62
2
0
LINE
8
Setbacks
10
-18.9504944719
20
15.0786039562
11
-18.9501654521
21
15.0790366717
62
2
0
LINE
8
Setbacks
10
-18.9501654521
20
15.0790366717
11
-18.8477179422
21
15.1928162029
62
2
0
LINE
8
Setbacks
10
-18.8477179422
20
15.1928162029
11
-18.8473271097
21
15.1931845708
62
2
0
LINE
8
Setbacks
10
-18.8473271097
20
15.1931845708
11
-18.8100400764
21
15.2229613275
62
2
0
LINE
8
Setbacks
10
-18.8100400764
20
15.2229613275
11
-18.7766879828
21
15.2567234973
62
2
0
LINE
8
Setbacks
10
-18.7766879828
20
15.2567234973
11
-18.7762823818
21
15.2570720625
62
2
0
LINE
8
Setbacks
10
-18.7762823818
20
15.2570720625
11
-18.6524175485
21
15.3470655037
62
2
0
LINE
8
Setbacks
10
-18.6524175485
20
15.3470655037
11
-18.6519688579
21
15.3473394374
62
2
0
LINE
8
Setbacks
10
-18.6519688579
20
15.3473394374
11
-18.6079059762
21
15.3696063976
62
2
0
LINE
8
Setbacks
10
-18.6079059762
20
15.3696063976
11
-18.5668373588
21
15.3964167128
62
2
0
LINE
8
Setbacks
10
-18.5668373588
20
15.3964167128
11
-18.5663783396
21
15.3966666521
62
2
0
LINE
8
Setbacks
10
-18.5663783396
20
15.3966666521
11
-18.4265095688
21
15.4589402761
62
2
0
LINE
8
Setbacks
10
-18.4265095688
20
15.4589402761
11
-18.4260263650
21
15.4591115670
62
2
0
LINE
8
Setbacks
10
-18.4260263650
20
15.4591115670
11
-18.3764833048
21
15.4724216331
62
2
0
LINE
8
Setbacks
10
-18.3764833048
20
15.4724216331
11
-18.3288640722
21
15.4906087124
62
2
0
LINE
8
Setbacks
10
-18.3288640722
20
15.4906087124
11
-18.3283756231
21
15.4907529488
62
2
0
LINE
8
Setbacks
10
-18.3283756231
20
15.4907529488
11
-18.1786157757
21
15.5225852989
62
2
0
LINE
8
Setbacks
10
-18.1786157757
20
15.5225852989
11
-18.1781200556
21
15.5226516932
62
2
0
LINE
8
Setbacks
10
-18.1781200556
20
15.5226516932
11
-18.1250106829
21
15.5256740183
62
2
0
LINE
8
Setbacks
10
-18.1250106829
20
15.5256740183
11
-18.0726940666
21
15.5336695334
62
2
0
LINE
8
Setbacks
10
-18.0726940666
20
15.5336695334
11
-18.0721984130
21
15.5337071900
62
2
0
LINE
8
Setbacks
10
-18.0721984130
20
15.5337071900
11
-17.9190930931
21
15.5337071900
62
2
0
LINE
8
Setbacks
10
-17.9190930931
20
15.5337071900
11
-17.9186041812
21
15.5336705566
62
2
0
LINE
8
Setbacks
10
-17.9186041812
20
15.5336705566
11
-17.8645256619
21
15.5255207570
62
2
0
LINE
8
Setbacks
10
-17.8645256619
20
15.5255207570
11
-17.8101132057
21
15.5222244800
62
2
0
LINE
8
Setbacks
10
-17.8101132057
20
15.5222244800
11
-17.8096294704
21
15.5221587897
62
2
0
LINE
8
Setbacks
10
-17.8096294704
20
15.5221587897
11
-17.6598696231
21
15.4903264396
62
2
0
LINE
8
Setbacks
10
-17.6598696231
20
15.4903264396
11
-17.6594042051
21
15.4901909006
62
2
0
LINE
8
Setbacks
10
-17.6594042051
20
15.4901909006
11
-17.6074628475
21
15.4707984263
62
2
0
LINE
8
Setbacks
10
-17.6074628475
20
15.4707984263
11
-17.5540974321
21
15.4559609735
62
2
0
LINE
8
Setbacks
10
-17.5540974321
20
15.4559609735
11
-17.5536418451
21
15.4557972314
62
2
0
LINE
8
Setbacks
10
-17.5536418451
20
15.4557972314
11
-17.4137730742
21
15.3935236073
62
2
0
LINE
8
Setbacks
10
-17.4137730742
20
15.3935236073
11
-17.4133461842
21
15.3932943767
62
2
0
LINE
8
Setbacks
10
-17.4133461842
20
15.3932943767
11
-17.3667163177
21
15.3636225805
62
2
0
LINE
8
Setbacks
10
-17.3667163177
20
15.3636225805
11
-17.3176263829
21
15.3380539925
62
2
0
LINE
8
Setbacks
10
-17.3176263829
20
15.3380539925
11
-17.3172135284
21
15.3377984464
62
2
0
LINE
8
Setbacks
10
-17.3172135284
20
15.3377984464
11
-17.1933486951
21
15.2478053333
62
2
0
LINE
8
Setbacks
10
-17.1933486951
20
15.2478053333
11
-17.1929750425
21
15.2474886684
62
2
0
LINE
8
Setbacks
10
-17.1929750425
20
15.2474886684
11
-17.1543534333
21
15.2094537124
62
2
0
LINE
8
Setbacks
10
-17.1543534333
20
15.2094537124
11
-17.1123099677
21
15.1749226243
62
2
0
LINE
8
Setbacks
10
-17.1123099677
20
15.1749226243
11
-17.1119541402
21
15.1745826065
62
2
0
LINE
8
Setbacks
10
-17.1119541402
20
15.1745826065
11
-17.0095066304
21
15.0608030753
62
2
0
LINE
8
Setbacks
10
-17.0095066304
20
15.0608030753
11
-17.0092015740
21
15.0604074282
62
2
0
LINE
8
Setbacks
10
-17.0092015740
20
15.0604074282
11
-16.9804025454
21
15.0165095494
62
2
0
LINE
8
Setbacks
10
-16.9804025454
20
15.0165095494
11
-16.9473313977
21
14.9753615615
62
2
0
LINE
8
Setbacks
10
-16.9473313977
20
14.9753615615
11
-16.9470473760
21
14.9749466753
62
2
0
LINE
8
Setbacks
10
-16.9470473760
20
14.9749466753
11
-16.8704945521
21
14.8423534952
62
2
0
LINE
8
Setbacks
10
-16.8704945521
20
14.8423534952
11
-16.8702738276
21
14.8418911990
62
2
0
LINE
8
Setbacks
10
-16.8702738276
20
14.8418911990
11
-16.8521302033
21
14.7947349094
62
2
0
LINE
8
Setbacks
10
-16.8521302033
20
14.7947349094
11
-16.8290317213
21
14.7494289771
62
2
0
LINE
8
Setbacks
10
-16.8290317213
20
14.7494289771
11
-16.8288343437
21
14.7489526307
62
2
0
LINE
8
Setbacks
10
-16.8288343437
20
14.7489526307
11
-16.7815220062
21
14.6033407494
62
2
0
LINE
8
Setbacks
10
-16.7815220062
20
14.6033407494
11
-16.7814001501
21
14.6028294777
62
2
0
LINE
8
Setbacks
10
-16.7814001501
20
14.6028294777
11
-16.7739477272
21
14.5547529992
62
2
0
LINE
8
Setbacks
10
-16.7739477272
20
14.5547529992
11
-16.7610781720
21
14.5075130962
62
2
0
LINE
8
Setbacks
10
-16.7610781720
20
14.5075130962
11
-16.7609807796
21
14.5069936691
62
2
0
LINE
8
Setbacks
10
-16.7609807796
20
14.5069936691
11
-16.7449768421
21
14.3547269319
62
2
0
LINE
8
Setbacks
10
-16.7449768421
20
14.3547269319
11
-16.7449646141
21
14.3541899186
62
2
0
LINE
8
Setbacks
10
-16.7449646141
20
14.3541899186
11
-16.7477548904
21
14.3071018821
62
2
0
LINE
8
Setbacks
10
-16.7477548904
20
14.3071018821
11
-16.7449207732
21
14.2597766336
62
2
0
LINE
8
Setbacks
10
-16.7449207732
20
14.2597766336
11
-16.7449328788
21
14.2592375664
62
2
0
LINE
8
Setbacks
10
-16.7449328788
20
14.2592375664
11
-16.7609368164
21
14.1069708292
62
2
0
LINE
8
Setbacks
10
-16.7609368164
20
14.1069708292
11
-16.7610385907
21
14.1064354755
62
2
0
LINE
8
Setbacks
10
-16.7610385907
20
14.1064354755
11
-16.7734282095
21
14.0618437583
62
2
0
LINE
8
Setbacks
10
-16.7734282095
20
14.0618437583
11
-16.7802510883
21
14.0159435897
62
2
0
LINE
8
Setbacks
10
-16.7802510883
20
14.0159435897
11
-16.7803760088
21
14.0154121349
62
2
0
LINE
8
Setbacks
10
-16.7803760088
20
14.0154121349
11
-16.8276883463
21
13.8698002536
62
2
0
LINE
8
Setbacks
10
-16.8276883463
20
13.8698002536
11
-16.8279004601
21
13.8692953498
62
2
0
LINE
8
Setbacks
10
-16.8279004601
20
13.8692953498
11
-16.8492298098
21
13.8284530470
62
2
0
LINE
8
Setbacks
10
-16.8492298098
20
13.8284530470
11
-16.8653062540
21
13.7852868192
62
2
0
LINE
8
Setbacks
10
-16.8653062540
20
13.7852868192
11
-16.8655394994
21
13.7847914498
62
2
0
LINE
8
Setbacks
10
-16.8655394994
20
13.7847914498
11
-16.9420923234
21
13.6521982697
62
2
0
LINE
8
Setbacks
10
-16.9420923234
20
13.6521982697
11
-16.9424029788
21
13.6517506778
62
2
0
LINE
8
Setbacks
10
-16.9424029788
20
13.6517506778
11
-16.9720447380
21
13.6158254105
62
2
0
LINE
8
Setbacks
10
-16.9720447380
20
13.6158254105
11
-16.9969856849
21
13.5766699207
62
2
0
LINE
8
Setbacks
10
-16.9969856849
20
13.5766699207
11
-16.9973147009
21
13.5762372111
62
2
0
LINE
8
Setbacks
10
-16.9973147009
20
13.5762372111
11
-17.0997622107
21
13.4624576799
62
2
0
LINE
8
Setbacks
10
-17.0997622107
20
13.4624576799
11
-17.1001530432
21
13.4620893120
62
2
0
LINE
8
Setbacks
10
-17.1001530432
20
13.4620893120
11
-17.1374400766
21
13.4323125553
62
2
0
LINE
8
Setbacks
10
-17.1374400766
20
13.4323125553
11
-17.1707921702
21
13.3985503856
62
2
0
LINE
8
Setbacks
10
-17.1707921702
20
13.3985503856
11
-17.1711977757
21
13.3982018170
62
2
0
LINE
8
Setbacks
10
-17.1711977757
20
13.3982018170
11
-17.2950626091
21
13.3082087039
62
2
0
LINE
8
Setbacks
10
-17.2950626091
20
13.3082087039
11
-17.2955112945
21
13.3079347738
62
2
0
LINE
8
Setbacks
10
-17.2955112945
20
13.3079347738
11
-17.3395722073
21
13.2856687981
62
2
0
LINE
8
Setbacks
10
-17.3395722073
20
13.2856687981
11
-17.3806427929
21
13.2588571709
62
2
0
LINE
8
Setbacks
10
-17.3806427929
20
13.2588571709
11
-17.3811018133
21
13.2586072308
62
2
0
LINE
8
Setbacks
10
-17.3811018133
20
13.2586072308
11
-17.5209705842
21
13.1963336068
62
2
0
LINE
8
Setbacks
10
-17.5209705842
20
13.1963336068
11
-17.5214537879
21
13.1961623158
62
2
0
LINE
8
Setbacks
10
-17.5214537879
20
13.1961623158
11
-17.5709968482
21
13.1828522497
62
2
0
LINE
8
Setbacks
10
-17.5709968482
20
13.1828522497
11
-17.6186160807
21
13.1646651704
62
2
0
LINE
8
Setbacks
10
-17.6186160807
20
13.1646651704
11
-17.6191045299
21
13.1645209340
62
2
0
LINE
8
Setbacks
10
-17.6191045299
20
13.1645209340
11
-17.7688643772
21
13.1326885839
62
2
0
LINE
8
Setbacks
10
-17.7688643772
20
13.1326885839
11
-17.7693600841
21
13.1326221904
62
2
0
LINE
8
Setbacks
10
-17.7693600841
20
13.1326221904
11
-17.8224714413
21
13.1295995370
62
2
0
LINE
8
Setbacks
10
-15.9725747258
20
2.7609633779
11
-16.0248913421
21
2.7529678628
62
2
0
LINE
8
Setbacks
10
-16.0248913421
20
2.7529678628
11
-16.0253869958
21
2.7529302062
62
2
0
LINE
8
Setbacks
10
-16.0253869958
20
2.7529302062
11
-16.1784923156
21
2.7529302062
62
2
0
LINE
8
Setbacks
10
-16.1784923156
20
2.7529302062
11
-16.1789812275
21
2.7529668396
62
2
0
LINE
8
Setbacks
10
-16.1789812275
20
2.7529668396
11
-16.2330597468
21
2.7611166392
62
2
0
LINE
8
Setbacks
10
-16.2330597468
20
2.7611166392
11
-16.2874722030
21
2.7644129162
62
2
0
LINE
8
Setbacks
10
-16.2874722030
20
2.7644129162
11
-16.2879559383
21
2.7644786064
62
2
0
LINE
8
Setbacks
10
-16.2879559383
20
2.7644786064
11
-16.4377157857
21
2.7963109565
62
2
0
LINE
8
Setbacks
10
-16.4377157857
20
2.7963109565
11
-16.4381811930
21
2.7964464917
62
2
0
LINE
8
Setbacks
10
-16.4381811930
20
2.7964464917
11
-16.4901222340
21
2.8158386427
62
2
0
LINE
8
Setbacks
10
-16.4901222340
20
2.8158386427
11
-16.5434879896
21
2.8306764263
62
2
0
LINE
8
Setbacks
10
-16.5434879896
20
2.8306764263
11
-16.5439435636
21
2.8308401648
62
2
0
LINE
8
Setbacks
10
-16.5439435636
20
2.8308401648
11
-16.6838123345
21
2.8931137889
62
2
0
LINE
8
Setbacks
10
-16.6838123345
20
2.8931137889
11
-16.6842392245
21
2.8933430195
62
2
0
LINE
8
Setbacks
10
-16.6842392245
20
2.8933430195
11
-16.7308690910
21
2.9230148157
62
2
0
LINE
8
Setbacks
10
-16.7308690910
20
2.9230148157
11
-16.7799590258
21
2.9485834037
62
2
0
LINE
8
Setbacks
10
-16.7799590258
20
2.9485834037
11
-16.7803718803
21
2.9488389498
62
2
0
LINE
8
Setbacks
10
-16.7803718803
20
2.9488389498
11
-16.9042367136
21
3.0388320629
62
2
0
LINE
8
Setbacks
10
-16.9042367136
20
3.0388320629
11
-16.9046103662
21
3.0391487278
62
2
0
LINE
8
Setbacks
10
-16.9046103662
20
3.0391487278
11
-16.9432319755
21
3.0771836838
62
2
0
LINE
8
Setbacks
10
-16.9432319755
20
3.0771836838
11
-16.9852754410
21
3.1117147719
62
2
0
LINE
8
Setbacks
10
-16.9852754410
20
3.1117147719
11
-16.9856312685
21
3.1120547897
62
2
0
LINE
8
Setbacks
10
-16.9856312685
20
3.1120547897
11
-17.0880787783
21
3.2258343209
62
2
0
LINE
8
Setbacks
10
-17.0880787783
20
3.2258343209
11
-17.0883838347
21
3.2262299680
62
2
0
LINE
8
Setbacks
10
-17.0883838347
20
3.2262299680
11
-17.1171828633
21
3.2701278468
62
2
0
LINE
8
Setbacks
10
-17.1171828633
20
3.2701278468
11
-17.1502540110
21
3.3112758347
62
2
0
LINE
8
Setbacks
10
-17.1502540110
20
3.3112758347
11
-17.1505380327
21
3.3116907209
62
2
0
LINE
8
Setbacks
10
-17.1505380327
20
3.3116907209
11
-17.2270908566
21
3.4442839010
62
2
0
LINE
8
Setbacks
10
-17.2270908566
20
3.4442839010
11
-17.2273115811
21
3.4447461972
62
2
0
LINE
8
Setbacks
10
-17.2273115811
20
3.4447461972
11
-17.2454552054
21
3.4919024868
62
2
0
LINE
8
Setbacks
10
-17.2454552054
20
3.4919024868
11
-17.2685536874
21
3.5372084191
62
2
0
LINE
8
Setbacks
10
-17.2685536874
20
3.5372084191
11
-17.2687510650
21
3.5376847655
62
2
0
LINE
8
Setbacks
10
-17.2687510650
20
3.5376847655
11
-17.3160634025
21
3.6832966468
62
2
0
LINE
8
Setbacks
10
-17.3160634025
20
3.6832966468
11
-17.3161852586
21
3.6838079185
62
2
0
LINE
8
Setbacks
10
-17.3161852586
20
3.6838079185
11
-17.3236376815
21
3.7318843970
62
2
0
LINE
8
Setbacks
10
-17.3236376815
20
3.7318843970
11
-17.3365072367
21
3.7791243000
62
2
0
LINE
8
Setbacks
10
-17.3365072367
20
3.7791243000
11
-17.3366046291
21
3.7796437271
62
2
0
LINE
8
Setbacks
10
-17.3366046291
20
3.7796437271
11
-17.3526085666
21
3.9319104643
62
2
0
LINE
8
Setbacks
10
-17.3526085666
20
3.9319104643
11
-17.3526207946
21
3.9324474776
62
2
0
LINE
8
Setbacks
10
-17.3526207946
20
3.9324474776
11
-17.3498305183
21
3.9795355141
62
2
0
LINE
8
Setbacks
10
-17.3498305183
20
3.9795355141
11
-17.3526646355
21
4.0268607626
62
2
0
LINE
8
Setbacks
10
-17.3526646355
20
4.0268607626
11
-17.3526525299
21
4.0273998298
62
2
0
LINE
8
Setbacks
10
-17.3526525299
20
4.0273998298
11
-17.3366485924
21
4.1796665670
62
2
0
LINE
8
Setbacks
10
-17.3366485924
20
4.1796665670
11
-17.3365468180
21
4.1802019207
62
2
0
LINE
8
Setbacks
10
-17.3365468180
20
4.1802019207
11
-17.3241571992
21
4.2247936379
62
2
0
LINE
8
Setbacks
10
-17.3241571992
20
4.2247936379
11
-17.3173343204
21
4.2706938065
62
2
0
LINE
8
Setbacks
10
-17.3173343204
20
4.2706938065
11
-17.3172093999
21
4.2712252613
62
2
0
LINE
8
Setbacks
10
-17.3172093999
20
4.2712252613
11
-17.2698970625
21
4.4168371426
62
2
0
LINE
8
Setbacks
10
-17.2698970625
20
4.4168371426
11
-17.2696849486
21
4.4173420464
62
2
0
LINE
8
Setbacks
10
-17.2696849486
20
4.4173420464
11
-17.2483555989
21
4.4581843492
62
2
0
LINE
8
Setbacks
10
-17.2483555989
20
4.4581843492
11
-17.2322791547
21
4.5013505770
62
2
0
LINE
8
Setbacks
10
-17.2322791547
20
4.5013505770
11
-17.2320459093
21
4.5018459464
62
2
0
LINE
8
Setbacks
10
-17.2320459093
20
4.5018459464
11
-17.1554930853
21
4.6344391265
62
2
0
LINE
8
Setbacks
10
-17.1554930853
20
4.6344391265
11
-17.1551824299
21
4.6348867184
62
2
0
LINE
8
Setbacks
10
-17.1551824299
20
4.6348867184
11
-17.1255406707
21
4.6708119857
62
2
0
LINE
8
Setbacks
10
-17.1255406707
20
4.6708119857
11
-17.1005997238
21
4.7099674755
62
2
0
LINE
8
Setbacks
10
-17.1005997238
20
4.7099674755
11
-17.1002707078
21
4.7104001851
62
2
0
LINE
8
Setbacks
10
-17.1002707078
20
4.7104001851
11
-16.9978231980
21
4.8241797163
62
2
0
LINE
8
Setbacks
10
-16.9978231980
20
4.8241797163
11
-16.9974323655
21
4.8245480841
62
2
0
LINE
8
Setbacks
10
-16.9974323655
20
4.8245480841
11
-16.9601453321
21
4.8543248409
62
2
0
LINE
8
Setbacks
10
-16.9601453321
20
4.8543248409
11
-16.9267932385
21
4.8880870106
62
2
0
LINE
8
Setbacks
10
-16.9267932385
20
4.8880870106
11
-16.9263876330
21
4.8884355792
62
2
0
LINE
8
Setbacks
10
-16.9263876330
20
4.8884355792
11
-16.8025227996
21
4.9784286923
62
2
0
LINE
8
Setbacks
10
-16.8025227996
20
4.9784286923
11
-16.8020741142
21
4.9787026224
62
2
0
LINE
8
Setbacks
10
-16.8020741142
20
4.9787026224
11
-16.7580132014
21
5.0009685981
62
2
0
LINE
8
Setbacks
10
-16.7580132014
20
5.0009685981
11
-16.7169426158
21
5.0277802253
62
2
0
LINE
8
Setbacks
10
-16.7169426158
20
5.0277802253
11
-16.7164835954
21
5.0280301654
62
2
0
LINE
8
Setbacks
10
-16.7164835954
20
5.0280301654
11
-16.5766148245
21
5.0903037894
62
2
0
LINE
8
Setbacks
10
-16.5766148245
20
5.0903037894
11
-16.5761316170
21
5.0904750814
62
2
0
LINE
8
Setbacks
10
-16.5761316170
20
5.0904750814
11
-16.5265895416
21
5.1037848195
62
2
0
LINE
8
Setbacks
10
-16.5265895416
20
5.1037848195
11
-16.4789693253
21
5.1219722268
62
2
0
LINE
8
Setbacks
10
-16.4789693253
20
5.1219722268
11
-16.4784808788
21
5.1221164622
62
2
0
LINE
8
Setbacks
10
-16.4784808788
20
5.1221164622
11
-16.3287210315
21
5.1539488123
62
2
0
LINE
8
Setbacks
10
-16.3287210315
20
5.1539488123
11
-16.3282253246
21
5.1540152058
62
2
0
LINE
8
Setbacks
10
-16.3282253246
20
5.1540152058
11
-16.2751139674
21
5.1570378592
62
2
0
LINE
8
Setbacks
10
-16.2751139674
20
5.1570378592
11
-16.2227996320
21
5.1650327215
62
2
0
LINE
8
Setbacks
10
-16.2227996320
20
5.1650327215
11
-16.2223039968
21
5.1650703753
62
2
0
LINE
8
Setbacks
10
-16.2223039968
20
5.1650703753
11
-16.0691983489
21
5.1650703753
62
2
0
LINE
8
Setbacks
10
-16.0691983489
20
5.1650703753
11
-16.0687094551
21
5.1650337446
62
2
0
LINE
8
Setbacks
10
-16.0687094551
20
5.1650337446
11
-16.0146332178
21
5.1568845981
62
2
0
LINE
8
Setbacks
10
-16.0146332178
20
5.1568845981
11
-15.9602184502
21
5.1535879926
62
2
0
LINE
8
Setbacks
10
-15.9602184502
20
5.1535879926
11
-15.9597347261
21
5.1535223031
62
2
0
LINE
8
Setbacks
10
-15.9597347261
20
5.1535223031
11
-15.8099748788
21
5.1216899530
62
2
0
LINE
8
Setbacks
10
-15.8099748788
20
5.1216899530
11
-15.8095094588
21
5.1215544131
62
2
0
LINE
8
Setbacks
10
-15.8095094588
20
5.1215544131
11
-15.7575690850
21
5.1021622669
62
2
0
LINE
8
Setbacks
10
-15.7575690850
20
5.1021622669
11
-15.7042026849
21
5.0873244860
62
2
0
LINE
8
Setbacks
10
-15.7042026849
20
5.0873244860
11
-15.7037471008
21
5.0871607447
62
2
0
LINE
8
Setbacks
10
-15.7037471008
20
5.0871607447
11
-15.5638783300
21
5.0248871207
62
2
0
LINE
8
Setbacks
10
-15.5638783300
20
5.0248871207
11
-15.5634514224
21
5.0246578788
62
2
0
LINE
8
Setbacks
10
-15.5634514224
20
5.0246578788
11
-15.5168222242
21
4.9949860914
62
2
0
LINE
8
Setbacks
10
-15.5168222242
20
4.9949860914
11
-15.4677319747
21
4.9694175100
62
2
0
LINE
8
Setbacks
10
-15.4677319747
20
4.9694175100
11
-15.4673191156
21
4.9691619622
62
2
0
LINE
8
Setbacks
10
-15.4673191156
20
4.9691619622
11
-15.3434539542
21
4.8791688490
62
2
0
LINE
8
Setbacks
10
-15.3434539542
20
4.8791688490
11
-15.3430802978
21
4.8788521813
62
2
0
LINE
8
Setbacks
10
-15.3430802978
20
4.8788521813
11
-15.3044577030
21
4.8408162397
62
2
0
LINE
8
Setbacks
10
-15.3044577030
20
4.8408162397
11
-15.2624155481
21
4.8062861348
62
2
0
LINE
8
Setbacks
10
-15.2624155481
20
4.8062861348
11
-15.2620597276
21
4.8059461238
62
2
0
LINE
8
Setbacks
10
-15.2620597276
20
4.8059461238
11
-15.1596118897
21
4.6921665926
62
2
0
LINE
8
Setbacks
10
-15.1596118897
20
4.6921665926
11
-15.1593068304
21
4.6917709425
62
2
0
LINE
8
Setbacks
10
-15.1593068304
20
4.6917709425
11
-15.1305064892
21
4.6478710948
62
2
0
LINE
8
Setbacks
10
-15.1305064892
20
4.6478710948
11
-15.0974366536
21
4.6067247469
62
2
0
LINE
8
Setbacks
10
-15.0974366536
20
4.6067247469
11
-15.0971526318
21
4.6063098605
62
2
0
LINE
8
Setbacks
10
-15.0971526318
20
4.6063098605
11
-15.0205998078
21
4.4737166805
62
2
0
LINE
8
Setbacks
10
-15.0205998078
20
4.4737166805
11
-15.0203790833
21
4.4732543843
62
2
0
LINE
8
Setbacks
10
-15.0203790833
20
4.4732543843
11
-15.0022354608
21
4.4260980992
62
2
0
LINE
8
Setbacks
10
-15.0022354608
20
4.4260980992
11
-14.9791369814
21
4.3807924990
62
2
0
LINE
8
Setbacks
10
-14.9791369814
20
4.3807924990
11
-14.9789395988
21
4.3803161420
62
2
0
LINE
8
Setbacks
10
-14.9789395988
20
4.3803161420
11
-14.9316272613
21
4.2347039326
62
2
0
LINE
8
Setbacks
10
-14.9316272613
20
4.2347039326
11
-14.9315054064
21
4.2341926663
62
2
0
LINE
8
Setbacks
10
-14.9315054064
20
4.2341926663
11
-14.9240529834
21
4.1861165142
62
2
0
LINE
8
Setbacks
10
-14.9240529834
20
4.1861165142
11
-14.9111834278
21
4.1388766095
62
2
0
LINE
8
Setbacks
10
-14.9111834278
20
4.1388766095
11
-14.9110860354
21
4.1383571824
62
2
0
LINE
8
Setbacks
10
-14.9110860354
20
4.1383571824
11
-14.8950820979
21
3.9860904453
62
2
0
LINE
8
Setbacks
10
-14.8950820979
20
3.9860904453
11
-14.8950698694
21
3.9855534400
62
2
0
LINE
8
Setbacks
10
-14.8950698694
20
3.9855534400
11
-14.8978601469
21
3.9384634231
62
2
0
LINE
8
Setbacks
10
-14.8978601469
20
3.9384634231
11
-14.8950263561
21
3.8911398031
62
2
0
LINE
8
Setbacks
10
-14.8950263561
20
3.8911398031
11
-14.8950384619
21
3.8906007586
62
2
0
LINE
8
Setbacks
10
-14.8950384619
20
3.8906007586
11
-14.9110420714
21
3.7383340215
62
2
0
LINE
8
Setbacks
10
-14.9110420714
20
3.7383340215
11
-14.9111438449
21
3.7377986667
62
2
0
LINE
8
Setbacks
10
-14.9111438449
20
3.7377986667
11
-14.9235334657
21
3.6932066153
62
2
0
LINE
8
Setbacks
10
-14.9235334657
20
3.6932066153
11
-14.9303563451
21
3.6473070964
62
2
0
LINE
8
Setbacks
10
-14.9303563451
20
3.6473070964
11
-14.9304812645
21
3.6467756482
62
2
0
LINE
8
Setbacks
10
-14.9304812645
20
3.6467756482
11
-14.9777936020
21
3.5011637669
62
2
0
LINE
8
Setbacks
10
-14.9777936020
20
3.5011637669
11
-14.9780057055
21
3.5006588831
62
2
0
LINE
8
Setbacks
10
-14.9780057055
20
3.5006588831
11
-14.9993353973
21
3.4598152441
62
2
0
LINE
8
Setbacks
10
-14.9993353973
20
3.4598152441
11
-15.0154118492
21
3.4166503021
62
2
0
LINE
8
Setbacks
10
-15.0154118492
20
3.4166503021
11
-15.0156450802
21
3.4161549684
62
2
0
LINE
8
Setbacks
10
-15.0156450802
20
3.4161549684
11
-15.0921975761
21
3.2835617883
62
2
0
LINE
8
Setbacks
10
-15.0921975761
20
3.2835617883
11
-15.0925082366
21
3.2831141887
62
2
0
LINE
8
Setbacks
10
-15.0925082366
20
3.2831141887
11
-15.1221503205
21
3.2471885972
62
2
0
LINE
8
Setbacks
10
-15.1221503205
20
3.2471885972
11
-15.1470909368
21
3.2080334400
62
2
0
LINE
8
Setbacks
10
-15.1470909368
20
3.2080334400
11
-15.1474199566
21
3.2076007245
62
2
0
LINE
8
Setbacks
10
-15.1474199566
20
3.2076007245
11
-15.2498674665
21
3.0938211933
62
2
0
LINE
8
Setbacks
10
-15.2498674665
20
3.0938211933
11
-15.2502582990
21
3.0934528254
62
2
0
LINE
8
Setbacks
10
-15.2502582990
20
3.0934528254
11
-15.2875453323
21
3.0636760686
62
2
0
LINE
8
Setbacks
10
-15.2875453323
20
3.0636760686
11
-15.3208974259
21
3.0299138989
62
2
0
LINE
8
Setbacks
10
-15.3208974259
20
3.0299138989
11
-15.3213030302
21
3.0295653313
62
2
0
LINE
8
Setbacks
10
-15.3213030302
20
3.0295653313
11
-15.4451681917
21
2.9395718901
62
2
0
LINE
8
Setbacks
10
-15.4451681917
20
2.9395718901
11
-15.4456168873
21
2.9392979545
62
2
0
LINE
8
Setbacks
10
-15.4456168873
20
2.9392979545
11
-15.4896787746
21
2.9170316550
62
2
0
LINE
8
Setbacks
10
-15.4896787746
20
2.9170316550
11
-15.5307480393
21
2.8902206903
62
2
0
LINE
8
Setbacks
10
-15.5307480393
20
2.8902206903
11
-15.5312070717
21
2.8899707430
62
2
0
LINE
8
Setbacks
10
-15.5312070717
20
2.8899707430
11
-15.6710761706
21
2.8276971189
62
2
0
LINE
8
Setbacks
10
-15.6710761706
20
2.8276971189
11
-15.6715593561
21
2.8275258334
62
2
0
LINE
8
Setbacks
10
-15.6715593561
20
2.8275258334
11
-15.7211014474
21
2.8142157640
62
2
0
LINE
8
Setbacks
10
-15.7211014474
20
2.8142157640
11
-15.7687213505
21
2.7960286784
62
2
0
LINE
8
Setbacks
10
-15.7687213505
20
2.7960286784
11
-15.7692097857
21
2.7958844473
62
2
0
LINE
8
Setbacks
10
-15.7692097857
20
2.7958844473
11
-15.9189696330
21
2.7640520972
62
2
0
LINE
8
Setbacks
10
-15.9189696330
20
2.7640520972
11
-15.9194653531
21
2.7639857030
62
2
0
LINE
8
Setbacks
10
-15.9194653531
20
2.7639857030
11
-15.9725747258
21
2.7609633779
62
2
0
LINE
8
Setbacks
10
1.9601118312
20
23.6164212205
11
-10.8327774423
21
-6.4734883383
62
2
0
LINE
8
Setbacks
10
-10.8327774423
20
-6.4734883383
11
0.0782105747
21
-11.1123542231
62
2
0
LINE
8
Setbacks
10
0.0782105747
20
-11.1123542231
11
4.0128538705
21
-1.8577557621
62
2
0
LINE
8
Setbacks
10
4.0128538705
20
-1.8577557621
11
4.0131092166
21
-1.8572717961
62
2
0
LINE
8
Setbacks
10
4.0131092166
20
-1.8572717961
11
4.4890790481
21
-1.1130260374
62
2
0
LINE
8
Setbacks
10
4.4890790481
20
-1.1130260374
11
4.4894067877
21
-1.1125962128
62
2
0
LINE
8
Setbacks
10
4.4894067877
20
-1.1125962128
11
4.4898006526
21
-1.1122260332
62
2
0
LINE
8
Setbacks
10
4.4898006526
20
-1.1122260332
11
5.1894296120
21
-0.5557302805
62
2
0
LINE
8
Setbacks
10
5.1894296120
20
-0.5557302805
11
5.1898642328
21
-0.5554379962
62
2
0
LINE
8
Setbacks
10
5.1898642328
20
-0.5554379962
11
5.1903398274
21
-0.5552185988
62
2
0
LINE
8
Setbacks
10
5.1903398274
20
-0.5552185988
11
6.0451430043
21
-0.2409469352
62
2
0
LINE
8
Setbacks
10
6.0451430043
20
-0.2409469352
11
6.0456283838
21
-0.2408097917
62
2
0
LINE
8
Setbacks
10
6.0456283838
20
-0.2408097917
11
6.0461290490
21
-0.2407486682
62
2
0
LINE
8
Setbacks
10
6.0461290490
20
-0.2407486682
11
6.9724322282
21
-0.1994642181
62
2
0
LINE
8
Setbacks
10
6.9724322282
20
-0.1994642181
11
6.9729216967
21
-0.1994789843
62
2
0
LINE
8
Setbacks
10
6.9729216967
20
-0.1994789843
11
6.9734035152
21
-0.1995664394
62
2
0
LINE
8
Setbacks
10
6.9734035152
20
-0.1995664394
11
7.8805341216
21
-0.4353098853
62
2
0
LINE
8
Setbacks
10
7.8805341216
20
-0.4353098853
11
7.8809925809
21
-0.4354659607
62
2
0
LINE
8
Setbacks
10
7.8809925809
20
-0.4354659607
11
7.8814230692
21
-0.4356878261
62
2
0
LINE
8
Setbacks
10
7.8814230692
20
-0.4356878261
11
8.6805845121
21
-0.9253837080
62
2
0
LINE
8
Setbacks
10
8.6805845121
20
-0.9253837080
11
8.6809817913
21
-0.9256700060
62
2
0
LINE
8
Setbacks
10
8.6809817913
20
-0.9256700060
11
8.6813320322
21
-0.9260122468
62
2
0
LINE
8
Setbacks
10
8.6813320322
20
-0.9260122468
11
9.2942969469
21
-1.6217248674
62
2
0
LINE
8
Setbacks
10
9.2942969469
20
-1.6217248674
11
9.2946003051
21
-1.6221278258
62
2
0
LINE
8
Setbacks
10
9.2946003051
20
-1.6221278258
11
9.2948383127
21
-1.6225725213
62
2
0
LINE
8
Setbacks
10
9.2948383127
20
-1.6225725213
11
9.6616053848
21
-2.4562014850
62
2
0
LINE
8
Setbacks
10
9.6616053848
20
-2.4562014850
11
9.6617773690
21
-2.4566962043
62
2
0
LINE
8
Setbacks
10
9.6617773690
20
-2.4566962043
11
9.6618684355
21
-2.4572119878
62
2
0
LINE
8
Setbacks
10
9.6618684355
20
-2.4572119878
11
9.6883455270
21
-2.7355146754
62
2
0
LINE
8
Setbacks
10
9.6883455270
20
-2.7355146754
11
19.3760028588
21
-6.8542746905
62
2
0
LINE
8
Setbacks
10
19.3760028588
20
-6.8542746905
11
27.6814663802
21
12.6808469320
62
2
0
LINE
8
Setbacks
10
5.4269033140
20
4.8462265500
11
5.3746461074
21
4.8382343868
62
2
0
LINE
8
Setbacks
10
5.3746461074
20
4.8382343868
11
5.3741501064
21
4.8381966771
62
2
0
LINE
8
Setbacks
10
5.3741501064
20
4.8381966771
11
5.2210444584
21
4.8381966771
62
2
0
LINE
8
Setbacks
10
5.2210444584
20
4.8381966771
11
5.2205553010
21
4.8382333476
62
2
0
LINE
8
Setbacks
10
5.2205553010
20
4.8382333476
11
5.1665157203
21
4.8463814617
62
2
0
LINE
8
Setbacks
10
5.1665157203
20
4.8463814617
11
5.1121435195
21
4.8496718286
62
2
0
LINE
8
Setbacks
10
5.1121435195
20
4.8496718286
11
5.1116595744
21
4.8497375317
62
2
0
LINE
8
Setbacks
10
5.1116595744
20
4.8497375317
11
4.9619000552
21
4.8815698818
62
2
0
LINE
8
Setbacks
10
4.9619000552
20
4.8815698818
11
4.9614345545
21
4.8817054520
62
2
0
LINE
8
Setbacks
10
4.9614345545
20
4.8817054520
11
4.9095037529
21
4.9010956042
62
2
0
LINE
8
Setbacks
10
4.9095037529
20
4.9010956042
11
4.8561515215
21
4.9159287766
62
2
0
LINE
8
Setbacks
10
4.8561515215
20
4.9159287766
11
4.8556959033
21
4.9160925270
62
2
0
LINE
8
Setbacks
10
4.8556959033
20
4.9160925270
11
4.7158268043
21
4.9783661510
62
2
0
LINE
8
Setbacks
10
4.7158268043
20
4.9783661510
11
4.7153999595
21
4.9785953525
62
2
0
LINE
8
Setbacks
10
4.7153999595
20
4.9785953525
11
4.6687532898
21
5.0082767111
62
2
0
LINE
8
Setbacks
10
4.6687532898
20
5.0082767111
11
4.6196498253
21
5.0338545206
62
2
0
LINE
8
Setbacks
10
4.6196498253
20
5.0338545206
11
4.6192370756
21
5.0341100115
62
2
0
LINE
8
Setbacks
10
4.6192370756
20
5.0341100115
11
4.4953719141
21
5.1241031246
62
2
0
LINE
8
Setbacks
10
4.4953719141
20
5.1241031246
11
4.4949984224
21
5.1244196302
62
2
0
LINE
8
Setbacks
10
4.4949984224
20
5.1244196302
11
4.4563408806
21
5.1624846252
62
2
0
LINE
8
Setbacks
10
4.4563408806
20
5.1624846252
11
4.4142683422
21
5.1970453906
62
2
0
LINE
8
Setbacks
10
4.4142683422
20
5.1970453906
11
4.4139127234
21
5.1973852370
62
2
0
LINE
8
Setbacks
10
4.4139127234
20
5.1973852370
11
4.3114652136
21
5.3111647682
62
2
0
LINE
8
Setbacks
10
4.3114652136
20
5.3111647682
11
4.3111603591
21
5.3115601076
62
2
0
LINE
8
Setbacks
10
4.3111603591
20
5.3115601076
11
4.2823224224
21
5.3555065429
62
2
0
LINE
8
Setbacks
10
4.2823224224
20
5.3555065429
11
4.2492198535
21
5.3967037003
62
2
0
LINE
8
Setbacks
10
4.2492198535
20
5.3967037003
11
4.2489360773
21
5.3971182811
62
2
0
LINE
8
Setbacks
10
4.2489360773
20
5.3971182811
11
4.1723832533
21
5.5297114612
62
2
0
LINE
8
Setbacks
10
4.1723832533
20
5.5297114612
11
4.1721626883
21
5.5301733429
62
2
0
LINE
8
Setbacks
10
4.1721626883
20
5.5301733429
11
4.1539897276
21
5.5773868114
62
2
0
LINE
8
Setbacks
10
4.1539897276
20
5.5773868114
11
4.1308687151
21
5.6227518538
62
2
0
LINE
8
Setbacks
10
4.1308687151
20
5.6227518538
11
4.1306715358
21
5.6232278112
62
2
0
LINE
8
Setbacks
10
4.1306715358
20
5.6232278112
11
4.0833591983
21
5.7688396925
62
2
0
LINE
8
Setbacks
10
4.0833591983
20
5.7688396925
11
4.0832374051
21
5.7693505582
62
2
0
LINE
8
Setbacks
10
4.0832374051
20
5.7693505582
11
4.0757705080
21
5.8174805851
62
2
0
LINE
8
Setbacks
10
4.0757705080
20
5.8174805851
11
4.0628916405
21
5.8647766426
62
2
0
LINE
8
Setbacks
10
4.0628916405
20
5.8647766426
11
4.0627943496
21
5.8652956967
62
2
0
LINE
8
Setbacks
10
4.0627943496
20
5.8652956967
11
4.0467904121
21
6.0175624339
62
2
0
LINE
8
Setbacks
10
4.0467904121
20
6.0175624339
11
4.0467781642
21
6.0180991107
62
2
0
LINE
8
Setbacks
10
4.0467781642
20
6.0180991107
11
4.0495658552
21
6.0652255290
62
2
0
LINE
8
Setbacks
10
4.0495658552
20
6.0652255290
11
4.0467336684
21
6.1125940806
62
2
0
LINE
8
Setbacks
10
4.0467336684
20
6.1125940806
11
4.0467457927
21
6.1131328362
62
2
0
LINE
8
Setbacks
10
4.0467457927
20
6.1131328362
11
4.0627497302
21
6.2653995733
62
2
0
LINE
8
Setbacks
10
4.0627497302
20
6.2653995733
11
4.0628514578
21
6.2659347587
62
2
0
LINE
8
Setbacks
10
4.0628514578
20
6.2659347587
11
4.0752437524
21
6.3105453205
62
2
0
LINE
8
Setbacks
10
4.0752437524
20
6.3105453205
11
4.0820715670
21
6.3564663102
62
2
0
LINE
8
Setbacks
10
4.0820715670
20
6.3564663102
11
4.0821964679
21
6.3569976357
62
2
0
LINE
8
Setbacks
10
4.0821964679
20
6.3569976357
11
4.1295088054
21
6.5026098451
62
2
0
LINE
8
Setbacks
10
4.1295088054
20
6.5026098451
11
4.1297209116
21
6.5031147351
62
2
0
LINE
8
Setbacks
10
4.1297209116
20
6.5031147351
11
4.1510489503
21
6.5439550694
62
2
0
LINE
8
Setbacks
10
4.1510489503
20
6.5439550694
11
4.1671244114
21
6.5871193289
62
2
0
LINE
8
Setbacks
10
4.1671244114
20
6.5871193289
11
4.1673576626
21
6.5876147140
62
2
0
LINE
8
Setbacks
10
4.1673576626
20
6.5876147140
11
4.2439104866
21
6.7202078941
62
2
0
LINE
8
Setbacks
10
4.2439104866
20
6.7202078941
11
4.2442212470
21
6.7206556131
62
2
0
LINE
8
Setbacks
10
4.2442212470
20
6.7206556131
11
4.2738477861
21
6.7565587593
62
2
0
LINE
8
Setbacks
10
4.2738477861
20
6.7565587593
11
4.2987742067
21
6.7956970223
62
2
0
LINE
8
Setbacks
10
4.2987742067
20
6.7956970223
11
4.2991033365
21
6.7961299106
62
2
0
LINE
8
Setbacks
10
4.2991033365
20
6.7961299106
11
4.4015508464
21
6.9099094418
62
2
0
LINE
8
Setbacks
10
4.4015508464
20
6.9099094418
11
4.4019419252
21
6.9102780064
62
2
0
LINE
8
Setbacks
10
4.4019419252
20
6.9102780064
11
4.4391962045
21
6.9400227442
62
2
0
LINE
8
Setbacks
10
4.4391962045
20
6.9400227442
11
4.4725149407
21
6.9737584138
62
2
0
LINE
8
Setbacks
10
4.4725149407
20
6.9737584138
11
4.4729207979
21
6.9741072363
62
2
0
LINE
8
Setbacks
10
4.4729207979
20
6.9741072363
11
4.5967859594
21
7.0641003494
62
2
0
LINE
8
Setbacks
10
4.5967859594
20
7.0641003494
11
4.5972350002
21
7.0643744583
62
2
0
LINE
8
Setbacks
10
4.5972350002
20
7.0643744583
11
4.6412466486
21
7.0866087710
62
2
0
LINE
8
Setbacks
10
4.6412466486
20
7.0866087710
11
4.6822650628
21
7.1133939053
62
2
0
LINE
8
Setbacks
10
4.6822650628
20
7.1133939053
11
4.6827244384
21
7.1136440773
62
2
0
LINE
8
Setbacks
10
4.6827244384
20
7.1136440773
11
4.8225932093
21
7.1759177013
62
2
0
LINE
8
Setbacks
10
4.8225932093
20
7.1759177013
11
4.8230768215
21
7.1760891019
62
2
0
LINE
8
Setbacks
10
4.8230768215
20
7.1760891019
11
4.8725607424
21
7.1893764420
62
2
0
LINE
8
Setbacks
10
4.8725607424
20
7.1893764420
11
4.9201175814
21
7.2075466187
62
2
0
LINE
8
Setbacks
10
4.9201175814
20
7.2075466187
11
4.9206064120
21
7.2076910023
62
2
0
LINE
8
Setbacks
10
4.9206064120
20
7.2076910023
11
5.0703659312
21
7.2395236804
62
2
0
LINE
8
Setbacks
10
5.0703659312
20
7.2395236804
11
5.0708620330
21
7.2395900977
62
2
0
LINE
8
Setbacks
10
5.0708620330
20
7.2395900977
11
5.1239165852
21
7.2426032338
62
2
0
LINE
8
Setbacks
10
5.1239165852
20
7.2426032338
11
5.1761728106
21
7.2505950699
62
2
0
LINE
8
Setbacks
10
5.1761728106
20
7.2505950699
11
5.1766688008
21
7.2506327780
62
2
0
LINE
8
Setbacks
10
5.1766688008
20
7.2506327780
11
5.3297744488
21
7.2506327780
62
2
0
LINE
8
Setbacks
10
5.3297744488
20
7.2506327780
11
5.3302635946
21
7.2505961093
62
2
0
LINE
8
Setbacks
10
5.3302635946
20
7.2505961093
11
5.3843044963
21
7.2424479933
62
2
0
LINE
8
Setbacks
10
5.3843044963
20
7.2424479933
11
5.4386750655
21
7.2391576261
62
2
0
LINE
8
Setbacks
10
5.4386750655
20
7.2391576261
11
5.4391590033
21
7.2390919236
62
2
0
LINE
8
Setbacks
10
5.4391590033
20
7.2390919236
11
5.5889188506
21
7.2072595735
62
2
0
LINE
8
Setbacks
10
5.5889188506
20
7.2072595735
11
5.5893843526
21
7.2071240030
62
2
0
LINE
8
Setbacks
10
5.5893843526
20
7.2071240030
11
5.6413151543
21
7.1877338509
62
2
0
LINE
8
Setbacks
10
5.6413151543
20
7.1877338509
11
5.6946673857
21
7.1729006785
62
2
0
LINE
8
Setbacks
10
5.6946673857
20
7.1729006785
11
5.6951230006
21
7.1727369296
62
2
0
LINE
8
Setbacks
10
5.6951230006
20
7.1727369296
11
5.8349917715
21
7.1104636336
62
2
0
LINE
8
Setbacks
10
5.8349917715
20
7.1104636336
11
5.8354186033
21
7.1102344411
62
2
0
LINE
8
Setbacks
10
5.8354186033
20
7.1102344411
11
5.8820669290
21
7.0805524153
62
2
0
LINE
8
Setbacks
10
5.8820669290
20
7.0805524153
11
5.9311690984
21
7.0549749259
62
2
0
LINE
8
Setbacks
10
5.9311690984
20
7.0549749259
11
5.9315818350
21
7.0547194412
62
2
0
LINE
8
Setbacks
10
5.9315818350
20
7.0547194412
11
6.0554466683
21
6.9647263280
62
2
0
LINE
8
Setbacks
10
6.0554466683
20
6.9647263280
11
6.0558201462
21
6.9644098352
62
2
0
LINE
8
Setbacks
10
6.0558201462
20
6.9644098352
11
6.0944767124
21
6.9263461431
62
2
0
LINE
8
Setbacks
10
6.0944767124
20
6.9263461431
11
6.1365505734
21
6.8917840575
62
2
0
LINE
8
Setbacks
10
6.1365505734
20
6.8917840575
11
6.1369061838
21
6.8914442181
62
2
0
LINE
8
Setbacks
10
6.1369061838
20
6.8914442181
11
6.2393536936
21
6.7776646869
62
2
0
LINE
8
Setbacks
10
6.2393536936
20
6.7776646869
11
6.2396585451
21
6.7772693520
62
2
0
LINE
8
Setbacks
10
6.2396585451
20
6.7772693520
11
6.2684961541
21
6.7333235718
62
2
0
LINE
8
Setbacks
10
6.2684961541
20
6.7333235718
11
6.3015990517
21
6.6921260853
62
2
0
LINE
8
Setbacks
10
6.3015990517
20
6.6921260853
11
6.3018828316
21
6.6917114990
62
2
0
LINE
8
Setbacks
10
6.3018828316
20
6.6917114990
11
6.3784356556
21
6.5591179909
62
2
0
LINE
8
Setbacks
10
6.3784356556
20
6.5591179909
11
6.3786562249
21
6.5586560965
62
2
0
LINE
8
Setbacks
10
6.3786562249
20
6.5586560965
11
6.3968285239
21
6.5114436290
62
2
0
LINE
8
Setbacks
10
6.3968285239
20
6.5114436290
11
6.4199501837
21
6.4660779458
62
2
0
LINE
8
Setbacks
10
6.4199501837
20
6.4660779458
11
6.4201473714
21
6.4656019720
62
2
0
LINE
8
Setbacks
10
6.4201473714
20
6.4656019720
11
6.4674597089
21
6.3199900907
62
2
0
LINE
8
Setbacks
10
6.4674597089
20
6.3199900907
11
6.4675814997
21
6.3194792398
62
2
0
LINE
8
Setbacks
10
6.4675814997
20
6.3194792398
11
6.4750487264
21
6.2713485416
62
2
0
LINE
8
Setbacks
10
6.4750487264
20
6.2713485416
11
6.4879272708
21
6.2240527976
62
2
0
LINE
8
Setbacks
10
6.4879272708
20
6.2240527976
11
6.4880245575
21
6.2235337583
62
2
0
LINE
8
Setbacks
10
6.4880245575
20
6.2235337583
11
6.5040284951
21
6.0712670212
62
2
0
LINE
8
Setbacks
10
6.5040284951
20
6.0712670212
11
6.5040407418
21
6.0707303244
62
2
0
LINE
8
Setbacks
10
6.5040407418
20
6.0707303244
11
6.5012527253
21
6.0236032726
62
2
0
LINE
8
Setbacks
10
6.5012527253
20
6.0236032726
11
6.5040852372
21
5.9762353997
62
2
0
LINE
8
Setbacks
10
6.5040852372
20
5.9762353997
11
6.5040731145
21
5.9756966189
62
2
0
LINE
8
Setbacks
10
6.5040731145
20
5.9756966189
11
6.4880691770
21
5.8234298818
62
2
0
LINE
8
Setbacks
10
6.4880691770
20
5.8234298818
11
6.4879674537
21
5.8228947119
62
2
0
LINE
8
Setbacks
10
6.4879674537
20
5.8228947119
11
6.4755754815
21
5.7782844613
62
2
0
LINE
8
Setbacks
10
6.4755754815
20
5.7782844613
11
6.4687473373
21
5.7323631256
62
2
0
LINE
8
Setbacks
10
6.4687473373
20
5.7323631256
11
6.4686224386
21
5.7318318173
62
2
0
LINE
8
Setbacks
10
6.4686224386
20
5.7318318173
11
6.4213101011
21
5.5862199360
62
2
0
LINE
8
Setbacks
10
6.4213101011
20
5.5862199360
11
6.4210979947
21
5.5857150465
62
2
0
LINE
8
Setbacks
10
6.4210979947
20
5.5857150465
11
6.3997706121
21
5.5448760239
62
2
0
LINE
8
Setbacks
10
6.3997706121
20
5.5448760239
11
6.3836944947
21
5.5017101234
62
2
0
LINE
8
Setbacks
10
6.3836944947
20
5.5017101234
11
6.3834612445
21
5.5012147411
62
2
0
LINE
8
Setbacks
10
6.3834612445
20
5.5012147411
11
6.3069084206
21
5.3686215610
62
2
0
LINE
8
Setbacks
10
6.3069084206
20
5.3686215610
11
6.3065976548
21
5.3681738355
62
2
0
LINE
8
Setbacks
10
6.3065976548
20
5.3681738355
11
6.2769717744
21
5.3322716758
62
2
0
LINE
8
Setbacks
10
6.2769717744
20
5.3322716758
11
6.2520446996
21
5.2931324313
62
2
0
LINE
8
Setbacks
10
6.2520446996
20
5.2931324313
11
6.2517155706
21
5.2926995445
62
2
0
LINE
8
Setbacks
10
6.2517155706
20
5.2926995445
11
6.1492680608
21
5.1789200133
62
2
0
LINE
8
Setbacks
10
6.1492680608
20
5.1789200133
11
6.1488769792
21
5.1785514465
62
2
0
LINE
8
Setbacks
10
6.1488769792
20
5.1785514465
11
6.1116230294
21
5.1488070377
62
2
0
LINE
8
Setbacks
10
6.1116230294
20
5.1488070377
11
6.0783039664
21
5.1150710411
62
2
0
LINE
8
Setbacks
10
6.0783039664
20
5.1150710411
11
6.0778981093
21
5.1147222188
62
2
0
LINE
8
Setbacks
10
6.0778981093
20
5.1147222188
11
5.9540329478
21
5.0247291057
62
2
0
LINE
8
Setbacks
10
5.9540329478
20
5.0247291057
11
5.9535839070
21
5.0244549968
62
2
0
LINE
8
Setbacks
10
5.9535839070
20
5.0244549968
11
5.9095722586
21
5.0022206841
62
2
0
LINE
8
Setbacks
10
5.9095722586
20
5.0022206841
11
5.8685538444
21
4.9754355498
62
2
0
LINE
8
Setbacks
10
5.8685538444
20
4.9754355498
11
5.8680944687
21
4.9751853778
62
2
0
LINE
8
Setbacks
10
5.8680944687
20
4.9751853778
11
5.7282256979
21
4.9129117538
62
2
0
LINE
8
Setbacks
10
5.7282256979
20
4.9129117538
11
5.7277420895
21
4.9127403542
62
2
0
LINE
8
Setbacks
10
5.7277420895
20
4.9127403542
11
5.6782571838
21
4.8994526861
62
2
0
LINE
8
Setbacks
10
5.6782571838
20
4.8994526861
11
5.6307013285
21
4.8812828374
62
2
0
LINE
8
Setbacks
10
5.6307013285
20
4.8812828374
11
5.6302124871
21
4.8811384511
62
2
0
LINE
8
Setbacks
10
5.6302124871
20
4.8811384511
11
5.4804526397
21
4.8493061010
62
2
0
LINE
8
Setbacks
10
5.4804526397
20
4.8493061010
11
5.4799565507
21
4.8492396858
62
2
0
LINE
8
Setbacks
10
5.4799565507
20
4.8492396858
11
5.4269033140
21
4.8462265500
62
2
0
LINE
8
Setbacks
10
-4.0355720612
20
-0.5773120100
11
-4.0878279564
21
-0.5853038456
62
2
0
LINE
8
Setbacks
10
-4.0878279564
20
-0.5853038456
11
-4.0883239497
21
-0.5853415542
62
2
0
LINE
8
Setbacks
10
-4.0883239497
20
-0.5853415542
11
-4.2414292696
21
-0.5853415542
62
2
0
LINE
8
Setbacks
10
-4.2414292696
20
-0.5853415542
11
-4.2419184184
21
-0.5853048850
62
2
0
LINE
8
Setbacks
10
-4.2419184184
20
-0.5853048850
11
-4.2959589893
21
-0.5771567696
62
2
0
LINE
8
Setbacks
10
-4.2959589893
20
-0.5771567696
11
-4.3503302120
21
-0.5738664025
62
2
0
LINE
8
Setbacks
10
-4.3503302120
20
-0.5738664025
11
-4.3508141522
21
-0.5738006999
62
2
0
LINE
8
Setbacks
10
-4.3508141522
20
-0.5738006999
11
-4.5005739995
21
-0.5419683498
62
2
0
LINE
8
Setbacks
10
-4.5005739995
20
-0.5419683498
11
-4.5010395015
21
-0.5418327793
62
2
0
LINE
8
Setbacks
10
-4.5010395015
20
-0.5418327793
11
-4.5529703032
21
-0.5224426271
62
2
0
LINE
8
Setbacks
10
-4.5529703032
20
-0.5224426271
11
-4.6063225346
21
-0.5076094547
62
2
0
LINE
8
Setbacks
10
-4.6063225346
20
-0.5076094547
11
-4.6067781554
21
-0.5074457032
62
2
0
LINE
8
Setbacks
10
-4.6067781554
20
-0.5074457032
11
-4.7466469263
21
-0.4451720791
62
2
0
LINE
8
Setbacks
10
-4.7466469263
20
-0.4451720791
11
-4.7470737585
21
-0.4449428852
62
2
0
LINE
8
Setbacks
10
-4.7470737585
20
-0.4449428852
11
-4.7937197799
21
-0.4152621771
62
2
0
LINE
8
Setbacks
10
-4.7937197799
20
-0.4152621771
11
-4.8428242374
21
-0.3896837073
62
2
0
LINE
8
Setbacks
10
-4.8428242374
20
-0.3896837073
11
-4.8432369839
21
-0.3894282174
62
2
0
LINE
8
Setbacks
10
-4.8432369839
20
-0.3894282174
11
-4.9671018172
21
-0.2994351043
62
2
0
LINE
8
Setbacks
10
-4.9671018172
20
-0.2994351043
11
-4.9674752956
21
-0.2991186110
62
2
0
LINE
8
Setbacks
10
-4.9674752956
20
-0.2991186110
11
-5.0061328474
21
-0.2610539333
62
2
0
LINE
8
Setbacks
10
-5.0061328474
20
-0.2610539333
11
-5.0482053976
21
-0.2264928310
62
2
0
LINE
8
Setbacks
10
-5.0482053976
20
-0.2264928310
11
-5.0485610011
21
-0.2261529982
62
2
0
LINE
8
Setbacks
10
-5.0485610011
20
-0.2261529982
11
-5.1510088390
21
-0.1123734670
62
2
0
LINE
8
Setbacks
10
-5.1510088390
20
-0.1123734670
11
-5.1513137031
21
-0.1119781144
62
2
0
LINE
8
Setbacks
10
-5.1513137031
20
-0.1119781144
11
-5.1801516302
21
-0.0680313666
62
2
0
LINE
8
Setbacks
10
-5.1801516302
20
-0.0680313666
11
-5.2132541866
21
-0.0268348789
62
2
0
LINE
8
Setbacks
10
-5.2132541866
20
-0.0268348789
11
-5.2135379805
21
-0.0264202753
62
2
0
LINE
8
Setbacks
10
-5.2135379805
20
-0.0264202753
11
-5.2900908045
21
0.1061732329
62
2
0
LINE
8
Setbacks
10
-5.2900908045
20
0.1061732329
11
-5.2903113738
21
0.1066351273
62
2
0
LINE
8
Setbacks
10
-5.2903113738
20
0.1066351273
11
-5.3084836728
21
0.1538475947
62
2
0
LINE
8
Setbacks
10
-5.3084836728
20
0.1538475947
11
-5.3316053326
21
0.1992132780
62
2
0
LINE
8
Setbacks
10
-5.3316053326
20
0.1992132780
11
-5.3318025224
21
0.1996892582
62
2
0
LINE
8
Setbacks
10
-5.3318025224
20
0.1996892582
11
-5.3791145318
21
0.3453011395
62
2
0
LINE
8
Setbacks
10
-5.3791145318
20
0.3453011395
11
-5.3792363208
21
0.3458119854
62
2
0
LINE
8
Setbacks
10
-5.3792363208
20
0.3458119854
11
-5.3867032188
21
0.3939407106
62
2
0
LINE
8
Setbacks
10
-5.3867032188
20
0.3939407106
11
-5.3995824176
21
0.4412384187
62
2
0
LINE
8
Setbacks
10
-5.3995824176
20
0.4412384187
11
-5.3996797064
21
0.4417574654
62
2
0
LINE
8
Setbacks
10
-5.3996797064
20
0.4417574654
11
-5.4156836440
21
0.5940242026
62
2
0
LINE
8
Setbacks
10
-5.4156836440
20
0.5940242026
11
-5.4156958911
21
0.5945608913
62
2
0
LINE
8
Setbacks
10
-5.4156958911
20
0.5945608913
11
-5.4129078735
21
0.6416899229
62
2
0
LINE
8
Setbacks
10
-5.4129078735
20
0.6416899229
11
-5.4157400589
21
0.6890558385
62
2
0
LINE
8
Setbacks
10
-5.4157400589
20
0.6890558385
11
-5.4157279353
21
0.6895946049
62
2
0
LINE
8
Setbacks
10
-5.4157279353
20
0.6895946049
11
-5.3997239978
21
0.8418613420
62
2
0
LINE
8
Setbacks
10
-5.3997239978
20
0.8418613420
11
-5.3996222695
21
0.8423965298
62
2
0
LINE
8
Setbacks
10
-5.3996222695
20
0.8423965298
11
-5.3872303023
21
0.8870057825
62
2
0
LINE
8
Setbacks
10
-5.3872303023
20
0.8870057825
11
-5.3804021596
21
0.9329280881
62
2
0
LINE
8
Setbacks
10
-5.3804021596
20
0.9329280881
11
-5.3802772615
21
0.9334594001
62
2
0
LINE
8
Setbacks
10
-5.3802772615
20
0.9334594001
11
-5.3329652521
21
1.0790712814
62
2
0
LINE
8
Setbacks
10
-5.3329652521
20
1.0790712814
11
-5.3327531436
21
1.0795761773
62
2
0
LINE
8
Setbacks
10
-5.3327531436
20
1.0795761773
11
-5.3114257610
21
1.1204151999
62
2
0
LINE
8
Setbacks
10
-5.3114257610
20
1.1204151999
11
-5.2953496436
21
1.1635811004
62
2
0
LINE
8
Setbacks
10
-5.2953496436
20
1.1635811004
11
-5.2951163934
21
1.1640764827
62
2
0
LINE
8
Setbacks
10
-5.2951163934
20
1.1640764827
11
-5.2185635695
21
1.2966696628
62
2
0
LINE
8
Setbacks
10
-5.2185635695
20
1.2966696628
11
-5.2182528052
21
1.2971173866
62
2
0
LINE
8
Setbacks
10
-5.2182528052
20
1.2971173866
11
-5.1886256104
21
1.3330211889
62
2
0
LINE
8
Setbacks
10
-5.1886256104
20
1.3330211889
11
-5.1636995185
21
1.3721587955
62
2
0
LINE
8
Setbacks
10
-5.1636995185
20
1.3721587955
11
-5.1633703915
21
1.3725916793
62
2
0
LINE
8
Setbacks
10
-5.1633703915
20
1.3725916793
11
-5.0609228816
21
1.4863712105
62
2
0
LINE
8
Setbacks
10
-5.0609228816
20
1.4863712105
11
-5.0605318110
21
1.4867397686
62
2
0
LINE
8
Setbacks
10
-5.0605318110
20
1.4867397686
11
-5.0232781770
21
1.5164841861
62
2
0
LINE
8
Setbacks
10
-5.0232781770
20
1.5164841861
11
-4.9899587759
21
1.5502201941
62
2
0
LINE
8
Setbacks
10
-4.9899587759
20
1.5502201941
11
-4.9895529334
21
1.5505690026
62
2
0
LINE
8
Setbacks
10
-4.9895529334
20
1.5505690026
11
-4.8656881001
21
1.6405621157
62
2
0
LINE
8
Setbacks
10
-4.8656881001
20
1.6405621157
11
-4.8652390561
21
1.6408362269
62
2
0
LINE
8
Setbacks
10
-4.8652390561
20
1.6408362269
11
-4.8212280612
21
1.6630702128
62
2
0
LINE
8
Setbacks
10
-4.8212280612
20
1.6630702128
11
-4.7802089886
21
1.6898556770
62
2
0
LINE
8
Setbacks
10
-4.7802089886
20
1.6898556770
11
-4.7797496176
21
1.6901058460
62
2
0
LINE
8
Setbacks
10
-4.7797496176
20
1.6901058460
11
-4.6398808468
21
1.7523794700
62
2
0
LINE
8
Setbacks
10
-4.6398808468
20
1.7523794700
11
-4.6393972437
21
1.7525508682
62
2
0
LINE
8
Setbacks
10
-4.6393972437
20
1.7525508682
11
-4.5899126597
21
1.7658385377
62
2
0
LINE
8
Setbacks
10
-4.5899126597
20
1.7658385377
11
-4.5423564703
21
1.7840083891
62
2
0
LINE
8
Setbacks
10
-4.5423564703
20
1.7840083891
11
-4.5418676360
21
1.7841527727
62
2
0
LINE
8
Setbacks
10
-4.5418676360
20
1.7841527727
11
-4.3921077886
21
1.8159851228
62
2
0
LINE
8
Setbacks
10
-4.3921077886
20
1.8159851228
11
-4.3916116984
21
1.8160515381
62
2
0
LINE
8
Setbacks
10
-4.3916116984
20
1.8160515381
11
-4.3385581342
21
1.8190646738
62
2
0
LINE
8
Setbacks
10
-4.3385581342
20
1.8190646738
11
-4.2863009282
21
1.8270568370
62
2
0
LINE
8
Setbacks
10
-4.2863009282
20
1.8270568370
11
-4.2858049272
21
1.8270945467
62
2
0
LINE
8
Setbacks
10
-4.2858049272
20
1.8270945467
11
-4.1326996073
21
1.8270945467
62
2
0
LINE
8
Setbacks
10
-4.1326996073
20
1.8270945467
11
-4.1322104499
21
1.8270578762
62
2
0
LINE
8
Setbacks
10
-4.1322104499
20
1.8270578762
11
-4.0781708692
21
1.8189097621
62
2
0
LINE
8
Setbacks
10
-4.0781708692
20
1.8189097621
11
-4.0237986684
21
1.8156193952
62
2
0
LINE
8
Setbacks
10
-4.0237986684
20
1.8156193952
11
-4.0233147247
21
1.8155536923
62
2
0
LINE
8
Setbacks
10
-4.0233147247
20
1.8155536923
11
-3.8735548774
21
1.7837213422
62
2
0
LINE
8
Setbacks
10
-3.8735548774
20
1.7837213422
11
-3.8730893670
21
1.7835857686
62
2
0
LINE
8
Setbacks
10
-3.8730893670
20
1.7835857686
11
-3.8211598827
21
1.7641959468
62
2
0
LINE
8
Setbacks
10
-3.8211598827
20
1.7641959468
11
-3.7678063443
21
1.7493624478
62
2
0
LINE
8
Setbacks
10
-3.7678063443
20
1.7493624478
11
-3.7673507215
21
1.7491986956
62
2
0
LINE
8
Setbacks
10
-3.7673507215
20
1.7491986956
11
-3.6274819506
21
1.6869250716
62
2
0
LINE
8
Setbacks
10
-3.6274819506
20
1.6869250716
11
-3.6270551184
21
1.6866958777
62
2
0
LINE
8
Setbacks
10
-3.6270551184
20
1.6866958777
11
-3.5804090970
21
1.6570151696
62
2
0
LINE
8
Setbacks
10
-3.5804090970
20
1.6570151696
11
-3.5313046395
21
1.6314366997
62
2
0
LINE
8
Setbacks
10
-3.5313046395
20
1.6314366997
11
-3.5308918930
21
1.6311812099
62
2
0
LINE
8
Setbacks
10
-3.5308918930
20
1.6311812099
11
-3.4070270597
21
1.5411880968
62
2
0
LINE
8
Setbacks
10
-3.4070270597
20
1.5411880968
11
-3.4066535710
21
1.5408715933
62
2
0
LINE
8
Setbacks
10
-3.4066535710
20
1.5408715933
11
-3.3679953751
21
1.5028059442
62
2
0
LINE
8
Setbacks
10
-3.3679953751
20
1.5028059442
11
-3.3259234953
21
1.4682458366
62
2
0
LINE
8
Setbacks
10
-3.3259234953
20
1.4682458366
11
-3.3255678758
21
1.4679059907
62
2
0
LINE
8
Setbacks
10
-3.3255678758
20
1.4679059907
11
-3.2231200379
21
1.3541264595
62
2
0
LINE
8
Setbacks
10
-3.2231200379
20
1.3541264595
11
-3.2228151709
21
1.3537311024
62
2
0
LINE
8
Setbacks
10
-3.2228151709
20
1.3537311024
11
-3.1939769161
21
1.3097836996
62
2
0
LINE
8
Setbacks
10
-3.1939769161
20
1.3097836996
11
-3.1608746883
21
1.2685875409
62
2
0
LINE
8
Setbacks
10
-3.1608746883
20
1.2685875409
11
-3.1605908981
21
1.2681729427
62
2
0
LINE
8
Setbacks
10
-3.1605908981
20
1.2681729427
11
-3.0840380742
21
1.1355797626
62
2
0
LINE
8
Setbacks
10
-3.0840380742
20
1.1355797626
11
-3.0838175031
21
1.1351178652
62
2
0
LINE
8
Setbacks
10
-3.0838175031
20
1.1351178652
11
-3.0656452041
21
1.0879053977
62
2
0
LINE
8
Setbacks
10
-3.0656452041
20
1.0879053977
11
-3.0425235443
21
1.0425397145
62
2
0
LINE
8
Setbacks
10
-3.0425235443
20
1.0425397145
11
-3.0423263538
21
1.0420637323
62
2
0
LINE
8
Setbacks
10
-3.0423263538
20
1.0420637323
11
-2.9950143444
21
0.8964515229
62
2
0
LINE
8
Setbacks
10
-2.9950143444
20
0.8964515229
11
-2.9948925571
21
0.8959406856
62
2
0
LINE
8
Setbacks
10
-2.9948925571
20
0.8959406856
11
-2.9874256586
21
0.8478126104
62
2
0
LINE
8
Setbacks
10
-2.9874256586
20
0.8478126104
11
-2.9745464578
21
0.8005145683
62
2
0
LINE
8
Setbacks
10
-2.9745464578
20
0.8005145683
11
-2.9744491705
21
0.7999955270
62
2
0
LINE
8
Setbacks
10
-2.9744491705
20
0.7999955270
11
-2.9584452329
21
0.6477287899
62
2
0
LINE
8
Setbacks
10
-2.9584452329
20
0.6477287899
11
-2.9584329858
21
0.6471921012
62
2
0
LINE
8
Setbacks
10
-2.9584329858
20
0.6471921012
11
-2.9612210034
21
0.6000630696
62
2
0
LINE
8
Setbacks
10
-2.9612210034
20
0.6000630696
11
-2.9583888180
21
0.5526971540
62
2
0
LINE
8
Setbacks
10
-2.9583888180
20
0.5526971540
11
-2.9584009416
21
0.5521583876
62
2
0
LINE
8
Setbacks
10
-2.9584009416
20
0.5521583876
11
-2.9744048791
21
0.3998916505
62
2
0
LINE
8
Setbacks
10
-2.9744048791
20
0.3998916505
11
-2.9745066057
21
0.3993564687
62
2
0
LINE
8
Setbacks
10
-2.9745066057
20
0.3993564687
11
-2.9868985746
21
0.3547468833
62
2
0
LINE
8
Setbacks
10
-2.9868985746
20
0.3547468833
11
-2.9937267178
21
0.3088249011
62
2
0
LINE
8
Setbacks
10
-2.9937267178
20
0.3088249011
11
-2.9938516147
21
0.3082935944
62
2
0
LINE
8
Setbacks
10
-2.9938516147
20
0.3082935944
11
-3.0411636241
21
0.1626813850
62
2
0
LINE
8
Setbacks
10
-3.0411636241
20
0.1626813850
11
-3.0413757328
21
0.1621764879
62
2
0
LINE
8
Setbacks
10
-3.0413757328
20
0.1621764879
11
-3.0627034444
21
0.1213368076
62
2
0
LINE
8
Setbacks
10
-3.0627034444
20
0.1213368076
11
-3.0787792342
21
0.0781718897
62
2
0
LINE
8
Setbacks
10
-3.0787792342
20
0.0781718897
11
-3.0790124834
21
0.0776765098
62
2
0
LINE
8
Setbacks
10
-3.0790124834
20
0.0776765098
11
-3.1555653074
21
-0.0549166703
62
2
0
LINE
8
Setbacks
10
-3.1555653074
20
-0.0549166703
11
-3.1558760644
21
-0.0553643852
62
2
0
LINE
8
Setbacks
10
-3.1558760644
20
-0.0553643852
11
-3.1855035932
21
-0.0912688497
62
2
0
LINE
8
Setbacks
10
-3.1855035932
20
-0.0912688497
11
-3.2104293613
21
-0.1304058075
62
2
0
LINE
8
Setbacks
10
-3.2104293613
20
-0.1304058075
11
-3.2107584854
21
-0.1308386868
62
2
0
LINE
8
Setbacks
10
-3.2107584854
20
-0.1308386868
11
-3.3132059953
21
-0.2446182180
62
2
0
LINE
8
Setbacks
10
-3.3132059953
20
-0.2446182180
11
-3.3135970741
21
-0.2449867826
62
2
0
LINE
8
Setbacks
10
-3.3135970741
20
-0.2449867826
11
-3.3508513534
21
-0.2747315204
62
2
0
LINE
8
Setbacks
10
-3.3508513534
20
-0.2747315204
11
-3.3841700896
21
-0.3084671901
62
2
0
LINE
8
Setbacks
10
-3.3841700896
20
-0.3084671901
11
-3.3845759435
21
-0.3088160101
62
2
0
LINE
8
Setbacks
10
-3.3845759435
20
-0.3088160101
11
-3.5084407768
21
-0.3988091232
62
2
0
LINE
8
Setbacks
10
-3.5084407768
20
-0.3988091232
11
-3.5088898208
21
-0.3990832344
62
2
0
LINE
8
Setbacks
10
-3.5088898208
20
-0.3990832344
11
-3.5529008156
21
-0.4213172203
62
2
0
LINE
8
Setbacks
10
-3.5529008156
20
-0.4213172203
11
-3.5939198883
21
-0.4481026846
62
2
0
LINE
8
Setbacks
10
-3.5939198883
20
-0.4481026846
11
-3.5943792593
21
-0.4483528535
62
2
0
LINE
8
Setbacks
10
-3.5943792593
20
-0.4483528535
11
-3.7342480301
21
-0.5106264775
62
2
0
LINE
8
Setbacks
10
-3.7342480301
20
-0.5106264775
11
-3.7347316370
21
-0.5107978767
62
2
0
LINE
8
Setbacks
10
-3.7347316370
20
-0.5107978767
11
-3.7842152362
21
-0.5240852182
62
2
0
LINE
8
Setbacks
10
-3.7842152362
20
-0.5240852182
11
-3.8317724092
21
-0.5422553976
62
2
0
LINE
8
Setbacks
10
-3.8317724092
20
-0.5422553976
11
-3.8322612342
21
-0.5423997788
62
2
0
LINE
8
Setbacks
10
-3.8322612342
20
-0.5423997788
11
-3.9820210815
21
-0.5742324570
62
2
0
LINE
8
Setbacks
10
-3.9820210815
20
-0.5742324570
11
-3.9825171831
21
-0.5742988740
62
2
0
LINE
8
Setbacks
10
-3.9825171831
20
-0.5742988740
11
-4.0355720612
21
-0.5773120100
62
2
0
LINE
8
Setbacks
10
-36.2367854925
20
-9.6183251609
11
-33.3819384472
21
-2.9354187518
62
2
0
LINE
8
Setbacks
10
-33.3819384472
20
-2.9354187518
11
-33.6997075136
21
-2.2246294521
62
2
0
LINE
8
Setbacks
10
-33.6997075136
20
-2.2246294521
11
-33.6998822437
21
-2.2241364611
62
2
0
LINE
8
Setbacks
10
-33.6998822437
20
-2.2241364611
11
-33.6999764095
21
-2.2236219677
62
2
0
LINE
8
Setbacks
10
-33.6999764095
20
-2.2236219677
11
-33.7903701132
21
-1.3336928054
62
2
0
LINE
8
Setbacks
10
-33.7903701132
20
-1.3336928054
11
-33.7903802823
21
-1.3331528594
62
2
0
LINE
8
Setbacks
10
-33.7903802823
20
-1.3331528594
11
-33.7903017375
21
-1.3326185600
62
2
0
LINE
8
Setbacks
10
-33.7903017375
20
-1.3326185600
11
-33.5902653138
21
-0.4719108553
62
2
0
LINE
8
Setbacks
10
-33.5902653138
20
-0.4719108553
11
-33.5900974795
21
-0.4713901799
62
2
0
LINE
8
Setbacks
10
-33.5900974795
20
-0.4713901799
11
-29.3472457844
21
9.6971024657
62
2
0
LINE
8
Setbacks
10
-29.3472457844
20
9.6971024657
11
-35.8066337571
21
12.4865951083
62
2
0
LINE
8
Setbacks
10
-35.8066337571
20
12.4865951083
11
-35.7715499419
21
12.4258278186
62
2
0
LINE
8
Setbacks
10
-35.7715499419
20
12.4258278186
11
-35.7713295067
21
12.4253662698
62
2
0
LINE
8
Setbacks
10
-35.7713295067
20
12.4253662698
11
-35.7531324894
21
12.3781052304
62
2
0
LINE
8
Setbacks
10
-35.7531324894
20
12.3781052304
11
-35.7299916205
21
12.3326896933
62
2
0
LINE
8
Setbacks
10
-35.7299916205
20
12.3326896933
11
-35.7297945934
21
12.3322140340
62
2
0
LINE
8
Setbacks
10
-35.7297945934
20
12.3322140340
11
-35.7049054850
21
12.2556133097
62
2
0
LINE
8
Setbacks
10
-35.7049054850
20
12.2556133097
11
-35.7047837467
21
12.2551027947
62
2
0
LINE
8
Setbacks
10
-35.7047837467
20
12.2551027947
11
-35.6973046776
21
12.2069284640
62
2
0
LINE
8
Setbacks
10
-35.6973046776
20
12.2069284640
11
-35.6844175005
21
12.1595831974
62
2
0
LINE
8
Setbacks
10
-35.6844175005
20
12.1595831974
11
-35.6843202955
21
12.1590644562
62
2
0
LINE
8
Setbacks
10
-35.6843202955
20
12.1590644562
11
-35.6759013320
21
12.0789627476
62
2
0
LINE
8
Setbacks
10
-35.6759013320
20
12.0789627476
11
-35.6758890694
21
12.0784263309
62
2
0
LINE
8
Setbacks
10
-35.6758890694
20
12.0784263309
11
-35.6786751495
21
12.0312645646
62
2
0
LINE
8
Setbacks
10
-35.6786751495
20
12.0312645646
11
-35.6758442469
21
11.9838616492
62
2
0
LINE
8
Setbacks
10
-35.6758442469
20
11.9838616492
11
-35.6758563845
21
11.9833231274
62
2
0
LINE
8
Setbacks
10
-35.6758563845
20
11.9833231274
11
-35.6842753480
21
11.9032214188
62
2
0
LINE
8
Setbacks
10
-35.6842753480
20
11.9032214188
11
-35.6843770366
21
11.9026863716
62
2
0
LINE
8
Setbacks
10
-35.6843770366
20
11.9026863716
11
-35.6967716732
21
11.8580596038
62
2
0
LINE
8
Setbacks
10
-35.6967716732
20
11.8580596038
11
-35.7036040935
21
11.8121197764
62
2
0
LINE
8
Setbacks
10
-35.7036040935
20
11.8121197764
11
-35.7037289745
21
11.8115885798
62
2
0
LINE
8
Setbacks
10
-35.7037289745
20
11.8115885798
11
-35.7286180829
21
11.7349875275
62
2
0
LINE
8
Setbacks
10
-35.7286180829
20
11.7349875275
11
-35.7288301926
21
11.7344826292
62
2
0
LINE
8
Setbacks
10
-35.7288301926
20
11.7344826292
11
-35.7501565820
21
11.6936455921
62
2
0
LINE
8
Setbacks
10
-35.7501565820
20
11.6936455921
11
-35.7662320385
21
11.6504800385
62
2
0
LINE
8
Setbacks
10
-35.7662320385
20
11.6504800385
11
-35.7664652968
21
11.6499846303
62
2
0
LINE
8
Setbacks
10
-35.7664652968
20
11.6499846303
11
-35.8067366236
21
11.5802323315
62
2
0
LINE
8
Setbacks
10
-35.8067366236
20
11.5802323315
11
-35.8070474816
21
11.5797844919
62
2
0
LINE
8
Setbacks
10
-35.8070474816
20
11.5797844919
11
-35.8366630877
21
11.5438978645
62
2
0
LINE
8
Setbacks
10
-35.8366630877
20
11.5438978645
11
-35.8615766376
21
11.5047754866
62
2
0
LINE
8
Setbacks
10
-35.8615766376
20
11.5047754866
11
-35.8619058508
21
11.5043424653
62
2
0
LINE
8
Setbacks
10
-35.8619058508
20
11.5043424653
11
-35.9157995533
21
11.4444871485
62
2
0
LINE
8
Setbacks
10
-35.9157995533
20
11.4444871485
11
-35.9161908450
21
11.4441184123
62
2
0
LINE
8
Setbacks
10
-35.9161908450
20
11.4441184123
11
-35.9534186507
21
11.4143997542
62
2
0
LINE
8
Setbacks
10
-35.9534186507
20
11.4143997542
11
-35.9867089887
21
11.3806869318
62
2
0
LINE
8
Setbacks
10
-35.9867089887
20
11.3806869318
11
-35.9871150441
21
11.3803379076
62
2
0
LINE
8
Setbacks
10
-35.9871150441
20
11.3803379076
11
-36.0522754793
21
11.3329960425
62
2
0
LINE
8
Setbacks
10
-36.0522754793
20
11.3329960425
11
-36.0527248245
21
11.3327217790
62
2
0
LINE
8
Setbacks
10
-36.0527248245
20
11.3327217790
11
-36.0966941609
21
11.3105145086
62
2
0
LINE
8
Setbacks
10
-36.0966941609
20
11.3105145086
11
-36.1376699733
21
11.2837509053
62
2
0
LINE
8
Setbacks
10
-36.1376699733
20
11.2837509053
11
-36.1381296438
21
11.2835005406
62
2
0
LINE
8
Setbacks
10
-36.1381296438
20
11.2835005406
11
-36.2117093706
21
11.2507406970
62
2
0
LINE
8
Setbacks
10
-36.2117093706
20
11.2507406970
11
-36.2121933313
21
11.2505692027
62
2
0
LINE
8
Setbacks
10
-36.2121933313
20
11.2505692027
11
-36.2616289947
21
11.2373006402
62
2
0
LINE
8
Setbacks
10
-36.2616289947
20
11.2373006402
11
-36.3091316938
21
11.2191450471
62
2
0
LINE
8
Setbacks
10
-36.3091316938
20
11.2191450471
11
-36.3096208668
21
11.2190005325
62
2
0
LINE
8
Setbacks
10
-36.3096208668
20
11.2190005325
11
-36.3884040058
21
11.2022544690
62
2
0
LINE
8
Setbacks
10
-36.3884040058
20
11.2022544690
11
-36.3889004241
21
11.2021880336
62
2
0
LINE
8
Setbacks
10
-36.3889004241
20
11.2021880336
11
-36.4419064388
21
11.1991827740
62
2
0
LINE
8
Setbacks
10
-36.4419064388
20
11.1991827740
11
-36.4941131486
21
11.1911936234
62
2
0
LINE
8
Setbacks
10
-36.4941131486
20
11.1911936234
11
-36.4946094355
21
11.1911558699
62
2
0
LINE
8
Setbacks
10
-36.4946094355
20
11.1911558699
11
-36.5751527452
21
11.1911558699
62
2
0
LINE
8
Setbacks
10
-36.5751527452
20
11.1911558699
11
-36.5756421127
21
11.1911925720
62
2
0
LINE
8
Setbacks
10
-36.5756421127
20
11.1911925720
11
-36.6296490169
21
11.1993393347
62
2
0
LINE
8
Setbacks
10
-36.6296490169
20
11.1993393347
11
-36.6839855847
21
11.2026244485
62
2
0
LINE
8
Setbacks
10
-36.6839855847
20
11.2026244485
11
-36.6844697236
21
11.2026901645
62
2
0
LINE
8
Setbacks
10
-36.6844697236
20
11.2026901645
11
-36.7632528626
21
11.2194362281
62
2
0
LINE
8
Setbacks
10
-36.7632528626
20
11.2194362281
11
-36.7637184353
21
11.2195718264
62
2
0
LINE
8
Setbacks
10
-36.7637184353
20
11.2195718264
11
-36.8156380225
21
11.2389593277
62
2
0
LINE
8
Setbacks
10
-36.8156380225
20
11.2389593277
11
-36.8689800202
21
11.2537888756
62
2
0
LINE
8
Setbacks
10
-36.8689800202
20
11.2537888756
11
-36.8694356846
21
11.2539526394
62
2
0
LINE
8
Setbacks
10
-36.8694356846
20
11.2539526394
11
-36.9430154113
21
11.2867124830
62
2
0
LINE
8
Setbacks
10
-36.9430154113
20
11.2867124830
11
-36.9434421926
21
11.2869416446
62
2
0
LINE
8
Setbacks
10
-36.9434421926
20
11.2869416446
11
-36.9901030479
21
11.3166306025
62
2
0
LINE
8
Setbacks
10
-36.9901030479
20
11.3166306025
11
-37.0392174253
21
11.3422163251
62
2
0
LINE
8
Setbacks
10
-37.0392174253
20
11.3422163251
11
-37.0396300685
21
11.3424717600
62
2
0
LINE
8
Setbacks
10
-37.0396300685
20
11.3424717600
11
-37.1047908318
21
11.3898136250
62
2
0
LINE
8
Setbacks
10
-37.1047908318
20
11.3898136250
11
-37.1051641797
21
11.3901299884
62
2
0
LINE
8
Setbacks
10
-37.1051641797
20
11.3901299884
11
-37.1438520582
21
11.4282200814
62
2
0
LINE
8
Setbacks
10
-37.1438520582
20
11.4282200814
11
-37.1859483987
21
11.4628055869
62
2
0
LINE
8
Setbacks
10
-37.1859483987
20
11.4628055869
11
-37.1863038299
21
11.4631452789
62
2
0
LINE
8
Setbacks
10
-37.1863038299
20
11.4631452789
11
-37.2401975324
21
11.5230002677
62
2
0
LINE
8
Setbacks
10
-37.2401975324
20
11.5230002677
11
-37.2405022232
21
11.5233953573
62
2
0
LINE
8
Setbacks
10
-37.2405022232
20
11.5233953573
11
-37.2693721382
21
11.5673817519
62
2
0
LINE
8
Setbacks
10
-37.2693721382
20
11.5673817519
11
-37.3025018111
21
11.6086204749
62
2
0
LINE
8
Setbacks
10
-37.3025018111
20
11.6086204749
11
-37.3027853952
21
11.6090348158
62
2
0
LINE
8
Setbacks
10
-37.3027853952
20
11.6090348158
11
-37.3430570500
21
11.6787871147
62
2
0
LINE
8
Setbacks
10
-37.3430570500
20
11.6787871147
11
-37.3432774895
21
11.6792486691
62
2
0
LINE
8
Setbacks
10
-37.3432774895
20
11.6792486691
11
-37.3614738534
21
11.7265077477
62
2
0
LINE
8
Setbacks
10
-37.3614738534
20
11.7265077477
11
-37.3846153827
21
11.7719249323
62
2
0
LINE
8
Setbacks
10
-37.3846153827
20
11.7719249323
11
-37.3848124063
21
11.7724005865
62
2
0
LINE
8
Setbacks
10
-37.3848124063
20
11.7724005865
11
-37.4097015147
21
11.8490016388
62
2
0
LINE
8
Setbacks
10
-37.4097015147
20
11.8490016388
11
-37.4098232534
21
11.8495121599
62
2
0
LINE
8
Setbacks
10
-37.4098232534
20
11.8495121599
11
-37.4173023225
21
11.8976874716
62
2
0
LINE
8
Setbacks
10
-37.4173023225
20
11.8976874716
11
-37.4301891709
21
11.9450317510
62
2
0
LINE
8
Setbacks
10
-37.4301891709
20
11.9450317510
11
-37.4302863749
21
11.9455504884
62
2
0
LINE
8
Setbacks
10
-37.4302863749
20
11.9455504884
11
-37.4387053384
21
12.0256521970
62
2
0
LINE
8
Setbacks
10
-37.4387053384
20
12.0256521970
11
-37.4387176019
21
12.0261885991
62
2
0
LINE
8
Setbacks
10
-37.4387176019
20
12.0261885991
11
-37.4359318483
21
12.0733484082
62
2
0
LINE
8
Setbacks
10
-37.4359318483
20
12.0733484082
11
-37.4387627521
21
12.1207533034
62
2
0
LINE
8
Setbacks
10
-37.4387627521
20
12.1207533034
11
-37.4387506140
21
12.1212918172
62
2
0
LINE
8
Setbacks
10
-37.4387506140
20
12.1212918172
11
-37.4303316505
21
12.2013935258
62
2
0
LINE
8
Setbacks
10
-37.4303316505
20
12.2013935258
11
-37.4302299619
21
12.2019285730
62
2
0
LINE
8
Setbacks
10
-37.4302299619
20
12.2019285730
11
-37.4178353252
21
12.2465553407
62
2
0
LINE
8
Setbacks
10
-37.4178353252
20
12.2465553407
11
-37.4110029049
21
12.2924951682
62
2
0
LINE
8
Setbacks
10
-37.4110029049
20
12.2924951682
11
-37.4108780227
21
12.2930263687
62
2
0
LINE
8
Setbacks
10
-37.4108780227
20
12.2930263687
11
-37.3859889143
21
12.3696270929
62
2
0
LINE
8
Setbacks
10
-37.3859889143
20
12.3696270929
11
-37.3857768100
21
12.3701319793
62
2
0
LINE
8
Setbacks
10
-37.3857768100
20
12.3701319793
11
-37.3644510716
21
12.4109680409
62
2
0
LINE
8
Setbacks
10
-37.3644510716
20
12.4109680409
11
-37.3483749560
21
12.4541349165
62
2
0
LINE
8
Setbacks
10
-37.3483749560
20
12.4541349165
11
-37.3481416959
21
12.4546303243
62
2
0
LINE
8
Setbacks
10
-37.3481416959
20
12.4546303243
11
-37.3078700410
21
12.5243826231
62
2
0
LINE
8
Setbacks
10
-37.3078700410
20
12.5243826231
11
-37.3075591927
21
12.5248304479
62
2
0
LINE
8
Setbacks
10
-37.3075591927
20
12.5248304479
11
-37.2779442422
21
12.5607164192
62
2
0
LINE
8
Setbacks
10
-37.2779442422
20
12.5607164192
11
-37.2530303637
21
12.5998394534
62
2
0
LINE
8
Setbacks
10
-37.2530303637
20
12.5998394534
11
-37.2527011411
21
12.6002724866
62
2
0
LINE
8
Setbacks
10
-37.2527011411
20
12.6002724866
11
-37.1988071105
21
12.6601278035
62
2
0
LINE
8
Setbacks
10
-37.1988071105
20
12.6601278035
11
-37.1984158281
21
12.6604965301
62
2
0
LINE
8
Setbacks
10
-37.1984158281
20
12.6604965301
11
-37.1611893329
21
12.6902142051
62
2
0
LINE
8
Setbacks
10
-37.1611893329
20
12.6902142051
11
-37.1278980094
21
12.7239280132
62
2
0
LINE
8
Setbacks
10
-37.1278980094
20
12.7239280132
11
-37.1274919480
21
12.7242770416
62
2
0
LINE
8
Setbacks
10
-37.1274919480
20
12.7242770416
11
-37.0623311848
21
12.7716189067
62
2
0
LINE
8
Setbacks
10
-37.0623311848
20
12.7716189067
11
-37.0618818373
21
12.7718931699
62
2
0
LINE
8
Setbacks
10
-37.0618818373
20
12.7718931699
11
-37.0179128364
21
12.7941001091
62
2
0
LINE
8
Setbacks
10
-37.0179128364
20
12.7941001091
11
-36.9769367024
21
12.8208640358
62
2
0
LINE
8
Setbacks
10
-36.9769367024
20
12.8208640358
11
-36.9764770154
21
12.8211144089
62
2
0
LINE
8
Setbacks
10
-36.9764770154
20
12.8211144089
11
-36.9028972886
21
12.8538739244
62
2
0
LINE
8
Setbacks
10
-36.9028972886
20
12.8538739244
11
-36.9024133562
21
12.8540454092
62
2
0
LINE
8
Setbacks
10
-36.9024133562
20
12.8540454092
11
-36.8529799741
21
12.8673136468
62
2
0
LINE
8
Setbacks
10
-36.8529799741
20
12.8673136468
11
-36.8054749642
21
12.8854699023
62
2
0
LINE
8
Setbacks
10
-36.8054749642
20
12.8854699023
11
-36.8049857995
21
12.8856144130
62
2
0
LINE
8
Setbacks
10
-36.8049857995
20
12.8856144130
11
-36.7551416316
21
12.8962091714
62
2
0
LINE
8
Setbacks
10
-36.7551416316
20
12.8962091714
11
-38.0663916705
21
13.4624734865
62
2
0
LINE
8
Setbacks
10
-38.0663916705
20
13.4624734865
11
-46.1795734147
21
-5.3245228970
62
2
0
LINE
8
Setbacks
10
-6.0832956804
20
-23.8623541650
11
-1.6847624929
21
-13.4332322022
62
2
0
LINE
8
Setbacks
10
-1.6847624929
20
-13.4332322022
11
-11.1728589081
21
-9.3993164935
62
2
0
LINE
8
Setbacks
10
-11.1728589081
20
-9.3993164935
11
-11.3263593383
21
-9.7671984021
62
2
0
LINE
8
Setbacks
10
-11.3263593383
20
-9.7671984021
11
-11.3266114530
21
-9.7676841054
62
2
0
LINE
8
Setbacks
10
-11.3266114530
20
-9.7676841054
11
-11.7975517568
21
-10.5150469902
62
2
0
LINE
8
Setbacks
10
-11.7975517568
20
-10.5150469902
11
-11.7978767069
21
-10.5154791090
62
2
0
LINE
8
Setbacks
10
-11.7978767069
20
-10.5154791090
11
-11.7982682134
21
-10.5158519922
62
2
0
LINE
8
Setbacks
10
-11.7982682134
20
-10.5158519922
11
-12.4134784252
21
-11.0118734190
62
2
0
LINE
8
Setbacks
10
-12.4134784252
20
-11.0118734190
11
-16.0588142824
21
-19.6551301663
62
2
0
LINE
8
Setbacks
10
-6.7942696466
20
-16.5903223568
11
-6.8465512792
21
-16.5983158620
62
2
0
LINE
8
Setbacks
10
-6.8465512792
20
-16.5983158620
11
-6.8470471351
21
-16.5983535495
62
2
0
LINE
8
Setbacks
10
-6.8470471351
20
-16.5983535495
11
-6.9275901167
21
-16.5983535495
62
2
0
LINE
8
Setbacks
10
-6.9275901167
20
-16.5983535495
11
-6.9280791707
21
-16.5983168947
62
2
0
LINE
8
Setbacks
10
-6.9280791707
20
-16.5983168947
11
-6.9821349241
21
-16.5901681051
62
2
0
LINE
8
Setbacks
10
-6.9821349241
20
-16.5901681051
11
-7.0365252680
21
-16.5868751117
62
2
0
LINE
8
Setbacks
10
-7.0365252680
20
-16.5868751117
11
-7.0370091192
21
-16.5868094145
62
2
0
LINE
8
Setbacks
10
-7.0370091192
20
-16.5868094145
11
-7.1157919301
21
-16.5700636791
62
2
0
LINE
8
Setbacks
10
-7.1157919301
20
-16.5700636791
11
-7.1162574058
21
-16.5699281186
62
2
0
LINE
8
Setbacks
10
-7.1162574058
20
-16.5699281186
11
-7.1681931443
21
-16.5505366469
62
2
0
LINE
8
Setbacks
10
-7.1681931443
20
-16.5505366469
11
-7.2215509696
21
-16.5357018297
62
2
0
LINE
8
Setbacks
10
-7.2215509696
20
-16.5357018297
11
-7.2220065862
21
-16.5355380793
62
2
0
LINE
8
Setbacks
10
-7.2220065862
20
-16.5355380793
11
-7.2955863130
21
-16.5027782357
62
2
0
LINE
8
Setbacks
10
-7.2955863130
20
-16.5027782357
11
-7.2960131683
21
-16.5025490269
62
2
0
LINE
8
Setbacks
10
-7.2960131683
20
-16.5025490269
11
-7.3426525981
21
-16.4728719483
62
2
0
LINE
8
Setbacks
10
-7.3426525981
20
-16.4728719483
11
-7.3917504607
21
-16.4472977587
62
2
0
LINE
8
Setbacks
10
-7.3917504607
20
-16.4472977587
11
-7.3921632493
21
-16.4470422463
62
2
0
LINE
8
Setbacks
10
-7.3921632493
20
-16.4470422463
11
-7.4573240125
21
-16.3997000531
62
2
0
LINE
8
Setbacks
10
-7.4573240125
20
-16.3997000531
11
-7.4576975705
21
-16.3993834807
62
2
0
LINE
8
Setbacks
10
-7.4576975705
20
-16.3993834807
11
-7.4963379769
21
-16.3613330017
62
2
0
LINE
8
Setbacks
10
-7.4963379769
20
-16.3613330017
11
-7.5383999285
21
-16.3267834567
62
2
0
LINE
8
Setbacks
10
-7.5383999285
20
-16.3267834567
11
-7.5387556431
21
-16.3264435302
62
2
0
LINE
8
Setbacks
10
-7.5387556431
20
-16.3264435302
11
-7.5926493456
21
-16.2665882134
62
2
0
LINE
8
Setbacks
10
-7.5926493456
20
-16.2665882134
11
-7.5929542858
21
-16.2661927411
62
2
0
LINE
8
Setbacks
10
-7.5929542858
20
-16.2661927411
11
-7.6217747438
21
-16.2222681115
62
2
0
LINE
8
Setbacks
10
-7.6217747438
20
-16.2222681115
11
-7.6548647278
21
-16.1810914274
62
2
0
LINE
8
Setbacks
10
-7.6548647278
20
-16.1810914274
11
-7.6551486197
21
-16.1806767034
62
2
0
LINE
8
Setbacks
10
-7.6551486197
20
-16.1806767034
11
-7.6954202745
21
-16.1109244045
62
2
0
LINE
8
Setbacks
10
-7.6954202745
20
-16.1109244045
11
-7.6956409104
21
-16.1104623400
62
2
0
LINE
8
Setbacks
10
-7.6956409104
20
-16.1104623400
11
-7.7138010159
21
-16.0632739897
62
2
0
LINE
8
Setbacks
10
-7.7138010159
20
-16.0632739897
11
-7.7369127454
21
-16.0179337211
62
2
0
LINE
8
Setbacks
10
-7.7369127454
20
-16.0179337211
11
-7.7371100140
21
-16.0174575863
62
2
0
LINE
8
Setbacks
10
-7.7371100140
20
-16.0174575863
11
-7.7619991225
21
-15.9408565340
62
2
0
LINE
8
Setbacks
10
-7.7619991225
20
-15.9408565340
11
-7.7621209397
21
-15.9403455062
62
2
0
LINE
8
Setbacks
10
-7.7621209397
20
-15.9403455062
11
-7.7695815876
21
-15.8922392640
62
2
0
LINE
8
Setbacks
10
-7.7695815876
20
-15.8922392640
11
-7.7824564669
21
-15.8449666556
62
2
0
LINE
8
Setbacks
10
-7.7824564669
20
-15.8449666556
11
-7.7825537975
21
-15.8444474614
62
2
0
LINE
8
Setbacks
10
-7.7825537975
20
-15.8444474614
11
-7.7909730891
21
-15.7643457528
62
2
0
LINE
8
Setbacks
10
-7.7909730891
20
-15.7643457528
11
-7.7909853294
21
-15.7638089225
62
2
0
LINE
8
Setbacks
10
-7.7909853294
20
-15.7638089225
11
-7.7881963430
21
-15.7166957666
62
2
0
LINE
8
Setbacks
10
-7.7881963430
20
-15.7166957666
11
-7.7910291696
21
-15.6693490076
62
2
0
LINE
8
Setbacks
10
-7.7910291696
20
-15.6693490076
11
-7.7910170537
21
-15.6688101219
62
2
0
LINE
8
Setbacks
10
-7.7910170537
20
-15.6688101219
11
-7.7825980902
21
-15.5887084133
62
2
0
LINE
8
Setbacks
10
-7.7825980902
20
-15.5887084133
11
-7.7824963429
21
-15.5881731549
62
2
0
LINE
8
Setbacks
10
-7.7824963429
20
-15.5881731549
11
-7.7701053812
21
-15.5435711804
62
2
0
LINE
8
Setbacks
10
-7.7701053812
20
-15.5435711804
11
-7.7632795410
21
-15.4976587812
62
2
0
LINE
8
Setbacks
10
-7.7632795410
20
-15.4976587812
11
-7.7631546343
21
-15.4971274117
62
2
0
LINE
8
Setbacks
10
-7.7631546343
20
-15.4971274117
11
-7.7382655259
21
-15.4205263594
62
2
0
LINE
8
Setbacks
10
-7.7382655259
20
-15.4205263594
11
-7.7380534137
21
-15.4200214564
62
2
0
LINE
8
Setbacks
10
-7.7380534137
20
-15.4200214564
11
-7.7167250473
21
-15.3791807931
62
2
0
LINE
8
Setbacks
10
-7.7167250473
20
-15.3791807931
11
-7.7006489304
21
-15.3360152205
62
2
0
LINE
8
Setbacks
10
-7.7006489304
20
-15.3360152205
11
-7.7004156815
21
-15.3355198432
62
2
0
LINE
8
Setbacks
10
-7.7004156815
20
-15.3355198432
11
-7.6601440267
21
-15.2657675444
62
2
0
LINE
8
Setbacks
10
-7.6601440267
20
-15.2657675444
11
-7.6598333083
21
-15.2653198770
62
2
0
LINE
8
Setbacks
10
-7.6598333083
20
-15.2653198770
11
-7.6301995037
21
-15.2294065087
62
2
0
LINE
8
Setbacks
10
-7.6301995037
20
-15.2294065087
11
-7.6052678001
21
-15.1902619505
62
2
0
LINE
8
Setbacks
10
-7.6052678001
20
-15.1902619505
11
-7.6049387094
21
-15.1898291244
62
2
0
LINE
8
Setbacks
10
-7.6049387094
20
-15.1898291244
11
-7.5510446788
21
-15.1299738076
62
2
0
LINE
8
Setbacks
10
-7.5510446788
20
-15.1299738076
11
-7.5506537068
21
-15.1296053288
62
2
0
LINE
8
Setbacks
10
-7.5506537068
20
-15.1296053288
11
-7.5133868429
21
-15.0998480402
62
2
0
LINE
8
Setbacks
10
-7.5133868429
20
-15.0998480402
11
-7.4800525920
21
-15.0660997946
62
2
0
LINE
8
Setbacks
10
-7.4800525920
20
-15.0660997946
11
-7.4796468392
21
-15.0657510786
62
2
0
LINE
8
Setbacks
10
-7.4796468392
20
-15.0657510786
11
-7.4144860759
21
-15.0184092136
62
2
0
LINE
8
Setbacks
10
-7.4144860759
20
-15.0184092136
11
-7.4140371962
21
-15.0181351867
62
2
0
LINE
8
Setbacks
10
-7.4140371962
20
-15.0181351867
11
-7.3700033966
21
-14.9958866917
62
2
0
LINE
8
Setbacks
10
-7.3700033966
20
-14.9958866917
11
-7.3289635078
21
-14.9690909487
62
2
0
LINE
8
Setbacks
10
-7.3289635078
20
-14.9690909487
11
-7.3285042931
21
-14.9688408816
62
2
0
LINE
8
Setbacks
10
-7.3285042931
20
-14.9688408816
11
-7.2549245663
21
-14.9360810381
62
2
0
LINE
8
Setbacks
10
-7.2549245663
20
-14.9360810381
11
-7.2544411264
21
-14.9359096836
62
2
0
LINE
8
Setbacks
10
-7.2544411264
20
-14.9359096836
11
-7.2049324271
21
-14.9226127924
62
2
0
LINE
8
Setbacks
10
-7.2049324271
20
-14.9226127924
11
-7.1573481961
21
-14.9044349988
62
2
0
LINE
8
Setbacks
10
-7.1573481961
20
-14.9044349988
11
-7.1568595140
21
-14.9042906740
62
2
0
LINE
8
Setbacks
10
-7.1568595140
20
-14.9042906740
11
-7.0780763750
21
-14.8875449385
62
2
0
LINE
8
Setbacks
10
-7.0780763750
20
-14.8875449385
11
-7.0775804630
21
-14.8874785339
62
2
0
LINE
8
Setbacks
10
-7.0775804630
20
-14.8874785339
11
-7.0245017929
21
-14.8844611317
62
2
0
LINE
8
Setbacks
10
-7.0245017929
20
-14.8844611317
11
-6.9722201405
21
-14.8764679506
62
2
0
LINE
8
Setbacks
10
-6.9722201405
20
-14.8764679506
11
-6.9717243045
21
-14.8764302661
62
2
0
LINE
8
Setbacks
10
-6.9717243045
20
-14.8764302661
11
-6.8911813229
21
-14.8764302661
62
2
0
LINE
8
Setbacks
10
-6.8911813229
20
-14.8764302661
11
-6.8906922678
21
-14.8764669211
62
2
0
LINE
8
Setbacks
10
-6.8906922678
20
-14.8764669211
11
-6.8366388151
21
-14.8846153819
62
2
0
LINE
8
Setbacks
10
-6.8366388151
20
-14.8846153819
11
-6.7822465068
21
-14.8879083754
62
2
0
LINE
8
Setbacks
10
-6.7822465068
20
-14.8879083754
11
-6.7817626384
21
-14.8879740751
62
2
0
LINE
8
Setbacks
10
-6.7817626384
20
-14.8879740751
11
-6.7029794994
21
-14.9047201386
62
2
0
LINE
8
Setbacks
10
-6.7029794994
20
-14.9047201386
11
-6.7025140510
21
-14.9048556906
62
2
0
LINE
8
Setbacks
10
-6.7025140510
20
-14.9048556906
11
-6.6505809220
21
-14.9242458564
62
2
0
LINE
8
Setbacks
10
-6.6505809220
20
-14.9242458564
11
-6.5972204560
21
-14.9390816616
62
2
0
LINE
8
Setbacks
10
-6.5972204560
20
-14.9390816616
11
-6.5967648533
21
-14.9392454082
62
2
0
LINE
8
Setbacks
10
-6.5967648533
20
-14.9392454082
11
-6.5231851266
21
-14.9720052518
62
2
0
LINE
8
Setbacks
10
-6.5231851266
20
-14.9720052518
11
-6.5227582700
21
-14.9722344614
62
2
0
LINE
8
Setbacks
10
-6.5227582700
20
-14.9722344614
11
-6.4761178598
21
-15.0019121937
62
2
0
LINE
8
Setbacks
10
-6.4761178598
20
-15.0019121937
11
-6.4270209856
21
-15.0274857254
62
2
0
LINE
8
Setbacks
10
-6.4270209856
20
-15.0274857254
11
-6.4266081903
21
-15.0277412412
62
2
0
LINE
8
Setbacks
10
-6.4266081903
20
-15.0277412412
11
-6.3614474270
21
-15.0750834344
62
2
0
LINE
8
Setbacks
10
-6.3614474270
20
-15.0750834344
11
-6.3610738684
21
-15.0754000074
62
2
0
LINE
8
Setbacks
10
-6.3610738684
20
-15.0754000074
11
-6.3224321539
21
-15.1134517946
62
2
0
LINE
8
Setbacks
10
-6.3224321539
20
-15.1134517946
11
-6.2803715195
21
-15.1480000239
62
2
0
LINE
8
Setbacks
10
-6.2803715195
20
-15.1480000239
11
-6.2800157965
21
-15.1483399573
62
2
0
LINE
8
Setbacks
10
-6.2800157965
20
-15.1483399573
11
-6.2261220940
21
-15.2081952741
62
2
0
LINE
8
Setbacks
10
-6.2261220940
20
-15.2081952741
11
-6.2258171570
21
-15.2085907415
62
2
0
LINE
8
Setbacks
10
-6.2258171570
20
-15.2085907415
11
-6.1969963652
21
-15.2525157084
62
2
0
LINE
8
Setbacks
10
-6.1969963652
20
-15.2525157084
11
-6.1639067019
21
-15.2936924005
62
2
0
LINE
8
Setbacks
10
-6.1639067019
20
-15.2936924005
11
-6.1636228199
21
-15.2941071122
62
2
0
LINE
8
Setbacks
10
-6.1636228199
20
-15.2941071122
11
-6.1233511651
21
-15.3638594111
62
2
0
LINE
8
Setbacks
10
-6.1233511651
20
-15.3638594111
11
-6.1231305254
21
-15.3643214855
62
2
0
LINE
8
Setbacks
10
-6.1231305254
20
-15.3643214855
11
-6.1049700950
21
-15.4115111382
62
2
0
LINE
8
Setbacks
10
-6.1049700950
20
-15.4115111382
11
-6.0818590269
21
-15.4568497573
62
2
0
LINE
8
Setbacks
10
-6.0818590269
20
-15.4568497573
11
-6.0816617575
21
-15.4573258891
62
2
0
LINE
8
Setbacks
10
-6.0816617575
20
-15.4573258891
11
-6.0567723211
21
-15.5339269415
62
2
0
LINE
8
Setbacks
10
-6.0567723211
20
-15.5339269415
11
-6.0566504983
21
-15.5344379913
62
2
0
LINE
8
Setbacks
10
-6.0566504983
20
-15.5344379913
11
-6.0491898520
21
-15.5825452041
62
2
0
LINE
8
Setbacks
10
-6.0491898520
20
-15.5825452041
11
-6.0363149772
21
-15.6298168153
62
2
0
LINE
8
Setbacks
10
-6.0363149772
20
-15.6298168153
11
-6.0362176407
21
-15.6303360393
62
2
0
LINE
8
Setbacks
10
-6.0362176407
20
-15.6303360393
11
-6.0277986772
21
-15.7104377479
62
2
0
LINE
8
Setbacks
10
-6.0277986772
20
-15.7104377479
11
-6.0277864390
21
-15.7109745770
62
2
0
LINE
8
Setbacks
10
-6.0277864390
20
-15.7109745770
11
-6.0305754240
21
-15.7580847690
62
2
0
LINE
8
Setbacks
10
-6.0305754240
20
-15.7580847690
11
-6.0277422706
21
-15.8054344696
62
2
0
LINE
8
Setbacks
10
-6.0277422706
20
-15.8054344696
11
-6.0277543859
21
-15.8059733656
62
2
0
LINE
8
Setbacks
10
-6.0277543859
20
-15.8059733656
11
-6.0361733494
21
-15.8860750742
62
2
0
LINE
8
Setbacks
10
-6.0361733494
20
-15.8860750742
11
-6.0362750966
21
-15.8866103326
62
2
0
LINE
8
Setbacks
10
-6.0362750966
20
-15.8866103326
11
-6.0486660584
21
-15.9312123071
62
2
0
LINE
8
Setbacks
10
-6.0486660584
20
-15.9312123071
11
-6.0554918986
21
-15.9771247063
62
2
0
LINE
8
Setbacks
10
-6.0554918986
20
-15.9771247063
11
-6.0556168092
21
-15.9776560879
62
2
0
LINE
8
Setbacks
10
-6.0556168092
20
-15.9776560879
11
-6.0805062457
21
-16.0542571402
62
2
0
LINE
8
Setbacks
10
-6.0805062457
20
-16.0542571402
11
-6.0807183489
21
-16.0547620216
62
2
0
LINE
8
Setbacks
10
-6.0807183489
20
-16.0547620216
11
-6.1020467204
21
-16.0956030210
62
2
0
LINE
8
Setbacks
10
-6.1020467204
20
-16.0956030210
11
-6.1181228401
21
-16.1387682746
62
2
0
LINE
8
Setbacks
10
-6.1181228401
20
-16.1387682746
11
-6.1183560804
21
-16.1392636343
62
2
0
LINE
8
Setbacks
10
-6.1183560804
20
-16.1392636343
11
-6.1586274071
21
-16.2090159331
62
2
0
LINE
8
Setbacks
10
-6.1586274071
20
-16.2090159331
11
-6.1589381386
21
-16.2094636194
62
2
0
LINE
8
Setbacks
10
-6.1589381386
20
-16.2094636194
11
-6.1885716115
21
-16.2453763282
62
2
0
LINE
8
Setbacks
10
-6.1885716115
20
-16.2453763282
11
-6.2135039685
21
-16.2845218666
62
2
0
LINE
8
Setbacks
10
-6.2135039685
20
-16.2845218666
11
-6.2138330576
21
-16.2849546904
62
2
0
LINE
8
Setbacks
10
-6.2138330576
20
-16.2849546904
11
-6.2677267601
21
-16.3448096792
62
2
0
LINE
8
Setbacks
10
-6.2677267601
20
-16.3448096792
11
-6.2681177327
21
-16.3451781587
62
2
0
LINE
8
Setbacks
10
-6.2681177327
20
-16.3451781587
11
-6.3053862367
21
-16.3749367593
62
2
0
LINE
8
Setbacks
10
-6.3053862367
20
-16.3749367593
11
-6.3387191751
21
-16.4086836923
62
2
0
LINE
8
Setbacks
10
-6.3387191751
20
-16.4086836923
11
-6.3391249285
21
-16.4090324089
62
2
0
LINE
8
Setbacks
10
-6.3391249285
20
-16.4090324089
11
-6.4042856917
21
-16.4563742739
62
2
0
LINE
8
Setbacks
10
-6.4042856917
20
-16.4563742739
11
-6.4047345793
21
-16.4566483048
62
2
0
LINE
8
Setbacks
10
-6.4047345793
20
-16.4566483048
11
-6.4487654156
21
-16.4788951545
62
2
0
LINE
8
Setbacks
10
-6.4487654156
20
-16.4788951545
11
-6.4898079198
21
-16.5056928591
62
2
0
LINE
8
Setbacks
10
-6.4898079198
20
-16.5056928591
11
-6.4902671577
21
-16.5059429389
62
2
0
LINE
8
Setbacks
10
-6.4902671577
20
-16.5059429389
11
-6.5638468844
21
-16.5387024544
62
2
0
LINE
8
Setbacks
10
-6.5638468844
20
-16.5387024544
11
-6.5643303079
21
-16.5388738025
62
2
0
LINE
8
Setbacks
10
-6.5643303079
20
-16.5388738025
11
-6.6138386855
21
-16.5521706951
62
2
0
LINE
8
Setbacks
10
-6.6138386855
20
-16.5521706951
11
-6.6614232505
21
-16.5703484914
62
2
0
LINE
8
Setbacks
10
-6.6614232505
20
-16.5703484914
11
-6.6619119128
21
-16.5704928108
62
2
0
LINE
8
Setbacks
10
-6.6619119128
20
-16.5704928108
11
-6.7406950518
21
-16.5872388744
62
2
0
LINE
8
Setbacks
10
-6.7406950518
20
-16.5872388744
11
-6.7411909967
21
-16.5873052828
62
2
0
LINE
8
Setbacks
10
-6.7411909967
20
-16.5873052828
11
-6.7942696466
21
-16.5903223568
62
2
0
LINE
8
Setbacks
10
-8.7579577054
20
-20.5785403322
11
-8.8102406586
21
-20.5865338392
62
2
0
LINE
8
Setbacks
10
-8.8102406586
20
-20.5865338392
11
-8.8107365024
21
-20.5865715249
62
2
0
LINE
8
Setbacks
10
-8.8107365024
20
-20.5865715249
11
-8.8912794840
21
-20.5865715249
62
2
0
LINE
8
Setbacks
10
-8.8912794840
20
-20.5865715249
11
-8.8917685264
21
-20.5865348718
62
2
0
LINE
8
Setbacks
10
-8.8917685264
20
-20.5865348718
11
-8.9458256002
21
-20.5783860805
62
2
0
LINE
8
Setbacks
10
-8.9458256002
20
-20.5783860805
11
-9.0002146401
21
-20.5750930868
62
2
0
LINE
8
Setbacks
10
-9.0002146401
20
-20.5750930868
11
-9.0006984837
21
-20.5750273905
62
2
0
LINE
8
Setbacks
10
-9.0006984837
20
-20.5750273905
11
-9.0794816227
21
-20.5582816551
62
2
0
LINE
8
Setbacks
10
-9.0794816227
20
-20.5582816551
11
-9.0799470905
21
-20.5581460980
62
2
0
LINE
8
Setbacks
10
-9.0799470905
20
-20.5581460980
11
-9.1318825124
21
-20.5387549496
62
2
0
LINE
8
Setbacks
10
-9.1318825124
20
-20.5387549496
11
-9.1852406780
21
-20.5239198015
62
2
0
LINE
8
Setbacks
10
-9.1852406780
20
-20.5239198015
11
-9.1856962816
21
-20.5237560547
62
2
0
LINE
8
Setbacks
10
-9.1856962816
20
-20.5237560547
11
-9.2592760084
21
-20.4909962111
62
2
0
LINE
8
Setbacks
10
-9.2592760084
20
-20.4909962111
11
-9.2597028637
21
-20.4907670023
62
2
0
LINE
8
Setbacks
10
-9.2597028637
20
-20.4907670023
11
-9.3063422934
21
-20.4610899237
62
2
0
LINE
8
Setbacks
10
-9.3063422934
20
-20.4610899237
11
-9.3554401561
21
-20.4355157341
62
2
0
LINE
8
Setbacks
10
-9.3554401561
20
-20.4355157341
11
-9.3558529359
21
-20.4352602280
62
2
0
LINE
8
Setbacks
10
-9.3558529359
20
-20.4352602280
11
-9.4210136992
21
-20.3879183630
62
2
0
LINE
8
Setbacks
10
-9.4210136992
20
-20.3879183630
11
-9.4213872673
21
-20.3876017828
62
2
0
LINE
8
Setbacks
10
-9.4213872673
20
-20.3876017828
11
-9.4600306270
21
-20.3495483506
62
2
0
LINE
8
Setbacks
10
-9.4600306270
20
-20.3495483506
11
-9.5020892983
21
-20.3150014300
62
2
0
LINE
8
Setbacks
10
-9.5020892983
20
-20.3150014300
11
-9.5024449977
21
-20.3146615197
62
2
0
LINE
8
Setbacks
10
-9.5024449977
20
-20.3146615197
11
-9.5563390283
21
-20.2548065309
62
2
0
LINE
8
Setbacks
10
-9.5563390283
20
-20.2548065309
11
-9.5566439809
21
-20.2544110451
62
2
0
LINE
8
Setbacks
10
-9.5566439809
20
-20.2544110451
11
-9.5854650969
21
-20.2104854284
62
2
0
LINE
8
Setbacks
10
-9.5854650969
20
-20.2104854284
11
-9.6185544270
21
-20.1693093979
62
2
0
LINE
8
Setbacks
10
-9.6185544270
20
-20.1693093979
11
-9.6188383209
21
-20.1688946687
62
2
0
LINE
8
Setbacks
10
-9.6188383209
20
-20.1688946687
11
-9.6591096476
21
-20.0991423699
62
2
0
LINE
8
Setbacks
10
-9.6591096476
20
-20.0991423699
11
-9.6593302766
21
-20.0986803183
62
2
0
LINE
8
Setbacks
10
-9.6593302766
20
-20.0986803183
11
-9.6774900545
21
-20.0514929505
62
2
0
LINE
8
Setbacks
10
-9.6774900545
20
-20.0514929505
11
-9.7006021129
21
-20.0061520242
62
2
0
LINE
8
Setbacks
10
-9.7006021129
20
-20.0061520242
11
-9.7007993813
21
-20.0056758898
62
2
0
LINE
8
Setbacks
10
-9.7007993813
20
-20.0056758898
11
-9.7256884898
21
-19.9290748374
62
2
0
LINE
8
Setbacks
10
-9.7256884898
20
-19.9290748374
11
-9.7258103054
21
-19.9285638197
62
2
0
LINE
8
Setbacks
10
-9.7258103054
20
-19.9285638197
11
-9.7332709533
21
-19.8804585586
62
2
0
LINE
8
Setbacks
10
-9.7332709533
20
-19.8804585586
11
-9.7461461613
21
-19.8331849628
62
2
0
LINE
8
Setbacks
10
-9.7461461613
20
-19.8331849628
11
-9.7462434944
21
-19.8326657503
62
2
0
LINE
8
Setbacks
10
-9.7462434944
20
-19.8326657503
11
-9.7546624579
21
-19.7525637136
62
2
0
LINE
8
Setbacks
10
-9.7546624579
20
-19.7525637136
11
-9.7546746960
21
-19.7520268859
62
2
0
LINE
8
Setbacks
10
-9.7546746960
20
-19.7520268859
11
-9.7518857110
21
-19.7049166946
62
2
0
LINE
8
Setbacks
10
-9.7518857110
20
-19.7049166946
11
-9.7547188642
21
-19.6575673228
62
2
0
LINE
8
Setbacks
10
-9.7547188642
20
-19.6575673228
11
-9.7547067478
21
-19.6570284136
62
2
0
LINE
8
Setbacks
10
-9.7547067478
20
-19.6570284136
11
-9.7462874562
21
-19.5769263769
62
2
0
LINE
8
Setbacks
10
-9.7462874562
20
-19.5769263769
11
-9.7461857102
21
-19.5763911303
62
2
0
LINE
8
Setbacks
10
-9.7461857102
20
-19.5763911303
11
-9.7337947485
21
-19.5317891558
62
2
0
LINE
8
Setbacks
10
-9.7337947485
20
-19.5317891558
11
-9.7269689083
21
-19.4858767566
62
2
0
LINE
8
Setbacks
10
-9.7269689083
20
-19.4858767566
11
-9.7268440003
21
-19.4853453832
62
2
0
LINE
8
Setbacks
10
-9.7268440003
20
-19.4853453832
11
-9.7019548919
21
-19.4087446589
62
2
0
LINE
8
Setbacks
10
-9.7019548919
20
-19.4087446589
11
-9.7017427860
21
-19.4082397694
62
2
0
LINE
8
Setbacks
10
-9.7017427860
20
-19.4082397694
11
-9.6804144145
21
-19.3673987700
62
2
0
LINE
8
Setbacks
10
-9.6804144145
20
-19.3673987700
11
-9.6643382948
21
-19.3242335164
62
2
0
LINE
8
Setbacks
10
-9.6643382948
20
-19.3242335164
11
-9.6641050488
21
-19.3237381467
62
2
0
LINE
8
Setbacks
10
-9.6641050488
20
-19.3237381467
11
-9.6238333940
21
-19.2539858479
62
2
0
LINE
8
Setbacks
10
-9.6238333940
20
-19.2539858479
11
-9.6235226815
21
-19.2535381877
62
2
0
LINE
8
Setbacks
10
-9.6235226815
20
-19.2535381877
11
-9.5938898549
21
-19.2176257969
62
2
0
LINE
8
Setbacks
10
-9.5938898549
20
-19.2176257969
11
-9.5689571627
21
-19.1784799185
62
2
0
LINE
8
Setbacks
10
-9.5689571627
20
-19.1784799185
11
-9.5686280767
21
-19.1780470998
62
2
0
LINE
8
Setbacks
10
-9.5686280767
20
-19.1780470998
11
-9.5147340461
21
-19.1181917830
62
2
0
LINE
8
Setbacks
10
-9.5147340461
20
-19.1181917830
11
-9.5143430742
21
-19.1178233042
62
2
0
LINE
8
Setbacks
10
-9.5143430742
20
-19.1178233042
11
-9.4770745702
21
-19.0880647036
62
2
0
LINE
8
Setbacks
10
-9.4770745702
20
-19.0880647036
11
-9.4437419600
21
-19.0543180988
62
2
0
LINE
8
Setbacks
10
-9.4437419600
20
-19.0543180988
11
-9.4433362152
21
-19.0539693885
62
2
0
LINE
8
Setbacks
10
-9.4433362152
20
-19.0539693885
11
-9.3781754520
21
-19.0066271953
62
2
0
LINE
8
Setbacks
10
-9.3781754520
20
-19.0066271953
11
-9.3777265635
21
-19.0063531621
62
2
0
LINE
8
Setbacks
10
-9.3777265635
20
-19.0063531621
11
-9.3336927639
21
-18.9841046671
62
2
0
LINE
8
Setbacks
10
-9.3336927639
20
-18.9841046671
11
-9.2926528751
21
-18.9573089241
62
2
0
LINE
8
Setbacks
10
-9.2926528751
20
-18.9573089241
11
-9.2921936604
21
-18.9570588570
62
2
0
LINE
8
Setbacks
10
-9.2921936604
20
-18.9570588570
11
-9.2186139336
21
-18.9242990135
62
2
0
LINE
8
Setbacks
10
-9.2186139336
20
-18.9242990135
11
-9.2181305042
21
-18.9241276618
62
2
0
LINE
8
Setbacks
10
-9.2181305042
20
-18.9241276618
11
-9.1686224484
21
-18.9108307678
62
2
0
LINE
8
Setbacks
10
-9.1686224484
20
-18.9108307678
11
-9.1210375494
21
-18.8926529688
62
2
0
LINE
8
Setbacks
10
-9.1210375494
20
-18.8926529688
11
-9.1205488840
21
-18.8925086499
62
2
0
LINE
8
Setbacks
10
-9.1205488840
20
-18.8925086499
11
-9.0417660731
21
-18.8757629145
62
2
0
LINE
8
Setbacks
10
-9.0417660731
20
-18.8757629145
11
-9.0412701429
21
-18.8756965084
62
2
0
LINE
8
Setbacks
10
-9.0412701429
20
-18.8756965084
11
-8.9881927968
21
-18.8726794342
62
2
0
LINE
8
Setbacks
10
-8.9881927968
20
-18.8726794342
11
-8.9359098436
21
-18.8646859271
62
2
0
LINE
8
Setbacks
10
-8.9359098436
20
-18.8646859271
11
-8.9354139998
21
-18.8646482415
62
2
0
LINE
8
Setbacks
10
-8.9354139998
20
-18.8646482415
11
-8.8548710183
21
-18.8646482415
62
2
0
LINE
8
Setbacks
10
-8.8548710183
20
-18.8646482415
11
-8.8543819758
21
-18.8646848946
62
2
0
LINE
8
Setbacks
10
-8.8543819758
20
-18.8646848946
11
-8.8003249020
21
-18.8728336859
62
2
0
LINE
8
Setbacks
10
-8.8003249020
20
-18.8728336859
11
-8.7459358622
21
-18.8761266796
62
2
0
LINE
8
Setbacks
10
-8.7459358622
20
-18.8761266796
11
-8.7454520185
21
-18.8761923759
62
2
0
LINE
8
Setbacks
10
-8.7454520185
20
-18.8761923759
11
-8.6666688795
21
-18.8929381113
62
2
0
LINE
8
Setbacks
10
-8.6666688795
20
-18.8929381113
11
-8.6662034117
21
-18.8930736684
62
2
0
LINE
8
Setbacks
10
-8.6662034117
20
-18.8930736684
11
-8.6142679898
21
-18.9124648168
62
2
0
LINE
8
Setbacks
10
-8.6142679898
20
-18.9124648168
11
-8.5609098242
21
-18.9272999648
62
2
0
LINE
8
Setbacks
10
-8.5609098242
20
-18.9272999648
11
-8.5604542206
21
-18.9274637117
62
2
0
LINE
8
Setbacks
10
-8.5604542206
20
-18.9274637117
11
-8.4868744939
21
-18.9602235553
62
2
0
LINE
8
Setbacks
10
-8.4868744939
20
-18.9602235553
11
-8.4864476385
21
-18.9604527641
62
2
0
LINE
8
Setbacks
10
-8.4864476385
20
-18.9604527641
11
-8.4398082088
21
-18.9901298427
62
2
0
LINE
8
Setbacks
10
-8.4398082088
20
-18.9901298427
11
-8.3907103462
21
-19.0157040323
62
2
0
LINE
8
Setbacks
10
-8.3907103462
20
-19.0157040323
11
-8.3902975663
21
-19.0159595384
62
2
0
LINE
8
Setbacks
10
-8.3902975663
20
-19.0159595384
11
-8.3251368031
21
-19.0633014034
62
2
0
LINE
8
Setbacks
10
-8.3251368031
20
-19.0633014034
11
-8.3247632349
21
-19.0636179836
62
2
0
LINE
8
Setbacks
10
-8.3247632349
20
-19.0636179836
11
-8.2861198753
21
-19.1016714157
62
2
0
LINE
8
Setbacks
10
-8.2861198753
20
-19.1016714157
11
-8.2440612039
21
-19.1362183363
62
2
0
LINE
8
Setbacks
10
-8.2440612039
20
-19.1362183363
11
-8.2437055045
21
-19.1365582467
62
2
0
LINE
8
Setbacks
10
-8.2437055045
20
-19.1365582467
11
-8.1898114739
21
-19.1964132355
62
2
0
LINE
8
Setbacks
10
-8.1898114739
20
-19.1964132355
11
-8.1895065213
21
-19.1968087213
62
2
0
LINE
8
Setbacks
10
-8.1895065213
20
-19.1968087213
11
-8.1606854054
21
-19.2407343380
62
2
0
LINE
8
Setbacks
10
-8.1606854054
20
-19.2407343380
11
-8.1275960752
21
-19.2819103684
62
2
0
LINE
8
Setbacks
10
-8.1275960752
20
-19.2819103684
11
-8.1273121814
21
-19.2823250977
62
2
0
LINE
8
Setbacks
10
-8.1273121814
20
-19.2823250977
11
-8.0870408546
21
-19.3520773965
62
2
0
LINE
8
Setbacks
10
-8.0870408546
20
-19.3520773965
11
-8.0868202257
21
-19.3525394481
62
2
0
LINE
8
Setbacks
10
-8.0868202257
20
-19.3525394481
11
-8.0686604478
21
-19.3997268158
62
2
0
LINE
8
Setbacks
10
-8.0686604478
20
-19.3997268158
11
-8.0455483894
21
-19.4450677422
62
2
0
LINE
8
Setbacks
10
-8.0455483894
20
-19.4450677422
11
-8.0453511209
21
-19.4455438766
62
2
0
LINE
8
Setbacks
10
-8.0453511209
20
-19.4455438766
11
-8.0204620125
21
-19.5221449289
62
2
0
LINE
8
Setbacks
10
-8.0204620125
20
-19.5221449289
11
-8.0203401968
21
-19.5226559467
62
2
0
LINE
8
Setbacks
10
-8.0203401968
20
-19.5226559467
11
-8.0128795490
21
-19.5707612078
62
2
0
LINE
8
Setbacks
10
-8.0128795490
20
-19.5707612078
11
-8.0000043410
21
-19.6180348036
62
2
0
LINE
8
Setbacks
10
-8.0000043410
20
-19.6180348036
11
-7.9999070079
21
-19.6185540161
62
2
0
LINE
8
Setbacks
10
-7.9999070079
20
-19.6185540161
11
-7.9914880444
21
-19.6986560528
62
2
0
LINE
8
Setbacks
10
-7.9914880444
20
-19.6986560528
11
-7.9914758063
21
-19.6991928805
62
2
0
LINE
8
Setbacks
10
-7.9914758063
20
-19.6991928805
11
-7.9942647913
21
-19.7463030718
62
2
0
LINE
8
Setbacks
10
-7.9942647913
20
-19.7463030718
11
-7.9914316380
21
-19.7936524436
62
2
0
LINE
8
Setbacks
10
-7.9914316380
20
-19.7936524436
11
-7.9914437530
21
-19.7941913396
62
2
0
LINE
8
Setbacks
10
-7.9914437530
20
-19.7941913396
11
-7.9998627165
21
-19.8742933763
62
2
0
LINE
8
Setbacks
10
-7.9998627165
20
-19.8742933763
11
-7.9999644659
21
-19.8748286433
62
2
0
LINE
8
Setbacks
10
-7.9999644659
20
-19.8748286433
11
-8.0123560825
21
-19.9194325832
62
2
0
LINE
8
Setbacks
10
-8.0123560825
20
-19.9194325832
11
-8.0191815941
21
-19.9653426827
62
2
0
LINE
8
Setbacks
10
-8.0191815941
20
-19.9653426827
11
-8.0193065007
21
-19.9658740512
62
2
0
LINE
8
Setbacks
10
-8.0193065007
20
-19.9658740512
11
-8.0441956091
21
-20.0424751035
62
2
0
LINE
8
Setbacks
10
-8.0441956091
20
-20.0424751035
11
-8.0444077162
21
-20.0429799969
62
2
0
LINE
8
Setbacks
10
-8.0444077162
20
-20.0429799969
11
-8.0657360877
21
-20.0838209964
62
2
0
LINE
8
Setbacks
10
-8.0657360877
20
-20.0838209964
11
-8.0818122074
21
-20.1269862500
62
2
0
LINE
8
Setbacks
10
-8.0818122074
20
-20.1269862500
11
-8.0820454535
21
-20.1274816197
62
2
0
LINE
8
Setbacks
10
-8.0820454535
20
-20.1274816197
11
-8.1223171083
21
-20.1972339185
62
2
0
LINE
8
Setbacks
10
-8.1223171083
20
-20.1972339185
11
-8.1226278168
21
-20.1976815739
62
2
0
LINE
8
Setbacks
10
-8.1226278168
20
-20.1976815739
11
-8.1522599940
21
-20.2335933161
62
2
0
LINE
8
Setbacks
10
-8.1522599940
20
-20.2335933161
11
-8.1771933472
21
-20.2727398598
62
2
0
LINE
8
Setbacks
10
-8.1771933472
20
-20.2727398598
11
-8.1775224249
21
-20.2731726658
62
2
0
LINE
8
Setbacks
10
-8.1775224249
20
-20.2731726658
11
-8.2314161274
21
-20.3330276546
62
2
0
LINE
8
Setbacks
10
-8.2314161274
20
-20.3330276546
11
-8.2318071000
21
-20.3333961340
62
2
0
LINE
8
Setbacks
10
-8.2318071000
20
-20.3333961340
11
-8.2690756040
21
-20.3631547347
62
2
0
LINE
8
Setbacks
10
-8.2690756040
20
-20.3631547347
11
-8.3024085424
21
-20.3969016677
62
2
0
LINE
8
Setbacks
10
-8.3024085424
20
-20.3969016677
11
-8.3028142871
21
-20.3972503779
62
2
0
LINE
8
Setbacks
10
-8.3028142871
20
-20.3972503779
11
-8.3679750503
21
-20.4445925710
62
2
0
LINE
8
Setbacks
10
-8.3679750503
20
-20.4445925710
11
-8.3684239387
21
-20.4448666043
62
2
0
LINE
8
Setbacks
10
-8.3684239387
20
-20.4448666043
11
-8.4124577383
21
-20.4671150992
62
2
0
LINE
8
Setbacks
10
-8.4124577383
20
-20.4671150992
11
-8.4534976271
21
-20.4939108423
62
2
0
LINE
8
Setbacks
10
-8.4534976271
20
-20.4939108423
11
-8.4539568419
21
-20.4941609094
62
2
0
LINE
8
Setbacks
10
-8.4539568419
20
-20.4941609094
11
-8.5275365687
21
-20.5269207529
62
2
0
LINE
8
Setbacks
10
-8.5275365687
20
-20.5269207529
11
-8.5280199980
21
-20.5270921046
62
2
0
LINE
8
Setbacks
10
-8.5280199980
20
-20.5270921046
11
-8.5775280539
21
-20.5403889986
62
2
0
LINE
8
Setbacks
10
-8.5775280539
20
-20.5403889986
11
-8.6251129529
21
-20.5585667975
62
2
0
LINE
8
Setbacks
10
-8.6251129529
20
-20.5585667975
11
-8.6256016183
21
-20.5587111164
62
2
0
LINE
8
Setbacks
10
-8.6256016183
20
-20.5587111164
11
-8.7043844292
21
-20.5754568519
62
2
0
LINE
8
Setbacks
10
-8.7043844292
20
-20.5754568519
11
-8.7048803594
21
-20.5755232580
62
2
0
LINE
8
Setbacks
10
-8.7048803594
20
-20.5755232580
11
-8.7579577054
21
-20.5785403322
62
2
0
LINE
8
Setbacks
10
-22.2315672485
20
-18.5269120570
11
-18.0070007357
21
-8.6376323713
62
2
0
LINE
8
Setbacks
10
-18.0070007357
20
-8.6376323713
11
-27.5455115031
21
-4.5629100822
62
2
0
LINE
8
Setbacks
10
-27.5455115031
20
-4.5629100822
11
-31.7700776462
21
-14.4521896680
62
2
0
LINE
8
Setbacks
10
-25.6928063516
20
-9.8484389517
11
-25.7450460800
21
-9.8564297848
62
2
0
LINE
8
Setbacks
10
-25.7450460800
20
-9.8564297848
11
-25.7455421624
21
-9.8564675070
62
2
0
LINE
8
Setbacks
10
-25.7455421624
20
-9.8564675070
11
-25.8260851440
21
-9.8564675070
62
2
0
LINE
8
Setbacks
10
-25.8260851440
20
-9.8564675070
11
-25.8265743673
21
-9.8564308266
62
2
0
LINE
8
Setbacks
10
-25.8265743673
20
-9.8564308266
11
-25.8806020710
21
-9.8482833816
62
2
0
LINE
8
Setbacks
10
-25.8806020710
20
-9.8482833816
11
-25.9349656744
21
-9.8449946562
62
2
0
LINE
8
Setbacks
10
-25.9349656744
20
-9.8449946562
11
-25.9354496946
21
-9.8449289473
62
2
0
LINE
8
Setbacks
10
-25.9354496946
20
-9.8449289473
11
-26.0142328336
21
-9.8281828838
62
2
0
LINE
8
Setbacks
10
-26.0142328336
20
-9.8281828838
11
-26.0146983516
21
-9.8280473059
62
2
0
LINE
8
Setbacks
10
-26.0146983516
20
-9.8280473059
11
-26.0666251973
21
-9.8086581463
62
2
0
LINE
8
Setbacks
10
-26.0666251973
20
-9.8086581463
11
-26.1199747839
21
-9.7938259631
62
2
0
LINE
8
Setbacks
10
-26.1199747839
20
-9.7938259631
11
-26.1204304193
21
-9.7936622074
62
2
0
LINE
8
Setbacks
10
-26.1204304193
20
-9.7936622074
11
-26.1940101461
21
-9.7609023638
62
2
0
LINE
8
Setbacks
10
-26.1940101461
20
-9.7609023638
11
-26.1944369575
21
-9.7606731830
62
2
0
LINE
8
Setbacks
10
-26.1944369575
20
-9.7606731830
11
-26.2410889114
21
-9.7309891757
62
2
0
LINE
8
Setbacks
10
-26.2410889114
20
-9.7309891757
11
-26.2901950390
21
-9.7054090519
62
2
0
LINE
8
Setbacks
10
-26.2901950390
20
-9.7054090519
11
-26.2906077429
21
-9.7051535854
62
2
0
LINE
8
Setbacks
10
-26.2906077429
20
-9.7051535854
11
-26.3557685062
21
-9.6578117204
62
2
0
LINE
8
Setbacks
10
-26.3557685062
20
-9.6578117204
11
-26.3561419441
21
-9.6574952684
62
2
0
LINE
8
Setbacks
10
-26.3561419441
20
-9.6574952684
11
-26.3948077444
21
-9.6194239792
62
2
0
LINE
8
Setbacks
10
-26.3948077444
20
-9.6194239792
11
-26.4368888795
21
-9.5848543060
62
2
0
LINE
8
Setbacks
10
-26.4368888795
20
-9.5848543060
11
-26.4372444368
21
-9.5845145087
62
2
0
LINE
8
Setbacks
10
-26.4372444368
20
-9.5845145087
11
-26.4911381393
21
-9.5246591919
62
2
0
LINE
8
Setbacks
10
-26.4911381393
20
-9.5246591919
11
-26.4914429387
21
-9.5242639343
62
2
0
LINE
8
Setbacks
10
-26.4914429387
20
-9.5242639343
11
-26.5202897766
21
-9.4803065988
62
2
0
LINE
8
Setbacks
10
-26.5202897766
20
-9.4803065988
11
-26.5534015880
21
-9.4390959260
62
2
0
LINE
8
Setbacks
10
-26.5534015880
20
-9.4390959260
11
-26.5536853195
21
-9.4386813988
62
2
0
LINE
8
Setbacks
10
-26.5536853195
20
-9.4386813988
11
-26.5939566462
21
-9.3689291000
62
2
0
LINE
8
Setbacks
10
-26.5939566462
20
-9.3689291000
11
-26.5941771715
21
-9.3684673178
62
2
0
LINE
8
Setbacks
10
-26.5941771715
20
-9.3684673178
11
-26.6123567238
21
-9.3212409622
62
2
0
LINE
8
Setbacks
10
-26.6123567238
20
-9.3212409622
11
-26.6354846742
21
-9.2758591038
62
2
0
LINE
8
Setbacks
10
-26.6354846742
20
-9.2758591038
11
-26.6356818130
21
-9.2753832236
62
2
0
LINE
8
Setbacks
10
-26.6356818130
20
-9.2753832236
11
-26.6605709214
21
-9.1987821712
62
2
0
LINE
8
Setbacks
10
-26.6605709214
20
-9.1987821712
11
-26.6606926965
21
-9.1982714149
62
2
0
LINE
8
Setbacks
10
-26.6606926965
20
-9.1982714149
11
-26.6681632122
21
-9.1501281647
62
2
0
LINE
8
Setbacks
10
-26.6681632122
20
-9.1501281647
11
-26.6810447359
21
-9.1028169201
62
2
0
LINE
8
Setbacks
10
-26.6810447359
20
-9.1028169201
11
-26.6811420020
21
-9.1022979542
62
2
0
LINE
8
Setbacks
10
-26.6811420020
20
-9.1022979542
11
-26.6895609655
21
-9.0221962456
62
2
0
LINE
8
Setbacks
10
-26.6895609655
20
-9.0221962456
11
-26.6895732172
21
-9.0216596435
62
2
0
LINE
8
Setbacks
10
-26.6895732172
20
-9.0216596435
11
-26.6867858463
21
-8.9745213487
62
2
0
LINE
8
Setbacks
10
-26.6867858463
20
-8.9745213487
11
-26.6896177124
21
-8.9271435452
62
2
0
LINE
8
Setbacks
10
-26.6896177124
20
-8.9271435452
11
-26.6896055850
21
-8.9266048537
62
2
0
LINE
8
Setbacks
10
-26.6896055850
20
-8.9266048537
11
-26.6811866214
21
-8.8465031451
62
2
0
LINE
8
Setbacks
10
-26.6811866214
20
-8.8465031451
11
-26.6810849090
21
-8.8459680120
62
2
0
LINE
8
Setbacks
10
-26.6810849090
20
-8.8459680120
11
-26.6686922684
21
-8.8013531339
62
2
0
LINE
8
Setbacks
10
-26.6686922684
20
-8.8013531339
11
-26.6618628084
21
-8.7554258565
62
2
0
LINE
8
Setbacks
10
-26.6618628084
20
-8.7554258565
11
-26.6617379123
21
-8.7548945723
62
2
0
LINE
8
Setbacks
10
-26.6617379123
20
-8.7548945723
11
-26.6368484758
21
-8.6782935200
62
2
0
LINE
8
Setbacks
10
-26.6368484758
20
-8.6782935200
11
-26.6366363704
21
-8.6777886346
62
2
0
LINE
8
Setbacks
10
-26.6366363704
20
-8.6777886346
11
-26.6153096464
21
-8.6369509287
62
2
0
LINE
8
Setbacks
10
-26.6153096464
20
-8.6369509287
11
-26.5992335303
21
-8.5937847050
62
2
0
LINE
8
Setbacks
10
-26.5992335303
20
-8.5937847050
11
-26.5990002791
21
-8.5932893183
62
2
0
LINE
8
Setbacks
10
-26.5990002791
20
-8.5932893183
11
-26.5587286243
21
-8.5235366914
62
2
0
LINE
8
Setbacks
10
-26.5587286243
20
-8.5235366914
11
-26.5584178352
21
-8.5230889366
62
2
0
LINE
8
Setbacks
10
-26.5584178352
20
-8.5230889366
11
-26.5287946076
21
-8.4871907448
62
2
0
LINE
8
Setbacks
10
-26.5287946076
20
-8.4871907448
11
-26.5038721458
21
-8.4480574427
62
2
0
LINE
8
Setbacks
10
-26.5038721458
20
-8.4480574427
11
-26.5035429894
21
-8.4476245131
62
2
0
LINE
8
Setbacks
10
-26.5035429894
20
-8.4476245131
11
-26.4496492868
21
-8.3877695243
62
2
0
LINE
8
Setbacks
10
-26.4496492868
20
-8.3877695243
11
-26.4492581508
21
-8.3874009143
62
2
0
LINE
8
Setbacks
10
-26.4492581508
20
-8.3874009143
11
-26.4120124667
21
-8.3576644250
62
2
0
LINE
8
Setbacks
10
-26.4120124667
20
-8.3576644250
11
-26.3787019851
21
-8.3239353772
62
2
0
LINE
8
Setbacks
10
-26.3787019851
20
-8.3239353772
11
-26.3782960660
21
-8.3235864928
62
2
0
LINE
8
Setbacks
10
-26.3782960660
20
-8.3235864928
11
-26.3131353027
21
-8.2762446278
62
2
0
LINE
8
Setbacks
10
-26.3131353027
20
-8.2762446278
11
-26.3126861727
21
-8.2759704744
62
2
0
LINE
8
Setbacks
10
-26.3126861727
20
-8.2759704744
11
-26.2686874131
21
-8.2537444047
62
2
0
LINE
8
Setbacks
10
-26.2686874131
20
-8.2537444047
11
-26.2276818764
21
-8.2269658924
62
2
0
LINE
8
Setbacks
10
-26.2276818764
20
-8.2269658924
11
-26.2272224175
21
-8.2267156659
62
2
0
LINE
8
Setbacks
10
-26.2272224175
20
-8.2267156659
11
-26.1536426907
21
-8.1939558223
62
2
0
LINE
8
Setbacks
10
-26.1536426907
20
-8.1939558223
11
-26.1531589833
21
-8.1937843960
62
2
0
LINE
8
Setbacks
10
-26.1531589833
20
-8.1937843960
11
-26.1036912367
21
-8.1805029826
62
2
0
LINE
8
Setbacks
10
-26.1036912367
20
-8.1805029826
11
-26.0561492534
21
-8.1623367836
62
2
0
LINE
8
Setbacks
10
-26.0561492534
20
-8.1623367836
11
-26.0556603183
21
-8.1621923617
62
2
0
LINE
8
Setbacks
10
-26.0556603183
20
-8.1621923617
11
-25.9768775074
21
-8.1454466262
62
2
0
LINE
8
Setbacks
10
-25.9768775074
20
-8.1454466262
11
-25.9763813274
21
-8.1453802060
62
2
0
LINE
8
Setbacks
10
-25.9763813274
20
-8.1453802060
11
-25.9233422850
21
-8.1423693674
62
2
0
LINE
8
Setbacks
10
-25.9233422850
20
-8.1423693674
11
-25.8711002554
21
-8.1343782053
62
2
0
LINE
8
Setbacks
10
-25.8711002554
20
-8.1343782053
11
-25.8706041743
21
-8.1343404834
62
2
0
LINE
8
Setbacks
10
-25.8706041743
20
-8.1343404834
11
-25.7900611927
21
-8.1343404834
62
2
0
LINE
8
Setbacks
10
-25.7900611927
20
-8.1343404834
11
-25.7895719705
21
-8.1343771636
62
2
0
LINE
8
Setbacks
10
-25.7895719705
20
-8.1343771636
11
-25.7355419656
21
-8.1425249374
62
2
0
LINE
8
Setbacks
10
-25.7355419656
20
-8.1425249374
11
-25.6811806541
21
-8.1458136628
62
2
0
LINE
8
Setbacks
10
-25.6811806541
20
-8.1458136628
11
-25.6806966522
21
-8.1458793690
62
2
0
LINE
8
Setbacks
10
-25.6806966522
20
-8.1458793690
11
-25.6019138413
21
-8.1626251045
62
2
0
LINE
8
Setbacks
10
-25.6019138413
20
-8.1626251045
11
-25.6014483239
21
-8.1627606806
62
2
0
LINE
8
Setbacks
10
-25.6014483239
20
-8.1627606806
11
-25.5495217973
21
-8.1821495160
62
2
0
LINE
8
Setbacks
10
-25.5495217973
20
-8.1821495160
11
-25.4961715449
21
-8.1969820295
62
2
0
LINE
8
Setbacks
10
-25.4961715449
20
-8.1969820295
11
-25.4957159174
21
-8.1971457830
62
2
0
LINE
8
Setbacks
10
-25.4957159174
20
-8.1971457830
11
-25.4221361907
21
-8.2299056266
62
2
0
LINE
8
Setbacks
10
-25.4221361907
20
-8.2299056266
11
-25.4217093793
21
-8.2301348074
62
2
0
LINE
8
Setbacks
10
-25.4217093793
20
-8.2301348074
11
-25.3750574254
21
-8.2598188148
62
2
0
LINE
8
Setbacks
10
-25.3750574254
20
-8.2598188148
11
-25.3259512977
21
-8.2853989385
62
2
0
LINE
8
Setbacks
10
-25.3259512977
20
-8.2853989385
11
-25.3255385851
21
-8.2856544113
62
2
0
LINE
8
Setbacks
10
-25.3255385851
20
-8.2856544113
11
-25.2603778218
21
-8.3329966044
62
2
0
LINE
8
Setbacks
10
-25.2603778218
20
-8.3329966044
11
-25.2600043932
21
-8.3333130495
62
2
0
LINE
8
Setbacks
10
-25.2600043932
20
-8.3333130495
11
-25.2213399065
21
-8.3713830251
62
2
0
LINE
8
Setbacks
10
-25.2213399065
20
-8.3713830251
11
-25.1792574607
21
-8.4059536816
62
2
0
LINE
8
Setbacks
10
-25.1792574607
20
-8.4059536816
11
-25.1789019000
21
-8.4062934817
62
2
0
LINE
8
Setbacks
10
-25.1789019000
20
-8.4062934817
11
-25.1250081975
21
-8.4661487986
62
2
0
LINE
8
Setbacks
10
-25.1250081975
20
-8.4661487986
11
-25.1247033922
21
-8.4665440651
62
2
0
LINE
8
Setbacks
10
-25.1247033922
20
-8.4665440651
11
-25.0958559024
21
-8.5105027054
62
2
0
LINE
8
Setbacks
10
-25.0958559024
20
-8.5105027054
11
-25.0627447528
21
-8.5517123874
62
2
0
LINE
8
Setbacks
10
-25.0627447528
20
-8.5517123874
11
-25.0624610173
21
-8.5521269196
62
2
0
LINE
8
Setbacks
10
-25.0624610173
20
-8.5521269196
11
-25.0221896905
21
-8.6218792185
62
2
0
LINE
8
Setbacks
10
-25.0221896905
20
-8.6218792185
11
-25.0219691680
21
-8.6223409936
62
2
0
LINE
8
Setbacks
10
-25.0219691680
20
-8.6223409936
11
-25.0037896147
21
-8.6695670248
62
2
0
LINE
8
Setbacks
10
-25.0037896147
20
-8.6695670248
11
-24.9806616626
21
-8.7149488866
62
2
0
LINE
8
Setbacks
10
-24.9806616626
20
-8.7149488866
11
-24.9804645237
21
-8.7154247669
62
2
0
LINE
8
Setbacks
10
-24.9804645237
20
-8.7154247669
11
-24.9555754153
21
-8.7920258192
62
2
0
LINE
8
Setbacks
10
-24.9555754153
20
-8.7920258192
11
-24.9554536402
21
-8.7925365755
62
2
0
LINE
8
Setbacks
10
-24.9554536402
20
-8.7925365755
11
-24.9479831246
21
-8.8406798257
62
2
0
LINE
8
Setbacks
10
-24.9479831246
20
-8.8406798257
11
-24.9351016009
21
-8.8879910704
62
2
0
LINE
8
Setbacks
10
-24.9351016009
20
-8.8879910704
11
-24.9350043347
21
-8.8885100362
62
2
0
LINE
8
Setbacks
10
-24.9350043347
20
-8.8885100362
11
-24.9265853712
21
-8.9686117448
62
2
0
LINE
8
Setbacks
10
-24.9265853712
20
-8.9686117448
11
-24.9265731195
21
-8.9691483469
62
2
0
LINE
8
Setbacks
10
-24.9265731195
20
-8.9691483469
11
-24.9293604905
21
-9.0162866417
62
2
0
LINE
8
Setbacks
10
-24.9293604905
20
-9.0162866417
11
-24.9265286243
21
-9.0636644452
62
2
0
LINE
8
Setbacks
10
-24.9265286243
20
-9.0636644452
11
-24.9265407516
21
-9.0642031353
62
2
0
LINE
8
Setbacks
10
-24.9265407516
20
-9.0642031353
11
-24.9349597152
21
-9.1443051720
62
2
0
LINE
8
Setbacks
10
-24.9349597152
20
-9.1443051720
11
-24.9350614314
21
-9.1448403196
62
2
0
LINE
8
Setbacks
10
-24.9350614314
20
-9.1448403196
11
-24.9474547247
21
-9.1894568290
62
2
0
LINE
8
Setbacks
10
-24.9474547247
20
-9.1894568290
11
-24.9542838556
21
-9.2353824562
62
2
0
LINE
8
Setbacks
10
-24.9542838556
20
-9.2353824562
11
-24.9544087499
21
-9.2359137380
62
2
0
LINE
8
Setbacks
10
-24.9544087499
20
-9.2359137380
11
-24.9792978583
21
-9.3125144623
62
2
0
LINE
8
Setbacks
10
-24.9792978583
20
-9.3125144623
11
-24.9795099618
21
-9.3130193471
62
2
0
LINE
8
Setbacks
10
-24.9795099618
20
-9.3130193471
11
-25.0008363619
21
-9.3538567315
62
2
0
LINE
8
Setbacks
10
-25.0008363619
20
-9.3538567315
11
-25.0169128084
21
-9.3970236187
62
2
0
LINE
8
Setbacks
10
-25.0169128084
20
-9.3970236187
11
-25.0171460610
21
-9.3975190060
62
2
0
LINE
8
Setbacks
10
-25.0171460610
20
-9.3975190060
11
-25.0574177158
21
-9.4672713048
62
2
0
LINE
8
Setbacks
10
-25.0574177158
20
-9.4672713048
11
-25.0577285016
21
-9.4677190538
62
2
0
LINE
8
Setbacks
10
-25.0577285016
20
-9.4677190538
11
-25.0873517292
21
-9.5036172456
62
2
0
LINE
8
Setbacks
10
-25.0873517292
20
-9.5036172456
11
-25.1122741909
21
-9.5427505477
62
2
0
LINE
8
Setbacks
10
-25.1122741909
20
-9.5427505477
11
-25.1126033414
21
-9.5431834707
62
2
0
LINE
8
Setbacks
10
-25.1126033414
20
-9.5431834707
11
-25.1664970439
21
-9.6030387875
62
2
0
LINE
8
Setbacks
10
-25.1664970439
20
-9.6030387875
11
-25.1668881887
21
-9.6034074063
62
2
0
LINE
8
Setbacks
10
-25.1668881887
20
-9.6034074063
11
-25.2041351832
21
-9.6331448787
62
2
0
LINE
8
Setbacks
10
-25.2041351832
20
-9.6331448787
11
-25.2374443510
21
-9.6668726126
62
2
0
LINE
8
Setbacks
10
-25.2374443510
20
-9.6668726126
11
-25.2378502620
21
-9.6672214912
62
2
0
LINE
8
Setbacks
10
-25.2378502620
20
-9.6672214912
11
-25.3030110253
21
-9.7145636844
62
2
0
LINE
8
Setbacks
10
-25.3030110253
20
-9.7145636844
11
-25.3034601731
21
-9.7148378487
62
2
0
LINE
8
Setbacks
10
-25.3034601731
20
-9.7148378487
11
-25.3474605662
21
-9.7370645717
62
2
0
LINE
8
Setbacks
10
-25.3474605662
20
-9.7370645717
11
-25.3884644563
21
-9.7638420954
62
2
0
LINE
8
Setbacks
10
-25.3884644563
20
-9.7638420954
11
-25.3889239193
21
-9.7640923245
62
2
0
LINE
8
Setbacks
10
-25.3889239193
20
-9.7640923245
11
-25.4625036460
21
-9.7968521681
62
2
0
LINE
8
Setbacks
10
-25.4625036460
20
-9.7968521681
11
-25.4629873535
21
-9.7970235944
62
2
0
LINE
8
Setbacks
10
-25.4629873535
20
-9.7970235944
11
-25.5124551000
21
-9.8103050078
62
2
0
LINE
8
Setbacks
10
-25.5124551000
20
-9.8103050078
11
-25.5599970834
21
-9.8284712068
62
2
0
LINE
8
Setbacks
10
-25.5599970834
20
-9.8284712068
11
-25.5604860057
21
-9.8286156260
62
2
0
LINE
8
Setbacks
10
-25.5604860057
20
-9.8286156260
11
-25.6392688166
21
-9.8453616895
62
2
0
LINE
8
Setbacks
10
-25.6392688166
20
-9.8453616895
11
-25.6397650174
21
-9.8454281130
62
2
0
LINE
8
Setbacks
10
-25.6397650174
20
-9.8454281130
11
-25.6928063516
21
-9.8484389517
62
2
0
LINE
8
Setbacks
10
9.6755141977
20
-28.5670548715
11
17.9976577071
21
-9.3386829808
62
2
0
LINE
8
Setbacks
10
17.9976577071
20
-9.3386829808
11
8.9877782326
21
-5.5080836449
62
2
0
LINE
8
Setbacks
10
8.9877782326
20
-5.5080836449
11
5.0522497661
21
-14.7647654390
62
2
0
LINE
8
Setbacks
10
5.0522497661
20
-14.7647654390
11
5.0519943840
21
-14.7652494613
62
2
0
LINE
8
Setbacks
10
5.0519943840
20
-14.7652494613
11
4.5760672034
21
-15.5093951544
62
2
0
LINE
8
Setbacks
10
4.5760672034
20
-15.5093951544
11
4.5757392909
21
-15.5098251544
62
2
0
LINE
8
Setbacks
10
4.5757392909
20
-15.5098251544
11
4.5753451990
21
-15.5101954490
62
2
0
LINE
8
Setbacks
10
4.5753451990
20
-15.5101954490
11
3.8758425519
21
-16.0663969104
62
2
0
LINE
8
Setbacks
10
3.8758425519
20
-16.0663969104
11
3.8754075542
21
-16.0666893049
62
2
0
LINE
8
Setbacks
10
3.8754075542
20
-16.0666893049
11
3.8749315448
21
-16.0669086965
62
2
0
LINE
8
Setbacks
10
3.8749315448
20
-16.0669086965
11
3.6956079213
21
-16.1327565752
62
2
0
LINE
8
Setbacks
10
3.6956079213
20
-16.1327565752
11
0.1839509095
21
-24.4590548836
62
2
0
LINE
8
Setbacks
10
15.9941726692
20
-10.2575951451
11
15.9419722286
21
-10.2655839603
62
2
0
LINE
8
Setbacks
10
15.9419722286
20
-10.2655839603
11
15.9414759038
21
-10.2656217196
62
2
0
LINE
8
Setbacks
10
15.9414759038
20
-10.2656217196
11
15.8609329222
21
-10.2656217196
62
2
0
LINE
8
Setbacks
10
15.8609329222
20
-10.2656217196
11
15.8604435258
21
-10.2655850131
62
2
0
LINE
8
Setbacks
10
15.8604435258
20
-10.2655850131
11
15.8064399256
21
-10.2574382553
62
2
0
LINE
8
Setbacks
10
15.8064399256
20
-10.2574382553
11
15.7521092870
21
-10.2541537983
62
2
0
LINE
8
Setbacks
10
15.7521092870
20
-10.2541537983
11
15.7516251403
21
-10.2540880833
62
2
0
LINE
8
Setbacks
10
15.7516251403
20
-10.2540880833
11
15.6728423293
21
-10.2373423478
62
2
0
LINE
8
Setbacks
10
15.6728423293
20
-10.2373423478
11
15.6723767380
21
-10.2372067442
62
2
0
LINE
8
Setbacks
10
15.6723767380
20
-10.2372067442
11
15.6204558436
21
-10.2178185890
62
2
0
LINE
8
Setbacks
10
15.6204558436
20
-10.2178185890
11
15.5671184445
21
-10.2029903548
62
2
0
LINE
8
Setbacks
10
15.5671184445
20
-10.2029903548
11
15.5666627893
21
-10.2028265955
62
2
0
LINE
8
Setbacks
10
15.5666627893
20
-10.2028265955
11
15.4930830626
21
-10.1700670800
62
2
0
LINE
8
Setbacks
10
15.4930830626
20
-10.1700670800
11
15.4926562789
21
-10.1698379190
62
2
0
LINE
8
Setbacks
10
15.4926562789
20
-10.1698379190
11
15.4459914786
21
-10.1401466589
62
2
0
LINE
8
Setbacks
10
15.4459914786
20
-10.1401466589
11
15.3968774206
21
-10.1145609322
62
2
0
LINE
8
Setbacks
10
15.3968774206
20
-10.1145609322
11
15.3964647853
21
-10.1143055014
62
2
0
LINE
8
Setbacks
10
15.3964647853
20
-10.1143055014
11
15.3313040220
21
-10.0669636364
62
2
0
LINE
8
Setbacks
10
15.3313040220
20
-10.0669636364
11
15.3309307021
21
-10.0666473006
62
2
0
LINE
8
Setbacks
10
15.3309307021
20
-10.0666473006
11
15.2922382034
21
-10.0285535696
62
2
0
LINE
8
Setbacks
10
15.2922382034
20
-10.0285535696
11
15.2501388785
21
-9.9939647596
62
2
0
LINE
8
Setbacks
10
15.2501388785
20
-9.9939647596
11
15.2497834780
21
-9.9936250928
62
2
0
LINE
8
Setbacks
10
15.2497834780
20
-9.9936250928
11
15.1958897755
21
-9.9337701040
62
2
0
LINE
8
Setbacks
10
15.1958897755
20
-9.9337701040
11
15.1955851139
21
-9.9333750589
62
2
0
LINE
8
Setbacks
10
15.1955851139
20
-9.9333750589
11
15.1667115624
21
-9.8893846805
62
2
0
LINE
8
Setbacks
10
15.1667115624
20
-9.8893846805
11
15.1335769322
21
-9.8481383709
62
2
0
LINE
8
Setbacks
10
15.1335769322
20
-9.8481383709
11
15.1332933767
21
-9.8477240629
62
2
0
LINE
8
Setbacks
10
15.1332933767
20
-9.8477240629
11
15.0930220500
21
-9.7779717640
62
2
0
LINE
8
Setbacks
10
15.0930220500
20
-9.7779717640
11
15.0928016331
21
-9.7775102634
62
2
0
LINE
8
Setbacks
10
15.0928016331
20
-9.7775102634
11
15.0746013187
21
-9.7302429408
62
2
0
LINE
8
Setbacks
10
15.0746013187
20
-9.7302429408
11
15.0514574710
21
-9.6848198125
62
2
0
LINE
8
Setbacks
10
15.0514574710
20
-9.6848198125
11
15.0512604658
21
-9.6843441946
62
2
0
LINE
8
Setbacks
10
15.0512604658
20
-9.6843441946
11
15.0263713574
21
-9.6077431423
62
2
0
LINE
8
Setbacks
10
15.0263713574
20
-9.6077431423
11
15.0262496280
21
-9.6072326800
62
2
0
LINE
8
Setbacks
10
15.0262496280
20
-9.6072326800
11
15.0187685855
21
-9.5590504259
62
2
0
LINE
8
Setbacks
10
15.0187685855
20
-9.5590504259
11
15.0058807365
21
-9.5116998626
62
2
0
LINE
8
Setbacks
10
15.0058807365
20
-9.5116998626
11
15.0057835446
21
-9.5111811694
62
2
0
LINE
8
Setbacks
10
15.0057835446
20
-9.5111811694
11
14.9973645810
21
-9.4310794608
62
2
0
LINE
8
Setbacks
10
14.9973645810
20
-9.4310794608
11
14.9973523150
21
-9.4305431013
62
2
0
LINE
8
Setbacks
10
14.9973523150
20
-9.4305431013
11
15.0001377456
21
-9.3833783283
62
2
0
LINE
8
Setbacks
10
15.0001377456
20
-9.3833783283
11
14.9973071648
21
-9.3359684692
62
2
0
LINE
8
Setbacks
10
14.9973071648
20
-9.3359684692
11
14.9973193054
21
-9.3354299980
62
2
0
LINE
8
Setbacks
10
14.9973193054
20
-9.3354299980
11
15.0057382690
21
-9.2553282894
62
2
0
LINE
8
Setbacks
10
15.0057382690
20
-9.2553282894
11
15.0058399519
21
-9.2547932625
62
2
0
LINE
8
Setbacks
10
15.0058399519
20
-9.2547932625
11
15.0182349232
21
-9.2101641794
62
2
0
LINE
8
Setbacks
10
15.0182349232
20
-9.2101641794
11
15.0250680015
21
-9.1642217075
62
2
0
LINE
8
Setbacks
10
15.0250680015
20
-9.1642217075
11
15.0251928797
21
-9.1636905292
62
2
0
LINE
8
Setbacks
10
15.0251928797
20
-9.1636905292
11
15.0500819881
21
-9.0870894769
62
2
0
LINE
8
Setbacks
10
15.0500819881
20
-9.0870894769
11
15.0502940937
21
-9.0865845865
62
2
0
LINE
8
Setbacks
10
15.0502940937
20
-9.0865845865
11
15.0716198308
21
-9.0457485274
62
2
0
LINE
8
Setbacks
10
15.0716198308
20
-9.0457485274
11
15.0876956176
21
-9.0025823107
62
2
0
LINE
8
Setbacks
10
15.0876956176
20
-9.0025823107
11
15.0879288797
21
-9.0020868978
62
2
0
LINE
8
Setbacks
10
15.0879288797
20
-9.0020868978
11
15.1282005346
21
-8.9323345989
62
2
0
LINE
8
Setbacks
10
15.1282005346
20
-8.9323345989
11
15.1285113990
21
-8.9318867546
62
2
0
LINE
8
Setbacks
10
15.1285113990
20
-8.9318867546
11
15.1581243626
21
-8.8960037558
62
2
0
LINE
8
Setbacks
10
15.1581243626
20
-8.8960037558
11
15.1830369158
21
-8.8568820576
62
2
0
LINE
8
Setbacks
10
15.1830369158
20
-8.8568820576
11
15.1833661537
21
-8.8564490005
62
2
0
LINE
8
Setbacks
10
15.1833661537
20
-8.8564490005
11
15.2372601843
21
-8.7965936836
62
2
0
LINE
8
Setbacks
10
15.2372601843
20
-8.7965936836
11
15.2376514918
21
-8.7962249370
62
2
0
LINE
8
Setbacks
10
15.2376514918
20
-8.7962249370
11
15.2748733667
21
-8.7665115462
62
2
0
LINE
8
Setbacks
10
15.2748733667
20
-8.7665115462
11
15.3081613876
21
-8.7328003877
62
2
0
LINE
8
Setbacks
10
15.3081613876
20
-8.7328003877
11
15.3085674727
21
-8.7324513353
62
2
0
LINE
8
Setbacks
10
15.3085674727
20
-8.7324513353
11
15.3737282360
21
-8.6851094703
62
2
0
LINE
8
Setbacks
10
15.3737282360
20
-8.6851094703
11
15.3741776253
21
-8.6848351859
62
2
0
LINE
8
Setbacks
10
15.3741776253
20
-8.6848351859
11
15.4181410069
21
-8.6626318738
62
2
0
LINE
8
Setbacks
10
15.4181410069
20
-8.6626318738
11
15.4591108703
21
-8.6358712550
62
2
0
LINE
8
Setbacks
10
15.4591108703
20
-8.6358712550
11
15.4595705943
21
-8.6356208577
62
2
0
LINE
8
Setbacks
10
15.4595705943
20
-8.6356208577
11
15.5331503211
21
-8.6028613422
62
2
0
LINE
8
Setbacks
10
15.5331503211
20
-8.6028613422
11
15.5336343021
21
-8.6026898445
62
2
0
LINE
8
Setbacks
10
15.5336343021
20
-8.6026898445
11
15.5830584490
21
-8.5894248981
62
2
0
LINE
8
Setbacks
10
15.5830584490
20
-8.5894248981
11
15.6305578358
21
-8.5712699752
62
2
0
LINE
8
Setbacks
10
15.6305578358
20
-8.5712699752
11
15.6310470551
21
-8.5711254450
62
2
0
LINE
8
Setbacks
10
15.6310470551
20
-8.5711254450
11
15.7098301941
21
-8.5543797096
62
2
0
LINE
8
Setbacks
10
15.7098301941
20
-8.5543797096
11
15.7103266349
21
-8.5543132750
62
2
0
LINE
8
Setbacks
10
15.7103266349
20
-8.5543132750
11
15.7633253949
21
-8.5513090000
62
2
0
LINE
8
Setbacks
10
15.7633253949
20
-8.5513090000
11
15.8155258349
21
-8.5433201849
62
2
0
LINE
8
Setbacks
10
15.8155258349
20
-8.5433201849
11
15.8160221597
21
-8.5432824256
62
2
0
LINE
8
Setbacks
10
15.8160221597
20
-8.5432824256
11
15.8965651412
21
-8.5432824256
62
2
0
LINE
8
Setbacks
10
15.8965651412
20
-8.5432824256
11
15.8970545388
21
-8.5433191323
62
2
0
LINE
8
Setbacks
10
15.8970545388
20
-8.5433191323
11
15.9510558383
21
-8.5514655613
62
2
0
LINE
8
Setbacks
10
15.9510558383
20
-8.5514655613
11
16.0053884413
21
-8.5547500184
62
2
0
LINE
8
Setbacks
10
16.0053884413
20
-8.5547500184
11
16.0058726079
21
-8.5548157365
62
2
0
LINE
8
Setbacks
10
16.0058726079
20
-8.5548157365
11
16.0846554188
21
-8.5715618001
62
2
0
LINE
8
Setbacks
10
16.0846554188
20
-8.5715618001
11
16.0851209949
21
-8.5716974001
62
2
0
LINE
8
Setbacks
10
16.0851209949
20
-8.5716974001
11
16.1370376264
21
-8.5910839158
62
2
0
LINE
8
Setbacks
10
16.1370376264
20
-8.5910839158
11
16.1903796209
21
-8.6059134628
62
2
0
LINE
8
Setbacks
10
16.1903796209
20
-8.6059134628
11
16.1908352853
21
-8.6060772266
62
2
0
LINE
8
Setbacks
10
16.1908352853
20
-8.6060772266
11
16.2644150121
21
-8.6388370701
62
2
0
LINE
8
Setbacks
10
16.2644150121
20
-8.6388370701
11
16.2648417758
21
-8.6390662206
62
2
0
LINE
8
Setbacks
10
16.2648417758
20
-8.6390662206
11
16.3115069159
21
-8.6687574887
62
2
0
LINE
8
Setbacks
10
16.3115069159
20
-8.6687574887
11
16.3606203307
21
-8.6943432213
62
2
0
LINE
8
Setbacks
10
16.3606203307
20
-8.6943432213
11
16.3610329501
21
-8.6945986438
62
2
0
LINE
8
Setbacks
10
16.3610329501
20
-8.6945986438
11
16.4261937134
21
-8.7419405088
62
2
0
LINE
8
Setbacks
10
16.4261937134
20
-8.7419405088
11
16.4265670333
21
-8.7422568446
62
2
0
LINE
8
Setbacks
10
16.4265670333
20
-8.7422568446
11
16.4652595320
21
-8.7803505756
62
2
0
LINE
8
Setbacks
10
16.4652595320
20
-8.7803505756
11
16.5073588569
21
-8.8149393856
62
2
0
LINE
8
Setbacks
10
16.5073588569
20
-8.8149393856
11
16.5077142508
21
-8.8152790450
62
2
0
LINE
8
Setbacks
10
16.5077142508
20
-8.8152790450
11
16.5616082814
21
-8.8751340338
62
2
0
LINE
8
Setbacks
10
16.5616082814
20
-8.8751340338
11
16.5619129490
21
-8.8755290854
62
2
0
LINE
8
Setbacks
10
16.5619129490
20
-8.8755290854
11
16.5907878139
21
-8.9195214340
62
2
0
LINE
8
Setbacks
10
16.5907878139
20
-8.9195214340
11
16.6239208050
21
-8.9607657765
62
2
0
LINE
8
Setbacks
10
16.6239208050
20
-8.9607657765
11
16.6242043529
21
-8.9611800723
62
2
0
LINE
8
Setbacks
10
16.6242043529
20
-8.9611800723
11
16.6644760077
21
-9.0309323711
62
2
0
LINE
8
Setbacks
10
16.6644760077
20
-9.0309323711
11
16.6646964298
21
-9.0313938804
62
2
0
LINE
8
Setbacks
10
16.6646964298
20
-9.0313938804
11
16.6828974021
21
-9.0786628481
62
2
0
LINE
8
Setbacks
10
16.6828974021
20
-9.0786628481
11
16.7060402682
21
-9.1240843402
62
2
0
LINE
8
Setbacks
10
16.7060402682
20
-9.1240843402
11
16.7062372696
21
-9.1245599505
62
2
0
LINE
8
Setbacks
10
16.7062372696
20
-9.1245599505
11
16.7311263780
21
-9.2011610029
62
2
0
LINE
8
Setbacks
10
16.7311263780
20
-9.2011610029
11
16.7312481072
21
-9.2016714633
62
2
0
LINE
8
Setbacks
10
16.7312481072
20
-9.2016714633
11
16.7387288210
21
-9.2498514180
62
2
0
LINE
8
Setbacks
10
16.7387288210
20
-9.2498514180
11
16.7516173250
21
-9.2972039470
62
2
0
LINE
8
Setbacks
10
16.7516173250
20
-9.2972039470
11
16.7517145191
21
-9.2977226491
62
2
0
LINE
8
Setbacks
10
16.7517145191
20
-9.2977226491
11
16.7601334826
21
-9.3778246858
62
2
0
LINE
8
Setbacks
10
16.7601334826
20
-9.3778246858
11
16.7601457475
21
-9.3783610599
62
2
0
LINE
8
Setbacks
10
16.7601457475
20
-9.3783610599
11
16.7573599905
21
-9.4255274619
62
2
0
LINE
8
Setbacks
10
16.7573599905
20
-9.4255274619
11
16.7601905702
21
-9.4729356693
62
2
0
LINE
8
Setbacks
10
16.7601905702
20
-9.4729356693
11
16.7601784300
21
-9.4734741472
62
2
0
LINE
8
Setbacks
10
16.7601784300
20
-9.4734741472
11
16.7517594664
21
-9.5535758558
62
2
0
LINE
8
Setbacks
10
16.7517594664
20
-9.5535758558
11
16.7516577868
21
-9.5541108707
62
2
0
LINE
8
Setbacks
10
16.7516577868
20
-9.5541108707
11
16.7392628122
21
-9.5987406191
62
2
0
LINE
8
Setbacks
10
16.7392628122
20
-9.5987406191
11
16.7324297329
21
-9.6446824444
62
2
0
LINE
8
Setbacks
10
16.7324297329
20
-9.6446824444
11
16.7323048544
21
-9.6452136199
62
2
0
LINE
8
Setbacks
10
16.7323048544
20
-9.6452136199
11
16.7074157460
21
-9.7218143441
62
2
0
LINE
8
Setbacks
10
16.7074157460
20
-9.7218143441
11
16.7072036413
21
-9.7223192314
62
2
0
LINE
8
Setbacks
10
16.7072036413
20
-9.7223192314
11
16.6858782332
21
-9.7631546328
62
2
0
LINE
8
Setbacks
10
16.6858782332
20
-9.7631546328
11
16.6698021187
21
-9.8063218321
62
2
0
LINE
8
Setbacks
10
16.6698021187
20
-9.8063218321
11
16.6695688557
21
-9.8068172474
62
2
0
LINE
8
Setbacks
10
16.6695688557
20
-9.8068172474
11
16.6292972008
21
-9.8765695462
62
2
0
LINE
8
Setbacks
10
16.6292972008
20
-9.8765695462
11
16.6289863364
21
-9.8770173906
62
2
0
LINE
8
Setbacks
10
16.6289863364
20
-9.8770173906
11
16.5993733728
21
-9.9129003894
62
2
0
LINE
8
Setbacks
10
16.5993733728
20
-9.9129003894
11
16.5744608196
21
-9.9520220876
62
2
0
LINE
8
Setbacks
10
16.5744608196
20
-9.9520220876
11
16.5741315884
21
-9.9524551373
62
2
0
LINE
8
Setbacks
10
16.5741315884
20
-9.9524551373
11
16.5202378858
21
-10.0123104542
62
2
0
LINE
8
Setbacks
10
16.5202378858
20
-10.0123104542
11
16.5198465636
21
-10.0126792146
62
2
0
LINE
8
Setbacks
10
16.5198465636
20
-10.0126792146
11
16.4826223970
21
-10.0423942427
62
2
0
LINE
8
Setbacks
10
16.4826223970
20
-10.0423942427
11
16.4493363486
21
-10.0761034285
62
2
0
LINE
8
Setbacks
10
16.4493363486
20
-10.0761034285
11
16.4489302714
21
-10.0764524755
62
2
0
LINE
8
Setbacks
10
16.4489302714
20
-10.0764524755
11
16.3837695082
21
-10.1237946686
62
2
0
LINE
8
Setbacks
10
16.3837695082
20
-10.1237946686
11
16.3833201183
21
-10.1240689552
62
2
0
LINE
8
Setbacks
10
16.3833201183
20
-10.1240689552
11
16.3393550913
21
-10.1462732534
62
2
0
LINE
8
Setbacks
10
16.3393550913
20
-10.1462732534
11
16.2983871919
21
-10.1730325629
62
2
0
LINE
8
Setbacks
10
16.2983871919
20
-10.1730325629
11
16.2979274803
21
-10.1732829544
62
2
0
LINE
8
Setbacks
10
16.2979274803
20
-10.1732829544
11
16.2243477536
21
-10.2060427980
62
2
0
LINE
8
Setbacks
10
16.2243477536
20
-10.2060427980
11
16.2238637457
21
-10.2062143049
62
2
0
LINE
8
Setbacks
10
16.2238637457
20
-10.2062143049
11
16.1744386299
21
-10.2194792480
62
2
0
LINE
8
Setbacks
10
16.1744386299
20
-10.2194792480
11
16.1269399137
21
-10.2376341647
62
2
0
LINE
8
Setbacks
10
16.1269399137
20
-10.2376341647
11
16.1264506803
21
-10.2377787001
62
2
0
LINE
8
Setbacks
10
16.1264506803
20
-10.2377787001
11
16.0476675413
21
-10.2545244356
62
2
0
LINE
8
Setbacks
10
16.0476675413
20
-10.2545244356
11
16.0471711016
21
-10.2545908702
62
2
0
LINE
8
Setbacks
10
16.0471711016
20
-10.2545908702
11
15.9941726692
21
-10.2575951451
62
2
0
CIRCLE
8
Obstructions
10
-36.5573034239
20
12.0523074579
40
0.3852684978
62
252
0
CIRCLE
8
Obstructions
10
-29.9105209805
20
4.1708288239
40
0.3852684978
62
252
0
CIRCLE
8
Obstructions
10
-25.8080731709
20
-8.9954040243
40
0.3852684978
62
252
0
CIRCLE
8
Obstructions
10
-17.9737400490
20
14.3276370191
40
0.7323625611
62
252
0
CIRCLE
8
Obstructions
10
-16.1238453753
20
3.9590003878
40
0.7323625611
62
252
0
CIRCLE
8
Obstructions
10
-6.9093857851
20
-15.7373917729
40
0.3852684978
62
252
0
CIRCLE
8
Obstructions
10
-8.8730752406
20
-19.7256098756
40
0.3852684978
62
252
0
CIRCLE
8
Obstructions
10
5.4592317606
20
-9.9595886204
40
0.3852684978
62
252
0
CIRCLE
8
Obstructions
10
15.8787489247
20
-9.4044520352
40
0.3852684978
62
252
0
CIRCLE
8
Obstructions
10
5.2754094185
20
6.0444148011
40
0.7323625611
62
252
0
CIRCLE
8
Obstructions
10
-4.1870644438
20
0.6208764444
40
0.7323625611
62
252
0
CIRCLE
8
Obstructions
10
25.7613881362
20
4.0685668205
40
0.3852684978
62
252
0
ENDSEC
0
EOF