999
Design created by Aurora
0
SECTION
2
HEADER
9
$ACADVER
1
AC1009
9
$INSUNITS
70
2
0
ENDSEC
0
SECTION
2
TABLES
0
TABLE
2
LTYPE
100
AcDbLinetypeTableRecord
2
LTYPE
0
LTYPE
2
DASHED
70
0
3
dashed line
72
65
73
2
40
4.0
49
2.0
49
-2.0
0
ENDTAB
0
TABLE
2
LAYER
70
4
0
LAYER
100
AcDbSymbolTable
100
AcDbLayerTable
2
Setbacks
70
0
62
7
6
CONTINUOUS
0
LAYER
100
AcDbSymbolTable
100
AcDbLayerTable
2
Walkways
70
0
62
7
6
CONTINUOUS
0
LAYER
100
AcDbSymbolTable
100
AcDbLayerTable
2
Modules
70
0
62
7
6
CONTINUOUS
0
LAYER
100
AcDbSymbolTable
100
AcDbLayerTable
2
Buildings
70
0
62
7
6
CONTINUOUS
0
ENDTAB
0
ENDSEC
0
SECTION
2
ENTITIES
0
LINE
8
Modules
10
174.3292136013
20
91.1861877335
11
179.6416791985
21
90.8221359485
62
254
0
LINE
8
Modules
10
179.6416791985
20
90.8221359485
11
179.9157189639
21
94.8210907302
62
254
0
LINE
8
Modules
10
179.9157189639
20
94.8210907302
11
174.6032533667
21
95.1851425153
62
254
0
LINE
8
Modules
10
174.6032533667
20
95.1851425153
11
174.3292136013
21
91.1861877335
62
254
0
LINE
8
Modules
10
177.5035738685
20
92.5664559408
11
177.5596495737
21
93.3847468178
62
254
0
LINE
8
Modules
10
177.5596495737
20
93.3847468178
11
176.7413586967
21
93.4408225230
62
254
0
LINE
8
Modules
10
176.7413586967
20
93.4408225230
11
176.6852829915
21
92.6225316460
62
254
0
LINE
8
Modules
10
176.6852829915
20
92.6225316460
11
177.5035738685
21
92.5664559408
62
254
0
LINE
8
Modules
10
177.5035738685
20
92.5664559408
11
176.7413586967
21
93.4408225230
62
254
0
TEXT
8
Modules
100
AcDbText
10
176.9995980671
20
92.6503203306
1
DC
7
NewTextStyle_4
40
0.2624672000000003
50
86.0797729492149
0
TEXT
8
Modules
100
AcDbText
10
177.4769066980
20
92.8971368339
1
AC
7
NewTextStyle_4
40
0.2624672000000003
50
86.0797729492149
0
LINE
8
Modules
10
174.6059173935
20
95.1853624803
11
179.9183829907
21
94.8213106952
62
254
0
LINE
8
Modules
10
179.9183829907
20
94.8213106952
11
180.1924227561
21
98.8202654769
62
254
0
LINE
8
Modules
10
180.1924227561
20
98.8202654769
11
174.8799571589
21
99.1843172620
62
254
0
LINE
8
Modules
10
174.8799571589
20
99.1843172620
11
174.6059173935
21
95.1853624803
62
254
0
LINE
8
Modules
10
177.7802776607
20
96.5656306875
11
177.8363533659
21
97.3839215645
62
254
0
LINE
8
Modules
10
177.8363533659
20
97.3839215645
11
177.0180624888
21
97.4399972697
62
254
0
LINE
8
Modules
10
177.0180624888
20
97.4399972697
11
176.9619867837
21
96.6217063927
62
254
0
LINE
8
Modules
10
176.9619867837
20
96.6217063927
11
177.7802776607
21
96.5656306875
62
254
0
LINE
8
Modules
10
177.7802776607
20
96.5656306875
11
177.0180624888
21
97.4399972697
62
254
0
TEXT
8
Modules
100
AcDbText
10
177.2763018593
20
96.6494950774
1
DC
7
NewTextStyle_4
40
0.2624672000000003
50
86.0797729492149
0
TEXT
8
Modules
100
AcDbText
10
177.7536104901
20
96.8963115806
1
AC
7
NewTextStyle_4
40
0.2624672000000003
50
86.0797729492149
0
LINE
8
Modules
10
174.8797085160
20
99.1845372296
11
180.1921741132
21
98.8204854445
62
254
0
LINE
8
Modules
10
180.1921741132
20
98.8204854445
11
180.4662138785
21
102.8194402263
62
254
0
LINE
8
Modules
10
180.4662138785
20
102.8194402263
11
175.1537482814
21
103.1834920113
62
254
0
LINE
8
Modules
10
175.1537482814
20
103.1834920113
11
174.8797085160
21
99.1845372296
62
254
0
LINE
8
Modules
10
178.0540687832
20
100.5648054369
11
178.1101444883
21
101.3830963139
62
254
0
LINE
8
Modules
10
178.1101444883
20
101.3830963139
11
177.2918536113
21
101.4391720190
62
254
0
LINE
8
Modules
10
177.2918536113
20
101.4391720190
11
177.2357779062
21
100.6208811420
62
254
0
LINE
8
Modules
10
177.2357779062
20
100.6208811420
11
178.0540687832
21
100.5648054369
62
254
0
LINE
8
Modules
10
178.0540687832
20
100.5648054369
11
177.2918536113
21
101.4391720190
62
254
0
TEXT
8
Modules
100
AcDbText
10
177.5500929817
20
100.6486698267
1
DC
7
NewTextStyle_4
40
0.2624672000000003
50
86.0797729492149
0
TEXT
8
Modules
100
AcDbText
10
178.0274016126
20
100.8954863300
1
AC
7
NewTextStyle_4
40
0.2624672000000003
50
86.0797729492149
0
LINE
8
Modules
10
175.1534996343
20
103.1837119763
11
180.4659652315
21
102.8196601913
62
254
0
LINE
8
Modules
10
180.4659652315
20
102.8196601913
11
180.7400049969
21
106.8186149730
62
254
0
LINE
8
Modules
10
180.7400049969
20
106.8186149730
11
175.4275393997
21
107.1826667581
62
254
0
LINE
8
Modules
10
175.4275393997
20
107.1826667581
11
175.1534996343
21
103.1837119763
62
254
0
LINE
8
Modules
10
178.3278599015
20
104.5639801836
11
178.3839356067
21
105.3822710606
62
254
0
LINE
8
Modules
10
178.3839356067
20
105.3822710606
11
177.5656447297
21
105.4383467658
62
254
0
LINE
8
Modules
10
177.5656447297
20
105.4383467658
11
177.5095690245
21
104.6200558888
62
254
0
LINE
8
Modules
10
177.5095690245
20
104.6200558888
11
178.3278599015
21
104.5639801836
62
254
0
LINE
8
Modules
10
178.3278599015
20
104.5639801836
11
177.5656447297
21
105.4383467658
62
254
0
TEXT
8
Modules
100
AcDbText
10
177.8238841001
20
104.6478445734
1
DC
7
NewTextStyle_4
40
0.2624672000000003
50
86.0797729492149
0
TEXT
8
Modules
100
AcDbText
10
178.3011927310
20
104.8946610767
1
AC
7
NewTextStyle_4
40
0.2624672000000003
50
86.0797729492149
0
LINE
8
Modules
10
175.4272907568
20
107.1828867257
11
180.7397563540
21
106.8188349406
62
254
0
LINE
8
Modules
10
180.7397563540
20
106.8188349406
11
181.0137961194
21
110.8177897223
62
254
0
LINE
8
Modules
10
181.0137961194
20
110.8177897223
11
175.7013305222
21
111.1818415074
62
254
0
LINE
8
Modules
10
175.7013305222
20
111.1818415074
11
175.4272907568
21
107.1828867257
62
254
0
LINE
8
Modules
10
178.6016510240
20
108.5631549329
11
178.6577267292
21
109.3814458099
62
254
0
LINE
8
Modules
10
178.6577267292
20
109.3814458099
11
177.8394358522
21
109.4375215151
62
254
0
LINE
8
Modules
10
177.8394358522
20
109.4375215151
11
177.7833601470
21
108.6192306381
62
254
0
LINE
8
Modules
10
177.7833601470
20
108.6192306381
11
178.6016510240
21
108.5631549329
62
254
0
LINE
8
Modules
10
178.6016510240
20
108.5631549329
11
177.8394358522
21
109.4375215151
62
254
0
TEXT
8
Modules
100
AcDbText
10
178.0976752226
20
108.6470193227
1
DC
7
NewTextStyle_4
40
0.2624672000000003
50
86.0797729492149
0
TEXT
8
Modules
100
AcDbText
10
178.5749838535
20
108.8938358260
1
AC
7
NewTextStyle_4
40
0.2624672000000003
50
86.0797729492149
0
LINE
8
Modules
10
159.8753754261
20
92.3055525371
11
165.1876075705
21
91.9381024531
62
254
0
LINE
8
Modules
10
165.1876075705
20
91.9381024531
11
165.4642052236
21
95.9368811264
62
254
0
LINE
8
Modules
10
165.4642052236
20
95.9368811264
11
160.1519730792
21
96.3043312103
62
254
0
LINE
8
Modules
10
160.1519730792
20
96.3043312103
11
159.8753754261
21
92.3055525371
62
254
0
LINE
8
Modules
10
163.0506181705
20
93.6837898389
11
163.1072173177
21
94.5020446774
62
254
0
LINE
8
Modules
10
163.1072173177
20
94.5020446774
11
162.2889624792
21
94.5586438246
62
254
0
LINE
8
Modules
10
162.2889624792
20
94.5586438246
11
162.2323633320
21
93.7403889861
62
254
0
LINE
8
Modules
10
162.2323633320
20
93.7403889861
11
163.0506181705
21
93.6837898389
62
254
0
LINE
8
Modules
10
163.0506181705
20
93.6837898389
11
162.2889624792
21
94.5586438246
62
254
0
TEXT
8
Modules
100
AcDbText
10
162.5466961195
20
93.7679766005
1
DC
7
NewTextStyle_4
40
0.2624672000000003
50
86.04312133788866
0
TEXT
8
Modules
100
AcDbText
10
163.0241625390
20
94.0144877231
1
AC
7
NewTextStyle_4
40
0.2624672000000003
50
86.04312133788866
0
LINE
8
Modules
10
160.1520792182
20
96.3047272864
11
165.4643113626
21
95.9372772025
62
254
0
LINE
8
Modules
10
165.4643113626
20
95.9372772025
11
165.7409090158
21
99.9360558757
62
254
0
LINE
8
Modules
10
165.7409090158
20
99.9360558757
11
160.4286768714
21
100.3035059597
62
254
0
LINE
8
Modules
10
160.4286768714
20
100.3035059597
11
160.1520792182
21
96.3047272864
62
254
0
LINE
8
Modules
10
163.3273219626
20
97.6829645882
11
163.3839211098
21
98.5012194267
62
254
0
LINE
8
Modules
10
163.3839211098
20
98.5012194267
11
162.5656662714
21
98.5578185739
62
254
0
LINE
8
Modules
10
162.5656662714
20
98.5578185739
11
162.5090671242
21
97.7395637354
62
254
0
LINE
8
Modules
10
162.5090671242
20
97.7395637354
11
163.3273219626
21
97.6829645882
62
254
0
LINE
8
Modules
10
163.3273219626
20
97.6829645882
11
162.5656662714
21
98.5578185739
62
254
0
TEXT
8
Modules
100
AcDbText
10
162.8233999116
20
97.7671513498
1
DC
7
NewTextStyle_4
40
0.2624672000000003
50
86.04312133788866
0
TEXT
8
Modules
100
AcDbText
10
163.3008663312
20
98.0136624725
1
AC
7
NewTextStyle_4
40
0.2624672000000003
50
86.04312133788866
0
LINE
8
Modules
10
160.4258703407
20
100.3002498185
11
165.7381024851
21
99.9327997345
62
254
0
LINE
8
Modules
10
165.7381024851
20
99.9327997345
11
166.0147001383
21
103.9315784078
62
254
0
LINE
8
Modules
10
166.0147001383
20
103.9315784078
11
160.7024679938
21
104.2990284917
62
254
0
LINE
8
Modules
10
160.7024679938
20
104.2990284917
11
160.4258703407
21
100.3002498185
62
254
0
LINE
8
Modules
10
163.6011130851
20
101.6784871203
11
163.6577122323
21
102.4967419587
62
254
0
LINE
8
Modules
10
163.6577122323
20
102.4967419587
11
162.8394573939
21
102.5533411059
62
254
0
LINE
8
Modules
10
162.8394573939
20
102.5533411059
11
162.7828582467
21
101.7350862675
62
254
0
LINE
8
Modules
10
162.7828582467
20
101.7350862675
11
163.6011130851
21
101.6784871203
62
254
0
LINE
8
Modules
10
163.6011130851
20
101.6784871203
11
162.8394573939
21
102.5533411059
62
254
0
TEXT
8
Modules
100
AcDbText
10
163.0971910341
20
101.7626738819
1
DC
7
NewTextStyle_4
40
0.2624672000000003
50
86.04312133788866
0
TEXT
8
Modules
100
AcDbText
10
163.5746574537
20
102.0091850045
1
AC
7
NewTextStyle_4
40
0.2624672000000003
50
86.04312133788866
0
LINE
8
Modules
10
160.7025741329
20
104.2994245678
11
166.0148062773
21
103.9319744838
62
254
0
LINE
8
Modules
10
166.0148062773
20
103.9319744838
11
166.2914039304
21
107.9307531571
62
254
0
LINE
8
Modules
10
166.2914039304
20
107.9307531571
11
160.9791717860
21
108.2982032411
62
254
0
LINE
8
Modules
10
160.9791717860
20
108.2982032411
11
160.7025741329
21
104.2994245678
62
254
0
LINE
8
Modules
10
163.8778168773
20
105.6776618696
11
163.9344160245
21
106.4959167081
62
254
0
LINE
8
Modules
10
163.9344160245
20
106.4959167081
11
163.1161611860
21
106.5525158553
62
254
0
LINE
8
Modules
10
163.1161611860
20
106.5525158553
11
163.0595620388
21
105.7342610168
62
254
0
LINE
8
Modules
10
163.0595620388
20
105.7342610168
11
163.8778168773
21
105.6776618696
62
254
0
LINE
8
Modules
10
163.8778168773
20
105.6776618696
11
163.1161611860
21
106.5525158553
62
254
0
TEXT
8
Modules
100
AcDbText
10
163.3738948263
20
105.7618486312
1
DC
7
NewTextStyle_4
40
0.2624672000000003
50
86.04312133788866
0
TEXT
8
Modules
100
AcDbText
10
163.8513612458
20
106.0083597538
1
AC
7
NewTextStyle_4
40
0.2624672000000003
50
86.04312133788866
0
LINE
8
Modules
10
160.9792779250
20
108.2985993145
11
166.2915100694
21
107.9311492306
62
254
0
LINE
8
Modules
10
166.2915100694
20
107.9311492306
11
166.5681077226
21
111.9299279038
62
254
0
LINE
8
Modules
10
166.5681077226
20
111.9299279038
11
161.2558755782
21
112.2973779878
62
254
0
LINE
8
Modules
10
161.2558755782
20
112.2973779878
11
160.9792779250
21
108.2985993145
62
254
0
LINE
8
Modules
10
164.1545206694
20
109.6768366164
11
164.2111198166
21
110.4950914548
62
254
0
LINE
8
Modules
10
164.2111198166
20
110.4950914548
11
163.3928649782
21
110.5516906020
62
254
0
LINE
8
Modules
10
163.3928649782
20
110.5516906020
11
163.3362658310
21
109.7334357636
62
254
0
LINE
8
Modules
10
163.3362658310
20
109.7334357636
11
164.1545206694
21
109.6768366164
62
254
0
LINE
8
Modules
10
164.1545206694
20
109.6768366164
11
163.3928649782
21
110.5516906020
62
254
0
TEXT
8
Modules
100
AcDbText
10
163.6505986184
20
109.7610233779
1
DC
7
NewTextStyle_4
40
0.2624672000000003
50
86.04312133788866
0
TEXT
8
Modules
100
AcDbText
10
164.1280650380
20
110.0075345006
1
AC
7
NewTextStyle_4
40
0.2624672000000003
50
86.04312133788866
0
LINE
8
Modules
10
130.7643236117
20
134.4837585811
11
130.3057976285
21
128.9308872133
62
254
0
LINE
8
Modules
10
130.3057976285
20
128.9308872133
11
134.3004331211
21
128.5998521936
62
254
0
LINE
8
Modules
10
134.3004331211
20
128.5998521936
11
134.7589591043
21
134.1527235614
62
254
0
LINE
8
Modules
10
134.7589591043
20
134.1527235614
11
130.7643236117
21
134.4837585811
62
254
0
LINE
8
Modules
10
132.0899150398
20
131.1668408202
11
132.9073429336
21
131.0993420607
62
254
0
LINE
8
Modules
10
132.9073429336
20
131.0993420607
11
132.9748416930
21
131.9167699545
62
254
0
LINE
8
Modules
10
132.9748416930
20
131.9167699545
11
132.1574137992
21
131.9842687140
62
254
0
LINE
8
Modules
10
132.1574137992
20
131.9842687140
11
132.0899150398
21
131.1668408202
62
254
0
LINE
8
Modules
10
132.0899150398
20
131.1668408202
11
132.9748416930
21
131.9167699545
62
254
0
TEXT
8
Modules
100
AcDbText
10
132.1808099443
20
131.6695961888
1
DC
7
NewTextStyle_4
40
0.2624672000000003
50
-4.7204650527099945
0
TEXT
8
Modules
100
AcDbText
10
132.4209361229
20
131.1888869900
1
AC
7
NewTextStyle_4
40
0.2624672000000003
50
-4.7204650527099945
0
LINE
8
Modules
10
134.7605089024
20
134.1550592881
11
134.3019829192
21
128.6021879203
62
254
0
LINE
8
Modules
10
134.3019829192
20
128.6021879203
11
138.2966184117
21
128.2711529006
62
254
0
LINE
8
Modules
10
138.2966184117
20
128.2711529006
11
138.7551443949
21
133.8240242684
62
254
0
LINE
8
Modules
10
138.7551443949
20
133.8240242684
11
134.7605089024
21
134.1550592881
62
254
0
LINE
8
Modules
10
136.0861003304
20
130.8381415272
11
136.9035282242
21
130.7706427677
62
254
0
LINE
8
Modules
10
136.9035282242
20
130.7706427677
11
136.9710269837
21
131.5880706615
62
254
0
LINE
8
Modules
10
136.9710269837
20
131.5880706615
11
136.1535990899
21
131.6555694210
62
254
0
LINE
8
Modules
10
136.1535990899
20
131.6555694210
11
136.0861003304
21
130.8381415272
62
254
0
LINE
8
Modules
10
136.0861003304
20
130.8381415272
11
136.9710269837
21
131.5880706615
62
254
0
TEXT
8
Modules
100
AcDbText
10
136.1769952349
20
131.3408968958
1
DC
7
NewTextStyle_4
40
0.2624672000000003
50
-4.7204650527099945
0
TEXT
8
Modules
100
AcDbText
10
136.4171214135
20
130.8601876970
1
AC
7
NewTextStyle_4
40
0.2624672000000003
50
-4.7204650527099945
0
LINE
8
Modules
10
138.7537815233
20
133.8227077778
11
138.2952555402
21
128.2698364100
62
254
0
LINE
8
Modules
10
138.2952555402
20
128.2698364100
11
142.2898910327
21
127.9388013903
62
254
0
LINE
8
Modules
10
142.2898910327
20
127.9388013903
11
142.7484170159
21
133.4916727581
62
254
0
LINE
8
Modules
10
142.7484170159
20
133.4916727581
11
138.7537815233
21
133.8227077778
62
254
0
LINE
8
Modules
10
140.0793729514
20
130.5057900169
11
140.8968008452
21
130.4382912574
62
254
0
LINE
8
Modules
10
140.8968008452
20
130.4382912574
11
140.9642996047
21
131.2557191512
62
254
0
LINE
8
Modules
10
140.9642996047
20
131.2557191512
11
140.1468717108
21
131.3232179107
62
254
0
LINE
8
Modules
10
140.1468717108
20
131.3232179107
11
140.0793729514
21
130.5057900169
62
254
0
LINE
8
Modules
10
140.0793729514
20
130.5057900169
11
140.9642996047
21
131.2557191512
62
254
0
TEXT
8
Modules
100
AcDbText
10
140.1702678559
20
131.0085453855
1
DC
7
NewTextStyle_4
40
0.2624672000000003
50
-4.7204650527099945
0
TEXT
8
Modules
100
AcDbText
10
140.4103940345
20
130.5278361867
1
AC
7
NewTextStyle_4
40
0.2624672000000003
50
-4.7204650527099945
0
LINE
8
Modules
10
156.9300777450
20
96.5760186442
11
151.6178456006
21
96.9434687281
62
254
0
LINE
8
Modules
10
151.6178456006
20
96.9434687281
11
151.3412479474
21
92.9446900549
62
254
0
LINE
8
Modules
10
151.3412479474
20
92.9446900549
11
156.6534800918
21
92.5772399709
62
254
0
LINE
8
Modules
10
156.6534800918
20
92.5772399709
11
156.9300777450
21
96.5760186442
62
254
0
LINE
8
Modules
10
153.7548350006
20
95.1977813423
11
153.6982358534
21
94.3795265039
62
254
0
LINE
8
Modules
10
153.6982358534
20
94.3795265039
11
154.5164906918
21
94.3229273567
62
254
0
LINE
8
Modules
10
154.5164906918
20
94.3229273567
11
154.5730898390
21
95.1411821952
62
254
0
LINE
8
Modules
10
154.5730898390
20
95.1411821952
11
153.7548350006
21
95.1977813423
62
254
0
LINE
8
Modules
10
153.7548350006
20
95.1977813423
11
154.5164906918
21
94.3229273567
62
254
0
TEXT
8
Modules
100
AcDbText
10
154.2587570516
20
95.1135945808
1
DC
7
NewTextStyle_4
40
0.2624672000000003
50
-93.95687866212052
0
TEXT
8
Modules
100
AcDbText
10
153.7812906320
20
94.8670834581
1
AC
7
NewTextStyle_4
40
0.2624672000000003
50
-93.95687866212052
0
LINE
8
Modules
10
157.2067815371
20
100.5751933909
11
151.8945493927
21
100.9426434749
62
254
0
LINE
8
Modules
10
151.8945493927
20
100.9426434749
11
151.6179517396
21
96.9438648016
62
254
0
LINE
8
Modules
10
151.6179517396
20
96.9438648016
11
156.9301838840
21
96.5764147177
62
254
0
LINE
8
Modules
10
156.9301838840
20
96.5764147177
11
157.2067815371
21
100.5751933909
62
254
0
LINE
8
Modules
10
154.0315387927
20
99.1969560891
11
153.9749396455
21
98.3787012506
62
254
0
LINE
8
Modules
10
153.9749396455
20
98.3787012506
11
154.7931944840
21
98.3221021034
62
254
0
LINE
8
Modules
10
154.7931944840
20
98.3221021034
11
154.8497936312
21
99.1403569419
62
254
0
LINE
8
Modules
10
154.8497936312
20
99.1403569419
11
154.0315387927
21
99.1969560891
62
254
0
LINE
8
Modules
10
154.0315387927
20
99.1969560891
11
154.7931944840
21
98.3221021034
62
254
0
TEXT
8
Modules
100
AcDbText
10
154.5354608437
20
99.1127693275
1
DC
7
NewTextStyle_4
40
0.2624672000000003
50
-93.95687866212052
0
TEXT
8
Modules
100
AcDbText
10
154.0579944242
20
98.8662582049
1
AC
7
NewTextStyle_4
40
0.2624672000000003
50
-93.95687866212052
0
LINE
8
Modules
10
157.4834853293
20
104.5743681402
11
152.1712531849
21
104.9418182242
62
254
0
LINE
8
Modules
10
152.1712531849
20
104.9418182242
11
151.8946555317
21
100.9430395509
62
254
0
LINE
8
Modules
10
151.8946555317
20
100.9430395509
11
157.2068876761
21
100.5755894670
62
254
0
LINE
8
Modules
10
157.2068876761
20
100.5755894670
11
157.4834853293
21
104.5743681402
62
254
0
LINE
8
Modules
10
154.3082425849
20
103.1961308384
11
154.2516434377
21
102.3778760000
62
254
0
LINE
8
Modules
10
154.2516434377
20
102.3778760000
11
155.0698982761
21
102.3212768528
62
254
0
LINE
8
Modules
10
155.0698982761
20
102.3212768528
11
155.1264974233
21
103.1395316912
62
254
0
LINE
8
Modules
10
155.1264974233
20
103.1395316912
11
154.3082425849
21
103.1961308384
62
254
0
LINE
8
Modules
10
154.3082425849
20
103.1961308384
11
155.0698982761
21
102.3212768528
62
254
0
TEXT
8
Modules
100
AcDbText
10
154.8121646359
20
103.1119440768
1
DC
7
NewTextStyle_4
40
0.2624672000000003
50
-93.95687866212052
0
TEXT
8
Modules
100
AcDbText
10
154.3346982163
20
102.8654329542
1
AC
7
NewTextStyle_4
40
0.2624672000000003
50
-93.95687866212052
0
LINE
8
Modules
10
157.7601891214
20
108.5735428870
11
152.4479569770
21
108.9409929709
62
254
0
LINE
8
Modules
10
152.4479569770
20
108.9409929709
11
152.1713593239
21
104.9422142977
62
254
0
LINE
8
Modules
10
152.1713593239
20
104.9422142977
11
157.4835914683
21
104.5747642137
62
254
0
LINE
8
Modules
10
157.4835914683
20
104.5747642137
11
157.7601891214
21
108.5735428870
62
254
0
LINE
8
Modules
10
154.5849463770
20
107.1953055851
11
154.5283472298
21
106.3770507467
62
254
0
LINE
8
Modules
10
154.5283472298
20
106.3770507467
11
155.3466020683
21
106.3204515995
62
254
0
LINE
8
Modules
10
155.3466020683
20
106.3204515995
11
155.4032012155
21
107.1387064379
62
254
0
LINE
8
Modules
10
155.4032012155
20
107.1387064379
11
154.5849463770
21
107.1953055851
62
254
0
LINE
8
Modules
10
154.5849463770
20
107.1953055851
11
155.3466020683
21
106.3204515995
62
254
0
TEXT
8
Modules
100
AcDbText
10
155.0888684280
20
107.1111188236
1
DC
7
NewTextStyle_4
40
0.2624672000000003
50
-93.95687866212052
0
TEXT
8
Modules
100
AcDbText
10
154.6114020085
20
106.8646077009
1
AC
7
NewTextStyle_4
40
0.2624672000000003
50
-93.95687866212052
0
LINE
8
Modules
10
158.0368929136
20
112.5727176363
11
152.7246607692
21
112.9401677203
62
254
0
LINE
8
Modules
10
152.7246607692
20
112.9401677203
11
152.4480631160
21
108.9413890470
62
254
0
LINE
8
Modules
10
152.4480631160
20
108.9413890470
11
157.7602952605
21
108.5739389630
62
254
0
LINE
8
Modules
10
157.7602952605
20
108.5739389630
11
158.0368929136
21
112.5727176363
62
254
0
LINE
8
Modules
10
154.8616501692
20
111.1944803345
11
154.8050510220
21
110.3762254960
62
254
0
LINE
8
Modules
10
154.8050510220
20
110.3762254960
11
155.6233058604
21
110.3196263488
62
254
0
LINE
8
Modules
10
155.6233058604
20
110.3196263488
11
155.6799050076
21
111.1378811873
62
254
0
LINE
8
Modules
10
155.6799050076
20
111.1378811873
11
154.8616501692
21
111.1944803345
62
254
0
LINE
8
Modules
10
154.8616501692
20
111.1944803345
11
155.6233058604
21
110.3196263488
62
254
0
TEXT
8
Modules
100
AcDbText
10
155.3655722202
20
111.1102935729
1
DC
7
NewTextStyle_4
40
0.2624672000000003
50
-93.95687866212052
0
TEXT
8
Modules
100
AcDbText
10
154.8881058006
20
110.8637824503
1
AC
7
NewTextStyle_4
40
0.2624672000000003
50
-93.95687866212052
0
LINE
8
Modules
10
156.6533739528
20
92.5768438948
11
151.3411418084
21
92.9442939788
62
254
0
LINE
8
Modules
10
151.3411418084
20
92.9442939788
11
151.0645441553
21
88.9455153055
62
254
0
LINE
8
Modules
10
151.0645441553
20
88.9455153055
11
156.3767762997
21
88.5780652216
62
254
0
LINE
8
Modules
10
156.3767762997
20
88.5780652216
11
156.6533739528
21
92.5768438948
62
254
0
LINE
8
Modules
10
153.4781312084
20
91.1986065930
11
153.4215320612
21
90.3803517546
62
254
0
LINE
8
Modules
10
153.4215320612
20
90.3803517546
11
154.2397868997
21
90.3237526074
62
254
0
LINE
8
Modules
10
154.2397868997
20
90.3237526074
11
154.2963860469
21
91.1420074458
62
254
0
LINE
8
Modules
10
154.2963860469
20
91.1420074458
11
153.4781312084
21
91.1986065930
62
254
0
LINE
8
Modules
10
153.4781312084
20
91.1986065930
11
154.2397868997
21
90.3237526074
62
254
0
TEXT
8
Modules
100
AcDbText
10
153.9820532594
20
91.1144198314
1
DC
7
NewTextStyle_4
40
0.2624672000000003
50
-93.95687866212052
0
TEXT
8
Modules
100
AcDbText
10
153.5045868398
20
90.8679087088
1
AC
7
NewTextStyle_4
40
0.2624672000000003
50
-93.95687866212052
0
LINE
8
Modules
10
159.5986716339
20
88.3063777904
11
164.9109037783
21
87.9389277064
62
254
0
LINE
8
Modules
10
164.9109037783
20
87.9389277064
11
165.1875014315
21
91.9377063797
62
254
0
LINE
8
Modules
10
165.1875014315
20
91.9377063797
11
159.8752692871
21
92.3051564636
62
254
0
LINE
8
Modules
10
159.8752692871
20
92.3051564636
11
159.5986716339
21
88.3063777904
62
254
0
LINE
8
Modules
10
162.7739143783
20
89.6846150922
11
162.8305135255
21
90.5028699306
62
254
0
LINE
8
Modules
10
162.8305135255
20
90.5028699306
11
162.0122586871
21
90.5594690778
62
254
0
LINE
8
Modules
10
162.0122586871
20
90.5594690778
11
161.9556595399
21
89.7412142394
62
254
0
LINE
8
Modules
10
161.9556595399
20
89.7412142394
11
162.7739143783
21
89.6846150922
62
254
0
LINE
8
Modules
10
162.7739143783
20
89.6846150922
11
162.0122586871
21
90.5594690778
62
254
0
TEXT
8
Modules
100
AcDbText
10
162.2699923273
20
89.7688018538
1
DC
7
NewTextStyle_4
40
0.2624672000000003
50
86.04312133788866
0
TEXT
8
Modules
100
AcDbText
10
162.7474587469
20
90.0153129764
1
AC
7
NewTextStyle_4
40
0.2624672000000003
50
86.04312133788866
0
LINE
8
Modules
10
174.0554224830
20
87.1870129842
11
179.3678880802
21
86.8229611992
62
254
0
LINE
8
Modules
10
179.3678880802
20
86.8229611992
11
179.6419278456
21
90.8219159809
62
254
0
LINE
8
Modules
10
179.6419278456
20
90.8219159809
11
174.3294622484
21
91.1859677660
62
254
0
LINE
8
Modules
10
174.3294622484
20
91.1859677660
11
174.0554224830
21
87.1870129842
62
254
0
LINE
8
Modules
10
177.2297827502
20
88.5672811915
11
177.2858584554
21
89.3855720685
62
254
0
LINE
8
Modules
10
177.2858584554
20
89.3855720685
11
176.4675675783
21
89.4416477736
62
254
0
LINE
8
Modules
10
176.4675675783
20
89.4416477736
11
176.4114918732
21
88.6233568966
62
254
0
LINE
8
Modules
10
176.4114918732
20
88.6233568966
11
177.2297827502
21
88.5672811915
62
254
0
LINE
8
Modules
10
177.2297827502
20
88.5672811915
11
176.4675675783
21
89.4416477736
62
254
0
TEXT
8
Modules
100
AcDbText
10
176.7258069488
20
88.6511455813
1
DC
7
NewTextStyle_4
40
0.2624672000000003
50
86.0797729492149
0
TEXT
8
Modules
100
AcDbText
10
177.2031155796
20
88.8979620846
1
AC
7
NewTextStyle_4
40
0.2624672000000003
50
86.0797729492149
0
LINE
8
Modules
10
142.7499668140
20
133.4903562701
11
142.2914408308
21
127.9374849023
62
254
0
LINE
8
Modules
10
142.2914408308
20
127.9374849023
11
146.2860763234
21
127.6064498826
62
254
0
LINE
8
Modules
10
146.2860763234
20
127.6064498826
11
146.7446023065
21
133.1593212504
62
254
0
LINE
8
Modules
10
146.7446023065
20
133.1593212504
11
142.7499668140
21
133.4903562701
62
254
0
LINE
8
Modules
10
144.0755582420
20
130.1734385092
11
144.8929861359
21
130.1059397498
62
254
0
LINE
8
Modules
10
144.8929861359
20
130.1059397498
11
144.9604848953
21
130.9233676436
62
254
0
LINE
8
Modules
10
144.9604848953
20
130.9233676436
11
144.1430570015
21
130.9908664030
62
254
0
LINE
8
Modules
10
144.1430570015
20
130.9908664030
11
144.0755582420
21
130.1734385092
62
254
0
LINE
8
Modules
10
144.0755582420
20
130.1734385092
11
144.9604848953
21
130.9233676436
62
254
0
TEXT
8
Modules
100
AcDbText
10
144.1664531465
20
130.6761938778
1
DC
7
NewTextStyle_4
40
0.2624672000000003
50
-4.7204650527099945
0
TEXT
8
Modules
100
AcDbText
10
144.4065793251
20
130.1954846790
1
AC
7
NewTextStyle_4
40
0.2624672000000003
50
-4.7204650527099945
0
LINE
8
Modules
10
130.0012036790
20
125.5869643481
11
129.5426776958
21
120.0340929802
62
254
0
LINE
8
Modules
10
129.5426776958
20
120.0340929802
11
133.5373131884
21
119.7030579606
62
254
0
LINE
8
Modules
10
133.5373131884
20
119.7030579606
11
133.9958391715
21
125.2559293284
62
254
0
LINE
8
Modules
10
133.9958391715
20
125.2559293284
11
130.0012036790
21
125.5869643481
62
254
0
LINE
8
Modules
10
131.3267951070
20
122.2700465871
11
132.1442230008
21
122.2025478277
62
254
0
LINE
8
Modules
10
132.1442230008
20
122.2025478277
11
132.2117217603
21
123.0199757215
62
254
0
LINE
8
Modules
10
132.2117217603
20
123.0199757215
11
131.3942938665
21
123.0874744809
62
254
0
LINE
8
Modules
10
131.3942938665
20
123.0874744809
11
131.3267951070
21
122.2700465871
62
254
0
LINE
8
Modules
10
131.3267951070
20
122.2700465871
11
132.2117217603
21
123.0199757215
62
254
0
TEXT
8
Modules
100
AcDbText
10
131.4176900115
20
122.7728019557
1
DC
7
NewTextStyle_4
40
0.2624672000000003
50
-4.7204650527099945
0
TEXT
8
Modules
100
AcDbText
10
131.6578161901
20
122.2920927570
1
AC
7
NewTextStyle_4
40
0.2624672000000003
50
-4.7204650527099945
0
LINE
8
Modules
10
133.9944762999
20
125.2546128378
11
133.5359503168
21
119.7017414700
62
254
0
LINE
8
Modules
10
133.5359503168
20
119.7017414700
11
137.5305858093
21
119.3707064503
62
254
0
LINE
8
Modules
10
137.5305858093
20
119.3707064503
11
137.9891117925
21
124.9235778181
62
254
0
LINE
8
Modules
10
137.9891117925
20
124.9235778181
11
133.9944762999
21
125.2546128378
62
254
0
LINE
8
Modules
10
135.3200677280
20
121.9376950768
11
136.1374956218
21
121.8701963174
62
254
0
LINE
8
Modules
10
136.1374956218
20
121.8701963174
11
136.2049943813
21
122.6876242112
62
254
0
LINE
8
Modules
10
136.2049943813
20
122.6876242112
11
135.3875664875
21
122.7551229706
62
254
0
LINE
8
Modules
10
135.3875664875
20
122.7551229706
11
135.3200677280
21
121.9376950768
62
254
0
LINE
8
Modules
10
135.3200677280
20
121.9376950768
11
136.2049943813
21
122.6876242112
62
254
0
TEXT
8
Modules
100
AcDbText
10
135.4109626325
20
122.4404504454
1
DC
7
NewTextStyle_4
40
0.2624672000000003
50
-4.7204650527099945
0
TEXT
8
Modules
100
AcDbText
10
135.6510888111
20
121.9597412467
1
AC
7
NewTextStyle_4
40
0.2624672000000003
50
-4.7204650527099945
0
LINE
8
Modules
10
137.9906615906
20
124.9259135448
11
137.5321356074
21
119.3730421769
62
254
0
LINE
8
Modules
10
137.5321356074
20
119.3730421769
11
141.5267711000
21
119.0420071573
62
254
0
LINE
8
Modules
10
141.5267711000
20
119.0420071573
11
141.9852970832
21
124.5948785251
62
254
0
LINE
8
Modules
10
141.9852970832
20
124.5948785251
11
137.9906615906
21
124.9259135448
62
254
0
LINE
8
Modules
10
139.3162530187
20
121.6089957838
11
140.1336809125
21
121.5414970244
62
254
0
LINE
8
Modules
10
140.1336809125
20
121.5414970244
11
140.2011796719
21
122.3589249182
62
254
0
LINE
8
Modules
10
140.2011796719
20
122.3589249182
11
139.3837517781
21
122.4264236776
62
254
0
LINE
8
Modules
10
139.3837517781
20
122.4264236776
11
139.3162530187
21
121.6089957838
62
254
0
LINE
8
Modules
10
139.3162530187
20
121.6089957838
11
140.2011796719
21
122.3589249182
62
254
0
TEXT
8
Modules
100
AcDbText
10
139.4071479231
20
122.1117511524
1
DC
7
NewTextStyle_4
40
0.2624672000000003
50
-4.7204650527099945
0
TEXT
8
Modules
100
AcDbText
10
139.6472741017
20
121.6310419537
1
AC
7
NewTextStyle_4
40
0.2624672000000003
50
-4.7204650527099945
0
LINE
8
Modules
10
151.5424838632
20
106.4120549436
11
145.9314625058
21
106.8001723714
62
254
0
LINE
8
Modules
10
145.9314625058
20
106.8001723714
11
145.6548648037
21
102.8013937015
62
254
0
LINE
8
Modules
10
145.6548648037
20
102.8013937015
11
151.2658861612
21
102.4132762737
62
254
0
LINE
8
Modules
10
151.2658861612
20
102.4132762737
11
151.5424838632
21
106.4120549436
62
254
0
LINE
8
Modules
10
148.2178464821
20
105.0441513104
11
148.1612473456
21
104.2258964712
62
254
0
LINE
8
Modules
10
148.1612473456
20
104.2258964712
11
148.9795021848
21
104.1692973347
62
254
0
LINE
8
Modules
10
148.9795021848
20
104.1692973347
11
149.0361013213
21
104.9875521739
62
254
0
LINE
8
Modules
10
149.0361013213
20
104.9875521739
11
148.2178464821
21
105.0441513104
62
254
0
LINE
8
Modules
10
148.2178464821
20
105.0441513104
11
148.9795021848
21
104.1692973347
62
254
0
TEXT
8
Modules
100
AcDbText
10
148.7217685342
20
104.9599645554
1
DC
7
NewTextStyle_4
40
0.2624672000000003
50
-93.95687791043716
0
TEXT
8
Modules
100
AcDbText
10
148.2443021179
20
104.7134534265
1
AC
7
NewTextStyle_4
40
0.2624672000000003
50
-93.95687791043716
0
LINE
8
Modules
10
151.2657800711
20
102.4128801942
11
145.6547587136
21
102.8009976221
62
254
0
LINE
8
Modules
10
145.6547587136
20
102.8009976221
11
145.3781610115
21
98.8022189522
62
254
0
LINE
8
Modules
10
145.3781610115
20
98.8022189522
11
150.9891823690
21
98.4141015244
62
254
0
LINE
8
Modules
10
150.9891823690
20
98.4141015244
11
151.2657800711
21
102.4128801942
62
254
0
LINE
8
Modules
10
147.9411426899
20
101.0449765610
11
147.8845435535
21
100.2267217219
62
254
0
LINE
8
Modules
10
147.8845435535
20
100.2267217219
11
148.7027983927
21
100.1701225854
62
254
0
LINE
8
Modules
10
148.7027983927
20
100.1701225854
11
148.7593975291
21
100.9883774246
62
254
0
LINE
8
Modules
10
148.7593975291
20
100.9883774246
11
147.9411426899
21
101.0449765610
62
254
0
LINE
8
Modules
10
147.9411426899
20
101.0449765610
11
148.7027983927
21
100.1701225854
62
254
0
TEXT
8
Modules
100
AcDbText
10
148.4450647420
20
100.9607898061
1
DC
7
NewTextStyle_4
40
0.2624672000000003
50
-93.95687791043716
0
TEXT
8
Modules
100
AcDbText
10
147.9675983257
20
100.7142786772
1
AC
7
NewTextStyle_4
40
0.2624672000000003
50
-93.95687791043716
0
LINE
8
Modules
10
140.6820346992
20
93.7911653514
11
135.3695687059
21
94.1552189047
62
254
0
LINE
8
Modules
10
135.3695687059
20
94.1552189047
11
135.0955277886
21
90.1562642019
62
254
0
LINE
8
Modules
10
135.0955277886
20
90.1562642019
11
140.4079937820
21
89.7922106486
62
254
0
LINE
8
Modules
10
140.4079937820
20
89.7922106486
11
140.6820346992
21
93.7911653514
62
254
0
LINE
8
Modules
10
137.5076738006
20
92.4108981920
11
137.4515978285
21
91.5926073333
62
254
0
LINE
8
Modules
10
137.4515978285
20
91.5926073333
11
138.2698886872
21
91.5365313613
62
254
0
LINE
8
Modules
10
138.2698886872
20
91.5365313613
11
138.3259646593
21
92.3548222200
62
254
0
LINE
8
Modules
10
138.3259646593
20
92.3548222200
11
137.5076738006
21
92.4108981920
62
254
0
LINE
8
Modules
10
137.5076738006
20
92.4108981920
11
138.2698886872
21
91.5365313613
62
254
0
TEXT
8
Modules
100
AcDbText
10
138.0116495747
20
92.3270336378
1
DC
7
NewTextStyle_4
40
0.2624672000000003
50
-93.92024574033387
0
TEXT
8
Modules
100
AcDbText
10
137.5343408633
20
92.0802172902
1
AC
7
NewTextStyle_4
40
0.2624672000000003
50
-93.92024574033387
0
LINE
8
Modules
10
140.9587384914
20
97.7903400982
11
135.6462724980
21
98.1543936514
62
254
0
LINE
8
Modules
10
135.6462724980
20
98.1543936514
11
135.3722315808
21
94.1554389486
62
254
0
LINE
8
Modules
10
135.3722315808
20
94.1554389486
11
140.6846975741
21
93.7913853954
62
254
0
LINE
8
Modules
10
140.6846975741
20
93.7913853954
11
140.9587384914
21
97.7903400982
62
254
0
LINE
8
Modules
10
137.7843775928
20
96.4100729388
11
137.7283016207
21
95.5917820801
62
254
0
LINE
8
Modules
10
137.7283016207
20
95.5917820801
11
138.5465924794
21
95.5357061080
62
254
0
LINE
8
Modules
10
138.5465924794
20
95.5357061080
11
138.6026684515
21
96.3539969667
62
254
0
LINE
8
Modules
10
138.6026684515
20
96.3539969667
11
137.7843775928
21
96.4100729388
62
254
0
LINE
8
Modules
10
137.7843775928
20
96.4100729388
11
138.5465924794
21
95.5357061080
62
254
0
TEXT
8
Modules
100
AcDbText
10
138.2883533668
20
96.3262083846
1
DC
7
NewTextStyle_4
40
0.2624672000000003
50
-93.92024574033387
0
TEXT
8
Modules
100
AcDbText
10
137.8110446555
20
96.0793920370
1
AC
7
NewTextStyle_4
40
0.2624672000000003
50
-93.92024574033387
0
LINE
8
Buildings
10
147.7317069174
20
115.5906740400
11
149.0270326841
21
115.5019080611
62
252
0
LINE
8
Buildings
10
149.0270326841
20
115.5019080611
11
149.0515451895
21
115.8562870398
62
252
0
LINE
8
Buildings
10
149.0515451895
20
115.8562870398
11
170.2978460928
21
114.3866737218
62
252
0
LINE
8
Buildings
10
170.2978460928
20
114.3866737218
11
170.2742732070
21
114.0458788882
62
252
0
LINE
8
Buildings
10
170.2742732070
20
114.0458788882
11
172.2347925201
21
113.9115285799
62
252
0
LINE
8
Buildings
10
172.2347925201
20
113.9115285799
11
173.6870025327
21
131.5504451067
62
252
0
LINE
8
Buildings
10
173.6870025327
20
131.5504451067
11
148.8275910062
21
133.5971176600
62
252
0
LINE
8
Buildings
10
148.8275910062
20
133.5971176600
11
147.0477689571
21
111.9789410295
62
252
0
LINE
8
Buildings
10
147.0477689571
20
111.9789410295
11
147.4660038081
21
111.9445078013
62
252
0
LINE
8
Buildings
10
147.4660038081
20
111.9445078013
11
147.7317069174
21
115.5906740400
62
252
0
LINE
8
Buildings
10
151.9182550705
20
133.3426636353
11
151.9251451891
21
133.4365917303
62
252
0
LINE
8
Buildings
10
151.9251451891
20
133.4365917303
11
130.2581779531
21
135.0259774554
62
252
0
LINE
8
Buildings
10
130.2581779531
20
135.0259774554
11
128.6583137281
21
113.2161642687
62
252
0
LINE
8
Buildings
10
128.6583137281
20
113.2161642687
11
146.2409988391
21
111.9263820661
62
252
0
LINE
8
Buildings
10
146.2409988391
20
111.9263820661
11
144.7781115938
21
115.7930777804
62
252
0
LINE
8
Buildings
10
144.7781115938
20
115.7930777804
11
147.3472913619
21
115.6170172380
62
252
0
LINE
8
Buildings
10
147.3472913619
20
115.6170172380
11
148.8275910062
21
133.5971176600
62
252
0
LINE
8
Buildings
10
148.8275910062
20
133.5971176600
11
151.9182550705
21
133.3426636353
62
252
0
LINE
8
Buildings
10
170.2742732070
20
114.0458788882
11
168.4214896344
21
87.2600592379
62
252
0
LINE
8
Buildings
10
168.4214896344
20
87.2600592379
11
180.8870028982
21
86.4058235573
62
252
0
LINE
8
Buildings
10
180.8870028982
20
86.4058235573
11
182.7226597998
21
113.1928168628
62
252
0
LINE
8
Buildings
10
182.7226597998
20
113.1928168628
11
170.2742732070
21
114.0458788882
62
252
0
LINE
8
Buildings
10
168.4189500458
20
87.2233442310
11
170.2978460928
21
114.3866737218
62
252
0
LINE
8
Buildings
10
170.2978460928
20
114.3866737218
11
159.6746956412
21
115.1214803808
62
252
0
LINE
8
Buildings
10
159.6746956412
20
115.1214803808
11
157.7957995942
21
87.9581508900
62
252
0
LINE
8
Buildings
10
157.7957995942
20
87.9581508900
11
168.4189500458
21
87.2233442310
62
252
0
LINE
8
Buildings
10
149.0515451895
20
115.8562870398
11
148.5195166471
21
108.1647137791
62
252
0
LINE
8
Buildings
10
148.5195166471
20
108.1647137791
11
152.2408643972
21
107.9073069844
62
252
0
LINE
8
Buildings
10
152.2408643972
20
107.9073069844
11
151.4496881482
21
96.4692174894
62
252
0
LINE
8
Buildings
10
151.4496881482
20
96.4692174894
11
147.7283403981
21
96.7266242841
62
252
0
LINE
8
Buildings
10
147.7283403981
20
96.7266242841
11
147.1726491425
21
88.6929575490
62
252
0
LINE
8
Buildings
10
147.1726491425
20
88.6929575490
11
157.7957995942
21
87.9581508900
62
252
0
LINE
8
Buildings
10
157.7957995942
20
87.9581508900
11
159.6746956412
21
115.1214803808
62
252
0
LINE
8
Buildings
10
159.6746956412
20
115.1214803808
11
149.0515451895
21
115.8562870398
62
252
0
LINE
8
Buildings
10
147.0477689571
20
111.9789410295
11
147.3472913619
21
115.6170172380
62
252
0
LINE
8
Buildings
10
147.3472913619
20
115.6170172380
11
144.7781115938
21
115.7930777804
62
252
0
LINE
8
Buildings
10
144.7781115938
20
115.7930777804
11
146.2409988391
21
111.9263820661
62
252
0
LINE
8
Buildings
10
146.2409988391
20
111.9263820661
11
136.2133844936
21
112.6619601894
62
252
0
LINE
8
Buildings
10
136.2133844936
20
112.6619601894
11
134.6313262519
21
89.5756288098
62
252
0
LINE
8
Buildings
10
134.6313262519
20
89.5756288098
11
147.1742491115
21
88.7160884108
62
252
0
LINE
8
Buildings
10
147.1742491115
20
88.7160884108
11
147.7283403981
21
96.7266242841
62
252
0
LINE
8
Buildings
10
147.7283403981
20
96.7266242841
11
141.7290612388
21
97.1415963111
62
252
0
LINE
8
Buildings
10
141.7290612388
20
97.1415963111
11
142.5202374879
21
108.5796858060
62
252
0
LINE
8
Buildings
10
142.5202374879
20
108.5796858060
11
148.5195166471
21
108.1647137791
62
252
0
LINE
8
Buildings
10
148.5195166471
20
108.1647137791
11
149.0270326841
21
115.5019080611
62
252
0
LINE
8
Buildings
10
149.0270326841
20
115.5019080611
11
147.7317069174
21
115.5906740400
62
252
0
LINE
8
Buildings
10
147.7317069174
20
115.5906740400
11
147.4660038081
21
111.9445078013
62
252
0
LINE
8
Buildings
10
147.4660038081
20
111.9445078013
11
147.0477689571
21
111.9789410295
62
252
0
LINE
8
Buildings
10
142.5202374879
20
108.5796858060
11
141.7290612388
21
97.1415963111
62
252
0
LINE
8
Buildings
10
141.7290612388
20
97.1415963111
11
151.4496881482
21
96.4692174894
62
252
0
LINE
8
Buildings
10
151.4496881482
20
96.4692174894
11
152.2408643972
21
107.9073069844
62
252
0
LINE
8
Buildings
10
152.2408643972
20
107.9073069844
11
142.5202374879
21
108.5796858060
62
252
0
LINE
8
Buildings
10
172.2347925201
20
113.9115285799
11
178.8512905187
21
113.4581137424
62
252
0
LINE
8
Buildings
10
178.8512905187
20
113.4581137424
11
179.9866951908
21
123.8690850623
62
252
0
LINE
8
Buildings
10
179.9866951908
20
123.8690850623
11
173.1162848732
21
124.6183615452
62
252
0
LINE
8
Buildings
10
173.1162848732
20
124.6183615452
11
172.2347925201
21
113.9115285799
62
252
0
LINE
8
Setbacks
10
173.4078787805
20
128.5599831011
11
150.0588744730
21
130.4823041088
62
2
0
LINE
8
Setbacks
10
150.0588744730
20
130.4823041088
11
149.1001950364
21
118.8379365295
62
2
0
LINE
8
Setbacks
10
149.1001950364
20
118.8379365295
11
149.2593320900
21
118.8523228276
62
2
0
LINE
8
Setbacks
10
149.2593320900
20
118.8523228276
11
149.2598538755
21
118.8523283318
62
2
0
LINE
8
Setbacks
10
149.2598538755
20
118.8523283318
11
170.5061550803
21
117.3827150958
62
2
0
LINE
8
Setbacks
10
170.5061550803
20
117.3827150958
11
170.5066711978
21
117.3826377899
62
2
0
LINE
8
Setbacks
10
170.5066711978
20
117.3826377899
11
171.4086462923
21
117.1730669171
62
2
0
LINE
8
Setbacks
10
171.4086462923
20
117.1730669171
11
171.4091424286
21
117.1729092388
62
2
0
LINE
8
Setbacks
10
171.4091424286
20
117.1729092388
11
171.4096073782
21
117.1726750689
62
2
0
LINE
8
Setbacks
10
171.4096073782
20
117.1726750689
11
171.7700140998
21
116.9536957303
62
2
0
LINE
8
Setbacks
10
171.7700140998
20
116.9536957303
11
172.4412376953
21
116.9076981643
62
2
0
LINE
8
Setbacks
10
172.4412376953
20
116.9076981643
11
172.4417538634
21
116.9076211881
62
2
0
LINE
8
Setbacks
10
172.4417538634
20
116.9076211881
11
172.4484139524
21
116.9060782233
62
2
0
LINE
8
Setbacks
10
133.2510109334
20
134.7735408255
11
131.7620198955
21
114.4751843116
62
2
0
LINE
8
Setbacks
10
131.7620198955
20
114.4751843116
11
144.0133275474
21
113.5764864971
62
2
0
LINE
8
Setbacks
10
144.0133275474
20
113.5764864971
11
143.3699491375
21
115.2770615877
62
2
0
LINE
8
Setbacks
10
143.3699491375
20
115.2770615877
11
143.3698042103
21
115.2775612174
62
2
0
LINE
8
Setbacks
10
143.3698042103
20
115.2775612174
11
143.3532835138
21
115.3578409615
62
2
0
LINE
8
Setbacks
10
143.3532835138
20
115.3578409615
11
143.3206600825
21
115.4332032898
62
2
0
LINE
8
Setbacks
10
143.3206600825
20
115.4332032898
11
143.3204918638
21
115.4336957946
62
2
0
LINE
8
Setbacks
10
143.3204918638
20
115.4336957946
11
143.3204036415
21
115.4342087033
62
2
0
LINE
8
Setbacks
10
143.3204036415
20
115.4342087033
11
143.3067458052
21
115.5839822145
62
2
0
LINE
8
Setbacks
10
143.3067458052
20
115.5839822145
11
143.2764114902
21
115.7313876781
62
2
0
LINE
8
Setbacks
10
143.2764114902
20
115.7313876781
11
143.2763472965
21
115.7319053663
62
2
0
LINE
8
Setbacks
10
143.2763472965
20
115.7319053663
11
143.2763659660
21
115.7324266851
62
2
0
LINE
8
Setbacks
10
143.2763659660
20
115.7324266851
11
143.2857924152
21
115.8137625237
62
2
0
LINE
8
Setbacks
10
143.2857924152
20
115.8137625237
11
143.2783544267
21
115.8953311031
62
2
0
LINE
8
Setbacks
10
143.2783544267
20
115.8953311031
11
143.2783485183
21
115.8958529134
62
2
0
LINE
8
Setbacks
10
143.2783485183
20
115.8958529134
11
143.2784254199
21
115.8963690597
62
2
0
LINE
8
Setbacks
10
143.2784254199
20
115.8963690597
11
143.3123468131
21
116.0428815993
62
2
0
LINE
8
Setbacks
10
143.3123468131
20
116.0428815993
11
143.3296556667
21
116.1922275602
62
2
0
LINE
8
Setbacks
10
143.3296556667
20
116.1922275602
11
143.3297566304
21
116.1927389813
62
2
0
LINE
8
Setbacks
10
143.3297566304
20
116.1927389813
11
143.3299373223
21
116.1932279552
62
2
0
LINE
8
Setbacks
10
143.3299373223
20
116.1932279552
11
143.3643890470
21
116.2676600563
62
2
0
LINE
8
Setbacks
10
143.3643890470
20
116.2676600563
11
143.3828630866
21
116.3474530607
62
2
0
LINE
8
Setbacks
10
143.3828630866
20
116.3474530607
11
143.3830203530
21
116.3479492591
62
2
0
LINE
8
Setbacks
10
143.3830203530
20
116.3479492591
11
143.3832541169
21
116.3484143399
62
2
0
LINE
8
Setbacks
10
143.3832541169
20
116.3484143399
11
143.4614342958
21
116.4773251426
62
2
0
LINE
8
Setbacks
10
143.4614342958
20
116.4773251426
11
143.5246929051
21
116.6139940428
62
2
0
LINE
8
Setbacks
10
143.5246929051
20
116.6139940428
11
143.5249471545
21
116.6144458336
62
2
0
LINE
8
Setbacks
10
143.5249471545
20
116.6144458336
11
143.5252693959
21
116.6148519348
62
2
0
LINE
8
Setbacks
10
143.5252693959
20
116.6148519348
11
143.5813760358
21
116.6750958402
62
2
0
LINE
8
Setbacks
10
143.5813760358
20
116.6750958402
11
143.6239555702
21
116.7453047759
62
2
0
LINE
8
Setbacks
10
143.6239555702
20
116.7453047759
11
143.6242576649
21
116.7457243405
62
2
0
LINE
8
Setbacks
10
143.6242576649
20
116.7457243405
11
143.6246219197
21
116.7460912384
62
2
0
LINE
8
Setbacks
10
143.6246219197
20
116.7460912384
11
143.7394094838
21
116.8447823349
62
2
0
LINE
8
Setbacks
10
143.7394094838
20
116.8447823349
11
143.8424268890
21
116.9553959118
62
2
0
LINE
8
Setbacks
10
143.8424268890
20
116.9553959118
11
143.8428057429
21
116.9557435773
62
2
0
LINE
8
Setbacks
10
143.8428057429
20
116.9557435773
11
143.8432342652
21
116.9560277785
62
2
0
LINE
8
Setbacks
10
143.8432342652
20
116.9560277785
11
143.9155058558
21
116.9961847255
62
2
0
LINE
8
Setbacks
10
143.9155058558
20
116.9961847255
11
143.9780254731
21
117.0499373757
62
2
0
LINE
8
Setbacks
10
143.9780254731
20
117.0499373757
11
143.9784391627
21
117.0502402248
62
2
0
LINE
8
Setbacks
10
143.9784391627
20
117.0502402248
11
143.9788949826
21
117.0504749266
62
2
0
LINE
8
Setbacks
10
143.9788949826
20
117.0504749266
11
144.1190563621
21
117.1092856936
62
2
0
LINE
8
Setbacks
10
144.1190563621
20
117.1092856936
11
144.2517480540
21
117.1830146603
62
2
0
LINE
8
Setbacks
10
144.2517480540
20
117.1830146603
11
144.2522120065
21
117.1832270579
62
2
0
LINE
8
Setbacks
10
144.2522120065
20
117.1832270579
11
144.2527032813
21
117.1833649481
62
2
0
LINE
8
Setbacks
10
144.2527032813
20
117.1833649481
11
144.3340646551
21
117.1995018717
62
2
0
LINE
8
Setbacks
10
144.3340646551
20
117.1995018717
11
144.4104071361
21
117.2315346439
62
2
0
LINE
8
Setbacks
10
144.4104071361
20
117.2315346439
11
144.4108905788
21
117.2316946357
62
2
0
LINE
8
Setbacks
10
144.4108905788
20
117.2316946357
11
144.4113929562
21
117.2317778900
62
2
0
LINE
8
Setbacks
10
144.4113929562
20
117.2317778900
11
144.4671943593
21
117.2366192304
62
2
0
LINE
8
Setbacks
10
144.4671943593
20
117.2366192304
11
145.8343805590
21
133.8428167904
62
2
0
LINE
8
Setbacks
10
145.8343805590
20
133.8428167904
11
145.8344645994
21
133.8433318050
62
2
0
LINE
8
Setbacks
10
145.8344645994
20
133.8433318050
11
145.8361926426
21
133.8503516798
62
2
0
LINE
8
Setbacks
10
182.4846010010
20
110.1988060769
11
171.4765450376
21
110.9531653481
62
2
0
LINE
8
Setbacks
10
171.4765450376
20
110.9531653481
11
170.0382467990
21
90.1595906440
62
2
0
LINE
8
Setbacks
10
170.0382467990
20
90.1595906440
11
181.0595983079
21
89.4043205563
62
2
0
LINE
8
Setbacks
10
170.0578731643
20
111.3928157093
11
160.8769047900
21
112.0278663745
62
2
0
LINE
8
Setbacks
10
160.8769047900
20
112.0278663745
11
159.4124943456
21
90.8567808301
62
2
0
LINE
8
Setbacks
10
159.4124943456
20
90.8567808301
11
168.5934624789
21
90.2217301590
62
2
0
LINE
8
Setbacks
10
147.4126219242
20
91.6868154835
11
156.5935902772
21
91.0517651240
62
2
0
LINE
8
Setbacks
10
156.5935902772
20
91.0517651240
11
158.0580007215
21
112.2228506684
62
2
0
LINE
8
Setbacks
10
158.0580007215
20
112.2228506684
11
148.8770325747
21
112.8579010362
62
2
0
LINE
8
Setbacks
10
148.7594894169
20
111.1585716837
11
152.4481072584
21
110.9034287992
62
2
0
LINE
8
Setbacks
10
152.4481072584
20
110.9034287992
11
152.4486481008
21
110.9033456476
62
2
0
LINE
8
Setbacks
10
152.4486481008
20
110.9033456476
11
153.3075821834
21
110.6967518090
62
2
0
LINE
8
Setbacks
10
153.3075821834
20
110.6967518090
11
153.3080955175
21
110.6965825447
62
2
0
LINE
8
Setbacks
10
153.3080955175
20
110.6965825447
11
153.3085740934
21
110.6963312928
62
2
0
LINE
8
Setbacks
10
153.3085740934
20
110.6963312928
11
154.0631659811
21
110.2169992565
62
2
0
LINE
8
Setbacks
10
154.0631659811
20
110.2169992565
11
154.0635842599
21
110.2166840284
62
2
0
LINE
8
Setbacks
10
154.0635842599
20
110.2166840284
11
154.0639470454
21
110.2163062552
62
2
0
LINE
8
Setbacks
10
154.0639470454
20
110.2163062552
11
154.6403312502
21
109.5111562983
62
2
0
LINE
8
Setbacks
10
154.6403312502
20
109.5111562983
11
154.6406194963
21
109.5107423957
62
2
0
LINE
8
Setbacks
10
154.6406194963
20
109.5107423957
11
154.6408408928
21
109.5102892017
62
2
0
LINE
8
Setbacks
10
154.6408408928
20
109.5102892017
11
154.9825971373
21
108.6483469169
62
2
0
LINE
8
Setbacks
10
154.9825971373
20
108.6483469169
11
154.9827431525
21
108.6478795015
62
2
0
LINE
8
Setbacks
10
154.9827431525
20
108.6478795015
11
154.9828179703
21
108.6473955594
62
2
0
LINE
8
Setbacks
10
154.9828179703
20
108.6473955594
11
155.0564931695
21
107.7130333248
62
2
0
LINE
8
Setbacks
10
155.0564931695
20
107.7130333248
11
155.0564955008
21
107.7125490330
62
2
0
LINE
8
Setbacks
10
155.0564955008
20
107.7125490330
11
155.0564265136
21
107.7120696744
62
2
0
LINE
8
Setbacks
10
155.0564265136
20
107.7120696744
11
154.8548083969
21
106.7967494352
62
2
0
LINE
8
Setbacks
10
154.8548083969
20
106.7967494352
11
154.8546676615
21
106.7962804025
62
2
0
LINE
8
Setbacks
10
154.8546676615
20
106.7962804025
11
154.8544586821
21
106.7958375417
62
2
0
LINE
8
Setbacks
10
154.8544586821
20
106.7958375417
11
154.3972831425
21
105.9891573978
62
2
0
LINE
8
Setbacks
10
154.3972831425
20
105.9891573978
11
154.3970014575
21
105.9887390016
62
2
0
LINE
8
Setbacks
10
154.3970014575
20
105.9887390016
11
154.3966589691
21
105.9883687266
62
2
0
LINE
8
Setbacks
10
154.3966589691
20
105.9883687266
11
153.7286773204
21
105.3692922633
62
2
0
LINE
8
Setbacks
10
153.7286773204
20
105.3692922633
11
153.7282659788
21
105.3689680381
62
2
0
LINE
8
Setbacks
10
153.7282659788
20
105.3689680381
11
153.7278082840
21
105.3687134022
62
2
0
LINE
8
Setbacks
10
153.7278082840
20
105.3687134022
11
153.4734423653
21
105.2527339935
62
2
0
LINE
8
Setbacks
10
153.4734423653
20
105.2527339935
11
153.0360140723
21
98.9288059708
62
2
0
LINE
8
Setbacks
10
153.0360140723
20
98.9288059708
11
153.2719894465
21
98.7789096517
62
2
0
LINE
8
Setbacks
10
153.2719894465
20
98.7789096517
11
153.2724077247
21
98.7785944241
62
2
0
LINE
8
Setbacks
10
153.2724077247
20
98.7785944241
11
153.2727705099
21
98.7782166517
62
2
0
LINE
8
Setbacks
10
153.2727705099
20
98.7782166517
11
153.8491550428
21
98.0730670228
62
2
0
LINE
8
Setbacks
10
153.8491550428
20
98.0730670228
11
153.8494432896
21
98.0726531194
62
2
0
LINE
8
Setbacks
10
153.8494432896
20
98.0726531194
11
153.8496646865
21
98.0721999245
62
2
0
LINE
8
Setbacks
10
153.8496646865
20
98.0721999245
11
154.1914209310
21
97.2102573117
62
2
0
LINE
8
Setbacks
10
154.1914209310
20
97.2102573117
11
154.1915669461
21
97.2097898964
62
2
0
LINE
8
Setbacks
10
154.1915669461
20
97.2097898964
11
154.1916417639
21
97.2093059545
62
2
0
LINE
8
Setbacks
10
154.1916417639
20
97.2093059545
11
154.2653169631
21
96.2749437199
62
2
0
LINE
8
Setbacks
10
154.2653169631
20
96.2749437199
11
154.2653192944
21
96.2744594282
62
2
0
LINE
8
Setbacks
10
154.2653192944
20
96.2744594282
11
154.2652503072
21
96.2739800696
62
2
0
LINE
8
Setbacks
10
154.2652503072
20
96.2739800696
11
154.0636321905
21
95.3586598303
62
2
0
LINE
8
Setbacks
10
154.0636321905
20
95.3586598303
11
154.0634914551
21
95.3581907976
62
2
0
LINE
8
Setbacks
10
154.0634914551
20
95.3581907976
11
154.0632824757
21
95.3577479368
62
2
0
LINE
8
Setbacks
10
154.0632824757
20
95.3577479368
11
153.6061069361
21
94.5510677929
62
2
0
LINE
8
Setbacks
10
153.6061069361
20
94.5510677929
11
153.6058252511
21
94.5506493967
62
2
0
LINE
8
Setbacks
10
153.6058252511
20
94.5506493967
11
153.6054827626
21
94.5502791218
62
2
0
LINE
8
Setbacks
10
153.6054827626
20
94.5502791218
11
152.9375011140
21
93.9312026584
62
2
0
LINE
8
Setbacks
10
152.9375011140
20
93.9312026584
11
152.9370897718
21
93.9308784329
62
2
0
LINE
8
Setbacks
10
152.9370897718
20
93.9308784329
11
152.9366320765
21
93.9306237969
62
2
0
LINE
8
Setbacks
10
152.9366320765
20
93.9306237969
11
152.1232314599
21
93.5597500973
62
2
0
LINE
8
Setbacks
10
152.1232314599
20
93.5597500973
11
152.1227228486
21
93.5595671293
62
2
0
LINE
8
Setbacks
10
152.1227228486
20
93.5595671293
11
152.1221910982
21
93.5594701536
62
2
0
LINE
8
Setbacks
10
152.1221910982
20
93.5594701536
11
151.2429925793
21
93.4731033529
62
2
0
LINE
8
Setbacks
10
151.2429925793
20
93.4731033529
11
151.2424454387
21
93.4730954574
62
2
0
LINE
8
Setbacks
10
151.2424454387
20
93.4730954574
11
147.5538278019
21
93.7282383278
62
2
0
LINE
8
Setbacks
10
134.8693849169
20
92.5696397135
11
145.9719772602
21
91.8088020982
62
2
0
LINE
8
Setbacks
10
145.9719772602
20
91.8088020982
11
146.1116456801
21
93.8279947648
62
2
0
LINE
8
Setbacks
10
146.1116456801
20
93.8279947648
11
141.5220422406
21
94.1454589960
62
2
0
LINE
8
Setbacks
10
141.5220422406
20
94.1454589960
11
141.5215014041
21
94.1455421461
62
2
0
LINE
8
Setbacks
10
141.5215014041
20
94.1455421461
11
140.6625561666
21
94.3521369690
62
2
0
LINE
8
Setbacks
10
140.6625561666
20
94.3521369690
11
140.6620428546
21
94.3523062229
62
2
0
LINE
8
Setbacks
10
140.6620428546
20
94.3523062229
11
140.6615642970
21
94.3525574572
62
2
0
LINE
8
Setbacks
10
140.6615642970
20
94.3525574572
11
139.9069409132
21
94.8318917901
62
2
0
LINE
8
Setbacks
10
139.9069409132
20
94.8318917901
11
139.9065226578
21
94.8322069858
62
2
0
LINE
8
Setbacks
10
139.9065226578
20
94.8322069858
11
139.9061598857
21
94.8325847190
62
2
0
LINE
8
Setbacks
10
139.9061598857
20
94.8325847190
11
139.3297261403
21
95.5377376287
62
2
0
LINE
8
Setbacks
10
139.3297261403
20
95.5377376287
11
139.3294378950
21
95.5381514902
62
2
0
LINE
8
Setbacks
10
139.3294378950
20
95.5381514902
11
139.3292164883
21
95.5386046410
62
2
0
LINE
8
Setbacks
10
139.3292164883
20
95.5386046410
11
138.9873975797
21
96.4005515190
62
2
0
LINE
8
Setbacks
10
138.9873975797
20
96.4005515190
11
138.9872515406
21
96.4010189060
62
2
0
LINE
8
Setbacks
10
138.9872515406
20
96.4010189060
11
138.9871766919
21
96.4015028231
62
2
0
LINE
8
Setbacks
10
138.9871766919
20
96.4015028231
11
138.9134322669
21
97.3358699789
62
2
0
LINE
8
Setbacks
10
138.9134322669
20
97.3358699789
11
138.9134299002
21
97.3363542711
62
2
0
LINE
8
Setbacks
10
138.9134299002
20
97.3363542711
11
138.9134988525
21
97.3368336354
62
2
0
LINE
8
Setbacks
10
138.9134988525
20
97.3368336354
11
139.1150480716
21
98.2521584678
62
2
0
LINE
8
Setbacks
10
139.1150480716
20
98.2521584678
11
139.1151887799
21
98.2526275292
62
2
0
LINE
8
Setbacks
10
139.1151887799
20
98.2526275292
11
139.1153977395
21
98.2530704212
62
2
0
LINE
8
Setbacks
10
139.1153977395
20
98.2530704212
11
139.5725109431
21
99.0597548303
62
2
0
LINE
8
Setbacks
10
139.5725109431
20
99.0597548303
11
139.5727926237
21
99.0601732701
62
2
0
LINE
8
Setbacks
10
139.5727926237
20
99.0601732701
11
139.5731351183
21
99.0605435853
62
2
0
LINE
8
Setbacks
10
139.5731351183
20
99.0605435853
11
140.2410668982
21
99.6796236576
62
2
0
LINE
8
Setbacks
10
140.2410668982
20
99.6796236576
11
140.2414782595
21
99.6799479211
62
2
0
LINE
8
Setbacks
10
140.2414782595
20
99.6799479211
11
140.2419359828
21
99.6802025861
62
2
0
LINE
8
Setbacks
10
140.2419359828
20
99.6802025861
11
140.4964902675
21
99.7962728602
62
2
0
LINE
8
Setbacks
10
140.4964902675
20
99.7962728602
11
140.9339182326
21
106.1202008823
62
2
0
LINE
8
Setbacks
10
140.9339182326
20
106.1202008823
11
140.6981171190
21
106.2699810673
62
2
0
LINE
8
Setbacks
10
140.6981171190
20
106.2699810673
11
140.6976988636
21
106.2702962631
62
2
0
LINE
8
Setbacks
10
140.6976988636
20
106.2702962631
11
140.6973360917
21
106.2706739964
62
2
0
LINE
8
Setbacks
10
140.6973360917
20
106.2706739964
11
140.1209023462
21
106.9758272341
62
2
0
LINE
8
Setbacks
10
140.1209023462
20
106.9758272341
11
140.1206141012
21
106.9762410953
62
2
0
LINE
8
Setbacks
10
140.1206141012
20
106.9762410953
11
140.1203926947
21
106.9766942459
62
2
0
LINE
8
Setbacks
10
140.1203926947
20
106.9766942459
11
139.7785737862
21
107.8386411239
62
2
0
LINE
8
Setbacks
10
139.7785737862
20
107.8386411239
11
139.7784277469
21
107.8391085114
62
2
0
LINE
8
Setbacks
10
139.7784277469
20
107.8391085114
11
139.7783528982
21
107.8395924290
62
2
0
LINE
8
Setbacks
10
139.7783528982
20
107.8395924290
11
139.7046088014
21
108.7739592568
62
2
0
LINE
8
Setbacks
10
139.7046088014
20
108.7739592568
11
139.7046064347
21
108.7744435475
62
2
0
LINE
8
Setbacks
10
139.7046064347
20
108.7744435475
11
139.7046753867
21
108.7749229104
62
2
0
LINE
8
Setbacks
10
139.7046753867
20
108.7749229104
11
139.8389357248
21
109.3846605541
62
2
0
LINE
8
Setbacks
10
139.8389357248
20
109.3846605541
11
136.0407762076
21
109.6632754956
62
2
0
LINE
8
Setbacks
10
141.9690341195
20
100.1354542076
11
150.1683876436
21
99.5683024700
62
2
0
LINE
8
Setbacks
10
150.1683876436
20
99.5683024700
11
150.5450782372
21
105.0141480098
62
2
0
LINE
8
Setbacks
10
150.5450782372
20
105.0141480098
11
142.3457249545
21
105.5812997308
62
2
0
LINE
8
Setbacks
10
179.6284774984
20
120.8870634335
11
174.3442735363
21
121.4633508967
62
2
0
LINE
8
Setbacks
10
174.3442735363
20
121.4633508967
11
173.9606302850
21
116.8035189866
62
2
0
LINE
8
Setbacks
10
173.9606302850
20
116.8035189866
11
179.0598878414
21
116.4540774148
62
2
0
LINE
8
Setbacks
10
179.0598878414
20
116.4540774148
11
179.0604040480
21
116.4540004298
62
2
0
LINE
8
Setbacks
10
179.0604040480
20
116.4540004298
11
179.1429292869
21
116.4348804892
62
2
0
ENDSEC
0
EOF