999
Design created by Aurora
0
SECTION
2
HEADER
9
$ACADVER
1
AC1009
9
$INSUNITS
70
2
0
ENDSEC
0
SECTION
2
TABLES
0
TABLE
2
LTYPE
100
AcDbLinetypeTableRecord
2
LTYPE
0
LTYPE
2
DASHED
70
0
3
dashed line
72
65
73
2
40
4.0
49
2.0
49
-2.0
0
ENDTAB
0
TABLE
2
LAYER
70
2
0
LAYER
100
AcDbSymbolTable
100
AcDbLayerTable
2
Obstructions
70
0
62
7
6
CONTINUOUS
0
LAYER
100
AcDbSymbolTable
100
AcDbLayerTable
2
Modules
70
0
62
7
6
CONTINUOUS
0
ENDTAB
0
ENDSEC
0
SECTION
2
ENTITIES
0
LINE
8
Modules
10
-417.7358122300
20
-748.4630743900
11
-416.3037188490
21
-751.3493428461
62
254
0
LINE
8
Modules
10
-416.3037188490
20
-751.3493428461
11
-411.2428371696
21
-748.8382614046
62
254
0
LINE
8
Modules
10
-411.2428371696
20
-748.8382614046
11
-412.6749305506
21
-745.9519929486
62
254
0
LINE
8
Modules
10
-412.6749305506
20
-745.9519929486
11
-417.7358122300
21
-748.4630743900
62
254
0
LINE
8
Modules
10
-414.6744147287
20
-749.2003167882
11
-413.9396758089
21
-748.8357579262
62
254
0
LINE
8
Modules
10
-413.9396758089
20
-748.8357579262
11
-414.3042346709
21
-748.1010190064
62
254
0
LINE
8
Modules
10
-414.3042346709
20
-748.1010190064
11
-415.0389735907
21
-748.4655778684
62
254
0
LINE
8
Modules
10
-415.0389735907
20
-748.4655778684
11
-414.6744147287
21
-749.2003167882
62
254
0
LINE
8
Modules
10
-414.6744147287
20
-749.2003167882
11
-414.3042346709
21
-748.1010190064
62
254
0
TEXT
8
Modules
100
AcDbText
10
-414.8563568879
20
-748.7229051262
1
DC
7
NewTextStyle_4
40
0.2624672000000003
50
26.389444121140052
0
TEXT
8
Modules
100
AcDbText
10
-414.4023926925
20
-749.0104089082
1
AC
7
NewTextStyle_4
40
0.2624672000000003
50
26.389444121140052
0
LINE
8
Modules
10
-412.6376058134
20
-745.9334733584
11
-411.2055124325
21
-748.8197418144
62
254
0
LINE
8
Modules
10
-411.2055124325
20
-748.8197418144
11
-406.1446307530
21
-746.3086603730
62
254
0
LINE
8
Modules
10
-406.1446307530
20
-746.3086603730
11
-407.5767241340
21
-743.4223919169
62
254
0
LINE
8
Modules
10
-407.5767241340
20
-743.4223919169
11
-412.6376058134
21
-745.9334733584
62
254
0
LINE
8
Modules
10
-409.5762083121
20
-746.6707157566
11
-408.8414693923
21
-746.3061568946
62
254
0
LINE
8
Modules
10
-408.8414693923
20
-746.3061568946
11
-409.2060282543
21
-745.5714179748
62
254
0
LINE
8
Modules
10
-409.2060282543
20
-745.5714179748
11
-409.9407671741
21
-745.9359768368
62
254
0
LINE
8
Modules
10
-409.9407671741
20
-745.9359768368
11
-409.5762083121
21
-746.6707157566
62
254
0
LINE
8
Modules
10
-409.5762083121
20
-746.6707157566
11
-409.2060282543
21
-745.5714179748
62
254
0
TEXT
8
Modules
100
AcDbText
10
-409.7581504714
20
-746.1933040946
1
DC
7
NewTextStyle_4
40
0.2624672000000003
50
26.389444121140052
0
TEXT
8
Modules
100
AcDbText
10
-409.3041862759
20
-746.4808078766
1
AC
7
NewTextStyle_4
40
0.2624672000000003
50
26.389444121140052
0
LINE
8
Modules
10
-407.5393993969
20
-743.4038723267
11
-406.1073060159
21
-746.2901407828
62
254
0
LINE
8
Modules
10
-406.1073060159
20
-746.2901407828
11
-401.0464243365
21
-743.7790593414
62
254
0
LINE
8
Modules
10
-401.0464243365
20
-743.7790593414
11
-402.4785177174
21
-740.8927908853
62
254
0
LINE
8
Modules
10
-402.4785177174
20
-740.8927908853
11
-407.5393993969
21
-743.4038723267
62
254
0
LINE
8
Modules
10
-404.4780018956
20
-744.1411147249
11
-403.7432629758
21
-743.7765558629
62
254
0
LINE
8
Modules
10
-403.7432629758
20
-743.7765558629
11
-404.1078218378
21
-743.0418169432
62
254
0
LINE
8
Modules
10
-404.1078218378
20
-743.0418169432
11
-404.8425607576
21
-743.4063758052
62
254
0
LINE
8
Modules
10
-404.8425607576
20
-743.4063758052
11
-404.4780018956
21
-744.1411147249
62
254
0
LINE
8
Modules
10
-404.4780018956
20
-744.1411147249
11
-404.1078218378
21
-743.0418169432
62
254
0
TEXT
8
Modules
100
AcDbText
10
-404.6599440548
20
-743.6637030630
1
DC
7
NewTextStyle_4
40
0.2624672000000003
50
26.389444121140052
0
TEXT
8
Modules
100
AcDbText
10
-404.2059798594
20
-743.9512068450
1
AC
7
NewTextStyle_4
40
0.2624672000000003
50
26.389444121140052
0
LINE
8
Modules
10
-402.4411929803
20
-740.8742712951
11
-401.0090995993
21
-743.7605397512
62
254
0
LINE
8
Modules
10
-401.0090995993
20
-743.7605397512
11
-395.9482179199
21
-741.2494583097
62
254
0
LINE
8
Modules
10
-395.9482179199
20
-741.2494583097
11
-397.3803113009
21
-738.3631898537
62
254
0
LINE
8
Modules
10
-397.3803113009
20
-738.3631898537
11
-402.4411929803
21
-740.8742712951
62
254
0
LINE
8
Modules
10
-399.3797954790
20
-741.6115136933
11
-398.6450565592
21
-741.2469548313
62
254
0
LINE
8
Modules
10
-398.6450565592
20
-741.2469548313
11
-399.0096154212
21
-740.5122159115
62
254
0
LINE
8
Modules
10
-399.0096154212
20
-740.5122159115
11
-399.7443543410
21
-740.8767747735
62
254
0
LINE
8
Modules
10
-399.7443543410
20
-740.8767747735
11
-399.3797954790
21
-741.6115136933
62
254
0
LINE
8
Modules
10
-399.3797954790
20
-741.6115136933
11
-399.0096154212
21
-740.5122159115
62
254
0
TEXT
8
Modules
100
AcDbText
10
-399.5617376382
20
-741.1341020313
1
DC
7
NewTextStyle_4
40
0.2624672000000003
50
26.389444121140052
0
TEXT
8
Modules
100
AcDbText
10
-399.1077734428
20
-741.4216058133
1
AC
7
NewTextStyle_4
40
0.2624672000000003
50
26.389444121140052
0
LINE
8
Modules
10
-397.3429865637
20
-738.3446702635
11
-395.9108931828
21
-741.2309387195
62
254
0
LINE
8
Modules
10
-395.9108931828
20
-741.2309387195
11
-390.8500115033
21
-738.7198572781
62
254
0
LINE
8
Modules
10
-390.8500115033
20
-738.7198572781
11
-392.2821048843
21
-735.8335888220
62
254
0
LINE
8
Modules
10
-392.2821048843
20
-735.8335888220
11
-397.3429865637
21
-738.3446702635
62
254
0
LINE
8
Modules
10
-394.2815890624
20
-739.0819126617
11
-393.5468501427
21
-738.7173537997
62
254
0
LINE
8
Modules
10
-393.5468501427
20
-738.7173537997
11
-393.9114090046
21
-737.9826148799
62
254
0
LINE
8
Modules
10
-393.9114090046
20
-737.9826148799
11
-394.6461479244
21
-738.3471737419
62
254
0
LINE
8
Modules
10
-394.6461479244
20
-738.3471737419
11
-394.2815890624
21
-739.0819126617
62
254
0
LINE
8
Modules
10
-394.2815890624
20
-739.0819126617
11
-393.9114090046
21
-737.9826148799
62
254
0
TEXT
8
Modules
100
AcDbText
10
-394.4635312217
20
-738.6045009997
1
DC
7
NewTextStyle_4
40
0.2624672000000003
50
26.389444121140052
0
TEXT
8
Modules
100
AcDbText
10
-394.0095670262
20
-738.8920047817
1
AC
7
NewTextStyle_4
40
0.2624672000000003
50
26.389444121140052
0
LINE
8
Modules
10
-392.2447801472
20
-735.8150692318
11
-390.8126867662
21
-738.7013376879
62
254
0
LINE
8
Modules
10
-390.8126867662
20
-738.7013376879
11
-385.7518050868
21
-736.1902562464
62
254
0
LINE
8
Modules
10
-385.7518050868
20
-736.1902562464
11
-387.1838984677
21
-733.3039877904
62
254
0
LINE
8
Modules
10
-387.1838984677
20
-733.3039877904
11
-392.2447801472
21
-735.8150692318
62
254
0
LINE
8
Modules
10
-389.1833826459
20
-736.5523116300
11
-388.4486437261
21
-736.1877527680
62
254
0
LINE
8
Modules
10
-388.4486437261
20
-736.1877527680
11
-388.8132025881
21
-735.4530138483
62
254
0
LINE
8
Modules
10
-388.8132025881
20
-735.4530138483
11
-389.5479415079
21
-735.8175727103
62
254
0
LINE
8
Modules
10
-389.5479415079
20
-735.8175727103
11
-389.1833826459
21
-736.5523116300
62
254
0
LINE
8
Modules
10
-389.1833826459
20
-736.5523116300
11
-388.8132025881
21
-735.4530138483
62
254
0
TEXT
8
Modules
100
AcDbText
10
-389.3653248051
20
-736.0748999680
1
DC
7
NewTextStyle_4
40
0.2624672000000003
50
26.389444121140052
0
TEXT
8
Modules
100
AcDbText
10
-388.9113606097
20
-736.3624037500
1
AC
7
NewTextStyle_4
40
0.2624672000000003
50
26.389444121140052
0
LINE
8
Modules
10
-387.1465737306
20
-733.2854682002
11
-385.7144803496
21
-736.1717366563
62
254
0
LINE
8
Modules
10
-385.7144803496
20
-736.1717366563
11
-380.6535986702
21
-733.6606552148
62
254
0
LINE
8
Modules
10
-380.6535986702
20
-733.6606552148
11
-382.0856920512
21
-730.7743867588
62
254
0
LINE
8
Modules
10
-382.0856920512
20
-730.7743867588
11
-387.1465737306
21
-733.2854682002
62
254
0
LINE
8
Modules
10
-384.0851762293
20
-734.0227105984
11
-383.3504373095
21
-733.6581517364
62
254
0
LINE
8
Modules
10
-383.3504373095
20
-733.6581517364
11
-383.7149961715
21
-732.9234128166
62
254
0
LINE
8
Modules
10
-383.7149961715
20
-732.9234128166
11
-384.4497350913
21
-733.2879716786
62
254
0
LINE
8
Modules
10
-384.4497350913
20
-733.2879716786
11
-384.0851762293
21
-734.0227105984
62
254
0
LINE
8
Modules
10
-384.0851762293
20
-734.0227105984
11
-383.7149961715
21
-732.9234128166
62
254
0
TEXT
8
Modules
100
AcDbText
10
-384.2671183886
20
-733.5452989364
1
DC
7
NewTextStyle_4
40
0.2624672000000003
50
26.389444121140052
0
TEXT
8
Modules
100
AcDbText
10
-383.8131541931
20
-733.8328027184
1
AC
7
NewTextStyle_4
40
0.2624672000000003
50
26.389444121140052
0
LINE
8
Modules
10
-382.0483673141
20
-730.7558671686
11
-380.6162739331
21
-733.6421356246
62
254
0
LINE
8
Modules
10
-380.6162739331
20
-733.6421356246
11
-375.5553922536
21
-731.1310541832
62
254
0
LINE
8
Modules
10
-375.5553922536
20
-731.1310541832
11
-376.9874856346
21
-728.2447857271
62
254
0
LINE
8
Modules
10
-376.9874856346
20
-728.2447857271
11
-382.0483673141
21
-730.7558671686
62
254
0
LINE
8
Modules
10
-378.9869698127
20
-731.4931095668
11
-378.2522308930
21
-731.1285507048
62
254
0
LINE
8
Modules
10
-378.2522308930
20
-731.1285507048
11
-378.6167897550
21
-730.3938117850
62
254
0
LINE
8
Modules
10
-378.6167897550
20
-730.3938117850
11
-379.3515286747
21
-730.7583706470
62
254
0
LINE
8
Modules
10
-379.3515286747
20
-730.7583706470
11
-378.9869698127
21
-731.4931095668
62
254
0
LINE
8
Modules
10
-378.9869698127
20
-731.4931095668
11
-378.6167897550
21
-730.3938117850
62
254
0
TEXT
8
Modules
100
AcDbText
10
-379.1689119720
20
-731.0156979048
1
DC
7
NewTextStyle_4
40
0.2624672000000003
50
26.389444121140052
0
TEXT
8
Modules
100
AcDbText
10
-378.7149477765
20
-731.3032016868
1
AC
7
NewTextStyle_4
40
0.2624672000000003
50
26.389444121140052
0
LINE
8
Modules
10
-376.9501608975
20
-728.2262661369
11
-375.5180675165
21
-731.1125345930
62
254
0
LINE
8
Modules
10
-375.5180675165
20
-731.1125345930
11
-370.4571858371
21
-728.6014531515
62
254
0
LINE
8
Modules
10
-370.4571858371
20
-728.6014531515
11
-371.8892792181
21
-725.7151846955
62
254
0
LINE
8
Modules
10
-371.8892792181
20
-725.7151846955
11
-376.9501608975
21
-728.2262661369
62
254
0
LINE
8
Modules
10
-373.8887633962
20
-728.9635085351
11
-373.1540244764
21
-728.5989496731
62
254
0
LINE
8
Modules
10
-373.1540244764
20
-728.5989496731
11
-373.5185833384
21
-727.8642107533
62
254
0
LINE
8
Modules
10
-373.5185833384
20
-727.8642107533
11
-374.2533222582
21
-728.2287696153
62
254
0
LINE
8
Modules
10
-374.2533222582
20
-728.2287696153
11
-373.8887633962
21
-728.9635085351
62
254
0
LINE
8
Modules
10
-373.8887633962
20
-728.9635085351
11
-373.5185833384
21
-727.8642107533
62
254
0
TEXT
8
Modules
100
AcDbText
10
-374.0707055554
20
-728.4860968731
1
DC
7
NewTextStyle_4
40
0.2624672000000003
50
26.389444121140052
0
TEXT
8
Modules
100
AcDbText
10
-373.6167413600
20
-728.7736006551
1
AC
7
NewTextStyle_4
40
0.2624672000000003
50
26.389444121140052
0
LINE
8
Modules
10
-371.8519544809
20
-725.6966651053
11
-370.4198611000
21
-728.5829335614
62
254
0
LINE
8
Modules
10
-370.4198611000
20
-728.5829335614
11
-365.3589794205
21
-726.0718521199
62
254
0
LINE
8
Modules
10
-365.3589794205
20
-726.0718521199
11
-366.7910728015
21
-723.1855836638
62
254
0
LINE
8
Modules
10
-366.7910728015
20
-723.1855836638
11
-371.8519544809
21
-725.6966651053
62
254
0
LINE
8
Modules
10
-368.7905569796
20
-726.4339075035
11
-368.0558180598
21
-726.0693486415
62
254
0
LINE
8
Modules
10
-368.0558180598
20
-726.0693486415
11
-368.4203769218
21
-725.3346097217
62
254
0
LINE
8
Modules
10
-368.4203769218
20
-725.3346097217
11
-369.1551158416
21
-725.6991685837
62
254
0
LINE
8
Modules
10
-369.1551158416
20
-725.6991685837
11
-368.7905569796
21
-726.4339075035
62
254
0
LINE
8
Modules
10
-368.7905569796
20
-726.4339075035
11
-368.4203769218
21
-725.3346097217
62
254
0
TEXT
8
Modules
100
AcDbText
10
-368.9724991389
20
-725.9564958415
1
DC
7
NewTextStyle_4
40
0.2624672000000003
50
26.389444121140052
0
TEXT
8
Modules
100
AcDbText
10
-368.5185349434
20
-726.2439996235
1
AC
7
NewTextStyle_4
40
0.2624672000000003
50
26.389444121140052
0
LINE
8
Modules
10
-366.7537480644
20
-723.1670640737
11
-365.3216546834
21
-726.0533325297
62
254
0
LINE
8
Modules
10
-365.3216546834
20
-726.0533325297
11
-360.2607730039
21
-723.5422510883
62
254
0
LINE
8
Modules
10
-360.2607730039
20
-723.5422510883
11
-361.6928663849
21
-720.6559826322
62
254
0
LINE
8
Modules
10
-361.6928663849
20
-720.6559826322
11
-366.7537480644
21
-723.1670640737
62
254
0
LINE
8
Modules
10
-363.6923505630
20
-723.9043064719
11
-362.9576116433
21
-723.5397476099
62
254
0
LINE
8
Modules
10
-362.9576116433
20
-723.5397476099
11
-363.3221705053
21
-722.8050086901
62
254
0
LINE
8
Modules
10
-363.3221705053
20
-722.8050086901
11
-364.0569094250
21
-723.1695675521
62
254
0
LINE
8
Modules
10
-364.0569094250
20
-723.1695675521
11
-363.6923505630
21
-723.9043064719
62
254
0
LINE
8
Modules
10
-363.6923505630
20
-723.9043064719
11
-363.3221705053
21
-722.8050086901
62
254
0
TEXT
8
Modules
100
AcDbText
10
-363.8742927223
20
-723.4268948099
1
DC
7
NewTextStyle_4
40
0.2624672000000003
50
26.389444121140052
0
TEXT
8
Modules
100
AcDbText
10
-363.4203285269
20
-723.7143985919
1
AC
7
NewTextStyle_4
40
0.2624672000000003
50
26.389444121140052
0
LINE
8
Modules
10
-416.2876804135
20
-751.3816670166
11
-414.8555870325
21
-754.2679354727
62
254
0
LINE
8
Modules
10
-414.8555870325
20
-754.2679354727
11
-409.7947053530
21
-751.7568540312
62
254
0
LINE
8
Modules
10
-409.7947053530
20
-751.7568540312
11
-411.2267987340
21
-748.8705855752
62
254
0
LINE
8
Modules
10
-411.2267987340
20
-748.8705855752
11
-416.2876804135
21
-751.3816670166
62
254
0
LINE
8
Modules
10
-413.2262829121
20
-752.1189094148
11
-412.4915439924
21
-751.7543505528
62
254
0
LINE
8
Modules
10
-412.4915439924
20
-751.7543505528
11
-412.8561028544
21
-751.0196116330
62
254
0
LINE
8
Modules
10
-412.8561028544
20
-751.0196116330
11
-413.5908417741
21
-751.3841704950
62
254
0
LINE
8
Modules
10
-413.5908417741
20
-751.3841704950
11
-413.2262829121
21
-752.1189094148
62
254
0
LINE
8
Modules
10
-413.2262829121
20
-752.1189094148
11
-412.8561028544
21
-751.0196116330
62
254
0
TEXT
8
Modules
100
AcDbText
10
-413.4082250714
20
-751.6414977528
1
DC
7
NewTextStyle_4
40
0.2624672000000003
50
26.389444121140052
0
TEXT
8
Modules
100
AcDbText
10
-412.9542608759
20
-751.9290015348
1
AC
7
NewTextStyle_4
40
0.2624672000000003
50
26.389444121140052
0
LINE
8
Modules
10
-411.1894739969
20
-748.8520659850
11
-409.7573806159
21
-751.7383344410
62
254
0
LINE
8
Modules
10
-409.7573806159
20
-751.7383344410
11
-404.6964989365
21
-749.2272529996
62
254
0
LINE
8
Modules
10
-404.6964989365
20
-749.2272529996
11
-406.1285923175
21
-746.3409845435
62
254
0
LINE
8
Modules
10
-406.1285923175
20
-746.3409845435
11
-411.1894739969
21
-748.8520659850
62
254
0
LINE
8
Modules
10
-408.1280764956
20
-749.5893083832
11
-407.3933375758
21
-749.2247495212
62
254
0
LINE
8
Modules
10
-407.3933375758
20
-749.2247495212
11
-407.7578964378
21
-748.4900106014
62
254
0
LINE
8
Modules
10
-407.7578964378
20
-748.4900106014
11
-408.4926353576
21
-748.8545694634
62
254
0
LINE
8
Modules
10
-408.4926353576
20
-748.8545694634
11
-408.1280764956
21
-749.5893083832
62
254
0
LINE
8
Modules
10
-408.1280764956
20
-749.5893083832
11
-407.7578964378
21
-748.4900106014
62
254
0
TEXT
8
Modules
100
AcDbText
10
-408.3100186548
20
-749.1118967212
1
DC
7
NewTextStyle_4
40
0.2624672000000003
50
26.389444121140052
0
TEXT
8
Modules
100
AcDbText
10
-407.8560544594
20
-749.3994005032
1
AC
7
NewTextStyle_4
40
0.2624672000000003
50
26.389444121140052
0
LINE
8
Modules
10
-406.0912675803
20
-746.3224649533
11
-404.6591741993
21
-749.2087334094
62
254
0
LINE
8
Modules
10
-404.6591741993
20
-749.2087334094
11
-399.5982925199
21
-746.6976519680
62
254
0
LINE
8
Modules
10
-399.5982925199
20
-746.6976519680
11
-401.0303859009
21
-743.8113835119
62
254
0
LINE
8
Modules
10
-401.0303859009
20
-743.8113835119
11
-406.0912675803
21
-746.3224649533
62
254
0
LINE
8
Modules
10
-403.0298700790
20
-747.0597073515
11
-402.2951311592
21
-746.6951484895
62
254
0
LINE
8
Modules
10
-402.2951311592
20
-746.6951484895
11
-402.6596900212
21
-745.9604095698
62
254
0
LINE
8
Modules
10
-402.6596900212
20
-745.9604095698
11
-403.3944289410
21
-746.3249684318
62
254
0
LINE
8
Modules
10
-403.3944289410
20
-746.3249684318
11
-403.0298700790
21
-747.0597073515
62
254
0
LINE
8
Modules
10
-403.0298700790
20
-747.0597073515
11
-402.6596900212
21
-745.9604095698
62
254
0
TEXT
8
Modules
100
AcDbText
10
-403.2118122383
20
-746.5822956896
1
DC
7
NewTextStyle_4
40
0.2624672000000003
50
26.389444121140052
0
TEXT
8
Modules
100
AcDbText
10
-402.7578480428
20
-746.8697994716
1
AC
7
NewTextStyle_4
40
0.2624672000000003
50
26.389444121140052
0
LINE
8
Modules
10
-400.9930611638
20
-743.7928639217
11
-399.5609677828
21
-746.6791323778
62
254
0
LINE
8
Modules
10
-399.5609677828
20
-746.6791323778
11
-394.5000861033
21
-744.1680509363
62
254
0
LINE
8
Modules
10
-394.5000861033
20
-744.1680509363
11
-395.9321794843
21
-741.2817824803
62
254
0
LINE
8
Modules
10
-395.9321794843
20
-741.2817824803
11
-400.9930611638
21
-743.7928639217
62
254
0
LINE
8
Modules
10
-397.9316636624
20
-744.5301063199
11
-397.1969247427
21
-744.1655474579
62
254
0
LINE
8
Modules
10
-397.1969247427
20
-744.1655474579
11
-397.5614836047
21
-743.4308085381
62
254
0
LINE
8
Modules
10
-397.5614836047
20
-743.4308085381
11
-398.2962225244
21
-743.7953674001
62
254
0
LINE
8
Modules
10
-398.2962225244
20
-743.7953674001
11
-397.9316636624
21
-744.5301063199
62
254
0
LINE
8
Modules
10
-397.9316636624
20
-744.5301063199
11
-397.5614836047
21
-743.4308085381
62
254
0
TEXT
8
Modules
100
AcDbText
10
-398.1136058217
20
-744.0526946579
1
DC
7
NewTextStyle_4
40
0.2624672000000003
50
26.389444121140052
0
TEXT
8
Modules
100
AcDbText
10
-397.6596416263
20
-744.3401984399
1
AC
7
NewTextStyle_4
40
0.2624672000000003
50
26.389444121140052
0
LINE
8
Modules
10
-395.8948547472
20
-741.2632628901
11
-394.4627613662
21
-744.1495313461
62
254
0
LINE
8
Modules
10
-394.4627613662
20
-744.1495313461
11
-389.4018796868
21
-741.6384499047
62
254
0
LINE
8
Modules
10
-389.4018796868
20
-741.6384499047
11
-390.8339730678
21
-738.7521814486
62
254
0
LINE
8
Modules
10
-390.8339730678
20
-738.7521814486
11
-395.8948547472
21
-741.2632628901
62
254
0
LINE
8
Modules
10
-392.8334572459
20
-742.0005052883
11
-392.0987183261
21
-741.6359464263
62
254
0
LINE
8
Modules
10
-392.0987183261
20
-741.6359464263
11
-392.4632771881
21
-740.9012075065
62
254
0
LINE
8
Modules
10
-392.4632771881
20
-740.9012075065
11
-393.1980161079
21
-741.2657663685
62
254
0
LINE
8
Modules
10
-393.1980161079
20
-741.2657663685
11
-392.8334572459
21
-742.0005052883
62
254
0
LINE
8
Modules
10
-392.8334572459
20
-742.0005052883
11
-392.4632771881
21
-740.9012075065
62
254
0
TEXT
8
Modules
100
AcDbText
10
-393.0153994051
20
-741.5230936263
1
DC
7
NewTextStyle_4
40
0.2624672000000003
50
26.389444121140052
0
TEXT
8
Modules
100
AcDbText
10
-392.5614352097
20
-741.8105974083
1
AC
7
NewTextStyle_4
40
0.2624672000000003
50
26.389444121140052
0
LINE
8
Modules
10
-390.7966483306
20
-738.7336618584
11
-389.3645549497
21
-741.6199303145
62
254
0
LINE
8
Modules
10
-389.3645549497
20
-741.6199303145
11
-384.3036732702
21
-739.1088488730
62
254
0
LINE
8
Modules
10
-384.3036732702
20
-739.1088488730
11
-385.7357666512
21
-736.2225804170
62
254
0
LINE
8
Modules
10
-385.7357666512
20
-736.2225804170
11
-390.7966483306
21
-738.7336618584
62
254
0
LINE
8
Modules
10
-387.7352508293
20
-739.4709042566
11
-387.0005119095
21
-739.1063453946
62
254
0
LINE
8
Modules
10
-387.0005119095
20
-739.1063453946
11
-387.3650707715
21
-738.3716064749
62
254
0
LINE
8
Modules
10
-387.3650707715
20
-738.3716064749
11
-388.0998096913
21
-738.7361653368
62
254
0
LINE
8
Modules
10
-388.0998096913
20
-738.7361653368
11
-387.7352508293
21
-739.4709042566
62
254
0
LINE
8
Modules
10
-387.7352508293
20
-739.4709042566
11
-387.3650707715
21
-738.3716064749
62
254
0
TEXT
8
Modules
100
AcDbText
10
-387.9171929886
20
-738.9934925946
1
DC
7
NewTextStyle_4
40
0.2624672000000003
50
26.389444121140052
0
TEXT
8
Modules
100
AcDbText
10
-387.4632287931
20
-739.2809963766
1
AC
7
NewTextStyle_4
40
0.2624672000000003
50
26.389444121140052
0
LINE
8
Modules
10
-385.6984419141
20
-736.2040608268
11
-384.2663485331
21
-739.0903292829
62
254
0
LINE
8
Modules
10
-384.2663485331
20
-739.0903292829
11
-379.2054668537
21
-736.5792478414
62
254
0
LINE
8
Modules
10
-379.2054668537
20
-736.5792478414
11
-380.6375602346
21
-733.6929793854
62
254
0
LINE
8
Modules
10
-380.6375602346
20
-733.6929793854
11
-385.6984419141
21
-736.2040608268
62
254
0
LINE
8
Modules
10
-382.6370444128
20
-736.9413032250
11
-381.9023054930
21
-736.5767443630
62
254
0
LINE
8
Modules
10
-381.9023054930
20
-736.5767443630
11
-382.2668643550
21
-735.8420054432
62
254
0
LINE
8
Modules
10
-382.2668643550
20
-735.8420054432
11
-383.0016032748
21
-736.2065643052
62
254
0
LINE
8
Modules
10
-383.0016032748
20
-736.2065643052
11
-382.6370444128
21
-736.9413032250
62
254
0
LINE
8
Modules
10
-382.6370444128
20
-736.9413032250
11
-382.2668643550
21
-735.8420054432
62
254
0
TEXT
8
Modules
100
AcDbText
10
-382.8189865720
20
-736.4638915630
1
DC
7
NewTextStyle_4
40
0.2624672000000003
50
26.389444121140052
0
TEXT
8
Modules
100
AcDbText
10
-382.3650223766
20
-736.7513953450
1
AC
7
NewTextStyle_4
40
0.2624672000000003
50
26.389444121140052
0
LINE
8
Modules
10
-380.6002354975
20
-733.6744597952
11
-379.1681421165
21
-736.5607282512
62
254
0
LINE
8
Modules
10
-379.1681421165
20
-736.5607282512
11
-374.1072604371
21
-734.0496468098
62
254
0
LINE
8
Modules
10
-374.1072604371
20
-734.0496468098
11
-375.5393538181
21
-731.1633783537
62
254
0
LINE
8
Modules
10
-375.5393538181
20
-731.1633783537
11
-380.6002354975
21
-733.6744597952
62
254
0
LINE
8
Modules
10
-377.5388379962
20
-734.4117021934
11
-376.8040990764
21
-734.0471433314
62
254
0
LINE
8
Modules
10
-376.8040990764
20
-734.0471433314
11
-377.1686579384
21
-733.3124044116
62
254
0
LINE
8
Modules
10
-377.1686579384
20
-733.3124044116
11
-377.9033968582
21
-733.6769632736
62
254
0
LINE
8
Modules
10
-377.9033968582
20
-733.6769632736
11
-377.5388379962
21
-734.4117021934
62
254
0
LINE
8
Modules
10
-377.5388379962
20
-734.4117021934
11
-377.1686579384
21
-733.3124044116
62
254
0
TEXT
8
Modules
100
AcDbText
10
-377.7207801554
20
-733.9342905314
1
DC
7
NewTextStyle_4
40
0.2624672000000003
50
26.389444121140052
0
TEXT
8
Modules
100
AcDbText
10
-377.2668159600
20
-734.2217943134
1
AC
7
NewTextStyle_4
40
0.2624672000000003
50
26.389444121140052
0
LINE
8
Modules
10
-375.5020290809
20
-731.1448587635
11
-374.0699357000
21
-734.0311272196
62
254
0
LINE
8
Modules
10
-374.0699357000
20
-734.0311272196
11
-369.0090540205
21
-731.5200457781
62
254
0
LINE
8
Modules
10
-369.0090540205
20
-731.5200457781
11
-370.4411474015
21
-728.6337773221
62
254
0
LINE
8
Modules
10
-370.4411474015
20
-728.6337773221
11
-375.5020290809
21
-731.1448587635
62
254
0
LINE
8
Modules
10
-372.4406315796
20
-731.8821011617
11
-371.7058926598
21
-731.5175422997
62
254
0
LINE
8
Modules
10
-371.7058926598
20
-731.5175422997
11
-372.0704515218
21
-730.7828033799
62
254
0
LINE
8
Modules
10
-372.0704515218
20
-730.7828033799
11
-372.8051904416
21
-731.1473622419
62
254
0
LINE
8
Modules
10
-372.8051904416
20
-731.1473622419
11
-372.4406315796
21
-731.8821011617
62
254
0
LINE
8
Modules
10
-372.4406315796
20
-731.8821011617
11
-372.0704515218
21
-730.7828033799
62
254
0
TEXT
8
Modules
100
AcDbText
10
-372.6225737389
20
-731.4046894997
1
DC
7
NewTextStyle_4
40
0.2624672000000003
50
26.389444121140052
0
TEXT
8
Modules
100
AcDbText
10
-372.1686095434
20
-731.6921932817
1
AC
7
NewTextStyle_4
40
0.2624672000000003
50
26.389444121140052
0
LINE
8
Modules
10
-370.4038226644
20
-728.6152577319
11
-368.9717292834
21
-731.5015261880
62
254
0
LINE
8
Modules
10
-368.9717292834
20
-731.5015261880
11
-363.9108476040
21
-728.9904447465
62
254
0
LINE
8
Modules
10
-363.9108476040
20
-728.9904447465
11
-365.3429409849
21
-726.1041762904
62
254
0
LINE
8
Modules
10
-365.3429409849
20
-726.1041762904
11
-370.4038226644
21
-728.6152577319
62
254
0
LINE
8
Modules
10
-367.3424251631
20
-729.3525001301
11
-366.6076862433
21
-728.9879412681
62
254
0
LINE
8
Modules
10
-366.6076862433
20
-728.9879412681
11
-366.9722451053
21
-728.2532023483
62
254
0
LINE
8
Modules
10
-366.9722451053
20
-728.2532023483
11
-367.7069840251
21
-728.6177612103
62
254
0
LINE
8
Modules
10
-367.7069840251
20
-728.6177612103
11
-367.3424251631
21
-729.3525001301
62
254
0
LINE
8
Modules
10
-367.3424251631
20
-729.3525001301
11
-366.9722451053
21
-728.2532023483
62
254
0
TEXT
8
Modules
100
AcDbText
10
-367.5243673223
20
-728.8750884681
1
DC
7
NewTextStyle_4
40
0.2624672000000003
50
26.389444121140052
0
TEXT
8
Modules
100
AcDbText
10
-367.0704031269
20
-729.1625922501
1
AC
7
NewTextStyle_4
40
0.2624672000000003
50
26.389444121140052
0
LINE
8
Modules
10
-365.3056162478
20
-726.0856567003
11
-363.8735228668
21
-728.9719251563
62
254
0
LINE
8
Modules
10
-363.8735228668
20
-728.9719251563
11
-358.8126411874
21
-726.4608437149
62
254
0
LINE
8
Modules
10
-358.8126411874
20
-726.4608437149
11
-360.2447345684
21
-723.5745752588
62
254
0
LINE
8
Modules
10
-360.2447345684
20
-723.5745752588
11
-365.3056162478
21
-726.0856567003
62
254
0
LINE
8
Modules
10
-362.2442187465
20
-726.8228990984
11
-361.5094798267
21
-726.4583402365
62
254
0
LINE
8
Modules
10
-361.5094798267
20
-726.4583402365
11
-361.8740386887
21
-725.7236013167
62
254
0
LINE
8
Modules
10
-361.8740386887
20
-725.7236013167
11
-362.6087776085
21
-726.0881601787
62
254
0
LINE
8
Modules
10
-362.6087776085
20
-726.0881601787
11
-362.2442187465
21
-726.8228990984
62
254
0
LINE
8
Modules
10
-362.2442187465
20
-726.8228990984
11
-361.8740386887
21
-725.7236013167
62
254
0
TEXT
8
Modules
100
AcDbText
10
-362.4261609057
20
-726.3454874365
1
DC
7
NewTextStyle_4
40
0.2624672000000003
50
26.389444121140052
0
TEXT
8
Modules
100
AcDbText
10
-361.9721967103
20
-726.6329912185
1
AC
7
NewTextStyle_4
40
0.2624672000000003
50
26.389444121140052
0
LINE
8
Modules
10
-414.8395485969
20
-754.3002596432
11
-413.4074552159
21
-757.1865280993
62
254
0
LINE
8
Modules
10
-413.4074552159
20
-757.1865280993
11
-408.3465735365
21
-754.6754466578
62
254
0
LINE
8
Modules
10
-408.3465735365
20
-754.6754466578
11
-409.7786669175
21
-751.7891782018
62
254
0
LINE
8
Modules
10
-409.7786669175
20
-751.7891782018
11
-414.8395485969
21
-754.3002596432
62
254
0
LINE
8
Modules
10
-411.7781510956
20
-755.0375020414
11
-411.0434121758
21
-754.6729431794
62
254
0
LINE
8
Modules
10
-411.0434121758
20
-754.6729431794
11
-411.4079710378
21
-753.9382042596
62
254
0
LINE
8
Modules
10
-411.4079710378
20
-753.9382042596
11
-412.1427099576
21
-754.3027631216
62
254
0
LINE
8
Modules
10
-412.1427099576
20
-754.3027631216
11
-411.7781510956
21
-755.0375020414
62
254
0
LINE
8
Modules
10
-411.7781510956
20
-755.0375020414
11
-411.4079710378
21
-753.9382042596
62
254
0
TEXT
8
Modules
100
AcDbText
10
-411.9600932548
20
-754.5600903794
1
DC
7
NewTextStyle_4
40
0.2624672000000003
50
26.389444121140052
0
TEXT
8
Modules
100
AcDbText
10
-411.5061290594
20
-754.8475941614
1
AC
7
NewTextStyle_4
40
0.2624672000000003
50
26.389444121140052
0
LINE
8
Modules
10
-409.7413421803
20
-751.7706586116
11
-408.3092487994
21
-754.6569270676
62
254
0
LINE
8
Modules
10
-408.3092487994
20
-754.6569270676
11
-403.2483671199
21
-752.1458456262
62
254
0
LINE
8
Modules
10
-403.2483671199
20
-752.1458456262
11
-404.6804605009
21
-749.2595771701
62
254
0
LINE
8
Modules
10
-404.6804605009
20
-749.2595771701
11
-409.7413421803
21
-751.7706586116
62
254
0
LINE
8
Modules
10
-406.6799446790
20
-752.5079010098
11
-405.9452057592
21
-752.1433421478
62
254
0
LINE
8
Modules
10
-405.9452057592
20
-752.1433421478
11
-406.3097646212
21
-751.4086032280
62
254
0
LINE
8
Modules
10
-406.3097646212
20
-751.4086032280
11
-407.0445035410
21
-751.7731620900
62
254
0
LINE
8
Modules
10
-407.0445035410
20
-751.7731620900
11
-406.6799446790
21
-752.5079010098
62
254
0
LINE
8
Modules
10
-406.6799446790
20
-752.5079010098
11
-406.3097646212
21
-751.4086032280
62
254
0
TEXT
8
Modules
100
AcDbText
10
-406.8618868383
20
-752.0304893478
1
DC
7
NewTextStyle_4
40
0.2624672000000003
50
26.389444121140052
0
TEXT
8
Modules
100
AcDbText
10
-406.4079226428
20
-752.3179931298
1
AC
7
NewTextStyle_4
40
0.2624672000000003
50
26.389444121140052
0
LINE
8
Modules
10
-404.6431357638
20
-749.2410575799
11
-403.2110423828
21
-752.1273260360
62
254
0
LINE
8
Modules
10
-403.2110423828
20
-752.1273260360
11
-398.1501607034
21
-749.6162445946
62
254
0
LINE
8
Modules
10
-398.1501607034
20
-749.6162445946
11
-399.5822540843
21
-746.7299761385
62
254
0
LINE
8
Modules
10
-399.5822540843
20
-746.7299761385
11
-404.6431357638
21
-749.2410575799
62
254
0
LINE
8
Modules
10
-401.5817382625
20
-749.9782999781
11
-400.8469993427
21
-749.6137411161
62
254
0
LINE
8
Modules
10
-400.8469993427
20
-749.6137411161
11
-401.2115582047
21
-748.8790021964
62
254
0
LINE
8
Modules
10
-401.2115582047
20
-748.8790021964
11
-401.9462971245
21
-749.2435610584
62
254
0
LINE
8
Modules
10
-401.9462971245
20
-749.2435610584
11
-401.5817382625
21
-749.9782999781
62
254
0
LINE
8
Modules
10
-401.5817382625
20
-749.9782999781
11
-401.2115582047
21
-748.8790021964
62
254
0
TEXT
8
Modules
100
AcDbText
10
-401.7636804217
20
-749.5008883162
1
DC
7
NewTextStyle_4
40
0.2624672000000003
50
26.389444121140052
0
TEXT
8
Modules
100
AcDbText
10
-401.3097162263
20
-749.7883920981
1
AC
7
NewTextStyle_4
40
0.2624672000000003
50
26.389444121140052
0
LINE
8
Modules
10
-399.5449293472
20
-746.7114565483
11
-398.1128359662
21
-749.5977250044
62
254
0
LINE
8
Modules
10
-398.1128359662
20
-749.5977250044
11
-393.0519542868
21
-747.0866435629
62
254
0
LINE
8
Modules
10
-393.0519542868
20
-747.0866435629
11
-394.4840476678
21
-744.2003751069
62
254
0
LINE
8
Modules
10
-394.4840476678
20
-744.2003751069
11
-399.5449293472
21
-746.7114565483
62
254
0
LINE
8
Modules
10
-396.4835318459
20
-747.4486989465
11
-395.7487929261
21
-747.0841400845
62
254
0
LINE
8
Modules
10
-395.7487929261
20
-747.0841400845
11
-396.1133517881
21
-746.3494011647
62
254
0
LINE
8
Modules
10
-396.1133517881
20
-746.3494011647
11
-396.8480907079
21
-746.7139600267
62
254
0
LINE
8
Modules
10
-396.8480907079
20
-746.7139600267
11
-396.4835318459
21
-747.4486989465
62
254
0
LINE
8
Modules
10
-396.4835318459
20
-747.4486989465
11
-396.1133517881
21
-746.3494011647
62
254
0
TEXT
8
Modules
100
AcDbText
10
-396.6654740051
20
-746.9712872845
1
DC
7
NewTextStyle_4
40
0.2624672000000003
50
26.389444121140052
0
TEXT
8
Modules
100
AcDbText
10
-396.2115098097
20
-747.2587910665
1
AC
7
NewTextStyle_4
40
0.2624672000000003
50
26.389444121140052
0
LINE
8
Modules
10
-394.4467229306
20
-744.1818555167
11
-393.0146295497
21
-747.0681239727
62
254
0
LINE
8
Modules
10
-393.0146295497
20
-747.0681239727
11
-387.9537478702
21
-744.5570425313
62
254
0
LINE
8
Modules
10
-387.9537478702
20
-744.5570425313
11
-389.3858412512
21
-741.6707740752
62
254
0
LINE
8
Modules
10
-389.3858412512
20
-741.6707740752
11
-394.4467229306
21
-744.1818555167
62
254
0
LINE
8
Modules
10
-391.3853254293
20
-744.9190979149
11
-390.6505865096
21
-744.5545390529
62
254
0
LINE
8
Modules
10
-390.6505865096
20
-744.5545390529
11
-391.0151453715
21
-743.8198001331
62
254
0
LINE
8
Modules
10
-391.0151453715
20
-743.8198001331
11
-391.7498842913
21
-744.1843589951
62
254
0
LINE
8
Modules
10
-391.7498842913
20
-744.1843589951
11
-391.3853254293
21
-744.9190979149
62
254
0
LINE
8
Modules
10
-391.3853254293
20
-744.9190979149
11
-391.0151453715
21
-743.8198001331
62
254
0
TEXT
8
Modules
100
AcDbText
10
-391.5672675886
20
-744.4416862529
1
DC
7
NewTextStyle_4
40
0.2624672000000003
50
26.389444121140052
0
TEXT
8
Modules
100
AcDbText
10
-391.1133033931
20
-744.7291900349
1
AC
7
NewTextStyle_4
40
0.2624672000000003
50
26.389444121140052
0
LINE
8
Modules
10
-389.3485165141
20
-741.6522544850
11
-387.9164231331
21
-744.5385229411
62
254
0
LINE
8
Modules
10
-387.9164231331
20
-744.5385229411
11
-382.8555414537
21
-742.0274414996
62
254
0
LINE
8
Modules
10
-382.8555414537
20
-742.0274414996
11
-384.2876348346
21
-739.1411730436
62
254
0
LINE
8
Modules
10
-384.2876348346
20
-739.1411730436
11
-389.3485165141
21
-741.6522544850
62
254
0
LINE
8
Modules
10
-386.2871190128
20
-742.3894968832
11
-385.5523800930
21
-742.0249380212
62
254
0
LINE
8
Modules
10
-385.5523800930
20
-742.0249380212
11
-385.9169389550
21
-741.2901991014
62
254
0
LINE
8
Modules
10
-385.9169389550
20
-741.2901991014
11
-386.6516778748
21
-741.6547579634
62
254
0
LINE
8
Modules
10
-386.6516778748
20
-741.6547579634
11
-386.2871190128
21
-742.3894968832
62
254
0
LINE
8
Modules
10
-386.2871190128
20
-742.3894968832
11
-385.9169389550
21
-741.2901991014
62
254
0
TEXT
8
Modules
100
AcDbText
10
-386.4690611720
20
-741.9120852212
1
DC
7
NewTextStyle_4
40
0.2624672000000003
50
26.389444121140052
0
TEXT
8
Modules
100
AcDbText
10
-386.0150969766
20
-742.1995890032
1
AC
7
NewTextStyle_4
40
0.2624672000000003
50
26.389444121140052
0
LINE
8
Modules
10
-384.2503100975
20
-739.1226534534
11
-382.8182167165
21
-742.0089219095
62
254
0
LINE
8
Modules
10
-382.8182167165
20
-742.0089219095
11
-377.7573350371
21
-739.4978404680
62
254
0
LINE
8
Modules
10
-377.7573350371
20
-739.4978404680
11
-379.1894284181
21
-736.6115720120
62
254
0
LINE
8
Modules
10
-379.1894284181
20
-736.6115720120
11
-384.2503100975
21
-739.1226534534
62
254
0
LINE
8
Modules
10
-381.1889125962
20
-739.8598958516
11
-380.4541736764
21
-739.4953369896
62
254
0
LINE
8
Modules
10
-380.4541736764
20
-739.4953369896
11
-380.8187325384
21
-738.7605980698
62
254
0
LINE
8
Modules
10
-380.8187325384
20
-738.7605980698
11
-381.5534714582
21
-739.1251569318
62
254
0
LINE
8
Modules
10
-381.5534714582
20
-739.1251569318
11
-381.1889125962
21
-739.8598958516
62
254
0
LINE
8
Modules
10
-381.1889125962
20
-739.8598958516
11
-380.8187325384
21
-738.7605980698
62
254
0
TEXT
8
Modules
100
AcDbText
10
-381.3708547555
20
-739.3824841896
1
DC
7
NewTextStyle_4
40
0.2624672000000003
50
26.389444121140052
0
TEXT
8
Modules
100
AcDbText
10
-380.9168905600
20
-739.6699879716
1
AC
7
NewTextStyle_4
40
0.2624672000000003
50
26.389444121140052
0
LINE
8
Modules
10
-379.1521036810
20
-736.5930524218
11
-377.7200103000
21
-739.4793208778
62
254
0
LINE
8
Modules
10
-377.7200103000
20
-739.4793208778
11
-372.6591286205
21
-736.9682394364
62
254
0
LINE
8
Modules
10
-372.6591286205
20
-736.9682394364
11
-374.0912220015
21
-734.0819709803
62
254
0
LINE
8
Modules
10
-374.0912220015
20
-734.0819709803
11
-379.1521036810
21
-736.5930524218
62
254
0
LINE
8
Modules
10
-376.0907061796
20
-737.3302948200
11
-375.3559672599
21
-736.9657359580
62
254
0
LINE
8
Modules
10
-375.3559672599
20
-736.9657359580
11
-375.7205261219
21
-736.2309970382
62
254
0
LINE
8
Modules
10
-375.7205261219
20
-736.2309970382
11
-376.4552650416
21
-736.5955559002
62
254
0
LINE
8
Modules
10
-376.4552650416
20
-736.5955559002
11
-376.0907061796
21
-737.3302948200
62
254
0
LINE
8
Modules
10
-376.0907061796
20
-737.3302948200
11
-375.7205261219
21
-736.2309970382
62
254
0
TEXT
8
Modules
100
AcDbText
10
-376.2726483389
20
-736.8528831580
1
DC
7
NewTextStyle_4
40
0.2624672000000003
50
26.389444121140052
0
TEXT
8
Modules
100
AcDbText
10
-375.8186841434
20
-737.1403869400
1
AC
7
NewTextStyle_4
40
0.2624672000000003
50
26.389444121140052
0
LINE
8
Modules
10
-374.0538972644
20
-734.0634513901
11
-372.6218038834
21
-736.9497198462
62
254
0
LINE
8
Modules
10
-372.6218038834
20
-736.9497198462
11
-367.5609222040
21
-734.4386384047
62
254
0
LINE
8
Modules
10
-367.5609222040
20
-734.4386384047
11
-368.9930155850
21
-731.5523699487
62
254
0
LINE
8
Modules
10
-368.9930155850
20
-731.5523699487
11
-374.0538972644
21
-734.0634513901
62
254
0
LINE
8
Modules
10
-370.9924997631
20
-734.8006937883
11
-370.2577608433
21
-734.4361349263
62
254
0
LINE
8
Modules
10
-370.2577608433
20
-734.4361349263
11
-370.6223197053
21
-733.7013960065
62
254
0
LINE
8
Modules
10
-370.6223197053
20
-733.7013960065
11
-371.3570586251
21
-734.0659548685
62
254
0
LINE
8
Modules
10
-371.3570586251
20
-734.0659548685
11
-370.9924997631
21
-734.8006937883
62
254
0
LINE
8
Modules
10
-370.9924997631
20
-734.8006937883
11
-370.6223197053
21
-733.7013960065
62
254
0
TEXT
8
Modules
100
AcDbText
10
-371.1744419223
20
-734.3232821263
1
DC
7
NewTextStyle_4
40
0.2624672000000003
50
26.389444121140052
0
TEXT
8
Modules
100
AcDbText
10
-370.7204777269
20
-734.6107859083
1
AC
7
NewTextStyle_4
40
0.2624672000000003
50
26.389444121140052
0
LINE
8
Modules
10
-368.9556908478
20
-731.5338503585
11
-367.5235974668
21
-734.4201188145
62
254
0
LINE
8
Modules
10
-367.5235974668
20
-734.4201188145
11
-362.4627157874
21
-731.9090373731
62
254
0
LINE
8
Modules
10
-362.4627157874
20
-731.9090373731
11
-363.8948091684
21
-729.0227689170
62
254
0
LINE
8
Modules
10
-363.8948091684
20
-729.0227689170
11
-368.9556908478
21
-731.5338503585
62
254
0
LINE
8
Modules
10
-365.8942933465
20
-732.2710927567
11
-365.1595544267
21
-731.9065338947
62
254
0
LINE
8
Modules
10
-365.1595544267
20
-731.9065338947
11
-365.5241132887
21
-731.1717949749
62
254
0
LINE
8
Modules
10
-365.5241132887
20
-731.1717949749
11
-366.2588522085
21
-731.5363538369
62
254
0
LINE
8
Modules
10
-366.2588522085
20
-731.5363538369
11
-365.8942933465
21
-732.2710927567
62
254
0
LINE
8
Modules
10
-365.8942933465
20
-732.2710927567
11
-365.5241132887
21
-731.1717949749
62
254
0
TEXT
8
Modules
100
AcDbText
10
-366.0762355058
20
-731.7936810947
1
DC
7
NewTextStyle_4
40
0.2624672000000003
50
26.389444121140052
0
TEXT
8
Modules
100
AcDbText
10
-365.6222713103
20
-732.0811848767
1
AC
7
NewTextStyle_4
40
0.2624672000000003
50
26.389444121140052
0
LINE
8
Modules
10
-363.8574844313
20
-729.0042493269
11
-362.4253910503
21
-731.8905177829
62
254
0
LINE
8
Modules
10
-362.4253910503
20
-731.8905177829
11
-357.3645093708
21
-729.3794363415
62
254
0
LINE
8
Modules
10
-357.3645093708
20
-729.3794363415
11
-358.7966027518
21
-726.4931678854
62
254
0
LINE
8
Modules
10
-358.7966027518
20
-726.4931678854
11
-363.8574844313
21
-729.0042493269
62
254
0
LINE
8
Modules
10
-360.7960869299
20
-729.7414917250
11
-360.0613480102
21
-729.3769328630
62
254
0
LINE
8
Modules
10
-360.0613480102
20
-729.3769328630
11
-360.4259068722
21
-728.6421939433
62
254
0
LINE
8
Modules
10
-360.4259068722
20
-728.6421939433
11
-361.1606457919
21
-729.0067528053
62
254
0
LINE
8
Modules
10
-361.1606457919
20
-729.0067528053
11
-360.7960869299
21
-729.7414917250
62
254
0
LINE
8
Modules
10
-360.7960869299
20
-729.7414917250
11
-360.4259068722
21
-728.6421939433
62
254
0
TEXT
8
Modules
100
AcDbText
10
-360.9780290892
20
-729.2640800631
1
DC
7
NewTextStyle_4
40
0.2624672000000003
50
26.389444121140052
0
TEXT
8
Modules
100
AcDbText
10
-360.5240648938
20
-729.5515838451
1
AC
7
NewTextStyle_4
40
0.2624672000000003
50
26.389444121140052
0
LINE
8
Modules
10
-413.3914167804
20
-757.2188522698
11
-411.9593233994
21
-760.1051207259
62
254
0
LINE
8
Modules
10
-411.9593233994
20
-760.1051207259
11
-406.8984417199
21
-757.5940392844
62
254
0
LINE
8
Modules
10
-406.8984417199
20
-757.5940392844
11
-408.3305351009
21
-754.7077708284
62
254
0
LINE
8
Modules
10
-408.3305351009
20
-754.7077708284
11
-413.3914167804
21
-757.2188522698
62
254
0
LINE
8
Modules
10
-410.3300192790
20
-757.9560946680
11
-409.5952803593
21
-757.5915358060
62
254
0
LINE
8
Modules
10
-409.5952803593
20
-757.5915358060
11
-409.9598392213
21
-756.8567968862
62
254
0
LINE
8
Modules
10
-409.9598392213
20
-756.8567968862
11
-410.6945781410
21
-757.2213557482
62
254
0
LINE
8
Modules
10
-410.6945781410
20
-757.2213557482
11
-410.3300192790
21
-757.9560946680
62
254
0
LINE
8
Modules
10
-410.3300192790
20
-757.9560946680
11
-409.9598392213
21
-756.8567968862
62
254
0
TEXT
8
Modules
100
AcDbText
10
-410.5119614383
20
-757.4786830060
1
DC
7
NewTextStyle_4
40
0.2624672000000003
50
26.389444121140052
0
TEXT
8
Modules
100
AcDbText
10
-410.0579972428
20
-757.7661867880
1
AC
7
NewTextStyle_4
40
0.2624672000000003
50
26.389444121140052
0
LINE
8
Modules
10
-408.2932103638
20
-754.6892512382
11
-406.8611169828
21
-757.5755196942
62
254
0
LINE
8
Modules
10
-406.8611169828
20
-757.5755196942
11
-401.8002353034
21
-755.0644382528
62
254
0
LINE
8
Modules
10
-401.8002353034
20
-755.0644382528
11
-403.2323286844
21
-752.1781697967
62
254
0
LINE
8
Modules
10
-403.2323286844
20
-752.1781697967
11
-408.2932103638
21
-754.6892512382
62
254
0
LINE
8
Modules
10
-405.2318128625
20
-755.4264936364
11
-404.4970739427
21
-755.0619347744
62
254
0
LINE
8
Modules
10
-404.4970739427
20
-755.0619347744
11
-404.8616328047
21
-754.3271958546
62
254
0
LINE
8
Modules
10
-404.8616328047
20
-754.3271958546
11
-405.5963717245
21
-754.6917547166
62
254
0
LINE
8
Modules
10
-405.5963717245
20
-754.6917547166
11
-405.2318128625
21
-755.4264936364
62
254
0
LINE
8
Modules
10
-405.2318128625
20
-755.4264936364
11
-404.8616328047
21
-754.3271958546
62
254
0
TEXT
8
Modules
100
AcDbText
10
-405.4137550217
20
-754.9490819744
1
DC
7
NewTextStyle_4
40
0.2624672000000003
50
26.389444121140052
0
TEXT
8
Modules
100
AcDbText
10
-404.9597908263
20
-755.2365857564
1
AC
7
NewTextStyle_4
40
0.2624672000000003
50
26.389444121140052
0
LINE
8
Modules
10
-403.1950039472
20
-752.1596502065
11
-401.7629105662
21
-755.0459186626
62
254
0
LINE
8
Modules
10
-401.7629105662
20
-755.0459186626
11
-396.7020288868
21
-752.5348372212
62
254
0
LINE
8
Modules
10
-396.7020288868
20
-752.5348372212
11
-398.1341222678
21
-749.6485687651
62
254
0
LINE
8
Modules
10
-398.1341222678
20
-749.6485687651
11
-403.1950039472
21
-752.1596502065
62
254
0
LINE
8
Modules
10
-400.1336064459
20
-752.8968926047
11
-399.3988675261
21
-752.5323337427
62
254
0
LINE
8
Modules
10
-399.3988675261
20
-752.5323337427
11
-399.7634263881
21
-751.7975948230
62
254
0
LINE
8
Modules
10
-399.7634263881
20
-751.7975948230
11
-400.4981653079
21
-752.1621536850
62
254
0
LINE
8
Modules
10
-400.4981653079
20
-752.1621536850
11
-400.1336064459
21
-752.8968926047
62
254
0
LINE
8
Modules
10
-400.1336064459
20
-752.8968926047
11
-399.7634263881
21
-751.7975948230
62
254
0
TEXT
8
Modules
100
AcDbText
10
-400.3155486052
20
-752.4194809428
1
DC
7
NewTextStyle_4
40
0.2624672000000003
50
26.389444121140052
0
TEXT
8
Modules
100
AcDbText
10
-399.8615844097
20
-752.7069847247
1
AC
7
NewTextStyle_4
40
0.2624672000000003
50
26.389444121140052
0
LINE
8
Modules
10
-398.0967975307
20
-749.6300491749
11
-396.6647041497
21
-752.5163176310
62
254
0
LINE
8
Modules
10
-396.6647041497
20
-752.5163176310
11
-391.6038224702
21
-750.0052361895
62
254
0
LINE
8
Modules
10
-391.6038224702
20
-750.0052361895
11
-393.0359158512
21
-747.1189677335
62
254
0
LINE
8
Modules
10
-393.0359158512
20
-747.1189677335
11
-398.0967975307
21
-749.6300491749
62
254
0
LINE
8
Modules
10
-395.0354000293
20
-750.3672915731
11
-394.3006611096
21
-750.0027327111
62
254
0
LINE
8
Modules
10
-394.3006611096
20
-750.0027327111
11
-394.6652199716
21
-749.2679937913
62
254
0
LINE
8
Modules
10
-394.6652199716
20
-749.2679937913
11
-395.3999588913
21
-749.6325526533
62
254
0
LINE
8
Modules
10
-395.3999588913
20
-749.6325526533
11
-395.0354000293
21
-750.3672915731
62
254
0
LINE
8
Modules
10
-395.0354000293
20
-750.3672915731
11
-394.6652199716
21
-749.2679937913
62
254
0
TEXT
8
Modules
100
AcDbText
10
-395.2173421886
20
-749.8898799111
1
DC
7
NewTextStyle_4
40
0.2624672000000003
50
26.389444121140052
0
TEXT
8
Modules
100
AcDbText
10
-394.7633779932
20
-750.1773836931
1
AC
7
NewTextStyle_4
40
0.2624672000000003
50
26.389444121140052
0
LINE
8
Modules
10
-392.9985911141
20
-747.1004481433
11
-391.5664977331
21
-749.9867165993
62
254
0
LINE
8
Modules
10
-391.5664977331
20
-749.9867165993
11
-386.5056160537
21
-747.4756351579
62
254
0
LINE
8
Modules
10
-386.5056160537
20
-747.4756351579
11
-387.9377094347
21
-744.5893667018
62
254
0
LINE
8
Modules
10
-387.9377094347
20
-744.5893667018
11
-392.9985911141
21
-747.1004481433
62
254
0
LINE
8
Modules
10
-389.9371936128
20
-747.8376905415
11
-389.2024546930
21
-747.4731316795
62
254
0
LINE
8
Modules
10
-389.2024546930
20
-747.4731316795
11
-389.5670135550
21
-746.7383927597
62
254
0
LINE
8
Modules
10
-389.5670135550
20
-746.7383927597
11
-390.3017524748
21
-747.1029516217
62
254
0
LINE
8
Modules
10
-390.3017524748
20
-747.1029516217
11
-389.9371936128
21
-747.8376905415
62
254
0
LINE
8
Modules
10
-389.9371936128
20
-747.8376905415
11
-389.5670135550
21
-746.7383927597
62
254
0
TEXT
8
Modules
100
AcDbText
10
-390.1191357720
20
-747.3602788795
1
DC
7
NewTextStyle_4
40
0.2624672000000003
50
26.389444121140052
0
TEXT
8
Modules
100
AcDbText
10
-389.6651715766
20
-747.6477826615
1
AC
7
NewTextStyle_4
40
0.2624672000000003
50
26.389444121140052
0
LINE
8
Modules
10
-387.9003846975
20
-744.5708471116
11
-386.4682913166
21
-747.4571155677
62
254
0
LINE
8
Modules
10
-386.4682913166
20
-747.4571155677
11
-381.4074096371
21
-744.9460341262
62
254
0
LINE
8
Modules
10
-381.4074096371
20
-744.9460341262
11
-382.8395030181
21
-742.0597656702
62
254
0
LINE
8
Modules
10
-382.8395030181
20
-742.0597656702
11
-387.9003846975
21
-744.5708471116
62
254
0
LINE
8
Modules
10
-384.8389871962
20
-745.3080895098
11
-384.1042482764
21
-744.9435306478
62
254
0
LINE
8
Modules
10
-384.1042482764
20
-744.9435306478
11
-384.4688071384
21
-744.2087917280
62
254
0
LINE
8
Modules
10
-384.4688071384
20
-744.2087917280
11
-385.2035460582
21
-744.5733505900
62
254
0
LINE
8
Modules
10
-385.2035460582
20
-744.5733505900
11
-384.8389871962
21
-745.3080895098
62
254
0
LINE
8
Modules
10
-384.8389871962
20
-745.3080895098
11
-384.4688071384
21
-744.2087917280
62
254
0
TEXT
8
Modules
100
AcDbText
10
-385.0209293555
20
-744.8306778478
1
DC
7
NewTextStyle_4
40
0.2624672000000003
50
26.389444121140052
0
TEXT
8
Modules
100
AcDbText
10
-384.5669651600
20
-745.1181816298
1
AC
7
NewTextStyle_4
40
0.2624672000000003
50
26.389444121140052
0
LINE
8
Modules
10
-382.8021782810
20
-742.0412460800
11
-381.3700849000
21
-744.9275145361
62
254
0
LINE
8
Modules
10
-381.3700849000
20
-744.9275145361
11
-376.3092032206
21
-742.4164330946
62
254
0
LINE
8
Modules
10
-376.3092032206
20
-742.4164330946
11
-377.7412966015
21
-739.5301646385
62
254
0
LINE
8
Modules
10
-377.7412966015
20
-739.5301646385
11
-382.8021782810
21
-742.0412460800
62
254
0
LINE
8
Modules
10
-379.7407807797
20
-742.7784884782
11
-379.0060418599
21
-742.4139296162
62
254
0
LINE
8
Modules
10
-379.0060418599
20
-742.4139296162
11
-379.3706007219
21
-741.6791906964
62
254
0
LINE
8
Modules
10
-379.3706007219
20
-741.6791906964
11
-380.1053396416
21
-742.0437495584
62
254
0
LINE
8
Modules
10
-380.1053396416
20
-742.0437495584
11
-379.7407807797
21
-742.7784884782
62
254
0
LINE
8
Modules
10
-379.7407807797
20
-742.7784884782
11
-379.3706007219
21
-741.6791906964
62
254
0
TEXT
8
Modules
100
AcDbText
10
-379.9227229389
20
-742.3010768162
1
DC
7
NewTextStyle_4
40
0.2624672000000003
50
26.389444121140052
0
TEXT
8
Modules
100
AcDbText
10
-379.4687587435
20
-742.5885805982
1
AC
7
NewTextStyle_4
40
0.2624672000000003
50
26.389444121140052
0
LINE
8
Modules
10
-377.7039718644
20
-739.5116450484
11
-376.2718784834
21
-742.3979135044
62
254
0
LINE
8
Modules
10
-376.2718784834
20
-742.3979135044
11
-371.2109968040
21
-739.8868320630
62
254
0
LINE
8
Modules
10
-371.2109968040
20
-739.8868320630
11
-372.6430901850
21
-737.0005636069
62
254
0
LINE
8
Modules
10
-372.6430901850
20
-737.0005636069
11
-377.7039718644
21
-739.5116450484
62
254
0
LINE
8
Modules
10
-374.6425743631
20
-740.2488874466
11
-373.9078354433
21
-739.8843285846
62
254
0
LINE
8
Modules
10
-373.9078354433
20
-739.8843285846
11
-374.2723943053
21
-739.1495896648
62
254
0
LINE
8
Modules
10
-374.2723943053
20
-739.1495896648
11
-375.0071332251
21
-739.5141485268
62
254
0
LINE
8
Modules
10
-375.0071332251
20
-739.5141485268
11
-374.6425743631
21
-740.2488874466
62
254
0
LINE
8
Modules
10
-374.6425743631
20
-740.2488874466
11
-374.2723943053
21
-739.1495896648
62
254
0
TEXT
8
Modules
100
AcDbText
10
-374.8245165223
20
-739.7714757846
1
DC
7
NewTextStyle_4
40
0.2624672000000003
50
26.389444121140052
0
TEXT
8
Modules
100
AcDbText
10
-374.3705523269
20
-740.0589795666
1
AC
7
NewTextStyle_4
40
0.2624672000000003
50
26.389444121140052
0
LINE
8
Modules
10
-372.6057654478
20
-736.9820440167
11
-371.1736720669
21
-739.8683124728
62
254
0
LINE
8
Modules
10
-371.1736720669
20
-739.8683124728
11
-366.1127903874
21
-737.3572310313
62
254
0
LINE
8
Modules
10
-366.1127903874
20
-737.3572310313
11
-367.5448837684
21
-734.4709625753
62
254
0
LINE
8
Modules
10
-367.5448837684
20
-734.4709625753
11
-372.6057654478
21
-736.9820440167
62
254
0
LINE
8
Modules
10
-369.5443679465
20
-737.7192864149
11
-368.8096290267
21
-737.3547275529
62
254
0
LINE
8
Modules
10
-368.8096290267
20
-737.3547275529
11
-369.1741878887
21
-736.6199886331
62
254
0
LINE
8
Modules
10
-369.1741878887
20
-736.6199886331
11
-369.9089268085
21
-736.9845474951
62
254
0
LINE
8
Modules
10
-369.9089268085
20
-736.9845474951
11
-369.5443679465
21
-737.7192864149
62
254
0
LINE
8
Modules
10
-369.5443679465
20
-737.7192864149
11
-369.1741878887
21
-736.6199886331
62
254
0
TEXT
8
Modules
100
AcDbText
10
-369.7263101058
20
-737.2418747529
1
DC
7
NewTextStyle_4
40
0.2624672000000003
50
26.389444121140052
0
TEXT
8
Modules
100
AcDbText
10
-369.2723459103
20
-737.5293785349
1
AC
7
NewTextStyle_4
40
0.2624672000000003
50
26.389444121140052
0
LINE
8
Modules
10
-367.5075590313
20
-734.4524429851
11
-366.0754656503
21
-737.3387114411
62
254
0
LINE
8
Modules
10
-366.0754656503
20
-737.3387114411
11
-361.0145839709
21
-734.8276299997
62
254
0
LINE
8
Modules
10
-361.0145839709
20
-734.8276299997
11
-362.4466773518
21
-731.9413615436
62
254
0
LINE
8
Modules
10
-362.4466773518
20
-731.9413615436
11
-367.5075590313
21
-734.4524429851
62
254
0
LINE
8
Modules
10
-364.4461615300
20
-735.1896853833
11
-363.7114226102
21
-734.8251265213
62
254
0
LINE
8
Modules
10
-363.7114226102
20
-734.8251265213
11
-364.0759814722
21
-734.0903876015
62
254
0
LINE
8
Modules
10
-364.0759814722
20
-734.0903876015
11
-364.8107203920
21
-734.4549464635
62
254
0
LINE
8
Modules
10
-364.8107203920
20
-734.4549464635
11
-364.4461615300
21
-735.1896853833
62
254
0
LINE
8
Modules
10
-364.4461615300
20
-735.1896853833
11
-364.0759814722
21
-734.0903876015
62
254
0
TEXT
8
Modules
100
AcDbText
10
-364.6281036892
20
-734.7122737213
1
DC
7
NewTextStyle_4
40
0.2624672000000003
50
26.389444121140052
0
TEXT
8
Modules
100
AcDbText
10
-364.1741394938
20
-734.9997775033
1
AC
7
NewTextStyle_4
40
0.2624672000000003
50
26.389444121140052
0
LINE
8
Modules
10
-362.4093526147
20
-731.9228419535
11
-360.9772592337
21
-734.8091104095
62
254
0
LINE
8
Modules
10
-360.9772592337
20
-734.8091104095
11
-355.9163775543
21
-732.2980289681
62
254
0
LINE
8
Modules
10
-355.9163775543
20
-732.2980289681
11
-357.3484709353
21
-729.4117605120
62
254
0
LINE
8
Modules
10
-357.3484709353
20
-729.4117605120
11
-362.4093526147
21
-731.9228419535
62
254
0
LINE
8
Modules
10
-359.3479551134
20
-732.6600843516
11
-358.6132161936
21
-732.2955254896
62
254
0
LINE
8
Modules
10
-358.6132161936
20
-732.2955254896
11
-358.9777750556
21
-731.5607865699
62
254
0
LINE
8
Modules
10
-358.9777750556
20
-731.5607865699
11
-359.7125139754
21
-731.9253454319
62
254
0
LINE
8
Modules
10
-359.7125139754
20
-731.9253454319
11
-359.3479551134
21
-732.6600843516
62
254
0
LINE
8
Modules
10
-359.3479551134
20
-732.6600843516
11
-358.9777750556
21
-731.5607865699
62
254
0
TEXT
8
Modules
100
AcDbText
10
-359.5298972726
20
-732.1826726897
1
DC
7
NewTextStyle_4
40
0.2624672000000003
50
26.389444121140052
0
TEXT
8
Modules
100
AcDbText
10
-359.0759330772
20
-732.4701764717
1
AC
7
NewTextStyle_4
40
0.2624672000000003
50
26.389444121140052
0
LINE
8
Obstructions
10
-443.4073691507
20
-726.9367505408
11
-436.3489464459
21
-722.1304364138
62
252
0
LINE
8
Obstructions
10
-436.3489464459
20
-722.1304364138
11
-425.3743694831
21
-738.2513106948
62
252
0
LINE
8
Obstructions
10
-425.3743694831
20
-738.2513106948
11
-432.4327921879
21
-743.0576248218
62
252
0
LINE
8
Obstructions
10
-432.4327921879
20
-743.0576248218
11
-443.4073691507
21
-726.9367505408
62
252
0
LINE
8
Obstructions
10
-459.9247207502
20
-727.0024903999
11
-453.6956700161
21
-720.5636364441
62
252
0
LINE
8
Obstructions
10
-453.6956700161
20
-720.5636364441
11
-453.2050556090
21
-721.0384243141
62
252
0
LINE
8
Obstructions
10
-453.2050556090
20
-721.0384243141
11
-459.4341063472
21
-727.4772782699
62
252
0
LINE
8
Obstructions
10
-459.4341063472
20
-727.4772782699
11
-459.9247207502
21
-727.0024903999
62
252
0
LINE
8
Obstructions
10
-454.5542452235
20
-741.2753442039
11
-450.7081787349
21
-741.2753442039
62
252
0
LINE
8
Obstructions
10
-450.7081787349
20
-741.2753442039
11
-450.7081787349
21
-745.1576480912
62
252
0
LINE
8
Obstructions
10
-450.7081787349
20
-745.1576480912
11
-454.5542452235
21
-745.1576480912
62
252
0
LINE
8
Obstructions
10
-454.5542452235
20
-745.1576480912
11
-454.5542452235
21
-741.2753442039
62
252
0
LINE
8
Obstructions
10
-440.2446584416
20
-747.9771575936
11
-444.5141718856
21
-747.9771575936
62
252
0
LINE
8
Obstructions
10
-444.5141718856
20
-747.9771575936
11
-444.5141718856
21
-739.6756743047
62
252
0
LINE
8
Obstructions
10
-444.5141718856
20
-739.6756743047
11
-440.2446584416
21
-739.6756743047
62
252
0
LINE
8
Obstructions
10
-440.2446584416
20
-739.6756743047
11
-440.2446584416
21
-747.9771575936
62
252
0
ENDSEC
0
EOF