999
Design created by Aurora
0
SECTION
2
HEADER
9
$ACADVER
1
AC1009
9
$INSUNITS
70
2
0
ENDSEC
0
SECTION
2
TABLES
0
TABLE
2
LTYPE
100
AcDbLinetypeTableRecord
2
LTYPE
0
LTYPE
2
DASHED
70
0
3
dashed line
72
65
73
2
40
4.0
49
2.0
49
-2.0
0
ENDTAB
0
TABLE
2
LAYER
70
8
0
LAYER
100
AcDbSymbolTable
100
AcDbLayerTable
2
Obstructions
70
0
62
7
6
CONTINUOUS
0
LAYER
100
AcDbSymbolTable
100
AcDbLayerTable
2
Inverters
70
0
62
7
6
CONTINUOUS
0
LAYER
100
AcDbSymbolTable
100
AcDbLayerTable
2
Setbacks
70
0
62
7
6
CONTINUOUS
0
LAYER
100
AcDbSymbolTable
100
AcDbLayerTable
2
Walkways
70
0
62
7
6
CONTINUOUS
0
LAYER
100
AcDbSymbolTable
100
AcDbLayerTable
2
Connections
70
0
62
7
6
CONTINUOUS
0
LAYER
100
AcDbSymbolTable
100
AcDbLayerTable
2
Strings
70
0
62
7
6
CONTINUOUS
0
LAYER
100
AcDbSymbolTable
100
AcDbLayerTable
2
Modules
70
0
62
7
6
CONTINUOUS
0
LAYER
100
AcDbSymbolTable
100
AcDbLayerTable
2
Buildings
70
0
62
7
6
CONTINUOUS
0
ENDTAB
0
ENDSEC
0
SECTION
2
ENTITIES
0
LINE
8
Modules
10
41.2284815645
20
193.0111359338
11
40.9049712897
21
189.5331317272
62
254
0
LINE
8
Modules
10
40.9049712897
20
189.5331317272
11
47.7585887529
21
188.8956351812
62
254
0
LINE
8
Modules
10
47.7585887529
20
188.8956351812
11
48.0820990277
21
192.3736393878
62
254
0
LINE
8
Modules
10
48.0820990277
20
192.3736393878
11
41.2284815645
21
193.0111359338
62
254
0
LINE
8
Modules
10
48.0820990277
20
192.3736393878
11
47.7585887529
21
188.8956351812
62
254
0
LINE
8
Modules
10
47.7585887529
20
188.8956351812
11
54.6122062161
21
188.2581386351
62
254
0
LINE
8
Modules
10
54.6122062161
20
188.2581386351
11
54.9357164909
21
191.7361428417
62
254
0
LINE
8
Modules
10
54.9357164909
20
191.7361428417
11
48.0820990277
21
192.3736393878
62
254
0
LINE
8
Modules
10
54.9357164909
20
191.7361428417
11
54.6122062161
21
188.2581386351
62
254
0
LINE
8
Modules
10
54.6122062161
20
188.2581386351
11
61.4658236793
21
187.6206420891
62
254
0
LINE
8
Modules
10
61.4658236793
20
187.6206420891
11
61.7893339541
21
191.0986462957
62
254
0
LINE
8
Modules
10
61.7893339541
20
191.0986462957
11
54.9357164909
21
191.7361428417
62
254
0
LINE
8
Modules
10
61.7893339541
20
191.0986462957
11
61.4658236793
21
187.6206420891
62
254
0
LINE
8
Modules
10
61.4658236793
20
187.6206420891
11
68.3194411425
21
186.9831455431
62
254
0
LINE
8
Modules
10
68.3194411425
20
186.9831455431
11
68.6429514173
21
190.4611497496
62
254
0
LINE
8
Modules
10
68.6429514173
20
190.4611497496
11
61.7893339541
21
191.0986462957
62
254
0
LINE
8
Modules
10
40.9049712897
20
189.5331317272
11
40.5814610149
21
186.0551275207
62
254
0
LINE
8
Modules
10
40.5814610149
20
186.0551275207
11
47.4350784781
21
185.4176309746
62
254
0
LINE
8
Modules
10
47.4350784781
20
185.4176309746
11
47.7585887529
21
188.8956351812
62
254
0
LINE
8
Modules
10
47.7585887529
20
188.8956351812
11
40.9049712897
21
189.5331317272
62
254
0
LINE
8
Modules
10
47.7585887529
20
188.8956351812
11
47.4350784781
21
185.4176309746
62
254
0
LINE
8
Modules
10
47.4350784781
20
185.4176309746
11
54.2886959413
21
184.7801344286
62
254
0
LINE
8
Modules
10
54.2886959413
20
184.7801344286
11
54.6122062161
21
188.2581386351
62
254
0
LINE
8
Modules
10
54.6122062161
20
188.2581386351
11
47.7585887529
21
188.8956351812
62
254
0
LINE
8
Modules
10
54.6122062161
20
188.2581386351
11
54.2886959413
21
184.7801344286
62
254
0
LINE
8
Modules
10
54.2886959413
20
184.7801344286
11
61.1423134045
21
184.1426378825
62
254
0
LINE
8
Modules
10
61.1423134045
20
184.1426378825
11
61.4658236793
21
187.6206420891
62
254
0
LINE
8
Modules
10
61.4658236793
20
187.6206420891
11
54.6122062161
21
188.2581386351
62
254
0
LINE
8
Modules
10
61.4658236793
20
187.6206420891
11
61.1423134045
21
184.1426378825
62
254
0
LINE
8
Modules
10
61.1423134045
20
184.1426378825
11
67.9959308677
21
183.5051413365
62
254
0
LINE
8
Modules
10
67.9959308677
20
183.5051413365
11
68.3194411425
21
186.9831455431
62
254
0
LINE
8
Modules
10
68.3194411425
20
186.9831455431
11
61.4658236793
21
187.6206420891
62
254
0
LINE
8
Modules
10
40.5814610149
20
186.0551275207
11
40.2579507402
21
182.5771233141
62
254
0
LINE
8
Modules
10
40.2579507402
20
182.5771233141
11
47.1115682034
21
181.9396267680
62
254
0
LINE
8
Modules
10
47.1115682034
20
181.9396267680
11
47.4350784781
21
185.4176309746
62
254
0
LINE
8
Modules
10
47.4350784781
20
185.4176309746
11
40.5814610149
21
186.0551275207
62
254
0
LINE
8
Modules
10
47.4350784781
20
185.4176309746
11
47.1115682034
21
181.9396267680
62
254
0
LINE
8
Modules
10
47.1115682034
20
181.9396267680
11
53.9651856665
21
181.3021302220
62
254
0
LINE
8
Modules
10
53.9651856665
20
181.3021302220
11
54.2886959413
21
184.7801344286
62
254
0
LINE
8
Modules
10
54.2886959413
20
184.7801344286
11
47.4350784781
21
185.4176309746
62
254
0
LINE
8
Modules
10
54.2886959413
20
184.7801344286
11
53.9651856665
21
181.3021302220
62
254
0
LINE
8
Modules
10
53.9651856665
20
181.3021302220
11
60.8188031297
21
180.6646336760
62
254
0
LINE
8
Modules
10
60.8188031297
20
180.6646336760
11
61.1423134045
21
184.1426378825
62
254
0
LINE
8
Modules
10
61.1423134045
20
184.1426378825
11
54.2886959413
21
184.7801344286
62
254
0
LINE
8
Modules
10
61.1423134045
20
184.1426378825
11
60.8188031297
21
180.6646336760
62
254
0
LINE
8
Modules
10
60.8188031297
20
180.6646336760
11
67.6724205929
21
180.0271371299
62
254
0
LINE
8
Modules
10
67.6724205929
20
180.0271371299
11
67.9959308677
21
183.5051413365
62
254
0
LINE
8
Modules
10
67.9959308677
20
183.5051413365
11
61.1423134045
21
184.1426378825
62
254
0
LINE
8
Modules
10
40.2579507402
20
182.5771233141
11
39.9344404654
21
179.0991191075
62
254
0
LINE
8
Modules
10
39.9344404654
20
179.0991191075
11
46.7880579286
21
178.4616225615
62
254
0
LINE
8
Modules
10
46.7880579286
20
178.4616225615
11
47.1115682034
21
181.9396267680
62
254
0
LINE
8
Modules
10
47.1115682034
20
181.9396267680
11
40.2579507402
21
182.5771233141
62
254
0
LINE
8
Modules
10
47.1115682034
20
181.9396267680
11
46.7880579286
21
178.4616225615
62
254
0
LINE
8
Modules
10
46.7880579286
20
178.4616225615
11
53.6416753918
21
177.8241260154
62
254
0
LINE
8
Modules
10
53.6416753918
20
177.8241260154
11
53.9651856665
21
181.3021302220
62
254
0
LINE
8
Modules
10
53.9651856665
20
181.3021302220
11
47.1115682034
21
181.9396267680
62
254
0
LINE
8
Modules
10
53.9651856665
20
181.3021302220
11
53.6416753918
21
177.8241260154
62
254
0
LINE
8
Modules
10
53.6416753918
20
177.8241260154
11
60.4952928550
21
177.1866294694
62
254
0
LINE
8
Modules
10
60.4952928550
20
177.1866294694
11
60.8188031297
21
180.6646336760
62
254
0
LINE
8
Modules
10
60.8188031297
20
180.6646336760
11
53.9651856665
21
181.3021302220
62
254
0
LINE
8
Modules
10
60.8188031297
20
180.6646336760
11
60.4952928550
21
177.1866294694
62
254
0
LINE
8
Modules
10
60.4952928550
20
177.1866294694
11
67.3489103182
21
176.5491329234
62
254
0
LINE
8
Modules
10
67.3489103182
20
176.5491329234
11
67.6724205929
21
180.0271371299
62
254
0
LINE
8
Modules
10
67.6724205929
20
180.0271371299
11
60.8188031297
21
180.6646336760
62
254
0
LINE
8
Buildings
10
-6.1568630359
20
-28.2867577452
11
-6.4365987601
21
-14.3268417751
62
252
0
LINE
8
Buildings
10
-6.4365987601
20
-14.3268417751
11
-6.9457316276
21
-14.3329069503
62
252
0
LINE
8
Buildings
10
-6.9457316276
20
-14.3329069503
11
-7.1272411902
21
0.9036658074
62
252
0
LINE
8
Buildings
10
-7.1272411902
20
0.9036658074
11
-29.6371816990
21
0.4526004483
62
252
0
LINE
8
Buildings
10
-29.6371816990
20
0.4526004483
11
-29.0520947949
21
-28.7455437616
62
252
0
LINE
8
Buildings
10
-29.0520947949
20
-28.7455437616
11
-6.1568630359
21
-28.2867577452
62
252
0
LINE
8
Buildings
10
20.1566684327
20
17.2012950808
11
2.5854329296
21
16.9919732523
62
252
0
LINE
8
Buildings
10
2.5854329296
20
16.9919732523
11
2.9571932006
21
-14.2149358303
62
252
0
LINE
8
Buildings
10
2.9571932006
20
-14.2149358303
11
20.5284287037
21
-14.0056140017
62
252
0
LINE
8
Buildings
10
20.5284287037
20
-14.0056140017
11
20.1566684327
21
17.2012950808
62
252
0
LINE
8
Buildings
10
-7.0618777733
20
16.8770472008
11
-7.1088238822
21
19.2198432002
62
252
0
LINE
8
Buildings
10
-7.1088238822
20
19.2198432002
11
-30.0040556412
21
18.7610571838
62
252
0
LINE
8
Buildings
10
-30.0040556412
20
18.7610571838
11
-29.6371816990
21
0.4526004483
62
252
0
LINE
8
Buildings
10
-29.6371816990
20
0.4526004483
11
-7.1272411902
21
0.9036658074
62
252
0
LINE
8
Buildings
10
-7.1272411902
20
0.9036658074
11
-7.3174918986
21
16.8740021322
62
252
0
LINE
8
Buildings
10
-7.3174918986
20
16.8740021322
11
-7.0618777733
21
16.8770472008
62
252
0
LINE
8
Buildings
10
-7.3174918986
20
16.8740021322
11
-6.9457316276
21
-14.3329069503
62
252
0
LINE
8
Buildings
10
-6.9457316276
20
-14.3329069503
11
2.9571932006
21
-14.2149358303
62
252
0
LINE
8
Buildings
10
2.9571932006
20
-14.2149358303
11
2.5854329296
21
16.9919732523
62
252
0
LINE
8
Buildings
10
2.5854329296
20
16.9919732523
11
-7.3174918986
21
16.8740021322
62
252
0
LINE
8
Setbacks
10
-11.0165640423
20
-28.3513237514
11
-11.0309152389
21
-28.2788408785
62
2
0
LINE
8
Setbacks
10
-11.0309152389
20
-28.2788408785
11
-11.0309770491
21
-28.2782697694
62
2
0
LINE
8
Setbacks
10
-11.0309770491
20
-28.2782697694
11
-11.3137004833
21
-14.2501134806
62
2
0
LINE
8
Setbacks
10
-11.3137004833
20
-14.2501134806
11
-11.3137011494
21
-14.2500473720
62
2
0
LINE
8
Setbacks
10
-11.3137011494
20
-14.2500473720
11
-11.3137011494
21
-14.2500414665
62
2
0
LINE
8
Setbacks
10
-11.3137011494
20
-14.2500414665
11
-11.3136617249
21
-14.2495343799
62
2
0
LINE
8
Setbacks
10
-11.3136617249
20
-14.2495343799
11
-11.3039898136
21
-14.1877092788
62
2
0
LINE
8
Setbacks
10
-11.3039898136
20
-14.1877092788
11
-11.2919786634
21
-14.1109212507
62
2
0
LINE
8
Setbacks
10
-11.2919786634
20
-14.1109212507
11
-11.2918091841
21
-14.1102762933
62
2
0
LINE
8
Setbacks
10
-11.2918091841
20
-14.1102762933
11
-11.2918072156
21
-14.1102710439
62
2
0
LINE
8
Setbacks
10
-11.2918072156
20
-14.1102710439
11
-11.2916179076
21
-14.1098564006
62
2
0
LINE
8
Setbacks
10
-11.2916179076
20
-14.1098564006
11
-11.2612885200
21
-14.0540493302
62
2
0
LINE
8
Setbacks
10
-11.2612885200
20
-14.0540493302
11
-11.2231257990
21
-13.9838265769
62
2
0
LINE
8
Setbacks
10
-11.2231257990
20
-13.9838265769
11
-11.2228229259
21
-13.9833661904
62
2
0
LINE
8
Setbacks
10
-11.2228229259
20
-13.9833661904
11
-11.2228193169
21
-13.9833615972
62
2
0
LINE
8
Setbacks
10
-11.2228193169
20
-13.9833615972
11
-11.2224751553
21
-13.9829873419
62
2
0
LINE
8
Setbacks
10
-11.2224751553
20
-13.9829873419
11
-11.1753180233
21
-13.9390825051
62
2
0
LINE
8
Setbacks
10
-11.1753180233
20
-13.9390825051
11
-11.1138784106
21
-13.8818781273
62
2
0
LINE
8
Setbacks
10
-11.1138784106
20
-13.8818781273
11
-11.1133815857
21
-13.8814971689
62
2
0
LINE
8
Setbacks
10
-11.1133815857
20
-13.8814971689
11
-11.1133763364
21
-13.8814938881
62
2
0
LINE
8
Setbacks
10
-11.1133763364
20
-13.8814938881
11
-11.1130575065
21
-13.8813184214
62
2
0
LINE
8
Setbacks
10
-11.1130575065
20
-13.8813184214
11
-11.0485355359
21
-13.8503400802
62
2
0
LINE
8
Setbacks
10
-11.0485355359
20
-13.8503400802
11
-10.9749863344
21
-13.8150267653
62
2
0
LINE
8
Setbacks
10
-10.9749863344
20
-13.8150267653
11
-10.9746037887
21
-13.8148718879
62
2
0
LINE
8
Setbacks
10
-10.9746037887
20
-13.8148718879
11
-10.9745978832
21
-13.8148699194
62
2
0
LINE
8
Setbacks
10
-10.9745978832
20
-13.8148699194
11
-10.9740856848
21
-13.8147438829
62
2
0
LINE
8
Setbacks
10
-10.9740856848
20
-13.8147438829
11
-10.8990663428
21
-13.8025755783
62
2
0
LINE
8
Setbacks
10
-10.8990663428
20
-13.8025755783
11
-10.8200555309
21
-13.7897589796
62
2
0
LINE
8
Setbacks
10
-10.8200555309
20
-13.7897589796
11
-10.8195961973
21
-13.7897173125
62
2
0
LINE
8
Setbacks
10
-10.8195961973
20
-13.7897173125
11
-9.9558836638
21
-13.7723398547
62
2
0
LINE
8
Setbacks
10
-9.9558836638
20
-13.7723398547
11
-10.1139823446
21
-0.5009662142
62
2
0
LINE
8
Setbacks
10
-10.1139823446
20
-0.5009662142
11
-26.6075670136
21
-0.8314730083
62
2
0
LINE
8
Setbacks
10
-26.6075670136
20
-0.8314730083
11
-26.0500738169
21
-28.6525727130
62
2
0
LINE
8
Setbacks
10
-13.2898302375
20
-11.1459165002
11
-13.2898481811
21
-11.1457513402
62
2
0
LINE
8
Setbacks
10
-13.2898481811
20
-11.1457513402
11
-13.3189948355
21
-9.7031266221
62
2
0
LINE
8
Setbacks
10
-13.3189948355
20
-9.7031266221
11
-13.3189562318
21
-9.7025542316
62
2
0
LINE
8
Setbacks
10
-13.3189562318
20
-9.7025542316
11
-13.3189346189
21
-9.7024158065
62
2
0
LINE
8
Setbacks
10
-13.3189346189
20
-9.7024158065
11
-13.3189612556
21
-9.7022786440
62
2
0
LINE
8
Setbacks
10
-13.3189612556
20
-9.7022786440
11
-13.3190209716
21
-9.7017076526
62
2
0
LINE
8
Setbacks
10
-13.3190209716
20
-9.7017076526
11
-13.3189802404
21
-9.7011349938
62
2
0
LINE
8
Setbacks
10
-13.3189802404
20
-9.7011349938
11
-13.3080100185
21
-9.6325524079
62
2
0
LINE
8
Setbacks
10
-13.3080100185
20
-9.6325524079
11
-13.2972802623
21
-9.5639337359
62
2
0
LINE
8
Setbacks
10
-13.2972802623
20
-9.5639337359
11
-13.2971463704
21
-9.5633884603
62
2
0
LINE
8
Setbacks
10
-13.2971463704
20
-9.5633884603
11
-13.2969214646
21
-9.5628739994
62
2
0
LINE
8
Setbacks
10
-13.2969214646
20
-9.5628739994
11
-13.2968410011
21
-9.5627259406
62
2
0
LINE
8
Setbacks
10
-13.2968410011
20
-9.5627259406
11
-13.2968168694
21
-9.5625750472
62
2
0
LINE
8
Setbacks
10
-13.2968168694
20
-9.5625750472
11
-13.2966811781
21
-9.5620305095
62
2
0
LINE
8
Setbacks
10
-13.2966811781
20
-9.5620305095
11
-13.2964546697
21
-9.5615170629
62
2
0
LINE
8
Setbacks
10
-13.2964546697
20
-9.5615170629
11
-13.2623421475
21
-9.4992377535
62
2
0
LINE
8
Setbacks
10
-13.2623421475
20
-9.4992377535
11
-13.2284336774
21
-9.4368364055
62
2
0
LINE
8
Setbacks
10
-13.2284336774
20
-9.4368364055
11
-13.2281440266
21
-9.4363929219
62
2
0
LINE
8
Setbacks
10
-13.2281440266
20
-9.4363929219
11
-13.2277867837
21
-9.4360018300
62
2
0
LINE
8
Setbacks
10
-13.2277867837
20
-9.4360018300
11
-13.2276208640
21
-9.4358473259
62
2
0
LINE
8
Setbacks
10
-13.2276208640
20
-9.4358473259
11
-13.2275240508
21
-9.4356706191
62
2
0
LINE
8
Setbacks
10
-13.2275240508
20
-9.4356706191
11
-13.2272331732
21
-9.4352285268
62
2
0
LINE
8
Setbacks
10
-13.2272331732
20
-9.4352285268
11
-13.2268750020
21
-9.4348389518
62
2
0
LINE
8
Setbacks
10
-13.2268750020
20
-9.4348389518
11
-13.1729466739
21
-9.3849375740
62
2
0
LINE
8
Setbacks
10
-13.1729466739
20
-9.3849375740
11
-13.1191912352
21
-9.3348836489
62
2
0
LINE
8
Setbacks
10
-13.1191912352
20
-9.3348836489
11
-13.1188047165
21
-9.3345747279
62
2
0
LINE
8
Setbacks
10
-13.1188047165
20
-9.3345747279
11
-13.1183761361
21
-9.3343274473
62
2
0
LINE
8
Setbacks
10
-13.1183761361
20
-9.3343274473
11
-13.1181181946
21
-9.3342035342
62
2
0
LINE
8
Setbacks
10
-13.1181181946
20
-9.3342035342
11
-13.1179253496
21
-9.3340251640
62
2
0
LINE
8
Setbacks
10
-13.1179253496
20
-9.3340251640
11
-13.1175381134
21
-9.3337177421
62
2
0
LINE
8
Setbacks
10
-13.1175381134
20
-9.3337177421
11
-13.1171090772
21
-9.3334720026
62
2
0
LINE
8
Setbacks
10
-13.1171090772
20
-9.3334720026
11
-13.0486724769
21
-9.3008566191
62
2
0
LINE
8
Setbacks
10
-13.0486724769
20
-9.3008566191
11
-12.9803024717
21
-9.2680263533
62
2
0
LINE
8
Setbacks
10
-12.9803024717
20
-9.2680263533
11
-12.9794074017
21
-9.2677453458
62
2
0
LINE
8
Setbacks
10
-12.9794074017
20
-9.2677453458
11
-12.9790854131
21
-9.2676931387
62
2
0
LINE
8
Setbacks
10
-12.9790854131
20
-9.2676931387
11
-12.9788055108
21
-9.2675597151
62
2
0
LINE
8
Setbacks
10
-12.9788055108
20
-9.2675597151
11
-12.9779100960
21
-9.2672813346
62
2
0
LINE
8
Setbacks
10
-12.9779100960
20
-9.2672813346
11
-12.9016646661
21
-9.2551311442
62
2
0
LINE
8
Setbacks
10
-12.9016646661
20
-9.2551311442
11
-12.8253726461
21
-9.2427526203
62
2
0
LINE
8
Setbacks
10
-12.8253726461
20
-9.2427526203
11
-12.8244529332
21
-9.2427340451
62
2
0
LINE
8
Setbacks
10
-12.8244529332
20
-9.2427340451
11
-12.8241205808
21
-9.2427742758
62
2
0
LINE
8
Setbacks
10
-12.8241205808
20
-9.2427742758
11
-12.8237897741
21
-9.2427215846
62
2
0
LINE
8
Setbacks
10
-12.8237897741
20
-9.2427215846
11
-12.8233306356
21
-9.2426812360
62
2
0
LINE
8
Setbacks
10
-12.8233306356
20
-9.2426812360
11
-11.7711337515
21
-9.2244200805
62
2
0
LINE
8
Setbacks
10
-11.7711337515
20
-9.2244200805
11
-11.7706731701
21
-9.2244445123
62
2
0
LINE
8
Setbacks
10
-11.7706731701
20
-9.2244445123
11
-11.6940200332
21
-9.2339475420
62
2
0
LINE
8
Setbacks
10
-11.6940200332
20
-9.2339475420
11
-11.6173590240
21
-9.2432281443
62
2
0
LINE
8
Setbacks
10
-11.6173590240
20
-9.2432281443
11
-11.6164537231
21
-9.2434727387
62
2
0
LINE
8
Setbacks
10
-11.6164537231
20
-9.2434727387
11
-11.6161573444
21
-9.2436005989
62
2
0
LINE
8
Setbacks
10
-11.6161573444
20
-9.2436005989
11
-11.6158232649
21
-9.2436419989
62
2
0
LINE
8
Setbacks
10
-11.6158232649
20
-9.2436419989
11
-11.6149181941
21
-9.2438893471
62
2
0
LINE
8
Setbacks
10
-11.6149181941
20
-9.2438893471
11
-11.5454528608
21
-9.2741026203
62
2
0
LINE
8
Setbacks
10
-11.5454528608
20
-9.2741026203
11
-11.4758120084
21
-9.3041456314
62
2
0
LINE
8
Setbacks
10
-11.4758120084
20
-9.3041456314
11
-11.4753734491
21
-9.3043755202
62
2
0
LINE
8
Setbacks
10
-11.4753734491
20
-9.3043755202
11
-11.4749744815
21
-9.3046687914
62
2
0
LINE
8
Setbacks
10
-11.4749744815
20
-9.3046687914
11
-11.4747677135
21
-9.3048463042
62
2
0
LINE
8
Setbacks
10
-11.4747677135
20
-9.3048463042
11
-11.4744961952
21
-9.3049643717
62
2
0
LINE
8
Setbacks
10
-11.4744961952
20
-9.3049643717
11
-11.4740580142
21
-9.3051957130
62
2
0
LINE
8
Setbacks
10
-11.4740580142
20
-9.3051957130
11
-11.4736596700
21
-9.3054904048
62
2
0
LINE
8
Setbacks
10
-11.4736596700
20
-9.3054904048
11
-11.4181134134
21
-9.3534781425
62
2
0
LINE
8
Setbacks
10
-11.4181134134
20
-9.3534781425
11
-11.3623781912
21
-9.4013208796
62
2
0
LINE
8
Setbacks
10
-11.3623781912
20
-9.4013208796
11
-11.3620056113
21
-9.4016969923
62
2
0
LINE
8
Setbacks
10
-11.3620056113
20
-9.4016969923
11
-11.3616983755
21
-9.4021281336
62
2
0
LINE
8
Setbacks
10
-11.3616983755
20
-9.4021281336
11
-11.3615897208
21
-9.4023100691
62
2
0
LINE
8
Setbacks
10
-11.3615897208
20
-9.4023100691
11
-11.3614102915
21
-9.4024651277
62
2
0
LINE
8
Setbacks
10
-11.3614102915
20
-9.4024651277
11
-11.3610386948
21
-9.4028427955
62
2
0
LINE
8
Setbacks
10
-11.3610386948
20
-9.4028427955
11
-11.3607327345
21
-9.4032753523
62
2
0
LINE
8
Setbacks
10
-11.3607327345
20
-9.4032753523
11
-11.3245433116
21
-9.4643673524
62
2
0
LINE
8
Setbacks
10
-11.3245433116
20
-9.4643673524
11
-11.2881691937
21
-9.5252989290
62
2
0
LINE
8
Setbacks
10
-11.2881691937
20
-9.5252989290
11
-11.2879237764
21
-9.5258036986
62
2
0
LINE
8
Setbacks
10
-11.2879237764
20
-9.5258036986
11
-11.2877679870
21
-9.5263429125
62
2
0
LINE
8
Setbacks
10
-11.2877679870
20
-9.5263429125
11
-11.2877364141
21
-9.5265022492
62
2
0
LINE
8
Setbacks
10
-11.2877364141
20
-9.5265022492
11
-11.2876446969
21
-9.5266571016
62
2
0
LINE
8
Setbacks
10
-11.2876446969
20
-9.5266571016
11
-11.2874009409
21
-9.5271629395
62
2
0
LINE
8
Setbacks
10
-11.2874009409
20
-9.5271629395
11
-11.2872470100
21
-9.5277029343
62
2
0
LINE
8
Setbacks
10
-11.2872470100
20
-9.5277029343
11
-11.2739925434
21
-9.5958802914
62
2
0
LINE
8
Setbacks
10
-11.2739925434
20
-9.5958802914
11
-11.2605031890
21
-9.6639746472
62
2
0
LINE
8
Setbacks
10
-11.2605031890
20
-9.6639746472
11
-11.2604413219
21
-9.6645457455
62
2
0
LINE
8
Setbacks
10
-11.2604413219
20
-9.6645457455
11
-11.2312946674
21
-11.1035182325
62
2
0
LINE
8
Setbacks
10
-11.2312946674
20
-11.1035182325
11
-11.2313333594
21
-11.1040913776
62
2
0
LINE
8
Setbacks
10
-11.2313333594
20
-11.1040913776
11
-11.2421330350
21
-11.1731787244
62
2
0
LINE
8
Setbacks
10
-11.2421330350
20
-11.1731787244
11
-11.2529018716
21
-11.2424153493
62
2
0
LINE
8
Setbacks
10
-11.2529018716
20
-11.2424153493
11
-11.2530356942
21
-11.2429618379
62
2
0
LINE
8
Setbacks
10
-11.2530356942
20
-11.2429618379
11
-11.2530996043
21
-11.2431081401
62
2
0
LINE
8
Setbacks
10
-11.2530996043
20
-11.2431081401
11
-11.2531358195
21
-11.2432559780
62
2
0
LINE
8
Setbacks
10
-11.2531358195
20
-11.2432559780
11
-11.2533609918
21
-11.2437713971
62
2
0
LINE
8
Setbacks
10
-11.2533609918
20
-11.2437713971
11
-11.2875644879
21
-11.3067231001
62
2
0
LINE
8
Setbacks
10
-11.2875644879
20
-11.3067231001
11
-11.3216446252
21
-11.3695573485
62
2
0
LINE
8
Setbacks
10
-11.3216446252
20
-11.3695573485
11
-11.3219344474
21
-11.3700017275
62
2
0
LINE
8
Setbacks
10
-11.3219344474
20
-11.3700017275
11
-11.3220458522
21
-11.3701237845
62
2
0
LINE
8
Setbacks
10
-11.3220458522
20
-11.3701237845
11
-11.3221317950
21
-11.3702554175
62
2
0
LINE
8
Setbacks
10
-11.3221317950
20
-11.3702554175
11
-11.3224892230
21
-11.3706467632
62
2
0
LINE
8
Setbacks
10
-11.3224892230
20
-11.3706467632
11
-11.3767557934
21
-11.4211814345
62
2
0
LINE
8
Setbacks
10
-11.3767557934
20
-11.4211814345
11
-11.4308038603
21
-11.4715815907
62
2
0
LINE
8
Setbacks
10
-11.4308038603
20
-11.4715815907
11
-11.4311907276
21
-11.4718911863
62
2
0
LINE
8
Setbacks
10
-11.4311907276
20
-11.4718911863
11
-11.4313400359
21
-11.4719774157
62
2
0
LINE
8
Setbacks
10
-11.4313400359
20
-11.4719774157
11
-11.4314657170
21
-11.4720779196
62
2
0
LINE
8
Setbacks
10
-11.4314657170
20
-11.4720779196
11
-11.4318950347
21
-11.4723256282
62
2
0
LINE
8
Setbacks
10
-11.4318950347
20
-11.4723256282
11
-11.5007474348
21
-11.5053911186
62
2
0
LINE
8
Setbacks
10
-11.5007474348
20
-11.5053911186
11
-11.5696382211
21
-11.5385294431
62
2
0
LINE
8
Setbacks
10
-11.5696382211
20
-11.5385294431
11
-11.5705321323
21
-11.5388109051
62
2
0
LINE
8
Setbacks
10
-11.5705321323
20
-11.5388109051
11
-11.5705363451
21
-11.5388115924
62
2
0
LINE
8
Setbacks
10
-11.5705363451
20
-11.5388115924
11
-11.5708596175
21
-11.5389130475
62
2
0
LINE
8
Setbacks
10
-11.5708596175
20
-11.5389130475
11
-11.6479038961
21
-11.5514171508
62
2
0
LINE
8
Setbacks
10
-11.6479038961
20
-11.5514171508
11
-11.7245479124
21
-11.5639048493
62
2
0
LINE
8
Setbacks
10
-11.7245479124
20
-11.5639048493
11
-11.7250065174
21
-11.5639468231
62
2
0
LINE
8
Setbacks
10
-11.7250065174
20
-11.5639468231
11
-11.7253496933
21
-11.5639540409
62
2
0
LINE
8
Setbacks
10
-11.7253496933
20
-11.5639540409
11
-12.7772040777
21
-11.5858602238
62
2
0
LINE
8
Setbacks
10
-12.7772040777
20
-11.5858602238
11
-12.7776621400
21
-11.5858377025
62
2
0
LINE
8
Setbacks
10
-12.7776621400
20
-11.5858377025
11
-12.7776648865
21
-11.5858373739
62
2
0
LINE
8
Setbacks
10
-12.7776648865
20
-11.5858373739
11
-12.7780332992
21
-11.5858446840
62
2
0
LINE
8
Setbacks
10
-12.7780332992
20
-11.5858446840
11
-12.8552828829
21
-11.5764894989
62
2
0
LINE
8
Setbacks
10
-12.8552828829
20
-11.5764894989
11
-12.9325997237
21
-11.5671779483
62
2
0
LINE
8
Setbacks
10
-12.9325997237
20
-11.5671779483
11
-12.9329486755
21
-11.5670839659
62
2
0
LINE
8
Setbacks
10
-12.9329486755
20
-11.5670839659
11
-12.9329540084
21
-11.5670833172
62
2
0
LINE
8
Setbacks
10
-12.9329540084
20
-11.5670833172
11
-12.9338575454
21
-11.5668389010
62
2
0
LINE
8
Setbacks
10
-12.9338575454
20
-11.5668389010
11
-13.0039660975
21
-11.5365903288
62
2
0
LINE
8
Setbacks
10
-13.0039660975
20
-11.5365903288
11
-13.0741937437
21
-11.5063473333
62
2
0
LINE
8
Setbacks
10
-13.0741937437
20
-11.5063473333
11
-13.0746325221
21
-11.5061176794
62
2
0
LINE
8
Setbacks
10
-13.0746325221
20
-11.5061176794
11
-13.0747714228
21
-11.5060157050
62
2
0
LINE
8
Setbacks
10
-13.0747714228
20
-11.5060157050
11
-13.0749340456
21
-11.5059304996
62
2
0
LINE
8
Setbacks
10
-13.0749340456
20
-11.5059304996
11
-13.0753333384
21
-11.5056370375
62
2
0
LINE
8
Setbacks
10
-13.0753333384
20
-11.5056370375
11
-13.1314006710
21
-11.4575046157
62
2
0
LINE
8
Setbacks
10
-13.1314006710
20
-11.4575046157
11
-13.1877022550
21
-11.4092425999
62
2
0
LINE
8
Setbacks
10
-13.1877022550
20
-11.4092425999
11
-13.1880746945
21
-11.4088672139
62
2
0
LINE
8
Setbacks
10
-13.1880746945
20
-11.4088672139
11
-13.1881726285
21
-11.4087300646
62
2
0
LINE
8
Setbacks
10
-13.1881726285
20
-11.4087300646
11
-13.1882983213
21
-11.4086030324
62
2
0
LINE
8
Setbacks
10
-13.1882983213
20
-11.4086030324
11
-13.1886049647
21
-11.4081724054
62
2
0
LINE
8
Setbacks
10
-13.1886049647
20
-11.4081724054
11
-13.2251564712
21
-11.3469369606
62
2
0
LINE
8
Setbacks
10
-13.2251564712
20
-11.3469369606
11
-13.2620068614
21
-11.2853107673
62
2
0
LINE
8
Setbacks
10
-13.2620068614
20
-11.2853107673
11
-13.2622531711
21
-11.2848048262
62
2
0
LINE
8
Setbacks
10
-13.2622531711
20
-11.2848048262
11
-13.2622987314
21
-11.2846471778
62
2
0
LINE
8
Setbacks
10
-13.2622987314
20
-11.2846471778
11
-13.2623724686
21
-11.2844957680
62
2
0
LINE
8
Setbacks
10
-13.2623724686
20
-11.2844957680
11
-13.2625287955
21
-11.2839549967
62
2
0
LINE
8
Setbacks
10
-13.2625287955
20
-11.2839549967
11
-13.2761171202
21
-11.2153431104
62
2
0
LINE
8
Setbacks
10
-13.2761171202
20
-11.2153431104
11
-13.2897789346
21
-11.1466524838
62
2
0
LINE
8
Setbacks
10
-13.2897789346
20
-11.1466524838
11
-13.2898412519
21
-11.1460806904
62
2
0
LINE
8
Setbacks
10
-13.2898412519
20
-11.1460806904
11
-13.2898302375
21
-11.1459165002
62
2
0
LINE
8
Setbacks
10
-19.1745701979
20
-14.7613305058
11
-19.1745760104
21
-14.7612774713
62
2
0
LINE
8
Setbacks
10
-19.1745760104
20
-14.7612774713
11
-19.1745371259
21
-14.7607005786
62
2
0
LINE
8
Setbacks
10
-19.1745371259
20
-14.7607005786
11
-19.1636241357
21
-14.6911025842
62
2
0
LINE
8
Setbacks
10
-19.1636241357
20
-14.6911025842
11
-19.1528377859
21
-14.6221919259
62
2
0
LINE
8
Setbacks
10
-19.1528377859
20
-14.6221919259
11
-19.1527038227
21
-14.6216467100
62
2
0
LINE
8
Setbacks
10
-19.1527038227
20
-14.6216467100
11
-19.1526811674
21
-14.6215949063
62
2
0
LINE
8
Setbacks
10
-19.1526811674
20
-14.6215949063
11
-19.1526680622
21
-14.6215417585
62
2
0
LINE
8
Setbacks
10
-19.1526680622
20
-14.6215417585
11
-19.1524434128
21
-14.6210286637
62
2
0
LINE
8
Setbacks
10
-19.1524434128
20
-14.6210286637
11
-19.1181985335
21
-14.5580680723
62
2
0
LINE
8
Setbacks
10
-19.1181985335
20
-14.5580680723
11
-19.0839720268
21
-14.4951028879
62
2
0
LINE
8
Setbacks
10
-19.0839720268
20
-14.4951028879
11
-19.0836819361
21
-14.4946589602
62
2
0
LINE
8
Setbacks
10
-19.0836819361
20
-14.4946589602
11
-19.0836426217
21
-14.4946159573
62
2
0
LINE
8
Setbacks
10
-19.0836426217
20
-14.4946159573
11
-19.0836131215
21
-14.4945708126
62
2
0
LINE
8
Setbacks
10
-19.0836131215
20
-14.4945708126
11
-19.0832555001
21
-14.4941795767
62
2
0
LINE
8
Setbacks
10
-19.0832555001
20
-14.4941795767
11
-19.0286799918
21
-14.4433996527
62
2
0
LINE
8
Setbacks
10
-19.0286799918
20
-14.4433996527
11
-18.9747140635
21
-14.3931633639
62
2
0
LINE
8
Setbacks
10
-18.9747140635
20
-14.3931633639
11
-18.9743253372
21
-14.3928530190
62
2
0
LINE
8
Setbacks
10
-18.9743253372
20
-14.3928530190
11
-18.9742760371
21
-14.3928246616
62
2
0
LINE
8
Setbacks
10
-18.9742760371
20
-14.3928246616
11
-18.9742314803
21
-14.3927890549
62
2
0
LINE
8
Setbacks
10
-18.9742314803
20
-14.3927890549
11
-18.9738019562
21
-14.3925414403
62
2
0
LINE
8
Setbacks
10
-18.9738019562
20
-14.3925414403
11
-18.9037143553
21
-14.3589165965
62
2
0
LINE
8
Setbacks
10
-18.9037143553
20
-14.3589165965
11
-18.8358154027
21
-14.3263232489
62
2
0
LINE
8
Setbacks
10
-18.8358154027
20
-14.3263232489
11
-18.8357027294
21
-14.3262878907
62
2
0
LINE
8
Setbacks
10
-18.8357027294
20
-14.3262878907
11
-18.8356995157
21
-14.3262863513
62
2
0
LINE
8
Setbacks
10
-18.8356995157
20
-14.3262863513
11
-18.8348064553
21
-14.3260065426
62
2
0
LINE
8
Setbacks
10
-18.8348064553
20
-14.3260065426
11
-18.7573721000
21
-14.3134695267
62
2
0
LINE
8
Setbacks
10
-18.7573721000
20
-14.3134695267
11
-18.6808819705
21
-14.3010680097
62
2
0
LINE
8
Setbacks
10
-18.6808819705
20
-14.3010680097
11
-18.6807601516
21
-14.3010654285
62
2
0
LINE
8
Setbacks
10
-18.6807601516
20
-14.3010654285
11
-18.6807558578
21
-14.3010647406
62
2
0
LINE
8
Setbacks
10
-18.6807558578
20
-14.3010647406
11
-18.6803018778
21
-14.3010240686
62
2
0
LINE
8
Setbacks
10
-18.6803018778
20
-14.3010240686
11
-15.5500639167
21
-14.2389387648
62
2
0
LINE
8
Setbacks
10
-15.5500639167
20
-14.2389387648
11
-15.5499405183
21
-14.2389364165
62
2
0
LINE
8
Setbacks
10
-15.5499405183
20
-14.2389364165
11
-15.5494825807
21
-14.2389597538
62
2
0
LINE
8
Setbacks
10
-15.5494825807
20
-14.2389597538
11
-15.4729235506
21
-14.2482576112
62
2
0
LINE
8
Setbacks
10
-15.4729235506
20
-14.2482576112
11
-15.3946873552
21
-14.2577418204
62
2
0
LINE
8
Setbacks
10
-15.3946873552
20
-14.2577418204
11
-15.3945718218
21
-14.2577730737
62
2
0
LINE
8
Setbacks
10
-15.3945718218
20
-14.2577730737
11
-15.3945714935
21
-14.2577731137
62
2
0
LINE
8
Setbacks
10
-15.3945714935
20
-14.2577731137
11
-15.3942003634
21
-14.2578735584
62
2
0
LINE
8
Setbacks
10
-15.3942003634
20
-14.2578735584
11
-15.3937812010
21
-14.2579869477
62
2
0
LINE
8
Setbacks
10
-15.3937812010
20
-14.2579869477
11
-15.3937808586
21
-14.2579870956
62
2
0
LINE
8
Setbacks
10
-15.3937808586
20
-14.2579870956
11
-15.3936665865
21
-14.2580180229
62
2
0
LINE
8
Setbacks
10
-15.3936665865
20
-14.2580180229
11
-15.3236459230
21
-14.2882577081
62
2
0
LINE
8
Setbacks
10
-15.3236459230
20
-14.2882577081
11
-15.2531528185
21
-14.3186827608
62
2
0
LINE
8
Setbacks
10
-15.2531528185
20
-14.3186827608
11
-15.2527104460
21
-14.3189151363
62
2
0
LINE
8
Setbacks
10
-15.2527104460
20
-14.3189151363
11
-15.2526693151
21
-14.3189455134
62
2
0
LINE
8
Setbacks
10
-15.2526693151
20
-14.3189455134
11
-15.2526191814
21
-14.3189716844
62
2
0
LINE
8
Setbacks
10
-15.2526191814
20
-14.3189716844
11
-15.2522165043
21
-14.3192674769
62
2
0
LINE
8
Setbacks
10
-15.2522165043
20
-14.3192674769
11
-15.1957893103
21
-14.3677455661
62
2
0
LINE
8
Setbacks
10
-15.1957893103
20
-14.3677455661
11
-15.1397390848
21
-14.4158762145
62
2
0
LINE
8
Setbacks
10
-15.1397390848
20
-14.4158762145
11
-15.1393657306
21
-14.4162533947
62
2
0
LINE
8
Setbacks
10
-15.1393657306
20
-14.4162533947
11
-15.1393346550
21
-14.4162970748
62
2
0
LINE
8
Setbacks
10
-15.1393346550
20
-14.4162970748
11
-15.1392938930
21
-14.4163382296
62
2
0
LINE
8
Setbacks
10
-15.1392938930
20
-14.4163382296
11
-15.1389861518
21
-14.4167704876
62
2
0
LINE
8
Setbacks
10
-15.1389861518
20
-14.4167704876
11
-15.1020027706
21
-14.4787855477
62
2
0
LINE
8
Setbacks
10
-15.1020027706
20
-14.4787855477
11
-15.0655551507
21
-14.5398665526
62
2
0
LINE
8
Setbacks
10
-15.0655551507
20
-14.5398665526
11
-15.0653102833
21
-14.5403701866
62
2
0
LINE
8
Setbacks
10
-15.0653102833
20
-14.5403701866
11
-15.0652952293
21
-14.5404222153
62
2
0
LINE
8
Setbacks
10
-15.0652952293
20
-14.5404222153
11
-15.0652693479
21
-14.5404756436
62
2
0
LINE
8
Setbacks
10
-15.0652693479
20
-14.5404756436
11
-15.0651145616
21
-14.5410130533
62
2
0
LINE
8
Setbacks
10
-15.0651145616
20
-14.5410130533
11
-15.0513813772
21
-14.6105086944
62
2
0
LINE
8
Setbacks
10
-15.0513813772
20
-14.6105086944
11
-15.0379175500
21
-14.6785469863
62
2
0
LINE
8
Setbacks
10
-15.0379175500
20
-14.6785469863
11
-15.0378559007
21
-14.6791132208
62
2
0
LINE
8
Setbacks
10
-15.0378559007
20
-14.6791132208
11
-15.0378536042
21
-14.6792198481
62
2
0
LINE
8
Setbacks
10
-15.0378536042
20
-14.6792198481
11
-15.0378535028
21
-14.6792247229
62
2
0
LINE
8
Setbacks
10
-15.0378535028
20
-14.6792247229
11
-14.9795621623
21
-17.5862805902
62
2
0
LINE
8
Setbacks
10
-14.9795621623
20
-17.5862805902
11
-14.9795659138
21
-17.5863359532
62
2
0
LINE
8
Setbacks
10
-14.9795659138
20
-17.5863359532
11
-14.9795601740
21
-17.5863891997
62
2
0
LINE
8
Setbacks
10
-14.9795601740
20
-17.5863891997
11
-14.9795991360
21
-17.5869621917
62
2
0
LINE
8
Setbacks
10
-14.9795991360
20
-17.5869621917
11
-14.9904179671
21
-17.6559611111
62
2
0
LINE
8
Setbacks
10
-14.9904179671
20
-17.6559611111
11
-15.0012981500
21
-17.7254708574
62
2
0
LINE
8
Setbacks
10
-15.0012981500
20
-17.7254708574
11
-15.0014321132
21
-17.7260160719
62
2
0
LINE
8
Setbacks
10
-15.0014321132
20
-17.7260160719
11
-15.0014547682
21
-17.7260678748
62
2
0
LINE
8
Setbacks
10
-15.0014547682
20
-17.7260678748
11
-15.0014678732
21
-17.7261210221
62
2
0
LINE
8
Setbacks
10
-15.0014678732
20
-17.7261210221
11
-15.0016925226
21
-17.7266341168
62
2
0
LINE
8
Setbacks
10
-15.0016925226
20
-17.7266341168
11
-15.0359374019
21
-17.7895947082
62
2
0
LINE
8
Setbacks
10
-15.0359374019
20
-17.7895947082
11
-15.0701639086
21
-17.8525598927
62
2
0
LINE
8
Setbacks
10
-15.0701639086
20
-17.8525598927
11
-15.0704539993
21
-17.8530038204
62
2
0
LINE
8
Setbacks
10
-15.0704539993
20
-17.8530038204
11
-15.0704933155
21
-17.8530468251
62
2
0
LINE
8
Setbacks
10
-15.0704933155
20
-17.8530468251
11
-15.0705228176
21
-17.8530919726
62
2
0
LINE
8
Setbacks
10
-15.0705228176
20
-17.8530919726
11
-15.0708804439
21
-17.8534832118
62
2
0
LINE
8
Setbacks
10
-15.0708804439
20
-17.8534832118
11
-15.1251111292
21
-17.9039419353
62
2
0
LINE
8
Setbacks
10
-15.1251111292
20
-17.9039419353
11
-15.1794218670
21
-17.9544994121
62
2
0
LINE
8
Setbacks
10
-15.1794218670
20
-17.9544994121
11
-15.1798103011
21
-17.9548095592
62
2
0
LINE
8
Setbacks
10
-15.1798103011
20
-17.9548095592
11
-15.1798611103
21
-17.9548387956
62
2
0
LINE
8
Setbacks
10
-15.1798611103
20
-17.9548387956
11
-15.1799051668
21
-17.9548739871
62
2
0
LINE
8
Setbacks
10
-15.1799051668
20
-17.9548739871
11
-15.1803343070
21
-17.9551213401
62
2
0
LINE
8
Setbacks
10
-15.1803343070
20
-17.9551213401
11
-15.2501387703
21
-17.9886103566
62
2
0
LINE
8
Setbacks
10
-15.2501387703
20
-17.9886103566
11
-15.3183205302
21
-18.0213395304
62
2
0
LINE
8
Setbacks
10
-15.3183205302
20
-18.0213395304
11
-15.3184332039
21
-18.0213748887
62
2
0
LINE
8
Setbacks
10
-15.3184332039
20
-18.0213748887
11
-15.3184364197
21
-18.0213764293
62
2
0
LINE
8
Setbacks
10
-15.3184364197
20
-18.0213764293
11
-15.3193294698
21
-18.0216562363
62
2
0
LINE
8
Setbacks
10
-15.3193294698
20
-18.0216562363
11
-15.3966447415
21
-18.0341742250
62
2
0
LINE
8
Setbacks
10
-15.3966447415
20
-18.0341742250
11
-15.4732539765
21
-18.0465947727
62
2
0
LINE
8
Setbacks
10
-15.4732539765
20
-18.0465947727
11
-15.4733761362
21
-18.0465973609
62
2
0
LINE
8
Setbacks
10
-15.4733761362
20
-18.0465973609
11
-15.4733831868
21
-18.0465984843
62
2
0
LINE
8
Setbacks
10
-15.4733831868
20
-18.0465984843
11
-15.4738343857
21
-18.0466387119
62
2
0
LINE
8
Setbacks
10
-15.4738343857
20
-18.0466387119
11
-18.6040720187
21
-18.1087240157
62
2
0
LINE
8
Setbacks
10
-18.6040720187
20
-18.1087240157
11
-18.6041954172
21
-18.1087263640
62
2
0
LINE
8
Setbacks
10
-18.6041954172
20
-18.1087263640
11
-18.6046533531
21
-18.1087030269
62
2
0
LINE
8
Setbacks
10
-18.6046533531
20
-18.1087030269
11
-18.6812127121
21
-18.0994051694
62
2
0
LINE
8
Setbacks
10
-18.6812127121
20
-18.0994051694
11
-18.7594489084
21
-18.0899209602
62
2
0
LINE
8
Setbacks
10
-18.7594489084
20
-18.0899209602
11
-18.7595644417
21
-18.0898897068
62
2
0
LINE
8
Setbacks
10
-18.7595644417
20
-18.0898897068
11
-18.7595647701
21
-18.0898896669
62
2
0
LINE
8
Setbacks
10
-18.7595647701
20
-18.0898896669
11
-18.7599359002
21
-18.0897892221
62
2
0
LINE
8
Setbacks
10
-18.7599359002
20
-18.0897892221
11
-18.7603550625
21
-18.0896758329
62
2
0
LINE
8
Setbacks
10
-18.7603550625
20
-18.0896758329
11
-18.7603554050
21
-18.0896756849
62
2
0
LINE
8
Setbacks
10
-18.7603554050
20
-18.0896756849
11
-18.7604696770
21
-18.0896447577
62
2
0
LINE
8
Setbacks
10
-18.7604696770
20
-18.0896447577
11
-18.8304903431
21
-18.0594050714
62
2
0
LINE
8
Setbacks
10
-18.8304903431
20
-18.0594050714
11
-18.9009831220
21
-18.0289800175
62
2
0
LINE
8
Setbacks
10
-18.9009831220
20
-18.0289800175
11
-18.9014254918
21
-18.0287476428
62
2
0
LINE
8
Setbacks
10
-18.9014254918
20
-18.0287476428
11
-18.9014666215
21
-18.0287172665
62
2
0
LINE
8
Setbacks
10
-18.9014666215
20
-18.0287172665
11
-18.9015167543
21
-18.0286910960
62
2
0
LINE
8
Setbacks
10
-18.9015167543
20
-18.0286910960
11
-18.9019194315
21
-18.0283953033
62
2
0
LINE
8
Setbacks
10
-18.9019194315
20
-18.0283953033
11
-18.9580090250
21
-17.9802072422
62
2
0
LINE
8
Setbacks
10
-18.9580090250
20
-17.9802072422
11
-19.0143971749
21
-17.9317865694
62
2
0
LINE
8
Setbacks
10
-19.0143971749
20
-17.9317865694
11
-19.0147715413
21
-17.9314081864
62
2
0
LINE
8
Setbacks
10
-19.0147715413
20
-17.9314081864
11
-19.0148024229
21
-17.9313647132
62
2
0
LINE
8
Setbacks
10
-19.0148024229
20
-17.9313647132
11
-19.0148407334
21
-17.9313261052
62
2
0
LINE
8
Setbacks
10
-19.0148407334
20
-17.9313261052
11
-19.0151497833
21
-17.9308922936
62
2
0
LINE
8
Setbacks
10
-19.0151497833
20
-17.9308922936
11
-19.0515665638
21
-17.8698273641
62
2
0
LINE
8
Setbacks
10
-19.0515665638
20
-17.8698273641
11
-19.0885811133
21
-17.8077962272
62
2
0
LINE
8
Setbacks
10
-19.0885811133
20
-17.8077962272
11
-19.0888280364
21
-17.8072872327
62
2
0
LINE
8
Setbacks
10
-19.0888280364
20
-17.8072872327
11
-19.0888417817
21
-17.8072392557
62
2
0
LINE
8
Setbacks
10
-19.0888417817
20
-17.8072392557
11
-19.0888642461
21
-17.8071932322
62
2
0
LINE
8
Setbacks
10
-19.0888642461
20
-17.8071932322
11
-19.0890213762
21
-17.8066497154
62
2
0
LINE
8
Setbacks
10
-19.0890213762
20
-17.8066497154
11
-19.1025209624
21
-17.7383348605
62
2
0
LINE
8
Setbacks
10
-19.1025209624
20
-17.7383348605
11
-19.1162187112
21
-17.6691158060
62
2
0
LINE
8
Setbacks
10
-19.1162187112
20
-17.6691158060
11
-19.1162804642
21
-17.6685446848
62
2
0
LINE
8
Setbacks
10
-19.1162804642
20
-17.6685446848
11
-19.1745737731
21
-14.7613821902
62
2
0
LINE
8
Setbacks
10
-19.1745737731
20
-14.7613821902
11
-19.1745701979
21
-14.7613305058
62
2
0
LINE
8
Setbacks
10
20.1596372772
20
14.1978362560
11
4.0339271008
21
14.0057349719
62
2
0
LINE
8
Setbacks
10
4.0339271008
20
14.0057349719
11
4.3341379902
21
-11.1950386097
62
2
0
LINE
8
Setbacks
10
4.3341379902
20
-11.1950386097
11
20.4598479518
21
-11.0029369969
62
2
0
LINE
8
Setbacks
10
-26.6628087114
20
1.9253056187
11
-10.1468367571
21
2.2562613153
62
2
0
LINE
8
Setbacks
10
-10.1468367571
20
2.2562613153
11
-10.3205142051
21
16.8353768120
62
2
0
LINE
8
Setbacks
10
-10.3205142051
20
16.8353768120
11
-10.3204750854
21
16.8359225187
62
2
0
LINE
8
Setbacks
10
-10.3204750854
20
16.8359225187
11
-10.1840344643
21
17.7088956438
62
2
0
LINE
8
Setbacks
10
-10.1840344643
20
17.7088956438
11
-10.1839073884
21
17.7094206920
62
2
0
LINE
8
Setbacks
10
-10.1839073884
20
17.7094206920
11
-10.1836958766
21
17.7099177702
62
2
0
LINE
8
Setbacks
10
-10.1836958766
20
17.7099177702
11
-10.0861622838
21
17.8951212813
62
2
0
LINE
8
Setbacks
10
-10.0861622838
20
17.8951212813
11
-10.1108446649
21
19.1268722826
62
2
0
LINE
8
Setbacks
10
-27.0007202061
20
18.7884245337
11
-26.6628087114
21
1.9253056187
62
2
0
LINE
8
Setbacks
10
-6.9487004676
20
-11.3294483680
11
1.5086987328
21
-11.2286974815
62
2
0
LINE
8
Setbacks
10
1.5086987328
20
-11.2286974815
11
1.3745150782
21
0.0351718990
62
2
0
LINE
8
Setbacks
10
1.3745150782
20
0.0351718990
11
0.0147233485
21
0.0190212294
62
2
0
LINE
8
Setbacks
10
0.0147233485
20
0.0190212294
11
0.0144195755
21
0.0190429335
62
2
0
LINE
8
Setbacks
10
0.0144195755
20
0.0190429335
11
0.0141180994
21
0.0190146102
62
2
0
LINE
8
Setbacks
10
0.0141180994
20
0.0190146102
11
0.0135730983
21
0.0190545101
62
2
0
LINE
8
Setbacks
10
0.0135730983
20
0.0190545101
11
-0.0587898670
21
0.0304695186
62
2
0
LINE
8
Setbacks
10
-0.0587898670
20
0.0304695186
11
-0.1312935800
21
0.0418061181
62
2
0
LINE
8
Setbacks
10
-0.1312935800
20
0.0418061181
11
-0.1318198397
21
0.0419336314
62
2
0
LINE
8
Setbacks
10
-0.1318198397
20
0.0419336314
11
-0.1321031145
21
0.0420543854
62
2
0
LINE
8
Setbacks
10
-0.1321031145
20
0.0420543854
11
-0.1323950968
21
0.0421253810
62
2
0
LINE
8
Setbacks
10
-0.1323950968
20
0.0421253810
11
-0.1328929105
21
0.0423380321
62
2
0
LINE
8
Setbacks
10
-0.1328929105
20
0.0423380321
11
-0.1984917190
21
0.0770164825
62
2
0
LINE
8
Setbacks
10
-0.1984917190
20
0.0770164825
11
-0.2641289119
21
0.1116043844
62
2
0
LINE
8
Setbacks
10
-0.2641289119
20
0.1116043844
11
-0.2645713367
21
0.1118847860
62
2
0
LINE
8
Setbacks
10
-0.2645713367
20
0.1118847860
11
-0.2648076552
21
0.1120940328
62
2
0
LINE
8
Setbacks
10
-0.2648076552
20
0.1120940328
11
-0.2650639005
21
0.1122568426
62
2
0
LINE
8
Setbacks
10
-0.2650639005
20
0.1122568426
11
-0.2654558381
21
0.1126047273
62
2
0
LINE
8
Setbacks
10
-0.2654558381
20
0.1126047273
11
-0.3177788629
21
0.1671156835
62
2
0
LINE
8
Setbacks
10
-0.3177788629
20
0.1671156835
11
-0.3702154027
21
0.2216053162
62
2
0
LINE
8
Setbacks
10
-0.3702154027
20
0.2216053162
11
-0.3705360106
21
0.2219943292
62
2
0
LINE
8
Setbacks
10
-0.3705360106
20
0.2219943292
11
-0.3707004277
21
0.2222714411
62
2
0
LINE
8
Setbacks
10
-0.3707004277
20
0.2222714411
11
-0.3708970486
21
0.2225107460
62
2
0
LINE
8
Setbacks
10
-0.3708970486
20
0.2225107460
11
-0.3711535392
21
0.2229444588
62
2
0
LINE
8
Setbacks
10
-0.3711535392
20
0.2229444588
11
-0.4050893318
21
0.2919255949
62
2
0
LINE
8
Setbacks
10
-0.4050893318
20
0.2919255949
11
-0.4391812901
21
0.3610100786
62
2
0
LINE
8
Setbacks
10
-0.4391812901
20
0.3610100786
11
-0.4393648617
21
0.3614649234
62
2
0
LINE
8
Setbacks
10
-0.4393648617
20
0.3614649234
11
-0.4394398254
21
0.3617794715
62
2
0
LINE
8
Setbacks
10
-0.4394398254
20
0.3617794715
11
-0.4395578450
21
0.3620725174
62
2
0
LINE
8
Setbacks
10
-0.4395578450
20
0.3620725174
11
-0.4396711984
21
0.3625496734
62
2
0
LINE
8
Setbacks
10
-0.4396711984
20
0.3625496734
11
-0.4519468054
21
0.4393856490
62
2
0
LINE
8
Setbacks
10
-0.4519468054
20
0.4393856490
11
-0.4643083680
21
0.5161651944
62
2
0
LINE
8
Setbacks
10
-0.4643083680
20
0.5161651944
11
-0.4643498458
21
0.5166474586
62
2
0
LINE
8
Setbacks
10
-0.4643498458
20
0.5166474586
11
-0.4643299333
21
0.5169688638
62
2
0
LINE
8
Setbacks
10
-0.4643299333
20
0.5169688638
11
-0.4643571112
21
0.5172897779
62
2
0
LINE
8
Setbacks
10
-0.4643571112
20
0.5172897779
11
-0.4847596709
21
2.4273981067
62
2
0
LINE
8
Setbacks
10
-0.4847596709
20
2.4273981067
11
-0.4847290866
21
2.4278814405
62
2
0
LINE
8
Setbacks
10
-0.4847290866
20
2.4278814405
11
-0.4740922196
21
2.5049975779
62
2
0
LINE
8
Setbacks
10
-0.4740922196
20
2.5049975779
11
-0.4635662426
21
2.5820011821
62
2
0
LINE
8
Setbacks
10
-0.4635662426
20
2.5820011821
11
-0.4634641448
21
2.5824792161
62
2
0
LINE
8
Setbacks
10
-0.4634641448
20
2.5824792161
11
-0.4633513766
21
2.5827792234
62
2
0
LINE
8
Setbacks
10
-0.4633513766
20
2.5827792234
11
-0.4632817797
21
2.5831024110
62
2
0
LINE
8
Setbacks
10
-0.4632817797
20
2.5831024110
11
-0.4631089183
21
2.5835598569
62
2
0
LINE
8
Setbacks
10
-0.4631089183
20
2.5835598569
11
-0.4305523663
21
2.6534579390
62
2
0
LINE
8
Setbacks
10
-0.4305523663
20
2.6534579390
11
-0.3982175968
21
2.7231066762
62
2
0
LINE
8
Setbacks
10
-0.3982175968
20
2.7231066762
11
-0.3979708112
21
2.7235462696
62
2
0
LINE
8
Setbacks
10
-0.3979708112
20
2.7235462696
11
-0.3977772090
21
2.7237929817
62
2
0
LINE
8
Setbacks
10
-0.3977772090
20
2.7237929817
11
-0.3976168636
21
2.7240776735
62
2
0
LINE
8
Setbacks
10
-0.3976168636
20
2.7240776735
11
-0.3973049982
21
2.7244739241
62
2
0
LINE
8
Setbacks
10
-0.3973049982
20
2.7244739241
11
-0.3461538741
21
2.7800776792
62
2
0
LINE
8
Setbacks
10
-0.3461538741
20
2.7800776792
11
-0.2950378530
21
2.8357877316
62
2
0
LINE
8
Setbacks
10
-0.2950378530
20
2.8357877316
11
-0.2946540490
21
2.8361441830
62
2
0
LINE
8
Setbacks
10
-0.2946540490
20
2.8361441830
11
-0.2943968382
21
2.8363158943
62
2
0
LINE
8
Setbacks
10
-0.2943968382
20
2.8363158943
11
-0.2941628080
21
2.8365326761
62
2
0
LINE
8
Setbacks
10
-0.2941628080
20
2.8365326761
11
-0.2937267674
21
2.8368229438
62
2
0
LINE
8
Setbacks
10
-0.2937267674
20
2.8368229438
11
-0.2289668765
21
2.8728271256
62
2
0
LINE
8
Setbacks
10
-0.2289668765
20
2.8728271256
11
-0.1640944513
21
2.9090078141
62
2
0
LINE
8
Setbacks
10
-0.1640944513
20
2.9090078141
11
-0.1636016095
21
2.9092315614
62
2
0
LINE
8
Setbacks
10
-0.1636016095
20
2.9092315614
11
-0.1633064769
21
2.9093103918
62
2
0
LINE
8
Setbacks
10
-0.1633064769
20
2.9093103918
11
-0.1630227716
21
2.9094388989
62
2
0
LINE
8
Setbacks
10
-0.1630227716
20
2.9094388989
11
-0.1624995776
21
2.9095781382
62
2
0
LINE
8
Setbacks
10
-0.1624995776
20
2.9095781382
11
-0.0903551417
21
2.9225199976
62
2
0
LINE
8
Setbacks
10
-0.0903551417
20
2.9225199976
11
-0.0181910203
21
2.9355678251
62
2
0
LINE
8
Setbacks
10
-0.0181910203
20
2.9355678251
11
-0.0176463105
21
2.9356199406
62
2
0
LINE
8
Setbacks
10
-0.0176463105
20
2.9356199406
11
1.3397702491
21
2.9517679218
62
2
0
LINE
8
Setbacks
10
1.3397702491
20
2.9517679218
11
1.2084881714
21
13.9720761001
62
2
0
LINE
8
Setbacks
10
1.2084881714
20
13.9720761001
11
-7.2489108806
21
13.8713252155
62
2
0
LINE
8
Obstructions
10
-12.8158163861
20
-9.6929769693
11
-11.7636195002
21
-9.6747158984
62
252
0
LINE
8
Obstructions
10
-11.7636195002
20
-9.6747158984
11
-11.7344727737
21
-11.1136883645
62
252
0
LINE
8
Obstructions
10
-11.7344727737
20
-11.1136883645
11
-12.7866696596
21
-11.1356016501
62
252
0
LINE
8
Obstructions
10
-12.7866696596
20
-11.1356016501
11
-12.8158163861
21
-9.6929769693
62
252
0
LINE
8
Obstructions
10
-18.6713940828
20
-14.7512938887
11
-15.5410354764
21
-14.6892062443
62
252
0
LINE
8
Obstructions
10
-15.5410354764
20
-14.6892062443
11
-15.4827420193
21
-17.5963688913
62
252
0
LINE
8
Obstructions
10
-15.4827420193
20
-17.5963688913
11
-18.6131006257
21
-17.6584565358
62
252
0
LINE
8
Obstructions
10
-18.6131006257
20
-17.6584565358
11
-18.6713940828
21
-14.7512938887
62
252
0
LINE
8
Obstructions
10
-10.8105214901
20
-14.2399838745
11
-6.2723759092
21
-14.1486785152
62
252
0
LINE
8
Obstructions
10
-6.2723759092
20
-14.1486785152
11
-5.9925673161
21
-28.1768339561
62
252
0
LINE
8
Obstructions
10
-5.9925673161
20
-28.1768339561
11
-10.5277982259
21
-28.2681393155
62
252
0
LINE
8
Obstructions
10
-10.5277982259
20
-28.2681393155
11
-10.8105214901
21
-14.2399838745
62
252
0
LINE
8
Obstructions
10
-0.0116586922
20
2.4323747771
11
0.0087440171
21
0.5222666557
62
252
0
LINE
8
Obstructions
10
0.0087440171
20
0.5222666557
11
1.8537319134
21
0.5441799438
62
252
0
LINE
8
Obstructions
10
1.8537319134
20
0.5441799438
11
1.8304145290
21
2.4542880652
62
252
0
LINE
8
Obstructions
10
1.8304145290
20
2.4542880652
11
-0.0116586922
21
2.4323747771
62
252
0
LINE
8
Obstructions
10
-29.2050216549
20
-21.1645823417
11
-27.1734946992
21
-21.1244079854
62
252
0
LINE
8
Obstructions
10
-27.1734946992
20
-21.1244079854
11
-27.1356039515
21
-23.0454727482
62
252
0
LINE
8
Obstructions
10
-27.1356039515
20
-23.0454727482
11
-29.1642162320
21
-23.0892993218
62
252
0
LINE
8
Obstructions
10
-29.1642162320
20
-23.0892993218
11
-29.2050216549
21
-21.1645823417
62
252
0
LINE
8
Inverters
10
-26.8529142723
20
21.0859091901
11
-24.3938745554
21
20.9974576932
0
LINE
8
Inverters
10
-24.3938745554
20
20.9974576932
11
-24.3054230585
21
23.4564974101
0
LINE
8
Inverters
10
-24.3054230585
20
23.4564974101
11
-26.7644627754
21
23.5449489070
0
LINE
8
Inverters
10
-26.7644627754
20
23.5449489070
11
-26.8529142723
21
21.0859091901
0
LINE
8
Inverters
10
-26.8529142723
20
21.0859091901
11
-24.3054230585
21
23.4564974101
0
TEXT
8
Inverters
100
AcDbText
10
-26.6335486865
20
22.6210106462
1
DC
7
NewTextStyle_4
40
0.7545932000000003
50
-2.0600372772
0
TEXT
8
Inverters
100
AcDbText
10
-25.8470080210
20
21.2138748958
1
AC
7
NewTextStyle_4
40
0.7545932000000003
50
-2.0600372772
0
LINE
8
Strings
10
64.0838567240
20
178.6068832997
11
64.4073669987
21
182.0848875062
62
11
0
LINE
8
Strings
10
64.4073669987
20
182.0848875062
11
64.7308772735
21
185.5628917128
62
11
0
LINE
8
Strings
10
64.7308772735
20
185.5628917128
11
65.0543875483
21
189.0408959194
62
11
0
LINE
8
Strings
10
65.0543875483
20
189.0408959194
11
58.2007700851
21
189.6783924654
62
11
0
LINE
8
Strings
10
58.2007700851
20
189.6783924654
11
57.8772598103
21
186.2003882588
62
11
0
LINE
8
Strings
10
57.8772598103
20
186.2003882588
11
57.2302392608
21
179.2443798457
62
11
0
LINE
8
Strings
10
50.3766217976
20
179.8818763917
11
51.0236423471
21
186.8378848049
62
11
0
LINE
8
Strings
10
51.0236423471
20
186.8378848049
11
51.3471526219
21
190.3158890114
62
11
0
LINE
8
Strings
10
51.3471526219
20
190.3158890114
11
44.4935351587
21
190.9533855575
62
11
0
LINE
8
Strings
10
44.4935351587
20
190.9533855575
11
44.1700248839
21
187.4753813509
62
11
0
LINE
8
Strings
10
44.1700248839
20
187.4753813509
11
43.8465146091
21
183.9973771443
62
11
0
LINE
8
Strings
10
43.8465146091
20
183.9973771443
11
43.5230043344
21
180.5193729378
62
11
0
LINE
8
Connections
10
57.2302392608
20
179.2443798457
11
57.2302392608
21
178.7522538457
62
91
0
LINE
8
Connections
10
57.2302392608
20
178.7522538457
11
56.7381132608
21
178.7522538457
62
91
0
LINE
8
Connections
10
56.7381132608
20
178.7522538457
11
-25.0870426654
21
22.7633293001
62
91
0
LINE
8
Connections
10
-25.0870426654
20
22.7633293001
11
-25.0870426654
21
22.2712033001
62
91
0
LINE
8
Connections
10
-25.0870426654
20
22.2712033001
11
-25.5791686654
21
22.2712033001
62
91
0
LINE
8
Connections
10
43.5230043344
20
180.5193729378
11
43.5230043344
21
180.0272469378
62
91
0
LINE
8
Connections
10
43.5230043344
20
180.0272469378
11
43.0308783344
21
180.0272469378
62
91
0
LINE
8
Connections
10
43.0308783344
20
180.0272469378
11
-25.0870426654
21
22.7633293001
62
91
0
LINE
8
Connections
10
-25.0870426654
20
22.7633293001
11
-25.0870426654
21
22.2712033001
62
91
0
LINE
8
Connections
10
-25.0870426654
20
22.2712033001
11
-25.5791686654
21
22.2712033001
62
91
0
ENDSEC
0
EOF