999
Design created by Aurora
0
SECTION
2
HEADER
9
$ACADVER
1
AC1009
9
$INSUNITS
70
2
0
ENDSEC
0
SECTION
2
TABLES
0
TABLE
2
LTYPE
100
AcDbLinetypeTableRecord
2
LTYPE
0
LTYPE
2
DASHED
70
0
3
dashed line
72
65
73
2
40
4.0
49
2.0
49
-2.0
0
ENDTAB
0
TABLE
2
LAYER
70
6
0
LAYER
100
AcDbSymbolTable
100
AcDbLayerTable
2
Inverters
70
0
62
7
6
CONTINUOUS
0
LAYER
100
AcDbSymbolTable
100
AcDbLayerTable
2
Setbacks
70
0
62
7
6
CONTINUOUS
0
LAYER
100
AcDbSymbolTable
100
AcDbLayerTable
2
Connections
70
0
62
7
6
CONTINUOUS
0
LAYER
100
AcDbSymbolTable
100
AcDbLayerTable
2
Strings
70
0
62
7
6
CONTINUOUS
0
LAYER
100
AcDbSymbolTable
100
AcDbLayerTable
2
Modules
70
0
62
7
6
CONTINUOUS
0
LAYER
100
AcDbSymbolTable
100
AcDbLayerTable
2
Buildings
70
0
62
7
6
CONTINUOUS
0
ENDTAB
0
ENDSEC
0
SECTION
2
ENTITIES
0
LINE
8
Modules
10
-72.8119156107
20
95.6519155324
11
-74.5415846200
21
89.7049376171
62
254
0
LINE
8
Modules
10
-74.5415846200
20
89.7049376171
11
-71.2778754653
21
88.7556930295
62
254
0
LINE
8
Modules
10
-71.2778754653
20
88.7556930295
11
-69.5482064559
21
94.7026709448
62
254
0
LINE
8
Modules
10
-69.5482064559
20
94.7026709448
11
-72.8119156107
21
95.6519155324
62
254
0
LINE
8
Modules
10
-72.5532152460
20
91.9245493858
11
-71.7656406429
21
91.6954845729
62
254
0
LINE
8
Modules
10
-71.7656406429
20
91.6954845729
11
-71.5365758299
21
92.4830591761
62
254
0
LINE
8
Modules
10
-71.5365758299
20
92.4830591761
11
-72.3241504331
21
92.7121239890
62
254
0
LINE
8
Modules
10
-72.3241504331
20
92.7121239890
11
-72.5532152460
21
91.9245493858
62
254
0
LINE
8
Modules
10
-72.5532152460
20
91.9245493858
11
-71.5365758299
21
92.4830591761
62
254
0
TEXT
8
Modules
100
AcDbText
10
-72.3639405858
20
92.3991017510
1
DC
7
NewTextStyle_4
40
0.2624672000000003
50
-16.216987609778304
0
TEXT
8
Modules
100
AcDbText
10
-72.2244415160
20
91.8801779369
1
DC
7
NewTextStyle_4
40
0.2624672000000003
50
-16.216987609778304
0
LINE
8
Modules
10
-69.5100489786
20
94.6913831510
11
-71.2397179879
21
88.7444052357
62
254
0
LINE
8
Modules
10
-71.2397179879
20
88.7444052357
11
-67.9760088331
21
87.7951606481
62
254
0
LINE
8
Modules
10
-67.9760088331
20
87.7951606481
11
-66.2463398238
21
93.7421385634
62
254
0
LINE
8
Modules
10
-66.2463398238
20
93.7421385634
11
-69.5100489786
21
94.6913831510
62
254
0
LINE
8
Modules
10
-69.2513486139
20
90.9640170044
11
-68.4637740107
21
90.7349521915
62
254
0
LINE
8
Modules
10
-68.4637740107
20
90.7349521915
11
-68.2347091978
21
91.5225267947
62
254
0
LINE
8
Modules
10
-68.2347091978
20
91.5225267947
11
-69.0222838010
21
91.7515916076
62
254
0
LINE
8
Modules
10
-69.0222838010
20
91.7515916076
11
-69.2513486139
21
90.9640170044
62
254
0
LINE
8
Modules
10
-69.2513486139
20
90.9640170044
11
-68.2347091978
21
91.5225267947
62
254
0
TEXT
8
Modules
100
AcDbText
10
-69.0620739537
20
91.4385693696
1
DC
7
NewTextStyle_4
40
0.2624672000000003
50
-16.216987609778304
0
TEXT
8
Modules
100
AcDbText
10
-68.9225748839
20
90.9196455554
1
DC
7
NewTextStyle_4
40
0.2624672000000003
50
-16.216987609778304
0
LINE
8
Modules
10
-66.2053161446
20
93.7308507670
11
-67.9349851539
21
87.7838728517
62
254
0
LINE
8
Modules
10
-67.9349851539
20
87.7838728517
11
-64.6712759991
21
86.8346282641
62
254
0
LINE
8
Modules
10
-64.6712759991
20
86.8346282641
11
-62.9416069898
21
92.7816061794
62
254
0
LINE
8
Modules
10
-62.9416069898
20
92.7816061794
11
-66.2053161446
21
93.7308507670
62
254
0
LINE
8
Modules
10
-65.9466157799
20
90.0034846204
11
-65.1590411767
21
89.7744198075
62
254
0
LINE
8
Modules
10
-65.1590411767
20
89.7744198075
11
-64.9299763638
21
90.5619944107
62
254
0
LINE
8
Modules
10
-64.9299763638
20
90.5619944107
11
-65.7175509670
21
90.7910592236
62
254
0
LINE
8
Modules
10
-65.7175509670
20
90.7910592236
11
-65.9466157799
21
90.0034846204
62
254
0
LINE
8
Modules
10
-65.9466157799
20
90.0034846204
11
-64.9299763638
21
90.5619944107
62
254
0
TEXT
8
Modules
100
AcDbText
10
-65.7573411197
20
90.4780369856
1
DC
7
NewTextStyle_4
40
0.2624672000000003
50
-16.216987609778304
0
TEXT
8
Modules
100
AcDbText
10
-65.6178420499
20
89.9591131714
1
DC
7
NewTextStyle_4
40
0.2624672000000003
50
-16.216987609778304
0
LINE
8
Modules
10
-62.9005833065
20
92.7703183856
11
-64.6302523158
21
86.8233404702
62
254
0
LINE
8
Modules
10
-64.6302523158
20
86.8233404702
11
-61.3665431611
21
85.8740958826
62
254
0
LINE
8
Modules
10
-61.3665431611
20
85.8740958826
11
-59.6368741518
21
91.8210737980
62
254
0
LINE
8
Modules
10
-59.6368741518
20
91.8210737980
11
-62.9005833065
21
92.7703183856
62
254
0
LINE
8
Modules
10
-62.6418829419
20
89.0429522390
11
-61.8543083387
21
88.8138874260
62
254
0
LINE
8
Modules
10
-61.8543083387
20
88.8138874260
11
-61.6252435258
21
89.6014620292
62
254
0
LINE
8
Modules
10
-61.6252435258
20
89.6014620292
11
-62.4128181289
21
89.8305268422
62
254
0
LINE
8
Modules
10
-62.4128181289
20
89.8305268422
11
-62.6418829419
21
89.0429522390
62
254
0
LINE
8
Modules
10
-62.6418829419
20
89.0429522390
11
-61.6252435258
21
89.6014620292
62
254
0
TEXT
8
Modules
100
AcDbText
10
-62.4526082817
20
89.5175046042
1
DC
7
NewTextStyle_4
40
0.2624672000000003
50
-16.216987609778304
0
TEXT
8
Modules
100
AcDbText
10
-62.3131092118
20
88.9985807900
1
DC
7
NewTextStyle_4
40
0.2624672000000003
50
-16.216987609778304
0
LINE
8
Modules
10
-59.5987166744
20
91.8061337895
11
-61.3283856837
21
85.8591558741
62
254
0
LINE
8
Modules
10
-61.3283856837
20
85.8591558741
11
-58.0646765290
21
84.9099112865
62
254
0
LINE
8
Modules
10
-58.0646765290
20
84.9099112865
11
-56.3350075197
21
90.8568892018
62
254
0
LINE
8
Modules
10
-56.3350075197
20
90.8568892018
11
-59.5987166744
21
91.8061337895
62
254
0
LINE
8
Modules
10
-59.3400163097
20
88.0787676429
11
-58.5524417066
21
87.8497028299
62
254
0
LINE
8
Modules
10
-58.5524417066
20
87.8497028299
11
-58.3233768936
21
88.6372774331
62
254
0
LINE
8
Modules
10
-58.3233768936
20
88.6372774331
11
-59.1109514968
21
88.8663422460
62
254
0
LINE
8
Modules
10
-59.1109514968
20
88.8663422460
11
-59.3400163097
21
88.0787676429
62
254
0
LINE
8
Modules
10
-59.3400163097
20
88.0787676429
11
-58.3233768936
21
88.6372774331
62
254
0
TEXT
8
Modules
100
AcDbText
10
-59.1507416495
20
88.5533200081
1
DC
7
NewTextStyle_4
40
0.2624672000000003
50
-16.216987609778304
0
TEXT
8
Modules
100
AcDbText
10
-59.0112425797
20
88.0343961939
1
DC
7
NewTextStyle_4
40
0.2624672000000003
50
-16.216987609778304
0
LINE
8
Modules
10
-56.2939838404
20
90.8456014054
11
-58.0236528497
21
84.8986234901
62
254
0
LINE
8
Modules
10
-58.0236528497
20
84.8986234901
11
-54.7599436950
21
83.9493789025
62
254
0
LINE
8
Modules
10
-54.7599436950
20
83.9493789025
11
-53.0302746857
21
89.8963568178
62
254
0
LINE
8
Modules
10
-53.0302746857
20
89.8963568178
11
-56.2939838404
21
90.8456014054
62
254
0
LINE
8
Modules
10
-56.0352834758
20
87.1182352588
11
-55.2477088726
21
86.8891704459
62
254
0
LINE
8
Modules
10
-55.2477088726
20
86.8891704459
11
-55.0186440596
21
87.6767450491
62
254
0
LINE
8
Modules
10
-55.0186440596
20
87.6767450491
11
-55.8062186628
21
87.9058098620
62
254
0
LINE
8
Modules
10
-55.8062186628
20
87.9058098620
11
-56.0352834758
21
87.1182352588
62
254
0
LINE
8
Modules
10
-56.0352834758
20
87.1182352588
11
-55.0186440596
21
87.6767450491
62
254
0
TEXT
8
Modules
100
AcDbText
10
-55.8460088155
20
87.5927876240
1
DC
7
NewTextStyle_4
40
0.2624672000000003
50
-16.216987609778304
0
TEXT
8
Modules
100
AcDbText
10
-55.7065097457
20
87.0738638099
1
DC
7
NewTextStyle_4
40
0.2624672000000003
50
-16.216987609778304
0
LINE
8
Modules
10
-71.0721299816
20
101.6378949037
11
-72.8017989909
21
95.6909169884
62
254
0
LINE
8
Modules
10
-72.8017989909
20
95.6909169884
11
-69.5380898361
21
94.7416724008
62
254
0
LINE
8
Modules
10
-69.5380898361
20
94.7416724008
11
-67.8084208268
21
100.6886503161
62
254
0
LINE
8
Modules
10
-67.8084208268
20
100.6886503161
11
-71.0721299816
21
101.6378949037
62
254
0
LINE
8
Modules
10
-70.8134296169
20
97.9105287571
11
-70.0258550137
21
97.6814639442
62
254
0
LINE
8
Modules
10
-70.0258550137
20
97.6814639442
11
-69.7967902008
21
98.4690385474
62
254
0
LINE
8
Modules
10
-69.7967902008
20
98.4690385474
11
-70.5843648040
21
98.6981033603
62
254
0
LINE
8
Modules
10
-70.5843648040
20
98.6981033603
11
-70.8134296169
21
97.9105287571
62
254
0
LINE
8
Modules
10
-70.8134296169
20
97.9105287571
11
-69.7967902008
21
98.4690385474
62
254
0
TEXT
8
Modules
100
AcDbText
10
-70.6241549567
20
98.3850811223
1
DC
7
NewTextStyle_4
40
0.2624672000000003
50
-16.216987609778304
0
TEXT
8
Modules
100
AcDbText
10
-70.4846558868
20
97.8661573082
1
DC
7
NewTextStyle_4
40
0.2624672000000003
50
-16.216987609778304
0
LINE
8
Modules
10
-67.7673971435
20
100.6773625223
11
-69.4970661528
21
94.7303846070
62
254
0
LINE
8
Modules
10
-69.4970661528
20
94.7303846070
11
-66.2333569980
21
93.7811400194
62
254
0
LINE
8
Modules
10
-66.2333569980
20
93.7811400194
11
-64.5036879887
21
99.7281179347
62
254
0
LINE
8
Modules
10
-64.5036879887
20
99.7281179347
11
-67.7673971435
21
100.6773625223
62
254
0
LINE
8
Modules
10
-67.5086967788
20
96.9499963757
11
-66.7211221756
21
96.7209315628
62
254
0
LINE
8
Modules
10
-66.7211221756
20
96.7209315628
11
-66.4920573627
21
97.5085061660
62
254
0
LINE
8
Modules
10
-66.4920573627
20
97.5085061660
11
-67.2796319659
21
97.7375709789
62
254
0
LINE
8
Modules
10
-67.2796319659
20
97.7375709789
11
-67.5086967788
21
96.9499963757
62
254
0
LINE
8
Modules
10
-67.5086967788
20
96.9499963757
11
-66.4920573627
21
97.5085061660
62
254
0
TEXT
8
Modules
100
AcDbText
10
-67.3194221186
20
97.4245487409
1
DC
7
NewTextStyle_4
40
0.2624672000000003
50
-16.216987609778304
0
TEXT
8
Modules
100
AcDbText
10
-67.1799230488
20
96.9056249267
1
DC
7
NewTextStyle_4
40
0.2624672000000003
50
-16.216987609778304
0
LINE
8
Modules
10
-64.4626643095
20
99.7168301383
11
-66.1923333188
21
93.7698522230
62
254
0
LINE
8
Modules
10
-66.1923333188
20
93.7698522230
11
-62.9286241641
21
92.8206076354
62
254
0
LINE
8
Modules
10
-62.9286241641
20
92.8206076354
11
-61.1989551548
21
98.7675855507
62
254
0
LINE
8
Modules
10
-61.1989551548
20
98.7675855507
11
-64.4626643095
21
99.7168301383
62
254
0
LINE
8
Modules
10
-64.2039639448
20
95.9894639917
11
-63.4163893417
21
95.7603991788
62
254
0
LINE
8
Modules
10
-63.4163893417
20
95.7603991788
11
-63.1873245287
21
96.5479737820
62
254
0
LINE
8
Modules
10
-63.1873245287
20
96.5479737820
11
-63.9748991319
21
96.7770385949
62
254
0
LINE
8
Modules
10
-63.9748991319
20
96.7770385949
11
-64.2039639448
21
95.9894639917
62
254
0
LINE
8
Modules
10
-64.2039639448
20
95.9894639917
11
-63.1873245287
21
96.5479737820
62
254
0
TEXT
8
Modules
100
AcDbText
10
-64.0146892846
20
96.4640163569
1
DC
7
NewTextStyle_4
40
0.2624672000000003
50
-16.216987609778304
0
TEXT
8
Modules
100
AcDbText
10
-63.8751902148
20
95.9450925427
1
DC
7
NewTextStyle_4
40
0.2624672000000003
50
-16.216987609778304
0
LINE
8
Modules
10
-61.1607976774
20
98.7562977569
11
-62.8904666867
21
92.8093198415
62
254
0
LINE
8
Modules
10
-62.8904666867
20
92.8093198415
11
-59.6267575319
21
91.8600752539
62
254
0
LINE
8
Modules
10
-59.6267575319
20
91.8600752539
11
-57.8970885226
21
97.8070531693
62
254
0
LINE
8
Modules
10
-57.8970885226
20
97.8070531693
11
-61.1607976774
21
98.7562977569
62
254
0
LINE
8
Modules
10
-60.9020973127
20
95.0289316103
11
-60.1145227095
21
94.7998667974
62
254
0
LINE
8
Modules
10
-60.1145227095
20
94.7998667974
11
-59.8854578966
21
95.5874414005
62
254
0
LINE
8
Modules
10
-59.8854578966
20
95.5874414005
11
-60.6730324998
21
95.8165062135
62
254
0
LINE
8
Modules
10
-60.6730324998
20
95.8165062135
11
-60.9020973127
21
95.0289316103
62
254
0
LINE
8
Modules
10
-60.9020973127
20
95.0289316103
11
-59.8854578966
21
95.5874414005
62
254
0
TEXT
8
Modules
100
AcDbText
10
-60.7128226525
20
95.5034839755
1
DC
7
NewTextStyle_4
40
0.2624672000000003
50
-16.216987609778304
0
TEXT
8
Modules
100
AcDbText
10
-60.5733235827
20
94.9845601613
1
DC
7
NewTextStyle_4
40
0.2624672000000003
50
-16.216987609778304
0
LINE
8
Modules
10
-57.8560648434
20
97.7957653754
11
-59.5857338527
21
91.8487874601
62
254
0
LINE
8
Modules
10
-59.5857338527
20
91.8487874601
11
-56.3220246979
21
90.8995428725
62
254
0
LINE
8
Modules
10
-56.3220246979
20
90.8995428725
11
-54.5923556886
21
96.8465207878
62
254
0
LINE
8
Modules
10
-54.5923556886
20
96.8465207878
11
-57.8560648434
21
97.7957653754
62
254
0
LINE
8
Modules
10
-57.5973644787
20
94.0683992288
11
-56.8097898755
21
93.8393344159
62
254
0
LINE
8
Modules
10
-56.8097898755
20
93.8393344159
11
-56.5807250626
21
94.6269090191
62
254
0
LINE
8
Modules
10
-56.5807250626
20
94.6269090191
11
-57.3682996658
21
94.8559738320
62
254
0
LINE
8
Modules
10
-57.3682996658
20
94.8559738320
11
-57.5973644787
21
94.0683992288
62
254
0
LINE
8
Modules
10
-57.5973644787
20
94.0683992288
11
-56.5807250626
21
94.6269090191
62
254
0
TEXT
8
Modules
100
AcDbText
10
-57.4080898185
20
94.5429515940
1
DC
7
NewTextStyle_4
40
0.2624672000000003
50
-16.216987609778304
0
TEXT
8
Modules
100
AcDbText
10
-57.2685907487
20
94.0240277799
1
DC
7
NewTextStyle_4
40
0.2624672000000003
50
-16.216987609778304
0
LINE
8
Modules
10
-54.5513320053
20
96.8315807767
11
-56.2810010146
21
90.8846028614
62
254
0
LINE
8
Modules
10
-56.2810010146
20
90.8846028614
11
-53.0172918599
21
89.9353582738
62
254
0
LINE
8
Modules
10
-53.0172918599
20
89.9353582738
11
-51.2876228506
21
95.8823361891
62
254
0
LINE
8
Modules
10
-51.2876228506
20
95.8823361891
11
-54.5513320053
21
96.8315807767
62
254
0
LINE
8
Modules
10
-54.2926316407
20
93.1042146301
11
-53.5050570375
21
92.8751498172
62
254
0
LINE
8
Modules
10
-53.5050570375
20
92.8751498172
11
-53.2759922246
21
93.6627244204
62
254
0
LINE
8
Modules
10
-53.2759922246
20
93.6627244204
11
-54.0635668277
21
93.8917892333
62
254
0
LINE
8
Modules
10
-54.0635668277
20
93.8917892333
11
-54.2926316407
21
93.1042146301
62
254
0
LINE
8
Modules
10
-54.2926316407
20
93.1042146301
11
-53.2759922246
21
93.6627244204
62
254
0
TEXT
8
Modules
100
AcDbText
10
-54.1033569805
20
93.5787669953
1
DC
7
NewTextStyle_4
40
0.2624672000000003
50
-16.216987609778304
0
TEXT
8
Modules
100
AcDbText
10
-53.9638579106
20
93.0598431812
1
DC
7
NewTextStyle_4
40
0.2624672000000003
50
-16.216987609778304
0
LINE
8
Modules
10
-69.3294781465
20
107.6238742750
11
-71.0591471558
21
101.6768963597
62
254
0
LINE
8
Modules
10
-71.0591471558
20
101.6768963597
11
-67.7954380010
21
100.7276517721
62
254
0
LINE
8
Modules
10
-67.7954380010
20
100.7276517721
11
-66.0657689917
21
106.6746296874
62
254
0
LINE
8
Modules
10
-66.0657689917
20
106.6746296874
11
-69.3294781465
21
107.6238742750
62
254
0
LINE
8
Modules
10
-69.0707777818
20
103.8965081285
11
-68.2832031786
21
103.6674433155
62
254
0
LINE
8
Modules
10
-68.2832031786
20
103.6674433155
11
-68.0541383657
21
104.4550179187
62
254
0
LINE
8
Modules
10
-68.0541383657
20
104.4550179187
11
-68.8417129689
21
104.6840827316
62
254
0
LINE
8
Modules
10
-68.8417129689
20
104.6840827316
11
-69.0707777818
21
103.8965081285
62
254
0
LINE
8
Modules
10
-69.0707777818
20
103.8965081285
11
-68.0541383657
21
104.4550179187
62
254
0
TEXT
8
Modules
100
AcDbText
10
-68.8815031216
20
104.3710604936
1
DC
7
NewTextStyle_4
40
0.2624672000000003
50
-16.216987609778304
0
TEXT
8
Modules
100
AcDbText
10
-68.7420040518
20
103.8521366795
1
DC
7
NewTextStyle_4
40
0.2624672000000003
50
-16.216987609778304
0
LINE
8
Modules
10
-66.0276115144
20
106.6633418936
11
-67.7572805237
21
100.7163639783
62
254
0
LINE
8
Modules
10
-67.7572805237
20
100.7163639783
11
-64.4935713689
21
99.7671193907
62
254
0
LINE
8
Modules
10
-64.4935713689
20
99.7671193907
11
-62.7639023596
21
105.7140973060
62
254
0
LINE
8
Modules
10
-62.7639023596
20
105.7140973060
11
-66.0276115144
21
106.6633418936
62
254
0
LINE
8
Modules
10
-65.7689111497
20
102.9359757470
11
-64.9813365465
21
102.7069109341
62
254
0
LINE
8
Modules
10
-64.9813365465
20
102.7069109341
11
-64.7522717336
21
103.4944855373
62
254
0
LINE
8
Modules
10
-64.7522717336
20
103.4944855373
11
-65.5398463368
21
103.7235503502
62
254
0
LINE
8
Modules
10
-65.5398463368
20
103.7235503502
11
-65.7689111497
21
102.9359757470
62
254
0
LINE
8
Modules
10
-65.7689111497
20
102.9359757470
11
-64.7522717336
21
103.4944855373
62
254
0
TEXT
8
Modules
100
AcDbText
10
-65.5796364895
20
103.4105281122
1
DC
7
NewTextStyle_4
40
0.2624672000000003
50
-16.216987609778304
0
TEXT
8
Modules
100
AcDbText
10
-65.4401374196
20
102.8916042980
1
DC
7
NewTextStyle_4
40
0.2624672000000003
50
-16.216987609778304
0
LINE
8
Modules
10
-62.7228786804
20
105.7028095122
11
-64.4525476897
21
99.7558315969
62
254
0
LINE
8
Modules
10
-64.4525476897
20
99.7558315969
11
-61.1888385349
21
98.8065870093
62
254
0
LINE
8
Modules
10
-61.1888385349
20
98.8065870093
11
-59.4591695256
21
104.7535649246
62
254
0
LINE
8
Modules
10
-59.4591695256
20
104.7535649246
11
-62.7228786804
21
105.7028095122
62
254
0
LINE
8
Modules
10
-62.4641783157
20
101.9754433656
11
-61.6766037125
21
101.7463785527
62
254
0
LINE
8
Modules
10
-61.6766037125
20
101.7463785527
11
-61.4475388996
21
102.5339531559
62
254
0
LINE
8
Modules
10
-61.4475388996
20
102.5339531559
11
-62.2351135028
21
102.7630179688
62
254
0
LINE
8
Modules
10
-62.2351135028
20
102.7630179688
11
-62.4641783157
21
101.9754433656
62
254
0
LINE
8
Modules
10
-62.4641783157
20
101.9754433656
11
-61.4475388996
21
102.5339531559
62
254
0
TEXT
8
Modules
100
AcDbText
10
-62.2749036555
20
102.4499957308
1
DC
7
NewTextStyle_4
40
0.2624672000000003
50
-16.216987609778304
0
TEXT
8
Modules
100
AcDbText
10
-62.1354045856
20
101.9310719166
1
DC
7
NewTextStyle_4
40
0.2624672000000003
50
-16.216987609778304
0
LINE
8
Modules
10
-59.4181458464
20
104.7422771282
11
-61.1478148557
21
98.7952992128
62
254
0
LINE
8
Modules
10
-61.1478148557
20
98.7952992128
11
-57.8841057009
21
97.8460546252
62
254
0
LINE
8
Modules
10
-57.8841057009
20
97.8460546252
11
-56.1544366916
21
103.7930325406
62
254
0
LINE
8
Modules
10
-56.1544366916
20
103.7930325406
11
-59.4181458464
21
104.7422771282
62
254
0
LINE
8
Modules
10
-59.1594454817
20
101.0149109816
11
-58.3718708785
21
100.7858461687
62
254
0
LINE
8
Modules
10
-58.3718708785
20
100.7858461687
11
-58.1428060656
21
101.5734207718
62
254
0
LINE
8
Modules
10
-58.1428060656
20
101.5734207718
11
-58.9303806688
21
101.8024855848
62
254
0
LINE
8
Modules
10
-58.9303806688
20
101.8024855848
11
-59.1594454817
21
101.0149109816
62
254
0
LINE
8
Modules
10
-59.1594454817
20
101.0149109816
11
-58.1428060656
21
101.5734207718
62
254
0
TEXT
8
Modules
100
AcDbText
10
-58.9701708215
20
101.4894633468
1
DC
7
NewTextStyle_4
40
0.2624672000000003
50
-16.216987609778304
0
TEXT
8
Modules
100
AcDbText
10
-58.8306717517
20
100.9705395326
1
DC
7
NewTextStyle_4
40
0.2624672000000003
50
-16.216987609778304
0
LINE
8
Modules
10
-56.1162792143
20
103.7817447467
11
-57.8459482236
21
97.8347668314
62
254
0
LINE
8
Modules
10
-57.8459482236
20
97.8347668314
11
-54.5822390688
21
96.8855222438
62
254
0
LINE
8
Modules
10
-54.5822390688
20
96.8855222438
11
-52.8525700595
21
102.8325001591
62
254
0
LINE
8
Modules
10
-52.8525700595
20
102.8325001591
11
-56.1162792143
21
103.7817447467
62
254
0
LINE
8
Modules
10
-55.8575788496
20
100.0543786002
11
-55.0700042464
21
99.8253137872
62
254
0
LINE
8
Modules
10
-55.0700042464
20
99.8253137872
11
-54.8409394335
21
100.6128883904
62
254
0
LINE
8
Modules
10
-54.8409394335
20
100.6128883904
11
-55.6285140367
21
100.8419532033
62
254
0
LINE
8
Modules
10
-55.6285140367
20
100.8419532033
11
-55.8575788496
21
100.0543786002
62
254
0
LINE
8
Modules
10
-55.8575788496
20
100.0543786002
11
-54.8409394335
21
100.6128883904
62
254
0
TEXT
8
Modules
100
AcDbText
10
-55.6683041894
20
100.5289309653
1
DC
7
NewTextStyle_4
40
0.2624672000000003
50
-16.216987609778304
0
TEXT
8
Modules
100
AcDbText
10
-55.5288051195
20
100.0100071512
1
DC
7
NewTextStyle_4
40
0.2624672000000003
50
-16.216987609778304
0
LINE
8
Modules
10
-52.8115463762
20
102.8212123627
11
-54.5412153855
21
96.8742344474
62
254
0
LINE
8
Modules
10
-54.5412153855
20
96.8742344474
11
-51.2775062307
21
95.9249898598
62
254
0
LINE
8
Modules
10
-51.2775062307
20
95.9249898598
11
-49.5478372214
21
101.8719677751
62
254
0
LINE
8
Modules
10
-49.5478372214
20
101.8719677751
11
-52.8115463762
21
102.8212123627
62
254
0
LINE
8
Modules
10
-52.5528460115
20
99.0938462161
11
-51.7652714083
21
98.8647814032
62
254
0
LINE
8
Modules
10
-51.7652714083
20
98.8647814032
11
-51.5362065954
21
99.6523560064
62
254
0
LINE
8
Modules
10
-51.5362065954
20
99.6523560064
11
-52.3237811986
21
99.8814208193
62
254
0
LINE
8
Modules
10
-52.3237811986
20
99.8814208193
11
-52.5528460115
21
99.0938462161
62
254
0
LINE
8
Modules
10
-52.5528460115
20
99.0938462161
11
-51.5362065954
21
99.6523560064
62
254
0
TEXT
8
Modules
100
AcDbText
10
-52.3635713513
20
99.5683985813
1
DC
7
NewTextStyle_4
40
0.2624672000000003
50
-16.216987609778304
0
TEXT
8
Modules
100
AcDbText
10
-52.2240722815
20
99.0494747672
1
DC
7
NewTextStyle_4
40
0.2624672000000003
50
-16.216987609778304
0
LINE
8
Modules
10
-11.2687903336
20
77.6757163451
11
-12.9984593429
21
71.7287384298
62
254
0
LINE
8
Modules
10
-12.9984593429
20
71.7287384298
11
-9.7347501881
21
70.7794938422
62
254
0
LINE
8
Modules
10
-9.7347501881
20
70.7794938422
11
-8.0050811788
21
76.7264717575
62
254
0
LINE
8
Modules
10
-8.0050811788
20
76.7264717575
11
-11.2687903336
21
77.6757163451
62
254
0
LINE
8
Modules
10
-11.0100899689
20
73.9483501985
11
-10.2225153658
21
73.7192853856
62
254
0
LINE
8
Modules
10
-10.2225153658
20
73.7192853856
11
-9.9934505528
21
74.5068599888
62
254
0
LINE
8
Modules
10
-9.9934505528
20
74.5068599888
11
-10.7810251560
21
74.7359248017
62
254
0
LINE
8
Modules
10
-10.7810251560
20
74.7359248017
11
-11.0100899689
21
73.9483501985
62
254
0
LINE
8
Modules
10
-11.0100899689
20
73.9483501985
11
-9.9934505528
21
74.5068599888
62
254
0
TEXT
8
Modules
100
AcDbText
10
-10.8208153087
20
74.4229025637
1
DC
7
NewTextStyle_4
40
0.2624672000000003
50
-16.21698760976946
0
TEXT
8
Modules
100
AcDbText
10
-10.6813162389
20
73.9039787495
1
DC
7
NewTextStyle_4
40
0.2624672000000003
50
-16.21698760976946
0
LINE
8
Modules
10
-7.9640574996
20
76.7151839637
11
-9.6937265089
21
70.7682060484
62
254
0
LINE
8
Modules
10
-9.6937265089
20
70.7682060484
11
-6.4300173542
21
69.8189614608
62
254
0
LINE
8
Modules
10
-6.4300173542
20
69.8189614608
11
-4.7003483449
21
75.7659393761
62
254
0
LINE
8
Modules
10
-4.7003483449
20
75.7659393761
11
-7.9640574996
21
76.7151839637
62
254
0
LINE
8
Modules
10
-7.7053571349
20
72.9878178171
11
-6.9177825318
21
72.7587530042
62
254
0
LINE
8
Modules
10
-6.9177825318
20
72.7587530042
11
-6.6887177188
21
73.5463276074
62
254
0
LINE
8
Modules
10
-6.6887177188
20
73.5463276074
11
-7.4762923220
21
73.7753924203
62
254
0
LINE
8
Modules
10
-7.4762923220
20
73.7753924203
11
-7.7053571349
21
72.9878178171
62
254
0
LINE
8
Modules
10
-7.7053571349
20
72.9878178171
11
-6.6887177188
21
73.5463276074
62
254
0
TEXT
8
Modules
100
AcDbText
10
-7.5160824747
20
73.4623701823
1
DC
7
NewTextStyle_4
40
0.2624672000000003
50
-16.21698760976946
0
TEXT
8
Modules
100
AcDbText
10
-7.3765834049
20
72.9434463681
1
DC
7
NewTextStyle_4
40
0.2624672000000003
50
-16.21698760976946
0
LINE
8
Modules
10
-4.6621908675
20
75.7546515797
11
-6.3918598768
21
69.8076736643
62
254
0
LINE
8
Modules
10
-6.3918598768
20
69.8076736643
11
-3.1281507220
21
68.8584290767
62
254
0
LINE
8
Modules
10
-3.1281507220
20
68.8584290767
11
-1.3984817127
21
74.8054069921
62
254
0
LINE
8
Modules
10
-1.3984817127
20
74.8054069921
11
-4.6621908675
21
75.7546515797
62
254
0
LINE
8
Modules
10
-4.4034905028
20
72.0272854331
11
-3.6159158996
21
71.7982206201
62
254
0
LINE
8
Modules
10
-3.6159158996
20
71.7982206201
11
-3.3868510867
21
72.5857952233
62
254
0
LINE
8
Modules
10
-3.3868510867
20
72.5857952233
11
-4.1744256899
21
72.8148600363
62
254
0
LINE
8
Modules
10
-4.1744256899
20
72.8148600363
11
-4.4034905028
21
72.0272854331
62
254
0
LINE
8
Modules
10
-4.4034905028
20
72.0272854331
11
-3.3868510867
21
72.5857952233
62
254
0
TEXT
8
Modules
100
AcDbText
10
-4.2142158426
20
72.5018377983
1
DC
7
NewTextStyle_4
40
0.2624672000000003
50
-16.21698760976946
0
TEXT
8
Modules
100
AcDbText
10
-4.0747167728
20
71.9829139841
1
DC
7
NewTextStyle_4
40
0.2624672000000003
50
-16.21698760976946
0
LINE
8
Modules
10
-1.3574580294
20
74.7941191982
11
-3.0871270387
21
68.8471412829
62
254
0
LINE
8
Modules
10
-3.0871270387
20
68.8471412829
11
0.1765821160
21
67.8978966953
62
254
0
LINE
8
Modules
10
0.1765821160
20
67.8978966953
11
1.9062511253
21
73.8448746106
62
254
0
LINE
8
Modules
10
1.9062511253
20
73.8448746106
11
-1.3574580294
21
74.7941191982
62
254
0
LINE
8
Modules
10
-1.0987576648
20
71.0667530516
11
-0.3111830616
21
70.8376882387
62
254
0
LINE
8
Modules
10
-0.3111830616
20
70.8376882387
11
-0.0821182487
21
71.6252628419
62
254
0
LINE
8
Modules
10
-0.0821182487
20
71.6252628419
11
-0.8696928518
21
71.8543276548
62
254
0
LINE
8
Modules
10
-0.8696928518
20
71.8543276548
11
-1.0987576648
21
71.0667530516
62
254
0
LINE
8
Modules
10
-1.0987576648
20
71.0667530516
11
-0.0821182487
21
71.6252628419
62
254
0
TEXT
8
Modules
100
AcDbText
10
-0.9094830046
20
71.5413054168
1
DC
7
NewTextStyle_4
40
0.2624672000000003
50
-16.21698760976946
0
TEXT
8
Modules
100
AcDbText
10
-0.7699839347
20
71.0223816027
1
DC
7
NewTextStyle_4
40
0.2624672000000003
50
-16.21698760976946
0
LINE
8
Modules
10
-17.8753897997
20
79.6004333252
11
-19.6050588090
21
73.6534554099
62
254
0
LINE
8
Modules
10
-19.6050588090
20
73.6534554099
11
-16.3413496543
21
72.7042108223
62
254
0
LINE
8
Modules
10
-16.3413496543
20
72.7042108223
11
-14.6116806450
21
78.6511887376
62
254
0
LINE
8
Modules
10
-14.6116806450
20
78.6511887376
11
-17.8753897997
21
79.6004333252
62
254
0
LINE
8
Modules
10
-17.6166894350
20
75.8730671787
11
-16.8291148319
21
75.6440023657
62
254
0
LINE
8
Modules
10
-16.8291148319
20
75.6440023657
11
-16.6000500189
21
76.4315769689
62
254
0
LINE
8
Modules
10
-16.6000500189
20
76.4315769689
11
-17.3876246221
21
76.6606417818
62
254
0
LINE
8
Modules
10
-17.3876246221
20
76.6606417818
11
-17.6166894350
21
75.8730671787
62
254
0
LINE
8
Modules
10
-17.6166894350
20
75.8730671787
11
-16.6000500189
21
76.4315769689
62
254
0
TEXT
8
Modules
100
AcDbText
10
-17.4274147748
20
76.3476195439
1
DC
7
NewTextStyle_4
40
0.2624672000000003
50
-16.21698760976946
0
TEXT
8
Modules
100
AcDbText
10
-17.2879157050
20
75.8286957297
1
DC
7
NewTextStyle_4
40
0.2624672000000003
50
-16.21698760976946
0
LINE
8
Modules
10
-14.5735231676
20
78.6362487291
11
-16.3031921769
21
72.6892708138
62
254
0
LINE
8
Modules
10
-16.3031921769
20
72.6892708138
11
-13.0394830221
21
71.7400262262
62
254
0
LINE
8
Modules
10
-13.0394830221
20
71.7400262262
11
-11.3098140128
21
77.6870041415
62
254
0
LINE
8
Modules
10
-11.3098140128
20
77.6870041415
11
-14.5735231676
21
78.6362487291
62
254
0
LINE
8
Modules
10
-14.3148228029
20
74.9088825825
11
-13.5272481997
21
74.6798177696
62
254
0
LINE
8
Modules
10
-13.5272481997
20
74.6798177696
11
-13.2981833868
21
75.4673923728
62
254
0
LINE
8
Modules
10
-13.2981833868
20
75.4673923728
11
-14.0857579900
21
75.6964571857
62
254
0
LINE
8
Modules
10
-14.0857579900
20
75.6964571857
11
-14.3148228029
21
74.9088825825
62
254
0
LINE
8
Modules
10
-14.3148228029
20
74.9088825825
11
-13.2981833868
21
75.4673923728
62
254
0
TEXT
8
Modules
100
AcDbText
10
-14.1255481427
20
75.3834349477
1
DC
7
NewTextStyle_4
40
0.2624672000000003
50
-16.21698760976946
0
TEXT
8
Modules
100
AcDbText
10
-13.9860490729
20
74.8645111336
1
DC
7
NewTextStyle_4
40
0.2624672000000003
50
-16.21698760976946
0
LINE
8
Modules
10
-16.1356041706
20
85.5864126965
11
-17.8652731799
21
79.6394347812
62
254
0
LINE
8
Modules
10
-17.8652731799
20
79.6394347812
11
-14.6015640251
21
78.6901901936
62
254
0
LINE
8
Modules
10
-14.6015640251
20
78.6901901936
11
-12.8718950158
21
84.6371681089
62
254
0
LINE
8
Modules
10
-12.8718950158
20
84.6371681089
11
-16.1356041706
21
85.5864126965
62
254
0
LINE
8
Modules
10
-15.8769038059
20
81.8590465500
11
-15.0893292027
21
81.6299817370
62
254
0
LINE
8
Modules
10
-15.0893292027
20
81.6299817370
11
-14.8602643898
21
82.4175563402
62
254
0
LINE
8
Modules
10
-14.8602643898
20
82.4175563402
11
-15.6478389930
21
82.6466211531
62
254
0
LINE
8
Modules
10
-15.6478389930
20
82.6466211531
11
-15.8769038059
21
81.8590465500
62
254
0
LINE
8
Modules
10
-15.8769038059
20
81.8590465500
11
-14.8602643898
21
82.4175563402
62
254
0
TEXT
8
Modules
100
AcDbText
10
-15.6876291457
20
82.3335989152
1
DC
7
NewTextStyle_4
40
0.2624672000000003
50
-16.21698760976946
0
TEXT
8
Modules
100
AcDbText
10
-15.5481300759
20
81.8146751010
1
DC
7
NewTextStyle_4
40
0.2624672000000003
50
-16.21698760976946
0
LINE
8
Modules
10
-12.8308713366
20
84.6258803151
11
-14.5605403459
21
78.6789023998
62
254
0
LINE
8
Modules
10
-14.5605403459
20
78.6789023998
11
-11.2968311911
21
77.7296578122
62
254
0
LINE
8
Modules
10
-11.2968311911
20
77.7296578122
11
-9.5671621818
21
83.6766357275
62
254
0
LINE
8
Modules
10
-9.5671621818
20
83.6766357275
11
-12.8308713366
21
84.6258803151
62
254
0
LINE
8
Modules
10
-12.5721709719
20
80.8985141685
11
-11.7845963687
21
80.6694493556
62
254
0
LINE
8
Modules
10
-11.7845963687
20
80.6694493556
11
-11.5555315558
21
81.4570239588
62
254
0
LINE
8
Modules
10
-11.5555315558
20
81.4570239588
11
-12.3431061590
21
81.6860887717
62
254
0
LINE
8
Modules
10
-12.3431061590
20
81.6860887717
11
-12.5721709719
21
80.8985141685
62
254
0
LINE
8
Modules
10
-12.5721709719
20
80.8985141685
11
-11.5555315558
21
81.4570239588
62
254
0
TEXT
8
Modules
100
AcDbText
10
-12.3828963117
20
81.3730665337
1
DC
7
NewTextStyle_4
40
0.2624672000000003
50
-16.21698760976946
0
TEXT
8
Modules
100
AcDbText
10
-12.2433972419
20
80.8541427195
1
DC
7
NewTextStyle_4
40
0.2624672000000003
50
-16.21698760976946
0
LINE
8
Modules
10
-9.5261385026
20
83.6616957164
11
-11.2558075119
21
77.7147178011
62
254
0
LINE
8
Modules
10
-11.2558075119
20
77.7147178011
11
-7.9920983571
21
76.7654732135
62
254
0
LINE
8
Modules
10
-7.9920983571
20
76.7654732135
11
-6.2624293478
21
82.7124511288
62
254
0
LINE
8
Modules
10
-6.2624293478
20
82.7124511288
11
-9.5261385026
21
83.6616957164
62
254
0
LINE
8
Modules
10
-9.2674381379
20
79.9343295698
11
-8.4798635347
21
79.7052647569
62
254
0
LINE
8
Modules
10
-8.4798635347
20
79.7052647569
11
-8.2507987218
21
80.4928393601
62
254
0
LINE
8
Modules
10
-8.2507987218
20
80.4928393601
11
-9.0383733250
21
80.7219041730
62
254
0
LINE
8
Modules
10
-9.0383733250
20
80.7219041730
11
-9.2674381379
21
79.9343295698
62
254
0
LINE
8
Modules
10
-9.2674381379
20
79.9343295698
11
-8.2507987218
21
80.4928393601
62
254
0
TEXT
8
Modules
100
AcDbText
10
-9.0781634777
20
80.4088819350
1
DC
7
NewTextStyle_4
40
0.2624672000000003
50
-16.21698760976946
0
TEXT
8
Modules
100
AcDbText
10
-8.9386644079
20
79.8899581208
1
DC
7
NewTextStyle_4
40
0.2624672000000003
50
-16.21698760976946
0
LINE
8
Modules
10
-6.2242718705
20
82.7011633350
11
-7.9539408798
21
76.7541854197
62
254
0
LINE
8
Modules
10
-7.9539408798
20
76.7541854197
11
-4.6902317250
21
75.8049408321
62
254
0
LINE
8
Modules
10
-4.6902317250
20
75.8049408321
11
-2.9605627157
21
81.7519187474
62
254
0
LINE
8
Modules
10
-2.9605627157
20
81.7519187474
11
-6.2242718705
21
82.7011633350
62
254
0
LINE
8
Modules
10
-5.9655715058
20
78.9737971884
11
-5.1779969026
21
78.7447323755
62
254
0
LINE
8
Modules
10
-5.1779969026
20
78.7447323755
11
-4.9489320897
21
79.5323069787
62
254
0
LINE
8
Modules
10
-4.9489320897
20
79.5323069787
11
-5.7365066929
21
79.7613717916
62
254
0
LINE
8
Modules
10
-5.7365066929
20
79.7613717916
11
-5.9655715058
21
78.9737971884
62
254
0
LINE
8
Modules
10
-5.9655715058
20
78.9737971884
11
-4.9489320897
21
79.5323069787
62
254
0
TEXT
8
Modules
100
AcDbText
10
-5.7762968456
20
79.4483495536
1
DC
7
NewTextStyle_4
40
0.2624672000000003
50
-16.21698760976946
0
TEXT
8
Modules
100
AcDbText
10
-5.6367977758
20
78.9294257394
1
DC
7
NewTextStyle_4
40
0.2624672000000003
50
-16.21698760976946
0
LINE
8
Modules
10
-2.9195390324
20
81.7406309536
11
-4.6492080417
21
75.7936530382
62
254
0
LINE
8
Modules
10
-4.6492080417
20
75.7936530382
11
-1.3854988870
21
74.8444084506
62
254
0
LINE
8
Modules
10
-1.3854988870
20
74.8444084506
11
0.3441701224
21
80.7913863660
62
254
0
LINE
8
Modules
10
0.3441701224
20
80.7913863660
11
-2.9195390324
21
81.7406309536
62
254
0
LINE
8
Modules
10
-2.6608386677
20
78.0132648070
11
-1.8732640646
21
77.7841999940
62
254
0
LINE
8
Modules
10
-1.8732640646
20
77.7841999940
11
-1.6441992516
21
78.5717745972
62
254
0
LINE
8
Modules
10
-1.6441992516
20
78.5717745972
11
-2.4317738548
21
78.8008394102
62
254
0
LINE
8
Modules
10
-2.4317738548
20
78.8008394102
11
-2.6608386677
21
78.0132648070
62
254
0
LINE
8
Modules
10
-2.6608386677
20
78.0132648070
11
-1.6441992516
21
78.5717745972
62
254
0
TEXT
8
Modules
100
AcDbText
10
-2.4715640075
20
78.4878171722
1
DC
7
NewTextStyle_4
40
0.2624672000000003
50
-16.21698760976946
0
TEXT
8
Modules
100
AcDbText
10
-2.3320649377
20
77.9688933580
1
DC
7
NewTextStyle_4
40
0.2624672000000003
50
-16.21698760976946
0
LINE
8
Modules
10
0.3823275997
20
80.7800985695
11
-1.3473414096
21
74.8331206542
62
254
0
LINE
8
Modules
10
-1.3473414096
20
74.8331206542
11
1.9163677452
21
73.8838760666
62
254
0
LINE
8
Modules
10
1.9163677452
20
73.8838760666
11
3.6460367545
21
79.8308539819
62
254
0
LINE
8
Modules
10
3.6460367545
20
79.8308539819
11
0.3823275997
21
80.7800985695
62
254
0
LINE
8
Modules
10
0.6410279644
20
77.0527324229
11
1.4286025676
21
76.8236676100
62
254
0
LINE
8
Modules
10
1.4286025676
20
76.8236676100
11
1.6576673805
21
77.6112422132
62
254
0
LINE
8
Modules
10
1.6576673805
20
77.6112422132
11
0.8700927773
21
77.8403070261
62
254
0
LINE
8
Modules
10
0.8700927773
20
77.8403070261
11
0.6410279644
21
77.0527324229
62
254
0
LINE
8
Modules
10
0.6410279644
20
77.0527324229
11
1.6576673805
21
77.6112422132
62
254
0
TEXT
8
Modules
100
AcDbText
10
0.8303026246
20
77.5272847881
1
DC
7
NewTextStyle_4
40
0.2624672000000003
50
-16.21698760976946
0
TEXT
8
Modules
100
AcDbText
10
0.9698016944
20
77.0083609740
1
DC
7
NewTextStyle_4
40
0.2624672000000003
50
-16.21698760976946
0
LINE
8
Modules
10
-14.3929523396
20
91.5723920678
11
-16.1226213489
21
85.6254141525
62
254
0
LINE
8
Modules
10
-16.1226213489
20
85.6254141525
11
-12.8589121941
21
84.6761695649
62
254
0
LINE
8
Modules
10
-12.8589121941
20
84.6761695649
11
-11.1292431848
21
90.6231474802
62
254
0
LINE
8
Modules
10
-11.1292431848
20
90.6231474802
11
-14.3929523396
21
91.5723920678
62
254
0
LINE
8
Modules
10
-14.1342519749
20
87.8450259213
11
-13.3466773717
21
87.6159611083
62
254
0
LINE
8
Modules
10
-13.3466773717
20
87.6159611083
11
-13.1176125588
21
88.4035357115
62
254
0
LINE
8
Modules
10
-13.1176125588
20
88.4035357115
11
-13.9051871620
21
88.6326005244
62
254
0
LINE
8
Modules
10
-13.9051871620
20
88.6326005244
11
-14.1342519749
21
87.8450259213
62
254
0
LINE
8
Modules
10
-14.1342519749
20
87.8450259213
11
-13.1176125588
21
88.4035357115
62
254
0
TEXT
8
Modules
100
AcDbText
10
-13.9449773147
20
88.3195782865
1
DC
7
NewTextStyle_4
40
0.2624672000000003
50
-16.21698760976946
0
TEXT
8
Modules
100
AcDbText
10
-13.8054782448
20
87.8006544723
1
DC
7
NewTextStyle_4
40
0.2624672000000003
50
-16.21698760976946
0
LINE
8
Modules
10
-11.0910857074
20
90.6118596864
11
-12.8207547167
21
84.6648817711
62
254
0
LINE
8
Modules
10
-12.8207547167
20
84.6648817711
11
-9.5570455620
21
83.7156371835
62
254
0
LINE
8
Modules
10
-9.5570455620
20
83.7156371835
11
-7.8273765527
21
89.6626150988
62
254
0
LINE
8
Modules
10
-7.8273765527
20
89.6626150988
11
-11.0910857074
21
90.6118596864
62
254
0
LINE
8
Modules
10
-10.8323853428
20
86.8844935398
11
-10.0448107396
21
86.6554287269
62
254
0
LINE
8
Modules
10
-10.0448107396
20
86.6554287269
11
-9.8157459267
21
87.4430033301
62
254
0
LINE
8
Modules
10
-9.8157459267
20
87.4430033301
11
-10.6033205298
21
87.6720681430
62
254
0
LINE
8
Modules
10
-10.6033205298
20
87.6720681430
11
-10.8323853428
21
86.8844935398
62
254
0
LINE
8
Modules
10
-10.8323853428
20
86.8844935398
11
-9.8157459267
21
87.4430033301
62
254
0
TEXT
8
Modules
100
AcDbText
10
-10.6431106826
20
87.3590459050
1
DC
7
NewTextStyle_4
40
0.2624672000000003
50
-16.21698760976946
0
TEXT
8
Modules
100
AcDbText
10
-10.5036116127
20
86.8401220909
1
DC
7
NewTextStyle_4
40
0.2624672000000003
50
-16.21698760976946
0
LINE
8
Modules
10
-7.7863528694
20
89.6513273024
11
-9.5160218787
21
83.7043493871
62
254
0
LINE
8
Modules
10
-9.5160218787
20
83.7043493871
11
-6.2523127239
21
82.7551047995
62
254
0
LINE
8
Modules
10
-6.2523127239
20
82.7551047995
11
-4.5226437146
21
88.7020827148
62
254
0
LINE
8
Modules
10
-4.5226437146
20
88.7020827148
11
-7.7863528694
21
89.6513273024
62
254
0
LINE
8
Modules
10
-7.5276525047
20
85.9239611558
11
-6.7400779015
21
85.6948963429
62
254
0
LINE
8
Modules
10
-6.7400779015
20
85.6948963429
11
-6.5110130886
21
86.4824709461
62
254
0
LINE
8
Modules
10
-6.5110130886
20
86.4824709461
11
-7.2985876918
21
86.7115357590
62
254
0
LINE
8
Modules
10
-7.2985876918
20
86.7115357590
11
-7.5276525047
21
85.9239611558
62
254
0
LINE
8
Modules
10
-7.5276525047
20
85.9239611558
11
-6.5110130886
21
86.4824709461
62
254
0
TEXT
8
Modules
100
AcDbText
10
-7.3383778445
20
86.3985135210
1
DC
7
NewTextStyle_4
40
0.2624672000000003
50
-16.21698760976946
0
TEXT
8
Modules
100
AcDbText
10
-7.1988787747
20
85.8795897068
1
DC
7
NewTextStyle_4
40
0.2624672000000003
50
-16.21698760976946
0
LINE
8
Modules
10
-4.4816200354
20
88.6907949210
11
-6.2112890447
21
82.7438170057
62
254
0
LINE
8
Modules
10
-6.2112890447
20
82.7438170057
11
-2.9475798899
21
81.7945724181
62
254
0
LINE
8
Modules
10
-2.9475798899
20
81.7945724181
11
-1.2179108806
21
87.7415503334
62
254
0
LINE
8
Modules
10
-1.2179108806
20
87.7415503334
11
-4.4816200354
21
88.6907949210
62
254
0
LINE
8
Modules
10
-4.2229196707
20
84.9634287744
11
-3.4353450675
21
84.7343639615
62
254
0
LINE
8
Modules
10
-3.4353450675
20
84.7343639615
11
-3.2062802546
21
85.5219385646
62
254
0
LINE
8
Modules
10
-3.2062802546
20
85.5219385646
11
-3.9938548578
21
85.7510033776
62
254
0
LINE
8
Modules
10
-3.9938548578
20
85.7510033776
11
-4.2229196707
21
84.9634287744
62
254
0
LINE
8
Modules
10
-4.2229196707
20
84.9634287744
11
-3.2062802546
21
85.5219385646
62
254
0
TEXT
8
Modules
100
AcDbText
10
-4.0336450105
20
85.4379811396
1
DC
7
NewTextStyle_4
40
0.2624672000000003
50
-16.21698760976946
0
TEXT
8
Modules
100
AcDbText
10
-3.8941459407
20
84.9190573254
1
DC
7
NewTextStyle_4
40
0.2624672000000003
50
-16.21698760976946
0
LINE
8
Modules
10
-1.1797534033
20
87.7266103249
11
-2.9094224126
21
81.7796324095
62
254
0
LINE
8
Modules
10
-2.9094224126
20
81.7796324095
11
0.3542867422
21
80.8303878219
62
254
0
LINE
8
Modules
10
0.3542867422
20
80.8303878219
11
2.0839557515
21
86.7773657373
62
254
0
LINE
8
Modules
10
2.0839557515
20
86.7773657373
11
-1.1797534033
21
87.7266103249
62
254
0
LINE
8
Modules
10
-0.9210530386
20
83.9992441783
11
-0.1334784354
21
83.7701793653
62
254
0
LINE
8
Modules
10
-0.1334784354
20
83.7701793653
11
0.0955863775
21
84.5577539685
62
254
0
LINE
8
Modules
10
0.0955863775
20
84.5577539685
11
-0.6919882257
21
84.7868187815
62
254
0
LINE
8
Modules
10
-0.6919882257
20
84.7868187815
11
-0.9210530386
21
83.9992441783
62
254
0
LINE
8
Modules
10
-0.9210530386
20
83.9992441783
11
0.0955863775
21
84.5577539685
62
254
0
TEXT
8
Modules
100
AcDbText
10
-0.7317783784
20
84.4737965435
1
DC
7
NewTextStyle_4
40
0.2624672000000003
50
-16.21698760976946
0
TEXT
8
Modules
100
AcDbText
10
-0.5922793085
20
83.9548727293
1
DC
7
NewTextStyle_4
40
0.2624672000000003
50
-16.21698760976946
0
LINE
8
Modules
10
2.1249794307
20
86.7660779408
11
0.3953104214
21
80.8191000255
62
254
0
LINE
8
Modules
10
0.3953104214
20
80.8191000255
11
3.6590195762
21
79.8698554379
62
254
0
LINE
8
Modules
10
3.6590195762
20
79.8698554379
11
5.3886885855
21
85.8168333532
62
254
0
LINE
8
Modules
10
5.3886885855
20
85.8168333532
11
2.1249794307
21
86.7660779408
62
254
0
LINE
8
Modules
10
2.3836797954
20
83.0387117943
11
3.1712543986
21
82.8096469813
62
254
0
LINE
8
Modules
10
3.1712543986
20
82.8096469813
11
3.4003192115
21
83.5972215845
62
254
0
LINE
8
Modules
10
3.4003192115
20
83.5972215845
11
2.6127446083
21
83.8262863974
62
254
0
LINE
8
Modules
10
2.6127446083
20
83.8262863974
11
2.3836797954
21
83.0387117943
62
254
0
LINE
8
Modules
10
2.3836797954
20
83.0387117943
11
3.4003192115
21
83.5972215845
62
254
0
TEXT
8
Modules
100
AcDbText
10
2.5729544556
20
83.5132641594
1
DC
7
NewTextStyle_4
40
0.2624672000000003
50
-16.21698760976946
0
TEXT
8
Modules
100
AcDbText
10
2.7124535254
20
82.9943403453
1
DC
7
NewTextStyle_4
40
0.2624672000000003
50
-16.21698760976946
0
LINE
8
Modules
10
-109.5365832767
20
-46.5799213499
11
-111.2662522860
21
-52.5268992652
62
254
0
LINE
8
Modules
10
-111.2662522860
20
-52.5268992652
11
-108.0025431313
21
-53.4761438528
62
254
0
LINE
8
Modules
10
-108.0025431313
20
-53.4761438528
11
-106.2728741219
21
-47.5291659375
62
254
0
LINE
8
Modules
10
-106.2728741219
20
-47.5291659375
11
-109.5365832767
21
-46.5799213499
62
254
0
LINE
8
Modules
10
-109.2778829120
20
-50.3072874965
11
-108.4903083088
21
-50.5363523094
62
254
0
LINE
8
Modules
10
-108.4903083088
20
-50.5363523094
11
-108.2612434959
21
-49.7487777062
62
254
0
LINE
8
Modules
10
-108.2612434959
20
-49.7487777062
11
-109.0488180991
21
-49.5197128933
62
254
0
LINE
8
Modules
10
-109.0488180991
20
-49.5197128933
11
-109.2778829120
21
-50.3072874965
62
254
0
LINE
8
Modules
10
-109.2778829120
20
-50.3072874965
11
-108.2612434959
21
-49.7487777062
62
254
0
TEXT
8
Modules
100
AcDbText
10
-109.0886082518
20
-49.8327351313
1
DC
7
NewTextStyle_4
40
0.2624672000000003
50
-16.216987609952408
0
TEXT
8
Modules
100
AcDbText
10
-108.9491091820
20
-50.3516589454
1
DC
7
NewTextStyle_4
40
0.2624672000000003
50
-16.216987609952408
0
LINE
8
Modules
10
-106.2347166487
20
-47.5404537313
11
-107.9643856580
21
-53.4874316466
62
254
0
LINE
8
Modules
10
-107.9643856580
20
-53.4874316466
11
-104.7006765032
21
-54.4366762342
62
254
0
LINE
8
Modules
10
-104.7006765032
20
-54.4366762342
11
-102.9710074939
21
-48.4896983189
62
254
0
LINE
8
Modules
10
-102.9710074939
20
-48.4896983189
11
-106.2347166487
21
-47.5404537313
62
254
0
LINE
8
Modules
10
-105.9760162840
20
-51.2678198779
11
-105.1884416808
21
-51.4968846908
62
254
0
LINE
8
Modules
10
-105.1884416808
20
-51.4968846908
11
-104.9593768679
21
-50.7093100876
62
254
0
LINE
8
Modules
10
-104.9593768679
20
-50.7093100876
11
-105.7469514711
21
-50.4802452747
62
254
0
LINE
8
Modules
10
-105.7469514711
20
-50.4802452747
11
-105.9760162840
21
-51.2678198779
62
254
0
LINE
8
Modules
10
-105.9760162840
20
-51.2678198779
11
-104.9593768679
21
-50.7093100876
62
254
0
TEXT
8
Modules
100
AcDbText
10
-105.7867416238
20
-50.7932675127
1
DC
7
NewTextStyle_4
40
0.2624672000000003
50
-16.216987609952408
0
TEXT
8
Modules
100
AcDbText
10
-105.6472425539
20
-51.3121913269
1
DC
7
NewTextStyle_4
40
0.2624672000000003
50
-16.216987609952408
0
LINE
8
Modules
10
-102.9299838106
20
-48.5009861153
11
-104.6596528199
21
-54.4479640306
62
254
0
LINE
8
Modules
10
-104.6596528199
20
-54.4479640306
11
-101.3959436651
21
-55.3972086182
62
254
0
LINE
8
Modules
10
-101.3959436651
20
-55.3972086182
11
-99.6662746558
21
-49.4502307029
62
254
0
LINE
8
Modules
10
-99.6662746558
20
-49.4502307029
11
-102.9299838106
21
-48.5009861153
62
254
0
LINE
8
Modules
10
-102.6712834459
20
-52.2283522619
11
-101.8837088427
21
-52.4574170748
62
254
0
LINE
8
Modules
10
-101.8837088427
20
-52.4574170748
11
-101.6546440298
21
-51.6698424716
62
254
0
LINE
8
Modules
10
-101.6546440298
20
-51.6698424716
11
-102.4422186330
21
-51.4407776587
62
254
0
LINE
8
Modules
10
-102.4422186330
20
-51.4407776587
11
-102.6712834459
21
-52.2283522619
62
254
0
LINE
8
Modules
10
-102.6712834459
20
-52.2283522619
11
-101.6546440298
21
-51.6698424716
62
254
0
TEXT
8
Modules
100
AcDbText
10
-102.4820087857
20
-51.7537998967
1
DC
7
NewTextStyle_4
40
0.2624672000000003
50
-16.216987609952408
0
TEXT
8
Modules
100
AcDbText
10
-102.3425097159
20
-52.2727237109
1
DC
7
NewTextStyle_4
40
0.2624672000000003
50
-16.216987609952408
0
LINE
8
Modules
10
-99.6252509766
20
-49.4615184967
11
-101.3549199859
21
-55.4084964121
62
254
0
LINE
8
Modules
10
-101.3549199859
20
-55.4084964121
11
-98.0912108312
21
-56.3577409997
62
254
0
LINE
8
Modules
10
-98.0912108312
20
-56.3577409997
11
-96.3615418218
21
-50.4107630844
62
254
0
LINE
8
Modules
10
-96.3615418218
20
-50.4107630844
11
-99.6252509766
21
-49.4615184967
62
254
0
LINE
8
Modules
10
-99.3665506119
20
-53.1888846433
11
-98.5789760087
21
-53.4179494563
62
254
0
LINE
8
Modules
10
-98.5789760087
20
-53.4179494563
11
-98.3499111958
21
-52.6303748531
62
254
0
LINE
8
Modules
10
-98.3499111958
20
-52.6303748531
11
-99.1374857990
21
-52.4013100401
62
254
0
LINE
8
Modules
10
-99.1374857990
20
-52.4013100401
11
-99.3665506119
21
-53.1888846433
62
254
0
LINE
8
Modules
10
-99.3665506119
20
-53.1888846433
11
-98.3499111958
21
-52.6303748531
62
254
0
TEXT
8
Modules
100
AcDbText
10
-99.1772759517
20
-52.7143322781
1
DC
7
NewTextStyle_4
40
0.2624672000000003
50
-16.216987609952408
0
TEXT
8
Modules
100
AcDbText
10
-99.0377768819
20
-53.2332560923
1
DC
7
NewTextStyle_4
40
0.2624672000000003
50
-16.216987609952408
0
LINE
8
Modules
10
-116.1460489488
20
-44.6588565844
11
-117.8757179581
21
-50.6058344997
62
254
0
LINE
8
Modules
10
-117.8757179581
20
-50.6058344997
11
-114.6120088033
21
-51.5550790873
62
254
0
LINE
8
Modules
10
-114.6120088033
20
-51.5550790873
11
-112.8823397940
21
-45.6081011720
62
254
0
LINE
8
Modules
10
-112.8823397940
20
-45.6081011720
11
-116.1460489488
21
-44.6588565844
62
254
0
LINE
8
Modules
10
-115.8873485841
20
-48.3862227310
11
-115.0997739809
21
-48.6152875439
62
254
0
LINE
8
Modules
10
-115.0997739809
20
-48.6152875439
11
-114.8707091680
21
-47.8277129408
62
254
0
LINE
8
Modules
10
-114.8707091680
20
-47.8277129408
11
-115.6582837712
21
-47.5986481278
62
254
0
LINE
8
Modules
10
-115.6582837712
20
-47.5986481278
11
-115.8873485841
21
-48.3862227310
62
254
0
LINE
8
Modules
10
-115.8873485841
20
-48.3862227310
11
-114.8707091680
21
-47.8277129408
62
254
0
TEXT
8
Modules
100
AcDbText
10
-115.6980739239
20
-47.9116703658
1
DC
7
NewTextStyle_4
40
0.2624672000000003
50
-16.216987609952408
0
TEXT
8
Modules
100
AcDbText
10
-115.5585748540
20
-48.4305941800
1
DC
7
NewTextStyle_4
40
0.2624672000000003
50
-16.216987609952408
0
LINE
8
Modules
10
-112.8413161148
20
-45.6193889684
11
-114.5709851241
21
-51.5663668838
62
254
0
LINE
8
Modules
10
-114.5709851241
20
-51.5663668838
11
-111.3072759693
21
-52.5156114714
62
254
0
LINE
8
Modules
10
-111.3072759693
20
-52.5156114714
11
-109.5776069600
21
-46.5686335561
62
254
0
LINE
8
Modules
10
-109.5776069600
20
-46.5686335561
11
-112.8413161148
21
-45.6193889684
62
254
0
LINE
8
Modules
10
-112.5826157501
20
-49.3467551150
11
-111.7950411469
21
-49.5758199280
62
254
0
LINE
8
Modules
10
-111.7950411469
20
-49.5758199280
11
-111.5659763340
21
-48.7882453248
62
254
0
LINE
8
Modules
10
-111.5659763340
20
-48.7882453248
11
-112.3535509372
21
-48.5591805118
62
254
0
LINE
8
Modules
10
-112.3535509372
20
-48.5591805118
11
-112.5826157501
21
-49.3467551150
62
254
0
LINE
8
Modules
10
-112.5826157501
20
-49.3467551150
11
-111.5659763340
21
-48.7882453248
62
254
0
TEXT
8
Modules
100
AcDbText
10
-112.3933410899
20
-48.8722027498
1
DC
7
NewTextStyle_4
40
0.2624672000000003
50
-16.216987609952408
0
TEXT
8
Modules
100
AcDbText
10
-112.2538420200
20
-49.3911265640
1
DC
7
NewTextStyle_4
40
0.2624672000000003
50
-16.216987609952408
0
LINE
8
Modules
10
-114.4033971177
20
-38.6692249984
11
-116.1330661271
21
-44.6162029137
62
254
0
LINE
8
Modules
10
-116.1330661271
20
-44.6162029137
11
-112.8693569723
21
-45.5654475014
62
254
0
LINE
8
Modules
10
-112.8693569723
20
-45.5654475014
11
-111.1396879630
21
-39.6184695860
62
254
0
LINE
8
Modules
10
-111.1396879630
20
-39.6184695860
11
-114.4033971177
21
-38.6692249984
62
254
0
LINE
8
Modules
10
-114.1446967531
20
-42.3965911450
11
-113.3571221499
21
-42.6256559580
62
254
0
LINE
8
Modules
10
-113.3571221499
20
-42.6256559580
11
-113.1280573370
21
-41.8380813548
62
254
0
LINE
8
Modules
10
-113.1280573370
20
-41.8380813548
11
-113.9156319401
21
-41.6090165418
62
254
0
LINE
8
Modules
10
-113.9156319401
20
-41.6090165418
11
-114.1446967531
21
-42.3965911450
62
254
0
LINE
8
Modules
10
-114.1446967531
20
-42.3965911450
11
-113.1280573370
21
-41.8380813548
62
254
0
TEXT
8
Modules
100
AcDbText
10
-113.9554220929
20
-41.9220387798
1
DC
7
NewTextStyle_4
40
0.2624672000000003
50
-16.216987609952408
0
TEXT
8
Modules
100
AcDbText
10
-113.8159230230
20
-42.4409625940
1
DC
7
NewTextStyle_4
40
0.2624672000000003
50
-16.216987609952408
0
LINE
8
Modules
10
-111.0986642797
20
-39.6334095971
11
-112.8283332890
21
-45.5803875125
62
254
0
LINE
8
Modules
10
-112.8283332890
20
-45.5803875125
11
-109.5646241342
21
-46.5296321001
62
254
0
LINE
8
Modules
10
-109.5646241342
20
-46.5296321001
11
-107.8349551249
21
-40.5826541848
62
254
0
LINE
8
Modules
10
-107.8349551249
20
-40.5826541848
11
-111.0986642797
21
-39.6334095971
62
254
0
LINE
8
Modules
10
-110.8399639150
20
-43.3607757437
11
-110.0523893118
21
-43.5898405567
62
254
0
LINE
8
Modules
10
-110.0523893118
20
-43.5898405567
11
-109.8233244989
21
-42.8022659535
62
254
0
LINE
8
Modules
10
-109.8233244989
20
-42.8022659535
11
-110.6108991021
21
-42.5732011405
62
254
0
LINE
8
Modules
10
-110.6108991021
20
-42.5732011405
11
-110.8399639150
21
-43.3607757437
62
254
0
LINE
8
Modules
10
-110.8399639150
20
-43.3607757437
11
-109.8233244989
21
-42.8022659535
62
254
0
TEXT
8
Modules
100
AcDbText
10
-110.6506892548
20
-42.8862233785
1
DC
7
NewTextStyle_4
40
0.2624672000000003
50
-16.216987609952408
0
TEXT
8
Modules
100
AcDbText
10
-110.5111901850
20
-43.4051471927
1
DC
7
NewTextStyle_4
40
0.2624672000000003
50
-16.216987609952408
0
LINE
8
Modules
10
-107.7967976476
20
-40.5939419786
11
-109.5264666569
21
-46.5409198939
62
254
0
LINE
8
Modules
10
-109.5264666569
20
-46.5409198939
11
-106.2627575021
21
-47.4901644815
62
254
0
LINE
8
Modules
10
-106.2627575021
20
-47.4901644815
11
-104.5330884928
21
-41.5431865662
62
254
0
LINE
8
Modules
10
-104.5330884928
20
-41.5431865662
11
-107.7967976476
21
-40.5939419786
62
254
0
LINE
8
Modules
10
-107.5380972829
20
-44.3213081252
11
-106.7505226797
21
-44.5503729381
62
254
0
LINE
8
Modules
10
-106.7505226797
20
-44.5503729381
11
-106.5214578668
21
-43.7627983349
62
254
0
LINE
8
Modules
10
-106.5214578668
20
-43.7627983349
11
-107.3090324700
21
-43.5337335220
62
254
0
LINE
8
Modules
10
-107.3090324700
20
-43.5337335220
11
-107.5380972829
21
-44.3213081252
62
254
0
LINE
8
Modules
10
-107.5380972829
20
-44.3213081252
11
-106.5214578668
21
-43.7627983349
62
254
0
TEXT
8
Modules
100
AcDbText
10
-107.3488226227
20
-43.8467557600
1
DC
7
NewTextStyle_4
40
0.2624672000000003
50
-16.216987609952408
0
TEXT
8
Modules
100
AcDbText
10
-107.2093235528
20
-44.3656795741
1
DC
7
NewTextStyle_4
40
0.2624672000000003
50
-16.216987609952408
0
LINE
8
Modules
10
-104.4920648136
20
-41.5544743600
11
-106.2217338229
21
-47.5014522753
62
254
0
LINE
8
Modules
10
-106.2217338229
20
-47.5014522753
11
-102.9580246681
21
-48.4506968629
62
254
0
LINE
8
Modules
10
-102.9580246681
20
-48.4506968629
11
-101.2283556588
21
-42.5037189476
62
254
0
LINE
8
Modules
10
-101.2283556588
20
-42.5037189476
11
-104.4920648136
21
-41.5544743600
62
254
0
LINE
8
Modules
10
-104.2333644489
20
-45.2818405066
11
-103.4457898457
21
-45.5109053195
62
254
0
LINE
8
Modules
10
-103.4457898457
20
-45.5109053195
11
-103.2167250328
21
-44.7233307163
62
254
0
LINE
8
Modules
10
-103.2167250328
20
-44.7233307163
11
-104.0042996360
21
-44.4942659034
62
254
0
LINE
8
Modules
10
-104.0042996360
20
-44.4942659034
11
-104.2333644489
21
-45.2818405066
62
254
0
LINE
8
Modules
10
-104.2333644489
20
-45.2818405066
11
-103.2167250328
21
-44.7233307163
62
254
0
TEXT
8
Modules
100
AcDbText
10
-104.0440897887
20
-44.8072881414
1
DC
7
NewTextStyle_4
40
0.2624672000000003
50
-16.216987609952408
0
TEXT
8
Modules
100
AcDbText
10
-103.9045907188
20
-45.3262119556
1
DC
7
NewTextStyle_4
40
0.2624672000000003
50
-16.216987609952408
0
LINE
8
Modules
10
-101.1873319796
20
-42.5150067440
11
-102.9170009889
21
-48.4619846593
62
254
0
LINE
8
Modules
10
-102.9170009889
20
-48.4619846593
11
-99.6532918341
21
-49.4112292469
62
254
0
LINE
8
Modules
10
-99.6532918341
20
-49.4112292469
11
-97.9236228248
21
-43.4642513316
62
254
0
LINE
8
Modules
10
-97.9236228248
20
-43.4642513316
11
-101.1873319796
21
-42.5150067440
62
254
0
LINE
8
Modules
10
-100.9286316149
20
-46.2423728906
11
-100.1410570117
21
-46.4714377035
62
254
0
LINE
8
Modules
10
-100.1410570117
20
-46.4714377035
11
-99.9119921988
21
-45.6838631003
62
254
0
LINE
8
Modules
10
-99.9119921988
20
-45.6838631003
11
-100.6995668020
21
-45.4547982874
62
254
0
LINE
8
Modules
10
-100.6995668020
20
-45.4547982874
11
-100.9286316149
21
-46.2423728906
62
254
0
LINE
8
Modules
10
-100.9286316149
20
-46.2423728906
11
-99.9119921988
21
-45.6838631003
62
254
0
TEXT
8
Modules
100
AcDbText
10
-100.7393569547
20
-45.7678205254
1
DC
7
NewTextStyle_4
40
0.2624672000000003
50
-16.216987609952408
0
TEXT
8
Modules
100
AcDbText
10
-100.5998578849
20
-46.2867443396
1
DC
7
NewTextStyle_4
40
0.2624672000000003
50
-16.216987609952408
0
LINE
8
Modules
10
-97.8854653475
20
-43.4755391254
11
-99.6151343568
21
-49.4225170408
62
254
0
LINE
8
Modules
10
-99.6151343568
20
-49.4225170408
11
-96.3514252020
21
-50.3717616284
62
254
0
LINE
8
Modules
10
-96.3514252020
20
-50.3717616284
11
-94.6217561927
21
-44.4247837131
62
254
0
LINE
8
Modules
10
-94.6217561927
20
-44.4247837131
11
-97.8854653475
21
-43.4755391254
62
254
0
LINE
8
Modules
10
-97.6267649828
20
-47.2029052720
11
-96.8391903796
21
-47.4319700850
62
254
0
LINE
8
Modules
10
-96.8391903796
20
-47.4319700850
11
-96.6101255667
21
-46.6443954818
62
254
0
LINE
8
Modules
10
-96.6101255667
20
-46.6443954818
11
-97.3977001699
21
-46.4153306688
62
254
0
LINE
8
Modules
10
-97.3977001699
20
-46.4153306688
11
-97.6267649828
21
-47.2029052720
62
254
0
LINE
8
Modules
10
-97.6267649828
20
-47.2029052720
11
-96.6101255667
21
-46.6443954818
62
254
0
TEXT
8
Modules
100
AcDbText
10
-97.4374903226
20
-46.7283529068
1
DC
7
NewTextStyle_4
40
0.2624672000000003
50
-16.216987609952408
0
TEXT
8
Modules
100
AcDbText
10
-97.2979912527
20
-47.2472767210
1
DC
7
NewTextStyle_4
40
0.2624672000000003
50
-16.216987609952408
0
LINE
8
Modules
10
-112.6636114845
20
-32.6832456271
11
-114.3932804938
21
-38.6302235424
62
254
0
LINE
8
Modules
10
-114.3932804938
20
-38.6302235424
11
-111.1295713391
21
-39.5794681301
62
254
0
LINE
8
Modules
10
-111.1295713391
20
-39.5794681301
11
-109.3999023298
21
-33.6324902147
62
254
0
LINE
8
Modules
10
-109.3999023298
20
-33.6324902147
11
-112.6636114845
21
-32.6832456271
62
254
0
LINE
8
Modules
10
-112.4049111199
20
-36.4106117737
11
-111.6173365167
21
-36.6396765866
62
254
0
LINE
8
Modules
10
-111.6173365167
20
-36.6396765866
11
-111.3882717037
21
-35.8521019835
62
254
0
LINE
8
Modules
10
-111.3882717037
20
-35.8521019835
11
-112.1758463069
21
-35.6230371705
62
254
0
LINE
8
Modules
10
-112.1758463069
20
-35.6230371705
11
-112.4049111199
21
-36.4106117737
62
254
0
LINE
8
Modules
10
-112.4049111199
20
-36.4106117737
11
-111.3882717037
21
-35.8521019835
62
254
0
TEXT
8
Modules
100
AcDbText
10
-112.2156364596
20
-35.9360594085
1
DC
7
NewTextStyle_4
40
0.2624672000000003
50
-16.216987609952408
0
TEXT
8
Modules
100
AcDbText
10
-112.0761373898
20
-36.4549832227
1
DC
7
NewTextStyle_4
40
0.2624672000000003
50
-16.216987609952408
0
LINE
8
Modules
10
-109.3588786505
20
-33.6437780112
11
-111.0885476599
21
-39.5907559265
62
254
0
LINE
8
Modules
10
-111.0885476599
20
-39.5907559265
11
-107.8248385051
21
-40.5400005141
62
254
0
LINE
8
Modules
10
-107.8248385051
20
-40.5400005141
11
-106.0951694958
21
-34.5930225988
62
254
0
LINE
8
Modules
10
-106.0951694958
20
-34.5930225988
11
-109.3588786505
21
-33.6437780112
62
254
0
LINE
8
Modules
10
-109.1001782859
20
-37.3711441577
11
-108.3126036827
21
-37.6002089707
62
254
0
LINE
8
Modules
10
-108.3126036827
20
-37.6002089707
11
-108.0835388698
21
-36.8126343675
62
254
0
LINE
8
Modules
10
-108.0835388698
20
-36.8126343675
11
-108.8711134729
21
-36.5835695546
62
254
0
LINE
8
Modules
10
-108.8711134729
20
-36.5835695546
11
-109.1001782859
21
-37.3711441577
62
254
0
LINE
8
Modules
10
-109.1001782859
20
-37.3711441577
11
-108.0835388698
21
-36.8126343675
62
254
0
TEXT
8
Modules
100
AcDbText
10
-108.9109036257
20
-36.8965917925
1
DC
7
NewTextStyle_4
40
0.2624672000000003
50
-16.216987609952408
0
TEXT
8
Modules
100
AcDbText
10
-108.7714045558
20
-37.4155156067
1
DC
7
NewTextStyle_4
40
0.2624672000000003
50
-16.216987609952408
0
LINE
8
Modules
10
-106.0541458165
20
-34.6079626073
11
-107.7838148259
21
-40.5549405226
62
254
0
LINE
8
Modules
10
-107.7838148259
20
-40.5549405226
11
-104.5201056711
21
-41.5041851102
62
254
0
LINE
8
Modules
10
-104.5201056711
20
-41.5041851102
11
-102.7904366618
21
-35.5572071949
62
254
0
LINE
8
Modules
10
-102.7904366618
20
-35.5572071949
11
-106.0541458165
21
-34.6079626073
62
254
0
LINE
8
Modules
10
-105.7954454519
20
-38.3353287539
11
-105.0078708487
21
-38.5643935668
62
254
0
LINE
8
Modules
10
-105.0078708487
20
-38.5643935668
11
-104.7788060358
21
-37.7768189636
62
254
0
LINE
8
Modules
10
-104.7788060358
20
-37.7768189636
11
-105.5663806389
21
-37.5477541507
62
254
0
LINE
8
Modules
10
-105.5663806389
20
-37.5477541507
11
-105.7954454519
21
-38.3353287539
62
254
0
LINE
8
Modules
10
-105.7954454519
20
-38.3353287539
11
-104.7788060358
21
-37.7768189636
62
254
0
TEXT
8
Modules
100
AcDbText
10
-105.6061707917
20
-37.8607763887
1
DC
7
NewTextStyle_4
40
0.2624672000000003
50
-16.216987609952408
0
TEXT
8
Modules
100
AcDbText
10
-105.4666717218
20
-38.3797002028
1
DC
7
NewTextStyle_4
40
0.2624672000000003
50
-16.216987609952408
0
LINE
8
Modules
10
-102.7522791844
20
-35.5684949887
11
-104.4819481937
21
-41.5154729040
62
254
0
LINE
8
Modules
10
-104.4819481937
20
-41.5154729040
11
-101.2182390390
21
-42.4647174916
62
254
0
LINE
8
Modules
10
-101.2182390390
20
-42.4647174916
11
-99.4885700297
21
-36.5177395763
62
254
0
LINE
8
Modules
10
-99.4885700297
20
-36.5177395763
11
-102.7522791844
21
-35.5684949887
62
254
0
LINE
8
Modules
10
-102.4935788198
20
-39.2958611353
11
-101.7060042166
21
-39.5249259482
62
254
0
LINE
8
Modules
10
-101.7060042166
20
-39.5249259482
11
-101.4769394036
21
-38.7373513450
62
254
0
LINE
8
Modules
10
-101.4769394036
20
-38.7373513450
11
-102.2645140068
21
-38.5082865321
62
254
0
LINE
8
Modules
10
-102.2645140068
20
-38.5082865321
11
-102.4935788198
21
-39.2958611353
62
254
0
LINE
8
Modules
10
-102.4935788198
20
-39.2958611353
11
-101.4769394036
21
-38.7373513450
62
254
0
TEXT
8
Modules
100
AcDbText
10
-102.3043041595
20
-38.8213087701
1
DC
7
NewTextStyle_4
40
0.2624672000000003
50
-16.216987609952408
0
TEXT
8
Modules
100
AcDbText
10
-102.1648050897
20
-39.3402325843
1
DC
7
NewTextStyle_4
40
0.2624672000000003
50
-16.216987609952408
0
LINE
8
Modules
10
-99.4475463464
20
-36.5290273727
11
-101.1772153557
21
-42.4760052880
62
254
0
LINE
8
Modules
10
-101.1772153557
20
-42.4760052880
11
-97.9135062009
21
-43.4252498756
62
254
0
LINE
8
Modules
10
-97.9135062009
20
-43.4252498756
11
-96.1838371916
21
-37.4782719603
62
254
0
LINE
8
Modules
10
-96.1838371916
20
-37.4782719603
11
-99.4475463464
21
-36.5290273727
62
254
0
LINE
8
Modules
10
-99.1888459817
20
-40.2563935193
11
-98.4012713785
21
-40.4854583322
62
254
0
LINE
8
Modules
10
-98.4012713785
20
-40.4854583322
11
-98.1722065656
21
-39.6978837290
62
254
0
LINE
8
Modules
10
-98.1722065656
20
-39.6978837290
11
-98.9597811688
21
-39.4688189161
62
254
0
LINE
8
Modules
10
-98.9597811688
20
-39.4688189161
11
-99.1888459817
21
-40.2563935193
62
254
0
LINE
8
Modules
10
-99.1888459817
20
-40.2563935193
11
-98.1722065656
21
-39.6978837290
62
254
0
TEXT
8
Modules
100
AcDbText
10
-98.9995713215
20
-39.7818411541
1
DC
7
NewTextStyle_4
40
0.2624672000000003
50
-16.216987609952408
0
TEXT
8
Modules
100
AcDbText
10
-98.8600722516
20
-40.3007649683
1
DC
7
NewTextStyle_4
40
0.2624672000000003
50
-16.216987609952408
0
LINE
8
Modules
10
-96.1428135124
20
-37.4895597541
11
-97.8724825217
21
-43.4365376694
62
254
0
LINE
8
Modules
10
-97.8724825217
20
-43.4365376694
11
-94.6087733669
21
-44.3857822571
62
254
0
LINE
8
Modules
10
-94.6087733669
20
-44.3857822571
11
-92.8791043576
21
-38.4388043417
62
254
0
LINE
8
Modules
10
-92.8791043576
20
-38.4388043417
11
-96.1428135124
21
-37.4895597541
62
254
0
LINE
8
Modules
10
-95.8841131477
20
-41.2169259007
11
-95.0965385445
21
-41.4459907137
62
254
0
LINE
8
Modules
10
-95.0965385445
20
-41.4459907137
11
-94.8674737316
21
-40.6584161105
62
254
0
LINE
8
Modules
10
-94.8674737316
20
-40.6584161105
11
-95.6550483348
21
-40.4293512975
62
254
0
LINE
8
Modules
10
-95.6550483348
20
-40.4293512975
11
-95.8841131477
21
-41.2169259007
62
254
0
LINE
8
Modules
10
-95.8841131477
20
-41.2169259007
11
-94.8674737316
21
-40.6584161105
62
254
0
TEXT
8
Modules
100
AcDbText
10
-95.6948384875
20
-40.7423735355
1
DC
7
NewTextStyle_4
40
0.2624672000000003
50
-16.216987609952408
0
TEXT
8
Modules
100
AcDbText
10
-95.5553394177
20
-41.2612973497
1
DC
7
NewTextStyle_4
40
0.2624672000000003
50
-16.216987609952408
0
LINE
8
Modules
10
-54.3077046953
20
-63.1755835009
11
-56.0373737046
21
-69.1225614162
62
254
0
LINE
8
Modules
10
-56.0373737046
20
-69.1225614162
11
-52.7736645499
21
-70.0718060038
62
254
0
LINE
8
Modules
10
-52.7736645499
20
-70.0718060038
11
-51.0439955406
21
-64.1248280885
62
254
0
LINE
8
Modules
10
-51.0439955406
20
-64.1248280885
11
-54.3077046953
21
-63.1755835009
62
254
0
LINE
8
Modules
10
-54.0490043307
20
-66.9029496474
11
-53.2614297275
21
-67.1320144604
62
254
0
LINE
8
Modules
10
-53.2614297275
20
-67.1320144604
11
-53.0323649146
21
-66.3444398572
62
254
0
LINE
8
Modules
10
-53.0323649146
20
-66.3444398572
11
-53.8199395177
21
-66.1153750443
62
254
0
LINE
8
Modules
10
-53.8199395177
20
-66.1153750443
11
-54.0490043307
21
-66.9029496474
62
254
0
LINE
8
Modules
10
-54.0490043307
20
-66.9029496474
11
-53.0323649146
21
-66.3444398572
62
254
0
TEXT
8
Modules
100
AcDbText
10
-53.8597296705
20
-66.4283972822
1
DC
7
NewTextStyle_4
40
0.2624672000000003
50
-16.21698760976193
0
TEXT
8
Modules
100
AcDbText
10
-53.7202306006
20
-66.9473210964
1
DC
7
NewTextStyle_4
40
0.2624672000000003
50
-16.21698760976193
0
LINE
8
Modules
10
-51.0029718573
20
-64.1361158823
11
-52.7326408666
21
-70.0830937976
62
254
0
LINE
8
Modules
10
-52.7326408666
20
-70.0830937976
11
-49.4689317118
21
-71.0323383852
62
254
0
LINE
8
Modules
10
-49.4689317118
20
-71.0323383852
11
-47.7392627025
21
-65.0853604699
62
254
0
LINE
8
Modules
10
-47.7392627025
20
-65.0853604699
11
-51.0029718573
21
-64.1361158823
62
254
0
LINE
8
Modules
10
-50.7442714926
20
-67.8634820289
11
-49.9566968894
21
-68.0925468418
62
254
0
LINE
8
Modules
10
-49.9566968894
20
-68.0925468418
11
-49.7276320765
21
-67.3049722386
62
254
0
LINE
8
Modules
10
-49.7276320765
20
-67.3049722386
11
-50.5152066797
21
-67.0759074257
62
254
0
LINE
8
Modules
10
-50.5152066797
20
-67.0759074257
11
-50.7442714926
21
-67.8634820289
62
254
0
LINE
8
Modules
10
-50.7442714926
20
-67.8634820289
11
-49.7276320765
21
-67.3049722386
62
254
0
TEXT
8
Modules
100
AcDbText
10
-50.5549968324
20
-67.3889296637
1
DC
7
NewTextStyle_4
40
0.2624672000000003
50
-16.21698760976193
0
TEXT
8
Modules
100
AcDbText
10
-50.4154977626
20
-67.9078534778
1
DC
7
NewTextStyle_4
40
0.2624672000000003
50
-16.21698760976193
0
LINE
8
Modules
10
-47.7011052292
20
-65.0966482663
11
-49.4307742385
21
-71.0436261816
62
254
0
LINE
8
Modules
10
-49.4307742385
20
-71.0436261816
11
-46.1670650838
21
-71.9928707692
62
254
0
LINE
8
Modules
10
-46.1670650838
20
-71.9928707692
11
-44.4373960745
21
-66.0458928539
62
254
0
LINE
8
Modules
10
-44.4373960745
20
-66.0458928539
11
-47.7011052292
21
-65.0966482663
62
254
0
LINE
8
Modules
10
-47.4424048646
20
-68.8240144129
11
-46.6548302614
21
-69.0530792258
62
254
0
LINE
8
Modules
10
-46.6548302614
20
-69.0530792258
11
-46.4257654484
21
-68.2655046226
62
254
0
LINE
8
Modules
10
-46.4257654484
20
-68.2655046226
11
-47.2133400516
21
-68.0364398097
62
254
0
LINE
8
Modules
10
-47.2133400516
20
-68.0364398097
11
-47.4424048646
21
-68.8240144129
62
254
0
LINE
8
Modules
10
-47.4424048646
20
-68.8240144129
11
-46.4257654484
21
-68.2655046226
62
254
0
TEXT
8
Modules
100
AcDbText
10
-47.2531302044
20
-68.3494620477
1
DC
7
NewTextStyle_4
40
0.2624672000000003
50
-16.21698760976193
0
TEXT
8
Modules
100
AcDbText
10
-47.1136311345
20
-68.8683858619
1
DC
7
NewTextStyle_4
40
0.2624672000000003
50
-16.21698760976193
0
LINE
8
Modules
10
-44.3963723912
20
-66.0571806477
11
-46.1260414005
21
-72.0041585630
62
254
0
LINE
8
Modules
10
-46.1260414005
20
-72.0041585630
11
-42.8623322457
21
-72.9534031506
62
254
0
LINE
8
Modules
10
-42.8623322457
20
-72.9534031506
11
-41.1326632364
21
-67.0064252353
62
254
0
LINE
8
Modules
10
-41.1326632364
20
-67.0064252353
11
-44.3963723912
21
-66.0571806477
62
254
0
LINE
8
Modules
10
-44.1376720265
20
-69.7845467943
11
-43.3500974233
21
-70.0136116072
62
254
0
LINE
8
Modules
10
-43.3500974233
20
-70.0136116072
11
-43.1210326104
21
-69.2260370041
62
254
0
LINE
8
Modules
10
-43.1210326104
20
-69.2260370041
11
-43.9086072136
21
-68.9969721911
62
254
0
LINE
8
Modules
10
-43.9086072136
20
-68.9969721911
11
-44.1376720265
21
-69.7845467943
62
254
0
LINE
8
Modules
10
-44.1376720265
20
-69.7845467943
11
-43.1210326104
21
-69.2260370041
62
254
0
TEXT
8
Modules
100
AcDbText
10
-43.9483973663
20
-69.3099944291
1
DC
7
NewTextStyle_4
40
0.2624672000000003
50
-16.21698760976193
0
TEXT
8
Modules
100
AcDbText
10
-43.8088982964
20
-69.8289182433
1
DC
7
NewTextStyle_4
40
0.2624672000000003
50
-16.21698760976193
0
LINE
8
Modules
10
-60.9143041615
20
-61.2508665207
11
-62.6439731708
21
-67.1978444360
62
254
0
LINE
8
Modules
10
-62.6439731708
20
-67.1978444360
11
-59.3802640160
21
-68.1470890236
62
254
0
LINE
8
Modules
10
-59.3802640160
20
-68.1470890236
11
-57.6505950067
21
-62.2001111083
62
254
0
LINE
8
Modules
10
-57.6505950067
20
-62.2001111083
11
-60.9143041615
21
-61.2508665207
62
254
0
LINE
8
Modules
10
-60.6556037968
20
-64.9782326673
11
-59.8680291936
21
-65.2072974802
62
254
0
LINE
8
Modules
10
-59.8680291936
20
-65.2072974802
11
-59.6389643807
21
-64.4197228771
62
254
0
LINE
8
Modules
10
-59.6389643807
20
-64.4197228771
11
-60.4265389839
21
-64.1906580641
62
254
0
LINE
8
Modules
10
-60.4265389839
20
-64.1906580641
11
-60.6556037968
21
-64.9782326673
62
254
0
LINE
8
Modules
10
-60.6556037968
20
-64.9782326673
11
-59.6389643807
21
-64.4197228771
62
254
0
TEXT
8
Modules
100
AcDbText
10
-60.4663291366
20
-64.5036803021
1
DC
7
NewTextStyle_4
40
0.2624672000000003
50
-16.21698760976193
0
TEXT
8
Modules
100
AcDbText
10
-60.3268300667
20
-65.0226041163
1
DC
7
NewTextStyle_4
40
0.2624672000000003
50
-16.21698760976193
0
LINE
8
Modules
10
-57.6124375293
20
-62.2150511194
11
-59.3421065386
21
-68.1620290347
62
254
0
LINE
8
Modules
10
-59.3421065386
20
-68.1620290347
11
-56.0783973839
21
-69.1112736223
62
254
0
LINE
8
Modules
10
-56.0783973839
20
-69.1112736223
11
-54.3487283746
21
-63.1642957070
62
254
0
LINE
8
Modules
10
-54.3487283746
20
-63.1642957070
11
-57.6124375293
21
-62.2150511194
62
254
0
LINE
8
Modules
10
-57.3537371647
20
-65.9424172660
11
-56.5661625615
21
-66.1714820789
62
254
0
LINE
8
Modules
10
-56.5661625615
20
-66.1714820789
11
-56.3370977485
21
-65.3839074758
62
254
0
LINE
8
Modules
10
-56.3370977485
20
-65.3839074758
11
-57.1246723517
21
-65.1548426628
62
254
0
LINE
8
Modules
10
-57.1246723517
20
-65.1548426628
11
-57.3537371647
21
-65.9424172660
62
254
0
LINE
8
Modules
10
-57.3537371647
20
-65.9424172660
11
-56.3370977485
21
-65.3839074758
62
254
0
TEXT
8
Modules
100
AcDbText
10
-57.1644625045
20
-65.4678649008
1
DC
7
NewTextStyle_4
40
0.2624672000000003
50
-16.21698760976193
0
TEXT
8
Modules
100
AcDbText
10
-57.0249634346
20
-65.9867887150
1
DC
7
NewTextStyle_4
40
0.2624672000000003
50
-16.21698760976193
0
LINE
8
Modules
10
-59.1745185323
20
-55.2648871494
11
-60.9041875416
21
-61.2118650647
62
254
0
LINE
8
Modules
10
-60.9041875416
20
-61.2118650647
11
-57.6404783868
21
-62.1611096523
62
254
0
LINE
8
Modules
10
-57.6404783868
20
-62.1611096523
11
-55.9108093775
21
-56.2141317370
62
254
0
LINE
8
Modules
10
-55.9108093775
20
-56.2141317370
11
-59.1745185323
21
-55.2648871494
62
254
0
LINE
8
Modules
10
-58.9158181676
20
-58.9922532960
11
-58.1282435645
21
-59.2213181089
62
254
0
LINE
8
Modules
10
-58.1282435645
20
-59.2213181089
11
-57.8991787515
21
-58.4337435057
62
254
0
LINE
8
Modules
10
-57.8991787515
20
-58.4337435057
11
-58.6867533547
21
-58.2046786928
62
254
0
LINE
8
Modules
10
-58.6867533547
20
-58.2046786928
11
-58.9158181676
21
-58.9922532960
62
254
0
LINE
8
Modules
10
-58.9158181676
20
-58.9922532960
11
-57.8991787515
21
-58.4337435057
62
254
0
TEXT
8
Modules
100
AcDbText
10
-58.7265435074
20
-58.5177009308
1
DC
7
NewTextStyle_4
40
0.2624672000000003
50
-16.21698760976193
0
TEXT
8
Modules
100
AcDbText
10
-58.5870444376
20
-59.0366247450
1
DC
7
NewTextStyle_4
40
0.2624672000000003
50
-16.21698760976193
0
LINE
8
Modules
10
-55.8697856983
20
-56.2254195334
11
-57.5994547076
21
-62.1723974488
62
254
0
LINE
8
Modules
10
-57.5994547076
20
-62.1723974488
11
-54.3357455529
21
-63.1216420364
62
254
0
LINE
8
Modules
10
-54.3357455529
20
-63.1216420364
11
-52.6060765436
21
-57.1746641210
62
254
0
LINE
8
Modules
10
-52.6060765436
20
-57.1746641210
11
-55.8697856983
21
-56.2254195334
62
254
0
LINE
8
Modules
10
-55.6110853336
20
-59.9527856800
11
-54.8235107305
21
-60.1818504930
62
254
0
LINE
8
Modules
10
-54.8235107305
20
-60.1818504930
11
-54.5944459175
21
-59.3942758898
62
254
0
LINE
8
Modules
10
-54.5944459175
20
-59.3942758898
11
-55.3820205207
21
-59.1652110768
62
254
0
LINE
8
Modules
10
-55.3820205207
20
-59.1652110768
11
-55.6110853336
21
-59.9527856800
62
254
0
LINE
8
Modules
10
-55.6110853336
20
-59.9527856800
11
-54.5944459175
21
-59.3942758898
62
254
0
TEXT
8
Modules
100
AcDbText
10
-55.4218106734
20
-59.4782333148
1
DC
7
NewTextStyle_4
40
0.2624672000000003
50
-16.21698760976193
0
TEXT
8
Modules
100
AcDbText
10
-55.2823116036
20
-59.9971571290
1
DC
7
NewTextStyle_4
40
0.2624672000000003
50
-16.21698760976193
0
LINE
8
Modules
10
-52.5650528603
20
-57.1896041296
11
-54.2947218696
21
-63.1365820449
62
254
0
LINE
8
Modules
10
-54.2947218696
20
-63.1365820449
11
-51.0310127148
21
-64.0858266325
62
254
0
LINE
8
Modules
10
-51.0310127148
20
-64.0858266325
11
-49.3013437055
21
-58.1388487172
62
254
0
LINE
8
Modules
10
-49.3013437055
20
-58.1388487172
11
-52.5650528603
21
-57.1896041296
62
254
0
LINE
8
Modules
10
-52.3063524956
20
-60.9169702761
11
-51.5187778924
21
-61.1460350891
62
254
0
LINE
8
Modules
10
-51.5187778924
20
-61.1460350891
11
-51.2897130795
21
-60.3584604859
62
254
0
LINE
8
Modules
10
-51.2897130795
20
-60.3584604859
11
-52.0772876827
21
-60.1293956730
62
254
0
LINE
8
Modules
10
-52.0772876827
20
-60.1293956730
11
-52.3063524956
21
-60.9169702761
62
254
0
LINE
8
Modules
10
-52.3063524956
20
-60.9169702761
11
-51.2897130795
21
-60.3584604859
62
254
0
TEXT
8
Modules
100
AcDbText
10
-52.1170778354
20
-60.4424179109
1
DC
7
NewTextStyle_4
40
0.2624672000000003
50
-16.21698760976193
0
TEXT
8
Modules
100
AcDbText
10
-51.9775787655
20
-60.9613417251
1
DC
7
NewTextStyle_4
40
0.2624672000000003
50
-16.21698760976193
0
LINE
8
Modules
10
-49.2631862281
20
-58.1501365110
11
-50.9928552374
21
-64.0971144263
62
254
0
LINE
8
Modules
10
-50.9928552374
20
-64.0971144263
11
-47.7291460827
21
-65.0463590139
62
254
0
LINE
8
Modules
10
-47.7291460827
20
-65.0463590139
11
-45.9994770734
21
-59.0993810986
62
254
0
LINE
8
Modules
10
-45.9994770734
20
-59.0993810986
11
-49.2631862281
21
-58.1501365110
62
254
0
LINE
8
Modules
10
-49.0044858635
20
-61.8775026576
11
-48.2169112603
21
-62.1065674705
62
254
0
LINE
8
Modules
10
-48.2169112603
20
-62.1065674705
11
-47.9878464474
21
-61.3189928673
62
254
0
LINE
8
Modules
10
-47.9878464474
20
-61.3189928673
11
-48.7754210505
21
-61.0899280544
62
254
0
LINE
8
Modules
10
-48.7754210505
20
-61.0899280544
11
-49.0044858635
21
-61.8775026576
62
254
0
LINE
8
Modules
10
-49.0044858635
20
-61.8775026576
11
-47.9878464474
21
-61.3189928673
62
254
0
TEXT
8
Modules
100
AcDbText
10
-48.8152112033
20
-61.4029502924
1
DC
7
NewTextStyle_4
40
0.2624672000000003
50
-16.21698760976193
0
TEXT
8
Modules
100
AcDbText
10
-48.6757121334
20
-61.9218741065
1
DC
7
NewTextStyle_4
40
0.2624672000000003
50
-16.21698760976193
0
LINE
8
Modules
10
-45.9584533941
20
-59.1106688950
11
-47.6881224034
21
-65.0576468103
62
254
0
LINE
8
Modules
10
-47.6881224034
20
-65.0576468103
11
-44.4244132487
21
-66.0068913979
62
254
0
LINE
8
Modules
10
-44.4244132487
20
-66.0068913979
11
-42.6947442394
21
-60.0599134826
62
254
0
LINE
8
Modules
10
-42.6947442394
20
-60.0599134826
11
-45.9584533941
21
-59.1106688950
62
254
0
LINE
8
Modules
10
-45.6997530295
20
-62.8380350416
11
-44.9121784263
21
-63.0670998545
62
254
0
LINE
8
Modules
10
-44.9121784263
20
-63.0670998545
11
-44.6831136134
21
-62.2795252513
62
254
0
LINE
8
Modules
10
-44.6831136134
20
-62.2795252513
11
-45.4706882165
21
-62.0504604384
62
254
0
LINE
8
Modules
10
-45.4706882165
20
-62.0504604384
11
-45.6997530295
21
-62.8380350416
62
254
0
LINE
8
Modules
10
-45.6997530295
20
-62.8380350416
11
-44.6831136134
21
-62.2795252513
62
254
0
TEXT
8
Modules
100
AcDbText
10
-45.5104783693
20
-62.3634826764
1
DC
7
NewTextStyle_4
40
0.2624672000000003
50
-16.21698760976193
0
TEXT
8
Modules
100
AcDbText
10
-45.3709792994
20
-62.8824064906
1
DC
7
NewTextStyle_4
40
0.2624672000000003
50
-16.21698760976193
0
LINE
8
Modules
10
-42.6565867620
20
-60.0712012764
11
-44.3862557713
21
-66.0181791917
62
254
0
LINE
8
Modules
10
-44.3862557713
20
-66.0181791917
11
-41.1225466166
21
-66.9674237793
62
254
0
LINE
8
Modules
10
-41.1225466166
20
-66.9674237793
11
-39.3928776073
21
-61.0204458640
62
254
0
LINE
8
Modules
10
-39.3928776073
20
-61.0204458640
11
-42.6565867620
21
-60.0712012764
62
254
0
LINE
8
Modules
10
-42.3978863974
20
-63.7985674230
11
-41.6103117942
21
-64.0276322359
62
254
0
LINE
8
Modules
10
-41.6103117942
20
-64.0276322359
11
-41.3812469812
21
-63.2400576328
62
254
0
LINE
8
Modules
10
-41.3812469812
20
-63.2400576328
11
-42.1688215844
21
-63.0109928198
62
254
0
LINE
8
Modules
10
-42.1688215844
20
-63.0109928198
11
-42.3978863974
21
-63.7985674230
62
254
0
LINE
8
Modules
10
-42.3978863974
20
-63.7985674230
11
-41.3812469812
21
-63.2400576328
62
254
0
TEXT
8
Modules
100
AcDbText
10
-42.2086117371
20
-63.3240150578
1
DC
7
NewTextStyle_4
40
0.2624672000000003
50
-16.21698760976193
0
TEXT
8
Modules
100
AcDbText
10
-42.0691126673
20
-63.8429388720
1
DC
7
NewTextStyle_4
40
0.2624672000000003
50
-16.21698760976193
0
LINE
8
Modules
10
-57.4318666972
20
-49.2789077781
11
-59.1615357065
21
-55.2258856934
62
254
0
LINE
8
Modules
10
-59.1615357065
20
-55.2258856934
11
-55.8978265518
21
-56.1751302810
62
254
0
LINE
8
Modules
10
-55.8978265518
20
-56.1751302810
11
-54.1681575425
21
-50.2281523657
62
254
0
LINE
8
Modules
10
-54.1681575425
20
-50.2281523657
11
-57.4318666972
21
-49.2789077781
62
254
0
LINE
8
Modules
10
-57.1731663325
20
-53.0062739247
11
-56.3855917294
21
-53.2353387376
62
254
0
LINE
8
Modules
10
-56.3855917294
20
-53.2353387376
11
-56.1565269164
21
-52.4477641344
62
254
0
LINE
8
Modules
10
-56.1565269164
20
-52.4477641344
11
-56.9441015196
21
-52.2186993215
62
254
0
LINE
8
Modules
10
-56.9441015196
20
-52.2186993215
11
-57.1731663325
21
-53.0062739247
62
254
0
LINE
8
Modules
10
-57.1731663325
20
-53.0062739247
11
-56.1565269164
21
-52.4477641344
62
254
0
TEXT
8
Modules
100
AcDbText
10
-56.9838916723
20
-52.5317215595
1
DC
7
NewTextStyle_4
40
0.2624672000000003
50
-16.21698760976193
0
TEXT
8
Modules
100
AcDbText
10
-56.8443926025
20
-53.0506453737
1
DC
7
NewTextStyle_4
40
0.2624672000000003
50
-16.21698760976193
0
LINE
8
Modules
10
-54.1300000651
20
-50.2394401595
11
-55.8596690744
21
-56.1864180749
62
254
0
LINE
8
Modules
10
-55.8596690744
20
-56.1864180749
11
-52.5959599196
21
-57.1356626625
62
254
0
LINE
8
Modules
10
-52.5959599196
20
-57.1356626625
11
-50.8662909103
21
-51.1886847471
62
254
0
LINE
8
Modules
10
-50.8662909103
20
-51.1886847471
11
-54.1300000651
21
-50.2394401595
62
254
0
LINE
8
Modules
10
-53.8712997004
20
-53.9668063061
11
-53.0837250972
21
-54.1958711191
62
254
0
LINE
8
Modules
10
-53.0837250972
20
-54.1958711191
11
-52.8546602843
21
-53.4082965159
62
254
0
LINE
8
Modules
10
-52.8546602843
20
-53.4082965159
11
-53.6422348875
21
-53.1792317029
62
254
0
LINE
8
Modules
10
-53.6422348875
20
-53.1792317029
11
-53.8712997004
21
-53.9668063061
62
254
0
LINE
8
Modules
10
-53.8712997004
20
-53.9668063061
11
-52.8546602843
21
-53.4082965159
62
254
0
TEXT
8
Modules
100
AcDbText
10
-53.6820250402
20
-53.4922539409
1
DC
7
NewTextStyle_4
40
0.2624672000000003
50
-16.21698760976193
0
TEXT
8
Modules
100
AcDbText
10
-53.5425259704
20
-54.0111777551
1
DC
7
NewTextStyle_4
40
0.2624672000000003
50
-16.21698760976193
0
LINE
8
Modules
10
-50.8252672311
20
-51.1999725436
11
-52.5549362404
21
-57.1469504589
62
254
0
LINE
8
Modules
10
-52.5549362404
20
-57.1469504589
11
-49.2912270856
21
-58.0961950465
62
254
0
LINE
8
Modules
10
-49.2912270856
20
-58.0961950465
11
-47.5615580763
21
-52.1492171312
62
254
0
LINE
8
Modules
10
-47.5615580763
20
-52.1492171312
11
-50.8252672311
21
-51.1999725436
62
254
0
LINE
8
Modules
10
-50.5665668664
20
-54.9273386902
11
-49.7789922633
21
-55.1564035031
62
254
0
LINE
8
Modules
10
-49.7789922633
20
-55.1564035031
11
-49.5499274503
21
-54.3688288999
62
254
0
LINE
8
Modules
10
-49.5499274503
20
-54.3688288999
11
-50.3375020535
21
-54.1397640870
62
254
0
LINE
8
Modules
10
-50.3375020535
20
-54.1397640870
11
-50.5665668664
21
-54.9273386902
62
254
0
LINE
8
Modules
10
-50.5665668664
20
-54.9273386902
11
-49.5499274503
21
-54.3688288999
62
254
0
TEXT
8
Modules
100
AcDbText
10
-50.3772922062
20
-54.4527863250
1
DC
7
NewTextStyle_4
40
0.2624672000000003
50
-16.21698760976193
0
TEXT
8
Modules
100
AcDbText
10
-50.2377931364
20
-54.9717101391
1
DC
7
NewTextStyle_4
40
0.2624672000000003
50
-16.21698760976193
0
LINE
8
Modules
10
-47.5205343971
20
-52.1605049250
11
-49.2502034064
21
-58.1074828403
62
254
0
LINE
8
Modules
10
-49.2502034064
20
-58.1074828403
11
-45.9864942517
21
-59.0567274279
62
254
0
LINE
8
Modules
10
-45.9864942517
20
-59.0567274279
11
-44.2568252424
21
-53.1097495126
62
254
0
LINE
8
Modules
10
-44.2568252424
20
-53.1097495126
11
-47.5205343971
21
-52.1605049250
62
254
0
LINE
8
Modules
10
-47.2618340324
20
-55.8878710716
11
-46.4742594293
21
-56.1169358845
62
254
0
LINE
8
Modules
10
-46.4742594293
20
-56.1169358845
11
-46.2451946163
21
-55.3293612813
62
254
0
LINE
8
Modules
10
-46.2451946163
20
-55.3293612813
11
-47.0327692195
21
-55.1002964684
62
254
0
LINE
8
Modules
10
-47.0327692195
20
-55.1002964684
11
-47.2618340324
21
-55.8878710716
62
254
0
LINE
8
Modules
10
-47.2618340324
20
-55.8878710716
11
-46.2451946163
21
-55.3293612813
62
254
0
TEXT
8
Modules
100
AcDbText
10
-47.0725593722
20
-55.4133187064
1
DC
7
NewTextStyle_4
40
0.2624672000000003
50
-16.21698760976193
0
TEXT
8
Modules
100
AcDbText
10
-46.9330603024
20
-55.9322425206
1
DC
7
NewTextStyle_4
40
0.2624672000000003
50
-16.21698760976193
0
LINE
8
Modules
10
-44.2186677650
20
-53.1246895211
11
-45.9483367743
21
-59.0716674364
62
254
0
LINE
8
Modules
10
-45.9483367743
20
-59.0716674364
11
-42.6846276195
21
-60.0209120240
62
254
0
LINE
8
Modules
10
-42.6846276195
20
-60.0209120240
11
-40.9549586102
21
-54.0739341087
62
254
0
LINE
8
Modules
10
-40.9549586102
20
-54.0739341087
11
-44.2186677650
21
-53.1246895211
62
254
0
LINE
8
Modules
10
-43.9599674003
20
-56.8520556677
11
-43.1723927971
21
-57.0811204806
62
254
0
LINE
8
Modules
10
-43.1723927971
20
-57.0811204806
11
-42.9433279842
21
-56.2935458774
62
254
0
LINE
8
Modules
10
-42.9433279842
20
-56.2935458774
11
-43.7309025874
21
-56.0644810645
62
254
0
LINE
8
Modules
10
-43.7309025874
20
-56.0644810645
11
-43.9599674003
21
-56.8520556677
62
254
0
LINE
8
Modules
10
-43.9599674003
20
-56.8520556677
11
-42.9433279842
21
-56.2935458774
62
254
0
TEXT
8
Modules
100
AcDbText
10
-43.7706927401
20
-56.3775033025
1
DC
7
NewTextStyle_4
40
0.2624672000000003
50
-16.21698760976193
0
TEXT
8
Modules
100
AcDbText
10
-43.6311936703
20
-56.8964271167
1
DC
7
NewTextStyle_4
40
0.2624672000000003
50
-16.21698760976193
0
LINE
8
Modules
10
-40.9139349269
20
-54.0852219051
11
-42.6436039362
21
-60.0321998204
62
254
0
LINE
8
Modules
10
-42.6436039362
20
-60.0321998204
11
-39.3798947815
21
-60.9814444080
62
254
0
LINE
8
Modules
10
-39.3798947815
20
-60.9814444080
11
-37.6502257722
21
-55.0344664927
62
254
0
LINE
8
Modules
10
-37.6502257722
20
-55.0344664927
11
-40.9139349269
21
-54.0852219051
62
254
0
LINE
8
Modules
10
-40.6552345623
20
-57.8125880517
11
-39.8676599591
21
-58.0416528646
62
254
0
LINE
8
Modules
10
-39.8676599591
20
-58.0416528646
11
-39.6385951462
21
-57.2540782615
62
254
0
LINE
8
Modules
10
-39.6385951462
20
-57.2540782615
11
-40.4261697493
21
-57.0250134485
62
254
0
LINE
8
Modules
10
-40.4261697493
20
-57.0250134485
11
-40.6552345623
21
-57.8125880517
62
254
0
LINE
8
Modules
10
-40.6552345623
20
-57.8125880517
11
-39.6385951462
21
-57.2540782615
62
254
0
TEXT
8
Modules
100
AcDbText
10
-40.4659599021
20
-57.3380356865
1
DC
7
NewTextStyle_4
40
0.2624672000000003
50
-16.21698760976193
0
TEXT
8
Modules
100
AcDbText
10
-40.3264608322
20
-57.8569595007
1
DC
7
NewTextStyle_4
40
0.2624672000000003
50
-16.21698760976193
0
LINE
8
Modules
10
-50.6072719629
20
64.8731990726
11
-52.3872876442
21
59.0460057865
62
254
0
LINE
8
Modules
10
-52.3872876442
20
59.0460057865
11
-49.1366158740
21
58.0530325864
62
254
0
LINE
8
Modules
10
-49.1366158740
20
58.0530325864
11
-47.3566001927
21
63.8802258725
62
254
0
LINE
8
Modules
10
-47.3566001927
20
63.8802258725
11
-50.6072719629
21
64.8731990726
62
254
0
LINE
8
Modules
10
-50.3839667184
20
61.1907101130
11
-49.5995382020
21
60.9510930296
62
254
0
LINE
8
Modules
10
-49.5995382020
20
60.9510930296
11
-49.3599211185
21
61.7355215460
62
254
0
LINE
8
Modules
10
-49.3599211185
20
61.7355215460
11
-50.1443496349
21
61.9751386295
62
254
0
LINE
8
Modules
10
-50.1443496349
20
61.9751386295
11
-50.3839667184
21
61.1907101130
62
254
0
LINE
8
Modules
10
-50.3839667184
20
61.1907101130
11
-49.3599211185
21
61.7355215460
62
254
0
TEXT
8
Modules
100
AcDbText
10
-50.1883384157
20
61.6626787682
1
DC
7
NewTextStyle_4
40
0.2624672000000003
50
-16.986186447828597
0
TEXT
8
Modules
100
AcDbText
10
-50.0558182868
20
61.1419289906
1
DC
7
NewTextStyle_4
40
0.2624672000000003
50
-16.986186447828597
0
LINE
8
Modules
10
-48.8158946675
20
70.7386553698
11
-50.5959103488
21
64.9114620836
62
254
0
LINE
8
Modules
10
-50.5959103488
20
64.9114620836
11
-47.3452385785
21
63.9184888835
62
254
0
LINE
8
Modules
10
-47.3452385785
20
63.9184888835
11
-45.5652228972
21
69.7456821696
62
254
0
LINE
8
Modules
10
-45.5652228972
20
69.7456821696
11
-48.8158946675
21
70.7386553698
62
254
0
LINE
8
Modules
10
-48.5925894230
20
67.0561664101
11
-47.8081609065
21
66.8165493267
62
254
0
LINE
8
Modules
10
-47.8081609065
20
66.8165493267
11
-47.5685438230
21
67.6009778431
62
254
0
LINE
8
Modules
10
-47.5685438230
20
67.6009778431
11
-48.3529723395
21
67.8405949266
62
254
0
LINE
8
Modules
10
-48.3529723395
20
67.8405949266
11
-48.5925894230
21
67.0561664101
62
254
0
LINE
8
Modules
10
-48.5925894230
20
67.0561664101
11
-47.5685438230
21
67.6009778431
62
254
0
TEXT
8
Modules
100
AcDbText
10
-48.3969611202
20
67.5281350653
1
DC
7
NewTextStyle_4
40
0.2624672000000003
50
-16.986186447828597
0
TEXT
8
Modules
100
AcDbText
10
-48.2644409914
20
67.0073852877
1
DC
7
NewTextStyle_4
40
0.2624672000000003
50
-16.986186447828597
0
LINE
8
Modules
10
-47.3168701464
20
63.8688401176
11
-49.0968858277
21
58.0416468315
62
254
0
LINE
8
Modules
10
-49.0968858277
20
58.0416468315
11
-45.8462140575
21
57.0486736313
62
254
0
LINE
8
Modules
10
-45.8462140575
20
57.0486736313
11
-44.0661983762
21
62.8758669175
62
254
0
LINE
8
Modules
10
-44.0661983762
20
62.8758669175
11
-47.3168701464
21
63.8688401176
62
254
0
LINE
8
Modules
10
-47.0935649019
20
60.1863511580
11
-46.3091363855
21
59.9467340745
62
254
0
LINE
8
Modules
10
-46.3091363855
20
59.9467340745
11
-46.0695193020
21
60.7311625910
62
254
0
LINE
8
Modules
10
-46.0695193020
20
60.7311625910
11
-46.8539478185
21
60.9707796744
62
254
0
LINE
8
Modules
10
-46.8539478185
20
60.9707796744
11
-47.0935649019
21
60.1863511580
62
254
0
LINE
8
Modules
10
-47.0935649019
20
60.1863511580
11
-46.0695193020
21
60.7311625910
62
254
0
TEXT
8
Modules
100
AcDbText
10
-46.8979365992
20
60.6583198132
1
DC
7
NewTextStyle_4
40
0.2624672000000003
50
-16.986186447828597
0
TEXT
8
Modules
100
AcDbText
10
-46.7654164704
20
60.1375700356
1
DC
7
NewTextStyle_4
40
0.2624672000000003
50
-16.986186447828597
0
LINE
8
Modules
10
-45.5254928510
20
69.7342964147
11
-47.3055085323
21
63.9071031286
62
254
0
LINE
8
Modules
10
-47.3055085323
20
63.9071031286
11
-44.0548367620
21
62.9141299284
62
254
0
LINE
8
Modules
10
-44.0548367620
20
62.9141299284
11
-42.2748210808
21
68.7413232146
62
254
0
LINE
8
Modules
10
-42.2748210808
20
68.7413232146
11
-45.5254928510
21
69.7342964147
62
254
0
LINE
8
Modules
10
-45.3021876065
20
66.0518074551
11
-44.5177590900
21
65.8121903716
62
254
0
LINE
8
Modules
10
-44.5177590900
20
65.8121903716
11
-44.2781420066
21
66.5966188881
62
254
0
LINE
8
Modules
10
-44.2781420066
20
66.5966188881
11
-45.0625705230
21
66.8362359715
62
254
0
LINE
8
Modules
10
-45.0625705230
20
66.8362359715
11
-45.3021876065
21
66.0518074551
62
254
0
LINE
8
Modules
10
-45.3021876065
20
66.0518074551
11
-44.2781420066
21
66.5966188881
62
254
0
TEXT
8
Modules
100
AcDbText
10
-45.1065593037
20
66.5237761103
1
DC
7
NewTextStyle_4
40
0.2624672000000003
50
-16.986186447828597
0
TEXT
8
Modules
100
AcDbText
10
-44.9740391749
20
66.0030263327
1
DC
7
NewTextStyle_4
40
0.2624672000000003
50
-16.986186447828597
0
LINE
8
Modules
10
-44.0264683300
20
62.8608289479
11
-45.8064840113
21
57.0336356617
62
254
0
LINE
8
Modules
10
-45.8064840113
20
57.0336356617
11
-42.5558122410
21
56.0406624616
62
254
0
LINE
8
Modules
10
-42.5558122410
20
56.0406624616
11
-40.7757965597
21
61.8678557478
62
254
0
LINE
8
Modules
10
-40.7757965597
20
61.8678557478
11
-44.0264683300
21
62.8608289479
62
254
0
LINE
8
Modules
10
-43.8031630855
20
59.1783399883
11
-43.0187345690
21
58.9387229048
62
254
0
LINE
8
Modules
10
-43.0187345690
20
58.9387229048
11
-42.7791174855
21
59.7231514212
62
254
0
LINE
8
Modules
10
-42.7791174855
20
59.7231514212
11
-43.5635460020
21
59.9627685047
62
254
0
LINE
8
Modules
10
-43.5635460020
20
59.9627685047
11
-43.8031630855
21
59.1783399883
62
254
0
LINE
8
Modules
10
-43.8031630855
20
59.1783399883
11
-42.7791174855
21
59.7231514212
62
254
0
TEXT
8
Modules
100
AcDbText
10
-43.6075347827
20
59.6503086435
1
DC
7
NewTextStyle_4
40
0.2624672000000003
50
-16.986186447828597
0
TEXT
8
Modules
100
AcDbText
10
-43.4750146539
20
59.1295588659
1
DC
7
NewTextStyle_4
40
0.2624672000000003
50
-16.986186447828597
0
LINE
8
Modules
10
-42.2350910345
20
68.7299374597
11
-44.0151067158
21
62.9027441735
62
254
0
LINE
8
Modules
10
-44.0151067158
20
62.9027441735
11
-40.7644349456
21
61.9097709734
62
254
0
LINE
8
Modules
10
-40.7644349456
20
61.9097709734
11
-38.9844192643
21
67.7369642596
62
254
0
LINE
8
Modules
10
-38.9844192643
20
67.7369642596
11
-42.2350910345
21
68.7299374597
62
254
0
LINE
8
Modules
10
-42.0117857900
20
65.0474485001
11
-41.2273572736
21
64.8078314166
62
254
0
LINE
8
Modules
10
-41.2273572736
20
64.8078314166
11
-40.9877401901
21
65.5922599330
62
254
0
LINE
8
Modules
10
-40.9877401901
20
65.5922599330
11
-41.7721687065
21
65.8318770165
62
254
0
LINE
8
Modules
10
-41.7721687065
20
65.8318770165
11
-42.0117857900
21
65.0474485001
62
254
0
LINE
8
Modules
10
-42.0117857900
20
65.0474485001
11
-40.9877401901
21
65.5922599330
62
254
0
TEXT
8
Modules
100
AcDbText
10
-41.8161574873
20
65.5194171553
1
DC
7
NewTextStyle_4
40
0.2624672000000003
50
-16.986186447828597
0
TEXT
8
Modules
100
AcDbText
10
-41.6836373584
20
64.9986673777
1
DC
7
NewTextStyle_4
40
0.2624672000000003
50
-16.986186447828597
0
LINE
8
Modules
10
-40.7360665135
20
61.8564699928
11
-42.5160821948
21
56.0292767067
62
254
0
LINE
8
Modules
10
-42.5160821948
20
56.0292767067
11
-39.2654104246
21
55.0363035066
62
254
0
LINE
8
Modules
10
-39.2654104246
20
55.0363035066
11
-37.4853947433
21
60.8634967927
62
254
0
LINE
8
Modules
10
-37.4853947433
20
60.8634967927
11
-40.7360665135
21
61.8564699928
62
254
0
LINE
8
Modules
10
-40.5127612690
20
58.1739810332
11
-39.7283327525
21
57.9343639498
62
254
0
LINE
8
Modules
10
-39.7283327525
20
57.9343639498
11
-39.4887156691
21
58.7187924662
62
254
0
LINE
8
Modules
10
-39.4887156691
20
58.7187924662
11
-40.2731441855
21
58.9584095497
62
254
0
LINE
8
Modules
10
-40.2731441855
20
58.9584095497
11
-40.5127612690
21
58.1739810332
62
254
0
LINE
8
Modules
10
-40.5127612690
20
58.1739810332
11
-39.4887156691
21
58.7187924662
62
254
0
TEXT
8
Modules
100
AcDbText
10
-40.3171329662
20
58.6459496884
1
DC
7
NewTextStyle_4
40
0.2624672000000003
50
-16.986186447828597
0
TEXT
8
Modules
100
AcDbText
10
-40.1846128374
20
58.1251999108
1
DC
7
NewTextStyle_4
40
0.2624672000000003
50
-16.986186447828597
0
LINE
8
Modules
10
-38.9446892180
20
67.7219262900
11
-40.7247048993
21
61.8947330038
62
254
0
LINE
8
Modules
10
-40.7247048993
20
61.8947330038
11
-37.4740331291
21
60.9017598037
62
254
0
LINE
8
Modules
10
-37.4740331291
20
60.9017598037
11
-35.6940174478
21
66.7289530898
62
254
0
LINE
8
Modules
10
-35.6940174478
20
66.7289530898
11
-38.9446892180
21
67.7219262900
62
254
0
LINE
8
Modules
10
-38.7213839735
20
64.0394373303
11
-37.9369554571
21
63.7998202469
62
254
0
LINE
8
Modules
10
-37.9369554571
20
63.7998202469
11
-37.6973383736
21
64.5842487633
62
254
0
LINE
8
Modules
10
-37.6973383736
20
64.5842487633
11
-38.4817668900
21
64.8238658468
62
254
0
LINE
8
Modules
10
-38.4817668900
20
64.8238658468
11
-38.7213839735
21
64.0394373303
62
254
0
LINE
8
Modules
10
-38.7213839735
20
64.0394373303
11
-37.6973383736
21
64.5842487633
62
254
0
TEXT
8
Modules
100
AcDbText
10
-38.5257556708
20
64.5114059855
1
DC
7
NewTextStyle_4
40
0.2624672000000003
50
-16.986186447828597
0
TEXT
8
Modules
100
AcDbText
10
-38.3932355419
20
63.9906562079
1
DC
7
NewTextStyle_4
40
0.2624672000000003
50
-16.986186447828597
0
LINE
8
Modules
10
-37.4456646970
20
60.8521110378
11
-39.2256803783
21
55.0249177517
62
254
0
LINE
8
Modules
10
-39.2256803783
20
55.0249177517
11
-35.9750086081
21
54.0319445515
62
254
0
LINE
8
Modules
10
-35.9750086081
20
54.0319445515
11
-34.1949929268
21
59.8591378377
62
254
0
LINE
8
Modules
10
-34.1949929268
20
59.8591378377
11
-37.4456646970
21
60.8521110378
62
254
0
LINE
8
Modules
10
-37.2223594525
20
57.1696220782
11
-36.4379309361
21
56.9300049947
62
254
0
LINE
8
Modules
10
-36.4379309361
20
56.9300049947
11
-36.1983138526
21
57.7144335112
62
254
0
LINE
8
Modules
10
-36.1983138526
20
57.7144335112
11
-36.9827423690
21
57.9540505946
62
254
0
LINE
8
Modules
10
-36.9827423690
20
57.9540505946
11
-37.2223594525
21
57.1696220782
62
254
0
LINE
8
Modules
10
-37.2223594525
20
57.1696220782
11
-36.1983138526
21
57.7144335112
62
254
0
TEXT
8
Modules
100
AcDbText
10
-37.0267311498
20
57.6415907334
1
DC
7
NewTextStyle_4
40
0.2624672000000003
50
-16.986186447828597
0
TEXT
8
Modules
100
AcDbText
10
-36.8942110209
20
57.1208409558
1
DC
7
NewTextStyle_4
40
0.2624672000000003
50
-16.986186447828597
0
LINE
8
Modules
10
-35.6542874016
20
66.7175673349
11
-37.4343030829
21
60.8903740488
62
254
0
LINE
8
Modules
10
-37.4343030829
20
60.8903740488
11
-34.1836313126
21
59.8974008486
62
254
0
LINE
8
Modules
10
-34.1836313126
20
59.8974008486
11
-32.4036156313
21
65.7245941348
62
254
0
LINE
8
Modules
10
-32.4036156313
20
65.7245941348
11
-35.6542874016
21
66.7175673349
62
254
0
LINE
8
Modules
10
-35.4309821571
20
63.0350783753
11
-34.6465536406
21
62.7954612918
62
254
0
LINE
8
Modules
10
-34.6465536406
20
62.7954612918
11
-34.4069365571
21
63.5798898083
62
254
0
LINE
8
Modules
10
-34.4069365571
20
63.5798898083
11
-35.1913650736
21
63.8195068917
62
254
0
LINE
8
Modules
10
-35.1913650736
20
63.8195068917
11
-35.4309821571
21
63.0350783753
62
254
0
LINE
8
Modules
10
-35.4309821571
20
63.0350783753
11
-34.4069365571
21
63.5798898083
62
254
0
TEXT
8
Modules
100
AcDbText
10
-35.2353538543
20
63.5070470305
1
DC
7
NewTextStyle_4
40
0.2624672000000003
50
-16.986186447828597
0
TEXT
8
Modules
100
AcDbText
10
-35.1028337255
20
62.9862972529
1
DC
7
NewTextStyle_4
40
0.2624672000000003
50
-16.986186447828597
0
LINE
8
Modules
10
-93.6175242896
20
-76.0767105620
11
-95.3975399709
21
-81.9039038481
62
254
0
LINE
8
Modules
10
-95.3975399709
20
-81.9039038481
11
-92.1468682007
21
-82.8968770483
62
254
0
LINE
8
Modules
10
-92.1468682007
20
-82.8968770483
11
-90.3668525194
21
-77.0696837621
62
254
0
LINE
8
Modules
10
-90.3668525194
20
-77.0696837621
11
-93.6175242896
21
-76.0767105620
62
254
0
LINE
8
Modules
10
-93.3942190451
20
-79.7591995216
11
-92.6097905287
21
-79.9988166051
62
254
0
LINE
8
Modules
10
-92.6097905287
20
-79.9988166051
11
-92.3701734452
21
-79.2143880887
62
254
0
LINE
8
Modules
10
-92.3701734452
20
-79.2143880887
11
-93.1546019616
21
-78.9747710052
62
254
0
LINE
8
Modules
10
-93.1546019616
20
-78.9747710052
11
-93.3942190451
21
-79.7591995216
62
254
0
LINE
8
Modules
10
-93.3942190451
20
-79.7591995216
11
-92.3701734452
21
-79.2143880887
62
254
0
TEXT
8
Modules
100
AcDbText
10
-93.1985907424
20
-79.2872308664
1
DC
7
NewTextStyle_4
40
0.2624672000000003
50
-16.98618644796302
0
TEXT
8
Modules
100
AcDbText
10
-93.0660706135
20
-79.8079806440
1
DC
7
NewTextStyle_4
40
0.2624672000000003
50
-16.98618644796302
0
LINE
8
Modules
10
-91.8232807882
20
-70.2112542649
11
-93.6032964695
21
-76.0384475510
62
254
0
LINE
8
Modules
10
-93.6032964695
20
-76.0384475510
11
-90.3526246993
21
-77.0314207512
62
254
0
LINE
8
Modules
10
-90.3526246993
20
-77.0314207512
11
-88.5726090180
21
-71.2042274650
62
254
0
LINE
8
Modules
10
-88.5726090180
20
-71.2042274650
11
-91.8232807882
21
-70.2112542649
62
254
0
LINE
8
Modules
10
-91.5999755437
20
-73.8937432245
11
-90.8155470273
21
-74.1333603080
62
254
0
LINE
8
Modules
10
-90.8155470273
20
-74.1333603080
11
-90.5759299438
21
-73.3489317915
62
254
0
LINE
8
Modules
10
-90.5759299438
20
-73.3489317915
11
-91.3603584602
21
-73.1093147081
62
254
0
LINE
8
Modules
10
-91.3603584602
20
-73.1093147081
11
-91.5999755437
21
-73.8937432245
62
254
0
LINE
8
Modules
10
-91.5999755437
20
-73.8937432245
11
-90.5759299438
21
-73.3489317915
62
254
0
TEXT
8
Modules
100
AcDbText
10
-91.4043472410
20
-73.4217745693
1
DC
7
NewTextStyle_4
40
0.2624672000000003
50
-16.98618644796302
0
TEXT
8
Modules
100
AcDbText
10
-91.2718271121
20
-73.9425243469
1
DC
7
NewTextStyle_4
40
0.2624672000000003
50
-16.98618644796302
0
LINE
8
Modules
10
-90.3271224731
20
-77.0810695170
11
-92.1071381544
21
-82.9082628032
62
254
0
LINE
8
Modules
10
-92.1071381544
20
-82.9082628032
11
-88.8564663842
21
-83.9012360033
62
254
0
LINE
8
Modules
10
-88.8564663842
20
-83.9012360033
11
-87.0764507029
21
-78.0740427172
62
254
0
LINE
8
Modules
10
-87.0764507029
20
-78.0740427172
11
-90.3271224731
21
-77.0810695170
62
254
0
LINE
8
Modules
10
-90.1038172286
20
-80.7635584766
11
-89.3193887122
21
-81.0031755601
62
254
0
LINE
8
Modules
10
-89.3193887122
20
-81.0031755601
11
-89.0797716287
21
-80.2187470437
62
254
0
LINE
8
Modules
10
-89.0797716287
20
-80.2187470437
11
-89.8642001451
21
-79.9791299602
62
254
0
LINE
8
Modules
10
-89.8642001451
20
-79.9791299602
11
-90.1038172286
21
-80.7635584766
62
254
0
LINE
8
Modules
10
-90.1038172286
20
-80.7635584766
11
-89.0797716287
21
-80.2187470437
62
254
0
TEXT
8
Modules
100
AcDbText
10
-89.9081889259
20
-80.2915898215
1
DC
7
NewTextStyle_4
40
0.2624672000000003
50
-16.98618644796302
0
TEXT
8
Modules
100
AcDbText
10
-89.7756687970
20
-80.8123395991
1
DC
7
NewTextStyle_4
40
0.2624672000000003
50
-16.98618644796302
0
LINE
8
Modules
10
-88.5328789717
20
-71.2156132199
11
-90.3128946530
21
-77.0428065061
62
254
0
LINE
8
Modules
10
-90.3128946530
20
-77.0428065061
11
-87.0622228828
21
-78.0357797062
62
254
0
LINE
8
Modules
10
-87.0622228828
20
-78.0357797062
11
-85.2822072015
21
-72.2085864201
62
254
0
LINE
8
Modules
10
-85.2822072015
20
-72.2085864201
11
-88.5328789717
21
-71.2156132199
62
254
0
LINE
8
Modules
10
-88.3095737272
20
-74.8981021795
11
-87.5251452108
21
-75.1377192630
62
254
0
LINE
8
Modules
10
-87.5251452108
20
-75.1377192630
11
-87.2855281273
21
-74.3532907466
62
254
0
LINE
8
Modules
10
-87.2855281273
20
-74.3532907466
11
-88.0699566437
21
-74.1136736631
62
254
0
LINE
8
Modules
10
-88.0699566437
20
-74.1136736631
11
-88.3095737272
21
-74.8981021795
62
254
0
LINE
8
Modules
10
-88.3095737272
20
-74.8981021795
11
-87.2855281273
21
-74.3532907466
62
254
0
TEXT
8
Modules
100
AcDbText
10
-88.1139454245
20
-74.4261335244
1
DC
7
NewTextStyle_4
40
0.2624672000000003
50
-16.98618644796302
0
TEXT
8
Modules
100
AcDbText
10
-87.9814252956
20
-74.9468833019
1
DC
7
NewTextStyle_4
40
0.2624672000000003
50
-16.98618644796302
0
LINE
8
Modules
10
-87.0367206526
20
-78.0890806868
11
-88.8167363339
21
-83.9162739729
62
254
0
LINE
8
Modules
10
-88.8167363339
20
-83.9162739729
11
-85.5660645637
21
-84.9092471730
62
254
0
LINE
8
Modules
10
-85.5660645637
20
-84.9092471730
11
-83.7860488824
21
-79.0820538869
62
254
0
LINE
8
Modules
10
-83.7860488824
20
-79.0820538869
11
-87.0367206526
21
-78.0890806868
62
254
0
LINE
8
Modules
10
-86.8134154081
20
-81.7715696464
11
-86.0289868916
21
-82.0111867299
62
254
0
LINE
8
Modules
10
-86.0289868916
20
-82.0111867299
11
-85.7893698082
21
-81.2267582134
62
254
0
LINE
8
Modules
10
-85.7893698082
20
-81.2267582134
11
-86.5737983246
21
-80.9871411299
62
254
0
LINE
8
Modules
10
-86.5737983246
20
-80.9871411299
11
-86.8134154081
21
-81.7715696464
62
254
0
LINE
8
Modules
10
-86.8134154081
20
-81.7715696464
11
-85.7893698082
21
-81.2267582134
62
254
0
TEXT
8
Modules
100
AcDbText
10
-86.6177871053
20
-81.2996009912
1
DC
7
NewTextStyle_4
40
0.2624672000000003
50
-16.98618644796302
0
TEXT
8
Modules
100
AcDbText
10
-86.4852669765
20
-81.8203507688
1
DC
7
NewTextStyle_4
40
0.2624672000000003
50
-16.98618644796302
0
LINE
8
Modules
10
-85.2424771553
20
-72.2236243896
11
-87.0224928366
21
-78.0508176758
62
254
0
LINE
8
Modules
10
-87.0224928366
20
-78.0508176758
11
-83.7718210663
21
-79.0437908759
62
254
0
LINE
8
Modules
10
-83.7718210663
20
-79.0437908759
11
-81.9918053850
21
-73.2165975898
62
254
0
LINE
8
Modules
10
-81.9918053850
20
-73.2165975898
11
-85.2424771553
21
-72.2236243896
62
254
0
LINE
8
Modules
10
-85.0191719108
20
-75.9061133493
11
-84.2347433943
21
-76.1457304327
62
254
0
LINE
8
Modules
10
-84.2347433943
20
-76.1457304327
11
-83.9951263108
21
-75.3613019163
62
254
0
LINE
8
Modules
10
-83.9951263108
20
-75.3613019163
11
-84.7795548273
21
-75.1216848328
62
254
0
LINE
8
Modules
10
-84.7795548273
20
-75.1216848328
11
-85.0191719108
21
-75.9061133493
62
254
0
LINE
8
Modules
10
-85.0191719108
20
-75.9061133493
11
-83.9951263108
21
-75.3613019163
62
254
0
TEXT
8
Modules
100
AcDbText
10
-84.8235436080
20
-75.4341446941
1
DC
7
NewTextStyle_4
40
0.2624672000000003
50
-16.98618644796302
0
TEXT
8
Modules
100
AcDbText
10
-84.6910234792
20
-75.9548944717
1
DC
7
NewTextStyle_4
40
0.2624672000000003
50
-16.98618644796302
0
LINE
8
Modules
10
-83.7434526342
20
-79.0934396418
11
-85.5234683155
21
-84.9206329279
62
254
0
LINE
8
Modules
10
-85.5234683155
20
-84.9206329279
11
-82.2727965453
21
-85.9136061281
62
254
0
LINE
8
Modules
10
-82.2727965453
20
-85.9136061281
11
-80.4927808640
21
-80.0864128419
62
254
0
LINE
8
Modules
10
-80.4927808640
20
-80.0864128419
11
-83.7434526342
21
-79.0934396418
62
254
0
LINE
8
Modules
10
-83.5201473897
20
-82.7759286014
11
-82.7357188733
21
-83.0155456849
62
254
0
LINE
8
Modules
10
-82.7357188733
20
-83.0155456849
11
-82.4961017898
21
-82.2311171685
62
254
0
LINE
8
Modules
10
-82.4961017898
20
-82.2311171685
11
-83.2805303063
21
-81.9915000850
62
254
0
LINE
8
Modules
10
-83.2805303063
20
-81.9915000850
11
-83.5201473897
21
-82.7759286014
62
254
0
LINE
8
Modules
10
-83.5201473897
20
-82.7759286014
11
-82.4961017898
21
-82.2311171685
62
254
0
TEXT
8
Modules
100
AcDbText
10
-83.3245190870
20
-82.3039599462
1
DC
7
NewTextStyle_4
40
0.2624672000000003
50
-16.98618644796302
0
TEXT
8
Modules
100
AcDbText
10
-83.1919989582
20
-82.8247097238
1
DC
7
NewTextStyle_4
40
0.2624672000000003
50
-16.98618644796302
0
LINE
8
Modules
10
-81.9520753388
20
-73.2279833447
11
-83.7320910201
21
-79.0551766308
62
254
0
LINE
8
Modules
10
-83.7320910201
20
-79.0551766308
11
-80.4814192499
21
-80.0481498310
62
254
0
LINE
8
Modules
10
-80.4814192499
20
-80.0481498310
11
-78.7014035685
21
-74.2209565448
62
254
0
LINE
8
Modules
10
-78.7014035685
20
-74.2209565448
11
-81.9520753388
21
-73.2279833447
62
254
0
LINE
8
Modules
10
-81.7287700943
20
-76.9104723043
11
-80.9443415778
21
-77.1500893878
62
254
0
LINE
8
Modules
10
-80.9443415778
20
-77.1500893878
11
-80.7047244944
21
-76.3656608713
62
254
0
LINE
8
Modules
10
-80.7047244944
20
-76.3656608713
11
-81.4891530108
21
-76.1260437879
62
254
0
LINE
8
Modules
10
-81.4891530108
20
-76.1260437879
11
-81.7287700943
21
-76.9104723043
62
254
0
LINE
8
Modules
10
-81.7287700943
20
-76.9104723043
11
-80.7047244944
21
-76.3656608713
62
254
0
TEXT
8
Modules
100
AcDbText
10
-81.5331417915
20
-76.4385036491
1
DC
7
NewTextStyle_4
40
0.2624672000000003
50
-16.98618644796302
0
TEXT
8
Modules
100
AcDbText
10
-81.4006216627
20
-76.9592534267
1
DC
7
NewTextStyle_4
40
0.2624672000000003
50
-16.98618644796302
0
LINE
8
Modules
10
-80.4530508178
20
-80.0977985968
11
-82.2330664991
21
-85.9249918830
62
254
0
LINE
8
Modules
10
-82.2330664991
20
-85.9249918830
11
-78.9823947288
21
-86.9179650831
62
254
0
LINE
8
Modules
10
-78.9823947288
20
-86.9179650831
11
-77.2023790475
21
-81.0907717970
62
254
0
LINE
8
Modules
10
-77.2023790475
20
-81.0907717970
11
-80.4530508178
21
-80.0977985968
62
254
0
LINE
8
Modules
10
-80.2297455733
20
-83.7802875564
11
-79.4453170568
21
-84.0199046399
62
254
0
LINE
8
Modules
10
-79.4453170568
20
-84.0199046399
11
-79.2056999733
21
-83.2354761235
62
254
0
LINE
8
Modules
10
-79.2056999733
20
-83.2354761235
11
-79.9901284898
21
-82.9958590400
62
254
0
LINE
8
Modules
10
-79.9901284898
20
-82.9958590400
11
-80.2297455733
21
-83.7802875564
62
254
0
LINE
8
Modules
10
-80.2297455733
20
-83.7802875564
11
-79.2056999733
21
-83.2354761235
62
254
0
TEXT
8
Modules
100
AcDbText
10
-80.0341172705
20
-83.3083189013
1
DC
7
NewTextStyle_4
40
0.2624672000000003
50
-16.98618644796302
0
TEXT
8
Modules
100
AcDbText
10
-79.9015971417
20
-83.8290686789
1
DC
7
NewTextStyle_4
40
0.2624672000000003
50
-16.98618644796302
0
LINE
8
Modules
10
-78.6616735182
20
-74.2323422997
11
-80.4416891995
21
-80.0595355859
62
254
0
LINE
8
Modules
10
-80.4416891995
20
-80.0595355859
11
-77.1910174293
21
-81.0525087860
62
254
0
LINE
8
Modules
10
-77.1910174293
20
-81.0525087860
11
-75.4110017480
21
-75.2253154999
62
254
0
LINE
8
Modules
10
-75.4110017480
20
-75.2253154999
11
-78.6616735182
21
-74.2323422997
62
254
0
LINE
8
Modules
10
-78.4383682737
20
-77.9148312593
11
-77.6539397573
21
-78.1544483428
62
254
0
LINE
8
Modules
10
-77.6539397573
20
-78.1544483428
11
-77.4143226738
21
-77.3700198264
62
254
0
LINE
8
Modules
10
-77.4143226738
20
-77.3700198264
11
-78.1987511902
21
-77.1304027429
62
254
0
LINE
8
Modules
10
-78.1987511902
20
-77.1304027429
11
-78.4383682737
21
-77.9148312593
62
254
0
LINE
8
Modules
10
-78.4383682737
20
-77.9148312593
11
-77.4143226738
21
-77.3700198264
62
254
0
TEXT
8
Modules
100
AcDbText
10
-78.2427399710
20
-77.4428626042
1
DC
7
NewTextStyle_4
40
0.2624672000000003
50
-16.98618644796302
0
TEXT
8
Modules
100
AcDbText
10
-78.1102198421
20
-77.9636123817
1
DC
7
NewTextStyle_4
40
0.2624672000000003
50
-16.98618644796302
0
LINE
8
Modules
10
-91.5780862644
20
22.6868107622
11
-93.3901209254
21
16.8694946650
62
254
0
LINE
8
Modules
10
-93.3901209254
20
16.8694946650
11
-90.1449590419
21
15.8586598201
62
254
0
LINE
8
Modules
10
-90.1449590419
20
15.8586598201
11
-88.3329243809
21
21.6759759172
62
254
0
LINE
8
Modules
10
-88.3329243809
20
21.6759759172
11
-91.5780862644
21
22.6868107622
62
254
0
LINE
8
Modules
10
-91.3750357719
20
19.0031494998
11
-90.5919368618
21
18.7592221724
62
254
0
LINE
8
Modules
10
-90.5919368618
20
18.7592221724
11
-90.3480095344
21
19.5423210825
62
254
0
LINE
8
Modules
10
-90.3480095344
20
19.5423210825
11
-91.1311084445
21
19.7862484099
62
254
0
LINE
8
Modules
10
-91.1311084445
20
19.7862484099
11
-91.3750357719
21
19.0031494998
62
254
0
LINE
8
Modules
10
-91.3750357719
20
19.0031494998
11
-90.3480095344
21
19.5423210825
62
254
0
TEXT
8
Modules
100
AcDbText
10
-91.1768148943
20
19.4740351844
1
DC
7
NewTextStyle_4
40
0.2624672000000003
50
-17.30127906798755
0
TEXT
8
Modules
100
AcDbText
10
-91.0471605682
20
18.9525645034
1
DC
7
NewTextStyle_4
40
0.2624672000000003
50
-17.30127906798755
0
LINE
8
Modules
10
-88.2934168557
20
21.6641907363
11
-90.1054515167
21
15.8468746392
62
254
0
LINE
8
Modules
10
-90.1054515167
20
15.8468746392
11
-86.8602896332
21
14.8360397942
62
254
0
LINE
8
Modules
10
-86.8602896332
20
14.8360397942
11
-85.0482549722
21
20.6533558914
62
254
0
LINE
8
Modules
10
-85.0482549722
20
20.6533558914
11
-88.2934168557
21
21.6641907363
62
254
0
LINE
8
Modules
10
-88.0903663632
20
17.9805294739
11
-87.3072674531
21
17.7366021465
62
254
0
LINE
8
Modules
10
-87.3072674531
20
17.7366021465
11
-87.0633401257
21
18.5197010566
62
254
0
LINE
8
Modules
10
-87.0633401257
20
18.5197010566
11
-87.8464390359
21
18.7636283840
62
254
0
LINE
8
Modules
10
-87.8464390359
20
18.7636283840
11
-88.0903663632
21
17.9805294739
62
254
0
LINE
8
Modules
10
-88.0903663632
20
17.9805294739
11
-87.0633401257
21
18.5197010566
62
254
0
TEXT
8
Modules
100
AcDbText
10
-87.8921454857
20
18.4514151585
1
DC
7
NewTextStyle_4
40
0.2624672000000003
50
-17.30127906798755
0
TEXT
8
Modules
100
AcDbText
10
-87.7624911595
20
17.9299444775
1
DC
7
NewTextStyle_4
40
0.2624672000000003
50
-17.30127906798755
0
LINE
8
Modules
10
-85.0087474471
20
20.6415707105
11
-86.8207821081
21
14.8242546133
62
254
0
LINE
8
Modules
10
-86.8207821081
20
14.8242546133
11
-83.5756202246
21
13.8134197683
62
254
0
LINE
8
Modules
10
-83.5756202246
20
13.8134197683
11
-81.7635855636
21
19.6307358655
62
254
0
LINE
8
Modules
10
-81.7635855636
20
19.6307358655
11
-85.0087474471
21
20.6415707105
62
254
0
LINE
8
Modules
10
-84.8056969546
20
16.9579094480
11
-84.0225980445
21
16.7139821206
62
254
0
LINE
8
Modules
10
-84.0225980445
20
16.7139821206
11
-83.7786707171
21
17.4970810308
62
254
0
LINE
8
Modules
10
-83.7786707171
20
17.4970810308
11
-84.5617696272
21
17.7410083582
62
254
0
LINE
8
Modules
10
-84.5617696272
20
17.7410083582
11
-84.8056969546
21
16.9579094480
62
254
0
LINE
8
Modules
10
-84.8056969546
20
16.9579094480
11
-83.7786707171
21
17.4970810308
62
254
0
TEXT
8
Modules
100
AcDbText
10
-84.6074760770
20
17.4287951327
1
DC
7
NewTextStyle_4
40
0.2624672000000003
50
-17.30127906798755
0
TEXT
8
Modules
100
AcDbText
10
-84.4778217509
20
16.9073244517
1
DC
7
NewTextStyle_4
40
0.2624672000000003
50
-17.30127906798755
0
LINE
8
Modules
10
-81.7240780344
20
19.6189506820
11
-83.5361126954
21
13.8016345848
62
254
0
LINE
8
Modules
10
-83.5361126954
20
13.8016345848
11
-80.2909508118
21
12.7907997399
62
254
0
LINE
8
Modules
10
-80.2909508118
20
12.7907997399
11
-78.4789161508
21
18.6081158370
62
254
0
LINE
8
Modules
10
-78.4789161508
20
18.6081158370
11
-81.7240780344
21
19.6189506820
62
254
0
LINE
8
Modules
10
-81.5210275419
20
15.9352894196
11
-80.7379286317
21
15.6913620922
62
254
0
LINE
8
Modules
10
-80.7379286317
20
15.6913620922
11
-80.4940013043
21
16.4744610023
62
254
0
LINE
8
Modules
10
-80.4940013043
20
16.4744610023
11
-81.2771002145
21
16.7183883297
62
254
0
LINE
8
Modules
10
-81.2771002145
20
16.7183883297
11
-81.5210275419
21
15.9352894196
62
254
0
LINE
8
Modules
10
-81.5210275419
20
15.9352894196
11
-80.4940013043
21
16.4744610023
62
254
0
TEXT
8
Modules
100
AcDbText
10
-81.3228066643
20
16.4061751042
1
DC
7
NewTextStyle_4
40
0.2624672000000003
50
-17.30127906798755
0
TEXT
8
Modules
100
AcDbText
10
-81.1931523382
20
15.8847044232
1
DC
7
NewTextStyle_4
40
0.2624672000000003
50
-17.30127906798755
0
LINE
8
Modules
10
-78.4394086257
20
18.5963306562
11
-80.2514432867
21
12.7790145590
62
254
0
LINE
8
Modules
10
-80.2514432867
20
12.7790145590
11
-77.0062814032
21
11.7681797140
62
254
0
LINE
8
Modules
10
-77.0062814032
20
11.7681797140
11
-75.1942467422
21
17.5854958112
62
254
0
LINE
8
Modules
10
-75.1942467422
20
17.5854958112
11
-78.4394086257
21
18.5963306562
62
254
0
LINE
8
Modules
10
-78.2363581332
20
14.9126693937
11
-77.4532592231
21
14.6687420663
62
254
0
LINE
8
Modules
10
-77.4532592231
20
14.6687420663
11
-77.2093318957
21
15.4518409765
62
254
0
LINE
8
Modules
10
-77.2093318957
20
15.4518409765
11
-77.9924308058
21
15.6957683038
62
254
0
LINE
8
Modules
10
-77.9924308058
20
15.6957683038
11
-78.2363581332
21
14.9126693937
62
254
0
LINE
8
Modules
10
-78.2363581332
20
14.9126693937
11
-77.2093318957
21
15.4518409765
62
254
0
TEXT
8
Modules
100
AcDbText
10
-78.0381372556
20
15.3835550783
1
DC
7
NewTextStyle_4
40
0.2624672000000003
50
-17.30127906798755
0
TEXT
8
Modules
100
AcDbText
10
-77.9084829295
20
14.8620843974
1
DC
7
NewTextStyle_4
40
0.2624672000000003
50
-17.30127906798755
0
LINE
8
Modules
10
-75.1547392170
20
17.5700584130
11
-76.9667738780
21
11.7527423158
62
254
0
LINE
8
Modules
10
-76.9667738780
20
11.7527423158
11
-73.7216119945
21
10.7419074709
62
254
0
LINE
8
Modules
10
-73.7216119945
20
10.7419074709
11
-71.9095773335
21
16.5592235680
62
254
0
LINE
8
Modules
10
-71.9095773335
20
16.5592235680
11
-75.1547392170
21
17.5700584130
62
254
0
LINE
8
Modules
10
-74.9516887246
20
13.8863971506
11
-74.1685898144
21
13.6424698232
62
254
0
LINE
8
Modules
10
-74.1685898144
20
13.6424698232
11
-73.9246624870
21
14.4255687333
62
254
0
LINE
8
Modules
10
-73.9246624870
20
14.4255687333
11
-74.7077613972
21
14.6694960607
62
254
0
LINE
8
Modules
10
-74.7077613972
20
14.6694960607
11
-74.9516887246
21
13.8863971506
62
254
0
LINE
8
Modules
10
-74.9516887246
20
13.8863971506
11
-73.9246624870
21
14.4255687333
62
254
0
TEXT
8
Modules
100
AcDbText
10
-74.7534678470
20
14.3572828352
1
DC
7
NewTextStyle_4
40
0.2624672000000003
50
-17.30127906798755
0
TEXT
8
Modules
100
AcDbText
10
-74.6238135209
20
13.8358121542
1
DC
7
NewTextStyle_4
40
0.2624672000000003
50
-17.30127906798755
0
LINE
8
Modules
10
-71.8700698084
20
16.5474383872
11
-73.6821044694
21
10.7301222900
62
254
0
LINE
8
Modules
10
-73.6821044694
20
10.7301222900
11
-70.4369425859
21
9.7192874450
62
254
0
LINE
8
Modules
10
-70.4369425859
20
9.7192874450
11
-68.6249079249
21
15.5366035422
62
254
0
LINE
8
Modules
10
-68.6249079249
20
15.5366035422
11
-71.8700698084
21
16.5474383872
62
254
0
LINE
8
Modules
10
-71.6670193159
20
12.8637771247
11
-70.8839204058
21
12.6198497973
62
254
0
LINE
8
Modules
10
-70.8839204058
20
12.6198497973
11
-70.6399930784
21
13.4029487074
62
254
0
LINE
8
Modules
10
-70.6399930784
20
13.4029487074
11
-71.4230919885
21
13.6468760348
62
254
0
LINE
8
Modules
10
-71.4230919885
20
13.6468760348
11
-71.6670193159
21
12.8637771247
62
254
0
LINE
8
Modules
10
-71.6670193159
20
12.8637771247
11
-70.6399930784
21
13.4029487074
62
254
0
TEXT
8
Modules
100
AcDbText
10
-71.4687984383
20
13.3346628093
1
DC
7
NewTextStyle_4
40
0.2624672000000003
50
-17.30127906798755
0
TEXT
8
Modules
100
AcDbText
10
-71.3391441122
20
12.8131921284
1
DC
7
NewTextStyle_4
40
0.2624672000000003
50
-17.30127906798755
0
LINE
8
Modules
10
-68.5854003957
20
15.5248183613
11
-70.3974350567
21
9.7075022641
62
254
0
LINE
8
Modules
10
-70.3974350567
20
9.7075022641
11
-67.1522731732
21
8.6966674191
62
254
0
LINE
8
Modules
10
-67.1522731732
20
8.6966674191
11
-65.3402385122
21
14.5139835163
62
254
0
LINE
8
Modules
10
-65.3402385122
20
14.5139835163
11
-68.5854003957
21
15.5248183613
62
254
0
LINE
8
Modules
10
-68.3823499032
20
11.8411570988
11
-67.5992509930
21
11.5972297715
62
254
0
LINE
8
Modules
10
-67.5992509930
20
11.5972297715
11
-67.3553236656
21
12.3803286816
62
254
0
LINE
8
Modules
10
-67.3553236656
20
12.3803286816
11
-68.1384225758
21
12.6242560090
62
254
0
LINE
8
Modules
10
-68.1384225758
20
12.6242560090
11
-68.3823499032
21
11.8411570988
62
254
0
LINE
8
Modules
10
-68.3823499032
20
11.8411570988
11
-67.3553236656
21
12.3803286816
62
254
0
TEXT
8
Modules
100
AcDbText
10
-68.1841290256
20
12.3120427835
1
DC
7
NewTextStyle_4
40
0.2624672000000003
50
-17.30127906798755
0
TEXT
8
Modules
100
AcDbText
10
-68.0544746995
20
11.7905721025
1
DC
7
NewTextStyle_4
40
0.2624672000000003
50
-17.30127906798755
0
LINE
8
Modules
10
-65.2978647851
20
14.5021983328
11
-67.1098994461
21
8.6848822357
62
254
0
LINE
8
Modules
10
-67.1098994461
20
8.6848822357
11
-63.8647375626
21
7.6740473907
62
254
0
LINE
8
Modules
10
-63.8647375626
20
7.6740473907
11
-62.0527029016
21
13.4913634879
62
254
0
LINE
8
Modules
10
-62.0527029016
20
13.4913634879
11
-65.2978647851
21
14.5021983328
62
254
0
LINE
8
Modules
10
-65.0948142926
20
10.8185370704
11
-64.3117153825
21
10.5746097430
62
254
0
LINE
8
Modules
10
-64.3117153825
20
10.5746097430
11
-64.0677880551
21
11.3577086531
62
254
0
LINE
8
Modules
10
-64.0677880551
20
11.3577086531
11
-64.8508869653
21
11.6016359805
62
254
0
LINE
8
Modules
10
-64.8508869653
20
11.6016359805
11
-65.0948142926
21
10.8185370704
62
254
0
LINE
8
Modules
10
-65.0948142926
20
10.8185370704
11
-64.0677880551
21
11.3577086531
62
254
0
TEXT
8
Modules
100
AcDbText
10
-64.8965934151
20
11.2894227550
1
DC
7
NewTextStyle_4
40
0.2624672000000003
50
-17.30127906798755
0
TEXT
8
Modules
100
AcDbText
10
-64.7669390889
20
10.7679520740
1
DC
7
NewTextStyle_4
40
0.2624672000000003
50
-17.30127906798755
0
LINE
8
Modules
10
-62.0131953724
20
13.4795783070
11
-63.8252300334
21
7.6622622098
62
254
0
LINE
8
Modules
10
-63.8252300334
20
7.6622622098
11
-60.5800681499
21
6.6514273648
62
254
0
LINE
8
Modules
10
-60.5800681499
20
6.6514273648
11
-58.7680334889
21
12.4687434620
62
254
0
LINE
8
Modules
10
-58.7680334889
20
12.4687434620
11
-62.0131953724
21
13.4795783070
62
254
0
LINE
8
Modules
10
-61.8101448799
20
9.7959170445
11
-61.0270459698
21
9.5519897171
62
254
0
LINE
8
Modules
10
-61.0270459698
20
9.5519897171
11
-60.7831186424
21
10.3350886273
62
254
0
LINE
8
Modules
10
-60.7831186424
20
10.3350886273
11
-61.5662175525
21
10.5790159547
62
254
0
LINE
8
Modules
10
-61.5662175525
20
10.5790159547
11
-61.8101448799
21
9.7959170445
62
254
0
LINE
8
Modules
10
-61.8101448799
20
9.7959170445
11
-60.7831186424
21
10.3350886273
62
254
0
TEXT
8
Modules
100
AcDbText
10
-61.6119240023
20
10.2668027292
1
DC
7
NewTextStyle_4
40
0.2624672000000003
50
-17.30127906798755
0
TEXT
8
Modules
100
AcDbText
10
-61.4822696762
20
9.7453320482
1
DC
7
NewTextStyle_4
40
0.2624672000000003
50
-17.30127906798755
0
LINE
8
Modules
10
-58.7285259638
20
12.4569582811
11
-60.5405606248
21
6.6396421839
62
254
0
LINE
8
Modules
10
-60.5405606248
20
6.6396421839
11
-57.2953987412
21
5.6288073390
62
254
0
LINE
8
Modules
10
-57.2953987412
20
5.6288073390
11
-55.4833640802
21
11.4461234361
62
254
0
LINE
8
Modules
10
-55.4833640802
20
11.4461234361
11
-58.7285259638
21
12.4569582811
62
254
0
LINE
8
Modules
10
-58.5254754713
20
8.7732970187
11
-57.7423765611
21
8.5293696913
62
254
0
LINE
8
Modules
10
-57.7423765611
20
8.5293696913
11
-57.4984492337
21
9.3124686014
62
254
0
LINE
8
Modules
10
-57.4984492337
20
9.3124686014
11
-58.2815481439
21
9.5563959288
62
254
0
LINE
8
Modules
10
-58.2815481439
20
9.5563959288
11
-58.5254754713
21
8.7732970187
62
254
0
LINE
8
Modules
10
-58.5254754713
20
8.7732970187
11
-57.4984492337
21
9.3124686014
62
254
0
TEXT
8
Modules
100
AcDbText
10
-58.3272545937
20
9.2441827033
1
DC
7
NewTextStyle_4
40
0.2624672000000003
50
-17.30127906798755
0
TEXT
8
Modules
100
AcDbText
10
-58.1976002676
20
8.7227120223
1
DC
7
NewTextStyle_4
40
0.2624672000000003
50
-17.30127906798755
0
LINE
8
Modules
10
-55.4438565551
20
11.4306860380
11
-57.2558912161
21
5.6133699408
62
254
0
LINE
8
Modules
10
-57.2558912161
20
5.6133699408
11
-54.0107293326
21
4.6025350958
62
254
0
LINE
8
Modules
10
-54.0107293326
20
4.6025350958
11
-52.1986946716
21
10.4198511930
62
254
0
LINE
8
Modules
10
-52.1986946716
20
10.4198511930
11
-55.4438565551
21
11.4306860380
62
254
0
LINE
8
Modules
10
-55.2408060626
20
7.7470247755
11
-54.4577071525
21
7.5030974481
62
254
0
LINE
8
Modules
10
-54.4577071525
20
7.5030974481
11
-54.2137798251
21
8.2861963583
62
254
0
LINE
8
Modules
10
-54.2137798251
20
8.2861963583
11
-54.9968787352
21
8.5301236856
62
254
0
LINE
8
Modules
10
-54.9968787352
20
8.5301236856
11
-55.2408060626
21
7.7470247755
62
254
0
LINE
8
Modules
10
-55.2408060626
20
7.7470247755
11
-54.2137798251
21
8.2861963583
62
254
0
TEXT
8
Modules
100
AcDbText
10
-55.0425851850
20
8.2179104602
1
DC
7
NewTextStyle_4
40
0.2624672000000003
50
-17.30127906798755
0
TEXT
8
Modules
100
AcDbText
10
-54.9129308589
20
7.6964397792
1
DC
7
NewTextStyle_4
40
0.2624672000000003
50
-17.30127906798755
0
LINE
8
Modules
10
-89.7551807280
20
28.5449626325
11
-91.5672153889
21
22.7276465354
62
254
0
LINE
8
Modules
10
-91.5672153889
20
22.7276465354
11
-88.3220535054
21
21.7168116904
62
254
0
LINE
8
Modules
10
-88.3220535054
20
21.7168116904
11
-86.5100188444
21
27.5341277876
62
254
0
LINE
8
Modules
10
-86.5100188444
20
27.5341277876
11
-89.7551807280
21
28.5449626325
62
254
0
LINE
8
Modules
10
-89.5521302355
20
24.8613013701
11
-88.7690313253
21
24.6173740427
62
254
0
LINE
8
Modules
10
-88.7690313253
20
24.6173740427
11
-88.5251039979
21
25.4004729528
62
254
0
LINE
8
Modules
10
-88.5251039979
20
25.4004729528
11
-89.3082029081
21
25.6444002802
62
254
0
LINE
8
Modules
10
-89.3082029081
20
25.6444002802
11
-89.5521302355
21
24.8613013701
62
254
0
LINE
8
Modules
10
-89.5521302355
20
24.8613013701
11
-88.5251039979
21
25.4004729528
62
254
0
TEXT
8
Modules
100
AcDbText
10
-89.3539093579
20
25.3321870547
1
DC
7
NewTextStyle_4
40
0.2624672000000003
50
-17.30127906798755
0
TEXT
8
Modules
100
AcDbText
10
-89.2242550318
20
24.8107163737
1
DC
7
NewTextStyle_4
40
0.2624672000000003
50
-17.30127906798755
0
LINE
8
Modules
10
-86.4705113193
20
27.5186903894
11
-88.2825459803
21
21.7013742922
62
254
0
LINE
8
Modules
10
-88.2825459803
20
21.7013742922
11
-85.0373840968
21
20.6905394473
62
254
0
LINE
8
Modules
10
-85.0373840968
20
20.6905394473
11
-83.2253494358
21
26.5078555444
62
254
0
LINE
8
Modules
10
-83.2253494358
20
26.5078555444
11
-86.4705113193
21
27.5186903894
62
254
0
LINE
8
Modules
10
-86.2674608268
20
23.8350291270
11
-85.4843619167
21
23.5911017996
62
254
0
LINE
8
Modules
10
-85.4843619167
20
23.5911017996
11
-85.2404345893
21
24.3742007097
62
254
0
LINE
8
Modules
10
-85.2404345893
20
24.3742007097
11
-86.0235334994
21
24.6181280371
62
254
0
LINE
8
Modules
10
-86.0235334994
20
24.6181280371
11
-86.2674608268
21
23.8350291270
62
254
0
LINE
8
Modules
10
-86.2674608268
20
23.8350291270
11
-85.2404345893
21
24.3742007097
62
254
0
TEXT
8
Modules
100
AcDbText
10
-86.0692399492
20
24.3059148116
1
DC
7
NewTextStyle_4
40
0.2624672000000003
50
-17.30127906798755
0
TEXT
8
Modules
100
AcDbText
10
-85.9395856231
20
23.7844441306
1
DC
7
NewTextStyle_4
40
0.2624672000000003
50
-17.30127906798755
0
LINE
8
Modules
10
-83.1858419106
20
26.4960703635
11
-84.9978765716
21
20.6787542664
62
254
0
LINE
8
Modules
10
-84.9978765716
20
20.6787542664
11
-81.7527146881
21
19.6679194214
62
254
0
LINE
8
Modules
10
-81.7527146881
20
19.6679194214
11
-79.9406800271
21
25.4852355186
62
254
0
LINE
8
Modules
10
-79.9406800271
20
25.4852355186
11
-83.1858419106
21
26.4960703635
62
254
0
LINE
8
Modules
10
-82.9827914181
20
22.8124091011
11
-82.1996925080
21
22.5684817737
62
254
0
LINE
8
Modules
10
-82.1996925080
20
22.5684817737
11
-81.9557651806
21
23.3515806838
62
254
0
LINE
8
Modules
10
-81.9557651806
20
23.3515806838
11
-82.7388640908
21
23.5955080112
62
254
0
LINE
8
Modules
10
-82.7388640908
20
23.5955080112
11
-82.9827914181
21
22.8124091011
62
254
0
LINE
8
Modules
10
-82.9827914181
20
22.8124091011
11
-81.9557651806
21
23.3515806838
62
254
0
TEXT
8
Modules
100
AcDbText
10
-82.7845705406
20
23.2832947857
1
DC
7
NewTextStyle_4
40
0.2624672000000003
50
-17.30127906798755
0
TEXT
8
Modules
100
AcDbText
10
-82.6549162144
20
22.7618241047
1
DC
7
NewTextStyle_4
40
0.2624672000000003
50
-17.30127906798755
0
LINE
8
Modules
10
-79.9011724979
20
25.4734503377
11
-81.7132071589
21
19.6561342405
62
254
0
LINE
8
Modules
10
-81.7132071589
20
19.6561342405
11
-78.4680452754
21
18.6452993955
62
254
0
LINE
8
Modules
10
-78.4680452754
20
18.6452993955
11
-76.6560106144
21
24.4626154927
62
254
0
LINE
8
Modules
10
-76.6560106144
20
24.4626154927
11
-79.9011724979
21
25.4734503377
62
254
0
LINE
8
Modules
10
-79.6981220054
20
21.7897890752
11
-78.9150230953
21
21.5458617478
62
254
0
LINE
8
Modules
10
-78.9150230953
20
21.5458617478
11
-78.6710957679
21
22.3289606580
62
254
0
LINE
8
Modules
10
-78.6710957679
20
22.3289606580
11
-79.4541946780
21
22.5728879854
62
254
0
LINE
8
Modules
10
-79.4541946780
20
22.5728879854
11
-79.6981220054
21
21.7897890752
62
254
0
LINE
8
Modules
10
-79.6981220054
20
21.7897890752
11
-78.6710957679
21
22.3289606580
62
254
0
TEXT
8
Modules
100
AcDbText
10
-79.4999011278
20
22.2606747599
1
DC
7
NewTextStyle_4
40
0.2624672000000003
50
-17.30127906798755
0
TEXT
8
Modules
100
AcDbText
10
-79.3702468017
20
21.7392040789
1
DC
7
NewTextStyle_4
40
0.2624672000000003
50
-17.30127906798755
0
LINE
8
Modules
10
-76.6136368874
20
24.4508303092
11
-78.4256715484
21
18.6335142120
62
254
0
LINE
8
Modules
10
-78.4256715484
20
18.6335142120
11
-75.1805096649
21
17.6226793671
62
254
0
LINE
8
Modules
10
-75.1805096649
20
17.6226793671
11
-73.3684750039
21
23.4399954642
62
254
0
LINE
8
Modules
10
-73.3684750039
20
23.4399954642
11
-76.6136368874
21
24.4508303092
62
254
0
LINE
8
Modules
10
-76.4105863949
20
20.7671690468
11
-75.6274874848
21
20.5232417194
62
254
0
LINE
8
Modules
10
-75.6274874848
20
20.5232417194
11
-75.3835601574
21
21.3063406295
62
254
0
LINE
8
Modules
10
-75.3835601574
20
21.3063406295
11
-76.1666590675
21
21.5502679569
62
254
0
LINE
8
Modules
10
-76.1666590675
20
21.5502679569
11
-76.4105863949
21
20.7671690468
62
254
0
LINE
8
Modules
10
-76.4105863949
20
20.7671690468
11
-75.3835601574
21
21.3063406295
62
254
0
TEXT
8
Modules
100
AcDbText
10
-76.2123655173
20
21.2380547314
1
DC
7
NewTextStyle_4
40
0.2624672000000003
50
-17.30127906798755
0
TEXT
8
Modules
100
AcDbText
10
-76.0827111912
20
20.7165840504
1
DC
7
NewTextStyle_4
40
0.2624672000000003
50
-17.30127906798755
0
LINE
8
Modules
10
-73.3289674747
20
23.4282102834
11
-75.1410021357
21
17.6108941862
62
254
0
LINE
8
Modules
10
-75.1410021357
20
17.6108941862
11
-71.8958402521
21
16.6000593412
62
254
0
LINE
8
Modules
10
-71.8958402521
20
16.6000593412
11
-70.0838055912
21
22.4173754384
62
254
0
LINE
8
Modules
10
-70.0838055912
20
22.4173754384
11
-73.3289674747
21
23.4282102834
62
254
0
LINE
8
Modules
10
-73.1259169822
20
19.7445490209
11
-72.3428180720
21
19.5006216935
62
254
0
LINE
8
Modules
10
-72.3428180720
20
19.5006216935
11
-72.0988907446
21
20.2837206037
62
254
0
LINE
8
Modules
10
-72.0988907446
20
20.2837206037
11
-72.8819896548
21
20.5276479310
62
254
0
LINE
8
Modules
10
-72.8819896548
20
20.5276479310
11
-73.1259169822
21
19.7445490209
62
254
0
LINE
8
Modules
10
-73.1259169822
20
19.7445490209
11
-72.0988907446
21
20.2837206037
62
254
0
TEXT
8
Modules
100
AcDbText
10
-72.9276961046
20
20.2154347055
1
DC
7
NewTextStyle_4
40
0.2624672000000003
50
-17.30127906798755
0
TEXT
8
Modules
100
AcDbText
10
-72.7980417785
20
19.6939640246
1
DC
7
NewTextStyle_4
40
0.2624672000000003
50
-17.30127906798755
0
LINE
8
Modules
10
-70.0442980660
20
22.4055902549
11
-71.8563327270
21
16.5882741577
62
254
0
LINE
8
Modules
10
-71.8563327270
20
16.5882741577
11
-68.6111708435
21
15.5774393127
62
254
0
LINE
8
Modules
10
-68.6111708435
20
15.5774393127
11
-66.7991361825
21
21.3947554099
62
254
0
LINE
8
Modules
10
-66.7991361825
20
21.3947554099
11
-70.0442980660
21
22.4055902549
62
254
0
LINE
8
Modules
10
-69.8412475735
20
18.7219289924
11
-69.0581486634
21
18.4780016651
62
254
0
LINE
8
Modules
10
-69.0581486634
20
18.4780016651
11
-68.8142213360
21
19.2611005752
62
254
0
LINE
8
Modules
10
-68.8142213360
20
19.2611005752
11
-69.5973202461
21
19.5050279026
62
254
0
LINE
8
Modules
10
-69.5973202461
20
19.5050279026
11
-69.8412475735
21
18.7219289924
62
254
0
LINE
8
Modules
10
-69.8412475735
20
18.7219289924
11
-68.8142213360
21
19.2611005752
62
254
0
TEXT
8
Modules
100
AcDbText
10
-69.6430266959
20
19.1928146771
1
DC
7
NewTextStyle_4
40
0.2624672000000003
50
-17.30127906798755
0
TEXT
8
Modules
100
AcDbText
10
-69.5133723698
20
18.6713439961
1
DC
7
NewTextStyle_4
40
0.2624672000000003
50
-17.30127906798755
0
LINE
8
Modules
10
-66.7596286574
20
21.3793180143
11
-68.5716633184
21
15.5620019172
62
254
0
LINE
8
Modules
10
-68.5716633184
20
15.5620019172
11
-65.3265014348
21
14.5511670722
62
254
0
LINE
8
Modules
10
-65.3265014348
20
14.5511670722
11
-63.5144667738
21
20.3684831694
62
254
0
LINE
8
Modules
10
-63.5144667738
20
20.3684831694
11
-66.7596286574
21
21.3793180143
62
254
0
LINE
8
Modules
10
-66.5565781649
20
17.6956567519
11
-65.7734792547
21
17.4517294245
62
254
0
LINE
8
Modules
10
-65.7734792547
20
17.4517294245
11
-65.5295519273
21
18.2348283346
62
254
0
LINE
8
Modules
10
-65.5295519273
20
18.2348283346
11
-66.3126508375
21
18.4787556620
62
254
0
LINE
8
Modules
10
-66.3126508375
20
18.4787556620
11
-66.5565781649
21
17.6956567519
62
254
0
LINE
8
Modules
10
-66.5565781649
20
17.6956567519
11
-65.5295519273
21
18.2348283346
62
254
0
TEXT
8
Modules
100
AcDbText
10
-66.3583572873
20
18.1665424365
1
DC
7
NewTextStyle_4
40
0.2624672000000003
50
-17.30127906798755
0
TEXT
8
Modules
100
AcDbText
10
-66.2287029612
20
17.6450717556
1
DC
7
NewTextStyle_4
40
0.2624672000000003
50
-17.30127906798755
0
LINE
8
Modules
10
-63.4749592487
20
20.3566979885
11
-65.2869939097
21
14.5393818913
62
254
0
LINE
8
Modules
10
-65.2869939097
20
14.5393818913
11
-62.0418320262
21
13.5285470463
62
254
0
LINE
8
Modules
10
-62.0418320262
20
13.5285470463
11
-60.2297973652
21
19.3458631435
62
254
0
LINE
8
Modules
10
-60.2297973652
20
19.3458631435
11
-63.4749592487
21
20.3566979885
62
254
0
LINE
8
Modules
10
-63.2719087562
20
16.6730367260
11
-62.4888098461
21
16.4291093986
62
254
0
LINE
8
Modules
10
-62.4888098461
20
16.4291093986
11
-62.2448825187
21
17.2122083088
62
254
0
LINE
8
Modules
10
-62.2448825187
20
17.2122083088
11
-63.0279814288
21
17.4561356362
62
254
0
LINE
8
Modules
10
-63.0279814288
20
17.4561356362
11
-63.2719087562
21
16.6730367260
62
254
0
LINE
8
Modules
10
-63.2719087562
20
16.6730367260
11
-62.2448825187
21
17.2122083088
62
254
0
TEXT
8
Modules
100
AcDbText
10
-63.0736878786
20
17.1439224107
1
DC
7
NewTextStyle_4
40
0.2624672000000003
50
-17.30127906798755
0
TEXT
8
Modules
100
AcDbText
10
-62.9440335525
20
16.6224517297
1
DC
7
NewTextStyle_4
40
0.2624672000000003
50
-17.30127906798755
0
LINE
8
Modules
10
-60.1902898360
20
19.3340779600
11
-62.0023244970
21
13.5167618628
62
254
0
LINE
8
Modules
10
-62.0023244970
20
13.5167618628
11
-58.7571626135
21
12.5059270179
62
254
0
LINE
8
Modules
10
-58.7571626135
20
12.5059270179
11
-56.9451279525
21
18.3232431151
62
254
0
LINE
8
Modules
10
-56.9451279525
20
18.3232431151
11
-60.1902898360
21
19.3340779600
62
254
0
LINE
8
Modules
10
-59.9872393435
20
15.6504166976
11
-59.2041404333
21
15.4064893702
62
254
0
LINE
8
Modules
10
-59.2041404333
20
15.4064893702
11
-58.9602131060
21
16.1895882803
62
254
0
LINE
8
Modules
10
-58.9602131060
20
16.1895882803
11
-59.7433120161
21
16.4335156077
62
254
0
LINE
8
Modules
10
-59.7433120161
20
16.4335156077
11
-59.9872393435
21
15.6504166976
62
254
0
LINE
8
Modules
10
-59.9872393435
20
15.6504166976
11
-58.9602131060
21
16.1895882803
62
254
0
TEXT
8
Modules
100
AcDbText
10
-59.7890184659
20
16.1213023822
1
DC
7
NewTextStyle_4
40
0.2624672000000003
50
-17.30127906798755
0
TEXT
8
Modules
100
AcDbText
10
-59.6593641398
20
15.5998317012
1
DC
7
NewTextStyle_4
40
0.2624672000000003
50
-17.30127906798755
0
LINE
8
Modules
10
-56.9056204273
20
18.3114579342
11
-58.7176550883
21
12.4941418370
62
254
0
LINE
8
Modules
10
-58.7176550883
20
12.4941418370
11
-55.4724932048
21
11.4833069920
62
254
0
LINE
8
Modules
10
-55.4724932048
20
11.4833069920
11
-53.6604585438
21
17.3006230892
62
254
0
LINE
8
Modules
10
-53.6604585438
20
17.3006230892
11
-56.9056204273
21
18.3114579342
62
254
0
LINE
8
Modules
10
-56.7025699348
20
14.6277966717
11
-55.9194710247
21
14.3838693443
62
254
0
LINE
8
Modules
10
-55.9194710247
20
14.3838693443
11
-55.6755436973
21
15.1669682545
62
254
0
LINE
8
Modules
10
-55.6755436973
20
15.1669682545
11
-56.4586426074
21
15.4108955819
62
254
0
LINE
8
Modules
10
-56.4586426074
20
15.4108955819
11
-56.7025699348
21
14.6277966717
62
254
0
LINE
8
Modules
10
-56.7025699348
20
14.6277966717
11
-55.6755436973
21
15.1669682545
62
254
0
TEXT
8
Modules
100
AcDbText
10
-56.5043490572
20
15.0986823564
1
DC
7
NewTextStyle_4
40
0.2624672000000003
50
-17.30127906798755
0
TEXT
8
Modules
100
AcDbText
10
-56.3746947311
20
14.5772116754
1
DC
7
NewTextStyle_4
40
0.2624672000000003
50
-17.30127906798755
0
LINE
8
Modules
10
-53.6209510187
20
17.2888379057
11
-55.4329856797
21
11.4715218085
62
254
0
LINE
8
Modules
10
-55.4329856797
20
11.4715218085
11
-52.1878237962
21
10.4606869636
62
254
0
LINE
8
Modules
10
-52.1878237962
20
10.4606869636
11
-50.3757891352
21
16.2780030607
62
254
0
LINE
8
Modules
10
-50.3757891352
20
16.2780030607
11
-53.6209510187
21
17.2888379057
62
254
0
LINE
8
Modules
10
-53.4179005262
20
13.6051766433
11
-52.6348016160
21
13.3612493159
62
254
0
LINE
8
Modules
10
-52.6348016160
20
13.3612493159
11
-52.3908742886
21
14.1443482260
62
254
0
LINE
8
Modules
10
-52.3908742886
20
14.1443482260
11
-53.1739731988
21
14.3882755534
62
254
0
LINE
8
Modules
10
-53.1739731988
20
14.3882755534
11
-53.4179005262
21
13.6051766433
62
254
0
LINE
8
Modules
10
-53.4179005262
20
13.6051766433
11
-52.3908742886
21
14.1443482260
62
254
0
TEXT
8
Modules
100
AcDbText
10
-53.2196796486
20
14.0760623279
1
DC
7
NewTextStyle_4
40
0.2624672000000003
50
-17.30127906798755
0
TEXT
8
Modules
100
AcDbText
10
-53.0900253225
20
13.5545916469
1
DC
7
NewTextStyle_4
40
0.2624672000000003
50
-17.30127906798755
0
LINE
8
Modules
10
-87.9294089896
20
34.3994622856
11
-89.7414436506
21
28.5821461884
62
254
0
LINE
8
Modules
10
-89.7414436506
20
28.5821461884
11
-86.4962817671
21
27.5713113435
62
254
0
LINE
8
Modules
10
-86.4962817671
20
27.5713113435
11
-84.6842471061
21
33.3886274406
62
254
0
LINE
8
Modules
10
-84.6842471061
20
33.3886274406
11
-87.9294089896
21
34.3994622856
62
254
0
LINE
8
Modules
10
-87.7263584971
20
30.7158010232
11
-86.9432595870
21
30.4718736958
62
254
0
LINE
8
Modules
10
-86.9432595870
20
30.4718736958
11
-86.6993322596
21
31.2549726059
62
254
0
LINE
8
Modules
10
-86.6993322596
20
31.2549726059
11
-87.4824311698
21
31.4988999333
62
254
0
LINE
8
Modules
10
-87.4824311698
20
31.4988999333
11
-87.7263584971
21
30.7158010232
62
254
0
LINE
8
Modules
10
-87.7263584971
20
30.7158010232
11
-86.6993322596
21
31.2549726059
62
254
0
TEXT
8
Modules
100
AcDbText
10
-87.5281376196
20
31.1866867078
1
DC
7
NewTextStyle_4
40
0.2624672000000003
50
-17.30127906798755
0
TEXT
8
Modules
100
AcDbText
10
-87.3984832934
20
30.6652160268
1
DC
7
NewTextStyle_4
40
0.2624672000000003
50
-17.30127906798755
0
LINE
8
Modules
10
-84.6447395810
20
33.3768422597
11
-86.4567742420
21
27.5595261626
62
254
0
LINE
8
Modules
10
-86.4567742420
20
27.5595261626
11
-83.2116123585
21
26.5486913176
62
254
0
LINE
8
Modules
10
-83.2116123585
20
26.5486913176
11
-81.3995776975
21
32.3660074148
62
254
0
LINE
8
Modules
10
-81.3995776975
20
32.3660074148
11
-84.6447395810
21
33.3768422597
62
254
0
LINE
8
Modules
10
-84.4416890885
20
29.6931809973
11
-83.6585901784
21
29.4492536699
62
254
0
LINE
8
Modules
10
-83.6585901784
20
29.4492536699
11
-83.4146628510
21
30.2323525800
62
254
0
LINE
8
Modules
10
-83.4146628510
20
30.2323525800
11
-84.1977617611
21
30.4762799074
62
254
0
LINE
8
Modules
10
-84.1977617611
20
30.4762799074
11
-84.4416890885
21
29.6931809973
62
254
0
LINE
8
Modules
10
-84.4416890885
20
29.6931809973
11
-83.4146628510
21
30.2323525800
62
254
0
TEXT
8
Modules
100
AcDbText
10
-84.2434682109
20
30.1640666819
1
DC
7
NewTextStyle_4
40
0.2624672000000003
50
-17.30127906798755
0
TEXT
8
Modules
100
AcDbText
10
-84.1138138848
20
29.6425960009
1
DC
7
NewTextStyle_4
40
0.2624672000000003
50
-17.30127906798755
0
LINE
8
Modules
10
-81.3600701683
20
32.3542222313
11
-83.1721048293
21
26.5369061341
62
254
0
LINE
8
Modules
10
-83.1721048293
20
26.5369061341
11
-79.9269429457
21
25.5260712891
62
254
0
LINE
8
Modules
10
-79.9269429457
20
25.5260712891
11
-78.1149082847
21
31.3433873863
62
254
0
LINE
8
Modules
10
-78.1149082847
20
31.3433873863
11
-81.3600701683
21
32.3542222313
62
254
0
LINE
8
Modules
10
-81.1570196758
20
28.6705609688
11
-80.3739207656
21
28.4266336414
62
254
0
LINE
8
Modules
10
-80.3739207656
20
28.4266336414
11
-80.1299934382
21
29.2097325516
62
254
0
LINE
8
Modules
10
-80.1299934382
20
29.2097325516
11
-80.9130923484
21
29.4536598790
62
254
0
LINE
8
Modules
10
-80.9130923484
20
29.4536598790
11
-81.1570196758
21
28.6705609688
62
254
0
LINE
8
Modules
10
-81.1570196758
20
28.6705609688
11
-80.1299934382
21
29.2097325516
62
254
0
TEXT
8
Modules
100
AcDbText
10
-80.9587987982
20
29.1414466535
1
DC
7
NewTextStyle_4
40
0.2624672000000003
50
-17.30127906798755
0
TEXT
8
Modules
100
AcDbText
10
-80.8291444721
20
28.6199759725
1
DC
7
NewTextStyle_4
40
0.2624672000000003
50
-17.30127906798755
0
LINE
8
Modules
10
-78.0754007596
20
31.3316022054
11
-79.8874354206
21
25.5142861082
62
254
0
LINE
8
Modules
10
-79.8874354206
20
25.5142861082
11
-76.6422735371
21
24.5034512633
62
254
0
LINE
8
Modules
10
-76.6422735371
20
24.5034512633
11
-74.8302388761
21
30.3207673604
62
254
0
LINE
8
Modules
10
-74.8302388761
20
30.3207673604
11
-78.0754007596
21
31.3316022054
62
254
0
LINE
8
Modules
10
-77.8723502671
20
27.6479409430
11
-77.0892513570
21
27.4040136156
62
254
0
LINE
8
Modules
10
-77.0892513570
20
27.4040136156
11
-76.8453240296
21
28.1871125257
62
254
0
LINE
8
Modules
10
-76.8453240296
20
28.1871125257
11
-77.6284229397
21
28.4310398531
62
254
0
LINE
8
Modules
10
-77.6284229397
20
28.4310398531
11
-77.8723502671
21
27.6479409430
62
254
0
LINE
8
Modules
10
-77.8723502671
20
27.6479409430
11
-76.8453240296
21
28.1871125257
62
254
0
TEXT
8
Modules
100
AcDbText
10
-77.6741293895
20
28.1188266276
1
DC
7
NewTextStyle_4
40
0.2624672000000003
50
-17.30127906798755
0
TEXT
8
Modules
100
AcDbText
10
-77.5444750634
20
27.5973559466
1
DC
7
NewTextStyle_4
40
0.2624672000000003
50
-17.30127906798755
0
LINE
8
Modules
10
-74.7907313509
20
30.3053299623
11
-76.6027660119
21
24.4880138651
62
254
0
LINE
8
Modules
10
-76.6027660119
20
24.4880138651
11
-73.3576041284
21
23.4771790201
62
254
0
LINE
8
Modules
10
-73.3576041284
20
23.4771790201
11
-71.5455694674
21
29.2944951173
62
254
0
LINE
8
Modules
10
-71.5455694674
20
29.2944951173
11
-74.7907313509
21
30.3053299623
62
254
0
LINE
8
Modules
10
-74.5876808585
20
26.6216686998
11
-73.8045819483
21
26.3777413724
62
254
0
LINE
8
Modules
10
-73.8045819483
20
26.3777413724
11
-73.5606546209
21
27.1608402826
62
254
0
LINE
8
Modules
10
-73.5606546209
20
27.1608402826
11
-74.3437535311
21
27.4047676100
62
254
0
LINE
8
Modules
10
-74.3437535311
20
27.4047676100
11
-74.5876808585
21
26.6216686998
62
254
0
LINE
8
Modules
10
-74.5876808585
20
26.6216686998
11
-73.5606546209
21
27.1608402826
62
254
0
TEXT
8
Modules
100
AcDbText
10
-74.3894599809
20
27.0925543845
1
DC
7
NewTextStyle_4
40
0.2624672000000003
50
-17.30127906798755
0
TEXT
8
Modules
100
AcDbText
10
-74.2598056548
20
26.5710837035
1
DC
7
NewTextStyle_4
40
0.2624672000000003
50
-17.30127906798755
0
LINE
8
Modules
10
-71.5060619382
20
29.2827099364
11
-73.3180965992
21
23.4653938392
62
254
0
LINE
8
Modules
10
-73.3180965992
20
23.4653938392
11
-70.0729347157
21
22.4545589943
62
254
0
LINE
8
Modules
10
-70.0729347157
20
22.4545589943
11
-68.2609000547
21
28.2718750914
62
254
0
LINE
8
Modules
10
-68.2609000547
20
28.2718750914
11
-71.5060619382
21
29.2827099364
62
254
0
LINE
8
Modules
10
-71.3030114457
20
25.5990486740
11
-70.5199125356
21
25.3551213466
62
254
0
LINE
8
Modules
10
-70.5199125356
20
25.3551213466
11
-70.2759852082
21
26.1382202567
62
254
0
LINE
8
Modules
10
-70.2759852082
20
26.1382202567
11
-71.0590841183
21
26.3821475841
62
254
0
LINE
8
Modules
10
-71.0590841183
20
26.3821475841
11
-71.3030114457
21
25.5990486740
62
254
0
LINE
8
Modules
10
-71.3030114457
20
25.5990486740
11
-70.2759852082
21
26.1382202567
62
254
0
TEXT
8
Modules
100
AcDbText
10
-71.1047905681
20
26.0699343586
1
DC
7
NewTextStyle_4
40
0.2624672000000003
50
-17.30127906798755
0
TEXT
8
Modules
100
AcDbText
10
-70.9751362420
20
25.5484636776
1
DC
7
NewTextStyle_4
40
0.2624672000000003
50
-17.30127906798755
0
LINE
8
Modules
10
-68.2213925296
20
28.2600899106
11
-70.0334271906
21
22.4427738134
62
254
0
LINE
8
Modules
10
-70.0334271906
20
22.4427738134
11
-66.7882653071
21
21.4319389684
62
254
0
LINE
8
Modules
10
-66.7882653071
20
21.4319389684
11
-64.9762306461
21
27.2492550656
62
254
0
LINE
8
Modules
10
-64.9762306461
20
27.2492550656
11
-68.2213925296
21
28.2600899106
62
254
0
LINE
8
Modules
10
-68.0183420371
20
24.5764286481
11
-67.2352431269
21
24.3325013207
62
254
0
LINE
8
Modules
10
-67.2352431269
20
24.3325013207
11
-66.9913157996
21
25.1156002308
62
254
0
LINE
8
Modules
10
-66.9913157996
20
25.1156002308
11
-67.7744147097
21
25.3595275582
62
254
0
LINE
8
Modules
10
-67.7744147097
20
25.3595275582
11
-68.0183420371
21
24.5764286481
62
254
0
LINE
8
Modules
10
-68.0183420371
20
24.5764286481
11
-66.9913157996
21
25.1156002308
62
254
0
TEXT
8
Modules
100
AcDbText
10
-67.8201211595
20
25.0473143327
1
DC
7
NewTextStyle_4
40
0.2624672000000003
50
-17.30127906798755
0
TEXT
8
Modules
100
AcDbText
10
-67.6904668334
20
24.5258436518
1
DC
7
NewTextStyle_4
40
0.2624672000000003
50
-17.30127906798755
0
LINE
8
Modules
10
-64.9367231209
20
27.2374698821
11
-66.7487577819
21
21.4201537849
62
254
0
LINE
8
Modules
10
-66.7487577819
20
21.4201537849
11
-63.5035958984
21
20.4093189399
62
254
0
LINE
8
Modules
10
-63.5035958984
20
20.4093189399
11
-61.6915612374
21
26.2266350371
62
254
0
LINE
8
Modules
10
-61.6915612374
20
26.2266350371
11
-64.9367231209
21
27.2374698821
62
254
0
LINE
8
Modules
10
-64.7336726284
20
23.5538086196
11
-63.9505737183
21
23.3098812923
62
254
0
LINE
8
Modules
10
-63.9505737183
20
23.3098812923
11
-63.7066463909
21
24.0929802024
62
254
0
LINE
8
Modules
10
-63.7066463909
20
24.0929802024
11
-64.4897453010
21
24.3369075298
62
254
0
LINE
8
Modules
10
-64.4897453010
20
24.3369075298
11
-64.7336726284
21
23.5538086196
62
254
0
LINE
8
Modules
10
-64.7336726284
20
23.5538086196
11
-63.7066463909
21
24.0929802024
62
254
0
TEXT
8
Modules
100
AcDbText
10
-64.5354517508
20
24.0246943043
1
DC
7
NewTextStyle_4
40
0.2624672000000003
50
-17.30127906798755
0
TEXT
8
Modules
100
AcDbText
10
-64.4057974247
20
23.5032236233
1
DC
7
NewTextStyle_4
40
0.2624672000000003
50
-17.30127906798755
0
LINE
8
Modules
10
-61.6520537123
20
26.2148498562
11
-63.4640883733
21
20.3975337591
62
254
0
LINE
8
Modules
10
-63.4640883733
20
20.3975337591
11
-60.2189264897
21
19.3866989141
62
254
0
LINE
8
Modules
10
-60.2189264897
20
19.3866989141
11
-58.4068918288
21
25.2040150113
62
254
0
LINE
8
Modules
10
-58.4068918288
20
25.2040150113
11
-61.6520537123
21
26.2148498562
62
254
0
LINE
8
Modules
10
-61.4490032198
20
22.5311885938
11
-60.6659043096
21
22.2872612664
62
254
0
LINE
8
Modules
10
-60.6659043096
20
22.2872612664
11
-60.4219769822
21
23.0703601765
62
254
0
LINE
8
Modules
10
-60.4219769822
20
23.0703601765
11
-61.2050758924
21
23.3142875039
62
254
0
LINE
8
Modules
10
-61.2050758924
20
23.3142875039
11
-61.4490032198
21
22.5311885938
62
254
0
LINE
8
Modules
10
-61.4490032198
20
22.5311885938
11
-60.4219769822
21
23.0703601765
62
254
0
TEXT
8
Modules
100
AcDbText
10
-61.2507823422
20
23.0020742784
1
DC
7
NewTextStyle_4
40
0.2624672000000003
50
-17.30127906798755
0
TEXT
8
Modules
100
AcDbText
10
-61.1211280161
20
22.4806035974
1
DC
7
NewTextStyle_4
40
0.2624672000000003
50
-17.30127906798755
0
LINE
8
Modules
10
-58.3673842995
20
25.1922298278
11
-60.1794189605
21
19.3749137306
62
254
0
LINE
8
Modules
10
-60.1794189605
20
19.3749137306
11
-56.9342570770
21
18.3640788856
62
254
0
LINE
8
Modules
10
-56.9342570770
20
18.3640788856
11
-55.1222224160
21
24.1813949828
62
254
0
LINE
8
Modules
10
-55.1222224160
20
24.1813949828
11
-58.3673842995
21
25.1922298278
62
254
0
LINE
8
Modules
10
-58.1643338070
20
21.5085685653
11
-57.3812348969
21
21.2646412379
62
254
0
LINE
8
Modules
10
-57.3812348969
20
21.2646412379
11
-57.1373075695
21
22.0477401481
62
254
0
LINE
8
Modules
10
-57.1373075695
20
22.0477401481
11
-57.9204064797
21
22.2916674755
62
254
0
LINE
8
Modules
10
-57.9204064797
20
22.2916674755
11
-58.1643338070
21
21.5085685653
62
254
0
LINE
8
Modules
10
-58.1643338070
20
21.5085685653
11
-57.1373075695
21
22.0477401481
62
254
0
TEXT
8
Modules
100
AcDbText
10
-57.9661129294
20
21.9794542500
1
DC
7
NewTextStyle_4
40
0.2624672000000003
50
-17.30127906798755
0
TEXT
8
Modules
100
AcDbText
10
-57.8364586033
20
21.4579835690
1
DC
7
NewTextStyle_4
40
0.2624672000000003
50
-17.30127906798755
0
LINE
8
Modules
10
-55.0798486890
20
24.1659575872
11
-56.8918833500
21
18.3486414900
62
254
0
LINE
8
Modules
10
-56.8918833500
20
18.3486414900
11
-53.6467214665
21
17.3378066451
62
254
0
LINE
8
Modules
10
-53.6467214665
20
17.3378066451
11
-51.8346868055
21
23.1551227423
62
254
0
LINE
8
Modules
10
-51.8346868055
20
23.1551227423
11
-55.0798486890
21
24.1659575872
62
254
0
LINE
8
Modules
10
-54.8767981965
20
20.4822963248
11
-54.0936992864
21
20.2383689974
62
254
0
LINE
8
Modules
10
-54.0936992864
20
20.2383689974
11
-53.8497719590
21
21.0214679075
62
254
0
LINE
8
Modules
10
-53.8497719590
20
21.0214679075
11
-54.6328708691
21
21.2653952349
62
254
0
LINE
8
Modules
10
-54.6328708691
20
21.2653952349
11
-54.8767981965
21
20.4822963248
62
254
0
LINE
8
Modules
10
-54.8767981965
20
20.4822963248
11
-53.8497719590
21
21.0214679075
62
254
0
TEXT
8
Modules
100
AcDbText
10
-54.6785773189
20
20.9531820094
1
DC
7
NewTextStyle_4
40
0.2624672000000003
50
-17.30127906798755
0
TEXT
8
Modules
100
AcDbText
10
-54.5489229928
20
20.4317113284
1
DC
7
NewTextStyle_4
40
0.2624672000000003
50
-17.30127906798755
0
LINE
8
Modules
10
-51.7951792763
20
23.1433375614
11
-53.6072139373
21
17.3260214642
62
254
0
LINE
8
Modules
10
-53.6072139373
20
17.3260214642
11
-50.3620520538
21
16.3151866192
62
254
0
LINE
8
Modules
10
-50.3620520538
20
16.3151866192
11
-48.5500173928
21
22.1325027164
62
254
0
LINE
8
Modules
10
-48.5500173928
20
22.1325027164
11
-51.7951792763
21
23.1433375614
62
254
0
LINE
8
Modules
10
-51.5921287838
20
19.4596762989
11
-50.8090298736
21
19.2157489715
62
254
0
LINE
8
Modules
10
-50.8090298736
20
19.2157489715
11
-50.5651025463
21
19.9988478817
62
254
0
LINE
8
Modules
10
-50.5651025463
20
19.9988478817
11
-51.3482014564
21
20.2427752090
62
254
0
LINE
8
Modules
10
-51.3482014564
20
20.2427752090
11
-51.5921287838
21
19.4596762989
62
254
0
LINE
8
Modules
10
-51.5921287838
20
19.4596762989
11
-50.5651025463
21
19.9988478817
62
254
0
TEXT
8
Modules
100
AcDbText
10
-51.3939079062
20
19.9305619836
1
DC
7
NewTextStyle_4
40
0.2624672000000003
50
-17.30127906798755
0
TEXT
8
Modules
100
AcDbText
10
-51.2642535801
20
19.4090913026
1
DC
7
NewTextStyle_4
40
0.2624672000000003
50
-17.30127906798755
0
LINE
8
Buildings
10
-12.5383249321
20
10.6989086603
11
-41.7428536766
21
19.6113718744
62
252
0
LINE
8
Buildings
10
-41.7428536766
20
19.6113718744
11
-48.2301874720
21
-1.2154213069
62
252
0
LINE
8
Buildings
10
-48.2301874720
20
-1.2154213069
11
-101.6276397809
21
15.4173408249
62
252
0
LINE
8
Buildings
10
-101.6276397809
20
15.4173408249
11
-95.2362361184
21
35.9361620254
62
252
0
LINE
8
Buildings
10
-95.2362361184
20
35.9361620254
11
-124.0873767431
21
44.7407803691
62
252
0
LINE
8
Buildings
10
-124.0873767431
20
44.7407803691
11
-139.4188699767
21
-5.4977478672
62
252
0
LINE
8
Buildings
10
-139.4188699767
20
-5.4977478672
11
-113.0939460665
21
-13.5314305202
62
252
0
LINE
8
Buildings
10
-113.0939460665
20
-13.5314305202
11
-107.9422650364
21
2.8481059466
62
252
0
LINE
8
Buildings
10
-107.9422650364
20
2.8481059466
11
-48.8085568385
21
-15.7505890395
62
252
0
LINE
8
Buildings
10
-48.8085568385
20
-15.7505890395
11
-53.8016488081
21
-31.6258987727
62
252
0
LINE
8
Buildings
10
-53.8016488081
20
-31.6258987727
11
-27.8698181657
21
-39.5396195760
62
252
0
LINE
8
Buildings
10
-27.8698181657
20
-39.5396195760
11
-12.5383249321
21
10.6989086603
62
252
0
LINE
8
Buildings
10
-101.6276397809
20
15.4173408249
11
-48.2301874720
21
-1.2154213069
62
252
0
LINE
8
Buildings
10
-48.2301874720
20
-1.2154213069
11
-41.3684677542
21
20.8132921735
62
252
0
LINE
8
Buildings
10
-41.3684677542
20
20.8132921735
11
-94.7659200630
21
37.4460543053
62
252
0
LINE
8
Buildings
10
-94.7659200630
20
37.4460543053
11
-101.6276397809
21
15.4173408249
62
252
0
LINE
8
Buildings
10
-113.4323106957
20
-14.6072455311
11
-54.2986024978
21
-33.2059405172
62
252
0
LINE
8
Buildings
10
-54.2986024978
20
-33.2059405172
11
-48.8085568385
21
-15.7505890395
62
252
0
LINE
8
Buildings
10
-48.8085568385
20
-15.7505890395
11
-107.9422650364
21
2.8481059466
62
252
0
LINE
8
Buildings
10
-107.9422650364
20
2.8481059466
11
-113.4323106957
21
-14.6072455311
62
252
0
LINE
8
Buildings
10
-48.7170286118
20
-109.9483461498
11
-26.9434113842
21
-116.6126947886
62
252
0
LINE
8
Buildings
10
-26.9434113842
20
-116.6126947886
11
-11.0834846656
21
-64.7954816825
62
252
0
LINE
8
Buildings
10
-11.0834846656
20
-64.7954816825
11
-31.2874513003
21
-58.6115630376
62
252
0
LINE
8
Buildings
10
-31.2874513003
20
-58.6115630376
11
-36.9129529972
21
-77.9532580012
62
252
0
LINE
8
Buildings
10
-36.9129529972
20
-77.9532580012
11
-69.5531773988
21
-68.4598998387
62
252
0
LINE
8
Buildings
10
-69.5531773988
20
-68.4598998387
11
-74.3816370167
21
-84.2667067625
62
252
0
LINE
8
Buildings
10
-74.3816370167
20
-84.2667067625
11
-43.7604612296
21
-93.4866523497
62
252
0
LINE
8
Buildings
10
-43.7604612296
20
-93.4866523497
11
-48.7170286118
21
-109.9483461498
62
252
0
LINE
8
Buildings
10
-66.8975936305
20
-52.8159723174
11
-65.5345145654
21
-48.1294108500
62
252
0
LINE
8
Buildings
10
-65.5345145654
20
-48.1294108500
11
-85.5354834134
21
-42.0076246477
62
252
0
LINE
8
Buildings
10
-85.5354834134
20
-42.0076246477
11
-86.9018074280
21
-46.7053429554
62
252
0
LINE
8
Buildings
10
-86.9018074280
20
-46.7053429554
11
-66.8975936305
21
-52.8159723174
62
252
0
LINE
8
Buildings
10
-155.9931313239
20
-77.1138684600
11
-133.8925355631
21
-83.8782968843
62
252
0
LINE
8
Buildings
10
-133.8925355631
20
-83.8782968843
11
-129.1328172053
21
-68.0703757689
62
252
0
LINE
8
Buildings
10
-129.1328172053
20
-68.0703757689
11
-98.2370158459
21
-77.3730103048
62
252
0
LINE
8
Buildings
10
-98.2370158459
20
-77.3730103048
11
-103.0391303309
21
-93.3217369435
62
252
0
LINE
8
Buildings
10
-103.0391303309
20
-93.3217369435
11
-79.5704338440
21
-100.5049060905
62
252
0
LINE
8
Buildings
10
-79.5704338440
20
-100.5049060905
11
-78.1898985488
21
-95.9198883641
62
252
0
LINE
8
Buildings
10
-78.1898985488
20
-95.9198883641
11
-101.6269626869
21
-88.7606361319
62
252
0
LINE
8
Buildings
10
-101.6269626869
20
-88.7606361319
11
-93.2022616240
21
-61.1809039541
62
252
0
LINE
8
Buildings
10
-93.2022616240
20
-61.1809039541
11
-125.6619280465
21
-51.7400607972
62
252
0
LINE
8
Buildings
10
-125.6619280465
20
-51.7400607972
11
-119.7825466786
21
-31.5254724601
62
252
0
LINE
8
Buildings
10
-119.7825466786
20
-31.5254724601
11
-140.1332046052
21
-25.2966553538
62
252
0
LINE
8
Buildings
10
-140.1332046052
20
-25.2966553538
11
-155.9931313239
21
-77.1138684600
62
252
0
LINE
8
Buildings
10
-85.0241471184
20
-40.2495395602
11
-119.4110436693
21
-30.2481645378
62
252
0
LINE
8
Buildings
10
-119.4110436693
20
-30.2481645378
11
-125.6619280465
21
-51.7400607972
62
252
0
LINE
8
Buildings
10
-125.6619280465
20
-51.7400607972
11
-93.2022616240
21
-61.1809039541
62
252
0
LINE
8
Buildings
10
-93.2022616240
20
-61.1809039541
11
-90.4602922384
21
-52.2045876755
62
252
0
LINE
8
Buildings
10
-90.4602922384
20
-52.2045876755
11
-88.6582696526
21
-52.7444410472
62
252
0
LINE
8
Buildings
10
-88.6582696526
20
-52.7444410472
11
-85.0241471184
21
-40.2495395602
62
252
0
LINE
8
Buildings
10
-30.6620686200
20
-56.4613617418
11
-65.0489651709
21
-46.4599867195
62
252
0
LINE
8
Buildings
10
-65.0489651709
20
-46.4599867195
11
-68.6657162108
21
-58.8951612410
62
252
0
LINE
8
Buildings
10
-68.6657162108
20
-58.8951612410
11
-66.8020160606
21
-59.4534920955
62
252
0
LINE
8
Buildings
10
-66.8020160606
20
-59.4534920955
11
-69.5531773988
21
-68.4598998387
62
252
0
LINE
8
Buildings
10
-69.5531773988
20
-68.4598998387
11
-36.9129529972
21
-77.9532580012
62
252
0
LINE
8
Buildings
10
-36.9129529972
20
-77.9532580012
11
-30.6620686200
21
-56.4613617418
62
252
0
LINE
8
Buildings
10
-134.4712658690
20
-85.8003692289
11
-103.5754645097
21
-95.1030037648
62
252
0
LINE
8
Buildings
10
-103.5754645097
20
-95.1030037648
11
-98.2370158459
21
-77.3730103048
62
252
0
LINE
8
Buildings
10
-98.2370158459
20
-77.3730103048
11
-129.1328172053
21
-68.0703757689
62
252
0
LINE
8
Buildings
10
-129.1328172053
20
-68.0703757689
11
-134.4712658690
21
-85.8003692289
62
252
0
LINE
8
Buildings
10
-79.9947112527
20
-101.9140112738
11
-49.0989098933
21
-111.2166458097
62
252
0
LINE
8
Buildings
10
-49.0989098933
20
-111.2166458097
11
-43.7604612296
21
-93.4866523497
62
252
0
LINE
8
Buildings
10
-43.7604612296
20
-93.4866523497
11
-74.3816370167
21
-84.2667067625
62
252
0
LINE
8
Buildings
10
-74.3816370167
20
-84.2667067625
11
-76.5243767855
21
-91.2813401019
62
252
0
LINE
8
Buildings
10
-76.5243767855
20
-91.2813401019
11
-76.7707183195
21
-91.2065235332
62
252
0
LINE
8
Buildings
10
-76.7707183195
20
-91.2065235332
11
-79.9947112527
21
-101.9140112738
62
252
0
LINE
8
Buildings
10
-150.7500595750
20
-62.7379875897
11
-135.2645874376
21
-67.2582194789
62
252
0
LINE
8
Buildings
10
-135.2645874376
20
-67.2582194789
11
-128.1979054388
21
-43.0490837801
62
252
0
LINE
8
Buildings
10
-128.1979054388
20
-43.0490837801
11
-143.6833775762
21
-38.5288518909
62
252
0
LINE
8
Buildings
10
-143.6833775762
20
-38.5288518909
11
-150.7500595750
21
-62.7379875897
62
252
0
LINE
8
Buildings
10
-95.1235403549
20
-67.4705458585
11
-71.4590953283
21
-74.6992554734
62
252
0
LINE
8
Buildings
10
-71.4590953283
20
-74.6992554734
11
-66.8020160606
21
-59.4534920955
62
252
0
LINE
8
Buildings
10
-66.8020160606
20
-59.4534920955
11
-68.6657162108
21
-58.8951612410
62
252
0
LINE
8
Buildings
10
-68.6657162108
20
-58.8951612410
11
-66.8975936305
21
-52.8159723174
62
252
0
LINE
8
Buildings
10
-66.8975936305
20
-52.8159723174
11
-86.9018074280
21
-46.7053429554
62
252
0
LINE
8
Buildings
10
-86.9018074280
20
-46.7053429554
11
-88.6582696526
21
-52.7444410472
62
252
0
LINE
8
Buildings
10
-88.6582696526
20
-52.7444410472
11
-90.4602922384
21
-52.2045876755
62
252
0
LINE
8
Buildings
10
-90.4602922384
20
-52.2045876755
11
-95.1235403549
21
-67.4705458585
62
252
0
LINE
8
Buildings
10
-71.4590953283
20
-74.6992554734
11
-95.1235403549
21
-67.4705458585
62
252
0
LINE
8
Buildings
10
-95.1235403549
20
-67.4705458585
11
-101.6269626869
21
-88.7606361319
62
252
0
LINE
8
Buildings
10
-101.6269626869
20
-88.7606361319
11
-78.1898985488
21
-95.9198883641
62
252
0
LINE
8
Buildings
10
-78.1898985488
20
-95.9198883641
11
-76.7707183195
21
-91.2065235332
62
252
0
LINE
8
Buildings
10
-76.7707183195
20
-91.2065235332
11
-76.5243767855
21
-91.2813401019
62
252
0
LINE
8
Buildings
10
-76.5243767855
20
-91.2813401019
11
-71.4590953283
21
-74.6992554734
62
252
0
LINE
8
Buildings
10
-38.3174757594
20
-97.2570398566
11
-22.8320036220
21
-101.7772717459
62
252
0
LINE
8
Buildings
10
-22.8320036220
20
-101.7772717459
11
-15.7653216232
21
-77.5681360471
62
252
0
LINE
8
Buildings
10
-15.7653216232
20
-77.5681360471
11
-31.2507937606
21
-73.0479041579
62
252
0
LINE
8
Buildings
10
-31.2507937606
20
-73.0479041579
11
-38.3174757594
21
-97.2570398566
62
252
0
LINE
8
Buildings
10
-4.9554516557
20
30.4072280142
11
16.9916931273
21
23.6897670186
62
252
0
LINE
8
Buildings
10
16.9916931273
20
23.6897670186
11
32.8516198460
21
75.5069801247
62
252
0
LINE
8
Buildings
10
32.8516198460
20
75.5069801247
11
11.3042170859
21
82.1020902872
62
252
0
LINE
8
Buildings
10
11.3042170859
20
82.1020902872
11
5.7264867302
21
62.9246435559
62
252
0
LINE
8
Buildings
10
5.7264867302
20
62.9246435559
11
-26.2821007300
21
72.2342911029
62
252
0
LINE
8
Buildings
10
-26.2821007300
20
72.2342911029
11
-34.5972445651
21
45.0132136689
62
252
0
LINE
8
Buildings
10
-34.5972445651
20
45.0132136689
11
-57.8526806651
21
52.1169845093
62
252
0
LINE
8
Buildings
10
-57.8526806651
20
52.1169845093
11
-59.3742865522
21
47.0634447777
62
252
0
LINE
8
Buildings
10
-59.3742865522
20
47.0634447777
11
-35.8088568879
21
39.8506680734
62
252
0
LINE
8
Buildings
10
-35.8088568879
20
39.8506680734
11
-30.7911773003
21
56.5153270176
62
252
0
LINE
8
Buildings
10
-30.7911773003
20
56.5153270176
11
0.1046240591
21
47.2126924817
62
252
0
LINE
8
Buildings
10
0.1046240591
20
47.2126924817
11
-4.9554516557
21
30.4072280142
62
252
0
LINE
8
Buildings
10
-22.9428461793
20
92.5842424749
11
-42.0145889749
21
98.4216162934
62
252
0
LINE
8
Buildings
10
-42.0145889749
20
98.4216162934
11
-43.2404681035
21
94.2067779651
62
252
0
LINE
8
Buildings
10
-43.2404681035
20
94.2067779651
11
-24.1656311157
21
88.3800426506
62
252
0
LINE
8
Buildings
10
-24.1656311157
20
88.3800426506
11
-22.9428461793
21
92.5842424749
62
252
0
LINE
8
Buildings
10
-112.0580268124
20
63.1885933472
11
-90.2276917844
21
56.5068848369
62
252
0
LINE
8
Buildings
10
-90.2276917844
20
56.5068848369
11
-85.3504740309
21
72.7050435756
62
252
0
LINE
8
Buildings
10
-85.3504740309
20
72.7050435756
11
-54.8190175596
21
63.5121122094
62
252
0
LINE
8
Buildings
10
-54.8190175596
20
63.5121122094
11
-49.9857889693
21
79.3345311983
62
252
0
LINE
8
Buildings
10
-49.9857889693
20
79.3345311983
11
-82.1416628241
21
88.6870167625
62
252
0
LINE
8
Buildings
10
-82.1416628241
20
88.6870167625
11
-76.2616522401
21
108.9037684810
62
252
0
LINE
8
Buildings
10
-76.2616522401
20
108.9037684810
11
-96.1981000937
21
115.0058064533
62
252
0
LINE
8
Buildings
10
-96.1981000937
20
115.0058064533
11
-112.0580268124
21
63.1885933472
62
252
0
LINE
8
Buildings
10
-41.5038818960
20
100.1775379996
11
-75.8907784469
21
110.1789130219
62
252
0
LINE
8
Buildings
10
-75.8907784469
20
110.1789130219
11
-82.1416628241
21
88.6870167625
62
252
0
LINE
8
Buildings
10
-82.1416628241
20
88.6870167625
11
-49.9857889693
21
79.3345311983
62
252
0
LINE
8
Buildings
10
-49.9857889693
20
79.3345311983
11
-47.1547769242
21
88.6023441940
62
252
0
LINE
8
Buildings
10
-47.1547769242
20
88.6023441940
11
-45.0535913470
21
87.9728670013
62
252
0
LINE
8
Buildings
10
-45.0535913470
20
87.9728670013
11
-41.5038818960
21
100.1775379996
62
252
0
LINE
8
Buildings
10
11.9773711074
20
84.4165398153
11
-22.4095254435
21
94.4179148376
62
252
0
LINE
8
Buildings
10
-22.4095254435
20
94.4179148376
11
-25.9709145591
21
82.1730866195
62
252
0
LINE
8
Buildings
10
-25.9709145591
20
82.1730866195
11
-23.4745719489
21
81.4252275273
62
252
0
LINE
8
Buildings
10
-23.4745719489
20
81.4252275273
11
-26.2821007300
21
72.2342911029
62
252
0
LINE
8
Buildings
10
-26.2821007300
20
72.2342911029
11
5.7264867302
21
62.9246435559
62
252
0
LINE
8
Buildings
10
5.7264867302
20
62.9246435559
11
11.9773711074
21
84.4165398153
62
252
0
LINE
8
Buildings
10
-90.6889226946
20
54.9750501157
11
-59.7931213352
21
45.6724155798
62
252
0
LINE
8
Buildings
10
-59.7931213352
20
45.6724155798
11
-56.4879713916
21
56.6494410370
62
252
0
LINE
8
Buildings
10
-56.4879713916
20
56.6494410370
11
-56.8790555805
21
56.7682175040
62
252
0
LINE
8
Buildings
10
-56.8790555805
20
56.7682175040
11
-54.8190175596
21
63.5121122094
62
252
0
LINE
8
Buildings
10
-54.8190175596
20
63.5121122094
11
-85.3504740309
21
72.7050435756
62
252
0
LINE
8
Buildings
10
-85.3504740309
20
72.7050435756
11
-90.6889226946
21
54.9750501157
62
252
0
LINE
8
Buildings
10
-36.1296259641
20
38.7853335576
11
-5.2338246047
21
29.4826990217
62
252
0
LINE
8
Buildings
10
-5.2338246047
20
29.4826990217
11
0.1046240591
21
47.2126924817
62
252
0
LINE
8
Buildings
10
0.1046240591
20
47.2126924817
11
-30.7911773003
21
56.5153270176
62
252
0
LINE
8
Buildings
10
-30.7911773003
20
56.5153270176
11
-36.1296259641
21
38.7853335576
62
252
0
LINE
8
Buildings
10
-107.3056209427
20
76.9729664020
11
-91.8201488053
21
72.4527345128
62
252
0
LINE
8
Buildings
10
-91.8201488053
20
72.4527345128
11
-84.7534668066
21
96.6618702116
62
252
0
LINE
8
Buildings
10
-84.7534668066
20
96.6618702116
11
-100.2389389440
21
101.1821021008
62
252
0
LINE
8
Buildings
10
-100.2389389440
20
101.1821021008
11
-107.3056209427
21
76.9729664020
62
252
0
LINE
8
Buildings
10
-51.7582672596
20
73.5320135572
11
-28.0938222331
21
66.3033039423
62
252
0
LINE
8
Buildings
10
-28.0938222331
20
66.3033039423
11
-23.4745719489
21
81.4252275273
62
252
0
LINE
8
Buildings
10
-23.4745719489
20
81.4252275273
11
-25.9709145591
21
82.1730866195
62
252
0
LINE
8
Buildings
10
-25.9709145591
20
82.1730866195
11
-24.1656311157
21
88.3800426506
62
252
0
LINE
8
Buildings
10
-24.1656311157
20
88.3800426506
11
-43.2404681035
21
94.2067779651
62
252
0
LINE
8
Buildings
10
-43.2404681035
20
94.2067779651
11
-45.0535913470
21
87.9728670013
62
252
0
LINE
8
Buildings
10
-45.0535913470
20
87.9728670013
11
-47.1547769242
21
88.6023441940
62
252
0
LINE
8
Buildings
10
-47.1547769242
20
88.6023441940
11
-51.7582672596
21
73.5320135572
62
252
0
LINE
8
Buildings
10
-28.0938222331
20
66.3033039423
11
-51.7582672596
21
73.5320135572
62
252
0
LINE
8
Buildings
10
-51.7582672596
20
73.5320135572
11
-56.8790555805
21
56.7682175040
62
252
0
LINE
8
Buildings
10
-56.8790555805
20
56.7682175040
11
-56.4879713916
21
56.6494410370
62
252
0
LINE
8
Buildings
10
-56.4879713916
20
56.6494410370
11
-57.8526806651
21
52.1169845093
62
252
0
LINE
8
Buildings
10
-57.8526806651
20
52.1169845093
11
-34.5972445651
21
45.0132136689
62
252
0
LINE
8
Buildings
10
-34.5972445651
20
45.0132136689
11
-28.0938222331
21
66.3033039423
62
252
0
LINE
8
Buildings
10
5.3219801508
20
43.7872338195
11
20.8074522882
21
39.2670019303
62
252
0
LINE
8
Buildings
10
20.8074522882
20
39.2670019303
11
27.8741342870
21
63.4761376291
62
252
0
LINE
8
Buildings
10
27.8741342870
20
63.4761376291
11
12.3886621496
21
67.9963695183
62
252
0
LINE
8
Buildings
10
12.3886621496
20
67.9963695183
11
5.3219801508
21
43.7872338195
62
252
0
LINE
8
Setbacks
10
-51.0878254608
20
-0.2909330613
11
-44.6696817128
21
20.3137333995
62
2
0
LINE
8
Setbacks
10
-44.6696817128
20
20.3137333995
11
-92.3323442999
21
35.1601666424
62
2
0
LINE
8
Setbacks
10
-92.3323442999
20
35.1601666424
11
-98.7504877392
21
14.5555004489
62
2
0
LINE
8
Setbacks
10
-105.0871889377
20
1.9157365247
11
-110.1297306916
21
-14.1167970379
62
2
0
LINE
8
Setbacks
10
-110.1297306916
20
-14.1167970379
11
-56.7258620531
21
-30.9133469231
62
2
0
LINE
8
Setbacks
10
-56.7258620531
20
-30.9133469231
11
-51.6833199528
21
-14.8808132999
62
2
0
LINE
8
Setbacks
10
-90.7792455525
20
-49.2829999010
11
-88.3220152501
21
-40.8345096238
62
2
0
LINE
8
Setbacks
10
-88.3220152501
20
-40.8345096238
11
-116.9413454906
21
-32.5106220599
62
2
0
LINE
8
Setbacks
10
-116.9413454906
20
-32.5106220599
11
-122.7689823563
21
-52.5473017023
62
2
0
LINE
8
Setbacks
10
-96.0757655287
20
-60.3109818995
11
-96.0749509054
21
-60.3050829712
62
2
0
LINE
8
Setbacks
10
-96.0749509054
20
-60.3050829712
11
-96.0748386230
21
-60.3045733169
62
2
0
LINE
8
Setbacks
10
-96.0748386230
20
-60.3045733169
11
-93.3328690470
21
-51.3282570848
62
2
0
LINE
8
Setbacks
10
-93.3328690470
20
-51.3282570848
11
-93.3326773996
21
-51.3277717379
62
2
0
LINE
8
Setbacks
10
-93.3326773996
20
-51.3277717379
11
-92.9251209561
21
-50.4961637716
62
2
0
LINE
8
Setbacks
10
-92.9251209561
20
-50.4961637716
11
-92.9248556185
21
-50.4957161317
62
2
0
LINE
8
Setbacks
10
-92.9248556185
20
-50.4957161317
11
-92.9245228423
21
-50.4953160747
62
2
0
LINE
8
Setbacks
10
-92.9245228423
20
-50.4953160747
11
-92.2759801706
21
-49.8307996493
62
2
0
LINE
8
Setbacks
10
-92.2759801706
20
-49.8307996493
11
-92.2755912302
21
-49.8304593976
62
2
0
LINE
8
Setbacks
10
-92.2755912302
20
-49.8304593976
11
-92.2751536878
21
-49.8301844383
62
2
0
LINE
8
Setbacks
10
-92.2751536878
20
-49.8301844383
11
-91.4491083858
21
-49.3978064717
62
2
0
LINE
8
Setbacks
10
-91.4491083858
20
-49.3978064717
11
-91.4486371924
21
-49.3976050074
62
2
0
LINE
8
Setbacks
10
-91.4486371924
20
-49.3976050074
11
-91.4481403751
21
-49.3974793747
62
2
0
LINE
8
Setbacks
10
-91.4481403751
20
-49.3974793747
11
-90.7792455525
21
-49.2829999010
62
2
0
LINE
8
Setbacks
10
-39.7875736593
20
-77.0830111678
11
-33.9599367388
21
-57.0463316649
62
2
0
LINE
8
Setbacks
10
-33.9599367388
20
-57.0463316649
11
-62.5792669793
21
-48.7224441010
62
2
0
LINE
8
Setbacks
10
-62.5792669793
20
-48.7224441010
11
-65.0163131029
21
-57.1015374133
62
2
0
LINE
8
Setbacks
10
-65.0163131029
20
-57.1015374133
11
-64.4138181322
21
-57.6763054548
62
2
0
LINE
8
Setbacks
10
-64.4138181322
20
-57.6763054548
11
-64.4134758848
21
-57.6766873399
62
2
0
LINE
8
Setbacks
10
-64.4134758848
20
-57.6766873399
11
-64.4131973254
21
-57.6771178910
62
2
0
LINE
8
Setbacks
10
-64.4131973254
20
-57.6771178910
11
-63.9696205395
21
-58.4968160799
62
2
0
LINE
8
Setbacks
10
-63.9696205395
20
-58.4968160799
11
-63.9694110351
21
-58.4972888584
62
2
0
LINE
8
Setbacks
10
-63.9694110351
20
-58.4972888584
11
-63.9692784196
21
-58.4977886831
62
2
0
LINE
8
Setbacks
10
-63.9692784196
20
-58.4977886831
11
-63.8026734274
21
-59.4109803134
62
2
0
LINE
8
Setbacks
10
-63.8026734274
20
-59.4109803134
11
-63.8026209183
21
-59.4114982508
62
2
0
LINE
8
Setbacks
10
-63.8026209183
20
-59.4114982508
11
-63.8026509956
21
-59.4120179736
62
2
0
LINE
8
Setbacks
10
-63.8026509956
20
-59.4120179736
11
-63.9293268527
21
-60.3293132785
62
2
0
LINE
8
Setbacks
10
-63.9293268527
20
-60.3293132785
11
-63.9294391350
21
-60.3298229318
62
2
0
LINE
8
Setbacks
10
-63.9294391350
20
-60.3298229318
11
-66.6595559306
21
-69.2673371669
62
2
0
LINE
8
Setbacks
10
-126.2665246553
20
-68.9676714852
11
-131.1680322546
21
-85.2465010047
62
2
0
LINE
8
Setbacks
10
-131.1680322546
20
-85.2465010047
11
-106.0237341185
21
-92.8173748594
62
2
0
LINE
8
Setbacks
10
-106.0237341185
20
-92.8173748594
11
-101.1222264730
21
-76.5385451863
62
2
0
LINE
8
Setbacks
10
-71.5154476766
20
-85.1639713221
11
-73.6520185143
21
-92.1584092522
62
2
0
LINE
8
Setbacks
10
-73.6520185143
20
-92.1584092522
11
-73.6522101725
21
-92.1588946210
62
2
0
LINE
8
Setbacks
10
-73.6522101725
20
-92.1588946210
11
-74.0597554612
21
-92.9904642014
62
2
0
LINE
8
Setbacks
10
-74.0597554612
20
-92.9904642014
11
-74.0600208470
21
-92.9909119030
62
2
0
LINE
8
Setbacks
10
-74.0600208470
20
-92.9909119030
11
-74.0603536901
21
-92.9913120054
62
2
0
LINE
8
Setbacks
10
-74.0603536901
20
-92.9913120054
11
-74.2212938583
21
-93.1561980453
62
2
0
LINE
8
Setbacks
10
-74.2212938583
20
-93.1561980453
11
-76.6914776898
21
-101.3601429246
62
2
0
LINE
8
Setbacks
10
-76.6914776898
20
-101.3601429246
11
-51.5471795537
21
-108.9310171073
62
2
0
LINE
8
Setbacks
10
-51.5471795537
20
-108.9310171073
11
-46.6456719657
21
-92.6521872978
62
2
0
LINE
8
Setbacks
10
-140.8096030998
20
-39.4018885593
11
-147.4516252989
21
-62.1562187487
62
2
0
LINE
8
Setbacks
10
-147.4516252989
20
-62.1562187487
11
-137.7320885009
21
-64.9933660984
62
2
0
LINE
8
Setbacks
10
-137.7320885009
20
-64.9933660984
11
-131.0900662343
21
-42.2390353503
62
2
0
LINE
8
Setbacks
10
-84.0384637881
20
-47.6143051482
11
-85.7751598612
21
-53.5854435645
62
2
0
LINE
8
Setbacks
10
-85.7751598612
20
-53.5854435645
11
-85.7753486474
21
-53.5859391680
62
2
0
LINE
8
Setbacks
10
-85.7753486474
20
-53.5859391680
11
-86.1675176232
21
-54.4085497586
62
2
0
LINE
8
Setbacks
10
-86.1675176232
20
-54.4085497586
11
-86.1677821445
21
-54.4090060905
62
2
0
LINE
8
Setbacks
10
-86.1677821445
20
-54.4090060905
11
-86.1681163739
21
-54.4094141360
62
2
0
LINE
8
Setbacks
10
-86.1681163739
20
-54.4094141360
11
-86.8038076672
21
-55.0692684878
62
2
0
LINE
8
Setbacks
10
-86.8038076672
20
-55.0692684878
11
-86.8041967732
21
-55.0696130482
62
2
0
LINE
8
Setbacks
10
-86.8041967732
20
-55.0696130482
11
-86.8046354090
21
-55.0698918383
62
2
0
LINE
8
Setbacks
10
-86.8046354090
20
-55.0698918383
11
-87.6216229680
21
-55.5023984138
62
2
0
LINE
8
Setbacks
10
-87.6216229680
20
-55.5023984138
11
-87.6220911825
21
-55.5026013767
62
2
0
LINE
8
Setbacks
10
-87.6220911825
20
-55.5026013767
11
-87.6225852071
21
-55.5027292773
62
2
0
LINE
8
Setbacks
10
-87.6225852071
20
-55.5027292773
11
-88.3678561964
21
-55.6348706863
62
2
0
LINE
8
Setbacks
10
-88.3678561964
20
-55.6348706863
11
-91.8251236196
21
-66.9528399573
62
2
0
LINE
8
Setbacks
10
-91.8251236196
20
-66.9528399573
11
-73.9052052325
21
-72.4267854005
62
2
0
LINE
8
Setbacks
10
-73.9052052325
20
-72.4267854005
11
-70.4670463394
21
-61.1713714361
62
2
0
LINE
8
Setbacks
10
-70.4670463394
20
-61.1713714361
11
-71.0184191736
21
-60.6650549620
62
2
0
LINE
8
Setbacks
10
-71.0184191736
20
-60.6650549620
11
-71.0187666048
21
-60.6646821954
62
2
0
LINE
8
Setbacks
10
-71.0187666048
20
-60.6646821954
11
-71.0190521231
21
-60.6642601259
62
2
0
LINE
8
Setbacks
10
-71.0190521231
20
-60.6642601259
11
-71.4763411797
21
-59.8600458613
62
2
0
LINE
8
Setbacks
10
-71.4763411797
20
-59.8600458613
11
-71.4765612182
21
-59.8595758508
62
2
0
LINE
8
Setbacks
10
-71.4765612182
20
-59.8595758508
11
-71.4767043900
21
-59.8590770236
62
2
0
LINE
8
Setbacks
10
-71.4767043900
20
-59.8590770236
11
-71.6591492777
21
-58.9605720736
62
2
0
LINE
8
Setbacks
10
-71.6591492777
20
-58.9605720736
11
-71.6592123276
21
-58.9600488910
62
2
0
LINE
8
Setbacks
10
-71.6592123276
20
-58.9600488910
11
-71.6591908020
21
-58.9595223627
62
2
0
LINE
8
Setbacks
10
-71.6591908020
20
-58.9595223627
11
-71.5489322683
21
-58.0546781737
62
2
0
LINE
8
Setbacks
10
-71.5489322683
20
-58.0546781737
11
-71.5488258162
21
-58.0541587612
62
2
0
LINE
8
Setbacks
10
-71.5488258162
20
-58.0541587612
11
-69.7807033843
21
-51.9749699184
62
2
0
LINE
8
Setbacks
10
-69.7807033843
20
-51.9749699184
11
-69.7805145981
21
-51.9744743149
62
2
0
LINE
8
Setbacks
10
-69.7805145981
20
-51.9744743149
11
-69.7785026912
21
-51.9702541547
62
2
0
LINE
8
Setbacks
10
-81.0527245369
20
-95.0110843599
11
-79.6462661205
21
-90.3399707011
62
2
0
LINE
8
Setbacks
10
-79.6462661205
20
-90.3399707011
11
-79.6460726909
21
-90.3394769359
62
2
0
LINE
8
Setbacks
10
-79.6460726909
20
-90.3394769359
11
-79.2461468251
21
-89.5205251380
62
2
0
LINE
8
Setbacks
10
-79.2461468251
20
-89.5205251380
11
-79.2458781182
21
-89.5200714529
62
2
0
LINE
8
Setbacks
10
-79.2458781182
20
-89.5200714529
11
-79.2455402024
21
-89.5196666733
62
2
0
LINE
8
Setbacks
10
-79.2455402024
20
-89.5196666733
11
-79.0727372628
21
-89.3436049731
62
2
0
LINE
8
Setbacks
10
-79.0727372628
20
-89.3436049731
11
-74.7575119605
21
-75.2169611801
62
2
0
LINE
8
Setbacks
10
-74.7575119605
20
-75.2169611801
11
-92.6774303474
21
-69.7430157369
62
2
0
LINE
8
Setbacks
10
-92.6774303474
20
-69.7430157369
11
-98.7451144701
21
-89.6066411079
62
2
0
LINE
8
Setbacks
10
-28.3770193517
20
-73.9209405104
11
-35.0190416485
21
-96.6752710344
62
2
0
LINE
8
Setbacks
10
-35.0190416485
20
-96.6752710344
11
-25.2995048505
21
-99.5124183841
62
2
0
LINE
8
Setbacks
10
-25.2995048505
20
-99.5124183841
11
-18.6574825419
21
-76.7580874919
62
2
0
LINE
8
Setbacks
10
-47.1391593010
20
91.5560484221
11
-44.8017500779
21
99.5925680325
62
2
0
LINE
8
Setbacks
10
-44.8017500779
20
99.5925680325
11
-73.4210803184
21
107.9164555965
62
2
0
LINE
8
Setbacks
10
-73.4210803184
20
107.9164555965
11
-79.2487171842
21
87.8797759538
62
2
0
LINE
8
Setbacks
10
-52.8592927034
20
80.2044532804
11
-52.8584780656
21
80.2103523005
62
2
0
LINE
8
Setbacks
10
-52.8584780656
20
80.2103523005
11
-52.8583657834
21
80.2108619537
62
2
0
LINE
8
Setbacks
10
-52.8583657834
20
80.2108619537
11
-50.0273538818
21
89.4786749144
62
2
0
LINE
8
Setbacks
10
-50.0273538818
20
89.4786749144
11
-50.0271622340
21
89.4791602618
62
2
0
LINE
8
Setbacks
10
-50.0271622340
20
89.4791602618
11
-49.6196057905
21
90.3107679000
62
2
0
LINE
8
Setbacks
10
-49.6196057905
20
90.3107679000
11
-49.6193404530
21
90.3112155397
62
2
0
LINE
8
Setbacks
10
-49.6193404530
20
90.3112155397
11
-49.6190076770
21
90.3116155965
62
2
0
LINE
8
Setbacks
10
-49.6190076770
20
90.3116155965
11
-48.9704646772
21
90.9761323500
62
2
0
LINE
8
Setbacks
10
-48.9704646772
20
90.9761323500
11
-48.9700757370
21
90.9764726015
62
2
0
LINE
8
Setbacks
10
-48.9700757370
20
90.9764726015
11
-48.9696381949
21
90.9767475607
62
2
0
LINE
8
Setbacks
10
-48.9696381949
20
90.9767475607
11
-48.1435932209
21
91.4091255273
62
2
0
LINE
8
Setbacks
10
-48.1435932209
20
91.4091255273
11
-48.1431220266
21
91.4093269921
62
2
0
LINE
8
Setbacks
10
-48.1431220266
20
91.4093269921
11
-48.1426252081
21
91.4094526249
62
2
0
LINE
8
Setbacks
10
-48.1426252081
20
91.4094526249
11
-47.2199368584
21
91.5673676562
62
2
0
LINE
8
Setbacks
10
-47.2199368584
20
91.5673676562
11
-47.2194299169
21
91.5674143458
62
2
0
LINE
8
Setbacks
10
-47.2194299169
20
91.5674143458
11
-47.2189218555
21
91.5673820485
62
2
0
LINE
8
Setbacks
10
-47.2189218555
20
91.5673820485
11
-47.1391593010
21
91.5560484221
62
2
0
LINE
8
Setbacks
10
2.8518660242
20
63.7948903176
11
8.6795029459
21
83.8315698248
62
2
0
LINE
8
Setbacks
10
8.6795029459
20
83.8315698248
11
-19.9398272945
21
92.1554573887
62
2
0
LINE
8
Setbacks
10
-19.9398272945
20
92.1554573887
11
-22.2827280650
21
84.1000550956
62
2
0
LINE
8
Setbacks
10
-22.2827280650
20
84.1000550956
11
-21.7643372208
21
83.8489603008
62
2
0
LINE
8
Setbacks
10
-21.7643372208
20
83.8489603008
11
-21.7638974749
21
83.8487033757
62
2
0
LINE
8
Setbacks
10
-21.7638974749
20
83.8487033757
11
-21.7635027907
21
83.8483814884
62
2
0
LINE
8
Setbacks
10
-21.7635027907
20
83.8483814884
11
-21.0863741601
21
83.2024142761
62
2
0
LINE
8
Setbacks
10
-21.0863741601
20
83.2024142761
11
-21.0860319130
21
83.2020323913
62
2
0
LINE
8
Setbacks
10
-21.0860319130
20
83.2020323913
11
-21.0857533538
21
83.2016018407
62
2
0
LINE
8
Setbacks
10
-21.0857533538
20
83.2016018407
11
-20.6421762399
21
82.3819033236
62
2
0
LINE
8
Setbacks
10
-20.6421762399
20
82.3819033236
11
-20.6419667352
21
82.3814305445
62
2
0
LINE
8
Setbacks
10
-20.6419667352
20
82.3814305445
11
-20.6418341196
21
82.3809307191
62
2
0
LINE
8
Setbacks
10
-20.6418341196
20
82.3809307191
11
-20.4752294555
21
81.4677394169
62
2
0
LINE
8
Setbacks
10
-20.4752294555
20
81.4677394169
11
-20.4751769465
21
81.4672214799
62
2
0
LINE
8
Setbacks
10
-20.4751769465
20
81.4672214799
11
-20.4752070238
21
81.4667017576
62
2
0
LINE
8
Setbacks
10
-20.4752070238
20
81.4667017576
11
-20.6018828809
21
80.5494064527
62
2
0
LINE
8
Setbacks
10
-20.6018828809
20
80.5494064527
11
-20.6019951632
21
80.5488967995
62
2
0
LINE
8
Setbacks
10
-20.6019951632
20
80.5488967995
11
-23.3884792060
21
71.4268536309
62
2
0
LINE
8
Setbacks
10
-82.4841813974
20
71.8077480231
11
-87.3856889901
21
55.5289181982
62
2
0
LINE
8
Setbacks
10
-87.3856889901
20
55.5289181982
11
-62.2413908540
21
47.9580443435
62
2
0
LINE
8
Setbacks
10
-62.2413908540
20
47.9580443435
11
-59.7737223940
21
56.1536363174
62
2
0
LINE
8
Setbacks
10
-59.7737223940
20
56.1536363174
11
-59.8781898130
21
56.7264098575
62
2
0
LINE
8
Setbacks
10
-59.8781898130
20
56.7264098575
11
-59.8782422935
21
56.7269277219
62
2
0
LINE
8
Setbacks
10
-59.8782422935
20
56.7269277219
11
-59.8782122115
21
56.7274473686
62
2
0
LINE
8
Setbacks
10
-59.8782122115
20
56.7274473686
11
-59.7515261839
21
57.6447767943
62
2
0
LINE
8
Setbacks
10
-59.7515261839
20
57.6447767943
11
-59.7514139042
21
57.6452864286
62
2
0
LINE
8
Setbacks
10
-59.7514139042
20
57.6452864286
11
-57.7043762892
21
64.3466218916
62
2
0
LINE
8
Setbacks
10
-27.9248846974
20
55.6180313204
11
-32.8263922967
21
39.3392018009
62
2
0
LINE
8
Setbacks
10
-32.8263922967
20
39.3392018009
11
-7.6820941606
21
31.7683279462
62
2
0
LINE
8
Setbacks
10
-7.6820941606
20
31.7683279462
11
-2.7805865150
21
48.0471576193
62
2
0
LINE
8
Setbacks
10
-97.3651643017
20
100.3090656329
11
-104.0071865727
21
77.5547351971
62
2
0
LINE
8
Setbacks
10
-104.0071865727
20
77.5547351971
11
-94.2876497747
21
74.7175878475
62
2
0
LINE
8
Setbacks
10
-94.2876497747
20
74.7175878475
11
-87.6456274918
21
97.4719186514
62
2
0
LINE
8
Setbacks
10
-40.3771244804
20
93.2978157775
11
-42.1704816286
21
87.1318644161
62
2
0
LINE
8
Setbacks
10
-42.1704816286
20
87.1318644161
11
-42.1706704147
21
87.1313688127
62
2
0
LINE
8
Setbacks
10
-42.1706704147
20
87.1313688127
11
-42.5628393905
21
86.3087582220
62
2
0
LINE
8
Setbacks
10
-42.5628393905
20
86.3087582220
11
-42.5631039119
21
86.3083018901
62
2
0
LINE
8
Setbacks
10
-42.5631039119
20
86.3083018901
11
-42.5634381412
21
86.3078938447
62
2
0
LINE
8
Setbacks
10
-42.5634381412
20
86.3078938447
11
-43.1991294346
21
85.6480394928
62
2
0
LINE
8
Setbacks
10
-43.1991294346
20
85.6480394928
11
-43.1995185406
21
85.6476949325
62
2
0
LINE
8
Setbacks
10
-43.1995185406
20
85.6476949325
11
-43.1999571764
21
85.6474161423
62
2
0
LINE
8
Setbacks
10
-43.1999571764
20
85.6474161423
11
-44.0169447353
21
85.2149095668
62
2
0
LINE
8
Setbacks
10
-44.0169447353
20
85.2149095668
11
-44.0174129502
21
85.2147066039
62
2
0
LINE
8
Setbacks
10
-44.0174129502
20
85.2147066039
11
-44.0179069750
21
85.2145787033
62
2
0
LINE
8
Setbacks
10
-44.0179069750
20
85.2145787033
11
-44.9362186841
21
85.0517561915
62
2
0
LINE
8
Setbacks
10
-44.9362186841
20
85.0517561915
11
-44.9367190218
21
85.0517066055
62
2
0
LINE
8
Setbacks
10
-44.9367190218
20
85.0517066055
11
-44.9372210608
21
85.0517340532
62
2
0
LINE
8
Setbacks
10
-44.9372210608
20
85.0517340532
11
-45.0928190479
21
85.0722851565
62
2
0
LINE
8
Setbacks
10
-45.0928190479
20
85.0722851565
11
-48.4598505783
21
74.0497193448
62
2
0
LINE
8
Setbacks
10
-48.4598505783
20
74.0497193448
11
-30.5399321913
21
68.5757739017
62
2
0
LINE
8
Setbacks
10
-30.5399321913
20
68.5757739017
11
-27.1842799950
21
79.5610876779
62
2
0
LINE
8
Setbacks
10
-27.1842799950
20
79.5610876779
11
-27.6354138921
21
79.7714345625
62
2
0
LINE
8
Setbacks
10
-27.6354138921
20
79.7714345625
11
-27.6358515911
21
79.7716810785
62
2
0
LINE
8
Setbacks
10
-27.6358515911
20
79.7716810785
11
-27.6362465250
21
79.7719915262
62
2
0
LINE
8
Setbacks
10
-27.6362465250
20
79.7719915262
11
-28.3236176100
21
80.4031926619
62
2
0
LINE
8
Setbacks
10
-28.3236176100
20
80.4031926619
11
-28.3239650415
21
80.4035654287
62
2
0
LINE
8
Setbacks
10
-28.3239650415
20
80.4035654287
11
-28.3242505600
21
80.4039874986
62
2
0
LINE
8
Setbacks
10
-28.3242505600
20
80.4039874986
11
-28.7815396166
21
81.2082017631
62
2
0
LINE
8
Setbacks
10
-28.7815396166
20
81.2082017631
11
-28.7817596552
21
81.2086717737
62
2
0
LINE
8
Setbacks
10
-28.7817596552
20
81.2086717737
11
-28.7819028270
21
81.2091706010
62
2
0
LINE
8
Setbacks
10
-28.7819028270
20
81.2091706010
11
-28.9643477147
21
82.1076758791
62
2
0
LINE
8
Setbacks
10
-28.9643477147
20
82.1076758791
11
-28.9644107645
21
82.1081990616
62
2
0
LINE
8
Setbacks
10
-28.9644107645
20
82.1081990616
11
-28.9643892389
21
82.1087255898
62
2
0
LINE
8
Setbacks
10
-28.9643892389
20
82.1087255898
11
-28.8541307052
21
83.0135697788
62
2
0
LINE
8
Setbacks
10
-28.8541307052
20
83.0135697788
11
-28.8540242531
21
83.0140891914
62
2
0
LINE
8
Setbacks
10
-28.8540242531
20
83.0140891914
11
-27.0487407308
21
89.2210450987
62
2
0
LINE
8
Setbacks
10
-27.0487407308
20
89.2210450987
11
-27.0485519446
21
89.2215407020
62
2
0
LINE
8
Setbacks
10
-27.0485519446
20
89.2215407020
11
-27.0465401918
21
89.2257605392
62
2
0
LINE
8
Setbacks
10
-37.4599232918
20
45.9219730054
11
-31.3922389192
21
65.7855981221
62
2
0
LINE
8
Setbacks
10
-31.3922389192
20
65.7855981221
11
-49.3121573063
21
71.2595435652
62
2
0
LINE
8
Setbacks
10
-49.3121573063
20
71.2595435652
11
-53.5981239969
21
57.2286829406
62
2
0
LINE
8
Setbacks
10
-53.5981239969
20
57.2286829406
11
-53.4935892803
21
56.6881404972
62
2
0
LINE
8
Setbacks
10
-53.4935892803
20
56.6881404972
11
-53.4935310933
21
56.6876165748
62
2
0
LINE
8
Setbacks
10
-53.4935310933
20
56.6876165748
11
-53.4935575657
21
56.6870900964
62
2
0
LINE
8
Setbacks
10
-53.4935575657
20
56.6870900964
11
-53.6123121627
21
55.7834066685
62
2
0
LINE
8
Setbacks
10
-53.6123121627
20
55.7834066685
11
-53.6124235113
21
55.7828882303
62
2
0
LINE
8
Setbacks
10
-53.6124235113
20
55.7828882303
11
-54.9709363689
21
51.2710114746
62
2
0
LINE
8
Setbacks
10
15.2624367434
20
67.1233329437
11
8.6204144724
21
44.3690025080
62
2
0
LINE
8
Setbacks
10
8.6204144724
20
44.3690025080
11
18.3399512703
21
41.5318554862
62
2
0
LINE
8
Setbacks
10
18.3399512703
20
41.5318554862
11
24.9819734650
21
64.2861859879
62
2
0
LINE
8
Inverters
10
-119.4296882919
20
-35.5319124725
11
-116.9690582919
21
-35.5319124725
0
LINE
8
Inverters
10
-116.9690582919
20
-35.5319124725
11
-116.9690582919
21
-33.0712824725
0
LINE
8
Inverters
10
-116.9690582919
20
-33.0712824725
11
-119.4296882919
21
-33.0712824725
0
LINE
8
Inverters
10
-119.4296882919
20
-33.0712824725
11
-119.4296882919
21
-35.5319124725
0
LINE
8
Inverters
10
-119.4296882919
20
-35.5319124725
11
-116.9690582919
21
-33.0712824725
0
TEXT
8
Inverters
100
AcDbText
10
-119.2656462919
20
-33.9899176725
1
DC
7
NewTextStyle_4
40
0.7545932000000003
50
0
0
TEXT
8
Inverters
100
AcDbText
10
-118.4290320919
20
-35.3678704725
1
AC
7
NewTextStyle_4
40
0.7545932000000003
50
0
0
LINE
8
Inverters
10
-49.6949529144
20
4.8287086598
11
-47.2343229144
21
4.8287086598
0
LINE
8
Inverters
10
-47.2343229144
20
4.8287086598
11
-47.2343229144
21
7.2893386598
0
LINE
8
Inverters
10
-47.2343229144
20
7.2893386598
11
-49.6949529144
21
7.2893386598
0
LINE
8
Inverters
10
-49.6949529144
20
7.2893386598
11
-49.6949529144
21
4.8287086598
0
LINE
8
Inverters
10
-49.6949529144
20
4.8287086598
11
-47.2343229144
21
7.2893386598
0
TEXT
8
Inverters
100
AcDbText
10
-49.5309109144
20
6.3707034598
1
DC
7
NewTextStyle_4
40
0.7545932000000003
50
0
0
TEXT
8
Inverters
100
AcDbText
10
-48.6942967144
20
4.9927506598
1
AC
7
NewTextStyle_4
40
0.7545932000000003
50
0
0
LINE
8
Inverters
10
7.9616001776
20
80.2578922858
11
10.4222301776
21
80.2578922858
0
LINE
8
Inverters
10
10.4222301776
20
80.2578922858
11
10.4222301776
21
82.7185222858
0
LINE
8
Inverters
10
10.4222301776
20
82.7185222858
11
7.9616001776
21
82.7185222858
0
LINE
8
Inverters
10
7.9616001776
20
82.7185222858
11
7.9616001776
21
80.2578922858
0
LINE
8
Inverters
10
7.9616001776
20
80.2578922858
11
10.4222301776
21
82.7185222858
0
TEXT
8
Inverters
100
AcDbText
10
8.1256421776
20
81.7998870858
1
DC
7
NewTextStyle_4
40
0.7545932000000003
50
0
0
TEXT
8
Inverters
100
AcDbText
10
8.9622563776
20
80.4219342858
1
AC
7
NewTextStyle_4
40
0.7545932000000003
50
0
0
LINE
8
Strings
10
-111.8965914118
20
-36.1313568786
11
-108.5918585778
21
-37.0918892626
62
11
0
LINE
8
Strings
10
-108.5918585778
20
-37.0918892626
11
-105.2871257438
21
-38.0560738587
62
11
0
LINE
8
Strings
10
-105.2871257438
20
-38.0560738587
11
-101.9852591117
21
-39.0166062402
62
11
0
LINE
8
Strings
10
-101.9852591117
20
-39.0166062402
11
-98.6805262736
21
-39.9771386242
62
11
0
LINE
8
Strings
10
-98.6805262736
20
-39.9771386242
11
-95.3757934396
21
-40.9376710056
62
11
0
LINE
8
Strings
10
-95.3757934396
20
-40.9376710056
11
-97.1184452747
21
-46.9236503769
62
11
0
LINE
8
Strings
10
-97.1184452747
20
-46.9236503769
11
-100.4203119069
21
-45.9631179955
62
11
0
LINE
8
Strings
10
-100.4203119069
20
-45.9631179955
11
-103.7250447408
21
-45.0025856115
62
11
0
LINE
8
Strings
10
-103.7250447408
20
-45.0025856115
11
-107.0297775748
21
-44.0420532300
62
11
0
LINE
8
Strings
10
-107.0297775748
20
-44.0420532300
11
-110.3316442070
21
-43.0815208486
62
11
0
LINE
8
Strings
10
-110.3316442070
20
-43.0815208486
11
-113.6363770450
21
-42.1173362499
62
11
0
LINE
8
Strings
10
-113.6363770450
20
-42.1173362499
11
-115.3790288760
21
-48.1069678359
62
11
0
LINE
8
Strings
10
-115.3790288760
20
-48.1069678359
11
-112.0742960420
21
-49.0675002199
62
11
0
LINE
8
Strings
10
-112.0742960420
20
-49.0675002199
11
-108.7695632040
21
-50.0280326013
62
11
0
LINE
8
Strings
10
-105.4676965759
20
-50.9885649828
11
-102.1629637379
21
-51.9490973668
62
11
0
LINE
8
Strings
10
-102.1629637379
20
-51.9490973668
11
-98.8582309039
21
-52.9096297482
62
11
0
LINE
8
Strings
10
-98.8582309039
20
-52.9096297482
11
-91.0879527437
21
-73.6213375080
62
11
0
LINE
8
Strings
10
-91.0879527437
20
-73.6213375080
11
-87.7975509273
21
-74.6256964631
62
11
0
LINE
8
Strings
10
-87.7975509273
20
-74.6256964631
11
-84.5071491108
21
-75.6337076328
62
11
0
LINE
8
Strings
10
-84.5071491108
20
-75.6337076328
11
-81.2167472943
21
-76.6380665878
62
11
0
LINE
8
Strings
10
-81.2167472943
20
-76.6380665878
11
-77.9263454738
21
-77.6424255429
62
11
0
LINE
8
Strings
10
-77.9263454738
20
-77.6424255429
11
-79.7177227733
21
-83.5078818400
62
11
0
LINE
8
Strings
10
-79.7177227733
20
-83.5078818400
11
-83.0081245898
21
-82.5035228849
62
11
0
LINE
8
Strings
10
-83.0081245898
20
-82.5035228849
11
-86.3013926081
21
-81.4991639299
62
11
0
LINE
8
Strings
10
-86.3013926081
20
-81.4991639299
11
-89.5917944287
21
-80.4911527602
62
11
0
LINE
8
Strings
10
-89.5917944287
20
-80.4911527602
11
-92.8821962451
21
-79.4867938051
62
11
0
LINE
8
Strings
10
-92.8821962451
20
-79.4867938051
11
-60.1472840887
21
-64.6989777722
62
11
0
LINE
8
Strings
10
-60.1472840887
20
-64.6989777722
11
-56.8454174566
21
-65.6631623709
62
11
0
LINE
8
Strings
10
-53.5406846226
20
-66.6236947523
11
-50.2359517845
21
-67.5842271337
62
11
0
LINE
8
Strings
10
-50.2359517845
20
-67.5842271337
11
-46.9340851565
21
-68.5447595178
62
11
0
LINE
8
Strings
10
-46.9340851565
20
-68.5447595178
11
-43.6293523184
21
-69.5052918992
62
11
0
LINE
8
Strings
10
-43.6293523184
20
-69.5052918992
11
-41.8895666893
21
-63.5193125279
62
11
0
LINE
8
Strings
10
-41.8895666893
20
-63.5193125279
11
-45.1914333214
21
-62.5587801465
62
11
0
LINE
8
Strings
10
-45.1914333214
20
-62.5587801465
11
-48.4961661554
21
-61.5982477624
62
11
0
LINE
8
Strings
10
-48.4961661554
20
-61.5982477624
11
-51.7980327875
21
-60.6377153810
62
11
0
LINE
8
Strings
10
-51.7980327875
20
-60.6377153810
11
-55.1027656256
21
-59.6735307849
62
11
0
LINE
8
Strings
10
-55.1027656256
20
-59.6735307849
11
-58.4074984596
21
-58.7129984009
62
11
0
LINE
8
Strings
10
-58.4074984596
20
-58.7129984009
11
-56.6648466245
21
-52.7270190296
62
11
0
LINE
8
Strings
10
-56.6648466245
20
-52.7270190296
11
-53.3629799924
21
-53.6875514110
62
11
0
LINE
8
Strings
10
-53.3629799924
20
-53.6875514110
11
-50.0582471584
21
-54.6480837950
62
11
0
LINE
8
Strings
10
-50.0582471584
20
-54.6480837950
11
-46.7535143244
21
-55.6086161765
62
11
0
LINE
8
Strings
10
-46.7535143244
20
-55.6086161765
11
-43.4516476923
21
-56.5728007726
62
11
0
LINE
8
Strings
10
-43.4516476923
20
-56.5728007726
11
-40.1469148542
21
-57.5333331566
62
11
0
LINE
8
Strings
10
-54.7272929438
20
8.0166105669
11
-58.0119623525
21
9.0428828100
62
11
0
LINE
8
Strings
10
-58.0119623525
20
9.0428828100
11
-61.2966317612
21
10.0655028359
62
11
0
LINE
8
Strings
10
-61.2966317612
20
10.0655028359
11
-64.5813011739
21
11.0881228618
62
11
0
LINE
8
Strings
10
-64.5813011739
20
11.0881228618
11
-67.8688367844
21
12.1107428902
62
11
0
LINE
8
Strings
10
-67.8688367844
20
12.1107428902
11
-71.1535061971
21
13.1333629161
62
11
0
LINE
8
Strings
10
-71.1535061971
20
13.1333629161
11
-74.4381756058
21
14.1559829419
62
11
0
LINE
8
Strings
10
-74.4381756058
20
14.1559829419
11
-77.7228450144
21
15.1822551851
62
11
0
LINE
8
Strings
10
-77.7228450144
20
15.1822551851
11
-81.0075144231
21
16.2048752109
62
11
0
LINE
8
Strings
10
-81.0075144231
20
16.2048752109
11
-84.2921838358
21
17.2274952394
62
11
0
LINE
8
Strings
10
-84.2921838358
20
17.2274952394
11
-87.5768532445
21
18.2501152653
62
11
0
LINE
8
Strings
10
-87.5768532445
20
18.2501152653
11
-90.8615226531
21
19.2727352911
62
11
0
LINE
8
Strings
10
-89.0386171167
20
25.1308871615
11
-85.7539477080
21
24.1046149183
62
11
0
LINE
8
Strings
10
-85.7539477080
20
24.1046149183
11
-82.4692782994
21
23.0819948925
62
11
0
LINE
8
Strings
10
-82.4692782994
20
23.0819948925
11
-79.1846088867
21
22.0593748666
62
11
0
LINE
8
Strings
10
-79.1846088867
20
22.0593748666
11
-75.8970732761
21
21.0367548381
62
11
0
LINE
8
Strings
10
-75.8970732761
20
21.0367548381
11
-72.6124038634
21
20.0141348123
62
11
0
LINE
8
Strings
10
-72.6124038634
20
20.0141348123
11
-69.3277344548
21
18.9915147838
62
11
0
LINE
8
Strings
10
-69.3277344548
20
18.9915147838
11
-66.0430650461
21
17.9652425433
62
11
0
LINE
8
Strings
10
-66.0430650461
20
17.9652425433
11
-62.7583956374
21
16.9426225174
62
11
0
LINE
8
Strings
10
-62.7583956374
20
16.9426225174
11
-59.4737262247
21
15.9200024890
62
11
0
LINE
8
Strings
10
-59.4737262247
20
15.9200024890
11
-56.1890568161
21
14.8973824631
62
11
0
LINE
8
Strings
10
-56.1890568161
20
14.8973824631
11
-52.9043874074
21
13.8747624346
62
11
0
LINE
8
Strings
10
-51.0786156650
20
19.7292620903
11
-54.3632850777
21
20.7518821162
62
11
0
LINE
8
Strings
10
-54.3632850777
20
20.7518821162
11
-57.6508206883
21
21.7781543567
62
11
0
LINE
8
Strings
10
-57.6508206883
20
21.7781543567
11
-60.9354901010
21
22.8007743852
62
11
0
LINE
8
Strings
10
-60.9354901010
20
22.8007743852
11
-64.2201595097
21
23.8233944110
62
11
0
LINE
8
Strings
10
-64.2201595097
20
23.8233944110
11
-67.5048289183
21
24.8460144395
62
11
0
LINE
8
Strings
10
-67.5048289183
20
24.8460144395
11
-70.7894983270
21
25.8686344653
62
11
0
LINE
8
Strings
10
-70.7894983270
20
25.8686344653
11
-74.0741677397
21
26.8912544912
62
11
0
LINE
8
Strings
10
-74.0741677397
20
26.8912544912
11
-77.3588371483
21
27.9175267343
62
11
0
LINE
8
Strings
10
-77.3588371483
20
27.9175267343
11
-80.6435065570
21
28.9401467602
62
11
0
LINE
8
Strings
10
-80.6435065570
20
28.9401467602
11
-83.9281759697
21
29.9627667887
62
11
0
LINE
8
Strings
10
-83.9281759697
20
29.9627667887
11
-87.2128453784
21
30.9853868145
62
11
0
LINE
8
Strings
10
2.8919995034
20
83.3179666894
11
-0.4127333305
21
84.2784990734
62
11
0
LINE
8
Strings
10
-0.4127333305
20
84.2784990734
11
-3.7145999627
21
85.2426836695
62
11
0
LINE
8
Strings
10
-3.7145999627
20
85.2426836695
11
-7.0193327967
21
86.2032160509
62
11
0
LINE
8
Strings
10
-7.0193327967
20
86.2032160509
11
-10.3240656347
21
87.1637484350
62
11
0
LINE
8
Strings
10
-10.3240656347
20
87.1637484350
11
-13.6259322668
21
88.1242808164
62
11
0
LINE
8
Strings
10
-13.6259322668
20
88.1242808164
11
-15.3685840978
21
82.1383014451
62
11
0
LINE
8
Strings
10
-15.3685840978
20
82.1383014451
11
-12.0638512639
21
81.1777690637
62
11
0
LINE
8
Strings
10
-12.0638512639
20
81.1777690637
11
-8.7591184299
21
80.2135844650
62
11
0
LINE
8
Strings
10
-8.7591184299
20
80.2135844650
11
-5.4572517977
21
79.2530520835
62
11
0
LINE
8
Strings
10
-5.4572517977
20
79.2530520835
11
-2.1525189597
21
78.2925197021
62
11
0
LINE
8
Strings
10
-2.1525189597
20
78.2925197021
11
1.1493476724
21
77.3319873181
62
11
0
LINE
8
Strings
10
1.1493476724
20
77.3319873181
11
-0.5904379567
21
71.3460079468
62
11
0
LINE
8
Strings
10
-0.5904379567
20
71.3460079468
11
-3.8951707948
21
72.3065403282
62
11
0
LINE
8
Strings
10
-3.8951707948
20
72.3065403282
11
-7.1970374269
21
73.2670727122
62
11
0
LINE
8
Strings
10
-10.5017702609
20
74.2276050937
11
-13.8065030949
21
75.1881374777
62
11
0
LINE
8
Strings
10
-13.8065030949
20
75.1881374777
11
-17.1083697270
21
76.1523220738
62
11
0
LINE
8
Strings
10
-17.1083697270
20
76.1523220738
11
-34.9189593571
21
63.3074840918
62
11
0
LINE
8
Strings
10
-34.9189593571
20
63.3074840918
11
-38.2093611736
21
64.3118430468
62
11
0
LINE
8
Strings
10
-38.2093611736
20
64.3118430468
11
-41.4997629900
21
65.3198542165
62
11
0
LINE
8
Strings
10
-41.4997629900
20
65.3198542165
11
-44.7901648065
21
66.3242131716
62
11
0
LINE
8
Strings
10
-44.7901648065
20
66.3242131716
11
-48.0805666230
21
67.3285721266
62
11
0
LINE
8
Strings
10
-48.0805666230
20
67.3285721266
11
-49.8719439184
21
61.4631158295
62
11
0
LINE
8
Strings
10
-49.8719439184
20
61.4631158295
11
-46.5815421020
21
60.4587568745
62
11
0
LINE
8
Strings
10
-46.5815421020
20
60.4587568745
11
-43.2911402855
21
59.4507457048
62
11
0
LINE
8
Strings
10
-43.2911402855
20
59.4507457048
11
-40.0007384690
21
58.4463867497
62
11
0
LINE
8
Strings
10
-40.0007384690
20
58.4463867497
11
-36.7103366525
21
57.4420277947
62
11
0
LINE
8
Strings
10
-36.7103366525
20
57.4420277947
11
-55.5269637677
21
87.3974901540
62
11
0
LINE
8
Strings
10
-55.5269637677
20
87.3974901540
11
-58.8316966017
21
88.3580225380
62
11
0
LINE
8
Strings
10
-62.1335632338
20
89.3222071341
11
-65.4382960719
21
90.2827395155
62
11
0
LINE
8
Strings
10
-65.4382960719
20
90.2827395155
11
-68.7430289059
21
91.2432718996
62
11
0
LINE
8
Strings
10
-68.7430289059
20
91.2432718996
11
-72.0448955380
21
92.2038042810
62
11
0
LINE
8
Strings
10
-72.0448955380
20
92.2038042810
11
-70.3051099088
21
98.1897836523
62
11
0
LINE
8
Strings
10
-70.3051099088
20
98.1897836523
11
-67.0003770708
21
97.2292512709
62
11
0
LINE
8
Strings
10
-67.0003770708
20
97.2292512709
11
-63.6956442368
21
96.2687188868
62
11
0
LINE
8
Strings
10
-63.6956442368
20
96.2687188868
11
-60.3937776047
21
95.3081865054
62
11
0
LINE
8
Strings
10
-60.3937776047
20
95.3081865054
11
-57.0890447707
21
94.3476541240
62
11
0
LINE
8
Strings
10
-57.0890447707
20
94.3476541240
11
-53.7843119326
21
93.3834695253
62
11
0
LINE
8
Strings
10
-53.7843119326
20
93.3834695253
11
-52.0445263035
21
99.3731011113
62
11
0
LINE
8
Strings
10
-52.0445263035
20
99.3731011113
11
-55.3492591415
21
100.3336334953
62
11
0
LINE
8
Strings
10
-55.3492591415
20
100.3336334953
11
-58.6511257737
21
101.2941658767
62
11
0
LINE
8
Strings
10
-58.6511257737
20
101.2941658767
11
-61.9558586076
21
102.2546982607
62
11
0
LINE
8
Strings
10
-61.9558586076
20
102.2546982607
11
-65.2605914416
21
103.2152306422
62
11
0
LINE
8
Strings
10
-65.2605914416
20
103.2152306422
11
-68.5624580738
21
104.1757630236
62
11
0
LINE
8
Connections
10
-110.2442249948
20
-36.6116230706
11
-110.1067860919
21
-36.1390783131
62
91
0
LINE
8
Connections
10
-110.1067860919
20
-36.1390783131
11
-110.5793308495
21
-36.0016394102
62
91
0
LINE
8
Connections
10
-110.5793308495
20
-36.0016394102
11
-117.5883929129
21
-33.9630646831
62
91
0
LINE
8
Connections
10
-117.5883929129
20
-33.9630646831
11
-117.5893896315
21
-33.9664916178
62
91
0
LINE
8
Connections
10
-117.5893896315
20
-33.9664916178
11
-117.7268285344
21
-34.4390363753
62
91
0
LINE
8
Connections
10
-117.7268285344
20
-34.4390363753
11
-118.1993732919
21
-34.3015974725
62
91
0
LINE
8
Connections
10
-103.8153301569
20
-51.4688311748
11
-103.6778912540
21
-50.9962864172
62
91
0
LINE
8
Connections
10
-103.6778912540
20
-50.9962864172
11
-104.1504360116
21
-50.8588475144
62
91
0
LINE
8
Connections
10
-104.1504360116
20
-50.8588475144
11
-121.0711353612
21
-45.9374886013
62
91
0
LINE
8
Connections
10
-121.0711353612
20
-45.9374886013
11
-117.8642674372
21
-34.9115811328
62
91
0
LINE
8
Connections
10
-117.8642674372
20
-34.9115811328
11
-117.7268285344
21
-34.4390363753
62
91
0
LINE
8
Connections
10
-117.7268285344
20
-34.4390363753
11
-118.1993732919
21
-34.3015974725
62
91
0
LINE
8
Connections
10
-51.8883182036
20
-67.1039609430
11
-51.7508793007
21
-66.6314161855
62
91
0
LINE
8
Connections
10
-51.7508793007
20
-66.6314161855
11
-52.2234240582
21
-66.4939772826
62
91
0
LINE
8
Connections
10
-52.2234240582
20
-66.4939772826
11
-121.2138627197
21
-46.4282162163
62
91
0
LINE
8
Connections
10
-121.2138627197
20
-46.4282162163
11
-117.8642674372
21
-34.9115811328
62
91
0
LINE
8
Connections
10
-117.8642674372
20
-34.9115811328
11
-117.7268285344
21
-34.4390363753
62
91
0
LINE
8
Connections
10
-117.7268285344
20
-34.4390363753
11
-118.1993732919
21
-34.3015974725
62
91
0
LINE
8
Connections
10
-56.3696276482
20
8.5297466885
11
-56.2232712511
21
8.9996060343
62
91
0
LINE
8
Connections
10
-56.2232712511
20
8.9996060343
11
-55.7534119052
21
8.8532496372
62
91
0
LINE
8
Connections
10
-55.7534119052
20
8.8532496372
11
-48.7857559640
21
6.6828958305
62
91
0
LINE
8
Connections
10
-48.7857559640
20
6.6828958305
11
-48.7881408632
21
6.6752394028
62
91
0
LINE
8
Connections
10
-48.7881408632
20
6.6752394028
11
-48.9344972603
21
6.2053800569
62
91
0
LINE
8
Connections
10
-48.9344972603
20
6.2053800569
11
-48.4646379144
21
6.0590236598
62
91
0
LINE
8
Connections
10
-87.3962824124
20
24.6177510399
11
-87.5426388095
21
24.1478916940
62
91
0
LINE
8
Connections
10
-87.5426388095
20
24.1478916940
11
-87.0727794636
21
24.0015352969
62
91
0
LINE
8
Connections
10
-87.0727794636
20
24.0015352969
11
-47.2545735604
21
11.5985700117
62
91
0
LINE
8
Connections
10
-47.2545735604
20
11.5985700117
11
-48.7881408632
21
6.6752394028
62
91
0
LINE
8
Connections
10
-48.7881408632
20
6.6752394028
11
-48.9344972603
21
6.2053800569
62
91
0
LINE
8
Connections
10
-48.9344972603
20
6.2053800569
11
-48.4646379144
21
6.0590236598
62
91
0
LINE
8
Connections
10
-52.7209503714
20
20.2405721032
11
-52.8673067685
21
19.7707127574
62
91
0
LINE
8
Connections
10
-52.8673067685
20
19.7707127574
11
-52.3974474226
21
19.6243563602
62
91
0
LINE
8
Connections
10
-52.3974474226
20
19.6243563602
11
-45.4305886592
21
17.4542508663
62
91
0
LINE
8
Connections
10
-45.4305886592
20
17.4542508663
11
-48.7881408632
21
6.6752394028
62
91
0
LINE
8
Connections
10
-48.7881408632
20
6.6752394028
11
-48.9344972603
21
6.2053800569
62
91
0
LINE
8
Connections
10
-48.9344972603
20
6.2053800569
11
-48.4646379144
21
6.0590236598
62
91
0
LINE
8
Connections
10
1.2396330865
20
83.7982328814
11
1.1021941836
21
83.3256881239
62
91
0
LINE
8
Connections
10
1.1021941836
20
83.3256881239
11
1.5747389411
21
83.1882492210
62
91
0
LINE
8
Connections
10
1.5747389411
20
83.1882492210
11
8.5811583477
21
81.1504431066
62
91
0
LINE
8
Connections
10
8.5811583477
20
81.1504431066
11
8.5819315172
21
81.1531014312
62
91
0
LINE
8
Connections
10
8.5819315172
20
81.1531014312
11
8.7193704201
21
81.6256461887
62
91
0
LINE
8
Connections
10
8.7193704201
20
81.6256461887
11
9.1919151776
21
81.4882072858
62
91
0
LINE
8
Connections
10
-12.1541366779
20
74.7078712857
11
-12.0166977750
21
75.1804160432
62
91
0
LINE
8
Connections
10
-12.0166977750
20
75.1804160432
11
-11.5441530175
21
75.0429771403
62
91
0
LINE
8
Connections
10
-11.5441530175
20
75.0429771403
11
5.3736840296
21
70.1224507234
62
91
0
LINE
8
Connections
10
5.3736840296
20
70.1224507234
11
8.5819315172
21
81.1531014312
62
91
0
LINE
8
Connections
10
8.5819315172
20
81.1531014312
11
8.7193704201
21
81.6256461887
62
91
0
LINE
8
Connections
10
8.7193704201
20
81.6256461887
11
9.1919151776
21
81.4882072858
62
91
0
LINE
8
Connections
10
-63.7859296528
20
89.8024733248
11
-63.6484907500
21
90.2750180823
62
91
0
LINE
8
Connections
10
-63.6484907500
20
90.2750180823
11
-63.1759459925
21
90.1375791795
62
91
0
LINE
8
Connections
10
-63.1759459925
20
90.1375791795
11
5.3944870688
21
70.1939760843
62
91
0
LINE
8
Connections
10
5.3944870688
20
70.1939760843
11
8.5819315172
21
81.1531014312
62
91
0
LINE
8
Connections
10
8.5819315172
20
81.1531014312
11
8.7193704201
21
81.6256461887
62
91
0
LINE
8
Connections
10
8.7193704201
20
81.6256461887
11
9.1919151776
21
81.4882072858
62
91
0
ENDSEC
0
EOF