999
Design created by Aurora
0
SECTION
2
HEADER
9
$ACADVER
1
AC1009
9
$INSUNITS
70
2
0
ENDSEC
0
SECTION
2
TABLES
0
TABLE
2
LTYPE
100
AcDbLinetypeTableRecord
2
LTYPE
0
LTYPE
2
DASHED
70
0
3
dashed line
72
65
73
2
40
4.0
49
2.0
49
-2.0
0
ENDTAB
0
TABLE
2
LAYER
70
7
0
LAYER
100
AcDbSymbolTable
100
AcDbLayerTable
2
Obstructions
70
0
62
7
6
CONTINUOUS
0
LAYER
100
AcDbSymbolTable
100
AcDbLayerTable
2
Inverters
70
0
62
7
6
CONTINUOUS
0
LAYER
100
AcDbSymbolTable
100
AcDbLayerTable
2
Setbacks
70
0
62
7
6
CONTINUOUS
0
LAYER
100
AcDbSymbolTable
100
AcDbLayerTable
2
Connections
70
0
62
7
6
CONTINUOUS
0
LAYER
100
AcDbSymbolTable
100
AcDbLayerTable
2
Strings
70
0
62
7
6
CONTINUOUS
0
LAYER
100
AcDbSymbolTable
100
AcDbLayerTable
2
Modules
70
0
62
7
6
CONTINUOUS
0
LAYER
100
AcDbSymbolTable
100
AcDbLayerTable
2
Buildings
70
0
62
7
6
CONTINUOUS
0
ENDTAB
0
ENDSEC
0
SECTION
2
ENTITIES
0
LINE
8
Modules
10
-7.1229378657
20
9.0517378925
11
-13.1043042489
21
9.1023455833
62
254
0
LINE
8
Modules
10
-13.1043042489
20
9.1023455833
11
-13.1333111887
21
5.6739904934
62
254
0
LINE
8
Modules
10
-13.1333111887
20
5.6739904934
11
-7.1519448054
21
5.6233828026
62
254
0
LINE
8
Modules
10
-7.1519448054
20
5.6233828026
11
-7.1229378657
21
9.0517378925
62
254
0
LINE
8
Modules
10
-10.5347451193
20
7.7764242444
11
-10.5416845786
21
6.9562436008
62
254
0
LINE
8
Modules
10
-10.5416845786
20
6.9562436008
11
-9.7215039351
21
6.9493041416
62
254
0
LINE
8
Modules
10
-9.7215039351
20
6.9493041416
11
-9.7145644758
21
7.7694847851
62
254
0
LINE
8
Modules
10
-9.7145644758
20
7.7694847851
11
-10.5347451193
21
7.7764242444
62
254
0
LINE
8
Modules
10
-10.5347451193
20
7.7764242444
11
-9.7215039351
21
6.9493041416
62
254
0
TEXT
8
Modules
100
AcDbText
10
-10.0266494879
20
7.7229109410
1
DC
7
NewTextStyle_4
40
0.2624672000000003
50
-90.48476179493518
0
TEXT
8
Modules
100
AcDbText
10
-10.4883100644
20
7.4479356194
1
DC
7
NewTextStyle_4
40
0.2624672000000003
50
-90.48476179493518
0
LINE
8
Modules
10
-7.1520082558
20
5.5821342309
11
-13.1333746391
21
5.6327419216
62
254
0
LINE
8
Modules
10
-13.1333746391
20
5.6327419216
11
-13.1623815788
21
2.2043868317
62
254
0
LINE
8
Modules
10
-13.1623815788
20
2.2043868317
11
-7.1810151956
21
2.1537791409
62
254
0
LINE
8
Modules
10
-7.1810151956
20
2.1537791409
11
-7.1520082558
21
5.5821342309
62
254
0
LINE
8
Modules
10
-10.5638155094
20
4.3068205827
11
-10.5707549687
21
3.4866399392
62
254
0
LINE
8
Modules
10
-10.5707549687
20
3.4866399392
11
-9.7505743252
21
3.4797004799
62
254
0
LINE
8
Modules
10
-9.7505743252
20
3.4797004799
11
-9.7436348659
21
4.2998811234
62
254
0
LINE
8
Modules
10
-9.7436348659
20
4.2998811234
11
-10.5638155094
21
4.3068205827
62
254
0
LINE
8
Modules
10
-10.5638155094
20
4.3068205827
11
-9.7505743252
21
3.4797004799
62
254
0
TEXT
8
Modules
100
AcDbText
10
-10.0557198780
20
4.2533072793
1
DC
7
NewTextStyle_4
40
0.2624672000000003
50
-90.48476179493518
0
TEXT
8
Modules
100
AcDbText
10
-10.5173804545
20
3.9783319577
1
DC
7
NewTextStyle_4
40
0.2624672000000003
50
-90.48476179493518
0
LINE
8
Modules
10
-7.1810786460
20
2.1125305666
11
-13.1624450292
21
2.1631382573
62
254
0
LINE
8
Modules
10
-13.1624450292
20
2.1631382573
11
-13.1914519689
21
-1.2652168326
62
254
0
LINE
8
Modules
10
-13.1914519689
20
-1.2652168326
11
-7.2100855857
21
-1.3158245233
62
254
0
LINE
8
Modules
10
-7.2100855857
20
-1.3158245233
11
-7.1810786460
21
2.1125305666
62
254
0
LINE
8
Modules
10
-10.5928858996
20
0.8372169184
11
-10.5998253589
21
0.0170362749
62
254
0
LINE
8
Modules
10
-10.5998253589
20
0.0170362749
11
-9.7796447153
21
0.0100968156
62
254
0
LINE
8
Modules
10
-9.7796447153
20
0.0100968156
11
-9.7727052561
21
0.8302774591
62
254
0
LINE
8
Modules
10
-9.7727052561
20
0.8302774591
11
-10.5928858996
21
0.8372169184
62
254
0
LINE
8
Modules
10
-10.5928858996
20
0.8372169184
11
-9.7796447153
21
0.0100968156
62
254
0
TEXT
8
Modules
100
AcDbText
10
-10.0847902682
20
0.7837036150
1
DC
7
NewTextStyle_4
40
0.2624672000000003
50
-90.48476179493518
0
TEXT
8
Modules
100
AcDbText
10
-10.5464508447
20
0.5087282934
1
DC
7
NewTextStyle_4
40
0.2624672000000003
50
-90.48476179493518
0
LINE
8
Modules
10
-7.2101490402
20
-1.3570730951
11
-13.1915154235
21
-1.3064654043
62
254
0
LINE
8
Modules
10
-13.1915154235
20
-1.3064654043
11
-13.2205223632
21
-4.7348204942
62
254
0
LINE
8
Modules
10
-13.2205223632
20
-4.7348204942
11
-7.2391559800
21
-4.7854281850
62
254
0
LINE
8
Modules
10
-7.2391559800
20
-4.7854281850
11
-7.2101490402
21
-1.3570730951
62
254
0
LINE
8
Modules
10
-10.6219562938
20
-2.6323867433
11
-10.6288957531
21
-3.4525673868
62
254
0
LINE
8
Modules
10
-10.6288957531
20
-3.4525673868
11
-9.8087151096
21
-3.4595068461
62
254
0
LINE
8
Modules
10
-9.8087151096
20
-3.4595068461
11
-9.8017756503
21
-2.6393262025
62
254
0
LINE
8
Modules
10
-9.8017756503
20
-2.6393262025
11
-10.6219562938
21
-2.6323867433
62
254
0
LINE
8
Modules
10
-10.6219562938
20
-2.6323867433
11
-9.8087151096
21
-3.4595068461
62
254
0
TEXT
8
Modules
100
AcDbText
10
-10.1138606624
20
-2.6859000466
1
DC
7
NewTextStyle_4
40
0.2624672000000003
50
-90.48476179493518
0
TEXT
8
Modules
100
AcDbText
10
-10.5755212389
20
-2.9608753682
1
DC
7
NewTextStyle_4
40
0.2624672000000003
50
-90.48476179493518
0
LINE
8
Modules
10
-7.2392194304
20
-4.8303289715
11
-13.2205858136
21
-4.7797212807
62
254
0
LINE
8
Modules
10
-13.2205858136
20
-4.7797212807
11
-13.2495927533
21
-8.2080763706
62
254
0
LINE
8
Modules
10
-13.2495927533
20
-8.2080763706
11
-7.2682263701
21
-8.2586840614
62
254
0
LINE
8
Modules
10
-7.2682263701
20
-8.2586840614
11
-7.2392194304
21
-4.8303289715
62
254
0
LINE
8
Modules
10
-10.6510266840
20
-6.1056426196
11
-10.6579661432
21
-6.9258232632
62
254
0
LINE
8
Modules
10
-10.6579661432
20
-6.9258232632
11
-9.8377854997
21
-6.9327627224
62
254
0
LINE
8
Modules
10
-9.8377854997
20
-6.9327627224
11
-9.8308460405
21
-6.1125820789
62
254
0
LINE
8
Modules
10
-9.8308460405
20
-6.1125820789
11
-10.6510266840
21
-6.1056426196
62
254
0
LINE
8
Modules
10
-10.6510266840
20
-6.1056426196
11
-9.8377854997
21
-6.9327627224
62
254
0
TEXT
8
Modules
100
AcDbText
10
-10.1429310526
20
-6.1591559230
1
DC
7
NewTextStyle_4
40
0.2624672000000003
50
-90.48476179493518
0
TEXT
8
Modules
100
AcDbText
10
-10.6045916291
20
-6.4341312446
1
DC
7
NewTextStyle_4
40
0.2624672000000003
50
-90.48476179493518
0
LINE
8
Modules
10
-7.3729432357
20
-18.5626550490
11
-13.3543096190
21
-18.5120473582
62
254
0
LINE
8
Modules
10
-13.3543096190
20
-18.5120473582
11
-13.3833165587
21
-21.9404024481
62
254
0
LINE
8
Modules
10
-13.3833165587
20
-21.9404024481
11
-7.4019501755
21
-21.9910101389
62
254
0
LINE
8
Modules
10
-7.4019501755
20
-21.9910101389
11
-7.3729432357
21
-18.5626550490
62
254
0
LINE
8
Modules
10
-10.7847504893
20
-19.8379686972
11
-10.7916899486
21
-20.6581493407
62
254
0
LINE
8
Modules
10
-10.7916899486
20
-20.6581493407
11
-9.9715093051
21
-20.6650888000
62
254
0
LINE
8
Modules
10
-9.9715093051
20
-20.6650888000
11
-9.9645698458
21
-19.8449081564
62
254
0
LINE
8
Modules
10
-9.9645698458
20
-19.8449081564
11
-10.7847504893
21
-19.8379686972
62
254
0
LINE
8
Modules
10
-10.7847504893
20
-19.8379686972
11
-9.9715093051
21
-20.6650888000
62
254
0
TEXT
8
Modules
100
AcDbText
10
-10.2766548579
20
-19.8914820005
1
DC
7
NewTextStyle_4
40
0.2624672000000003
50
-90.48476179493518
0
TEXT
8
Modules
100
AcDbText
10
-10.7383154344
20
-20.1664573221
1
DC
7
NewTextStyle_4
40
0.2624672000000003
50
-90.48476179493518
0
LINE
8
Modules
10
-7.3438728415
20
-15.0893991700
11
-13.3252392247
21
-15.0387914793
62
254
0
LINE
8
Modules
10
-13.3252392247
20
-15.0387914793
11
-13.3542461644
21
-18.4671465692
62
254
0
LINE
8
Modules
10
-13.3542461644
20
-18.4671465692
11
-7.3728797812
21
-18.5177542600
62
254
0
LINE
8
Modules
10
-7.3728797812
20
-18.5177542600
11
-7.3438728415
21
-15.0893991700
62
254
0
LINE
8
Modules
10
-10.7556800951
20
-16.3647128182
11
-10.7626195543
21
-17.1848934617
62
254
0
LINE
8
Modules
10
-10.7626195543
20
-17.1848934617
11
-9.9424389108
21
-17.1918329210
62
254
0
LINE
8
Modules
10
-9.9424389108
20
-17.1918329210
11
-9.9354994515
21
-16.3716522775
62
254
0
LINE
8
Modules
10
-9.9354994515
20
-16.3716522775
11
-10.7556800951
21
-16.3647128182
62
254
0
LINE
8
Modules
10
-10.7556800951
20
-16.3647128182
11
-9.9424389108
21
-17.1918329210
62
254
0
TEXT
8
Modules
100
AcDbText
10
-10.2475844636
20
-16.4182261216
1
DC
7
NewTextStyle_4
40
0.2624672000000003
50
-90.48476179493518
0
TEXT
8
Modules
100
AcDbText
10
-10.7092450402
20
-16.6932014432
1
DC
7
NewTextStyle_4
40
0.2624672000000003
50
-90.48476179493518
0
LINE
8
Modules
10
-2.1160317117
20
-2.6780606769
11
-2.1496209027
21
-8.7490104968
62
254
0
LINE
8
Modules
10
-2.1496209027
20
-8.7490104968
11
1.2788044230
21
-8.7679791980
62
254
0
LINE
8
Modules
10
1.2788044230
20
-8.7679791980
11
1.3123936140
21
-2.6970293781
62
254
0
LINE
8
Modules
10
1.3123936140
20
-2.6970293781
11
-2.1160317117
21
-2.6780606769
62
254
0
LINE
8
Modules
10
-0.8309813509
20
-6.1308496772
11
-0.0107839046
21
-6.1353876440
62
254
0
LINE
8
Modules
10
-0.0107839046
20
-6.1353876440
11
-0.0062459378
21
-5.3151901976
62
254
0
LINE
8
Modules
10
-0.0062459378
20
-5.3151901976
11
-0.8264433841
21
-5.3106522309
62
254
0
LINE
8
Modules
10
-0.8264433841
20
-5.3106522309
11
-0.8309813509
21
-6.1308496772
62
254
0
LINE
8
Modules
10
-0.8309813509
20
-6.1308496772
11
-0.0062459378
21
-5.3151901976
62
254
0
TEXT
8
Modules
100
AcDbText
10
-0.7789559647
20
-5.6225995385
1
DC
7
NewTextStyle_4
40
0.2624672000000003
50
-0.31700134276998615
0
TEXT
8
Modules
100
AcDbText
10
-0.5026300944
20
-6.0834530171
1
DC
7
NewTextStyle_4
40
0.2624672000000003
50
-0.31700134276998615
0
LINE
8
Modules
10
1.3520660369
20
-2.6999739624
11
1.3184768459
21
-8.7709237823
62
254
0
LINE
8
Modules
10
1.3184768459
20
-8.7709237823
11
4.7469021716
21
-8.7898924835
62
254
0
LINE
8
Modules
10
4.7469021716
20
-8.7898924835
11
4.7804913626
21
-2.7189426636
62
254
0
LINE
8
Modules
10
4.7804913626
20
-2.7189426636
11
1.3520660369
21
-2.6999739624
62
254
0
LINE
8
Modules
10
2.6371163977
20
-6.1527629627
11
3.4573138440
21
-6.1573009295
62
254
0
LINE
8
Modules
10
3.4573138440
20
-6.1573009295
11
3.4618518108
21
-5.3371034832
62
254
0
LINE
8
Modules
10
3.4618518108
20
-5.3371034832
11
2.6416543645
21
-5.3325655164
62
254
0
LINE
8
Modules
10
2.6416543645
20
-5.3325655164
11
2.6371163977
21
-6.1527629627
62
254
0
LINE
8
Modules
10
2.6371163977
20
-6.1527629627
11
3.4618518108
21
-5.3371034832
62
254
0
TEXT
8
Modules
100
AcDbText
10
2.6891417839
20
-5.6445128240
1
DC
7
NewTextStyle_4
40
0.2624672000000003
50
-0.31700134276998615
0
TEXT
8
Modules
100
AcDbText
10
2.9654676542
20
-6.1053663026
1
DC
7
NewTextStyle_4
40
0.2624672000000003
50
-0.31700134276998615
0
LINE
8
Modules
10
4.8230708271
20
-2.7182350358
11
4.7894816360
21
-8.7891848557
62
254
0
LINE
8
Modules
10
4.7894816360
20
-8.7891848557
11
8.2179069617
21
-8.8081535569
62
254
0
LINE
8
Modules
10
8.2179069617
20
-8.8081535569
11
8.2514961527
21
-2.7372037370
62
254
0
LINE
8
Modules
10
8.2514961527
20
-2.7372037370
11
4.8230708271
21
-2.7182350358
62
254
0
LINE
8
Modules
10
6.1081211878
20
-6.1710240361
11
6.9283186341
21
-6.1755620029
62
254
0
LINE
8
Modules
10
6.9283186341
20
-6.1755620029
11
6.9328566009
21
-5.3553645566
62
254
0
LINE
8
Modules
10
6.9328566009
20
-5.3553645566
11
6.1126591546
21
-5.3508265898
62
254
0
LINE
8
Modules
10
6.1126591546
20
-5.3508265898
11
6.1081211878
21
-6.1710240361
62
254
0
LINE
8
Modules
10
6.1081211878
20
-6.1710240361
11
6.9328566009
21
-5.3553645566
62
254
0
TEXT
8
Modules
100
AcDbText
10
6.1601465740
20
-5.6627738974
1
DC
7
NewTextStyle_4
40
0.2624672000000003
50
-0.31700134276998615
0
TEXT
8
Modules
100
AcDbText
10
6.4364724443
20
-6.1236273760
1
DC
7
NewTextStyle_4
40
0.2624672000000003
50
-0.31700134276998615
0
LINE
8
Modules
10
8.2940756130
20
-2.7364961066
11
8.2604864220
21
-8.8074459265
62
254
0
LINE
8
Modules
10
8.2604864220
20
-8.8074459265
11
11.6889117477
21
-8.8264146277
62
254
0
LINE
8
Modules
10
11.6889117477
20
-8.8264146277
11
11.7225009387
21
-2.7554648078
62
254
0
LINE
8
Modules
10
11.7225009387
20
-2.7554648078
11
8.2940756130
21
-2.7364961066
62
254
0
LINE
8
Modules
10
9.5791259738
20
-6.1892851069
11
10.3993234201
21
-6.1938230737
62
254
0
LINE
8
Modules
10
10.3993234201
20
-6.1938230737
11
10.4038613869
21
-5.3736256274
62
254
0
LINE
8
Modules
10
10.4038613869
20
-5.3736256274
11
9.5836639406
21
-5.3690876606
62
254
0
LINE
8
Modules
10
9.5836639406
20
-5.3690876606
11
9.5791259738
21
-6.1892851069
62
254
0
LINE
8
Modules
10
9.5791259738
20
-6.1892851069
11
10.4038613869
21
-5.3736256274
62
254
0
TEXT
8
Modules
100
AcDbText
10
9.6311513600
20
-5.6810349682
1
DC
7
NewTextStyle_4
40
0.2624672000000003
50
-0.31700134276998615
0
TEXT
8
Modules
100
AcDbText
10
9.9074772303
20
-6.1418884469
1
DC
7
NewTextStyle_4
40
0.2624672000000003
50
-0.31700134276998615
0
LINE
8
Modules
10
11.7621733616
20
-2.7547571774
11
11.7285841706
21
-8.8257069974
62
254
0
LINE
8
Modules
10
11.7285841706
20
-8.8257069974
11
15.1570094963
21
-8.8446756986
62
254
0
LINE
8
Modules
10
15.1570094963
20
-8.8446756986
11
15.1905986873
21
-2.7737258786
62
254
0
LINE
8
Modules
10
15.1905986873
20
-2.7737258786
11
11.7621733616
21
-2.7547571774
62
254
0
LINE
8
Modules
10
13.0472237224
20
-6.2075461778
11
13.8674211687
21
-6.2120841446
62
254
0
LINE
8
Modules
10
13.8674211687
20
-6.2120841446
11
13.8719591355
21
-5.3918866982
62
254
0
LINE
8
Modules
10
13.8719591355
20
-5.3918866982
11
13.0517616892
21
-5.3873487314
62
254
0
LINE
8
Modules
10
13.0517616892
20
-5.3873487314
11
13.0472237224
21
-6.2075461778
62
254
0
LINE
8
Modules
10
13.0472237224
20
-6.2075461778
11
13.8719591355
21
-5.3918866982
62
254
0
TEXT
8
Modules
100
AcDbText
10
13.0992491086
20
-5.6992960390
1
DC
7
NewTextStyle_4
40
0.2624672000000003
50
-0.31700134276998615
0
TEXT
8
Modules
100
AcDbText
10
13.3755749789
20
-6.1601495177
1
DC
7
NewTextStyle_4
40
0.2624672000000003
50
-0.31700134276998615
0
LINE
8
Modules
10
15.2331781518
20
-2.7766704655
11
15.1995889607
21
-8.8476202855
62
254
0
LINE
8
Modules
10
15.1995889607
20
-8.8476202855
11
18.6280142864
21
-8.8665889867
62
254
0
LINE
8
Modules
10
18.6280142864
20
-8.8665889867
11
18.6616034774
21
-2.7956391667
62
254
0
LINE
8
Modules
10
18.6616034774
20
-2.7956391667
11
15.2331781518
21
-2.7766704655
62
254
0
LINE
8
Modules
10
16.5182285125
20
-6.2294594659
11
17.3384259588
21
-6.2339974327
62
254
0
LINE
8
Modules
10
17.3384259588
20
-6.2339974327
11
17.3429639256
21
-5.4137999863
62
254
0
LINE
8
Modules
10
17.3429639256
20
-5.4137999863
11
16.5227664793
21
-5.4092620195
62
254
0
LINE
8
Modules
10
16.5227664793
20
-5.4092620195
11
16.5182285125
21
-6.2294594659
62
254
0
LINE
8
Modules
10
16.5182285125
20
-6.2294594659
11
17.3429639256
21
-5.4137999863
62
254
0
TEXT
8
Modules
100
AcDbText
10
16.5702538987
20
-5.7212093271
1
DC
7
NewTextStyle_4
40
0.2624672000000003
50
-0.31700134276998615
0
TEXT
8
Modules
100
AcDbText
10
16.8465797690
20
-6.1820628058
1
DC
7
NewTextStyle_4
40
0.2624672000000003
50
-0.31700134276998615
0
LINE
8
Modules
10
18.7041829377
20
-2.7949315364
11
18.6705937467
21
-8.8658813563
62
254
0
LINE
8
Modules
10
18.6705937467
20
-8.8658813563
11
22.0990190724
21
-8.8848500575
62
254
0
LINE
8
Modules
10
22.0990190724
20
-8.8848500575
11
22.1326082634
21
-2.8139002376
62
254
0
LINE
8
Modules
10
22.1326082634
20
-2.8139002376
11
18.7041829377
21
-2.7949315364
62
254
0
LINE
8
Modules
10
19.9892332985
20
-6.2477205367
11
20.8094307448
21
-6.2522585035
62
254
0
LINE
8
Modules
10
20.8094307448
20
-6.2522585035
11
20.8139687116
21
-5.4320610572
62
254
0
LINE
8
Modules
10
20.8139687116
20
-5.4320610572
11
19.9937712653
21
-5.4275230904
62
254
0
LINE
8
Modules
10
19.9937712653
20
-5.4275230904
11
19.9892332985
21
-6.2477205367
62
254
0
LINE
8
Modules
10
19.9892332985
20
-6.2477205367
11
20.8139687116
21
-5.4320610572
62
254
0
TEXT
8
Modules
100
AcDbText
10
20.0412586847
20
-5.7394703980
1
DC
7
NewTextStyle_4
40
0.2624672000000003
50
-0.31700134276998615
0
TEXT
8
Modules
100
AcDbText
10
20.3175845550
20
-6.2003238766
1
DC
7
NewTextStyle_4
40
0.2624672000000003
50
-0.31700134276998615
0
LINE
8
Modules
10
22.1751877278
20
-2.8131926098
11
22.1415985368
21
-8.8841424297
62
254
0
LINE
8
Modules
10
22.1415985368
20
-8.8841424297
11
25.5700238625
21
-8.9031111309
62
254
0
LINE
8
Modules
10
25.5700238625
20
-8.9031111309
11
25.6036130535
21
-2.8321613110
62
254
0
LINE
8
Modules
10
25.6036130535
20
-2.8321613110
11
22.1751877278
21
-2.8131926098
62
254
0
LINE
8
Modules
10
23.4602380886
20
-6.2659816101
11
24.2804355349
21
-6.2705195769
62
254
0
LINE
8
Modules
10
24.2804355349
20
-6.2705195769
11
24.2849735017
21
-5.4503221306
62
254
0
LINE
8
Modules
10
24.2849735017
20
-5.4503221306
11
23.4647760554
21
-5.4457841638
62
254
0
LINE
8
Modules
10
23.4647760554
20
-5.4457841638
11
23.4602380886
21
-6.2659816101
62
254
0
LINE
8
Modules
10
23.4602380886
20
-6.2659816101
11
24.2849735017
21
-5.4503221306
62
254
0
TEXT
8
Modules
100
AcDbText
10
23.5122634748
20
-5.7577314714
1
DC
7
NewTextStyle_4
40
0.2624672000000003
50
-0.31700134276998615
0
TEXT
8
Modules
100
AcDbText
10
23.7885893451
20
-6.2185849500
1
DC
7
NewTextStyle_4
40
0.2624672000000003
50
-0.31700134276998615
0
LINE
8
Modules
10
25.6432854765
20
-2.8314536806
11
25.6096962854
21
-8.9024035005
62
254
0
LINE
8
Modules
10
25.6096962854
20
-8.9024035005
11
29.0381216111
21
-8.9213722017
62
254
0
LINE
8
Modules
10
29.0381216111
20
-8.9213722017
11
29.0717108021
21
-2.8504223818
62
254
0
LINE
8
Modules
10
29.0717108021
20
-2.8504223818
11
25.6432854765
21
-2.8314536806
62
254
0
LINE
8
Modules
10
26.9283358372
20
-6.2842426809
11
27.7485332835
21
-6.2887806477
62
254
0
LINE
8
Modules
10
27.7485332835
20
-6.2887806477
11
27.7530712503
21
-5.4685832014
62
254
0
LINE
8
Modules
10
27.7530712503
20
-5.4685832014
11
26.9328738040
21
-5.4640452346
62
254
0
LINE
8
Modules
10
26.9328738040
20
-5.4640452346
11
26.9283358372
21
-6.2842426809
62
254
0
LINE
8
Modules
10
26.9283358372
20
-6.2842426809
11
27.7530712503
21
-5.4685832014
62
254
0
TEXT
8
Modules
100
AcDbText
10
26.9803612234
20
-5.7759925422
1
DC
7
NewTextStyle_4
40
0.2624672000000003
50
-0.31700134276998615
0
TEXT
8
Modules
100
AcDbText
10
27.2566870937
20
-6.2368460209
1
DC
7
NewTextStyle_4
40
0.2624672000000003
50
-0.31700134276998615
0
LINE
8
Modules
10
29.1142902624
20
-2.8533669661
11
29.0807010714
21
-8.9243167860
62
254
0
LINE
8
Modules
10
29.0807010714
20
-8.9243167860
11
32.5091263971
21
-8.9432854872
62
254
0
LINE
8
Modules
10
32.5091263971
20
-8.9432854872
11
32.5427155881
21
-2.8723356673
62
254
0
LINE
8
Modules
10
32.5427155881
20
-2.8723356673
11
29.1142902624
21
-2.8533669661
62
254
0
LINE
8
Modules
10
30.3993406232
20
-6.3061559664
11
31.2195380695
21
-6.3106939332
62
254
0
LINE
8
Modules
10
31.2195380695
20
-6.3106939332
11
31.2240760363
21
-5.4904964869
62
254
0
LINE
8
Modules
10
31.2240760363
20
-5.4904964869
11
30.4038785900
21
-5.4859585201
62
254
0
LINE
8
Modules
10
30.4038785900
20
-5.4859585201
11
30.3993406232
21
-6.3061559664
62
254
0
LINE
8
Modules
10
30.3993406232
20
-6.3061559664
11
31.2240760363
21
-5.4904964869
62
254
0
TEXT
8
Modules
100
AcDbText
10
30.4513660094
20
-5.7979058277
1
DC
7
NewTextStyle_4
40
0.2624672000000003
50
-0.31700134276998615
0
TEXT
8
Modules
100
AcDbText
10
30.7276918797
20
-6.2587593064
1
DC
7
NewTextStyle_4
40
0.2624672000000003
50
-0.31700134276998615
0
LINE
8
Modules
10
32.5852950525
20
-2.8716280395
11
32.5517058615
21
-8.9425778595
62
254
0
LINE
8
Modules
10
32.5517058615
20
-8.9425778595
11
35.9801311872
21
-8.9615465607
62
254
0
LINE
8
Modules
10
35.9801311872
20
-8.9615465607
11
36.0137203782
21
-2.8905967407
62
254
0
LINE
8
Modules
10
36.0137203782
20
-2.8905967407
11
32.5852950525
21
-2.8716280395
62
254
0
LINE
8
Modules
10
33.8703454133
20
-6.3244170399
11
34.6905428596
21
-6.3289550067
62
254
0
LINE
8
Modules
10
34.6905428596
20
-6.3289550067
11
34.6950808264
21
-5.5087575603
62
254
0
LINE
8
Modules
10
34.6950808264
20
-5.5087575603
11
33.8748833801
21
-5.5042195935
62
254
0
LINE
8
Modules
10
33.8748833801
20
-5.5042195935
11
33.8703454133
21
-6.3244170399
62
254
0
LINE
8
Modules
10
33.8703454133
20
-6.3244170399
11
34.6950808264
21
-5.5087575603
62
254
0
TEXT
8
Modules
100
AcDbText
10
33.9223707995
20
-5.8161669011
1
DC
7
NewTextStyle_4
40
0.2624672000000003
50
-0.31700134276998615
0
TEXT
8
Modules
100
AcDbText
10
34.1986966698
20
-6.2770203798
1
DC
7
NewTextStyle_4
40
0.2624672000000003
50
-0.31700134276998615
0
LINE
8
Modules
10
-2.0695190850
20
6.0580361257
11
-2.1031082760
21
-0.0129136942
62
254
0
LINE
8
Modules
10
-2.1031082760
20
-0.0129136942
11
1.3253170496
21
-0.0318823954
62
254
0
LINE
8
Modules
10
1.3253170496
20
-0.0318823954
11
1.3589062407
21
6.0390674245
62
254
0
LINE
8
Modules
10
1.3589062407
20
6.0390674245
11
-2.0695190850
21
6.0580361257
62
254
0
LINE
8
Modules
10
-0.7844687242
20
2.6052471253
11
0.0357287221
21
2.6007091586
62
254
0
LINE
8
Modules
10
0.0357287221
20
2.6007091586
11
0.0402666889
21
3.4209066049
62
254
0
LINE
8
Modules
10
0.0402666889
20
3.4209066049
11
-0.7799307574
21
3.4254445717
62
254
0
LINE
8
Modules
10
-0.7799307574
20
3.4254445717
11
-0.7844687242
21
2.6052471253
62
254
0
LINE
8
Modules
10
-0.7844687242
20
2.6052471253
11
0.0402666889
21
3.4209066049
62
254
0
TEXT
8
Modules
100
AcDbText
10
-0.7324433380
20
3.1134972641
1
DC
7
NewTextStyle_4
40
0.2624672000000003
50
-0.31700134276998615
0
TEXT
8
Modules
100
AcDbText
10
-0.4561174677
20
2.6526437854
1
DC
7
NewTextStyle_4
40
0.2624672000000003
50
-0.31700134276998615
0
LINE
8
Modules
10
1.4014857051
20
6.0397750523
11
1.3678965141
21
-0.0311747677
62
254
0
LINE
8
Modules
10
1.3678965141
20
-0.0311747677
11
4.7963218398
21
-0.0501434689
62
254
0
LINE
8
Modules
10
4.7963218398
20
-0.0501434689
11
4.8299110308
21
6.0208063511
62
254
0
LINE
8
Modules
10
4.8299110308
20
6.0208063511
11
1.4014857051
21
6.0397750523
62
254
0
LINE
8
Modules
10
2.6865360659
20
2.5869860519
11
3.5067335122
21
2.5824480851
62
254
0
LINE
8
Modules
10
3.5067335122
20
2.5824480851
11
3.5112714790
21
3.4026455315
62
254
0
LINE
8
Modules
10
3.5112714790
20
3.4026455315
11
2.6910740327
21
3.4071834983
62
254
0
LINE
8
Modules
10
2.6910740327
20
3.4071834983
11
2.6865360659
21
2.5869860519
62
254
0
LINE
8
Modules
10
2.6865360659
20
2.5869860519
11
3.5112714790
21
3.4026455315
62
254
0
TEXT
8
Modules
100
AcDbText
10
2.7385614521
20
3.0952361906
1
DC
7
NewTextStyle_4
40
0.2624672000000003
50
-0.31700134276998615
0
TEXT
8
Modules
100
AcDbText
10
3.0148873224
20
2.6343827120
1
DC
7
NewTextStyle_4
40
0.2624672000000003
50
-0.31700134276998615
0
LINE
8
Modules
10
4.8724904911
20
6.0215139814
11
4.8389013001
21
-0.0494358385
62
254
0
LINE
8
Modules
10
4.8389013001
20
-0.0494358385
11
8.2673266257
21
-0.0684045397
62
254
0
LINE
8
Modules
10
8.2673266257
20
-0.0684045397
11
8.3009158167
21
6.0025452802
62
254
0
LINE
8
Modules
10
8.3009158167
20
6.0025452802
11
4.8724904911
21
6.0215139814
62
254
0
LINE
8
Modules
10
6.1575408519
20
2.5687249811
11
6.9777382982
21
2.5641870143
62
254
0
LINE
8
Modules
10
6.9777382982
20
2.5641870143
11
6.9822762650
21
3.3843844606
62
254
0
LINE
8
Modules
10
6.9822762650
20
3.3843844606
11
6.1620788187
21
3.3889224274
62
254
0
LINE
8
Modules
10
6.1620788187
20
3.3889224274
11
6.1575408519
21
2.5687249811
62
254
0
LINE
8
Modules
10
6.1575408519
20
2.5687249811
11
6.9822762650
21
3.3843844606
62
254
0
TEXT
8
Modules
100
AcDbText
10
6.2095662381
20
3.0769751198
1
DC
7
NewTextStyle_4
40
0.2624672000000003
50
-0.31700134276998615
0
TEXT
8
Modules
100
AcDbText
10
6.4858921084
20
2.6161216412
1
DC
7
NewTextStyle_4
40
0.2624672000000003
50
-0.31700134276998615
0
LINE
8
Modules
10
8.3405882397
20
5.9996006959
11
8.3069990487
21
-0.0713491240
62
254
0
LINE
8
Modules
10
8.3069990487
20
-0.0713491240
11
11.7354243744
21
-0.0903178252
62
254
0
LINE
8
Modules
10
11.7354243744
20
-0.0903178252
11
11.7690135654
21
5.9806319947
62
254
0
LINE
8
Modules
10
11.7690135654
20
5.9806319947
11
8.3405882397
21
5.9996006959
62
254
0
LINE
8
Modules
10
9.6256386005
20
2.5468116956
11
10.4458360468
21
2.5422737288
62
254
0
LINE
8
Modules
10
10.4458360468
20
2.5422737288
11
10.4503740136
21
3.3624711751
62
254
0
LINE
8
Modules
10
10.4503740136
20
3.3624711751
11
9.6301765673
21
3.3670091419
62
254
0
LINE
8
Modules
10
9.6301765673
20
3.3670091419
11
9.6256386005
21
2.5468116956
62
254
0
LINE
8
Modules
10
9.6256386005
20
2.5468116956
11
10.4503740136
21
3.3624711751
62
254
0
TEXT
8
Modules
100
AcDbText
10
9.6776639867
20
3.0550618343
1
DC
7
NewTextStyle_4
40
0.2624672000000003
50
-0.31700134276998615
0
TEXT
8
Modules
100
AcDbText
10
9.9539898570
20
2.5942083557
1
DC
7
NewTextStyle_4
40
0.2624672000000003
50
-0.31700134276998615
0
LINE
8
Modules
10
11.8115930298
20
5.9813396225
11
11.7780038388
21
-0.0896101974
62
254
0
LINE
8
Modules
10
11.7780038388
20
-0.0896101974
11
15.2064291645
21
-0.1085788986
62
254
0
LINE
8
Modules
10
15.2064291645
20
-0.1085788986
11
15.2400183555
21
5.9623709213
62
254
0
LINE
8
Modules
10
15.2400183555
20
5.9623709213
11
11.8115930298
21
5.9813396225
62
254
0
LINE
8
Modules
10
13.0966433906
20
2.5285506222
11
13.9168408369
21
2.5240126554
62
254
0
LINE
8
Modules
10
13.9168408369
20
2.5240126554
11
13.9213788037
21
3.3442101017
62
254
0
LINE
8
Modules
10
13.9213788037
20
3.3442101017
11
13.1011813574
21
3.3487480685
62
254
0
LINE
8
Modules
10
13.1011813574
20
3.3487480685
11
13.0966433906
21
2.5285506222
62
254
0
LINE
8
Modules
10
13.0966433906
20
2.5285506222
11
13.9213788037
21
3.3442101017
62
254
0
TEXT
8
Modules
100
AcDbText
10
13.1486687768
20
3.0368007609
1
DC
7
NewTextStyle_4
40
0.2624672000000003
50
-0.31700134276998615
0
TEXT
8
Modules
100
AcDbText
10
13.4249946471
20
2.5759472822
1
DC
7
NewTextStyle_4
40
0.2624672000000003
50
-0.31700134276998615
0
LINE
8
Modules
10
15.2825978158
20
5.9630785517
11
15.2490086248
21
-0.1078712682
62
254
0
LINE
8
Modules
10
15.2490086248
20
-0.1078712682
11
18.6774339504
21
-0.1268399694
62
254
0
LINE
8
Modules
10
18.6774339504
20
-0.1268399694
11
18.7110231414
21
5.9441098505
62
254
0
LINE
8
Modules
10
18.7110231414
20
5.9441098505
11
15.2825978158
21
5.9630785517
62
254
0
LINE
8
Modules
10
16.5676481766
20
2.5102895514
11
17.3878456229
21
2.5057515846
62
254
0
LINE
8
Modules
10
17.3878456229
20
2.5057515846
11
17.3923835897
21
3.3259490309
62
254
0
LINE
8
Modules
10
17.3923835897
20
3.3259490309
11
16.5721861434
21
3.3304869977
62
254
0
LINE
8
Modules
10
16.5721861434
20
3.3304869977
11
16.5676481766
21
2.5102895514
62
254
0
LINE
8
Modules
10
16.5676481766
20
2.5102895514
11
17.3923835897
21
3.3259490309
62
254
0
TEXT
8
Modules
100
AcDbText
10
16.6196735628
20
3.0185396901
1
DC
7
NewTextStyle_4
40
0.2624672000000003
50
-0.31700134276998615
0
TEXT
8
Modules
100
AcDbText
10
16.8959994331
20
2.5576862114
1
DC
7
NewTextStyle_4
40
0.2624672000000003
50
-0.31700134276998615
0
LINE
8
Modules
10
18.7506955644
20
5.9448174783
11
18.7171063734
21
-0.1261323417
62
254
0
LINE
8
Modules
10
18.7171063734
20
-0.1261323417
11
22.1455316991
21
-0.1451010429
62
254
0
LINE
8
Modules
10
22.1455316991
20
-0.1451010429
11
22.1791208901
21
5.9258487771
62
254
0
LINE
8
Modules
10
22.1791208901
20
5.9258487771
11
18.7506955644
21
5.9448174783
62
254
0
LINE
8
Modules
10
20.0357459252
20
2.4920284779
11
20.8559433715
21
2.4874905111
62
254
0
LINE
8
Modules
10
20.8559433715
20
2.4874905111
11
20.8604813383
21
3.3076879575
62
254
0
LINE
8
Modules
10
20.8604813383
20
3.3076879575
11
20.0402838920
21
3.3122259243
62
254
0
LINE
8
Modules
10
20.0402838920
20
3.3122259243
11
20.0357459252
21
2.4920284779
62
254
0
LINE
8
Modules
10
20.0357459252
20
2.4920284779
11
20.8604813383
21
3.3076879575
62
254
0
TEXT
8
Modules
100
AcDbText
10
20.0877713114
20
3.0002786166
1
DC
7
NewTextStyle_4
40
0.2624672000000003
50
-0.31700134276998615
0
TEXT
8
Modules
100
AcDbText
10
20.3640971817
20
2.5394251380
1
DC
7
NewTextStyle_4
40
0.2624672000000003
50
-0.31700134276998615
0
LINE
8
Modules
10
22.2217003545
20
5.9229041928
11
22.1881111635
21
-0.1480456272
62
254
0
LINE
8
Modules
10
22.1881111635
20
-0.1480456272
11
25.6165364892
21
-0.1670143284
62
254
0
LINE
8
Modules
10
25.6165364892
20
-0.1670143284
11
25.6501256802
21
5.9039354916
62
254
0
LINE
8
Modules
10
25.6501256802
20
5.9039354916
11
22.2217003545
21
5.9229041928
62
254
0
LINE
8
Modules
10
23.5067507153
20
2.4701151924
11
24.3269481616
21
2.4655772256
62
254
0
LINE
8
Modules
10
24.3269481616
20
2.4655772256
11
24.3314861284
21
3.2857746720
62
254
0
LINE
8
Modules
10
24.3314861284
20
3.2857746720
11
23.5112886821
21
3.2903126387
62
254
0
LINE
8
Modules
10
23.5112886821
20
3.2903126387
11
23.5067507153
21
2.4701151924
62
254
0
LINE
8
Modules
10
23.5067507153
20
2.4701151924
11
24.3314861284
21
3.2857746720
62
254
0
TEXT
8
Modules
100
AcDbText
10
23.5587761015
20
2.9783653311
1
DC
7
NewTextStyle_4
40
0.2624672000000003
50
-0.31700134276998615
0
TEXT
8
Modules
100
AcDbText
10
23.8351019718
20
2.5175118525
1
DC
7
NewTextStyle_4
40
0.2624672000000003
50
-0.31700134276998615
0
LINE
8
Modules
10
25.6927051405
20
5.9046431219
11
25.6591159495
21
-0.1663066980
62
254
0
LINE
8
Modules
10
25.6591159495
20
-0.1663066980
11
29.0875412751
21
-0.1852753992
62
254
0
LINE
8
Modules
10
29.0875412751
20
-0.1852753992
11
29.1211304661
21
5.8856744207
62
254
0
LINE
8
Modules
10
29.1211304661
20
5.8856744207
11
25.6927051405
21
5.9046431219
62
254
0
LINE
8
Modules
10
26.9777555013
20
2.4518541216
11
27.7979529476
21
2.4473161548
62
254
0
LINE
8
Modules
10
27.7979529476
20
2.4473161548
11
27.8024909144
21
3.2675136011
62
254
0
LINE
8
Modules
10
27.8024909144
20
3.2675136011
11
26.9822934681
21
3.2720515679
62
254
0
LINE
8
Modules
10
26.9822934681
20
3.2720515679
11
26.9777555013
21
2.4518541216
62
254
0
LINE
8
Modules
10
26.9777555013
20
2.4518541216
11
27.8024909144
21
3.2675136011
62
254
0
TEXT
8
Modules
100
AcDbText
10
27.0297808875
20
2.9601042603
1
DC
7
NewTextStyle_4
40
0.2624672000000003
50
-0.31700134276998615
0
TEXT
8
Modules
100
AcDbText
10
27.3061067578
20
2.4992507817
1
DC
7
NewTextStyle_4
40
0.2624672000000003
50
-0.31700134276998615
0
LINE
8
Modules
10
29.1637099306
20
5.8863820485
11
29.1301207396
21
-0.1845677714
62
254
0
LINE
8
Modules
10
29.1301207396
20
-0.1845677714
11
32.5585460652
21
-0.2035364726
62
254
0
LINE
8
Modules
10
32.5585460652
20
-0.2035364726
11
32.5921352563
21
5.8674133473
62
254
0
LINE
8
Modules
10
32.5921352563
20
5.8674133473
11
29.1637099306
21
5.8863820485
62
254
0
LINE
8
Modules
10
30.4487602914
20
2.4335930482
11
31.2689577377
21
2.4290550814
62
254
0
LINE
8
Modules
10
31.2689577377
20
2.4290550814
11
31.2734957045
21
3.2492525277
62
254
0
LINE
8
Modules
10
31.2734957045
20
3.2492525277
11
30.4532982582
21
3.2537904945
62
254
0
LINE
8
Modules
10
30.4532982582
20
3.2537904945
11
30.4487602914
21
2.4335930482
62
254
0
LINE
8
Modules
10
30.4487602914
20
2.4335930482
11
31.2734957045
21
3.2492525277
62
254
0
TEXT
8
Modules
100
AcDbText
10
30.5007856776
20
2.9418431869
1
DC
7
NewTextStyle_4
40
0.2624672000000003
50
-0.31700134276998615
0
TEXT
8
Modules
100
AcDbText
10
30.7771115479
20
2.4809897082
1
DC
7
NewTextStyle_4
40
0.2624672000000003
50
-0.31700134276998615
0
LINE
8
Modules
10
32.6318076792
20
5.8681209777
11
32.5982184882
21
-0.2028288422
62
254
0
LINE
8
Modules
10
32.5982184882
20
-0.2028288422
11
36.0266438139
21
-0.2217975434
62
254
0
LINE
8
Modules
10
36.0266438139
20
-0.2217975434
11
36.0602330049
21
5.8491522765
62
254
0
LINE
8
Modules
10
36.0602330049
20
5.8491522765
11
32.6318076792
21
5.8681209777
62
254
0
LINE
8
Modules
10
33.9168580400
20
2.4153319774
11
34.7370554863
21
2.4107940106
62
254
0
LINE
8
Modules
10
34.7370554863
20
2.4107940106
11
34.7415934531
21
3.2309914569
62
254
0
LINE
8
Modules
10
34.7415934531
20
3.2309914569
11
33.9213960068
21
3.2355294237
62
254
0
LINE
8
Modules
10
33.9213960068
20
3.2355294237
11
33.9168580400
21
2.4153319774
62
254
0
LINE
8
Modules
10
33.9168580400
20
2.4153319774
11
34.7415934531
21
3.2309914569
62
254
0
TEXT
8
Modules
100
AcDbText
10
33.9688834262
20
2.9235821161
1
DC
7
NewTextStyle_4
40
0.2624672000000003
50
-0.31700134276998615
0
TEXT
8
Modules
100
AcDbText
10
34.2452092965
20
2.4627286374
1
DC
7
NewTextStyle_4
40
0.2624672000000003
50
-0.31700134276998615
0
LINE
8
Modules
10
11.8581056565
20
14.7210886371
11
11.8245164655
21
8.6501388172
62
254
0
LINE
8
Modules
10
11.8245164655
20
8.6501388172
11
15.2529417912
21
8.6311701160
62
254
0
LINE
8
Modules
10
15.2529417912
20
8.6311701160
11
15.2865309822
21
14.7021199359
62
254
0
LINE
8
Modules
10
15.2865309822
20
14.7021199359
11
11.8581056565
21
14.7210886371
62
254
0
LINE
8
Modules
10
13.1431560173
20
11.2682996368
11
13.9633534636
21
11.2637616700
62
254
0
LINE
8
Modules
10
13.9633534636
20
11.2637616700
11
13.9678914304
21
12.0839591163
62
254
0
LINE
8
Modules
10
13.9678914304
20
12.0839591163
11
13.1476939841
21
12.0884970831
62
254
0
LINE
8
Modules
10
13.1476939841
20
12.0884970831
11
13.1431560173
21
11.2682996368
62
254
0
LINE
8
Modules
10
13.1431560173
20
11.2682996368
11
13.9678914304
21
12.0839591163
62
254
0
TEXT
8
Modules
100
AcDbText
10
13.1951814035
20
11.7765497755
1
DC
7
NewTextStyle_4
40
0.2624672000000003
50
-0.31700134276998615
0
TEXT
8
Modules
100
AcDbText
10
13.4715072738
20
11.3156962969
1
DC
7
NewTextStyle_4
40
0.2624672000000003
50
-0.31700134276998615
0
LINE
8
Modules
10
15.3291104425
20
14.7028275663
11
15.2955212515
21
8.6318777464
62
254
0
LINE
8
Modules
10
15.2955212515
20
8.6318777464
11
18.7239465771
21
8.6129090452
62
254
0
LINE
8
Modules
10
18.7239465771
20
8.6129090452
11
18.7575357681
21
14.6838588651
62
254
0
LINE
8
Modules
10
18.7575357681
20
14.6838588651
11
15.3291104425
21
14.7028275663
62
254
0
LINE
8
Modules
10
16.6141608033
20
11.2500385660
11
17.4343582496
21
11.2455005992
62
254
0
LINE
8
Modules
10
17.4343582496
20
11.2455005992
11
17.4388962164
21
12.0656980455
62
254
0
LINE
8
Modules
10
17.4388962164
20
12.0656980455
11
16.6186987700
21
12.0702360123
62
254
0
LINE
8
Modules
10
16.6186987700
20
12.0702360123
11
16.6141608033
21
11.2500385660
62
254
0
LINE
8
Modules
10
16.6141608033
20
11.2500385660
11
17.4388962164
21
12.0656980455
62
254
0
TEXT
8
Modules
100
AcDbText
10
16.6661861894
20
11.7582887047
1
DC
7
NewTextStyle_4
40
0.2624672000000003
50
-0.31700134276998615
0
TEXT
8
Modules
100
AcDbText
10
16.9425120598
20
11.2974352260
1
DC
7
NewTextStyle_4
40
0.2624672000000003
50
-0.31700134276998615
0
LINE
8
Modules
10
18.8001152326
20
14.6845664955
11
18.7665260416
21
8.6136166755
62
254
0
LINE
8
Modules
10
18.7665260416
20
8.6136166755
11
22.1949513672
21
8.5946479744
62
254
0
LINE
8
Modules
10
22.1949513672
20
8.5946479744
11
22.2285405582
21
14.6655977943
62
254
0
LINE
8
Modules
10
22.2285405582
20
14.6655977943
11
18.8001152326
21
14.6845664955
62
254
0
LINE
8
Modules
10
20.0851655934
20
11.2317774951
11
20.9053630397
21
11.2272395284
62
254
0
LINE
8
Modules
10
20.9053630397
20
11.2272395284
11
20.9099010065
21
12.0474369747
62
254
0
LINE
8
Modules
10
20.9099010065
20
12.0474369747
11
20.0897035602
21
12.0519749415
62
254
0
LINE
8
Modules
10
20.0897035602
20
12.0519749415
11
20.0851655934
21
11.2317774951
62
254
0
LINE
8
Modules
10
20.0851655934
20
11.2317774951
11
20.9099010065
21
12.0474369747
62
254
0
TEXT
8
Modules
100
AcDbText
10
20.1371909796
20
11.7400276339
1
DC
7
NewTextStyle_4
40
0.2624672000000003
50
-0.31700134276998615
0
TEXT
8
Modules
100
AcDbText
10
20.4135168499
20
11.2791741552
1
DC
7
NewTextStyle_4
40
0.2624672000000003
50
-0.31700134276998615
0
LINE
8
Modules
10
22.2682129812
20
14.6663054221
11
22.2346237902
21
8.5953556021
62
254
0
LINE
8
Modules
10
22.2346237902
20
8.5953556021
11
25.6630491159
21
8.5763869009
62
254
0
LINE
8
Modules
10
25.6630491159
20
8.5763869009
11
25.6966383069
21
14.6473367209
62
254
0
LINE
8
Modules
10
25.6966383069
20
14.6473367209
11
22.2682129812
21
14.6663054221
62
254
0
LINE
8
Modules
10
23.5532633420
20
11.2135164217
11
24.3734607883
21
11.2089784549
62
254
0
LINE
8
Modules
10
24.3734607883
20
11.2089784549
11
24.3779987551
21
12.0291759013
62
254
0
LINE
8
Modules
10
24.3779987551
20
12.0291759013
11
23.5578013088
21
12.0337138681
62
254
0
LINE
8
Modules
10
23.5578013088
20
12.0337138681
11
23.5532633420
21
11.2135164217
62
254
0
LINE
8
Modules
10
23.5532633420
20
11.2135164217
11
24.3779987551
21
12.0291759013
62
254
0
TEXT
8
Modules
100
AcDbText
10
23.6052887282
20
11.7217665604
1
DC
7
NewTextStyle_4
40
0.2624672000000003
50
-0.31700134276998615
0
TEXT
8
Modules
100
AcDbText
10
23.8816145985
20
11.2609130818
1
DC
7
NewTextStyle_4
40
0.2624672000000003
50
-0.31700134276998615
0
LINE
8
Modules
10
25.7392177672
20
14.6443921365
11
25.7056285762
21
8.5734423166
62
254
0
LINE
8
Modules
10
25.7056285762
20
8.5734423166
11
29.1340539018
21
8.5544736154
62
254
0
LINE
8
Modules
10
29.1340539018
20
8.5544736154
11
29.1676430928
21
14.6254234353
62
254
0
LINE
8
Modules
10
29.1676430928
20
14.6254234353
11
25.7392177672
21
14.6443921365
62
254
0
LINE
8
Modules
10
27.0242681280
20
11.1916031362
11
27.8444655743
21
11.1870651694
62
254
0
LINE
8
Modules
10
27.8444655743
20
11.1870651694
11
27.8490035411
21
12.0072626157
62
254
0
LINE
8
Modules
10
27.8490035411
20
12.0072626157
11
27.0288060947
21
12.0118005825
62
254
0
LINE
8
Modules
10
27.0288060947
20
12.0118005825
11
27.0242681280
21
11.1916031362
62
254
0
LINE
8
Modules
10
27.0242681280
20
11.1916031362
11
27.8490035411
21
12.0072626157
62
254
0
TEXT
8
Modules
100
AcDbText
10
27.0762935141
20
11.6998532749
1
DC
7
NewTextStyle_4
40
0.2624672000000003
50
-0.31700134276998615
0
TEXT
8
Modules
100
AcDbText
10
27.3526193845
20
11.2389997963
1
DC
7
NewTextStyle_4
40
0.2624672000000003
50
-0.31700134276998615
0
LINE
8
Modules
10
29.2102225573
20
14.6261310631
11
29.1766333663
21
8.5551812432
62
254
0
LINE
8
Modules
10
29.1766333663
20
8.5551812432
11
32.6050586919
21
8.5362125420
62
254
0
LINE
8
Modules
10
32.6050586919
20
8.5362125420
11
32.6386478829
21
14.6071623619
62
254
0
LINE
8
Modules
10
32.6386478829
20
14.6071623619
11
29.2102225573
21
14.6261310631
62
254
0
LINE
8
Modules
10
30.4952729181
20
11.1733420628
11
31.3154703644
21
11.1688040960
62
254
0
LINE
8
Modules
10
31.3154703644
20
11.1688040960
11
31.3200083312
21
11.9890015423
62
254
0
LINE
8
Modules
10
31.3200083312
20
11.9890015423
11
30.4998108849
21
11.9935395091
62
254
0
LINE
8
Modules
10
30.4998108849
20
11.9935395091
11
30.4952729181
21
11.1733420628
62
254
0
LINE
8
Modules
10
30.4952729181
20
11.1733420628
11
31.3200083312
21
11.9890015423
62
254
0
TEXT
8
Modules
100
AcDbText
10
30.5472983043
20
11.6815922015
1
DC
7
NewTextStyle_4
40
0.2624672000000003
50
-0.31700134276998615
0
TEXT
8
Modules
100
AcDbText
10
30.8236241746
20
11.2207387229
1
DC
7
NewTextStyle_4
40
0.2624672000000003
50
-0.31700134276998615
0
LINE
8
Modules
10
43.0913346680
20
14.5494345625
11
43.0577454770
21
8.4784847426
62
254
0
LINE
8
Modules
10
43.0577454770
20
8.4784847426
11
46.4861708026
21
8.4595160414
62
254
0
LINE
8
Modules
10
46.4861708026
20
8.4595160414
11
46.5197599936
21
14.5304658614
62
254
0
LINE
8
Modules
10
46.5197599936
20
14.5304658614
11
43.0913346680
21
14.5494345625
62
254
0
LINE
8
Modules
10
44.3763850287
20
11.0966455622
11
45.1965824751
21
11.0921075954
62
254
0
LINE
8
Modules
10
45.1965824751
20
11.0921075954
11
45.2011204419
21
11.9123050418
62
254
0
LINE
8
Modules
10
45.2011204419
20
11.9123050418
11
44.3809229955
21
11.9168430085
62
254
0
LINE
8
Modules
10
44.3809229955
20
11.9168430085
11
44.3763850287
21
11.0966455622
62
254
0
LINE
8
Modules
10
44.3763850287
20
11.0966455622
11
45.2011204419
21
11.9123050418
62
254
0
TEXT
8
Modules
100
AcDbText
10
44.4284104149
20
11.6048957009
1
DC
7
NewTextStyle_4
40
0.2624672000000003
50
-0.31700134276998615
0
TEXT
8
Modules
100
AcDbText
10
44.7047362853
20
11.1440422223
1
DC
7
NewTextStyle_4
40
0.2624672000000003
50
-0.31700134276998615
0
LINE
8
Modules
10
39.6203298820
20
14.5676956334
11
39.5867406910
21
8.4967458134
62
254
0
LINE
8
Modules
10
39.5867406910
20
8.4967458134
11
43.0151660166
21
8.4777771123
62
254
0
LINE
8
Modules
10
43.0151660166
20
8.4777771123
11
43.0487552076
21
14.5487269322
62
254
0
LINE
8
Modules
10
43.0487552076
20
14.5487269322
11
39.6203298820
21
14.5676956334
62
254
0
LINE
8
Modules
10
40.9053802428
20
11.1149066330
11
41.7255776891
21
11.1103686663
62
254
0
LINE
8
Modules
10
41.7255776891
20
11.1103686663
11
41.7301156559
21
11.9305661126
62
254
0
LINE
8
Modules
10
41.7301156559
20
11.9305661126
11
40.9099182096
21
11.9351040794
62
254
0
LINE
8
Modules
10
40.9099182096
20
11.9351040794
11
40.9053802428
21
11.1149066330
62
254
0
LINE
8
Modules
10
40.9053802428
20
11.1149066330
11
41.7301156559
21
11.9305661126
62
254
0
TEXT
8
Modules
100
AcDbText
10
40.9574056290
20
11.6231567718
1
DC
7
NewTextStyle_4
40
0.2624672000000003
50
-0.31700134276998615
0
TEXT
8
Modules
100
AcDbText
10
41.2337314993
20
11.1623032931
1
DC
7
NewTextStyle_4
40
0.2624672000000003
50
-0.31700134276998615
0
LINE
8
Modules
10
36.1493250919
20
14.5859567068
11
36.1157359009
21
8.5150068869
62
254
0
LINE
8
Modules
10
36.1157359009
20
8.5150068869
11
39.5441612265
21
8.4960381857
62
254
0
LINE
8
Modules
10
39.5441612265
20
8.4960381857
11
39.5777504175
21
14.5669880056
62
254
0
LINE
8
Modules
10
39.5777504175
20
14.5669880056
11
36.1493250919
21
14.5859567068
62
254
0
LINE
8
Modules
10
37.4343754527
20
11.1331677065
11
38.2545728990
21
11.1286297397
62
254
0
LINE
8
Modules
10
38.2545728990
20
11.1286297397
11
38.2591108658
21
11.9488271860
62
254
0
LINE
8
Modules
10
38.2591108658
20
11.9488271860
11
37.4389134194
21
11.9533651528
62
254
0
LINE
8
Modules
10
37.4389134194
20
11.9533651528
11
37.4343754527
21
11.1331677065
62
254
0
LINE
8
Modules
10
37.4343754527
20
11.1331677065
11
38.2591108658
21
11.9488271860
62
254
0
TEXT
8
Modules
100
AcDbText
10
37.4864008388
20
11.6414178452
1
DC
7
NewTextStyle_4
40
0.2624672000000003
50
-0.31700134276998615
0
TEXT
8
Modules
100
AcDbText
10
37.7627267092
20
11.1805643665
1
DC
7
NewTextStyle_4
40
0.2624672000000003
50
-0.31700134276998615
0
LINE
8
Modules
10
32.6812273433
20
14.6078699923
11
32.6476381523
21
8.5369201724
62
254
0
LINE
8
Modules
10
32.6476381523
20
8.5369201724
11
36.0760634779
21
8.5179514712
62
254
0
LINE
8
Modules
10
36.0760634779
20
8.5179514712
11
36.1096526689
21
14.5889012911
62
254
0
LINE
8
Modules
10
36.1096526689
20
14.5889012911
11
32.6812273433
21
14.6078699923
62
254
0
LINE
8
Modules
10
33.9662777040
20
11.1550809920
11
34.7864751504
21
11.1505430252
62
254
0
LINE
8
Modules
10
34.7864751504
20
11.1505430252
11
34.7910131172
21
11.9707404715
62
254
0
LINE
8
Modules
10
34.7910131172
20
11.9707404715
11
33.9708156708
21
11.9752784383
62
254
0
LINE
8
Modules
10
33.9708156708
20
11.9752784383
11
33.9662777040
21
11.1550809920
62
254
0
LINE
8
Modules
10
33.9662777040
20
11.1550809920
11
34.7910131172
21
11.9707404715
62
254
0
TEXT
8
Modules
100
AcDbText
10
34.0183030902
20
11.6633311307
1
DC
7
NewTextStyle_4
40
0.2624672000000003
50
-0.31700134276998615
0
TEXT
8
Modules
100
AcDbText
10
34.2946289606
20
11.2024776520
1
DC
7
NewTextStyle_4
40
0.2624672000000003
50
-0.31700134276998615
0
LINE
8
Modules
10
32.5358753844
20
-11.6077248395
11
32.5022861933
21
-17.6786746594
62
254
0
LINE
8
Modules
10
32.5022861933
20
-17.6786746594
11
35.9307115190
21
-17.6976433606
62
254
0
LINE
8
Modules
10
35.9307115190
20
-17.6976433606
11
35.9643007100
21
-11.6266935407
62
254
0
LINE
8
Modules
10
35.9643007100
20
-11.6266935407
11
32.5358753844
21
-11.6077248395
62
254
0
LINE
8
Modules
10
33.8209257451
20
-15.0605138398
11
34.6411231914
21
-15.0650518066
62
254
0
LINE
8
Modules
10
34.6411231914
20
-15.0650518066
11
34.6456611582
21
-14.2448543603
62
254
0
LINE
8
Modules
10
34.6456611582
20
-14.2448543603
11
33.8254637119
21
-14.2403163935
62
254
0
LINE
8
Modules
10
33.8254637119
20
-14.2403163935
11
33.8209257451
21
-15.0605138398
62
254
0
LINE
8
Modules
10
33.8209257451
20
-15.0605138398
11
34.6456611582
21
-14.2448543603
62
254
0
TEXT
8
Modules
100
AcDbText
10
33.8729511313
20
-14.5522637011
1
DC
7
NewTextStyle_4
40
0.2624672000000003
50
-0.31700134276998615
0
TEXT
8
Modules
100
AcDbText
10
34.1492770016
20
-15.0131171797
1
DC
7
NewTextStyle_4
40
0.2624672000000003
50
-0.31700134276998615
0
LINE
8
Modules
10
29.0648705984
20
-11.5894637686
11
29.0312814074
21
-17.6604135886
62
254
0
LINE
8
Modules
10
29.0312814074
20
-17.6604135886
11
32.4597067330
21
-17.6793822898
62
254
0
LINE
8
Modules
10
32.4597067330
20
-17.6793822898
11
32.4932959240
21
-11.6084324698
62
254
0
LINE
8
Modules
10
32.4932959240
20
-11.6084324698
11
29.0648705984
21
-11.5894637686
62
254
0
LINE
8
Modules
10
30.3499209591
20
-15.0422527690
11
31.1701184055
21
-15.0467907358
62
254
0
LINE
8
Modules
10
31.1701184055
20
-15.0467907358
11
31.1746563723
21
-14.2265932894
62
254
0
LINE
8
Modules
10
31.1746563723
20
-14.2265932894
11
30.3544589259
21
-14.2220553226
62
254
0
LINE
8
Modules
10
30.3544589259
20
-14.2220553226
11
30.3499209591
21
-15.0422527690
62
254
0
LINE
8
Modules
10
30.3499209591
20
-15.0422527690
11
31.1746563723
21
-14.2265932894
62
254
0
TEXT
8
Modules
100
AcDbText
10
30.4019463453
20
-14.5340026303
1
DC
7
NewTextStyle_4
40
0.2624672000000003
50
-0.31700134276998615
0
TEXT
8
Modules
100
AcDbText
10
30.6782722157
20
-14.9948561089
1
DC
7
NewTextStyle_4
40
0.2624672000000003
50
-0.31700134276998615
0
LINE
8
Modules
10
25.5967728456
20
-11.5712026952
11
25.5631836546
21
-17.6421525151
62
254
0
LINE
8
Modules
10
25.5631836546
20
-17.6421525151
11
28.9916089803
21
-17.6611212163
62
254
0
LINE
8
Modules
10
28.9916089803
20
-17.6611212163
11
29.0251981713
21
-11.5901713964
62
254
0
LINE
8
Modules
10
29.0251981713
20
-11.5901713964
11
25.5967728456
21
-11.5712026952
62
254
0
LINE
8
Modules
10
26.8818232064
20
-15.0239916955
11
27.7020206527
21
-15.0285296623
62
254
0
LINE
8
Modules
10
27.7020206527
20
-15.0285296623
11
27.7065586195
21
-14.2083322160
62
254
0
LINE
8
Modules
10
27.7065586195
20
-14.2083322160
11
26.8863611732
21
-14.2037942492
62
254
0
LINE
8
Modules
10
26.8863611732
20
-14.2037942492
11
26.8818232064
21
-15.0239916955
62
254
0
LINE
8
Modules
10
26.8818232064
20
-15.0239916955
11
27.7065586195
21
-14.2083322160
62
254
0
TEXT
8
Modules
100
AcDbText
10
26.9338485926
20
-14.5157415568
1
DC
7
NewTextStyle_4
40
0.2624672000000003
50
-0.31700134276998615
0
TEXT
8
Modules
100
AcDbText
10
27.2101744629
20
-14.9765950355
1
DC
7
NewTextStyle_4
40
0.2624672000000003
50
-0.31700134276998615
0
LINE
8
Modules
10
22.1257680597
20
-11.5492894097
11
22.0921788686
21
-17.6202392296
62
254
0
LINE
8
Modules
10
22.0921788686
20
-17.6202392296
11
25.5206041943
21
-17.6392079308
62
254
0
LINE
8
Modules
10
25.5206041943
20
-17.6392079308
11
25.5541933853
21
-11.5682581109
62
254
0
LINE
8
Modules
10
25.5541933853
20
-11.5682581109
11
22.1257680597
21
-11.5492894097
62
254
0
LINE
8
Modules
10
23.4108184204
20
-15.0020784100
11
24.2310158667
21
-15.0066163768
62
254
0
LINE
8
Modules
10
24.2310158667
20
-15.0066163768
11
24.2355538335
21
-14.1864189305
62
254
0
LINE
8
Modules
10
24.2355538335
20
-14.1864189305
11
23.4153563872
21
-14.1818809637
62
254
0
LINE
8
Modules
10
23.4153563872
20
-14.1818809637
11
23.4108184204
21
-15.0020784100
62
254
0
LINE
8
Modules
10
23.4108184204
20
-15.0020784100
11
24.2355538335
21
-14.1864189305
62
254
0
TEXT
8
Modules
100
AcDbText
10
23.4628438066
20
-14.4938282713
1
DC
7
NewTextStyle_4
40
0.2624672000000003
50
-0.31700134276998615
0
TEXT
8
Modules
100
AcDbText
10
23.7391696769
20
-14.9546817500
1
DC
7
NewTextStyle_4
40
0.2624672000000003
50
-0.31700134276998615
0
LINE
8
Modules
10
18.6547632737
20
-11.5310283389
11
18.6211740827
21
-17.6019781588
62
254
0
LINE
8
Modules
10
18.6211740827
20
-17.6019781588
11
22.0495994083
21
-17.6209468600
62
254
0
LINE
8
Modules
10
22.0495994083
20
-17.6209468600
11
22.0831885993
21
-11.5499970401
62
254
0
LINE
8
Modules
10
22.0831885993
20
-11.5499970401
11
18.6547632737
21
-11.5310283389
62
254
0
LINE
8
Modules
10
19.9398136344
20
-14.9838173392
11
20.7600110808
21
-14.9883553060
62
254
0
LINE
8
Modules
10
20.7600110808
20
-14.9883553060
11
20.7645490476
21
-14.1681578597
62
254
0
LINE
8
Modules
10
20.7645490476
20
-14.1681578597
11
19.9443516012
21
-14.1636198929
62
254
0
LINE
8
Modules
10
19.9443516012
20
-14.1636198929
11
19.9398136344
21
-14.9838173392
62
254
0
LINE
8
Modules
10
19.9398136344
20
-14.9838173392
11
20.7645490476
21
-14.1681578597
62
254
0
TEXT
8
Modules
100
AcDbText
10
19.9918390206
20
-14.4755672005
1
DC
7
NewTextStyle_4
40
0.2624672000000003
50
-0.31700134276998615
0
TEXT
8
Modules
100
AcDbText
10
20.2681648910
20
-14.9364206792
1
DC
7
NewTextStyle_4
40
0.2624672000000003
50
-0.31700134276998615
0
LINE
8
Modules
10
15.1837584836
20
-11.5127672655
11
15.1501692926
21
-17.5837170854
62
254
0
LINE
8
Modules
10
15.1501692926
20
-17.5837170854
11
18.5785946182
21
-17.6026857866
62
254
0
LINE
8
Modules
10
18.5785946182
20
-17.6026857866
11
18.6121838092
21
-11.5317359667
62
254
0
LINE
8
Modules
10
18.6121838092
20
-11.5317359667
11
15.1837584836
21
-11.5127672655
62
254
0
LINE
8
Modules
10
16.4688088443
20
-14.9655562658
11
17.2890062906
21
-14.9700942326
62
254
0
LINE
8
Modules
10
17.2890062906
20
-14.9700942326
11
17.2935442574
21
-14.1498967863
62
254
0
LINE
8
Modules
10
17.2935442574
20
-14.1498967863
11
16.4733468111
21
-14.1453588195
62
254
0
LINE
8
Modules
10
16.4733468111
20
-14.1453588195
11
16.4688088443
21
-14.9655562658
62
254
0
LINE
8
Modules
10
16.4688088443
20
-14.9655562658
11
17.2935442574
21
-14.1498967863
62
254
0
TEXT
8
Modules
100
AcDbText
10
16.5208342305
20
-14.4573061271
1
DC
7
NewTextStyle_4
40
0.2624672000000003
50
-0.31700134276998615
0
TEXT
8
Modules
100
AcDbText
10
16.7971601009
20
-14.9181596057
1
DC
7
NewTextStyle_4
40
0.2624672000000003
50
-0.31700134276998615
0
LINE
8
Modules
10
11.7156607350
20
-11.4945061946
11
11.6820715439
21
-17.5654560146
62
254
0
LINE
8
Modules
10
11.6820715439
20
-17.5654560146
11
15.1104968696
21
-17.5844247158
62
254
0
LINE
8
Modules
10
15.1104968696
20
-17.5844247158
11
15.1440860606
21
-11.5134748958
62
254
0
LINE
8
Modules
10
15.1440860606
20
-11.5134748958
11
11.7156607350
21
-11.4945061946
62
254
0
LINE
8
Modules
10
13.0007110957
20
-14.9472951950
11
13.8209085420
21
-14.9518331618
62
254
0
LINE
8
Modules
10
13.8209085420
20
-14.9518331618
11
13.8254465088
21
-14.1316357154
62
254
0
LINE
8
Modules
10
13.8254465088
20
-14.1316357154
11
13.0052490625
21
-14.1270977486
62
254
0
LINE
8
Modules
10
13.0052490625
20
-14.1270977486
11
13.0007110957
21
-14.9472951950
62
254
0
LINE
8
Modules
10
13.0007110957
20
-14.9472951950
11
13.8254465088
21
-14.1316357154
62
254
0
TEXT
8
Modules
100
AcDbText
10
13.0527364819
20
-14.4390450563
1
DC
7
NewTextStyle_4
40
0.2624672000000003
50
-0.31700134276998615
0
TEXT
8
Modules
100
AcDbText
10
13.3290623522
20
-14.8998985349
1
DC
7
NewTextStyle_4
40
0.2624672000000003
50
-0.31700134276998615
0
LINE
8
Modules
10
8.2446559490
20
-11.4725929065
11
8.2110667580
21
-17.5435427265
62
254
0
LINE
8
Modules
10
8.2110667580
20
-17.5435427265
11
11.6394920836
21
-17.5625114277
62
254
0
LINE
8
Modules
10
11.6394920836
20
-17.5625114277
11
11.6730812746
21
-11.4915616077
62
254
0
LINE
8
Modules
10
11.6730812746
20
-11.4915616077
11
8.2446559490
21
-11.4725929065
62
254
0
LINE
8
Modules
10
9.5297063097
20
-14.9253819069
11
10.3499037561
21
-14.9299198737
62
254
0
LINE
8
Modules
10
10.3499037561
20
-14.9299198737
11
10.3544417229
21
-14.1097224273
62
254
0
LINE
8
Modules
10
10.3544417229
20
-14.1097224273
11
9.5342442765
21
-14.1051844605
62
254
0
LINE
8
Modules
10
9.5342442765
20
-14.1051844605
11
9.5297063097
21
-14.9253819069
62
254
0
LINE
8
Modules
10
9.5297063097
20
-14.9253819069
11
10.3544417229
21
-14.1097224273
62
254
0
TEXT
8
Modules
100
AcDbText
10
9.5817316959
20
-14.4171317682
1
DC
7
NewTextStyle_4
40
0.2624672000000003
50
-0.31700134276998615
0
TEXT
8
Modules
100
AcDbText
10
9.8580575663
20
-14.8779852468
1
DC
7
NewTextStyle_4
40
0.2624672000000003
50
-0.31700134276998615
0
LINE
8
Modules
10
4.7736511589
20
-11.4543318357
11
4.7400619679
21
-17.5252816556
62
254
0
LINE
8
Modules
10
4.7400619679
20
-17.5252816556
11
8.1684872935
21
-17.5442503568
62
254
0
LINE
8
Modules
10
8.1684872935
20
-17.5442503568
11
8.2020764845
21
-11.4733005369
62
254
0
LINE
8
Modules
10
8.2020764845
20
-11.4733005369
11
4.7736511589
21
-11.4543318357
62
254
0
LINE
8
Modules
10
6.0587015196
20
-14.9071208360
11
6.8788989659
21
-14.9116588028
62
254
0
LINE
8
Modules
10
6.8788989659
20
-14.9116588028
11
6.8834369327
21
-14.0914613565
62
254
0
LINE
8
Modules
10
6.8834369327
20
-14.0914613565
11
6.0632394864
21
-14.0869233897
62
254
0
LINE
8
Modules
10
6.0632394864
20
-14.0869233897
11
6.0587015196
21
-14.9071208360
62
254
0
LINE
8
Modules
10
6.0587015196
20
-14.9071208360
11
6.8834369327
21
-14.0914613565
62
254
0
TEXT
8
Modules
100
AcDbText
10
6.1107269058
20
-14.3988706973
1
DC
7
NewTextStyle_4
40
0.2624672000000003
50
-0.31700134276998615
0
TEXT
8
Modules
100
AcDbText
10
6.3870527762
20
-14.8597241760
1
DC
7
NewTextStyle_4
40
0.2624672000000003
50
-0.31700134276998615
0
LINE
8
Modules
10
1.3055534103
20
-11.4360707649
11
1.2719642192
21
-17.5070205848
62
254
0
LINE
8
Modules
10
1.2719642192
20
-17.5070205848
11
4.7003895449
21
-17.5259892860
62
254
0
LINE
8
Modules
10
4.7003895449
20
-17.5259892860
11
4.7339787359
21
-11.4550394661
62
254
0
LINE
8
Modules
10
4.7339787359
20
-11.4550394661
11
1.3055534103
21
-11.4360707649
62
254
0
LINE
8
Modules
10
2.5906037710
20
-14.8888597652
11
3.4108012173
21
-14.8933977320
62
254
0
LINE
8
Modules
10
3.4108012173
20
-14.8933977320
11
3.4153391841
21
-14.0732002857
62
254
0
LINE
8
Modules
10
3.4153391841
20
-14.0732002857
11
2.5951417378
21
-14.0686623189
62
254
0
LINE
8
Modules
10
2.5951417378
20
-14.0686623189
11
2.5906037710
21
-14.8888597652
62
254
0
LINE
8
Modules
10
2.5906037710
20
-14.8888597652
11
3.4153391841
21
-14.0732002857
62
254
0
TEXT
8
Modules
100
AcDbText
10
2.6426291572
20
-14.3806096265
1
DC
7
NewTextStyle_4
40
0.2624672000000003
50
-0.31700134276998615
0
TEXT
8
Modules
100
AcDbText
10
2.9189550275
20
-14.8414631052
1
DC
7
NewTextStyle_4
40
0.2624672000000003
50
-0.31700134276998615
0
LINE
8
Modules
10
-2.1654513757
20
-11.4178096915
11
-2.1990405667
21
-17.4887595114
62
254
0
LINE
8
Modules
10
-2.1990405667
20
-17.4887595114
11
1.2293847589
21
-17.5077282126
62
254
0
LINE
8
Modules
10
1.2293847589
20
-17.5077282126
11
1.2629739499
21
-11.4367783927
62
254
0
LINE
8
Modules
10
1.2629739499
20
-11.4367783927
11
-2.1654513757
21
-11.4178096915
62
254
0
LINE
8
Modules
10
-0.8804010150
20
-14.8705986918
11
-0.0602035686
21
-14.8751366586
62
254
0
LINE
8
Modules
10
-0.0602035686
20
-14.8751366586
11
-0.0556656019
21
-14.0549392123
62
254
0
LINE
8
Modules
10
-0.0556656019
20
-14.0549392123
11
-0.8758630482
21
-14.0504012455
62
254
0
LINE
8
Modules
10
-0.8758630482
20
-14.0504012455
11
-0.8804010150
21
-14.8705986918
62
254
0
LINE
8
Modules
10
-0.8804010150
20
-14.8705986918
11
-0.0556656019
21
-14.0549392123
62
254
0
TEXT
8
Modules
100
AcDbText
10
-0.8283756288
20
-14.3623485531
1
DC
7
NewTextStyle_4
40
0.2624672000000003
50
-0.31700134276998615
0
TEXT
8
Modules
100
AcDbText
10
-0.5520497584
20
-14.8232020317
1
DC
7
NewTextStyle_4
40
0.2624672000000003
50
-0.31700134276998615
0
LINE
8
Modules
10
42.9459827091
20
-11.6661602692
11
42.9123935180
21
-17.7371100891
62
254
0
LINE
8
Modules
10
42.9123935180
20
-17.7371100891
11
46.3408188437
21
-17.7560787903
62
254
0
LINE
8
Modules
10
46.3408188437
20
-17.7560787903
11
46.3744080347
21
-11.6851289704
62
254
0
LINE
8
Modules
10
46.3744080347
20
-11.6851289704
11
42.9459827091
21
-11.6661602692
62
254
0
LINE
8
Modules
10
44.2310330698
20
-15.1189492695
11
45.0512305161
21
-15.1234872363
62
254
0
LINE
8
Modules
10
45.0512305161
20
-15.1234872363
11
45.0557684829
21
-14.3032897900
62
254
0
LINE
8
Modules
10
45.0557684829
20
-14.3032897900
11
44.2355710366
21
-14.2987518232
62
254
0
LINE
8
Modules
10
44.2355710366
20
-14.2987518232
11
44.2310330698
21
-15.1189492695
62
254
0
LINE
8
Modules
10
44.2310330698
20
-15.1189492695
11
45.0557684829
21
-14.3032897900
62
254
0
TEXT
8
Modules
100
AcDbText
10
44.2830584560
20
-14.6106991308
1
DC
7
NewTextStyle_4
40
0.2624672000000003
50
-0.31700134276998615
0
TEXT
8
Modules
100
AcDbText
10
44.5593843263
20
-15.0715526095
1
DC
7
NewTextStyle_4
40
0.2624672000000003
50
-0.31700134276998615
0
LINE
8
Modules
10
39.4749779231
20
-11.6478991984
11
39.4413887321
21
-17.7188490183
62
254
0
LINE
8
Modules
10
39.4413887321
20
-17.7188490183
11
42.8698140577
21
-17.7378177195
62
254
0
LINE
8
Modules
10
42.8698140577
20
-17.7378177195
11
42.9034032487
21
-11.6668678996
62
254
0
LINE
8
Modules
10
42.9034032487
20
-11.6668678996
11
39.4749779231
21
-11.6478991984
62
254
0
LINE
8
Modules
10
40.7600282838
20
-15.1006881987
11
41.5802257302
21
-15.1052261655
62
254
0
LINE
8
Modules
10
41.5802257302
20
-15.1052261655
11
41.5847636970
21
-14.2850287192
62
254
0
LINE
8
Modules
10
41.5847636970
20
-14.2850287192
11
40.7645662506
21
-14.2804907524
62
254
0
LINE
8
Modules
10
40.7645662506
20
-14.2804907524
11
40.7600282838
21
-15.1006881987
62
254
0
LINE
8
Modules
10
40.7600282838
20
-15.1006881987
11
41.5847636970
21
-14.2850287192
62
254
0
TEXT
8
Modules
100
AcDbText
10
40.8120536700
20
-14.5924380600
1
DC
7
NewTextStyle_4
40
0.2624672000000003
50
-0.31700134276998615
0
TEXT
8
Modules
100
AcDbText
10
41.0883795404
20
-15.0532915387
1
DC
7
NewTextStyle_4
40
0.2624672000000003
50
-0.31700134276998615
0
LINE
8
Modules
10
36.0068801703
20
-11.6296381250
11
35.9732909793
21
-17.7005879449
62
254
0
LINE
8
Modules
10
35.9732909793
20
-17.7005879449
11
39.4017163050
21
-17.7195566461
62
254
0
LINE
8
Modules
10
39.4017163050
20
-17.7195566461
11
39.4353054960
21
-11.6486068262
62
254
0
LINE
8
Modules
10
39.4353054960
20
-11.6486068262
11
36.0068801703
21
-11.6296381250
62
254
0
LINE
8
Modules
10
37.2919305311
20
-15.0824271253
11
38.1121279774
21
-15.0869650921
62
254
0
LINE
8
Modules
10
38.1121279774
20
-15.0869650921
11
38.1166659442
21
-14.2667676458
62
254
0
LINE
8
Modules
10
38.1166659442
20
-14.2667676458
11
37.2964684979
21
-14.2622296790
62
254
0
LINE
8
Modules
10
37.2964684979
20
-14.2622296790
11
37.2919305311
21
-15.0824271253
62
254
0
LINE
8
Modules
10
37.2919305311
20
-15.0824271253
11
38.1166659442
21
-14.2667676458
62
254
0
TEXT
8
Modules
100
AcDbText
10
37.3439559173
20
-14.5741769866
1
DC
7
NewTextStyle_4
40
0.2624672000000003
50
-0.31700134276998615
0
TEXT
8
Modules
100
AcDbText
10
37.6202817876
20
-15.0350304652
1
DC
7
NewTextStyle_4
40
0.2624672000000003
50
-0.31700134276998615
0
LINE
8
Modules
10
-7.2682898246
20
-8.2999326357
11
-13.2496562079
21
-8.2493249450
62
254
0
LINE
8
Modules
10
-13.2496562079
20
-8.2493249450
11
-13.2786631476
21
-11.6776800349
62
254
0
LINE
8
Modules
10
-13.2786631476
20
-11.6776800349
11
-7.2972967644
21
-11.7282877257
62
254
0
LINE
8
Modules
10
-7.2972967644
20
-11.7282877257
11
-7.2682898246
21
-8.2999326357
62
254
0
LINE
8
Modules
10
-10.6800970782
20
-9.5752462839
11
-10.6870365375
21
-10.3954269274
62
254
0
LINE
8
Modules
10
-10.6870365375
20
-10.3954269274
11
-9.8668558940
21
-10.4023663867
62
254
0
LINE
8
Modules
10
-9.8668558940
20
-10.4023663867
11
-9.8599164347
21
-9.5821857432
62
254
0
LINE
8
Modules
10
-9.8599164347
20
-9.5821857432
11
-10.6800970782
21
-9.5752462839
62
254
0
LINE
8
Modules
10
-10.6800970782
20
-9.5752462839
11
-9.8668558940
21
-10.4023663867
62
254
0
TEXT
8
Modules
100
AcDbText
10
-10.1720014468
20
-9.6287595873
1
DC
7
NewTextStyle_4
40
0.2624672000000003
50
-90.48476179493518
0
TEXT
8
Modules
100
AcDbText
10
-10.6336620233
20
-9.9037349089
1
DC
7
NewTextStyle_4
40
0.2624672000000003
50
-90.48476179493518
0
LINE
8
Buildings
10
51.7835415252
20
18.2553823130
11
-12.2698312786
21
18.7990376053
62
252
0
LINE
8
Buildings
10
-12.2698312786
20
18.7990376053
11
-12.3209676280
21
9.5566363837
62
252
0
LINE
8
Buildings
10
-12.3209676280
20
9.5566363837
11
-6.2187123435
21
9.5228738310
62
252
0
LINE
8
Buildings
10
-6.2187123435
20
9.5228738310
11
-6.3887984825
21
-21.2185529231
62
252
0
LINE
8
Buildings
10
-6.3887984825
20
-21.2185529231
11
52.6543273296
21
-21.7721759185
62
252
0
LINE
8
Buildings
10
52.6543273296
20
-21.7721759185
11
52.3435325856
21
-7.4858213938
62
252
0
LINE
8
Buildings
10
52.3435325856
20
-7.4858213938
11
42.9330193819
21
-7.2740687071
62
252
0
LINE
8
Buildings
10
42.9330193819
20
-7.2740687071
11
43.2003492641
21
4.6063537981
62
252
0
LINE
8
Buildings
10
43.2003492641
20
4.6063537981
11
52.0848205611
21
4.4064379564
62
252
0
LINE
8
Buildings
10
52.0848205611
20
4.4064379564
11
51.7835415252
21
18.2553823130
62
252
0
LINE
8
Buildings
10
53.4436375204
20
4.1915459011
11
53.4477828554
21
4.3757689672
62
252
0
LINE
8
Buildings
10
53.4477828554
20
4.3757689672
11
43.2003492641
21
4.6063537981
62
252
0
LINE
8
Buildings
10
43.2003492641
20
4.6063537981
11
43.1963434010
21
4.4283290095
62
252
0
LINE
8
Buildings
10
43.1963434010
20
4.4283290095
11
48.2077971840
21
-0.8138490763
62
252
0
LINE
8
Buildings
10
48.2077971840
20
-0.8138490763
11
53.4436375204
21
4.1915459011
62
252
0
LINE
8
Buildings
10
53.1805924451
20
-7.4984552605
11
48.1751974677
21
-2.2626149241
62
252
0
LINE
8
Buildings
10
48.1751974677
20
-2.2626149241
11
42.9330193819
21
-7.2740687071
62
252
0
LINE
8
Buildings
10
42.9330193819
20
-7.2740687071
11
53.1804529732
21
-7.5046535380
62
252
0
LINE
8
Buildings
10
53.1804529732
20
-7.5046535380
11
53.1805924451
21
-7.4984552605
62
252
0
LINE
8
Buildings
10
48.2077971840
20
-0.8138490763
11
43.1963434010
21
4.4283290095
62
252
0
LINE
8
Buildings
10
43.1963434010
20
4.4283290095
11
42.9330193819
21
-7.2740687071
62
252
0
LINE
8
Buildings
10
42.9330193819
20
-7.2740687071
11
48.1751974677
21
-2.2626149241
62
252
0
LINE
8
Buildings
10
48.1751974677
20
-2.2626149241
11
48.2077971840
21
-0.8138490763
62
252
0
LINE
8
Buildings
10
53.1805924451
20
-7.4984552605
11
53.4436375204
21
4.1915459011
62
252
0
LINE
8
Buildings
10
53.4436375204
20
4.1915459011
11
48.2077971840
21
-0.8138490763
62
252
0
LINE
8
Buildings
10
48.2077971840
20
-0.8138490763
11
48.1751974677
21
-2.2626149241
62
252
0
LINE
8
Buildings
10
48.1751974677
20
-2.2626149241
11
53.1805924451
21
-7.4984552605
62
252
0
LINE
8
Buildings
10
-13.3633186217
20
-22.0676138980
11
-6.5532974569
21
-22.1252327468
62
252
0
LINE
8
Buildings
10
-6.5532974569
20
-22.1252327468
11
-6.2879606684
21
9.2351498903
62
252
0
LINE
8
Buildings
10
-6.2879606684
20
9.2351498903
11
-13.0979818332
21
9.2927687391
62
252
0
LINE
8
Buildings
10
-13.0979818332
20
9.2927687391
11
-13.3633186217
21
-22.0676138980
62
252
0
LINE
8
Setbacks
10
-2.3635148519
20
-17.2528394109
11
8.8168872513
21
-17.3576732800
62
2
0
LINE
8
Setbacks
10
8.8168872513
20
-17.3576732800
11
8.8417045597
21
-17.3450284670
62
2
0
LINE
8
Setbacks
10
8.8417045597
20
-17.3450284670
11
8.9324788915
21
-17.2715207447
62
2
0
LINE
8
Setbacks
10
8.9324788915
20
-17.2715207447
11
8.9329031735
21
-17.2712291436
62
2
0
LINE
8
Setbacks
10
8.9329031735
20
-17.2712291436
11
8.9333678485
21
-17.2710075054
62
2
0
LINE
8
Setbacks
10
8.9333678485
20
-17.2710075054
11
9.0495087124
21
-17.2264253523
62
2
0
LINE
8
Setbacks
10
9.0495087124
20
-17.2264253523
11
9.1461878866
21
-17.1481358992
62
2
0
LINE
8
Setbacks
10
9.1461878866
20
-17.1481358992
11
9.1466121675
21
-17.1478442984
62
2
0
LINE
8
Setbacks
10
9.1466121675
20
-17.1478442984
11
9.1470768414
21
-17.1476226602
62
2
0
LINE
8
Setbacks
10
9.1470768414
20
-17.1476226602
11
9.2561233564
21
-17.1057636235
62
2
0
LINE
8
Setbacks
10
9.2561233564
20
-17.1057636235
11
9.4061806188
21
-17.0083152736
62
2
0
LINE
8
Setbacks
10
9.4061806188
20
-17.0083152736
11
9.4066330542
21
-17.0080696211
62
2
0
LINE
8
Setbacks
10
9.4066330542
20
-17.0080696211
11
9.5199716405
21
-16.9576080053
62
2
0
LINE
8
Setbacks
10
9.5199716405
20
-16.9576080053
11
9.5204569360
21
-16.9574361532
62
2
0
LINE
8
Setbacks
10
9.5204569360
20
-16.9574361532
11
9.6932836377
21
-16.9111274344
62
2
0
LINE
8
Setbacks
10
9.6932836377
20
-16.9111274344
11
9.7973566441
21
-16.8580995993
62
2
0
LINE
8
Setbacks
10
9.7973566441
20
-16.8580995993
11
9.7978322779
21
-16.8579025853
62
2
0
LINE
8
Setbacks
10
9.7978322779
20
-16.8579025853
11
9.7983328755
21
-16.8577824022
62
2
0
LINE
8
Setbacks
10
9.7983328755
20
-16.8577824022
11
9.9212044873
21
-16.8383213675
62
2
0
LINE
8
Setbacks
10
9.9212044873
20
-16.8383213675
11
10.0320489097
21
-16.7818433629
62
2
0
LINE
8
Setbacks
10
10.0320489097
20
-16.7818433629
11
10.0325245451
21
-16.7816463485
62
2
0
LINE
8
Setbacks
10
10.0325245451
20
-16.7816463485
11
10.0330251444
21
-16.7815261655
62
2
0
LINE
8
Setbacks
10
10.0330251444
20
-16.7815261655
11
10.1483915828
21
-16.7632539928
62
2
0
LINE
8
Setbacks
10
10.1483915828
20
-16.7632539928
11
10.3154302242
21
-16.6991338011
62
2
0
LINE
8
Setbacks
10
10.3154302242
20
-16.6991338011
11
10.3159238457
21
-16.6989875835
62
2
0
LINE
8
Setbacks
10
10.3159238457
20
-16.6989875835
11
10.4372775241
21
-16.6731929632
62
2
0
LINE
8
Setbacks
10
10.4372775241
20
-16.6731929632
11
10.4377879447
21
-16.6731257648
62
2
0
LINE
8
Setbacks
10
10.4377879447
20
-16.6731257648
11
10.6164659040
21
-16.6637615937
62
2
0
LINE
8
Setbacks
10
10.6164659040
20
-16.6637615937
11
10.7292896528
21
-16.6335306308
62
2
0
LINE
8
Setbacks
10
10.7292896528
20
-16.6335306308
11
10.7297958559
21
-16.6334368119
62
2
0
LINE
8
Setbacks
10
10.7297958559
20
-16.6334368119
11
10.7303105034
21
-16.6334233358
62
2
0
LINE
8
Setbacks
10
10.7303105034
20
-16.6334233358
11
10.8545432227
21
-16.6399341976
62
2
0
LINE
8
Setbacks
10
10.8545432227
20
-16.6399341976
11
10.9747079624
21
-16.6077360119
62
2
0
LINE
8
Setbacks
10
10.9747079624
20
-16.6077360119
11
10.9752141681
21
-16.6076421919
62
2
0
LINE
8
Setbacks
10
10.9752141681
20
-16.6076421919
11
10.9757288182
21
-16.6076287155
62
2
0
LINE
8
Setbacks
10
10.9757288182
20
-16.6076287155
11
11.0923736356
21
-16.6137419019
62
2
0
LINE
8
Setbacks
10
11.0923736356
20
-16.6137419019
11
11.2690930939
21
-16.5857522096
62
2
0
LINE
8
Setbacks
10
11.2690930939
20
-16.5857522096
11
11.2696063318
21
-16.5857118168
62
2
0
LINE
8
Setbacks
10
11.2696063318
20
-16.5857118168
11
11.3936709683
21
-16.5857118168
62
2
0
LINE
8
Setbacks
10
11.3936709683
20
-16.5857118168
11
11.3941842061
21
-16.5857522096
62
2
0
LINE
8
Setbacks
10
11.3941842061
20
-16.5857522096
11
11.5709036645
21
-16.6137419019
62
2
0
LINE
8
Setbacks
10
11.5709036645
20
-16.6137419019
11
11.6875484818
21
-16.6076287155
62
2
0
LINE
8
Setbacks
10
11.6875484818
20
-16.6076287155
11
11.6880631320
21
-16.6076421919
62
2
0
LINE
8
Setbacks
10
11.6880631320
20
-16.6076421919
11
11.6885693376
21
-16.6077360119
62
2
0
LINE
8
Setbacks
10
11.6885693376
20
-16.6077360119
11
11.8087340773
21
-16.6399341976
62
2
0
LINE
8
Setbacks
10
11.8087340773
20
-16.6399341976
11
11.9329667967
21
-16.6334233358
62
2
0
LINE
8
Setbacks
10
11.9329667967
20
-16.6334233358
11
11.9334814441
21
-16.6334368119
62
2
0
LINE
8
Setbacks
10
11.9334814441
20
-16.6334368119
11
11.9339876473
21
-16.6335306308
62
2
0
LINE
8
Setbacks
10
11.9339876473
20
-16.6335306308
11
12.0468113959
21
-16.6637615936
62
2
0
LINE
8
Setbacks
10
12.0468113959
20
-16.6637615936
11
12.2254896831
21
-16.6731257648
62
2
0
LINE
8
Setbacks
10
12.2254896831
20
-16.6731257648
11
12.2260001040
21
-16.6731929632
62
2
0
LINE
8
Setbacks
10
12.2260001040
20
-16.6731929632
11
12.3473537824
21
-16.6989875835
62
2
0
LINE
8
Setbacks
10
12.3473537824
20
-16.6989875835
11
12.3478474039
21
-16.6991338011
62
2
0
LINE
8
Setbacks
10
12.3478474039
20
-16.6991338011
11
12.5148860454
21
-16.7632539928
62
2
0
LINE
8
Setbacks
10
12.5148860454
20
-16.7632539928
11
12.6302524837
21
-16.7815261655
62
2
0
LINE
8
Setbacks
10
12.6302524837
20
-16.7815261655
11
12.6307530831
21
-16.7816463485
62
2
0
LINE
8
Setbacks
10
12.6307530831
20
-16.7816463485
11
12.6312287184
21
-16.7818433629
62
2
0
LINE
8
Setbacks
10
12.6312287184
20
-16.7818433629
11
12.7420731409
21
-16.8383213675
62
2
0
LINE
8
Setbacks
10
12.7420731409
20
-16.8383213675
11
12.8649447526
21
-16.8577824022
62
2
0
LINE
8
Setbacks
10
12.8649447526
20
-16.8577824022
11
12.8654453483
21
-16.8579025847
62
2
0
LINE
8
Setbacks
10
12.8654453483
20
-16.8579025847
11
12.8659209803
21
-16.8580995974
62
2
0
LINE
8
Setbacks
10
12.8659209803
20
-16.8580995974
11
12.9699943178
21
-16.9111274346
62
2
0
LINE
8
Setbacks
10
12.9699943178
20
-16.9111274346
11
13.1428203670
21
-16.9574361540
62
2
0
LINE
8
Setbacks
10
13.1428203670
20
-16.9574361540
11
13.1433056563
21
-16.9576080039
62
2
0
LINE
8
Setbacks
10
13.1433056563
20
-16.9576080039
11
13.2566445707
21
-17.0080696197
62
2
0
LINE
8
Setbacks
10
13.2566445707
20
-17.0080696197
11
13.2570970108
21
-17.0083152745
62
2
0
LINE
8
Setbacks
10
13.2570970108
20
-17.0083152745
11
13.4071545998
21
-17.1057639513
62
2
0
LINE
8
Setbacks
10
13.4071545998
20
-17.1057639513
11
13.5162004568
21
-17.1476226595
62
2
0
LINE
8
Setbacks
10
13.5162004568
20
-17.1476226595
11
13.5166651287
21
-17.1478442963
62
2
0
LINE
8
Setbacks
10
13.5166651287
20
-17.1478442963
11
13.5170894082
21
-17.1481358950
62
2
0
LINE
8
Setbacks
10
13.5170894082
20
-17.1481358950
11
13.6137685864
21
-17.2264250246
62
2
0
LINE
8
Setbacks
10
13.6137685864
20
-17.2264250246
11
13.7299097843
21
-17.2710075071
62
2
0
LINE
8
Setbacks
10
13.7299097843
20
-17.2710075071
11
13.7303744568
21
-17.2712291448
62
2
0
LINE
8
Setbacks
10
13.7303744568
20
-17.2712291448
11
13.7307987366
21
-17.2715207447
62
2
0
LINE
8
Setbacks
10
13.7307987366
20
-17.2715207447
11
13.8215730753
21
-17.3450284726
62
2
0
LINE
8
Setbacks
10
13.8215730753
20
-17.3450284726
11
13.9406815176
21
-17.4057169236
62
2
0
LINE
8
Setbacks
10
13.9406815176
20
-17.4057169236
11
48.5621708428
21
-17.7303485703
62
2
0
LINE
8
Setbacks
10
48.5621708428
20
-17.7303485703
11
48.4244980862
21
-11.4019305649
62
2
0
LINE
8
Setbacks
10
48.4244980862
20
-11.4019305649
11
42.8429613578
21
-11.2763364728
62
2
0
LINE
8
Setbacks
10
42.8429613578
20
-11.2763364728
11
42.8424491603
21
-11.2762845448
62
2
0
LINE
8
Setbacks
10
42.8424491603
20
-11.2762845448
11
41.6110980710
21
-11.0527536977
62
2
0
LINE
8
Setbacks
10
41.6110980710
20
-11.0527536977
11
41.6106003022
21
-11.0526222835
62
2
0
LINE
8
Setbacks
10
41.6106003022
20
-11.0526222835
11
41.6101292194
21
-11.0524146189
62
2
0
LINE
8
Setbacks
10
41.6101292194
20
-11.0524146189
11
40.5081196697
21
-10.4593155185
62
2
0
LINE
8
Setbacks
10
40.5081196697
20
-10.4593155185
11
40.5076868731
21
-10.4590367173
62
2
0
LINE
8
Setbacks
10
40.5076868731
20
-10.4590367173
11
40.5073030190
21
-10.4586936443
62
2
0
LINE
8
Setbacks
10
40.5073030190
20
-10.4586936443
11
39.6425073876
21
-9.5540833791
62
2
0
LINE
8
Setbacks
10
39.6425073876
20
-9.5540833791
11
39.6421819276
21
-9.5536844816
62
2
0
LINE
8
Setbacks
10
39.6421819276
20
-9.5536844816
11
39.6419228759
21
-9.5532395820
62
2
0
LINE
8
Setbacks
10
39.6419228759
20
-9.5532395820
11
39.0989933966
21
-8.4256673674
62
2
0
LINE
8
Setbacks
10
39.0989933966
20
-8.4256673674
11
39.0988071321
21
-8.4251874212
62
2
0
LINE
8
Setbacks
10
39.0988071321
20
-8.4251874212
11
39.0986982409
21
-8.4246842458
62
2
0
LINE
8
Setbacks
10
39.0986982409
20
-8.4246842458
11
38.9307802565
21
-7.1845247573
62
2
0
LINE
8
Setbacks
10
38.9307802565
20
-7.1845247573
11
38.9307514199
21
-7.1840107416
62
2
0
LINE
8
Setbacks
10
38.9307514199
20
-7.1840107416
11
39.1980814809
21
4.6964115546
62
2
0
LINE
8
Setbacks
10
39.1980814809
20
4.6964115546
11
39.1981334090
21
4.6969237520
62
2
0
LINE
8
Setbacks
10
39.1981334090
20
4.6969237520
11
39.4216642561
21
5.9282748413
62
2
0
LINE
8
Setbacks
10
39.4216642561
20
5.9282748413
11
39.4217956703
21
5.9287726102
62
2
0
LINE
8
Setbacks
10
39.4217956703
20
5.9287726102
11
39.4220033349
21
5.9292436929
62
2
0
LINE
8
Setbacks
10
39.4220033349
20
5.9292436929
11
40.0151024352
21
7.0312532426
62
2
0
LINE
8
Setbacks
10
40.0151024352
20
7.0312532426
11
40.0153812363
21
7.0316860390
62
2
0
LINE
8
Setbacks
10
40.0153812363
20
7.0316860390
11
40.0157243091
21
7.0320698929
62
2
0
LINE
8
Setbacks
10
40.0157243091
20
7.0320698929
11
40.9203345742
21
7.8968658524
62
2
0
LINE
8
Setbacks
10
40.9203345742
20
7.8968658524
11
40.9207334719
21
7.8971913126
62
2
0
LINE
8
Setbacks
10
40.9207334719
20
7.8971913126
11
40.9211783718
21
7.8974503645
62
2
0
LINE
8
Setbacks
10
40.9211783718
20
7.8974503645
11
42.0487505864
21
8.4403798438
62
2
0
LINE
8
Setbacks
10
42.0487505864
20
8.4403798438
11
42.0492305325
21
8.4405661083
62
2
0
LINE
8
Setbacks
10
42.0492305325
20
8.4405661083
11
42.0497337079
21
8.4406749995
62
2
0
LINE
8
Setbacks
10
42.0497337079
20
8.4406749995
11
43.2898931964
21
8.6085929839
62
2
0
LINE
8
Setbacks
10
43.2898931964
20
8.6085929839
11
43.2904072121
21
8.6086218205
62
2
0
LINE
8
Setbacks
10
43.2904072121
20
8.6086218205
11
47.9914766102
21
8.5028397113
62
2
0
LINE
8
Setbacks
10
47.9914766102
20
8.5028397113
11
47.8656830873
21
14.2852103338
62
2
0
LINE
8
Setbacks
10
47.8656830873
20
14.2852103338
11
-8.2888262636
21
14.7618237128
62
2
0
LINE
8
Setbacks
10
-8.2888262636
20
14.7618237128
11
-8.2955989619
21
13.5377069688
62
2
0
LINE
8
Setbacks
10
-8.2955989619
20
13.5377069688
11
-6.1965634114
21
13.5260935585
62
2
0
LINE
8
Setbacks
10
-6.1965634114
20
13.5260935585
11
-6.1960504056
21
13.5260503268
62
2
0
LINE
8
Setbacks
10
-6.1960504056
20
13.5260503268
11
-4.9610844869
21
13.3234404122
62
2
0
LINE
8
Setbacks
10
-4.9610844869
20
13.3234404122
11
-4.9605845612
21
13.3233174614
62
2
0
LINE
8
Setbacks
10
-4.9605845612
20
13.3233174614
11
-4.9601100241
21
13.3231178187
62
2
0
LINE
8
Setbacks
10
-4.9601100241
20
13.3231178187
11
-3.8481972589
21
12.7487992308
62
2
0
LINE
8
Setbacks
10
-3.8481972589
20
12.7487992308
11
-3.8477597941
21
12.7485278115
62
2
0
LINE
8
Setbacks
10
-3.8477597941
20
12.7485278115
11
-3.8473701747
21
12.7481912992
62
2
0
LINE
8
Setbacks
10
-3.8473701747
20
12.7481912992
11
-2.9673527581
21
11.8583815594
62
2
0
LINE
8
Setbacks
10
-2.9673527581
20
11.8583815594
11
-2.9670205783
21
11.8579882409
62
2
0
LINE
8
Setbacks
10
-2.9670205783
20
11.8579882409
11
-2.9667540167
21
11.8575478005
62
2
0
LINE
8
Setbacks
10
-2.9667540167
20
11.8575478005
11
-2.4047740118
21
10.7393486177
62
2
0
LINE
8
Setbacks
10
-2.4047740118
20
10.7393486177
11
-2.4045796319
21
10.7388719000
62
2
0
LINE
8
Setbacks
10
-2.4045796319
20
10.7388719000
11
-2.4044622202
21
10.7383706436
62
2
0
LINE
8
Setbacks
10
-2.4044622202
20
10.7383706436
11
-2.2155301275
21
9.5012383862
62
2
0
LINE
8
Setbacks
10
-2.2155301275
20
9.5012383862
11
-2.2154925752
21
9.5007249342
62
2
0
LINE
8
Setbacks
10
-2.2154925752
20
9.5007249342
11
-2.3635148519
21
-17.2528394109
62
2
0
LINE
8
Setbacks
10
12.6972557876
20
7.4328686658
11
12.6907449254
21
7.3086359400
62
2
0
LINE
8
Setbacks
10
12.6907449254
20
7.3086359400
11
12.6906777273
21
7.3081255223
62
2
0
LINE
8
Setbacks
10
12.6906777273
20
7.3081255223
11
12.6905315098
21
7.3076319006
62
2
0
LINE
8
Setbacks
10
12.6905315098
20
7.3076319006
11
12.6486724730
21
7.1985853853
62
2
0
LINE
8
Setbacks
10
12.6486724730
20
7.1985853853
11
12.6206827802
21
7.0218655967
62
2
0
LINE
8
Setbacks
10
12.6206827802
20
7.0218655967
11
12.6205625957
21
7.0213649940
62
2
0
LINE
8
Setbacks
10
12.6205625957
20
7.0213649940
11
12.5822243399
21
6.9033725361
62
2
0
LINE
8
Setbacks
10
12.5822243399
20
6.9033725361
11
12.5820273256
21
6.9028969031
62
2
0
LINE
8
Setbacks
10
12.5820273256
20
6.9028969031
11
12.5007983760
21
6.7434764570
62
2
0
LINE
8
Setbacks
10
12.5007983760
20
6.7434764570
11
12.4705670861
21
6.6306510731
62
2
0
LINE
8
Setbacks
10
12.4705670861
20
6.6306510731
11
12.4703952340
21
6.6301657762
62
2
0
LINE
8
Setbacks
10
12.4703952340
20
6.6301657762
11
12.4701495802
21
6.6297133379
62
2
0
LINE
8
Setbacks
10
12.4701495802
20
6.6297133379
11
12.4023945343
21
6.5253797807
62
2
0
LINE
8
Setbacks
10
12.4023945343
20
6.5253797807
11
12.3701966755
21
6.4052153680
62
2
0
LINE
8
Setbacks
10
12.3701966755
20
6.4052153680
11
12.3700248229
21
6.4047300710
62
2
0
LINE
8
Setbacks
10
12.3700248229
20
6.4047300710
11
12.3697791685
21
6.4042776327
62
2
0
LINE
8
Setbacks
10
12.3697791685
20
6.4042776327
11
12.3061625146
21
6.3063168309
62
2
0
LINE
8
Setbacks
10
12.3061625146
20
6.3063168309
11
12.2420426512
21
6.1392785190
62
2
0
LINE
8
Setbacks
10
12.2420426512
20
6.1392785190
11
12.2418210120
21
6.1388138428
62
2
0
LINE
8
Setbacks
10
12.2418210120
20
6.1388138428
11
12.1797885297
21
6.0313705979
62
2
0
LINE
8
Setbacks
10
12.1797885297
20
6.0313705979
11
12.1794969311
21
6.0309463197
62
2
0
LINE
8
Setbacks
10
12.1794969311
20
6.0309463197
11
12.0668983199
21
5.8918986824
62
2
0
LINE
8
Setbacks
10
12.0668983199
20
5.8918986824
11
12.0138695007
21
5.7878237078
62
2
0
LINE
8
Setbacks
10
12.0138695007
20
5.7878237078
11
12.0136005042
21
5.7873847458
62
2
0
LINE
8
Setbacks
10
12.0136005042
20
5.7873847458
11
12.0132661504
21
5.7869932689
62
2
0
LINE
8
Setbacks
10
12.0132661504
20
5.7869932689
11
11.9252992714
21
5.6990267166
62
2
0
LINE
8
Setbacks
10
11.9252992714
20
5.6990267166
11
11.8688215977
21
5.5881826291
62
2
0
LINE
8
Setbacks
10
11.8688215977
20
5.5881826291
11
11.8685526024
21
5.5877436675
62
2
0
LINE
8
Setbacks
10
11.8685526024
20
5.5877436675
11
11.8682182498
21
5.5873521907
62
2
0
LINE
8
Setbacks
10
11.8682182498
20
5.5873521907
11
11.7856241524
21
5.5047580932
62
2
0
LINE
8
Setbacks
10
11.7856241524
20
5.5047580932
11
11.6881764585
21
5.3547018148
62
2
0
LINE
8
Setbacks
10
11.6881764585
20
5.3547018148
11
11.6878630562
21
5.3542933806
62
2
0
LINE
8
Setbacks
10
11.6878630562
20
5.3542933806
11
11.6048476336
21
5.2620952149
62
2
0
LINE
8
Setbacks
10
11.6048476336
20
5.2620952149
11
11.6044741913
21
5.2617408310
62
2
0
LINE
8
Setbacks
10
11.6044741913
20
5.2617408310
11
11.4654252407
21
5.1491412347
62
2
0
LINE
8
Setbacks
10
11.4654252407
20
5.1491412347
11
11.3919178374
21
5.0583672200
62
2
0
LINE
8
Setbacks
10
11.3919178374
20
5.0583672200
11
11.3915634578
21
5.0579937818
62
2
0
LINE
8
Setbacks
10
11.3915634578
20
5.0579937818
11
11.3911550227
21
5.0576803782
62
2
0
LINE
8
Setbacks
10
11.3911550227
20
5.0576803782
11
11.2868221182
21
4.9899256585
62
2
0
LINE
8
Setbacks
10
11.2868221182
20
4.9899256585
11
11.2085320047
21
4.8932454955
62
2
0
LINE
8
Setbacks
10
11.2085320047
20
4.8932454955
11
11.2081776236
21
4.8928720560
62
2
0
LINE
8
Setbacks
10
11.2081776236
20
4.8928720560
11
11.2077691866
21
4.8925586515
62
2
0
LINE
8
Setbacks
10
11.2077691866
20
4.8925586515
11
11.1098080548
21
4.8289419957
62
2
0
LINE
8
Setbacks
10
11.1098080548
20
4.8289419957
11
10.9832910561
21
4.7024249970
62
2
0
LINE
8
Setbacks
10
10.9832910561
20
4.7024249970
11
10.9828995788
21
4.7020906441
62
2
0
LINE
8
Setbacks
10
10.9828995788
20
4.7020906441
11
10.8825291688
21
4.6291674134
62
2
0
LINE
8
Setbacks
10
10.8825291688
20
4.6291674134
11
10.8820902145
21
4.6288984219
62
2
0
LINE
8
Setbacks
10
10.8820902145
20
4.6288984219
11
10.7226691055
21
4.5476691408
62
2
0
LINE
8
Setbacks
10
10.7226691055
20
4.5476691408
11
10.6318947605
21
4.4741617349
62
2
0
LINE
8
Setbacks
10
10.6318947605
20
4.4741617349
11
10.6314704850
21
4.4738701388
62
2
0
LINE
8
Setbacks
10
10.6314704850
20
4.4738701388
11
10.6310058177
21
4.4736485034
62
2
0
LINE
8
Setbacks
10
10.6310058177
20
4.4736485034
11
10.5148659285
21
4.4290663482
62
2
0
LINE
8
Setbacks
10
10.5148659285
20
4.4290663482
11
10.4181857635
21
4.3507765598
62
2
0
LINE
8
Setbacks
10
10.4181857635
20
4.3507765598
11
10.4177614853
21
4.3504849623
62
2
0
LINE
8
Setbacks
10
10.4177614853
20
4.3504849623
11
10.4172968150
21
4.3502633263
62
2
0
LINE
8
Setbacks
10
10.4172968150
20
4.3502633263
11
10.3082493163
21
4.3084039616
62
2
0
LINE
8
Setbacks
10
10.3082493163
20
4.3084039616
11
10.1581930385
21
4.2109562681
62
2
0
LINE
8
Setbacks
10
10.1581930385
20
4.2109562681
11
10.1577406033
21
4.2107106158
62
2
0
LINE
8
Setbacks
10
10.1577406033
20
4.2107106158
11
10.0444020170
21
4.1602490000
62
2
0
LINE
8
Setbacks
10
10.0444020170
20
4.1602490000
11
10.0439167234
21
4.1600771484
62
2
0
LINE
8
Setbacks
10
10.0439167234
20
4.1600771484
11
9.8710916610
21
4.1137687576
62
2
0
LINE
8
Setbacks
10
9.8710916610
20
4.1137687576
11
9.7670173412
21
4.0607402658
62
2
0
LINE
8
Setbacks
10
9.7670173412
20
4.0607402658
11
9.7665417070
21
4.0605432516
62
2
0
LINE
8
Setbacks
10
9.7665417070
20
4.0605432516
11
9.7660411088
21
4.0604230686
62
2
0
LINE
8
Setbacks
10
9.7660411088
20
4.0604230686
11
9.6431691697
21
4.0409620338
62
2
0
LINE
8
Setbacks
10
9.6431691697
20
4.0409620338
11
9.5323247479
21
3.9844840295
62
2
0
LINE
8
Setbacks
10
9.5323247479
20
3.9844840295
11
9.5318491125
21
3.9842870151
62
2
0
LINE
8
Setbacks
10
9.5318491125
20
3.9842870151
11
9.5313485131
21
3.9841668321
62
2
0
LINE
8
Setbacks
10
9.5313485131
20
3.9841668321
11
9.4159820748
21
3.9658946594
62
2
0
LINE
8
Setbacks
10
9.4159820748
20
3.9658946594
11
9.2489434333
21
3.9017744677
62
2
0
LINE
8
Setbacks
10
9.2489434333
20
3.9017744677
11
9.2484498036
21
3.9016282483
62
2
0
LINE
8
Setbacks
10
9.2484498036
20
3.9016282483
11
9.1270961252
21
3.8758339561
62
2
0
LINE
8
Setbacks
10
9.1270961252
20
3.8758339561
11
9.1265857141
21
3.8757667595
62
2
0
LINE
8
Setbacks
10
9.1265857141
20
3.8757667595
11
8.9479090662
21
3.8664025885
62
2
0
LINE
8
Setbacks
10
8.9479090662
20
3.8664025885
11
8.8350840042
21
3.8361712972
62
2
0
LINE
8
Setbacks
10
8.8350840042
20
3.8361712972
11
8.8345778013
21
3.8360774785
62
2
0
LINE
8
Setbacks
10
8.8345778013
20
3.8360774785
11
8.8340631542
21
3.8360640024
62
2
0
LINE
8
Setbacks
10
8.8340631542
20
3.8360640024
11
8.7098304348
21
3.8425748642
62
2
0
LINE
8
Setbacks
10
8.7098304348
20
3.8425748642
11
8.5896656951
21
3.8103766785
62
2
0
LINE
8
Setbacks
10
8.5896656951
20
3.8103766785
11
8.5891594895
21
3.8102828585
62
2
0
LINE
8
Setbacks
10
8.5891594895
20
3.8102828585
11
8.5886448394
21
3.8102693821
62
2
0
LINE
8
Setbacks
10
8.5886448394
20
3.8102693821
11
8.4720000220
21
3.8163825685
62
2
0
LINE
8
Setbacks
10
8.4720000220
20
3.8163825685
11
8.2952805637
21
3.7883928762
62
2
0
LINE
8
Setbacks
10
8.2952805637
20
3.7883928762
11
8.2947673258
21
3.7883524834
62
2
0
LINE
8
Setbacks
10
8.2947673258
20
3.7883524834
11
8.1707026893
21
3.7883524834
62
2
0
LINE
8
Setbacks
10
8.1707026893
20
3.7883524834
11
8.1701894514
21
3.7883928762
62
2
0
LINE
8
Setbacks
10
8.1701894514
20
3.7883928762
11
7.9934699931
21
3.8163825685
62
2
0
LINE
8
Setbacks
10
7.9934699931
20
3.8163825685
11
7.8768251757
21
3.8102693821
62
2
0
LINE
8
Setbacks
10
7.8768251757
20
3.8102693821
11
7.8763105256
21
3.8102828585
62
2
0
LINE
8
Setbacks
10
7.8763105256
20
3.8102828585
11
7.8758043199
21
3.8103766785
62
2
0
LINE
8
Setbacks
10
7.8758043199
20
3.8103766785
11
7.7556395803
21
3.8425748642
62
2
0
LINE
8
Setbacks
10
7.7556395803
20
3.8425748642
11
7.6314068609
21
3.8360640024
62
2
0
LINE
8
Setbacks
10
7.6314068609
20
3.8360640024
11
7.6308922137
21
3.8360774785
62
2
0
LINE
8
Setbacks
10
7.6308922137
20
3.8360774785
11
7.6303860109
21
3.8361712972
62
2
0
LINE
8
Setbacks
10
7.6303860109
20
3.8361712972
11
7.5175609490
21
3.8664025885
62
2
0
LINE
8
Setbacks
10
7.5175609490
20
3.8664025885
11
7.3388839732
21
3.8757667595
62
2
0
LINE
8
Setbacks
10
7.3388839732
20
3.8757667595
11
7.3383735601
21
3.8758339565
62
2
0
LINE
8
Setbacks
10
7.3383735601
20
3.8758339565
11
7.2170202097
21
3.9016282487
62
2
0
LINE
8
Setbacks
10
7.2170202097
20
3.9016282487
11
7.2165265818
21
3.9017744677
62
2
0
LINE
8
Setbacks
10
7.2165265818
20
3.9017744677
11
7.0494879403
21
3.9658946594
62
2
0
LINE
8
Setbacks
10
7.0494879403
20
3.9658946594
11
6.9341215020
21
3.9841668321
62
2
0
LINE
8
Setbacks
10
6.9341215020
20
3.9841668321
11
6.9336209026
21
3.9842870151
62
2
0
LINE
8
Setbacks
10
6.9336209026
20
3.9842870151
11
6.9331452672
21
3.9844840295
62
2
0
LINE
8
Setbacks
10
6.9331452672
20
3.9844840295
11
6.8223008454
21
4.0409620338
62
2
0
LINE
8
Setbacks
10
6.8223008454
20
4.0409620338
11
6.6994289063
21
4.0604230686
62
2
0
LINE
8
Setbacks
10
6.6994289063
20
4.0604230686
11
6.6989283081
21
4.0605432516
62
2
0
LINE
8
Setbacks
10
6.6989283081
20
4.0605432516
11
6.6984526738
21
4.0607402658
62
2
0
LINE
8
Setbacks
10
6.6984526738
20
4.0607402658
11
6.5943783541
21
4.1137687576
62
2
0
LINE
8
Setbacks
10
6.5943783541
20
4.1137687576
11
6.4215532917
21
4.1600771484
62
2
0
LINE
8
Setbacks
10
6.4215532917
20
4.1600771484
11
6.4210680013
21
4.1602489986
62
2
0
LINE
8
Setbacks
10
6.4210680013
20
4.1602489986
11
6.3077290869
21
4.2107106143
62
2
0
LINE
8
Setbacks
10
6.3077290869
20
4.2107106143
11
6.3072766470
21
4.2109562691
62
2
0
LINE
8
Setbacks
10
6.3072766470
20
4.2109562691
11
6.1572200426
21
4.3084042894
62
2
0
LINE
8
Setbacks
10
6.1572200426
20
4.3084042894
11
6.0481732020
21
4.3502633256
62
2
0
LINE
8
Setbacks
10
6.0481732020
20
4.3502633256
11
6.0477085283
21
4.3504849632
62
2
0
LINE
8
Setbacks
10
6.0477085283
20
4.3504849632
11
6.0472842474
21
4.3507765632
62
2
0
LINE
8
Setbacks
10
6.0472842474
20
4.3507765632
11
5.9506044145
21
4.4290663472
62
2
0
LINE
8
Setbacks
10
5.9506044145
20
4.4290663472
11
5.8344638750
21
4.4736485011
62
2
0
LINE
8
Setbacks
10
5.8344638750
20
4.4736485011
11
5.8339992041
21
4.4738701376
62
2
0
LINE
8
Setbacks
10
5.8339992041
20
4.4738701376
11
5.8335749254
21
4.4741617358
62
2
0
LINE
8
Setbacks
10
5.8335749254
20
4.4741617358
11
5.7428002528
21
4.5476694692
62
2
0
LINE
8
Setbacks
10
5.7428002528
20
4.5476694692
11
5.5833798005
21
4.6288984220
62
2
0
LINE
8
Setbacks
10
5.5833798005
20
4.6288984220
11
5.5829408463
21
4.6291674134
62
2
0
LINE
8
Setbacks
10
5.5829408463
20
4.6291674134
11
5.4825704362
21
4.7020906441
62
2
0
LINE
8
Setbacks
10
5.4825704362
20
4.7020906441
11
5.4821789590
21
4.7024249970
62
2
0
LINE
8
Setbacks
10
5.4821789590
20
4.7024249970
11
5.3556619603
21
4.8289419957
62
2
0
LINE
8
Setbacks
10
5.3556619603
20
4.8289419957
11
5.2577008285
21
4.8925586515
62
2
0
LINE
8
Setbacks
10
5.2577008285
20
4.8925586515
11
5.2572923915
21
4.8928720560
62
2
0
LINE
8
Setbacks
10
5.2572923915
20
4.8928720560
11
5.2569380103
21
4.8932454955
62
2
0
LINE
8
Setbacks
10
5.2569380103
20
4.8932454955
11
5.1786478969
21
4.9899256585
62
2
0
LINE
8
Setbacks
10
5.1786478969
20
4.9899256585
11
5.0743149924
21
5.0576803782
62
2
0
LINE
8
Setbacks
10
5.0743149924
20
5.0576803782
11
5.0739065573
21
5.0579937818
62
2
0
LINE
8
Setbacks
10
5.0739065573
20
5.0579937818
11
5.0735521777
21
5.0583672200
62
2
0
LINE
8
Setbacks
10
5.0735521777
20
5.0583672200
11
5.0000447744
21
5.1491412347
62
2
0
LINE
8
Setbacks
10
5.0000447744
20
5.1491412347
11
4.8609958238
21
5.2617408310
62
2
0
LINE
8
Setbacks
10
4.8609958238
20
5.2617408310
11
4.8606223858
21
5.2620952101
62
2
0
LINE
8
Setbacks
10
4.8606223858
20
5.2620952101
11
4.7776066351
21
5.3542933758
62
2
0
LINE
8
Setbacks
10
4.7776066351
20
5.3542933758
11
4.7772932286
21
5.3547018146
62
2
0
LINE
8
Setbacks
10
4.7772932286
20
5.3547018146
11
4.6798448786
21
5.5047590774
62
2
0
LINE
8
Setbacks
10
4.6798448786
20
5.5047590774
11
4.5972517653
21
5.5873521907
62
2
0
LINE
8
Setbacks
10
4.5972517653
20
5.5873521907
11
4.5969174127
21
5.5877436675
62
2
0
LINE
8
Setbacks
10
4.5969174127
20
5.5877436675
11
4.5966484174
21
5.5881826291
62
2
0
LINE
8
Setbacks
10
4.5966484174
20
5.5881826291
11
4.5401707437
21
5.6990267166
62
2
0
LINE
8
Setbacks
10
4.5401707437
20
5.6990267166
11
4.4522038647
21
5.7869932689
62
2
0
LINE
8
Setbacks
10
4.4522038647
20
5.7869932689
11
4.4518695121
21
5.7873847441
62
2
0
LINE
8
Setbacks
10
4.4518695121
20
5.7873847441
11
4.4516005164
21
5.7878237040
62
2
0
LINE
8
Setbacks
10
4.4516005164
20
5.7878237040
11
4.3985720242
21
5.8918976973
62
2
0
LINE
8
Setbacks
10
4.3985720242
20
5.8918976973
11
4.2859727546
21
6.0309463213
62
2
0
LINE
8
Setbacks
10
4.2859727546
20
6.0309463213
11
4.2856811535
21
6.0313706044
62
2
0
LINE
8
Setbacks
10
4.2856811535
20
6.0313706044
11
4.2236489993
21
6.1388138493
62
2
0
LINE
8
Setbacks
10
4.2236489993
20
6.1388138493
11
4.2234273639
21
6.1392785190
62
2
0
LINE
8
Setbacks
10
4.2234273639
20
6.1392785190
11
4.1593075005
21
6.3063168309
62
2
0
LINE
8
Setbacks
10
4.1593075005
20
6.3063168309
11
4.0956908465
21
6.4042776327
62
2
0
LINE
8
Setbacks
10
4.0956908465
20
6.4042776327
11
4.0954451922
21
6.4047300710
62
2
0
LINE
8
Setbacks
10
4.0954451922
20
6.4047300710
11
4.0952733396
21
6.4052153680
62
2
0
LINE
8
Setbacks
10
4.0952733396
20
6.4052153680
11
4.0630754808
21
6.5253797807
62
2
0
LINE
8
Setbacks
10
4.0630754808
20
6.5253797807
11
3.9953204349
21
6.6297133379
62
2
0
LINE
8
Setbacks
10
3.9953204349
20
6.6297133379
11
3.9950747830
21
6.6301657718
62
2
0
LINE
8
Setbacks
10
3.9950747830
20
6.6301657718
11
3.9949029314
21
6.6306510639
62
2
0
LINE
8
Setbacks
10
3.9949029314
20
6.6306510639
11
3.9646716405
21
6.7434751430
62
2
0
LINE
8
Setbacks
10
3.9646716405
20
6.7434751430
11
3.8834423589
21
6.9028969080
62
2
0
LINE
8
Setbacks
10
3.8834423589
20
6.9028969080
11
3.8832453445
21
6.9033725440
62
2
0
LINE
8
Setbacks
10
3.8832453445
20
6.9033725440
11
3.8449074168
21
7.0213650018
62
2
0
LINE
8
Setbacks
10
3.8449074168
20
7.0213650018
11
3.8447872349
21
7.0218655967
62
2
0
LINE
8
Setbacks
10
3.8447872349
20
7.0218655967
11
3.8167975421
21
7.1985853853
62
2
0
LINE
8
Setbacks
10
3.8167975421
20
7.1985853853
11
3.7749385052
21
7.3076319006
62
2
0
LINE
8
Setbacks
10
3.7749385052
20
7.3076319006
11
3.7747922877
21
7.3081255223
62
2
0
LINE
8
Setbacks
10
3.7747922877
20
7.3081255223
11
3.7747250896
21
7.3086359400
62
2
0
LINE
8
Setbacks
10
3.7747250896
20
7.3086359400
11
3.7682142275
21
7.4328686658
62
2
0
LINE
8
Setbacks
10
3.7682142275
20
7.4328686658
11
3.7236320718
21
7.5490095365
62
2
0
LINE
8
Setbacks
10
3.7236320718
20
7.5490095365
11
3.7234858553
21
7.5495031563
62
2
0
LINE
8
Setbacks
10
3.7234858553
20
7.5495031563
11
3.7234186576
21
7.5500135721
62
2
0
LINE
8
Setbacks
10
3.7234186576
20
7.5500135721
11
3.7173054710
21
7.6666580660
62
2
0
LINE
8
Setbacks
10
3.7173054710
20
7.6666580660
11
3.6709970794
21
7.8394837862
62
2
0
LINE
8
Setbacks
10
3.6709970794
20
7.8394837862
11
3.6709032605
21
7.8399899902
62
2
0
LINE
8
Setbacks
10
3.6709032605
20
7.8399899902
11
3.6579350842
21
7.9633751648
62
2
0
LINE
8
Setbacks
10
3.6579350842
20
7.9633751648
11
3.6579216082
21
7.9638898108
62
2
0
LINE
8
Setbacks
10
3.6579216082
20
7.9638898108
11
3.6672857789
21
8.1425664531
62
2
0
LINE
8
Setbacks
10
3.6672857789
20
8.1425664531
11
3.6490132790
21
8.2579335461
62
2
0
LINE
8
Setbacks
10
3.6490132790
20
8.2579335461
11
3.6489728858
21
8.2584467849
62
2
0
LINE
8
Setbacks
10
3.6489728858
20
8.2584467849
11
3.6490132785
21
8.2589600238
62
2
0
LINE
8
Setbacks
10
3.6490132785
20
8.2589600238
11
3.6684743130
21
8.3818319611
62
2
0
LINE
8
Setbacks
10
3.6684743130
20
8.3818319611
11
3.6490132785
21
8.5047038984
62
2
0
LINE
8
Setbacks
10
3.6490132785
20
8.5047038984
11
3.6489728858
21
8.5052171373
62
2
0
LINE
8
Setbacks
10
3.6489728858
20
8.5052171373
11
3.6490132790
21
8.5057303762
62
2
0
LINE
8
Setbacks
10
3.6490132790
20
8.5057303762
11
3.6672857789
21
8.6210974692
62
2
0
LINE
8
Setbacks
10
3.6672857789
20
8.6210974692
11
3.6579216082
21
8.7997741115
62
2
0
LINE
8
Setbacks
10
3.6579216082
20
8.7997741115
11
3.6579350842
21
8.8002887575
62
2
0
LINE
8
Setbacks
10
3.6579350842
20
8.8002887575
11
3.6709032605
21
8.9236739320
62
2
0
LINE
8
Setbacks
10
3.6709032605
20
8.9236739320
11
3.6709970794
21
8.9241801360
62
2
0
LINE
8
Setbacks
10
3.6709970794
20
8.9241801360
11
3.7173054710
21
9.0970058563
62
2
0
LINE
8
Setbacks
10
3.7173054710
20
9.0970058563
11
3.7234186576
21
9.2136503502
62
2
0
LINE
8
Setbacks
10
3.7234186576
20
9.2136503502
11
3.7234858553
21
9.2141607660
62
2
0
LINE
8
Setbacks
10
3.7234858553
20
9.2141607660
11
3.7236320718
21
9.2146543858
62
2
0
LINE
8
Setbacks
10
3.7236320718
20
9.2146543858
11
3.7682142275
21
9.3307952564
62
2
0
LINE
8
Setbacks
10
3.7682142275
20
9.3307952564
11
3.7747250896
21
9.4550279822
62
2
0
LINE
8
Setbacks
10
3.7747250896
20
9.4550279822
11
3.7747922877
21
9.4555384000
62
2
0
LINE
8
Setbacks
10
3.7747922877
20
9.4555384000
11
3.7749385052
21
9.4560320216
62
2
0
LINE
8
Setbacks
10
3.7749385052
20
9.4560320216
11
3.8167975421
21
9.5650785370
62
2
0
LINE
8
Setbacks
10
3.8167975421
20
9.5650785370
11
3.8447872349
21
9.7417983256
62
2
0
LINE
8
Setbacks
10
3.8447872349
20
9.7417983256
11
3.8449074168
21
9.7422989205
62
2
0
LINE
8
Setbacks
10
3.8449074168
20
9.7422989205
11
3.8832453445
21
9.8602913783
62
2
0
LINE
8
Setbacks
10
3.8832453445
20
9.8602913783
11
3.8834423589
21
9.8607670143
62
2
0
LINE
8
Setbacks
10
3.8834423589
20
9.8607670143
11
3.9646716405
21
10.0201887792
62
2
0
LINE
8
Setbacks
10
3.9646716405
20
10.0201887792
11
3.9949029314
21
10.1330128584
62
2
0
LINE
8
Setbacks
10
3.9949029314
20
10.1330128584
11
3.9950747830
21
10.1334981504
62
2
0
LINE
8
Setbacks
10
3.9950747830
20
10.1334981504
11
3.9953204349
21
10.1339505844
62
2
0
LINE
8
Setbacks
10
3.9953204349
20
10.1339505844
11
4.0630754808
21
10.2382841415
62
2
0
LINE
8
Setbacks
10
4.0630754808
20
10.2382841415
11
4.0952733396
21
10.3584485543
62
2
0
LINE
8
Setbacks
10
4.0952733396
20
10.3584485543
11
4.0954451922
21
10.3589338513
62
2
0
LINE
8
Setbacks
10
4.0954451922
20
10.3589338513
11
4.0956908465
21
10.3593862896
62
2
0
LINE
8
Setbacks
10
4.0956908465
20
10.3593862896
11
4.1593075005
21
10.4573470914
62
2
0
LINE
8
Setbacks
10
4.1593075005
20
10.4573470914
11
4.2234273639
21
10.6243854032
62
2
0
LINE
8
Setbacks
10
4.2234273639
20
10.6243854032
11
4.2236489993
21
10.6248500729
62
2
0
LINE
8
Setbacks
10
4.2236489993
20
10.6248500729
11
4.2856811535
21
10.7322933178
62
2
0
LINE
8
Setbacks
10
4.2856811535
20
10.7322933178
11
4.2859727576
21
10.7327176046
62
2
0
LINE
8
Setbacks
10
4.2859727576
20
10.7327176046
11
4.3985723507
21
10.8717662238
62
2
0
LINE
8
Setbacks
10
4.3985723507
20
10.8717662238
11
4.4516005127
21
10.9758402110
62
2
0
LINE
8
Setbacks
10
4.4516005127
20
10.9758402110
11
4.4518695097
21
10.9762791749
62
2
0
LINE
8
Setbacks
10
4.4518695097
20
10.9762791749
11
4.4522038647
21
10.9766706534
62
2
0
LINE
8
Setbacks
10
4.4522038647
20
10.9766706534
11
4.5401707437
21
11.0646372057
62
2
0
LINE
8
Setbacks
10
4.5401707437
20
11.0646372057
11
4.5966484174
21
11.1754812932
62
2
0
LINE
8
Setbacks
10
4.5966484174
20
11.1754812932
11
4.5969174127
21
11.1759202548
62
2
0
LINE
8
Setbacks
10
4.5969174127
20
11.1759202548
11
4.5972517653
21
11.1763117316
62
2
0
LINE
8
Setbacks
10
4.5972517653
20
11.1763117316
11
4.6798448786
21
11.2589048449
62
2
0
LINE
8
Setbacks
10
4.6798448786
20
11.2589048449
11
4.7772932286
21
11.4089621076
62
2
0
LINE
8
Setbacks
10
4.7772932286
20
11.4089621076
11
4.7776066351
21
11.4093705464
62
2
0
LINE
8
Setbacks
10
4.7776066351
20
11.4093705464
11
4.8606223858
21
11.5015687121
62
2
0
LINE
8
Setbacks
10
4.8606223858
20
11.5015687121
11
4.8609958216
21
11.5019230894
62
2
0
LINE
8
Setbacks
10
4.8609958216
20
11.5019230894
11
5.0000441183
21
11.6145223592
62
2
0
LINE
8
Setbacks
10
5.0000441183
20
11.6145223592
11
5.0735521794
21
11.7052970324
62
2
0
LINE
8
Setbacks
10
5.0735521794
20
11.7052970324
11
5.0739065601
21
11.7056704710
62
2
0
LINE
8
Setbacks
10
5.0739065601
20
11.7056704710
11
5.0743149963
21
11.7059838747
62
2
0
LINE
8
Setbacks
10
5.0743149963
20
11.7059838747
11
5.1786482259
21
11.7737385933
62
2
0
LINE
8
Setbacks
10
5.1786482259
20
11.7737385933
11
5.2569380095
21
11.8704184257
62
2
0
LINE
8
Setbacks
10
5.2569380095
20
11.8704184257
11
5.2572923911
21
11.8707918659
62
2
0
LINE
8
Setbacks
10
5.2572923911
20
11.8707918659
11
5.2577008285
21
11.8711052708
62
2
0
LINE
8
Setbacks
10
5.2577008285
20
11.8711052708
11
5.3556619603
21
11.9347219266
62
2
0
LINE
8
Setbacks
10
5.3556619603
20
11.9347219266
11
5.4821789590
21
12.0612389253
62
2
0
LINE
8
Setbacks
10
5.4821789590
20
12.0612389253
11
5.4825704362
21
12.0615732781
62
2
0
LINE
8
Setbacks
10
5.4825704362
20
12.0615732781
11
5.5829408463
21
12.1344965088
62
2
0
LINE
8
Setbacks
10
5.5829408463
20
12.1344965088
11
5.5833798005
21
12.1347655003
62
2
0
LINE
8
Setbacks
10
5.5833798005
20
12.1347655003
11
5.7428002528
21
12.2159944531
62
2
0
LINE
8
Setbacks
10
5.7428002528
20
12.2159944531
11
5.8335749254
21
12.2895021865
62
2
0
LINE
8
Setbacks
10
5.8335749254
20
12.2895021865
11
5.8339992041
21
12.2897937846
62
2
0
LINE
8
Setbacks
10
5.8339992041
20
12.2897937846
11
5.8344638750
21
12.2900154211
62
2
0
LINE
8
Setbacks
10
5.8344638750
20
12.2900154211
11
5.9506044145
21
12.3345975751
62
2
0
LINE
8
Setbacks
10
5.9506044145
20
12.3345975751
11
6.0472842474
21
12.4128873590
62
2
0
LINE
8
Setbacks
10
6.0472842474
20
12.4128873590
11
6.0477085283
21
12.4131789591
62
2
0
LINE
8
Setbacks
10
6.0477085283
20
12.4131789591
11
6.0481732020
21
12.4134005966
62
2
0
LINE
8
Setbacks
10
6.0481732020
20
12.4134005966
11
6.1572200426
21
12.4552596328
62
2
0
LINE
8
Setbacks
10
6.1572200426
20
12.4552596328
11
6.3072766470
21
12.5527076532
62
2
0
LINE
8
Setbacks
10
6.3072766470
20
12.5527076532
11
6.3077290797
21
12.5529533047
62
2
0
LINE
8
Setbacks
10
6.3077290797
20
12.5529533047
11
6.4210679940
21
12.6034152486
62
2
0
LINE
8
Setbacks
10
6.4210679940
20
12.6034152486
11
6.4215532906
21
12.6035871017
62
2
0
LINE
8
Setbacks
10
6.4215532906
20
12.6035871017
11
6.5943793397
21
12.6498958211
62
2
0
LINE
8
Setbacks
10
6.5943793397
20
12.6498958211
11
6.6984526773
21
12.7029236583
62
2
0
LINE
8
Setbacks
10
6.6984526773
20
12.7029236583
11
6.6989283099
21
12.7031206712
62
2
0
LINE
8
Setbacks
10
6.6989283099
20
12.7031206712
11
6.6994289063
21
12.7032408537
62
2
0
LINE
8
Setbacks
10
6.6994289063
20
12.7032408537
11
6.8223008454
21
12.7227018885
62
2
0
LINE
8
Setbacks
10
6.8223008454
20
12.7227018885
11
6.9331452672
21
12.7791798928
62
2
0
LINE
8
Setbacks
10
6.9331452672
20
12.7791798928
11
6.9336209026
21
12.7793769072
62
2
0
LINE
8
Setbacks
10
6.9336209026
20
12.7793769072
11
6.9341215020
21
12.7794970902
62
2
0
LINE
8
Setbacks
10
6.9341215020
20
12.7794970902
11
7.0494879403
21
12.7977692629
62
2
0
LINE
8
Setbacks
10
7.0494879403
20
12.7977692629
11
7.2165265818
21
12.8618894546
62
2
0
LINE
8
Setbacks
10
7.2165265818
20
12.8618894546
11
7.2170202014
21
12.8620356718
62
2
0
LINE
8
Setbacks
10
7.2170202014
20
12.8620356718
11
7.3383735518
21
12.8878302921
62
2
0
LINE
8
Setbacks
10
7.3383735518
20
12.8878302921
11
7.3388839744
21
12.8878974909
62
2
0
LINE
8
Setbacks
10
7.3388839744
20
12.8878974909
11
7.5175622617
21
12.8972616620
62
2
0
LINE
8
Setbacks
10
7.5175622617
20
12.8972616620
11
7.6303860103
21
12.9274926249
62
2
0
LINE
8
Setbacks
10
7.6303860103
20
12.9274926249
11
7.6308922134
21
12.9275864438
62
2
0
LINE
8
Setbacks
10
7.6308922134
20
12.9275864438
11
7.6314068609
21
12.9275999199
62
2
0
LINE
8
Setbacks
10
7.6314068609
20
12.9275999199
11
7.7556395803
21
12.9210890581
62
2
0
LINE
8
Setbacks
10
7.7556395803
20
12.9210890581
11
7.8758043199
21
12.9532872437
62
2
0
LINE
8
Setbacks
10
7.8758043199
20
12.9532872437
11
7.8763105256
21
12.9533810637
62
2
0
LINE
8
Setbacks
10
7.8763105256
20
12.9533810637
11
7.8768251757
21
12.9533945401
62
2
0
LINE
8
Setbacks
10
7.8768251757
20
12.9533945401
11
7.9934699931
21
12.9472813537
62
2
0
LINE
8
Setbacks
10
7.9934699931
20
12.9472813537
11
8.1701894514
21
12.9752710460
62
2
0
LINE
8
Setbacks
10
8.1701894514
20
12.9752710460
11
8.1707026893
21
12.9753114388
62
2
0
LINE
8
Setbacks
10
8.1707026893
20
12.9753114388
11
8.2947673258
21
12.9753114388
62
2
0
LINE
8
Setbacks
10
8.2947673258
20
12.9753114388
11
8.2952805637
21
12.9752710460
62
2
0
LINE
8
Setbacks
10
8.2952805637
20
12.9752710460
11
8.4720000220
21
12.9472813537
62
2
0
LINE
8
Setbacks
10
8.4720000220
20
12.9472813537
11
8.5886448394
21
12.9533945401
62
2
0
LINE
8
Setbacks
10
8.5886448394
20
12.9533945401
11
8.5891594895
21
12.9533810637
62
2
0
LINE
8
Setbacks
10
8.5891594895
20
12.9533810637
11
8.5896656951
21
12.9532872437
62
2
0
LINE
8
Setbacks
10
8.5896656951
20
12.9532872437
11
8.7098304348
21
12.9210890581
62
2
0
LINE
8
Setbacks
10
8.7098304348
20
12.9210890581
11
8.8340631542
21
12.9275999199
62
2
0
LINE
8
Setbacks
10
8.8340631542
20
12.9275999199
11
8.8345778017
21
12.9275864438
62
2
0
LINE
8
Setbacks
10
8.8345778017
20
12.9275864438
11
8.8350840048
21
12.9274926249
62
2
0
LINE
8
Setbacks
10
8.8350840048
20
12.9274926249
11
8.9479077536
21
12.8972616620
62
2
0
LINE
8
Setbacks
10
8.9479077536
20
12.8972616620
11
9.1265857129
21
12.8878974909
62
2
0
LINE
8
Setbacks
10
9.1265857129
20
12.8878974909
11
9.1270961335
21
12.8878302925
62
2
0
LINE
8
Setbacks
10
9.1270961335
20
12.8878302925
11
9.2484498119
21
12.8620356722
62
2
0
LINE
8
Setbacks
10
9.2484498119
20
12.8620356722
11
9.2489434333
21
12.8618894546
62
2
0
LINE
8
Setbacks
10
9.2489434333
20
12.8618894546
11
9.4159820748
21
12.7977692629
62
2
0
LINE
8
Setbacks
10
9.4159820748
20
12.7977692629
11
9.5313485131
21
12.7794970902
62
2
0
LINE
8
Setbacks
10
9.5313485131
20
12.7794970902
11
9.5318491125
21
12.7793769072
62
2
0
LINE
8
Setbacks
10
9.5318491125
20
12.7793769072
11
9.5323247479
21
12.7791798928
62
2
0
LINE
8
Setbacks
10
9.5323247479
20
12.7791798928
11
9.6431691697
21
12.7227018885
62
2
0
LINE
8
Setbacks
10
9.6431691697
20
12.7227018885
11
9.7660411088
21
12.7032408537
62
2
0
LINE
8
Setbacks
10
9.7660411088
20
12.7032408537
11
9.7665417052
21
12.7031206712
62
2
0
LINE
8
Setbacks
10
9.7665417052
20
12.7031206712
11
9.7670173378
21
12.7029236583
62
2
0
LINE
8
Setbacks
10
9.7670173378
20
12.7029236583
11
9.8710906754
21
12.6498958211
62
2
0
LINE
8
Setbacks
10
9.8710906754
20
12.6498958211
11
10.0439167245
21
12.6035871017
62
2
0
LINE
8
Setbacks
10
10.0439167245
20
12.6035871017
11
10.0444020243
21
12.6034152471
62
2
0
LINE
8
Setbacks
10
10.0444020243
20
12.6034152471
11
10.1577406106
21
12.5529533033
62
2
0
LINE
8
Setbacks
10
10.1577406106
20
12.5529533033
11
10.1581930385
21
12.5527076541
62
2
0
LINE
8
Setbacks
10
10.1581930385
20
12.5527076541
11
10.3082493163
21
12.4552599607
62
2
0
LINE
8
Setbacks
10
10.3082493163
20
12.4552599607
11
10.4172968150
21
12.4134005959
62
2
0
LINE
8
Setbacks
10
10.4172968150
20
12.4134005959
11
10.4177614882
21
12.4131789583
62
2
0
LINE
8
Setbacks
10
10.4177614882
20
12.4131789583
11
10.4181857687
21
12.4128873582
62
2
0
LINE
8
Setbacks
10
10.4181857687
20
12.4128873582
11
10.5148659285
21
12.3345972474
62
2
0
LINE
8
Setbacks
10
10.5148659285
20
12.3345972474
11
10.6310058102
21
12.2900154218
62
2
0
LINE
8
Setbacks
10
10.6310058102
20
12.2900154218
11
10.6314704815
21
12.2897937855
62
2
0
LINE
8
Setbacks
10
10.6314704815
20
12.2897937855
11
10.6318947605
21
12.2895021874
62
2
0
LINE
8
Setbacks
10
10.6318947605
20
12.2895021874
11
10.7226691055
21
12.2159947815
62
2
0
LINE
8
Setbacks
10
10.7226691055
20
12.2159947815
11
10.8820902145
21
12.1347655003
62
2
0
LINE
8
Setbacks
10
10.8820902145
20
12.1347655003
11
10.8825291688
21
12.1344965088
62
2
0
LINE
8
Setbacks
10
10.8825291688
20
12.1344965088
11
10.9828995788
21
12.0615732781
62
2
0
LINE
8
Setbacks
10
10.9828995788
20
12.0615732781
11
10.9832910561
21
12.0612389253
62
2
0
LINE
8
Setbacks
10
10.9832910561
20
12.0612389253
11
11.1098080548
21
11.9347219266
62
2
0
LINE
8
Setbacks
10
11.1098080548
20
11.9347219266
11
11.2077691866
21
11.8711052708
62
2
0
LINE
8
Setbacks
10
11.2077691866
20
11.8711052708
11
11.2081776240
21
11.8707918659
62
2
0
LINE
8
Setbacks
10
11.2081776240
20
11.8707918659
11
11.2085320055
21
11.8704184257
62
2
0
LINE
8
Setbacks
10
11.2085320055
20
11.8704184257
11
11.2868217892
21
11.7737385933
62
2
0
LINE
8
Setbacks
10
11.2868217892
20
11.7737385933
11
11.3911550188
21
11.7059838747
62
2
0
LINE
8
Setbacks
10
11.3911550188
20
11.7059838747
11
11.3915634550
21
11.7056704710
62
2
0
LINE
8
Setbacks
10
11.3915634550
20
11.7056704710
11
11.3919178357
21
11.7052970324
62
2
0
LINE
8
Setbacks
10
11.3919178357
20
11.7052970324
11
11.4654258967
21
11.6145223592
62
2
0
LINE
8
Setbacks
10
11.4654258967
20
11.6145223592
11
11.6044741935
21
11.5019230894
62
2
0
LINE
8
Setbacks
10
11.6044741935
20
11.5019230894
11
11.6048476336
21
11.5015687073
62
2
0
LINE
8
Setbacks
10
11.6048476336
20
11.5015687073
11
11.6878630562
21
11.4093705416
62
2
0
LINE
8
Setbacks
10
11.6878630562
20
11.4093705416
11
11.6881764585
21
11.4089621074
62
2
0
LINE
8
Setbacks
10
11.6881764585
20
11.4089621074
11
11.7856241524
21
11.2589058290
62
2
0
LINE
8
Setbacks
10
11.7856241524
20
11.2589058290
11
11.8682182498
21
11.1763117316
62
2
0
LINE
8
Setbacks
10
11.8682182498
20
11.1763117316
11
11.8685526024
21
11.1759202548
62
2
0
LINE
8
Setbacks
10
11.8685526024
20
11.1759202548
11
11.8688215977
21
11.1754812932
62
2
0
LINE
8
Setbacks
10
11.8688215977
20
11.1754812932
11
11.9252992714
21
11.0646372057
62
2
0
LINE
8
Setbacks
10
11.9252992714
20
11.0646372057
11
12.0132661504
21
10.9766706534
62
2
0
LINE
8
Setbacks
10
12.0132661504
20
10.9766706534
11
12.0136005030
21
10.9762791781
62
2
0
LINE
8
Setbacks
10
12.0136005030
20
10.9762791781
11
12.0138694988
21
10.9758402181
62
2
0
LINE
8
Setbacks
10
12.0138694988
20
10.9758402181
11
12.0668983195
21
10.8717655679
62
2
0
LINE
8
Setbacks
10
12.0668983195
20
10.8717655679
11
12.1794969335
21
10.7327175996
62
2
0
LINE
8
Setbacks
10
12.1794969335
20
10.7327175996
11
12.1797885297
21
10.7322933243
62
2
0
LINE
8
Setbacks
10
12.1797885297
20
10.7322933243
11
12.2418210120
21
10.6248500794
62
2
0
LINE
8
Setbacks
10
12.2418210120
20
10.6248500794
11
12.2420426512
21
10.6243854032
62
2
0
LINE
8
Setbacks
10
12.2420426512
20
10.6243854032
11
12.3061625146
21
10.4573470914
62
2
0
LINE
8
Setbacks
10
12.3061625146
20
10.4573470914
11
12.3697791685
21
10.3593862896
62
2
0
LINE
8
Setbacks
10
12.3697791685
20
10.3593862896
11
12.3700248229
21
10.3589338513
62
2
0
LINE
8
Setbacks
10
12.3700248229
20
10.3589338513
11
12.3701966755
21
10.3584485543
62
2
0
LINE
8
Setbacks
10
12.3701966755
20
10.3584485543
11
12.4023945343
21
10.2382841415
62
2
0
LINE
8
Setbacks
10
12.4023945343
20
10.2382841415
11
12.4701495802
21
10.1339505844
62
2
0
LINE
8
Setbacks
10
12.4701495802
20
10.1339505844
11
12.4703952340
21
10.1334981461
62
2
0
LINE
8
Setbacks
10
12.4703952340
20
10.1334981461
11
12.4705670861
21
10.1330128492
62
2
0
LINE
8
Setbacks
10
12.4705670861
20
10.1330128492
11
12.5007983760
21
10.0201874653
62
2
0
LINE
8
Setbacks
10
12.5007983760
20
10.0201874653
11
12.5820273256
21
9.8607670192
62
2
0
LINE
8
Setbacks
10
12.5820273256
20
9.8607670192
11
12.5822243399
21
9.8602913861
62
2
0
LINE
8
Setbacks
10
12.5822243399
20
9.8602913861
11
12.6205625957
21
9.7422989283
62
2
0
LINE
8
Setbacks
10
12.6205625957
20
9.7422989283
11
12.6206827802
21
9.7417983256
62
2
0
LINE
8
Setbacks
10
12.6206827802
20
9.7417983256
11
12.6486724730
21
9.5650785370
62
2
0
LINE
8
Setbacks
10
12.6486724730
20
9.5650785370
11
12.6905315098
21
9.4560320216
62
2
0
LINE
8
Setbacks
10
12.6905315098
20
9.4560320216
11
12.6906777273
21
9.4555384000
62
2
0
LINE
8
Setbacks
10
12.6906777273
20
9.4555384000
11
12.6907449254
21
9.4550279822
62
2
0
LINE
8
Setbacks
10
12.6907449254
20
9.4550279822
11
12.6972557876
21
9.3307952564
62
2
0
LINE
8
Setbacks
10
12.6972557876
20
9.3307952564
11
12.7418379432
21
9.2146543858
62
2
0
LINE
8
Setbacks
10
12.7418379432
20
9.2146543858
11
12.7419841598
21
9.2141607660
62
2
0
LINE
8
Setbacks
10
12.7419841598
20
9.2141607660
11
12.7420513575
21
9.2136503502
62
2
0
LINE
8
Setbacks
10
12.7420513575
20
9.2136503502
11
12.7481645441
21
9.0970058563
62
2
0
LINE
8
Setbacks
10
12.7481645441
20
9.0970058563
11
12.7944729357
21
8.9241801360
62
2
0
LINE
8
Setbacks
10
12.7944729357
20
8.9241801360
11
12.7945667546
21
8.9236739320
62
2
0
LINE
8
Setbacks
10
12.7945667546
20
8.9236739320
11
12.8075349308
21
8.8002887575
62
2
0
LINE
8
Setbacks
10
12.8075349308
20
8.8002887575
11
12.8075484069
21
8.7997741115
62
2
0
LINE
8
Setbacks
10
12.8075484069
20
8.7997741115
11
12.7981842362
21
8.6210974692
62
2
0
LINE
8
Setbacks
10
12.7981842362
20
8.6210974692
11
12.8164567361
21
8.5057303762
62
2
0
LINE
8
Setbacks
10
12.8164567361
20
8.5057303762
11
12.8164971293
21
8.5052171373
62
2
0
LINE
8
Setbacks
10
12.8164971293
20
8.5052171373
11
12.8164567366
21
8.5047038984
62
2
0
LINE
8
Setbacks
10
12.8164567366
20
8.5047038984
11
12.7969957020
21
8.3818319611
62
2
0
LINE
8
Setbacks
10
12.7969957020
20
8.3818319611
11
12.8164567366
21
8.2589600238
62
2
0
LINE
8
Setbacks
10
12.8164567366
20
8.2589600238
11
12.8164971293
21
8.2584467849
62
2
0
LINE
8
Setbacks
10
12.8164971293
20
8.2584467849
11
12.8164567361
21
8.2579335461
62
2
0
LINE
8
Setbacks
10
12.8164567361
20
8.2579335461
11
12.7981842362
21
8.1425664531
62
2
0
LINE
8
Setbacks
10
12.7981842362
20
8.1425664531
11
12.8075484069
21
7.9638898108
62
2
0
LINE
8
Setbacks
10
12.8075484069
20
7.9638898108
11
12.8075349308
21
7.9633751648
62
2
0
LINE
8
Setbacks
10
12.8075349308
20
7.9633751648
11
12.7945667546
21
7.8399899902
62
2
0
LINE
8
Setbacks
10
12.7945667546
20
7.8399899902
11
12.7944729357
21
7.8394837862
62
2
0
LINE
8
Setbacks
10
12.7944729357
20
7.8394837862
11
12.7481645441
21
7.6666580660
62
2
0
LINE
8
Setbacks
10
12.7481645441
20
7.6666580660
11
12.7420513575
21
7.5500135721
62
2
0
LINE
8
Setbacks
10
12.7420513575
20
7.5500135721
11
12.7419841598
21
7.5495031563
62
2
0
LINE
8
Setbacks
10
12.7419841598
20
7.5495031563
11
12.7418379432
21
7.5490095365
62
2
0
LINE
8
Setbacks
10
12.7418379432
20
7.5490095365
11
12.6972557876
21
7.4328686658
62
2
0
CIRCLE
8
Obstructions
10
8.2327349740
20
8.3818320041
40
0.5934494403
62
252
0
CIRCLE
8
Obstructions
10
11.3316387465
20
-21.1791912004
40
0.5934494403
62
252
0
CIRCLE
8
Obstructions
10
-1.7238742373
20
-22.5670326661
40
0.5934494403
62
252
0
LINE
8
Inverters
10
27.1133170612
20
-30.6415974181
11
29.5739470612
21
-30.6415974181
0
LINE
8
Inverters
10
29.5739470612
20
-30.6415974181
11
29.5739470612
21
-28.1809674181
0
LINE
8
Inverters
10
29.5739470612
20
-28.1809674181
11
27.1133170612
21
-28.1809674181
0
LINE
8
Inverters
10
27.1133170612
20
-28.1809674181
11
27.1133170612
21
-30.6415974181
0
LINE
8
Inverters
10
27.1133170612
20
-30.6415974181
11
29.5739470612
21
-28.1809674181
0
TEXT
8
Inverters
100
AcDbText
10
27.2773590612
20
-29.0996026181
1
DC
7
NewTextStyle_4
40
0.7545932000000003
50
0
0
TEXT
8
Inverters
100
AcDbText
10
28.1139732612
20
-30.4775554181
1
AC
7
NewTextStyle_4
40
0.7545932000000003
50
0
0
LINE
8
Strings
10
-10.3781298972
20
-20.2515287486
11
-10.3490595029
21
-16.7782728696
62
11
0
LINE
8
Strings
10
-10.3490595029
20
-16.7782728696
11
-10.2734764861
21
-9.9888063353
62
11
0
LINE
8
Strings
10
-10.2734764861
20
-9.9888063353
11
-10.2444060919
21
-6.5192026710
62
11
0
LINE
8
Strings
10
-10.2444060919
20
-6.5192026710
11
-10.2153357017
21
-3.0459467947
62
11
0
LINE
8
Strings
10
-10.2153357017
20
-3.0459467947
11
-10.1862653075
21
0.4236568670
62
11
0
LINE
8
Strings
10
-10.1862653075
20
0.4236568670
11
-10.1571949173
21
3.8932605313
62
11
0
LINE
8
Strings
10
-10.1571949173
20
3.8932605313
11
-10.1281245272
21
7.3628641930
62
11
0
LINE
8
Strings
10
-10.1281245272
20
7.3628641930
11
13.5555237238
21
11.6761293766
62
11
0
LINE
8
Strings
10
13.5555237238
20
11.6761293766
11
17.0265285098
21
11.6578683057
62
11
0
LINE
8
Strings
10
17.0265285098
20
11.6578683057
11
20.4975332999
21
11.6396072349
62
11
0
LINE
8
Strings
10
20.4975332999
20
11.6396072349
11
23.9656310485
21
11.6213461615
62
11
0
LINE
8
Strings
10
23.9656310485
20
11.6213461615
11
27.4366358345
21
11.5994328760
62
11
0
LINE
8
Strings
10
27.4366358345
20
11.5994328760
11
30.9076406246
21
11.5811718026
62
11
0
LINE
8
Strings
10
30.9076406246
20
11.5811718026
11
34.3786454106
21
11.5629107317
62
11
0
LINE
8
Strings
10
34.3786454106
20
11.5629107317
11
37.8467431592
21
11.5409974462
62
11
0
LINE
8
Strings
10
37.8467431592
20
11.5409974462
11
41.3177479493
21
11.5227363728
62
11
0
LINE
8
Strings
10
41.3177479493
20
11.5227363728
11
44.7887527353
21
11.5044753020
62
11
0
LINE
8
Strings
10
-0.3721010177
20
3.0130768651
11
3.0989037724
21
2.9948157917
62
11
0
LINE
8
Strings
10
3.0989037724
20
2.9948157917
11
6.5699085584
21
2.9765547209
62
11
0
LINE
8
Strings
10
6.5699085584
20
2.9765547209
11
10.0380063070
21
2.9546414354
62
11
0
LINE
8
Strings
10
10.0380063070
20
2.9546414354
11
13.5090110971
21
2.9363803619
62
11
0
LINE
8
Strings
10
13.5090110971
20
2.9363803619
11
16.9800158831
21
2.9181192911
62
11
0
LINE
8
Strings
10
16.9800158831
20
2.9181192911
11
20.4481136317
21
2.8998582177
62
11
0
LINE
8
Strings
10
20.4481136317
20
2.8998582177
11
23.9191184218
21
2.8779449322
62
11
0
LINE
8
Strings
10
23.9191184218
20
2.8779449322
11
27.3901232078
21
2.8596838614
62
11
0
LINE
8
Strings
10
27.3901232078
20
2.8596838614
11
30.8611279979
21
2.8414227879
62
11
0
LINE
8
Strings
10
30.8611279979
20
2.8414227879
11
34.3292257465
21
2.8231617171
62
11
0
LINE
8
Strings
10
34.3292257465
20
2.8231617171
11
34.2827131199
21
-5.9165873001
62
11
0
LINE
8
Strings
10
34.2827131199
20
-5.9165873001
11
30.8117083297
21
-5.8983262267
62
11
0
LINE
8
Strings
10
30.8117083297
20
-5.8983262267
11
27.3407035438
21
-5.8764129412
62
11
0
LINE
8
Strings
10
27.3407035438
20
-5.8764129412
11
23.8726057952
21
-5.8581518703
62
11
0
LINE
8
Strings
10
23.8726057952
20
-5.8581518703
11
20.4016010050
21
-5.8398907969
62
11
0
LINE
8
Strings
10
20.4016010050
20
-5.8398907969
11
16.9305962191
21
-5.8216297261
62
11
0
LINE
8
Strings
10
16.9305962191
20
-5.8216297261
11
13.4595914290
21
-5.7997164380
62
11
0
LINE
8
Strings
10
9.9914936803
20
-5.7814553672
11
6.5204888944
21
-5.7631942963
62
11
0
LINE
8
Strings
10
6.5204888944
20
-5.7631942963
11
3.0494841043
21
-5.7449332229
62
11
0
LINE
8
Strings
10
3.0494841043
20
-5.7449332229
11
-0.4186136444
21
-5.7230199374
62
11
0
LINE
8
Strings
10
-0.4186136444
20
-5.7230199374
11
-0.4680333084
21
-14.4627689520
62
11
0
LINE
8
Strings
10
-0.4680333084
20
-14.4627689520
11
3.0029714776
21
-14.4810300255
62
11
0
LINE
8
Strings
10
3.0029714776
20
-14.4810300255
11
6.4710692262
21
-14.4992910963
62
11
0
LINE
8
Strings
10
6.4710692262
20
-14.4992910963
11
9.9420740163
21
-14.5175521671
62
11
0
LINE
8
Strings
10
9.9420740163
20
-14.5175521671
11
13.4130788023
21
-14.5394654552
62
11
0
LINE
8
Strings
10
13.4130788023
20
-14.5394654552
11
16.8811765509
21
-14.5577265260
62
11
0
LINE
8
Strings
10
16.8811765509
20
-14.5577265260
11
20.3521813410
21
-14.5759875994
62
11
0
LINE
8
Strings
10
20.3521813410
20
-14.5759875994
11
23.8231861270
21
-14.5942486703
62
11
0
LINE
8
Strings
10
23.8231861270
20
-14.5942486703
11
27.2941909129
21
-14.6161619558
62
11
0
LINE
8
Strings
10
27.2941909129
20
-14.6161619558
11
30.7622886657
21
-14.6344230292
62
11
0
LINE
8
Strings
10
30.7622886657
20
-14.6344230292
11
34.2332934517
21
-14.6526841000
62
11
0
LINE
8
Strings
10
34.2332934517
20
-14.6526841000
11
37.7042982376
21
-14.6745973855
62
11
0
LINE
8
Strings
10
37.7042982376
20
-14.6745973855
11
41.1723959904
21
-14.6928584590
62
11
0
LINE
8
Strings
10
41.1723959904
20
-14.6928584590
11
44.6434007764
21
-14.7111195298
62
11
0
LINE
8
Connections
10
44.7887527353
20
11.5044753020
11
44.7860299427
21
11.0123568343
62
91
0
LINE
8
Connections
10
44.7860299427
20
11.0123568343
11
44.2939114749
21
11.0150796269
62
91
0
LINE
8
Connections
10
44.2939114749
20
11.0150796269
11
29.0599028754
21
11.0993663363
62
91
0
LINE
8
Connections
10
29.0599028754
20
11.0993663363
11
28.8384733215
21
-28.9218867430
62
91
0
LINE
8
Connections
10
28.8384733215
20
-28.9218867430
11
28.8357505289
21
-29.4140052107
62
91
0
LINE
8
Connections
10
28.8357505289
20
-29.4140052107
11
28.3436320612
21
-29.4112824181
62
91
0
LINE
8
Connections
10
13.4595914290
20
-5.7997164380
11
13.4568686363
21
-6.2918349057
62
91
0
LINE
8
Connections
10
13.4568686363
20
-6.2918349057
11
13.9489871041
21
-6.2945576983
62
91
0
LINE
8
Connections
10
13.9489871041
20
-6.2945576983
11
27.9789692391
21
-6.3721827712
62
91
0
LINE
8
Connections
10
27.9789692391
20
-6.3721827712
11
27.8542363861
21
-28.9164411578
62
91
0
LINE
8
Connections
10
27.8542363861
20
-28.9164411578
11
27.8515135935
21
-29.4085596255
62
91
0
LINE
8
Connections
10
27.8515135935
20
-29.4085596255
11
28.3436320612
21
-29.4112824181
62
91
0
LINE
8
Connections
10
44.6434007764
20
-14.7111195298
11
44.6406779837
21
-15.2032379975
62
91
0
LINE
8
Connections
10
44.6406779837
20
-15.2032379975
11
44.1485595160
21
-15.2005152049
62
91
0
LINE
8
Connections
10
44.1485595160
20
-15.2005152049
11
28.9148572460
21
-15.1162301903
62
91
0
LINE
8
Connections
10
28.9148572460
20
-15.1162301903
11
28.8384733215
21
-28.9218867430
62
91
0
LINE
8
Connections
10
28.8384733215
20
-28.9218867430
11
28.8357505289
21
-29.4140052107
62
91
0
LINE
8
Connections
10
28.8357505289
20
-29.4140052107
11
28.3436320612
21
-29.4112824181
62
91
0
ENDSEC
0
EOF