999
Design created by Aurora
0
SECTION
2
HEADER
9
$ACADVER
1
AC1009
9
$INSUNITS
70
2
0
ENDSEC
0
SECTION
2
TABLES
0
TABLE
2
LTYPE
100
AcDbLinetypeTableRecord
2
LTYPE
0
LTYPE
2
DASHED
70
0
3
dashed line
72
65
73
2
40
4.0
49
2.0
49
-2.0
0
ENDTAB
0
TABLE
2
LAYER
70
5
0
LAYER
100
AcDbSymbolTable
100
AcDbLayerTable
2
Obstructions
70
0
62
7
6
CONTINUOUS
0
LAYER
100
AcDbSymbolTable
100
AcDbLayerTable
2
Setbacks
70
0
62
7
6
CONTINUOUS
0
LAYER
100
AcDbSymbolTable
100
AcDbLayerTable
2
Walkways
70
0
62
7
6
CONTINUOUS
0
LAYER
100
AcDbSymbolTable
100
AcDbLayerTable
2
Modules
70
0
62
7
6
CONTINUOUS
0
LAYER
100
AcDbSymbolTable
100
AcDbLayerTable
2
Buildings
70
0
62
7
6
CONTINUOUS
0
ENDTAB
0
ENDSEC
0
SECTION
2
ENTITIES
0
LINE
8
Modules
10
-15.1634283723
20
-19.7854855050
11
-12.5621955916
21
-24.4099004399
62
254
0
LINE
8
Modules
10
-12.5621955916
20
-24.4099004399
11
-9.3223820360
21
-22.5875057494
62
254
0
LINE
8
Modules
10
-9.3223820360
20
-22.5875057494
11
-11.9236148167
21
-17.9630908145
62
254
0
LINE
8
Modules
10
-11.9236148167
20
-17.9630908145
11
-15.1634283723
21
-19.7854855050
62
254
0
LINE
8
Modules
10
-12.3992841610
20
-21.7449916826
11
-11.6844091488
21
-21.3428745841
62
254
0
LINE
8
Modules
10
-11.6844091488
20
-21.3428745841
11
-12.0865262473
21
-20.6279995718
62
254
0
LINE
8
Modules
10
-12.0865262473
20
-20.6279995718
11
-12.8014012596
21
-21.0301166703
62
254
0
LINE
8
Modules
10
-12.8014012596
20
-21.0301166703
11
-12.3992841610
21
-21.7449916826
62
254
0
LINE
8
Modules
10
-12.3992841610
20
-21.7449916826
11
-12.0865262473
21
-20.6279995718
62
254
0
TEXT
8
Modules
100
AcDbText
10
-12.6057042614
20
-21.2776421491
1
DC
7
NewTextStyle_4
40
0.2624672000000003
50
29.357747705750608
0
TEXT
8
Modules
100
AcDbText
10
-12.1374611820
20
-21.5412523425
1
AC
7
NewTextStyle_4
40
0.2624672000000003
50
29.357747705750608
0
LINE
8
Modules
10
-4.8060646273
20
-7.8683099775
11
-2.2048318466
21
-12.4927249124
62
254
0
LINE
8
Modules
10
-2.2048318466
20
-12.4927249124
11
1.0349817090
21
-10.6703302219
62
254
0
LINE
8
Modules
10
1.0349817090
20
-10.6703302219
11
-1.5662510717
21
-6.0459152869
62
254
0
LINE
8
Modules
10
-1.5662510717
20
-6.0459152869
11
-4.8060646273
21
-7.8683099775
62
254
0
LINE
8
Modules
10
-2.0419204160
20
-9.8278161551
11
-1.3270454037
21
-9.4256990565
62
254
0
LINE
8
Modules
10
-1.3270454037
20
-9.4256990565
11
-1.7291625023
21
-8.7108240443
62
254
0
LINE
8
Modules
10
-1.7291625023
20
-8.7108240443
11
-2.4440375145
21
-9.1129411428
62
254
0
LINE
8
Modules
10
-2.4440375145
20
-9.1129411428
11
-2.0419204160
21
-9.8278161551
62
254
0
LINE
8
Modules
10
-2.0419204160
20
-9.8278161551
11
-1.7291625023
21
-8.7108240443
62
254
0
TEXT
8
Modules
100
AcDbText
10
-2.2483405164
20
-9.3604666216
1
DC
7
NewTextStyle_4
40
0.2624672000000003
50
29.357747705750608
0
TEXT
8
Modules
100
AcDbText
10
-1.7800974370
20
-9.6240768149
1
AC
7
NewTextStyle_4
40
0.2624672000000003
50
29.357747705750608
0
LINE
8
Modules
10
-8.0467479365
20
-9.6907649542
11
-5.4455151558
21
-14.3151798892
62
254
0
LINE
8
Modules
10
-5.4455151558
20
-14.3151798892
11
-2.2057016002
21
-12.4927851986
62
254
0
LINE
8
Modules
10
-2.2057016002
20
-12.4927851986
11
-4.8069343809
21
-7.8683702637
62
254
0
LINE
8
Modules
10
-4.8069343809
20
-7.8683702637
11
-8.0467479365
21
-9.6907649542
62
254
0
LINE
8
Modules
10
-5.2826037252
20
-11.6502711318
11
-4.5677287130
21
-11.2481540333
62
254
0
LINE
8
Modules
10
-4.5677287130
20
-11.2481540333
11
-4.9698458115
21
-10.5332790210
62
254
0
LINE
8
Modules
10
-4.9698458115
20
-10.5332790210
11
-5.6847208238
21
-10.9353961196
62
254
0
LINE
8
Modules
10
-5.6847208238
20
-10.9353961196
11
-5.2826037252
21
-11.6502711318
62
254
0
LINE
8
Modules
10
-5.2826037252
20
-11.6502711318
11
-4.9698458115
21
-10.5332790210
62
254
0
TEXT
8
Modules
100
AcDbText
10
-5.4890238256
20
-11.1829215983
1
DC
7
NewTextStyle_4
40
0.2624672000000003
50
29.357747705750608
0
TEXT
8
Modules
100
AcDbText
10
-5.0207807462
20
-11.4465317917
1
AC
7
NewTextStyle_4
40
0.2624672000000003
50
29.357747705750608
0
LINE
8
Modules
10
-11.2845169641
20
-11.5132199310
11
-8.6832841833
21
-16.1376348659
62
254
0
LINE
8
Modules
10
-8.6832841833
20
-16.1376348659
11
-5.4434706277
21
-14.3152401754
62
254
0
LINE
8
Modules
10
-5.4434706277
20
-14.3152401754
11
-8.0447034085
21
-9.6908252405
62
254
0
LINE
8
Modules
10
-8.0447034085
20
-9.6908252405
11
-11.2845169641
21
-11.5132199310
62
254
0
LINE
8
Modules
10
-8.5203727528
20
-13.4727261086
11
-7.8054977405
21
-13.0706090101
62
254
0
LINE
8
Modules
10
-7.8054977405
20
-13.0706090101
11
-8.2076148390
21
-12.3557339978
62
254
0
LINE
8
Modules
10
-8.2076148390
20
-12.3557339978
11
-8.9224898513
21
-12.7578510963
62
254
0
LINE
8
Modules
10
-8.9224898513
20
-12.7578510963
11
-8.5203727528
21
-13.4727261086
62
254
0
LINE
8
Modules
10
-8.5203727528
20
-13.4727261086
11
-8.2076148390
21
-12.3557339978
62
254
0
TEXT
8
Modules
100
AcDbText
10
-8.7267928531
20
-13.0053765751
1
DC
7
NewTextStyle_4
40
0.2624672000000003
50
29.357747705750608
0
TEXT
8
Modules
100
AcDbText
10
-8.2585497738
20
-13.2689867685
1
AC
7
NewTextStyle_4
40
0.2624672000000003
50
29.357747705750608
0
LINE
8
Modules
10
-14.5252002733
20
-13.3356749078
11
-11.9239674926
21
-17.9600898427
62
254
0
LINE
8
Modules
10
-11.9239674926
20
-17.9600898427
11
-8.6841539370
21
-16.1376951522
62
254
0
LINE
8
Modules
10
-8.6841539370
20
-16.1376951522
11
-11.2853867177
21
-11.5132802172
62
254
0
LINE
8
Modules
10
-11.2853867177
20
-11.5132802172
11
-14.5252002733
21
-13.3356749078
62
254
0
LINE
8
Modules
10
-11.7610560620
20
-15.2951810854
11
-11.0461810497
21
-14.8930639868
62
254
0
LINE
8
Modules
10
-11.0461810497
20
-14.8930639868
11
-11.4482981483
21
-14.1781889746
62
254
0
LINE
8
Modules
10
-11.4482981483
20
-14.1781889746
11
-12.1631731605
21
-14.5803060731
62
254
0
LINE
8
Modules
10
-12.1631731605
20
-14.5803060731
11
-11.7610560620
21
-15.2951810854
62
254
0
LINE
8
Modules
10
-11.7610560620
20
-15.2951810854
11
-11.4482981483
21
-14.1781889746
62
254
0
TEXT
8
Modules
100
AcDbText
10
-11.9674761624
20
-14.8278315519
1
DC
7
NewTextStyle_4
40
0.2624672000000003
50
29.357747705750608
0
TEXT
8
Modules
100
AcDbText
10
-11.4992330830
20
-15.0914417452
1
AC
7
NewTextStyle_4
40
0.2624672000000003
50
29.357747705750608
0
LINE
8
Modules
10
-17.7658835826
20
-15.1581298845
11
-15.1646508018
21
-19.7825448195
62
254
0
LINE
8
Modules
10
-15.1646508018
20
-19.7825448195
11
-11.9248372462
21
-17.9601501289
62
254
0
LINE
8
Modules
10
-11.9248372462
20
-17.9601501289
11
-14.5260700269
21
-13.3357351940
62
254
0
LINE
8
Modules
10
-14.5260700269
20
-13.3357351940
11
-17.7658835826
21
-15.1581298845
62
254
0
LINE
8
Modules
10
-15.0017393713
20
-17.1176360621
11
-14.2868643590
21
-16.7155189636
62
254
0
LINE
8
Modules
10
-14.2868643590
20
-16.7155189636
11
-14.6889814575
21
-16.0006439513
62
254
0
LINE
8
Modules
10
-14.6889814575
20
-16.0006439513
11
-15.4038564698
21
-16.4027610499
62
254
0
LINE
8
Modules
10
-15.4038564698
20
-16.4027610499
11
-15.0017393713
21
-17.1176360621
62
254
0
LINE
8
Modules
10
-15.0017393713
20
-17.1176360621
11
-14.6889814575
21
-16.0006439513
62
254
0
TEXT
8
Modules
100
AcDbText
10
-15.2081594716
20
-16.6502865286
1
DC
7
NewTextStyle_4
40
0.2624672000000003
50
29.357747705750608
0
TEXT
8
Modules
100
AcDbText
10
-14.7399163923
20
-16.9138967220
1
AC
7
NewTextStyle_4
40
0.2624672000000003
50
29.357747705750608
0
LINE
8
Modules
10
-1.5624670322
20
-6.0458550007
11
1.0387657485
21
-10.6702699356
62
254
0
LINE
8
Modules
10
1.0387657485
20
-10.6702699356
11
4.2785793041
21
-8.8478752451
62
254
0
LINE
8
Modules
10
4.2785793041
20
-8.8478752451
11
1.6773465234
21
-4.2234603102
62
254
0
LINE
8
Modules
10
1.6773465234
20
-4.2234603102
11
-1.5624670322
21
-6.0458550007
62
254
0
LINE
8
Modules
10
1.2016771791
20
-8.0053611783
11
1.9165521914
21
-7.6032440798
62
254
0
LINE
8
Modules
10
1.9165521914
20
-7.6032440798
11
1.5144350929
21
-6.8883690675
62
254
0
LINE
8
Modules
10
1.5144350929
20
-6.8883690675
11
0.7995600806
21
-7.2904861660
62
254
0
LINE
8
Modules
10
0.7995600806
20
-7.2904861660
11
1.2016771791
21
-8.0053611783
62
254
0
LINE
8
Modules
10
1.2016771791
20
-8.0053611783
11
1.5144350929
21
-6.8883690675
62
254
0
TEXT
8
Modules
100
AcDbText
10
0.9952570788
20
-7.5380116448
1
DC
7
NewTextStyle_4
40
0.2624672000000003
50
29.357747705750608
0
TEXT
8
Modules
100
AcDbText
10
1.4635001581
20
-7.8016218382
1
AC
7
NewTextStyle_4
40
0.2624672000000003
50
29.357747705750608
0
LINE
8
Modules
10
-14.2883781642
20
12.8002558764
11
-18.8981586694
21
10.1731759074
62
254
0
LINE
8
Modules
10
-18.8981586694
20
10.1731759074
11
-17.0576557268
21
6.9436150701
62
254
0
LINE
8
Modules
10
-17.0576557268
20
6.9436150701
11
-12.4478752216
21
9.5706950391
62
254
0
LINE
8
Modules
10
-12.4478752216
20
9.5706950391
11
-14.2883781642
21
12.8002558764
62
254
0
LINE
8
Modules
10
-16.2323796750
20
10.0251854616
11
-15.8262669339
21
9.3125727438
62
254
0
LINE
8
Modules
10
-15.8262669339
20
9.3125727438
11
-15.1136542160
21
9.7186854848
62
254
0
LINE
8
Modules
10
-15.1136542160
20
9.7186854848
11
-15.5197669571
21
10.4312982027
62
254
0
LINE
8
Modules
10
-15.5197669571
20
10.4312982027
11
-16.2323796750
21
10.0251854616
62
254
0
LINE
8
Modules
10
-16.2323796750
20
10.0251854616
11
-15.1136542160
21
9.7186854848
62
254
0
TEXT
8
Modules
100
AcDbText
10
-15.7661930254
20
10.2342185980
1
DC
7
NewTextStyle_4
40
0.2624672000000003
50
-60.321502978720765
0
TEXT
8
Modules
100
AcDbText
10
-16.0271778155
20
9.7645071389
1
AC
7
NewTextStyle_4
40
0.2624672000000003
50
-60.321502978720765
0
LINE
8
Modules
10
-16.1302053684
20
16.0324656043
11
-20.7399858737
21
13.4053856353
62
254
0
LINE
8
Modules
10
-20.7399858737
20
13.4053856353
11
-18.8994829311
21
10.1758247981
62
254
0
LINE
8
Modules
10
-18.8994829311
20
10.1758247981
11
-14.2897024259
21
12.8029047671
62
254
0
LINE
8
Modules
10
-14.2897024259
20
12.8029047671
11
-16.1302053684
21
16.0324656043
62
254
0
LINE
8
Modules
10
-18.0742068793
20
13.2573951896
11
-17.6680941382
21
12.5447824717
62
254
0
LINE
8
Modules
10
-17.6680941382
20
12.5447824717
11
-16.9554814203
21
12.9508952128
62
254
0
LINE
8
Modules
10
-16.9554814203
20
12.9508952128
11
-17.3615941614
21
13.6635079307
62
254
0
LINE
8
Modules
10
-17.3615941614
20
13.6635079307
11
-18.0742068793
21
13.2573951896
62
254
0
LINE
8
Modules
10
-18.0742068793
20
13.2573951896
11
-16.9554814203
21
12.9508952128
62
254
0
TEXT
8
Modules
100
AcDbText
10
-17.6080202297
20
13.4664283260
1
DC
7
NewTextStyle_4
40
0.2624672000000003
50
-60.321502978720765
0
TEXT
8
Modules
100
AcDbText
10
-17.8690050198
20
12.9967168669
1
AC
7
NewTextStyle_4
40
0.2624672000000003
50
-60.321502978720765
0
LINE
8
Modules
10
-17.9720325727
20
19.2610231177
11
-22.5818130780
21
16.6339431486
62
254
0
LINE
8
Modules
10
-22.5818130780
20
16.6339431486
11
-20.7413101354
21
13.4043823114
62
254
0
LINE
8
Modules
10
-20.7413101354
20
13.4043823114
11
-16.1315296302
21
16.0314622804
62
254
0
LINE
8
Modules
10
-16.1315296302
20
16.0314622804
11
-17.9720325727
21
19.2610231177
62
254
0
LINE
8
Modules
10
-19.9160340836
20
16.4859527029
11
-19.5099213425
21
15.7733399850
62
254
0
LINE
8
Modules
10
-19.5099213425
20
15.7733399850
11
-18.7973086246
21
16.1794527261
62
254
0
LINE
8
Modules
10
-18.7973086246
20
16.1794527261
11
-19.2034213657
21
16.8920654440
62
254
0
LINE
8
Modules
10
-19.2034213657
20
16.8920654440
11
-19.9160340836
21
16.4859527029
62
254
0
LINE
8
Modules
10
-19.9160340836
20
16.4859527029
11
-18.7973086246
21
16.1794527261
62
254
0
TEXT
8
Modules
100
AcDbText
10
-19.4498474340
20
16.6949858393
1
DC
7
NewTextStyle_4
40
0.2624672000000003
50
-60.32150297872075
0
TEXT
8
Modules
100
AcDbText
10
-19.7108322241
20
16.2252743802
1
AC
7
NewTextStyle_4
40
0.2624672000000003
50
-60.32150297872075
0
LINE
8
Modules
10
-13.3587217106
20
21.8906174721
11
-17.9685022159
21
19.2635375031
62
254
0
LINE
8
Modules
10
-17.9685022159
20
19.2635375031
11
-16.1279992733
21
16.0339766658
62
254
0
LINE
8
Modules
10
-16.1279992733
20
16.0339766658
11
-11.5182187681
21
18.6610566348
62
254
0
LINE
8
Modules
10
-11.5182187681
20
18.6610566348
11
-13.3587217106
21
21.8906174721
62
254
0
LINE
8
Modules
10
-15.3027232214
20
19.1155470573
11
-14.8966104804
21
18.4029343395
62
254
0
LINE
8
Modules
10
-14.8966104804
20
18.4029343395
11
-14.1839977625
21
18.8090470806
62
254
0
LINE
8
Modules
10
-14.1839977625
20
18.8090470806
11
-14.5901105036
21
19.5216597984
62
254
0
LINE
8
Modules
10
-14.5901105036
20
19.5216597984
11
-15.3027232214
21
19.1155470573
62
254
0
LINE
8
Modules
10
-15.3027232214
20
19.1155470573
11
-14.1839977625
21
18.8090470806
62
254
0
TEXT
8
Modules
100
AcDbText
10
-14.8365365719
20
19.3245801937
1
DC
7
NewTextStyle_4
40
0.2624672000000003
50
-60.321502978720744
0
TEXT
8
Modules
100
AcDbText
10
-15.0975213619
20
18.8548687347
1
AC
7
NewTextStyle_4
40
0.2624672000000003
50
-60.321502978720744
0
LINE
8
Modules
10
-11.5198087880
20
18.6584077467
11
-16.1295892933
21
16.0313277777
62
254
0
LINE
8
Modules
10
-16.1295892933
20
16.0313277777
11
-14.2890863507
21
12.8017669404
62
254
0
LINE
8
Modules
10
-14.2890863507
20
12.8017669404
11
-9.6793058455
21
15.4288469094
62
254
0
LINE
8
Modules
10
-9.6793058455
20
15.4288469094
11
-11.5198087880
21
18.6584077467
62
254
0
LINE
8
Modules
10
-13.4638102989
20
15.8833373319
11
-13.0576975578
21
15.1707246141
62
254
0
LINE
8
Modules
10
-13.0576975578
20
15.1707246141
11
-12.3450848399
21
15.5768373552
62
254
0
LINE
8
Modules
10
-12.3450848399
20
15.5768373552
11
-12.7511975810
21
16.2894500730
62
254
0
LINE
8
Modules
10
-12.7511975810
20
16.2894500730
11
-13.4638102989
21
15.8833373319
62
254
0
LINE
8
Modules
10
-13.4638102989
20
15.8833373319
11
-12.3450848399
21
15.5768373552
62
254
0
TEXT
8
Modules
100
AcDbText
10
-12.9976236493
20
16.0923704683
1
DC
7
NewTextStyle_4
40
0.2624672000000003
50
-60.321502978720744
0
TEXT
8
Modules
100
AcDbText
10
-13.2586084394
20
15.6226590093
1
AC
7
NewTextStyle_4
40
0.2624672000000003
50
-60.321502978720744
0
LINE
8
Modules
10
-9.6779815837
20
15.4298502308
11
-14.2877620890
21
12.8027702618
62
254
0
LINE
8
Modules
10
-14.2877620890
20
12.8027702618
11
-12.4472591464
21
9.5732094245
62
254
0
LINE
8
Modules
10
-12.4472591464
20
9.5732094245
11
-7.8374786412
21
12.2002893935
62
254
0
LINE
8
Modules
10
-7.8374786412
20
12.2002893935
11
-9.6779815837
21
15.4298502308
62
254
0
LINE
8
Modules
10
-11.6219830946
20
12.6547798160
11
-11.2158703535
21
11.9421670982
62
254
0
LINE
8
Modules
10
-11.2158703535
20
11.9421670982
11
-10.5032576356
21
12.3482798393
62
254
0
LINE
8
Modules
10
-10.5032576356
20
12.3482798393
11
-10.9093703767
21
13.0608925571
62
254
0
LINE
8
Modules
10
-10.9093703767
20
13.0608925571
11
-11.6219830946
21
12.6547798160
62
254
0
LINE
8
Modules
10
-11.6219830946
20
12.6547798160
11
-10.5032576356
21
12.3482798393
62
254
0
TEXT
8
Modules
100
AcDbText
10
-11.1557964450
20
12.8638129524
1
DC
7
NewTextStyle_4
40
0.2624672000000003
50
-60.321502978720744
0
TEXT
8
Modules
100
AcDbText
10
-11.4167812351
20
12.3941014934
1
AC
7
NewTextStyle_4
40
0.2624672000000003
50
-60.321502978720744
0
LINE
8
Modules
10
-8.7483251302
20
24.5165596144
11
-13.3581056355
21
21.8894796454
62
254
0
LINE
8
Modules
10
-13.3581056355
20
21.8894796454
11
-11.5176026929
21
18.6599188081
62
254
0
LINE
8
Modules
10
-11.5176026929
20
18.6599188081
11
-6.9078221877
21
21.2869987772
62
254
0
LINE
8
Modules
10
-6.9078221877
20
21.2869987772
11
-8.7483251302
21
24.5165596144
62
254
0
LINE
8
Modules
10
-10.6923266410
20
21.7414891997
11
-10.2862139000
21
21.0288764818
62
254
0
LINE
8
Modules
10
-10.2862139000
20
21.0288764818
11
-9.5736011821
21
21.4349892229
62
254
0
LINE
8
Modules
10
-9.5736011821
20
21.4349892229
11
-9.9797139232
21
22.1476019408
62
254
0
LINE
8
Modules
10
-9.9797139232
20
22.1476019408
11
-10.6923266410
21
21.7414891997
62
254
0
LINE
8
Modules
10
-10.6923266410
20
21.7414891997
11
-9.5736011821
21
21.4349892229
62
254
0
TEXT
8
Modules
100
AcDbText
10
-10.2261399915
20
21.9505223361
1
DC
7
NewTextStyle_4
40
0.2624672000000003
50
-60.321502978720744
0
TEXT
8
Modules
100
AcDbText
10
-10.4871247815
20
21.4808108770
1
AC
7
NewTextStyle_4
40
0.2624672000000003
50
-60.321502978720744
0
LINE
8
Modules
10
-6.9094122076
20
21.2880021011
11
-11.5191927129
21
18.6609221321
62
254
0
LINE
8
Modules
10
-11.5191927129
20
18.6609221321
11
-9.6786897703
21
15.4313612948
62
254
0
LINE
8
Modules
10
-9.6786897703
20
15.4313612948
11
-5.0689092651
21
18.0584412639
62
254
0
LINE
8
Modules
10
-5.0689092651
20
18.0584412639
11
-6.9094122076
21
21.2880021011
62
254
0
LINE
8
Modules
10
-8.8534137185
20
18.5129316864
11
-8.4473009774
21
17.8003189685
62
254
0
LINE
8
Modules
10
-8.4473009774
20
17.8003189685
11
-7.7346882595
21
18.2064317096
62
254
0
LINE
8
Modules
10
-7.7346882595
20
18.2064317096
11
-8.1408010006
21
18.9190444275
62
254
0
LINE
8
Modules
10
-8.1408010006
20
18.9190444275
11
-8.8534137185
21
18.5129316864
62
254
0
LINE
8
Modules
10
-8.8534137185
20
18.5129316864
11
-7.7346882595
21
18.2064317096
62
254
0
TEXT
8
Modules
100
AcDbText
10
-8.3872270689
20
18.7219648228
1
DC
7
NewTextStyle_4
40
0.2624672000000003
50
-60.321502978720744
0
TEXT
8
Modules
100
AcDbText
10
-8.6482118590
20
18.2522533637
1
AC
7
NewTextStyle_4
40
0.2624672000000003
50
-60.321502978720744
0
LINE
8
Modules
10
-5.0675850033
20
18.0557923732
11
-9.6773655086
21
15.4287124041
62
254
0
LINE
8
Modules
10
-9.6773655086
20
15.4287124041
11
-7.8368625660
21
12.1991515669
62
254
0
LINE
8
Modules
10
-7.8368625660
20
12.1991515669
11
-3.2270820608
21
14.8262315359
62
254
0
LINE
8
Modules
10
-3.2270820608
20
14.8262315359
11
-5.0675850033
21
18.0557923732
62
254
0
LINE
8
Modules
10
-7.0115865142
20
15.2807219584
11
-6.6054737731
21
14.5681092406
62
254
0
LINE
8
Modules
10
-6.6054737731
20
14.5681092406
11
-5.8928610552
21
14.9742219816
62
254
0
LINE
8
Modules
10
-5.8928610552
20
14.9742219816
11
-6.2989737963
21
15.6868346995
62
254
0
LINE
8
Modules
10
-6.2989737963
20
15.6868346995
11
-7.0115865142
21
15.2807219584
62
254
0
LINE
8
Modules
10
-7.0115865142
20
15.2807219584
11
-5.8928610552
21
14.9742219816
62
254
0
TEXT
8
Modules
100
AcDbText
10
-6.5453998646
20
15.4897550948
1
DC
7
NewTextStyle_4
40
0.2624672000000003
50
-60.321502978720744
0
TEXT
8
Modules
100
AcDbText
10
-6.8063846547
20
15.0200436357
1
AC
7
NewTextStyle_4
40
0.2624672000000003
50
-60.321502978720744
0
LINE
8
Modules
10
-4.7157013186
20
-3.8062641393
11
-3.0032104758
21
-6.8506930303
62
254
0
LINE
8
Modules
10
-3.0032104758
20
-6.8506930303
11
1.9179891087
21
-4.0825189240
62
254
0
LINE
8
Modules
10
1.9179891087
20
-4.0825189240
11
0.2054982659
21
-1.0380900331
62
254
0
LINE
8
Modules
10
0.2054982659
20
-1.0380900331
11
-4.7157013186
21
-3.8062641393
62
254
0
LINE
8
Modules
10
-1.5552350618
20
-4.5028875871
11
-0.8403600495
21
-4.1007704885
62
254
0
LINE
8
Modules
10
-0.8403600495
20
-4.1007704885
11
-1.2424771481
21
-3.3858954763
62
254
0
LINE
8
Modules
10
-1.2424771481
20
-3.3858954763
11
-1.9573521603
21
-3.7880125748
62
254
0
LINE
8
Modules
10
-1.9573521603
20
-3.7880125748
11
-1.5552350618
21
-4.5028875871
62
254
0
LINE
8
Modules
10
-1.5552350618
20
-4.5028875871
11
-1.2424771481
21
-3.3858954763
62
254
0
TEXT
8
Modules
100
AcDbText
10
-1.7616551622
20
-4.0355380535
1
DC
7
NewTextStyle_4
40
0.2624672000000003
50
29.357747705750608
0
TEXT
8
Modules
100
AcDbText
10
-1.2934120828
20
-4.2991482469
1
AC
7
NewTextStyle_4
40
0.2624672000000003
50
29.357747705750608
0
LINE
8
Modules
10
-9.6350119563
20
-6.5746426414
11
-7.9225211134
21
-9.6190715323
62
254
0
LINE
8
Modules
10
-7.9225211134
20
-9.6190715323
11
-3.0013215290
21
-6.8508974260
62
254
0
LINE
8
Modules
10
-3.0013215290
20
-6.8508974260
11
-4.7138123718
21
-3.8064685351
62
254
0
LINE
8
Modules
10
-4.7138123718
20
-3.8064685351
11
-9.6350119563
21
-6.5746426414
62
254
0
LINE
8
Modules
10
-6.4745456995
20
-7.2712660891
11
-5.7596706872
21
-6.8691489906
62
254
0
LINE
8
Modules
10
-5.7596706872
20
-6.8691489906
11
-6.1617877857
21
-6.1542739783
62
254
0
LINE
8
Modules
10
-6.1617877857
20
-6.1542739783
11
-6.8766627980
21
-6.5563910768
62
254
0
LINE
8
Modules
10
-6.8766627980
20
-6.5563910768
11
-6.4745456995
21
-7.2712660891
62
254
0
LINE
8
Modules
10
-6.4745456995
20
-7.2712660891
11
-6.1617877857
21
-6.1542739783
62
254
0
TEXT
8
Modules
100
AcDbText
10
-6.6809657998
20
-6.8039165556
1
DC
7
NewTextStyle_4
40
0.2624672000000003
50
29.357747705750608
0
TEXT
8
Modules
100
AcDbText
10
-6.2127227205
20
-7.0675267490
1
AC
7
NewTextStyle_4
40
0.2624672000000003
50
29.357747705750608
0
LINE
8
Modules
10
-14.5572368757
20
-9.3430211434
11
-12.8447460328
21
-12.3874500344
62
254
0
LINE
8
Modules
10
-12.8447460328
20
-12.3874500344
11
-7.9235464483
21
-9.6192759281
62
254
0
LINE
8
Modules
10
-7.9235464483
20
-9.6192759281
11
-9.6360372912
21
-6.5748470372
62
254
0
LINE
8
Modules
10
-9.6360372912
20
-6.5748470372
11
-14.5572368757
21
-9.3430211434
62
254
0
LINE
8
Modules
10
-11.3967706189
20
-10.0396445912
11
-10.6818956066
21
-9.6375274926
62
254
0
LINE
8
Modules
10
-10.6818956066
20
-9.6375274926
11
-11.0840127051
21
-8.9226524804
62
254
0
LINE
8
Modules
10
-11.0840127051
20
-8.9226524804
11
-11.7988877174
21
-9.3247695789
62
254
0
LINE
8
Modules
10
-11.7988877174
20
-9.3247695789
11
-11.3967706189
21
-10.0396445912
62
254
0
LINE
8
Modules
10
-11.3967706189
20
-10.0396445912
11
-11.0840127051
21
-8.9226524804
62
254
0
TEXT
8
Modules
100
AcDbText
10
-11.6031907192
20
-9.5722950577
1
DC
7
NewTextStyle_4
40
0.2624672000000003
50
29.357747705750608
0
TEXT
8
Modules
100
AcDbText
10
-11.1349476399
20
-9.8359052510
1
AC
7
NewTextStyle_4
40
0.2624672000000003
50
29.357747705750608
0
LINE
8
Modules
10
-19.4794617951
20
-12.1113996429
11
-17.7669709522
21
-15.1558285338
62
254
0
LINE
8
Modules
10
-17.7669709522
20
-15.1558285338
11
-12.8457713677
21
-12.3876544275
62
254
0
LINE
8
Modules
10
-12.8457713677
20
-12.3876544275
11
-14.5582622106
21
-9.3432255366
62
254
0
LINE
8
Modules
10
-14.5582622106
20
-9.3432255366
11
-19.4794617951
21
-12.1113996429
62
254
0
LINE
8
Modules
10
-16.3189955383
20
-12.8080230906
11
-15.6041205260
21
-12.4059059921
62
254
0
LINE
8
Modules
10
-15.6041205260
20
-12.4059059921
11
-16.0062376245
21
-11.6910309798
62
254
0
LINE
8
Modules
10
-16.0062376245
20
-11.6910309798
11
-16.7211126368
21
-12.0931480784
62
254
0
LINE
8
Modules
10
-16.7211126368
20
-12.0931480784
11
-16.3189955383
21
-12.8080230906
62
254
0
LINE
8
Modules
10
-16.3189955383
20
-12.8080230906
11
-16.0062376245
21
-11.6910309798
62
254
0
TEXT
8
Modules
100
AcDbText
10
-16.5254156386
20
-12.3406735571
1
DC
7
NewTextStyle_4
40
0.2624672000000003
50
29.357747705750608
0
TEXT
8
Modules
100
AcDbText
10
-16.0571725593
20
-12.6042837505
1
AC
7
NewTextStyle_4
40
0.2624672000000003
50
29.357747705750608
0
LINE
8
Modules
10
-20.5442165758
20
-16.3888101080
11
-25.1339971748
21
-19.0506777836
62
254
0
LINE
8
Modules
10
-25.1339971748
20
-19.0506777836
11
-23.2691223529
21
-22.2662269096
62
254
0
LINE
8
Modules
10
-23.2691223529
20
-22.2662269096
11
-18.6793417538
21
-19.6043592340
62
254
0
LINE
8
Modules
10
-18.6793417538
20
-19.6043592340
11
-20.5442165758
21
-16.3888101080
62
254
0
LINE
8
Modules
10
-22.4671751956
20
-19.1785032502
11
-22.0556847229
21
-19.8880242400
62
254
0
LINE
8
Modules
10
-22.0556847229
20
-19.8880242400
11
-21.3461637331
21
-19.4765337674
62
254
0
LINE
8
Modules
10
-21.3461637331
20
-19.4765337674
11
-21.7576542057
21
-18.7670127776
62
254
0
LINE
8
Modules
10
-21.7576542057
20
-18.7670127776
11
-22.4671751956
21
-19.1785032502
62
254
0
LINE
8
Modules
10
-22.4671751956
20
-19.1785032502
11
-21.3461637331
21
-19.4765337674
62
254
0
TEXT
8
Modules
100
AcDbText
10
-22.0025827535
20
-18.9659504165
1
DC
7
NewTextStyle_4
40
0.2624672000000003
50
-59.88818246659063
0
TEXT
8
Modules
100
AcDbText
10
-22.2600077471
20
-19.4376222178
1
AC
7
NewTextStyle_4
40
0.2624672000000003
50
-59.88818246659063
0
LINE
8
Modules
10
-22.4093580504
20
-13.1748614509
11
-26.9991386495
21
-15.8367291264
62
254
0
LINE
8
Modules
10
-26.9991386495
20
-15.8367291264
11
-25.1342638275
21
-19.0522782524
62
254
0
LINE
8
Modules
10
-25.1342638275
20
-19.0522782524
11
-20.5444832284
21
-16.3904105768
62
254
0
LINE
8
Modules
10
-20.5444832284
20
-16.3904105768
11
-22.4093580504
21
-13.1748614509
62
254
0
LINE
8
Modules
10
-24.3323166702
20
-15.9645545930
11
-23.9208261976
21
-16.6740755829
62
254
0
LINE
8
Modules
10
-23.9208261976
20
-16.6740755829
11
-23.2113052077
21
-16.2625851102
62
254
0
LINE
8
Modules
10
-23.2113052077
20
-16.2625851102
11
-23.6227956804
21
-15.5530641204
62
254
0
LINE
8
Modules
10
-23.6227956804
20
-15.5530641204
11
-24.3323166702
21
-15.9645545930
62
254
0
LINE
8
Modules
10
-24.3323166702
20
-15.9645545930
11
-23.2113052077
21
-16.2625851102
62
254
0
TEXT
8
Modules
100
AcDbText
10
-23.8677242281
20
-15.7520017594
1
DC
7
NewTextStyle_4
40
0.2624672000000003
50
-59.88818246659062
0
TEXT
8
Modules
100
AcDbText
10
-24.1251492218
20
-16.2236735606
1
AC
7
NewTextStyle_4
40
0.2624672000000003
50
-59.88818246659062
0
LINE
8
Modules
10
-18.7023893715
20
-19.6173676213
11
-23.2921699706
21
-22.2792352969
62
254
0
LINE
8
Modules
10
-23.2921699706
20
-22.2792352969
11
-21.4272951486
21
-25.4947844229
62
254
0
LINE
8
Modules
10
-21.4272951486
20
-25.4947844229
11
-16.8375145495
21
-22.8329167473
62
254
0
LINE
8
Modules
10
-16.8375145495
20
-22.8329167473
11
-18.7023893715
21
-19.6173676213
62
254
0
LINE
8
Modules
10
-20.6253479913
20
-22.4070607635
11
-20.2138575186
21
-23.1165817533
62
254
0
LINE
8
Modules
10
-20.2138575186
20
-23.1165817533
11
-19.5043365288
21
-22.7050912807
62
254
0
LINE
8
Modules
10
-19.5043365288
20
-22.7050912807
11
-19.9158270014
21
-21.9955702909
62
254
0
LINE
8
Modules
10
-19.9158270014
20
-21.9955702909
11
-20.6253479913
21
-22.4070607635
62
254
0
LINE
8
Modules
10
-20.6253479913
20
-22.4070607635
11
-19.5043365288
21
-22.7050912807
62
254
0
TEXT
8
Modules
100
AcDbText
10
-20.1607555492
20
-22.1945079298
1
DC
7
NewTextStyle_4
40
0.2624672000000003
50
-59.88818246660128
0
TEXT
8
Modules
100
AcDbText
10
-20.4181805428
20
-22.6661797311
1
AC
7
NewTextStyle_4
40
0.2624672000000003
50
-59.88818246660128
0
LINE
8
Modules
10
-24.2744995209
20
-9.9609127963
11
-28.8642801200
21
-12.6227804719
62
254
0
LINE
8
Modules
10
-28.8642801200
20
-12.6227804719
11
-26.9994052980
21
-15.8383295978
62
254
0
LINE
8
Modules
10
-26.9994052980
20
-15.8383295978
11
-22.4096246989
21
-13.1764619223
62
254
0
LINE
8
Modules
10
-22.4096246989
20
-13.1764619223
11
-24.2744995209
21
-9.9609127963
62
254
0
LINE
8
Modules
10
-26.1974581407
20
-12.7506059385
11
-25.7859676681
21
-13.4601269283
62
254
0
LINE
8
Modules
10
-25.7859676681
20
-13.4601269283
11
-25.0764466782
21
-13.0486364557
62
254
0
LINE
8
Modules
10
-25.0764466782
20
-13.0486364557
11
-25.4879371509
21
-12.3391154658
62
254
0
LINE
8
Modules
10
-25.4879371509
20
-12.3391154658
11
-26.1974581407
21
-12.7506059385
62
254
0
LINE
8
Modules
10
-26.1974581407
20
-12.7506059385
11
-25.0764466782
21
-13.0486364557
62
254
0
TEXT
8
Modules
100
AcDbText
10
-25.7328656986
20
-12.5380531048
1
DC
7
NewTextStyle_4
40
0.2624672000000003
50
-59.88818246659062
0
TEXT
8
Modules
100
AcDbText
10
-25.9902906923
20
-13.0097249060
1
AC
7
NewTextStyle_4
40
0.2624672000000003
50
-59.88818246659062
0
LINE
8
Modules
10
-16.8605621630
20
-22.8459251346
11
-21.4503427621
21
-25.5077928102
62
254
0
LINE
8
Modules
10
-21.4503427621
20
-25.5077928102
11
-19.5854679401
21
-28.7233419362
62
254
0
LINE
8
Modules
10
-19.5854679401
20
-28.7233419362
11
-14.9956873410
21
-26.0614742606
62
254
0
LINE
8
Modules
10
-14.9956873410
20
-26.0614742606
11
-16.8605621630
21
-22.8459251346
62
254
0
LINE
8
Modules
10
-18.7835207828
20
-25.6356182768
11
-18.3720303102
21
-26.3451392666
62
254
0
LINE
8
Modules
10
-18.3720303102
20
-26.3451392666
11
-17.6625093203
21
-25.9336487940
62
254
0
LINE
8
Modules
10
-17.6625093203
20
-25.9336487940
11
-18.0739997930
21
-25.2241278042
62
254
0
LINE
8
Modules
10
-18.0739997930
20
-25.2241278042
11
-18.7835207828
21
-25.6356182768
62
254
0
LINE
8
Modules
10
-18.7835207828
20
-25.6356182768
11
-17.6625093203
21
-25.9336487940
62
254
0
TEXT
8
Modules
100
AcDbText
10
-18.3189283408
20
-25.4230654431
1
DC
7
NewTextStyle_4
40
0.2624672000000003
50
-59.88818246659062
0
TEXT
8
Modules
100
AcDbText
10
-18.5763533344
20
-25.8947372444
1
AC
7
NewTextStyle_4
40
0.2624672000000003
50
-59.88818246659062
0
LINE
8
Modules
10
-11.9227450631
20
-17.9593783162
11
-9.3215122824
21
-22.5837932511
62
254
0
LINE
8
Modules
10
-9.3215122824
20
-22.5837932511
11
-6.0816987268
21
-20.7613985606
62
254
0
LINE
8
Modules
10
-6.0816987268
20
-20.7613985606
11
-8.6829315075
21
-16.1369836256
62
254
0
LINE
8
Modules
10
-8.6829315075
20
-16.1369836256
11
-11.9227450631
21
-17.9593783162
62
254
0
LINE
8
Modules
10
-9.1586008518
20
-19.9188844938
11
-8.4437258395
21
-19.5167673952
62
254
0
LINE
8
Modules
10
-8.4437258395
20
-19.5167673952
11
-8.8458429381
21
-18.8018923830
62
254
0
LINE
8
Modules
10
-8.8458429381
20
-18.8018923830
11
-9.5607179503
21
-19.2040094815
62
254
0
LINE
8
Modules
10
-9.5607179503
20
-19.2040094815
11
-9.1586008518
21
-19.9188844938
62
254
0
LINE
8
Modules
10
-9.1586008518
20
-19.9188844938
11
-8.8458429381
21
-18.8018923830
62
254
0
TEXT
8
Modules
100
AcDbText
10
-9.3650209521
20
-19.4515349602
1
DC
7
NewTextStyle_4
40
0.2624672000000003
50
29.357747705750608
0
TEXT
8
Modules
100
AcDbText
10
-8.8967778728
20
-19.7151451536
1
AC
7
NewTextStyle_4
40
0.2624672000000003
50
29.357747705750608
0
LINE
8
Modules
10
-8.6820617497
20
-16.1369233394
11
-6.0808289690
21
-20.7613382743
62
254
0
LINE
8
Modules
10
-6.0808289690
20
-20.7613382743
11
-2.8410154134
21
-18.9389435838
62
254
0
LINE
8
Modules
10
-2.8410154134
20
-18.9389435838
11
-5.4422481941
21
-14.3145286488
62
254
0
LINE
8
Modules
10
-5.4422481941
20
-14.3145286488
11
-8.6820617497
21
-16.1369233394
62
254
0
LINE
8
Modules
10
-5.9179175384
20
-18.0964295170
11
-5.2030425261
21
-17.6943124185
62
254
0
LINE
8
Modules
10
-5.2030425261
20
-17.6943124185
11
-5.6051596247
21
-16.9794374062
62
254
0
LINE
8
Modules
10
-5.6051596247
20
-16.9794374062
11
-6.3200346369
21
-17.3815545047
62
254
0
LINE
8
Modules
10
-6.3200346369
20
-17.3815545047
11
-5.9179175384
21
-18.0964295170
62
254
0
LINE
8
Modules
10
-5.9179175384
20
-18.0964295170
11
-5.6051596247
21
-16.9794374062
62
254
0
TEXT
8
Modules
100
AcDbText
10
-6.1243376388
20
-17.6290799835
1
DC
7
NewTextStyle_4
40
0.2624672000000003
50
29.357747705750608
0
TEXT
8
Modules
100
AcDbText
10
-5.6560945594
20
-17.8926901768
1
AC
7
NewTextStyle_4
40
0.2624672000000003
50
29.357747705750608
0
LINE
8
Modules
10
-7.8361543795
20
12.2012927175
11
-12.4459348847
21
9.5742127485
62
254
0
LINE
8
Modules
10
-12.4459348847
20
9.5742127485
11
-10.6054319422
21
6.3446519112
62
254
0
LINE
8
Modules
10
-10.6054319422
20
6.3446519112
11
-5.9956514369
21
8.9717318802
62
254
0
LINE
8
Modules
10
-5.9956514369
20
8.9717318802
11
-7.8361543795
21
12.2012927175
62
254
0
LINE
8
Modules
10
-9.7801558903
20
9.4262223027
11
-9.3740431492
21
8.7136095849
62
254
0
LINE
8
Modules
10
-9.3740431492
20
8.7136095849
11
-8.6614304313
21
9.1197223260
62
254
0
LINE
8
Modules
10
-8.6614304313
20
9.1197223260
11
-9.0675431724
21
9.8323350438
62
254
0
LINE
8
Modules
10
-9.0675431724
20
9.8323350438
11
-9.7801558903
21
9.4262223027
62
254
0
LINE
8
Modules
10
-9.7801558903
20
9.4262223027
11
-8.6614304313
21
9.1197223260
62
254
0
TEXT
8
Modules
100
AcDbText
10
-9.3139692407
20
9.6352554391
1
DC
7
NewTextStyle_4
40
0.2624672000000003
50
-60.321502978720744
0
TEXT
8
Modules
100
AcDbText
10
-9.5749540308
20
9.1655439801
1
AC
7
NewTextStyle_4
40
0.2624672000000003
50
-60.321502978720744
0
LINE
8
Buildings
10
17.6536659374
20
22.2737485017
11
-0.4960774607
21
11.7551508619
62
252
0
LINE
8
Buildings
10
-0.4960774607
20
11.7551508619
11
13.2937541922
21
-12.0390767123
62
252
0
LINE
8
Buildings
10
13.2937541922
20
-12.0390767123
11
31.4434975903
21
-1.5204790725
62
252
0
LINE
8
Buildings
10
31.4434975903
20
-1.5204790725
11
17.6536659374
21
22.2737485017
62
252
0
LINE
8
Buildings
10
2.0326096905
20
13.2206394981
11
-6.2936021067
21
27.8307805209
62
252
0
LINE
8
Buildings
10
-6.2936021067
20
27.8307805209
11
-26.6659424885
21
16.2207337349
62
252
0
LINE
8
Buildings
10
-26.6659424885
20
16.2207337349
11
-19.7524633444
21
4.0895379745
62
252
0
LINE
8
Buildings
10
-19.7524633444
20
4.0895379745
11
-18.7944972115
21
4.6354758203
62
252
0
LINE
8
Buildings
10
-18.7944972115
20
4.6354758203
11
0.0752492109
21
-0.5343152076
62
252
0
LINE
8
Buildings
10
0.0752492109
20
-0.5343152076
11
1.3188662567
21
0.1652192138
62
252
0
LINE
8
Buildings
10
1.3188662567
20
0.1652192138
11
2.8268151196
21
5.6692352383
62
252
0
LINE
8
Buildings
10
2.8268151196
20
5.6692352383
11
-0.6489145781
21
11.6665748359
62
252
0
LINE
8
Buildings
10
-0.6489145781
20
11.6665748359
11
2.0326096905
21
13.2206394981
62
252
0
LINE
8
Buildings
10
-12.5274222452
20
-25.7038763010
11
-12.2745748793
21
-26.1533828364
62
252
0
LINE
8
Buildings
10
-12.2745748793
20
-26.1533828364
11
12.6868330013
21
-12.1125942511
62
252
0
LINE
8
Buildings
10
12.6868330013
20
-12.1125942511
11
4.7081686309
21
2.0717013448
62
252
0
LINE
8
Buildings
10
4.7081686309
20
2.0717013448
11
-20.2532392497
21
-11.9690872405
62
252
0
LINE
8
Buildings
10
-20.2532392497
20
-11.9690872405
11
-13.9900278840
21
-23.1036878788
62
252
0
LINE
8
Buildings
10
-13.9900278840
20
-23.1036878788
11
-13.7125025994
21
-23.1794291489
62
252
0
LINE
8
Buildings
10
-13.7125025994
20
-23.1794291489
11
-12.3186546448
21
-25.5828004205
62
252
0
LINE
8
Buildings
10
-12.3186546448
20
-25.5828004205
11
-12.5274222452
21
-25.7038763010
62
252
0
LINE
8
Buildings
10
28.8115896004
20
3.0208539359
11
30.4404160497
21
2.5746003311
62
252
0
LINE
8
Buildings
10
30.4404160497
20
2.5746003311
11
10.5701391887
21
37.4413025206
62
252
0
LINE
8
Buildings
10
10.5701391887
20
37.4413025206
11
-6.2936021067
21
27.8307805209
62
252
0
LINE
8
Buildings
10
-6.2936021067
20
27.8307805209
11
2.0326096905
21
13.2206394981
62
252
0
LINE
8
Buildings
10
2.0326096905
20
13.2206394981
11
17.6536659374
21
22.2737485017
62
252
0
LINE
8
Buildings
10
17.6536659374
20
22.2737485017
11
28.8115896004
21
3.0208539359
62
252
0
LINE
8
Buildings
10
-13.1164832915
20
-26.0455053885
11
-24.5660302639
21
-6.3033863325
62
252
0
LINE
8
Buildings
10
-24.5660302639
20
-6.3033863325
11
-34.2206733353
21
-3.7366166211
62
252
0
LINE
8
Buildings
10
-34.2206733353
20
-3.7366166211
11
-38.8899454442
21
-6.4445858206
62
252
0
LINE
8
Buildings
10
-38.8899454442
20
-6.4445858206
11
-23.8964617917
21
-32.2974112681
62
252
0
LINE
8
Buildings
10
-23.8964617917
20
-32.2974112681
11
-13.1164832915
21
-26.0455053885
62
252
0
LINE
8
Buildings
10
-38.7277136047
20
-6.7243174377
11
-38.7740859415
21
-6.7507446910
62
252
0
LINE
8
Buildings
10
-38.7740859415
20
-6.7507446910
11
-38.4880629826
21
-7.2526338895
62
252
0
LINE
8
Buildings
10
-38.4880629826
20
-7.2526338895
11
-38.4087042104
21
-7.2743760083
62
252
0
LINE
8
Buildings
10
-38.4087042104
20
-7.2743760083
11
-38.7277136047
21
-6.7243174377
62
252
0
LINE
8
Buildings
10
-20.0674530583
20
-12.2993738819
11
-20.2532392497
21
-11.9690872405
62
252
0
LINE
8
Buildings
10
-20.2532392497
20
-11.9690872405
11
0.0752492109
21
-0.5343152076
62
252
0
LINE
8
Buildings
10
0.0752492109
20
-0.5343152076
11
-18.7944972115
21
4.6354758203
62
252
0
LINE
8
Buildings
10
-18.7944972115
20
4.6354758203
11
-27.0991237629
21
-0.0972697060
62
252
0
LINE
8
Buildings
10
-27.0991237629
20
-0.0972697060
11
-20.8698213794
21
-10.8382736590
62
252
0
LINE
8
Buildings
10
-20.8698213794
20
-10.8382736590
11
-21.1817859532
21
-11.9940773467
62
252
0
LINE
8
Buildings
10
-21.1817859532
20
-11.9940773467
11
-20.0674530583
21
-12.2993738819
62
252
0
LINE
8
Buildings
10
-27.3121382972
20
0.2700250269
11
-34.2206733353
21
-3.7366166211
62
252
0
LINE
8
Buildings
10
-34.2206733353
20
-3.7366166211
11
-24.5660302639
21
-6.3033863325
62
252
0
LINE
8
Buildings
10
-24.5660302639
20
-6.3033863325
11
-24.2309065852
21
-5.0428527178
62
252
0
LINE
8
Buildings
10
-24.2309065852
20
-5.0428527178
11
-27.3121382972
21
0.2700250269
62
252
0
LINE
8
Buildings
10
-24.5499131482
20
-31.1706842013
11
-24.6497242432
21
-31.5349948753
62
252
0
LINE
8
Buildings
10
-24.6497242432
20
-31.5349948753
11
-24.1501314670
21
-32.4116385510
62
252
0
LINE
8
Buildings
10
-24.1501314670
20
-32.4116385510
11
-23.9096854345
21
-32.2746101275
62
252
0
LINE
8
Buildings
10
-23.9096854345
20
-32.2746101275
11
-24.5499131482
21
-31.1706842013
62
252
0
LINE
8
Buildings
10
-20.8816397843
20
-30.5489492063
11
-12.4916140566
21
-25.7675353182
62
252
0
LINE
8
Buildings
10
-12.4916140566
20
-25.7675353182
11
-12.5274222452
21
-25.7038763010
62
252
0
LINE
8
Buildings
10
-12.5274222452
20
-25.7038763010
11
-20.8816397843
21
-30.5489492063
62
252
0
LINE
8
Buildings
10
-18.8258391913
20
-14.5066879495
11
-19.6049577008
21
-13.1215880468
62
252
0
LINE
8
Buildings
10
-19.6049577008
20
-13.1215880468
11
-19.9046599899
21
-14.2155019338
62
252
0
LINE
8
Buildings
10
-19.9046599899
20
-14.2155019338
11
-18.8258391913
21
-14.5066879495
62
252
0
LINE
8
Buildings
10
31.0987881247
20
-0.9256860629
11
32.1075728074
21
-0.3507870997
62
252
0
LINE
8
Buildings
10
32.1075728074
20
-0.3507870997
11
30.4404160497
21
2.5746003311
62
252
0
LINE
8
Buildings
10
30.4404160497
20
2.5746003311
11
28.8115896004
21
3.0208539359
62
252
0
LINE
8
Buildings
10
28.8115896004
20
3.0208539359
11
31.0987881247
21
-0.9256860629
62
252
0
LINE
8
Buildings
10
12.3911908203
20
-11.5870080262
11
12.7192410397
21
-11.4000546216
62
252
0
LINE
8
Buildings
10
12.7192410397
20
-11.4000546216
11
2.8268151196
21
5.6692352383
62
252
0
LINE
8
Buildings
10
2.8268151196
20
5.6692352383
11
1.3188662567
21
0.1652192138
62
252
0
LINE
8
Buildings
10
1.3188662567
20
0.1652192138
11
4.7081686309
21
2.0717013448
62
252
0
LINE
8
Buildings
10
4.7081686309
20
2.0717013448
11
12.3911908203
21
-11.5870080262
62
252
0
LINE
8
Buildings
10
-20.8698213794
20
-10.8382736590
11
-24.2309065852
21
-5.0428527178
62
252
0
LINE
8
Buildings
10
-24.2309065852
20
-5.0428527178
11
-24.5660302639
21
-6.3033863325
62
252
0
LINE
8
Buildings
10
-24.5660302639
20
-6.3033863325
11
-13.1164832915
21
-26.0455053885
62
252
0
LINE
8
Buildings
10
-13.1164832915
20
-26.0455053885
11
-12.3186546448
21
-25.5828004205
62
252
0
LINE
8
Buildings
10
-12.3186546448
20
-25.5828004205
11
-13.7125025994
21
-23.1794291489
62
252
0
LINE
8
Buildings
10
-13.7125025994
20
-23.1794291489
11
-13.9900278840
21
-23.1036878788
62
252
0
LINE
8
Buildings
10
-13.9900278840
20
-23.1036878788
11
-18.8258391913
21
-14.5066879495
62
252
0
LINE
8
Buildings
10
-18.8258391913
20
-14.5066879495
11
-19.9046599899
21
-14.2155019338
62
252
0
LINE
8
Buildings
10
-19.9046599899
20
-14.2155019338
11
-21.1817859532
21
-11.9940773467
62
252
0
LINE
8
Buildings
10
-21.1817859532
20
-11.9940773467
11
-20.8698213794
21
-10.8382736590
62
252
0
LINE
8
Buildings
10
-21.1817859532
20
-11.9940773467
11
-19.9046599899
21
-14.2155019338
62
252
0
LINE
8
Buildings
10
-19.9046599899
20
-14.2155019338
11
-19.6049577008
21
-13.1215880468
62
252
0
LINE
8
Buildings
10
-19.6049577008
20
-13.1215880468
11
-20.0674530583
21
-12.2993738819
62
252
0
LINE
8
Buildings
10
-20.0674530583
20
-12.2993738819
11
-21.1817859532
21
-11.9940773467
62
252
0
LINE
8
Buildings
10
-38.4087042104
20
-7.2743760083
11
-38.4880629826
21
-7.2526338895
62
252
0
LINE
8
Buildings
10
-38.4880629826
20
-7.2526338895
11
-24.6497242432
21
-31.5349948753
62
252
0
LINE
8
Buildings
10
-24.6497242432
20
-31.5349948753
11
-24.5499131482
21
-31.1706842013
62
252
0
LINE
8
Buildings
10
-24.5499131482
20
-31.1706842013
11
-38.4087042104
21
-7.2743760083
62
252
0
LINE
8
Buildings
10
-0.4960774607
20
11.7551508619
11
-0.6489145781
21
11.6665748359
62
252
0
LINE
8
Buildings
10
-0.6489145781
20
11.6665748359
11
13.1409170747
21
-12.1276527383
62
252
0
LINE
8
Buildings
10
13.1409170747
20
-12.1276527383
11
13.2937541922
21
-12.0390767123
62
252
0
LINE
8
Buildings
10
13.2937541922
20
-12.0390767123
11
-0.4960774607
21
11.7551508619
62
252
0
LINE
8
Setbacks
10
19.1311961559
20
19.6588531876
11
2.2322130818
21
9.8651276837
62
2
0
LINE
8
Setbacks
10
2.2322130818
20
9.8651276837
11
13.0102126153
21
-8.7322111536
62
2
0
LINE
8
Setbacks
10
13.0102126153
20
-8.7322111536
11
29.9091956605
21
1.0615143335
62
2
0
LINE
8
Setbacks
10
27.0117648044
20
2.5582749338
11
27.0106901593
21
2.5574024636
62
2
0
LINE
8
Setbacks
10
27.0106901593
20
2.5574024636
11
27.0102380543
21
2.5570941928
62
2
0
LINE
8
Setbacks
10
27.0102380543
20
2.5570941928
11
27.0097410012
21
2.5568653523
62
2
0
LINE
8
Setbacks
10
27.0097410012
20
2.5568653523
11
26.9422939044
21
2.5323999978
62
2
0
LINE
8
Setbacks
10
26.9422939044
20
2.5323999978
11
26.8750783934
21
2.5073652025
62
2
0
LINE
8
Setbacks
10
26.8750783934
20
2.5073652025
11
26.8745580132
21
2.5072189035
62
2
0
LINE
8
Setbacks
10
26.8745580132
20
2.5072189035
11
26.8740206737
21
2.5071600372
62
2
0
LINE
8
Setbacks
10
26.8740206737
20
2.5071600372
11
26.8726070670
21
2.5071223665
62
2
0
LINE
8
Setbacks
10
26.8726070670
20
2.5071223665
11
26.8712992337
21
2.5066478912
62
2
0
LINE
8
Setbacks
10
26.8712992337
20
2.5066478912
11
26.8707779753
21
2.5065060906
62
2
0
LINE
8
Setbacks
10
26.8707779753
20
2.5065060906
11
26.8702405140
21
2.5064517479
62
2
0
LINE
8
Setbacks
10
26.8702405140
20
2.5064517479
11
26.7976452944
21
2.5051196503
62
2
0
LINE
8
Setbacks
10
26.7976452944
20
2.5051196503
11
26.7250677888
21
2.5031810399
62
2
0
LINE
8
Setbacks
10
26.7250677888
20
2.5031810399
11
26.7245448551
21
2.5032088801
62
2
0
LINE
8
Setbacks
10
26.7245448551
20
2.5032088801
11
26.7240330124
21
2.5033195681
62
2
0
LINE
8
Setbacks
10
26.7240330124
20
2.5033195681
11
26.7226272095
21
2.5037434710
62
2
0
LINE
8
Setbacks
10
26.7226272095
20
2.5037434710
11
26.7211963210
21
2.5037171697
62
2
0
LINE
8
Setbacks
10
26.7211963210
20
2.5037171697
11
26.7206740938
21
2.5037492976
62
2
0
LINE
8
Setbacks
10
26.7206740938
20
2.5037492976
11
26.7201636147
21
2.5038640344
62
2
0
LINE
8
Setbacks
10
26.7201636147
20
2.5038640344
11
26.6495039809
21
2.5257922076
62
2
0
LINE
8
Setbacks
10
26.6495039809
20
2.5257922076
11
26.5786905068
21
2.5471446950
62
2
0
LINE
8
Setbacks
10
26.5786905068
20
2.5471446950
11
26.5782203680
21
2.5473269257
62
2
0
LINE
8
Setbacks
10
26.5782203680
20
2.5473269257
11
26.5777837049
21
2.5475790447
62
2
0
LINE
8
Setbacks
10
26.5777837049
20
2.5475790447
11
26.5765272262
21
2.5484396398
62
2
0
LINE
8
Setbacks
10
26.5765272262
20
2.5484396398
11
26.5751058057
21
2.5488807872
62
2
0
LINE
8
Setbacks
10
26.5751058057
20
2.5488807872
11
26.5746375359
21
2.5490666187
62
2
0
LINE
8
Setbacks
10
26.5746375359
20
2.5490666187
11
26.5742032384
21
2.5493219529
62
2
0
LINE
8
Setbacks
10
26.5742032384
20
2.5493219529
11
26.5123925045
21
2.5923707700
62
2
0
LINE
8
Setbacks
10
26.5123925045
20
2.5923707700
11
26.4502790055
21
2.6349173721
62
2
0
LINE
8
Setbacks
10
26.4502790055
20
2.6349173721
11
26.4498967812
21
2.6352234858
62
2
0
LINE
8
Setbacks
10
26.4498967812
20
2.6352234858
11
26.4495643774
21
2.6355830811
62
2
0
LINE
8
Setbacks
10
26.4495643774
20
2.6355830811
11
26.4485944733
21
2.6368037361
62
2
0
LINE
8
Setbacks
10
26.4485944733
20
2.6368037361
11
26.4473322188
21
2.6376828151
62
2
0
LINE
8
Setbacks
10
26.4473322188
20
2.6376828151
11
26.4469525940
21
2.6379916810
62
2
0
LINE
8
Setbacks
10
26.4469525940
20
2.6379916810
11
26.4466231378
21
2.6383535812
62
2
0
LINE
8
Setbacks
10
26.4466231378
20
2.6383535812
11
26.3997194105
21
2.6983102864
62
2
0
LINE
8
Setbacks
10
26.3997194105
20
2.6983102864
11
26.3523784219
21
2.7578861450
62
2
0
LINE
8
Setbacks
10
26.3523784219
20
2.7578861450
11
26.3521058850
21
2.7582865942
62
2
0
LINE
8
Setbacks
10
26.3521058850
20
2.7582865942
11
26.3518952807
21
2.7587228073
62
2
0
LINE
8
Setbacks
10
26.3518952807
20
2.7587228073
11
26.3513212506
21
2.7601772517
62
2
0
LINE
8
Setbacks
10
26.3513212506
20
2.7601772517
11
26.3503568700
21
2.7614098372
62
2
0
LINE
8
Setbacks
10
26.3503568700
20
2.7614098372
11
26.3500873345
21
2.7618123761
62
2
0
LINE
8
Setbacks
10
26.3500873345
20
2.7618123761
11
26.2568304417
21
2.9261621189
62
2
0
LINE
8
Setbacks
10
26.2568304417
20
2.9261621189
11
26.2566231466
21
2.9265998933
62
2
0
LINE
8
Setbacks
10
26.2566231466
20
2.9265998933
11
26.2292277032
21
2.9975777589
62
2
0
LINE
8
Setbacks
10
26.2292277032
20
2.9975777589
11
26.2012844480
21
3.0683676669
62
2
0
LINE
8
Setbacks
10
26.2012844480
20
3.0683676669
11
26.2011391419
21
3.0688353156
62
2
0
LINE
8
Setbacks
10
26.2011391419
20
3.0688353156
11
26.2010650617
21
3.0693193830
62
2
0
LINE
8
Setbacks
10
26.2010650617
20
3.0693193830
11
26.2009466327
21
3.0708512143
62
2
0
LINE
8
Setbacks
10
26.2009466327
20
3.0708512143
11
26.2003852801
21
3.0723056165
62
2
0
LINE
8
Setbacks
10
26.2003852801
20
3.0723056165
11
26.2002434657
21
3.0727746725
62
2
0
LINE
8
Setbacks
10
26.2002434657
20
3.0727746725
11
26.2001730957
21
3.0732596187
62
2
0
LINE
8
Setbacks
10
26.2001730957
20
3.0732596187
11
26.1949571170
21
3.1483472740
62
2
0
LINE
8
Setbacks
10
26.1949571170
20
3.1483472740
11
26.1891572480
21
3.2233850678
62
2
0
LINE
8
Setbacks
10
26.1891572480
20
3.2233850678
11
26.1891571554
21
3.2238895273
62
2
0
LINE
8
Setbacks
10
26.1891571554
20
3.2238895273
11
26.1892343996
21
3.2243880379
62
2
0
LINE
8
Setbacks
10
26.1892343996
20
3.2243880379
11
26.1895741031
21
3.2258344225
62
2
0
LINE
8
Setbacks
10
26.1895741031
20
3.2258344225
11
26.1894686953
21
3.2273521961
62
2
0
LINE
8
Setbacks
10
26.1894686953
20
3.2273521961
11
26.1894725770
21
3.2278570981
62
2
0
LINE
8
Setbacks
10
26.1894725770
20
3.2278570981
11
26.1895538861
21
3.2283554252
62
2
0
LINE
8
Setbacks
10
26.1895538861
20
3.2283554252
11
26.2070300863
21
3.3001535879
62
2
0
LINE
8
Setbacks
10
26.2070300863
20
3.3001535879
11
26.2239384771
21
3.3721423425
62
2
0
LINE
8
Setbacks
10
26.2239384771
20
3.3721423425
11
26.2240985473
21
3.3726410250
62
2
0
LINE
8
Setbacks
10
26.2240985473
20
3.3726410250
11
26.2243359320
21
3.3731078816
62
2
0
LINE
8
Setbacks
10
26.2243359320
20
3.3731078816
11
26.2250842650
21
3.3743276017
62
2
0
LINE
8
Setbacks
10
26.2250842650
20
3.3743276017
11
26.2254309077
21
3.3757513126
62
2
0
LINE
8
Setbacks
10
26.2254309077
20
3.3757513126
11
26.2255952274
21
3.3762491436
62
2
0
LINE
8
Setbacks
10
26.2255952274
20
3.3762491436
11
26.2258367440
21
3.3767144462
62
2
0
LINE
8
Setbacks
10
26.2258367440
20
3.3767144462
11
26.2642812348
21
3.4382044413
62
2
0
LINE
8
Setbacks
10
26.2642812348
20
3.4382044413
11
26.3022550229
21
3.5000884046
62
2
0
LINE
8
Setbacks
10
26.3022550229
20
3.5000884046
11
26.3025746585
21
3.5005241907
62
2
0
LINE
8
Setbacks
10
26.3025746585
20
3.5005241907
11
26.3029614991
21
3.5009015908
62
2
0
LINE
8
Setbacks
10
26.3029614991
20
3.5009015908
11
26.3040345091
21
3.5017882484
62
2
0
LINE
8
Setbacks
10
26.3040345091
20
3.5017882484
11
26.3047830760
21
3.5029853358
62
2
0
LINE
8
Setbacks
10
26.3047830760
20
3.5029853358
11
26.3051066077
21
3.5034186590
62
2
0
LINE
8
Setbacks
10
26.3051066077
20
3.5034186590
11
26.3054969258
21
3.5037929496
62
2
0
LINE
8
Setbacks
10
26.3054969258
20
3.5037929496
11
26.3611631799
21
3.5489861909
62
2
0
LINE
8
Setbacks
10
26.3611631799
20
3.5489861909
11
26.4164682898
21
3.5946780267
62
2
0
LINE
8
Setbacks
10
26.4164682898
20
3.5946780267
11
26.4169177542
21
3.5949901676
62
2
0
LINE
8
Setbacks
10
26.4169177542
20
3.5949901676
11
26.8977747250
21
3.8725584180
62
2
0
LINE
8
Setbacks
10
26.8977747250
20
3.8725584180
11
26.8982698597
21
3.8727915259
62
2
0
LINE
8
Setbacks
10
26.8982698597
20
3.8727915259
11
26.8995666452
21
3.8732744846
62
2
0
LINE
8
Setbacks
10
26.8995666452
20
3.8732744846
11
26.9006412903
21
3.8741469548
62
2
0
LINE
8
Setbacks
10
26.9006412903
20
3.8741469548
11
26.9010933947
21
3.8744552253
62
2
0
LINE
8
Setbacks
10
26.9010933947
20
3.8744552253
11
26.9015904472
21
3.8746840657
62
2
0
LINE
8
Setbacks
10
26.9015904472
20
3.8746840657
11
26.9690365545
21
3.8991490902
62
2
0
LINE
8
Setbacks
10
26.9690365545
20
3.8991490902
11
27.0362530446
21
3.9241845397
62
2
0
LINE
8
Setbacks
10
27.0362530446
20
3.9241845397
11
27.0367734303
21
3.9243308418
62
2
0
LINE
8
Setbacks
10
27.0367734303
20
3.9243308418
11
27.0373107759
21
3.9243897093
62
2
0
LINE
8
Setbacks
10
27.0373107759
20
3.9243897093
11
27.0387243826
21
3.9244273800
62
2
0
LINE
8
Setbacks
10
27.0387243826
20
3.9244273800
11
27.0400322158
21
3.9249018553
62
2
0
LINE
8
Setbacks
10
27.0400322158
20
3.9249018553
11
27.0405534820
21
3.9250436573
62
2
0
LINE
8
Setbacks
10
27.0405534820
20
3.9250436573
11
27.0410909513
21
3.9250979989
62
2
0
LINE
8
Setbacks
10
27.0410909513
20
3.9250979989
11
27.1136871466
21
3.9264297683
62
2
0
LINE
8
Setbacks
10
27.1136871466
20
3.9264297683
11
27.1862636595
21
3.9283683785
62
2
0
LINE
8
Setbacks
10
27.1862636595
20
3.9283683785
11
27.1867865939
21
3.9283405383
62
2
0
LINE
8
Setbacks
10
27.1867865939
20
3.9283405383
11
27.1872984371
21
3.9282298504
62
2
0
LINE
8
Setbacks
10
27.1872984371
20
3.9282298504
11
27.1887042401
21
3.9278059474
62
2
0
LINE
8
Setbacks
10
27.1887042401
20
3.9278059474
11
27.1901351286
21
3.9278322488
62
2
0
LINE
8
Setbacks
10
27.1901351286
20
3.9278322488
11
27.1906573572
21
3.9278001206
62
2
0
LINE
8
Setbacks
10
27.1906573572
20
3.9278001206
11
27.1911678376
21
3.9276853831
62
2
0
LINE
8
Setbacks
10
27.1911678376
20
3.9276853831
11
27.2618209015
21
3.9057591810
62
2
0
LINE
8
Setbacks
10
27.2618209015
20
3.9057591810
11
27.3326409290
21
3.8844050556
62
2
0
LINE
8
Setbacks
10
27.3326409290
20
3.8844050556
11
27.3331112735
21
3.8842227288
62
2
0
LINE
8
Setbacks
10
27.3331112735
20
3.8842227288
11
27.3335481077
21
3.8839704531
62
2
0
LINE
8
Setbacks
10
27.3335481077
20
3.8839704531
11
27.3348042875
21
3.8831098153
62
2
0
LINE
8
Setbacks
10
27.3348042875
20
3.8831098153
11
27.3362249743
21
3.8826690652
62
2
0
LINE
8
Setbacks
10
27.3362249743
20
3.8826690652
11
27.3366934276
21
3.8824832050
62
2
0
LINE
8
Setbacks
10
27.3366934276
20
3.8824832050
11
27.3371278879
21
3.8822277902
62
2
0
LINE
8
Setbacks
10
27.3371278879
20
3.8822277902
11
27.3989294337
21
3.8391852079
62
2
0
LINE
8
Setbacks
10
27.3989294337
20
3.8391852079
11
27.4610524454
21
3.7966320454
62
2
0
LINE
8
Setbacks
10
27.4610524454
20
3.7966320454
11
27.4614346689
21
3.7963259320
62
2
0
LINE
8
Setbacks
10
27.4614346689
20
3.7963259320
11
27.4617670721
21
3.7959663373
62
2
0
LINE
8
Setbacks
10
27.4617670721
20
3.7959663373
11
27.4627369763
21
3.7947456823
62
2
0
LINE
8
Setbacks
10
27.4627369763
20
3.7947456823
11
27.4639992308
21
3.7938666033
62
2
0
LINE
8
Setbacks
10
27.4639992308
20
3.7938666033
11
27.4643788563
21
3.7935577367
62
2
0
LINE
8
Setbacks
10
27.4643788563
20
3.7935577367
11
27.4647083131
21
3.7931958356
62
2
0
LINE
8
Setbacks
10
27.4647083131
20
3.7931958356
11
27.5116035075
21
3.7332499604
62
2
0
LINE
8
Setbacks
10
27.5116035075
20
3.7332499604
11
27.5589530237
21
3.6736636065
62
2
0
LINE
8
Setbacks
10
27.5589530237
20
3.6736636065
11
27.5592255371
21
3.6732631998
62
2
0
LINE
8
Setbacks
10
27.5592255371
20
3.6732631998
11
27.5594361309
21
3.6728270354
62
2
0
LINE
8
Setbacks
10
27.5594361309
20
3.6728270354
11
27.5600105115
21
3.6713718373
62
2
0
LINE
8
Setbacks
10
27.5600105115
20
3.6713718373
11
27.5609746352
21
3.6701395100
62
2
0
LINE
8
Setbacks
10
27.5609746352
20
3.6701395100
11
27.5612441137
21
3.6697370447
62
2
0
LINE
8
Setbacks
10
27.5612441137
20
3.6697370447
11
27.6545010065
21
3.5053876300
62
2
0
LINE
8
Setbacks
10
27.6545010065
20
3.5053876300
11
27.6547083048
21
3.5049498486
62
2
0
LINE
8
Setbacks
10
27.6547083048
20
3.5049498486
11
27.6821093238
21
3.4339572238
62
2
0
LINE
8
Setbacks
10
27.6821093238
20
3.4339572238
11
27.7100469998
21
3.3631817560
62
2
0
LINE
8
Setbacks
10
27.7100469998
20
3.3631817560
11
27.7101922979
21
3.3627141453
62
2
0
LINE
8
Setbacks
10
27.7101922979
20
3.3627141453
11
27.7102663816
21
3.3622301174
62
2
0
LINE
8
Setbacks
10
27.7102663816
20
3.3622301174
11
27.7103848092
21
3.3606988028
62
2
0
LINE
8
Setbacks
10
27.7103848092
20
3.3606988028
11
27.7109462379
21
3.3592439527
62
2
0
LINE
8
Setbacks
10
27.7109462379
20
3.3592439527
11
27.7110880044
21
3.3587749813
62
2
0
LINE
8
Setbacks
10
27.7110880044
20
3.3587749813
11
27.7111583539
21
3.3582901278
62
2
0
LINE
8
Setbacks
10
27.7111583539
20
3.3582901278
11
27.7163743326
21
3.2832024725
62
2
0
LINE
8
Setbacks
10
27.7163743326
20
3.2832024725
11
27.7221742016
21
3.2081646787
62
2
0
LINE
8
Setbacks
10
27.7221742016
20
3.2081646787
11
27.7221742942
21
3.2076602192
62
2
0
LINE
8
Setbacks
10
27.7221742942
20
3.2076602192
11
27.7220970500
21
3.2071617086
62
2
0
LINE
8
Setbacks
10
27.7220970500
20
3.2071617086
11
27.7217573421
21
3.2057153056
62
2
0
LINE
8
Setbacks
10
27.7217573421
20
3.2057153056
11
27.7218627568
21
3.2041971854
62
2
0
LINE
8
Setbacks
10
27.7218627568
20
3.2041971854
11
27.7218588713
21
3.2036923048
62
2
0
LINE
8
Setbacks
10
27.7218588713
20
3.2036923048
11
27.7217775649
21
3.2031939988
62
2
0
LINE
8
Setbacks
10
27.7217775649
20
3.2031939988
11
27.7043003792
21
3.1313912382
62
2
0
LINE
8
Setbacks
10
27.7043003792
20
3.1313912382
11
27.6873929716
21
3.0594070719
62
2
0
LINE
8
Setbacks
10
27.6873929716
20
3.0594070719
11
27.6872329015
21
3.0589083916
62
2
0
LINE
8
Setbacks
10
27.6872329015
20
3.0589083916
11
27.6869955176
21
3.0584415368
62
2
0
LINE
8
Setbacks
10
27.6869955176
20
3.0584415368
11
27.6862471846
21
3.0572218167
62
2
0
LINE
8
Setbacks
10
27.6862471846
20
3.0572218167
11
27.6859005419
21
3.0557981058
62
2
0
LINE
8
Setbacks
10
27.6859005419
20
3.0557981058
11
27.6857362234
21
3.0553002777
62
2
0
LINE
8
Setbacks
10
27.6857362234
20
3.0553002777
11
27.6854947089
21
3.0548349777
62
2
0
LINE
8
Setbacks
10
27.6854947089
20
3.0548349777
11
27.6470413548
21
2.9933305388
62
2
0
LINE
8
Setbacks
10
27.6470413548
20
2.9933305388
11
27.6090760920
21
2.9314610030
62
2
0
LINE
8
Setbacks
10
27.6090760920
20
2.9314610030
11
27.6087564097
21
2.9310251663
62
2
0
LINE
8
Setbacks
10
27.6087564097
20
2.9310251663
11
27.6083695068
21
2.9306477322
62
2
0
LINE
8
Setbacks
10
27.6083695068
20
2.9306477322
11
27.6072972743
21
2.9297617994
62
2
0
LINE
8
Setbacks
10
27.6072972743
20
2.9297617994
11
27.6065484359
21
2.9285641824
62
2
0
LINE
8
Setbacks
10
27.6065484359
20
2.9285641824
11
27.6062248804
21
2.9281308030
62
2
0
LINE
8
Setbacks
10
27.6062248804
20
2.9281308030
11
27.6058345226
21
2.9277564678
62
2
0
LINE
8
Setbacks
10
27.6058345226
20
2.9277564678
11
27.5501702378
21
2.8825648676
62
2
0
LINE
8
Setbacks
10
27.5501702378
20
2.8825648676
11
27.4948631601
21
2.8368713920
62
2
0
LINE
8
Setbacks
10
27.4948631601
20
2.8368713920
11
27.4944136954
21
2.8365592508
62
2
0
LINE
8
Setbacks
10
27.4944136954
20
2.8365592508
11
27.0135567246
21
2.5589910004
62
2
0
LINE
8
Setbacks
10
27.0135567246
20
2.5589910004
11
27.0130615898
21
2.5587578925
62
2
0
LINE
8
Setbacks
10
27.0130615898
20
2.5587578925
11
27.0117648044
21
2.5582749338
62
2
0
LINE
8
Setbacks
10
24.3850234545
20
8.0690561043
11
24.3851952143
21
8.0691054964
62
2
0
LINE
8
Setbacks
10
24.3851952143
20
8.0691054964
11
24.3857329843
21
8.0691675176
62
2
0
LINE
8
Setbacks
10
24.3857329843
20
8.0691675176
11
24.4600978383
21
8.0715651139
62
2
0
LINE
8
Setbacks
10
24.4600978383
20
8.0715651139
11
24.5342586241
21
8.0740145464
62
2
0
LINE
8
Setbacks
10
24.5342586241
20
8.0740145464
11
24.5347825286
21
8.0739899048
62
2
0
LINE
8
Setbacks
10
24.5347825286
20
8.0739899048
11
24.5349649201
21
8.0739515947
62
2
0
LINE
8
Setbacks
10
24.5349649201
20
8.0739515947
11
24.5351433424
21
8.0739431170
62
2
0
LINE
8
Setbacks
10
24.5351433424
20
8.0739431170
11
24.5356565786
21
8.0738350577
62
2
0
LINE
8
Setbacks
10
24.5356565786
20
8.0738350577
11
24.6081868931
21
8.0523859321
62
2
0
LINE
8
Setbacks
10
24.6081868931
20
8.0523859321
11
24.6808461443
21
8.0309581310
62
2
0
LINE
8
Setbacks
10
24.6808461443
20
8.0309581310
11
24.6813178342
21
8.0307785504
62
2
0
LINE
8
Setbacks
10
24.6813178342
20
8.0307785504
11
24.6814827860
21
8.0306845944
62
2
0
LINE
8
Setbacks
10
24.6814827860
20
8.0306845944
11
24.6816536489
21
8.0306193972
62
2
0
LINE
8
Setbacks
10
24.6816536489
20
8.0306193972
11
24.6820919028
21
8.0303693614
62
2
0
LINE
8
Setbacks
10
24.6820919028
20
8.0303693614
11
24.7458025317
21
7.9872079554
62
2
0
LINE
8
Setbacks
10
24.7458025317
20
7.9872079554
11
24.8097333045
21
7.9439651839
62
2
0
LINE
8
Setbacks
10
24.8097333045
20
7.9439651839
11
24.8101174814
21
7.9436611658
62
2
0
LINE
8
Setbacks
10
24.8101174814
20
7.9436611658
11
24.8102487273
21
7.9435208149
62
2
0
LINE
8
Setbacks
10
24.8102487273
20
7.9435208149
11
24.8103942188
21
7.9434055419
62
2
0
LINE
8
Setbacks
10
24.8103942188
20
7.9434055419
11
24.8107287294
21
7.9430473678
62
2
0
LINE
8
Setbacks
10
24.8107287294
20
7.9430473678
11
24.8594274802
21
7.8823917737
62
2
0
LINE
8
Setbacks
10
24.8594274802
20
7.8823917737
11
24.9083273459
21
7.8215737776
62
2
0
LINE
8
Setbacks
10
24.9083273459
20
7.8215737776
11
24.9086021443
21
7.8211749519
62
2
0
LINE
8
Setbacks
10
24.9086021443
20
7.8211749519
11
25.0047734072
21
7.6568255372
62
2
0
LINE
8
Setbacks
10
25.0047734072
20
7.6568255372
11
25.0049863827
21
7.6563908825
62
2
0
LINE
8
Setbacks
10
25.0049863827
20
7.6563908825
11
25.0053816100
21
7.6554064320
62
2
0
LINE
8
Setbacks
10
25.0053816100
20
7.6554064320
11
25.0060406486
21
7.6545769835
62
2
0
LINE
8
Setbacks
10
25.0060406486
20
7.6545769835
11
25.0063130753
21
7.6541766758
62
2
0
LINE
8
Setbacks
10
25.0063130753
20
7.6541766758
11
25.0065236153
21
7.6537406306
62
2
0
LINE
8
Setbacks
10
25.0065236153
20
7.6537406306
11
25.0346359738
21
7.5825233335
62
2
0
LINE
8
Setbacks
10
25.0346359738
20
7.5825233335
11
25.0631797127
21
7.5114106752
62
2
0
LINE
8
Setbacks
10
25.0631797127
20
7.5114106752
11
25.0633276519
21
7.5109440805
62
2
0
LINE
8
Setbacks
10
25.0633276519
20
7.5109440805
11
25.0634045247
21
7.5104606685
62
2
0
LINE
8
Setbacks
10
25.0634045247
20
7.5104606685
11
25.0634906971
21
7.5094252561
62
2
0
LINE
8
Setbacks
10
25.0634906971
20
7.5094252561
11
25.0638776362
21
7.5084449805
62
2
0
LINE
8
Setbacks
10
25.0638776362
20
7.5084449805
11
25.0640229427
21
7.5079773110
62
2
0
LINE
8
Setbacks
10
25.0640229427
20
7.5079773110
11
25.0640970172
21
7.5074932224
62
2
0
LINE
8
Setbacks
10
25.0640970172
20
7.5074932224
11
25.0699364997
21
7.4319411251
62
2
0
LINE
8
Setbacks
10
25.0699364997
20
7.4319411251
11
25.0762188394
21
7.3564221597
62
2
0
LINE
8
Setbacks
10
25.0762188394
20
7.3564221597
11
25.0762219027
21
7.3559179248
62
2
0
LINE
8
Setbacks
10
25.0762219027
20
7.3559179248
11
25.0761476613
21
7.3554191759
62
2
0
LINE
8
Setbacks
10
25.0761476613
20
7.3554191759
11
25.0759258495
21
7.3544486671
62
2
0
LINE
8
Setbacks
10
25.0759258495
20
7.3544486671
11
25.0760048056
21
7.3534281926
62
2
0
LINE
8
Setbacks
10
25.0760048056
20
7.3534281926
11
25.0760049264
21
7.3529235818
62
2
0
LINE
8
Setbacks
10
25.0760049264
20
7.3529235818
11
25.0759276637
21
7.3524249210
62
2
0
LINE
8
Setbacks
10
25.0759276637
20
7.3524249210
11
25.0589105865
21
7.2799743248
62
2
0
LINE
8
Setbacks
10
25.0589105865
20
7.2799743248
11
25.0423294737
21
7.2074007109
62
2
0
LINE
8
Setbacks
10
25.0423294737
20
7.2074007109
11
25.0421724713
21
7.2069011509
62
2
0
LINE
8
Setbacks
10
25.0421724713
20
7.2069011509
11
25.0419379889
21
7.2064329330
62
2
0
LINE
8
Setbacks
10
25.0419379889
20
7.2064329330
11
25.0414463301
21
7.2056204335
62
2
0
LINE
8
Setbacks
10
25.0414463301
20
7.2056204335
11
25.0412233386
21
7.2046706307
62
2
0
LINE
8
Setbacks
10
25.0412233386
20
7.2046706307
11
25.0410632097
21
7.2041716774
62
2
0
LINE
8
Setbacks
10
25.0410632097
20
7.2041716774
11
25.0408256845
21
7.2037045826
62
2
0
LINE
8
Setbacks
10
25.0408256845
20
7.2037045826
11
25.0026339164
21
7.1414656961
62
2
0
LINE
8
Setbacks
10
25.0026339164
20
7.1414656961
11
24.9647970794
21
7.0789236940
62
2
0
LINE
8
Setbacks
10
24.9647970794
20
7.0789236940
11
24.9644801524
21
7.0784858482
62
2
0
LINE
8
Setbacks
10
24.9644801524
20
7.0784858482
11
24.9640956374
21
7.0781059798
62
2
0
LINE
8
Setbacks
10
24.9640956374
20
7.0781059798
11
24.9633938639
21
7.0775186507
62
2
0
LINE
8
Setbacks
10
24.9633938639
20
7.0775186507
11
24.9629068991
21
7.0767248856
62
2
0
LINE
8
Setbacks
10
24.9629068991
20
7.0767248856
11
24.9625871032
21
7.0762888305
62
2
0
LINE
8
Setbacks
10
24.9625871032
20
7.0762888305
11
24.9622000244
21
7.0759112283
62
2
0
LINE
8
Setbacks
10
24.9622000244
20
7.0759112283
11
24.9065461122
21
7.0299310943
62
2
0
LINE
8
Setbacks
10
24.9065461122
20
7.0299310943
11
24.8511831667
21
6.9835868397
62
2
0
LINE
8
Setbacks
10
24.8511831667
20
6.9835868397
11
24.8507358393
21
6.9832718694
62
2
0
LINE
8
Setbacks
10
24.8507358393
20
6.9832718694
11
24.8502423918
21
6.9830356118
62
2
0
LINE
8
Setbacks
10
24.8502423918
20
6.9830356118
11
24.8493939409
21
6.9827132826
62
2
0
LINE
8
Setbacks
10
24.8493939409
20
6.9827132826
11
24.8486932621
21
6.9821344877
62
2
0
LINE
8
Setbacks
10
24.8486932621
20
6.9821344877
11
24.8482439921
21
6.9818225073
62
2
0
LINE
8
Setbacks
10
24.8482439921
20
6.9818225073
11
24.3673873494
21
6.7042542569
62
2
0
LINE
8
Setbacks
10
24.3673873494
20
6.7042542569
11
24.3668922856
21
6.7040211752
62
2
0
LINE
8
Setbacks
10
24.3668922856
20
6.7040211752
11
24.3015331630
21
6.6796778970
62
2
0
LINE
8
Setbacks
10
24.3015331630
20
6.6796778970
11
24.2366407227
21
6.6542002501
62
2
0
LINE
8
Setbacks
10
24.2366407227
20
6.6542002501
11
24.2361224387
21
6.6540447056
62
2
0
LINE
8
Setbacks
10
24.2361224387
20
6.6540447056
11
24.2355856371
21
6.6539764681
62
2
0
LINE
8
Setbacks
10
24.2355856371
20
6.6539764681
11
24.2321196421
21
6.6538242829
62
2
0
LINE
8
Setbacks
10
24.2321196421
20
6.6538242829
11
24.2289090251
21
6.6526284614
62
2
0
LINE
8
Setbacks
10
24.2289090251
20
6.6526284614
11
24.2283887384
21
6.6524821792
62
2
0
LINE
8
Setbacks
10
24.2283887384
20
6.6524821792
11
24.2278514956
21
6.6524232985
62
2
0
LINE
8
Setbacks
10
24.2278514956
20
6.6524232985
11
24.1572979773
21
6.6505388804
62
2
0
LINE
8
Setbacks
10
24.1572979773
20
6.6505388804
11
24.0868504130
21
6.6474453006
62
2
0
LINE
8
Setbacks
10
24.0868504130
20
6.6474453006
11
24.0863260211
21
6.6474642762
62
2
0
LINE
8
Setbacks
10
24.0863260211
20
6.6474642762
11
24.0858113616
21
6.6475666113
62
2
0
LINE
8
Setbacks
10
24.0858113616
20
6.6475666113
11
24.0823865174
21
6.6485378658
62
2
0
LINE
8
Setbacks
10
24.0823865174
20
6.6485378658
11
24.0788984799
21
6.6484446258
62
2
0
LINE
8
Setbacks
10
24.0788984799
20
6.6484446258
11
24.0783755275
21
6.6484724578
62
2
0
LINE
8
Setbacks
10
24.0783755275
20
6.6484724578
11
24.0778636656
21
6.6485831433
62
2
0
LINE
8
Setbacks
10
24.0778636656
20
6.6485831433
11
24.0090212236
21
6.6693410528
62
2
0
LINE
8
Setbacks
10
24.0090212236
20
6.6693410528
11
23.9399138159
21
6.6889369920
62
2
0
LINE
8
Setbacks
10
23.9399138159
20
6.6889369920
11
23.9394397810
21
6.6891118473
62
2
0
LINE
8
Setbacks
10
23.9394397810
20
6.6891118473
11
23.9389982154
21
6.6893574148
62
2
0
LINE
8
Setbacks
10
23.9389982154
20
6.6893574148
11
23.9359517012
21
6.6913735457
62
2
0
LINE
8
Setbacks
10
23.9359517012
20
6.6913735457
11
23.9325211471
21
6.6924079461
62
2
0
LINE
8
Setbacks
10
23.9325211471
20
6.6924079461
11
23.9320509403
21
6.6925902065
62
2
0
LINE
8
Setbacks
10
23.9320509403
20
6.6925902065
11
23.9316142203
21
6.6928423751
62
2
0
LINE
8
Setbacks
10
23.9316142203
20
6.6928423751
11
23.8712191668
21
6.7342120848
62
2
0
LINE
8
Setbacks
10
23.8712191668
20
6.7342120848
11
23.8102196882
21
6.7745798450
62
2
0
LINE
8
Setbacks
10
23.8102196882
20
6.7745798450
11
23.8098322714
21
6.7748801352
62
2
0
LINE
8
Setbacks
10
23.8098322714
20
6.7748801352
11
23.8094939174
21
6.7752347936
62
2
0
LINE
8
Setbacks
10
23.8094939174
20
6.7752347936
11
23.8071379034
21
6.7781063041
62
2
0
LINE
8
Setbacks
10
23.8071379034
20
6.7781063041
11
23.8041092311
21
6.7801810043
62
2
0
LINE
8
Setbacks
10
23.8041092311
20
6.7801810043
11
23.8037270873
21
6.7804870605
62
2
0
LINE
8
Setbacks
10
23.8037270873
20
6.7804870605
11
23.8033947436
21
6.7808465767
62
2
0
LINE
8
Setbacks
10
23.8033947436
20
6.7808465767
11
23.7573608142
21
6.8387776334
62
2
0
LINE
8
Setbacks
10
23.7573608142
20
6.8387776334
11
23.7104403852
21
6.8959671436
62
2
0
LINE
8
Setbacks
10
23.7104403852
20
6.8959671436
11
23.7101616040
21
6.8963633261
62
2
0
LINE
8
Setbacks
10
23.7101616040
20
6.8963633261
11
23.6139903411
21
7.0570605098
62
2
0
LINE
8
Setbacks
10
23.6139903411
20
7.0570605098
11
23.6137730436
21
7.0574931698
62
2
0
LINE
8
Setbacks
10
23.6137730436
20
7.0574931698
11
23.6128693005
21
7.0596819139
62
2
0
LINE
8
Setbacks
10
23.6128693005
20
7.0596819139
11
23.6113879830
21
7.0615269246
62
2
0
LINE
8
Setbacks
10
23.6113879830
20
7.0615269246
11
23.6111134794
21
7.0619259199
62
2
0
LINE
8
Setbacks
10
23.6111134794
20
7.0619259199
11
23.6109007038
21
7.0623609785
62
2
0
LINE
8
Setbacks
10
23.6109007038
20
7.0623609785
11
23.5828927223
21
7.1322822017
62
2
0
LINE
8
Setbacks
10
23.5828927223
20
7.1322822017
11
23.5541404884
21
7.2019174048
62
2
0
LINE
8
Setbacks
10
23.5541404884
20
7.2019174048
11
23.5539880306
21
7.2023821883
62
2
0
LINE
8
Setbacks
10
23.5539880306
20
7.2023821883
11
23.5539063703
21
7.2028644731
62
2
0
LINE
8
Setbacks
10
23.5539063703
20
7.2028644731
11
23.5536894276
21
7.2051876127
62
2
0
LINE
8
Setbacks
10
23.5536894276
20
7.2051876127
11
23.5528111173
21
7.2073803842
62
2
0
LINE
8
Setbacks
10
23.5528111173
20
7.2073803842
11
23.5526635021
21
7.2078471433
62
2
0
LINE
8
Setbacks
10
23.5526635021
20
7.2078471433
11
23.5525869828
21
7.2083306711
62
2
0
LINE
8
Setbacks
10
23.5525869828
20
7.2083306711
11
23.5464627834
21
7.2825987669
62
2
0
LINE
8
Setbacks
10
23.5464627834
20
7.2825987669
11
23.5395320162
21
7.3568429293
62
2
0
LINE
8
Setbacks
10
23.5395320162
20
7.3568429293
11
23.5395238236
21
7.3573463664
62
2
0
LINE
8
Setbacks
10
23.5395238236
20
7.3573463664
11
23.5395927612
21
7.3578451285
62
2
0
LINE
8
Setbacks
10
23.5395927612
20
7.3578451285
11
23.5400752703
21
7.3600636450
62
2
0
LINE
8
Setbacks
10
23.5400752703
20
7.3600636450
11
23.5398848808
21
7.3623726936
62
2
0
LINE
8
Setbacks
10
23.5398848808
20
7.3623726936
11
23.5398821797
21
7.3628768469
62
2
0
LINE
8
Setbacks
10
23.5398821797
20
7.3628768469
11
23.5399567537
21
7.3633754615
62
2
0
LINE
8
Setbacks
10
23.5399567537
20
7.3633754615
11
23.5563118994
21
7.4347122099
62
2
0
LINE
8
Setbacks
10
23.5563118994
20
7.4347122099
11
23.5718837814
21
7.5063054751
62
2
0
LINE
8
Setbacks
10
23.5718837814
20
7.5063054751
11
23.5720352723
21
7.5068059257
62
2
0
LINE
8
Setbacks
10
23.5720352723
20
7.5068059257
11
23.5722643438
21
7.5072759539
62
2
0
LINE
8
Setbacks
10
23.5722643438
20
7.5072759539
11
23.5733825115
21
7.5091702051
62
2
0
LINE
8
Setbacks
10
23.5733825115
20
7.5091702051
11
23.5738848914
21
7.5113616299
62
2
0
LINE
8
Setbacks
10
23.5738848914
20
7.5113616299
11
23.5740422271
21
7.5118609889
62
2
0
LINE
8
Setbacks
10
23.5740422271
20
7.5118609889
11
23.5742769935
21
7.5123289619
62
2
0
LINE
8
Setbacks
10
23.5742769935
20
7.5123289619
11
23.6115108762
21
7.5737660655
62
2
0
LINE
8
Setbacks
10
23.6115108762
20
7.5737660655
11
23.6480599097
21
7.6356859949
62
2
0
LINE
8
Setbacks
10
23.6480599097
20
7.6356859949
11
23.6483716797
21
7.6361267880
62
2
0
LINE
8
Setbacks
10
23.6483716797
20
7.6361267880
11
23.6487515207
21
7.6365104806
62
2
0
LINE
8
Setbacks
10
23.6487515207
20
7.6365104806
11
23.6503845220
21
7.6379086144
62
2
0
LINE
8
Setbacks
10
23.6503845220
20
7.6379086144
11
23.6515145168
21
7.6397731719
62
2
0
LINE
8
Setbacks
10
23.6515145168
20
7.6397731719
11
23.6518316976
21
7.6402106742
62
2
0
LINE
8
Setbacks
10
23.6518316976
20
7.6402106742
11
23.6522163915
21
7.6405901772
62
2
0
LINE
8
Setbacks
10
23.6522163915
20
7.6405901772
11
23.7066817116
21
7.6861091415
62
2
0
LINE
8
Setbacks
10
23.7066817116
20
7.6861091415
11
23.7606320902
21
7.7323005001
62
2
0
LINE
8
Setbacks
10
23.7606320902
20
7.7323005001
11
23.7610760261
21
7.7326205057
62
2
0
LINE
8
Setbacks
10
23.7610760261
20
7.7326205057
11
23.7615669776
21
7.7328622682
62
2
0
LINE
8
Setbacks
10
23.7615669776
20
7.7328622682
11
23.7635596830
21
7.7336445351
62
2
0
LINE
8
Setbacks
10
23.7635596830
20
7.7336445351
11
23.7652025519
21
7.7350176205
62
2
0
LINE
8
Setbacks
10
23.7652025519
20
7.7350176205
11
23.7656502477
21
7.7353323181
62
2
0
LINE
8
Setbacks
10
23.7656502477
20
7.7353323181
11
24.2465072185
21
8.0165531276
62
2
0
LINE
8
Setbacks
10
24.2465072185
20
8.0165531276
11
24.2470010057
21
8.0167890376
62
2
0
LINE
8
Setbacks
10
24.2470010057
20
8.0167890376
11
24.3158550901
21
8.0428787944
62
2
0
LINE
8
Setbacks
10
24.3158550901
20
8.0428787944
11
24.3843240044
21
8.0688855450
62
2
0
LINE
8
Setbacks
10
24.3843240044
20
8.0688855450
11
24.3848442455
21
8.0690353680
62
2
0
LINE
8
Setbacks
10
24.3848442455
20
8.0690353680
11
24.3850234545
21
8.0690561043
62
2
0
LINE
8
Setbacks
10
21.1977692115
20
5.1476949641
11
21.1966945664
21
5.1468224940
62
2
0
LINE
8
Setbacks
10
21.1966945664
20
5.1468224940
11
21.1962424606
21
5.1465142227
62
2
0
LINE
8
Setbacks
10
21.1962424606
20
5.1465142227
11
21.1957454065
21
5.1462853820
62
2
0
LINE
8
Setbacks
10
21.1957454065
20
5.1462853820
11
21.1282819105
21
5.1218141238
62
2
0
LINE
8
Setbacks
10
21.1282819105
20
5.1218141238
11
21.0610828087
21
5.0967852359
62
2
0
LINE
8
Setbacks
10
21.0610828087
20
5.0967852359
11
21.0605624463
21
5.0966389389
62
2
0
LINE
8
Setbacks
10
21.0605624463
20
5.0966389389
11
21.0600251250
21
5.0965800688
62
2
0
LINE
8
Setbacks
10
21.0600251250
20
5.0965800688
11
21.0586124558
21
5.0965424039
62
2
0
LINE
8
Setbacks
10
21.0586124558
20
5.0965424039
11
21.0573035972
21
5.0960675776
62
2
0
LINE
8
Setbacks
10
21.0573035972
20
5.0960675776
11
21.0567823514
21
5.0959257872
62
2
0
LINE
8
Setbacks
10
21.0567823514
20
5.0959257872
11
21.0562449045
21
5.0958714499
62
2
0
LINE
8
Setbacks
10
21.0562449045
20
5.0958714499
11
20.9836296848
21
5.0945393524
62
2
0
LINE
8
Setbacks
10
20.9836296848
20
5.0945393524
11
20.9110722053
21
5.0926010705
62
2
0
LINE
8
Setbacks
10
20.9110722053
20
5.0926010705
11
20.9105492669
21
5.0926289099
62
2
0
LINE
8
Setbacks
10
20.9105492669
20
5.0926289099
11
20.9100374196
21
5.0927395984
62
2
0
LINE
8
Setbacks
10
20.9100374196
20
5.0927395984
11
20.9086316166
21
5.0931635013
62
2
0
LINE
8
Setbacks
10
20.9086316166
20
5.0931635013
11
20.9072007281
21
5.0931372000
62
2
0
LINE
8
Setbacks
10
20.9072007281
20
5.0931372000
11
20.9066785009
21
5.0931693280
62
2
0
LINE
8
Setbacks
10
20.9066785009
20
5.0931693280
11
20.9061680219
21
5.0932840648
62
2
0
LINE
8
Setbacks
10
20.9061680219
20
5.0932840648
11
20.8355274202
21
5.1152063315
62
2
0
LINE
8
Setbacks
10
20.8355274202
20
5.1152063315
11
20.7646949205
21
5.1365643954
62
2
0
LINE
8
Setbacks
10
20.7646949205
20
5.1365643954
11
20.7642246532
21
5.1367466864
62
2
0
LINE
8
Setbacks
10
20.7642246532
20
5.1367466864
11
20.7637878834
21
5.1369989036
62
2
0
LINE
8
Setbacks
10
20.7637878834
20
5.1369989036
11
20.7625309247
21
5.1378599834
62
2
0
LINE
8
Setbacks
10
20.7625309247
20
5.1378599834
11
20.7611104007
21
5.1383007593
62
2
0
LINE
8
Setbacks
10
20.7611104007
20
5.1383007593
11
20.7606420316
21
5.1384866057
62
2
0
LINE
8
Setbacks
10
20.7606420316
20
5.1384866057
11
20.7602076460
21
5.1387419829
62
2
0
LINE
8
Setbacks
10
20.7602076460
20
5.1387419829
11
20.6984110202
21
5.1817809572
62
2
0
LINE
8
Setbacks
10
20.6984110202
20
5.1817809572
11
20.6362830859
21
5.2243374015
62
2
0
LINE
8
Setbacks
10
20.6362830859
20
5.2243374015
11
20.6359008609
21
5.2246435157
62
2
0
LINE
8
Setbacks
10
20.6359008609
20
5.2246435157
11
20.6355684565
21
5.2250031115
62
2
0
LINE
8
Setbacks
10
20.6355684565
20
5.2250031115
11
20.6345985523
21
5.2262237664
62
2
0
LINE
8
Setbacks
10
20.6345985523
20
5.2262237664
11
20.6333362979
21
5.2271028454
62
2
0
LINE
8
Setbacks
10
20.6333362979
20
5.2271028454
11
20.6329566742
21
5.2274117102
62
2
0
LINE
8
Setbacks
10
20.6329566742
20
5.2274117102
11
20.6326272188
21
5.2277736090
62
2
0
LINE
8
Setbacks
10
20.6326272188
20
5.2277736090
11
20.5857336585
21
5.2877171956
62
2
0
LINE
8
Setbacks
10
20.5857336585
20
5.2877171956
11
20.5383824956
21
5.3473061821
62
2
0
LINE
8
Setbacks
10
20.5383824956
20
5.3473061821
11
20.5381099878
21
5.3477065836
62
2
0
LINE
8
Setbacks
10
20.5381099878
20
5.3477065836
11
20.5378993977
21
5.3481427415
62
2
0
LINE
8
Setbacks
10
20.5378993977
20
5.3481427415
11
20.5373250002
21
5.3495979825
62
2
0
LINE
8
Setbacks
10
20.5373250002
20
5.3495979825
11
20.5363611657
21
5.3508300100
62
2
0
LINE
8
Setbacks
10
20.5363611657
20
5.3508300100
11
20.5360917454
21
5.3512323997
62
2
0
LINE
8
Setbacks
10
20.5360917454
20
5.3512323997
11
20.4428345246
21
5.5155818145
62
2
0
LINE
8
Setbacks
10
20.4428345246
20
5.5155818145
11
20.4426272196
21
5.5160196112
62
2
0
LINE
8
Setbacks
10
20.4426272196
20
5.5160196112
11
20.4152291571
21
5.5870053364
62
2
0
LINE
8
Setbacks
10
20.4152291571
20
5.5870053364
11
20.3872885323
21
5.6577876840
62
2
0
LINE
8
Setbacks
10
20.3872885323
20
5.6577876840
11
20.3871432087
21
5.6582553991
62
2
0
LINE
8
Setbacks
10
20.3871432087
20
5.6582553991
11
20.3870691312
21
5.6587395363
62
2
0
LINE
8
Setbacks
10
20.3870691312
20
5.6587395363
11
20.3869506921
21
5.6602722481
62
2
0
LINE
8
Setbacks
10
20.3869506921
20
5.6602722481
11
20.3863897152
21
5.6617255743
62
2
0
LINE
8
Setbacks
10
20.3863897152
20
5.6617255743
11
20.3862478818
21
5.6621946627
62
2
0
LINE
8
Setbacks
10
20.3862478818
20
5.6621946627
11
20.3861775031
21
5.6626796447
62
2
0
LINE
8
Setbacks
10
20.3861775031
20
5.6626796447
11
20.3809628363
21
5.7377469666
62
2
0
LINE
8
Setbacks
10
20.3809628363
20
5.7377469666
11
20.3751616543
21
5.8128051094
62
2
0
LINE
8
Setbacks
10
20.3751616543
20
5.8128051094
11
20.3751615629
21
5.8133095633
62
2
0
LINE
8
Setbacks
10
20.3751615629
20
5.8133095633
11
20.3752388067
21
5.8138080683
62
2
0
LINE
8
Setbacks
10
20.3752388067
20
5.8138080683
11
20.3755785103
21
5.8152544528
62
2
0
LINE
8
Setbacks
10
20.3755785103
20
5.8152544528
11
20.3754731024
21
5.8167722265
62
2
0
LINE
8
Setbacks
10
20.3754731024
20
5.8167722265
11
20.3754769841
21
5.8172771285
62
2
0
LINE
8
Setbacks
10
20.3754769841
20
5.8172771285
11
20.3755582932
21
5.8177754556
62
2
0
LINE
8
Setbacks
10
20.3755582932
20
5.8177754556
11
20.3930344934
21
5.8895736183
62
2
0
LINE
8
Setbacks
10
20.3930344934
20
5.8895736183
11
20.4099428842
21
5.9615623729
62
2
0
LINE
8
Setbacks
10
20.4099428842
20
5.9615623729
11
20.4101029544
21
5.9620610553
62
2
0
LINE
8
Setbacks
10
20.4101029544
20
5.9620610553
11
20.4103403391
21
5.9625279120
62
2
0
LINE
8
Setbacks
10
20.4103403391
20
5.9625279120
11
20.4110886721
21
5.9637476321
62
2
0
LINE
8
Setbacks
10
20.4110886721
20
5.9637476321
11
20.4114353148
21
5.9651713430
62
2
0
LINE
8
Setbacks
10
20.4114353148
20
5.9651713430
11
20.4115996315
21
5.9656691667
62
2
0
LINE
8
Setbacks
10
20.4115996315
20
5.9656691667
11
20.4118411428
21
5.9661344631
62
2
0
LINE
8
Setbacks
10
20.4118411428
20
5.9661344631
11
20.4502938425
21
6.0276382485
62
2
0
LINE
8
Setbacks
10
20.4502938425
20
6.0276382485
11
20.4882594351
21
6.0895084433
62
2
0
LINE
8
Setbacks
10
20.4882594351
20
6.0895084433
11
20.4885791180
21
6.0899442813
62
2
0
LINE
8
Setbacks
10
20.4885791180
20
6.0899442813
11
20.4889660218
21
6.0903217166
62
2
0
LINE
8
Setbacks
10
20.4889660218
20
6.0903217166
11
20.4900382543
21
6.0912076494
62
2
0
LINE
8
Setbacks
10
20.4900382543
20
6.0912076494
11
20.4907870927
21
6.0924052664
62
2
0
LINE
8
Setbacks
10
20.4907870927
20
6.0924052664
11
20.4911106491
21
6.0928386468
62
2
0
LINE
8
Setbacks
10
20.4911106491
20
6.0928386468
11
20.4915010081
21
6.0932129826
62
2
0
LINE
8
Setbacks
10
20.4915010081
20
6.0932129826
11
20.5471771032
21
6.1384140968
62
2
0
LINE
8
Setbacks
10
20.5471771032
20
6.1384140968
11
20.6024726973
21
6.1840980574
62
2
0
LINE
8
Setbacks
10
20.6024726973
20
6.1840980574
11
20.6029221605
21
6.1844101975
62
2
0
LINE
8
Setbacks
10
20.6029221605
20
6.1844101975
11
21.0837788032
21
6.4619784478
62
2
0
LINE
8
Setbacks
10
21.0837788032
20
6.4619784478
11
21.0842739388
21
6.4622115563
62
2
0
LINE
8
Setbacks
10
21.0842739388
20
6.4622115563
11
21.0855707242
21
6.4626945150
62
2
0
LINE
8
Setbacks
10
21.0855707242
20
6.4626945150
11
21.0866453693
21
6.4635669851
62
2
0
LINE
8
Setbacks
10
21.0866453693
20
6.4635669851
11
21.0870974737
21
6.4638752557
62
2
0
LINE
8
Setbacks
10
21.0870974737
20
6.4638752557
11
21.0875945262
21
6.4641040961
62
2
0
LINE
8
Setbacks
10
21.0875945262
20
6.4641040961
11
21.1550406335
21
6.4885691205
62
2
0
LINE
8
Setbacks
10
21.1550406335
20
6.4885691205
11
21.2222571236
21
6.5136045701
62
2
0
LINE
8
Setbacks
10
21.2222571236
20
6.5136045701
11
21.2227775094
21
6.5137508722
62
2
0
LINE
8
Setbacks
10
21.2227775094
20
6.5137508722
11
21.2233148549
21
6.5138097397
62
2
0
LINE
8
Setbacks
10
21.2233148549
20
6.5138097397
11
21.2247284617
21
6.5138474104
62
2
0
LINE
8
Setbacks
10
21.2247284617
20
6.5138474104
11
21.2260362949
21
6.5143218856
62
2
0
LINE
8
Setbacks
10
21.2260362949
20
6.5143218856
11
21.2265575609
21
6.5144636876
62
2
0
LINE
8
Setbacks
10
21.2265575609
20
6.5144636876
11
21.2270950300
21
6.5145180292
62
2
0
LINE
8
Setbacks
10
21.2270950300
20
6.5145180292
11
21.2996908976
21
6.5158497987
62
2
0
LINE
8
Setbacks
10
21.2996908976
20
6.5158497987
11
21.3722677390
21
6.5177884089
62
2
0
LINE
8
Setbacks
10
21.3722677390
20
6.5177884089
11
21.3727906731
21
6.5177605687
62
2
0
LINE
8
Setbacks
10
21.3727906731
20
6.5177605687
11
21.3733025162
21
6.5176498807
62
2
0
LINE
8
Setbacks
10
21.3733025162
20
6.5176498807
11
21.3747083241
21
6.5172259763
62
2
0
LINE
8
Setbacks
10
21.3747083241
20
6.5172259763
11
21.3761395459
21
6.5172522793
62
2
0
LINE
8
Setbacks
10
21.3761395459
20
6.5172522793
11
21.3766617674
21
6.5172201505
62
2
0
LINE
8
Setbacks
10
21.3766617674
20
6.5172201505
11
21.3771722411
21
6.5171054147
62
2
0
LINE
8
Setbacks
10
21.3771722411
20
6.5171054147
11
21.4478308850
21
6.4951775713
62
2
0
LINE
8
Setbacks
10
21.4478308850
20
6.4951775713
11
21.5186453378
21
6.4738250855
62
2
0
LINE
8
Setbacks
10
21.5186453378
20
6.4738250855
11
21.5191156815
21
6.4736427588
62
2
0
LINE
8
Setbacks
10
21.5191156815
20
6.4736427588
11
21.5195525148
21
6.4733904835
62
2
0
LINE
8
Setbacks
10
21.5195525148
20
6.4733904835
11
21.5208086946
21
6.4725298456
62
2
0
LINE
8
Setbacks
10
21.5208086946
20
6.4725298456
11
21.5222293815
21
6.4720890956
62
2
0
LINE
8
Setbacks
10
21.5222293815
20
6.4720890956
11
21.5226978348
21
6.4719032354
62
2
0
LINE
8
Setbacks
10
21.5226978348
20
6.4719032354
11
21.5231322951
21
6.4716478206
62
2
0
LINE
8
Setbacks
10
21.5231322951
20
6.4716478206
11
21.5849338408
21
6.4286052383
62
2
0
LINE
8
Setbacks
10
21.5849338408
20
6.4286052383
11
21.6470568525
21
6.3860520758
62
2
0
LINE
8
Setbacks
10
21.6470568525
20
6.3860520758
11
21.6474390761
21
6.3857459624
62
2
0
LINE
8
Setbacks
10
21.6474390761
20
6.3857459624
11
21.6477714793
21
6.3853863677
62
2
0
LINE
8
Setbacks
10
21.6477714793
20
6.3853863677
11
21.6487413834
21
6.3841657127
62
2
0
LINE
8
Setbacks
10
21.6487413834
20
6.3841657127
11
21.6500036379
21
6.3832866337
62
2
0
LINE
8
Setbacks
10
21.6500036379
20
6.3832866337
11
21.6503832615
21
6.3829777689
62
2
0
LINE
8
Setbacks
10
21.6503832615
20
6.3829777689
11
21.6507127169
21
6.3826158701
62
2
0
LINE
8
Setbacks
10
21.6507127169
20
6.3826158701
11
21.6976062772
21
6.3226722835
62
2
0
LINE
8
Setbacks
10
21.6976062772
20
6.3226722835
11
21.7449574402
21
6.2630832970
62
2
0
LINE
8
Setbacks
10
21.7449574402
20
6.2630832970
11
21.7452299480
21
6.2626828955
62
2
0
LINE
8
Setbacks
10
21.7452299480
20
6.2626828955
11
21.7454405380
21
6.2622467377
62
2
0
LINE
8
Setbacks
10
21.7454405380
20
6.2622467377
11
21.7460149355
21
6.2607914966
62
2
0
LINE
8
Setbacks
10
21.7460149355
20
6.2607914966
11
21.7469787700
21
6.2595594691
62
2
0
LINE
8
Setbacks
10
21.7469787700
20
6.2595594691
11
21.7472481903
21
6.2591570794
62
2
0
LINE
8
Setbacks
10
21.7472481903
20
6.2591570794
11
21.8405054111
21
6.0948076647
62
2
0
LINE
8
Setbacks
10
21.8405054111
20
6.0948076647
11
21.8407127125
21
6.0943698775
62
2
0
LINE
8
Setbacks
10
21.8407127125
20
6.0943698775
11
21.8681179953
21
6.0233661011
62
2
0
LINE
8
Setbacks
10
21.8681179953
20
6.0233661011
11
21.8960514049
21
5.9526017916
62
2
0
LINE
8
Setbacks
10
21.8960514049
20
5.9526017916
11
21.8961967137
21
5.9521341383
62
2
0
LINE
8
Setbacks
10
21.8961967137
20
5.9521341383
11
21.8962707950
21
5.9516500658
62
2
0
LINE
8
Setbacks
10
21.8962707950
20
5.9516500658
11
21.8963892240
21
5.9501182345
62
2
0
LINE
8
Setbacks
10
21.8963892240
20
5.9501182345
11
21.8969505766
21
5.9486638323
62
2
0
LINE
8
Setbacks
10
21.8969505766
20
5.9486638323
11
21.8970923915
21
5.9481947739
62
2
0
LINE
8
Setbacks
10
21.8970923915
20
5.9481947739
11
21.8971627614
21
5.9477098252
62
2
0
LINE
8
Setbacks
10
21.8971627614
20
5.9477098252
11
21.9023770995
21
5.8726441533
62
2
0
LINE
8
Setbacks
10
21.9023770995
20
5.8726441533
11
21.9081786088
21
5.7975847077
62
2
0
LINE
8
Setbacks
10
21.9081786088
20
5.7975847077
11
21.9081787001
21
5.7970802329
62
2
0
LINE
8
Setbacks
10
21.9081787001
20
5.7970802329
11
21.9081014498
21
5.7965817078
62
2
0
LINE
8
Setbacks
10
21.9081014498
20
5.7965817078
11
21.9077614396
21
5.7951340810
62
2
0
LINE
8
Setbacks
10
21.9077614396
20
5.7951340810
11
21.9078668256
21
5.7936173633
62
2
0
LINE
8
Setbacks
10
21.9078668256
20
5.7936173633
11
21.9078629572
21
5.7931124159
62
2
0
LINE
8
Setbacks
10
21.9078629572
20
5.7931124159
11
21.9077816473
21
5.7926140429
62
2
0
LINE
8
Setbacks
10
21.9077816473
20
5.7926140429
11
21.8903047863
21
5.7208112685
62
2
0
LINE
8
Setbacks
10
21.8903047863
20
5.7208112685
11
21.8733970474
21
5.6488270885
62
2
0
LINE
8
Setbacks
10
21.8733970474
20
5.6488270885
11
21.8732369024
21
5.6483282321
62
2
0
LINE
8
Setbacks
10
21.8732369024
20
5.6483282321
11
21.8729993893
21
5.6478612292
62
2
0
LINE
8
Setbacks
10
21.8729993893
20
5.6478612292
11
21.8722516470
21
5.6466428023
62
2
0
LINE
8
Setbacks
10
21.8722516470
20
5.6466428023
11
21.8719050402
21
5.6452185108
62
2
0
LINE
8
Setbacks
10
21.8719050402
20
5.6452185108
11
21.8717407035
21
5.6447204814
62
2
0
LINE
8
Setbacks
10
21.8717407035
20
5.6447204814
11
21.8714991111
21
5.6442550001
62
2
0
LINE
8
Setbacks
10
21.8714991111
20
5.6442550001
11
21.8330369053
21
5.5827367923
62
2
0
LINE
8
Setbacks
10
21.8330369053
20
5.5827367923
11
21.7950805072
21
5.5208810466
62
2
0
LINE
8
Setbacks
10
21.7950805072
20
5.5208810466
11
21.7947608219
21
5.5204452026
62
2
0
LINE
8
Setbacks
10
21.7947608219
20
5.5204452026
11
21.7943739140
21
5.5200677625
62
2
0
LINE
8
Setbacks
10
21.7943739140
20
5.5200677625
11
21.7933016814
21
5.5191818298
62
2
0
LINE
8
Setbacks
10
21.7933016814
20
5.5191818298
11
21.7925528431
21
5.5179842128
62
2
0
LINE
8
Setbacks
10
21.7925528431
20
5.5179842128
11
21.7922292866
21
5.5175508323
62
2
0
LINE
8
Setbacks
10
21.7922292866
20
5.5175508323
11
21.7918389277
21
5.5171764965
62
2
0
LINE
8
Setbacks
10
21.7918389277
20
5.5171764965
11
21.7361628325
21
5.4719753824
62
2
0
LINE
8
Setbacks
10
21.7361628325
20
5.4719753824
11
21.6808672384
21
5.4262914217
62
2
0
LINE
8
Setbacks
10
21.6808672384
20
5.4262914217
11
21.6804177752
21
5.4259792817
62
2
0
LINE
8
Setbacks
10
21.6804177752
20
5.4259792817
11
21.1995611326
21
5.1484110313
62
2
0
LINE
8
Setbacks
10
21.1995611326
20
5.1484110313
11
21.1990659970
21
5.1481779228
62
2
0
LINE
8
Setbacks
10
21.1990659970
20
5.1481779228
11
21.1977692115
21
5.1476949641
62
2
0
LINE
8
Setbacks
10
-0.1552351137
20
2.7818376074
11
-0.1547375370
21
2.7820651497
62
2
0
LINE
8
Setbacks
10
-0.1547375370
20
2.7820651497
11
0.5974588855
21
3.0527477720
62
2
0
LINE
8
Setbacks
10
0.5974588855
20
3.0527477720
11
1.2756469146
21
5.5281348152
62
2
0
LINE
8
Setbacks
10
1.2756469146
20
5.5281348152
11
-0.5854618278
21
8.7394606359
62
2
0
LINE
8
Setbacks
10
-0.5854618278
20
8.7394606359
11
-0.8672821988
21
8.7315117543
62
2
0
LINE
8
Setbacks
10
-0.8672821988
20
8.7315117543
11
-0.8678056784
21
8.7315388804
62
2
0
LINE
8
Setbacks
10
-0.8678056784
20
8.7315388804
11
-0.8683181565
21
8.7316490296
62
2
0
LINE
8
Setbacks
10
-0.8683181565
20
8.7316490296
11
-1.7402236962
21
8.9934367677
62
2
0
LINE
8
Setbacks
10
-1.7402236962
20
8.9934367677
11
-1.7406945503
21
8.9936186842
62
2
0
LINE
8
Setbacks
10
-1.7406945503
20
8.9936186842
11
-1.7411319256
21
8.9938706763
62
2
0
LINE
8
Setbacks
10
-1.7411319256
20
8.9938706763
11
-2.5063051784
21
9.5170157061
62
2
0
LINE
8
Setbacks
10
-2.5063051784
20
9.5170157061
11
-2.5066878386
21
9.5173216410
62
2
0
LINE
8
Setbacks
10
-2.5066878386
20
9.5173216410
11
-2.5070206751
21
9.5176811474
62
2
0
LINE
8
Setbacks
10
-2.5070206751
20
9.5176811474
11
-3.0905607200
21
10.2509751341
62
2
0
LINE
8
Setbacks
10
-3.0905607200
20
10.2509751341
11
-3.0908334912
21
10.2513753116
62
2
0
LINE
8
Setbacks
10
-3.0908334912
20
10.2513753116
11
-3.0910443797
21
10.2518112842
62
2
0
LINE
8
Setbacks
10
-3.0910443797
20
10.2518112842
11
-3.4358304800
21
11.1234740418
62
2
0
LINE
8
Setbacks
10
-3.4358304800
20
11.1234740418
11
-3.4359760618
21
11.1239413551
62
2
0
LINE
8
Setbacks
10
-3.4359760618
20
11.1239413551
11
-3.4360504999
21
11.1244251266
62
2
0
LINE
8
Setbacks
10
-3.4360504999
20
11.1244251266
11
-3.5083326544
21
12.0491321772
62
2
0
LINE
8
Setbacks
10
-3.5083326544
20
12.0491321772
11
-3.5083332214
21
12.0496361683
62
2
0
LINE
8
Setbacks
10
-3.5083332214
20
12.0496361683
11
-3.5082565890
21
12.0501342996
62
2
0
LINE
8
Setbacks
10
-3.5082565890
20
12.0501342996
11
-3.3009590102
21
12.9373692361
62
2
0
LINE
8
Setbacks
10
-3.3009590102
20
12.9373692361
11
-3.3007996758
21
12.9378677301
62
2
0
LINE
8
Setbacks
10
-3.3007996758
20
12.9378677301
11
-3.3005631052
21
12.9383345469
62
2
0
LINE
8
Setbacks
10
-3.3005631052
20
12.9383345469
11
-2.8339774604
21
13.7012479572
62
2
0
LINE
8
Setbacks
10
-2.8339774604
20
13.7012479572
11
-2.8336586045
21
13.7016840663
62
2
0
LINE
8
Setbacks
10
-2.8336586045
20
13.7016840663
11
-2.8332725031
21
13.7020619366
62
2
0
LINE
8
Setbacks
10
-2.8332725031
20
13.7020619366
11
-2.1530716940
21
14.2659750124
62
2
0
LINE
8
Setbacks
10
-2.1530716940
20
14.2659750124
11
-2.1526228500
21
14.2662878642
62
2
0
LINE
8
Setbacks
10
-2.1526228500
20
14.2662878642
11
-0.6768539269
21
15.1215628309
62
2
0
LINE
8
Setbacks
10
-0.6768539269
20
15.1215628309
11
-6.0340621510
21
24.5219445182
62
2
0
LINE
8
Setbacks
10
-6.0340621510
20
24.5219445182
11
-25.1504156470
21
13.6276755677
62
2
0
LINE
8
Setbacks
10
-21.2109813542
20
6.7150852354
11
-20.2815197849
21
7.2447785042
62
2
0
LINE
8
Setbacks
10
-20.2815197849
20
7.2447785042
11
-20.2810234317
21
7.2450088497
62
2
0
LINE
8
Setbacks
10
-20.2810234317
20
7.2450088497
11
-19.4514584445
21
7.5487713266
62
2
0
LINE
8
Setbacks
10
-19.4514584445
20
7.5487713266
11
-19.4509372967
21
7.5489147391
62
2
0
LINE
8
Setbacks
10
-19.4509372967
20
7.5489147391
11
-19.4503996747
21
7.5489706376
62
2
0
LINE
8
Setbacks
10
-19.4503996747
20
7.5489706376
11
-18.5566375070
21
7.5678610582
62
2
0
LINE
8
Setbacks
10
-18.5566375070
20
7.5678610582
11
-18.5561146508
21
7.5678302927
62
2
0
LINE
8
Setbacks
10
-18.5561146508
20
7.5678302927
11
-18.5556033531
21
7.5677167157
62
2
0
LINE
8
Setbacks
10
-18.5556033531
20
7.5677167157
11
-17.6851312124
21
7.2998859984
62
2
0
LINE
8
Setbacks
10
-17.6851312124
20
7.2998859984
11
-17.6846619612
21
7.2997010526
62
2
0
LINE
8
Setbacks
10
-17.6846619612
20
7.2997010526
11
-17.6842266039
21
7.2994463651
62
2
0
LINE
8
Setbacks
10
-17.6842266039
20
7.2994463651
11
-16.9222524982
21
6.7711113745
62
2
0
LINE
8
Setbacks
10
-16.9222524982
20
6.7711113745
11
-16.9218720246
21
6.7708030922
62
2
0
LINE
8
Setbacks
10
-16.9218720246
20
6.7708030922
11
-16.9215416744
21
6.7704416136
62
2
0
LINE
8
Setbacks
10
-16.9215416744
20
6.7704416136
11
-16.3426528763
21
6.0333195428
62
2
0
LINE
8
Setbacks
10
-16.3426528763
20
6.0333195428
11
-16.3423826837
21
6.0329176228
62
2
0
LINE
8
Setbacks
10
-16.3423826837
20
6.0329176228
11
-16.3421746018
21
6.0324803064
62
2
0
LINE
8
Setbacks
10
-16.3421746018
20
6.0324803064
11
-16.1005326795
21
5.4099141269
62
2
0
LINE
8
Setbacks
10
-16.1005326795
20
5.4099141269
11
-2.0463101298
21
1.5594443163
62
2
0
LINE
8
Setbacks
10
-2.0463101298
20
1.5594443163
11
-1.3993052149
21
2.0819959930
62
2
0
LINE
8
Setbacks
10
-1.3993052149
20
2.0819959930
11
-1.3988522795
21
2.0823031362
62
2
0
LINE
8
Setbacks
10
-1.3988522795
20
2.0823031362
11
-0.1552351137
21
2.7818376074
62
2
0
LINE
8
Setbacks
10
10.0531621243
20
-13.5563912264
11
2.7832329814
21
-0.6320700226
62
2
0
LINE
8
Setbacks
10
2.7832329814
20
-0.6320700226
11
-16.9430020620
21
-11.7280745696
62
2
0
LINE
8
Setbacks
10
-16.9430020620
20
-11.7280745696
11
-11.7576602633
21
-20.9464619574
62
2
0
LINE
8
Setbacks
10
-11.7576602633
20
-20.9464619574
11
-11.6775314747
21
-20.9954515325
62
2
0
LINE
8
Setbacks
10
-11.6775314747
20
-20.9954515325
11
-11.6770954945
21
-20.9957701738
62
2
0
LINE
8
Setbacks
10
-11.6770954945
20
-20.9957701738
11
-11.6767176890
21
-20.9961560156
62
2
0
LINE
8
Setbacks
10
-11.6767176890
20
-20.9961560156
11
-11.1125428022
21
-21.6762771004
62
2
0
LINE
8
Setbacks
10
-11.1125428022
20
-21.6762771004
11
-11.1122298570
21
-21.6767257949
62
2
0
LINE
8
Setbacks
10
-11.1122298570
20
-21.6767257949
11
-9.7183820434
21
-24.0800969348
62
2
0
LINE
8
Setbacks
10
-9.7183820434
20
-24.0800969348
11
-9.7181479056
21
-24.0805916519
62
2
0
LINE
8
Setbacks
10
-9.7181479056
20
-24.0805916519
11
-9.5333324707
21
-24.5737917590
62
2
0
LINE
8
Setbacks
10
1.5371720454
20
-16.0304212335
11
1.5371842346
21
-16.0302357343
62
2
0
LINE
8
Setbacks
10
1.5371842346
20
-16.0302357343
11
1.5373007950
21
-16.0297264947
62
2
0
LINE
8
Setbacks
10
1.5373007950
20
-16.0297264947
11
1.5600527141
21
-15.9573855033
62
2
0
LINE
8
Setbacks
10
1.5600527141
20
-15.9573855033
11
1.5826747129
21
-15.8852640004
62
2
0
LINE
8
Setbacks
10
1.5826747129
20
-15.8852640004
11
1.5828617974
21
-15.8847966135
62
2
0
LINE
8
Setbacks
10
1.5828617974
20
-15.8847966135
11
1.5829609460
21
-15.8846290671
62
2
0
LINE
8
Setbacks
10
1.5829609460
20
-15.8846290671
11
1.5830314327
21
-15.8844536795
62
2
0
LINE
8
Setbacks
10
1.5830314327
20
-15.8844536795
11
1.5832883297
21
-15.8840208909
62
2
0
LINE
8
Setbacks
10
1.5832883297
20
-15.8840208909
11
1.6277197180
21
-15.8207820554
62
2
0
LINE
8
Setbacks
10
1.6277197180
20
-15.8207820554
11
1.6718663301
21
-15.7578493228
62
2
0
LINE
8
Setbacks
10
1.6718663301
20
-15.7578493228
11
1.6721773264
21
-15.7574698635
62
2
0
LINE
8
Setbacks
10
1.6721773264
20
-15.7574698635
11
1.6723208660
21
-15.7573402262
62
2
0
LINE
8
Setbacks
10
1.6723208660
20
-15.7573402262
11
1.6724425615
21
-15.7571918101
62
2
0
LINE
8
Setbacks
10
1.6724425615
20
-15.7571918101
11
1.6728066239
21
-15.7568631318
62
2
0
LINE
8
Setbacks
10
1.6728066239
20
-15.7568631318
11
1.7345829085
21
-15.7089632750
62
2
0
LINE
8
Setbacks
10
1.7345829085
20
-15.7089632750
11
1.7959182488
21
-15.6613334321
62
2
0
LINE
8
Setbacks
10
1.7959182488
20
-15.6613334321
11
1.7963220350
21
-15.6610652140
62
2
0
LINE
8
Setbacks
10
1.7963220350
20
-15.6610652140
11
1.7966567942
21
-15.6608769119
62
2
0
LINE
8
Setbacks
10
1.7966567942
20
-15.6608769119
11
1.7966582582
21
-15.6608758014
62
2
0
LINE
8
Setbacks
10
1.7966582582
20
-15.6608758014
11
7.2810032499
21
-12.5749442722
62
2
0
LINE
8
Setbacks
10
7.2810032499
20
-12.5749442722
11
7.2811780347
21
-12.5748623037
62
2
0
LINE
8
Setbacks
10
7.2811780347
20
-12.5748623037
11
7.2813415729
21
-12.5747538226
62
2
0
LINE
8
Setbacks
10
7.2813415729
20
-12.5747538226
11
7.2817802043
21
-12.5745484297
62
2
0
LINE
8
Setbacks
10
7.2817802043
20
-12.5745484297
11
7.3548614480
21
-12.5467017380
62
2
0
LINE
8
Setbacks
10
7.3548614480
20
-12.5467017380
11
7.4273744505
21
-12.5190115432
62
2
0
LINE
8
Setbacks
10
7.4273744505
20
-12.5190115432
11
7.4278427445
21
-12.5188716841
62
2
0
LINE
8
Setbacks
10
7.4278427445
20
-12.5188716841
11
7.4280319145
21
-12.5188448097
62
2
0
LINE
8
Setbacks
10
7.4280319145
20
-12.5188448097
11
7.4282212945
21
-12.5187884878
62
2
0
LINE
8
Setbacks
10
7.4282212945
20
-12.5187884878
11
7.4287056260
21
-12.5187203075
62
2
0
LINE
8
Setbacks
10
7.4287056260
20
-12.5187203075
11
7.5057332819
21
-12.5136875785
62
2
0
LINE
8
Setbacks
10
7.5057332819
20
-12.5136875785
11
7.5825302947
21
-12.5086125276
62
2
0
LINE
8
Setbacks
10
7.5825302947
20
-12.5086125276
11
7.5830336880
21
-12.5086179691
62
2
0
LINE
8
Setbacks
10
7.5830336880
20
-12.5086179691
11
7.5832194916
21
-12.5086487940
62
2
0
LINE
8
Setbacks
10
7.5832194916
20
-12.5086487940
11
7.5834147283
21
-12.5086511669
62
2
0
LINE
8
Setbacks
10
7.5834147283
20
-12.5086511669
11
7.5839112645
21
-12.5087342306
62
2
0
LINE
8
Setbacks
10
7.5839112645
20
-12.5087342306
11
7.6574956755
21
-12.5269406220
62
2
0
LINE
8
Setbacks
10
7.6574956755
20
-12.5269406220
11
7.7309091544
21
-12.5450449801
62
2
0
LINE
8
Setbacks
10
7.7309091544
20
-12.5450449801
11
7.7314054841
21
-12.5452103384
62
2
0
LINE
8
Setbacks
10
7.7314054841
20
-12.5452103384
11
7.7315682777
21
-12.5452953436
62
2
0
LINE
8
Setbacks
10
7.7315682777
20
-12.5452953436
11
7.7317501067
21
-12.5453561473
62
2
0
LINE
8
Setbacks
10
7.7317501067
20
-12.5453561473
11
7.7322136643
21
-12.5455988789
62
2
0
LINE
8
Setbacks
10
7.7322136643
20
-12.5455988789
11
7.7951397256
21
-12.5852435245
62
2
0
LINE
8
Setbacks
10
7.7951397256
20
-12.5852435245
11
7.8579955764
21
-12.6247739978
62
2
0
LINE
8
Setbacks
10
7.8579955764
20
-12.6247739978
11
7.8584268845
21
-12.6250975935
62
2
0
LINE
8
Setbacks
10
7.8584268845
20
-12.6250975935
11
7.8585533860
21
-12.6252300012
62
2
0
LINE
8
Setbacks
10
7.8585533860
20
-12.6252300012
11
7.8587038858
21
-12.6253433074
62
2
0
LINE
8
Setbacks
10
7.8587038858
20
-12.6253433074
11
7.8590756591
21
-12.6257337105
62
2
0
LINE
8
Setbacks
10
7.8590756591
20
-12.6257337105
11
7.9052723284
21
-12.6830122000
62
2
0
LINE
8
Setbacks
10
7.9052723284
20
-12.6830122000
11
7.9513292330
21
-12.7400223174
62
2
0
LINE
8
Setbacks
10
7.9513292330
20
-12.7400223174
11
7.9516369036
21
-12.7404760388
62
2
0
LINE
8
Setbacks
10
7.9516369036
20
-12.7404760388
11
7.9517123651
21
-12.7406411916
62
2
0
LINE
8
Setbacks
10
7.9517123651
20
-12.7406411916
11
7.9518155499
21
-12.7407934513
62
2
0
LINE
8
Setbacks
10
7.9518155499
20
-12.7407934513
11
8.8043803786
21
-14.2588307877
62
2
0
LINE
8
Setbacks
10
2.4419820307
20
-17.8376789888
11
1.5897267503
21
-16.3201930432
62
2
0
LINE
8
Setbacks
10
1.5897267503
20
-16.3201930432
11
1.5895482613
21
-16.3198749250
62
2
0
LINE
8
Setbacks
10
1.5895482613
20
-16.3198749250
11
1.5893217010
21
-16.3193783385
62
2
0
LINE
8
Setbacks
10
1.5893217010
20
-16.3193783385
11
1.5644989899
21
-16.2502509874
62
2
0
LINE
8
Setbacks
10
1.5644989899
20
-16.2502509874
11
1.5396267392
21
-16.1811630061
62
2
0
LINE
8
Setbacks
10
1.5396267392
20
-16.1811630061
11
1.5394862454
21
-16.1806415177
62
2
0
LINE
8
Setbacks
10
1.5394862454
20
-16.1806415177
11
1.5394680369
21
-16.1804569906
62
2
0
LINE
8
Setbacks
10
1.5394680369
20
-16.1804569906
11
1.5394202471
21
-16.1802786981
62
2
0
LINE
8
Setbacks
10
1.5394202471
20
-16.1802786981
11
1.5393678669
21
-16.1797416134
62
2
0
LINE
8
Setbacks
10
1.5393678669
20
-16.1797416134
11
1.5382579782
21
-16.1051904268
62
2
0
LINE
8
Setbacks
10
1.5382579782
20
-16.1051904268
11
1.5370962533
21
-16.0311290696
62
2
0
LINE
8
Setbacks
10
1.5370962533
20
-16.0311290696
11
1.5371296673
21
-16.0306077652
62
2
0
LINE
8
Setbacks
10
1.5371296673
20
-16.0306077652
11
1.5371720454
21
-16.0304212335
62
2
0
LINE
8
Setbacks
10
12.0286571117
20
34.8157552574
11
-3.5790970633
21
25.9210110500
62
2
0
LINE
8
Setbacks
10
-3.5790970633
20
25.9210110500
11
1.7679593053
21
16.5384427115
62
2
0
LINE
8
Setbacks
10
1.7679593053
20
16.5384427115
11
16.1499574602
21
24.8734617602
62
2
0
LINE
8
Setbacks
10
16.1499574602
20
24.8734617602
11
16.1504521980
21
24.8736957270
62
2
0
LINE
8
Setbacks
10
16.1504521980
20
24.8736957270
11
16.9776854922
21
25.1834086634
62
2
0
LINE
8
Setbacks
10
16.9776854922
20
25.1834086634
11
16.9782058594
21
25.1835558947
62
2
0
LINE
8
Setbacks
10
16.9782058594
20
25.1835558947
11
16.9787433436
21
25.1836156433
62
2
0
LINE
8
Setbacks
10
16.9787433436
20
25.1836156433
11
17.5094124631
21
25.1985835347
62
2
0
LINE
8
Setbacks
10
-25.3747944093
20
-29.6829696109
11
-15.8453536472
21
-24.1563194778
62
2
0
LINE
8
Setbacks
10
-15.8453536472
20
-24.1563194778
11
-25.4620042318
21
-7.5746101629
62
2
0
LINE
8
Setbacks
10
-25.4620042318
20
-7.5746101629
11
-32.0858726542
21
-5.8135977889
62
2
0
LINE
8
Setbacks
10
-32.0858726542
20
-5.8135977889
11
-32.7135109334
21
-6.3342857439
62
2
0
LINE
8
Setbacks
10
-32.7135109334
20
-6.3342857439
11
-32.7139597438
21
-6.3345987853
62
2
0
LINE
8
Setbacks
10
-32.7139597438
20
-6.3345987853
11
-37.3548509811
21
-9.0261083815
62
2
0
LINE
8
Setbacks
10
-24.4732949247
20
1.3614085945
11
-18.3147068903
21
-9.2576645794
62
2
0
LINE
8
Setbacks
10
-18.3147068903
20
-9.2576645794
11
-3.6708505202
21
-1.0204975843
62
2
0
LINE
8
Setbacks
10
-3.6708505202
20
-1.0204975843
11
-19.2671546029
21
3.2524605427
62
2
0
LINE
8
Setbacks
10
-19.2671546029
20
3.2524605427
11
-19.2676444225
21
3.2526376055
62
2
0
LINE
8
Setbacks
10
-19.2676444225
20
3.2526376055
11
-19.6774958135
21
3.4387865616
62
2
0
LINE
8
Setbacks
10
-19.6774958135
20
3.4387865616
11
-19.6779629620
21
3.4390465781
62
2
0
LINE
8
Setbacks
10
-19.6779629620
20
3.4390465781
11
-19.6783816773
21
3.4393790143
62
2
0
LINE
8
Setbacks
10
-19.6783816773
20
3.4393790143
11
-20.0019318845
21
3.7423760713
62
2
0
LINE
8
Setbacks
10
-20.0019318845
20
3.7423760713
11
-20.0022980282
21
3.7427812195
62
2
0
LINE
8
Setbacks
10
-20.0022980282
20
3.7427812195
11
-20.0025918987
21
3.7432414873
62
2
0
LINE
8
Setbacks
10
-20.0025918987
20
3.7432414873
11
-20.0698509404
21
3.8708989552
62
2
0
LINE
8
Setbacks
10
-32.3912489384
20
-2.7135587438
11
-28.4451709652
21
-3.7626575305
62
2
0
LINE
8
Setbacks
10
-28.4451709652
20
-3.7626575305
11
-29.8936606311
21
-1.2650690938
62
2
0
LINE
8
Obstructions
10
20.8546130997
20
5.7485854376
11
20.9478701729
21
5.5842357898
62
252
0
LINE
8
Obstructions
10
20.9478701729
20
5.5842357898
11
21.4287269594
21
5.8618040824
62
252
0
LINE
8
Obstructions
10
21.4287269594
20
5.8618040824
11
21.3354698863
21
6.0261537302
62
252
0
LINE
8
Obstructions
10
21.3354698863
20
6.0261537302
11
20.8546130997
21
5.7485854376
62
252
0
LINE
8
Obstructions
10
24.0195250386
20
7.3007765485
11
24.1156963976
21
7.1400791154
62
252
0
LINE
8
Obstructions
10
24.1156963976
20
7.1400791154
11
24.5965531842
21
7.4176474106
62
252
0
LINE
8
Obstructions
10
24.5965531842
20
7.4176474106
11
24.5003818252
21
7.5819970558
62
252
0
LINE
8
Obstructions
10
24.5003818252
20
7.5819970558
11
24.0195250386
21
7.3007765485
62
252
0
LINE
8
Obstructions
10
26.6686087896
20
3.1591654395
11
26.7618658627
21
2.9948157943
62
252
0
LINE
8
Obstructions
10
26.7618658627
20
2.9948157943
11
27.2427226493
21
3.2723840869
62
252
0
LINE
8
Obstructions
10
27.2427226493
20
3.2723840869
11
27.1494655762
21
3.4367337321
62
252
0
LINE
8
Obstructions
10
27.1494655762
20
3.4367337321
11
26.6686087896
21
3.1591654395
62
252
0
LINE
8
Obstructions
10
2.0283413505
20
-16.0733954927
11
7.5130229986
21
-12.9872743417
62
252
0
LINE
8
Obstructions
10
7.5130229986
20
-12.9872743417
11
8.6903935518
21
-15.0836453964
62
252
0
LINE
8
Obstructions
10
8.6903935518
20
-15.0836453964
11
3.2057119079
21
-18.1697665500
62
252
0
LINE
8
Obstructions
10
3.2057119079
20
-18.1697665500
11
2.0283413505
21
-16.0733954927
62
252
0
ENDSEC
0
EOF