999
Design created by Aurora
0
SECTION
2
HEADER
9
$ACADVER
1
AC1009
9
$INSUNITS
70
2
0
ENDSEC
0
SECTION
2
TABLES
0
TABLE
2
LTYPE
100
AcDbLinetypeTableRecord
2
LTYPE
0
LTYPE
2
DASHED
70
0
3
dashed line
72
65
73
2
40
4.0
49
2.0
49
-2.0
0
ENDTAB
0
TABLE
2
LAYER
70
6
0
LAYER
100
AcDbSymbolTable
100
AcDbLayerTable
2
Inverters
70
0
62
7
6
CONTINUOUS
0
LAYER
100
AcDbSymbolTable
100
AcDbLayerTable
2
Setbacks
70
0
62
7
6
CONTINUOUS
0
LAYER
100
AcDbSymbolTable
100
AcDbLayerTable
2
Connections
70
0
62
7
6
CONTINUOUS
0
LAYER
100
AcDbSymbolTable
100
AcDbLayerTable
2
Strings
70
0
62
7
6
CONTINUOUS
0
LAYER
100
AcDbSymbolTable
100
AcDbLayerTable
2
Modules
70
0
62
7
6
CONTINUOUS
0
LAYER
100
AcDbSymbolTable
100
AcDbLayerTable
2
Buildings
70
0
62
7
6
CONTINUOUS
0
ENDTAB
0
ENDSEC
0
SECTION
2
ENTITIES
0
LINE
8
Modules
10
-7.3039845599
20
33.4226507088
11
-13.4583179729
21
33.3607911973
62
254
0
LINE
8
Modules
10
-13.4583179729
20
33.3607911973
11
-13.4209569740
21
29.6437872373
62
254
0
LINE
8
Modules
10
-13.4209569740
20
29.6437872373
11
-7.2666235609
21
29.7056467487
62
254
0
LINE
8
Modules
10
-7.2666235609
20
29.7056467487
11
-7.3039845599
21
33.4226507088
62
254
0
LINE
8
Modules
10
-7.2660908542
20
29.6645221104
11
-13.4204242672
21
29.6026625989
62
254
0
LINE
8
Modules
10
-13.4204242672
20
29.6026625989
11
-13.3830632683
21
25.8856586389
62
254
0
LINE
8
Modules
10
-13.3830632683
20
25.8856586389
11
-7.2287298552
21
25.9475181504
62
254
0
LINE
8
Modules
10
-7.2287298552
20
25.9475181504
11
-7.2660908542
21
29.6645221104
62
254
0
LINE
8
Modules
10
-7.2311120512
20
25.9063935094
11
-13.3854454642
21
25.8445339980
62
254
0
LINE
8
Modules
10
-13.3854454642
20
25.8445339980
11
-13.3480844652
21
22.1275300379
62
254
0
LINE
8
Modules
10
-13.3480844652
20
22.1275300379
11
-7.1937510522
21
22.1893895494
62
254
0
LINE
8
Modules
10
-7.1937510522
20
22.1893895494
11
-7.2311120512
21
25.9063935094
62
254
0
LINE
8
Modules
10
-7.1932183455
20
22.1482649111
11
-13.3475517585
21
22.0864053996
62
254
0
LINE
8
Modules
10
-13.3475517585
20
22.0864053996
11
-13.3101907596
21
18.3694014396
62
254
0
LINE
8
Modules
10
-13.3101907596
20
18.3694014396
11
-7.1558573465
21
18.4312609510
62
254
0
LINE
8
Modules
10
-7.1558573465
20
18.4312609510
11
-7.1932183455
21
22.1482649111
62
254
0
LINE
8
Modules
10
-7.1553246398
20
18.3901363127
11
-13.3096580528
21
18.3282768013
62
254
0
LINE
8
Modules
10
-13.3096580528
20
18.3282768013
11
-13.2722970539
21
14.6112728412
62
254
0
LINE
8
Modules
10
-13.2722970539
20
14.6112728412
11
-7.1179636408
21
14.6731323527
62
254
0
LINE
8
Modules
10
-7.1179636408
20
14.6731323527
11
-7.1553246398
21
18.3901363127
62
254
0
LINE
8
Modules
10
-7.1174309341
20
14.6320077144
11
-13.2717643471
21
14.5701482029
62
254
0
LINE
8
Modules
10
-13.2717643471
20
14.5701482029
11
-13.2344033482
21
10.8531442429
62
254
0
LINE
8
Modules
10
-13.2344033482
20
10.8531442429
11
-7.0800699352
21
10.9150037543
62
254
0
LINE
8
Modules
10
-7.0800699352
20
10.9150037543
11
-7.1174309341
21
14.6320077144
62
254
0
LINE
8
Modules
10
-7.0795372326
20
10.8702269013
11
-13.2338706456
21
10.8083673899
62
254
0
LINE
8
Modules
10
-13.2338706456
20
10.8083673899
11
-13.1965096466
21
7.0913634298
62
254
0
LINE
8
Modules
10
-13.1965096466
20
7.0913634298
11
-7.0421762336
21
7.1532229413
62
254
0
LINE
8
Modules
10
-7.0421762336
20
7.1532229413
11
-7.0795372326
21
10.8702269013
62
254
0
LINE
8
Modules
10
-7.0416435269
20
7.1120983030
11
-13.1959769399
21
7.0502387915
62
254
0
LINE
8
Modules
10
-13.1959769399
20
7.0502387915
11
-13.1586159409
21
3.3332348315
62
254
0
LINE
8
Modules
10
-13.1586159409
20
3.3332348315
11
-7.0042825279
21
3.3950943429
62
254
0
LINE
8
Modules
10
-7.0042825279
20
3.3950943429
11
-7.0416435269
21
7.1120983030
62
254
0
LINE
8
Modules
10
-6.7297491899
20
-22.6023179079
11
-12.8840826029
21
-22.6641774194
62
254
0
LINE
8
Modules
10
-12.8840826029
20
-22.6641774194
11
-12.8467216040
21
-26.3811813794
62
254
0
LINE
8
Modules
10
-12.8467216040
20
-26.3811813794
11
-6.6923881910
21
-26.3193218680
62
254
0
LINE
8
Modules
10
-6.6923881910
20
-26.3193218680
11
-6.7297491899
21
-22.6023179079
62
254
0
LINE
8
Modules
10
-6.6918554842
20
-26.3604465063
11
-12.8461888972
21
-26.4223060177
62
254
0
LINE
8
Modules
10
-12.8461888972
20
-26.4223060177
11
-12.8088278983
21
-30.1393099778
62
254
0
LINE
8
Modules
10
-12.8088278983
20
-30.1393099778
11
-6.6544944853
21
-30.0774504663
62
254
0
LINE
8
Modules
10
-6.6544944853
20
-30.0774504663
11
-6.6918554842
21
-26.3604465063
62
254
0
LINE
8
Modules
10
-6.6539617785
20
-30.1185751046
11
-12.8082951916
21
-30.1804346161
62
254
0
LINE
8
Modules
10
-12.8082951916
20
-30.1804346161
11
-12.7709341926
21
-33.8974385761
62
254
0
LINE
8
Modules
10
-12.7709341926
20
-33.8974385761
11
-6.6166007796
21
-33.8355790647
62
254
0
LINE
8
Modules
10
-6.6166007796
20
-33.8355790647
11
-6.6539617785
21
-30.1185751046
62
254
0
LINE
8
Modules
10
-6.6160680728
20
-33.8767037030
11
-12.7704014859
21
-33.9385632144
62
254
0
LINE
8
Modules
10
-12.7704014859
20
-33.9385632144
11
-12.7330404869
21
-37.6555671745
62
254
0
LINE
8
Modules
10
-12.7330404869
20
-37.6555671745
11
-6.5787070739
21
-37.5937076630
62
254
0
LINE
8
Modules
10
-6.5787070739
20
-37.5937076630
11
-6.6160680728
21
-33.8767037030
62
254
0
LINE
8
Modules
10
-0.9261825797
20
14.6940953588
11
-7.0805159928
21
14.6322358474
62
254
0
LINE
8
Modules
10
-7.0805159928
20
14.6322358474
11
-7.0431549938
21
10.9152318873
62
254
0
LINE
8
Modules
10
-7.0431549938
20
10.9152318873
11
-0.8888215808
21
10.9770913988
62
254
0
LINE
8
Modules
10
-0.8888215808
20
10.9770913988
11
-0.9261825797
21
14.6940953588
62
254
0
LINE
8
Modules
10
-0.8882888740
20
10.9323145458
11
-7.0426222871
21
10.8704550343
62
254
0
LINE
8
Modules
10
-7.0426222871
20
10.8704550343
11
-7.0052612881
21
7.1534510743
62
254
0
LINE
8
Modules
10
-7.0052612881
20
7.1534510743
11
-0.8509278751
21
7.2153105857
62
254
0
LINE
8
Modules
10
-0.8509278751
20
7.2153105857
11
-0.8882888740
21
10.9323145458
62
254
0
LINE
8
Modules
10
-0.8503951725
20
7.1741859474
11
-7.0047285855
21
7.1123264360
62
254
0
LINE
8
Modules
10
-7.0047285855
20
7.1123264360
11
-6.9673675866
21
3.3953224759
62
254
0
LINE
8
Modules
10
-6.9673675866
20
3.3953224759
11
-0.8130341736
21
3.4571819874
62
254
0
LINE
8
Modules
10
-0.8130341736
20
3.4571819874
11
-0.8503951725
21
7.1741859474
62
254
0
LINE
8
Modules
10
-0.8125014668
20
3.4160573491
11
-6.9668348798
21
3.3541978376
62
254
0
LINE
8
Modules
10
-6.9668348798
20
3.3541978376
11
-6.9294738809
21
-0.3628061224
62
254
0
LINE
8
Modules
10
-6.9294738809
20
-0.3628061224
11
-0.7751404679
21
-0.3009466110
62
254
0
LINE
8
Modules
10
-0.7751404679
20
-0.3009466110
11
-0.8125014668
21
3.4160573491
62
254
0
LINE
8
Modules
10
-0.5763945371
20
-18.7821016651
11
-6.7307279501
21
-18.8439611766
62
254
0
LINE
8
Modules
10
-6.7307279501
20
-18.8439611766
11
-6.6933669512
21
-22.5609651366
62
254
0
LINE
8
Modules
10
-6.6933669512
20
-22.5609651366
11
-0.5390335381
21
-22.4991056252
62
254
0
LINE
8
Modules
10
-0.5390335381
20
-22.4991056252
11
-0.5763945371
21
-18.7821016651
62
254
0
LINE
8
Modules
10
-0.5385008314
20
-22.5402302635
11
-6.6928342444
21
-22.6020897749
62
254
0
LINE
8
Modules
10
-6.6928342444
20
-22.6020897749
11
-6.6554732455
21
-26.3190937350
62
254
0
LINE
8
Modules
10
-6.6554732455
20
-26.3190937350
11
-0.5011398325
21
-26.2572342235
62
254
0
LINE
8
Modules
10
-0.5011398325
20
-26.2572342235
11
-0.5385008314
21
-22.5402302635
62
254
0
LINE
8
Modules
10
-0.5006071299
20
-26.2983588618
11
-6.6549405429
21
-26.3602183733
62
254
0
LINE
8
Modules
10
-6.6549405429
20
-26.3602183733
11
-6.6175795439
21
-30.0772223333
62
254
0
LINE
8
Modules
10
-6.6175795439
20
-30.0772223333
11
-0.4632461309
21
-30.0153628219
62
254
0
LINE
8
Modules
10
-0.4632461309
20
-30.0153628219
11
-0.5006071299
21
-26.2983588618
62
254
0
LINE
8
Modules
10
-0.4627134242
20
-30.0564874602
11
-6.6170468372
21
-30.1183469717
62
254
0
LINE
8
Modules
10
-6.6170468372
20
-30.1183469717
11
-6.5796858382
21
-33.8353509317
62
254
0
LINE
8
Modules
10
-6.5796858382
20
-33.8353509317
11
-0.4253524252
21
-33.7734914203
62
254
0
LINE
8
Modules
10
-0.4253524252
20
-33.7734914203
11
-0.4627134242
21
-30.0564874602
62
254
0
LINE
8
Modules
10
-0.4248197185
20
-33.8146160586
11
-6.5791531315
21
-33.8764755700
62
254
0
LINE
8
Modules
10
-6.5791531315
20
-33.8764755700
11
-6.5417921326
21
-37.5934795301
62
254
0
LINE
8
Modules
10
-6.5417921326
20
-37.5934795301
11
-0.3874587195
21
-37.5316200186
62
254
0
LINE
8
Modules
10
-0.3874587195
20
-37.5316200186
11
-0.4248197185
21
-33.8146160586
62
254
0
LINE
8
Modules
10
5.2679806773
20
14.7561830033
11
-0.8863527357
21
14.6943234918
62
254
0
LINE
8
Modules
10
-0.8863527357
20
14.6943234918
11
-0.8489917368
21
10.9773195318
62
254
0
LINE
8
Modules
10
-0.8489917368
20
10.9773195318
11
5.3053416762
21
11.0391790432
62
254
0
LINE
8
Modules
10
5.3053416762
20
11.0391790432
11
5.2679806773
21
14.7561830033
62
254
0
LINE
8
Modules
10
5.3058743788
20
10.9944021902
11
-0.8484590342
21
10.9325426788
62
254
0
LINE
8
Modules
10
-0.8484590342
20
10.9325426788
11
-0.8110980352
21
7.2155387187
62
254
0
LINE
8
Modules
10
-0.8110980352
20
7.2155387187
11
5.3432353778
21
7.2773982302
62
254
0
LINE
8
Modules
10
5.3432353778
20
7.2773982302
11
5.3058743788
21
10.9944021902
62
254
0
LINE
8
Modules
10
5.3437680845
20
7.2362735919
11
-0.8105653285
21
7.1744140804
62
254
0
LINE
8
Modules
10
-0.8105653285
20
7.1744140804
11
-0.7732043295
21
3.4574101204
62
254
0
LINE
8
Modules
10
-0.7732043295
20
3.4574101204
11
5.3811290835
21
3.5192696318
62
254
0
LINE
8
Modules
10
5.3811290835
20
3.5192696318
11
5.3437680845
21
7.2362735919
62
254
0
LINE
8
Modules
10
5.3816617902
20
3.4781449935
11
-0.7726716228
21
3.4162854821
62
254
0
LINE
8
Modules
10
-0.7726716228
20
3.4162854821
11
-0.7353106239
21
-0.3007184780
62
254
0
LINE
8
Modules
10
-0.7353106239
20
-0.3007184780
11
5.4190227892
21
-0.2388589665
62
254
0
LINE
8
Modules
10
5.4190227892
20
-0.2388589665
11
5.3816617902
21
3.4781449935
62
254
0
LINE
8
Modules
10
5.4166405932
20
-0.2799836074
11
-0.7376928198
21
-0.3418431189
62
254
0
LINE
8
Modules
10
-0.7376928198
20
-0.3418431189
11
-0.7003318208
21
-4.0588470789
62
254
0
LINE
8
Modules
10
-0.7003318208
20
-4.0588470789
11
5.4540015922
21
-3.9969875675
62
254
0
LINE
8
Modules
10
5.4540015922
20
-3.9969875675
11
5.4166405932
21
-0.2799836074
62
254
0
LINE
8
Modules
10
5.5769601116
20
-14.9582332077
11
-0.5773733014
21
-15.0200927191
62
254
0
LINE
8
Modules
10
-0.5773733014
20
-15.0200927191
11
-0.5400123025
21
-18.7370966792
62
254
0
LINE
8
Modules
10
-0.5400123025
20
-18.7370966792
11
5.6143211105
21
-18.6752371677
62
254
0
LINE
8
Modules
10
5.6143211105
20
-18.6752371677
11
5.5769601116
21
-14.9582332077
62
254
0
LINE
8
Modules
10
5.6148538173
20
-18.7163618060
11
-0.5394795958
21
-18.7782213175
62
254
0
LINE
8
Modules
10
-0.5394795958
20
-18.7782213175
11
-0.5021185968
21
-22.4952252775
62
254
0
LINE
8
Modules
10
-0.5021185968
20
-22.4952252775
11
5.6522148162
21
-22.4333657661
62
254
0
LINE
8
Modules
10
5.6522148162
20
-22.4333657661
11
5.6148538173
21
-18.7163618060
62
254
0
LINE
8
Modules
10
5.6527475230
20
-22.4781426191
11
-0.5015858901
21
-22.5400021305
62
254
0
LINE
8
Modules
10
-0.5015858901
20
-22.5400021305
11
-0.4642248911
21
-26.2570060906
62
254
0
LINE
8
Modules
10
-0.4642248911
20
-26.2570060906
11
5.6901085219
21
-26.1951465791
62
254
0
LINE
8
Modules
10
5.6901085219
20
-26.1951465791
11
5.6527475230
21
-22.4781426191
62
254
0
LINE
8
Modules
10
5.6906412286
20
-26.2362712174
11
-0.4636921844
21
-26.2981307289
62
254
0
LINE
8
Modules
10
-0.4636921844
20
-26.2981307289
11
-0.4263311854
21
-30.0151346889
62
254
0
LINE
8
Modules
10
-0.4263311854
20
-30.0151346889
11
5.7280022276
21
-29.9532751775
62
254
0
LINE
8
Modules
10
5.7280022276
20
-29.9532751775
11
5.6906412286
21
-26.2362712174
62
254
0
LINE
8
Modules
10
5.7285349302
20
-29.9943998158
11
-0.4257984828
21
-30.0562593272
62
254
0
LINE
8
Modules
10
-0.4257984828
20
-30.0562593272
11
-0.3884374839
21
-33.7732632873
62
254
0
LINE
8
Modules
10
-0.3884374839
20
-33.7732632873
11
5.7658959291
21
-33.7114037758
62
254
0
LINE
8
Modules
10
5.7658959291
20
-33.7114037758
11
5.7285349302
21
-29.9943998158
62
254
0
LINE
8
Modules
10
5.7664286359
20
-33.7525284141
11
-0.3879047771
21
-33.8143879256
62
254
0
LINE
8
Modules
10
-0.3879047771
20
-33.8143879256
11
-0.3505437782
21
-37.5313918856
62
254
0
LINE
8
Modules
10
-0.3505437782
20
-37.5313918856
11
5.8037896348
21
-37.4695323742
62
254
0
LINE
8
Modules
10
5.8037896348
20
-37.4695323742
11
5.7664286359
21
-33.7525284141
62
254
0
LINE
8
Modules
10
5.8043223416
20
-37.5106570151
11
-0.3500110714
21
-37.5725165265
62
254
0
LINE
8
Modules
10
-0.3500110714
20
-37.5725165265
11
-0.3126500725
21
-41.2895204866
62
254
0
LINE
8
Modules
10
-0.3126500725
20
-41.2895204866
11
5.8416833405
21
-41.2276609751
62
254
0
LINE
8
Modules
10
5.8416833405
20
-41.2276609751
11
5.8043223416
21
-37.5106570151
62
254
0
LINE
8
Modules
10
21.6423793030
20
-37.4583476008
11
27.7967129212
21
-37.3964880872
62
254
0
LINE
8
Modules
10
27.7967129212
20
-37.3964880872
11
27.7593519222
21
-33.6794841272
62
254
0
LINE
8
Modules
10
27.7593519222
20
-33.6794841272
11
21.6050183040
21
-33.7413436407
62
254
0
LINE
8
Modules
10
21.6050183040
20
-33.7413436407
11
21.6423793030
21
-37.4583476008
62
254
0
LINE
8
Modules
10
21.6044856014
20
-33.6965667877
11
27.7588192196
21
-33.6347072742
62
254
0
LINE
8
Modules
10
27.7588192196
20
-33.6347072742
11
27.7214582207
21
-29.9177033142
62
254
0
LINE
8
Modules
10
27.7214582207
20
-29.9177033142
11
21.5671246025
21
-29.9795628277
62
254
0
LINE
8
Modules
10
21.5671246025
20
-29.9795628277
11
21.6044856014
21
-33.6965667877
62
254
0
LINE
8
Modules
10
21.5665918957
20
-29.9384381868
11
27.7209255140
21
-29.8765786733
62
254
0
LINE
8
Modules
10
27.7209255140
20
-29.8765786733
11
27.6835645150
21
-26.1595747132
62
254
0
LINE
8
Modules
10
27.6835645150
20
-26.1595747132
11
21.5292308968
21
-26.2214342267
62
254
0
LINE
8
Modules
10
21.5292308968
20
-26.2214342267
11
21.5665918957
21
-29.9384381868
62
254
0
LINE
8
Modules
10
21.5286981901
20
-26.1803095884
11
27.6830318083
21
-26.1184500749
62
254
0
LINE
8
Modules
10
27.6830318083
20
-26.1184500749
11
27.6456708093
21
-22.4014461149
62
254
0
LINE
8
Modules
10
27.6456708093
20
-22.4014461149
11
21.4913371911
21
-22.4633056284
62
254
0
LINE
8
Modules
10
21.4913371911
20
-22.4633056284
11
21.5286981901
21
-26.1803095884
62
254
0
LINE
8
Modules
10
21.2226336543
20
3.7970660564
11
27.3769672725
21
3.8589255699
62
254
0
LINE
8
Modules
10
27.3769672725
20
3.8589255699
11
27.3396062736
21
7.5759295300
62
254
0
LINE
8
Modules
10
27.3396062736
20
7.5759295300
11
21.1852726553
21
7.5140700164
62
254
0
LINE
8
Modules
10
21.1852726553
20
7.5140700164
11
21.2226336543
21
3.7970660564
62
254
0
LINE
8
Modules
10
21.1847399486
20
7.5588468694
11
27.3390735668
21
7.6207063829
62
254
0
LINE
8
Modules
10
27.3390735668
20
7.6207063829
11
27.3017125679
21
11.3377103430
62
254
0
LINE
8
Modules
10
27.3017125679
20
11.3377103430
11
21.1473789497
21
11.2758508295
62
254
0
LINE
8
Modules
10
21.1473789497
20
11.2758508295
11
21.1847399486
21
7.5588468694
62
254
0
LINE
8
Modules
10
21.1468462429
20
11.3169754678
11
27.3011798611
21
11.3788349813
62
254
0
LINE
8
Modules
10
27.3011798611
20
11.3788349813
11
27.2638188622
21
15.0958389413
62
254
0
LINE
8
Modules
10
27.2638188622
20
15.0958389413
11
21.1094852440
21
15.0339794278
62
254
0
LINE
8
Modules
10
21.1094852440
20
15.0339794278
11
21.1468462429
21
11.3169754678
62
254
0
LINE
8
Modules
10
21.1089525414
20
15.0751040661
11
27.2632861596
21
15.1369635797
62
254
0
LINE
8
Modules
10
27.2632861596
20
15.1369635797
11
27.2259251606
21
18.8539675397
62
254
0
LINE
8
Modules
10
27.2259251606
20
18.8539675397
11
21.0715915424
21
18.7921080262
62
254
0
LINE
8
Modules
10
21.0715915424
20
18.7921080262
11
21.1089525414
21
15.0751040661
62
254
0
LINE
8
Modules
10
21.0710588357
20
18.8332326671
11
27.2253924539
21
18.8950921806
62
254
0
LINE
8
Modules
10
27.2253924539
20
18.8950921806
11
27.1880314549
21
22.6120961406
62
254
0
LINE
8
Modules
10
27.1880314549
20
22.6120961406
11
21.0336978367
21
22.5502366271
62
254
0
LINE
8
Modules
10
21.0336978367
20
22.5502366271
11
21.0710588357
21
18.8332326671
62
254
0
LINE
8
Modules
10
21.0331651300
20
22.5913612654
11
27.1874987482
21
22.6532207790
62
254
0
LINE
8
Modules
10
27.1874987482
20
22.6532207790
11
27.1501377492
21
26.3702247390
62
254
0
LINE
8
Modules
10
27.1501377492
20
26.3702247390
11
20.9958041310
21
26.3083652255
62
254
0
LINE
8
Modules
10
20.9958041310
20
26.3083652255
11
21.0331651300
21
22.5913612654
62
254
0
LINE
8
Modules
10
20.9952714243
20
26.3494898638
11
27.1496050425
21
26.4113493773
62
254
0
LINE
8
Modules
10
27.1496050425
20
26.4113493773
11
27.1122440436
21
30.1283533374
62
254
0
LINE
8
Modules
10
27.1122440436
20
30.1283533374
11
20.9579104254
21
30.0664938238
62
254
0
LINE
8
Modules
10
20.9579104254
20
30.0664938238
11
20.9952714243
21
26.3494898638
62
254
0
LINE
8
Modules
10
5.2300870742
20
18.5143116026
11
-0.9242465440
21
18.4524520891
62
254
0
LINE
8
Modules
10
-0.9242465440
20
18.4524520891
11
-0.8868855451
21
14.7354481291
62
254
0
LINE
8
Modules
10
-0.8868855451
20
14.7354481291
11
5.2674480731
21
14.7973076426
62
254
0
LINE
8
Modules
10
5.2674480731
20
14.7973076426
11
5.2300870742
21
18.5143116026
62
254
0
LINE
8
Modules
10
15.4482160501
20
-37.5204352452
11
21.6025496683
21
-37.4585757317
62
254
0
LINE
8
Modules
10
21.6025496683
20
-37.4585757317
11
21.5651886693
21
-33.7415717716
62
254
0
LINE
8
Modules
10
21.5651886693
20
-33.7415717716
11
15.4108550511
21
-33.8034312852
62
254
0
LINE
8
Modules
10
15.4108550511
20
-33.8034312852
11
15.4482160501
21
-37.5204352452
62
254
0
LINE
8
Modules
10
15.4103223444
20
-33.7586544322
11
21.5646559626
21
-33.6967949186
62
254
0
LINE
8
Modules
10
21.5646559626
20
-33.6967949186
11
21.5272949637
21
-29.9797909586
62
254
0
LINE
8
Modules
10
21.5272949637
20
-29.9797909586
11
15.3729613455
21
-30.0416504721
62
254
0
LINE
8
Modules
10
15.3729613455
20
-30.0416504721
11
15.4103223444
21
-33.7586544322
62
254
0
LINE
8
Modules
10
15.3724286387
20
-30.0005258312
11
21.5267622569
21
-29.9386663177
62
254
0
LINE
8
Modules
10
21.5267622569
20
-29.9386663177
11
21.4894012580
21
-26.2216623576
62
254
0
LINE
8
Modules
10
21.4894012580
20
-26.2216623576
11
15.3350676398
21
-26.2835218712
62
254
0
LINE
8
Modules
10
15.3350676398
20
-26.2835218712
11
15.3724286387
21
-30.0005258312
62
254
0
LINE
8
Modules
10
15.3374498357
20
-26.2423972329
11
21.4917834539
21
-26.1805377193
62
254
0
LINE
8
Modules
10
21.4917834539
20
-26.1805377193
11
21.4544224549
21
-22.4635337593
62
254
0
LINE
8
Modules
10
21.4544224549
20
-22.4635337593
11
15.3000888367
21
-22.5253932728
62
254
0
LINE
8
Modules
10
15.3000888367
20
-22.5253932728
11
15.3374498357
21
-26.2423972329
62
254
0
LINE
8
Modules
10
15.2995561300
20
-22.4842686345
11
21.4538897482
21
-22.4224091210
62
254
0
LINE
8
Modules
10
21.4538897482
20
-22.4224091210
11
21.4165287493
21
-18.7054051609
62
254
0
LINE
8
Modules
10
21.4165287493
20
-18.7054051609
11
15.2621951311
21
-18.7672646745
62
254
0
LINE
8
Modules
10
15.2621951311
20
-18.7672646745
11
15.2995561300
21
-22.4842686345
62
254
0
LINE
8
Modules
10
15.0692790015
20
-0.0231501864
11
21.2236126197
21
0.0387093271
62
254
0
LINE
8
Modules
10
21.2236126197
20
0.0387093271
11
21.1862516207
21
3.7557132872
62
254
0
LINE
8
Modules
10
21.1862516207
20
3.7557132872
11
15.0319180025
21
3.6938537736
62
254
0
LINE
8
Modules
10
15.0319180025
20
3.6938537736
11
15.0692790015
21
-0.0231501864
62
254
0
LINE
8
Modules
10
15.0313852958
20
3.7349784120
11
21.1857189140
21
3.7968379255
62
254
0
LINE
8
Modules
10
21.1857189140
20
3.7968379255
11
21.1483579150
21
7.5138418855
62
254
0
LINE
8
Modules
10
21.1483579150
20
7.5138418855
11
14.9940242968
21
7.4519823720
62
254
0
LINE
8
Modules
10
14.9940242968
20
7.4519823720
11
15.0313852958
21
3.7349784120
62
254
0
LINE
8
Modules
10
14.9934915942
20
7.4967592250
11
21.1478252124
21
7.5586187385
62
254
0
LINE
8
Modules
10
21.1478252124
20
7.5586187385
11
21.1104642135
21
11.2756226986
62
254
0
LINE
8
Modules
10
21.1104642135
20
11.2756226986
11
14.9561305953
21
11.2137631850
62
254
0
LINE
8
Modules
10
14.9561305953
20
11.2137631850
11
14.9934915942
21
7.4967592250
62
254
0
LINE
8
Modules
10
14.9555978886
20
11.2548878233
11
21.1099315068
21
11.3167473369
62
254
0
LINE
8
Modules
10
21.1099315068
20
11.3167473369
11
21.0725705078
21
15.0337512969
62
254
0
LINE
8
Modules
10
21.0725705078
20
15.0337512969
11
14.9182368896
21
14.9718917834
62
254
0
LINE
8
Modules
10
14.9182368896
20
14.9718917834
11
14.9555978886
21
11.2548878233
62
254
0
LINE
8
Modules
10
14.9177041829
20
15.0130164217
11
21.0720378011
21
15.0748759352
62
254
0
LINE
8
Modules
10
21.0720378011
20
15.0748759352
11
21.0346768021
21
18.7918798953
62
254
0
LINE
8
Modules
10
21.0346768021
20
18.7918798953
11
14.8803431839
21
18.7300203817
62
254
0
LINE
8
Modules
10
14.8803431839
20
18.7300203817
11
14.9177041829
21
15.0130164217
62
254
0
LINE
8
Modules
10
8.7264558285
20
14.9509287773
11
14.8807894467
21
15.0127882908
62
254
0
LINE
8
Modules
10
14.8807894467
20
15.0127882908
11
14.8434284478
21
18.7297922508
62
254
0
LINE
8
Modules
10
14.8434284478
20
18.7297922508
11
8.6890948295
21
18.6679327373
62
254
0
LINE
8
Modules
10
8.6890948295
20
18.6679327373
11
8.7264558285
21
14.9509287773
62
254
0
LINE
8
Modules
10
-0.9611612802
20
18.4522239582
11
-7.1154948984
21
18.3903644447
62
254
0
LINE
8
Modules
10
-7.1154948984
20
18.3903644447
11
-7.0781338994
21
14.6733604846
62
254
0
LINE
8
Modules
10
-7.0781338994
20
14.6733604846
11
-0.9238002812
21
14.7352199982
62
254
0
LINE
8
Modules
10
-0.9238002812
20
14.7352199982
11
-0.9611612802
21
18.4522239582
62
254
0
LINE
8
Modules
10
9.2948613973
20
-41.3406514880
11
15.4491950155
21
-41.2787919745
62
254
0
LINE
8
Modules
10
15.4491950155
20
-41.2787919745
11
15.4118340165
21
-37.5617880144
62
254
0
LINE
8
Modules
10
15.4118340165
20
-37.5617880144
11
9.2575003983
21
-37.6236475279
62
254
0
LINE
8
Modules
10
9.2575003983
20
-37.6236475279
11
9.2948613973
21
-41.3406514880
62
254
0
LINE
8
Modules
10
9.2569676916
20
-37.5825228896
11
15.4113013098
21
-37.5206633761
62
254
0
LINE
8
Modules
10
15.4113013098
20
-37.5206633761
11
15.3739403108
21
-33.8036594161
62
254
0
LINE
8
Modules
10
15.3739403108
20
-33.8036594161
11
9.2196066926
21
-33.8655189296
62
254
0
LINE
8
Modules
10
9.2196066926
20
-33.8655189296
11
9.2569676916
21
-37.5825228896
62
254
0
LINE
8
Modules
10
9.2190739900
20
-33.8243942913
11
15.3734076082
21
-33.7625347778
62
254
0
LINE
8
Modules
10
15.3734076082
20
-33.7625347778
11
15.3360466093
21
-30.0455308177
62
254
0
LINE
8
Modules
10
15.3360466093
20
-30.0455308177
11
9.1817129911
21
-30.1073903312
62
254
0
LINE
8
Modules
10
9.1817129911
20
-30.1073903312
11
9.2190739900
21
-33.8243942913
62
254
0
LINE
8
Modules
10
9.1811802843
20
-30.0626134782
11
15.3355139026
21
-30.0007539647
62
254
0
LINE
8
Modules
10
15.3355139026
20
-30.0007539647
11
15.2981529036
21
-26.2837500047
62
254
0
LINE
8
Modules
10
15.2981529036
20
-26.2837500047
11
9.1438192854
21
-26.3456095182
62
254
0
LINE
8
Modules
10
9.1438192854
20
-26.3456095182
11
9.1811802843
21
-30.0626134782
62
254
0
LINE
8
Modules
10
9.1432865787
20
-26.3044848773
11
15.2976201969
21
-26.2426253638
62
254
0
LINE
8
Modules
10
15.2976201969
20
-26.2426253638
11
15.2602591979
21
-22.5256214037
62
254
0
LINE
8
Modules
10
15.2602591979
20
-22.5256214037
11
9.1059255797
21
-22.5874809172
62
254
0
LINE
8
Modules
10
9.1059255797
20
-22.5874809172
11
9.1432865787
21
-26.3044848773
62
254
0
LINE
8
Modules
10
9.1053928730
20
-22.5463562789
11
15.2597264912
21
-22.4844967654
62
254
0
LINE
8
Modules
10
15.2597264912
20
-22.4844967654
11
15.2223654922
21
-18.7674928054
62
254
0
LINE
8
Modules
10
15.2223654922
20
-18.7674928054
11
9.0680318740
21
-18.8293523189
62
254
0
LINE
8
Modules
10
9.0680318740
20
-18.8293523189
11
9.1053928730
21
-22.5463562789
62
254
0
LINE
8
Modules
10
9.0674991714
20
-18.7882276806
11
15.2218327896
21
-18.7263681671
62
254
0
LINE
8
Modules
10
15.2218327896
20
-18.7263681671
11
15.1844717907
21
-15.0093642070
62
254
0
LINE
8
Modules
10
15.1844717907
20
-15.0093642070
11
9.0301381725
21
-15.0712237205
62
254
0
LINE
8
Modules
10
9.0301381725
20
-15.0712237205
11
9.0674991714
21
-18.7882276806
62
254
0
LINE
8
Modules
10
8.9159243528
20
-3.8433664292
11
15.0702579710
21
-3.7815069157
62
254
0
LINE
8
Modules
10
15.0702579710
20
-3.7815069157
11
15.0328969721
21
-0.0645029556
62
254
0
LINE
8
Modules
10
15.0328969721
20
-0.0645029556
11
8.8785633539
21
-0.1263624691
62
254
0
LINE
8
Modules
10
8.8785633539
20
-0.1263624691
11
8.9159243528
21
-3.8433664292
62
254
0
LINE
8
Modules
10
8.8780306471
20
-0.0852378308
11
15.0323642653
21
-0.0233783173
62
254
0
LINE
8
Modules
10
15.0323642653
20
-0.0233783173
11
14.9950032664
21
3.6936256427
62
254
0
LINE
8
Modules
10
14.9950032664
20
3.6936256427
11
8.8406696482
21
3.6317661292
62
254
0
LINE
8
Modules
10
8.8406696482
20
3.6317661292
11
8.8780306471
21
-0.0852378308
62
254
0
LINE
8
Modules
10
8.8401369414
20
3.6728907675
11
14.9944705596
21
3.7347502810
62
254
0
LINE
8
Modules
10
14.9944705596
20
3.7347502810
11
14.9571095607
21
7.4517542411
62
254
0
LINE
8
Modules
10
14.9571095607
20
7.4517542411
11
8.8027759425
21
7.3898947276
62
254
0
LINE
8
Modules
10
8.8027759425
20
7.3898947276
11
8.8401369414
21
3.6728907675
62
254
0
LINE
8
Modules
10
8.8022432357
20
7.4346715806
11
14.9565768539
21
7.4965310941
62
254
0
LINE
8
Modules
10
14.9565768539
20
7.4965310941
11
14.9192158550
21
11.2135350541
62
254
0
LINE
8
Modules
10
14.9192158550
20
11.2135350541
11
8.7648822368
21
11.1516755406
62
254
0
LINE
8
Modules
10
8.7648822368
20
11.1516755406
11
8.8022432357
21
7.4346715806
62
254
0
LINE
8
Modules
10
8.7643495342
20
11.1928001789
11
14.9186831524
21
11.2546596924
62
254
0
LINE
8
Modules
10
14.9186831524
20
11.2546596924
11
14.8813221534
21
14.9716636525
62
254
0
LINE
8
Modules
10
14.8813221534
20
14.9716636525
11
8.7269885352
21
14.9098041390
62
254
0
LINE
8
Modules
10
8.7269885352
20
14.9098041390
11
8.7643495342
21
11.1928001789
62
254
0
LINE
8
Modules
10
-6.5781743713
20
-37.6348323039
11
-12.7325077843
21
-37.6966918154
62
254
0
LINE
8
Modules
10
-12.7325077843
20
-37.6966918154
11
-12.6951467854
21
-41.4136957754
62
254
0
LINE
8
Modules
10
-12.6951467854
20
-41.4136957754
11
-6.5408133723
21
-41.3518362640
62
254
0
LINE
8
Modules
10
-6.5408133723
20
-41.3518362640
11
-6.5781743713
21
-37.6348323039
62
254
0
LINE
8
Modules
10
-0.3869260128
20
-37.5727446595
11
-6.5412594258
21
-37.6346041710
62
254
0
LINE
8
Modules
10
-6.5412594258
20
-37.6346041710
11
-6.5038984269
21
-41.3516081310
62
254
0
LINE
8
Modules
10
-6.5038984269
20
-41.3516081310
11
-0.3495650138
21
-41.2897486196
62
254
0
LINE
8
Modules
10
-0.3495650138
20
-41.2897486196
11
-0.3869260128
21
-37.5727446595
62
254
0
LINE
8
Modules
10
21.6802731113
20
-41.2164761981
11
27.8346065243
21
-41.1546166866
62
254
0
LINE
8
Modules
10
27.8346065243
20
-41.1546166866
11
27.7972455253
21
-37.4376127266
62
254
0
LINE
8
Modules
10
27.7972455253
20
-37.4376127266
11
21.6429121123
21
-37.4994722380
62
254
0
LINE
8
Modules
10
21.6429121123
20
-37.4994722380
11
21.6802731113
21
-41.2164761981
62
254
0
LINE
8
Modules
10
15.4861098542
20
-41.2785638425
11
21.6404432673
21
-41.2167043311
62
254
0
LINE
8
Modules
10
21.6404432673
20
-41.2167043311
11
21.6030822683
21
-37.4997003710
62
254
0
LINE
8
Modules
10
21.6030822683
20
-37.4997003710
11
15.4487488553
21
-37.5615598825
62
254
0
LINE
8
Modules
10
15.4487488553
20
-37.5615598825
11
15.4861098542
21
-41.2785638425
62
254
0
LINE
8
Modules
10
9.0325204668
20
-15.0300990812
11
15.1868538799
21
-14.9682395697
62
254
0
LINE
8
Modules
10
15.1868538799
20
-14.9682395697
11
15.1494928809
21
-11.2512356097
62
254
0
LINE
8
Modules
10
15.1494928809
20
-11.2512356097
11
8.9951594679
21
-11.3130951211
62
254
0
LINE
8
Modules
10
8.9951594679
20
-11.3130951211
11
9.0325204668
21
-15.0300990812
62
254
0
LINE
8
Modules
10
5.5390664100
20
-11.2001046067
11
-0.6152670030
21
-11.2619641182
62
254
0
LINE
8
Modules
10
-0.6152670030
20
-11.2619641182
11
-0.5779060040
21
-14.9789680782
62
254
0
LINE
8
Modules
10
-0.5779060040
20
-14.9789680782
11
5.5764274090
21
-14.9171085668
62
254
0
LINE
8
Modules
10
5.5764274090
20
-14.9171085668
11
5.5390664100
21
-11.2001046067
62
254
0
LINE
8
Modules
10
5.4545342989
20
-4.0381122058
11
-0.6997991141
21
-4.0999717173
62
254
0
LINE
8
Modules
10
-0.6997991141
20
-4.0999717173
11
-0.6624381151
21
-7.8169756773
62
254
0
LINE
8
Modules
10
-0.6624381151
20
-7.8169756773
11
5.4918952979
21
-7.7551161658
62
254
0
LINE
8
Modules
10
5.4918952979
20
-7.7551161658
11
5.4545342989
21
-4.0381122058
62
254
0
LINE
8
Modules
10
8.9538181569
20
-7.6014950291
11
15.1081515700
21
-7.5396355177
62
254
0
LINE
8
Modules
10
15.1081515700
20
-7.5396355177
11
15.0707905710
21
-3.8226315576
62
254
0
LINE
8
Modules
10
15.0707905710
20
-3.8226315576
11
8.9164571580
21
-3.8844910691
62
254
0
LINE
8
Modules
10
8.9164571580
20
-3.8844910691
11
8.9538181569
21
-7.6014950291
62
254
0
LINE
8
Modules
10
20.9573778253
20
30.1112706779
11
27.1117112384
21
30.1731301893
62
254
0
LINE
8
Modules
10
27.1117112384
20
30.1731301893
11
27.0743502394
21
33.8901341494
62
254
0
LINE
8
Modules
10
27.0743502394
20
33.8901341494
11
20.9200168264
21
33.8282746379
62
254
0
LINE
8
Modules
10
20.9200168264
20
33.8282746379
11
20.9573778253
21
30.1112706779
62
254
0
LINE
8
Buildings
10
-6.6524463617
20
-41.6211754966
11
-6.6054565554
21
-46.2961391200
62
252
0
LINE
8
Buildings
10
-6.6054565554
20
-46.2961391200
11
7.6793499983
21
-46.1525571913
62
252
0
LINE
8
Buildings
10
7.6793499983
20
-46.1525571913
11
7.0261297163
21
18.8356028620
62
252
0
LINE
8
Buildings
10
7.0261297163
20
18.8356028620
11
3.9288182758
21
18.8199907752
62
252
0
LINE
8
Buildings
10
3.9288182758
20
18.8199907752
11
3.8917747628
21
26.1691234044
62
252
0
LINE
8
Buildings
10
3.8917747628
20
26.1691234044
11
6.9522627036
21
26.1845498813
62
252
0
LINE
8
Buildings
10
6.9522627036
20
26.1845498813
11
6.8395213317
21
37.4010637111
62
252
0
LINE
8
Buildings
10
6.8395213317
20
37.4010637111
11
-14.2860759446
21
37.1887224385
62
252
0
LINE
8
Buildings
10
-14.2860759446
20
37.1887224385
11
-13.4932370843
21
-41.6899348405
62
252
0
LINE
8
Buildings
10
-13.4932370843
20
-41.6899348405
11
-6.6524463617
21
-41.6211754966
62
252
0
LINE
8
Buildings
10
-13.4715960779
20
-9.8939552065
11
0.9766284696
21
-9.7487307024
62
252
0
LINE
8
Buildings
10
0.9766284696
20
-9.7487307024
11
-11.0207824586
21
-0.6518103036
62
252
0
LINE
8
Buildings
10
-11.0207824586
20
-0.6518103036
11
-13.5642353646
21
-0.6773754992
62
252
0
LINE
8
Buildings
10
-13.5642353646
20
-0.6773754992
11
-13.4715960779
21
-9.8939552065
62
252
0
LINE
8
Buildings
10
3.9288182758
20
18.8199907752
11
10.3815548776
21
18.8525159784
62
252
0
LINE
8
Buildings
10
10.3815548776
20
18.8525159784
11
7.1389239751
21
22.0626216777
62
252
0
LINE
8
Buildings
10
7.1389239751
20
22.0626216777
11
3.9288182758
21
18.8199907752
62
252
0
LINE
8
Buildings
10
7.1344056653
20
22.9590177051
11
7.1389239751
21
22.0626216777
62
252
0
LINE
8
Buildings
10
7.1389239751
20
22.0626216777
11
10.3815548776
21
18.8525159784
62
252
0
LINE
8
Buildings
10
10.3815548776
20
18.8525159784
11
10.3445113646
21
26.2016486076
62
252
0
LINE
8
Buildings
10
10.3445113646
20
26.2016486076
11
7.1344056653
21
22.9590177051
62
252
0
LINE
8
Buildings
10
10.3445113646
20
26.2016486076
11
3.8917747628
21
26.1691234044
62
252
0
LINE
8
Buildings
10
3.8917747628
20
26.1691234044
11
7.1344056653
21
22.9590177051
62
252
0
LINE
8
Buildings
10
7.1344056653
20
22.9590177051
11
10.3445113646
21
26.2016486076
62
252
0
LINE
8
Buildings
10
3.8917747628
20
26.1691234044
11
3.9288182758
21
18.8199907752
62
252
0
LINE
8
Buildings
10
3.9288182758
20
18.8199907752
11
7.1389239751
21
22.0626216777
62
252
0
LINE
8
Buildings
10
7.1389239751
20
22.0626216777
11
7.1344056653
21
22.9590177051
62
252
0
LINE
8
Buildings
10
7.1344056653
20
22.9590177051
11
3.8917747628
21
26.1691234044
62
252
0
LINE
8
Buildings
10
0.9766284696
20
-9.7487307024
11
-13.4715960779
21
-9.8939552065
62
252
0
LINE
8
Buildings
10
-13.4715960779
20
-9.8939552065
11
-13.3789567911
21
-19.1105349137
62
252
0
LINE
8
Buildings
10
-13.3789567911
20
-19.1105349137
11
-10.8355038851
21
-19.0849697181
62
252
0
LINE
8
Buildings
10
-10.8355038851
20
-19.0849697181
11
0.9766284696
21
-9.7487307024
62
252
0
LINE
8
Buildings
10
21.3761552373
20
-41.3394495480
11
28.7579574682
21
-41.2652522953
62
252
0
LINE
8
Buildings
10
28.7579574682
20
-41.2652522953
11
27.9651186079
21
37.6134049837
62
252
0
LINE
8
Buildings
10
27.9651186079
20
37.6134049837
11
6.8395213317
21
37.4010637111
62
252
0
LINE
8
Buildings
10
6.8395213317
20
37.4010637111
11
6.9522627036
21
26.1845498813
62
252
0
LINE
8
Buildings
10
6.9522627036
20
26.1845498813
11
10.3445113646
21
26.2016486076
62
252
0
LINE
8
Buildings
10
10.3445113646
20
26.2016486076
11
10.3815548776
21
18.8525159784
62
252
0
LINE
8
Buildings
10
10.3815548776
20
18.8525159784
11
7.0261297163
21
18.8356028620
62
252
0
LINE
8
Buildings
10
7.0261297163
20
18.8356028620
11
7.6793499983
21
-46.1525571913
62
252
0
LINE
8
Buildings
10
7.6793499983
20
-46.1525571913
11
21.4231450436
21
-46.0144131714
62
252
0
LINE
8
Buildings
10
21.4231450436
20
-46.0144131714
11
21.3761552373
21
-41.3394495480
62
252
0
LINE
8
Buildings
10
28.0783294526
20
-10.2195757529
11
13.6301049051
21
-10.3648002570
62
252
0
LINE
8
Buildings
10
13.6301049051
20
-10.3648002570
11
25.6275158333
21
-19.4617206558
62
252
0
LINE
8
Buildings
10
25.6275158333
20
-19.4617206558
11
28.1709687393
21
-19.4361554602
62
252
0
LINE
8
Buildings
10
28.1709687393
20
-19.4361554602
11
28.0783294526
21
-10.2195757529
62
252
0
LINE
8
Buildings
10
13.6301049051
20
-10.3648002570
11
28.0783294526
21
-10.2195757529
62
252
0
LINE
8
Buildings
10
28.0783294526
20
-10.2195757529
11
27.9856901658
21
-1.0029960457
62
252
0
LINE
8
Buildings
10
27.9856901658
20
-1.0029960457
11
25.4422372598
21
-1.0285612413
62
252
0
LINE
8
Buildings
10
25.4422372598
20
-1.0285612413
11
13.6301049051
21
-10.3648002570
62
252
0
LINE
8
Setbacks
10
-13.4906157712
20
-38.6864757854
11
-6.6826319423
21
-38.6180463490
62
2
0
LINE
8
Setbacks
10
-6.6826319423
20
-38.6180463490
11
-6.6820592286
21
-38.6180908846
62
2
0
LINE
8
Setbacks
10
-6.6820592286
20
-38.6180908846
11
-5.8516986377
21
-38.7565823589
62
2
0
LINE
8
Setbacks
10
-5.8516986377
20
-38.7565823589
11
-5.8511548419
21
-38.7567217469
62
2
0
LINE
8
Setbacks
10
-5.8511548419
20
-38.7567217469
11
-5.8506427696
21
-38.7569518008
62
2
0
LINE
8
Setbacks
10
-5.8506427696
20
-38.7569518008
11
-5.0986122337
21
-39.1755328509
62
2
0
LINE
8
Setbacks
10
-5.0986122337
20
-39.1755328509
11
-5.0981716852
21
-39.1758270036
62
2
0
LINE
8
Setbacks
10
-5.0981716852
20
-39.1758270036
11
-5.0977842180
21
-39.1761882210
62
2
0
LINE
8
Setbacks
10
-5.0977842180
20
-39.1761882210
11
-4.4976975846
21
-39.8338854205
62
2
0
LINE
8
Setbacks
10
-4.4976975846
20
-39.8338854205
11
-4.4973924473
21
-39.8342752694
62
2
0
LINE
8
Setbacks
10
-4.4973924473
20
-39.8342752694
11
-4.4971494429
21
-39.8347065927
62
2
0
LINE
8
Setbacks
10
-4.4971494429
20
-39.8347065927
11
-4.1077475276
21
-40.6671396902
62
2
0
LINE
8
Setbacks
10
-4.1077475276
20
-40.6671396902
11
-4.1074756534
21
-40.6680371762
62
2
0
LINE
8
Setbacks
10
-4.1074756534
20
-40.6680371762
11
-3.9668755833
21
-41.5937219171
62
2
0
LINE
8
Setbacks
10
-3.9668755833
20
-41.5937219171
11
-3.9668663356
21
-41.5946419548
62
2
0
LINE
8
Setbacks
10
-3.9668663356
20
-41.5946419548
11
-4.0888309065
21
-42.5229654753
62
2
0
LINE
8
Setbacks
10
-4.0888309065
20
-42.5229654753
11
-4.0890846860
21
-42.5238682460
62
2
0
LINE
8
Setbacks
10
-4.0890846860
20
-42.5238682460
11
-4.4203326275
21
-43.2707429417
62
2
0
LINE
8
Setbacks
10
-4.4203326275
20
-43.2707429417
11
6.3047200169
21
-43.1629416744
62
2
0
LINE
8
Setbacks
10
6.3047200169
20
-43.1629416744
11
5.7118035002
21
15.8256665086
62
2
0
LINE
8
Setbacks
10
5.7118035002
20
15.8256665086
11
3.9469697471
21
15.8167708890
62
2
0
LINE
8
Setbacks
10
3.9469697471
20
15.8167708890
11
3.9463973649
21
15.8168182763
62
2
0
LINE
8
Setbacks
10
3.9463973649
20
15.8168182763
11
3.1165915640
21
15.9594675591
62
2
0
LINE
8
Setbacks
10
3.1165915640
20
15.9594675591
11
3.1160488046
21
15.9596095338
62
2
0
LINE
8
Setbacks
10
3.1160488046
20
15.9596095338
11
3.1155381691
21
15.9598419044
62
2
0
LINE
8
Setbacks
10
3.1155381691
20
15.9598419044
11
2.3651844706
21
16.3821824691
62
2
0
LINE
8
Setbacks
10
2.3651844706
20
16.3821824691
11
2.3647457278
21
16.3824783969
62
2
0
LINE
8
Setbacks
10
2.3647457278
20
16.3824783969
11
2.3643602718
21
16.3828410155
62
2
0
LINE
8
Setbacks
10
2.3643602718
20
16.3828410155
11
1.7669084811
21
17.0435316534
62
2
0
LINE
8
Setbacks
10
1.7669084811
20
17.0435316534
11
1.7666053289
21
17.0439224823
62
2
0
LINE
8
Setbacks
10
1.7666053289
20
17.0439224823
11
1.7663643756
21
17.0443544429
62
2
0
LINE
8
Setbacks
10
1.7663643756
20
17.0443544429
11
1.3802971060
21
17.8787215956
62
2
0
LINE
8
Setbacks
10
1.3802971060
20
17.8787215956
11
1.3800290556
21
17.8796197169
62
2
0
LINE
8
Setbacks
10
1.3800290556
20
17.8796197169
11
1.2431373189
21
18.8059901534
62
2
0
LINE
8
Setbacks
10
1.2431373189
20
18.8059901534
11
1.2431317752
21
18.8069102253
62
2
0
LINE
8
Setbacks
10
1.2431317752
20
18.8069102253
11
1.3688155062
21
19.7346041527
62
2
0
LINE
8
Setbacks
10
1.3688155062
20
19.7346041527
11
1.3690731249
21
19.7355063541
62
2
0
LINE
8
Setbacks
10
1.3690731249
20
19.7355063541
11
1.7450295018
21
20.5737147143
62
2
0
LINE
8
Setbacks
10
1.7450295018
20
20.5737147143
11
1.7452658519
21
20.5741502297
62
2
0
LINE
8
Setbacks
10
1.7452658519
20
20.5741502297
11
1.7455650957
21
20.5745451831
62
2
0
LINE
8
Setbacks
10
1.7455650957
20
20.5745451831
11
2.3349929360
21
21.2412184328
62
2
0
LINE
8
Setbacks
10
2.3349929360
20
21.2412184328
11
2.3353750998
21
21.2415859922
62
2
0
LINE
8
Setbacks
10
2.3353750998
20
21.2415859922
11
2.3358114816
21
21.2418871897
62
2
0
LINE
8
Setbacks
10
2.3358114816
20
21.2418871897
11
2.5713920916
21
21.3777848451
62
2
0
LINE
8
Setbacks
10
2.5713920916
20
21.3777848451
11
2.5601875578
21
23.6007067161
62
2
0
LINE
8
Setbacks
10
2.5601875578
20
23.6007067161
11
2.3281408361
21
23.7313152492
62
2
0
LINE
8
Setbacks
10
2.3281408361
20
23.7313152492
11
2.3277020925
21
23.7316111771
62
2
0
LINE
8
Setbacks
10
2.3277020925
20
23.7316111771
11
2.3273166360
21
23.7319737960
62
2
0
LINE
8
Setbacks
10
2.3273166360
20
23.7319737960
11
1.7298648453
21
24.3926641058
62
2
0
LINE
8
Setbacks
10
1.7298648453
20
24.3926641058
11
1.7295616926
21
24.3930549352
62
2
0
LINE
8
Setbacks
10
1.7295616926
20
24.3930549352
11
1.7293207390
21
24.3934868964
62
2
0
LINE
8
Setbacks
10
1.7293207390
20
24.3934868964
11
1.3432534694
21
25.2278543772
62
2
0
LINE
8
Setbacks
10
1.3432534694
20
25.2278543772
11
1.3429854192
21
25.2287524980
62
2
0
LINE
8
Setbacks
10
1.3429854192
20
25.2287524980
11
1.2060936826
21
26.1551229345
62
2
0
LINE
8
Setbacks
10
1.2060936826
20
26.1551229345
11
1.2060881388
21
26.1560430064
62
2
0
LINE
8
Setbacks
10
1.2060881388
20
26.1560430064
11
1.3317718699
21
27.0837369338
62
2
0
LINE
8
Setbacks
10
1.3317718699
20
27.0837369338
11
1.3320294886
21
27.0846391352
62
2
0
LINE
8
Setbacks
10
1.3320294886
20
27.0846391352
11
1.7079858654
21
27.9228474954
62
2
0
LINE
8
Setbacks
10
1.7079858654
20
27.9228474954
11
1.7082222158
21
27.9232830111
62
2
0
LINE
8
Setbacks
10
1.7082222158
20
27.9232830111
11
1.7085214598
21
27.9236779648
62
2
0
LINE
8
Setbacks
10
1.7085214598
20
27.9236779648
11
2.2979493002
21
28.5903508864
62
2
0
LINE
8
Setbacks
10
2.2979493002
20
28.5903508864
11
2.2983314637
21
28.5907184455
62
2
0
LINE
8
Setbacks
10
2.2983314637
20
28.5907184455
11
2.2987678453
21
28.5910196427
62
2
0
LINE
8
Setbacks
10
2.2987678453
20
28.5910196427
11
3.0439699688
21
29.0208989216
62
2
0
LINE
8
Setbacks
10
3.0439699688
20
29.0208989216
11
3.0444787834
21
29.0211369224
62
2
0
LINE
8
Setbacks
10
3.0444787834
20
29.0211369224
11
3.0450207398
21
29.0212846384
62
2
0
LINE
8
Setbacks
10
3.0450207398
20
29.0212846384
11
3.8730512781
21
29.1722902206
62
2
0
LINE
8
Setbacks
10
3.8730512781
20
29.1722902206
11
3.8736233509
21
29.1723434115
62
2
0
LINE
8
Setbacks
10
3.8736233509
20
29.1723434115
11
5.5775646444
21
29.1809321069
62
2
0
LINE
8
Setbacks
10
5.5775646444
20
29.1809321069
11
5.5252626484
21
34.3844207186
62
2
0
LINE
8
Setbacks
10
5.5252626484
20
34.3844207186
11
-14.2230836037
21
34.1859228761
62
2
0
LINE
8
Setbacks
10
-13.3487712575
20
-22.1136642558
11
-13.3493439727
21
-22.1136197200
62
2
0
LINE
8
Setbacks
10
-13.3493439727
20
-22.1136197200
11
-13.6577127239
21
-22.0621883965
62
2
0
LINE
8
Setbacks
10
-13.9022653688
20
2.2680784709
11
-13.5949925811
21
2.3256978070
62
2
0
LINE
8
Setbacks
10
-13.5949925811
20
2.3256978070
11
-13.5944208772
21
2.3257538457
62
2
0
LINE
8
Setbacks
10
-13.5944208772
20
2.3257538457
11
-11.0509680399
21
2.3513188072
62
2
0
LINE
8
Setbacks
10
-11.0509680399
20
2.3513188072
11
-11.0503953264
21
2.3512742715
62
2
0
LINE
8
Setbacks
10
-11.0503953264
20
2.3512742715
11
-10.2200347355
21
2.2127827973
62
2
0
LINE
8
Setbacks
10
-10.2200347355
20
2.2127827973
11
-10.2194909397
21
2.2126434093
62
2
0
LINE
8
Setbacks
10
-10.2194909397
20
2.2126434093
11
-10.2189788674
21
2.2124133554
62
2
0
LINE
8
Setbacks
10
-10.2189788674
20
2.2124133554
11
-9.4669483315
21
1.7938323053
62
2
0
LINE
8
Setbacks
10
-9.4669483315
20
1.7938323053
11
-9.4665077830
21
1.7935381526
62
2
0
LINE
8
Setbacks
10
-9.4665077830
20
1.7935381526
11
-9.4661203158
21
1.7931769352
62
2
0
LINE
8
Setbacks
10
-9.4661203158
20
1.7931769352
11
-8.8660336824
21
1.1354797357
62
2
0
LINE
8
Setbacks
10
-8.8660336824
20
1.1354797357
11
-8.8657285451
21
1.1350898868
62
2
0
LINE
8
Setbacks
10
-8.8657285451
20
1.1350898868
11
-8.8654855407
21
1.1346585635
62
2
0
LINE
8
Setbacks
10
-8.8654855407
20
1.1346585635
11
-8.4760836254
21
0.3022254660
62
2
0
LINE
8
Setbacks
10
-8.4760836254
20
0.3022254660
11
-8.4758117513
21
0.3013279802
62
2
0
LINE
8
Setbacks
10
-8.4758117513
20
0.3013279802
11
-8.3352116811
21
-0.6243564326
62
2
0
LINE
8
Setbacks
10
-8.3352116811
20
-0.6243564326
11
-8.3352024335
21
-0.6252764714
62
2
0
LINE
8
Setbacks
10
-8.3352024335
20
-0.6252764714
11
-8.3648796539
21
-0.8511617876
62
2
0
LINE
8
Setbacks
10
-8.3648796539
20
-0.8511617876
11
1.7295731986
21
-8.5051825648
62
2
0
LINE
8
Setbacks
10
1.7295731986
20
-8.5051825648
11
1.7299636629
21
-8.5055310112
62
2
0
LINE
8
Setbacks
10
1.7299636629
20
-8.5055310112
11
1.7522119174
21
-8.5288287087
62
2
0
LINE
8
Setbacks
10
1.7522119174
20
-8.5288287087
11
1.7791649203
21
-8.5446973211
62
2
0
LINE
8
Setbacks
10
1.7791649203
20
-8.5446973211
11
1.7795962067
21
-8.5450003801
62
2
0
LINE
8
Setbacks
10
1.7795962067
20
-8.5450003801
11
1.7799733928
21
-8.5453685964
62
2
0
LINE
8
Setbacks
10
1.7799733928
20
-8.5453685964
11
1.9054343488
21
-8.6892797122
62
2
0
LINE
8
Setbacks
10
1.9054343488
20
-8.6892797122
11
2.0366218156
21
-8.8266560282
62
2
0
LINE
8
Setbacks
10
2.0366218156
20
-8.8266560282
11
2.0369370614
21
-8.8270407348
62
2
0
LINE
8
Setbacks
10
2.0369370614
20
-8.8270407348
11
2.0371905314
21
-8.8274686741
62
2
0
LINE
8
Setbacks
10
2.0371905314
20
-8.8274686741
11
2.0519477830
21
-8.8573391912
62
2
0
LINE
8
Setbacks
10
2.0519477830
20
-8.8573391912
11
2.0732460390
21
-8.8817695247
62
2
0
LINE
8
Setbacks
10
2.0732460390
20
-8.8817695247
11
2.0735410712
21
-8.8821642682
62
2
0
LINE
8
Setbacks
10
2.0735410712
20
-8.8821642682
11
2.0737736480
21
-8.8825987499
62
2
0
LINE
8
Setbacks
10
2.0737736480
20
-8.8825987499
11
2.1534189709
21
-9.0627294491
62
2
0
LINE
8
Setbacks
10
2.1534189709
20
-9.0627294491
11
2.2403211171
21
-9.2386307643
62
2
0
LINE
8
Setbacks
10
2.2403211171
20
-9.2386307643
11
2.2406125157
21
-9.2395248630
62
2
0
LINE
8
Setbacks
10
2.2406125157
20
-9.2395248630
11
2.2464091496
21
-9.2730427526
62
2
0
LINE
8
Setbacks
10
2.2464091496
20
-9.2730427526
11
2.2599435983
21
-9.3036528903
62
2
0
LINE
8
Setbacks
10
2.2599435983
20
-9.3036528903
11
2.2601960355
21
-9.3045535092
62
2
0
LINE
8
Setbacks
10
2.2601960355
20
-9.3045535092
11
2.2862263411
21
-9.5032722479
62
2
0
LINE
8
Setbacks
10
2.2862263411
20
-9.5032722479
11
2.3203320043
21
-9.7004769650
62
2
0
LINE
8
Setbacks
10
2.3203320043
20
-9.7004769650
11
2.3203601144
21
-9.7013967070
62
2
0
LINE
8
Setbacks
10
2.3203601144
20
-9.7013967070
11
2.3166149570
21
-9.7352613880
62
2
0
LINE
8
Setbacks
10
2.3166149570
20
-9.7352613880
11
2.3210401987
21
-9.7690450031
62
2
0
LINE
8
Setbacks
10
2.3210401987
20
-9.7690450031
11
2.3210305818
21
-9.7699651231
62
2
0
LINE
8
Setbacks
10
2.3210305818
20
-9.7699651231
11
2.2908953688
21
-9.9678185739
62
2
0
LINE
8
Setbacks
10
2.2908953688
20
-9.9678185739
11
2.2688650331
21
-10.1670174660
62
2
0
LINE
8
Setbacks
10
2.2688650331
20
-10.1670174660
11
2.2686307554
21
-10.1679229643
62
2
0
LINE
8
Setbacks
10
2.2686307554
20
-10.1679229643
11
2.2557144950
21
-10.1987989339
62
2
0
LINE
8
Setbacks
10
2.2557144950
20
-10.1987989339
11
2.2505925870
21
-10.2324267548
62
2
0
LINE
8
Setbacks
10
2.2505925870
20
-10.2324267548
11
2.2503192201
21
-10.2333265190
62
2
0
LINE
8
Setbacks
10
2.2503192201
20
-10.2333265190
11
2.1669702724
21
-10.4109388374
62
2
0
LINE
8
Setbacks
10
2.1669702724
20
-10.4109388374
11
2.0909617844
21
-10.5926342687
62
2
0
LINE
8
Setbacks
10
2.0909617844
20
-10.5926342687
11
2.0907379898
21
-10.5930733350
62
2
0
LINE
8
Setbacks
10
2.0907379898
20
-10.5930733350
11
2.0904509544
21
-10.5934739270
62
2
0
LINE
8
Setbacks
10
2.0904509544
20
-10.5934739270
11
2.0696478256
21
-10.6183278387
62
2
0
LINE
8
Setbacks
10
2.0696478256
20
-10.6183278387
11
2.0554940803
21
-10.6484886107
62
2
0
LINE
8
Setbacks
10
2.0554940803
20
-10.6484886107
11
2.0552492648
21
-10.6489215553
62
2
0
LINE
8
Setbacks
10
2.0552492648
20
-10.6489215553
11
2.0549418177
21
-10.6493125181
62
2
0
LINE
8
Setbacks
10
2.0549418177
20
-10.6493125181
11
1.9265432842
21
-10.7892970652
62
2
0
LINE
8
Setbacks
10
1.9265432842
20
-10.7892970652
11
1.8039994974
21
-10.9357019614
62
2
0
LINE
8
Setbacks
10
1.8039994974
20
-10.9357019614
11
1.8036297929
21
-10.9360776815
62
2
0
LINE
8
Setbacks
10
1.8036297929
20
-10.9360776815
11
1.8032046905
21
-10.9363893462
62
2
0
LINE
8
Setbacks
10
1.8032046905
20
-10.9363893462
11
1.7765760162
21
-10.9527966943
62
2
0
LINE
8
Setbacks
10
1.7765760162
20
-10.9527966943
11
1.7548007200
21
-10.9765366229
62
2
0
LINE
8
Setbacks
10
1.7548007200
20
-10.9765366229
11
1.7544173429
21
-10.9768928430
62
2
0
LINE
8
Setbacks
10
1.7544173429
20
-10.9768928430
11
-8.1841445904
21
-18.8322730906
62
2
0
LINE
8
Setbacks
10
-8.1841445904
20
-18.8322730906
11
-8.1499328042
21
-19.0575158125
62
2
0
LINE
8
Setbacks
10
-8.1499328042
20
-19.0575158125
11
-8.1499235562
21
-19.0584358540
62
2
0
LINE
8
Setbacks
10
-8.1499235562
20
-19.0584358540
11
-8.2718884551
21
-19.9867597026
62
2
0
LINE
8
Setbacks
10
-8.2718884551
20
-19.9867597026
11
-8.2721422344
21
-19.9876624719
62
2
0
LINE
8
Setbacks
10
-8.2721422344
20
-19.9876624719
11
-8.6447331255
21
-20.8277546904
62
2
0
LINE
8
Setbacks
10
-8.6447331255
20
-20.8277546904
11
-8.6449674108
21
-20.8281908110
62
2
0
LINE
8
Setbacks
10
-8.6449674108
20
-20.8281908110
11
-8.6452646502
21
-20.8285867144
62
2
0
LINE
8
Setbacks
10
-8.6452646502
20
-20.8285867144
11
-9.2320097477
21
-21.4982130482
62
2
0
LINE
8
Setbacks
10
-9.2320097477
20
-21.4982130482
11
-9.2323898759
21
-21.4985819809
62
2
0
LINE
8
Setbacks
10
-9.2323898759
20
-21.4985819809
11
-9.2328244227
21
-21.4988849295
62
2
0
LINE
8
Setbacks
10
-9.2328244227
20
-21.4988849295
11
-9.9762893415
21
-21.9324978043
62
2
0
LINE
8
Setbacks
10
-9.9762893415
20
-21.9324978043
11
-9.9767966858
21
-21.9327381045
62
2
0
LINE
8
Setbacks
10
-9.9767966858
20
-21.9327381045
11
-9.9773375696
21
-21.9328883951
62
2
0
LINE
8
Setbacks
10
-9.9773375696
20
-21.9328883951
11
-10.8047467168
21
-22.0880429276
62
2
0
LINE
8
Setbacks
10
-10.8047467168
20
-22.0880429276
11
-10.8053184202
21
-22.0880989663
62
2
0
LINE
8
Setbacks
10
-10.8053184202
20
-22.0880989663
11
-13.3487712575
21
-22.1136642558
62
2
0
LINE
8
Setbacks
10
-10.4811588044
20
-8.6010599854
11
-2.8851477263
21
-8.5247097584
62
2
0
LINE
8
Setbacks
10
-2.8851477263
20
-8.5247097584
11
-10.5402685731
21
-2.7202884780
62
2
0
LINE
8
Setbacks
10
-10.5402685731
20
-2.7202884780
11
-10.4811588044
21
-8.6010599854
62
2
0
LINE
8
Setbacks
10
8.2856187799
20
18.8747602688
11
7.1493221721
21
19.9996591192
62
2
0
LINE
8
Setbacks
10
7.1493221721
20
19.9996591192
11
6.0244232929
21
18.8633626560
62
2
0
LINE
8
Setbacks
10
10.3222672581
20
24.1057126044
11
8.7514293996
21
22.5189588188
62
2
0
LINE
8
Setbacks
10
8.7514293996
20
22.5189588188
11
10.3381832064
21
20.9481211400
62
2
0
LINE
8
Setbacks
10
5.9877107451
20
26.1468792952
11
7.1240073529
21
25.0219804449
62
2
0
LINE
8
Setbacks
10
7.1240073529
20
25.0219804449
11
8.2489062321
21
26.1582769080
62
2
0
LINE
8
Setbacks
10
3.9510625950
20
20.9159266315
11
5.5219004536
21
22.5026804173
62
2
0
LINE
8
Setbacks
10
5.5219004536
20
22.5026804173
11
3.9351466456
21
24.0735182979
62
2
0
LINE
8
Setbacks
10
-10.4557746119
20
-11.1264793542
11
-10.3966651707
21
-17.0072505335
62
2
0
LINE
8
Setbacks
10
-10.3966651707
20
-17.0072505335
11
-2.8597638621
21
-11.0501291272
62
2
0
LINE
8
Setbacks
10
-2.8597638621
20
-11.0501291272
11
-10.4557746119
21
-11.1264793542
62
2
0
LINE
8
Setbacks
10
27.9624974679
20
34.6099461264
11
8.2141511828
21
34.4114479561
62
2
0
LINE
8
Setbacks
10
8.2141511828
20
34.4114479561
11
8.2665890074
21
29.1944861791
62
2
0
LINE
8
Setbacks
10
8.2665890074
20
29.1944861791
11
10.3263597775
21
29.2048686750
62
2
0
LINE
8
Setbacks
10
10.3263597775
20
29.2048686750
11
10.3269321601
21
29.2048212877
62
2
0
LINE
8
Setbacks
10
10.3269321601
20
29.2048212877
11
11.1567379610
21
29.0621720050
62
2
0
LINE
8
Setbacks
10
11.1567379610
20
29.0621720050
11
11.1572807209
21
29.0620300300
62
2
0
LINE
8
Setbacks
10
11.1572807209
20
29.0620300300
11
11.1577913568
21
29.0617976591
62
2
0
LINE
8
Setbacks
10
11.1577913568
20
29.0617976591
11
11.9081450553
21
28.6394567663
62
2
0
LINE
8
Setbacks
10
11.9081450553
20
28.6394567663
11
11.9085837970
21
28.6391608393
62
2
0
LINE
8
Setbacks
10
11.9085837970
20
28.6391608393
11
11.9089692520
21
28.6387982218
62
2
0
LINE
8
Setbacks
10
11.9089692520
20
28.6387982218
11
12.5064213709
21
27.9781079119
62
2
0
LINE
8
Setbacks
10
12.5064213709
20
27.9781079119
11
12.5067245238
21
27.9777170822
62
2
0
LINE
8
Setbacks
10
12.5067245238
20
27.9777170822
11
12.5069654777
21
27.9772851207
62
2
0
LINE
8
Setbacks
10
12.5069654777
20
27.9772851207
11
12.8930327473
21
27.1429176399
62
2
0
LINE
8
Setbacks
10
12.8930327473
20
27.1429176399
11
12.8933007975
21
27.1420195190
62
2
0
LINE
8
Setbacks
10
12.8933007975
20
27.1420195190
11
13.0301925342
21
26.2156490826
62
2
0
LINE
8
Setbacks
10
13.0301925342
20
26.2156490826
11
13.0301980779
21
26.2147290106
62
2
0
LINE
8
Setbacks
10
13.0301980779
20
26.2147290106
11
12.9045143469
21
25.2870350833
62
2
0
LINE
8
Setbacks
10
12.9045143469
20
25.2870350833
11
12.9042567281
21
25.2861328818
62
2
0
LINE
8
Setbacks
10
12.9042567281
20
25.2861328818
11
12.5283003513
21
24.4479245217
62
2
0
LINE
8
Setbacks
10
12.5283003513
20
24.4479245217
11
12.5280640010
21
24.4474890060
62
2
0
LINE
8
Setbacks
10
12.5280640010
20
24.4474890060
11
12.5277647569
21
24.4470940523
62
2
0
LINE
8
Setbacks
10
12.5277647569
20
24.4470940523
11
11.9383369165
21
23.7804211307
62
2
0
LINE
8
Setbacks
10
11.9383369165
20
23.7804211307
11
11.9379547522
21
23.7800535710
62
2
0
LINE
8
Setbacks
10
11.9379547522
20
23.7800535710
11
11.9375183697
21
23.7797523734
62
2
0
LINE
8
Setbacks
10
11.9375183697
20
23.7797523734
11
11.7019374337
21
23.6438547178
62
2
0
LINE
8
Setbacks
10
11.7019374337
20
23.6438547178
11
11.7131422950
21
21.4209328468
62
2
0
LINE
8
Setbacks
10
11.7131422950
20
21.4209328468
11
11.9451886906
21
21.2903243139
62
2
0
LINE
8
Setbacks
10
11.9451886906
20
21.2903243139
11
11.9456274335
21
21.2900283861
62
2
0
LINE
8
Setbacks
10
11.9456274335
20
21.2900283861
11
11.9460128895
21
21.2896657675
62
2
0
LINE
8
Setbacks
10
11.9460128895
20
21.2896657675
11
12.5434646803
21
20.6289751295
62
2
0
LINE
8
Setbacks
10
12.5434646803
20
20.6289751295
11
12.5437678325
21
20.6285843006
62
2
0
LINE
8
Setbacks
10
12.5437678325
20
20.6285843006
11
12.5440087858
21
20.6281523400
62
2
0
LINE
8
Setbacks
10
12.5440087858
20
20.6281523400
11
12.9300760553
21
19.7937851873
62
2
0
LINE
8
Setbacks
10
12.9300760553
20
19.7937851873
11
12.9303441058
21
19.7928870660
62
2
0
LINE
8
Setbacks
10
12.9303441058
20
19.7928870660
11
13.0672358424
21
18.8665166295
62
2
0
LINE
8
Setbacks
10
13.0672358424
20
18.8665166295
11
13.0672413862
21
18.8655965578
62
2
0
LINE
8
Setbacks
10
13.0672413862
20
18.8655965578
11
12.9415576551
21
17.9379023024
62
2
0
LINE
8
Setbacks
10
12.9415576551
20
17.9379023024
11
12.9413000364
21
17.9370001007
62
2
0
LINE
8
Setbacks
10
12.9413000364
20
17.9370001007
11
12.5653436595
21
17.0987917406
62
2
0
LINE
8
Setbacks
10
12.5653436595
20
17.0987917406
11
12.5651073092
21
17.0983562248
62
2
0
LINE
8
Setbacks
10
12.5651073092
20
17.0983562248
11
12.5648080652
21
17.0979612712
62
2
0
LINE
8
Setbacks
10
12.5648080652
20
17.0979612712
11
11.9753802248
21
16.4312883496
62
2
0
LINE
8
Setbacks
10
11.9753802248
20
16.4312883496
11
11.9749980611
21
16.4309207904
62
2
0
LINE
8
Setbacks
10
11.9749980611
20
16.4309207904
11
11.9745616793
21
16.4306195930
62
2
0
LINE
8
Setbacks
10
11.9745616793
20
16.4306195930
11
11.2293598838
21
16.0007406422
62
2
0
LINE
8
Setbacks
10
11.2293598838
20
16.0007406422
11
11.2288510700
21
16.0005026418
62
2
0
LINE
8
Setbacks
10
11.2288510700
20
16.0005026418
11
11.2283091145
21
16.0003549259
62
2
0
LINE
8
Setbacks
10
11.2283091145
20
16.0003549259
11
10.4002785762
21
15.8493490155
62
2
0
LINE
8
Setbacks
10
10.4002785762
20
15.8493490155
11
10.3997065020
21
15.8492958244
62
2
0
LINE
8
Setbacks
10
10.3997065020
20
15.8492958244
11
8.4008275354
21
15.8392205804
62
2
0
LINE
8
Setbacks
10
8.4008275354
20
15.8392205804
11
8.9936088791
21
-43.1359144369
62
2
0
LINE
8
Setbacks
10
8.9936088791
20
-43.1359144369
11
19.1776500234
21
-43.0335508340
62
2
0
LINE
8
Setbacks
10
19.1776500234
20
-43.0335508340
11
18.8314563324
21
-42.2934853405
62
2
0
LINE
8
Setbacks
10
18.8314563324
20
-42.2934853405
11
18.8311844580
21
-42.2925878541
62
2
0
LINE
8
Setbacks
10
18.8311844580
20
-42.2925878541
11
18.6905843878
21
-41.3669034413
62
2
0
LINE
8
Setbacks
10
18.6905843878
20
-41.3669034413
11
18.6905751401
21
-41.3659834035
62
2
0
LINE
8
Setbacks
10
18.6905751401
20
-41.3659834035
11
18.8125397109
21
-40.4376595549
62
2
0
LINE
8
Setbacks
10
18.8125397109
20
-40.4376595549
11
18.8127934903
21
-40.4367567845
62
2
0
LINE
8
Setbacks
10
18.8127934903
20
-40.4367567845
11
19.1853843815
21
-39.5966645660
62
2
0
LINE
8
Setbacks
10
19.1853843815
20
-39.5966645660
11
19.1856186670
21
-39.5962284451
62
2
0
LINE
8
Setbacks
10
19.1856186670
20
-39.5962284451
11
19.1859159068
21
-39.5958325413
62
2
0
LINE
8
Setbacks
10
19.1859159068
20
-39.5958325413
11
19.7726613324
21
-38.9262062076
62
2
0
LINE
8
Setbacks
10
19.7726613324
20
-38.9262062076
11
19.7730414603
21
-38.9258372752
62
2
0
LINE
8
Setbacks
10
19.7730414603
20
-38.9258372752
11
19.7734760067
21
-38.9255343269
62
2
0
LINE
8
Setbacks
10
19.7734760067
20
-38.9255343269
11
20.5169409255
21
-38.4919214521
62
2
0
LINE
8
Setbacks
10
20.5169409255
20
-38.4919214521
11
20.5174482697
21
-38.4916811519
62
2
0
LINE
8
Setbacks
10
20.5174482697
20
-38.4916811519
11
20.5179891534
21
-38.4915308614
62
2
0
LINE
8
Setbacks
10
20.5179891534
20
-38.4915308614
11
21.3453979725
21
-38.3363763289
62
2
0
LINE
8
Setbacks
10
21.3453979725
20
-38.3363763289
11
21.3459696763
21
-38.3363202901
62
2
0
LINE
8
Setbacks
10
21.3459696763
20
-38.3363202901
11
28.6949653037
21
-38.2624528588
62
2
0
LINE
8
Setbacks
10
28.5352914268
20
-22.3766789147
11
28.2017259884
21
-22.4392286343
62
2
0
LINE
8
Setbacks
10
28.2017259884
20
-22.4392286343
11
28.2011542847
21
-22.4392846731
62
2
0
LINE
8
Setbacks
10
28.2011542847
20
-22.4392846731
11
25.6577014474
21
-22.4648499626
62
2
0
LINE
8
Setbacks
10
25.6577014474
20
-22.4648499626
11
25.6571287322
21
-22.4648054268
62
2
0
LINE
8
Setbacks
10
25.6571287322
20
-22.4648054268
11
24.8267681413
21
-22.3263136244
62
2
0
LINE
8
Setbacks
10
24.8267681413
20
-22.3263136244
11
24.8262243462
21
-22.3261742364
62
2
0
LINE
8
Setbacks
10
24.8262243462
20
-22.3261742364
11
24.8257122744
21
-22.3259441828
62
2
0
LINE
8
Setbacks
10
24.8257122744
20
-22.3259441828
11
24.0736817385
21
-21.9073631326
62
2
0
LINE
8
Setbacks
10
24.0736817385
20
-21.9073631326
11
24.0732411900
21
-21.9070689799
62
2
0
LINE
8
Setbacks
10
24.0732411900
20
-21.9070689799
11
24.0728537229
21
-21.9067077626
62
2
0
LINE
8
Setbacks
10
24.0728537229
20
-21.9067077626
11
23.4727670895
21
-21.2490105630
62
2
0
LINE
8
Setbacks
10
23.4727670895
20
-21.2490105630
11
23.4724619523
21
-21.2486207144
62
2
0
LINE
8
Setbacks
10
23.4724619523
20
-21.2486207144
11
23.4722189480
21
-21.2481893913
62
2
0
LINE
8
Setbacks
10
23.4722189480
20
-21.2481893913
11
23.0828170326
21
-20.4157566219
62
2
0
LINE
8
Setbacks
10
23.0828170326
20
-20.4157566219
11
23.0825451585
21
-20.4148591366
62
2
0
LINE
8
Setbacks
10
23.0825451585
20
-20.4148591366
11
22.9419447603
21
-19.4891743957
62
2
0
LINE
8
Setbacks
10
22.9419447603
20
-19.4891743957
11
22.9419355125
21
-19.4882543560
62
2
0
LINE
8
Setbacks
10
22.9419355125
20
-19.4882543560
11
22.9716127329
21
-19.2623690398
62
2
0
LINE
8
Setbacks
10
22.9716127329
20
-19.2623690398
11
12.8771598804
21
-11.6083482626
62
2
0
LINE
8
Setbacks
10
12.8771598804
20
-11.6083482626
11
12.8767694154
21
-11.6079998154
62
2
0
LINE
8
Setbacks
10
12.8767694154
20
-11.6079998154
11
12.8545214892
21
-11.5847024465
62
2
0
LINE
8
Setbacks
10
12.8545214892
20
-11.5847024465
11
12.8275684867
21
-11.5688338343
62
2
0
LINE
8
Setbacks
10
12.8275684867
20
-11.5688338343
11
12.8271372004
21
-11.5685307753
62
2
0
LINE
8
Setbacks
10
12.8271372004
20
-11.5685307753
11
12.8267600142
21
-11.5681625590
62
2
0
LINE
8
Setbacks
10
12.8267600142
20
-11.5681625590
11
12.7012990583
21
-11.4242514432
62
2
0
LINE
8
Setbacks
10
12.7012990583
20
-11.4242514432
11
12.5701115915
21
-11.2868751272
62
2
0
LINE
8
Setbacks
10
12.5701115915
20
-11.2868751272
11
12.5697963456
21
-11.2864904207
62
2
0
LINE
8
Setbacks
10
12.5697963456
20
-11.2864904207
11
12.5695428756
21
-11.2860624813
62
2
0
LINE
8
Setbacks
10
12.5695428756
20
-11.2860624813
11
12.5547856241
21
-11.2561919642
62
2
0
LINE
8
Setbacks
10
12.5547856241
20
-11.2561919642
11
12.5334873680
21
-11.2317616307
62
2
0
LINE
8
Setbacks
10
12.5334873680
20
-11.2317616307
11
12.5331923350
21
-11.2313668859
62
2
0
LINE
8
Setbacks
10
12.5331923350
20
-11.2313668859
11
12.5329597577
21
-11.2309324025
62
2
0
LINE
8
Setbacks
10
12.5329597577
20
-11.2309324025
11
12.4533137797
21
-11.0507997374
62
2
0
LINE
8
Setbacks
10
12.4533137797
20
-11.0507997374
11
12.3664122910
21
-10.8749000651
62
2
0
LINE
8
Setbacks
10
12.3664122910
20
-10.8749000651
11
12.3661208923
21
-10.8740059696
62
2
0
LINE
8
Setbacks
10
12.3661208923
20
-10.8740059696
11
12.3603242585
21
-10.8404884053
62
2
0
LINE
8
Setbacks
10
12.3603242585
20
-10.8404884053
11
12.3467898087
21
-10.8098782652
62
2
0
LINE
8
Setbacks
10
12.3467898087
20
-10.8098782652
11
12.3465373713
21
-10.8089776442
62
2
0
LINE
8
Setbacks
10
12.3465373713
20
-10.8089776442
11
12.3205070659
21
-10.6102579232
62
2
0
LINE
8
Setbacks
10
12.3205070659
20
-10.6102579232
11
12.2864014031
21
-10.4130538641
62
2
0
LINE
8
Setbacks
10
12.2864014031
20
-10.4130538641
11
12.2863732926
21
-10.4121341203
62
2
0
LINE
8
Setbacks
10
12.2863732926
20
-10.4121341203
11
12.2901184500
21
-10.3782694393
62
2
0
LINE
8
Setbacks
10
12.2901184500
20
-10.3782694393
11
12.2856932083
21
-10.3444858242
62
2
0
LINE
8
Setbacks
10
12.2856932083
20
-10.3444858242
11
12.2857028255
21
-10.3435657026
62
2
0
LINE
8
Setbacks
10
12.2857028255
20
-10.3435657026
11
12.3158380383
21
-10.1457129094
62
2
0
LINE
8
Setbacks
10
12.3158380383
20
-10.1457129094
11
12.3378683739
21
-9.9465133626
62
2
0
LINE
8
Setbacks
10
12.3378683739
20
-9.9465133626
11
12.3381026517
21
-9.9456078631
62
2
0
LINE
8
Setbacks
10
12.3381026517
20
-9.9456078631
11
12.3510189129
21
-9.9147318913
62
2
0
LINE
8
Setbacks
10
12.3510189129
20
-9.9147318913
11
12.3561408207
21
-9.8811043960
62
2
0
LINE
8
Setbacks
10
12.3561408207
20
-9.8811043960
11
12.3564141867
21
-9.8802046370
62
2
0
LINE
8
Setbacks
10
12.3564141867
20
-9.8802046370
11
12.4397624782
21
-9.7025936308
62
2
0
LINE
8
Setbacks
10
12.4397624782
20
-9.7025936308
11
12.5157716224
21
-9.5208965591
62
2
0
LINE
8
Setbacks
10
12.5157716224
20
-9.5208965591
11
12.5159954171
21
-9.5204574925
62
2
0
LINE
8
Setbacks
10
12.5159954171
20
-9.5204574925
11
12.5162824526
21
-9.5200569003
62
2
0
LINE
8
Setbacks
10
12.5162824526
20
-9.5200569003
11
12.5370855814
21
-9.4952029887
62
2
0
LINE
8
Setbacks
10
12.5370855814
20
-9.4952029887
11
12.5512393267
21
-9.4650422166
62
2
0
LINE
8
Setbacks
10
12.5512393267
20
-9.4650422166
11
12.5514841423
21
-9.4646092721
62
2
0
LINE
8
Setbacks
10
12.5514841423
20
-9.4646092721
11
12.5517915894
21
-9.4642183093
62
2
0
LINE
8
Setbacks
10
12.5517915894
20
-9.4642183093
11
12.6801901228
21
-9.3242337622
62
2
0
LINE
8
Setbacks
10
12.6801901228
20
-9.3242337622
11
12.8027339096
21
-9.1778288659
62
2
0
LINE
8
Setbacks
10
12.8027339096
20
-9.1778288659
11
12.8031036141
21
-9.1774531459
62
2
0
LINE
8
Setbacks
10
12.8031036141
20
-9.1774531459
11
12.8035287165
21
-9.1771414812
62
2
0
LINE
8
Setbacks
10
12.8035287165
20
-9.1771414812
11
12.8301573909
21
-9.1607341330
62
2
0
LINE
8
Setbacks
10
12.8301573909
20
-9.1607341330
11
12.8519326870
21
-9.1369942044
62
2
0
LINE
8
Setbacks
10
12.8519326870
20
-9.1369942044
11
12.8523160642
21
-9.1366379844
62
2
0
LINE
8
Setbacks
10
12.8523160642
20
-9.1366379844
11
22.7908779979
21
-1.2812580645
62
2
0
LINE
8
Setbacks
10
22.7908779979
20
-1.2812580645
11
22.7566662112
21
-1.0560150142
62
2
0
LINE
8
Setbacks
10
22.7566662112
20
-1.0560150142
11
22.7566569633
21
-1.0550949734
62
2
0
LINE
8
Setbacks
10
22.7566569633
20
-1.0550949734
11
22.8786218622
21
-0.1267711248
62
2
0
LINE
8
Setbacks
10
22.8786218622
20
-0.1267711248
11
22.8788756416
21
-0.1258683550
62
2
0
LINE
8
Setbacks
10
22.8788756416
20
-0.1258683550
11
23.2514665328
21
0.7142235354
62
2
0
LINE
8
Setbacks
10
23.2514665328
20
0.7142235354
11
23.2517008178
21
0.7146596554
62
2
0
LINE
8
Setbacks
10
23.2517008178
20
0.7146596554
11
23.2519980567
21
0.7150555584
62
2
0
LINE
8
Setbacks
10
23.2519980567
20
0.7150555584
11
23.8387431543
21
1.3846822202
62
2
0
LINE
8
Setbacks
10
23.8387431543
20
1.3846822202
11
23.8391232826
21
1.3850511533
62
2
0
LINE
8
Setbacks
10
23.8391232826
20
1.3850511533
11
23.8395578298
21
1.3853541021
62
2
0
LINE
8
Setbacks
10
23.8395578298
20
1.3853541021
11
24.5830227486
21
1.8189669769
62
2
0
LINE
8
Setbacks
10
24.5830227486
20
1.8189669769
11
24.5835300929
21
1.8192072772
62
2
0
LINE
8
Setbacks
10
24.5835300929
20
1.8192072772
11
24.5840709766
21
1.8193575677
62
2
0
LINE
8
Setbacks
10
24.5840709766
20
1.8193575677
11
25.4114801238
21
1.9745121002
62
2
0
LINE
8
Setbacks
10
25.4114801238
20
1.9745121002
11
25.4120518277
21
1.9745681389
62
2
0
LINE
8
Setbacks
10
25.4120518277
20
1.9745681389
11
27.9555046650
21
2.0001331004
62
2
0
LINE
8
Setbacks
10
27.9555046650
20
2.0001331004
11
27.9560773787
21
2.0000885647
62
2
0
LINE
8
Setbacks
10
27.9560773787
20
2.0000885647
11
28.2908325760
21
1.9442564845
62
2
0
LINE
8
Setbacks
10
17.4918811333
20
-11.5888213966
11
25.1470019801
21
-17.3932423496
62
2
0
LINE
8
Setbacks
10
25.1470019801
20
-17.3932423496
11
25.0878922115
21
-11.5124708421
62
2
0
LINE
8
Setbacks
10
25.0878922115
20
-11.5124708421
11
17.4918811333
21
-11.5888213966
62
2
0
LINE
8
Setbacks
10
17.4664972692
20
-9.0634020278
11
25.0625080189
21
-8.9870514733
62
2
0
LINE
8
Setbacks
10
25.0625080189
20
-8.9870514733
11
25.0033985778
21
-3.1062802941
62
2
0
LINE
8
Setbacks
10
25.0033985778
20
-3.1062802941
11
17.4664972692
21
-9.0634020278
62
2
0
LINE
8
Inverters
10
22.7214212234
20
37.3297644436
11
25.1820512234
21
37.3297644436
0
LINE
8
Inverters
10
25.1820512234
20
37.3297644436
11
25.1820512234
21
39.7903944436
0
LINE
8
Inverters
10
25.1820512234
20
39.7903944436
11
22.7214212234
21
39.7903944436
0
LINE
8
Inverters
10
22.7214212234
20
39.7903944436
11
22.7214212234
21
37.3297644436
0
LINE
8
Inverters
10
22.7214212234
20
37.3297644436
11
25.1820512234
21
39.7903944436
0
TEXT
8
Inverters
100
AcDbText
10
22.8854632234
20
38.8717592436
1
DC
7
NewTextStyle_4
40
0.7545932000000003
50
0
0
TEXT
8
Inverters
100
AcDbText
10
23.7220774234
20
37.4938064436
1
AC
7
NewTextStyle_4
40
0.7545932000000003
50
0
0
LINE
8
Inverters
10
22.9458685507
20
14.7773406362
11
25.4064985507
21
14.7773406362
0
LINE
8
Inverters
10
25.4064985507
20
14.7773406362
11
25.4064985507
21
17.2379706362
0
LINE
8
Inverters
10
25.4064985507
20
17.2379706362
11
22.9458685507
21
17.2379706362
0
LINE
8
Inverters
10
22.9458685507
20
17.2379706362
11
22.9458685507
21
14.7773406362
0
LINE
8
Inverters
10
22.9458685507
20
14.7773406362
11
25.4064985507
21
17.2379706362
0
TEXT
8
Inverters
100
AcDbText
10
23.1099105507
20
16.3193354362
1
DC
7
NewTextStyle_4
40
0.7545932000000003
50
0
0
TEXT
8
Inverters
100
AcDbText
10
23.9465247507
20
14.9413826362
1
AC
7
NewTextStyle_4
40
0.7545932000000003
50
0
0
LINE
8
Strings
10
24.0158640324
20
32.0007024136
11
24.0537577339
21
28.2389216006
62
11
0
LINE
8
Strings
10
24.0537577339
20
28.2389216006
11
24.1295451453
21
20.7226644039
62
11
0
LINE
8
Strings
10
24.1295451453
20
20.7226644039
11
24.1674388510
21
16.9645358029
62
11
0
LINE
8
Strings
10
24.1674388510
20
16.9645358029
11
24.2053325525
21
13.2064072046
62
11
0
LINE
8
Strings
10
-10.3624707669
20
31.5332189730
11
-10.3245770612
21
27.7750903746
62
11
0
LINE
8
Strings
10
-10.3245770612
20
27.7750903746
11
-10.2895982582
21
24.0169617737
62
11
0
LINE
8
Strings
10
-10.2895982582
20
24.0169617737
11
-10.2517045525
21
20.2588331753
62
11
0
LINE
8
Strings
10
-10.2517045525
20
20.2588331753
11
-10.2138108468
21
16.5007045770
62
11
0
LINE
8
Strings
10
-10.2138108468
20
16.5007045770
11
-10.1759171411
21
12.7425759786
62
11
0
LINE
8
Strings
10
-10.1380234396
20
8.9807951656
11
-10.1001297339
21
5.2226665672
62
11
0
LINE
8
Strings
10
-10.1001297339
20
5.2226665672
11
-3.8709876738
21
1.5266256133
62
11
0
LINE
8
Strings
10
-3.8709876738
20
1.5266256133
11
-3.9088813795
21
5.2847542117
62
11
0
LINE
8
Strings
10
-3.9088813795
20
5.2847542117
11
-3.9467750811
21
9.0428828100
62
11
0
LINE
8
Strings
10
-3.9467750811
20
9.0428828100
11
-3.9846687868
21
12.8046636231
62
11
0
LINE
8
Strings
10
-3.9846687868
20
12.8046636231
11
-4.0196475898
21
16.5627922214
62
11
0
LINE
8
Strings
10
-4.0196475898
20
16.5627922214
11
2.1716007646
21
16.6248798659
62
11
0
LINE
8
Strings
10
2.1716007646
20
16.6248798659
11
2.2094944703
21
12.8667512675
62
11
0
LINE
8
Strings
10
2.2094944703
20
12.8667512675
11
2.2473881718
21
9.1049704545
62
11
0
LINE
8
Strings
10
2.2473881718
20
9.1049704545
11
2.2852818775
21
5.3468418561
62
11
0
LINE
8
Strings
10
2.2852818775
20
5.3468418561
11
2.3231755832
21
1.5887132578
62
11
0
LINE
8
Strings
10
2.3231755832
20
1.5887132578
11
2.3581543862
21
-2.1694153432
62
11
0
LINE
8
Strings
10
2.3581543862
20
-2.1694153432
11
2.3960480919
21
-5.9275439415
62
11
0
LINE
8
Strings
10
2.3960480919
20
-5.9275439415
11
2.4805802030
21
-13.0895363425
62
11
0
LINE
8
Strings
10
2.4805802030
20
-13.0895363425
11
2.5184739045
21
-16.8476649434
62
11
0
LINE
8
Strings
10
24.2432262582
20
9.4482786062
11
24.2811199639
21
5.6864977932
62
11
0
LINE
8
Strings
10
24.2811199639
20
5.6864977932
11
18.1277653111
21
1.8662815504
62
11
0
LINE
8
Strings
10
18.1277653111
20
1.8662815504
11
18.0898716054
21
5.6244101487
62
11
0
LINE
8
Strings
10
18.0898716054
20
5.6244101487
11
18.0519779039
21
9.3861909618
62
11
0
LINE
8
Strings
10
18.0519779039
20
9.3861909618
11
17.9761904925
21
16.9024481585
62
11
0
LINE
8
Strings
10
17.9761904925
20
16.9024481585
11
11.7849421381
21
16.8403605140
62
11
0
LINE
8
Strings
10
11.7849421381
20
16.8403605140
11
11.8228358438
21
13.0822319157
62
11
0
LINE
8
Strings
10
11.8228358438
20
13.0822319157
11
11.8607295454
21
9.3241033173
62
11
0
LINE
8
Strings
10
11.8607295454
20
9.3241033173
11
11.8986232511
21
5.5623225043
62
11
0
LINE
8
Strings
10
11.8986232511
20
5.5623225043
11
11.9365169567
21
1.8041939059
62
11
0
LINE
8
Strings
10
11.9365169567
20
1.8041939059
11
11.9744106624
21
-1.9539346924
62
11
0
LINE
8
Strings
10
11.9744106624
20
-1.9539346924
11
12.0123043640
21
-5.7120632934
62
11
0
LINE
8
Strings
10
12.0123043640
20
-5.7120632934
11
12.0910066739
21
-13.1406673454
62
11
0
LINE
8
Strings
10
12.0910066739
20
-13.1406673454
11
12.1259854810
21
-16.8987959438
62
11
0
LINE
8
Strings
10
12.1638791826
20
-20.6569245422
11
12.2017728883
21
-24.4150531405
62
11
0
LINE
8
Strings
10
12.2017728883
20
-24.4150531405
11
12.2396665940
21
-28.1731817415
62
11
0
LINE
8
Strings
10
12.2396665940
20
-28.1731817415
11
12.2775602997
21
-31.9349625545
62
11
0
LINE
8
Strings
10
12.2775602997
20
-31.9349625545
11
12.3154540012
21
-35.6930911529
62
11
0
LINE
8
Strings
10
12.3154540012
20
-35.6930911529
11
12.3533477069
21
-39.4512197512
62
11
0
LINE
8
Strings
10
12.3533477069
20
-39.4512197512
11
18.5445960613
21
-39.3891321068
62
11
0
LINE
8
Strings
10
18.5445960613
20
-39.3891321068
11
18.5067023597
21
-35.6310035084
62
11
0
LINE
8
Strings
10
18.5067023597
20
-35.6310035084
11
18.4688086540
21
-31.8692226954
62
11
0
LINE
8
Strings
10
18.4688086540
20
-31.8692226954
11
18.4309149483
21
-28.1110940944
62
11
0
LINE
8
Strings
10
18.4309149483
20
-28.1110940944
11
18.3959361453
21
-24.3529654961
62
11
0
LINE
8
Strings
10
18.3959361453
20
-24.3529654961
11
18.3580424396
21
-20.5948368977
62
11
0
LINE
8
Strings
10
18.3580424396
20
-20.5948368977
11
24.5871844997
21
-24.2908778516
62
11
0
LINE
8
Strings
10
24.5871844997
20
-24.2908778516
11
24.6250782054
21
-28.0490064500
62
11
0
LINE
8
Strings
10
24.6250782054
20
-28.0490064500
11
24.6629719111
21
-31.8071350509
62
11
0
LINE
8
Strings
10
24.6629719111
20
-31.8071350509
11
24.7008656126
21
-35.5689158640
62
11
0
LINE
8
Strings
10
24.7008656126
20
-35.5689158640
11
24.7387593183
21
-39.3270444623
62
11
0
LINE
8
Strings
10
2.5563676102
20
-20.6057935418
11
2.5942613159
21
-24.3675743548
62
11
0
LINE
8
Strings
10
2.5942613159
20
-24.3675743548
11
2.6321550216
21
-28.1257029532
62
11
0
LINE
8
Strings
10
2.6321550216
20
-28.1257029532
11
2.6700487232
21
-31.8838315515
62
11
0
LINE
8
Strings
10
2.6700487232
20
-31.8838315515
11
2.7079424288
21
-35.6419601499
62
11
0
LINE
8
Strings
10
2.7079424288
20
-35.6419601499
11
2.7458361345
21
-39.4000887508
62
11
0
LINE
8
Strings
10
2.7458361345
20
-39.4000887508
11
-3.4454122198
21
-39.4621763953
62
11
0
LINE
8
Strings
10
-3.4454122198
20
-39.4621763953
11
-3.4833059255
21
-35.7040477943
62
11
0
LINE
8
Strings
10
-3.4833059255
20
-35.7040477943
11
-3.5211996312
21
-31.9459191960
62
11
0
LINE
8
Strings
10
-3.5211996312
20
-31.9459191960
11
-3.5590933369
21
-28.1877905976
62
11
0
LINE
8
Strings
10
-3.5590933369
20
-28.1877905976
11
-3.5969870384
21
-24.4296619992
62
11
0
LINE
8
Strings
10
-3.5969870384
20
-24.4296619992
11
-3.6348807441
21
-20.6715334009
62
11
0
LINE
8
Strings
10
-3.6348807441
20
-20.6715334009
11
-9.7882353969
21
-24.4917496437
62
11
0
LINE
8
Strings
10
-9.7882353969
20
-24.4917496437
11
-9.7503416913
21
-28.2498782420
62
11
0
LINE
8
Strings
10
-9.7503416913
20
-28.2498782420
11
-9.7124479856
21
-32.0080068404
62
11
0
LINE
8
Strings
10
-9.7124479856
20
-32.0080068404
11
-9.6745542799
21
-35.7661354387
62
11
0
LINE
8
Strings
10
-9.6745542799
20
-35.7661354387
11
-9.6366605783
21
-39.5242640397
62
11
0
LINE
8
Connections
10
24.0158640324
20
32.0007024136
11
23.5237628903
21
31.9957561211
62
91
0
LINE
8
Connections
10
23.5237628903
20
31.9957561211
11
23.5188165978
21
32.4878572633
62
91
0
LINE
8
Connections
10
23.5188165978
20
32.4878572633
11
23.4627786152
21
38.0630138888
62
91
0
LINE
8
Connections
10
23.4627786152
20
38.0630138888
11
23.4645813738
21
38.0630320090
62
91
0
LINE
8
Connections
10
23.4645813738
20
38.0630320090
11
23.9566825159
21
38.0679783015
62
91
0
LINE
8
Connections
10
23.9566825159
20
38.0679783015
11
23.9517362234
21
38.5600794436
62
91
0
LINE
8
Connections
10
-10.3624707669
20
31.5332189730
11
-9.8703696248
21
31.5381652655
62
91
0
LINE
8
Connections
10
-9.8703696248
20
31.5381652655
11
-9.8753159173
21
32.0302664076
62
91
0
LINE
8
Connections
10
-9.8753159173
20
32.0302664076
11
-9.9325793798
21
37.7273446662
62
91
0
LINE
8
Connections
10
-9.9325793798
20
37.7273446662
11
23.4645813738
21
38.0630320090
62
91
0
LINE
8
Connections
10
23.4645813738
20
38.0630320090
11
23.9566825159
21
38.0679783015
62
91
0
LINE
8
Connections
10
23.9566825159
20
38.0679783015
11
23.9517362234
21
38.5600794436
62
91
0
LINE
8
Connections
10
-10.1380234396
20
8.9807951656
11
-9.6459222975
21
8.9857414581
62
91
0
LINE
8
Connections
10
-9.6459222975
20
8.9857414581
11
-9.6508685900
21
9.4778426002
62
91
0
LINE
8
Connections
10
-9.6508685900
20
9.4778426002
11
-9.9348146659
21
37.7273221985
62
91
0
LINE
8
Connections
10
-9.9348146659
20
37.7273221985
11
23.4645813738
21
38.0630320090
62
91
0
LINE
8
Connections
10
23.4645813738
20
38.0630320090
11
23.9566825159
21
38.0679783015
62
91
0
LINE
8
Connections
10
23.9566825159
20
38.0679783015
11
23.9517362234
21
38.5600794436
62
91
0
LINE
8
Connections
10
24.2432262582
20
9.4482786062
11
24.7353274003
21
9.4532248987
62
91
0
LINE
8
Connections
10
24.7353274003
20
9.4532248987
11
24.7303811079
21
9.9453260408
62
91
0
LINE
8
Connections
10
24.7303811079
20
9.9453260408
11
24.6743428308
21
15.5205119621
62
91
0
LINE
8
Connections
10
24.6743428308
20
15.5205119621
11
24.6732309853
21
15.5205007865
62
91
0
LINE
8
Connections
10
24.6732309853
20
15.5205007865
11
24.1811298432
21
15.5155544941
62
91
0
LINE
8
Connections
10
24.1811298432
20
15.5155544941
11
24.1761835507
21
16.0076556362
62
91
0
LINE
8
Connections
10
12.1638791826
20
-20.6569245422
11
12.6559803247
21
-20.6519782497
62
91
0
LINE
8
Connections
10
12.6559803247
20
-20.6519782497
11
12.6510340322
21
-20.1598771076
62
91
0
LINE
8
Connections
10
12.6510340322
20
-20.1598771076
11
12.2936479314
21
15.3960689712
62
91
0
LINE
8
Connections
10
12.2936479314
20
15.3960689712
11
23.6890287011
21
15.5106082016
62
91
0
LINE
8
Connections
10
23.6890287011
20
15.5106082016
11
24.1811298432
21
15.5155544941
62
91
0
LINE
8
Connections
10
24.1811298432
20
15.5155544941
11
24.1761835507
21
16.0076556362
62
91
0
LINE
8
Connections
10
2.5563676102
20
-20.6057935418
11
3.0484687523
21
-20.6008472493
62
91
0
LINE
8
Connections
10
3.0484687523
20
-20.6008472493
11
3.0435224599
21
-20.1087461072
62
91
0
LINE
8
Connections
10
3.0435224599
20
-20.1087461072
11
2.6876207938
21
15.2995152028
62
91
0
LINE
8
Connections
10
2.6876207938
20
15.2995152028
11
23.6890287011
21
15.5106082016
62
91
0
LINE
8
Connections
10
23.6890287011
20
15.5106082016
11
24.1811298432
21
15.5155544941
62
91
0
LINE
8
Connections
10
24.1811298432
20
15.5155544941
11
24.1761835507
21
16.0076556362
62
91
0
ENDSEC
0
EOF