999
Design created by Aurora
0
SECTION
2
HEADER
9
$ACADVER
1
AC1009
9
$INSUNITS
70
2
0
ENDSEC
0
SECTION
2
TABLES
0
TABLE
2
LTYPE
100
AcDbLinetypeTableRecord
2
LTYPE
0
LTYPE
2
DASHED
70
0
3
dashed line
72
65
73
2
40
4.0
49
2.0
49
-2.0
0
ENDTAB
0
TABLE
2
LAYER
70
4
0
LAYER
100
AcDbSymbolTable
100
AcDbLayerTable
2
Inverters
70
0
62
7
6
CONTINUOUS
0
LAYER
100
AcDbSymbolTable
100
AcDbLayerTable
2
Connections
70
0
62
7
6
CONTINUOUS
0
LAYER
100
AcDbSymbolTable
100
AcDbLayerTable
2
Strings
70
0
62
7
6
CONTINUOUS
0
LAYER
100
AcDbSymbolTable
100
AcDbLayerTable
2
Modules
70
0
62
7
6
CONTINUOUS
0
ENDTAB
0
ENDSEC
0
SECTION
2
ENTITIES
0
LINE
8
Modules
10
176.7239641796
20
103.4741493512
11
176.6156701083
21
99.9405489956
62
254
0
LINE
8
Modules
10
176.6156701083
20
99.9405489956
11
183.4956422296
21
99.7296988381
62
254
0
LINE
8
Modules
10
183.4956422296
20
99.7296988381
11
183.6039363008
21
103.2632991937
62
254
0
LINE
8
Modules
10
183.6039363008
20
103.2632991937
11
176.7239641796
21
103.4741493512
62
254
0
LINE
8
Modules
10
183.6455834152
20
103.2620228367
11
183.5372893439
21
99.7284224811
62
254
0
LINE
8
Modules
10
183.5372893439
20
99.7284224811
11
190.4172614652
21
99.5175723236
62
254
0
LINE
8
Modules
10
190.4172614652
20
99.5175723236
11
190.5255555365
21
103.0511726793
62
254
0
LINE
8
Modules
10
190.5255555365
20
103.0511726793
11
183.6455834152
21
103.2620228367
62
254
0
LINE
8
Modules
10
190.5672026508
20
103.0498963223
11
190.4589085795
21
99.5162959666
62
254
0
LINE
8
Modules
10
190.4589085795
20
99.5162959666
11
197.3388807008
21
99.3054458092
62
254
0
LINE
8
Modules
10
197.3388807008
20
99.3054458092
11
197.4471747721
21
102.8390461648
62
254
0
LINE
8
Modules
10
197.4471747721
20
102.8390461648
11
190.5672026508
21
103.0498963223
62
254
0
LINE
8
Modules
10
197.4888218864
20
102.8377698078
11
197.3805278151
21
99.3041694522
62
254
0
LINE
8
Modules
10
197.3805278151
20
99.3041694522
11
204.2604999364
21
99.0933192947
62
254
0
LINE
8
Modules
10
204.2604999364
20
99.0933192947
11
204.3687940077
21
102.6269196504
62
254
0
LINE
8
Modules
10
204.3687940077
20
102.6269196504
11
197.4888218864
21
102.8377698078
62
254
0
LINE
8
Modules
10
204.4104411221
20
102.6256432933
11
204.3021470508
21
99.0920429377
62
254
0
LINE
8
Modules
10
204.3021470508
20
99.0920429377
11
211.1821191720
21
98.8811927803
62
254
0
LINE
8
Modules
10
211.1821191720
20
98.8811927803
11
211.2904132433
21
102.4147931359
62
254
0
LINE
8
Modules
10
211.2904132433
20
102.4147931359
11
204.4104411221
21
102.6256432933
62
254
0
LINE
8
Modules
10
211.3320603577
20
102.4135167789
11
211.2237662864
21
98.8799164232
62
254
0
LINE
8
Modules
10
211.2237662864
20
98.8799164232
11
218.1037384076
21
98.6690662658
62
254
0
LINE
8
Modules
10
218.1037384076
20
98.6690662658
11
218.2120324789
21
102.2026666214
62
254
0
LINE
8
Modules
10
218.2120324789
20
102.2026666214
11
211.3320603577
21
102.4135167789
62
254
0
LINE
8
Modules
10
218.2536795933
20
102.2013902644
11
218.1453855220
21
98.6677899088
62
254
0
LINE
8
Modules
10
218.1453855220
20
98.6677899088
11
225.0253576432
21
98.4569397513
62
254
0
LINE
8
Modules
10
225.0253576432
20
98.4569397513
11
225.1336517145
21
101.9905401070
62
254
0
LINE
8
Modules
10
225.1336517145
20
101.9905401070
11
218.2536795933
21
102.2013902644
62
254
0
LINE
8
Modules
10
225.1752988289
20
101.9892637500
11
225.0670047576
21
98.4556633943
62
254
0
LINE
8
Modules
10
225.0670047576
20
98.4556633943
11
231.9469768789
21
98.2448132369
62
254
0
LINE
8
Modules
10
231.9469768789
20
98.2448132369
11
232.0552709501
21
101.7784135925
62
254
0
LINE
8
Modules
10
232.0552709501
20
101.7784135925
11
225.1752988289
21
101.9892637500
62
254
0
LINE
8
Modules
10
232.0969180645
20
101.7771372355
11
231.9886239932
21
98.2435368799
62
254
0
LINE
8
Modules
10
231.9886239932
20
98.2435368799
11
238.8685961145
21
98.0326867224
62
254
0
LINE
8
Modules
10
238.8685961145
20
98.0326867224
11
238.9768901858
21
101.5662870780
62
254
0
LINE
8
Modules
10
238.9768901858
20
101.5662870780
11
232.0969180645
21
101.7771372355
62
254
0
LINE
8
Modules
10
239.0185373001
20
101.5650107210
11
238.9102432288
21
98.0314103654
62
254
0
LINE
8
Modules
10
238.9102432288
20
98.0314103654
11
245.7902153501
21
97.8205602079
62
254
0
LINE
8
Modules
10
245.7902153501
20
97.8205602079
11
245.8985094214
21
101.3541605636
62
254
0
LINE
8
Modules
10
245.8985094214
20
101.3541605636
11
239.0185373001
21
101.5650107210
62
254
0
LINE
8
Modules
10
245.9401565357
20
101.3528842066
11
245.8318624644
21
97.8192838509
62
254
0
LINE
8
Modules
10
245.8318624644
20
97.8192838509
11
252.7118345857
21
97.6084336935
62
254
0
LINE
8
Modules
10
252.7118345857
20
97.6084336935
11
252.8201286570
21
101.1420340491
62
254
0
LINE
8
Modules
10
252.8201286570
20
101.1420340491
11
245.9401565357
21
101.3528842066
62
254
0
LINE
8
Modules
10
252.8617757714
20
101.1407576921
11
252.7534817001
21
97.6071573365
62
254
0
LINE
8
Modules
10
252.7534817001
20
97.6071573365
11
259.6334538213
21
97.3963071790
62
254
0
LINE
8
Modules
10
259.6334538213
20
97.3963071790
11
259.7417478926
21
100.9299075346
62
254
0
LINE
8
Modules
10
259.7417478926
20
100.9299075346
11
252.8617757714
21
101.1407576921
62
254
0
LINE
8
Modules
10
259.7833950070
20
100.9286311776
11
259.6751009357
21
97.3950308220
62
254
0
LINE
8
Modules
10
259.6751009357
20
97.3950308220
11
266.5550730569
21
97.1841806645
62
254
0
LINE
8
Modules
10
266.5550730569
20
97.1841806645
11
266.6633671282
21
100.7177810202
62
254
0
LINE
8
Modules
10
266.6633671282
20
100.7177810202
11
259.7833950070
21
100.9286311776
62
254
0
LINE
8
Modules
10
266.7050142426
20
100.7165046632
11
266.5967201713
21
97.1829043075
62
254
0
LINE
8
Modules
10
266.5967201713
20
97.1829043075
11
273.4766922925
21
96.9720541501
62
254
0
LINE
8
Modules
10
273.4766922925
20
96.9720541501
11
273.5849863638
21
100.5056545057
62
254
0
LINE
8
Modules
10
273.5849863638
20
100.5056545057
11
266.7050142426
21
100.7165046632
62
254
0
LINE
8
Modules
10
176.6144562207
20
99.9009402361
11
176.5061621494
21
96.3673398804
62
254
0
LINE
8
Modules
10
176.5061621494
20
96.3673398804
11
183.3861342706
21
96.1564897230
62
254
0
LINE
8
Modules
10
183.3861342706
20
96.1564897230
11
183.4944283419
21
99.6900900786
62
254
0
LINE
8
Modules
10
183.4944283419
20
99.6900900786
11
176.6144562207
21
99.9009402361
62
254
0
LINE
8
Modules
10
183.5360754563
20
99.6888137216
11
183.4277813850
21
96.1552133660
62
254
0
LINE
8
Modules
10
183.4277813850
20
96.1552133660
11
190.3077535062
21
95.9443632085
62
254
0
LINE
8
Modules
10
190.3077535062
20
95.9443632085
11
190.4160475775
21
99.4779635641
62
254
0
LINE
8
Modules
10
190.4160475775
20
99.4779635641
11
183.5360754563
21
99.6888137216
62
254
0
LINE
8
Modules
10
190.4576946919
20
99.4766872071
11
190.3494006206
21
95.9430868515
62
254
0
LINE
8
Modules
10
190.3494006206
20
95.9430868515
11
197.2293727418
21
95.7322366940
62
254
0
LINE
8
Modules
10
197.2293727418
20
95.7322366940
11
197.3376668131
21
99.2658370497
62
254
0
LINE
8
Modules
10
197.3376668131
20
99.2658370497
11
190.4576946919
21
99.4766872071
62
254
0
LINE
8
Modules
10
197.3793139275
20
99.2645606927
11
197.2710198562
21
95.7309603370
62
254
0
LINE
8
Modules
10
197.2710198562
20
95.7309603370
11
204.1509919775
21
95.5201101796
62
254
0
LINE
8
Modules
10
204.1509919775
20
95.5201101796
11
204.2592860487
21
99.0537105352
62
254
0
LINE
8
Modules
10
204.2592860487
20
99.0537105352
11
197.3793139275
21
99.2645606927
62
254
0
LINE
8
Modules
10
204.3009331631
20
99.0524341782
11
204.1926390918
21
95.5188338226
62
254
0
LINE
8
Modules
10
204.1926390918
20
95.5188338226
11
211.0726112131
21
95.3079836651
62
254
0
LINE
8
Modules
10
211.0726112131
20
95.3079836651
11
211.1809052844
21
98.8415840208
62
254
0
LINE
8
Modules
10
211.1809052844
20
98.8415840208
11
204.3009331631
21
99.0524341782
62
254
0
LINE
8
Modules
10
211.2225523987
20
98.8403076637
11
211.1142583274
21
95.3067073081
62
254
0
LINE
8
Modules
10
211.1142583274
20
95.3067073081
11
217.9942304487
21
95.0958571507
62
254
0
LINE
8
Modules
10
217.9942304487
20
95.0958571507
11
218.1025245200
21
98.6294575063
62
254
0
LINE
8
Modules
10
218.1025245200
20
98.6294575063
11
211.2225523987
21
98.8403076637
62
254
0
LINE
8
Modules
10
218.1441716343
20
98.6281811493
11
218.0358775631
21
95.0945807936
62
254
0
LINE
8
Modules
10
218.0358775631
20
95.0945807936
11
224.9158496843
21
94.8837306362
62
254
0
LINE
8
Modules
10
224.9158496843
20
94.8837306362
11
225.0241437556
21
98.4173309918
62
254
0
LINE
8
Modules
10
225.0241437556
20
98.4173309918
11
218.1441716343
21
98.6281811493
62
254
0
LINE
8
Modules
10
225.0657908700
20
98.4160546348
11
224.9574967987
21
94.8824542792
62
254
0
LINE
8
Modules
10
224.9574967987
20
94.8824542792
11
231.8374689199
21
94.6716041217
62
254
0
LINE
8
Modules
10
231.8374689199
20
94.6716041217
11
231.9457629912
21
98.2052044774
62
254
0
LINE
8
Modules
10
231.9457629912
20
98.2052044774
11
225.0657908700
21
98.4160546348
62
254
0
LINE
8
Modules
10
231.9874101056
20
98.2039281204
11
231.8791160343
21
94.6703277647
62
254
0
LINE
8
Modules
10
231.8791160343
20
94.6703277647
11
238.7590881555
21
94.4594776073
62
254
0
LINE
8
Modules
10
238.7590881555
20
94.4594776073
11
238.8673822268
21
97.9930779629
62
254
0
LINE
8
Modules
10
238.8673822268
20
97.9930779629
11
231.9874101056
21
98.2039281204
62
254
0
LINE
8
Modules
10
238.9090293412
20
97.9918016059
11
238.8007352699
21
94.4582012503
62
254
0
LINE
8
Modules
10
238.8007352699
20
94.4582012503
11
245.6807073911
21
94.2473510928
62
254
0
LINE
8
Modules
10
245.6807073911
20
94.2473510928
11
245.7890014624
21
97.7809514484
62
254
0
LINE
8
Modules
10
245.7890014624
20
97.7809514484
11
238.9090293412
21
97.9918016059
62
254
0
LINE
8
Modules
10
245.8306485768
20
97.7796750914
11
245.7223545055
21
94.2460747358
62
254
0
LINE
8
Modules
10
245.7223545055
20
94.2460747358
11
252.6023266268
21
94.0352245783
62
254
0
LINE
8
Modules
10
252.6023266268
20
94.0352245783
11
252.7106206980
21
97.5688249340
62
254
0
LINE
8
Modules
10
252.7106206980
20
97.5688249340
11
245.8306485768
21
97.7796750914
62
254
0
LINE
8
Modules
10
252.7522678124
20
97.5675485770
11
252.6439737411
21
94.0339482213
62
254
0
LINE
8
Modules
10
252.6439737411
20
94.0339482213
11
259.5239458624
21
93.8230980639
62
254
0
LINE
8
Modules
10
259.5239458624
20
93.8230980639
11
259.6322399337
21
97.3566984195
62
254
0
LINE
8
Modules
10
259.6322399337
20
97.3566984195
11
252.7522678124
21
97.5675485770
62
254
0
LINE
8
Modules
10
259.6738870480
20
97.3554220625
11
259.5655929767
21
93.8218217069
62
254
0
LINE
8
Modules
10
259.5655929767
20
93.8218217069
11
266.4455650980
21
93.6109715494
62
254
0
LINE
8
Modules
10
266.4455650980
20
93.6109715494
11
266.5538591693
21
97.1445719050
62
254
0
LINE
8
Modules
10
266.5538591693
20
97.1445719050
11
259.6738870480
21
97.3554220625
62
254
0
LINE
8
Modules
10
266.5955062836
20
97.1432955480
11
266.4872122124
21
93.6096951924
62
254
0
LINE
8
Modules
10
266.4872122124
20
93.6096951924
11
273.3671843336
21
93.3988450349
62
254
0
LINE
8
Modules
10
273.3671843336
20
93.3988450349
11
273.4754784049
21
96.9324453906
62
254
0
LINE
8
Modules
10
273.4754784049
20
96.9324453906
11
266.5955062836
21
97.1432955480
62
254
0
LINE
8
Modules
10
176.5049482617
20
96.3277311209
11
176.3966541904
21
92.7941307653
62
254
0
LINE
8
Modules
10
176.3966541904
20
92.7941307653
11
183.2766263117
21
92.5832806078
62
254
0
LINE
8
Modules
10
183.2766263117
20
92.5832806078
11
183.3849203830
21
96.1168809635
62
254
0
LINE
8
Modules
10
183.3849203830
20
96.1168809635
11
176.5049482617
21
96.3277311209
62
254
0
LINE
8
Modules
10
183.4265674973
20
96.1156046065
11
183.3182734260
21
92.5820042508
62
254
0
LINE
8
Modules
10
183.3182734260
20
92.5820042508
11
190.1982455473
21
92.3711540934
62
254
0
LINE
8
Modules
10
190.1982455473
20
92.3711540934
11
190.3065396186
21
95.9047544490
62
254
0
LINE
8
Modules
10
190.3065396186
20
95.9047544490
11
183.4265674973
21
96.1156046065
62
254
0
LINE
8
Modules
10
190.3481867329
20
95.9034780920
11
190.2398926617
21
92.3698777364
62
254
0
LINE
8
Modules
10
190.2398926617
20
92.3698777364
11
197.1198647829
21
92.1590275789
62
254
0
LINE
8
Modules
10
197.1198647829
20
92.1590275789
11
197.2281588542
21
95.6926279345
62
254
0
LINE
8
Modules
10
197.2281588542
20
95.6926279345
11
190.3481867329
21
95.9034780920
62
254
0
LINE
8
Modules
10
197.2698059686
20
95.6913515775
11
197.1615118973
21
92.1577512219
62
254
0
LINE
8
Modules
10
197.1615118973
20
92.1577512219
11
204.0414840185
21
91.9469010645
62
254
0
LINE
8
Modules
10
204.0414840185
20
91.9469010645
11
204.1497780898
21
95.4805014201
62
254
0
LINE
8
Modules
10
204.1497780898
20
95.4805014201
11
197.2698059686
21
95.6913515775
62
254
0
LINE
8
Modules
10
204.1914252042
20
95.4792250631
11
204.0831311329
21
91.9456247074
62
254
0
LINE
8
Modules
10
204.0831311329
20
91.9456247074
11
210.9631032541
21
91.7347745500
62
254
0
LINE
8
Modules
10
210.9631032541
20
91.7347745500
11
211.0713973254
21
95.2683749056
62
254
0
LINE
8
Modules
10
211.0713973254
20
95.2683749056
11
204.1914252042
21
95.4792250631
62
254
0
LINE
8
Modules
10
211.1130444398
20
95.2670985486
11
211.0047503685
21
91.7334981930
62
254
0
LINE
8
Modules
10
211.0047503685
20
91.7334981930
11
217.8847224897
21
91.5226480355
62
254
0
LINE
8
Modules
10
217.8847224897
20
91.5226480355
11
217.9930165610
21
95.0562483912
62
254
0
LINE
8
Modules
10
217.9930165610
20
95.0562483912
11
211.1130444398
21
95.2670985486
62
254
0
LINE
8
Modules
10
218.0346636754
20
95.0549720341
11
217.9263696041
21
91.5213716785
62
254
0
LINE
8
Modules
10
217.9263696041
20
91.5213716785
11
224.8063417254
21
91.3105215211
62
254
0
LINE
8
Modules
10
224.8063417254
20
91.3105215211
11
224.9146357967
21
94.8441218767
62
254
0
LINE
8
Modules
10
224.9146357967
20
94.8441218767
11
218.0346636754
21
95.0549720341
62
254
0
LINE
8
Modules
10
224.9562829110
20
94.8428455197
11
224.8479888397
21
91.3092451640
62
254
0
LINE
8
Modules
10
224.8479888397
20
91.3092451640
11
231.7279609610
21
91.0983950066
62
254
0
LINE
8
Modules
10
231.7279609610
20
91.0983950066
11
231.8362550323
21
94.6319953622
62
254
0
LINE
8
Modules
10
231.8362550323
20
94.6319953622
11
224.9562829110
21
94.8428455197
62
254
0
LINE
8
Modules
10
231.8779021466
20
94.6307190052
11
231.7696080753
21
91.0971186496
62
254
0
LINE
8
Modules
10
231.7696080753
20
91.0971186496
11
238.6495801966
21
90.8862684921
62
254
0
LINE
8
Modules
10
238.6495801966
20
90.8862684921
11
238.7578742679
21
94.4198688478
62
254
0
LINE
8
Modules
10
238.7578742679
20
94.4198688478
11
231.8779021466
21
94.6307190052
62
254
0
LINE
8
Modules
10
238.7995213822
20
94.4185924908
11
238.6912273110
21
90.8849921351
62
254
0
LINE
8
Modules
10
238.6912273110
20
90.8849921351
11
245.5711994322
21
90.6741419777
62
254
0
LINE
8
Modules
10
245.5711994322
20
90.6741419777
11
245.6794935035
21
94.2077423333
62
254
0
LINE
8
Modules
10
245.6794935035
20
94.2077423333
11
238.7995213822
21
94.4185924908
62
254
0
LINE
8
Modules
10
245.7211406179
20
94.2064659763
11
245.6128465466
21
90.6728656207
62
254
0
LINE
8
Modules
10
245.6128465466
20
90.6728656207
11
252.4928186678
21
90.4620154632
62
254
0
LINE
8
Modules
10
252.4928186678
20
90.4620154632
11
252.6011127391
21
93.9956158188
62
254
0
LINE
8
Modules
10
252.6011127391
20
93.9956158188
11
245.7211406179
21
94.2064659763
62
254
0
LINE
8
Modules
10
252.6427598535
20
93.9943394618
11
252.5344657822
21
90.4607391062
62
254
0
LINE
8
Modules
10
252.5344657822
20
90.4607391062
11
259.4144379034
21
90.2498889487
62
254
0
LINE
8
Modules
10
259.4144379034
20
90.2498889487
11
259.5227319747
21
93.7834893044
62
254
0
LINE
8
Modules
10
259.5227319747
20
93.7834893044
11
252.6427598535
21
93.9943394618
62
254
0
LINE
8
Modules
10
259.5643790891
20
93.7822129474
11
259.4560850178
21
90.2486125917
62
254
0
LINE
8
Modules
10
259.4560850178
20
90.2486125917
11
266.3360571390
21
90.0377624343
62
254
0
LINE
8
Modules
10
266.3360571390
20
90.0377624343
11
266.4443512103
21
93.5713627899
62
254
0
LINE
8
Modules
10
266.4443512103
20
93.5713627899
11
259.5643790891
21
93.7822129474
62
254
0
LINE
8
Modules
10
266.4859983247
20
93.5700864329
11
266.3777042534
21
90.0364860773
62
254
0
LINE
8
Modules
10
266.3777042534
20
90.0364860773
11
273.2576763747
21
89.8256359198
62
254
0
LINE
8
Modules
10
273.2576763747
20
89.8256359198
11
273.3659704460
21
93.3592362754
62
254
0
LINE
8
Modules
10
273.3659704460
20
93.3592362754
11
266.4859983247
21
93.5700864329
62
254
0
LINE
8
Modules
10
176.3954403028
20
92.7545220058
11
176.2871462315
21
89.2209216502
62
254
0
LINE
8
Modules
10
176.2871462315
20
89.2209216502
11
183.1671183527
21
89.0100714927
62
254
0
LINE
8
Modules
10
183.1671183527
20
89.0100714927
11
183.2754124240
21
92.5436718483
62
254
0
LINE
8
Modules
10
183.2754124240
20
92.5436718483
11
176.3954403028
21
92.7545220058
62
254
0
LINE
8
Modules
10
183.3170595384
20
92.5423954913
11
183.2087654671
21
89.0087951357
62
254
0
LINE
8
Modules
10
183.2087654671
20
89.0087951357
11
190.0887375883
21
88.7979449782
62
254
0
LINE
8
Modules
10
190.0887375883
20
88.7979449782
11
190.1970316596
21
92.3315453339
62
254
0
LINE
8
Modules
10
190.1970316596
20
92.3315453339
11
183.3170595384
21
92.5423954913
62
254
0
LINE
8
Modules
10
190.2386787740
20
92.3302689769
11
190.1303847027
21
88.7966686212
62
254
0
LINE
8
Modules
10
190.1303847027
20
88.7966686212
11
197.0103568240
21
88.5858184638
62
254
0
LINE
8
Modules
10
197.0103568240
20
88.5858184638
11
197.1186508953
21
92.1194188194
62
254
0
LINE
8
Modules
10
197.1186508953
20
92.1194188194
11
190.2386787740
21
92.3302689769
62
254
0
LINE
8
Modules
10
197.1602980096
20
92.1181424624
11
197.0520039383
21
88.5845421068
62
254
0
LINE
8
Modules
10
197.0520039383
20
88.5845421068
11
203.9319760596
21
88.3736919493
62
254
0
LINE
8
Modules
10
203.9319760596
20
88.3736919493
11
204.0402701309
21
91.9072923049
62
254
0
LINE
8
Modules
10
204.0402701309
20
91.9072923049
11
197.1602980096
21
92.1181424624
62
254
0
LINE
8
Modules
10
204.0819172452
20
91.9060159479
11
203.9736231739
21
88.3724155923
62
254
0
LINE
8
Modules
10
203.9736231739
20
88.3724155923
11
210.8535952952
21
88.1615654349
62
254
0
LINE
8
Modules
10
210.8535952952
20
88.1615654349
11
210.9618893665
21
91.6951657905
62
254
0
LINE
8
Modules
10
210.9618893665
20
91.6951657905
11
204.0819172452
21
91.9060159479
62
254
0
LINE
8
Modules
10
211.0035364808
20
91.6938894335
11
210.8952424096
21
88.1602890778
62
254
0
LINE
8
Modules
10
210.8952424096
20
88.1602890778
11
217.7752145308
21
87.9494389204
62
254
0
LINE
8
Modules
10
217.7752145308
20
87.9494389204
11
217.8835086021
21
91.4830392760
62
254
0
LINE
8
Modules
10
217.8835086021
20
91.4830392760
11
211.0035364808
21
91.6938894335
62
254
0
LINE
8
Modules
10
217.9251557165
20
91.4817629190
11
217.8168616452
21
87.9481625634
62
254
0
LINE
8
Modules
10
217.8168616452
20
87.9481625634
11
224.6968337664
21
87.7373124059
62
254
0
LINE
8
Modules
10
224.6968337664
20
87.7373124059
11
224.8051278377
21
91.2709127616
62
254
0
LINE
8
Modules
10
224.8051278377
20
91.2709127616
11
217.9251557165
21
91.4817629190
62
254
0
LINE
8
Modules
10
224.8467749521
20
91.2696364045
11
224.7384808808
21
87.7360360489
62
254
0
LINE
8
Modules
10
224.7384808808
20
87.7360360489
11
231.6184530020
21
87.5251858915
62
254
0
LINE
8
Modules
10
231.6184530020
20
87.5251858915
11
231.7267470733
21
91.0587862471
62
254
0
LINE
8
Modules
10
231.7267470733
20
91.0587862471
11
224.8467749521
21
91.2696364045
62
254
0
LINE
8
Modules
10
231.7683941877
20
91.0575098901
11
231.6601001164
21
87.5239095345
62
254
0
LINE
8
Modules
10
231.6601001164
20
87.5239095345
11
238.5400722376
21
87.3130593770
62
254
0
LINE
8
Modules
10
238.5400722376
20
87.3130593770
11
238.6483663089
21
90.8466597326
62
254
0
LINE
8
Modules
10
238.6483663089
20
90.8466597326
11
231.7683941877
21
91.0575098901
62
254
0
LINE
8
Modules
10
238.6900134233
20
90.8453833756
11
238.5817193520
21
87.3117830200
62
254
0
LINE
8
Modules
10
238.5817193520
20
87.3117830200
11
245.4616914733
21
87.1009328625
62
254
0
LINE
8
Modules
10
245.4616914733
20
87.1009328625
11
245.5699855446
21
90.6345332182
62
254
0
LINE
8
Modules
10
245.5699855446
20
90.6345332182
11
238.6900134233
21
90.8453833756
62
254
0
LINE
8
Modules
10
245.6116326589
20
90.6332568612
11
245.5033385876
21
87.0996565055
62
254
0
LINE
8
Modules
10
245.5033385876
20
87.0996565055
11
252.3833107089
21
86.8888063481
62
254
0
LINE
8
Modules
10
252.3833107089
20
86.8888063481
11
252.4916047802
21
90.4224067037
62
254
0
LINE
8
Modules
10
252.4916047802
20
90.4224067037
11
245.6116326589
21
90.6332568612
62
254
0
LINE
8
Modules
10
252.5332518945
20
90.4211303467
11
252.4249578232
21
86.8875299911
62
254
0
LINE
8
Modules
10
252.4249578232
20
86.8875299911
11
259.3049299445
21
86.6766798336
62
254
0
LINE
8
Modules
10
259.3049299445
20
86.6766798336
11
259.4132240158
21
90.2102801892
62
254
0
LINE
8
Modules
10
259.4132240158
20
90.2102801892
11
252.5332518945
21
90.4211303467
62
254
0
LINE
8
Modules
10
259.4548711301
20
90.2090038322
11
259.3465770589
21
86.6754034766
62
254
0
LINE
8
Modules
10
259.3465770589
20
86.6754034766
11
266.2265491801
21
86.4645533191
62
254
0
LINE
8
Modules
10
266.2265491801
20
86.4645533191
11
266.3348432514
21
89.9981536748
62
254
0
LINE
8
Modules
10
266.3348432514
20
89.9981536748
11
259.4548711301
21
90.2090038322
62
254
0
LINE
8
Modules
10
266.3764903658
20
89.9968773178
11
266.2681962945
21
86.4632769621
62
254
0
LINE
8
Modules
10
266.2681962945
20
86.4632769621
11
273.1481684157
21
86.2524268047
62
254
0
LINE
8
Modules
10
273.1481684157
20
86.2524268047
11
273.2564624870
21
89.7860271603
62
254
0
LINE
8
Modules
10
273.2564624870
20
89.7860271603
11
266.3764903658
21
89.9968773178
62
254
0
LINE
8
Modules
10
176.2859323438
20
89.1813128907
11
176.1776382725
21
85.6477125350
62
254
0
LINE
8
Modules
10
176.1776382725
20
85.6477125350
11
183.0576103938
21
85.4368623776
62
254
0
LINE
8
Modules
10
183.0576103938
20
85.4368623776
11
183.1659044651
21
88.9704627332
62
254
0
LINE
8
Modules
10
183.1659044651
20
88.9704627332
11
176.2859323438
21
89.1813128907
62
254
0
LINE
8
Modules
10
183.2075515795
20
88.9691863762
11
183.0992575082
21
85.4355860206
62
254
0
LINE
8
Modules
10
183.0992575082
20
85.4355860206
11
189.9792296294
21
85.2247358631
62
254
0
LINE
8
Modules
10
189.9792296294
20
85.2247358631
11
190.0875237007
21
88.7583362187
62
254
0
LINE
8
Modules
10
190.0875237007
20
88.7583362187
11
183.2075515795
21
88.9691863762
62
254
0
LINE
8
Modules
10
190.1291708151
20
88.7570598617
11
190.0208767438
21
85.2234595061
62
254
0
LINE
8
Modules
10
190.0208767438
20
85.2234595061
11
196.9008488650
21
85.0126093486
62
254
0
LINE
8
Modules
10
196.9008488650
20
85.0126093486
11
197.0091429363
21
88.5462097043
62
254
0
LINE
8
Modules
10
197.0091429363
20
88.5462097043
11
190.1291708151
21
88.7570598617
62
254
0
LINE
8
Modules
10
197.0507900507
20
88.5449333473
11
196.9424959794
21
85.0113329916
62
254
0
LINE
8
Modules
10
196.9424959794
20
85.0113329916
11
203.8224681006
21
84.8004828342
62
254
0
LINE
8
Modules
10
203.8224681006
20
84.8004828342
11
203.9307621719
21
88.3340831898
62
254
0
LINE
8
Modules
10
203.9307621719
20
88.3340831898
11
197.0507900507
21
88.5449333473
62
254
0
LINE
8
Modules
10
203.9724092863
20
88.3328068328
11
203.8641152150
21
84.7992064772
62
254
0
LINE
8
Modules
10
203.8641152150
20
84.7992064772
11
210.7440873363
21
84.5883563197
62
254
0
LINE
8
Modules
10
210.7440873363
20
84.5883563197
11
210.8523814075
21
88.1219566753
62
254
0
LINE
8
Modules
10
210.8523814075
20
88.1219566753
11
203.9724092863
21
88.3328068328
62
254
0
LINE
8
Modules
10
210.8940285219
20
88.1206803183
11
210.7857344506
21
84.5870799627
62
254
0
LINE
8
Modules
10
210.7857344506
20
84.5870799627
11
217.6657065719
21
84.3762298053
62
254
0
LINE
8
Modules
10
217.6657065719
20
84.3762298053
11
217.7740006432
21
87.9098301609
62
254
0
LINE
8
Modules
10
217.7740006432
20
87.9098301609
11
210.8940285219
21
88.1206803183
62
254
0
LINE
8
Modules
10
217.8156477575
20
87.9085538039
11
217.7073536862
21
84.3749534482
62
254
0
LINE
8
Modules
10
217.7073536862
20
84.3749534482
11
224.5873258075
21
84.1641032908
62
254
0
LINE
8
Modules
10
224.5873258075
20
84.1641032908
11
224.6956198788
21
87.6977036464
62
254
0
LINE
8
Modules
10
224.6956198788
20
87.6977036464
11
217.8156477575
21
87.9085538039
62
254
0
LINE
8
Modules
10
224.7372669931
20
87.6964272894
11
224.6289729218
21
84.1628269338
62
254
0
LINE
8
Modules
10
224.6289729218
20
84.1628269338
11
231.5089450431
21
83.9519767763
62
254
0
LINE
8
Modules
10
231.5089450431
20
83.9519767763
11
231.6172391144
21
87.4855771320
62
254
0
LINE
8
Modules
10
231.6172391144
20
87.4855771320
11
224.7372669931
21
87.6964272894
62
254
0
LINE
8
Modules
10
231.6588862288
20
87.4843007749
11
231.5505921575
21
83.9507004193
62
254
0
LINE
8
Modules
10
231.5505921575
20
83.9507004193
11
238.4305642787
21
83.7398502619
62
254
0
LINE
8
Modules
10
238.4305642787
20
83.7398502619
11
238.5388583500
21
87.2734506175
62
254
0
LINE
8
Modules
10
238.5388583500
20
87.2734506175
11
231.6588862288
21
87.4843007749
62
254
0
LINE
8
Modules
10
238.5805054644
20
87.2721742605
11
238.4722113931
21
83.7385739049
62
254
0
LINE
8
Modules
10
238.4722113931
20
83.7385739049
11
245.3521835143
21
83.5277237474
62
254
0
LINE
8
Modules
10
245.3521835143
20
83.5277237474
11
245.4604775856
21
87.0613241030
62
254
0
LINE
8
Modules
10
245.4604775856
20
87.0613241030
11
238.5805054644
21
87.2721742605
62
254
0
LINE
8
Modules
10
245.5021247000
20
87.0600477460
11
245.3938306287
21
83.5264473904
62
254
0
LINE
8
Modules
10
245.3938306287
20
83.5264473904
11
252.2738027499
21
83.3155972329
62
254
0
LINE
8
Modules
10
252.2738027499
20
83.3155972329
11
252.3820968212
21
86.8491975886
62
254
0
LINE
8
Modules
10
252.3820968212
20
86.8491975886
11
245.5021247000
21
87.0600477460
62
254
0
LINE
8
Modules
10
252.4237439356
20
86.8479212316
11
252.3154498643
21
83.3143208759
62
254
0
LINE
8
Modules
10
252.3154498643
20
83.3143208759
11
259.1954219856
21
83.1034707185
62
254
0
LINE
8
Modules
10
259.1954219856
20
83.1034707185
11
259.3037160568
21
86.6370710741
62
254
0
LINE
8
Modules
10
259.3037160568
20
86.6370710741
11
252.4237439356
21
86.8479212316
62
254
0
LINE
8
Modules
10
259.3453631712
20
86.6357947171
11
259.2370690999
21
83.1021943615
62
254
0
LINE
8
Modules
10
259.2370690999
20
83.1021943615
11
266.1170412212
21
82.8913442040
62
254
0
LINE
8
Modules
10
266.1170412212
20
82.8913442040
11
266.2253352925
21
86.4249445596
62
254
0
LINE
8
Modules
10
266.2253352925
20
86.4249445596
11
259.3453631712
21
86.6357947171
62
254
0
LINE
8
Modules
10
266.2669824068
20
86.4236682026
11
266.1586883355
21
82.8900678470
62
254
0
LINE
8
Modules
10
266.1586883355
20
82.8900678470
11
273.0386604568
21
82.6792176895
62
254
0
LINE
8
Modules
10
273.0386604568
20
82.6792176895
11
273.1469545281
21
86.2128180452
62
254
0
LINE
8
Modules
10
273.1469545281
20
86.2128180452
11
266.2669824068
21
86.4236682026
62
254
0
LINE
8
Modules
10
176.2275180983
20
80.0926728780
11
176.1192240270
21
76.5590725224
62
254
0
LINE
8
Modules
10
176.1192240270
20
76.5590725224
11
182.9991961483
21
76.3482223649
62
254
0
LINE
8
Modules
10
182.9991961483
20
76.3482223649
11
183.1074902196
21
79.8818227206
62
254
0
LINE
8
Modules
10
183.1074902196
20
79.8818227206
11
176.2275180983
21
80.0926728780
62
254
0
LINE
8
Modules
10
183.1491373339
20
79.8805463635
11
183.0408432626
21
76.3469460079
62
254
0
LINE
8
Modules
10
183.0408432626
20
76.3469460079
11
189.9208153839
21
76.1360958505
62
254
0
LINE
8
Modules
10
189.9208153839
20
76.1360958505
11
190.0291094552
21
79.6696962061
62
254
0
LINE
8
Modules
10
190.0291094552
20
79.6696962061
11
183.1491373339
21
79.8805463635
62
254
0
LINE
8
Modules
10
190.0707565695
20
79.6684198491
11
189.9624624983
21
76.1348194935
62
254
0
LINE
8
Modules
10
189.9624624983
20
76.1348194935
11
196.8424346195
21
75.9239693360
62
254
0
LINE
8
Modules
10
196.8424346195
20
75.9239693360
11
196.9507286908
21
79.4575696916
62
254
0
LINE
8
Modules
10
196.9507286908
20
79.4575696916
11
190.0707565695
21
79.6684198491
62
254
0
LINE
8
Modules
10
196.9923758052
20
79.4562933346
11
196.8840817339
21
75.9226929790
62
254
0
LINE
8
Modules
10
196.8840817339
20
75.9226929790
11
203.7640538551
21
75.7118428215
62
254
0
LINE
8
Modules
10
203.7640538551
20
75.7118428215
11
203.8723479264
21
79.2454431772
62
254
0
LINE
8
Modules
10
203.8723479264
20
79.2454431772
11
196.9923758052
21
79.4562933346
62
254
0
LINE
8
Modules
10
203.9139950408
20
79.2441668202
11
203.8057009695
21
75.7105664645
62
254
0
LINE
8
Modules
10
203.8057009695
20
75.7105664645
11
210.6856730907
21
75.4997163071
62
254
0
LINE
8
Modules
10
210.6856730907
20
75.4997163071
11
210.7939671620
21
79.0333166627
62
254
0
LINE
8
Modules
10
210.7939671620
20
79.0333166627
11
203.9139950408
21
79.2441668202
62
254
0
LINE
8
Modules
10
210.8356142764
20
79.0320403057
11
210.7273202051
21
75.4984399501
62
254
0
LINE
8
Modules
10
210.7273202051
20
75.4984399501
11
217.6072923263
21
75.2875897926
62
254
0
LINE
8
Modules
10
217.6072923263
20
75.2875897926
11
217.7155863976
21
78.8211901482
62
254
0
LINE
8
Modules
10
217.7155863976
20
78.8211901482
11
210.8356142764
21
79.0320403057
62
254
0
LINE
8
Modules
10
217.7572335120
20
78.8199137912
11
217.6489394407
21
75.2863134356
62
254
0
LINE
8
Modules
10
217.6489394407
20
75.2863134356
11
224.5289115620
21
75.0754632781
62
254
0
LINE
8
Modules
10
224.5289115620
20
75.0754632781
11
224.6372056333
21
78.6090636338
62
254
0
LINE
8
Modules
10
224.6372056333
20
78.6090636338
11
217.7572335120
21
78.8199137912
62
254
0
LINE
8
Modules
10
224.6788527476
20
78.6077872768
11
224.5705586763
21
75.0741869211
62
254
0
LINE
8
Modules
10
224.5705586763
20
75.0741869211
11
231.4505307976
21
74.8633367637
62
254
0
LINE
8
Modules
10
231.4505307976
20
74.8633367637
11
231.5588248689
21
78.3969371193
62
254
0
LINE
8
Modules
10
231.5588248689
20
78.3969371193
11
224.6788527476
21
78.6077872768
62
254
0
LINE
8
Modules
10
231.6004719832
20
78.3956607623
11
231.4921779119
21
74.8620604067
62
254
0
LINE
8
Modules
10
231.4921779119
20
74.8620604067
11
238.3721500332
21
74.6512102492
62
254
0
LINE
8
Modules
10
238.3721500332
20
74.6512102492
11
238.4804441045
21
78.1848106048
62
254
0
LINE
8
Modules
10
238.4804441045
20
78.1848106048
11
231.6004719832
21
78.3956607623
62
254
0
LINE
8
Modules
10
238.5220912188
20
78.1835342478
11
238.4137971476
21
74.6499338922
62
254
0
LINE
8
Modules
10
238.4137971476
20
74.6499338922
11
245.2937692688
21
74.4390837347
62
254
0
LINE
8
Modules
10
245.2937692688
20
74.4390837347
11
245.4020633401
21
77.9726840904
62
254
0
LINE
8
Modules
10
245.4020633401
20
77.9726840904
11
238.5220912188
21
78.1835342478
62
254
0
LINE
8
Modules
10
245.4437104545
20
77.9714077334
11
245.3354163832
21
74.4378073777
62
254
0
LINE
8
Modules
10
245.3354163832
20
74.4378073777
11
252.2153885044
21
74.2269572203
62
254
0
LINE
8
Modules
10
252.2153885044
20
74.2269572203
11
252.3236825757
21
77.7605575759
62
254
0
LINE
8
Modules
10
252.3236825757
20
77.7605575759
11
245.4437104545
21
77.9714077334
62
254
0
LINE
8
Modules
10
252.3653296901
20
77.7592812189
11
252.2570356188
21
74.2256808633
62
254
0
LINE
8
Modules
10
252.2570356188
20
74.2256808633
11
259.1370077400
21
74.0148307058
62
254
0
LINE
8
Modules
10
259.1370077400
20
74.0148307058
11
259.2453018113
21
77.5484310614
62
254
0
LINE
8
Modules
10
259.2453018113
20
77.5484310614
11
252.3653296901
21
77.7592812189
62
254
0
LINE
8
Modules
10
259.2869489257
20
77.5471547044
11
259.1786548544
21
74.0135543488
62
254
0
LINE
8
Modules
10
259.1786548544
20
74.0135543488
11
266.0586269756
21
73.8027041913
62
254
0
LINE
8
Modules
10
266.0586269756
20
73.8027041913
11
266.1669210469
21
77.3363045470
62
254
0
LINE
8
Modules
10
266.1669210469
20
77.3363045470
11
259.2869489257
21
77.5471547044
62
254
0
LINE
8
Modules
10
266.2085681613
20
77.3350281900
11
266.1002740900
21
73.8014278343
62
254
0
LINE
8
Modules
10
266.1002740900
20
73.8014278343
11
272.9802462113
21
73.5905776769
62
254
0
LINE
8
Modules
10
272.9802462113
20
73.5905776769
11
273.0885402826
21
77.1241780325
62
254
0
LINE
8
Modules
10
273.0885402826
20
77.1241780325
11
266.2085681613
21
77.3350281900
62
254
0
LINE
8
Modules
10
176.1180101394
20
76.5194637629
11
176.0097160681
21
72.9858634072
62
254
0
LINE
8
Modules
10
176.0097160681
20
72.9858634072
11
182.8896881893
21
72.7750132498
62
254
0
LINE
8
Modules
10
182.8896881893
20
72.7750132498
11
182.9979822606
21
76.3086136054
62
254
0
LINE
8
Modules
10
182.9979822606
20
76.3086136054
11
176.1180101394
21
76.5194637629
62
254
0
LINE
8
Modules
10
183.0396293750
20
76.3073372484
11
182.9313353037
21
72.7737368928
62
254
0
LINE
8
Modules
10
182.9313353037
20
72.7737368928
11
189.8113074250
21
72.5628867353
62
254
0
LINE
8
Modules
10
189.8113074250
20
72.5628867353
11
189.9196014962
21
76.0964870910
62
254
0
LINE
8
Modules
10
189.9196014962
20
76.0964870910
11
183.0396293750
21
76.3073372484
62
254
0
LINE
8
Modules
10
189.9612486106
20
76.0952107340
11
189.8529545393
21
72.5616103783
62
254
0
LINE
8
Modules
10
189.8529545393
20
72.5616103783
11
196.7329266606
21
72.3507602209
62
254
0
LINE
8
Modules
10
196.7329266606
20
72.3507602209
11
196.8412207319
21
75.8843605765
62
254
0
LINE
8
Modules
10
196.8412207319
20
75.8843605765
11
189.9612486106
21
76.0952107340
62
254
0
LINE
8
Modules
10
196.8828678462
20
75.8830842195
11
196.7745737749
21
72.3494838639
62
254
0
LINE
8
Modules
10
196.7745737749
20
72.3494838639
11
203.6545458962
21
72.1386337064
62
254
0
LINE
8
Modules
10
203.6545458962
20
72.1386337064
11
203.7628399675
21
75.6722340620
62
254
0
LINE
8
Modules
10
203.7628399675
20
75.6722340620
11
196.8828678462
21
75.8830842195
62
254
0
LINE
8
Modules
10
203.8044870818
20
75.6709577050
11
203.6961930105
21
72.1373573494
62
254
0
LINE
8
Modules
10
203.6961930105
20
72.1373573494
11
210.5761651318
21
71.9265071919
62
254
0
LINE
8
Modules
10
210.5761651318
20
71.9265071919
11
210.6844592031
21
75.4601075476
62
254
0
LINE
8
Modules
10
210.6844592031
20
75.4601075476
11
203.8044870818
21
75.6709577050
62
254
0
LINE
8
Modules
10
210.7261063174
20
75.4588311906
11
210.6178122462
21
71.9252308349
62
254
0
LINE
8
Modules
10
210.6178122462
20
71.9252308349
11
217.4977843674
21
71.7143806775
62
254
0
LINE
8
Modules
10
217.4977843674
20
71.7143806775
11
217.6060784387
21
75.2479810331
62
254
0
LINE
8
Modules
10
217.6060784387
20
75.2479810331
11
210.7261063174
21
75.4588311906
62
254
0
LINE
8
Modules
10
217.6477255531
20
75.2467046761
11
217.5394314818
21
71.7131043205
62
254
0
LINE
8
Modules
10
217.5394314818
20
71.7131043205
11
224.4194036030
21
71.5022541630
62
254
0
LINE
8
Modules
10
224.4194036030
20
71.5022541630
11
224.5276976743
21
75.0358545186
62
254
0
LINE
8
Modules
10
224.5276976743
20
75.0358545186
11
217.6477255531
21
75.2467046761
62
254
0
LINE
8
Modules
10
224.5693447887
20
75.0345781616
11
224.4610507174
21
71.5009778060
62
254
0
LINE
8
Modules
10
224.4610507174
20
71.5009778060
11
231.3410228386
21
71.2901276485
62
254
0
LINE
8
Modules
10
231.3410228386
20
71.2901276485
11
231.4493169099
21
74.8237280042
62
254
0
LINE
8
Modules
10
231.4493169099
20
74.8237280042
11
224.5693447887
21
75.0345781616
62
254
0
LINE
8
Modules
10
231.4909640243
20
74.8224516472
11
231.3826699530
21
71.2888512915
62
254
0
LINE
8
Modules
10
231.3826699530
20
71.2888512915
11
238.2626420742
21
71.0780011341
62
254
0
LINE
8
Modules
10
238.2626420742
20
71.0780011341
11
238.3709361455
21
74.6116014897
62
254
0
LINE
8
Modules
10
238.3709361455
20
74.6116014897
11
231.4909640243
21
74.8224516472
62
254
0
LINE
8
Modules
10
238.4125832599
20
74.6103251327
11
238.3042891886
21
71.0767247771
62
254
0
LINE
8
Modules
10
238.3042891886
20
71.0767247771
11
245.1842613099
21
70.8658746196
62
254
0
LINE
8
Modules
10
245.1842613099
20
70.8658746196
11
245.2925553812
21
74.3994749752
62
254
0
LINE
8
Modules
10
245.2925553812
20
74.3994749752
11
238.4125832599
21
74.6103251327
62
254
0
LINE
8
Modules
10
245.3342024955
20
74.3981986182
11
245.2259084242
21
70.8645982626
62
254
0
LINE
8
Modules
10
245.2259084242
20
70.8645982626
11
252.1058805455
21
70.6537481051
62
254
0
LINE
8
Modules
10
252.1058805455
20
70.6537481051
11
252.2141746168
21
74.1873484608
62
254
0
LINE
8
Modules
10
252.2141746168
20
74.1873484608
11
245.3342024955
21
74.3981986182
62
254
0
LINE
8
Modules
10
252.2558217311
20
74.1860721038
11
252.1475276598
21
70.6524717481
62
254
0
LINE
8
Modules
10
252.1475276598
20
70.6524717481
11
259.0274997811
21
70.4416215907
62
254
0
LINE
8
Modules
10
259.0274997811
20
70.4416215907
11
259.1357938524
21
73.9752219463
62
254
0
LINE
8
Modules
10
259.1357938524
20
73.9752219463
11
252.2558217311
21
74.1860721038
62
254
0
LINE
8
Modules
10
259.1774409667
20
73.9739455893
11
259.0691468955
21
70.4403452337
62
254
0
LINE
8
Modules
10
259.0691468955
20
70.4403452337
11
265.9491190167
21
70.2294950762
62
254
0
LINE
8
Modules
10
265.9491190167
20
70.2294950762
11
266.0574130880
21
73.7630954318
62
254
0
LINE
8
Modules
10
266.0574130880
20
73.7630954318
11
259.1774409667
21
73.9739455893
62
254
0
LINE
8
Modules
10
266.0990602024
20
73.7618190748
11
265.9907661311
21
70.2282187192
62
254
0
LINE
8
Modules
10
265.9907661311
20
70.2282187192
11
272.8707382523
21
70.0173685617
62
254
0
LINE
8
Modules
10
272.8707382523
20
70.0173685617
11
272.9790323236
21
73.5509689174
62
254
0
LINE
8
Modules
10
272.9790323236
20
73.5509689174
11
266.0990602024
21
73.7618190748
62
254
0
LINE
8
Modules
10
176.0085021804
20
72.9462546477
11
175.9002081091
21
69.4126542921
62
254
0
LINE
8
Modules
10
175.9002081091
20
69.4126542921
11
182.7801802304
21
69.2018041347
62
254
0
LINE
8
Modules
10
182.7801802304
20
69.2018041347
11
182.8884743017
21
72.7354044903
62
254
0
LINE
8
Modules
10
182.8884743017
20
72.7354044903
11
176.0085021804
21
72.9462546477
62
254
0
LINE
8
Modules
10
182.9301214161
20
72.7341281333
11
182.8218273448
21
69.2005277776
62
254
0
LINE
8
Modules
10
182.8218273448
20
69.2005277776
11
189.7017994660
21
68.9896776202
62
254
0
LINE
8
Modules
10
189.7017994660
20
68.9896776202
11
189.8100935373
21
72.5232779758
62
254
0
LINE
8
Modules
10
189.8100935373
20
72.5232779758
11
182.9301214161
21
72.7341281333
62
254
0
LINE
8
Modules
10
189.8517406517
20
72.5220016188
11
189.7434465804
21
68.9884012632
62
254
0
LINE
8
Modules
10
189.7434465804
20
68.9884012632
11
196.6234187016
21
68.7775511057
62
254
0
LINE
8
Modules
10
196.6234187016
20
68.7775511057
11
196.7317127729
21
72.3111514614
62
254
0
LINE
8
Modules
10
196.7317127729
20
72.3111514614
11
189.8517406517
21
72.5220016188
62
254
0
LINE
8
Modules
10
196.7733598873
20
72.3098751044
11
196.6650658160
21
68.7762747487
62
254
0
LINE
8
Modules
10
196.6650658160
20
68.7762747487
11
203.5450379372
21
68.5654245913
62
254
0
LINE
8
Modules
10
203.5450379372
20
68.5654245913
11
203.6533320085
21
72.0990249469
62
254
0
LINE
8
Modules
10
203.6533320085
20
72.0990249469
11
196.7733598873
21
72.3098751044
62
254
0
LINE
8
Modules
10
203.6949791229
20
72.0977485899
11
203.5866850516
21
68.5641482343
62
254
0
LINE
8
Modules
10
203.5866850516
20
68.5641482343
11
210.4666571729
21
68.3532980768
62
254
0
LINE
8
Modules
10
210.4666571729
20
68.3532980768
11
210.5749512441
21
71.8868984324
62
254
0
LINE
8
Modules
10
210.5749512441
20
71.8868984324
11
203.6949791229
21
72.0977485899
62
254
0
LINE
8
Modules
10
210.6165983585
20
71.8856220754
11
210.5083042872
21
68.3520217198
62
254
0
LINE
8
Modules
10
210.5083042872
20
68.3520217198
11
217.3882764085
21
68.1411715623
62
254
0
LINE
8
Modules
10
217.3882764085
20
68.1411715623
11
217.4965704798
21
71.6747719180
62
254
0
LINE
8
Modules
10
217.4965704798
20
71.6747719180
11
210.6165983585
21
71.8856220754
62
254
0
LINE
8
Modules
10
217.5382175941
20
71.6734955610
11
217.4299235228
21
68.1398952053
62
254
0
LINE
8
Modules
10
217.4299235228
20
68.1398952053
11
224.3098956441
21
67.9290450479
62
254
0
LINE
8
Modules
10
224.3098956441
20
67.9290450479
11
224.4181897154
21
71.4626454035
62
254
0
LINE
8
Modules
10
224.4181897154
20
71.4626454035
11
217.5382175941
21
71.6734955610
62
254
0
LINE
8
Modules
10
224.4598368297
20
71.4613690465
11
224.3515427584
21
67.9277686909
62
254
0
LINE
8
Modules
10
224.3515427584
20
67.9277686909
11
231.2315148797
21
67.7169185334
62
254
0
LINE
8
Modules
10
231.2315148797
20
67.7169185334
11
231.3398089510
21
71.2505188890
62
254
0
LINE
8
Modules
10
231.3398089510
20
71.2505188890
11
224.4598368297
21
71.4613690465
62
254
0
LINE
8
Modules
10
231.3814560654
20
71.2492425320
11
231.2731619941
21
67.7156421764
62
254
0
LINE
8
Modules
10
231.2731619941
20
67.7156421764
11
238.1531341153
21
67.5047920189
62
254
0
LINE
8
Modules
10
238.1531341153
20
67.5047920189
11
238.2614281866
21
71.0383923746
62
254
0
LINE
8
Modules
10
238.2614281866
20
71.0383923746
11
231.3814560654
21
71.2492425320
62
254
0
LINE
8
Modules
10
238.3030753010
20
71.0371160176
11
238.1947812297
21
67.5035156619
62
254
0
LINE
8
Modules
10
238.1947812297
20
67.5035156619
11
245.0747533509
21
67.2926655045
62
254
0
LINE
8
Modules
10
245.0747533509
20
67.2926655045
11
245.1830474222
21
70.8262658601
62
254
0
LINE
8
Modules
10
245.1830474222
20
70.8262658601
11
238.3030753010
21
71.0371160176
62
254
0
LINE
8
Modules
10
245.2246945366
20
70.8249895031
11
245.1164004653
21
67.2913891475
62
254
0
LINE
8
Modules
10
245.1164004653
20
67.2913891475
11
251.9963725865
21
67.0805389900
62
254
0
LINE
8
Modules
10
251.9963725865
20
67.0805389900
11
252.1046666578
21
70.6141393456
62
254
0
LINE
8
Modules
10
252.1046666578
20
70.6141393456
11
245.2246945366
21
70.8249895031
62
254
0
LINE
8
Modules
10
252.1463137722
20
70.6128629886
11
252.0380197009
21
67.0792626330
62
254
0
LINE
8
Modules
10
252.0380197009
20
67.0792626330
11
258.9179918222
21
66.8684124755
62
254
0
LINE
8
Modules
10
258.9179918222
20
66.8684124755
11
259.0262858934
21
70.4020128312
62
254
0
LINE
8
Modules
10
259.0262858934
20
70.4020128312
11
252.1463137722
21
70.6128629886
62
254
0
LINE
8
Modules
10
259.0679330078
20
70.4007364742
11
258.9596389365
21
66.8671361185
62
254
0
LINE
8
Modules
10
258.9596389365
20
66.8671361185
11
265.8396110578
21
66.6562859611
62
254
0
LINE
8
Modules
10
265.8396110578
20
66.6562859611
11
265.9479051291
21
70.1898863167
62
254
0
LINE
8
Modules
10
265.9479051291
20
70.1898863167
11
259.0679330078
21
70.4007364742
62
254
0
LINE
8
Modules
10
265.9895522434
20
70.1886099597
11
265.8812581721
21
66.6550096041
62
254
0
LINE
8
Modules
10
265.8812581721
20
66.6550096041
11
272.7612302934
21
66.4441594466
62
254
0
LINE
8
Modules
10
272.7612302934
20
66.4441594466
11
272.8695243647
21
69.9777598022
62
254
0
LINE
8
Modules
10
272.8695243647
20
69.9777598022
11
265.9895522434
21
70.1886099597
62
254
0
LINE
8
Modules
10
175.8989942215
20
69.3730455326
11
175.7907001502
21
65.8394451770
62
254
0
LINE
8
Modules
10
175.7907001502
20
65.8394451770
11
182.6706722715
21
65.6285950195
62
254
0
LINE
8
Modules
10
182.6706722715
20
65.6285950195
11
182.7789663427
21
69.1621953752
62
254
0
LINE
8
Modules
10
182.7789663427
20
69.1621953752
11
175.8989942215
21
69.3730455326
62
254
0
LINE
8
Modules
10
182.8206134571
20
69.1609190181
11
182.7123193858
21
65.6273186625
62
254
0
LINE
8
Modules
10
182.7123193858
20
65.6273186625
11
189.5922915071
21
65.4164685051
62
254
0
LINE
8
Modules
10
189.5922915071
20
65.4164685051
11
189.7005855784
21
68.9500688607
62
254
0
LINE
8
Modules
10
189.7005855784
20
68.9500688607
11
182.8206134571
21
69.1609190181
62
254
0
LINE
8
Modules
10
189.7422326927
20
68.9487925037
11
189.6339386214
21
65.4151921481
62
254
0
LINE
8
Modules
10
189.6339386214
20
65.4151921481
11
196.5139107427
21
65.2043419906
62
254
0
LINE
8
Modules
10
196.5139107427
20
65.2043419906
11
196.6222048140
21
68.7379423462
62
254
0
LINE
8
Modules
10
196.6222048140
20
68.7379423462
11
189.7422326927
21
68.9487925037
62
254
0
LINE
8
Modules
10
196.6638519283
20
68.7366659892
11
196.5555578571
21
65.2030656336
62
254
0
LINE
8
Modules
10
196.5555578571
20
65.2030656336
11
203.4355299783
21
64.9922154761
62
254
0
LINE
8
Modules
10
203.4355299783
20
64.9922154761
11
203.5438240496
21
68.5258158318
62
254
0
LINE
8
Modules
10
203.5438240496
20
68.5258158318
11
196.6638519283
21
68.7366659892
62
254
0
LINE
8
Modules
10
203.5854711640
20
68.5245394748
11
203.4771770927
21
64.9909391191
62
254
0
LINE
8
Modules
10
203.4771770927
20
64.9909391191
11
210.3571492139
21
64.7800889617
62
254
0
LINE
8
Modules
10
210.3571492139
20
64.7800889617
11
210.4654432852
21
68.3136893173
62
254
0
LINE
8
Modules
10
210.4654432852
20
68.3136893173
11
203.5854711640
21
68.5245394748
62
254
0
LINE
8
Modules
10
210.5070903996
20
68.3124129603
11
210.3987963283
21
64.7788126047
62
254
0
LINE
8
Modules
10
210.3987963283
20
64.7788126047
11
217.2787684495
21
64.5679624472
62
254
0
LINE
8
Modules
10
217.2787684495
20
64.5679624472
11
217.3870625208
21
68.1015628028
62
254
0
LINE
8
Modules
10
217.3870625208
20
68.1015628028
11
210.5070903996
21
68.3124129603
62
254
0
LINE
8
Modules
10
217.4287096352
20
68.1002864458
11
217.3204155639
21
64.5666860902
62
254
0
LINE
8
Modules
10
217.3204155639
20
64.5666860902
11
224.2003876851
21
64.3558359327
62
254
0
LINE
8
Modules
10
224.2003876851
20
64.3558359327
11
224.3086817564
21
67.8894362884
62
254
0
LINE
8
Modules
10
224.3086817564
20
67.8894362884
11
217.4287096352
21
68.1002864458
62
254
0
LINE
8
Modules
10
224.3503288708
20
67.8881599314
11
224.2420347995
21
64.3545595757
62
254
0
LINE
8
Modules
10
224.2420347995
20
64.3545595757
11
231.1220069208
21
64.1437094183
62
254
0
LINE
8
Modules
10
231.1220069208
20
64.1437094183
11
231.2303009920
21
67.6773097739
62
254
0
LINE
8
Modules
10
231.2303009920
20
67.6773097739
11
224.3503288708
21
67.8881599314
62
254
0
LINE
8
Modules
10
231.2719481064
20
67.6760334169
11
231.1636540351
21
64.1424330613
62
254
0
LINE
8
Modules
10
231.1636540351
20
64.1424330613
11
238.0436261564
21
63.9315829038
62
254
0
LINE
8
Modules
10
238.0436261564
20
63.9315829038
11
238.1519202277
21
67.4651832594
62
254
0
LINE
8
Modules
10
238.1519202277
20
67.4651832594
11
231.2719481064
21
67.6760334169
62
254
0
LINE
8
Modules
10
238.1935673420
20
67.4639069024
11
238.0852732707
21
63.9303065468
62
254
0
LINE
8
Modules
10
238.0852732707
20
63.9303065468
11
244.9652453920
21
63.7194563893
62
254
0
LINE
8
Modules
10
244.9652453920
20
63.7194563893
11
245.0735394633
21
67.2530567450
62
254
0
LINE
8
Modules
10
245.0735394633
20
67.2530567450
11
238.1935673420
21
67.4639069024
62
254
0
LINE
8
Modules
10
245.1151865776
20
67.2517803880
11
245.0068925064
21
63.7181800323
62
254
0
LINE
8
Modules
10
245.0068925064
20
63.7181800323
11
251.8868646276
21
63.5073298749
62
254
0
LINE
8
Modules
10
251.8868646276
20
63.5073298749
11
251.9951586989
21
67.0409302305
62
254
0
LINE
8
Modules
10
251.9951586989
20
67.0409302305
11
245.1151865776
21
67.2517803880
62
254
0
LINE
8
Modules
10
252.0368058133
20
67.0396538735
11
251.9285117420
21
63.5060535179
62
254
0
LINE
8
Modules
10
251.9285117420
20
63.5060535179
11
258.8084838632
21
63.2952033604
62
254
0
LINE
8
Modules
10
258.8084838632
20
63.2952033604
11
258.9167779345
21
66.8288037160
62
254
0
LINE
8
Modules
10
258.9167779345
20
66.8288037160
11
252.0368058133
21
67.0396538735
62
254
0
LINE
8
Modules
10
258.9584250489
20
66.8275273590
11
258.8501309776
21
63.2939270034
62
254
0
LINE
8
Modules
10
258.8501309776
20
63.2939270034
11
265.7301030988
21
63.0830768459
62
254
0
LINE
8
Modules
10
265.7301030988
20
63.0830768459
11
265.8383971701
21
66.6166772016
62
254
0
LINE
8
Modules
10
265.8383971701
20
66.6166772016
11
258.9584250489
21
66.8275273590
62
254
0
LINE
8
Modules
10
265.8800442845
20
66.6154008446
11
265.7717502132
21
63.0818004889
62
254
0
LINE
8
Modules
10
265.7717502132
20
63.0818004889
11
272.6517223344
21
62.8709503315
62
254
0
LINE
8
Modules
10
272.6517223344
20
62.8709503315
11
272.7600164057
21
66.4045506871
62
254
0
LINE
8
Modules
10
272.7600164057
20
66.4045506871
11
265.8800442845
21
66.6154008446
62
254
0
LINE
8
Modules
10
175.7894862626
20
65.7998364175
11
175.6811921913
21
62.2662360618
62
254
0
LINE
8
Modules
10
175.6811921913
20
62.2662360618
11
182.5611643125
21
62.0553859044
62
254
0
LINE
8
Modules
10
182.5611643125
20
62.0553859044
11
182.6694583838
21
65.5889862600
62
254
0
LINE
8
Modules
10
182.6694583838
20
65.5889862600
11
175.7894862626
21
65.7998364175
62
254
0
LINE
8
Modules
10
182.7111054982
20
65.5877099030
11
182.6028114269
21
62.0541095474
62
254
0
LINE
8
Modules
10
182.6028114269
20
62.0541095474
11
189.4827835481
21
61.8432593899
62
254
0
LINE
8
Modules
10
189.4827835481
20
61.8432593899
11
189.5910776194
21
65.3768597456
62
254
0
LINE
8
Modules
10
189.5910776194
20
65.3768597456
11
182.7111054982
21
65.5877099030
62
254
0
LINE
8
Modules
10
189.6327247338
20
65.3755833885
11
189.5244306625
21
61.8419830329
62
254
0
LINE
8
Modules
10
189.5244306625
20
61.8419830329
11
196.4044027837
21
61.6311328755
62
254
0
LINE
8
Modules
10
196.4044027837
20
61.6311328755
11
196.5126968550
21
65.1647332311
62
254
0
LINE
8
Modules
10
196.5126968550
20
65.1647332311
11
189.6327247338
21
65.3755833885
62
254
0
LINE
8
Modules
10
196.5543439694
20
65.1634568741
11
196.4460498981
21
61.6298565185
62
254
0
LINE
8
Modules
10
196.4460498981
20
61.6298565185
11
203.3260220194
21
61.4190063610
62
254
0
LINE
8
Modules
10
203.3260220194
20
61.4190063610
11
203.4343160907
21
64.9526067166
62
254
0
LINE
8
Modules
10
203.4343160907
20
64.9526067166
11
196.5543439694
21
65.1634568741
62
254
0
LINE
8
Modules
10
203.4759632050
20
64.9513303596
11
203.3676691337
21
61.4177300040
62
254
0
LINE
8
Modules
10
203.3676691337
20
61.4177300040
11
210.2476412550
21
61.2068798465
62
254
0
LINE
8
Modules
10
210.2476412550
20
61.2068798465
11
210.3559353263
21
64.7404802022
62
254
0
LINE
8
Modules
10
210.3559353263
20
64.7404802022
11
203.4759632050
21
64.9513303596
62
254
0
LINE
8
Modules
10
210.3975824406
20
64.7392038452
11
210.2892883693
21
61.2056034895
62
254
0
LINE
8
Modules
10
210.2892883693
20
61.2056034895
11
217.1692604906
21
60.9947533321
62
254
0
LINE
8
Modules
10
217.1692604906
20
60.9947533321
11
217.2775545619
21
64.5283536877
62
254
0
LINE
8
Modules
10
217.2775545619
20
64.5283536877
11
210.3975824406
21
64.7392038452
62
254
0
LINE
8
Modules
10
217.3192016762
20
64.5270773307
11
217.2109076050
21
60.9934769751
62
254
0
LINE
8
Modules
10
217.2109076050
20
60.9934769751
11
224.0908797262
21
60.7826268176
62
254
0
LINE
8
Modules
10
224.0908797262
20
60.7826268176
11
224.1991737975
21
64.3162271732
62
254
0
LINE
8
Modules
10
224.1991737975
20
64.3162271732
11
217.3192016762
21
64.5270773307
62
254
0
LINE
8
Modules
10
224.2408209119
20
64.3149508162
11
224.1325268406
21
60.7813504606
62
254
0
LINE
8
Modules
10
224.1325268406
20
60.7813504606
11
231.0124989618
21
60.5705003031
62
254
0
LINE
8
Modules
10
231.0124989618
20
60.5705003031
11
231.1207930331
21
64.1041006588
62
254
0
LINE
8
Modules
10
231.1207930331
20
64.1041006588
11
224.2408209119
21
64.3149508162
62
254
0
LINE
8
Modules
10
231.1624401475
20
64.1028243018
11
231.0541460762
21
60.5692239461
62
254
0
LINE
8
Modules
10
231.0541460762
20
60.5692239461
11
237.9341181974
21
60.3583737887
62
254
0
LINE
8
Modules
10
237.9341181974
20
60.3583737887
11
238.0424122687
21
63.8919741443
62
254
0
LINE
8
Modules
10
238.0424122687
20
63.8919741443
11
231.1624401475
21
64.1028243018
62
254
0
LINE
8
Modules
10
238.0840593831
20
63.8906977873
11
237.9757653118
21
60.3570974317
62
254
0
LINE
8
Modules
10
237.9757653118
20
60.3570974317
11
244.8557374330
21
60.1462472742
62
254
0
LINE
8
Modules
10
244.8557374330
20
60.1462472742
11
244.9640315043
21
63.6798476298
62
254
0
LINE
8
Modules
10
244.9640315043
20
63.6798476298
11
238.0840593831
21
63.8906977873
62
254
0
LINE
8
Modules
10
245.0056786187
20
63.6785712728
11
244.8973845474
21
60.1449709172
62
254
0
LINE
8
Modules
10
244.8973845474
20
60.1449709172
11
251.7773566687
21
59.9341207597
62
254
0
LINE
8
Modules
10
251.7773566687
20
59.9341207597
11
251.8856507400
21
63.4677211154
62
254
0
LINE
8
Modules
10
251.8856507400
20
63.4677211154
11
245.0056786187
21
63.6785712728
62
254
0
LINE
8
Modules
10
251.9272978543
20
63.4664447584
11
251.8190037830
21
59.9328444027
62
254
0
LINE
8
Modules
10
251.8190037830
20
59.9328444027
11
258.6989759043
21
59.7219942453
62
254
0
LINE
8
Modules
10
258.6989759043
20
59.7219942453
11
258.8072699756
21
63.2555946009
62
254
0
LINE
8
Modules
10
258.8072699756
20
63.2555946009
11
251.9272978543
21
63.4664447584
62
254
0
LINE
8
Modules
10
258.8489170899
20
63.2543182439
11
258.7406230186
21
59.7207178883
62
254
0
LINE
8
Modules
10
258.7406230186
20
59.7207178883
11
265.6205951399
21
59.5098677308
62
254
0
LINE
8
Modules
10
265.6205951399
20
59.5098677308
11
265.7288892112
21
63.0434680864
62
254
0
LINE
8
Modules
10
265.7288892112
20
63.0434680864
11
258.8489170899
21
63.2543182439
62
254
0
LINE
8
Modules
10
265.7705363255
20
63.0421917294
11
265.6622422543
21
59.5085913738
62
254
0
LINE
8
Modules
10
265.6622422543
20
59.5085913738
11
272.5422143755
21
59.2977412163
62
254
0
LINE
8
Modules
10
272.5422143755
20
59.2977412163
11
272.6505084468
21
62.8313415720
62
254
0
LINE
8
Modules
10
272.6505084468
20
62.8313415720
11
265.7705363255
21
63.0421917294
62
254
0
LINE
8
Inverters
10
220.0152598679
20
116.3709880936
11
222.4758898679
21
116.3709880936
0
LINE
8
Inverters
10
222.4758898679
20
116.3709880936
11
222.4758898679
21
118.8316180936
0
LINE
8
Inverters
10
222.4758898679
20
118.8316180936
11
220.0152598679
21
118.8316180936
0
LINE
8
Inverters
10
220.0152598679
20
118.8316180936
11
220.0152598679
21
116.3709880936
0
LINE
8
Inverters
10
220.0152598679
20
116.3709880936
11
222.4758898679
21
118.8316180936
0
TEXT
8
Inverters
100
AcDbText
10
220.1793018679
20
117.9129828936
1
DC
7
NewTextStyle_4
40
0.7545932000000003
50
0
0
TEXT
8
Inverters
100
AcDbText
10
221.0159160679
20
116.5350300936
1
AC
7
NewTextStyle_4
40
0.7545932000000003
50
0
0
LINE
8
Inverters
10
219.4370461989
20
44.8715871431
11
221.8976761989
21
44.8715871431
0
LINE
8
Inverters
10
221.8976761989
20
44.8715871431
11
221.8976761989
21
47.3322171431
0
LINE
8
Inverters
10
221.8976761989
20
47.3322171431
11
219.4370461989
21
47.3322171431
0
LINE
8
Inverters
10
219.4370461989
20
47.3322171431
11
219.4370461989
21
44.8715871431
0
LINE
8
Inverters
10
219.4370461989
20
44.8715871431
11
221.8976761989
21
47.3322171431
0
TEXT
8
Inverters
100
AcDbText
10
219.6010881989
20
46.4135819431
1
DC
7
NewTextStyle_4
40
0.7545932000000003
50
0
0
TEXT
8
Inverters
100
AcDbText
10
220.4377023989
20
45.0356291431
1
AC
7
NewTextStyle_4
40
0.7545932000000003
50
0
0
LINE
8
Strings
10
179.6717713688
20
87.3090876341
11
179.7812793278
21
90.8822967493
62
11
0
LINE
8
Strings
10
179.7812793278
20
90.8822967493
11
179.8907872867
21
94.4555058644
62
11
0
LINE
8
Strings
10
179.8907872867
20
94.4555058644
11
180.0002952456
21
98.0287149795
62
11
0
LINE
8
Strings
10
180.0002952456
20
98.0287149795
11
180.1098032046
21
101.6019240947
62
11
0
LINE
8
Strings
10
180.1098032046
20
101.6019240947
11
187.0314224402
21
101.3897975802
62
11
0
LINE
8
Strings
10
187.0314224402
20
101.3897975802
11
186.9219144812
21
97.8165884651
62
11
0
LINE
8
Strings
10
186.8124065223
20
94.2433793499
11
186.7028985634
21
90.6701702348
62
11
0
LINE
8
Strings
10
186.7028985634
20
90.6701702348
11
186.5933906044
21
87.0969611197
62
11
0
LINE
8
Strings
10
186.5933906044
20
87.0969611197
11
193.5150098400
21
86.8848346052
62
11
0
LINE
8
Strings
10
193.5150098400
20
86.8848346052
11
193.6245177990
21
90.4580437203
62
11
0
LINE
8
Strings
10
193.6245177990
20
90.4580437203
11
193.8435337169
21
97.6044619506
62
11
0
LINE
8
Strings
10
193.9530416758
20
101.1776710657
11
200.8746609114
21
100.9655445513
62
11
0
LINE
8
Strings
10
200.8746609114
20
100.9655445513
11
200.7651529525
21
97.3923354361
62
11
0
LINE
8
Strings
10
200.7651529525
20
97.3923354361
11
200.6556449935
21
93.8191263210
62
11
0
LINE
8
Strings
10
200.6556449935
20
93.8191263210
11
200.5461370346
21
90.2459172059
62
11
0
LINE
8
Strings
10
200.5461370346
20
90.2459172059
11
200.4366290757
21
86.6727080907
62
11
0
LINE
8
Strings
10
200.4366290757
20
86.6727080907
11
207.3582483113
21
86.4605815763
62
11
0
LINE
8
Strings
10
207.4677562702
20
90.0337906914
11
207.5772642292
21
93.6069998065
62
11
0
LINE
8
Strings
10
207.5772642292
20
93.6069998065
11
207.6867721881
21
97.1802089217
62
11
0
LINE
8
Strings
10
207.6867721881
20
97.1802089217
11
207.7962801470
21
100.7534180368
62
11
0
LINE
8
Strings
10
207.7962801470
20
100.7534180368
11
214.7178993826
21
100.5412915223
62
11
0
LINE
8
Strings
10
214.7178993826
20
100.5412915223
11
214.4988834648
21
93.3948732921
62
11
0
LINE
8
Strings
10
214.3893755058
20
89.8216641769
11
214.2798675469
21
86.2484550618
62
11
0
LINE
8
Strings
10
214.2798675469
20
86.2484550618
11
221.2014867825
21
86.0363285473
62
11
0
LINE
8
Strings
10
221.2014867825
20
86.0363285473
11
221.3109947414
21
89.6095376625
62
11
0
LINE
8
Strings
10
221.3109947414
20
89.6095376625
11
221.4205027004
21
93.1827467776
62
11
0
LINE
8
Strings
10
221.4205027004
20
93.1827467776
11
221.5300106593
21
96.7559558927
62
11
0
LINE
8
Strings
10
221.5300106593
20
96.7559558927
11
221.6395186183
21
100.3291650079
62
11
0
LINE
8
Strings
10
228.5611378539
20
100.1170384934
11
228.4516298949
21
96.5438293783
62
11
0
LINE
8
Strings
10
228.4516298949
20
96.5438293783
11
228.1231060181
21
85.8242020329
62
11
0
LINE
8
Strings
10
228.1231060181
20
85.8242020329
11
235.0447252537
21
85.6120755184
62
11
0
LINE
8
Strings
10
235.0447252537
20
85.6120755184
11
235.1542332127
21
89.1852846335
62
11
0
LINE
8
Strings
10
235.2637411716
20
92.7584937487
11
235.3732491305
21
96.3317028638
62
11
0
LINE
8
Strings
10
235.3732491305
20
96.3317028638
11
235.4827570895
21
99.9049119789
62
11
0
LINE
8
Strings
10
235.4827570895
20
99.9049119789
11
242.4043763251
21
99.6927854645
62
11
0
LINE
8
Strings
10
242.4043763251
20
99.6927854645
11
242.2948683662
21
96.1195763493
62
11
0
LINE
8
Strings
10
242.2948683662
20
96.1195763493
11
242.1853604072
21
92.5463672342
62
11
0
LINE
8
Strings
10
242.1853604072
20
92.5463672342
11
242.0758524483
21
88.9731581191
62
11
0
LINE
8
Strings
10
241.9663444893
20
85.3999490039
11
248.8879637250
21
85.1878224895
62
11
0
LINE
8
Strings
10
248.8879637250
20
85.1878224895
11
248.9974716839
21
88.7610316046
62
11
0
LINE
8
Strings
10
248.9974716839
20
88.7610316046
11
249.1069796428
21
92.3342407197
62
11
0
LINE
8
Strings
10
249.1069796428
20
92.3342407197
11
249.2164876018
21
95.9074498349
62
11
0
LINE
8
Strings
10
249.2164876018
20
95.9074498349
11
249.3259955607
21
99.4806589500
62
11
0
LINE
8
Strings
10
249.3259955607
20
99.4806589500
11
256.2476147963
21
99.2685324355
62
11
0
LINE
8
Strings
10
256.1381068374
20
95.6953233204
11
256.0285988785
21
92.1221142053
62
11
0
LINE
8
Strings
10
256.0285988785
20
92.1221142053
11
255.9190909195
21
88.5489050901
62
11
0
LINE
8
Strings
10
255.9190909195
20
88.5489050901
11
255.8095829606
21
84.9756959750
62
11
0
LINE
8
Strings
10
255.8095829606
20
84.9756959750
11
262.7312021962
21
84.7635694605
62
11
0
LINE
8
Strings
10
262.7312021962
20
84.7635694605
11
262.8407101551
21
88.3367785757
62
11
0
LINE
8
Strings
10
262.8407101551
20
88.3367785757
11
262.9502181141
21
91.9099876908
62
11
0
LINE
8
Strings
10
263.0597260730
20
95.4831968059
11
263.1692340319
21
99.0564059211
62
11
0
LINE
8
Strings
10
263.1692340319
20
99.0564059211
11
270.0908532676
21
98.8442794066
62
11
0
LINE
8
Strings
10
270.0908532676
20
98.8442794066
11
269.9813453086
21
95.2710702915
62
11
0
LINE
8
Strings
10
269.9813453086
20
95.2710702915
11
269.8718373497
21
91.6978611763
62
11
0
LINE
8
Strings
10
269.8718373497
20
91.6978611763
11
269.7623293907
21
88.1246520612
62
11
0
LINE
8
Strings
10
269.7623293907
20
88.1246520612
11
269.6528214318
21
84.5514429461
62
11
0
LINE
8
Strings
10
179.6133571233
20
78.2204476215
11
179.5038491644
21
74.6472385063
62
11
0
LINE
8
Strings
10
179.5038491644
20
74.6472385063
11
179.3943412054
21
71.0740293912
62
11
0
LINE
8
Strings
10
179.3943412054
20
71.0740293912
11
179.2848332465
21
67.5008202761
62
11
0
LINE
8
Strings
10
179.2848332465
20
67.5008202761
11
179.1753252875
21
63.9276111609
62
11
0
LINE
8
Strings
10
179.1753252875
20
63.9276111609
11
186.0969445232
21
63.7154846465
62
11
0
LINE
8
Strings
10
186.0969445232
20
63.7154846465
11
186.2064524821
21
67.2886937616
62
11
0
LINE
8
Strings
10
186.3159604410
20
70.8619028767
11
186.5349763589
21
78.0083211070
62
11
0
LINE
8
Strings
10
186.5349763589
20
78.0083211070
11
193.4565955945
21
77.7961945925
62
11
0
LINE
8
Strings
10
193.4565955945
20
77.7961945925
11
193.3470876356
21
74.2229854774
62
11
0
LINE
8
Strings
10
193.3470876356
20
74.2229854774
11
193.2375796766
21
70.6497763623
62
11
0
LINE
8
Strings
10
193.2375796766
20
70.6497763623
11
193.1280717177
21
67.0765672471
62
11
0
LINE
8
Strings
10
193.0185637588
20
63.5033581320
11
199.9401829944
21
63.2912316175
62
11
0
LINE
8
Strings
10
199.9401829944
20
63.2912316175
11
200.3782148301
21
77.5840680781
62
11
0
LINE
8
Strings
10
200.3782148301
20
77.5840680781
11
207.2998340658
21
77.3719415636
62
11
0
LINE
8
Strings
10
207.1903261068
20
73.7987324485
11
206.9713101889
21
66.6523142182
62
11
0
LINE
8
Strings
10
206.9713101889
20
66.6523142182
11
206.8618022300
21
63.0791051031
62
11
0
LINE
8
Strings
10
206.8618022300
20
63.0791051031
11
213.7834214656
21
62.8669785886
62
11
0
LINE
8
Strings
10
213.7834214656
20
62.8669785886
11
213.8929294245
21
66.4401877037
62
11
0
LINE
8
Strings
10
213.8929294245
20
66.4401877037
11
214.0024373835
21
70.0133968189
62
11
0
LINE
8
Strings
10
214.1119453424
20
73.5866059340
11
214.2214533014
21
77.1598150491
62
11
0
LINE
8
Strings
10
214.2214533014
20
77.1598150491
11
221.1430725370
21
76.9476885347
62
11
0
LINE
8
Strings
10
221.1430725370
20
76.9476885347
11
221.0335645780
21
73.3744794195
62
11
0
LINE
8
Strings
10
221.0335645780
20
73.3744794195
11
220.9240566191
21
69.8012703044
62
11
0
LINE
8
Strings
10
220.9240566191
20
69.8012703044
11
220.8145486602
21
66.2280611893
62
11
0
LINE
8
Strings
10
220.8145486602
20
66.2280611893
11
220.7050407012
21
62.6548520741
62
11
0
LINE
8
Strings
10
227.6266599368
20
62.4427255597
11
227.7361678958
21
66.0159346748
62
11
0
LINE
8
Strings
10
227.7361678958
20
66.0159346748
11
227.8456758547
21
69.5891437899
62
11
0
LINE
8
Strings
10
227.8456758547
20
69.5891437899
11
227.9551838137
21
73.1623529051
62
11
0
LINE
8
Strings
10
227.9551838137
20
73.1623529051
11
228.0646917726
21
76.7355620202
62
11
0
LINE
8
Strings
10
228.0646917726
20
76.7355620202
11
234.9863110082
21
76.5234355058
62
11
0
LINE
8
Strings
10
234.9863110082
20
76.5234355058
11
234.8768030493
21
72.9502263906
62
11
0
LINE
8
Strings
10
234.7672950903
20
69.3770172755
11
234.6577871314
21
65.8038081603
62
11
0
LINE
8
Strings
10
234.6577871314
20
65.8038081603
11
234.5482791725
21
62.2305990452
62
11
0
LINE
8
Strings
10
234.5482791725
20
62.2305990452
11
241.4698984081
21
62.0184725307
62
11
0
LINE
8
Strings
10
241.4698984081
20
62.0184725307
11
241.5794063670
21
65.5916816459
62
11
0
LINE
8
Strings
10
241.5794063670
20
65.5916816459
11
241.6889143259
21
69.1648907610
62
11
0
LINE
8
Strings
10
241.6889143259
20
69.1648907610
11
241.7984222849
21
72.7380998762
62
11
0
LINE
8
Strings
10
241.9079302438
20
76.3113089913
11
248.8295494794
21
76.0991824768
62
11
0
LINE
8
Strings
10
248.8295494794
20
76.0991824768
11
248.6105335616
21
68.9527642466
62
11
0
LINE
8
Strings
10
248.6105335616
20
68.9527642466
11
248.5010256026
21
65.3795551314
62
11
0
LINE
8
Strings
10
248.5010256026
20
65.3795551314
11
248.3915176437
21
61.8063460163
62
11
0
LINE
8
Strings
10
248.3915176437
20
61.8063460163
11
255.3131368793
21
61.5942195018
62
11
0
LINE
8
Strings
10
255.4226448382
20
65.1674286170
11
255.5321527972
21
68.7406377321
62
11
0
LINE
8
Strings
10
255.5321527972
20
68.7406377321
11
255.6416607561
21
72.3138468472
62
11
0
LINE
8
Strings
10
255.6416607561
20
72.3138468472
11
255.7511687151
21
75.8870559624
62
11
0
LINE
8
Strings
10
255.7511687151
20
75.8870559624
11
262.6727879507
21
75.6749294479
62
11
0
LINE
8
Strings
10
262.6727879507
20
75.6749294479
11
262.5632799917
21
72.1017203328
62
11
0
LINE
8
Strings
10
262.5632799917
20
72.1017203328
11
262.4537720328
21
68.5285112176
62
11
0
LINE
8
Strings
10
262.3442640738
20
64.9553021025
11
262.2347561149
21
61.3820929874
62
11
0
LINE
8
Strings
10
262.2347561149
20
61.3820929874
11
269.1563753505
21
61.1699664729
62
11
0
LINE
8
Strings
10
269.1563753505
20
61.1699664729
11
269.2658833095
21
64.7431755880
62
11
0
LINE
8
Strings
10
269.2658833095
20
64.7431755880
11
269.3753912684
21
68.3163847032
62
11
0
LINE
8
Strings
10
269.3753912684
20
68.3163847032
11
269.4848992273
21
71.8895938183
62
11
0
LINE
8
Strings
10
269.4848992273
20
71.8895938183
11
269.5944071863
21
75.4628029334
62
11
0
LINE
8
Connections
10
186.9219144812
20
97.8165884651
11
186.9219144812
21
98.3087144651
62
91
0
LINE
8
Connections
10
186.9219144812
20
98.3087144651
11
187.4140404812
21
98.3087144651
62
91
0
LINE
8
Connections
10
187.4140404812
20
98.3087144651
11
220.7534488679
21
117.1091770936
62
91
0
LINE
8
Connections
10
220.7534488679
20
117.1091770936
11
220.7534488679
21
117.6013030936
62
91
0
LINE
8
Connections
10
220.7534488679
20
117.6013030936
11
221.2455748679
21
117.6013030936
62
91
0
LINE
8
Connections
10
193.8435337169
20
97.6044619506
11
193.8435337169
21
98.0965879506
62
91
0
LINE
8
Connections
10
193.8435337169
20
98.0965879506
11
194.3356597169
21
98.0965879506
62
91
0
LINE
8
Connections
10
194.3356597169
20
98.0965879506
11
220.7534488679
21
117.1091770936
62
91
0
LINE
8
Connections
10
220.7534488679
20
117.1091770936
11
220.7534488679
21
117.6013030936
62
91
0
LINE
8
Connections
10
220.7534488679
20
117.6013030936
11
221.2455748679
21
117.6013030936
62
91
0
LINE
8
Connections
10
207.3582483113
20
86.4605815763
11
207.3582483113
21
86.9527075763
62
91
0
LINE
8
Connections
10
207.3582483113
20
86.9527075763
11
207.8503743113
21
86.9527075763
62
91
0
LINE
8
Connections
10
207.8503743113
20
86.9527075763
11
220.7534488679
21
117.1091770936
62
91
0
LINE
8
Connections
10
220.7534488679
20
117.1091770936
11
220.7534488679
21
117.6013030936
62
91
0
LINE
8
Connections
10
220.7534488679
20
117.6013030936
11
221.2455748679
21
117.6013030936
62
91
0
LINE
8
Connections
10
214.4988834648
20
93.3948732921
11
214.4988834648
21
93.8869992921
62
91
0
LINE
8
Connections
10
214.4988834648
20
93.8869992921
11
214.9910094648
21
93.8869992921
62
91
0
LINE
8
Connections
10
214.9910094648
20
93.8869992921
11
220.7534488679
21
117.1091770936
62
91
0
LINE
8
Connections
10
220.7534488679
20
117.1091770936
11
220.7534488679
21
117.6013030936
62
91
0
LINE
8
Connections
10
220.7534488679
20
117.6013030936
11
221.2455748679
21
117.6013030936
62
91
0
LINE
8
Connections
10
221.6395186183
20
100.3291650079
11
221.6395186183
21
100.8212910079
62
91
0
LINE
8
Connections
10
221.6395186183
20
100.8212910079
11
221.4425467431
21
100.8212910079
62
91
0
LINE
8
Connections
10
221.4425467431
20
100.8212910079
11
221.4425467431
21
117.6013030936
62
91
0
LINE
8
Connections
10
221.4425467431
20
117.6013030936
11
221.2455748679
21
117.6013030936
62
91
0
LINE
8
Connections
10
235.1542332127
20
89.1852846335
11
235.1542332127
21
89.6774106335
62
91
0
LINE
8
Connections
10
235.1542332127
20
89.6774106335
11
234.6621072127
21
89.6774106335
62
91
0
LINE
8
Connections
10
234.6621072127
20
89.6774106335
11
221.7377008679
21
117.1091770936
62
91
0
LINE
8
Connections
10
221.7377008679
20
117.1091770936
11
221.7377008679
21
117.6013030936
62
91
0
LINE
8
Connections
10
221.7377008679
20
117.6013030936
11
221.2455748679
21
117.6013030936
62
91
0
LINE
8
Connections
10
242.0758524483
20
88.9731581191
11
242.0758524483
21
89.4652841191
62
91
0
LINE
8
Connections
10
242.0758524483
20
89.4652841191
11
241.5837264483
21
89.4652841191
62
91
0
LINE
8
Connections
10
241.5837264483
20
89.4652841191
11
221.7377008679
21
117.1091770936
62
91
0
LINE
8
Connections
10
221.7377008679
20
117.1091770936
11
221.7377008679
21
117.6013030936
62
91
0
LINE
8
Connections
10
221.7377008679
20
117.6013030936
11
221.2455748679
21
117.6013030936
62
91
0
LINE
8
Connections
10
256.2476147963
20
99.2685324355
11
256.2476147963
21
99.7606584355
62
91
0
LINE
8
Connections
10
256.2476147963
20
99.7606584355
11
255.7554887963
21
99.7606584355
62
91
0
LINE
8
Connections
10
255.7554887963
20
99.7606584355
11
221.7377008679
21
117.1091770936
62
91
0
LINE
8
Connections
10
221.7377008679
20
117.1091770936
11
221.7377008679
21
117.6013030936
62
91
0
LINE
8
Connections
10
221.7377008679
20
117.6013030936
11
221.2455748679
21
117.6013030936
62
91
0
LINE
8
Connections
10
262.9502181141
20
91.9099876908
11
262.9502181141
21
92.4021136908
62
91
0
LINE
8
Connections
10
262.9502181141
20
92.4021136908
11
262.4580921141
21
92.4021136908
62
91
0
LINE
8
Connections
10
262.4580921141
20
92.4021136908
11
221.7377008679
21
117.1091770936
62
91
0
LINE
8
Connections
10
221.7377008679
20
117.1091770936
11
221.7377008679
21
117.6013030936
62
91
0
LINE
8
Connections
10
221.7377008679
20
117.6013030936
11
221.2455748679
21
117.6013030936
62
91
0
LINE
8
Connections
10
269.6528214318
20
84.5514429461
11
269.6528214318
21
85.0435689461
62
91
0
LINE
8
Connections
10
269.6528214318
20
85.0435689461
11
269.1606954318
21
85.0435689461
62
91
0
LINE
8
Connections
10
269.1606954318
20
85.0435689461
11
221.7377008679
21
117.1091770936
62
91
0
LINE
8
Connections
10
221.7377008679
20
117.1091770936
11
221.7377008679
21
117.6013030936
62
91
0
LINE
8
Connections
10
221.7377008679
20
117.6013030936
11
221.2455748679
21
117.6013030936
62
91
0
LINE
8
Connections
10
186.2064524821
20
67.2886937616
11
186.2064524821
21
66.7965677616
62
91
0
LINE
8
Connections
10
186.2064524821
20
66.7965677616
11
186.6985784821
21
66.7965677616
62
91
0
LINE
8
Connections
10
186.6985784821
20
66.7965677616
11
220.1752351989
21
46.5940281431
62
91
0
LINE
8
Connections
10
220.1752351989
20
46.5940281431
11
220.1752351989
21
46.1019021431
62
91
0
LINE
8
Connections
10
220.1752351989
20
46.1019021431
11
220.6673611989
21
46.1019021431
62
91
0
LINE
8
Connections
10
193.1280717177
20
67.0765672471
11
193.1280717177
21
66.5844412471
62
91
0
LINE
8
Connections
10
193.1280717177
20
66.5844412471
11
193.6201977177
21
66.5844412471
62
91
0
LINE
8
Connections
10
193.6201977177
20
66.5844412471
11
220.1752351989
21
46.5940281431
62
91
0
LINE
8
Connections
10
220.1752351989
20
46.5940281431
11
220.1752351989
21
46.1019021431
62
91
0
LINE
8
Connections
10
220.1752351989
20
46.1019021431
11
220.6673611989
21
46.1019021431
62
91
0
LINE
8
Connections
10
207.2998340658
20
77.3719415636
11
207.2998340658
21
76.8798155636
62
91
0
LINE
8
Connections
10
207.2998340658
20
76.8798155636
11
207.7919600658
21
76.8798155636
62
91
0
LINE
8
Connections
10
207.7919600658
20
76.8798155636
11
220.1752351989
21
46.5940281431
62
91
0
LINE
8
Connections
10
220.1752351989
20
46.5940281431
11
220.1752351989
21
46.1019021431
62
91
0
LINE
8
Connections
10
220.1752351989
20
46.1019021431
11
220.6673611989
21
46.1019021431
62
91
0
LINE
8
Connections
10
214.0024373835
20
70.0133968189
11
214.0024373835
21
69.5212708189
62
91
0
LINE
8
Connections
10
214.0024373835
20
69.5212708189
11
214.4945633835
21
69.5212708189
62
91
0
LINE
8
Connections
10
214.4945633835
20
69.5212708189
11
220.1752351989
21
46.5940281431
62
91
0
LINE
8
Connections
10
220.1752351989
20
46.5940281431
11
220.1752351989
21
46.1019021431
62
91
0
LINE
8
Connections
10
220.1752351989
20
46.1019021431
11
220.6673611989
21
46.1019021431
62
91
0
LINE
8
Connections
10
220.7050407012
20
62.6548520741
11
220.7050407012
21
62.1627260741
62
91
0
LINE
8
Connections
10
220.7050407012
20
62.1627260741
11
220.6862009501
21
62.1627260741
62
91
0
LINE
8
Connections
10
220.6862009501
20
62.1627260741
11
220.6862009501
21
46.1019021431
62
91
0
LINE
8
Connections
10
220.6862009501
20
46.1019021431
11
220.6673611989
21
46.1019021431
62
91
0
LINE
8
Connections
10
234.8768030493
20
72.9502263906
11
234.8768030493
21
72.4581003906
62
91
0
LINE
8
Connections
10
234.8768030493
20
72.4581003906
11
234.3846770493
21
72.4581003906
62
91
0
LINE
8
Connections
10
234.3846770493
20
72.4581003906
11
221.1594871989
21
46.5940281431
62
91
0
LINE
8
Connections
10
221.1594871989
20
46.5940281431
11
221.1594871989
21
46.1019021431
62
91
0
LINE
8
Connections
10
221.1594871989
20
46.1019021431
11
220.6673611989
21
46.1019021431
62
91
0
LINE
8
Connections
10
241.7984222849
20
72.7380998762
11
241.7984222849
21
72.2459738762
62
91
0
LINE
8
Connections
10
241.7984222849
20
72.2459738762
11
241.3062962849
21
72.2459738762
62
91
0
LINE
8
Connections
10
241.3062962849
20
72.2459738762
11
221.1594871989
21
46.5940281431
62
91
0
LINE
8
Connections
10
221.1594871989
20
46.5940281431
11
221.1594871989
21
46.1019021431
62
91
0
LINE
8
Connections
10
221.1594871989
20
46.1019021431
11
220.6673611989
21
46.1019021431
62
91
0
LINE
8
Connections
10
255.3131368793
20
61.5942195018
11
255.3131368793
21
61.1020935018
62
91
0
LINE
8
Connections
10
255.3131368793
20
61.1020935018
11
254.8210108793
21
61.1020935018
62
91
0
LINE
8
Connections
10
254.8210108793
20
61.1020935018
11
221.1594871989
21
46.5940281431
62
91
0
LINE
8
Connections
10
221.1594871989
20
46.5940281431
11
221.1594871989
21
46.1019021431
62
91
0
LINE
8
Connections
10
221.1594871989
20
46.1019021431
11
220.6673611989
21
46.1019021431
62
91
0
LINE
8
Connections
10
262.4537720328
20
68.5285112176
11
262.4537720328
21
68.0363852176
62
91
0
LINE
8
Connections
10
262.4537720328
20
68.0363852176
11
261.9616460328
21
68.0363852176
62
91
0
LINE
8
Connections
10
261.9616460328
20
68.0363852176
11
221.1594871989
21
46.5940281431
62
91
0
LINE
8
Connections
10
221.1594871989
20
46.5940281431
11
221.1594871989
21
46.1019021431
62
91
0
LINE
8
Connections
10
221.1594871989
20
46.1019021431
11
220.6673611989
21
46.1019021431
62
91
0
LINE
8
Connections
10
269.5944071863
20
75.4628029334
11
269.5944071863
21
74.9706769334
62
91
0
LINE
8
Connections
10
269.5944071863
20
74.9706769334
11
269.1022811863
21
74.9706769334
62
91
0
LINE
8
Connections
10
269.1022811863
20
74.9706769334
11
221.1594871989
21
46.5940281431
62
91
0
LINE
8
Connections
10
221.1594871989
20
46.5940281431
11
221.1594871989
21
46.1019021431
62
91
0
LINE
8
Connections
10
221.1594871989
20
46.1019021431
11
220.6673611989
21
46.1019021431
62
91
0
ENDSEC
0
EOF