999
Design created by Aurora
0
SECTION
2
HEADER
9
$ACADVER
1
AC1009
9
$INSUNITS
70
2
0
ENDSEC
0
SECTION
2
TABLES
0
TABLE
2
LTYPE
100
AcDbLinetypeTableRecord
2
LTYPE
0
LTYPE
2
DASHED
70
0
3
dashed line
72
65
73
2
40
4.0
49
2.0
49
-2.0
0
ENDTAB
0
TABLE
2
LAYER
70
5
0
LAYER
100
AcDbSymbolTable
100
AcDbLayerTable
2
Obstructions
70
0
62
7
6
CONTINUOUS
0
LAYER
100
AcDbSymbolTable
100
AcDbLayerTable
2
Setbacks
70
0
62
7
6
CONTINUOUS
0
LAYER
100
AcDbSymbolTable
100
AcDbLayerTable
2
Walkways
70
0
62
7
6
CONTINUOUS
0
LAYER
100
AcDbSymbolTable
100
AcDbLayerTable
2
Modules
70
0
62
7
6
CONTINUOUS
0
LAYER
100
AcDbSymbolTable
100
AcDbLayerTable
2
Buildings
70
0
62
7
6
CONTINUOUS
0
ENDTAB
0
ENDSEC
0
SECTION
2
ENTITIES
0
LINE
8
Modules
10
6.0017361197
20
-9.5589696661
11
0.2728494724
21
-7.5662699591
62
254
0
LINE
8
Modules
10
0.2728494724
20
-7.5662699591
11
-0.8437975207
21
-10.7765600124
62
254
0
LINE
8
Modules
10
-0.8437975207
20
-10.7765600124
11
4.8850891266
21
-12.7692597194
62
254
0
LINE
8
Modules
10
4.8850891266
20
-12.7692597194
11
6.0017361197
21
-9.5589696661
62
254
0
LINE
8
Modules
10
2.3263579264
20
-9.6456923192
11
2.0568967794
21
-10.4203762124
62
254
0
LINE
8
Modules
10
2.0568967794
20
-10.4203762124
11
2.8315806726
21
-10.6898373593
62
254
0
LINE
8
Modules
10
2.8315806726
20
-10.6898373593
11
3.1010418196
21
-9.9151534662
62
254
0
LINE
8
Modules
10
3.1010418196
20
-9.9151534662
11
2.3263579264
21
-9.6456923192
62
254
0
LINE
8
Modules
10
2.3263579264
20
-9.6456923192
11
2.8315806726
21
-10.6898373593
62
254
0
TEXT
8
Modules
100
AcDbText
10
2.7904942713
20
-9.8592392639
1
DC
7
NewTextStyle_4
40
0.2624672000000003
50
-109.17939596198424
0
TEXT
8
Modules
100
AcDbText
10
2.2650545012
20
-9.9717335453
1
AC
7
NewTextStyle_4
40
0.2624672000000003
50
-109.17939596198424
0
LINE
8
Modules
10
7.1336819183
20
-6.3084988647
11
1.4047952710
21
-4.3157991577
62
254
0
LINE
8
Modules
10
1.4047952710
20
-4.3157991577
11
0.2881482778
21
-7.5260892110
62
254
0
LINE
8
Modules
10
0.2881482778
20
-7.5260892110
11
6.0170349252
21
-9.5187889180
62
254
0
LINE
8
Modules
10
6.0170349252
20
-9.5187889180
11
7.1336819183
21
-6.3084988647
62
254
0
LINE
8
Modules
10
3.4583037250
20
-6.3952215178
11
3.1888425780
21
-7.1699054109
62
254
0
LINE
8
Modules
10
3.1888425780
20
-7.1699054109
11
3.9635264712
21
-7.4393665579
62
254
0
LINE
8
Modules
10
3.9635264712
20
-7.4393665579
11
4.2329876182
21
-6.6646826648
62
254
0
LINE
8
Modules
10
4.2329876182
20
-6.6646826648
11
3.4583037250
21
-6.3952215178
62
254
0
LINE
8
Modules
10
3.4583037250
20
-6.3952215178
11
3.9635264712
21
-7.4393665579
62
254
0
TEXT
8
Modules
100
AcDbText
10
3.9224400699
20
-6.6087684625
1
DC
7
NewTextStyle_4
40
0.2624672000000003
50
-109.17939596198424
0
TEXT
8
Modules
100
AcDbText
10
3.3970002998
20
-6.7212627439
1
AC
7
NewTextStyle_4
40
0.2624672000000003
50
-109.17939596198424
0
LINE
8
Modules
10
8.2627103326
20
-3.0580280659
11
2.5338236853
21
-1.0653283589
62
254
0
LINE
8
Modules
10
2.5338236853
20
-1.0653283589
11
1.4171766922
21
-4.2756184122
62
254
0
LINE
8
Modules
10
1.4171766922
20
-4.2756184122
11
7.1460633395
21
-6.2683181192
62
254
0
LINE
8
Modules
10
7.1460633395
20
-6.2683181192
11
8.2627103326
21
-3.0580280659
62
254
0
LINE
8
Modules
10
4.5873321393
20
-3.1447507190
11
4.3178709923
21
-3.9194346121
62
254
0
LINE
8
Modules
10
4.3178709923
20
-3.9194346121
11
5.0925548855
21
-4.1888957591
62
254
0
LINE
8
Modules
10
5.0925548855
20
-4.1888957591
11
5.3620160325
21
-3.4142118659
62
254
0
LINE
8
Modules
10
5.3620160325
20
-3.4142118659
11
4.5873321393
21
-3.1447507190
62
254
0
LINE
8
Modules
10
4.5873321393
20
-3.1447507190
11
5.0925548855
21
-4.1888957591
62
254
0
TEXT
8
Modules
100
AcDbText
10
5.0514684843
20
-3.3582976637
1
DC
7
NewTextStyle_4
40
0.2624672000000003
50
-109.17939596198424
0
TEXT
8
Modules
100
AcDbText
10
4.5260287141
20
-3.4707919450
1
AC
7
NewTextStyle_4
40
0.2624672000000003
50
-109.17939596198424
0
LINE
8
Modules
10
9.3946561354
20
0.1924427330
11
3.6657694880
21
2.1851424399
62
254
0
LINE
8
Modules
10
3.6657694880
20
2.1851424399
11
2.5491224949
21
-1.0251476134
62
254
0
LINE
8
Modules
10
2.5491224949
20
-1.0251476134
11
8.2780091422
21
-3.0178473204
62
254
0
LINE
8
Modules
10
8.2780091422
20
-3.0178473204
11
9.3946561354
21
0.1924427330
62
254
0
LINE
8
Modules
10
5.7192779420
20
0.1057200799
11
5.4498167950
21
-0.6689638133
62
254
0
LINE
8
Modules
10
5.4498167950
20
-0.6689638133
11
6.2245006882
21
-0.9384249603
62
254
0
LINE
8
Modules
10
6.2245006882
20
-0.9384249603
11
6.4939618352
21
-0.1637410671
62
254
0
LINE
8
Modules
10
6.4939618352
20
-0.1637410671
11
5.7192779420
21
0.1057200799
62
254
0
LINE
8
Modules
10
5.7192779420
20
0.1057200799
11
6.2245006882
21
-0.9384249603
62
254
0
TEXT
8
Modules
100
AcDbText
10
6.1834142870
20
-0.1078268649
1
DC
7
NewTextStyle_4
40
0.2624672000000003
50
-109.17939596198424
0
TEXT
8
Modules
100
AcDbText
10
5.6579745168
20
-0.2203211462
1
AC
7
NewTextStyle_4
40
0.2624672000000003
50
-109.17939596198424
0
LINE
8
Modules
10
-7.1908632843
20
3.6444835920
11
-12.7845691087
21
5.5233666192
62
254
0
LINE
8
Modules
10
-12.7845691087
20
5.5233666192
11
-13.8668294611
21
2.3013214204
62
254
0
LINE
8
Modules
10
-13.8668294611
20
2.3013214204
11
-8.2731236368
21
0.4224383931
62
254
0
LINE
8
Modules
10
-8.2731236368
20
0.4224383931
11
-7.1908632843
21
3.6444835920
62
254
0
LINE
8
Modules
10
-10.7870250463
20
3.4922443922
11
-11.0481882587
21
2.7147238326
62
254
0
LINE
8
Modules
10
-11.0481882587
20
2.7147238326
11
-10.2706676992
21
2.4535606202
62
254
0
LINE
8
Modules
10
-10.2706676992
20
2.4535606202
11
-10.0095044867
21
3.2310811797
62
254
0
LINE
8
Modules
10
-10.0095044867
20
3.2310811797
11
-10.7870250463
21
3.4922443922
62
254
0
LINE
8
Modules
10
-10.7870250463
20
3.4922443922
11
-10.2706676992
21
2.4535606202
62
254
0
TEXT
8
Modules
100
AcDbText
10
-10.3206320921
20
3.2836719669
1
DC
7
NewTextStyle_4
40
0.2624672000000003
50
-108.56680643240796
0
TEXT
8
Modules
100
AcDbText
10
-10.8448390977
20
3.1655663756
1
AC
7
NewTextStyle_4
40
0.2624672000000003
50
-108.56680643240796
0
LINE
8
Modules
10
-8.2848830669
20
0.3867083638
11
-13.8785888912
21
2.2655913911
62
254
0
LINE
8
Modules
10
-13.8785888912
20
2.2655913911
11
-14.9608492437
21
-0.9564538078
62
254
0
LINE
8
Modules
10
-14.9608492437
20
-0.9564538078
11
-9.3671434193
21
-2.8353368350
62
254
0
LINE
8
Modules
10
-9.3671434193
20
-2.8353368350
11
-8.2848830669
21
0.3867083638
62
254
0
LINE
8
Modules
10
-11.8810448288
20
0.2344691640
11
-12.1422080413
21
-0.5430513955
62
254
0
LINE
8
Modules
10
-12.1422080413
20
-0.5430513955
11
-11.3646874817
21
-0.8042146080
62
254
0
LINE
8
Modules
10
-11.3646874817
20
-0.8042146080
11
-11.1035242693
21
-0.0266940484
62
254
0
LINE
8
Modules
10
-11.1035242693
20
-0.0266940484
11
-11.8810448288
21
0.2344691640
62
254
0
LINE
8
Modules
10
-11.8810448288
20
0.2344691640
11
-11.3646874817
21
-0.8042146080
62
254
0
TEXT
8
Modules
100
AcDbText
10
-11.4146518747
20
0.0258967387
1
DC
7
NewTextStyle_4
40
0.2624672000000003
50
-108.56680643240796
0
TEXT
8
Modules
100
AcDbText
10
-11.9388588803
20
-0.0922088525
1
AC
7
NewTextStyle_4
40
0.2624672000000003
50
-108.56680643240796
0
LINE
8
Modules
10
-6.0968435017
20
6.9059110349
11
-11.6905493261
21
8.7847940621
62
254
0
LINE
8
Modules
10
-11.6905493261
20
8.7847940621
11
-12.7728096785
21
5.5627488632
62
254
0
LINE
8
Modules
10
-12.7728096785
20
5.5627488632
11
-7.1791038542
21
3.6838658360
62
254
0
LINE
8
Modules
10
-7.1791038542
20
3.6838658360
11
-6.0968435017
21
6.9059110349
62
254
0
LINE
8
Modules
10
-9.6930052637
20
6.7536718351
11
-9.9541684761
21
5.9761512755
62
254
0
LINE
8
Modules
10
-9.9541684761
20
5.9761512755
11
-9.1766479166
21
5.7149880630
62
254
0
LINE
8
Modules
10
-9.1766479166
20
5.7149880630
11
-8.9154847041
21
6.4925086226
62
254
0
LINE
8
Modules
10
-8.9154847041
20
6.4925086226
11
-9.6930052637
21
6.7536718351
62
254
0
LINE
8
Modules
10
-9.6930052637
20
6.7536718351
11
-9.1766479166
21
5.7149880630
62
254
0
TEXT
8
Modules
100
AcDbText
10
-9.2266123095
20
6.5450994098
1
DC
7
NewTextStyle_4
40
0.2624672000000003
50
-108.56680643240796
0
TEXT
8
Modules
100
AcDbText
10
-9.7508193151
20
6.4269938185
1
AC
7
NewTextStyle_4
40
0.2624672000000003
50
-108.56680643240796
0
LINE
8
Modules
10
10.5236845497
20
3.4392613197
11
4.7947979024
21
5.4319610267
62
254
0
LINE
8
Modules
10
4.7947979024
20
5.4319610267
11
3.6781509092
21
2.2216709733
62
254
0
LINE
8
Modules
10
3.6781509092
20
2.2216709733
11
9.4070375566
21
0.2289712663
62
254
0
LINE
8
Modules
10
9.4070375566
20
0.2289712663
11
10.5236845497
21
3.4392613197
62
254
0
LINE
8
Modules
10
6.8483063564
20
3.3525386666
11
6.5788452094
21
2.5778547734
62
254
0
LINE
8
Modules
10
6.5788452094
20
2.5778547734
11
7.3535291026
21
2.3083936264
62
254
0
LINE
8
Modules
10
7.3535291026
20
2.3083936264
11
7.6229902496
21
3.0830775196
62
254
0
LINE
8
Modules
10
7.6229902496
20
3.0830775196
11
6.8483063564
21
3.3525386666
62
254
0
LINE
8
Modules
10
6.8483063564
20
3.3525386666
11
7.3535291026
21
2.3083936264
62
254
0
TEXT
8
Modules
100
AcDbText
10
7.3124427013
20
3.1389917219
1
DC
7
NewTextStyle_4
40
0.2624672000000003
50
-109.17939596198424
0
TEXT
8
Modules
100
AcDbText
10
6.7870029312
20
3.0264974405
1
AC
7
NewTextStyle_4
40
0.2624672000000003
50
-109.17939596198424
0
LINE
8
Modules
10
21.8614257887
20
-8.6910618264
11
25.1673248921
21
-9.8409648669
62
254
0
LINE
8
Modules
10
25.1673248921
20
-9.8409648669
11
27.0222954279
21
-4.5080409462
62
254
0
LINE
8
Modules
10
27.0222954279
20
-4.5080409462
11
23.7163963245
21
-3.3581379057
62
254
0
LINE
8
Modules
10
23.7163963245
20
-3.3581379057
11
21.8614257887
21
-8.6910618264
62
254
0
LINE
8
Modules
10
24.6944719814
20
-7.1216239064
11
24.9639331284
21
-6.3469400132
62
254
0
LINE
8
Modules
10
24.9639331284
20
-6.3469400132
11
24.1892492352
21
-6.0774788662
62
254
0
LINE
8
Modules
10
24.1892492352
20
-6.0774788662
11
23.9197880882
21
-6.8521627594
62
254
0
LINE
8
Modules
10
23.9197880882
20
-6.8521627594
11
24.6944719814
21
-7.1216239064
62
254
0
LINE
8
Modules
10
24.6944719814
20
-7.1216239064
11
24.1892492352
21
-6.0774788662
62
254
0
TEXT
8
Modules
100
AcDbText
10
24.2303356364
20
-6.9080769617
1
DC
7
NewTextStyle_4
40
0.2624672000000003
50
70.82060403802919
0
TEXT
8
Modules
100
AcDbText
10
24.7557754066
20
-6.7955826803
1
AC
7
NewTextStyle_4
40
0.2624672000000003
50
70.82060403802919
0
LINE
8
Modules
10
17.2495831074
20
7.3395409173
11
16.1020324352
21
4.0404047253
62
254
0
LINE
8
Modules
10
16.1020324352
20
4.0404047253
11
21.4349563559
21
2.1854341894
62
254
0
LINE
8
Modules
10
21.4349563559
20
2.1854341894
11
22.5825070281
21
5.4845703815
62
254
0
LINE
8
Modules
10
22.5825070281
20
5.4845703815
11
17.2495831074
21
7.3395409173
62
254
0
LINE
8
Modules
10
18.8201972116
20
4.5098761803
11
19.5948811048
21
4.2404150333
62
254
0
LINE
8
Modules
10
19.5948811048
20
4.2404150333
11
19.8643422518
21
5.0150989265
62
254
0
LINE
8
Modules
10
19.8643422518
20
5.0150989265
11
19.0896583586
21
5.2845600735
62
254
0
LINE
8
Modules
10
19.0896583586
20
5.2845600735
11
18.8201972116
21
4.5098761803
62
254
0
LINE
8
Modules
10
18.8201972116
20
4.5098761803
11
19.8643422518
21
5.0150989265
62
254
0
TEXT
8
Modules
100
AcDbText
10
19.0337441563
20
4.9740125253
1
DC
7
NewTextStyle_4
40
0.2624672000000003
50
-19.179395961892915
0
TEXT
8
Modules
100
AcDbText
10
19.1462384377
20
4.4485727551
1
AC
7
NewTextStyle_4
40
0.2624672000000003
50
-19.179395961892915
0
LINE
8
Modules
10
22.5825648693
20
5.4842160110
11
21.4350141971
21
2.1850798190
62
254
0
LINE
8
Modules
10
21.4350141971
20
2.1850798190
11
26.7679381178
21
0.3301092831
62
254
0
LINE
8
Modules
10
26.7679381178
20
0.3301092831
11
27.9154887900
21
3.6292454751
62
254
0
LINE
8
Modules
10
27.9154887900
20
3.6292454751
11
22.5825648693
21
5.4842160110
62
254
0
LINE
8
Modules
10
24.1531789735
20
2.6545512740
11
24.9278628666
21
2.3850901270
62
254
0
LINE
8
Modules
10
24.9278628666
20
2.3850901270
11
25.1973240136
21
3.1597740202
62
254
0
LINE
8
Modules
10
25.1973240136
20
3.1597740202
11
24.4226401204
21
3.4292351672
62
254
0
LINE
8
Modules
10
24.4226401204
20
3.4292351672
11
24.1531789735
21
2.6545512740
62
254
0
LINE
8
Modules
10
24.1531789735
20
2.6545512740
11
25.1973240136
21
3.1597740202
62
254
0
TEXT
8
Modules
100
AcDbText
10
24.3667259182
20
3.1186876189
1
DC
7
NewTextStyle_4
40
0.2624672000000003
50
-19.179395961892915
0
TEXT
8
Modules
100
AcDbText
10
24.4792201995
20
2.5932478488
1
AC
7
NewTextStyle_4
40
0.2624672000000003
50
-19.179395961892915
0
LINE
8
Modules
10
27.9155466312
20
3.6288911073
11
26.7679959590
21
0.3297549153
62
254
0
LINE
8
Modules
10
26.7679959590
20
0.3297549153
11
32.1009198797
21
-1.5252156206
62
254
0
LINE
8
Modules
10
32.1009198797
20
-1.5252156206
11
33.2484705519
21
1.7739205714
62
254
0
LINE
8
Modules
10
33.2484705519
20
1.7739205714
11
27.9155466312
21
3.6288911073
62
254
0
LINE
8
Modules
10
29.4861607353
20
0.7992263702
11
30.2608446285
21
0.5297652232
62
254
0
LINE
8
Modules
10
30.2608446285
20
0.5297652232
11
30.5303057755
21
1.3044491164
62
254
0
LINE
8
Modules
10
30.5303057755
20
1.3044491164
11
29.7556218823
21
1.5739102634
62
254
0
LINE
8
Modules
10
29.7556218823
20
1.5739102634
11
29.4861607353
21
0.7992263702
62
254
0
LINE
8
Modules
10
29.4861607353
20
0.7992263702
11
30.5303057755
21
1.3044491164
62
254
0
TEXT
8
Modules
100
AcDbText
10
29.6997076800
20
1.2633627152
1
DC
7
NewTextStyle_4
40
0.2624672000000003
50
-19.179395961892915
0
TEXT
8
Modules
100
AcDbText
10
29.8122019614
20
0.7379229450
1
AC
7
NewTextStyle_4
40
0.2624672000000003
50
-19.179395961892915
0
LINE
8
Modules
10
20.0059682396
20
-14.0269470384
11
23.3118673430
21
-15.1768500790
62
254
0
LINE
8
Modules
10
23.3118673430
20
-15.1768500790
11
25.1668378789
21
-9.8439261583
62
254
0
LINE
8
Modules
10
25.1668378789
20
-9.8439261583
11
21.8609387755
21
-8.6940231177
62
254
0
LINE
8
Modules
10
21.8609387755
20
-8.6940231177
11
20.0059682396
21
-14.0269470384
62
254
0
LINE
8
Modules
10
22.8390144324
20
-12.4575091184
11
23.1084755794
21
-11.6828252253
62
254
0
LINE
8
Modules
10
23.1084755794
20
-11.6828252253
11
22.3337916862
21
-11.4133640783
62
254
0
LINE
8
Modules
10
22.3337916862
20
-11.4133640783
11
22.0643305392
21
-12.1880479715
62
254
0
LINE
8
Modules
10
22.0643305392
20
-12.1880479715
11
22.8390144324
21
-12.4575091184
62
254
0
LINE
8
Modules
10
22.8390144324
20
-12.4575091184
11
22.3337916862
21
-11.4133640783
62
254
0
TEXT
8
Modules
100
AcDbText
10
22.3748780874
20
-12.2439621737
1
DC
7
NewTextStyle_4
40
0.2624672000000003
50
70.82060403802919
0
TEXT
8
Modules
100
AcDbText
10
22.9003178576
20
-12.1314678924
1
AC
7
NewTextStyle_4
40
0.2624672000000003
50
70.82060403802919
0
LINE
8
Buildings
10
-18.3533698577
20
-8.7607630925
11
-15.9692043616
21
-1.8326708843
62
252
0
LINE
8
Buildings
10
-15.9692043616
20
-1.8326708843
11
-16.0524931389
21
-1.8046948207
62
252
0
LINE
8
Buildings
10
-16.0524931389
20
-1.8046948207
11
-11.9844834203
21
10.3063569725
62
252
0
LINE
8
Buildings
10
-11.9844834203
20
10.3063569725
11
-27.6644031775
21
15.5731221592
62
252
0
LINE
8
Buildings
10
-27.6644031775
20
15.5731221592
11
-34.1658277427
21
-3.3192193938
62
252
0
LINE
8
Buildings
10
-34.1658277427
20
-3.3192193938
11
-18.3533698577
21
-8.7607630925
62
252
0
LINE
8
Buildings
10
-2.4622154259
20
14.9676508140
11
-2.1783437470
21
14.3966259067
62
252
0
LINE
8
Buildings
10
-2.1783437470
20
14.3966259067
11
6.0626064360
21
18.4934215711
62
252
0
LINE
8
Buildings
10
6.0626064360
20
18.4934215711
11
6.8856483756
21
20.9437361591
62
252
0
LINE
8
Buildings
10
6.8856483756
20
20.9437361591
11
-22.6432037600
21
30.8622518683
62
252
0
LINE
8
Buildings
10
-22.6432037600
20
30.8622518683
11
-25.3947463446
21
22.6705126497
62
252
0
LINE
8
Buildings
10
-25.3947463446
20
22.6705126497
11
-2.4622154259
21
14.9676508140
62
252
0
LINE
8
Buildings
10
-11.8974757875
20
10.2771317738
11
-11.9844834203
21
10.3063569725
62
252
0
LINE
8
Buildings
10
-11.9844834203
20
10.3063569725
11
-16.0524931389
21
-1.8046948207
62
252
0
LINE
8
Buildings
10
-16.0524931389
20
-1.8046948207
11
-8.4751475121
21
-4.3498672943
62
252
0
LINE
8
Buildings
10
-8.4751475121
20
-4.3498672943
11
-2.1783437470
21
14.3966259067
62
252
0
LINE
8
Buildings
10
-2.1783437470
20
14.3966259067
11
-2.4622154259
21
14.9676508140
62
252
0
LINE
8
Buildings
10
-2.4622154259
20
14.9676508140
11
-11.8974757875
21
10.2771317738
62
252
0
LINE
8
Buildings
10
-27.7671170053
20
15.6076229488
11
-11.8974757875
21
10.2771317738
62
252
0
LINE
8
Buildings
10
-11.8974757875
20
10.2771317738
11
-2.4622154259
21
14.9676508140
62
252
0
LINE
8
Buildings
10
-2.4622154259
20
14.9676508140
11
-25.3947463446
21
22.6705126497
62
252
0
LINE
8
Buildings
10
-25.3947463446
20
22.6705126497
11
-27.7671170053
21
15.6076229488
62
252
0
LINE
8
Buildings
10
-2.1783437470
20
14.3966259067
11
-8.4751475121
21
-4.3498672943
62
252
0
LINE
8
Buildings
10
-8.4751475121
20
-4.3498672943
11
-2.3062745883
21
-6.4219445536
62
252
0
LINE
8
Buildings
10
-2.3062745883
20
-6.4219445536
11
6.0626064360
21
18.4934215711
62
252
0
LINE
8
Buildings
10
6.0626064360
20
18.4934215711
11
-2.1783437470
21
14.3966259067
62
252
0
LINE
8
Buildings
10
4.7330773372
20
12.9050325477
11
1.6984943777
21
4.1807969112
62
252
0
LINE
8
Buildings
10
1.6984943777
20
4.1807969112
11
13.4151663532
21
7.8033486492
62
252
0
LINE
8
Buildings
10
13.4151663532
20
7.8033486492
11
19.6340361367
21
-1.2584775603
62
252
0
LINE
8
Buildings
10
19.6340361367
20
-1.2584775603
11
24.9707674532
21
1.2654597092
62
252
0
LINE
8
Buildings
10
24.9707674532
20
1.2654597092
11
28.9032123986
21
-6.6807562666
62
252
0
LINE
8
Buildings
10
28.9032123986
20
-6.6807562666
11
30.5074306397
21
-7.2387573959
62
252
0
LINE
8
Buildings
10
30.5074306397
20
-7.2387573959
11
33.9760612261
21
2.7333379386
62
252
0
LINE
8
Buildings
10
33.9760612261
20
2.7333379386
11
4.7330773372
21
12.9050325477
62
252
0
LINE
8
Buildings
10
5.6899156678
20
-14.4062624344
11
13.4151663532
21
7.8033486492
62
252
0
LINE
8
Buildings
10
13.4151663532
20
7.8033486492
11
1.6984943777
21
4.1807969112
62
252
0
LINE
8
Buildings
10
1.6984943777
20
4.1807969112
11
1.7281079144
21
4.2659339713
62
252
0
LINE
8
Buildings
10
1.7281079144
20
4.2659339713
11
1.7005199792
21
4.2574043544
62
252
0
LINE
8
Buildings
10
1.7005199792
20
4.2574043544
11
-3.6600907886
21
-11.1540153098
62
252
0
LINE
8
Buildings
10
-3.6600907886
20
-11.1540153098
11
5.6899156678
21
-14.4062624344
62
252
0
LINE
8
Buildings
10
13.4151663532
20
7.8033486492
11
5.6899156678
21
-14.4062624344
62
252
0
LINE
8
Buildings
10
5.6899156678
20
-14.4062624344
11
15.0399221243
21
-17.6585095591
62
252
0
LINE
8
Buildings
10
15.0399221243
20
-17.6585095591
11
15.9874476763
21
-14.9344330393
62
252
0
LINE
8
Buildings
10
15.9874476763
20
-14.9344330393
11
14.9969204320
21
-14.5898943058
62
252
0
LINE
8
Buildings
10
14.9969204320
20
-14.5898943058
11
19.6340361367
21
-1.2584775603
62
252
0
LINE
8
Buildings
10
19.6340361367
20
-1.2584775603
11
13.4151663532
21
7.8033486492
62
252
0
LINE
8
Buildings
10
18.9745008117
20
-15.9734307144
11
24.9707674532
21
1.2654597092
62
252
0
LINE
8
Buildings
10
24.9707674532
20
1.2654597092
11
19.6340361367
21
-1.2584775603
62
252
0
LINE
8
Buildings
10
19.6340361367
20
-1.2584775603
11
14.9969204320
21
-14.5898943058
62
252
0
LINE
8
Buildings
10
14.9969204320
20
-14.5898943058
11
18.9745008117
21
-15.9734307144
62
252
0
LINE
8
Buildings
10
24.9707674532
20
1.2654597092
11
18.9745008117
21
-15.9734307144
62
252
0
LINE
8
Buildings
10
18.9745008117
20
-15.9734307144
11
25.5939971452
21
-18.2759144632
62
252
0
LINE
8
Buildings
10
25.5939971452
20
-18.2759144632
11
29.3579759201
21
-7.4547116155
62
252
0
LINE
8
Buildings
10
29.3579759201
20
-7.4547116155
11
28.9898769619
21
-6.7109011203
62
252
0
LINE
8
Buildings
10
28.9898769619
20
-6.7109011203
11
28.9032123986
21
-6.6807562666
62
252
0
LINE
8
Buildings
10
28.9032123986
20
-6.6807562666
11
24.9707674532
21
1.2654597092
62
252
0
LINE
8
Buildings
10
33.9760612261
20
2.7333379386
11
37.4446918126
21
12.7054332731
62
252
0
LINE
8
Buildings
10
37.4446918126
20
12.7054332731
11
8.2017079236
21
22.8771278822
62
252
0
LINE
8
Buildings
10
8.2017079236
20
22.8771278822
11
4.7330773372
21
12.9050325477
62
252
0
LINE
8
Buildings
10
4.7330773372
20
12.9050325477
11
33.9760612261
21
2.7333379386
62
252
0
LINE
8
Setbacks
10
-16.4872341805
20
-3.2371776547
11
-16.5306537359
21
-3.2298596588
62
2
0
LINE
8
Setbacks
10
-16.5306537359
20
-3.2298596588
11
-16.5311531212
21
-3.2297345294
62
2
0
LINE
8
Setbacks
10
-16.5311531212
20
-3.2297345294
11
-16.5316267837
21
-3.2295328195
62
2
0
LINE
8
Setbacks
10
-16.5316267837
20
-3.2295328195
11
-16.9476510752
21
-3.0123474451
62
2
0
LINE
8
Setbacks
10
-16.9476510752
20
-3.0123474451
11
-16.9480873522
21
-3.0120741213
62
2
0
LINE
8
Setbacks
10
-16.9480873522
20
-3.0120741213
11
-16.9484755005
21
-3.0117359137
62
2
0
LINE
8
Setbacks
10
-16.9484755005
20
-3.0117359137
11
-17.2770240675
21
-2.6766217297
62
2
0
LINE
8
Setbacks
10
-17.2770240675
20
-2.6766217297
11
-17.2773545301
21
-2.6762269657
62
2
0
LINE
8
Setbacks
10
-17.2773545301
20
-2.6762269657
11
-17.2776191693
21
-2.6757853660
62
2
0
LINE
8
Setbacks
10
-17.2776191693
20
-2.6757853660
11
-17.4865312495
21
-2.2555455232
62
2
0
LINE
8
Setbacks
10
-17.4865312495
20
-2.2555455232
11
-17.4867235482
21
-2.2550679642
62
2
0
LINE
8
Setbacks
10
-17.4867235482
20
-2.2550679642
11
-17.4868387730
21
-2.2545662028
62
2
0
LINE
8
Setbacks
10
-17.4868387730
20
-2.2545662028
11
-17.5556652188
21
-1.7903371853
62
2
0
LINE
8
Setbacks
10
-17.5556652188
20
-1.7903371853
11
-17.5557005325
21
-1.7898235736
62
2
0
LINE
8
Setbacks
10
-17.5557005325
20
-1.7898235736
11
-17.5556550647
21
-1.7893107611
62
2
0
LINE
8
Setbacks
10
-17.5556550647
20
-1.7893107611
11
-17.4776580150
21
-1.3265341714
62
2
0
LINE
8
Setbacks
10
-17.4776580150
20
-1.3265341714
11
-17.4775328855
21
-1.3260347859
62
2
0
LINE
8
Setbacks
10
-17.4775328855
20
-1.3260347859
11
-13.4199697044
21
10.7539161540
62
2
0
LINE
8
Setbacks
10
-23.7343326630
20
6.9406473689
11
-23.7343463723
21
6.9408723729
62
2
0
LINE
8
Setbacks
10
-23.7343463723
20
6.9408723729
11
-23.7342968326
21
6.9413851126
62
2
0
LINE
8
Setbacks
10
-23.7342968326
20
6.9413851126
11
-23.7207468915
21
7.0180637831
62
2
0
LINE
8
Setbacks
10
-23.7207468915
20
7.0180637831
11
-23.7072215555
21
7.0950062328
62
2
0
LINE
8
Setbacks
10
-23.7072215555
20
7.0950062328
11
-23.7070929164
21
7.0955047245
62
2
0
LINE
8
Setbacks
10
-23.7070929164
20
7.0955047245
11
-22.3738474669
21
10.9741564234
62
2
0
LINE
8
Setbacks
10
-22.3738474669
20
10.9741564234
11
-22.3737578041
21
10.9743627138
62
2
0
LINE
8
Setbacks
10
-22.3737578041
20
10.9743627138
11
-22.3737012321
21
10.9745816236
62
2
0
LINE
8
Setbacks
10
-22.3737012321
20
10.9745816236
11
-22.3734953800
21
10.9750548086
62
2
0
LINE
8
Setbacks
10
-22.3734953800
20
10.9750548086
11
-22.3368313723
21
11.0439481964
62
2
0
LINE
8
Setbacks
10
-22.3368313723
20
11.0439481964
11
-22.3002736625
21
11.1127907305
62
2
0
LINE
8
Setbacks
10
-22.3002736625
20
11.1127907305
11
-22.2999978371
21
11.1132243295
62
2
0
LINE
8
Setbacks
10
-22.2999978371
20
11.1132243295
11
-22.2998474461
21
11.1133946424
62
2
0
LINE
8
Setbacks
10
-22.2998474461
20
11.1133946424
11
-22.2997253541
21
11.1135859829
62
2
0
LINE
8
Setbacks
10
-22.2997253541
20
11.1135859829
11
-22.2993845387
21
11.1139708247
62
2
0
LINE
8
Setbacks
10
-22.2993845387
20
11.1139708247
11
-22.2433252322
21
11.1680662576
62
2
0
LINE
8
Setbacks
10
-22.2433252322
20
11.1680662576
11
-22.1871839037
21
11.2223385269
62
2
0
LINE
8
Setbacks
10
-22.1871839037
20
11.2223385269
11
-22.1867863662
21
11.2226665264
62
2
0
LINE
8
Setbacks
10
-22.1867863662
20
11.2226665264
11
-22.1865909866
21
11.2227816850
62
2
0
LINE
8
Setbacks
10
-22.1865909866
20
11.2227816850
11
-22.1864178115
21
11.2229244168
62
2
0
LINE
8
Setbacks
10
-22.1864178115
20
11.2229244168
11
-22.1859736042
21
11.2231859116
62
2
0
LINE
8
Setbacks
10
-22.1859736042
20
11.2231859116
11
-22.1160057641
21
11.2572794284
62
2
0
LINE
8
Setbacks
10
-22.1160057641
20
11.2572794284
11
-22.0457770967
21
11.2915779966
62
2
0
LINE
8
Setbacks
10
-22.0457770967
20
11.2915779966
11
-22.0452986903
21
11.2917667804
62
2
0
LINE
8
Setbacks
10
-22.0452986903
20
11.2917667804
11
-22.0450765894
21
11.2918161968
62
2
0
LINE
8
Setbacks
10
-22.0450765894
20
11.2918161968
11
-22.0448666810
21
11.2918987661
62
2
0
LINE
8
Setbacks
10
-22.0448666810
20
11.2918987661
11
-22.0443642462
21
11.2920099395
62
2
0
LINE
8
Setbacks
10
-22.0443642462
20
11.2920099395
11
-21.9672321692
21
11.3028210875
62
2
0
LINE
8
Setbacks
10
-21.9672321692
20
11.3028210875
11
-21.8898950395
21
11.3137316437
62
2
0
LINE
8
Setbacks
10
-21.8898950395
20
11.3137316437
11
-21.8893809240
21
11.3137633389
62
2
0
LINE
8
Setbacks
10
-21.8893809240
20
11.3137633389
11
-21.8891554676
21
11.3137417218
62
2
0
LINE
8
Setbacks
10
-21.8891554676
20
11.3137417218
11
-21.8889310486
21
11.3137554296
62
2
0
LINE
8
Setbacks
10
-21.8889310486
20
11.3137554296
11
-21.8884179814
21
11.3137058850
62
2
0
LINE
8
Setbacks
10
-21.8884179814
20
11.3137058850
11
-21.8115936395
21
11.3001303530
62
2
0
LINE
8
Setbacks
10
-21.8115936395
20
11.3001303530
11
-21.7347965288
21
11.2866306072
62
2
0
LINE
8
Setbacks
10
-21.7347965288
20
11.2866306072
11
-21.7342968446
21
11.2865015581
62
2
0
LINE
8
Setbacks
10
-21.7342968446
20
11.2865015581
11
-21.7340910868
21
11.2864120799
62
2
0
LINE
8
Setbacks
10
-21.7340910868
20
11.2864120799
11
-21.7338716997
21
11.2863553417
62
2
0
LINE
8
Setbacks
10
-21.7338716997
20
11.2863553417
11
-16.7334719334
21
9.5625101422
62
2
0
LINE
8
Setbacks
10
-16.7334719334
20
9.5625101422
11
-16.7329998845
21
9.5623046817
62
2
0
LINE
8
Setbacks
10
-16.7329998845
20
9.5623046817
11
-16.6641822820
21
9.5256810272
62
2
0
LINE
8
Setbacks
10
-16.6641822820
20
9.5256810272
11
-16.5952639583
21
9.4890829620
62
2
0
LINE
8
Setbacks
10
-16.5952639583
20
9.4890829620
11
-16.5948304051
21
9.4888071701
62
2
0
LINE
8
Setbacks
10
-16.5948304051
20
9.4888071701
11
-16.5946592043
21
9.4886560026
62
2
0
LINE
8
Setbacks
10
-16.5946592043
20
9.4886560026
11
-16.5944689299
21
9.4885345742
62
2
0
LINE
8
Setbacks
10
-16.5944689299
20
9.4885345742
11
-16.5940841999
21
9.4881938442
62
2
0
LINE
8
Setbacks
10
-16.5940841999
20
9.4881938442
11
-16.5399923752
21
9.4321384740
62
2
0
LINE
8
Setbacks
10
-16.5399923752
20
9.4321384740
11
-16.4857161683
21
9.3759932079
62
2
0
LINE
8
Setbacks
10
-16.4857161683
20
9.3759932079
11
-16.4853881376
21
9.3755956271
62
2
0
LINE
8
Setbacks
10
-16.4853881376
20
9.3755956271
11
-16.4852736876
21
9.3754014393
62
2
0
LINE
8
Setbacks
10
-16.4852736876
20
9.3754014393
11
-16.4851303113
21
9.3752274919
62
2
0
LINE
8
Setbacks
10
-16.4851303113
20
9.3752274919
11
-16.4848687841
21
9.3747832403
62
2
0
LINE
8
Setbacks
10
-16.4848687841
20
9.3747832403
11
-16.4507047259
21
9.3046710366
62
2
0
LINE
8
Setbacks
10
-16.4507047259
20
9.3046710366
11
-16.4164766925
21
9.2345863913
62
2
0
LINE
8
Setbacks
10
-16.4164766925
20
9.2345863913
11
-16.4162881058
21
9.2341086238
62
2
0
LINE
8
Setbacks
10
-16.4162881058
20
9.2341086238
11
-16.4162386601
21
9.2338867089
62
2
0
LINE
8
Setbacks
10
-16.4162386601
20
9.2338867089
11
-16.4161556229
21
9.2336753159
62
2
0
LINE
8
Setbacks
10
-16.4161556229
20
9.2336753159
11
-16.4160447531
21
9.2331738765
62
2
0
LINE
8
Setbacks
10
-16.4160447531
20
9.2331738765
11
-16.4052299959
21
9.1560162076
62
2
0
LINE
8
Setbacks
10
-16.4052299959
20
9.1560162076
11
-16.3943230485
21
9.0787043390
62
2
0
LINE
8
Setbacks
10
-16.3943230485
20
9.0787043390
11
-16.3942913535
21
9.0781902244
62
2
0
LINE
8
Setbacks
10
-16.3942913535
20
9.0781902244
11
-16.3943129706
21
9.0779647687
62
2
0
LINE
8
Setbacks
10
-16.3943129706
20
9.0779647687
11
-16.3942992629
21
9.0777403500
62
2
0
LINE
8
Setbacks
10
-16.3942992629
20
9.0777403500
11
-16.3943488074
21
9.0772272827
62
2
0
LINE
8
Setbacks
10
-16.3943488074
20
9.0772272827
11
-16.4079243394
21
9.0004029408
62
2
0
LINE
8
Setbacks
10
-16.4079243394
20
9.0004029408
11
-16.4214240853
21
8.9236058301
62
2
0
LINE
8
Setbacks
10
-16.4214240853
20
8.9236058301
11
-16.4215527247
21
8.9231073367
62
2
0
LINE
8
Setbacks
10
-16.4215527247
20
8.9231073367
11
-17.7547981742
21
5.0444556378
62
2
0
LINE
8
Setbacks
10
-17.7547981742
20
5.0444556378
11
-17.7548878373
21
5.0442493466
62
2
0
LINE
8
Setbacks
10
-17.7548878373
20
5.0442493466
11
-17.7549444099
21
5.0440304348
62
2
0
LINE
8
Setbacks
10
-17.7549444099
20
5.0440304348
11
-17.7551502637
21
5.0435572475
62
2
0
LINE
8
Setbacks
10
-17.7551502637
20
5.0435572475
11
-17.7918145984
21
4.9746635338
62
2
0
LINE
8
Setbacks
10
-17.7918145984
20
4.9746635338
11
-17.8283719789
21
4.9058216580
62
2
0
LINE
8
Setbacks
10
-17.8283719789
20
4.9058216580
11
-17.8286478042
21
4.9053880594
62
2
0
LINE
8
Setbacks
10
-17.8286478042
20
4.9053880594
11
-17.8287981934
21
4.9052177487
62
2
0
LINE
8
Setbacks
10
-17.8287981934
20
4.9052177487
11
-17.8289202815
21
4.9050264136
62
2
0
LINE
8
Setbacks
10
-17.8289202815
20
4.9050264136
11
-17.8292610893
21
4.9046415772
62
2
0
LINE
8
Setbacks
10
-17.8292610893
20
4.9046415772
11
-17.8855061009
21
4.8503663450
62
2
0
LINE
8
Setbacks
10
-17.8855061009
20
4.8503663450
11
-17.9414617434
21
4.7962738565
62
2
0
LINE
8
Setbacks
10
-17.9414617434
20
4.7962738565
11
-17.9418593627
21
4.7959458012
62
2
0
LINE
8
Setbacks
10
-17.9418593627
20
4.7959458012
11
-17.9420521194
21
4.7958322011
62
2
0
LINE
8
Setbacks
10
-17.9420521194
20
4.7958322011
11
-17.9422273606
21
4.7956877430
62
2
0
LINE
8
Setbacks
10
-17.9422273606
20
4.7956877430
11
-17.9426717141
21
4.7954261470
62
2
0
LINE
8
Setbacks
10
-17.9426717141
20
4.7954261470
11
-18.0128593637
21
4.7612256780
62
2
0
LINE
8
Setbacks
10
-18.0128593637
20
4.7612256780
11
-18.0828685362
21
4.7270340685
62
2
0
LINE
8
Setbacks
10
-18.0828685362
20
4.7270340685
11
-18.0833469464
21
4.7268452820
62
2
0
LINE
8
Setbacks
10
-18.0833469464
20
4.7268452820
11
-18.0835690504
21
4.7267958648
62
2
0
LINE
8
Setbacks
10
-18.0835690504
20
4.7267958648
11
-18.0837789597
21
4.7267132951
62
2
0
LINE
8
Setbacks
10
-18.0837789597
20
4.7267132951
11
-18.0842813942
21
4.7266021218
62
2
0
LINE
8
Setbacks
10
-18.0842813942
20
4.7266021218
11
-18.1615935934
21
4.7157657107
62
2
0
LINE
8
Setbacks
10
-18.1615935934
20
4.7157657107
11
-18.2387506090
21
4.7048807445
62
2
0
LINE
8
Setbacks
10
-18.2387506090
20
4.7048807445
11
-18.2392640257
21
4.7048490386
62
2
0
LINE
8
Setbacks
10
-18.2392640257
20
4.7048490386
11
-18.2394879767
21
4.7048704397
62
2
0
LINE
8
Setbacks
10
-18.2394879767
20
4.7048704397
11
-18.2397159088
21
4.7048566551
62
2
0
LINE
8
Setbacks
10
-18.2397159088
20
4.7048566551
11
-18.2402276597
21
4.7049061762
62
2
0
LINE
8
Setbacks
10
-18.2402276597
20
4.7049061762
11
-18.3170520016
21
4.7184817081
62
2
0
LINE
8
Setbacks
10
-18.3170520016
20
4.7184817081
11
-18.3938491123
21
4.7319814540
62
2
0
LINE
8
Setbacks
10
-18.3938491123
20
4.7319814540
11
-18.3943476185
21
4.7321100978
62
2
0
LINE
8
Setbacks
10
-18.3943476185
20
4.7321100978
11
-18.3945561119
21
4.7322006245
62
2
0
LINE
8
Setbacks
10
-18.3945561119
20
4.7322006245
11
-18.3947739414
21
4.7322570475
62
2
0
LINE
8
Setbacks
10
-18.3947739414
20
4.7322570475
11
-23.3951737077
21
6.4561022471
62
2
0
LINE
8
Setbacks
10
-23.3951737077
20
6.4561022471
11
-23.3956457566
21
6.4563077075
62
2
0
LINE
8
Setbacks
10
-23.3956457566
20
6.4563077075
11
-23.4644633591
21
6.4929313621
62
2
0
LINE
8
Setbacks
10
-23.4644633591
20
6.4929313621
11
-23.5333816827
21
6.5295294273
62
2
0
LINE
8
Setbacks
10
-23.5333816827
20
6.5295294273
11
-23.5338153237
21
6.5298052851
62
2
0
LINE
8
Setbacks
10
-23.5338153237
20
6.5298052851
11
-23.5339850985
21
6.5299552087
62
2
0
LINE
8
Setbacks
10
-23.5339850985
20
6.5299552087
11
-23.5341766010
21
6.5300774038
62
2
0
LINE
8
Setbacks
10
-23.5341766010
20
6.5300774038
11
-23.5345614410
21
6.5304182167
62
2
0
LINE
8
Setbacks
10
-23.5345614410
20
6.5304182167
11
-23.5886535939
21
6.5864739152
62
2
0
LINE
8
Setbacks
10
-23.5886535939
20
6.5864739152
11
-23.6429294730
21
6.6426188535
62
2
0
LINE
8
Setbacks
10
-23.6429294730
20
6.6426188535
11
-23.6432574740
21
6.6430163921
62
2
0
LINE
8
Setbacks
10
-23.6432574740
20
6.6430163921
11
-23.6433726333
21
6.6432117728
62
2
0
LINE
8
Setbacks
10
-23.6433726333
20
6.6432117728
11
-23.6435153654
21
6.6433849483
62
2
0
LINE
8
Setbacks
10
-23.6435153654
20
6.6433849483
11
-23.6437768602
21
6.6438291556
62
2
0
LINE
8
Setbacks
10
-23.6437768602
20
6.6438291556
11
-23.6778703771
21
6.7137969957
62
2
0
LINE
8
Setbacks
10
-23.6778703771
20
6.7137969957
11
-23.7121689453
21
6.7840256631
62
2
0
LINE
8
Setbacks
10
-23.7121689453
20
6.7840256631
11
-23.7123577291
21
6.7845040695
62
2
0
LINE
8
Setbacks
10
-23.7123577291
20
6.7845040695
11
-23.7124071455
21
6.7847261708
62
2
0
LINE
8
Setbacks
10
-23.7124071455
20
6.7847261708
11
-23.7124897152
21
6.7849360801
62
2
0
LINE
8
Setbacks
10
-23.7124897152
20
6.7849360801
11
-23.7126008885
21
6.7854385164
62
2
0
LINE
8
Setbacks
10
-23.7126008885
20
6.7854385164
11
-23.7234084273
21
6.8625453286
62
2
0
LINE
8
Setbacks
10
-23.7234084273
20
6.8625453286
11
-23.7343225921
21
6.9399077185
62
2
0
LINE
8
Setbacks
10
-23.7343225921
20
6.9399077185
11
-23.7343542876
21
6.9404218349
62
2
0
LINE
8
Setbacks
10
-23.7343542876
20
6.9404218349
11
-23.7343326630
21
6.9406473689
62
2
0
LINE
8
Setbacks
10
-19.8066809712
20
29.8748756461
11
-22.0979207753
21
23.0535241723
62
2
0
LINE
8
Setbacks
10
-22.0979207753
20
23.0535241723
11
-2.0123592830
21
16.3069377037
62
2
0
LINE
8
Setbacks
10
-2.0123592830
20
16.3069377037
11
-2.0119128248
21
16.3067500347
62
2
0
LINE
8
Setbacks
10
-2.0119128248
20
16.3067500347
11
-1.8864989647
21
16.2427597741
62
2
0
LINE
8
Setbacks
10
-1.8864989647
20
16.2427597741
11
-1.8033620303
21
16.2121048703
62
2
0
LINE
8
Setbacks
10
-1.8033620303
20
16.2121048703
11
3.0879400325
21
18.6437012331
62
2
0
LINE
8
Setbacks
10
3.0879400325
20
18.6437012331
11
3.2155066989
21
19.4491654088
62
2
0
LINE
8
Setbacks
10
3.2155066989
20
19.4491654088
11
3.2156370681
21
19.4496968502
62
2
0
LINE
8
Setbacks
10
3.2156370681
20
19.4496968502
11
4.0282325473
21
21.8689103767
62
2
0
LINE
8
Setbacks
10
-9.1047625606
20
10.0363981337
11
-9.2218923598
21
9.3789330691
62
2
0
LINE
8
Setbacks
10
-9.2218923598
20
9.3789330691
11
-9.2220122603
21
9.3784638490
62
2
0
LINE
8
Setbacks
10
-9.2220122603
20
9.3784638490
11
-9.2221999289
21
9.3780173918
62
2
0
LINE
8
Setbacks
10
-9.2221999289
20
9.3780173918
11
-9.6481766486
21
8.5431495829
62
2
0
LINE
8
Setbacks
10
-9.6481766486
20
8.5431495829
11
-9.6484311408
21
8.5427312152
62
2
0
LINE
8
Setbacks
10
-9.6484311408
20
8.5427312152
11
-9.6487450688
21
8.5423553867
62
2
0
LINE
8
Setbacks
10
-9.6487450688
20
8.5423553867
11
-10.2946128716
21
7.8770755098
62
2
0
LINE
8
Setbacks
10
-10.2946128716
20
7.8770755098
11
-10.2949909832
21
7.8767416939
62
2
0
LINE
8
Setbacks
10
-10.2949909832
20
7.8767416939
11
-10.2954157942
21
7.8764697802
62
2
0
LINE
8
Setbacks
10
-10.2954157942
20
7.8764697802
11
-11.0979525653
21
7.4459005407
62
2
0
LINE
8
Setbacks
10
-11.0979525653
20
7.4459005407
11
-11.0984323893
21
7.4456905543
62
2
0
LINE
8
Setbacks
10
-11.0984323893
20
7.4456905543
11
-11.0989395147
21
7.4455595995
62
2
0
LINE
8
Setbacks
10
-11.0989395147
20
7.4455595995
11
-11.4771893525
21
7.3795384743
62
2
0
LINE
8
Setbacks
10
-11.4771893525
20
7.3795384743
11
-13.7569310072
21
0.5924181387
62
2
0
LINE
8
Setbacks
10
-13.7569310072
20
0.5924181387
11
-8.8581588887
21
-1.0530418211
62
2
0
LINE
8
Setbacks
10
-8.8581588887
20
-1.0530418211
11
-4.3372099919
21
12.4064756234
62
2
0
LINE
8
Setbacks
10
-4.3372099919
20
12.4064756234
11
-9.1047625606
21
10.0363981337
62
2
0
LINE
8
Setbacks
10
-17.2110639597
20
13.5267282885
11
-17.2110762447
21
13.5268647794
62
2
0
LINE
8
Setbacks
10
-17.2110762447
20
13.5268647794
11
-17.2110360444
21
13.5274021524
62
2
0
LINE
8
Setbacks
10
-17.2110360444
20
13.5274021524
11
-17.1995453816
21
13.6000419468
62
2
0
LINE
8
Setbacks
10
-17.1995453816
20
13.6000419468
11
-17.1881141015
21
13.6725836440
62
2
0
LINE
8
Setbacks
10
-17.1881141015
20
13.6725836440
11
-17.1879841467
21
13.6731151790
62
2
0
LINE
8
Setbacks
10
-17.1879841467
20
13.6731151790
11
-16.5199027605
21
15.6672241667
62
2
0
LINE
8
Setbacks
10
-16.5199027605
20
15.6672241667
11
-16.5197759766
21
15.6675183248
62
2
0
LINE
8
Setbacks
10
-16.5197759766
20
15.6675183248
11
-16.5196999932
21
15.6678275187
62
2
0
LINE
8
Setbacks
10
-16.5196999932
20
15.6678275187
11
-16.5194826129
21
15.6683302608
62
2
0
LINE
8
Setbacks
10
-16.5194826129
20
15.6683302608
11
-16.4849010380
21
15.7329020214
62
2
0
LINE
8
Setbacks
10
-16.4849010380
20
15.7329020214
11
-16.4503594865
21
15.7976204341
62
2
0
LINE
8
Setbacks
10
-16.4503594865
20
15.7976204341
11
-16.4500669784
21
15.7980741624
62
2
0
LINE
8
Setbacks
10
-16.4500669784
20
15.7980741624
11
-16.4498475045
21
15.7983158073
62
2
0
LINE
8
Setbacks
10
-16.4498475045
20
15.7983158073
11
-16.4496748946
21
15.7985824914
62
2
0
LINE
8
Setbacks
10
-16.4496748946
20
15.7985824914
11
-16.4493111996
21
15.7989814660
62
2
0
LINE
8
Setbacks
10
-16.4493111996
20
15.7989814660
11
-16.3949775661
21
15.8495228931
62
2
0
LINE
8
Setbacks
10
-16.3949775661
20
15.8495228931
11
-16.3407558071
21
15.9001010633
62
2
0
LINE
8
Setbacks
10
-16.3407558071
20
15.9001010633
11
-16.3403456982
21
15.9004264901
62
2
0
LINE
8
Setbacks
10
-16.3403456982
20
15.9004264901
11
-16.3400562852
21
15.9005887669
62
2
0
LINE
8
Setbacks
10
-16.3400562852
20
15.9005887669
11
-16.3398039460
21
15.9007883276
62
2
0
LINE
8
Setbacks
10
-16.3398039460
20
15.9007883276
11
-16.3393471531
21
15.9010435255
62
2
0
LINE
8
Setbacks
10
-16.3393471531
20
15.9010435255
11
-16.2706552583
21
15.9325180015
62
2
0
LINE
8
Setbacks
10
-16.2706552583
20
15.9325180015
11
-16.2019853438
21
15.9640941809
62
2
0
LINE
8
Setbacks
10
-16.2019853438
20
15.9640941809
11
-16.2015119400
21
15.9642691372
62
2
0
LINE
8
Setbacks
10
-16.2015119400
20
15.9642691372
11
-16.2011793977
21
15.9643365532
62
2
0
LINE
8
Setbacks
10
-16.2011793977
20
15.9643365532
11
-16.2008741492
21
15.9644489656
62
2
0
LINE
8
Setbacks
10
-16.2008741492
20
15.9644489656
11
-16.2003794476
21
15.9645486719
62
2
0
LINE
8
Setbacks
10
-16.2003794476
20
15.9645486719
11
-16.1241443450
21
15.9738879813
62
2
0
LINE
8
Setbacks
10
-16.1241443450
20
15.9738879813
11
-16.0476572736
21
15.9833585216
62
2
0
LINE
8
Setbacks
10
-16.0476572736
20
15.9833585216
11
-16.0471686756
21
15.9833822726
62
2
0
LINE
8
Setbacks
10
-16.0471686756
20
15.9833822726
11
-16.0468274930
21
15.9833478104
62
2
0
LINE
8
Setbacks
10
-16.0468274930
20
15.9833478104
11
-16.0464945612
21
15.9833634245
62
2
0
LINE
8
Setbacks
10
-16.0464945612
20
15.9833634245
11
-16.0460081863
21
15.9833134940
62
2
0
LINE
8
Setbacks
10
-16.0460081863
20
15.9833134940
11
-15.9694488766
21
15.9696284916
62
2
0
LINE
8
Setbacks
10
-15.9694488766
20
15.9696284916
11
-15.8928751316
21
15.9560409275
62
2
0
LINE
8
Setbacks
10
-15.8928751316
20
15.9560409275
11
-15.8924066807
21
15.9559216349
62
2
0
LINE
8
Setbacks
10
-15.8924066807
20
15.9559216349
11
-15.8920940982
21
15.9557906444
62
2
0
LINE
8
Setbacks
10
-15.8920940982
20
15.9557906444
11
-15.8917644261
21
15.9557061171
62
2
0
LINE
8
Setbacks
10
-15.8917644261
20
15.9557061171
11
-11.4752342858
21
14.4693866884
62
2
0
LINE
8
Setbacks
10
-11.4752342858
20
14.4693866884
11
-11.4752330319
21
14.4693863768
62
2
0
LINE
8
Setbacks
10
-11.4752330319
20
14.4693863768
11
-11.4748412996
21
14.4692544870
62
2
0
LINE
8
Setbacks
10
-11.4748412996
20
14.4692544870
11
-11.4743953626
21
14.4690666988
62
2
0
LINE
8
Setbacks
10
-11.4743953626
20
14.4690666988
11
-11.4051668350
21
14.4336935892
62
2
0
LINE
8
Setbacks
10
-11.4051668350
20
14.4336935892
11
-11.3356299089
21
14.3982309117
62
2
0
LINE
8
Setbacks
10
-11.3356299089
20
14.3982309117
11
-11.3352109403
21
14.3979761082
62
2
0
LINE
8
Setbacks
10
-11.3352109403
20
14.3979761082
11
-11.3350537358
21
14.3978447661
62
2
0
LINE
8
Setbacks
10
-11.3350537358
20
14.3978447661
11
-11.3348757974
21
14.3977364372
62
2
0
LINE
8
Setbacks
10
-11.3348757974
20
14.3977364372
11
-11.3344997570
21
14.3974220029
62
2
0
LINE
8
Setbacks
10
-11.3344997570
20
14.3974220029
11
-11.2792116429
21
14.3436837317
62
2
0
LINE
8
Setbacks
10
-11.2792116429
20
14.3436837317
11
-11.2239327160
21
14.2900392917
62
2
0
LINE
8
Setbacks
10
-11.2239327160
20
14.2900392917
11
-11.2235995798
21
14.2896622474
62
2
0
LINE
8
Setbacks
10
-11.2235995798
20
14.2896622474
11
-11.2234912544
21
14.2894932986
62
2
0
LINE
8
Setbacks
10
-11.2234912544
20
14.2894932986
11
-11.2233523944
21
14.2893356421
62
2
0
LINE
8
Setbacks
10
-11.2233523944
20
14.2893356421
11
-11.2230814711
21
14.2889116345
62
2
0
LINE
8
Setbacks
10
-11.2230814711
20
14.2889116345
11
-11.1872602574
21
14.2220463532
62
2
0
LINE
8
Setbacks
10
-11.1872602574
20
14.2220463532
11
-11.1515361576
21
14.1554940636
62
2
0
LINE
8
Setbacks
10
-11.1515361576
20
14.1554940636
11
-11.1513257802
21
14.1550134458
62
2
0
LINE
8
Setbacks
10
-11.1513257802
20
14.1550134458
11
-11.1512770751
21
14.1548246824
62
2
0
LINE
8
Setbacks
10
-11.1512770751
20
14.1548246824
11
-11.1511953033
21
14.1546377864
62
2
0
LINE
8
Setbacks
10
-11.1511953033
20
14.1546377864
11
-11.1510642811
21
14.1541294470
62
2
0
LINE
8
Setbacks
10
-11.1510642811
20
14.1541294470
11
-11.1382994287
21
14.0807210473
62
2
0
LINE
8
Setbacks
10
-11.1382994287
20
14.0807210473
11
-11.1255440919
21
14.0077365319
62
2
0
LINE
8
Setbacks
10
-11.1255440919
20
14.0077365319
11
-11.1254952244
21
14.0071994961
62
2
0
LINE
8
Setbacks
10
-11.1254952244
20
14.0071994961
11
-11.1255095996
21
14.0070050768
62
2
0
LINE
8
Setbacks
10
-11.1255095996
20
14.0070050768
11
-11.1254915771
21
14.0068037713
62
2
0
LINE
8
Setbacks
10
-11.1254915771
20
14.0068037713
11
-11.1255322208
21
14.0062656415
62
2
0
LINE
8
Setbacks
10
-11.1255322208
20
14.0062656415
11
-11.1370844895
21
13.9336295870
62
2
0
LINE
8
Setbacks
10
-11.1370844895
20
13.9336295870
11
-11.1485347254
21
13.8612274566
62
2
0
LINE
8
Setbacks
10
-11.1485347254
20
13.8612274566
11
-11.1486649743
21
13.8606959910
62
2
0
LINE
8
Setbacks
10
-11.1486649743
20
13.8606959910
11
-11.7860923184
21
11.9615689831
62
2
0
LINE
8
Setbacks
10
-11.7860923184
20
11.9615689831
11
-6.2069745140
21
14.7350967876
62
2
0
LINE
8
Setbacks
10
-6.2069745140
20
14.7350967876
11
-22.9976331413
21
20.3749505759
62
2
0
LINE
8
Setbacks
10
-22.9976331413
20
20.3749505759
11
-24.9097011052
21
14.6824486125
62
2
0
LINE
8
Setbacks
10
-13.2962720986
20
10.7815864770
11
-13.2548762902
21
10.9198133040
62
2
0
LINE
8
Setbacks
10
-13.2548762902
20
10.9198133040
11
-13.2546766323
21
10.9203215792
62
2
0
LINE
8
Setbacks
10
-13.2546766323
20
10.9203215792
11
-13.2543954330
21
10.9207896968
62
2
0
LINE
8
Setbacks
10
-13.2543954330
20
10.9207896968
11
-12.9953048736
21
11.2804616243
62
2
0
LINE
8
Setbacks
10
-12.9953048736
20
11.2804616243
11
-12.9949580759
21
11.2808685236
62
2
0
LINE
8
Setbacks
10
-12.9949580759
20
11.2808685236
11
-12.9945497963
21
11.2812136950
62
2
0
LINE
8
Setbacks
10
-12.9945497963
20
11.2812136950
11
-12.6282568055
21
11.5428603569
62
2
0
LINE
8
Setbacks
10
-12.6282568055
20
11.5428603569
11
-12.6278102887
21
11.5431285013
62
2
0
LINE
8
Setbacks
10
-12.6278102887
20
11.5431285013
11
-12.5073812405
21
11.6029967878
62
2
0
LINE
8
Setbacks
10
-12.5073812405
20
11.6029967878
11
-16.8610886268
21
13.0645744314
62
2
0
LINE
8
Setbacks
10
-16.8610886268
20
13.0645744314
11
-16.8610911392
21
13.0645750550
62
2
0
LINE
8
Setbacks
10
-16.8610911392
20
13.0645750550
11
-16.8613536064
21
13.0646633096
62
2
0
LINE
8
Setbacks
10
-16.8613536064
20
13.0646633096
11
-16.8617985776
21
13.0648503940
62
2
0
LINE
8
Setbacks
10
-16.8617985776
20
13.0648503940
11
-16.9312282639
21
13.1002610956
62
2
0
LINE
8
Setbacks
10
-16.9312282639
20
13.1002610956
11
-17.0007294723
21
13.1356626114
62
2
0
LINE
8
Setbacks
10
-17.0007294723
20
13.1356626114
11
-17.0011485732
21
13.1359172146
62
2
0
LINE
8
Setbacks
10
-17.0011485732
20
13.1359172146
11
-17.0012532735
21
13.1360046037
62
2
0
LINE
8
Setbacks
10
-17.0012532735
20
13.1360046037
11
-17.0013729263
21
13.1360772792
62
2
0
LINE
8
Setbacks
10
-17.0013729263
20
13.1360772792
11
-17.0017496893
21
13.1363917736
62
2
0
LINE
8
Setbacks
10
-17.0017496893
20
13.1363917736
11
-17.0571729492
21
13.1901795532
62
2
0
LINE
8
Setbacks
10
-17.0571729492
20
13.1901795532
11
-17.1124836759
21
13.2438009945
62
2
0
LINE
8
Setbacks
10
-17.1124836759
20
13.2438009945
11
-17.1128180860
21
13.2441793070
62
2
0
LINE
8
Setbacks
10
-17.1128180860
20
13.2441793070
11
-17.1128902699
21
13.2442919677
62
2
0
LINE
8
Setbacks
10
-17.1128902699
20
13.2442919677
11
-17.1129827970
21
13.2443967287
62
2
0
LINE
8
Setbacks
10
-17.1129827970
20
13.2443967287
11
-17.1132548291
21
13.2448215502
62
2
0
LINE
8
Setbacks
10
-17.1132548291
20
13.2448215502
11
-17.1490883901
21
13.3115835471
62
2
0
LINE
8
Setbacks
10
-17.1490883901
20
13.3115835471
11
-17.1849521344
21
13.3783130640
62
2
0
LINE
8
Setbacks
10
-17.1849521344
20
13.3783130640
11
-17.1851630772
21
13.3787944883
62
2
0
LINE
8
Setbacks
10
-17.1851630772
20
13.3787944883
11
-17.1851956485
21
13.3789206838
62
2
0
LINE
8
Setbacks
10
-17.1851956485
20
13.3789206838
11
-17.1852500276
21
13.3790445838
62
2
0
LINE
8
Setbacks
10
-17.1852500276
20
13.3790445838
11
-17.1853817016
21
13.3795534940
62
2
0
LINE
8
Setbacks
10
-17.1853817016
20
13.3795534940
11
-17.1982089685
21
13.4529639903
62
2
0
LINE
8
Setbacks
10
-17.1982089685
20
13.4529639903
11
-17.2110244238
21
13.5260605102
62
2
0
LINE
8
Setbacks
10
-17.2110244238
20
13.5260605102
11
-17.2110735710
21
13.5265964987
62
2
0
LINE
8
Setbacks
10
-17.2110735710
20
13.5265964987
11
-17.2110639597
21
13.5267282885
62
2
0
LINE
8
Setbacks
10
-23.2675438858
20
15.4956372431
11
-23.2675744856
21
15.4959785422
62
2
0
LINE
8
Setbacks
10
-23.2675744856
20
15.4959785422
11
-23.2675336142
21
15.4965178912
62
2
0
LINE
8
Setbacks
10
-23.2675336142
20
15.4965178912
11
-23.2559752741
21
15.5689872498
62
2
0
LINE
8
Setbacks
10
-23.2559752741
20
15.5689872498
11
-23.2445560380
21
15.6412810829
62
2
0
LINE
8
Setbacks
10
-23.2445560380
20
15.6412810829
11
-23.2444260838
21
15.6418119907
62
2
0
LINE
8
Setbacks
10
-23.2444260838
20
15.6418119907
11
-23.2442932212
21
15.6421203358
62
2
0
LINE
8
Setbacks
10
-23.2442932212
20
15.6421203358
11
-23.2442127018
21
15.6424468426
62
2
0
LINE
8
Setbacks
10
-23.2442127018
20
15.6424468426
11
-22.5732139927
21
17.6329035993
62
2
0
LINE
8
Setbacks
10
-22.5732139927
20
17.6329035993
11
-22.5729965667
21
17.6334057315
62
2
0
LINE
8
Setbacks
10
-22.5729965667
20
17.6334057315
11
-22.5382931587
21
17.6981371558
62
2
0
LINE
8
Setbacks
10
-22.5382931587
20
17.6981371558
11
-22.5037747876
21
17.7627212691
62
2
0
LINE
8
Setbacks
10
-22.5037747876
20
17.7627212691
11
-22.5034816216
21
17.7631753372
62
2
0
LINE
8
Setbacks
10
-22.5034816216
20
17.7631753372
11
-22.5032864903
21
17.7633898014
62
2
0
LINE
8
Setbacks
10
-22.5032864903
20
17.7633898014
11
-22.5031317620
21
17.7636287055
62
2
0
LINE
8
Setbacks
10
-22.5031317620
20
17.7636287055
11
-22.5027677146
21
17.7640277601
62
2
0
LINE
8
Setbacks
10
-22.5027677146
20
17.7640277601
11
-22.4483971571
21
17.8145601681
62
2
0
LINE
8
Setbacks
10
-22.4483971571
20
17.8145601681
11
-22.3941089471
21
17.8651417869
62
2
0
LINE
8
Setbacks
10
-22.3941089471
20
17.8651417869
11
-22.3936990270
21
17.8654667247
62
2
0
LINE
8
Setbacks
10
-22.3936990270
20
17.8654667247
11
-22.3934388193
21
17.8656124995
62
2
0
LINE
8
Setbacks
10
-22.3934388193
20
17.8656124995
11
-22.3932143695
21
17.8657898402
62
2
0
LINE
8
Setbacks
10
-22.3932143695
20
17.8657898402
11
-22.3927575478
21
17.8660448016
62
2
0
LINE
8
Setbacks
10
-22.3927575478
20
17.8660448016
11
-22.3241025093
21
17.8974685249
62
2
0
LINE
8
Setbacks
10
-22.3241025093
20
17.8974685249
11
-22.2552985197
21
17.9290602252
62
2
0
LINE
8
Setbacks
10
-22.2552985197
20
17.9290602252
11
-22.2548250010
21
17.9292349246
62
2
0
LINE
8
Setbacks
10
-22.2548250010
20
17.9292349246
11
-22.2545280082
21
17.9292949599
62
2
0
LINE
8
Setbacks
10
-22.2545280082
20
17.9292949599
11
-22.2542550837
21
17.9293953124
62
2
0
LINE
8
Setbacks
10
-22.2542550837
20
17.9293953124
11
-22.2537605673
21
17.9294947589
62
2
0
LINE
8
Setbacks
10
-22.2537605673
20
17.9294947589
11
-22.1773759608
21
17.9388216295
62
2
0
LINE
8
Setbacks
10
-22.1773759608
20
17.9388216295
11
-22.1009559208
21
17.9482423300
62
2
0
LINE
8
Setbacks
10
-22.1009559208
20
17.9482423300
11
-22.1004670390
21
17.9482658122
62
2
0
LINE
8
Setbacks
10
-22.1004670390
20
17.9482658122
11
-22.1001640438
21
17.9482350054
62
2
0
LINE
8
Setbacks
10
-22.1001640438
20
17.9482350054
11
-22.0998659449
21
17.9482489713
62
2
0
LINE
8
Setbacks
10
-22.0998659449
20
17.9482489713
11
-22.0993788503
21
17.9481988321
62
2
0
LINE
8
Setbacks
10
-22.0993788503
20
17.9481988321
11
-22.0227920895
21
17.9344783579
62
2
0
LINE
8
Setbacks
10
-22.0227920895
20
17.9344783579
11
-21.9461866282
21
17.9208438397
62
2
0
LINE
8
Setbacks
10
-21.9461866282
20
17.9208438397
11
-21.9457173898
21
17.9207240170
62
2
0
LINE
8
Setbacks
10
-21.9457173898
20
17.9207240170
11
-17.5287950043
21
16.4379250851
62
2
0
LINE
8
Setbacks
10
-17.5287950043
20
16.4379250851
11
-17.5283485178
21
16.4377374911
62
2
0
LINE
8
Setbacks
10
-17.5283485178
20
16.4377374911
11
-17.4569942300
21
16.4013451245
62
2
0
LINE
8
Setbacks
10
-17.4569942300
20
16.4013451245
11
-17.3892062152
21
16.3667742803
62
2
0
LINE
8
Setbacks
10
-17.3892062152
20
16.3667742803
11
-17.3888071393
21
16.3665336026
62
2
0
LINE
8
Setbacks
10
-17.3888071393
20
16.3665336026
11
-17.3887927036
21
16.3665234320
62
2
0
LINE
8
Setbacks
10
-17.3887927036
20
16.3665234320
11
-17.3883974088
21
16.3661957849
62
2
0
LINE
8
Setbacks
10
-17.3883974088
20
16.3661957849
11
-17.3311061101
21
16.3105951018
62
2
0
LINE
8
Setbacks
10
-17.3311061101
20
16.3105951018
11
-17.2775087092
21
16.2585830015
62
2
0
LINE
8
Setbacks
10
-17.2775087092
20
16.2585830015
11
-17.2771838478
21
16.2582168694
62
2
0
LINE
8
Setbacks
10
-17.2771838478
20
16.2582168694
11
-17.2771733491
21
16.2582030899
62
2
0
LINE
8
Setbacks
10
-17.2771733491
20
16.2582030899
11
-17.2768922668
21
16.2577663326
62
2
0
LINE
8
Setbacks
10
-17.2768922668
20
16.2577663326
11
-17.2407069276
21
16.1903487343
62
2
0
LINE
8
Setbacks
10
-17.2407069276
20
16.1903487343
11
-17.2051121396
21
16.1240374353
62
2
0
LINE
8
Setbacks
10
-17.2051121396
20
16.1240374353
11
-17.2049032520
21
16.1235611219
62
2
0
LINE
8
Setbacks
10
-17.2049032520
20
16.1235611219
11
-17.2048976745
21
16.1235450458
62
2
0
LINE
8
Setbacks
10
-17.2048976745
20
16.1235450458
11
-17.2047653939
21
16.1230343789
62
2
0
LINE
8
Setbacks
10
-17.2047653939
20
16.1230343789
11
-17.1922952602
21
16.0516660015
62
2
0
LINE
8
Setbacks
10
-17.1922952602
20
16.0516660015
11
-17.1791200740
21
15.9762799075
62
2
0
LINE
8
Setbacks
10
-17.1791200740
20
15.9762799075
11
-17.1790710878
21
15.9757150782
62
2
0
LINE
8
Setbacks
10
-17.1790710878
20
15.9757150782
11
-17.1790710878
21
15.9756983459
62
2
0
LINE
8
Setbacks
10
-17.1790710878
20
15.9756983459
11
-17.1791113814
21
15.9751857349
62
2
0
LINE
8
Setbacks
10
-17.1791113814
20
15.9751857349
11
-17.1904834188
21
15.9032957049
62
2
0
LINE
8
Setbacks
10
-17.1904834188
20
15.9032957049
11
-17.2021110337
21
15.8297711603
62
2
0
LINE
8
Setbacks
10
-17.2021110337
20
15.8297711603
11
-17.2022328160
21
15.8292652645
62
2
0
LINE
8
Setbacks
10
-17.2022328160
20
15.8292652645
11
-17.2022380654
21
15.8292491884
62
2
0
LINE
8
Setbacks
10
-17.2022380654
20
15.8292491884
11
-17.2022465328
21
15.8292236131
62
2
0
LINE
8
Setbacks
10
-17.2022465328
20
15.8292236131
11
-17.8703226697
21
13.8387826045
62
2
0
LINE
8
Setbacks
10
-17.8703226697
20
13.8387826045
11
-17.8705394431
21
13.8382801700
62
2
0
LINE
8
Setbacks
10
-17.8705394431
20
13.8382801700
11
-17.9056426431
21
13.7725963889
62
2
0
LINE
8
Setbacks
10
-17.9056426431
20
13.7725963889
11
-17.9398869193
21
13.7084903638
62
2
0
LINE
8
Setbacks
10
-17.9398869193
20
13.7084903638
11
-17.9401835689
21
13.7080315751
62
2
0
LINE
8
Setbacks
10
-17.9401835689
20
13.7080315751
11
-17.9402079274
21
13.7080049353
62
2
0
LINE
8
Setbacks
10
-17.9402079274
20
13.7080049353
11
-17.9402281355
21
13.7079734733
62
2
0
LINE
8
Setbacks
10
-17.9402281355
20
13.7079734733
11
-17.9405950032
21
13.7075696151
62
2
0
LINE
8
Setbacks
10
-17.9405950032
20
13.7075696151
11
-17.9956272664
21
13.6562906178
62
2
0
LINE
8
Setbacks
10
-17.9956272664
20
13.6562906178
11
-18.0495289522
21
13.6060467257
62
2
0
LINE
8
Setbacks
10
-18.0495289522
20
13.6060467257
11
-18.0499362641
21
13.6057233988
62
2
0
LINE
8
Setbacks
10
-18.0499362641
20
13.6057233988
11
-18.0499771568
21
13.6057004027
62
2
0
LINE
8
Setbacks
10
-18.0499771568
20
13.6057004027
11
-18.0500138590
21
13.6056714265
62
2
0
LINE
8
Setbacks
10
-18.0500138590
20
13.6056714265
11
-18.0504674339
21
13.6054178639
62
2
0
LINE
8
Setbacks
10
-18.0504674339
20
13.6054178639
11
-18.1202056888
21
13.5733943622
62
2
0
LINE
8
Setbacks
10
-18.1202056888
20
13.5733943622
11
-18.1883245212
21
13.5420998633
62
2
0
LINE
8
Setbacks
10
-18.1883245212
20
13.5420998633
11
-18.1888012358
21
13.5419241479
62
2
0
LINE
8
Setbacks
10
-18.1888012358
20
13.5419241479
11
-18.1888395731
21
13.5419164511
62
2
0
LINE
8
Setbacks
10
-18.1888395731
20
13.5419164511
11
-18.1888765515
21
13.5419027109
62
2
0
LINE
8
Setbacks
10
-18.1888765515
20
13.5419027109
11
-18.1893756289
21
13.5418013434
62
2
0
LINE
8
Setbacks
10
-18.1893756289
20
13.5418013434
11
-18.2666919531
21
13.5322672568
62
2
0
LINE
8
Setbacks
10
-18.2666919531
20
13.5322672568
11
-18.3426611645
21
13.5228860574
62
2
0
LINE
8
Setbacks
10
-18.3426611645
20
13.5228860574
11
-18.3431545532
21
13.5228625958
62
2
0
LINE
8
Setbacks
10
-18.3431545532
20
13.5228625958
11
-18.3431941828
21
13.5228666994
62
2
0
LINE
8
Setbacks
10
-18.3431941828
20
13.5228666994
11
-18.3432345663
21
13.5228646816
62
2
0
LINE
8
Setbacks
10
-18.3432345663
20
13.5228646816
11
-18.3437259708
21
13.5229143651
62
2
0
LINE
8
Setbacks
10
-18.3437259708
20
13.5229143651
11
-18.4206003735
21
13.5365941073
62
2
0
LINE
8
Setbacks
10
-18.4206003735
20
13.5365941073
11
-18.4974354060
21
13.5502535082
62
2
0
LINE
8
Setbacks
10
-18.4974354060
20
13.5502535082
11
-18.4979046762
21
13.5503732389
62
2
0
LINE
8
Setbacks
10
-18.4979046762
20
13.5503732389
11
-22.9177447127
21
15.0331724990
62
2
0
LINE
8
Setbacks
10
-22.9177447127
20
15.0331724990
11
-22.9180721073
21
15.0333100643
62
2
0
LINE
8
Setbacks
10
-22.9180721073
20
15.0333100643
11
-22.9184182249
21
15.0333987628
62
2
0
LINE
8
Setbacks
10
-22.9184182249
20
15.0333987628
11
-22.9188650717
21
15.0335870547
62
2
0
LINE
8
Setbacks
10
-22.9188650717
20
15.0335870547
11
-22.9881042721
21
15.0689994476
62
2
0
LINE
8
Setbacks
10
-22.9881042721
20
15.0689994476
11
-23.0573628281
21
15.1043055439
62
2
0
LINE
8
Setbacks
10
-23.0573628281
20
15.1043055439
11
-23.0577814071
21
15.1045599680
62
2
0
LINE
8
Setbacks
10
-23.0577814071
20
15.1045599680
11
-23.0580512451
21
15.1047852257
62
2
0
LINE
8
Setbacks
10
-23.0580512451
20
15.1047852257
11
-23.0583563027
21
15.1049711765
62
2
0
LINE
8
Setbacks
10
-23.0583563027
20
15.1049711765
11
-23.0587319447
21
15.1052855661
62
2
0
LINE
8
Setbacks
10
-23.0587319447
20
15.1052855661
11
-23.1137346065
21
15.1587892558
62
2
0
LINE
8
Setbacks
10
-23.1137346065
20
15.1587892558
11
-23.1690794577
21
15.2124789713
62
2
0
LINE
8
Setbacks
10
-23.1690794577
20
15.2124789713
11
-23.1694134874
21
15.2128570537
62
2
0
LINE
8
Setbacks
10
-23.1694134874
20
15.2128570537
11
-23.1695996622
21
15.2131477100
62
2
0
LINE
8
Setbacks
10
-23.1695996622
20
15.2131477100
11
-23.1698334570
21
15.2134130579
62
2
0
LINE
8
Setbacks
10
-23.1698334570
20
15.2134130579
11
-23.1701049788
21
15.2138382046
62
2
0
LINE
8
Setbacks
10
-23.1701049788
20
15.2138382046
11
-23.2056859081
21
15.2803207449
62
2
0
LINE
8
Setbacks
10
-23.2056859081
20
15.2803207449
11
-23.2415004304
21
15.3470132605
62
2
0
LINE
8
Setbacks
10
-23.2415004304
20
15.3470132605
11
-23.2417106748
21
15.3474932114
62
2
0
LINE
8
Setbacks
10
-23.2417106748
20
15.3474932114
11
-23.2417950125
21
15.3478194245
62
2
0
LINE
8
Setbacks
10
-23.2417950125
20
15.3478194245
11
-23.2419344867
21
15.3481389165
62
2
0
LINE
8
Setbacks
10
-23.2419344867
20
15.3481389165
11
-23.2420650127
21
15.3486465036
62
2
0
LINE
8
Setbacks
10
-23.2420650127
20
15.3486465036
11
-23.2547460324
21
15.4217583087
62
2
0
LINE
8
Setbacks
10
-23.2547460324
20
15.4217583087
11
-23.2675195683
21
15.4947674240
62
2
0
LINE
8
Setbacks
10
-23.2675195683
20
15.4947674240
11
-23.2675685476
21
15.4953059421
62
2
0
LINE
8
Setbacks
10
-23.2675685476
20
15.4953059421
11
-23.2675438858
21
15.4956372431
62
2
0
LINE
8
Setbacks
10
5.3641825918
20
16.5171507317
11
-1.0460772539
21
13.3304401733
62
2
0
LINE
8
Setbacks
10
-1.0460772539
20
13.3304401733
11
-6.1795852922
21
-1.9527545149
62
2
0
LINE
8
Setbacks
10
-6.1795852922
20
-1.9527545149
11
-1.3811001950
21
-3.5645288004
62
2
0
LINE
8
Setbacks
10
28.1070599373
20
-4.9980166903
11
30.6753293228
21
2.3855963114
62
2
0
LINE
8
Setbacks
10
30.6753293228
20
2.3855963114
11
4.2999151995
21
11.5598535129
62
2
0
LINE
8
Setbacks
10
13.2045227613
20
-16.9853593655
11
12.5884392256
21
-16.3248982027
62
2
0
LINE
8
Setbacks
10
12.5884392256
20
-16.3248982027
11
12.5881157766
21
-16.3244910415
62
2
0
LINE
8
Setbacks
10
12.5881157766
20
-16.3244910415
11
12.5878607206
21
-16.3240378903
62
2
0
LINE
8
Setbacks
10
12.5878607206
20
-16.3240378903
11
12.2004056557
21
-15.4865690315
62
2
0
LINE
8
Setbacks
10
12.2004056557
20
-15.4865690315
11
12.2002283610
21
-15.4860917153
62
2
0
LINE
8
Setbacks
10
12.2002283610
20
-15.4860917153
11
12.2001270566
21
-15.4855927148
62
2
0
LINE
8
Setbacks
10
12.2001270566
20
-15.4855927148
11
12.0861227879
21
-14.5604860579
62
2
0
LINE
8
Setbacks
10
12.0861227879
20
-14.5604860579
11
12.0860996477
21
-14.5599858520
62
2
0
LINE
8
Setbacks
10
12.0860996477
20
-14.5599858520
11
12.0861528988
21
-14.5594879507
62
2
0
LINE
8
Setbacks
10
12.0861528988
20
-14.5594879507
11
12.2567592035
21
-13.6372992729
62
2
0
LINE
8
Setbacks
10
12.2567592035
20
-13.6372992729
11
12.2568865649
21
-13.6368182610
62
2
0
LINE
8
Setbacks
10
12.2568865649
20
-13.6368182610
11
12.2570852040
21
-13.6363620419
62
2
0
LINE
8
Setbacks
10
12.2570852040
20
-13.6363620419
11
12.6956016222
21
-12.8073613592
62
2
0
LINE
8
Setbacks
10
12.6956016222
20
-12.8073613592
11
12.6958688556
21
-12.8069378881
62
2
0
LINE
8
Setbacks
10
12.6958688556
20
-12.8069378881
11
12.6961974206
21
-12.8065600170
62
2
0
LINE
8
Setbacks
10
12.6961974206
20
-12.8065600170
11
13.3596990822
21
-12.1518962821
62
2
0
LINE
8
Setbacks
10
13.3596990822
20
-12.1518962821
11
13.3600881906
21
-12.1515678639
62
2
0
LINE
8
Setbacks
10
13.3600881906
20
-12.1515678639
11
13.3605234291
21
-12.1513036077
62
2
0
LINE
8
Setbacks
10
13.3605234291
20
-12.1513036077
11
14.1840621693
21
-11.7350591718
62
2
0
LINE
8
Setbacks
10
14.1840621693
20
-11.7350591718
11
14.1845433872
21
-11.7348621214
62
2
0
LINE
8
Setbacks
10
14.1845433872
20
-11.7348621214
11
14.1850496942
21
-11.7347435773
62
2
0
LINE
8
Setbacks
10
14.1850496942
20
-11.7347435773
11
14.4674398991
21
-11.6918735636
62
2
0
LINE
8
Setbacks
10
14.4674398991
20
-11.6918735636
11
18.2624697623
21
-0.7814005269
62
2
0
LINE
8
Setbacks
10
18.2624697623
20
-0.7814005269
11
18.2626684014
21
-0.7809443077
62
2
0
LINE
8
Setbacks
10
18.2626684014
20
-0.7809443077
11
18.4819266105
21
-0.3664439664
62
2
0
LINE
8
Setbacks
10
18.4819266105
20
-0.3664439664
11
18.4821938444
21
-0.3660204946
62
2
0
LINE
8
Setbacks
10
18.4821938444
20
-0.3660204946
11
18.4825224100
21
-0.3656426230
62
2
0
LINE
8
Setbacks
10
18.4825224100
20
-0.3656426230
11
18.7800520316
21
-0.0720764262
62
2
0
LINE
8
Setbacks
10
20.9491390135
20
-0.6728093213
11
21.0059397993
21
-0.7997988966
62
2
0
LINE
8
Setbacks
10
21.0059397993
20
-0.7997988966
11
21.0061098366
21
-0.8002741428
62
2
0
LINE
8
Setbacks
10
21.0061098366
20
-0.8002741428
11
21.0062049627
21
-0.8007698470
62
2
0
LINE
8
Setbacks
10
21.0062049627
20
-0.8007698470
11
21.0583155287
21
-1.2616215677
62
2
0
LINE
8
Setbacks
10
21.0583155287
20
-1.2616215677
11
21.0583340522
21
-1.2621117264
62
2
0
LINE
8
Setbacks
10
21.0583340522
20
-1.2621117264
11
21.0582792916
21
-1.2625991686
62
2
0
LINE
8
Setbacks
10
21.0582792916
20
-1.2625991686
11
20.9712907718
21
-1.7231073854
62
2
0
LINE
8
Setbacks
10
20.9712907718
20
-1.7231073854
11
20.9711656795
21
-1.7235762593
62
2
0
LINE
8
Setbacks
10
20.9711656795
20
-1.7235762593
11
16.3448284722
21
-15.0240057236
62
2
0
LINE
8
Setbacks
10
28.5622864830
20
-9.6424038710
11
28.0037469311
21
-9.5476194151
62
2
0
LINE
8
Setbacks
10
28.0037469311
20
-9.5476194151
11
28.0032180023
21
-9.5474835566
62
2
0
LINE
8
Setbacks
10
28.0032180023
20
-9.5474835566
11
27.9165536294
21
-9.5173388706
62
2
0
LINE
8
Setbacks
10
27.9165536294
20
-9.5173388706
11
27.9160545574
21
-9.5171171558
62
2
0
LINE
8
Setbacks
10
27.9160545574
20
-9.5171171558
11
27.1398156874
21
-9.0916558561
62
2
0
LINE
8
Setbacks
10
27.1398156874
20
-9.0916558561
11
27.1393653817
21
-9.0913584259
62
2
0
LINE
8
Setbacks
10
27.1393653817
20
-9.0913584259
11
27.1389699266
21
-9.0909911995
62
2
0
LINE
8
Setbacks
10
27.1389699266
20
-9.0909911995
11
26.5351903797
21
-8.4298159815
62
2
0
LINE
8
Setbacks
10
26.5351903797
20
-8.4298159815
11
26.5348693391
21
-8.4294024880
62
2
0
LINE
8
Setbacks
10
26.5348693391
20
-8.4294024880
11
26.5346181522
21
-8.4289431961
62
2
0
LINE
8
Setbacks
10
26.5346181522
20
-8.4289431961
11
26.1623999644
21
-7.5967742062
62
2
0
LINE
8
Setbacks
10
26.1623999644
20
-7.5967742062
11
26.1622299275
21
-7.5962989608
62
2
0
LINE
8
Setbacks
10
26.1622299275
20
-7.5962989608
11
26.1621348014
21
-7.5958032574
62
2
0
LINE
8
Setbacks
10
26.1621348014
20
-7.5958032574
11
26.0579133414
21
-6.6740994877
62
2
0
LINE
8
Setbacks
10
26.0579133414
20
-6.6740994877
11
26.0578948177
21
-6.6736093286
62
2
0
LINE
8
Setbacks
10
26.0578948177
20
-6.6736093286
11
26.0579495783
21
-6.6731218859
62
2
0
LINE
8
Setbacks
10
26.0579495783
20
-6.6731218859
11
26.2319266180
21
-5.7521054522
62
2
0
LINE
8
Setbacks
10
26.2319266180
20
-5.7521054522
11
26.2320517103
21
-5.7516365781
62
2
0
LINE
8
Setbacks
10
26.2320517103
20
-5.7516365781
11
26.2322445962
21
-5.7511912850
62
2
0
LINE
8
Setbacks
10
26.2322445962
20
-5.7511912850
11
26.6673902795
21
-4.9210183581
62
2
0
LINE
8
Setbacks
10
26.6673902795
20
-4.9210183581
11
26.6676498383
21
-4.9206021517
62
2
0
LINE
8
Setbacks
10
26.6676498383
20
-4.9206021517
11
26.6679685480
21
-4.9202292942
62
2
0
LINE
8
Setbacks
10
26.6679685480
20
-4.9202292942
11
27.3216874009
21
-4.2621623440
62
2
0
LINE
8
Setbacks
10
27.3216874009
20
-4.2621623440
11
27.3220696193
21
-4.2618326763
62
2
0
LINE
8
Setbacks
10
27.3220696193
20
-4.2618326763
11
27.3224978826
21
-4.2615655391
62
2
0
LINE
8
Setbacks
10
27.3224978826
20
-4.2615655391
11
27.5982273722
21
-4.1177676452
62
2
0
LINE
8
Setbacks
10
26.0060888425
20
-10.4869832212
11
25.9644950182
21
-10.4662526224
62
2
0
LINE
8
Setbacks
10
25.9644950182
20
-10.4662526224
11
25.9640300749
21
-10.4659705323
62
2
0
LINE
8
Setbacks
10
25.9640300749
20
-10.4659705323
11
25.9268299425
21
-10.4389429723
62
2
0
LINE
8
Setbacks
10
25.9268299425
20
-10.4389429723
11
25.9264219139
21
-10.4385919474
62
2
0
LINE
8
Setbacks
10
25.9264219139
20
-10.4385919474
11
25.8930210603
21
-10.4047091403
62
2
0
LINE
8
Setbacks
10
25.8930210603
20
-10.4047091403
11
25.8560303022
21
-10.3751537170
62
2
0
LINE
8
Setbacks
10
25.8560303022
20
-10.3751537170
11
25.8556401081
21
-10.3747858567
62
2
0
LINE
8
Setbacks
10
25.8556401081
20
-10.3747858567
11
25.8248723905
21
-10.3406145957
62
2
0
LINE
8
Setbacks
10
25.8248723905
20
-10.3406145957
11
25.8245519069
21
-10.3401952071
62
2
0
LINE
8
Setbacks
10
25.8245519069
20
-10.3401952071
11
25.7979787241
21
-10.2989175078
62
2
0
LINE
8
Setbacks
10
25.7979787241
20
-10.2989175078
11
25.7671557432
21
-10.2610959302
62
2
0
LINE
8
Setbacks
10
25.7671557432
20
-10.2610959302
11
25.7668576918
21
-10.2606637060
62
2
0
LINE
8
Setbacks
10
25.7668576918
20
-10.2606637060
11
25.7438668775
21
-10.2208421824
62
2
0
LINE
8
Setbacks
10
25.7438668775
20
-10.2208421824
11
25.7436450408
21
-10.2203769866
62
2
0
LINE
8
Setbacks
10
25.7436450408
20
-10.2203769866
11
25.7254021201
21
-10.1728278736
62
2
0
LINE
8
Setbacks
10
25.7254021201
20
-10.1728278736
11
25.7024615333
21
-10.1277137949
62
2
0
LINE
8
Setbacks
10
25.7024615333
20
-10.1277137949
11
25.7022657253
21
-10.1272405263
62
2
0
LINE
8
Setbacks
10
25.7022657253
20
-10.1272405263
11
25.6880567354
21
-10.0835092257
62
2
0
LINE
8
Setbacks
10
25.6880567354
20
-10.0835092257
11
25.6879384329
21
-10.0830203525
62
2
0
LINE
8
Setbacks
10
25.6879384329
20
-10.0830203525
11
25.6794903683
21
-10.0309018747
62
2
0
LINE
8
Setbacks
10
25.6794903683
20
-10.0309018747
11
25.6661281337
21
-9.9801086357
62
2
0
LINE
8
Setbacks
10
25.6661281337
20
-9.9801086357
11
25.6660381512
21
-9.9796168836
62
2
0
LINE
8
Setbacks
10
25.6660381512
20
-9.9796168836
11
25.6612317206
21
-9.9338868953
62
2
0
LINE
8
Setbacks
10
25.6612317206
20
-9.9338868953
11
25.6612171605
21
-9.9333943462
62
2
0
LINE
8
Setbacks
10
25.6612171605
20
-9.9333943462
11
25.6636956198
21
-9.8790989102
62
2
0
LINE
8
Setbacks
10
25.6636956198
20
-9.8790989102
11
25.6612636450
21
-9.8249947518
62
2
0
LINE
8
Setbacks
10
25.6612636450
20
-9.8249947518
11
25.6612783085
21
-9.8245044850
62
2
0
LINE
8
Setbacks
10
25.6612783085
20
-9.8245044850
11
25.6660847391
21
-9.7787744967
62
2
0
LINE
8
Setbacks
10
25.6660847391
20
-9.7787744967
11
25.6661713037
21
-9.7782958467
62
2
0
LINE
8
Setbacks
10
25.6661713037
20
-9.7782958467
11
25.6800065787
21
-9.7248082202
62
2
0
LINE
8
Setbacks
10
25.6800065787
20
-9.7248082202
11
25.6891263298
21
-9.6703924074
62
2
0
LINE
8
Setbacks
10
25.6891263298
20
-9.6703924074
11
25.6892417748
21
-9.6699208684
62
2
0
LINE
8
Setbacks
10
25.6892417748
20
-9.6699208684
11
25.7034507647
21
-9.6261895678
62
2
0
LINE
8
Setbacks
10
25.7034507647
20
-9.6261895678
11
25.7036343802
21
-9.6257405237
62
2
0
LINE
8
Setbacks
10
25.7036343802
20
-9.6257405237
11
25.7282808601
21
-9.5762636545
62
2
0
LINE
8
Setbacks
10
25.7282808601
20
-9.5762636545
11
25.7485665755
21
-9.5247895107
62
2
0
LINE
8
Setbacks
10
25.7485665755
20
-9.5247895107
11
25.7487776446
21
-9.5243520089
62
2
0
LINE
8
Setbacks
10
25.7487776446
20
-9.5243520089
11
25.7717684590
21
-9.4845308134
62
2
0
LINE
8
Setbacks
10
25.7717684590
20
-9.4845308134
11
25.7720439101
21
-9.4841266367
62
2
0
LINE
8
Setbacks
10
25.7720439101
20
-9.4841266367
11
25.8059568179
21
-9.4415681394
62
2
0
LINE
8
Setbacks
10
25.8059568179
20
-9.4415681394
11
25.8360185156
21
-9.3960022950
62
2
0
LINE
8
Setbacks
10
25.8360185156
20
-9.3960022950
11
25.8363189237
21
-9.3956137145
62
2
0
LINE
8
Setbacks
10
25.8363189237
20
-9.3956137145
11
25.8670866412
21
-9.3614427816
62
2
0
LINE
8
Setbacks
10
25.8670866412
20
-9.3614427816
11
25.8674468260
21
-9.3610991922
62
2
0
LINE
8
Setbacks
10
25.8674468260
20
-9.3610991922
11
25.9083645846
21
-9.3276102610
62
2
0
LINE
8
Setbacks
10
25.9083645846
20
-9.3276102610
11
25.9461029977
21
-9.2901950443
62
2
0
LINE
8
Setbacks
10
25.9461029977
20
-9.2901950443
11
25.9464844860
21
-9.2898706400
62
2
0
LINE
8
Setbacks
10
25.9464844860
20
-9.2898706400
11
25.9836846184
21
-9.2628434081
62
2
0
LINE
8
Setbacks
10
25.9836846184
20
-9.2628434081
11
25.9841189211
21
-9.2625767934
62
2
0
LINE
8
Setbacks
10
25.9841189211
20
-9.2625767934
11
26.0295133347
21
-9.2393562161
62
2
0
LINE
8
Setbacks
10
26.0295133347
20
-9.2393562161
11
26.0725590995
21
-9.2114383068
62
2
0
LINE
8
Setbacks
10
26.0725590995
20
-9.2114383068
11
26.0730098976
21
-9.2111937164
62
2
0
LINE
8
Setbacks
10
26.0730098976
20
-9.2111937164
11
26.1150161326
21
-9.1924912880
62
2
0
LINE
8
Setbacks
10
26.1150161326
20
-9.1924912880
11
26.1155089182
21
-9.1923174380
62
2
0
LINE
8
Setbacks
10
26.1155089182
20
-9.1923174380
11
26.1629916003
21
-9.1797146416
62
2
0
LINE
8
Setbacks
10
26.1629916003
20
-9.1797146416
11
26.2090851248
21
-9.1618483668
62
2
0
LINE
8
Setbacks
10
26.2090851248
20
-9.1618483668
11
26.2095887353
21
-9.1616982979
62
2
0
LINE
8
Setbacks
10
26.2095887353
20
-9.1616982979
11
26.2545657709
21
-9.1521382583
62
2
0
LINE
8
Setbacks
10
26.2545657709
20
-9.1521382583
11
26.2550956515
21
-9.1520700997
62
2
0
LINE
8
Setbacks
10
26.2550956515
20
-9.1520700997
11
26.3026345639
21
-9.1498618448
62
2
0
LINE
8
Setbacks
10
26.3026345639
20
-9.1498618448
11
26.3498352920
21
-9.1420658021
62
2
0
LINE
8
Setbacks
10
26.3498352920
20
-9.1420658021
11
26.3503699377
21
-9.1420219461
62
2
0
LINE
8
Setbacks
10
26.3503699377
20
-9.1420219461
11
26.3963518946
21
-9.1420219461
62
2
0
LINE
8
Setbacks
10
26.3963518946
20
-9.1420219461
11
26.3968927384
21
-9.1420668320
62
2
0
LINE
8
Setbacks
10
26.3968927384
20
-9.1420668320
11
26.4428484210
21
-9.1497476731
62
2
0
LINE
8
Setbacks
10
26.4428484210
20
-9.1497476731
11
26.4895433464
21
-9.1517786543
62
2
0
LINE
8
Setbacks
10
26.4895433464
20
-9.1517786543
11
26.4900829209
21
-9.1518472525
62
2
0
LINE
8
Setbacks
10
26.4900829209
20
-9.1518472525
11
26.5350599565
21
-9.1614076203
62
2
0
LINE
8
Setbacks
10
26.5350599565
20
-9.1614076203
11
26.5355830922
21
-9.1615653332
62
2
0
LINE
8
Setbacks
10
26.5355830922
20
-9.1615653332
11
26.5785999202
21
-9.1785564135
62
2
0
LINE
8
Setbacks
10
26.5785999202
20
-9.1785564135
11
26.6234015914
21
-9.1900967873
62
2
0
LINE
8
Setbacks
10
26.6234015914
20
-9.1900967873
11
26.6239176330
21
-9.1902767171
62
2
0
LINE
8
Setbacks
10
26.6239176330
20
-9.1902767171
11
26.6659241960
21
-9.2089791456
62
2
0
LINE
8
Setbacks
10
26.6659241960
20
-9.2089791456
11
26.6664017933
21
-9.2092413015
62
2
0
LINE
8
Setbacks
10
26.6664017933
20
-9.2092413015
11
26.7052428968
21
-9.2349744309
62
2
0
LINE
8
Setbacks
10
26.7052428968
20
-9.2349744309
11
26.7468367211
21
-9.2557050297
62
2
0
LINE
8
Setbacks
10
26.7468367211
20
-9.2557050297
11
26.7473016644
21
-9.2559871198
62
2
0
LINE
8
Setbacks
10
26.7473016644
20
-9.2559871198
11
26.7845017968
21
-9.2830146798
62
2
0
LINE
8
Setbacks
10
26.7845017968
20
-9.2830146798
11
26.7849098254
21
-9.2833657047
62
2
0
LINE
8
Setbacks
10
26.7849098254
20
-9.2833657047
11
26.8183106789
21
-9.3172485118
62
2
0
LINE
8
Setbacks
10
26.8183106789
20
-9.3172485118
11
26.8553014371
21
-9.3468039351
62
2
0
LINE
8
Setbacks
10
26.8553014371
20
-9.3468039351
11
26.8556916312
21
-9.3471717954
62
2
0
LINE
8
Setbacks
10
26.8556916312
20
-9.3471717954
11
26.8864593487
21
-9.3813430564
62
2
0
LINE
8
Setbacks
10
26.8864593487
20
-9.3813430564
11
26.8867798253
21
-9.3817624340
62
2
0
LINE
8
Setbacks
10
26.8867798253
20
-9.3817624340
11
26.9133536689
21
-9.4230407980
62
2
0
LINE
8
Setbacks
10
26.9133536689
20
-9.4230407980
11
26.9441760000
21
-9.4608617267
62
2
0
LINE
8
Setbacks
10
26.9441760000
20
-9.4608617267
11
26.9444740474
21
-9.4612939461
62
2
0
LINE
8
Setbacks
10
26.9444740474
20
-9.4612939461
11
26.9674648618
21
-9.5011154697
62
2
0
LINE
8
Setbacks
10
26.9674648618
20
-9.5011154697
11
26.9676866984
21
-9.5015806655
62
2
0
LINE
8
Setbacks
10
26.9676866984
20
-9.5015806655
11
26.9859296192
21
-9.5491297785
62
2
0
LINE
8
Setbacks
10
26.9859296192
20
-9.5491297785
11
27.0088702060
21
-9.5942438572
62
2
0
LINE
8
Setbacks
10
27.0088702060
20
-9.5942438572
11
27.0090660139
21
-9.5947171258
62
2
0
LINE
8
Setbacks
10
27.0090660139
20
-9.5947171258
11
27.0232750039
21
-9.6384484264
62
2
0
LINE
8
Setbacks
10
27.0232750039
20
-9.6384484264
11
27.0233933063
21
-9.6389372996
62
2
0
LINE
8
Setbacks
10
27.0233933063
20
-9.6389372996
11
27.0318413709
21
-9.6910557774
62
2
0
LINE
8
Setbacks
10
27.0318413709
20
-9.6910557774
11
27.0452036056
21
-9.7418490164
62
2
0
LINE
8
Setbacks
10
27.0452036056
20
-9.7418490164
11
27.0452935881
21
-9.7423407685
62
2
0
LINE
8
Setbacks
10
27.0452935881
20
-9.7423407685
11
27.0501000187
21
-9.7880707568
62
2
0
LINE
8
Setbacks
10
27.0501000187
20
-9.7880707568
11
27.0501145788
21
-9.7885633059
62
2
0
LINE
8
Setbacks
10
27.0501145788
20
-9.7885633059
11
27.0476361195
21
-9.8428587419
62
2
0
LINE
8
Setbacks
10
27.0476361195
20
-9.8428587419
11
27.0500680942
21
-9.8969629003
62
2
0
LINE
8
Setbacks
10
27.0500680942
20
-9.8969629003
11
27.0500534308
21
-9.8974531671
62
2
0
LINE
8
Setbacks
10
27.0500534308
20
-9.8974531671
11
27.0452470002
21
-9.9431831554
62
2
0
LINE
8
Setbacks
10
27.0452470002
20
-9.9431831554
11
27.0451604357
21
-9.9436618048
62
2
0
LINE
8
Setbacks
10
27.0451604357
20
-9.9436618048
11
27.0313248333
21
-9.9971507408
62
2
0
LINE
8
Setbacks
10
27.0313248333
20
-9.9971507408
11
27.0222054105
21
-10.0515652385
62
2
0
LINE
8
Setbacks
10
27.0222054105
20
-10.0515652385
11
27.0220899645
21
-10.0520367837
62
2
0
LINE
8
Setbacks
10
27.0220899645
20
-10.0520367837
11
27.0078809745
21
-10.0957680843
62
2
0
LINE
8
Setbacks
10
27.0078809745
20
-10.0957680843
11
27.0076973591
21
-10.0962171284
62
2
0
LINE
8
Setbacks
10
27.0076973591
20
-10.0962171284
11
26.9830508792
21
-10.1456939976
62
2
0
LINE
8
Setbacks
10
26.9830508792
20
-10.1456939976
11
26.9627651638
21
-10.1971681414
62
2
0
LINE
8
Setbacks
10
26.9627651638
20
-10.1971681414
11
26.9625540946
21
-10.1976056432
62
2
0
LINE
8
Setbacks
10
26.9625540946
20
-10.1976056432
11
26.9395632802
21
-10.2374268387
62
2
0
LINE
8
Setbacks
10
26.9395632802
20
-10.2374268387
11
26.9392878291
21
-10.2378310154
62
2
0
LINE
8
Setbacks
10
26.9392878291
20
-10.2378310154
11
26.9053749213
21
-10.2803895127
62
2
0
LINE
8
Setbacks
10
26.9053749213
20
-10.2803895127
11
26.8753132236
21
-10.3259553571
62
2
0
LINE
8
Setbacks
10
26.8753132236
20
-10.3259553571
11
26.8750128260
21
-10.3263439260
62
2
0
LINE
8
Setbacks
10
26.8750128260
20
-10.3263439260
11
26.8442451085
21
-10.3605151869
62
2
0
LINE
8
Setbacks
10
26.8442451085
20
-10.3605151869
11
26.8438849099
21
-10.3608587907
62
2
0
LINE
8
Setbacks
10
26.8438849099
20
-10.3608587907
11
26.8029658406
21
-10.3943487051
62
2
0
LINE
8
Setbacks
10
26.8029658406
20
-10.3943487051
11
26.7652287412
21
-10.4317626081
62
2
0
LINE
8
Setbacks
10
26.7652287412
20
-10.4317626081
11
26.7648472686
21
-10.4320870010
62
2
0
LINE
8
Setbacks
10
26.7648472686
20
-10.4320870010
11
26.7276471362
21
-10.4591145609
62
2
0
LINE
8
Setbacks
10
26.7276471362
20
-10.4591145609
11
26.7272128097
21
-10.4593811912
62
2
0
LINE
8
Setbacks
10
26.7272128097
20
-10.4593811912
11
26.6818180748
21
-10.4826017655
62
2
0
LINE
8
Setbacks
10
26.6818180748
20
-10.4826017655
11
26.6387729723
21
-10.5105193424
62
2
0
LINE
8
Setbacks
10
26.6387729723
20
-10.5105193424
11
26.6383221610
21
-10.5107639395
62
2
0
LINE
8
Setbacks
10
26.6383221610
20
-10.5107639395
11
26.5963155980
21
-10.5294663680
62
2
0
LINE
8
Setbacks
10
26.5963155980
20
-10.5294663680
11
26.5958228210
21
-10.5296402141
62
2
0
LINE
8
Setbacks
10
26.5958228210
20
-10.5296402141
11
26.5483401389
21
-10.5422430105
62
2
0
LINE
8
Setbacks
10
26.5483401389
20
-10.5422430105
11
26.5022466145
21
-10.5601092853
62
2
0
LINE
8
Setbacks
10
26.5022466145
20
-10.5601092853
11
26.5017430263
21
-10.5602593494
62
2
0
LINE
8
Setbacks
10
26.5017430263
20
-10.5602593494
11
26.4567659907
21
-10.5698197172
62
2
0
LINE
8
Setbacks
10
26.4567659907
20
-10.5698197172
11
26.4562360814
21
-10.5698878808
62
2
0
LINE
8
Setbacks
10
26.4562360814
20
-10.5698878808
11
26.4086952037
21
-10.5720961359
62
2
0
LINE
8
Setbacks
10
26.4086952037
20
-10.5720961359
11
26.3614964470
21
-10.5798918500
62
2
0
LINE
8
Setbacks
10
26.3614964470
20
-10.5798918500
11
26.3609618016
21
-10.5799357060
62
2
0
LINE
8
Setbacks
10
26.3609618016
20
-10.5799357060
11
26.3149798447
21
-10.5799357060
62
2
0
LINE
8
Setbacks
10
26.3149798447
20
-10.5799357060
11
26.3144389971
21
-10.5798908195
62
2
0
LINE
8
Setbacks
10
26.3144389971
20
-10.5798908195
11
26.2684836450
21
-10.5722099790
62
2
0
LINE
8
Setbacks
10
26.2684836450
20
-10.5722099790
11
26.2217883939
21
-10.5701789979
62
2
0
LINE
8
Setbacks
10
26.2217883939
20
-10.5701789979
11
26.2212488183
21
-10.5701103996
62
2
0
LINE
8
Setbacks
10
26.2212488183
20
-10.5701103996
11
26.1762717828
21
-10.5605500318
62
2
0
LINE
8
Setbacks
10
26.1762717828
20
-10.5605500318
11
26.1757486471
21
-10.5603923189
62
2
0
LINE
8
Setbacks
10
26.1757486471
20
-10.5603923189
11
26.1327318191
21
-10.5434012386
62
2
0
LINE
8
Setbacks
10
26.1327318191
20
-10.5434012386
11
26.0879301479
21
-10.5318608648
62
2
0
LINE
8
Setbacks
10
26.0879301479
20
-10.5318608648
11
26.0874141063
21
-10.5316809350
62
2
0
LINE
8
Setbacks
10
26.0874141063
20
-10.5316809350
11
26.0454075432
21
-10.5129785065
62
2
0
LINE
8
Setbacks
10
26.0454075432
20
-10.5129785065
11
26.0449299459
21
-10.5127163506
62
2
0
LINE
8
Setbacks
10
26.0449299459
20
-10.5127163506
11
26.0060888425
21
-10.4869832212
62
2
0
LINE
8
Setbacks
10
11.0275119540
20
21.8594815411
11
8.0338093830
21
13.2527742678
62
2
0
LINE
8
Setbacks
10
8.0338093830
20
13.2527742678
11
31.6036280864
21
5.0543975423
62
2
0
LINE
8
Setbacks
10
31.6036280864
20
5.0543975423
11
34.5973310157
21
13.6611049064
62
2
0
CIRCLE
8
Obstructions
10
26.3556658755
20
-9.8609788318
40
0.2199490545
62
252
0
LINE
8
Obstructions
10
-22.0962821940
20
17.4721936025
11
-17.6793596635
21
15.9893945628
62
252
0
LINE
8
Obstructions
10
-17.6793596635
20
15.9893945628
11
-18.3474410758
21
13.9989377261
62
252
0
LINE
8
Obstructions
10
-18.3474410758
20
13.9989377261
11
-22.7672809907
21
15.4817367632
62
252
0
LINE
8
Obstructions
10
-22.7672809907
20
15.4817367632
11
-22.0962821940
21
17.4721936025
62
252
0
LINE
8
Obstructions
10
-16.0427060701
20
15.5073022660
11
-11.6257835395
21
14.0208510116
62
252
0
LINE
8
Obstructions
10
-11.6257835395
20
14.0208510116
11
-12.2938649519
21
12.0303941750
62
252
0
LINE
8
Obstructions
10
-12.2938649519
20
12.0303941750
11
-16.7107874825
21
13.5131932121
62
252
0
LINE
8
Obstructions
10
-16.7107874825
20
13.5131932121
11
-16.0427060701
21
15.5073022660
62
252
0
LINE
8
Obstructions
10
-21.8978999364
20
10.8105545691
11
-16.8975001907
21
9.0867093810
62
252
0
LINE
8
Obstructions
10
-16.8975001907
20
9.0867093810
11
-18.2307456311
21
5.2080577085
62
252
0
LINE
8
Obstructions
10
-18.2307456311
20
5.2080577085
11
-23.2311453769
21
6.9319028966
62
252
0
LINE
8
Obstructions
10
-23.2311453769
20
6.9319028966
11
-21.8978999364
21
10.8105545691
62
252
0
ENDSEC
0
EOF