999
Design created by Aurora
0
SECTION
2
HEADER
9
$ACADVER
1
AC1009
9
$INSUNITS
70
2
0
ENDSEC
0
SECTION
2
TABLES
0
TABLE
2
LTYPE
100
AcDbLinetypeTableRecord
2
LTYPE
0
LTYPE
2
DASHED
70
0
3
dashed line
72
65
73
2
40
4.0
49
2.0
49
-2.0
0
ENDTAB
0
TABLE
2
LAYER
70
6
0
LAYER
100
AcDbSymbolTable
100
AcDbLayerTable
2
Inverters
70
0
62
7
6
CONTINUOUS
0
LAYER
100
AcDbSymbolTable
100
AcDbLayerTable
2
Setbacks
70
0
62
7
6
CONTINUOUS
0
LAYER
100
AcDbSymbolTable
100
AcDbLayerTable
2
Connections
70
0
62
7
6
CONTINUOUS
0
LAYER
100
AcDbSymbolTable
100
AcDbLayerTable
2
Strings
70
0
62
7
6
CONTINUOUS
0
LAYER
100
AcDbSymbolTable
100
AcDbLayerTable
2
Modules
70
0
62
7
6
CONTINUOUS
0
LAYER
100
AcDbSymbolTable
100
AcDbLayerTable
2
Buildings
70
0
62
7
6
CONTINUOUS
0
ENDTAB
0
ENDSEC
0
SECTION
2
ENTITIES
0
LINE
8
Modules
10
641.7961738244
20
-75.3756724790
11
636.5666509089
21
-78.7288211188
62
254
0
LINE
8
Modules
10
636.5666509089
20
-78.7288211188
11
638.3304587825
21
-81.4796307858
62
254
0
LINE
8
Modules
10
638.3304587825
20
-81.4796307858
11
643.5599816980
21
-78.1264821461
62
254
0
LINE
8
Modules
10
643.5599816980
20
-78.1264821461
11
641.7961738244
21
-75.3756724790
62
254
0
LINE
8
Modules
10
639.4967227366
20
-78.3037809254
11
639.9394455964
21
-78.9942451993
62
254
0
LINE
8
Modules
10
639.9394455964
20
-78.9942451993
11
640.6299098703
21
-78.5515223394
62
254
0
LINE
8
Modules
10
640.6299098703
20
-78.5515223394
11
640.1871870105
21
-77.8610580656
62
254
0
LINE
8
Modules
10
640.1871870105
20
-77.8610580656
11
639.4967227366
21
-78.3037809254
62
254
0
LINE
8
Modules
10
639.4967227366
20
-78.3037809254
11
640.6299098703
21
-78.5515223394
62
254
0
TEXT
8
Modules
100
AcDbText
10
639.9513739580
20
-78.0707206088
1
DC
7
NewTextStyle_4
40
0.2624672000000003
50
-57.33217386711809
0
TEXT
8
Modules
100
AcDbText
10
639.7152397370
20
-78.5534032634
1
DC
7
NewTextStyle_4
40
0.2624672000000003
50
-57.33217386711809
0
LINE
8
Modules
10
643.5808643548
20
-78.1586598539
11
638.3513411122
21
-81.5118084018
62
254
0
LINE
8
Modules
10
638.3513411122
20
-81.5118084018
11
640.1151488865
21
-84.2626181325
62
254
0
LINE
8
Modules
10
640.1151488865
20
-84.2626181325
11
645.3446721291
21
-80.9094695846
62
254
0
LINE
8
Modules
10
645.3446721291
20
-80.9094695846
11
643.5808643548
21
-78.1586598539
62
254
0
LINE
8
Modules
10
641.2814130588
20
-81.0867682630
11
641.7241358904
21
-81.7772325550
62
254
0
LINE
8
Modules
10
641.7241358904
20
-81.7772325550
11
642.4146001824
21
-81.3345097234
62
254
0
LINE
8
Modules
10
642.4146001824
20
-81.3345097234
11
641.9718773508
21
-80.6440454314
62
254
0
LINE
8
Modules
10
641.9718773508
20
-80.6440454314
11
641.2814130588
21
-81.0867682630
62
254
0
LINE
8
Modules
10
641.2814130588
20
-81.0867682630
11
642.4146001824
21
-81.3345097234
62
254
0
TEXT
8
Modules
100
AcDbText
10
641.7360642897
20
-80.8537079650
1
DC
7
NewTextStyle_4
40
0.2624672000000003
50
-57.332176208500634
0
TEXT
8
Modules
100
AcDbText
10
641.4999300490
20
-81.3363906099
1
DC
7
NewTextStyle_4
40
0.2624672000000003
50
-57.332176208500634
0
LINE
8
Modules
10
645.3684660818
20
-80.9452994268
11
640.1389428392
21
-84.2984479747
62
254
0
LINE
8
Modules
10
640.1389428392
20
-84.2984479747
11
641.9027506135
21
-87.0492577054
62
254
0
LINE
8
Modules
10
641.9027506135
20
-87.0492577054
11
647.1322738562
21
-83.6961091575
62
254
0
LINE
8
Modules
10
647.1322738562
20
-83.6961091575
11
645.3684660818
21
-80.9452994268
62
254
0
LINE
8
Modules
10
643.0690147859
20
-83.8734078359
11
643.5117376175
21
-84.5638721279
62
254
0
LINE
8
Modules
10
643.5117376175
20
-84.5638721279
11
644.2022019095
21
-84.1211492963
62
254
0
LINE
8
Modules
10
644.2022019095
20
-84.1211492963
11
643.7594790779
21
-83.4306850043
62
254
0
LINE
8
Modules
10
643.7594790779
20
-83.4306850043
11
643.0690147859
21
-83.8734078359
62
254
0
LINE
8
Modules
10
643.0690147859
20
-83.8734078359
11
644.2022019095
21
-84.1211492963
62
254
0
TEXT
8
Modules
100
AcDbText
10
643.5236660168
20
-83.6403475378
1
DC
7
NewTextStyle_4
40
0.2624672000000003
50
-57.332176208500634
0
TEXT
8
Modules
100
AcDbText
10
643.2875317761
20
-84.1230301828
1
DC
7
NewTextStyle_4
40
0.2624672000000003
50
-57.332176208500634
0
LINE
8
Modules
10
647.1531563990
20
-83.7319389996
11
641.9236331564
21
-87.0850875476
62
254
0
LINE
8
Modules
10
641.9236331564
20
-87.0850875476
11
643.6874409307
21
-89.8358972783
62
254
0
LINE
8
Modules
10
643.6874409307
20
-89.8358972783
11
648.9169641733
21
-86.4827487304
62
254
0
LINE
8
Modules
10
648.9169641733
20
-86.4827487304
11
647.1531563990
21
-83.7319389996
62
254
0
LINE
8
Modules
10
644.8537051031
20
-86.6600474088
11
645.2964279347
21
-87.3505117008
62
254
0
LINE
8
Modules
10
645.2964279347
20
-87.3505117008
11
645.9868922266
21
-86.9077888691
62
254
0
LINE
8
Modules
10
645.9868922266
20
-86.9077888691
11
645.5441693950
21
-86.2173245772
62
254
0
LINE
8
Modules
10
645.5441693950
20
-86.2173245772
11
644.8537051031
21
-86.6600474088
62
254
0
LINE
8
Modules
10
644.8537051031
20
-86.6600474088
11
645.9868922266
21
-86.9077888691
62
254
0
TEXT
8
Modules
100
AcDbText
10
645.3083563340
20
-86.4269871107
1
DC
7
NewTextStyle_4
40
0.2624672000000003
50
-57.332176208500634
0
TEXT
8
Modules
100
AcDbText
10
645.0722220932
20
-86.9096697557
1
DC
7
NewTextStyle_4
40
0.2624672000000003
50
-57.332176208500634
0
LINE
8
Modules
10
648.9407581261
20
-86.5185785725
11
643.7112348834
21
-89.8717271205
62
254
0
LINE
8
Modules
10
643.7112348834
20
-89.8717271205
11
645.4750426577
21
-92.6225368512
62
254
0
LINE
8
Modules
10
645.4750426577
20
-92.6225368512
11
650.7045659004
21
-89.2693883032
62
254
0
LINE
8
Modules
10
650.7045659004
20
-89.2693883032
11
648.9407581261
21
-86.5185785725
62
254
0
LINE
8
Modules
10
646.6413068301
20
-89.4466869817
11
647.0840296617
21
-90.1371512736
62
254
0
LINE
8
Modules
10
647.0840296617
20
-90.1371512736
11
647.7744939537
21
-89.6944284420
62
254
0
LINE
8
Modules
10
647.7744939537
20
-89.6944284420
11
647.3317711221
21
-89.0039641501
62
254
0
LINE
8
Modules
10
647.3317711221
20
-89.0039641501
11
646.6413068301
21
-89.4466869817
62
254
0
LINE
8
Modules
10
646.6413068301
20
-89.4466869817
11
647.7744939537
21
-89.6944284420
62
254
0
TEXT
8
Modules
100
AcDbText
10
647.0959580610
20
-89.2136266836
1
DC
7
NewTextStyle_4
40
0.2624672000000003
50
-57.332176208500634
0
TEXT
8
Modules
100
AcDbText
10
646.8598238203
20
-89.6963093286
1
DC
7
NewTextStyle_4
40
0.2624672000000003
50
-57.332176208500634
0
LINE
8
Modules
10
650.7254484474
20
-89.3052181454
11
645.4959252047
21
-92.6583666933
62
254
0
LINE
8
Modules
10
645.4959252047
20
-92.6583666933
11
647.2597329790
21
-95.4091764241
62
254
0
LINE
8
Modules
10
647.2597329790
20
-95.4091764241
11
652.4892562217
21
-92.0560278761
62
254
0
LINE
8
Modules
10
652.4892562217
20
-92.0560278761
11
650.7254484474
21
-89.3052181454
62
254
0
LINE
8
Modules
10
648.4259971514
20
-92.2333265546
11
648.8687199830
21
-92.9237908465
62
254
0
LINE
8
Modules
10
648.8687199830
20
-92.9237908465
11
649.5591842750
21
-92.4810680149
62
254
0
LINE
8
Modules
10
649.5591842750
20
-92.4810680149
11
649.1164614434
21
-91.7906037229
62
254
0
LINE
8
Modules
10
649.1164614434
20
-91.7906037229
11
648.4259971514
21
-92.2333265546
62
254
0
LINE
8
Modules
10
648.4259971514
20
-92.2333265546
11
649.5591842750
21
-92.4810680149
62
254
0
TEXT
8
Modules
100
AcDbText
10
648.8806483823
20
-92.0002662565
1
DC
7
NewTextStyle_4
40
0.2624672000000003
50
-57.332176208500634
0
TEXT
8
Modules
100
AcDbText
10
648.6445141416
20
-92.4829489014
1
DC
7
NewTextStyle_4
40
0.2624672000000003
50
-57.332176208500634
0
LINE
8
Modules
10
652.5130501703
20
-92.0882055062
11
647.2835269277
21
-95.4413540541
62
254
0
LINE
8
Modules
10
647.2835269277
20
-95.4413540541
11
649.0473347020
21
-98.1921637848
62
254
0
LINE
8
Modules
10
649.0473347020
20
-98.1921637848
11
654.2768579446
21
-94.8390152369
62
254
0
LINE
8
Modules
10
654.2768579446
20
-94.8390152369
11
652.5130501703
21
-92.0882055062
62
254
0
LINE
8
Modules
10
650.2135988743
20
-95.0163139153
11
650.6563217060
21
-95.7067782073
62
254
0
LINE
8
Modules
10
650.6563217060
20
-95.7067782073
11
651.3467859979
21
-95.2640553757
62
254
0
LINE
8
Modules
10
651.3467859979
20
-95.2640553757
11
650.9040631663
21
-94.5735910837
62
254
0
LINE
8
Modules
10
650.9040631663
20
-94.5735910837
11
650.2135988743
21
-95.0163139153
62
254
0
LINE
8
Modules
10
650.2135988743
20
-95.0163139153
11
651.3467859979
21
-95.2640553757
62
254
0
TEXT
8
Modules
100
AcDbText
10
650.6682501053
20
-94.7832536173
1
DC
7
NewTextStyle_4
40
0.2624672000000003
50
-57.332176208500634
0
TEXT
8
Modules
100
AcDbText
10
650.4321158645
20
-95.2659362622
1
DC
7
NewTextStyle_4
40
0.2624672000000003
50
-57.332176208500634
0
LINE
8
Modules
10
654.3006518932
20
-94.8748450791
11
649.0711286506
21
-98.2279936270
62
254
0
LINE
8
Modules
10
649.0711286506
20
-98.2279936270
11
650.8349364249
21
-100.9788033577
62
254
0
LINE
8
Modules
10
650.8349364249
20
-100.9788033577
11
656.0644596675
21
-97.6256548098
62
254
0
LINE
8
Modules
10
656.0644596675
20
-97.6256548098
11
654.3006518932
21
-94.8748450791
62
254
0
LINE
8
Modules
10
652.0012005973
20
-97.8029534882
11
652.4439234289
21
-98.4934177802
62
254
0
LINE
8
Modules
10
652.4439234289
20
-98.4934177802
11
653.1343877208
21
-98.0506949486
62
254
0
LINE
8
Modules
10
653.1343877208
20
-98.0506949486
11
652.6916648892
21
-97.3602306566
62
254
0
LINE
8
Modules
10
652.6916648892
20
-97.3602306566
11
652.0012005973
21
-97.8029534882
62
254
0
LINE
8
Modules
10
652.0012005973
20
-97.8029534882
11
653.1343877208
21
-98.0506949486
62
254
0
TEXT
8
Modules
100
AcDbText
10
652.4558518282
20
-97.5698931901
1
DC
7
NewTextStyle_4
40
0.2624672000000003
50
-57.332176208500634
0
TEXT
8
Modules
100
AcDbText
10
652.2197175874
20
-98.0525758351
1
DC
7
NewTextStyle_4
40
0.2624672000000003
50
-57.332176208500634
0
LINE
8
Modules
10
656.0853422145
20
-97.6614846519
11
650.8558189719
21
-101.0146331999
62
254
0
LINE
8
Modules
10
650.8558189719
20
-101.0146331999
11
652.6196267462
21
-103.7654429306
62
254
0
LINE
8
Modules
10
652.6196267462
20
-103.7654429306
11
657.8491499888
21
-100.4122943827
62
254
0
LINE
8
Modules
10
657.8491499888
20
-100.4122943827
11
656.0853422145
21
-97.6614846519
62
254
0
LINE
8
Modules
10
653.7858909186
20
-100.5895930611
11
654.2286137502
21
-101.2800573531
62
254
0
LINE
8
Modules
10
654.2286137502
20
-101.2800573531
11
654.9190780421
21
-100.8373345214
62
254
0
LINE
8
Modules
10
654.9190780421
20
-100.8373345214
11
654.4763552105
21
-100.1468702295
62
254
0
LINE
8
Modules
10
654.4763552105
20
-100.1468702295
11
653.7858909186
21
-100.5895930611
62
254
0
LINE
8
Modules
10
653.7858909186
20
-100.5895930611
11
654.9190780421
21
-100.8373345214
62
254
0
TEXT
8
Modules
100
AcDbText
10
654.2405421495
20
-100.3565327630
1
DC
7
NewTextStyle_4
40
0.2624672000000003
50
-57.332176208500634
0
TEXT
8
Modules
100
AcDbText
10
654.0044079087
20
-100.8392154080
1
DC
7
NewTextStyle_4
40
0.2624672000000003
50
-57.332176208500634
0
LINE
8
Modules
10
657.8729439374
20
-100.4481242248
11
652.6434206948
21
-103.8012727728
62
254
0
LINE
8
Modules
10
652.6434206948
20
-103.8012727728
11
654.4072284691
21
-106.5520825035
62
254
0
LINE
8
Modules
10
654.4072284691
20
-106.5520825035
11
659.6367517117
21
-103.1989339555
62
254
0
LINE
8
Modules
10
659.6367517117
20
-103.1989339555
11
657.8729439374
21
-100.4481242248
62
254
0
LINE
8
Modules
10
655.5734926415
20
-103.3762326340
11
656.0162154731
21
-104.0666969259
62
254
0
LINE
8
Modules
10
656.0162154731
20
-104.0666969259
11
656.7066797651
21
-103.6239740943
62
254
0
LINE
8
Modules
10
656.7066797651
20
-103.6239740943
11
656.2639569334
21
-102.9335098024
62
254
0
LINE
8
Modules
10
656.2639569334
20
-102.9335098024
11
655.5734926415
21
-103.3762326340
62
254
0
LINE
8
Modules
10
655.5734926415
20
-103.3762326340
11
656.7066797651
21
-103.6239740943
62
254
0
TEXT
8
Modules
100
AcDbText
10
656.0281438724
20
-103.1431723359
1
DC
7
NewTextStyle_4
40
0.2624672000000003
50
-57.332176208500634
0
TEXT
8
Modules
100
AcDbText
10
655.7920096317
20
-103.6258549809
1
DC
7
NewTextStyle_4
40
0.2624672000000003
50
-57.332176208500634
0
LINE
8
Modules
10
659.6576342587
20
-103.2347637977
11
654.4281110161
21
-106.5879123456
62
254
0
LINE
8
Modules
10
654.4281110161
20
-106.5879123456
11
656.1919187904
21
-109.3387220764
62
254
0
LINE
8
Modules
10
656.1919187904
20
-109.3387220764
11
661.4214420330
21
-105.9855735284
62
254
0
LINE
8
Modules
10
661.4214420330
20
-105.9855735284
11
659.6576342587
21
-103.2347637977
62
254
0
LINE
8
Modules
10
657.3581829628
20
-106.1628722069
11
657.8009057944
21
-106.8533364988
62
254
0
LINE
8
Modules
10
657.8009057944
20
-106.8533364988
11
658.4913700864
21
-106.4106136672
62
254
0
LINE
8
Modules
10
658.4913700864
20
-106.4106136672
11
658.0486472547
21
-105.7201493752
62
254
0
LINE
8
Modules
10
658.0486472547
20
-105.7201493752
11
657.3581829628
21
-106.1628722069
62
254
0
LINE
8
Modules
10
657.3581829628
20
-106.1628722069
11
658.4913700864
21
-106.4106136672
62
254
0
TEXT
8
Modules
100
AcDbText
10
657.8128341937
20
-105.9298119088
1
DC
7
NewTextStyle_4
40
0.2624672000000003
50
-57.332176208500634
0
TEXT
8
Modules
100
AcDbText
10
657.5766999530
20
-106.4124945537
1
DC
7
NewTextStyle_4
40
0.2624672000000003
50
-57.332176208500634
0
LINE
8
Modules
10
661.4452359817
20
-106.0177511559
11
656.2157127390
21
-109.3708997038
62
254
0
LINE
8
Modules
10
656.2157127390
20
-109.3708997038
11
657.9795205133
21
-112.1217094345
62
254
0
LINE
8
Modules
10
657.9795205133
20
-112.1217094345
11
663.2090437560
21
-108.7685608866
62
254
0
LINE
8
Modules
10
663.2090437560
20
-108.7685608866
11
661.4452359817
21
-106.0177511559
62
254
0
LINE
8
Modules
10
659.1457846857
20
-108.9458595650
11
659.5885075173
21
-109.6363238570
62
254
0
LINE
8
Modules
10
659.5885075173
20
-109.6363238570
11
660.2789718093
21
-109.1936010254
62
254
0
LINE
8
Modules
10
660.2789718093
20
-109.1936010254
11
659.8362489777
21
-108.5031367334
62
254
0
LINE
8
Modules
10
659.8362489777
20
-108.5031367334
11
659.1457846857
21
-108.9458595650
62
254
0
LINE
8
Modules
10
659.1457846857
20
-108.9458595650
11
660.2789718093
21
-109.1936010254
62
254
0
TEXT
8
Modules
100
AcDbText
10
659.6004359166
20
-108.7127992670
1
DC
7
NewTextStyle_4
40
0.2624672000000003
50
-57.332176208500634
0
TEXT
8
Modules
100
AcDbText
10
659.3643016759
20
-109.1954819119
1
DC
7
NewTextStyle_4
40
0.2624672000000003
50
-57.332176208500634
0
LINE
8
Modules
10
663.2299263030
20
-108.8043907314
11
658.0004030603
21
-112.1575392793
62
254
0
LINE
8
Modules
10
658.0004030603
20
-112.1575392793
11
659.7642108346
21
-114.9083490100
62
254
0
LINE
8
Modules
10
659.7642108346
20
-114.9083490100
11
664.9937340773
21
-111.5552004621
62
254
0
LINE
8
Modules
10
664.9937340773
20
-111.5552004621
11
663.2299263030
21
-108.8043907314
62
254
0
LINE
8
Modules
10
660.9304750070
20
-111.7324991405
11
661.3731978386
21
-112.4229634325
62
254
0
LINE
8
Modules
10
661.3731978386
20
-112.4229634325
11
662.0636621306
21
-111.9802406009
62
254
0
LINE
8
Modules
10
662.0636621306
20
-111.9802406009
11
661.6209392990
21
-111.2897763089
62
254
0
LINE
8
Modules
10
661.6209392990
20
-111.2897763089
11
660.9304750070
21
-111.7324991405
62
254
0
LINE
8
Modules
10
660.9304750070
20
-111.7324991405
11
662.0636621306
21
-111.9802406009
62
254
0
TEXT
8
Modules
100
AcDbText
10
661.3851262379
20
-111.4994388424
1
DC
7
NewTextStyle_4
40
0.2624672000000003
50
-57.332176208500634
0
TEXT
8
Modules
100
AcDbText
10
661.1489919972
20
-111.9821214874
1
DC
7
NewTextStyle_4
40
0.2624672000000003
50
-57.332176208500634
0
LINE
8
Modules
10
665.0175280259
20
-111.5910303042
11
659.7880047833
21
-114.9441788522
62
254
0
LINE
8
Modules
10
659.7880047833
20
-114.9441788522
11
661.5518125576
21
-117.6949885829
62
254
0
LINE
8
Modules
10
661.5518125576
20
-117.6949885829
11
666.7813358002
21
-114.3418400350
62
254
0
LINE
8
Modules
10
666.7813358002
20
-114.3418400350
11
665.0175280259
21
-111.5910303042
62
254
0
LINE
8
Modules
10
662.7180767299
20
-114.5191387134
11
663.1607995616
21
-115.2096030053
62
254
0
LINE
8
Modules
10
663.1607995616
20
-115.2096030053
11
663.8512638535
21
-114.7668801737
62
254
0
LINE
8
Modules
10
663.8512638535
20
-114.7668801737
11
663.4085410219
21
-114.0764158818
62
254
0
LINE
8
Modules
10
663.4085410219
20
-114.0764158818
11
662.7180767299
21
-114.5191387134
62
254
0
LINE
8
Modules
10
662.7180767299
20
-114.5191387134
11
663.8512638535
21
-114.7668801737
62
254
0
TEXT
8
Modules
100
AcDbText
10
663.1727279608
20
-114.2860784153
1
DC
7
NewTextStyle_4
40
0.2624672000000003
50
-57.332176208500634
0
TEXT
8
Modules
100
AcDbText
10
662.9365937201
20
-114.7687610603
1
DC
7
NewTextStyle_4
40
0.2624672000000003
50
-57.332176208500634
0
LINE
8
Modules
10
666.8022183472
20
-114.3776698771
11
661.5726951045
21
-117.7308184251
62
254
0
LINE
8
Modules
10
661.5726951045
20
-117.7308184251
11
663.3365028789
21
-120.4816281558
62
254
0
LINE
8
Modules
10
663.3365028789
20
-120.4816281558
11
668.5660261215
21
-117.1284796078
62
254
0
LINE
8
Modules
10
668.5660261215
20
-117.1284796078
11
666.8022183472
21
-114.3776698771
62
254
0
LINE
8
Modules
10
664.5027670512
20
-117.3057782863
11
664.9454898828
21
-117.9962425782
62
254
0
LINE
8
Modules
10
664.9454898828
20
-117.9962425782
11
665.6359541748
21
-117.5535197466
62
254
0
LINE
8
Modules
10
665.6359541748
20
-117.5535197466
11
665.1932313432
21
-116.8630554547
62
254
0
LINE
8
Modules
10
665.1932313432
20
-116.8630554547
11
664.5027670512
21
-117.3057782863
62
254
0
LINE
8
Modules
10
664.5027670512
20
-117.3057782863
11
665.6359541748
21
-117.5535197466
62
254
0
TEXT
8
Modules
100
AcDbText
10
664.9574182821
20
-117.0727179882
1
DC
7
NewTextStyle_4
40
0.2624672000000003
50
-57.332176208500634
0
TEXT
8
Modules
100
AcDbText
10
664.7212840414
20
-117.5554006332
1
DC
7
NewTextStyle_4
40
0.2624672000000003
50
-57.332176208500634
0
LINE
8
Modules
10
668.5898200701
20
-117.1643094500
11
663.3602968275
21
-120.5174579979
62
254
0
LINE
8
Modules
10
663.3602968275
20
-120.5174579979
11
665.1241046018
21
-123.2682677286
62
254
0
LINE
8
Modules
10
665.1241046018
20
-123.2682677286
11
670.3536278444
21
-119.9151191807
62
254
0
LINE
8
Modules
10
670.3536278444
20
-119.9151191807
11
668.5898200701
21
-117.1643094500
62
254
0
LINE
8
Modules
10
666.2903687742
20
-120.0924178591
11
666.7330916058
21
-120.7828821511
62
254
0
LINE
8
Modules
10
666.7330916058
20
-120.7828821511
11
667.4235558977
21
-120.3401593195
62
254
0
LINE
8
Modules
10
667.4235558977
20
-120.3401593195
11
666.9808330661
21
-119.6496950275
62
254
0
LINE
8
Modules
10
666.9808330661
20
-119.6496950275
11
666.2903687742
21
-120.0924178591
62
254
0
LINE
8
Modules
10
666.2903687742
20
-120.0924178591
11
667.4235558977
21
-120.3401593195
62
254
0
TEXT
8
Modules
100
AcDbText
10
666.7450200051
20
-119.8593575611
1
DC
7
NewTextStyle_4
40
0.2624672000000003
50
-57.332176208500634
0
TEXT
8
Modules
100
AcDbText
10
666.5088857643
20
-120.3420402060
1
DC
7
NewTextStyle_4
40
0.2624672000000003
50
-57.332176208500634
0
LINE
8
Modules
10
670.3774217972
20
-119.9472968082
11
665.1478985545
21
-123.3004453561
62
254
0
LINE
8
Modules
10
665.1478985545
20
-123.3004453561
11
666.9117063288
21
-126.0512550868
62
254
0
LINE
8
Modules
10
666.9117063288
20
-126.0512550868
11
672.1412295715
21
-122.6981065389
62
254
0
LINE
8
Modules
10
672.1412295715
20
-122.6981065389
11
670.3774217972
21
-119.9472968082
62
254
0
LINE
8
Modules
10
668.0779705012
20
-122.8754052173
11
668.5206933328
21
-123.5658695093
62
254
0
LINE
8
Modules
10
668.5206933328
20
-123.5658695093
11
669.2111576248
21
-123.1231466777
62
254
0
LINE
8
Modules
10
669.2111576248
20
-123.1231466777
11
668.7684347932
21
-122.4326823857
62
254
0
LINE
8
Modules
10
668.7684347932
20
-122.4326823857
11
668.0779705012
21
-122.8754052173
62
254
0
LINE
8
Modules
10
668.0779705012
20
-122.8754052173
11
669.2111576248
21
-123.1231466777
62
254
0
TEXT
8
Modules
100
AcDbText
10
668.5326217321
20
-122.6423449193
1
DC
7
NewTextStyle_4
40
0.2624672000000003
50
-57.332176208500634
0
TEXT
8
Modules
100
AcDbText
10
668.2964874914
20
-123.1250275642
1
DC
7
NewTextStyle_4
40
0.2624672000000003
50
-57.332176208500634
0
LINE
8
Modules
10
672.1621121143
20
-122.7339363837
11
666.9325888717
21
-126.0870849316
62
254
0
LINE
8
Modules
10
666.9325888717
20
-126.0870849316
11
668.6963966460
21
-128.8378946623
62
254
0
LINE
8
Modules
10
668.6963966460
20
-128.8378946623
11
673.9259198886
21
-125.4847461144
62
254
0
LINE
8
Modules
10
673.9259198886
20
-125.4847461144
11
672.1621121143
21
-122.7339363837
62
254
0
LINE
8
Modules
10
669.8626608184
20
-125.6620447928
11
670.3053836500
21
-126.3525090848
62
254
0
LINE
8
Modules
10
670.3053836500
20
-126.3525090848
11
670.9958479420
21
-125.9097862532
62
254
0
LINE
8
Modules
10
670.9958479420
20
-125.9097862532
11
670.5531251103
21
-125.2193219612
62
254
0
LINE
8
Modules
10
670.5531251103
20
-125.2193219612
11
669.8626608184
21
-125.6620447928
62
254
0
LINE
8
Modules
10
669.8626608184
20
-125.6620447928
11
670.9958479420
21
-125.9097862532
62
254
0
TEXT
8
Modules
100
AcDbText
10
670.3173120493
20
-125.4289844947
1
DC
7
NewTextStyle_4
40
0.2624672000000003
50
-57.332176208500634
0
TEXT
8
Modules
100
AcDbText
10
670.0811778085
20
-125.9116671397
1
DC
7
NewTextStyle_4
40
0.2624672000000003
50
-57.332176208500634
0
LINE
8
Modules
10
673.9497138414
20
-125.5205759565
11
668.7201905988
21
-128.8737245045
62
254
0
LINE
8
Modules
10
668.7201905988
20
-128.8737245045
11
670.4839983731
21
-131.6245342352
62
254
0
LINE
8
Modules
10
670.4839983731
20
-131.6245342352
11
675.7135216157
21
-128.2713856872
62
254
0
LINE
8
Modules
10
675.7135216157
20
-128.2713856872
11
673.9497138414
21
-125.5205759565
62
254
0
LINE
8
Modules
10
671.6502625454
20
-128.4486843657
11
672.0929853771
21
-129.1391486576
62
254
0
LINE
8
Modules
10
672.0929853771
20
-129.1391486576
11
672.7834496690
21
-128.6964258260
62
254
0
LINE
8
Modules
10
672.7834496690
20
-128.6964258260
11
672.3407268374
21
-128.0059615341
62
254
0
LINE
8
Modules
10
672.3407268374
20
-128.0059615341
11
671.6502625454
21
-128.4486843657
62
254
0
LINE
8
Modules
10
671.6502625454
20
-128.4486843657
11
672.7834496690
21
-128.6964258260
62
254
0
TEXT
8
Modules
100
AcDbText
10
672.1049137764
20
-128.2156240676
1
DC
7
NewTextStyle_4
40
0.2624672000000003
50
-57.332176208500634
0
TEXT
8
Modules
100
AcDbText
10
671.8687795356
20
-128.6983067126
1
DC
7
NewTextStyle_4
40
0.2624672000000003
50
-57.332176208500634
0
LINE
8
Modules
10
675.7344041586
20
-128.3072155294
11
670.5048809159
21
-131.6603640773
62
254
0
LINE
8
Modules
10
670.5048809159
20
-131.6603640773
11
672.2686886902
21
-134.4111738081
62
254
0
LINE
8
Modules
10
672.2686886902
20
-134.4111738081
11
677.4982119329
21
-131.0580252601
62
254
0
LINE
8
Modules
10
677.4982119329
20
-131.0580252601
11
675.7344041586
21
-128.3072155294
62
254
0
LINE
8
Modules
10
673.4349528626
20
-131.2353239386
11
673.8776756942
21
-131.9257882305
62
254
0
LINE
8
Modules
10
673.8776756942
20
-131.9257882305
11
674.5681399862
21
-131.4830653989
62
254
0
LINE
8
Modules
10
674.5681399862
20
-131.4830653989
11
674.1254171546
21
-130.7926011070
62
254
0
LINE
8
Modules
10
674.1254171546
20
-130.7926011070
11
673.4349528626
21
-131.2353239386
62
254
0
LINE
8
Modules
10
673.4349528626
20
-131.2353239386
11
674.5681399862
21
-131.4830653989
62
254
0
TEXT
8
Modules
100
AcDbText
10
673.8896040935
20
-131.0022636405
1
DC
7
NewTextStyle_4
40
0.2624672000000003
50
-57.332176208500634
0
TEXT
8
Modules
100
AcDbText
10
673.6534698528
20
-131.4849462855
1
DC
7
NewTextStyle_4
40
0.2624672000000003
50
-57.332176208500634
0
LINE
8
Modules
10
677.5220058856
20
-131.0938551023
11
672.2924826430
21
-134.4470036502
62
254
0
LINE
8
Modules
10
672.2924826430
20
-134.4470036502
11
674.0562904173
21
-137.1978133809
62
254
0
LINE
8
Modules
10
674.0562904173
20
-137.1978133809
11
679.2858136599
21
-133.8446648330
62
254
0
LINE
8
Modules
10
679.2858136599
20
-133.8446648330
11
677.5220058856
21
-131.0938551023
62
254
0
LINE
8
Modules
10
675.2225545897
20
-134.0219635114
11
675.6652774213
21
-134.7124278034
62
254
0
LINE
8
Modules
10
675.6652774213
20
-134.7124278034
11
676.3557417132
21
-134.2697049718
62
254
0
LINE
8
Modules
10
676.3557417132
20
-134.2697049718
11
675.9130188816
21
-133.5792406798
62
254
0
LINE
8
Modules
10
675.9130188816
20
-133.5792406798
11
675.2225545897
21
-134.0219635114
62
254
0
LINE
8
Modules
10
675.2225545897
20
-134.0219635114
11
676.3557417132
21
-134.2697049718
62
254
0
TEXT
8
Modules
100
AcDbText
10
675.6772058206
20
-133.7889032134
1
DC
7
NewTextStyle_4
40
0.2624672000000003
50
-57.332176208500634
0
TEXT
8
Modules
100
AcDbText
10
675.4410715798
20
-134.2715858583
1
DC
7
NewTextStyle_4
40
0.2624672000000003
50
-57.332176208500634
0
LINE
8
Modules
10
679.3066962028
20
-133.8768424605
11
674.0771729601
21
-137.2299910084
62
254
0
LINE
8
Modules
10
674.0771729601
20
-137.2299910084
11
675.8409807344
21
-139.9808007391
62
254
0
LINE
8
Modules
10
675.8409807344
20
-139.9808007391
11
681.0705039771
21
-136.6276521912
62
254
0
LINE
8
Modules
10
681.0705039771
20
-136.6276521912
11
679.3066962028
21
-133.8768424605
62
254
0
LINE
8
Modules
10
677.0072449068
20
-136.8049508696
11
677.4499677384
21
-137.4954151616
62
254
0
LINE
8
Modules
10
677.4499677384
20
-137.4954151616
11
678.1404320304
21
-137.0526923300
62
254
0
LINE
8
Modules
10
678.1404320304
20
-137.0526923300
11
677.6977091988
21
-136.3622280380
62
254
0
LINE
8
Modules
10
677.6977091988
20
-136.3622280380
11
677.0072449068
21
-136.8049508696
62
254
0
LINE
8
Modules
10
677.0072449068
20
-136.8049508696
11
678.1404320304
21
-137.0526923300
62
254
0
TEXT
8
Modules
100
AcDbText
10
677.4618961377
20
-136.5718905716
1
DC
7
NewTextStyle_4
40
0.2624672000000003
50
-57.332176208500634
0
TEXT
8
Modules
100
AcDbText
10
677.2257618970
20
-137.0545732165
1
DC
7
NewTextStyle_4
40
0.2624672000000003
50
-57.332176208500634
0
LINE
8
Modules
10
681.0942979298
20
-136.6634820334
11
675.8647746872
21
-140.0166305813
62
254
0
LINE
8
Modules
10
675.8647746872
20
-140.0166305813
11
677.6285824615
21
-142.7674403120
62
254
0
LINE
8
Modules
10
677.6285824615
20
-142.7674403120
11
682.8581057041
21
-139.4142917641
62
254
0
LINE
8
Modules
10
682.8581057041
20
-139.4142917641
11
681.0942979298
21
-136.6634820334
62
254
0
LINE
8
Modules
10
678.7948466339
20
-139.5915904425
11
679.2375694655
21
-140.2820547345
62
254
0
LINE
8
Modules
10
679.2375694655
20
-140.2820547345
11
679.9280337575
21
-139.8393319029
62
254
0
LINE
8
Modules
10
679.9280337575
20
-139.8393319029
11
679.4853109258
21
-139.1488676109
62
254
0
LINE
8
Modules
10
679.4853109258
20
-139.1488676109
11
678.7948466339
21
-139.5915904425
62
254
0
LINE
8
Modules
10
678.7948466339
20
-139.5915904425
11
679.9280337575
21
-139.8393319029
62
254
0
TEXT
8
Modules
100
AcDbText
10
679.2494978648
20
-139.3585301444
1
DC
7
NewTextStyle_4
40
0.2624672000000003
50
-57.332176208500634
0
TEXT
8
Modules
100
AcDbText
10
679.0133636241
20
-139.8412127894
1
DC
7
NewTextStyle_4
40
0.2624672000000003
50
-57.332176208500634
0
LINE
8
Modules
10
682.8789882511
20
-139.4501216088
11
677.6494650085
21
-142.8032701568
62
254
0
LINE
8
Modules
10
677.6494650085
20
-142.8032701568
11
679.4132727828
21
-145.5540798875
62
254
0
LINE
8
Modules
10
679.4132727828
20
-145.5540798875
11
684.6427960254
21
-142.2009313395
62
254
0
LINE
8
Modules
10
684.6427960254
20
-142.2009313395
11
682.8789882511
21
-139.4501216088
62
254
0
LINE
8
Modules
10
680.5795369552
20
-142.3782300180
11
681.0222597868
21
-143.0686943099
62
254
0
LINE
8
Modules
10
681.0222597868
20
-143.0686943099
11
681.7127240788
21
-142.6259714783
62
254
0
LINE
8
Modules
10
681.7127240788
20
-142.6259714783
11
681.2700012471
21
-141.9355071864
62
254
0
LINE
8
Modules
10
681.2700012471
20
-141.9355071864
11
680.5795369552
21
-142.3782300180
62
254
0
LINE
8
Modules
10
680.5795369552
20
-142.3782300180
11
681.7127240788
21
-142.6259714783
62
254
0
TEXT
8
Modules
100
AcDbText
10
681.0341881861
20
-142.1451697199
1
DC
7
NewTextStyle_4
40
0.2624672000000003
50
-57.332176208500634
0
TEXT
8
Modules
100
AcDbText
10
680.7980539453
20
-142.6278523649
1
DC
7
NewTextStyle_4
40
0.2624672000000003
50
-57.332176208500634
0
LINE
8
Modules
10
647.0570800872
20
-72.0010264054
11
641.8275568446
21
-75.3541749534
62
254
0
LINE
8
Modules
10
641.8275568446
20
-75.3541749534
11
643.5913646189
21
-78.1049846841
62
254
0
LINE
8
Modules
10
643.5913646189
20
-78.1049846841
11
648.8208878616
21
-74.7518361361
62
254
0
LINE
8
Modules
10
648.8208878616
20
-74.7518361361
11
647.0570800872
21
-72.0010264054
62
254
0
LINE
8
Modules
10
644.7576287913
20
-74.9291348146
11
645.2003516229
21
-75.6195991065
62
254
0
LINE
8
Modules
10
645.2003516229
20
-75.6195991065
11
645.8908159149
21
-75.1768762749
62
254
0
LINE
8
Modules
10
645.8908159149
20
-75.1768762749
11
645.4480930833
21
-74.4864119830
62
254
0
LINE
8
Modules
10
645.4480930833
20
-74.4864119830
11
644.7576287913
21
-74.9291348146
62
254
0
LINE
8
Modules
10
644.7576287913
20
-74.9291348146
11
645.8908159149
21
-75.1768762749
62
254
0
TEXT
8
Modules
100
AcDbText
10
645.2122800222
20
-74.6960745165
1
DC
7
NewTextStyle_4
40
0.2624672000000003
50
-57.332176208500634
0
TEXT
8
Modules
100
AcDbText
10
644.9761457815
20
-75.1787571615
1
DC
7
NewTextStyle_4
40
0.2624672000000003
50
-57.332176208500634
0
LINE
8
Modules
10
648.8446818102
20
-74.7876659783
11
643.6151585675
21
-78.1408145262
62
254
0
LINE
8
Modules
10
643.6151585675
20
-78.1408145262
11
645.3789663418
21
-80.8916242570
62
254
0
LINE
8
Modules
10
645.3789663418
20
-80.8916242570
11
650.6084895845
21
-77.5384757090
62
254
0
LINE
8
Modules
10
650.6084895845
20
-77.5384757090
11
648.8446818102
21
-74.7876659783
62
254
0
LINE
8
Modules
10
646.5452305142
20
-77.7157743875
11
646.9879533458
21
-78.4062386794
62
254
0
LINE
8
Modules
10
646.9879533458
20
-78.4062386794
11
647.6784176378
21
-77.9635158478
62
254
0
LINE
8
Modules
10
647.6784176378
20
-77.9635158478
11
647.2356948062
21
-77.2730515558
62
254
0
LINE
8
Modules
10
647.2356948062
20
-77.2730515558
11
646.5452305142
21
-77.7157743875
62
254
0
LINE
8
Modules
10
646.5452305142
20
-77.7157743875
11
647.6784176378
21
-77.9635158478
62
254
0
TEXT
8
Modules
100
AcDbText
10
646.9998817451
20
-77.4827140894
1
DC
7
NewTextStyle_4
40
0.2624672000000003
50
-57.332176208500634
0
TEXT
8
Modules
100
AcDbText
10
646.7637475044
20
-77.9653967343
1
DC
7
NewTextStyle_4
40
0.2624672000000003
50
-57.332176208500634
0
LINE
8
Modules
10
650.6293721315
20
-77.5706533365
11
645.3998488888
21
-80.9238018844
62
254
0
LINE
8
Modules
10
645.3998488888
20
-80.9238018844
11
647.1636566631
21
-83.6746116151
62
254
0
LINE
8
Modules
10
647.1636566631
20
-83.6746116151
11
652.3931799058
21
-80.3214630672
62
254
0
LINE
8
Modules
10
652.3931799058
20
-80.3214630672
11
650.6293721315
21
-77.5706533365
62
254
0
LINE
8
Modules
10
648.3299208355
20
-80.4987617456
11
648.7726436671
21
-81.1892260376
62
254
0
LINE
8
Modules
10
648.7726436671
20
-81.1892260376
11
649.4631079591
21
-80.7465032060
62
254
0
LINE
8
Modules
10
649.4631079591
20
-80.7465032060
11
649.0203851275
21
-80.0560389140
62
254
0
LINE
8
Modules
10
649.0203851275
20
-80.0560389140
11
648.3299208355
21
-80.4987617456
62
254
0
LINE
8
Modules
10
648.3299208355
20
-80.4987617456
11
649.4631079591
21
-80.7465032060
62
254
0
TEXT
8
Modules
100
AcDbText
10
648.7845720664
20
-80.2657014476
1
DC
7
NewTextStyle_4
40
0.2624672000000003
50
-57.332176208500634
0
TEXT
8
Modules
100
AcDbText
10
648.5484378257
20
-80.7483840925
1
DC
7
NewTextStyle_4
40
0.2624672000000003
50
-57.332176208500634
0
LINE
8
Modules
10
652.4169738544
20
-80.3572929120
11
647.1874506118
21
-83.7104414599
62
254
0
LINE
8
Modules
10
647.1874506118
20
-83.7104414599
11
648.9512583861
21
-86.4612511906
62
254
0
LINE
8
Modules
10
648.9512583861
20
-86.4612511906
11
654.1807816287
21
-83.1081026427
62
254
0
LINE
8
Modules
10
654.1807816287
20
-83.1081026427
11
652.4169738544
21
-80.3572929120
62
254
0
LINE
8
Modules
10
650.1175225584
20
-83.2854013211
11
650.5602453901
21
-83.9758656131
62
254
0
LINE
8
Modules
10
650.5602453901
20
-83.9758656131
11
651.2507096820
21
-83.5331427815
62
254
0
LINE
8
Modules
10
651.2507096820
20
-83.5331427815
11
650.8079868504
21
-82.8426784895
62
254
0
LINE
8
Modules
10
650.8079868504
20
-82.8426784895
11
650.1175225584
21
-83.2854013211
62
254
0
LINE
8
Modules
10
650.1175225584
20
-83.2854013211
11
651.2507096820
21
-83.5331427815
62
254
0
TEXT
8
Modules
100
AcDbText
10
650.5721737894
20
-83.0523410230
1
DC
7
NewTextStyle_4
40
0.2624672000000003
50
-57.332176208500634
0
TEXT
8
Modules
100
AcDbText
10
650.3360395486
20
-83.5350236680
1
DC
7
NewTextStyle_4
40
0.2624672000000003
50
-57.332176208500634
0
LINE
8
Modules
10
654.2016641757
20
-83.1439324848
11
648.9721409331
21
-86.4970810328
62
254
0
LINE
8
Modules
10
648.9721409331
20
-86.4970810328
11
650.7359487074
21
-89.2478907635
62
254
0
LINE
8
Modules
10
650.7359487074
20
-89.2478907635
11
655.9654719500
21
-85.8947422156
62
254
0
LINE
8
Modules
10
655.9654719500
20
-85.8947422156
11
654.2016641757
21
-83.1439324848
62
254
0
LINE
8
Modules
10
651.9022128797
20
-86.0720408940
11
652.3449357114
21
-86.7625051860
62
254
0
LINE
8
Modules
10
652.3449357114
20
-86.7625051860
11
653.0354000033
21
-86.3197823543
62
254
0
LINE
8
Modules
10
653.0354000033
20
-86.3197823543
11
652.5926771717
21
-85.6293180624
62
254
0
LINE
8
Modules
10
652.5926771717
20
-85.6293180624
11
651.9022128797
21
-86.0720408940
62
254
0
LINE
8
Modules
10
651.9022128797
20
-86.0720408940
11
653.0354000033
21
-86.3197823543
62
254
0
TEXT
8
Modules
100
AcDbText
10
652.3568641106
20
-85.8389805959
1
DC
7
NewTextStyle_4
40
0.2624672000000003
50
-57.332176208500634
0
TEXT
8
Modules
100
AcDbText
10
652.1207298699
20
-86.3216632409
1
DC
7
NewTextStyle_4
40
0.2624672000000003
50
-57.332176208500634
0
LINE
8
Modules
10
655.9892658986
20
-85.9305720577
11
650.7597426560
21
-89.2837206057
62
254
0
LINE
8
Modules
10
650.7597426560
20
-89.2837206057
11
652.5235504303
21
-92.0345303364
62
254
0
LINE
8
Modules
10
652.5235504303
20
-92.0345303364
11
657.7530736729
21
-88.6813817884
62
254
0
LINE
8
Modules
10
657.7530736729
20
-88.6813817884
11
655.9892658986
21
-85.9305720577
62
254
0
LINE
8
Modules
10
653.6898146027
20
-88.8586804669
11
654.1325374343
21
-89.5491447588
62
254
0
LINE
8
Modules
10
654.1325374343
20
-89.5491447588
11
654.8230017262
21
-89.1064219272
62
254
0
LINE
8
Modules
10
654.8230017262
20
-89.1064219272
11
654.3802788946
21
-88.4159576353
62
254
0
LINE
8
Modules
10
654.3802788946
20
-88.4159576353
11
653.6898146027
21
-88.8586804669
62
254
0
LINE
8
Modules
10
653.6898146027
20
-88.8586804669
11
654.8230017262
21
-89.1064219272
62
254
0
TEXT
8
Modules
100
AcDbText
10
654.1444658336
20
-88.6256201688
1
DC
7
NewTextStyle_4
40
0.2624672000000003
50
-57.332176208500634
0
TEXT
8
Modules
100
AcDbText
10
653.9083315928
20
-89.1083028138
1
DC
7
NewTextStyle_4
40
0.2624672000000003
50
-57.332176208500634
0
LINE
8
Modules
10
657.7768676257
20
-88.7172116306
11
652.5473443830
21
-92.0703601785
62
254
0
LINE
8
Modules
10
652.5473443830
20
-92.0703601785
11
654.3111521574
21
-94.8211699093
62
254
0
LINE
8
Modules
10
654.3111521574
20
-94.8211699093
11
659.5406754000
21
-91.4680213613
62
254
0
LINE
8
Modules
10
659.5406754000
20
-91.4680213613
11
657.7768676257
21
-88.7172116306
62
254
0
LINE
8
Modules
10
655.4774163297
20
-91.6453200397
11
655.9201391613
21
-92.3357843317
62
254
0
LINE
8
Modules
10
655.9201391613
20
-92.3357843317
11
656.6106034533
21
-91.8930615001
62
254
0
LINE
8
Modules
10
656.6106034533
20
-91.8930615001
11
656.1678806217
21
-91.2025972081
62
254
0
LINE
8
Modules
10
656.1678806217
20
-91.2025972081
11
655.4774163297
21
-91.6453200397
62
254
0
LINE
8
Modules
10
655.4774163297
20
-91.6453200397
11
656.6106034533
21
-91.8930615001
62
254
0
TEXT
8
Modules
100
AcDbText
10
655.9320675606
20
-91.4122597417
1
DC
7
NewTextStyle_4
40
0.2624672000000003
50
-57.332176208500634
0
TEXT
8
Modules
100
AcDbText
10
655.6959333199
20
-91.8949423866
1
DC
7
NewTextStyle_4
40
0.2624672000000003
50
-57.332176208500634
0
LINE
8
Modules
10
659.5615579428
20
-91.5001989888
11
654.3320347002
21
-94.8533475367
62
254
0
LINE
8
Modules
10
654.3320347002
20
-94.8533475367
11
656.0958424745
21
-97.6041572674
62
254
0
LINE
8
Modules
10
656.0958424745
20
-97.6041572674
11
661.3253657171
21
-94.2510087195
62
254
0
LINE
8
Modules
10
661.3253657171
20
-94.2510087195
11
659.5615579428
21
-91.5001989888
62
254
0
LINE
8
Modules
10
657.2621066469
20
-94.4283073979
11
657.7048294785
21
-95.1187716899
62
254
0
LINE
8
Modules
10
657.7048294785
20
-95.1187716899
11
658.3952937705
21
-94.6760488583
62
254
0
LINE
8
Modules
10
658.3952937705
20
-94.6760488583
11
657.9525709388
21
-93.9855845663
62
254
0
LINE
8
Modules
10
657.9525709388
20
-93.9855845663
11
657.2621066469
21
-94.4283073979
62
254
0
LINE
8
Modules
10
657.2621066469
20
-94.4283073979
11
658.3952937705
21
-94.6760488583
62
254
0
TEXT
8
Modules
100
AcDbText
10
657.7167578778
20
-94.1952470999
1
DC
7
NewTextStyle_4
40
0.2624672000000003
50
-57.332176208500634
0
TEXT
8
Modules
100
AcDbText
10
657.4806236371
20
-94.6779297448
1
DC
7
NewTextStyle_4
40
0.2624672000000003
50
-57.332176208500634
0
LINE
8
Modules
10
661.3491596699
20
-94.2868385643
11
656.1196364273
21
-97.6399871122
62
254
0
LINE
8
Modules
10
656.1196364273
20
-97.6399871122
11
657.8834442016
21
-100.3907968429
62
254
0
LINE
8
Modules
10
657.8834442016
20
-100.3907968429
11
663.1129674442
21
-97.0376482950
62
254
0
LINE
8
Modules
10
663.1129674442
20
-97.0376482950
11
661.3491596699
21
-94.2868385643
62
254
0
LINE
8
Modules
10
659.0497083740
20
-97.2149469734
11
659.4924312056
21
-97.9054112654
62
254
0
LINE
8
Modules
10
659.4924312056
20
-97.9054112654
11
660.1828954975
21
-97.4626884338
62
254
0
LINE
8
Modules
10
660.1828954975
20
-97.4626884338
11
659.7401726659
21
-96.7722241418
62
254
0
LINE
8
Modules
10
659.7401726659
20
-96.7722241418
11
659.0497083740
21
-97.2149469734
62
254
0
LINE
8
Modules
10
659.0497083740
20
-97.2149469734
11
660.1828954975
21
-97.4626884338
62
254
0
TEXT
8
Modules
100
AcDbText
10
659.5043596049
20
-96.9818866753
1
DC
7
NewTextStyle_4
40
0.2624672000000003
50
-57.332176208500634
0
TEXT
8
Modules
100
AcDbText
10
659.2682253641
20
-97.4645693203
1
DC
7
NewTextStyle_4
40
0.2624672000000003
50
-57.332176208500634
0
LINE
8
Modules
10
663.1338499871
20
-97.0734781371
11
657.9043267444
21
-100.4266266851
62
254
0
LINE
8
Modules
10
657.9043267444
20
-100.4266266851
11
659.6681345187
21
-103.1774364158
62
254
0
LINE
8
Modules
10
659.6681345187
20
-103.1774364158
11
664.8976577614
21
-99.8242878679
62
254
0
LINE
8
Modules
10
664.8976577614
20
-99.8242878679
11
663.1338499871
21
-97.0734781371
62
254
0
LINE
8
Modules
10
660.8343986911
20
-100.0015865463
11
661.2771215227
21
-100.6920508382
62
254
0
LINE
8
Modules
10
661.2771215227
20
-100.6920508382
11
661.9675858147
21
-100.2493280066
62
254
0
LINE
8
Modules
10
661.9675858147
20
-100.2493280066
11
661.5248629831
21
-99.5588637147
62
254
0
LINE
8
Modules
10
661.5248629831
20
-99.5588637147
11
660.8343986911
21
-100.0015865463
62
254
0
LINE
8
Modules
10
660.8343986911
20
-100.0015865463
11
661.9675858147
21
-100.2493280066
62
254
0
TEXT
8
Modules
100
AcDbText
10
661.2890499220
20
-99.7685262482
1
DC
7
NewTextStyle_4
40
0.2624672000000003
50
-57.332176208500634
0
TEXT
8
Modules
100
AcDbText
10
661.0529156813
20
-100.2512088932
1
DC
7
NewTextStyle_4
40
0.2624672000000003
50
-57.332176208500634
0
LINE
8
Modules
10
664.9214517141
20
-99.8601177100
11
659.6919284715
21
-103.2132662579
62
254
0
LINE
8
Modules
10
659.6919284715
20
-103.2132662579
11
661.4557362458
21
-105.9640759887
62
254
0
LINE
8
Modules
10
661.4557362458
20
-105.9640759887
11
666.6852594884
21
-102.6109274407
62
254
0
LINE
8
Modules
10
666.6852594884
20
-102.6109274407
11
664.9214517141
21
-99.8601177100
62
254
0
LINE
8
Modules
10
662.6220004182
20
-102.7882261192
11
663.0647232498
21
-103.4786904111
62
254
0
LINE
8
Modules
10
663.0647232498
20
-103.4786904111
11
663.7551875417
21
-103.0359675795
62
254
0
LINE
8
Modules
10
663.7551875417
20
-103.0359675795
11
663.3124647101
21
-102.3455032876
62
254
0
LINE
8
Modules
10
663.3124647101
20
-102.3455032876
11
662.6220004182
21
-102.7882261192
62
254
0
LINE
8
Modules
10
662.6220004182
20
-102.7882261192
11
663.7551875417
21
-103.0359675795
62
254
0
TEXT
8
Modules
100
AcDbText
10
663.0766516491
20
-102.5551658211
1
DC
7
NewTextStyle_4
40
0.2624672000000003
50
-57.332176208500634
0
TEXT
8
Modules
100
AcDbText
10
662.8405174083
20
-103.0378484661
1
DC
7
NewTextStyle_4
40
0.2624672000000003
50
-57.332176208500634
0
LINE
8
Modules
10
666.7061420313
20
-102.6467572829
11
661.4766187887
21
-105.9999058308
62
254
0
LINE
8
Modules
10
661.4766187887
20
-105.9999058308
11
663.2404265630
21
-108.7507155615
62
254
0
LINE
8
Modules
10
663.2404265630
20
-108.7507155615
11
668.4699498056
21
-105.3975670136
62
254
0
LINE
8
Modules
10
668.4699498056
20
-105.3975670136
11
666.7061420313
21
-102.6467572829
62
254
0
LINE
8
Modules
10
664.4066907353
20
-105.5748656920
11
664.8494135669
21
-106.2653299840
62
254
0
LINE
8
Modules
10
664.8494135669
20
-106.2653299840
11
665.5398778589
21
-105.8226071524
62
254
0
LINE
8
Modules
10
665.5398778589
20
-105.8226071524
11
665.0971550273
21
-105.1321428604
62
254
0
LINE
8
Modules
10
665.0971550273
20
-105.1321428604
11
664.4066907353
21
-105.5748656920
62
254
0
LINE
8
Modules
10
664.4066907353
20
-105.5748656920
11
665.5398778589
21
-105.8226071524
62
254
0
TEXT
8
Modules
100
AcDbText
10
664.8613419662
20
-105.3418053940
1
DC
7
NewTextStyle_4
40
0.2624672000000003
50
-57.332176208500634
0
TEXT
8
Modules
100
AcDbText
10
664.6252077255
20
-105.8244880389
1
DC
7
NewTextStyle_4
40
0.2624672000000003
50
-57.332176208500634
0
LINE
8
Modules
10
668.4937437583
20
-105.4297446411
11
663.2642205157
21
-108.7828931890
62
254
0
LINE
8
Modules
10
663.2642205157
20
-108.7828931890
11
665.0280282900
21
-111.5337029197
62
254
0
LINE
8
Modules
10
665.0280282900
20
-111.5337029197
11
670.2575515327
21
-108.1805543718
62
254
0
LINE
8
Modules
10
670.2575515327
20
-108.1805543718
11
668.4937437583
21
-105.4297446411
62
254
0
LINE
8
Modules
10
666.1942924624
20
-108.3578530502
11
666.6370152940
21
-109.0483173422
62
254
0
LINE
8
Modules
10
666.6370152940
20
-109.0483173422
11
667.3274795860
21
-108.6055945106
62
254
0
LINE
8
Modules
10
667.3274795860
20
-108.6055945106
11
666.8847567544
21
-107.9151302186
62
254
0
LINE
8
Modules
10
666.8847567544
20
-107.9151302186
11
666.1942924624
21
-108.3578530502
62
254
0
LINE
8
Modules
10
666.1942924624
20
-108.3578530502
11
667.3274795860
21
-108.6055945106
62
254
0
TEXT
8
Modules
100
AcDbText
10
666.6489436933
20
-108.1247927522
1
DC
7
NewTextStyle_4
40
0.2624672000000003
50
-57.332176208500634
0
TEXT
8
Modules
100
AcDbText
10
666.4128094526
20
-108.6074753971
1
DC
7
NewTextStyle_4
40
0.2624672000000003
50
-57.332176208500634
0
LINE
8
Modules
10
670.2784340755
20
-108.2163842140
11
665.0489108329
21
-111.5695327619
62
254
0
LINE
8
Modules
10
665.0489108329
20
-111.5695327619
11
666.8127186072
21
-114.3203424926
62
254
0
LINE
8
Modules
10
666.8127186072
20
-114.3203424926
11
672.0422418498
21
-110.9671939447
62
254
0
LINE
8
Modules
10
672.0422418498
20
-110.9671939447
11
670.2784340755
21
-108.2163842140
62
254
0
LINE
8
Modules
10
667.9789827796
20
-111.1444926231
11
668.4217056112
21
-111.8349569151
62
254
0
LINE
8
Modules
10
668.4217056112
20
-111.8349569151
11
669.1121699031
21
-111.3922340835
62
254
0
LINE
8
Modules
10
669.1121699031
20
-111.3922340835
11
668.6694470715
21
-110.7017697915
62
254
0
LINE
8
Modules
10
668.6694470715
20
-110.7017697915
11
667.9789827796
21
-111.1444926231
62
254
0
LINE
8
Modules
10
667.9789827796
20
-111.1444926231
11
669.1121699031
21
-111.3922340835
62
254
0
TEXT
8
Modules
100
AcDbText
10
668.4336340105
20
-110.9114323250
1
DC
7
NewTextStyle_4
40
0.2624672000000003
50
-57.332176208500634
0
TEXT
8
Modules
100
AcDbText
10
668.1974997697
20
-111.3941149700
1
DC
7
NewTextStyle_4
40
0.2624672000000003
50
-57.332176208500634
0
LINE
8
Modules
10
672.0660358026
20
-111.0030237894
11
666.8365125599
21
-114.3561723374
62
254
0
LINE
8
Modules
10
666.8365125599
20
-114.3561723374
11
668.6003203342
21
-117.1069820681
62
254
0
LINE
8
Modules
10
668.6003203342
20
-117.1069820681
11
673.8298435769
21
-113.7538335201
62
254
0
LINE
8
Modules
10
673.8298435769
20
-113.7538335201
11
672.0660358026
21
-111.0030237894
62
254
0
LINE
8
Modules
10
669.7665845066
20
-113.9311321986
11
670.2093073382
21
-114.6215964905
62
254
0
LINE
8
Modules
10
670.2093073382
20
-114.6215964905
11
670.8997716302
21
-114.1788736589
62
254
0
LINE
8
Modules
10
670.8997716302
20
-114.1788736589
11
670.4570487986
21
-113.4884093670
62
254
0
LINE
8
Modules
10
670.4570487986
20
-113.4884093670
11
669.7665845066
21
-113.9311321986
62
254
0
LINE
8
Modules
10
669.7665845066
20
-113.9311321986
11
670.8997716302
21
-114.1788736589
62
254
0
TEXT
8
Modules
100
AcDbText
10
670.2212357375
20
-113.6980719005
1
DC
7
NewTextStyle_4
40
0.2624672000000003
50
-57.332176208500634
0
TEXT
8
Modules
100
AcDbText
10
669.9851014968
20
-114.1807545455
1
DC
7
NewTextStyle_4
40
0.2624672000000003
50
-57.332176208500634
0
LINE
8
Modules
10
673.8536375255
20
-113.7896633623
11
668.6241142829
21
-117.1428119102
62
254
0
LINE
8
Modules
10
668.6241142829
20
-117.1428119102
11
670.3879220572
21
-119.8936216410
62
254
0
LINE
8
Modules
10
670.3879220572
20
-119.8936216410
11
675.6174452998
21
-116.5404730930
62
254
0
LINE
8
Modules
10
675.6174452998
20
-116.5404730930
11
673.8536375255
21
-113.7896633623
62
254
0
LINE
8
Modules
10
671.5541862295
20
-116.7177717715
11
671.9969090612
21
-117.4082360634
62
254
0
LINE
8
Modules
10
671.9969090612
20
-117.4082360634
11
672.6873733531
21
-116.9655132318
62
254
0
LINE
8
Modules
10
672.6873733531
20
-116.9655132318
11
672.2446505215
21
-116.2750489398
62
254
0
LINE
8
Modules
10
672.2446505215
20
-116.2750489398
11
671.5541862295
21
-116.7177717715
62
254
0
LINE
8
Modules
10
671.5541862295
20
-116.7177717715
11
672.6873733531
21
-116.9655132318
62
254
0
TEXT
8
Modules
100
AcDbText
10
672.0088374605
20
-116.4847114734
1
DC
7
NewTextStyle_4
40
0.2624672000000003
50
-57.332176208500634
0
TEXT
8
Modules
100
AcDbText
10
671.7727032197
20
-116.9673941183
1
DC
7
NewTextStyle_4
40
0.2624672000000003
50
-57.332176208500634
0
LINE
8
Modules
10
675.6383278468
20
-116.5726507205
11
670.4088046042
21
-119.9257992684
62
254
0
LINE
8
Modules
10
670.4088046042
20
-119.9257992684
11
672.1726123785
21
-122.6766089992
62
254
0
LINE
8
Modules
10
672.1726123785
20
-122.6766089992
11
677.4021356211
21
-119.3234604512
62
254
0
LINE
8
Modules
10
677.4021356211
20
-119.3234604512
11
675.6383278468
21
-116.5726507205
62
254
0
LINE
8
Modules
10
673.3388765508
20
-119.5007591297
11
673.7815993825
21
-120.1912234216
62
254
0
LINE
8
Modules
10
673.7815993825
20
-120.1912234216
11
674.4720636744
21
-119.7485005900
62
254
0
LINE
8
Modules
10
674.4720636744
20
-119.7485005900
11
674.0293408428
21
-119.0580362980
62
254
0
LINE
8
Modules
10
674.0293408428
20
-119.0580362980
11
673.3388765508
21
-119.5007591297
62
254
0
LINE
8
Modules
10
673.3388765508
20
-119.5007591297
11
674.4720636744
21
-119.7485005900
62
254
0
TEXT
8
Modules
100
AcDbText
10
673.7935277818
20
-119.2676988316
1
DC
7
NewTextStyle_4
40
0.2624672000000003
50
-57.332176208500634
0
TEXT
8
Modules
100
AcDbText
10
673.5573935410
20
-119.7503814765
1
DC
7
NewTextStyle_4
40
0.2624672000000003
50
-57.332176208500634
0
LINE
8
Modules
10
677.4259295697
20
-119.3592902934
11
672.1964063271
21
-122.7124388413
62
254
0
LINE
8
Modules
10
672.1964063271
20
-122.7124388413
11
673.9602141014
21
-125.4632485720
62
254
0
LINE
8
Modules
10
673.9602141014
20
-125.4632485720
11
679.1897373440
21
-122.1101000241
62
254
0
LINE
8
Modules
10
679.1897373440
20
-122.1101000241
11
677.4259295697
21
-119.3592902934
62
254
0
LINE
8
Modules
10
675.1264782738
20
-122.2873987025
11
675.5692011054
21
-122.9778629945
62
254
0
LINE
8
Modules
10
675.5692011054
20
-122.9778629945
11
676.2596653973
21
-122.5351401629
62
254
0
LINE
8
Modules
10
676.2596653973
20
-122.5351401629
11
675.8169425657
21
-121.8446758709
62
254
0
LINE
8
Modules
10
675.8169425657
20
-121.8446758709
11
675.1264782738
21
-122.2873987025
62
254
0
LINE
8
Modules
10
675.1264782738
20
-122.2873987025
11
676.2596653973
21
-122.5351401629
62
254
0
TEXT
8
Modules
100
AcDbText
10
675.5811295047
20
-122.0543384044
1
DC
7
NewTextStyle_4
40
0.2624672000000003
50
-57.332176208500634
0
TEXT
8
Modules
100
AcDbText
10
675.3449952639
20
-122.5370210494
1
DC
7
NewTextStyle_4
40
0.2624672000000003
50
-57.332176208500634
0
LINE
8
Modules
10
679.2106198910
20
-122.1459298663
11
673.9810966484
21
-125.4990784142
62
254
0
LINE
8
Modules
10
673.9810966484
20
-125.4990784142
11
675.7449044227
21
-128.2498881449
62
254
0
LINE
8
Modules
10
675.7449044227
20
-128.2498881449
11
680.9744276653
21
-124.8967395970
62
254
0
LINE
8
Modules
10
680.9744276653
20
-124.8967395970
11
679.2106198910
21
-122.1459298663
62
254
0
LINE
8
Modules
10
676.9111685951
20
-125.0740382754
11
677.3538914267
21
-125.7645025674
62
254
0
LINE
8
Modules
10
677.3538914267
20
-125.7645025674
11
678.0443557186
21
-125.3217797358
62
254
0
LINE
8
Modules
10
678.0443557186
20
-125.3217797358
11
677.6016328870
21
-124.6313154438
62
254
0
LINE
8
Modules
10
677.6016328870
20
-124.6313154438
11
676.9111685951
21
-125.0740382754
62
254
0
LINE
8
Modules
10
676.9111685951
20
-125.0740382754
11
678.0443557186
21
-125.3217797358
62
254
0
TEXT
8
Modules
100
AcDbText
10
677.3658198260
20
-124.8409779773
1
DC
7
NewTextStyle_4
40
0.2624672000000003
50
-57.332176208500634
0
TEXT
8
Modules
100
AcDbText
10
677.1296855852
20
-125.3236606223
1
DC
7
NewTextStyle_4
40
0.2624672000000003
50
-57.332176208500634
0
LINE
8
Modules
10
680.9982216139
20
-124.9325694391
11
675.7686983713
21
-128.2857179871
62
254
0
LINE
8
Modules
10
675.7686983713
20
-128.2857179871
11
677.5325061456
21
-131.0365277178
62
254
0
LINE
8
Modules
10
677.5325061456
20
-131.0365277178
11
682.7620293882
21
-127.6833791698
62
254
0
LINE
8
Modules
10
682.7620293882
20
-127.6833791698
11
680.9982216139
21
-124.9325694391
62
254
0
LINE
8
Modules
10
678.6987703180
20
-127.8606778483
11
679.1414931496
21
-128.5511421402
62
254
0
LINE
8
Modules
10
679.1414931496
20
-128.5511421402
11
679.8319574416
21
-128.1084193086
62
254
0
LINE
8
Modules
10
679.8319574416
20
-128.1084193086
11
679.3892346099
21
-127.4179550167
62
254
0
LINE
8
Modules
10
679.3892346099
20
-127.4179550167
11
678.6987703180
21
-127.8606778483
62
254
0
LINE
8
Modules
10
678.6987703180
20
-127.8606778483
11
679.8319574416
21
-128.1084193086
62
254
0
TEXT
8
Modules
100
AcDbText
10
679.1534215489
20
-127.6276175502
1
DC
7
NewTextStyle_4
40
0.2624672000000003
50
-57.332176208500634
0
TEXT
8
Modules
100
AcDbText
10
678.9172873082
20
-128.1103001952
1
DC
7
NewTextStyle_4
40
0.2624672000000003
50
-57.332176208500634
0
LINE
8
Modules
10
682.7829119352
20
-127.7192090146
11
677.5533886926
21
-131.0723575625
62
254
0
LINE
8
Modules
10
677.5533886926
20
-131.0723575625
11
679.3171964669
21
-133.8231672933
62
254
0
LINE
8
Modules
10
679.3171964669
20
-133.8231672933
11
684.5467197095
21
-130.4700187453
62
254
0
LINE
8
Modules
10
684.5467197095
20
-130.4700187453
11
682.7829119352
21
-127.7192090146
62
254
0
LINE
8
Modules
10
680.4834606393
20
-130.6473174238
11
680.9261834709
21
-131.3377817157
62
254
0
LINE
8
Modules
10
680.9261834709
20
-131.3377817157
11
681.6166477629
21
-130.8950588841
62
254
0
LINE
8
Modules
10
681.6166477629
20
-130.8950588841
11
681.1739249312
21
-130.2045945921
62
254
0
LINE
8
Modules
10
681.1739249312
20
-130.2045945921
11
680.4834606393
21
-130.6473174238
62
254
0
LINE
8
Modules
10
680.4834606393
20
-130.6473174238
11
681.6166477629
21
-130.8950588841
62
254
0
TEXT
8
Modules
100
AcDbText
10
680.9381118702
20
-130.4142571257
1
DC
7
NewTextStyle_4
40
0.2624672000000003
50
-57.332176208500634
0
TEXT
8
Modules
100
AcDbText
10
680.7019776294
20
-130.8969397706
1
DC
7
NewTextStyle_4
40
0.2624672000000003
50
-57.332176208500634
0
LINE
8
Modules
10
684.5705136582
20
-130.5021963728
11
679.3409904155
21
-133.8553449207
62
254
0
LINE
8
Modules
10
679.3409904155
20
-133.8553449207
11
681.1047981898
21
-136.6061546515
62
254
0
LINE
8
Modules
10
681.1047981898
20
-136.6061546515
11
686.3343214325
21
-133.2530061035
62
254
0
LINE
8
Modules
10
686.3343214325
20
-133.2530061035
11
684.5705136582
21
-130.5021963728
62
254
0
LINE
8
Modules
10
682.2710623622
20
-133.4303047820
11
682.7137851938
21
-134.1207690739
62
254
0
LINE
8
Modules
10
682.7137851938
20
-134.1207690739
11
683.4042494858
21
-133.6780462423
62
254
0
LINE
8
Modules
10
683.4042494858
20
-133.6780462423
11
682.9615266542
21
-132.9875819503
62
254
0
LINE
8
Modules
10
682.9615266542
20
-132.9875819503
11
682.2710623622
21
-133.4303047820
62
254
0
LINE
8
Modules
10
682.2710623622
20
-133.4303047820
11
683.4042494858
21
-133.6780462423
62
254
0
TEXT
8
Modules
100
AcDbText
10
682.7257135931
20
-133.1972444839
1
DC
7
NewTextStyle_4
40
0.2624672000000003
50
-57.332176208500634
0
TEXT
8
Modules
100
AcDbText
10
682.4895793524
20
-133.6799271288
1
DC
7
NewTextStyle_4
40
0.2624672000000003
50
-57.332176208500634
0
LINE
8
Modules
10
686.3552039795
20
-133.2888359457
11
681.1256807368
21
-136.6419844936
62
254
0
LINE
8
Modules
10
681.1256807368
20
-136.6419844936
11
682.8894885111
21
-139.3927942243
62
254
0
LINE
8
Modules
10
682.8894885111
20
-139.3927942243
11
688.1190117538
21
-136.0396456764
62
254
0
LINE
8
Modules
10
688.1190117538
20
-136.0396456764
11
686.3552039795
21
-133.2888359457
62
254
0
LINE
8
Modules
10
684.0557526835
20
-136.2169443548
11
684.4984755151
21
-136.9074086468
62
254
0
LINE
8
Modules
10
684.4984755151
20
-136.9074086468
11
685.1889398071
21
-136.4646858152
62
254
0
LINE
8
Modules
10
685.1889398071
20
-136.4646858152
11
684.7462169755
21
-135.7742215232
62
254
0
LINE
8
Modules
10
684.7462169755
20
-135.7742215232
11
684.0557526835
21
-136.2169443548
62
254
0
LINE
8
Modules
10
684.0557526835
20
-136.2169443548
11
685.1889398071
21
-136.4646858152
62
254
0
TEXT
8
Modules
100
AcDbText
10
684.5104039144
20
-135.9838840567
1
DC
7
NewTextStyle_4
40
0.2624672000000003
50
-57.332176208500634
0
TEXT
8
Modules
100
AcDbText
10
684.2742696737
20
-136.4665667017
1
DC
7
NewTextStyle_4
40
0.2624672000000003
50
-57.332176208500634
0
LINE
8
Modules
10
688.1428057024
20
-136.0754755185
11
682.9132824598
21
-139.4286240665
62
254
0
LINE
8
Modules
10
682.9132824598
20
-139.4286240665
11
684.6770902341
21
-142.1794337972
62
254
0
LINE
8
Modules
10
684.6770902341
20
-142.1794337972
11
689.9066134767
21
-138.8262852493
62
254
0
LINE
8
Modules
10
689.9066134767
20
-138.8262852493
11
688.1428057024
21
-136.0754755185
62
254
0
LINE
8
Modules
10
685.8433544064
20
-139.0035839277
11
686.2860772381
21
-139.6940482197
62
254
0
LINE
8
Modules
10
686.2860772381
20
-139.6940482197
11
686.9765415300
21
-139.2513253880
62
254
0
LINE
8
Modules
10
686.9765415300
20
-139.2513253880
11
686.5338186984
21
-138.5608610961
62
254
0
LINE
8
Modules
10
686.5338186984
20
-138.5608610961
11
685.8433544064
21
-139.0035839277
62
254
0
LINE
8
Modules
10
685.8433544064
20
-139.0035839277
11
686.9765415300
21
-139.2513253880
62
254
0
TEXT
8
Modules
100
AcDbText
10
686.2980056373
20
-138.7705236296
1
DC
7
NewTextStyle_4
40
0.2624672000000003
50
-57.332176208500634
0
TEXT
8
Modules
100
AcDbText
10
686.0618713966
20
-139.2532062746
1
DC
7
NewTextStyle_4
40
0.2624672000000003
50
-57.332176208500634
0
LINE
8
Modules
10
652.3208975426
20
-68.6263803177
11
647.0913743000
21
-71.9795288657
62
254
0
LINE
8
Modules
10
647.0913743000
20
-71.9795288657
11
648.8551820743
21
-74.7303385964
62
254
0
LINE
8
Modules
10
648.8551820743
20
-74.7303385964
11
654.0847053169
21
-71.3771900485
62
254
0
LINE
8
Modules
10
654.0847053169
20
-71.3771900485
11
652.3208975426
21
-68.6263803177
62
254
0
LINE
8
Modules
10
650.0214462467
20
-71.5544887269
11
650.4641690783
21
-72.2449530188
62
254
0
LINE
8
Modules
10
650.4641690783
20
-72.2449530188
11
651.1546333703
21
-71.8022301872
62
254
0
LINE
8
Modules
10
651.1546333703
20
-71.8022301872
11
650.7119105386
21
-71.1117658953
62
254
0
LINE
8
Modules
10
650.7119105386
20
-71.1117658953
11
650.0214462467
21
-71.5544887269
62
254
0
LINE
8
Modules
10
650.0214462467
20
-71.5544887269
11
651.1546333703
21
-71.8022301872
62
254
0
TEXT
8
Modules
100
AcDbText
10
650.4760974776
20
-71.3214284288
1
DC
7
NewTextStyle_4
40
0.2624672000000003
50
-57.332176208500634
0
TEXT
8
Modules
100
AcDbText
10
650.2399632368
20
-71.8041110738
1
DC
7
NewTextStyle_4
40
0.2624672000000003
50
-57.332176208500634
0
LINE
8
Modules
10
654.1055878598
20
-71.4130198906
11
648.8760646172
21
-74.7661684386
62
254
0
LINE
8
Modules
10
648.8760646172
20
-74.7661684386
11
650.6398723915
21
-77.5169781693
62
254
0
LINE
8
Modules
10
650.6398723915
20
-77.5169781693
11
655.8693956341
21
-74.1638296213
62
254
0
LINE
8
Modules
10
655.8693956341
20
-74.1638296213
11
654.1055878598
21
-71.4130198906
62
254
0
LINE
8
Modules
10
651.8061365638
20
-74.3411282998
11
652.2488593955
21
-75.0315925917
62
254
0
LINE
8
Modules
10
652.2488593955
20
-75.0315925917
11
652.9393236874
21
-74.5888697601
62
254
0
LINE
8
Modules
10
652.9393236874
20
-74.5888697601
11
652.4966008558
21
-73.8984054682
62
254
0
LINE
8
Modules
10
652.4966008558
20
-73.8984054682
11
651.8061365638
21
-74.3411282998
62
254
0
LINE
8
Modules
10
651.8061365638
20
-74.3411282998
11
652.9393236874
21
-74.5888697601
62
254
0
TEXT
8
Modules
100
AcDbText
10
652.2607877948
20
-74.1080680017
1
DC
7
NewTextStyle_4
40
0.2624672000000003
50
-57.332176208500634
0
TEXT
8
Modules
100
AcDbText
10
652.0246535540
20
-74.5907506467
1
DC
7
NewTextStyle_4
40
0.2624672000000003
50
-57.332176208500634
0
LINE
8
Modules
10
655.8931895869
20
-74.1960072488
11
650.6636663442
21
-77.5491557967
62
254
0
LINE
8
Modules
10
650.6636663442
20
-77.5491557967
11
652.4274741185
21
-80.2999655275
62
254
0
LINE
8
Modules
10
652.4274741185
20
-80.2999655275
11
657.6569973612
21
-76.9468169795
62
254
0
LINE
8
Modules
10
657.6569973612
20
-76.9468169795
11
655.8931895869
21
-74.1960072488
62
254
0
LINE
8
Modules
10
653.5937382909
20
-77.1241156580
11
654.0364611225
21
-77.8145799499
62
254
0
LINE
8
Modules
10
654.0364611225
20
-77.8145799499
11
654.7269254145
21
-77.3718571183
62
254
0
LINE
8
Modules
10
654.7269254145
20
-77.3718571183
11
654.2842025829
21
-76.6813928263
62
254
0
LINE
8
Modules
10
654.2842025829
20
-76.6813928263
11
653.5937382909
21
-77.1241156580
62
254
0
LINE
8
Modules
10
653.5937382909
20
-77.1241156580
11
654.7269254145
21
-77.3718571183
62
254
0
TEXT
8
Modules
100
AcDbText
10
654.0483895218
20
-76.8910553599
1
DC
7
NewTextStyle_4
40
0.2624672000000003
50
-57.332176208500634
0
TEXT
8
Modules
100
AcDbText
10
653.8122552811
20
-77.3737380048
1
DC
7
NewTextStyle_4
40
0.2624672000000003
50
-57.332176208500634
0
LINE
8
Modules
10
657.6778799040
20
-76.9826468217
11
652.4483566614
21
-80.3357953696
62
254
0
LINE
8
Modules
10
652.4483566614
20
-80.3357953696
11
654.2121644357
21
-83.0866051003
62
254
0
LINE
8
Modules
10
654.2121644357
20
-83.0866051003
11
659.4416876783
21
-79.7334565524
62
254
0
LINE
8
Modules
10
659.4416876783
20
-79.7334565524
11
657.6778799040
21
-76.9826468217
62
254
0
LINE
8
Modules
10
655.3784286081
20
-79.9107552308
11
655.8211514397
21
-80.6012195228
62
254
0
LINE
8
Modules
10
655.8211514397
20
-80.6012195228
11
656.5116157316
21
-80.1584966912
62
254
0
LINE
8
Modules
10
656.5116157316
20
-80.1584966912
11
656.0688929000
21
-79.4680323992
62
254
0
LINE
8
Modules
10
656.0688929000
20
-79.4680323992
11
655.3784286081
21
-79.9107552308
62
254
0
LINE
8
Modules
10
655.3784286081
20
-79.9107552308
11
656.5116157316
21
-80.1584966912
62
254
0
TEXT
8
Modules
100
AcDbText
10
655.8330798390
20
-79.6776949328
1
DC
7
NewTextStyle_4
40
0.2624672000000003
50
-57.332176208500634
0
TEXT
8
Modules
100
AcDbText
10
655.5969455982
20
-80.1603775777
1
DC
7
NewTextStyle_4
40
0.2624672000000003
50
-57.332176208500634
0
LINE
8
Modules
10
659.4654816311
20
-79.7692863946
11
654.2359583884
21
-83.1224349425
62
254
0
LINE
8
Modules
10
654.2359583884
20
-83.1224349425
11
655.9997661628
21
-85.8732446732
62
254
0
LINE
8
Modules
10
655.9997661628
20
-85.8732446732
11
661.2292894054
21
-82.5200961253
62
254
0
LINE
8
Modules
10
661.2292894054
20
-82.5200961253
11
659.4654816311
21
-79.7692863946
62
254
0
LINE
8
Modules
10
657.1660303351
20
-82.6973948037
11
657.6087531667
21
-83.3878590957
62
254
0
LINE
8
Modules
10
657.6087531667
20
-83.3878590957
11
658.2992174587
21
-82.9451362641
62
254
0
LINE
8
Modules
10
658.2992174587
20
-82.9451362641
11
657.8564946271
21
-82.2546719721
62
254
0
LINE
8
Modules
10
657.8564946271
20
-82.2546719721
11
657.1660303351
21
-82.6973948037
62
254
0
LINE
8
Modules
10
657.1660303351
20
-82.6973948037
11
658.2992174587
21
-82.9451362641
62
254
0
TEXT
8
Modules
100
AcDbText
10
657.6206815660
20
-82.4643345056
1
DC
7
NewTextStyle_4
40
0.2624672000000003
50
-57.332176208500634
0
TEXT
8
Modules
100
AcDbText
10
657.3845473253
20
-82.9470171506
1
DC
7
NewTextStyle_4
40
0.2624672000000003
50
-57.332176208500634
0
LINE
8
Modules
10
661.2530833540
20
-82.5559259700
11
656.0235601114
21
-85.9090745180
62
254
0
LINE
8
Modules
10
656.0235601114
20
-85.9090745180
11
657.7873678857
21
-88.6598842487
62
254
0
LINE
8
Modules
10
657.7873678857
20
-88.6598842487
11
663.0168911283
21
-85.3067357007
62
254
0
LINE
8
Modules
10
663.0168911283
20
-85.3067357007
11
661.2530833540
21
-82.5559259700
62
254
0
LINE
8
Modules
10
658.9536320581
20
-85.4840343792
11
659.3963548897
21
-86.1744986711
62
254
0
LINE
8
Modules
10
659.3963548897
20
-86.1744986711
11
660.0868191816
21
-85.7317758395
62
254
0
LINE
8
Modules
10
660.0868191816
20
-85.7317758395
11
659.6440963500
21
-85.0413115476
62
254
0
LINE
8
Modules
10
659.6440963500
20
-85.0413115476
11
658.9536320581
21
-85.4840343792
62
254
0
LINE
8
Modules
10
658.9536320581
20
-85.4840343792
11
660.0868191816
21
-85.7317758395
62
254
0
TEXT
8
Modules
100
AcDbText
10
659.4082832890
20
-85.2509740811
1
DC
7
NewTextStyle_4
40
0.2624672000000003
50
-57.332176208500634
0
TEXT
8
Modules
100
AcDbText
10
659.1721490482
20
-85.7336567261
1
DC
7
NewTextStyle_4
40
0.2624672000000003
50
-57.332176208500634
0
LINE
8
Modules
10
663.0377736753
20
-85.3425655429
11
657.8082504327
21
-88.6957140908
62
254
0
LINE
8
Modules
10
657.8082504327
20
-88.6957140908
11
659.5720582070
21
-91.4465238216
62
254
0
LINE
8
Modules
10
659.5720582070
20
-91.4465238216
11
664.8015814496
21
-88.0933752736
62
254
0
LINE
8
Modules
10
664.8015814496
20
-88.0933752736
11
663.0377736753
21
-85.3425655429
62
254
0
LINE
8
Modules
10
660.7383223794
20
-88.2706739521
11
661.1810452110
21
-88.9611382440
62
254
0
LINE
8
Modules
10
661.1810452110
20
-88.9611382440
11
661.8715095029
21
-88.5184154124
62
254
0
LINE
8
Modules
10
661.8715095029
20
-88.5184154124
11
661.4287866713
21
-87.8279511205
62
254
0
LINE
8
Modules
10
661.4287866713
20
-87.8279511205
11
660.7383223794
21
-88.2706739521
62
254
0
LINE
8
Modules
10
660.7383223794
20
-88.2706739521
11
661.8715095029
21
-88.5184154124
62
254
0
TEXT
8
Modules
100
AcDbText
10
661.1929736103
20
-88.0376136540
1
DC
7
NewTextStyle_4
40
0.2624672000000003
50
-57.332176208500634
0
TEXT
8
Modules
100
AcDbText
10
660.9568393695
20
-88.5202962990
1
DC
7
NewTextStyle_4
40
0.2624672000000003
50
-57.332176208500634
0
LINE
8
Modules
10
664.8253753982
20
-88.1255529011
11
659.5958521556
21
-91.4787014490
62
254
0
LINE
8
Modules
10
659.5958521556
20
-91.4787014490
11
661.3596599299
21
-94.2295111798
62
254
0
LINE
8
Modules
10
661.3596599299
20
-94.2295111798
11
666.5891831725
21
-90.8763626318
62
254
0
LINE
8
Modules
10
666.5891831725
20
-90.8763626318
11
664.8253753982
21
-88.1255529011
62
254
0
LINE
8
Modules
10
662.5259241023
20
-91.0536613103
11
662.9686469339
21
-91.7441256022
62
254
0
LINE
8
Modules
10
662.9686469339
20
-91.7441256022
11
663.6591112258
21
-91.3014027706
62
254
0
LINE
8
Modules
10
663.6591112258
20
-91.3014027706
11
663.2163883942
21
-90.6109384786
62
254
0
LINE
8
Modules
10
663.2163883942
20
-90.6109384786
11
662.5259241023
21
-91.0536613103
62
254
0
LINE
8
Modules
10
662.5259241023
20
-91.0536613103
11
663.6591112258
21
-91.3014027706
62
254
0
TEXT
8
Modules
100
AcDbText
10
662.9805753332
20
-90.8206010122
1
DC
7
NewTextStyle_4
40
0.2624672000000003
50
-57.332176208500634
0
TEXT
8
Modules
100
AcDbText
10
662.7444410924
20
-91.3032836571
1
DC
7
NewTextStyle_4
40
0.2624672000000003
50
-57.332176208500634
0
LINE
8
Modules
10
666.6100657195
20
-90.9121924740
11
661.3805424769
21
-94.2653410219
62
254
0
LINE
8
Modules
10
661.3805424769
20
-94.2653410219
11
663.1443502512
21
-97.0161507526
62
254
0
LINE
8
Modules
10
663.1443502512
20
-97.0161507526
11
668.3738734938
21
-93.6630022047
62
254
0
LINE
8
Modules
10
668.3738734938
20
-93.6630022047
11
666.6100657195
21
-90.9121924740
62
254
0
LINE
8
Modules
10
664.3106144236
20
-93.8403008831
11
664.7533372552
21
-94.5307651751
62
254
0
LINE
8
Modules
10
664.7533372552
20
-94.5307651751
11
665.4438015471
21
-94.0880423435
62
254
0
LINE
8
Modules
10
665.4438015471
20
-94.0880423435
11
665.0010787155
21
-93.3975780515
62
254
0
LINE
8
Modules
10
665.0010787155
20
-93.3975780515
11
664.3106144236
21
-93.8403008831
62
254
0
LINE
8
Modules
10
664.3106144236
20
-93.8403008831
11
665.4438015471
21
-94.0880423435
62
254
0
TEXT
8
Modules
100
AcDbText
10
664.7652656545
20
-93.6072405851
1
DC
7
NewTextStyle_4
40
0.2624672000000003
50
-57.332176208500634
0
TEXT
8
Modules
100
AcDbText
10
664.5291314137
20
-94.0899232300
1
DC
7
NewTextStyle_4
40
0.2624672000000003
50
-57.332176208500634
0
LINE
8
Modules
10
668.3976674424
20
-93.6988320469
11
663.1681441998
21
-97.0519805948
62
254
0
LINE
8
Modules
10
663.1681441998
20
-97.0519805948
11
664.9319519741
21
-99.8027903255
62
254
0
LINE
8
Modules
10
664.9319519741
20
-99.8027903255
11
670.1614752168
21
-96.4496417776
62
254
0
LINE
8
Modules
10
670.1614752168
20
-96.4496417776
11
668.3976674424
21
-93.6988320469
62
254
0
LINE
8
Modules
10
666.0982161465
20
-96.6269404560
11
666.5409389781
21
-97.3174047480
62
254
0
LINE
8
Modules
10
666.5409389781
20
-97.3174047480
11
667.2314032701
21
-96.8746819164
62
254
0
LINE
8
Modules
10
667.2314032701
20
-96.8746819164
11
666.7886804385
21
-96.1842176244
62
254
0
LINE
8
Modules
10
666.7886804385
20
-96.1842176244
11
666.0982161465
21
-96.6269404560
62
254
0
LINE
8
Modules
10
666.0982161465
20
-96.6269404560
11
667.2314032701
21
-96.8746819164
62
254
0
TEXT
8
Modules
100
AcDbText
10
666.5528673774
20
-96.3938801579
1
DC
7
NewTextStyle_4
40
0.2624672000000003
50
-57.332176208500634
0
TEXT
8
Modules
100
AcDbText
10
666.3167331367
20
-96.8765628029
1
DC
7
NewTextStyle_4
40
0.2624672000000003
50
-57.332176208500634
0
LINE
8
Modules
10
670.1823577637
20
-96.4854716197
11
664.9528345211
21
-99.8386201677
62
254
0
LINE
8
Modules
10
664.9528345211
20
-99.8386201677
11
666.7166422954
21
-102.5894298984
62
254
0
LINE
8
Modules
10
666.7166422954
20
-102.5894298984
11
671.9461655380
21
-99.2362813505
62
254
0
LINE
8
Modules
10
671.9461655380
20
-99.2362813505
11
670.1823577637
21
-96.4854716197
62
254
0
LINE
8
Modules
10
667.8829064678
20
-99.4135800289
11
668.3256292994
21
-100.1040443208
62
254
0
LINE
8
Modules
10
668.3256292994
20
-100.1040443208
11
669.0160935914
21
-99.6613214892
62
254
0
LINE
8
Modules
10
669.0160935914
20
-99.6613214892
11
668.5733707598
21
-98.9708571973
62
254
0
LINE
8
Modules
10
668.5733707598
20
-98.9708571973
11
667.8829064678
21
-99.4135800289
62
254
0
LINE
8
Modules
10
667.8829064678
20
-99.4135800289
11
669.0160935914
21
-99.6613214892
62
254
0
TEXT
8
Modules
100
AcDbText
10
668.3375576987
20
-99.1805197308
1
DC
7
NewTextStyle_4
40
0.2624672000000003
50
-57.332176208500634
0
TEXT
8
Modules
100
AcDbText
10
668.1014234580
20
-99.6632023758
1
DC
7
NewTextStyle_4
40
0.2624672000000003
50
-57.332176208500634
0
LINE
8
Modules
10
671.9699594867
20
-99.2721111952
11
666.7404362440
21
-102.6252597431
62
254
0
LINE
8
Modules
10
666.7404362440
20
-102.6252597431
11
668.5042440183
21
-105.3760694739
62
254
0
LINE
8
Modules
10
668.5042440183
20
-105.3760694739
11
673.7337672610
21
-102.0229209259
62
254
0
LINE
8
Modules
10
673.7337672610
20
-102.0229209259
11
671.9699594867
21
-99.2721111952
62
254
0
LINE
8
Modules
10
669.6705081907
20
-102.2002196044
11
670.1132310223
21
-102.8906838963
62
254
0
LINE
8
Modules
10
670.1132310223
20
-102.8906838963
11
670.8036953143
21
-102.4479610647
62
254
0
LINE
8
Modules
10
670.8036953143
20
-102.4479610647
11
670.3609724827
21
-101.7574967727
62
254
0
LINE
8
Modules
10
670.3609724827
20
-101.7574967727
11
669.6705081907
21
-102.2002196044
62
254
0
LINE
8
Modules
10
669.6705081907
20
-102.2002196044
11
670.8036953143
21
-102.4479610647
62
254
0
TEXT
8
Modules
100
AcDbText
10
670.1251594216
20
-101.9671593063
1
DC
7
NewTextStyle_4
40
0.2624672000000003
50
-57.332176208500634
0
TEXT
8
Modules
100
AcDbText
10
669.8890251809
20
-102.4498419512
1
DC
7
NewTextStyle_4
40
0.2624672000000003
50
-57.332176208500634
0
LINE
8
Modules
10
673.7546498080
20
-102.0550985534
11
668.5251265653
21
-105.4082471013
62
254
0
LINE
8
Modules
10
668.5251265653
20
-105.4082471013
11
670.2889343396
21
-108.1590568321
62
254
0
LINE
8
Modules
10
670.2889343396
20
-108.1590568321
11
675.5184575823
21
-104.8059082841
62
254
0
LINE
8
Modules
10
675.5184575823
20
-104.8059082841
11
673.7546498080
21
-102.0550985534
62
254
0
LINE
8
Modules
10
671.4551985120
20
-104.9832069626
11
671.8979213436
21
-105.6736712545
62
254
0
LINE
8
Modules
10
671.8979213436
20
-105.6736712545
11
672.5883856356
21
-105.2309484229
62
254
0
LINE
8
Modules
10
672.5883856356
20
-105.2309484229
11
672.1456628040
21
-104.5404841309
62
254
0
LINE
8
Modules
10
672.1456628040
20
-104.5404841309
11
671.4551985120
21
-104.9832069626
62
254
0
LINE
8
Modules
10
671.4551985120
20
-104.9832069626
11
672.5883856356
21
-105.2309484229
62
254
0
TEXT
8
Modules
100
AcDbText
10
671.9098497429
20
-104.7501466645
1
DC
7
NewTextStyle_4
40
0.2624672000000003
50
-57.332176208500634
0
TEXT
8
Modules
100
AcDbText
10
671.6737155022
20
-105.2328293094
1
DC
7
NewTextStyle_4
40
0.2624672000000003
50
-57.332176208500634
0
LINE
8
Modules
10
675.5422515309
20
-104.8417381263
11
670.3127282883
21
-108.1948866742
62
254
0
LINE
8
Modules
10
670.3127282883
20
-108.1948866742
11
672.0765360626
21
-110.9456964049
62
254
0
LINE
8
Modules
10
672.0765360626
20
-110.9456964049
11
677.3060593052
21
-107.5925478570
62
254
0
LINE
8
Modules
10
677.3060593052
20
-107.5925478570
11
675.5422515309
21
-104.8417381263
62
254
0
LINE
8
Modules
10
673.2428002349
20
-107.7698465354
11
673.6855230666
21
-108.4603108274
62
254
0
LINE
8
Modules
10
673.6855230666
20
-108.4603108274
11
674.3759873585
21
-108.0175879958
62
254
0
LINE
8
Modules
10
674.3759873585
20
-108.0175879958
11
673.9332645269
21
-107.3271237038
62
254
0
LINE
8
Modules
10
673.9332645269
20
-107.3271237038
11
673.2428002349
21
-107.7698465354
62
254
0
LINE
8
Modules
10
673.2428002349
20
-107.7698465354
11
674.3759873585
21
-108.0175879958
62
254
0
TEXT
8
Modules
100
AcDbText
10
673.6974514659
20
-107.5367862373
1
DC
7
NewTextStyle_4
40
0.2624672000000003
50
-57.332176208500634
0
TEXT
8
Modules
100
AcDbText
10
673.4613172251
20
-108.0194688823
1
DC
7
NewTextStyle_4
40
0.2624672000000003
50
-57.332176208500634
0
LINE
8
Modules
10
677.3298532538
20
-107.6283776991
11
672.1003300112
21
-110.9815262471
62
254
0
LINE
8
Modules
10
672.1003300112
20
-110.9815262471
11
673.8641377855
21
-113.7323359778
62
254
0
LINE
8
Modules
10
673.8641377855
20
-113.7323359778
11
679.0936610281
21
-110.3791874299
62
254
0
LINE
8
Modules
10
679.0936610281
20
-110.3791874299
11
677.3298532538
21
-107.6283776991
62
254
0
LINE
8
Modules
10
675.0304019579
20
-110.5564861083
11
675.4731247895
21
-111.2469504003
62
254
0
LINE
8
Modules
10
675.4731247895
20
-111.2469504003
11
676.1635890814
21
-110.8042275686
62
254
0
LINE
8
Modules
10
676.1635890814
20
-110.8042275686
11
675.7208662498
21
-110.1137632767
62
254
0
LINE
8
Modules
10
675.7208662498
20
-110.1137632767
11
675.0304019579
21
-110.5564861083
62
254
0
LINE
8
Modules
10
675.0304019579
20
-110.5564861083
11
676.1635890814
21
-110.8042275686
62
254
0
TEXT
8
Modules
100
AcDbText
10
675.4850531888
20
-110.3234258102
1
DC
7
NewTextStyle_4
40
0.2624672000000003
50
-57.332176208500634
0
TEXT
8
Modules
100
AcDbText
10
675.2489189480
20
-110.8061084552
1
DC
7
NewTextStyle_4
40
0.2624672000000003
50
-57.332176208500634
0
LINE
8
Modules
10
679.1145435751
20
-110.4150172720
11
673.8850203325
21
-113.7681658200
62
254
0
LINE
8
Modules
10
673.8850203325
20
-113.7681658200
11
675.6488281068
21
-116.5189755507
62
254
0
LINE
8
Modules
10
675.6488281068
20
-116.5189755507
11
680.8783513494
21
-113.1658270027
62
254
0
LINE
8
Modules
10
680.8783513494
20
-113.1658270027
11
679.1145435751
21
-110.4150172720
62
254
0
LINE
8
Modules
10
676.8150922792
20
-113.3431256812
11
677.2578151108
21
-114.0335899731
62
254
0
LINE
8
Modules
10
677.2578151108
20
-114.0335899731
11
677.9482794027
21
-113.5908671415
62
254
0
LINE
8
Modules
10
677.9482794027
20
-113.5908671415
11
677.5055565711
21
-112.9004028496
62
254
0
LINE
8
Modules
10
677.5055565711
20
-112.9004028496
11
676.8150922792
21
-113.3431256812
62
254
0
LINE
8
Modules
10
676.8150922792
20
-113.3431256812
11
677.9482794027
21
-113.5908671415
62
254
0
TEXT
8
Modules
100
AcDbText
10
677.2697435101
20
-113.1100653831
1
DC
7
NewTextStyle_4
40
0.2624672000000003
50
-57.332176208500634
0
TEXT
8
Modules
100
AcDbText
10
677.0336092693
20
-113.5927480281
1
DC
7
NewTextStyle_4
40
0.2624672000000003
50
-57.332176208500634
0
LINE
8
Modules
10
680.9021453022
20
-113.2016568449
11
675.6726220595
21
-116.5548053928
62
254
0
LINE
8
Modules
10
675.6726220595
20
-116.5548053928
11
677.4364298339
21
-119.3056151236
62
254
0
LINE
8
Modules
10
677.4364298339
20
-119.3056151236
11
682.6659530765
21
-115.9524665756
62
254
0
LINE
8
Modules
10
682.6659530765
20
-115.9524665756
11
680.9021453022
21
-113.2016568449
62
254
0
LINE
8
Modules
10
678.6026940062
20
-116.1297652541
11
679.0454168378
21
-116.8202295460
62
254
0
LINE
8
Modules
10
679.0454168378
20
-116.8202295460
11
679.7358811298
21
-116.3775067144
62
254
0
LINE
8
Modules
10
679.7358811298
20
-116.3775067144
11
679.2931582982
21
-115.6870424224
62
254
0
LINE
8
Modules
10
679.2931582982
20
-115.6870424224
11
678.6026940062
21
-116.1297652541
62
254
0
LINE
8
Modules
10
678.6026940062
20
-116.1297652541
11
679.7358811298
21
-116.3775067144
62
254
0
TEXT
8
Modules
100
AcDbText
10
679.0573452371
20
-115.8967049560
1
DC
7
NewTextStyle_4
40
0.2624672000000003
50
-57.332176208500634
0
TEXT
8
Modules
100
AcDbText
10
678.8212109964
20
-116.3793876009
1
DC
7
NewTextStyle_4
40
0.2624672000000003
50
-57.332176208500634
0
LINE
8
Modules
10
682.6868356193
20
-115.9846442057
11
677.4573123767
21
-119.3377927536
62
254
0
LINE
8
Modules
10
677.4573123767
20
-119.3377927536
11
679.2211201510
21
-122.0886024844
62
254
0
LINE
8
Modules
10
679.2211201510
20
-122.0886024844
11
684.4506433936
21
-118.7354539364
62
254
0
LINE
8
Modules
10
684.4506433936
20
-118.7354539364
11
682.6868356193
21
-115.9846442057
62
254
0
LINE
8
Modules
10
680.3873843234
20
-118.9127526149
11
680.8301071550
21
-119.6032169068
62
254
0
LINE
8
Modules
10
680.8301071550
20
-119.6032169068
11
681.5205714470
21
-119.1604940752
62
254
0
LINE
8
Modules
10
681.5205714470
20
-119.1604940752
11
681.0778486153
21
-118.4700297832
62
254
0
LINE
8
Modules
10
681.0778486153
20
-118.4700297832
11
680.3873843234
21
-118.9127526149
62
254
0
LINE
8
Modules
10
680.3873843234
20
-118.9127526149
11
681.5205714470
21
-119.1604940752
62
254
0
TEXT
8
Modules
100
AcDbText
10
680.8420355543
20
-118.6796923168
1
DC
7
NewTextStyle_4
40
0.2624672000000003
50
-57.332176208500634
0
TEXT
8
Modules
100
AcDbText
10
680.6059013136
20
-119.1623749617
1
DC
7
NewTextStyle_4
40
0.2624672000000003
50
-57.332176208500634
0
LINE
8
Modules
10
684.4744373464
20
-118.7712837786
11
679.2449141038
21
-122.1244323265
62
254
0
LINE
8
Modules
10
679.2449141038
20
-122.1244323265
11
681.0087218781
21
-124.8752420572
62
254
0
LINE
8
Modules
10
681.0087218781
20
-124.8752420572
11
686.2382451207
21
-121.5220935093
62
254
0
LINE
8
Modules
10
686.2382451207
20
-121.5220935093
11
684.4744373464
21
-118.7712837786
62
254
0
LINE
8
Modules
10
682.1749860505
20
-121.6993921877
11
682.6177088821
21
-122.3898564797
62
254
0
LINE
8
Modules
10
682.6177088821
20
-122.3898564797
11
683.3081731740
21
-121.9471336481
62
254
0
LINE
8
Modules
10
683.3081731740
20
-121.9471336481
11
682.8654503424
21
-121.2566693561
62
254
0
LINE
8
Modules
10
682.8654503424
20
-121.2566693561
11
682.1749860505
21
-121.6993921877
62
254
0
LINE
8
Modules
10
682.1749860505
20
-121.6993921877
11
683.3081731740
21
-121.9471336481
62
254
0
TEXT
8
Modules
100
AcDbText
10
682.6296372814
20
-121.4663318896
1
DC
7
NewTextStyle_4
40
0.2624672000000003
50
-57.332176208500634
0
TEXT
8
Modules
100
AcDbText
10
682.3935030406
20
-121.9490145346
1
DC
7
NewTextStyle_4
40
0.2624672000000003
50
-57.332176208500634
0
LINE
8
Modules
10
686.2591276636
20
-121.5579233514
11
681.0296044209
21
-124.9110718994
62
254
0
LINE
8
Modules
10
681.0296044209
20
-124.9110718994
11
682.7934121952
21
-127.6618816301
62
254
0
LINE
8
Modules
10
682.7934121952
20
-127.6618816301
11
688.0229354379
21
-124.3087330822
62
254
0
LINE
8
Modules
10
688.0229354379
20
-124.3087330822
11
686.2591276636
21
-121.5579233514
62
254
0
LINE
8
Modules
10
683.9596763676
20
-124.4860317606
11
684.4023991992
21
-125.1764960526
62
254
0
LINE
8
Modules
10
684.4023991992
20
-125.1764960526
11
685.0928634912
21
-124.7337732209
62
254
0
LINE
8
Modules
10
685.0928634912
20
-124.7337732209
11
684.6501406596
21
-124.0433089290
62
254
0
LINE
8
Modules
10
684.6501406596
20
-124.0433089290
11
683.9596763676
21
-124.4860317606
62
254
0
LINE
8
Modules
10
683.9596763676
20
-124.4860317606
11
685.0928634912
21
-124.7337732209
62
254
0
TEXT
8
Modules
100
AcDbText
10
684.4143275985
20
-124.2529714625
1
DC
7
NewTextStyle_4
40
0.2624672000000003
50
-57.332176208500634
0
TEXT
8
Modules
100
AcDbText
10
684.1781933578
20
-124.7356541075
1
DC
7
NewTextStyle_4
40
0.2624672000000003
50
-57.332176208500634
0
LINE
8
Modules
10
688.0467293906
20
-124.3445629243
11
682.8172061480
21
-127.6977114723
62
254
0
LINE
8
Modules
10
682.8172061480
20
-127.6977114723
11
684.5810139223
21
-130.4485212030
62
254
0
LINE
8
Modules
10
684.5810139223
20
-130.4485212030
11
689.8105371649
21
-127.0953726550
62
254
0
LINE
8
Modules
10
689.8105371649
20
-127.0953726550
11
688.0467293906
21
-124.3445629243
62
254
0
LINE
8
Modules
10
685.7472780947
20
-127.2726713335
11
686.1900009263
21
-127.9631356254
62
254
0
LINE
8
Modules
10
686.1900009263
20
-127.9631356254
11
686.8804652182
21
-127.5204127938
62
254
0
LINE
8
Modules
10
686.8804652182
20
-127.5204127938
11
686.4377423866
21
-126.8299485019
62
254
0
LINE
8
Modules
10
686.4377423866
20
-126.8299485019
11
685.7472780947
21
-127.2726713335
62
254
0
LINE
8
Modules
10
685.7472780947
20
-127.2726713335
11
686.8804652182
21
-127.5204127938
62
254
0
TEXT
8
Modules
100
AcDbText
10
686.2019293256
20
-127.0396110354
1
DC
7
NewTextStyle_4
40
0.2624672000000003
50
-57.332176208500634
0
TEXT
8
Modules
100
AcDbText
10
685.9657950848
20
-127.5222936804
1
DC
7
NewTextStyle_4
40
0.2624672000000003
50
-57.332176208500634
0
LINE
8
Modules
10
689.8314197078
20
-127.1312024972
11
684.6018964652
21
-130.4843510451
62
254
0
LINE
8
Modules
10
684.6018964652
20
-130.4843510451
11
686.3657042395
21
-133.2351607759
62
254
0
LINE
8
Modules
10
686.3657042395
20
-133.2351607759
11
691.5952274821
21
-129.8820122279
62
254
0
LINE
8
Modules
10
691.5952274821
20
-129.8820122279
11
689.8314197078
21
-127.1312024972
62
254
0
LINE
8
Modules
10
687.5319684118
20
-130.0593109064
11
687.9746912434
21
-130.7497751983
62
254
0
LINE
8
Modules
10
687.9746912434
20
-130.7497751983
11
688.6651555354
21
-130.3070523667
62
254
0
LINE
8
Modules
10
688.6651555354
20
-130.3070523667
11
688.2224327038
21
-129.6165880747
62
254
0
LINE
8
Modules
10
688.2224327038
20
-129.6165880747
11
687.5319684118
21
-130.0593109064
62
254
0
LINE
8
Modules
10
687.5319684118
20
-130.0593109064
11
688.6651555354
21
-130.3070523667
62
254
0
TEXT
8
Modules
100
AcDbText
10
687.9866196427
20
-129.8262506083
1
DC
7
NewTextStyle_4
40
0.2624672000000003
50
-57.332176208500634
0
TEXT
8
Modules
100
AcDbText
10
687.7504854020
20
-130.3089332532
1
DC
7
NewTextStyle_4
40
0.2624672000000003
50
-57.332176208500634
0
LINE
8
Modules
10
691.6190214348
20
-129.9141898580
11
686.3894981922
21
-133.2673384059
62
254
0
LINE
8
Modules
10
686.3894981922
20
-133.2673384059
11
688.1533059665
21
-136.0181481366
62
254
0
LINE
8
Modules
10
688.1533059665
20
-136.0181481366
11
693.3828292092
21
-132.6649995887
62
254
0
LINE
8
Modules
10
693.3828292092
20
-132.6649995887
11
691.6190214348
21
-129.9141898580
62
254
0
LINE
8
Modules
10
689.3195701389
20
-132.8422982671
11
689.7622929705
21
-133.5327625591
62
254
0
LINE
8
Modules
10
689.7622929705
20
-133.5327625591
11
690.4527572625
21
-133.0900397275
62
254
0
LINE
8
Modules
10
690.4527572625
20
-133.0900397275
11
690.0100344309
21
-132.3995754355
62
254
0
LINE
8
Modules
10
690.0100344309
20
-132.3995754355
11
689.3195701389
21
-132.8422982671
62
254
0
LINE
8
Modules
10
689.3195701389
20
-132.8422982671
11
690.4527572625
21
-133.0900397275
62
254
0
TEXT
8
Modules
100
AcDbText
10
689.7742213698
20
-132.6092379691
1
DC
7
NewTextStyle_4
40
0.2624672000000003
50
-57.332176208500634
0
TEXT
8
Modules
100
AcDbText
10
689.5380871291
20
-133.0919206140
1
DC
7
NewTextStyle_4
40
0.2624672000000003
50
-57.332176208500634
0
LINE
8
Modules
10
693.4066231578
20
-132.7008294309
11
688.1770999151
21
-136.0539779788
62
254
0
LINE
8
Modules
10
688.1770999151
20
-136.0539779788
11
689.9409076894
21
-138.8047877095
62
254
0
LINE
8
Modules
10
689.9409076894
20
-138.8047877095
11
695.1704309321
21
-135.4516391616
62
254
0
LINE
8
Modules
10
695.1704309321
20
-135.4516391616
11
693.4066231578
21
-132.7008294309
62
254
0
LINE
8
Modules
10
691.1071718618
20
-135.6289378400
11
691.5498946934
21
-136.3194021320
62
254
0
LINE
8
Modules
10
691.5498946934
20
-136.3194021320
11
692.2403589854
21
-135.8766793004
62
254
0
LINE
8
Modules
10
692.2403589854
20
-135.8766793004
11
691.7976361538
21
-135.1862150084
62
254
0
LINE
8
Modules
10
691.7976361538
20
-135.1862150084
11
691.1071718618
21
-135.6289378400
62
254
0
LINE
8
Modules
10
691.1071718618
20
-135.6289378400
11
692.2403589854
21
-135.8766793004
62
254
0
TEXT
8
Modules
100
AcDbText
10
691.5618230927
20
-135.3958775419
1
DC
7
NewTextStyle_4
40
0.2624672000000003
50
-57.332176208500634
0
TEXT
8
Modules
100
AcDbText
10
691.3256888520
20
-135.8785601869
1
DC
7
NewTextStyle_4
40
0.2624672000000003
50
-57.332176208500634
0
LINE
8
Modules
10
684.6665899741
20
-142.2367611817
11
679.4370667314
21
-145.5899097296
62
254
0
LINE
8
Modules
10
679.4370667314
20
-145.5899097296
11
681.2008745057
21
-148.3407194604
62
254
0
LINE
8
Modules
10
681.2008745057
20
-148.3407194604
11
686.4303977484
21
-144.9875709124
62
254
0
LINE
8
Modules
10
686.4303977484
20
-144.9875709124
11
684.6665899741
21
-142.2367611817
62
254
0
LINE
8
Modules
10
682.3671386781
20
-145.1648695909
11
682.8098615097
21
-145.8553338828
62
254
0
LINE
8
Modules
10
682.8098615097
20
-145.8553338828
11
683.5003258017
21
-145.4126110512
62
254
0
LINE
8
Modules
10
683.5003258017
20
-145.4126110512
11
683.0576029701
21
-144.7221467592
62
254
0
LINE
8
Modules
10
683.0576029701
20
-144.7221467592
11
682.3671386781
21
-145.1648695909
62
254
0
LINE
8
Modules
10
682.3671386781
20
-145.1648695909
11
683.5003258017
21
-145.4126110512
62
254
0
TEXT
8
Modules
100
AcDbText
10
682.8217899090
20
-144.9318092928
1
DC
7
NewTextStyle_4
40
0.2624672000000003
50
-57.332176208500634
0
TEXT
8
Modules
100
AcDbText
10
682.5856556683
20
-145.4144919377
1
DC
7
NewTextStyle_4
40
0.2624672000000003
50
-57.332176208500634
0
LINE
8
Buildings
10
708.0584713964
20
-97.2195997699
11
771.0199038122
21
-60.5639619792
62
252
0
LINE
8
Buildings
10
771.0199038122
20
-60.5639619792
11
755.6623275386
21
-34.1850729760
62
252
0
LINE
8
Buildings
10
755.6623275386
20
-34.1850729760
11
692.7008951228
21
-70.8407107668
62
252
0
LINE
8
Buildings
10
692.7008951228
20
-70.8407107668
11
708.0584713964
21
-97.2195997699
62
252
0
LINE
8
Buildings
10
677.3433188492
20
-44.4618217636
11
692.7008951228
21
-70.8407107668
62
252
0
LINE
8
Buildings
10
692.7008951228
20
-70.8407107668
11
755.6623275386
21
-34.1850729760
62
252
0
LINE
8
Buildings
10
755.6623275386
20
-34.1850729760
11
740.3047512649
21
-7.8061839729
62
252
0
LINE
8
Buildings
10
740.3047512649
20
-7.8061839729
11
677.3433188492
21
-44.4618217636
62
252
0
LINE
8
Buildings
10
704.5306452598
20
-183.8934564420
11
721.8662829467
21
-172.7779166751
62
252
0
LINE
8
Buildings
10
721.8662829467
20
-172.7779166751
11
652.1248494809
21
-64.0101692075
62
252
0
LINE
8
Buildings
10
652.1248494809
20
-64.0101692075
11
634.7892117939
21
-75.1257089744
62
252
0
LINE
8
Buildings
10
634.7892117939
20
-75.1257089744
11
704.5306452598
21
-183.8934564420
62
252
0
LINE
8
Buildings
10
721.8662829467
20
-172.7779166751
11
739.2019206337
21
-161.6623769082
62
252
0
LINE
8
Buildings
10
739.2019206337
20
-161.6623769082
11
738.9803436675
21
-161.3168086239
62
252
0
LINE
8
Buildings
10
738.9803436675
20
-161.3168086239
11
718.1999638234
21
-155.1916751941
62
252
0
LINE
8
Buildings
10
718.1999638234
20
-155.1916751941
11
721.3053257497
21
-133.7511021303
62
252
0
LINE
8
Buildings
10
721.3053257497
20
-133.7511021303
11
669.4604871678
21
-52.8946294406
62
252
0
LINE
8
Buildings
10
669.4604871678
20
-52.8946294406
11
652.1248494809
21
-64.0101692075
62
252
0
LINE
8
Buildings
10
652.1248494809
20
-64.0101692075
11
721.8662829467
21
-172.7779166751
62
252
0
LINE
8
Buildings
10
736.7193574904
20
-143.3171159490
11
718.1999638234
21
-155.1916751941
62
252
0
LINE
8
Buildings
10
718.1999638234
20
-155.1916751941
11
738.9803436675
21
-161.3168086239
62
252
0
LINE
8
Buildings
10
738.9803436675
20
-161.3168086239
11
739.0364945343
21
-161.4043807170
62
252
0
LINE
8
Buildings
10
739.0364945343
20
-161.4043807170
11
739.3084996359
21
-161.4845557452
62
252
0
LINE
8
Buildings
10
739.3084996359
20
-161.4845557452
11
745.7286960256
21
-157.3679521585
62
252
0
LINE
8
Buildings
10
745.7286960256
20
-157.3679521585
11
736.7193574904
21
-143.3171159490
62
252
0
LINE
8
Buildings
10
736.7193574904
20
-143.3171159490
11
727.7100189553
21
-129.2662797396
62
252
0
LINE
8
Buildings
10
727.7100189553
20
-129.2662797396
11
721.2898225656
21
-133.3828833264
62
252
0
LINE
8
Buildings
10
721.2898225656
20
-133.3828833264
11
721.2491748829
21
-133.6635300372
62
252
0
LINE
8
Buildings
10
721.2491748829
20
-133.6635300372
11
721.3053257497
21
-133.7511021303
62
252
0
LINE
8
Buildings
10
721.3053257497
20
-133.7511021303
11
718.1999638234
21
-155.1916751941
62
252
0
LINE
8
Buildings
10
718.1999638234
20
-155.1916751941
11
736.7193574904
21
-143.3171159490
62
252
0
LINE
8
Setbacks
10
768.4079377963
20
-62.0466639262
11
753.7777076083
21
-36.9170984345
62
2
0
LINE
8
Setbacks
10
753.7777076083
20
-36.9170984345
11
696.0071933443
21
-70.5506255287
62
2
0
LINE
8
Setbacks
10
696.0071933443
20
-70.5506255287
11
710.6374235158
21
-95.6801909920
62
2
0
LINE
8
Setbacks
10
679.9552851141
20
-42.9791197108
11
694.5855152485
21
-68.1086854381
62
2
0
LINE
8
Setbacks
10
694.5855152485
20
-68.1086854381
11
752.3560298406
21
-34.4751583439
62
2
0
LINE
8
Setbacks
10
752.3560298406
20
-34.4751583439
11
737.7257992638
21
-9.3455924198
62
2
0
LINE
8
Setbacks
10
702.9371898890
20
-181.3475434583
11
719.0558774005
21
-171.0123071577
62
2
0
LINE
8
Setbacks
10
719.0558774005
20
-171.0123071577
11
652.5565919241
21
-67.3009676448
62
2
0
LINE
8
Setbacks
10
652.5565919241
20
-67.3009676448
11
636.4379044345
21
-77.6362039313
62
2
0
LINE
8
Setbacks
10
671.0539425683
20
-55.4405423802
11
654.9352551499
21
-65.7757785035
62
2
0
LINE
8
Setbacks
10
654.9352551499
20
-65.7757785035
11
721.4345402983
21
-169.4871183445
62
2
0
LINE
8
Setbacks
10
721.4345402983
20
-169.4871183445
11
734.0718975741
21
-161.3840967319
62
2
0
LINE
8
Setbacks
10
734.0718975741
20
-161.3840967319
11
717.8755819304
21
-156.6101418215
62
2
0
LINE
8
Setbacks
10
717.8755819304
20
-156.6101418215
11
717.8751086223
21
-156.6099615553
62
2
0
LINE
8
Setbacks
10
717.8751086223
20
-156.6099615553
11
717.7201948496
21
-156.5368104520
62
2
0
LINE
8
Setbacks
10
717.7201948496
20
-156.5368104520
11
717.5607204792
21
-156.4764484018
62
2
0
LINE
8
Setbacks
10
717.5607204792
20
-156.4764484018
11
717.5602693909
21
-156.4762372385
62
2
0
LINE
8
Setbacks
10
717.5602693909
20
-156.4762372385
11
717.5598554650
21
-156.4759602261
62
2
0
LINE
8
Setbacks
10
717.5598554650
20
-156.4759602261
11
717.5123964304
21
-156.4386874286
62
2
0
LINE
8
Setbacks
10
717.5123964304
20
-156.4386874286
11
717.4584416098
21
-156.4132095785
62
2
0
LINE
8
Setbacks
10
717.4584416098
20
-156.4132095785
11
717.4580118642
21
-156.4129654820
62
2
0
LINE
8
Setbacks
10
717.4580118642
20
-156.4129654820
11
717.4576236614
21
-156.4126596016
62
2
0
LINE
8
Setbacks
10
717.4576236614
20
-156.4126596016
11
717.3296419190
21
-156.2951571159
62
2
0
LINE
8
Setbacks
10
717.3296419190
20
-156.2951571159
11
717.1933846475
21
-156.1881445959
62
2
0
LINE
8
Setbacks
10
717.1933846475
20
-156.1881445959
11
717.1930253967
21
-156.1878165927
62
2
0
LINE
8
Setbacks
10
717.1930253967
20
-156.1878165927
11
717.1927185957
21
-156.1874390741
62
2
0
LINE
8
Setbacks
10
717.1927185957
20
-156.1874390741
11
717.1579881629
21
-156.1375584118
62
2
0
LINE
8
Setbacks
10
717.1579881629
20
-156.1375584118
11
717.1134048245
21
-156.0966258044
62
2
0
LINE
8
Setbacks
10
717.1134048245
20
-156.0966258044
11
717.1130727472
21
-156.0962722421
62
2
0
LINE
8
Setbacks
10
717.1130727472
20
-156.0962722421
11
717.1127964290
21
-156.0958735819
62
2
0
LINE
8
Setbacks
10
717.1127964290
20
-156.0958735819
11
717.0242771311
21
-155.9455206038
62
2
0
LINE
8
Setbacks
10
717.0242771311
20
-155.9455206038
11
716.9245804687
21
-155.8023347383
62
2
0
LINE
8
Setbacks
10
716.9245804687
20
-155.8023347383
11
716.9243334905
21
-155.8019172744
62
2
0
LINE
8
Setbacks
10
716.9243334905
20
-155.8019172744
11
716.9241507618
21
-155.8014679588
62
2
0
LINE
8
Setbacks
10
716.9241507618
20
-155.8014679588
11
716.9055569453
21
-155.7438709272
62
2
0
LINE
8
Setbacks
10
716.9055569453
20
-155.7438709272
11
716.8747203029
21
-155.6914936426
62
2
0
LINE
8
Setbacks
10
716.8747203029
20
-155.6914936426
11
716.8745052587
21
-155.6910572971
62
2
0
LINE
8
Setbacks
10
716.8745052587
20
-155.6910572971
11
716.8743570983
21
-155.6905939508
62
2
0
LINE
8
Setbacks
10
716.8743570983
20
-155.6905939508
11
716.8339682424
21
-155.5221121471
62
2
0
LINE
8
Setbacks
10
716.8339682424
20
-155.5221121471
11
716.7805923561
21
-155.3567714155
62
2
0
LINE
8
Setbacks
10
716.7805923561
20
-155.3567714155
11
716.7804763781
21
-155.3562909776
62
2
0
LINE
8
Setbacks
10
716.7804763781
20
-155.3562909776
11
716.7804338855
21
-155.3557985694
62
2
0
LINE
8
Setbacks
10
716.7804338855
20
-155.3557985694
11
716.7797961079
21
-155.2961334285
62
2
0
LINE
8
Setbacks
10
716.7797961079
20
-155.2961334285
11
716.7657284872
21
-155.2374508971
62
2
0
LINE
8
Setbacks
10
716.7657284872
20
-155.2374508971
11
716.7656494773
21
-155.2369591346
62
2
0
LINE
8
Setbacks
10
716.7656494773
20
-155.2369591346
11
716.7656458177
21
-155.2364610788
62
2
0
LINE
8
Setbacks
10
716.7656458177
20
-155.2364610788
11
716.7773393180
21
-155.0663468602
62
2
0
LINE
8
Setbacks
10
716.7773393180
20
-155.0663468602
11
716.7755080324
21
-154.8950400271
62
2
0
LINE
8
Setbacks
10
716.7755080324
20
-154.8950400271
11
716.7755417246
21
-154.8945346806
62
2
0
LINE
8
Setbacks
10
716.7755417246
20
-154.8945346806
11
719.8809037006
21
-133.4539614880
62
2
0
LINE
8
Setbacks
10
719.8809037006
20
-133.4539614880
11
719.8810176735
21
-133.4534579567
62
2
0
LINE
8
Setbacks
10
719.8810176735
20
-133.4534579567
11
720.0152059980
21
-133.0217397670
62
2
0
LINE
8
Setbacks
10
720.0152059980
20
-133.0217397670
11
720.0154040010
21
-133.0212473624
62
2
0
LINE
8
Setbacks
10
720.0154040010
20
-133.0212473624
11
720.0156788060
21
-133.0207933253
62
2
0
LINE
8
Setbacks
10
720.0156788060
20
-133.0207933253
11
720.2758467933
21
-132.6603746786
62
2
0
LINE
8
Setbacks
10
720.2758467933
20
-132.6603746786
11
720.2762010089
21
-132.6599611663
62
2
0
LINE
8
Setbacks
10
720.2762010089
20
-132.6599611663
11
720.2766187357
21
-132.6596119308
62
2
0
LINE
8
Setbacks
10
720.2766187357
20
-132.6596119308
11
720.4763586237
21
-132.5190391652
62
2
0
LINE
8
Setbacks
10
743.1827829483
20
-158.9614076581
11
734.9650847186
21
-146.1452021232
62
2
0
LINE
8
Setbacks
10
734.9650847186
20
-146.1452021232
11
721.6615138390
21
-154.6753969778
62
2
0
LINE
8
Setbacks
10
721.6615138390
20
-154.6753969778
11
737.0767300371
21
-159.2191183149
62
2
0
LINE
8
Setbacks
10
737.0767300371
20
-159.2191183149
11
737.4338597425
21
-158.9058421767
62
2
0
LINE
8
Setbacks
10
737.4338597425
20
-158.9058421767
11
737.4342523789
21
-158.9055467054
62
2
0
LINE
8
Setbacks
10
737.4342523789
20
-158.9055467054
11
737.4346847417
21
-158.9053131907
62
2
0
LINE
8
Setbacks
10
737.4346847417
20
-158.9053131907
11
738.2906736142
21
-158.5228013675
62
2
0
LINE
8
Setbacks
10
738.2906736142
20
-158.5228013675
11
738.2911400822
21
-158.5226339208
62
2
0
LINE
8
Setbacks
10
738.2911400822
20
-158.5226339208
11
738.2916264504
21
-158.5225386491
62
2
0
LINE
8
Setbacks
10
738.2916264504
20
-158.5225386491
11
739.2149942621
21
-158.4132305748
62
2
0
LINE
8
Setbacks
10
739.2149942621
20
-158.4132305748
11
739.2155008392
21
-158.4132100529
62
2
0
LINE
8
Setbacks
10
739.2155008392
20
-158.4132100529
11
739.2160045297
21
-158.4132678242
62
2
0
LINE
8
Setbacks
10
739.2160045297
20
-158.4132678242
11
740.1163651228
21
-158.5878629741
62
2
0
LINE
8
Setbacks
10
740.1163651228
20
-158.5878629741
11
740.1168678398
21
-158.5880027239
62
2
0
LINE
8
Setbacks
10
740.1168678398
20
-158.5880027239
11
740.1173420439
21
-158.5882204046
62
2
0
LINE
8
Setbacks
10
740.1173420439
20
-158.5882204046
11
740.5675540871
21
-158.8400226120
62
2
0
LINE
8
Setbacks
10
740.5675540871
20
-158.8400226120
11
741.0907650239
21
-159.0902507064
62
2
0
LINE
8
Setbacks
10
741.0907650239
20
-159.0902507064
11
741.0912250415
21
-159.0905185830
62
2
0
LINE
8
Setbacks
10
741.0912250415
20
-159.0905185830
11
741.0916356830
21
-159.0908573272
62
2
0
LINE
8
Setbacks
10
741.0916356830
20
-159.0908573272
11
741.7351776984
21
-159.7160860217
62
2
0
LINE
8
Setbacks
10
741.7351776984
20
-159.7160860217
11
741.7355322046
21
-159.7164921984
62
2
0
LINE
8
Setbacks
10
741.7355322046
20
-159.7164921984
11
741.7358154053
21
-159.7169509484
62
2
0
LINE
8
Setbacks
10
741.7358154053
20
-159.7169509484
11
741.8019143306
21
-159.8468149009
62
2
0
LINE
8
Setbacks
10
722.4172584856
20
-136.3564152051
11
720.1136514686
21
-152.2613731864
62
2
0
LINE
8
Setbacks
10
720.1136514686
20
-152.2613731864
11
733.4172223482
21
-143.7311780039
62
2
0
LINE
8
Setbacks
10
733.4172223482
20
-143.7311780039
11
725.1995237065
21
-130.9149723368
62
2
0
LINE
8
Setbacks
10
723.8186551148
20
-131.8003796085
11
723.9090882065
21
-131.9146406931
62
2
0
LINE
8
Setbacks
10
723.9090882065
20
-131.9146406931
11
723.9093869239
21
-131.9150894941
62
2
0
LINE
8
Setbacks
10
723.9093869239
20
-131.9150894941
11
723.9096081084
21
-131.9155811563
62
2
0
LINE
8
Setbacks
10
723.9096081084
20
-131.9155811563
11
724.2092449290
21
-132.7613206847
62
2
0
LINE
8
Setbacks
10
724.2092449290
20
-132.7613206847
11
724.2093814076
21
-132.7618352219
62
2
0
LINE
8
Setbacks
10
724.2093814076
20
-132.7618352219
11
724.2094328791
21
-132.7623650574
62
2
0
LINE
8
Setbacks
10
724.2094328791
20
-132.7623650574
11
724.2184952186
21
-133.3422685093
62
2
0
LINE
8
Setbacks
10
724.2184952186
20
-133.3422685093
11
724.2594504834
21
-133.8564787076
62
2
0
LINE
8
Setbacks
10
724.2594504834
20
-133.8564787076
11
724.2594504186
21
-133.8570004873
62
2
0
LINE
8
Setbacks
10
724.2594504186
20
-133.8570004873
11
724.2593676344
21
-133.8575156581
62
2
0
LINE
8
Setbacks
10
724.2593676344
20
-133.8575156581
11
724.0423125093
21
-134.7485937706
62
2
0
LINE
8
Setbacks
10
724.0423125093
20
-134.7485937706
11
724.0421548191
21
-134.7490756171
62
2
0
LINE
8
Setbacks
10
724.0421548191
20
-134.7490756171
11
724.0419247737
21
-134.7495274151
62
2
0
LINE
8
Setbacks
10
724.0419247737
20
-134.7495274151
11
723.5572662936
21
-135.5430399077
62
2
0
LINE
8
Setbacks
10
723.5572662936
20
-135.5430399077
11
723.5569767516
21
-135.5434421465
62
2
0
LINE
8
Setbacks
10
723.5569767516
20
-135.5434421465
11
723.5566299236
21
-135.5437961819
62
2
0
LINE
8
Setbacks
10
723.5566299236
20
-135.5437961819
11
722.8518096910
21
-136.1620688395
62
2
0
LINE
8
Setbacks
10
722.8518096910
20
-136.1620688395
11
722.8514170546
21
-136.1623643110
62
2
0
LINE
8
Setbacks
10
722.8514170546
20
-136.1623643110
11
722.8509846916
21
-136.1625978259
62
2
0
LINE
8
Setbacks
10
722.8509846916
20
-136.1625978259
11
722.4172584856
21
-136.3564152051
62
2
0
LINE
8
Inverters
10
685.2436838455
20
-152.0412034664
11
687.7043138455
21
-152.0412034664
0
LINE
8
Inverters
10
687.7043138455
20
-152.0412034664
11
687.7043138455
21
-149.5805734664
0
LINE
8
Inverters
10
687.7043138455
20
-149.5805734664
11
685.2436838455
21
-149.5805734664
0
LINE
8
Inverters
10
685.2436838455
20
-149.5805734664
11
685.2436838455
21
-152.0412034664
0
LINE
8
Inverters
10
685.2436838455
20
-152.0412034664
11
687.7043138455
21
-149.5805734664
0
TEXT
8
Inverters
100
AcDbText
10
685.4077258455
20
-150.4992086664
1
DC
7
NewTextStyle_4
40
0.7545932000000003
50
0
0
TEXT
8
Inverters
100
AcDbText
10
686.2443400455
20
-151.8771614664
1
AC
7
NewTextStyle_4
40
0.7545932000000003
50
0
0
LINE
8
Strings
10
682.9337322399
20
-145.2887403210
11
681.1461305170
21
-142.5021007482
62
11
0
LINE
8
Strings
10
681.1461305170
20
-142.5021007482
11
679.3614401957
21
-139.7154611727
62
11
0
LINE
8
Strings
10
679.3614401957
20
-139.7154611727
11
677.5738384686
21
-136.9288215998
62
11
0
LINE
8
Strings
10
677.5738384686
20
-136.9288215998
11
675.7891481515
21
-134.1458342416
62
11
0
LINE
8
Strings
10
675.7891481515
20
-134.1458342416
11
674.0015464244
21
-131.3591946687
62
11
0
LINE
8
Strings
10
674.0015464244
20
-131.3591946687
11
672.2168561072
21
-128.5725550959
62
11
0
LINE
8
Strings
10
672.2168561072
20
-128.5725550959
11
670.4292543802
21
-125.7859155230
62
11
0
LINE
8
Strings
10
670.4292543802
20
-125.7859155230
11
668.6445640630
21
-122.9992759475
62
11
0
LINE
8
Strings
10
668.6445640630
20
-122.9992759475
11
666.8569623359
21
-120.2162885893
62
11
0
LINE
8
Strings
10
666.8569623359
20
-120.2162885893
11
665.0693606130
21
-117.4296490164
62
11
0
LINE
8
Strings
10
665.0693606130
20
-117.4296490164
11
663.2846702917
21
-114.6430094436
62
11
0
LINE
8
Strings
10
663.2846702917
20
-114.6430094436
11
661.4970685688
21
-111.8563698707
62
11
0
LINE
8
Strings
10
661.4970685688
20
-111.8563698707
11
659.7123782475
21
-109.0697302952
62
11
0
LINE
8
Strings
10
659.7123782475
20
-109.0697302952
11
657.9247765246
21
-106.2867429370
62
11
0
LINE
8
Strings
10
657.9247765246
20
-106.2867429370
11
656.1400862033
21
-103.5001033641
62
11
0
LINE
8
Strings
10
656.1400862033
20
-103.5001033641
11
654.3524844804
21
-100.7134637913
62
11
0
LINE
8
Strings
10
654.3524844804
20
-100.7134637913
11
652.5677941591
21
-97.9268242184
62
11
0
LINE
8
Strings
10
652.5677941591
20
-97.9268242184
11
650.7801924361
21
-95.1401846455
62
11
0
LINE
8
Strings
10
650.7801924361
20
-95.1401846455
11
648.9925907132
21
-92.3571972847
62
11
0
LINE
8
Strings
10
648.9925907132
20
-92.3571972847
11
647.2079003919
21
-89.5705577118
62
11
0
LINE
8
Strings
10
647.2079003919
20
-89.5705577118
11
645.4202986648
21
-86.7839181390
62
11
0
LINE
8
Strings
10
645.4202986648
20
-86.7839181390
11
643.6356083477
21
-83.9972785661
62
11
0
LINE
8
Strings
10
643.6356083477
20
-83.9972785661
11
641.8480066206
21
-81.2106389932
62
11
0
LINE
8
Strings
10
640.0633163035
20
-78.4276516324
11
645.3242223531
21
-75.0530055447
62
11
0
LINE
8
Strings
10
645.3242223531
20
-75.0530055447
11
647.1118240760
21
-77.8396451176
62
11
0
LINE
8
Strings
10
647.1118240760
20
-77.8396451176
11
648.8965143973
21
-80.6226324758
62
11
0
LINE
8
Strings
10
648.8965143973
20
-80.6226324758
11
650.6841161202
21
-83.4092720513
62
11
0
LINE
8
Strings
10
650.6841161202
20
-83.4092720513
11
652.4688064415
21
-86.1959116242
62
11
0
LINE
8
Strings
10
652.4688064415
20
-86.1959116242
11
654.2564081645
21
-88.9825511970
62
11
0
LINE
8
Strings
10
654.2564081645
20
-88.9825511970
11
656.0440098915
21
-91.7691907699
62
11
0
LINE
8
Strings
10
656.0440098915
20
-91.7691907699
11
657.8287002087
21
-94.5521781281
62
11
0
LINE
8
Strings
10
657.8287002087
20
-94.5521781281
11
659.6163019357
21
-97.3388177036
62
11
0
LINE
8
Strings
10
659.6163019357
20
-97.3388177036
11
661.4009922529
21
-100.1254572765
62
11
0
LINE
8
Strings
10
661.4009922529
20
-100.1254572765
11
663.1885939800
21
-102.9120968493
62
11
0
LINE
8
Strings
10
663.1885939800
20
-102.9120968493
11
664.9732842971
21
-105.6987364222
62
11
0
LINE
8
Strings
10
664.9732842971
20
-105.6987364222
11
666.7608860242
21
-108.4817237804
62
11
0
LINE
8
Strings
10
666.7608860242
20
-108.4817237804
11
668.5455763413
21
-111.2683633533
62
11
0
LINE
8
Strings
10
668.5455763413
20
-111.2683633533
11
670.3331780684
21
-114.0550029288
62
11
0
LINE
8
Strings
10
670.3331780684
20
-114.0550029288
11
672.1207797913
21
-116.8416425016
62
11
0
LINE
8
Strings
10
672.1207797913
20
-116.8416425016
11
673.9054701126
21
-119.6246298598
62
11
0
LINE
8
Strings
10
673.9054701126
20
-119.6246298598
11
675.6930718356
21
-122.4112694327
62
11
0
LINE
8
Strings
10
675.6930718356
20
-122.4112694327
11
677.4777621568
21
-125.1979090056
62
11
0
LINE
8
Strings
10
677.4777621568
20
-125.1979090056
11
679.2653638798
21
-127.9845485785
62
11
0
LINE
8
Strings
10
679.2653638798
20
-127.9845485785
11
681.0500542011
21
-130.7711881539
62
11
0
LINE
8
Strings
10
681.0500542011
20
-130.7711881539
11
682.8376559240
21
-133.5541755121
62
11
0
LINE
8
Strings
10
682.8376559240
20
-133.5541755121
11
684.6223462453
21
-136.3408150850
62
11
0
LINE
8
Strings
10
686.4099479682
20
-139.1274546579
11
691.6737654236
21
-135.7528085702
62
11
0
LINE
8
Strings
10
691.6737654236
20
-135.7528085702
11
689.8861637007
21
-132.9661689973
62
11
0
LINE
8
Strings
10
689.8861637007
20
-132.9661689973
11
688.0985619736
21
-130.1831816365
62
11
0
LINE
8
Strings
10
688.0985619736
20
-130.1831816365
11
686.3138716565
21
-127.3965420637
62
11
0
LINE
8
Strings
10
686.3138716565
20
-127.3965420637
11
684.5262699294
21
-124.6099024908
62
11
0
LINE
8
Strings
10
684.5262699294
20
-124.6099024908
11
682.7415796122
21
-121.8232629179
62
11
0
LINE
8
Strings
10
682.7415796122
20
-121.8232629179
11
680.9539778852
21
-119.0366233450
62
11
0
LINE
8
Strings
10
680.9539778852
20
-119.0366233450
11
679.1692875680
21
-116.2536359842
62
11
0
LINE
8
Strings
10
679.1692875680
20
-116.2536359842
11
677.3816858410
21
-113.4669964114
62
11
0
LINE
8
Strings
10
677.3816858410
20
-113.4669964114
11
675.5969955197
21
-110.6803568385
62
11
0
LINE
8
Strings
10
675.5969955197
20
-110.6803568385
11
673.8093937967
21
-107.8937172656
62
11
0
LINE
8
Strings
10
673.8093937967
20
-107.8937172656
11
672.0217920738
21
-105.1070776927
62
11
0
LINE
8
Strings
10
672.0217920738
20
-105.1070776927
11
670.2371017525
21
-102.3240903345
62
11
0
LINE
8
Strings
10
670.2371017525
20
-102.3240903345
11
668.4495000296
21
-99.5374507591
62
11
0
LINE
8
Strings
10
668.4495000296
20
-99.5374507591
11
666.6648097083
21
-96.7508111862
62
11
0
LINE
8
Strings
10
666.6648097083
20
-96.7508111862
11
664.8772079854
21
-93.9641716133
62
11
0
LINE
8
Strings
10
664.8772079854
20
-93.9641716133
11
663.0925176641
21
-91.1775320404
62
11
0
LINE
8
Strings
10
663.0925176641
20
-91.1775320404
11
661.3049159411
21
-88.3945446822
62
11
0
LINE
8
Strings
10
661.3049159411
20
-88.3945446822
11
659.5202256198
21
-85.6079051094
62
11
0
LINE
8
Strings
10
659.5202256198
20
-85.6079051094
11
657.7326238969
21
-82.8212655339
62
11
0
LINE
8
Strings
10
657.7326238969
20
-82.8212655339
11
655.9450221699
21
-80.0346259610
62
11
0
LINE
8
Strings
10
655.9450221699
20
-80.0346259610
11
654.1603318527
21
-77.2479863881
62
11
0
LINE
8
Strings
10
654.1603318527
20
-77.2479863881
11
652.3727301256
21
-74.4649990299
62
11
0
LINE
8
Strings
10
652.3727301256
20
-74.4649990299
11
650.5880398085
21
-71.6783594571
62
11
0
LINE
8
Connections
10
682.9337322399
20
-145.2887403210
11
683.3480108042
21
-145.0231066051
62
91
0
LINE
8
Connections
10
683.3480108042
20
-145.0231066051
11
683.6136445201
21
-145.4373851695
62
91
0
LINE
8
Connections
10
683.6136445201
20
-145.4373851695
11
686.6230066160
21
-150.1307434820
62
91
0
LINE
8
Connections
10
686.6230066160
20
-150.1307434820
11
686.6226436939
21
-150.1309761862
62
91
0
LINE
8
Connections
10
686.6226436939
20
-150.1309761862
11
686.2083651296
21
-150.3966099021
62
91
0
LINE
8
Connections
10
686.2083651296
20
-150.3966099021
11
686.4739988455
21
-150.8108884664
62
91
0
LINE
8
Connections
10
640.0633163035
20
-78.4276516324
11
640.4775948678
21
-78.1620179165
62
91
0
LINE
8
Connections
10
640.4775948678
20
-78.1620179165
11
640.7432285837
21
-78.5762964808
62
91
0
LINE
8
Connections
10
640.7432285837
20
-78.5762964808
11
686.6234600384
21
-150.1304527495
62
91
0
LINE
8
Connections
10
686.6234600384
20
-150.1304527495
11
686.6226436939
21
-150.1309761862
62
91
0
LINE
8
Connections
10
686.6226436939
20
-150.1309761862
11
686.2083651296
21
-150.3966099021
62
91
0
LINE
8
Connections
10
686.2083651296
20
-150.3966099021
11
686.4739988455
21
-150.8108884664
62
91
0
LINE
8
Connections
10
686.4099479682
20
-139.1274546579
11
685.9956694039
21
-139.3930883738
62
91
0
LINE
8
Connections
10
685.9956694039
20
-139.3930883738
11
686.2613031198
21
-139.8073669381
62
91
0
LINE
8
Connections
10
686.2613031198
20
-139.8073669381
11
691.0574623571
21
-147.2873886528
62
91
0
LINE
8
Connections
10
691.0574623571
20
-147.2873886528
11
686.6226436939
21
-150.1309761862
62
91
0
LINE
8
Connections
10
686.6226436939
20
-150.1309761862
11
686.2083651296
21
-150.3966099021
62
91
0
LINE
8
Connections
10
686.2083651296
20
-150.3966099021
11
686.4739988455
21
-150.8108884664
62
91
0
ENDSEC
0
EOF