999
Design created by Aurora
0
SECTION
2
HEADER
9
$ACADVER
1
AC1009
9
$INSUNITS
70
2
0
ENDSEC
0
SECTION
2
TABLES
0
TABLE
2
LTYPE
100
AcDbLinetypeTableRecord
2
LTYPE
0
LTYPE
2
DASHED
70
0
3
dashed line
72
65
73
2
40
4.0
49
2.0
49
-2.0
0
ENDTAB
0
TABLE
2
LAYER
70
4
0
LAYER
100
AcDbSymbolTable
100
AcDbLayerTable
2
Inverters
70
0
62
7
6
CONTINUOUS
0
LAYER
100
AcDbSymbolTable
100
AcDbLayerTable
2
Connections
70
0
62
7
6
CONTINUOUS
0
LAYER
100
AcDbSymbolTable
100
AcDbLayerTable
2
Strings
70
0
62
7
6
CONTINUOUS
0
LAYER
100
AcDbSymbolTable
100
AcDbLayerTable
2
Modules
70
0
62
7
6
CONTINUOUS
0
ENDTAB
0
ENDSEC
0
SECTION
2
ENTITIES
0
LINE
8
Modules
10
-702.6382613876
20
130.6253997850
11
-702.7800780555
21
127.3421583124
62
254
0
LINE
8
Modules
10
-702.7800780555
20
127.3421583124
11
-695.3624535550
21
127.0217606811
62
254
0
LINE
8
Modules
10
-695.3624535550
20
127.0217606811
11
-695.2206368871
21
130.3050021537
62
254
0
LINE
8
Modules
10
-695.2206368871
20
130.3050021537
11
-702.6382613876
21
130.6253997850
62
254
0
LINE
8
Modules
10
-695.1790090342
20
130.3032040760
11
-695.3208257021
21
127.0199626034
62
254
0
LINE
8
Modules
10
-695.3208257021
20
127.0199626034
11
-687.9032012016
21
126.6995649721
62
254
0
LINE
8
Modules
10
-687.9032012016
20
126.6995649721
11
-687.7613845336
21
129.9828064447
62
254
0
LINE
8
Modules
10
-687.7613845336
20
129.9828064447
11
-695.1790090342
21
130.3032040760
62
254
0
LINE
8
Modules
10
-687.7197566807
20
129.9810083670
11
-687.8615733487
21
126.6977668943
62
254
0
LINE
8
Modules
10
-687.8615733487
20
126.6977668943
11
-680.4439488482
21
126.3773692631
62
254
0
LINE
8
Modules
10
-680.4439488482
20
126.3773692631
11
-680.3021321802
21
129.6606107357
62
254
0
LINE
8
Modules
10
-680.3021321802
20
129.6606107357
11
-687.7197566807
21
129.9810083670
62
254
0
LINE
8
Modules
10
-680.2605043273
20
129.6588126579
11
-680.4023209952
21
126.3755711853
62
254
0
LINE
8
Modules
10
-680.4023209952
20
126.3755711853
11
-672.9846964947
21
126.0551735540
62
254
0
LINE
8
Modules
10
-672.9846964947
20
126.0551735540
11
-672.8428798268
21
129.3384150266
62
254
0
LINE
8
Modules
10
-672.8428798268
20
129.3384150266
11
-680.2605043273
21
129.6588126579
62
254
0
LINE
8
Modules
10
-672.8012519739
20
129.3366169489
11
-672.9430686418
21
126.0533754763
62
254
0
LINE
8
Modules
10
-672.9430686418
20
126.0533754763
11
-665.5254441413
21
125.7329778450
62
254
0
LINE
8
Modules
10
-665.5254441413
20
125.7329778450
11
-665.3836274733
21
129.0162193176
62
254
0
LINE
8
Modules
10
-665.3836274733
20
129.0162193176
11
-672.8012519739
21
129.3366169489
62
254
0
LINE
8
Modules
10
-665.3419996204
20
129.0144212399
11
-665.4838162884
21
125.7311797673
62
254
0
LINE
8
Modules
10
-665.4838162884
20
125.7311797673
11
-658.0661917879
21
125.4107821360
62
254
0
LINE
8
Modules
10
-658.0661917879
20
125.4107821360
11
-657.9243751199
21
128.6940236086
62
254
0
LINE
8
Modules
10
-657.9243751199
20
128.6940236086
11
-665.3419996204
21
129.0144212399
62
254
0
LINE
8
Modules
10
-657.8827472670
20
128.6922255309
11
-658.0245639349
21
125.4089840582
62
254
0
LINE
8
Modules
10
-658.0245639349
20
125.4089840582
11
-650.6069394344
21
125.0885864270
62
254
0
LINE
8
Modules
10
-650.6069394344
20
125.0885864270
11
-650.4651227665
21
128.3718278996
62
254
0
LINE
8
Modules
10
-650.4651227665
20
128.3718278996
11
-657.8827472670
21
128.6922255309
62
254
0
LINE
8
Modules
10
-650.4234949136
20
128.3700298218
11
-650.5653115815
21
125.0867883492
62
254
0
LINE
8
Modules
10
-650.5653115815
20
125.0867883492
11
-643.1476870810
21
124.7663907179
62
254
0
LINE
8
Modules
10
-643.1476870810
20
124.7663907179
11
-643.0058704130
21
128.0496321905
62
254
0
LINE
8
Modules
10
-643.0058704130
20
128.0496321905
11
-650.4234949136
21
128.3700298218
62
254
0
LINE
8
Modules
10
-702.7818148653
20
127.3019488942
11
-702.9236315332
21
124.0187074215
62
254
0
LINE
8
Modules
10
-702.9236315332
20
124.0187074215
11
-695.5060070327
21
123.6983097903
62
254
0
LINE
8
Modules
10
-695.5060070327
20
123.6983097903
11
-695.3641903647
21
126.9815512629
62
254
0
LINE
8
Modules
10
-695.3641903647
20
126.9815512629
11
-702.7818148653
21
127.3019488942
62
254
0
LINE
8
Modules
10
-695.3225625118
20
126.9797531851
11
-695.4643791798
21
123.6965117125
62
254
0
LINE
8
Modules
10
-695.4643791798
20
123.6965117125
11
-688.0467546793
21
123.3761140812
62
254
0
LINE
8
Modules
10
-688.0467546793
20
123.3761140812
11
-687.9049380113
21
126.6593555538
62
254
0
LINE
8
Modules
10
-687.9049380113
20
126.6593555538
11
-695.3225625118
21
126.9797531851
62
254
0
LINE
8
Modules
10
-687.8633101584
20
126.6575574761
11
-688.0051268263
21
123.3743160035
62
254
0
LINE
8
Modules
10
-688.0051268263
20
123.3743160035
11
-680.5875023258
21
123.0539183722
62
254
0
LINE
8
Modules
10
-680.5875023258
20
123.0539183722
11
-680.4456856579
21
126.3371598448
62
254
0
LINE
8
Modules
10
-680.4456856579
20
126.3371598448
11
-687.8633101584
21
126.6575574761
62
254
0
LINE
8
Modules
10
-680.4040578050
20
126.3353617671
11
-680.5458744729
21
123.0521202945
62
254
0
LINE
8
Modules
10
-680.5458744729
20
123.0521202945
11
-673.1282499724
21
122.7317226632
62
254
0
LINE
8
Modules
10
-673.1282499724
20
122.7317226632
11
-672.9864333044
21
126.0149641358
62
254
0
LINE
8
Modules
10
-672.9864333044
20
126.0149641358
11
-680.4040578050
21
126.3353617671
62
254
0
LINE
8
Modules
10
-672.9448054515
20
126.0131660581
11
-673.0866221195
21
122.7299245854
62
254
0
LINE
8
Modules
10
-673.0866221195
20
122.7299245854
11
-665.6689976190
21
122.4095269542
62
254
0
LINE
8
Modules
10
-665.6689976190
20
122.4095269542
11
-665.5271809510
21
125.6927684268
62
254
0
LINE
8
Modules
10
-665.5271809510
20
125.6927684268
11
-672.9448054515
21
126.0131660581
62
254
0
LINE
8
Modules
10
-665.4855530981
20
125.6909703490
11
-665.6273697660
21
122.4077288764
62
254
0
LINE
8
Modules
10
-665.6273697660
20
122.4077288764
11
-658.2097452655
21
122.0873312451
62
254
0
LINE
8
Modules
10
-658.2097452655
20
122.0873312451
11
-658.0679285976
21
125.3705727178
62
254
0
LINE
8
Modules
10
-658.0679285976
20
125.3705727178
11
-665.4855530981
21
125.6909703490
62
254
0
LINE
8
Modules
10
-658.0263007447
20
125.3687746400
11
-658.1681174126
21
122.0855331674
62
254
0
LINE
8
Modules
10
-658.1681174126
20
122.0855331674
11
-650.7504929121
21
121.7651355361
62
254
0
LINE
8
Modules
10
-650.7504929121
20
121.7651355361
11
-650.6086762441
21
125.0483770087
62
254
0
LINE
8
Modules
10
-650.6086762441
20
125.0483770087
11
-658.0263007447
21
125.3687746400
62
254
0
LINE
8
Modules
10
-650.5670483912
20
125.0465789310
11
-650.7088650592
21
121.7633374584
62
254
0
LINE
8
Modules
10
-650.7088650592
20
121.7633374584
11
-643.2912405587
21
121.4429398271
62
254
0
LINE
8
Modules
10
-643.2912405587
20
121.4429398271
11
-643.1494238907
21
124.7261812997
62
254
0
LINE
8
Modules
10
-643.1494238907
20
124.7261812997
11
-650.5670483912
21
125.0465789310
62
254
0
LINE
8
Modules
10
-702.9253683429
20
123.9784980033
11
-703.0671850109
21
120.6952565307
62
254
0
LINE
8
Modules
10
-703.0671850109
20
120.6952565307
11
-695.6495605104
21
120.3748588994
62
254
0
LINE
8
Modules
10
-695.6495605104
20
120.3748588994
11
-695.5077438424
21
123.6581003720
62
254
0
LINE
8
Modules
10
-695.5077438424
20
123.6581003720
11
-702.9253683429
21
123.9784980033
62
254
0
LINE
8
Modules
10
-695.4661159895
20
123.6563022943
11
-695.6079326575
21
120.3730608217
62
254
0
LINE
8
Modules
10
-695.6079326575
20
120.3730608217
11
-688.1903081569
21
120.0526631904
62
254
0
LINE
8
Modules
10
-688.1903081569
20
120.0526631904
11
-688.0484914890
21
123.3359046630
62
254
0
LINE
8
Modules
10
-688.0484914890
20
123.3359046630
11
-695.4661159895
21
123.6563022943
62
254
0
LINE
8
Modules
10
-688.0068636361
20
123.3341065853
11
-688.1486803040
21
120.0508651127
62
254
0
LINE
8
Modules
10
-688.1486803040
20
120.0508651127
11
-680.7310558035
21
119.7304674814
62
254
0
LINE
8
Modules
10
-680.7310558035
20
119.7304674814
11
-680.5892391356
21
123.0137089540
62
254
0
LINE
8
Modules
10
-680.5892391356
20
123.0137089540
11
-688.0068636361
21
123.3341065853
62
254
0
LINE
8
Modules
10
-680.5476112826
20
123.0119108762
11
-680.6894279506
21
119.7286694036
62
254
0
LINE
8
Modules
10
-680.6894279506
20
119.7286694036
11
-673.2718034501
21
119.4082717723
62
254
0
LINE
8
Modules
10
-673.2718034501
20
119.4082717723
11
-673.1299867821
21
122.6915132450
62
254
0
LINE
8
Modules
10
-673.1299867821
20
122.6915132450
11
-680.5476112826
21
123.0119108762
62
254
0
LINE
8
Modules
10
-673.0883589292
20
122.6897151672
11
-673.2301755972
21
119.4064736946
62
254
0
LINE
8
Modules
10
-673.2301755972
20
119.4064736946
11
-665.8125510966
21
119.0860760633
62
254
0
LINE
8
Modules
10
-665.8125510966
20
119.0860760633
11
-665.6707344287
21
122.3693175359
62
254
0
LINE
8
Modules
10
-665.6707344287
20
122.3693175359
11
-673.0883589292
21
122.6897151672
62
254
0
LINE
8
Modules
10
-665.6291065758
20
122.3675194582
11
-665.7709232437
21
119.0842779856
62
254
0
LINE
8
Modules
10
-665.7709232437
20
119.0842779856
11
-658.3532987432
21
118.7638803543
62
254
0
LINE
8
Modules
10
-658.3532987432
20
118.7638803543
11
-658.2114820753
21
122.0471218269
62
254
0
LINE
8
Modules
10
-658.2114820753
20
122.0471218269
11
-665.6291065758
21
122.3675194582
62
254
0
LINE
8
Modules
10
-658.1698542223
20
122.0453237492
11
-658.3116708903
21
118.7620822766
62
254
0
LINE
8
Modules
10
-658.3116708903
20
118.7620822766
11
-650.8940463898
21
118.4416846453
62
254
0
LINE
8
Modules
10
-650.8940463898
20
118.4416846453
11
-650.7522297218
21
121.7249261179
62
254
0
LINE
8
Modules
10
-650.7522297218
20
121.7249261179
11
-658.1698542223
21
122.0453237492
62
254
0
LINE
8
Modules
10
-650.7106018689
20
121.7231280402
11
-650.8524185369
21
118.4398865675
62
254
0
LINE
8
Modules
10
-650.8524185369
20
118.4398865675
11
-643.4347940363
21
118.1194889362
62
254
0
LINE
8
Modules
10
-643.4347940363
20
118.1194889362
11
-643.2929773684
21
121.4027304089
62
254
0
LINE
8
Modules
10
-643.2929773684
20
121.4027304089
11
-650.7106018689
21
121.7231280402
62
254
0
LINE
8
Modules
10
-703.0689218206
20
120.6550471125
11
-703.2107384886
21
117.3718056399
62
254
0
LINE
8
Modules
10
-703.2107384886
20
117.3718056399
11
-695.7931139880
21
117.0514080086
62
254
0
LINE
8
Modules
10
-695.7931139880
20
117.0514080086
11
-695.6512973201
21
120.3346494812
62
254
0
LINE
8
Modules
10
-695.6512973201
20
120.3346494812
11
-703.0689218206
21
120.6550471125
62
254
0
LINE
8
Modules
10
-695.6096694672
20
120.3328514034
11
-695.7514861351
21
117.0496099308
62
254
0
LINE
8
Modules
10
-695.7514861351
20
117.0496099308
11
-688.3338616346
21
116.7292122995
62
254
0
LINE
8
Modules
10
-688.3338616346
20
116.7292122995
11
-688.1920449667
21
120.0124537722
62
254
0
LINE
8
Modules
10
-688.1920449667
20
120.0124537722
11
-695.6096694672
21
120.3328514034
62
254
0
LINE
8
Modules
10
-688.1504171137
20
120.0106556944
11
-688.2922337817
21
116.7274142218
62
254
0
LINE
8
Modules
10
-688.2922337817
20
116.7274142218
11
-680.8746092812
21
116.4070165905
62
254
0
LINE
8
Modules
10
-680.8746092812
20
116.4070165905
11
-680.7327926132
21
119.6902580631
62
254
0
LINE
8
Modules
10
-680.7327926132
20
119.6902580631
11
-688.1504171137
21
120.0106556944
62
254
0
LINE
8
Modules
10
-680.6911647603
20
119.6884599854
11
-680.8329814283
21
116.4052185128
62
254
0
LINE
8
Modules
10
-680.8329814283
20
116.4052185128
11
-673.4153569277
21
116.0848208815
62
254
0
LINE
8
Modules
10
-673.4153569277
20
116.0848208815
11
-673.2735402598
21
119.3680623541
62
254
0
LINE
8
Modules
10
-673.2735402598
20
119.3680623541
11
-680.6911647603
21
119.6884599854
62
254
0
LINE
8
Modules
10
-673.2319124069
20
119.3662642764
11
-673.3737290748
21
116.0830228038
62
254
0
LINE
8
Modules
10
-673.3737290748
20
116.0830228038
11
-665.9561045743
21
115.7626251725
62
254
0
LINE
8
Modules
10
-665.9561045743
20
115.7626251725
11
-665.8142879064
21
119.0458666451
62
254
0
LINE
8
Modules
10
-665.8142879064
20
119.0458666451
11
-673.2319124069
21
119.3662642764
62
254
0
LINE
8
Modules
10
-665.7726600534
20
119.0440685674
11
-665.9144767214
21
115.7608270947
62
254
0
LINE
8
Modules
10
-665.9144767214
20
115.7608270947
11
-658.4968522209
21
115.4404294635
62
254
0
LINE
8
Modules
10
-658.4968522209
20
115.4404294635
11
-658.3550355529
21
118.7236709361
62
254
0
LINE
8
Modules
10
-658.3550355529
20
118.7236709361
11
-665.7726600534
21
119.0440685674
62
254
0
LINE
8
Modules
10
-658.3134077000
20
118.7218728583
11
-658.4552243680
21
115.4386313857
62
254
0
LINE
8
Modules
10
-658.4552243680
20
115.4386313857
11
-651.0375998674
21
115.1182337544
62
254
0
LINE
8
Modules
10
-651.0375998674
20
115.1182337544
11
-650.8957831995
21
118.4014752270
62
254
0
LINE
8
Modules
10
-650.8957831995
20
118.4014752270
11
-658.3134077000
21
118.7218728583
62
254
0
LINE
8
Modules
10
-650.8541553466
20
118.3996771493
11
-650.9959720145
21
115.1164356767
62
254
0
LINE
8
Modules
10
-650.9959720145
20
115.1164356767
11
-643.5783475140
21
114.7960380454
62
254
0
LINE
8
Modules
10
-643.5783475140
20
114.7960380454
11
-643.4365308461
21
118.0792795180
62
254
0
LINE
8
Modules
10
-643.4365308461
20
118.0792795180
11
-650.8541553466
21
118.3996771493
62
254
0
LINE
8
Modules
10
-703.2124752983
20
117.3315962216
11
-703.3542919662
21
114.0483547490
62
254
0
LINE
8
Modules
10
-703.3542919662
20
114.0483547490
11
-695.9366674657
21
113.7279571177
62
254
0
LINE
8
Modules
10
-695.9366674657
20
113.7279571177
11
-695.7948507978
21
117.0111985903
62
254
0
LINE
8
Modules
10
-695.7948507978
20
117.0111985903
11
-703.2124752983
21
117.3315962216
62
254
0
LINE
8
Modules
10
-695.7532229448
20
117.0094005126
11
-695.8950396128
21
113.7261590400
62
254
0
LINE
8
Modules
10
-695.8950396128
20
113.7261590400
11
-688.4774151123
21
113.4057614087
62
254
0
LINE
8
Modules
10
-688.4774151123
20
113.4057614087
11
-688.3355984443
21
116.6890028813
62
254
0
LINE
8
Modules
10
-688.3355984443
20
116.6890028813
11
-695.7532229448
21
117.0094005126
62
254
0
LINE
8
Modules
10
-688.2939705914
20
116.6872048036
11
-688.4357872594
21
113.4039633310
62
254
0
LINE
8
Modules
10
-688.4357872594
20
113.4039633310
11
-681.0181627589
21
113.0835656997
62
254
0
LINE
8
Modules
10
-681.0181627589
20
113.0835656997
11
-680.8763460909
21
116.3668071723
62
254
0
LINE
8
Modules
10
-680.8763460909
20
116.3668071723
11
-688.2939705914
21
116.6872048036
62
254
0
LINE
8
Modules
10
-680.8347182380
20
116.3650090946
11
-680.9765349059
21
113.0817676219
62
254
0
LINE
8
Modules
10
-680.9765349059
20
113.0817676219
11
-673.5589104054
21
112.7613699907
62
254
0
LINE
8
Modules
10
-673.5589104054
20
112.7613699907
11
-673.4170937375
21
116.0446114633
62
254
0
LINE
8
Modules
10
-673.4170937375
20
116.0446114633
11
-680.8347182380
21
116.3650090946
62
254
0
LINE
8
Modules
10
-673.3754658846
20
116.0428133855
11
-673.5172825525
21
112.7595719129
62
254
0
LINE
8
Modules
10
-673.5172825525
20
112.7595719129
11
-666.0996580520
21
112.4391742816
62
254
0
LINE
8
Modules
10
-666.0996580520
20
112.4391742816
11
-665.9578413840
21
115.7224157542
62
254
0
LINE
8
Modules
10
-665.9578413840
20
115.7224157542
11
-673.3754658846
21
116.0428133855
62
254
0
LINE
8
Modules
10
-665.9162135311
20
115.7206176765
11
-666.0580301991
21
112.4373762039
62
254
0
LINE
8
Modules
10
-666.0580301991
20
112.4373762039
11
-658.6404056986
21
112.1169785726
62
254
0
LINE
8
Modules
10
-658.6404056986
20
112.1169785726
11
-658.4985890306
21
115.4002200452
62
254
0
LINE
8
Modules
10
-658.4985890306
20
115.4002200452
11
-665.9162135311
21
115.7206176765
62
254
0
LINE
8
Modules
10
-658.4569611777
20
115.3984219675
11
-658.5987778456
21
112.1151804949
62
254
0
LINE
8
Modules
10
-658.5987778456
20
112.1151804949
11
-651.1811533451
21
111.7947828636
62
254
0
LINE
8
Modules
10
-651.1811533451
20
111.7947828636
11
-651.0393366772
21
115.0780243362
62
254
0
LINE
8
Modules
10
-651.0393366772
20
115.0780243362
11
-658.4569611777
21
115.3984219675
62
254
0
LINE
8
Modules
10
-650.9977088243
20
115.0762262585
11
-651.1395254922
21
111.7929847859
62
254
0
LINE
8
Modules
10
-651.1395254922
20
111.7929847859
11
-643.7219009917
21
111.4725871546
62
254
0
LINE
8
Modules
10
-643.7219009917
20
111.4725871546
11
-643.5800843237
21
114.7558286272
62
254
0
LINE
8
Modules
10
-643.5800843237
20
114.7558286272
11
-650.9977088243
21
115.0762262585
62
254
0
LINE
8
Modules
10
-640.9152521953
20
127.2096073297
11
-640.9984917965
21
123.9243588302
62
254
0
LINE
8
Modules
10
-640.9984917965
20
123.9243588302
11
-633.5763329442
21
123.7363007448
62
254
0
LINE
8
Modules
10
-633.5763329442
20
123.7363007448
11
-633.4930933430
21
127.0215492443
62
254
0
LINE
8
Modules
10
-633.4930933430
20
127.0215492443
11
-640.9152521953
21
127.2096073297
62
254
0
LINE
8
Modules
10
-633.4514400432
20
127.0204938587
11
-633.5346796444
21
123.7352453592
62
254
0
LINE
8
Modules
10
-633.5346796444
20
123.7352453592
11
-626.1125207921
21
123.5471872738
62
254
0
LINE
8
Modules
10
-626.1125207921
20
123.5471872738
11
-626.0292811909
21
126.8324357733
62
254
0
LINE
8
Modules
10
-626.0292811909
20
126.8324357733
11
-633.4514400432
21
127.0204938587
62
254
0
LINE
8
Modules
10
-625.9876278911
20
126.8313803877
11
-626.0708674923
21
123.5461318881
62
254
0
LINE
8
Modules
10
-626.0708674923
20
123.5461318881
11
-618.6487086400
21
123.3580738027
62
254
0
LINE
8
Modules
10
-618.6487086400
20
123.3580738027
11
-618.5654690388
21
126.6433223022
62
254
0
LINE
8
Modules
10
-618.5654690388
20
126.6433223022
11
-625.9876278911
21
126.8313803877
62
254
0
LINE
8
Modules
10
-618.5238157390
20
126.6422669166
11
-618.6070553402
21
123.3570184171
62
254
0
LINE
8
Modules
10
-618.6070553402
20
123.3570184171
11
-611.1848964878
21
123.1689603317
62
254
0
LINE
8
Modules
10
-611.1848964878
20
123.1689603317
11
-611.1016568866
21
126.4542088312
62
254
0
LINE
8
Modules
10
-611.1016568866
20
126.4542088312
11
-618.5238157390
21
126.6422669166
62
254
0
LINE
8
Modules
10
-611.0600035868
20
126.4531534456
11
-611.1432431880
21
123.1679049460
62
254
0
LINE
8
Modules
10
-611.1432431880
20
123.1679049460
11
-603.7210843357
21
122.9798468606
62
254
0
LINE
8
Modules
10
-603.7210843357
20
122.9798468606
11
-603.6378447345
21
126.2650953601
62
254
0
LINE
8
Modules
10
-603.6378447345
20
126.2650953601
11
-611.0600035868
21
126.4531534456
62
254
0
LINE
8
Modules
10
-603.5961914347
20
126.2640399745
11
-603.6794310359
21
122.9787914750
62
254
0
LINE
8
Modules
10
-603.6794310359
20
122.9787914750
11
-596.2572721836
21
122.7907333896
62
254
0
LINE
8
Modules
10
-596.2572721836
20
122.7907333896
11
-596.1740325824
21
126.0759818891
62
254
0
LINE
8
Modules
10
-596.1740325824
20
126.0759818891
11
-603.5961914347
21
126.2640399745
62
254
0
LINE
8
Modules
10
-596.1323792826
20
126.0749265035
11
-596.2156188838
21
122.7896780039
62
254
0
LINE
8
Modules
10
-596.2156188838
20
122.7896780039
11
-588.7934600315
21
122.6016199185
62
254
0
LINE
8
Modules
10
-588.7934600315
20
122.6016199185
11
-588.7102204303
21
125.8868684181
62
254
0
LINE
8
Modules
10
-588.7102204303
20
125.8868684181
11
-596.1323792826
21
126.0749265035
62
254
0
LINE
8
Modules
10
-588.6685671305
20
125.8858130324
11
-588.7518067317
21
122.6005645329
62
254
0
LINE
8
Modules
10
-588.7518067317
20
122.6005645329
11
-581.3296478793
21
122.4125064475
62
254
0
LINE
8
Modules
10
-581.3296478793
20
122.4125064475
11
-581.2464082781
21
125.6977549470
62
254
0
LINE
8
Modules
10
-581.2464082781
20
125.6977549470
11
-588.6685671305
21
125.8858130324
62
254
0
LINE
8
Modules
10
-640.9995112208
20
123.8841248322
11
-641.0827508220
21
120.5988763327
62
254
0
LINE
8
Modules
10
-641.0827508220
20
120.5988763327
11
-633.6605919696
21
120.4108182473
62
254
0
LINE
8
Modules
10
-633.6605919696
20
120.4108182473
11
-633.5773523684
21
123.6960667468
62
254
0
LINE
8
Modules
10
-633.5773523684
20
123.6960667468
11
-640.9995112208
21
123.8841248322
62
254
0
LINE
8
Modules
10
-633.5356990687
20
123.6950113612
11
-633.6189386699
21
120.4097628616
62
254
0
LINE
8
Modules
10
-633.6189386699
20
120.4097628616
11
-626.1967798175
21
120.2217047762
62
254
0
LINE
8
Modules
10
-626.1967798175
20
120.2217047762
11
-626.1135402163
21
123.5069532757
62
254
0
LINE
8
Modules
10
-626.1135402163
20
123.5069532757
11
-633.5356990687
21
123.6950113612
62
254
0
LINE
8
Modules
10
-626.0718869165
20
123.5058978901
11
-626.1551265177
21
120.2206493906
62
254
0
LINE
8
Modules
10
-626.1551265177
20
120.2206493906
11
-618.7329676654
21
120.0325913052
62
254
0
LINE
8
Modules
10
-618.7329676654
20
120.0325913052
11
-618.6497280642
21
123.3178398047
62
254
0
LINE
8
Modules
10
-618.6497280642
20
123.3178398047
11
-626.0718869165
21
123.5058978901
62
254
0
LINE
8
Modules
10
-618.6080747644
20
123.3167844191
11
-618.6913143656
21
120.0315359195
62
254
0
LINE
8
Modules
10
-618.6913143656
20
120.0315359195
11
-611.2691555133
21
119.8434778341
62
254
0
LINE
8
Modules
10
-611.2691555133
20
119.8434778341
11
-611.1859159121
21
123.1287263337
62
254
0
LINE
8
Modules
10
-611.1859159121
20
123.1287263337
11
-618.6080747644
21
123.3167844191
62
254
0
LINE
8
Modules
10
-611.1442626123
20
123.1276709480
11
-611.2275022135
21
119.8424224485
62
254
0
LINE
8
Modules
10
-611.2275022135
20
119.8424224485
11
-603.8053433612
21
119.6543643631
62
254
0
LINE
8
Modules
10
-603.8053433612
20
119.6543643631
11
-603.7221037600
21
122.9396128626
62
254
0
LINE
8
Modules
10
-603.7221037600
20
122.9396128626
11
-611.1442626123
21
123.1276709480
62
254
0
LINE
8
Modules
10
-603.6804504602
20
122.9385574770
11
-603.7636900614
21
119.6533089775
62
254
0
LINE
8
Modules
10
-603.7636900614
20
119.6533089775
11
-596.3415312090
21
119.4652508920
62
254
0
LINE
8
Modules
10
-596.3415312090
20
119.4652508920
11
-596.2582916078
21
122.7504993916
62
254
0
LINE
8
Modules
10
-596.2582916078
20
122.7504993916
11
-603.6804504602
21
122.9385574770
62
254
0
LINE
8
Modules
10
-596.2166383080
20
122.7494440059
11
-596.2998779092
21
119.4641955064
62
254
0
LINE
8
Modules
10
-596.2998779092
20
119.4641955064
11
-588.8777190569
21
119.2761374210
62
254
0
LINE
8
Modules
10
-588.8777190569
20
119.2761374210
11
-588.7944794557
21
122.5613859205
62
254
0
LINE
8
Modules
10
-588.7944794557
20
122.5613859205
11
-596.2166383080
21
122.7494440059
62
254
0
LINE
8
Modules
10
-588.7528261559
20
122.5603305349
11
-588.8360657571
21
119.2750820354
62
254
0
LINE
8
Modules
10
-588.8360657571
20
119.2750820354
11
-581.4139069048
21
119.0870239499
62
254
0
LINE
8
Modules
10
-581.4139069048
20
119.0870239499
11
-581.3306673036
21
122.3722724495
62
254
0
LINE
8
Modules
10
-581.3306673036
20
122.3722724495
11
-588.7528261559
21
122.5603305349
62
254
0
LINE
8
Modules
10
-641.0837702462
20
120.5586423347
11
-641.1670098474
21
117.2733938352
62
254
0
LINE
8
Modules
10
-641.1670098474
20
117.2733938352
11
-633.7448509951
21
117.0853357497
62
254
0
LINE
8
Modules
10
-633.7448509951
20
117.0853357497
11
-633.6616113939
21
120.3705842493
62
254
0
LINE
8
Modules
10
-633.6616113939
20
120.3705842493
11
-641.0837702462
21
120.5586423347
62
254
0
LINE
8
Modules
10
-633.6199580941
20
120.3695288636
11
-633.7031976953
21
117.0842803641
62
254
0
LINE
8
Modules
10
-633.7031976953
20
117.0842803641
11
-626.2810388430
21
116.8962222787
62
254
0
LINE
8
Modules
10
-626.2810388430
20
116.8962222787
11
-626.1977992418
21
120.1814707782
62
254
0
LINE
8
Modules
10
-626.1977992418
20
120.1814707782
11
-633.6199580941
21
120.3695288636
62
254
0
LINE
8
Modules
10
-626.1561459420
20
120.1804153926
11
-626.2393855432
21
116.8951668931
62
254
0
LINE
8
Modules
10
-626.2393855432
20
116.8951668931
11
-618.8172266908
21
116.7071088076
62
254
0
LINE
8
Modules
10
-618.8172266908
20
116.7071088076
11
-618.7339870896
21
119.9923573072
62
254
0
LINE
8
Modules
10
-618.7339870896
20
119.9923573072
11
-626.1561459420
21
120.1804153926
62
254
0
LINE
8
Modules
10
-618.6923337898
20
119.9913019215
11
-618.7755733910
21
116.7060534220
62
254
0
LINE
8
Modules
10
-618.7755733910
20
116.7060534220
11
-611.3534145387
21
116.5179953366
62
254
0
LINE
8
Modules
10
-611.3534145387
20
116.5179953366
11
-611.2701749375
21
119.8032438361
62
254
0
LINE
8
Modules
10
-611.2701749375
20
119.8032438361
11
-618.6923337898
21
119.9913019215
62
254
0
LINE
8
Modules
10
-611.2285216377
20
119.8021884505
11
-611.3117612389
21
116.5169399510
62
254
0
LINE
8
Modules
10
-611.3117612389
20
116.5169399510
11
-603.8896023866
21
116.3288818655
62
254
0
LINE
8
Modules
10
-603.8896023866
20
116.3288818655
11
-603.8063627854
21
119.6141303651
62
254
0
LINE
8
Modules
10
-603.8063627854
20
119.6141303651
11
-611.2285216377
21
119.8021884505
62
254
0
LINE
8
Modules
10
-603.7647094856
20
119.6130749794
11
-603.8479490868
21
116.3278264799
62
254
0
LINE
8
Modules
10
-603.8479490868
20
116.3278264799
11
-596.4257902345
21
116.1397683945
62
254
0
LINE
8
Modules
10
-596.4257902345
20
116.1397683945
11
-596.3425506333
21
119.4250168940
62
254
0
LINE
8
Modules
10
-596.3425506333
20
119.4250168940
11
-603.7647094856
21
119.6130749794
62
254
0
LINE
8
Modules
10
-596.3008973335
20
119.4239615084
11
-596.3841369347
21
116.1387130089
62
254
0
LINE
8
Modules
10
-596.3841369347
20
116.1387130089
11
-588.9619780823
21
115.9506549235
62
254
0
LINE
8
Modules
10
-588.9619780823
20
115.9506549235
11
-588.8787384811
21
119.2359034230
62
254
0
LINE
8
Modules
10
-588.8787384811
20
119.2359034230
11
-596.3008973335
21
119.4239615084
62
254
0
LINE
8
Modules
10
-588.8370851814
20
119.2348480373
11
-588.9203247826
21
115.9495995378
62
254
0
LINE
8
Modules
10
-588.9203247826
20
115.9495995378
11
-581.4981659302
21
115.7615414524
62
254
0
LINE
8
Modules
10
-581.4981659302
20
115.7615414524
11
-581.4149263290
21
119.0467899519
62
254
0
LINE
8
Modules
10
-581.4149263290
20
119.0467899519
11
-588.8370851814
21
119.2348480373
62
254
0
LINE
8
Modules
10
-641.1680292717
20
117.2331598371
11
-641.2512688729
21
113.9479113376
62
254
0
LINE
8
Modules
10
-641.2512688729
20
113.9479113376
11
-633.8291100205
21
113.7598532522
62
254
0
LINE
8
Modules
10
-633.8291100205
20
113.7598532522
11
-633.7458704193
21
117.0451017517
62
254
0
LINE
8
Modules
10
-633.7458704193
20
117.0451017517
11
-641.1680292717
21
117.2331598371
62
254
0
LINE
8
Modules
10
-633.7042171195
20
117.0440463661
11
-633.7874567207
21
113.7587978666
62
254
0
LINE
8
Modules
10
-633.7874567207
20
113.7587978666
11
-626.3652978684
21
113.5707397812
62
254
0
LINE
8
Modules
10
-626.3652978684
20
113.5707397812
11
-626.2820582672
21
116.8559882807
62
254
0
LINE
8
Modules
10
-626.2820582672
20
116.8559882807
11
-633.7042171195
21
117.0440463661
62
254
0
LINE
8
Modules
10
-626.2404049674
20
116.8549328950
11
-626.3236445686
21
113.5696843955
62
254
0
LINE
8
Modules
10
-626.3236445686
20
113.5696843955
11
-618.9014857163
21
113.3816263101
62
254
0
LINE
8
Modules
10
-618.9014857163
20
113.3816263101
11
-618.8182461151
21
116.6668748096
62
254
0
LINE
8
Modules
10
-618.8182461151
20
116.6668748096
11
-626.2404049674
21
116.8549328950
62
254
0
LINE
8
Modules
10
-618.7765928153
20
116.6658194240
11
-618.8598324165
21
113.3805709245
62
254
0
LINE
8
Modules
10
-618.8598324165
20
113.3805709245
11
-611.4376735642
21
113.1925128391
62
254
0
LINE
8
Modules
10
-611.4376735642
20
113.1925128391
11
-611.3544339630
21
116.4777613386
62
254
0
LINE
8
Modules
10
-611.3544339630
20
116.4777613386
11
-618.7765928153
21
116.6658194240
62
254
0
LINE
8
Modules
10
-611.3127806632
20
116.4767059529
11
-611.3960202644
21
113.1914574534
62
254
0
LINE
8
Modules
10
-611.3960202644
20
113.1914574534
11
-603.9738614120
21
113.0033993680
62
254
0
LINE
8
Modules
10
-603.9738614120
20
113.0033993680
11
-603.8906218108
21
116.2886478675
62
254
0
LINE
8
Modules
10
-603.8906218108
20
116.2886478675
11
-611.3127806632
21
116.4767059529
62
254
0
LINE
8
Modules
10
-603.8489685110
20
116.2875924819
11
-603.9322081122
21
113.0023439824
62
254
0
LINE
8
Modules
10
-603.9322081122
20
113.0023439824
11
-596.5100492599
21
112.8142858970
62
254
0
LINE
8
Modules
10
-596.5100492599
20
112.8142858970
11
-596.4268096587
21
116.0995343965
62
254
0
LINE
8
Modules
10
-596.4268096587
20
116.0995343965
11
-603.8489685110
21
116.2875924819
62
254
0
LINE
8
Modules
10
-596.3851563589
20
116.0984790109
11
-596.4683959601
21
112.8132305113
62
254
0
LINE
8
Modules
10
-596.4683959601
20
112.8132305113
11
-589.0462371078
21
112.6251724259
62
254
0
LINE
8
Modules
10
-589.0462371078
20
112.6251724259
11
-588.9629975066
21
115.9104209254
62
254
0
LINE
8
Modules
10
-588.9629975066
20
115.9104209254
11
-596.3851563589
21
116.0984790109
62
254
0
LINE
8
Modules
10
-588.9213442068
20
115.9093655398
11
-589.0045838080
21
112.6241170403
62
254
0
LINE
8
Modules
10
-589.0045838080
20
112.6241170403
11
-581.5824249557
21
112.4360589549
62
254
0
LINE
8
Modules
10
-581.5824249557
20
112.4360589549
11
-581.4991853545
21
115.7213074544
62
254
0
LINE
8
Modules
10
-581.4991853545
20
115.7213074544
11
-588.9213442068
21
115.9093655398
62
254
0
LINE
8
Modules
10
-641.2522882971
20
113.9076773396
11
-641.3355278983
21
110.6224288401
62
254
0
LINE
8
Modules
10
-641.3355278983
20
110.6224288401
11
-633.9133690460
21
110.4343707547
62
254
0
LINE
8
Modules
10
-633.9133690460
20
110.4343707547
11
-633.8301294448
21
113.7196192542
62
254
0
LINE
8
Modules
10
-633.8301294448
20
113.7196192542
11
-641.2522882971
21
113.9076773396
62
254
0
LINE
8
Modules
10
-633.7884761450
20
113.7185638685
11
-633.8717157462
21
110.4333153690
62
254
0
LINE
8
Modules
10
-633.8717157462
20
110.4333153690
11
-626.4495568938
21
110.2452572836
62
254
0
LINE
8
Modules
10
-626.4495568938
20
110.2452572836
11
-626.3663172926
21
113.5305057831
62
254
0
LINE
8
Modules
10
-626.3663172926
20
113.5305057831
11
-633.7884761450
21
113.7185638685
62
254
0
LINE
8
Modules
10
-626.3246639929
20
113.5294503975
11
-626.4079035941
21
110.2442018980
62
254
0
LINE
8
Modules
10
-626.4079035941
20
110.2442018980
11
-618.9857447417
21
110.0561438126
62
254
0
LINE
8
Modules
10
-618.9857447417
20
110.0561438126
11
-618.9025051405
21
113.3413923121
62
254
0
LINE
8
Modules
10
-618.9025051405
20
113.3413923121
11
-626.3246639929
21
113.5294503975
62
254
0
LINE
8
Modules
10
-618.8608518407
20
113.3403369265
11
-618.9440914419
21
110.0550884269
62
254
0
LINE
8
Modules
10
-618.9440914419
20
110.0550884269
11
-611.5219325896
21
109.8670303415
62
254
0
LINE
8
Modules
10
-611.5219325896
20
109.8670303415
11
-611.4386929884
21
113.1522788410
62
254
0
LINE
8
Modules
10
-611.4386929884
20
113.1522788410
11
-618.8608518407
21
113.3403369265
62
254
0
LINE
8
Modules
10
-611.3970396886
20
113.1512234554
11
-611.4802792898
21
109.8659749559
62
254
0
LINE
8
Modules
10
-611.4802792898
20
109.8659749559
11
-604.0581204375
21
109.6779168705
62
254
0
LINE
8
Modules
10
-604.0581204375
20
109.6779168705
11
-603.9748808363
21
112.9631653700
62
254
0
LINE
8
Modules
10
-603.9748808363
20
112.9631653700
11
-611.3970396886
21
113.1512234554
62
254
0
LINE
8
Modules
10
-603.9332275365
20
112.9621099844
11
-604.0164671377
21
109.6768614848
62
254
0
LINE
8
Modules
10
-604.0164671377
20
109.6768614848
11
-596.5943082854
21
109.4888033994
62
254
0
LINE
8
Modules
10
-596.5943082854
20
109.4888033994
11
-596.5110686842
21
112.7740518989
62
254
0
LINE
8
Modules
10
-596.5110686842
20
112.7740518989
11
-603.9332275365
21
112.9621099844
62
254
0
LINE
8
Modules
10
-596.4694153844
20
112.7729965133
11
-596.5526549856
21
109.4877480138
62
254
0
LINE
8
Modules
10
-596.5526549856
20
109.4877480138
11
-589.1304961332
21
109.2996899284
62
254
0
LINE
8
Modules
10
-589.1304961332
20
109.2996899284
11
-589.0472565320
21
112.5849384279
62
254
0
LINE
8
Modules
10
-589.0472565320
20
112.5849384279
11
-596.4694153844
21
112.7729965133
62
254
0
LINE
8
Modules
10
-589.0056032322
20
112.5838830423
11
-589.0888428334
21
109.2986345428
62
254
0
LINE
8
Modules
10
-589.0888428334
20
109.2986345428
11
-581.6666839811
21
109.1105764573
62
254
0
LINE
8
Modules
10
-581.6666839811
20
109.1105764573
11
-581.5834443799
21
112.3958249569
62
254
0
LINE
8
Modules
10
-581.5834443799
20
112.3958249569
11
-589.0056032322
21
112.5838830423
62
254
0
LINE
8
Modules
10
-701.6023777726
20
105.6782596184
11
-701.7292696062
21
102.3944074601
62
254
0
LINE
8
Modules
10
-701.7292696062
20
102.3944074601
11
-694.3102654213
21
102.1077285845
62
254
0
LINE
8
Modules
10
-694.3102654213
20
102.1077285845
11
-694.1833735877
21
105.3915807428
62
254
0
LINE
8
Modules
10
-694.1833735877
20
105.3915807428
11
-701.6023777726
21
105.6782596184
62
254
0
LINE
8
Modules
10
-694.1417379920
20
105.3899718953
11
-694.2686298256
21
102.1061197371
62
254
0
LINE
8
Modules
10
-694.2686298256
20
102.1061197371
11
-686.8496256407
21
101.8194408615
62
254
0
LINE
8
Modules
10
-686.8496256407
20
101.8194408615
11
-686.7227338071
21
105.1032930197
62
254
0
LINE
8
Modules
10
-686.7227338071
20
105.1032930197
11
-694.1417379920
21
105.3899718953
62
254
0
LINE
8
Modules
10
-686.6810982114
20
105.1016841723
11
-686.8079900450
21
101.8178320140
62
254
0
LINE
8
Modules
10
-686.8079900450
20
101.8178320140
11
-679.3889858601
21
101.5311531384
62
254
0
LINE
8
Modules
10
-679.3889858601
20
101.5311531384
11
-679.2620940265
21
104.8150052967
62
254
0
LINE
8
Modules
10
-679.2620940265
20
104.8150052967
11
-686.6810982114
21
105.1016841723
62
254
0
LINE
8
Modules
10
-679.2204584308
20
104.8133964493
11
-679.3473502644
21
101.5295442910
62
254
0
LINE
8
Modules
10
-679.3473502644
20
101.5295442910
11
-671.9283460795
21
101.2428654154
62
254
0
LINE
8
Modules
10
-671.9283460795
20
101.2428654154
11
-671.8014542459
21
104.5267175737
62
254
0
LINE
8
Modules
10
-671.8014542459
20
104.5267175737
11
-679.2204584308
21
104.8133964493
62
254
0
LINE
8
Modules
10
-671.7598186502
20
104.5251087263
11
-671.8867104838
21
101.2412565680
62
254
0
LINE
8
Modules
10
-671.8867104838
20
101.2412565680
11
-664.4677062989
21
100.9545776924
62
254
0
LINE
8
Modules
10
-664.4677062989
20
100.9545776924
11
-664.3408144653
21
104.2384298506
62
254
0
LINE
8
Modules
10
-664.3408144653
20
104.2384298506
11
-671.7598186502
21
104.5251087263
62
254
0
LINE
8
Modules
10
-664.2991788696
20
104.2368210032
11
-664.4260707032
21
100.9529688450
62
254
0
LINE
8
Modules
10
-664.4260707032
20
100.9529688450
11
-657.0070665183
21
100.6662899693
62
254
0
LINE
8
Modules
10
-657.0070665183
20
100.6662899693
11
-656.8801746847
21
103.9501421276
62
254
0
LINE
8
Modules
10
-656.8801746847
20
103.9501421276
11
-664.2991788696
21
104.2368210032
62
254
0
LINE
8
Modules
10
-656.8385390890
20
103.9485332802
11
-656.9654309226
21
100.6646811219
62
254
0
LINE
8
Modules
10
-656.9654309226
20
100.6646811219
11
-649.5464267377
21
100.3780022463
62
254
0
LINE
8
Modules
10
-649.5464267377
20
100.3780022463
11
-649.4195349041
21
103.6618544046
62
254
0
LINE
8
Modules
10
-649.4195349041
20
103.6618544046
11
-656.8385390890
21
103.9485332802
62
254
0
LINE
8
Modules
10
-649.3778993084
20
103.6602455572
11
-649.5047911420
21
100.3763933989
62
254
0
LINE
8
Modules
10
-649.5047911420
20
100.3763933989
11
-642.0857869571
21
100.0897145233
62
254
0
LINE
8
Modules
10
-642.0857869571
20
100.0897145233
11
-641.9588951235
21
103.3735666816
62
254
0
LINE
8
Modules
10
-641.9588951235
20
103.3735666816
11
-649.3778993084
21
103.6602455572
62
254
0
LINE
8
Modules
10
-701.7308236334
20
102.3541905629
11
-701.8577154670
21
99.0703384046
62
254
0
LINE
8
Modules
10
-701.8577154670
20
99.0703384046
11
-694.4387112822
21
98.7836595290
62
254
0
LINE
8
Modules
10
-694.4387112822
20
98.7836595290
11
-694.3118194486
21
102.0675116873
62
254
0
LINE
8
Modules
10
-694.3118194486
20
102.0675116873
11
-701.7308236334
21
102.3541905629
62
254
0
LINE
8
Modules
10
-694.2701838528
20
102.0659028399
11
-694.3970756864
21
98.7820506816
62
254
0
LINE
8
Modules
10
-694.3970756864
20
98.7820506816
11
-686.9780715016
21
98.4953718060
62
254
0
LINE
8
Modules
10
-686.9780715016
20
98.4953718060
11
-686.8511796680
21
101.7792239643
62
254
0
LINE
8
Modules
10
-686.8511796680
20
101.7792239643
11
-694.2701838528
21
102.0659028399
62
254
0
LINE
8
Modules
10
-686.8095440722
20
101.7776151168
11
-686.9364359058
21
98.4937629586
62
254
0
LINE
8
Modules
10
-686.9364359058
20
98.4937629586
11
-679.5174317210
21
98.2070840830
62
254
0
LINE
8
Modules
10
-679.5174317210
20
98.2070840830
11
-679.3905398874
21
101.4909362412
62
254
0
LINE
8
Modules
10
-679.3905398874
20
101.4909362412
11
-686.8095440722
21
101.7776151168
62
254
0
LINE
8
Modules
10
-679.3489042916
20
101.4893273938
11
-679.4757961252
21
98.2054752355
62
254
0
LINE
8
Modules
10
-679.4757961252
20
98.2054752355
11
-672.0567919404
21
97.9187963599
62
254
0
LINE
8
Modules
10
-672.0567919404
20
97.9187963599
11
-671.9299001068
21
101.2026485182
62
254
0
LINE
8
Modules
10
-671.9299001068
20
101.2026485182
11
-679.3489042916
21
101.4893273938
62
254
0
LINE
8
Modules
10
-671.8882645110
20
101.2010396708
11
-672.0151563446
21
97.9171875125
62
254
0
LINE
8
Modules
10
-672.0151563446
20
97.9171875125
11
-664.5961521598
21
97.6305086369
62
254
0
LINE
8
Modules
10
-664.5961521598
20
97.6305086369
11
-664.4692603262
21
100.9143607952
62
254
0
LINE
8
Modules
10
-664.4692603262
20
100.9143607952
11
-671.8882645110
21
101.2010396708
62
254
0
LINE
8
Modules
10
-664.4276247304
20
100.9127519477
11
-664.5545165640
21
97.6288997895
62
254
0
LINE
8
Modules
10
-664.5545165640
20
97.6288997895
11
-657.1355123792
21
97.3422209139
62
254
0
LINE
8
Modules
10
-657.1355123792
20
97.3422209139
11
-657.0086205456
21
100.6260730721
62
254
0
LINE
8
Modules
10
-657.0086205456
20
100.6260730721
11
-664.4276247304
21
100.9127519477
62
254
0
LINE
8
Modules
10
-656.9669849498
20
100.6244642247
11
-657.0938767834
21
97.3406120664
62
254
0
LINE
8
Modules
10
-657.0938767834
20
97.3406120664
11
-649.6748725986
21
97.0539331908
62
254
0
LINE
8
Modules
10
-649.6748725986
20
97.0539331908
11
-649.5479807650
21
100.3377853491
62
254
0
LINE
8
Modules
10
-649.5479807650
20
100.3377853491
11
-656.9669849498
21
100.6244642247
62
254
0
LINE
8
Modules
10
-649.5063451692
20
100.3361765017
11
-649.6332370028
21
97.0523243434
62
254
0
LINE
8
Modules
10
-649.6332370028
20
97.0523243434
11
-642.2142328180
21
96.7656454678
62
254
0
LINE
8
Modules
10
-642.2142328180
20
96.7656454678
11
-642.0873409844
21
100.0494976261
62
254
0
LINE
8
Modules
10
-642.0873409844
20
100.0494976261
11
-649.5063451692
21
100.3361765017
62
254
0
LINE
8
Modules
10
-701.8592694943
20
99.0301215074
11
-701.9861613279
21
95.7462693491
62
254
0
LINE
8
Modules
10
-701.9861613279
20
95.7462693491
11
-694.5671571430
21
95.4595904735
62
254
0
LINE
8
Modules
10
-694.5671571430
20
95.4595904735
11
-694.4402653094
21
98.7434426318
62
254
0
LINE
8
Modules
10
-694.4402653094
20
98.7434426318
11
-701.8592694943
21
99.0301215074
62
254
0
LINE
8
Modules
10
-694.3986297137
20
98.7418337844
11
-694.5255215473
21
95.4579816261
62
254
0
LINE
8
Modules
10
-694.5255215473
20
95.4579816261
11
-687.1065173624
21
95.1713027505
62
254
0
LINE
8
Modules
10
-687.1065173624
20
95.1713027505
11
-686.9796255288
21
98.4551549088
62
254
0
LINE
8
Modules
10
-686.9796255288
20
98.4551549088
11
-694.3986297137
21
98.7418337844
62
254
0
LINE
8
Modules
10
-686.9379899331
20
98.4535460614
11
-687.0648817667
21
95.1696939031
62
254
0
LINE
8
Modules
10
-687.0648817667
20
95.1696939031
11
-679.6458775818
21
94.8830150275
62
254
0
LINE
8
Modules
10
-679.6458775818
20
94.8830150275
11
-679.5189857482
21
98.1668671857
62
254
0
LINE
8
Modules
10
-679.5189857482
20
98.1668671857
11
-686.9379899331
21
98.4535460614
62
254
0
LINE
8
Modules
10
-679.4773501525
20
98.1652583383
11
-679.6042419861
21
94.8814061801
62
254
0
LINE
8
Modules
10
-679.6042419861
20
94.8814061801
11
-672.1852378012
21
94.5947273044
62
254
0
LINE
8
Modules
10
-672.1852378012
20
94.5947273044
11
-672.0583459676
21
97.8785794627
62
254
0
LINE
8
Modules
10
-672.0583459676
20
97.8785794627
11
-679.4773501525
21
98.1652583383
62
254
0
LINE
8
Modules
10
-672.0167103719
20
97.8769706153
11
-672.1436022055
21
94.5931184570
62
254
0
LINE
8
Modules
10
-672.1436022055
20
94.5931184570
11
-664.7245980206
21
94.3064395814
62
254
0
LINE
8
Modules
10
-664.7245980206
20
94.3064395814
11
-664.5977061870
21
97.5902917397
62
254
0
LINE
8
Modules
10
-664.5977061870
20
97.5902917397
11
-672.0167103719
21
97.8769706153
62
254
0
LINE
8
Modules
10
-664.5560705913
20
97.5886828923
11
-664.6829624249
21
94.3048307340
62
254
0
LINE
8
Modules
10
-664.6829624249
20
94.3048307340
11
-657.2639582400
21
94.0181518584
62
254
0
LINE
8
Modules
10
-657.2639582400
20
94.0181518584
11
-657.1370664064
21
97.3020040166
62
254
0
LINE
8
Modules
10
-657.1370664064
20
97.3020040166
11
-664.5560705913
21
97.5886828923
62
254
0
LINE
8
Modules
10
-657.0954308107
20
97.3003951692
11
-657.2223226443
21
94.0165430110
62
254
0
LINE
8
Modules
10
-657.2223226443
20
94.0165430110
11
-649.8033184594
21
93.7298641353
62
254
0
LINE
8
Modules
10
-649.8033184594
20
93.7298641353
11
-649.6764266258
21
97.0137162936
62
254
0
LINE
8
Modules
10
-649.6764266258
20
97.0137162936
11
-657.0954308107
21
97.3003951692
62
254
0
LINE
8
Modules
10
-649.6347910301
20
97.0121074462
11
-649.7616828637
21
93.7282552879
62
254
0
LINE
8
Modules
10
-649.7616828637
20
93.7282552879
11
-642.3426786788
21
93.4415764123
62
254
0
LINE
8
Modules
10
-642.3426786788
20
93.4415764123
11
-642.2157868452
21
96.7254285706
62
254
0
LINE
8
Modules
10
-642.2157868452
20
96.7254285706
11
-649.6347910301
21
97.0121074462
62
254
0
LINE
8
Modules
10
-701.9877153552
20
95.7060524519
11
-702.1146071887
21
92.4222002937
62
254
0
LINE
8
Modules
10
-702.1146071887
20
92.4222002937
11
-694.6956030039
21
92.1355214181
62
254
0
LINE
8
Modules
10
-694.6956030039
20
92.1355214181
11
-694.5687111703
21
95.4193735763
62
254
0
LINE
8
Modules
10
-694.5687111703
20
95.4193735763
11
-701.9877153552
21
95.7060524519
62
254
0
LINE
8
Modules
10
-694.5270755746
20
95.4177647289
11
-694.6539674081
21
92.1339125706
62
254
0
LINE
8
Modules
10
-694.6539674081
20
92.1339125706
11
-687.2349632233
21
91.8472336950
62
254
0
LINE
8
Modules
10
-687.2349632233
20
91.8472336950
11
-687.1080713897
21
95.1310858533
62
254
0
LINE
8
Modules
10
-687.1080713897
20
95.1310858533
11
-694.5270755746
21
95.4177647289
62
254
0
LINE
8
Modules
10
-687.0664357940
20
95.1294770059
11
-687.1933276275
21
91.8456248476
62
254
0
LINE
8
Modules
10
-687.1933276275
20
91.8456248476
11
-679.7743234427
21
91.5589459720
62
254
0
LINE
8
Modules
10
-679.7743234427
20
91.5589459720
11
-679.6474316091
21
94.8427981303
62
254
0
LINE
8
Modules
10
-679.6474316091
20
94.8427981303
11
-687.0664357940
21
95.1294770059
62
254
0
LINE
8
Modules
10
-679.6057960134
20
94.8411892828
11
-679.7326878469
21
91.5573371246
62
254
0
LINE
8
Modules
10
-679.7326878469
20
91.5573371246
11
-672.3136836621
21
91.2706582490
62
254
0
LINE
8
Modules
10
-672.3136836621
20
91.2706582490
11
-672.1867918285
21
94.5545104072
62
254
0
LINE
8
Modules
10
-672.1867918285
20
94.5545104072
11
-679.6057960134
21
94.8411892828
62
254
0
LINE
8
Modules
10
-672.1451562328
20
94.5529015598
11
-672.2720480663
21
91.2690494015
62
254
0
LINE
8
Modules
10
-672.2720480663
20
91.2690494015
11
-664.8530438815
21
90.9823705259
62
254
0
LINE
8
Modules
10
-664.8530438815
20
90.9823705259
11
-664.7261520479
21
94.2662226842
62
254
0
LINE
8
Modules
10
-664.7261520479
20
94.2662226842
11
-672.1451562328
21
94.5529015598
62
254
0
LINE
8
Modules
10
-664.6845164522
20
94.2646138368
11
-664.8114082857
21
90.9807616785
62
254
0
LINE
8
Modules
10
-664.8114082857
20
90.9807616785
11
-657.3924041009
21
90.6940828029
62
254
0
LINE
8
Modules
10
-657.3924041009
20
90.6940828029
11
-657.2655122673
21
93.9779349612
62
254
0
LINE
8
Modules
10
-657.2655122673
20
93.9779349612
11
-664.6845164522
21
94.2646138368
62
254
0
LINE
8
Modules
10
-657.2238766716
20
93.9763261137
11
-657.3507685051
21
90.6924739555
62
254
0
LINE
8
Modules
10
-657.3507685051
20
90.6924739555
11
-649.9317643203
21
90.4057950799
62
254
0
LINE
8
Modules
10
-649.9317643203
20
90.4057950799
11
-649.8048724867
21
93.6896472381
62
254
0
LINE
8
Modules
10
-649.8048724867
20
93.6896472381
11
-657.2238766716
21
93.9763261137
62
254
0
LINE
8
Modules
10
-649.7632368910
20
93.6880383907
11
-649.8901287245
21
90.4041862324
62
254
0
LINE
8
Modules
10
-649.8901287245
20
90.4041862324
11
-642.4711245397
21
90.1175073568
62
254
0
LINE
8
Modules
10
-642.4711245397
20
90.1175073568
11
-642.3442327061
21
93.4013595151
62
254
0
LINE
8
Modules
10
-642.3442327061
20
93.4013595151
11
-649.7632368910
21
93.6880383907
62
254
0
LINE
8
Modules
10
-702.1161612160
20
92.3819833964
11
-702.2430530496
21
89.0981312382
62
254
0
LINE
8
Modules
10
-702.2430530496
20
89.0981312382
11
-694.8240488647
21
88.8114523626
62
254
0
LINE
8
Modules
10
-694.8240488647
20
88.8114523626
11
-694.6971570312
21
92.0953045208
62
254
0
LINE
8
Modules
10
-694.6971570312
20
92.0953045208
11
-702.1161612160
21
92.3819833964
62
254
0
LINE
8
Modules
10
-694.6555214354
20
92.0936956734
11
-694.7824132690
21
88.8098435151
62
254
0
LINE
8
Modules
10
-694.7824132690
20
88.8098435151
11
-687.3634090841
21
88.5231646395
62
254
0
LINE
8
Modules
10
-687.3634090841
20
88.5231646395
11
-687.2365172506
21
91.8070167978
62
254
0
LINE
8
Modules
10
-687.2365172506
20
91.8070167978
11
-694.6555214354
21
92.0936956734
62
254
0
LINE
8
Modules
10
-687.1948816548
20
91.8054079504
11
-687.3217734884
21
88.5215557921
62
254
0
LINE
8
Modules
10
-687.3217734884
20
88.5215557921
11
-679.9027693035
21
88.2348769165
62
254
0
LINE
8
Modules
10
-679.9027693035
20
88.2348769165
11
-679.7758774700
21
91.5187290748
62
254
0
LINE
8
Modules
10
-679.7758774700
20
91.5187290748
11
-687.1948816548
21
91.8054079504
62
254
0
LINE
8
Modules
10
-679.7342418742
20
91.5171202274
11
-679.8611337078
21
88.2332680691
62
254
0
LINE
8
Modules
10
-679.8611337078
20
88.2332680691
11
-672.4421295229
21
87.9465891935
62
254
0
LINE
8
Modules
10
-672.4421295229
20
87.9465891935
11
-672.3152376894
21
91.2304413517
62
254
0
LINE
8
Modules
10
-672.3152376894
20
91.2304413517
11
-679.7342418742
21
91.5171202274
62
254
0
LINE
8
Modules
10
-672.2736020936
20
91.2288325043
11
-672.4004939272
21
87.9449803461
62
254
0
LINE
8
Modules
10
-672.4004939272
20
87.9449803461
11
-664.9814897423
21
87.6583014704
62
254
0
LINE
8
Modules
10
-664.9814897423
20
87.6583014704
11
-664.8545979088
21
90.9421536287
62
254
0
LINE
8
Modules
10
-664.8545979088
20
90.9421536287
11
-672.2736020936
21
91.2288325043
62
254
0
LINE
8
Modules
10
-664.8129623130
20
90.9405447813
11
-664.9398541466
21
87.6566926230
62
254
0
LINE
8
Modules
10
-664.9398541466
20
87.6566926230
11
-657.5208499617
21
87.3700137474
62
254
0
LINE
8
Modules
10
-657.5208499617
20
87.3700137474
11
-657.3939581282
21
90.6538659057
62
254
0
LINE
8
Modules
10
-657.3939581282
20
90.6538659057
11
-664.8129623130
21
90.9405447813
62
254
0
LINE
8
Modules
10
-657.3523225324
20
90.6522570583
11
-657.4792143660
21
87.3684049000
62
254
0
LINE
8
Modules
10
-657.4792143660
20
87.3684049000
11
-650.0602101811
21
87.0817260244
62
254
0
LINE
8
Modules
10
-650.0602101811
20
87.0817260244
11
-649.9333183476
21
90.3655781827
62
254
0
LINE
8
Modules
10
-649.9333183476
20
90.3655781827
11
-657.3523225324
21
90.6522570583
62
254
0
LINE
8
Modules
10
-649.8916827518
20
90.3639693352
11
-650.0185745854
21
87.0801171770
62
254
0
LINE
8
Modules
10
-650.0185745854
20
87.0801171770
11
-642.5995704005
21
86.7934383014
62
254
0
LINE
8
Modules
10
-642.5995704005
20
86.7934383014
11
-642.4726785670
21
90.0772904596
62
254
0
LINE
8
Modules
10
-642.4726785670
20
90.0772904596
11
-649.8916827518
21
90.3639693352
62
254
0
LINE
8
Modules
10
-640.5342554295
20
103.7662990913
11
-640.6499699954
21
100.4820340785
62
254
0
LINE
8
Modules
10
-640.6499699954
20
100.4820340785
11
-633.2300330739
21
100.2206073127
62
254
0
LINE
8
Modules
10
-633.2300330739
20
100.2206073127
11
-633.1143185080
21
103.5048723255
62
254
0
LINE
8
Modules
10
-633.1143185080
20
103.5048723255
11
-640.5342554295
21
103.7662990913
62
254
0
LINE
8
Modules
10
-633.0726776777
20
103.5034051934
11
-633.1883922436
21
100.2191401806
62
254
0
LINE
8
Modules
10
-633.1883922436
20
100.2191401806
11
-625.7684553222
21
99.9577134148
62
254
0
LINE
8
Modules
10
-625.7684553222
20
99.9577134148
11
-625.6527407562
21
103.2419784276
62
254
0
LINE
8
Modules
10
-625.6527407562
20
103.2419784276
11
-633.0726776777
21
103.5034051934
62
254
0
LINE
8
Modules
10
-625.6110999259
20
103.2405112955
11
-625.7268144919
21
99.9562462828
62
254
0
LINE
8
Modules
10
-625.7268144919
20
99.9562462828
11
-618.3068775704
21
99.6948195170
62
254
0
LINE
8
Modules
10
-618.3068775704
20
99.6948195170
11
-618.1911630044
21
102.9790845297
62
254
0
LINE
8
Modules
10
-618.1911630044
20
102.9790845297
11
-625.6110999259
21
103.2405112955
62
254
0
LINE
8
Modules
10
-618.1495221742
20
102.9776173976
11
-618.2652367401
21
99.6933523849
62
254
0
LINE
8
Modules
10
-618.2652367401
20
99.6933523849
11
-610.8452998186
21
99.4319256191
62
254
0
LINE
8
Modules
10
-610.8452998186
20
99.4319256191
11
-610.7295852527
21
102.7161906319
62
254
0
LINE
8
Modules
10
-610.7295852527
20
102.7161906319
11
-618.1495221742
21
102.9776173976
62
254
0
LINE
8
Modules
10
-610.6879444224
20
102.7147234998
11
-610.8036589884
21
99.4304584870
62
254
0
LINE
8
Modules
10
-610.8036589884
20
99.4304584870
11
-603.3837220669
21
99.1690317212
62
254
0
LINE
8
Modules
10
-603.3837220669
20
99.1690317212
11
-603.2680075009
21
102.4532967340
62
254
0
LINE
8
Modules
10
-603.2680075009
20
102.4532967340
11
-610.6879444224
21
102.7147234998
62
254
0
LINE
8
Modules
10
-603.2263666707
20
102.4518296019
11
-603.3420812366
21
99.1675645891
62
254
0
LINE
8
Modules
10
-603.3420812366
20
99.1675645891
11
-595.9221443151
21
98.9061378234
62
254
0
LINE
8
Modules
10
-595.9221443151
20
98.9061378234
11
-595.8064297492
21
102.1904028361
62
254
0
LINE
8
Modules
10
-595.8064297492
20
102.1904028361
11
-603.2263666707
21
102.4518296019
62
254
0
LINE
8
Modules
10
-595.7647889189
20
102.1889357040
11
-595.8805034848
21
98.9046706913
62
254
0
LINE
8
Modules
10
-595.8805034848
20
98.9046706913
11
-588.4605665634
21
98.6432439255
62
254
0
LINE
8
Modules
10
-588.4605665634
20
98.6432439255
11
-588.3448519974
21
101.9275089383
62
254
0
LINE
8
Modules
10
-588.3448519974
20
101.9275089383
11
-595.7647889189
21
102.1889357040
62
254
0
LINE
8
Modules
10
-588.3032111671
20
101.9260418062
11
-588.4189257331
21
98.6417767934
62
254
0
LINE
8
Modules
10
-588.4189257331
20
98.6417767934
11
-580.9989888116
21
98.3803500276
62
254
0
LINE
8
Modules
10
-580.9989888116
20
98.3803500276
11
-580.8832742456
21
101.6646150404
62
254
0
LINE
8
Modules
10
-580.8832742456
20
101.6646150404
11
-588.3032111671
21
101.9260418062
62
254
0
LINE
8
Modules
10
-640.6513871362
20
100.4418121251
11
-640.7671017021
21
97.1575471123
62
254
0
LINE
8
Modules
10
-640.7671017021
20
97.1575471123
11
-633.3471647806
21
96.8961203466
62
254
0
LINE
8
Modules
10
-633.3471647806
20
96.8961203466
11
-633.2314502147
21
100.1803853593
62
254
0
LINE
8
Modules
10
-633.2314502147
20
100.1803853593
11
-640.6513871362
21
100.4418121251
62
254
0
LINE
8
Modules
10
-633.1898093844
20
100.1789182272
11
-633.3055239504
21
96.8946532145
62
254
0
LINE
8
Modules
10
-633.3055239504
20
96.8946532145
11
-625.8855870289
21
96.6332264487
62
254
0
LINE
8
Modules
10
-625.8855870289
20
96.6332264487
11
-625.7698724629
21
99.9174914615
62
254
0
LINE
8
Modules
10
-625.7698724629
20
99.9174914615
11
-633.1898093844
21
100.1789182272
62
254
0
LINE
8
Modules
10
-625.7282316327
20
99.9160243294
11
-625.8439461986
21
96.6317593166
62
254
0
LINE
8
Modules
10
-625.8439461986
20
96.6317593166
11
-618.4240092771
21
96.3703325508
62
254
0
LINE
8
Modules
10
-618.4240092771
20
96.3703325508
11
-618.3082947112
21
99.6545975636
62
254
0
LINE
8
Modules
10
-618.3082947112
20
99.6545975636
11
-625.7282316327
21
99.9160243294
62
254
0
LINE
8
Modules
10
-618.2666538809
20
99.6531304315
11
-618.3823684469
21
96.3688654187
62
254
0
LINE
8
Modules
10
-618.3823684469
20
96.3688654187
11
-610.9624315254
21
96.1074386530
62
254
0
LINE
8
Modules
10
-610.9624315254
20
96.1074386530
11
-610.8467169594
21
99.3917036657
62
254
0
LINE
8
Modules
10
-610.8467169594
20
99.3917036657
11
-618.2666538809
21
99.6531304315
62
254
0
LINE
8
Modules
10
-610.8050761291
20
99.3902365336
11
-610.9207906951
21
96.1059715209
62
254
0
LINE
8
Modules
10
-610.9207906951
20
96.1059715209
11
-603.5008537736
21
95.8445447551
62
254
0
LINE
8
Modules
10
-603.5008537736
20
95.8445447551
11
-603.3851392077
21
99.1288097679
62
254
0
LINE
8
Modules
10
-603.3851392077
20
99.1288097679
11
-610.8050761291
21
99.3902365336
62
254
0
LINE
8
Modules
10
-603.3434983774
20
99.1273426358
11
-603.4592129433
21
95.8430776230
62
254
0
LINE
8
Modules
10
-603.4592129433
20
95.8430776230
11
-596.0392760218
21
95.5816508572
62
254
0
LINE
8
Modules
10
-596.0392760218
20
95.5816508572
11
-595.9235614559
21
98.8659158700
62
254
0
LINE
8
Modules
10
-595.9235614559
20
98.8659158700
11
-603.3434983774
21
99.1273426358
62
254
0
LINE
8
Modules
10
-595.8819206256
20
98.8644487379
11
-595.9976351916
21
95.5801837251
62
254
0
LINE
8
Modules
10
-595.9976351916
20
95.5801837251
11
-588.5776982701
21
95.3187569594
62
254
0
LINE
8
Modules
10
-588.5776982701
20
95.3187569594
11
-588.4619837041
21
98.6030219721
62
254
0
LINE
8
Modules
10
-588.4619837041
20
98.6030219721
11
-595.8819206256
21
98.8644487379
62
254
0
LINE
8
Modules
10
-588.4203428739
20
98.6015548400
11
-588.5360574398
21
95.3172898273
62
254
0
LINE
8
Modules
10
-588.5360574398
20
95.3172898273
11
-581.1161205183
21
95.0558630615
62
254
0
LINE
8
Modules
10
-581.1161205183
20
95.0558630615
11
-581.0004059524
21
98.3401280742
62
254
0
LINE
8
Modules
10
-581.0004059524
20
98.3401280742
11
-588.4203428739
21
98.6015548400
62
254
0
LINE
8
Modules
10
-640.7685188429
20
97.1173251590
11
-640.8842334089
21
93.8330601462
62
254
0
LINE
8
Modules
10
-640.8842334089
20
93.8330601462
11
-633.4642964874
21
93.5716333804
62
254
0
LINE
8
Modules
10
-633.4642964874
20
93.5716333804
11
-633.3485819214
21
96.8558983932
62
254
0
LINE
8
Modules
10
-633.3485819214
20
96.8558983932
11
-640.7685188429
21
97.1173251590
62
254
0
LINE
8
Modules
10
-633.3069410912
20
96.8544312611
11
-633.4226556571
21
93.5701662483
62
254
0
LINE
8
Modules
10
-633.4226556571
20
93.5701662483
11
-626.0027187356
21
93.3087394826
62
254
0
LINE
8
Modules
10
-626.0027187356
20
93.3087394826
11
-625.8870041697
21
96.5930044953
62
254
0
LINE
8
Modules
10
-625.8870041697
20
96.5930044953
11
-633.3069410912
21
96.8544312611
62
254
0
LINE
8
Modules
10
-625.8453633394
20
96.5915373632
11
-625.9610779053
21
93.3072723505
62
254
0
LINE
8
Modules
10
-625.9610779053
20
93.3072723505
11
-618.5411409839
21
93.0458455847
62
254
0
LINE
8
Modules
10
-618.5411409839
20
93.0458455847
11
-618.4254264179
21
96.3301105974
62
254
0
LINE
8
Modules
10
-618.4254264179
20
96.3301105974
11
-625.8453633394
21
96.5915373632
62
254
0
LINE
8
Modules
10
-618.3837855876
20
96.3286434654
11
-618.4995001536
21
93.0443784526
62
254
0
LINE
8
Modules
10
-618.4995001536
20
93.0443784526
11
-611.0795632321
21
92.7829516868
62
254
0
LINE
8
Modules
10
-611.0795632321
20
92.7829516868
11
-610.9638486661
21
96.0672166996
62
254
0
LINE
8
Modules
10
-610.9638486661
20
96.0672166996
11
-618.3837855876
21
96.3286434654
62
254
0
LINE
8
Modules
10
-610.9222078359
20
96.0657495675
11
-611.0379224018
21
92.7814845547
62
254
0
LINE
8
Modules
10
-611.0379224018
20
92.7814845547
11
-603.6179854803
21
92.5200577889
62
254
0
LINE
8
Modules
10
-603.6179854803
20
92.5200577889
11
-603.5022709144
21
95.8043228017
62
254
0
LINE
8
Modules
10
-603.5022709144
20
95.8043228017
11
-610.9222078359
21
96.0657495675
62
254
0
LINE
8
Modules
10
-603.4606300841
20
95.8028556696
11
-603.5763446501
21
92.5185906569
62
254
0
LINE
8
Modules
10
-603.5763446501
20
92.5185906569
11
-596.1564077286
21
92.2571638911
62
254
0
LINE
8
Modules
10
-596.1564077286
20
92.2571638911
11
-596.0406931626
21
95.5414289038
62
254
0
LINE
8
Modules
10
-596.0406931626
20
95.5414289038
11
-603.4606300841
21
95.8028556696
62
254
0
LINE
8
Modules
10
-595.9990523324
20
95.5399617717
11
-596.1147668983
21
92.2556967590
62
254
0
LINE
8
Modules
10
-596.1147668983
20
92.2556967590
11
-588.6948299768
21
91.9942699932
62
254
0
LINE
8
Modules
10
-588.6948299768
20
91.9942699932
11
-588.5791154109
21
95.2785350060
62
254
0
LINE
8
Modules
10
-588.5791154109
20
95.2785350060
11
-595.9990523324
21
95.5399617717
62
254
0
LINE
8
Modules
10
-588.5374745806
20
95.2770678739
11
-588.6531891465
21
91.9928028611
62
254
0
LINE
8
Modules
10
-588.6531891465
20
91.9928028611
11
-581.2332522250
21
91.7313760953
62
254
0
LINE
8
Modules
10
-581.2332522250
20
91.7313760953
11
-581.1175376591
21
95.0156411081
62
254
0
LINE
8
Modules
10
-581.1175376591
20
95.0156411081
11
-588.5374745806
21
95.2770678739
62
254
0
LINE
8
Modules
10
-640.8856505496
20
93.7928381928
11
-641.0013651156
21
90.5085731801
62
254
0
LINE
8
Modules
10
-641.0013651156
20
90.5085731801
11
-633.5814281941
21
90.2471464143
62
254
0
LINE
8
Modules
10
-633.5814281941
20
90.2471464143
11
-633.4657136282
21
93.5314114270
62
254
0
LINE
8
Modules
10
-633.4657136282
20
93.5314114270
11
-640.8856505496
21
93.7928381928
62
254
0
LINE
8
Modules
10
-633.4240727979
20
93.5299442949
11
-633.5397873638
21
90.2456792822
62
254
0
LINE
8
Modules
10
-633.5397873638
20
90.2456792822
11
-626.1198504423
21
89.9842525164
62
254
0
LINE
8
Modules
10
-626.1198504423
20
89.9842525164
11
-626.0041358764
21
93.2685175292
62
254
0
LINE
8
Modules
10
-626.0041358764
20
93.2685175292
11
-633.4240727979
21
93.5299442949
62
254
0
LINE
8
Modules
10
-625.9624950461
20
93.2670503971
11
-626.0782096121
21
89.9827853843
62
254
0
LINE
8
Modules
10
-626.0782096121
20
89.9827853843
11
-618.6582726906
21
89.7213586185
62
254
0
LINE
8
Modules
10
-618.6582726906
20
89.7213586185
11
-618.5425581246
21
93.0056236313
62
254
0
LINE
8
Modules
10
-618.5425581246
20
93.0056236313
11
-625.9624950461
21
93.2670503971
62
254
0
LINE
8
Modules
10
-618.5009172944
20
93.0041564992
11
-618.6166318603
21
89.7198914864
62
254
0
LINE
8
Modules
10
-618.6166318603
20
89.7198914864
11
-611.1966949388
21
89.4584647207
62
254
0
LINE
8
Modules
10
-611.1966949388
20
89.4584647207
11
-611.0809803729
21
92.7427297334
62
254
0
LINE
8
Modules
10
-611.0809803729
20
92.7427297334
11
-618.5009172944
21
93.0041564992
62
254
0
LINE
8
Modules
10
-611.0393395426
20
92.7412626013
11
-611.1550541086
21
89.4569975886
62
254
0
LINE
8
Modules
10
-611.1550541086
20
89.4569975886
11
-603.7351171871
21
89.1955708228
62
254
0
LINE
8
Modules
10
-603.7351171871
20
89.1955708228
11
-603.6194026211
21
92.4798358356
62
254
0
LINE
8
Modules
10
-603.6194026211
20
92.4798358356
11
-611.0393395426
21
92.7412626013
62
254
0
LINE
8
Modules
10
-603.5777617908
20
92.4783687035
11
-603.6934763568
21
89.1941036907
62
254
0
LINE
8
Modules
10
-603.6934763568
20
89.1941036907
11
-596.2735394353
21
88.9326769249
62
254
0
LINE
8
Modules
10
-596.2735394353
20
88.9326769249
11
-596.1578248694
21
92.2169419377
62
254
0
LINE
8
Modules
10
-596.1578248694
20
92.2169419377
11
-603.5777617908
21
92.4783687035
62
254
0
LINE
8
Modules
10
-596.1161840391
20
92.2154748056
11
-596.2318986050
21
88.9312097928
62
254
0
LINE
8
Modules
10
-596.2318986050
20
88.9312097928
11
-588.8119616835
21
88.6697830271
62
254
0
LINE
8
Modules
10
-588.8119616835
20
88.6697830271
11
-588.6962471176
21
91.9540480398
62
254
0
LINE
8
Modules
10
-588.6962471176
20
91.9540480398
11
-596.1161840391
21
92.2154748056
62
254
0
LINE
8
Modules
10
-588.6546062873
20
91.9525809077
11
-588.7703208533
21
88.6683158950
62
254
0
LINE
8
Modules
10
-588.7703208533
20
88.6683158950
11
-581.3503839318
21
88.4068891292
62
254
0
LINE
8
Modules
10
-581.3503839318
20
88.4068891292
11
-581.2346693658
21
91.6911541420
62
254
0
LINE
8
Modules
10
-581.2346693658
20
91.6911541420
11
-588.6546062873
21
91.9525809077
62
254
0
LINE
8
Modules
10
-641.0027822564
20
90.4683512267
11
-641.1184968223
21
87.1840862139
62
254
0
LINE
8
Modules
10
-641.1184968223
20
87.1840862139
11
-633.6985599008
21
86.9226594481
62
254
0
LINE
8
Modules
10
-633.6985599008
20
86.9226594481
11
-633.5828453349
21
90.2069244609
62
254
0
LINE
8
Modules
10
-633.5828453349
20
90.2069244609
11
-641.0027822564
21
90.4683512267
62
254
0
LINE
8
Modules
10
-633.5412045046
20
90.2054573288
11
-633.6569190706
21
86.9211923160
62
254
0
LINE
8
Modules
10
-633.6569190706
20
86.9211923160
11
-626.2369821491
21
86.6597655503
62
254
0
LINE
8
Modules
10
-626.2369821491
20
86.6597655503
11
-626.1212675831
21
89.9440305630
62
254
0
LINE
8
Modules
10
-626.1212675831
20
89.9440305630
11
-633.5412045046
21
90.2054573288
62
254
0
LINE
8
Modules
10
-626.0796267529
20
89.9425634309
11
-626.1953413188
21
86.6582984182
62
254
0
LINE
8
Modules
10
-626.1953413188
20
86.6582984182
11
-618.7754043973
21
86.3968716524
62
254
0
LINE
8
Modules
10
-618.7754043973
20
86.3968716524
11
-618.6596898314
21
89.6811366652
62
254
0
LINE
8
Modules
10
-618.6596898314
20
89.6811366652
11
-626.0796267529
21
89.9425634309
62
254
0
LINE
8
Modules
10
-618.6180490011
20
89.6796695331
11
-618.7337635670
21
86.3954045203
62
254
0
LINE
8
Modules
10
-618.7337635670
20
86.3954045203
11
-611.3138266455
21
86.1339777545
62
254
0
LINE
8
Modules
10
-611.3138266455
20
86.1339777545
11
-611.1981120796
21
89.4182427673
62
254
0
LINE
8
Modules
10
-611.1981120796
20
89.4182427673
11
-618.6180490011
21
89.6796695331
62
254
0
LINE
8
Modules
10
-611.1564712493
20
89.4167756352
11
-611.2721858153
21
86.1325106224
62
254
0
LINE
8
Modules
10
-611.2721858153
20
86.1325106224
11
-603.8522488938
21
85.8710838567
62
254
0
LINE
8
Modules
10
-603.8522488938
20
85.8710838567
11
-603.7365343278
21
89.1553488694
62
254
0
LINE
8
Modules
10
-603.7365343278
20
89.1553488694
11
-611.1564712493
21
89.4167756352
62
254
0
LINE
8
Modules
10
-603.6948934976
20
89.1538817373
11
-603.8106080635
21
85.8696167246
62
254
0
LINE
8
Modules
10
-603.8106080635
20
85.8696167246
11
-596.3906711420
21
85.6081899588
62
254
0
LINE
8
Modules
10
-596.3906711420
20
85.6081899588
11
-596.2749565761
21
88.8924549715
62
254
0
LINE
8
Modules
10
-596.2749565761
20
88.8924549715
11
-603.6948934976
21
89.1538817373
62
254
0
LINE
8
Modules
10
-596.2333157458
20
88.8909878395
11
-596.3490303118
21
85.6067228267
62
254
0
LINE
8
Modules
10
-596.3490303118
20
85.6067228267
11
-588.9290933903
21
85.3452960609
62
254
0
LINE
8
Modules
10
-588.9290933903
20
85.3452960609
11
-588.8133788243
21
88.6295610737
62
254
0
LINE
8
Modules
10
-588.8133788243
20
88.6295610737
11
-596.2333157458
21
88.8909878395
62
254
0
LINE
8
Modules
10
-588.7717379940
20
88.6280939416
11
-588.8874525600
21
85.3438289288
62
254
0
LINE
8
Modules
10
-588.8874525600
20
85.3438289288
11
-581.4675156385
21
85.0824021630
62
254
0
LINE
8
Modules
10
-581.4675156385
20
85.0824021630
11
-581.3518010726
21
88.3666671758
62
254
0
LINE
8
Modules
10
-581.3518010726
20
88.3666671758
11
-588.7717379940
21
88.6280939416
62
254
0
LINE
8
Inverters
10
-682.8646065314
20
136.6992166499
11
-685.3244771705
21
136.6380902558
0
LINE
8
Inverters
10
-685.3244771705
20
136.6380902558
11
-685.2633507765
21
134.1782196168
0
LINE
8
Inverters
10
-685.2633507765
20
134.1782196168
11
-682.8034801374
21
134.2393460108
0
LINE
8
Inverters
10
-682.8034801374
20
134.2393460108
11
-682.8646065314
21
136.6992166499
0
LINE
8
Inverters
10
-682.8646065314
20
136.6992166499
11
-685.2633507765
21
134.1782196168
0
TEXT
8
Inverters
100
AcDbText
10
-682.9902920338
20
135.1536226231
1
DC
7
NewTextStyle_4
40
0.7545932000000003
50
-178.5765252345
0
TEXT
8
Inverters
100
AcDbText
10
-683.8608788317
20
136.5103672070
1
AC
7
NewTextStyle_4
40
0.7545932000000003
50
-178.5765252345
0
LINE
8
Inverters
10
-657.6506308532
20
137.1411345903
11
-660.1105014922
21
137.0800081963
0
LINE
8
Inverters
10
-660.1105014922
20
137.0800081963
11
-660.0493750982
21
134.6201375572
0
LINE
8
Inverters
10
-660.0493750982
20
134.6201375572
11
-657.5895044592
21
134.6812639512
0
LINE
8
Inverters
10
-657.5895044592
20
134.6812639512
11
-657.6506308532
21
137.1411345903
0
LINE
8
Inverters
10
-657.6506308532
20
137.1411345903
11
-660.0493750982
21
134.6201375572
0
TEXT
8
Inverters
100
AcDbText
10
-657.7763163555
20
135.5955405635
1
DC
7
NewTextStyle_4
40
0.7545932000000003
50
-178.5765252345
0
TEXT
8
Inverters
100
AcDbText
10
-658.6469031535
20
136.9522851474
1
AC
7
NewTextStyle_4
40
0.7545932000000003
50
-178.5765252345
0
LINE
8
Inverters
10
-614.3006938382
20
136.5385192167
11
-616.7605644773
21
136.4773928227
0
LINE
8
Inverters
10
-616.7605644773
20
136.4773928227
11
-616.6994380833
21
134.0175221837
0
LINE
8
Inverters
10
-616.6994380833
20
134.0175221837
11
-614.2395674442
21
134.0786485777
0
LINE
8
Inverters
10
-614.2395674442
20
134.0786485777
11
-614.3006938382
21
136.5385192167
0
LINE
8
Inverters
10
-614.3006938382
20
136.5385192167
11
-616.6994380833
21
134.0175221837
0
TEXT
8
Inverters
100
AcDbText
10
-614.4263793406
20
134.9929251900
1
DC
7
NewTextStyle_4
40
0.7545932000000003
50
-178.5765252345
0
TEXT
8
Inverters
100
AcDbText
10
-615.2969661385
20
136.3496697739
1
AC
7
NewTextStyle_4
40
0.7545932000000003
50
-178.5765252345
0
LINE
8
Inverters
10
-588.0134127044
20
135.8409462692
11
-590.4732833434
21
135.7798198752
0
LINE
8
Inverters
10
-590.4732833434
20
135.7798198752
11
-590.4121569494
21
133.3199492361
0
LINE
8
Inverters
10
-590.4121569494
20
133.3199492361
11
-587.9522863104
21
133.3810756302
0
LINE
8
Inverters
10
-587.9522863104
20
133.3810756302
11
-588.0134127044
21
135.8409462692
0
LINE
8
Inverters
10
-588.0134127044
20
135.8409462692
11
-590.4121569494
21
133.3199492361
0
TEXT
8
Inverters
100
AcDbText
10
-588.1390982067
20
134.2953522425
1
DC
7
NewTextStyle_4
40
0.7545932000000003
50
-178.5765252345
0
TEXT
8
Inverters
100
AcDbText
10
-589.0096850047
20
135.6520968264
1
AC
7
NewTextStyle_4
40
0.7545932000000003
50
-178.5765252345
0
LINE
8
Inverters
10
-587.8219582187
20
86.8757080527
11
-590.2818288578
21
86.8145816586
0
LINE
8
Inverters
10
-590.2818288578
20
86.8145816586
11
-590.2207024638
21
84.3547110196
0
LINE
8
Inverters
10
-590.2207024638
20
84.3547110196
11
-587.7608318247
21
84.4158374136
0
LINE
8
Inverters
10
-587.7608318247
20
84.4158374136
11
-587.8219582187
21
86.8757080527
0
LINE
8
Inverters
10
-587.8219582187
20
86.8757080527
11
-590.2207024638
21
84.3547110196
0
TEXT
8
Inverters
100
AcDbText
10
-587.9476437211
20
85.3301140259
1
DC
7
NewTextStyle_4
40
0.7545932000000003
50
-178.5765252345
0
TEXT
8
Inverters
100
AcDbText
10
-588.8182305190
20
86.6868586098
1
AC
7
NewTextStyle_4
40
0.7545932000000003
50
-178.5765252345
0
LINE
8
Inverters
10
-616.7315856480
20
89.3299961179
11
-619.1914562871
21
89.2688697238
0
LINE
8
Inverters
10
-619.1914562871
20
89.2688697238
11
-619.1303298930
21
86.8089990848
0
LINE
8
Inverters
10
-619.1303298930
20
86.8089990848
11
-616.6704592540
21
86.8701254788
0
LINE
8
Inverters
10
-616.6704592540
20
86.8701254788
11
-616.7315856480
21
89.3299961179
0
LINE
8
Inverters
10
-616.7315856480
20
89.3299961179
11
-619.1303298930
21
86.8089990848
0
TEXT
8
Inverters
100
AcDbText
10
-616.8572711504
20
87.7844020911
1
DC
7
NewTextStyle_4
40
0.7545932000000003
50
-178.5765252345
0
TEXT
8
Inverters
100
AcDbText
10
-617.7278579483
20
89.1411466750
1
AC
7
NewTextStyle_4
40
0.7545932000000003
50
-178.5765252345
0
LINE
8
Inverters
10
-648.8234187027
20
89.2094730437
11
-651.2832893418
21
89.1483466496
0
LINE
8
Inverters
10
-651.2832893418
20
89.1483466496
11
-651.2221629477
21
86.6884760106
0
LINE
8
Inverters
10
-651.2221629477
20
86.6884760106
11
-648.7622923087
21
86.7496024046
0
LINE
8
Inverters
10
-648.7622923087
20
86.7496024046
11
-648.8234187027
21
89.2094730437
0
LINE
8
Inverters
10
-648.8234187027
20
89.2094730437
11
-651.2221629477
21
86.6884760106
0
TEXT
8
Inverters
100
AcDbText
10
-648.9491042051
20
87.6638790169
1
DC
7
NewTextStyle_4
40
0.7545932000000003
50
-178.5765252345
0
TEXT
8
Inverters
100
AcDbText
10
-649.8196910030
20
89.0206236008
1
AC
7
NewTextStyle_4
40
0.7545932000000003
50
-178.5765252345
0
LINE
8
Inverters
10
-679.5054505432
20
87.8946758664
11
-681.9653211822
21
87.8335494724
0
LINE
8
Inverters
10
-681.9653211822
20
87.8335494724
11
-681.9041947882
21
85.3736788334
0
LINE
8
Inverters
10
-681.9041947882
20
85.3736788334
11
-679.4443241491
21
85.4348052274
0
LINE
8
Inverters
10
-679.4443241491
20
85.4348052274
11
-679.5054505432
21
87.8946758664
0
LINE
8
Inverters
10
-679.5054505432
20
87.8946758664
11
-681.9041947882
21
85.3736788334
0
TEXT
8
Inverters
100
AcDbText
10
-679.6311360455
20
86.3490818397
1
DC
7
NewTextStyle_4
40
0.7545932000000003
50
-178.5765252345
0
TEXT
8
Inverters
100
AcDbText
10
-680.5017228434
20
87.7058264236
1
AC
7
NewTextStyle_4
40
0.7545932000000003
50
-178.5765252345
0
LINE
8
Strings
10
-699.0003574713
20
128.8235802330
11
-699.1439109490
21
125.5001293422
62
11
0
LINE
8
Strings
10
-699.1439109490
20
125.5001293422
11
-699.2874644267
21
122.1766784514
62
11
0
LINE
8
Strings
10
-699.2874644267
20
122.1766784514
11
-699.4310179043
21
118.8532275605
62
11
0
LINE
8
Strings
10
-699.4310179043
20
118.8532275605
11
-699.5745713820
21
115.5297766697
62
11
0
LINE
8
Strings
10
-699.5745713820
20
115.5297766697
11
-692.1153190286
21
115.2075809607
62
11
0
LINE
8
Strings
10
-692.1153190286
20
115.2075809607
11
-691.9717655509
21
118.5310318515
62
11
0
LINE
8
Strings
10
-691.9717655509
20
118.5310318515
11
-691.8282120732
21
121.8544827423
62
11
0
LINE
8
Strings
10
-691.8282120732
20
121.8544827423
11
-691.6846585955
21
125.1779336332
62
11
0
LINE
8
Strings
10
-691.6846585955
20
125.1779336332
11
-691.5411051179
21
128.5013845240
62
11
0
LINE
8
Strings
10
-684.0818527644
20
128.1791888150
11
-684.2254062421
21
124.8557379242
62
11
0
LINE
8
Strings
10
-684.2254062421
20
124.8557379242
11
-684.3689597198
21
121.5322870333
62
11
0
LINE
8
Strings
10
-684.3689597198
20
121.5322870333
11
-684.5125131975
21
118.2088361425
62
11
0
LINE
8
Strings
10
-684.5125131975
20
118.2088361425
11
-684.6560666751
21
114.8853852516
62
11
0
LINE
8
Strings
10
-684.6560666751
20
114.8853852516
11
-677.1968143217
21
114.5631895426
62
11
0
LINE
8
Strings
10
-677.1968143217
20
114.5631895426
11
-677.0532608440
21
117.8866404335
62
11
0
LINE
8
Strings
10
-677.0532608440
20
117.8866404335
11
-676.9097073664
21
121.2100913243
62
11
0
LINE
8
Strings
10
-676.9097073664
20
121.2100913243
11
-676.7661538887
21
124.5335422151
62
11
0
LINE
8
Strings
10
-676.7661538887
20
124.5335422151
11
-676.6226004110
21
127.8569931060
62
11
0
LINE
8
Strings
10
-669.1633480576
20
127.5347973970
11
-669.3069015352
21
124.2113465061
62
11
0
LINE
8
Strings
10
-669.3069015352
20
124.2113465061
11
-669.4504550129
21
120.8878956153
62
11
0
LINE
8
Strings
10
-669.4504550129
20
120.8878956153
11
-669.5940084906
21
117.5644447244
62
11
0
LINE
8
Strings
10
-669.5940084906
20
117.5644447244
11
-669.7375619683
21
114.2409938336
62
11
0
LINE
8
Strings
10
-669.7375619683
20
114.2409938336
11
-662.2783096148
21
113.9187981246
62
11
0
LINE
8
Strings
10
-662.2783096148
20
113.9187981246
11
-662.1347561372
21
117.2422490154
62
11
0
LINE
8
Strings
10
-662.1347561372
20
117.2422490154
11
-661.9912026595
21
120.5656999062
62
11
0
LINE
8
Strings
10
-661.9912026595
20
120.5656999062
11
-661.8476491818
21
123.8891507971
62
11
0
LINE
8
Strings
10
-661.8476491818
20
123.8891507971
11
-661.7040957041
21
127.2126016879
62
11
0
LINE
8
Strings
10
-646.7855909973
20
126.5682102699
11
-646.9291444749
21
123.2447593790
62
11
0
LINE
8
Strings
10
-646.9291444749
20
123.2447593790
11
-647.0726979526
21
119.9213084882
62
11
0
LINE
8
Strings
10
-647.0726979526
20
119.9213084882
11
-647.2162514303
21
116.5978575974
62
11
0
LINE
8
Strings
10
-647.2162514303
20
116.5978575974
11
-647.3598049080
21
113.2744067065
62
11
0
LINE
8
Strings
10
-647.3598049080
20
113.2744067065
11
-654.8190572614
21
113.5966024155
62
11
0
LINE
8
Strings
10
-654.8190572614
20
113.5966024155
11
-654.6755037837
21
116.9200533064
62
11
0
LINE
8
Strings
10
-654.6755037837
20
116.9200533064
11
-654.3883968284
21
123.5669550881
62
11
0
LINE
8
Strings
10
-654.3883968284
20
123.5669550881
11
-654.2448433507
21
126.8904059789
62
11
0
LINE
8
Strings
10
-637.2457925698
20
125.4729540373
11
-637.3300515952
21
122.1474715397
62
11
0
LINE
8
Strings
10
-637.3300515952
20
122.1474715397
11
-637.4143106206
21
118.8219890422
62
11
0
LINE
8
Strings
10
-637.4143106206
20
118.8219890422
11
-637.4985696461
21
115.4965065447
62
11
0
LINE
8
Strings
10
-637.4985696461
20
115.4965065447
11
-637.5828286715
21
112.1710240471
62
11
0
LINE
8
Strings
10
-637.5828286715
20
112.1710240471
11
-630.1190165194
21
111.9819105761
62
11
0
LINE
8
Strings
10
-630.1190165194
20
111.9819105761
11
-630.0347574940
21
115.3073930736
62
11
0
LINE
8
Strings
10
-630.0347574940
20
115.3073930736
11
-629.9504984685
21
118.6328755712
62
11
0
LINE
8
Strings
10
-629.9504984685
20
118.6328755712
11
-629.8662394431
21
121.9583580687
62
11
0
LINE
8
Strings
10
-629.8662394431
20
121.9583580687
11
-629.7819804176
21
125.2838405662
62
11
0
LINE
8
Strings
10
-614.8543561134
20
124.9056136241
11
-614.9386151388
21
121.5801311266
62
11
0
LINE
8
Strings
10
-614.9386151388
20
121.5801311266
11
-615.0228741643
21
118.2546486291
62
11
0
LINE
8
Strings
10
-615.0228741643
20
118.2546486291
11
-615.1071331897
21
114.9291661315
62
11
0
LINE
8
Strings
10
-615.1071331897
20
114.9291661315
11
-615.1913922152
21
111.6036836340
62
11
0
LINE
8
Strings
10
-615.1913922152
20
111.6036836340
11
-622.6552043673
21
111.7927971050
62
11
0
LINE
8
Strings
10
-622.6552043673
20
111.7927971050
11
-622.5709453418
21
115.1182796026
62
11
0
LINE
8
Strings
10
-622.5709453418
20
115.1182796026
11
-622.4866863164
21
118.4437621001
62
11
0
LINE
8
Strings
10
-622.4866863164
20
118.4437621001
11
-622.4024272910
21
121.7692445976
62
11
0
LINE
8
Strings
10
-622.4024272910
20
121.7692445976
11
-622.3181682655
21
125.0947270952
62
11
0
LINE
8
Strings
10
-607.3905439613
20
124.7165001531
11
-607.4748029867
21
121.3910176556
62
11
0
LINE
8
Strings
10
-607.4748029867
20
121.3910176556
11
-607.5590620122
21
118.0655351580
62
11
0
LINE
8
Strings
10
-607.5590620122
20
118.0655351580
11
-607.7275800630
21
111.4145701629
62
11
0
LINE
8
Strings
10
-607.7275800630
20
111.4145701629
11
-600.2637679109
21
111.2254566919
62
11
0
LINE
8
Strings
10
-600.2637679109
20
111.2254566919
11
-600.1795088855
21
114.5509391894
62
11
0
LINE
8
Strings
10
-600.1795088855
20
114.5509391894
11
-600.0952498600
21
117.8764216870
62
11
0
LINE
8
Strings
10
-600.0952498600
20
117.8764216870
11
-600.0109908346
21
121.2019041845
62
11
0
LINE
8
Strings
10
-600.0109908346
20
121.2019041845
11
-599.9267318092
21
124.5273866820
62
11
0
LINE
8
Strings
10
-584.9991075049
20
124.1491597400
11
-585.0833665303
21
120.8236772424
62
11
0
LINE
8
Strings
10
-585.0833665303
20
120.8236772424
11
-585.1676255558
21
117.4981947449
62
11
0
LINE
8
Strings
10
-585.1676255558
20
117.4981947449
11
-585.2518845812
21
114.1727122473
62
11
0
LINE
8
Strings
10
-585.2518845812
20
114.1727122473
11
-585.3361436067
21
110.8472297498
62
11
0
LINE
8
Strings
10
-585.3361436067
20
110.8472297498
11
-592.7999557588
21
111.0363432208
62
11
0
LINE
8
Strings
10
-592.7999557588
20
111.0363432208
11
-592.7156967334
21
114.3618257184
62
11
0
LINE
8
Strings
10
-592.7156967334
20
114.3618257184
11
-592.6314377079
21
117.6873082159
62
11
0
LINE
8
Strings
10
-592.6314377079
20
117.6873082159
11
-592.5471786825
21
121.0127907135
62
11
0
LINE
8
Strings
10
-592.5471786825
20
121.0127907135
11
-592.4629196570
21
124.3382732110
62
11
0
LINE
8
Strings
10
-585.1196268163
20
86.8552480523
11
-585.0024951095
21
90.1797350185
62
11
0
LINE
8
Strings
10
-585.0024951095
20
90.1797350185
11
-584.8853634028
21
93.5042219846
62
11
0
LINE
8
Strings
10
-584.8853634028
20
93.5042219846
11
-584.7682316961
21
96.8287089508
62
11
0
LINE
8
Strings
10
-584.7682316961
20
96.8287089508
11
-584.6510999894
21
100.1531959169
62
11
0
LINE
8
Strings
10
-584.6510999894
20
100.1531959169
11
-592.1126777411
21
100.4160898148
62
11
0
LINE
8
Strings
10
-592.1126777411
20
100.4160898148
11
-592.2298094479
21
97.0916028486
62
11
0
LINE
8
Strings
10
-592.2298094479
20
97.0916028486
11
-592.3469411546
21
93.7671158825
62
11
0
LINE
8
Strings
10
-592.3469411546
20
93.7671158825
11
-592.4640728613
21
90.4426289163
62
11
0
LINE
8
Strings
10
-592.4640728613
20
90.4426289163
11
-592.5812045680
21
87.1181419502
62
11
0
LINE
8
Strings
10
-600.0427823198
20
87.3810358481
11
-599.9256506131
21
90.7055228142
62
11
0
LINE
8
Strings
10
-599.9256506131
20
90.7055228142
11
-599.8085189063
21
94.0300097803
62
11
0
LINE
8
Strings
10
-599.8085189063
20
94.0300097803
11
-599.6913871996
21
97.3544967465
62
11
0
LINE
8
Strings
10
-599.6913871996
20
97.3544967465
11
-599.5742554929
21
100.6789837126
62
11
0
LINE
8
Strings
10
-599.5742554929
20
100.6789837126
11
-607.0358332446
21
100.9418776105
62
11
0
LINE
8
Strings
10
-607.0358332446
20
100.9418776105
11
-607.1529649514
21
97.6173906444
62
11
0
LINE
8
Strings
10
-607.1529649514
20
97.6173906444
11
-607.2700966581
21
94.2929036782
62
11
0
LINE
8
Strings
10
-607.2700966581
20
94.2929036782
11
-607.3872283648
21
90.9684167121
62
11
0
LINE
8
Strings
10
-607.3872283648
20
90.9684167121
11
-607.5043600716
21
87.6439297459
62
11
0
LINE
8
Strings
10
-614.9659378233
20
87.9068236438
11
-614.8488061166
21
91.2313106099
62
11
0
LINE
8
Strings
10
-614.8488061166
20
91.2313106099
11
-614.7316744099
21
94.5557975761
62
11
0
LINE
8
Strings
10
-614.7316744099
20
94.5557975761
11
-614.6145427031
21
97.8802845422
62
11
0
LINE
8
Strings
10
-614.6145427031
20
97.8802845422
11
-614.4974109964
21
101.2047715084
62
11
0
LINE
8
Strings
10
-614.4974109964
20
101.2047715084
11
-621.9589887482
21
101.4676654062
62
11
0
LINE
8
Strings
10
-621.9589887482
20
101.4676654062
11
-622.0761204549
21
98.1431784401
62
11
0
LINE
8
Strings
10
-622.0761204549
20
98.1431784401
11
-622.1932521616
21
94.8186914740
62
11
0
LINE
8
Strings
10
-622.1932521616
20
94.8186914740
11
-622.3103838684
21
91.4942045078
62
11
0
LINE
8
Strings
10
-622.3103838684
20
91.4942045078
11
-622.4275155751
21
88.1697175417
62
11
0
LINE
8
Strings
10
-637.3506710786
20
88.6955053374
11
-637.2335393719
21
92.0199923035
62
11
0
LINE
8
Strings
10
-637.2335393719
20
92.0199923035
11
-636.9992759584
21
98.6689662358
62
11
0
LINE
8
Strings
10
-636.9992759584
20
98.6689662358
11
-636.8821442517
21
101.9934532020
62
11
0
LINE
8
Strings
10
-636.8821442517
20
101.9934532020
11
-629.4205664999
21
101.7305593041
62
11
0
LINE
8
Strings
10
-629.4205664999
20
101.7305593041
11
-629.5376982067
21
98.4060723380
62
11
0
LINE
8
Strings
10
-629.5376982067
20
98.4060723380
11
-629.6548299134
21
95.0815853718
62
11
0
LINE
8
Strings
10
-629.6548299134
20
95.0815853718
11
-629.7719616201
21
91.7570984057
62
11
0
LINE
8
Strings
10
-629.7719616201
20
91.7570984057
11
-629.8890933268
21
88.4326114395
62
11
0
LINE
8
Strings
10
-646.2456265762
20
88.5787038183
11
-646.1171807153
21
91.9027728738
62
11
0
LINE
8
Strings
10
-646.1171807153
20
91.9027728738
11
-645.9887348545
21
95.2268419293
62
11
0
LINE
8
Strings
10
-645.9887348545
20
95.2268419293
11
-645.8602889936
21
98.5509109847
62
11
0
LINE
8
Strings
10
-645.8602889936
20
98.5509109847
11
-645.7318431327
21
101.8749800402
62
11
0
LINE
8
Strings
10
-645.7318431327
20
101.8749800402
11
-653.1924829133
21
102.1632677633
62
11
0
LINE
8
Strings
10
-653.1924829133
20
102.1632677633
11
-653.3209287742
21
98.8391987078
62
11
0
LINE
8
Strings
10
-653.3209287742
20
98.8391987078
11
-653.4493746351
21
95.5151296523
62
11
0
LINE
8
Strings
10
-653.4493746351
20
95.5151296523
11
-653.5778204959
21
92.1910605968
62
11
0
LINE
8
Strings
10
-653.5778204959
20
92.1910605968
11
-653.7062663568
21
88.8669915413
62
11
0
LINE
8
Strings
10
-668.6275459180
20
89.4435669874
11
-668.4991000571
21
92.7676360429
62
11
0
LINE
8
Strings
10
-668.4991000571
20
92.7676360429
11
-668.3706541963
21
96.0917050983
62
11
0
LINE
8
Strings
10
-668.3706541963
20
96.0917050983
11
-668.2422083354
21
99.4157741538
62
11
0
LINE
8
Strings
10
-668.2422083354
20
99.4157741538
11
-668.1137624745
21
102.7398432093
62
11
0
LINE
8
Strings
10
-668.1137624745
20
102.7398432093
11
-660.6531226939
21
102.4515554863
62
11
0
LINE
8
Strings
10
-660.6531226939
20
102.4515554863
11
-660.7815685548
21
99.1274864308
62
11
0
LINE
8
Strings
10
-660.7815685548
20
99.1274864308
11
-660.9100144157
21
95.8034173753
62
11
0
LINE
8
Strings
10
-660.9100144157
20
95.8034173753
11
-661.0384602765
21
92.4793483198
62
11
0
LINE
8
Strings
10
-661.0384602765
20
92.4793483198
11
-661.1669061374
21
89.1552792644
62
11
0
LINE
8
Strings
10
-676.0881856986
20
89.7318547104
11
-675.9597398377
21
93.0559237659
62
11
0
LINE
8
Strings
10
-675.9597398377
20
93.0559237659
11
-675.8312939769
21
96.3799928214
62
11
0
LINE
8
Strings
10
-675.8312939769
20
96.3799928214
11
-675.7028481160
21
99.7040618769
62
11
0
LINE
8
Strings
10
-675.7028481160
20
99.7040618769
11
-675.5744022551
21
103.0281309323
62
11
0
LINE
8
Strings
10
-675.5744022551
20
103.0281309323
11
-683.0350420357
21
103.3164186554
62
11
0
LINE
8
Strings
10
-683.0350420357
20
103.3164186554
11
-683.1634878966
21
99.9923495999
62
11
0
LINE
8
Strings
10
-683.1634878966
20
99.9923495999
11
-683.2919337575
21
96.6682805444
62
11
0
LINE
8
Strings
10
-683.2919337575
20
96.6682805444
11
-683.4203796183
21
93.3442114889
62
11
0
LINE
8
Strings
10
-683.4203796183
20
93.3442114889
11
-683.5488254792
21
90.0201424334
62
11
0
LINE
8
Strings
10
-698.4701050404
20
90.5967178795
11
-698.2132133187
21
97.2448559905
62
11
0
LINE
8
Strings
10
-698.2132133187
20
97.2448559905
11
-698.0847674578
21
100.5689250460
62
11
0
LINE
8
Strings
10
-698.0847674578
20
100.5689250460
11
-697.9563215969
21
103.8929941014
62
11
0
LINE
8
Strings
10
-697.9563215969
20
103.8929941014
11
-690.4956818163
21
103.6047063784
62
11
0
LINE
8
Strings
10
-690.4956818163
20
103.6047063784
11
-690.7525735381
21
96.9565682674
62
11
0
LINE
8
Strings
10
-690.7525735381
20
96.9565682674
11
-690.8810193989
21
93.6324992120
62
11
0
LINE
8
Strings
10
-690.8810193989
20
93.6324992120
11
-691.0094652598
21
90.3084301565
62
11
0
LINE
8
Connections
10
-691.5411051179
20
128.5013845240
11
-691.5411051179
21
128.9935105240
62
91
0
LINE
8
Connections
10
-691.5411051179
20
128.9935105240
11
-691.0489791179
21
128.9935105240
62
91
0
LINE
8
Connections
10
-691.0489791179
20
128.9935105240
11
-684.5561046540
21
134.9465921333
62
91
0
LINE
8
Connections
10
-684.5561046540
20
134.9465921333
11
-684.5561046540
21
135.4387181333
62
91
0
LINE
8
Connections
10
-684.5561046540
20
135.4387181333
11
-684.0639786540
21
135.4387181333
62
91
0
LINE
8
Connections
10
-676.6226004110
20
127.8569931060
11
-676.6226004110
21
128.3491191060
62
91
0
LINE
8
Connections
10
-676.6226004110
20
128.3491191060
11
-677.1147264110
21
128.3491191060
62
91
0
LINE
8
Connections
10
-677.1147264110
20
128.3491191060
11
-683.5718526540
21
134.9465921333
62
91
0
LINE
8
Connections
10
-683.5718526540
20
134.9465921333
11
-683.5718526540
21
135.4387181333
62
91
0
LINE
8
Connections
10
-683.5718526540
20
135.4387181333
11
-684.0639786540
21
135.4387181333
62
91
0
LINE
8
Connections
10
-661.7040957041
20
127.2126016879
11
-661.7040957041
21
127.7047276879
62
91
0
LINE
8
Connections
10
-661.7040957041
20
127.7047276879
11
-661.2119697041
21
127.7047276879
62
91
0
LINE
8
Connections
10
-661.2119697041
20
127.7047276879
11
-659.3421289757
21
135.3885100738
62
91
0
LINE
8
Connections
10
-659.3421289757
20
135.3885100738
11
-659.3421289757
21
135.8806360738
62
91
0
LINE
8
Connections
10
-659.3421289757
20
135.8806360738
11
-658.8500029757
21
135.8806360738
62
91
0
LINE
8
Connections
10
-654.2448433507
20
126.8904059789
11
-654.2448433507
21
127.3825319789
62
91
0
LINE
8
Connections
10
-654.2448433507
20
127.3825319789
11
-654.7369693507
21
127.3825319789
62
91
0
LINE
8
Connections
10
-654.7369693507
20
127.3825319789
11
-658.3578769757
21
135.3885100738
62
91
0
LINE
8
Connections
10
-658.3578769757
20
135.3885100738
11
-658.3578769757
21
135.8806360738
62
91
0
LINE
8
Connections
10
-658.3578769757
20
135.8806360738
11
-658.8500029757
21
135.8806360738
62
91
0
LINE
8
Connections
10
-629.7819804176
20
125.2838405662
11
-629.7819804176
21
125.7759665662
62
91
0
LINE
8
Connections
10
-629.7819804176
20
125.7759665662
11
-629.2898544176
21
125.7759665662
62
91
0
LINE
8
Connections
10
-629.2898544176
20
125.7759665662
11
-615.9921919607
21
134.7858947002
62
91
0
LINE
8
Connections
10
-615.9921919607
20
134.7858947002
11
-615.9921919607
21
135.2780207002
62
91
0
LINE
8
Connections
10
-615.9921919607
20
135.2780207002
11
-615.5000659607
21
135.2780207002
62
91
0
LINE
8
Connections
10
-622.3181682655
20
125.0947270952
11
-622.3181682655
21
125.5868530952
62
91
0
LINE
8
Connections
10
-622.3181682655
20
125.5868530952
11
-621.8260422655
21
125.5868530952
62
91
0
LINE
8
Connections
10
-621.8260422655
20
125.5868530952
11
-615.9921919607
21
134.7858947002
62
91
0
LINE
8
Connections
10
-615.9921919607
20
134.7858947002
11
-615.9921919607
21
135.2780207002
62
91
0
LINE
8
Connections
10
-615.9921919607
20
135.2780207002
11
-615.5000659607
21
135.2780207002
62
91
0
LINE
8
Connections
10
-599.9267318092
20
124.5273866820
11
-599.9267318092
21
125.0195126820
62
91
0
LINE
8
Connections
10
-599.9267318092
20
125.0195126820
11
-599.4346058092
21
125.0195126820
62
91
0
LINE
8
Connections
10
-599.4346058092
20
125.0195126820
11
-589.7049108269
21
134.0883217527
62
91
0
LINE
8
Connections
10
-589.7049108269
20
134.0883217527
11
-589.7049108269
21
134.5804477527
62
91
0
LINE
8
Connections
10
-589.7049108269
20
134.5804477527
11
-589.2127848269
21
134.5804477527
62
91
0
LINE
8
Connections
10
-592.4629196570
20
124.3382732110
11
-592.4629196570
21
124.8303992110
62
91
0
LINE
8
Connections
10
-592.4629196570
20
124.8303992110
11
-591.9707936570
21
124.8303992110
62
91
0
LINE
8
Connections
10
-591.9707936570
20
124.8303992110
11
-589.7049108269
21
134.0883217527
62
91
0
LINE
8
Connections
10
-589.7049108269
20
134.0883217527
11
-589.7049108269
21
134.5804477527
62
91
0
LINE
8
Connections
10
-589.7049108269
20
134.5804477527
11
-589.2127848269
21
134.5804477527
62
91
0
LINE
8
Connections
10
-592.5812045680
20
87.1181419502
11
-592.5812045680
21
86.6260159502
62
91
0
LINE
8
Connections
10
-592.5812045680
20
86.6260159502
11
-592.0890785680
21
86.6260159502
62
91
0
LINE
8
Connections
10
-592.0890785680
20
86.6260159502
11
-589.5134563413
21
86.1073355361
62
91
0
LINE
8
Connections
10
-589.5134563413
20
86.1073355361
11
-589.5134563413
21
85.6152095361
62
91
0
LINE
8
Connections
10
-589.5134563413
20
85.6152095361
11
-589.0213303413
21
85.6152095361
62
91
0
LINE
8
Connections
10
-607.5043600716
20
87.6439297459
11
-607.5043600716
21
87.1518037459
62
91
0
LINE
8
Connections
10
-607.5043600716
20
87.1518037459
11
-607.0122340716
21
87.1518037459
62
91
0
LINE
8
Connections
10
-607.0122340716
20
87.1518037459
11
-589.5134563413
21
86.1073355361
62
91
0
LINE
8
Connections
10
-589.5134563413
20
86.1073355361
11
-589.5134563413
21
85.6152095361
62
91
0
LINE
8
Connections
10
-589.5134563413
20
85.6152095361
11
-589.0213303413
21
85.6152095361
62
91
0
LINE
8
Connections
10
-622.4275155751
20
88.1697175417
11
-622.4275155751
21
88.6618435417
62
91
0
LINE
8
Connections
10
-622.4275155751
20
88.6618435417
11
-621.9353895751
21
88.6618435417
62
91
0
LINE
8
Connections
10
-621.9353895751
20
88.6618435417
11
-618.4230837705
21
88.5616236013
62
91
0
LINE
8
Connections
10
-618.4230837705
20
88.5616236013
11
-618.4230837705
21
88.0694976013
62
91
0
LINE
8
Connections
10
-618.4230837705
20
88.0694976013
11
-617.9309577705
21
88.0694976013
62
91
0
LINE
8
Connections
10
-629.8890933268
20
88.4326114395
11
-629.8890933268
21
88.9247374395
62
91
0
LINE
8
Connections
10
-629.8890933268
20
88.9247374395
11
-629.3969673268
21
88.9247374395
62
91
0
LINE
8
Connections
10
-629.3969673268
20
88.9247374395
11
-618.4230837705
21
88.5616236013
62
91
0
LINE
8
Connections
10
-618.4230837705
20
88.5616236013
11
-618.4230837705
21
88.0694976013
62
91
0
LINE
8
Connections
10
-618.4230837705
20
88.0694976013
11
-617.9309577705
21
88.0694976013
62
91
0
LINE
8
Connections
10
-653.7062663568
20
88.8669915413
11
-653.7062663568
21
89.3591175413
62
91
0
LINE
8
Connections
10
-653.7062663568
20
89.3591175413
11
-653.2141403568
21
89.3591175413
62
91
0
LINE
8
Connections
10
-653.2141403568
20
89.3591175413
11
-650.5149168252
21
88.4411005271
62
91
0
LINE
8
Connections
10
-650.5149168252
20
88.4411005271
11
-650.5149168252
21
87.9489745271
62
91
0
LINE
8
Connections
10
-650.5149168252
20
87.9489745271
11
-650.0227908252
21
87.9489745271
62
91
0
LINE
8
Connections
10
-661.1669061374
20
89.1552792644
11
-661.1669061374
21
88.6631532644
62
91
0
LINE
8
Connections
10
-661.1669061374
20
88.6631532644
11
-660.6747801374
21
88.6631532644
62
91
0
LINE
8
Connections
10
-660.6747801374
20
88.6631532644
11
-650.5149168252
21
88.4411005271
62
91
0
LINE
8
Connections
10
-650.5149168252
20
88.4411005271
11
-650.5149168252
21
87.9489745271
62
91
0
LINE
8
Connections
10
-650.5149168252
20
87.9489745271
11
-650.0227908252
21
87.9489745271
62
91
0
LINE
8
Connections
10
-683.5488254792
20
90.0201424334
11
-683.5488254792
21
89.5280164334
62
91
0
LINE
8
Connections
10
-683.5488254792
20
89.5280164334
11
-683.0566994792
21
89.5280164334
62
91
0
LINE
8
Connections
10
-683.0566994792
20
89.5280164334
11
-681.1969486657
21
87.1263033499
62
91
0
LINE
8
Connections
10
-681.1969486657
20
87.1263033499
11
-681.1969486657
21
86.6341773499
62
91
0
LINE
8
Connections
10
-681.1969486657
20
86.6341773499
11
-680.7048226657
21
86.6341773499
62
91
0
LINE
8
Connections
10
-691.0094652598
20
90.3084301565
11
-691.0094652598
21
89.8163041565
62
91
0
LINE
8
Connections
10
-691.0094652598
20
89.8163041565
11
-690.5173392598
21
89.8163041565
62
91
0
LINE
8
Connections
10
-690.5173392598
20
89.8163041565
11
-681.1969486657
21
87.1263033499
62
91
0
LINE
8
Connections
10
-681.1969486657
20
87.1263033499
11
-681.1969486657
21
86.6341773499
62
91
0
LINE
8
Connections
10
-681.1969486657
20
86.6341773499
11
-680.7048226657
21
86.6341773499
62
91
0
ENDSEC
0
EOF