999
Design created by Aurora
0
SECTION
2
HEADER
9
$ACADVER
1
AC1009
9
$INSUNITS
70
2
0
ENDSEC
0
SECTION
2
TABLES
0
TABLE
2
LTYPE
100
AcDbLinetypeTableRecord
2
LTYPE
0
LTYPE
2
DASHED
70
0
3
dashed line
72
65
73
2
40
4.0
49
2.0
49
-2.0
0
ENDTAB
0
TABLE
2
LAYER
70
6
0
LAYER
100
AcDbSymbolTable
100
AcDbLayerTable
2
Inverters
70
0
62
7
6
CONTINUOUS
0
LAYER
100
AcDbSymbolTable
100
AcDbLayerTable
2
Setbacks
70
0
62
7
6
CONTINUOUS
0
LAYER
100
AcDbSymbolTable
100
AcDbLayerTable
2
Connections
70
0
62
7
6
CONTINUOUS
0
LAYER
100
AcDbSymbolTable
100
AcDbLayerTable
2
Strings
70
0
62
7
6
CONTINUOUS
0
LAYER
100
AcDbSymbolTable
100
AcDbLayerTable
2
Modules
70
0
62
7
6
CONTINUOUS
0
LAYER
100
AcDbSymbolTable
100
AcDbLayerTable
2
Buildings
70
0
62
7
6
CONTINUOUS
0
ENDTAB
0
ENDSEC
0
SECTION
2
ENTITIES
0
LINE
8
Modules
10
-7.9715705889
20
20.8061488815
11
-11.2951453062
21
20.7727423866
62
254
0
LINE
8
Modules
10
-11.2951453062
20
20.7727423866
11
-11.2259631564
21
13.8898877456
62
254
0
LINE
8
Modules
10
-11.2259631564
20
13.8898877456
11
-7.9023884390
21
13.9232942406
62
254
0
LINE
8
Modules
10
-7.9023884390
20
13.9232942406
11
-7.9715705889
21
20.8061488815
62
254
0
LINE
8
Modules
10
-10.0129730686
20
17.7539806879
11
-10.0047292469
21
16.9338121177
62
254
0
LINE
8
Modules
10
-10.0047292469
20
16.9338121177
11
-9.1845606767
21
16.9420559393
62
254
0
LINE
8
Modules
10
-9.1845606767
20
16.9420559393
11
-9.1928044984
21
17.7622245095
62
254
0
LINE
8
Modules
10
-9.1928044984
20
17.7622245095
11
-10.0129730686
21
17.7539806879
62
254
0
LINE
8
Modules
10
-10.0129730686
20
17.7539806879
11
-9.1845606767
21
16.9420559393
62
254
0
TEXT
8
Modules
100
AcDbText
10
-9.5039739258
20
17.7098817431
1
DC
7
NewTextStyle_4
40
0.2624672000000003
50
-89.42411804197069
0
TEXT
8
Modules
100
AcDbText
10
-9.9604654257
20
17.4264078891
1
DC
7
NewTextStyle_4
40
0.2624672000000003
50
-89.42411804197069
0
LINE
8
Modules
10
-7.9016129787
20
13.8815504143
11
-11.2251876961
21
13.8481439193
62
254
0
LINE
8
Modules
10
-11.2251876961
20
13.8481439193
11
-11.1560055462
21
6.9652892784
62
254
0
LINE
8
Modules
10
-11.1560055462
20
6.9652892784
11
-7.8324308289
21
6.9986957734
62
254
0
LINE
8
Modules
10
-7.8324308289
20
6.9986957734
11
-7.9016129787
21
13.8815504143
62
254
0
LINE
8
Modules
10
-9.9430154584
20
10.8293822206
11
-9.9347716367
21
10.0092136505
62
254
0
LINE
8
Modules
10
-9.9347716367
20
10.0092136505
11
-9.1146030665
21
10.0174574721
62
254
0
LINE
8
Modules
10
-9.1146030665
20
10.0174574721
11
-9.1228468882
21
10.8376260423
62
254
0
LINE
8
Modules
10
-9.1228468882
20
10.8376260423
11
-9.9430154584
21
10.8293822206
62
254
0
LINE
8
Modules
10
-9.9430154584
20
10.8293822206
11
-9.1146030665
21
10.0174574721
62
254
0
TEXT
8
Modules
100
AcDbText
10
-9.4340163156
20
10.7852832758
1
DC
7
NewTextStyle_4
40
0.2624672000000003
50
-89.42411804197069
0
TEXT
8
Modules
100
AcDbText
10
-9.8905078155
20
10.5018094219
1
DC
7
NewTextStyle_4
40
0.2624672000000003
50
-89.42411804197069
0
LINE
8
Modules
10
-7.3215478076
20
-29.3606678648
11
-10.6451225249
21
-29.3940743598
62
254
0
LINE
8
Modules
10
-10.6451225249
20
-29.3940743598
11
-10.5759403750
21
-36.2769290007
62
254
0
LINE
8
Modules
10
-10.5759403750
20
-36.2769290007
11
-7.2523656577
21
-36.2435225057
62
254
0
LINE
8
Modules
10
-7.2523656577
20
-36.2435225057
11
-7.3215478076
21
-29.3606678648
62
254
0
LINE
8
Modules
10
-9.3629502872
20
-32.4128360585
11
-9.3547064656
21
-33.2330046287
62
254
0
LINE
8
Modules
10
-9.3547064656
20
-33.2330046287
11
-8.5345378954
21
-33.2247608070
62
254
0
LINE
8
Modules
10
-8.5345378954
20
-33.2247608070
11
-8.5427817170
21
-32.4045922368
62
254
0
LINE
8
Modules
10
-8.5427817170
20
-32.4045922368
11
-9.3629502872
21
-32.4128360585
62
254
0
LINE
8
Modules
10
-9.3629502872
20
-32.4128360585
11
-8.5345378954
21
-33.2247608070
62
254
0
TEXT
8
Modules
100
AcDbText
10
-8.8539511444
20
-32.4569350033
1
DC
7
NewTextStyle_4
40
0.2624672000000003
50
-89.42411804197069
0
TEXT
8
Modules
100
AcDbText
10
-9.3104426443
20
-32.7404088573
1
DC
7
NewTextStyle_4
40
0.2624672000000003
50
-89.42411804197069
0
LINE
8
Modules
10
-4.6106904802
20
20.8390188111
11
-7.9342651975
21
20.8056123161
62
254
0
LINE
8
Modules
10
-7.9342651975
20
20.8056123161
11
-7.8650830476
21
13.9227576752
62
254
0
LINE
8
Modules
10
-7.8650830476
20
13.9227576752
11
-4.5415083303
21
13.9561641702
62
254
0
LINE
8
Modules
10
-4.5415083303
20
13.9561641702
11
-4.6106904802
21
20.8390188111
62
254
0
LINE
8
Modules
10
-6.6520929598
20
17.7868506174
11
-6.6438491382
21
16.9666820472
62
254
0
LINE
8
Modules
10
-6.6438491382
20
16.9666820472
11
-5.8236805680
21
16.9749258689
62
254
0
LINE
8
Modules
10
-5.8236805680
20
16.9749258689
11
-5.8319243897
21
17.7950944391
62
254
0
LINE
8
Modules
10
-5.8319243897
20
17.7950944391
11
-6.6520929598
21
17.7868506174
62
254
0
LINE
8
Modules
10
-6.6520929598
20
17.7868506174
11
-5.8236805680
21
16.9749258689
62
254
0
TEXT
8
Modules
100
AcDbText
10
-6.1430938170
20
17.7427516726
1
DC
7
NewTextStyle_4
40
0.2624672000000003
50
-89.42411804197069
0
TEXT
8
Modules
100
AcDbText
10
-6.5995853170
20
17.4592778186
1
DC
7
NewTextStyle_4
40
0.2624672000000003
50
-89.42411804197069
0
LINE
8
Modules
10
-4.5407328700
20
13.9144203439
11
-7.8643075873
21
13.8810138489
62
254
0
LINE
8
Modules
10
-7.8643075873
20
13.8810138489
11
-7.7951254375
21
6.9981592080
62
254
0
LINE
8
Modules
10
-7.7951254375
20
6.9981592080
11
-4.4715507201
21
7.0315657030
62
254
0
LINE
8
Modules
10
-4.4715507201
20
7.0315657030
11
-4.5407328700
21
13.9144203439
62
254
0
LINE
8
Modules
10
-6.5821353496
20
10.8622521502
11
-6.5738915280
21
10.0420835800
62
254
0
LINE
8
Modules
10
-6.5738915280
20
10.0420835800
11
-5.7537229578
21
10.0503274017
62
254
0
LINE
8
Modules
10
-5.7537229578
20
10.0503274017
11
-5.7619667795
21
10.8704959718
62
254
0
LINE
8
Modules
10
-5.7619667795
20
10.8704959718
11
-6.5821353496
21
10.8622521502
62
254
0
LINE
8
Modules
10
-6.5821353496
20
10.8622521502
11
-5.7537229578
21
10.0503274017
62
254
0
TEXT
8
Modules
100
AcDbText
10
-6.0731362068
20
10.8181532054
1
DC
7
NewTextStyle_4
40
0.2624672000000003
50
-89.42411804197069
0
TEXT
8
Modules
100
AcDbText
10
-6.5296277068
20
10.5346793514
1
DC
7
NewTextStyle_4
40
0.2624672000000003
50
-89.42411804197069
0
LINE
8
Modules
10
-4.0306253090
20
-22.4031994680
11
-7.3542000263
21
-22.4366059630
62
254
0
LINE
8
Modules
10
-7.3542000263
20
-22.4366059630
11
-7.2850178765
21
-29.3194606039
62
254
0
LINE
8
Modules
10
-7.2850178765
20
-29.3194606039
11
-3.9614431592
21
-29.2860541089
62
254
0
LINE
8
Modules
10
-3.9614431592
20
-29.2860541089
11
-4.0306253090
21
-22.4031994680
62
254
0
LINE
8
Modules
10
-6.0720277887
20
-25.4553676617
11
-6.0637839670
21
-26.2755362319
62
254
0
LINE
8
Modules
10
-6.0637839670
20
-26.2755362319
11
-5.2436153968
21
-26.2672924102
62
254
0
LINE
8
Modules
10
-5.2436153968
20
-26.2672924102
11
-5.2518592185
21
-25.4471238401
62
254
0
LINE
8
Modules
10
-5.2518592185
20
-25.4471238401
11
-6.0720277887
21
-25.4553676617
62
254
0
LINE
8
Modules
10
-6.0720277887
20
-25.4553676617
11
-5.2436153968
21
-26.2672924102
62
254
0
TEXT
8
Modules
100
AcDbText
10
-5.5630286459
20
-25.4994666065
1
DC
7
NewTextStyle_4
40
0.2624672000000003
50
-89.42411804197069
0
TEXT
8
Modules
100
AcDbText
10
-6.0195201458
20
-25.7829404605
1
DC
7
NewTextStyle_4
40
0.2624672000000003
50
-89.42411804197069
0
LINE
8
Modules
10
-3.9606676988
20
-29.3277979352
11
-7.2842424162
21
-29.3612044302
62
254
0
LINE
8
Modules
10
-7.2842424162
20
-29.3612044302
11
-7.2150602663
21
-36.2440590711
62
254
0
LINE
8
Modules
10
-7.2150602663
20
-36.2440590711
11
-3.8914855490
21
-36.2106525762
62
254
0
LINE
8
Modules
10
-3.8914855490
20
-36.2106525762
11
-3.9606676988
21
-29.3277979352
62
254
0
LINE
8
Modules
10
-6.0020701785
20
-32.3799661289
11
-5.9938263568
21
-33.2001346991
62
254
0
LINE
8
Modules
10
-5.9938263568
20
-33.2001346991
11
-5.1736577867
21
-33.1918908775
62
254
0
LINE
8
Modules
10
-5.1736577867
20
-33.1918908775
11
-5.1819016083
21
-32.3717223073
62
254
0
LINE
8
Modules
10
-5.1819016083
20
-32.3717223073
11
-6.0020701785
21
-32.3799661289
62
254
0
LINE
8
Modules
10
-6.0020701785
20
-32.3799661289
11
-5.1736577867
21
-33.1918908775
62
254
0
TEXT
8
Modules
100
AcDbText
10
-5.4930710357
20
-32.4240650737
1
DC
7
NewTextStyle_4
40
0.2624672000000003
50
-89.42411804197069
0
TEXT
8
Modules
100
AcDbText
10
-5.9495625356
20
-32.7075389277
1
DC
7
NewTextStyle_4
40
0.2624672000000003
50
-89.42411804197069
0
LINE
8
Modules
10
-1.2498103673
20
20.8755409554
11
-4.5733850846
21
20.8421344604
62
254
0
LINE
8
Modules
10
-4.5733850846
20
20.8421344604
11
-4.5042029348
21
13.9592798194
62
254
0
LINE
8
Modules
10
-4.5042029348
20
13.9592798194
11
-1.1806282175
21
13.9926863144
62
254
0
LINE
8
Modules
10
-1.1806282175
20
13.9926863144
11
-1.2498103673
21
20.8755409554
62
254
0
LINE
8
Modules
10
-3.2912128470
20
17.8233727617
11
-3.2829690253
21
17.0032041915
62
254
0
LINE
8
Modules
10
-3.2829690253
20
17.0032041915
11
-2.4628004551
21
17.0114480131
62
254
0
LINE
8
Modules
10
-2.4628004551
20
17.0114480131
11
-2.4710442768
21
17.8316165833
62
254
0
LINE
8
Modules
10
-2.4710442768
20
17.8316165833
11
-3.2912128470
21
17.8233727617
62
254
0
LINE
8
Modules
10
-3.2912128470
20
17.8233727617
11
-2.4628004551
21
17.0114480131
62
254
0
TEXT
8
Modules
100
AcDbText
10
-2.7822137042
20
17.7792738169
1
DC
7
NewTextStyle_4
40
0.2624672000000003
50
-89.42411804197069
0
TEXT
8
Modules
100
AcDbText
10
-3.2387052041
20
17.4957999629
1
DC
7
NewTextStyle_4
40
0.2624672000000003
50
-89.42411804197069
0
LINE
8
Modules
10
-1.1798527613
20
13.9509424881
11
-4.5034274786
21
13.9175359931
62
254
0
LINE
8
Modules
10
-4.5034274786
20
13.9175359931
11
-4.4342453287
21
7.0346813522
62
254
0
LINE
8
Modules
10
-4.4342453287
20
7.0346813522
11
-1.1106706114
21
7.0680878472
62
254
0
LINE
8
Modules
10
-1.1106706114
20
7.0680878472
11
-1.1798527613
21
13.9509424881
62
254
0
LINE
8
Modules
10
-3.2212552409
20
10.8987742944
11
-3.2130114193
21
10.0786057243
62
254
0
LINE
8
Modules
10
-3.2130114193
20
10.0786057243
11
-2.3928428491
21
10.0868495459
62
254
0
LINE
8
Modules
10
-2.3928428491
20
10.0868495459
11
-2.4010866707
21
10.9070181161
62
254
0
LINE
8
Modules
10
-2.4010866707
20
10.9070181161
11
-3.2212552409
21
10.8987742944
62
254
0
LINE
8
Modules
10
-3.2212552409
20
10.8987742944
11
-2.3928428491
21
10.0868495459
62
254
0
TEXT
8
Modules
100
AcDbText
10
-2.7122560981
20
10.8546753497
1
DC
7
NewTextStyle_4
40
0.2624672000000003
50
-89.42411804197069
0
TEXT
8
Modules
100
AcDbText
10
-3.1687475980
20
10.5712014957
1
DC
7
NewTextStyle_4
40
0.2624672000000003
50
-89.42411804197069
0
LINE
8
Modules
10
-1.1098951511
20
7.0263440183
11
-4.4334698684
21
6.9929375233
62
254
0
LINE
8
Modules
10
-4.4334698684
20
6.9929375233
11
-4.3642877186
21
0.1100828824
62
254
0
LINE
8
Modules
10
-4.3642877186
20
0.1100828824
11
-1.0407130012
21
0.1434893774
62
254
0
LINE
8
Modules
10
-1.0407130012
20
0.1434893774
11
-1.1098951511
21
7.0263440183
62
254
0
LINE
8
Modules
10
-3.1512976307
20
3.9741758246
11
-3.1430538091
21
3.1540072544
62
254
0
LINE
8
Modules
10
-3.1430538091
20
3.1540072544
11
-2.3228852389
21
3.1622510761
62
254
0
LINE
8
Modules
10
-2.3228852389
20
3.1622510761
11
-2.3311290606
21
3.9824196463
62
254
0
LINE
8
Modules
10
-2.3311290606
20
3.9824196463
11
-3.1512976307
21
3.9741758246
62
254
0
LINE
8
Modules
10
-3.1512976307
20
3.9741758246
11
-2.3228852389
21
3.1622510761
62
254
0
TEXT
8
Modules
100
AcDbText
10
-2.6422984879
20
3.9300768798
1
DC
7
NewTextStyle_4
40
0.2624672000000003
50
-89.42411804197069
0
TEXT
8
Modules
100
AcDbText
10
-3.0987899879
20
3.6466030259
1
DC
7
NewTextStyle_4
40
0.2624672000000003
50
-89.42411804197069
0
LINE
8
Modules
10
-0.6697451962
20
-22.3666773238
11
-3.9933199135
21
-22.4000838188
62
254
0
LINE
8
Modules
10
-3.9933199135
20
-22.4000838188
11
-3.9241377636
21
-29.2829384597
62
254
0
LINE
8
Modules
10
-3.9241377636
20
-29.2829384597
11
-0.6005630463
21
-29.2495319647
62
254
0
LINE
8
Modules
10
-0.6005630463
20
-29.2495319647
11
-0.6697451962
21
-22.3666773238
62
254
0
LINE
8
Modules
10
-2.7111476758
20
-25.4188455175
11
-2.7029038541
21
-26.2390140876
62
254
0
LINE
8
Modules
10
-2.7029038541
20
-26.2390140876
11
-1.8827352840
21
-26.2307702660
62
254
0
LINE
8
Modules
10
-1.8827352840
20
-26.2307702660
11
-1.8909791056
21
-25.4106016958
62
254
0
LINE
8
Modules
10
-1.8909791056
20
-25.4106016958
11
-2.7111476758
21
-25.4188455175
62
254
0
LINE
8
Modules
10
-2.7111476758
20
-25.4188455175
11
-1.8827352840
21
-26.2307702660
62
254
0
TEXT
8
Modules
100
AcDbText
10
-2.2021485330
20
-25.4629444623
1
DC
7
NewTextStyle_4
40
0.2624672000000003
50
-89.42411804197069
0
TEXT
8
Modules
100
AcDbText
10
-2.6586400329
20
-25.7464183162
1
DC
7
NewTextStyle_4
40
0.2624672000000003
50
-89.42411804197069
0
LINE
8
Modules
10
-0.5997875901
20
-29.2912757936
11
-3.9233623074
21
-29.3246822886
62
254
0
LINE
8
Modules
10
-3.9233623074
20
-29.3246822886
11
-3.8541801576
21
-36.2075369295
62
254
0
LINE
8
Modules
10
-3.8541801576
20
-36.2075369295
11
-0.5306054402
21
-36.1741304345
62
254
0
LINE
8
Modules
10
-0.5306054402
20
-36.1741304345
11
-0.5997875901
21
-29.2912757936
62
254
0
LINE
8
Modules
10
-2.6411900698
20
-32.3434439873
11
-2.6329462481
21
-33.1636125575
62
254
0
LINE
8
Modules
10
-2.6329462481
20
-33.1636125575
11
-1.8127776779
21
-33.1553687358
62
254
0
LINE
8
Modules
10
-1.8127776779
20
-33.1553687358
11
-1.8210214996
21
-32.3352001656
62
254
0
LINE
8
Modules
10
-1.8210214996
20
-32.3352001656
11
-2.6411900698
21
-32.3434439873
62
254
0
LINE
8
Modules
10
-2.6411900698
20
-32.3434439873
11
-1.8127776779
21
-33.1553687358
62
254
0
TEXT
8
Modules
100
AcDbText
10
-2.1321909269
20
-32.3875429321
1
DC
7
NewTextStyle_4
40
0.2624672000000003
50
-89.42411804197069
0
TEXT
8
Modules
100
AcDbText
10
-2.5886824269
20
-32.6710167861
1
DC
7
NewTextStyle_4
40
0.2624672000000003
50
-89.42411804197069
0
LINE
8
Modules
10
2.1110697414
20
20.9084108849
11
-1.2125049759
21
20.8750043899
62
254
0
LINE
8
Modules
10
-1.2125049759
20
20.8750043899
11
-1.1433228261
21
13.9921497490
62
254
0
LINE
8
Modules
10
-1.1433228261
20
13.9921497490
11
2.1802518913
21
14.0255562440
62
254
0
LINE
8
Modules
10
2.1802518913
20
14.0255562440
11
2.1110697414
21
20.9084108849
62
254
0
LINE
8
Modules
10
0.0696672618
20
17.8562426912
11
0.0779110834
21
17.0360741210
62
254
0
LINE
8
Modules
10
0.0779110834
20
17.0360741210
11
0.8980796536
21
17.0443179427
62
254
0
LINE
8
Modules
10
0.8980796536
20
17.0443179427
11
0.8898358319
21
17.8644865129
62
254
0
LINE
8
Modules
10
0.8898358319
20
17.8644865129
11
0.0696672618
21
17.8562426912
62
254
0
LINE
8
Modules
10
0.0696672618
20
17.8562426912
11
0.8980796536
21
17.0443179427
62
254
0
TEXT
8
Modules
100
AcDbText
10
0.5786664046
20
17.8121437464
1
DC
7
NewTextStyle_4
40
0.2624672000000003
50
-89.42411804197069
0
TEXT
8
Modules
100
AcDbText
10
0.1221749046
20
17.5286698924
1
DC
7
NewTextStyle_4
40
0.2624672000000003
50
-89.42411804197069
0
LINE
8
Modules
10
2.1810273516
20
13.9838124177
11
-1.1425473657
21
13.9504059227
62
254
0
LINE
8
Modules
10
-1.1425473657
20
13.9504059227
11
-1.0733652159
21
7.0675512818
62
254
0
LINE
8
Modules
10
-1.0733652159
20
7.0675512818
11
2.2502095015
21
7.1009577768
62
254
0
LINE
8
Modules
10
2.2502095015
20
7.1009577768
11
2.1810273516
21
13.9838124177
62
254
0
LINE
8
Modules
10
0.1396248719
20
10.9316442240
11
0.1478686936
21
10.1114756538
62
254
0
LINE
8
Modules
10
0.1478686936
20
10.1114756538
11
0.9680372638
21
10.1197194755
62
254
0
LINE
8
Modules
10
0.9680372638
20
10.1197194755
11
0.9597934421
21
10.9398880457
62
254
0
LINE
8
Modules
10
0.9597934421
20
10.9398880457
11
0.1396248719
21
10.9316442240
62
254
0
LINE
8
Modules
10
0.1396248719
20
10.9316442240
11
0.9680372638
21
10.1197194755
62
254
0
TEXT
8
Modules
100
AcDbText
10
0.6486240148
20
10.8875452792
1
DC
7
NewTextStyle_4
40
0.2624672000000003
50
-89.42411804197069
0
TEXT
8
Modules
100
AcDbText
10
0.1921325148
20
10.6040714252
1
DC
7
NewTextStyle_4
40
0.2624672000000003
50
-89.42411804197069
0
LINE
8
Modules
10
2.2509849576
20
7.0592139479
11
-1.0725897597
21
7.0258074529
62
254
0
LINE
8
Modules
10
-1.0725897597
20
7.0258074529
11
-1.0034076098
21
0.1429528120
62
254
0
LINE
8
Modules
10
-1.0034076098
20
0.1429528120
11
2.3201671075
21
0.1763593069
62
254
0
LINE
8
Modules
10
2.3201671075
20
0.1763593069
11
2.2509849576
21
7.0592139479
62
254
0
LINE
8
Modules
10
0.2095824780
20
4.0070457542
11
0.2178262996
21
3.1868771840
62
254
0
LINE
8
Modules
10
0.2178262996
20
3.1868771840
11
1.0379948698
21
3.1951210057
62
254
0
LINE
8
Modules
10
1.0379948698
20
3.1951210057
11
1.0297510482
21
4.0152895758
62
254
0
LINE
8
Modules
10
1.0297510482
20
4.0152895758
11
0.2095824780
21
4.0070457542
62
254
0
LINE
8
Modules
10
0.2095824780
20
4.0070457542
11
1.0379948698
21
3.1951210057
62
254
0
TEXT
8
Modules
100
AcDbText
10
0.7185816208
20
3.9629468094
1
DC
7
NewTextStyle_4
40
0.2624672000000003
50
-89.42411804197069
0
TEXT
8
Modules
100
AcDbText
10
0.2620901209
20
3.6794729554
1
DC
7
NewTextStyle_4
40
0.2624672000000003
50
-89.42411804197069
0
LINE
8
Modules
10
2.6211773024
20
-15.4092089270
11
-0.7023974149
21
-15.4426154220
62
254
0
LINE
8
Modules
10
-0.7023974149
20
-15.4426154220
11
-0.6332152651
21
-22.3254700629
62
254
0
LINE
8
Modules
10
-0.6332152651
20
-22.3254700629
11
2.6903594523
21
-22.2920635679
62
254
0
LINE
8
Modules
10
2.6903594523
20
-22.2920635679
11
2.6211773024
21
-15.4092089270
62
254
0
LINE
8
Modules
10
0.5797748227
20
-18.4613771207
11
0.5880186444
21
-19.2815456909
62
254
0
LINE
8
Modules
10
0.5880186444
20
-19.2815456909
11
1.4081872146
21
-19.2733018692
62
254
0
LINE
8
Modules
10
1.4081872146
20
-19.2733018692
11
1.3999433929
21
-18.4531332990
62
254
0
LINE
8
Modules
10
1.3999433929
20
-18.4531332990
11
0.5797748227
21
-18.4613771207
62
254
0
LINE
8
Modules
10
0.5797748227
20
-18.4613771207
11
1.4081872146
21
-19.2733018692
62
254
0
TEXT
8
Modules
100
AcDbText
10
1.0887739656
20
-18.5054760655
1
DC
7
NewTextStyle_4
40
0.2624672000000003
50
-89.42411804197069
0
TEXT
8
Modules
100
AcDbText
10
0.6322824656
20
-18.7889499195
1
DC
7
NewTextStyle_4
40
0.2624672000000003
50
-89.42411804197069
0
LINE
8
Modules
10
2.6911349126
20
-22.3338073942
11
-0.6324398048
21
-22.3672138892
62
254
0
LINE
8
Modules
10
-0.6324398048
20
-22.3672138892
11
-0.5632576549
21
-29.2500685301
62
254
0
LINE
8
Modules
10
-0.5632576549
20
-29.2500685301
11
2.7603170624
21
-29.2166620351
62
254
0
LINE
8
Modules
10
2.7603170624
20
-29.2166620351
11
2.6911349126
21
-22.3338073942
62
254
0
LINE
8
Modules
10
0.6497324329
20
-25.3859755879
11
0.6579762546
21
-26.2061441581
62
254
0
LINE
8
Modules
10
0.6579762546
20
-26.2061441581
11
1.4781448248
21
-26.1979003364
62
254
0
LINE
8
Modules
10
1.4781448248
20
-26.1979003364
11
1.4699010031
21
-25.3777317663
62
254
0
LINE
8
Modules
10
1.4699010031
20
-25.3777317663
11
0.6497324329
21
-25.3859755879
62
254
0
LINE
8
Modules
10
0.6497324329
20
-25.3859755879
11
1.4781448248
21
-26.1979003364
62
254
0
TEXT
8
Modules
100
AcDbText
10
1.1587315757
20
-25.4300745327
1
DC
7
NewTextStyle_4
40
0.2624672000000003
50
-89.42411804197069
0
TEXT
8
Modules
100
AcDbText
10
0.7022400758
20
-25.7135483867
1
DC
7
NewTextStyle_4
40
0.2624672000000003
50
-89.42411804197069
0
LINE
8
Modules
10
2.7610925228
20
-29.2584058640
11
-0.5624821946
21
-29.2918123590
62
254
0
LINE
8
Modules
10
-0.5624821946
20
-29.2918123590
11
-0.4933000447
21
-36.1746669999
62
254
0
LINE
8
Modules
10
-0.4933000447
20
-36.1746669999
11
2.8302746726
21
-36.1412605050
62
254
0
LINE
8
Modules
10
2.8302746726
20
-36.1412605050
11
2.7610925228
21
-29.2584058640
62
254
0
LINE
8
Modules
10
0.7196900431
20
-32.3105740577
11
0.7279338648
21
-33.1307426279
62
254
0
LINE
8
Modules
10
0.7279338648
20
-33.1307426279
11
1.5481024349
21
-33.1224988062
62
254
0
LINE
8
Modules
10
1.5481024349
20
-33.1224988062
11
1.5398586133
21
-32.3023302361
62
254
0
LINE
8
Modules
10
1.5398586133
20
-32.3023302361
11
0.7196900431
21
-32.3105740577
62
254
0
LINE
8
Modules
10
0.7196900431
20
-32.3105740577
11
1.5481024349
21
-33.1224988062
62
254
0
TEXT
8
Modules
100
AcDbText
10
1.2286891859
20
-32.3546730025
1
DC
7
NewTextStyle_4
40
0.2624672000000003
50
-89.42411804197069
0
TEXT
8
Modules
100
AcDbText
10
0.7721976860
20
-32.6381468565
1
DC
7
NewTextStyle_4
40
0.2624672000000003
50
-89.42411804197069
0
LINE
8
Modules
10
2.8310501288
20
-36.1830043312
11
-0.4925245885
21
-36.2164108262
62
254
0
LINE
8
Modules
10
-0.4925245885
20
-36.2164108262
11
-0.4233424387
21
-43.0992654672
62
254
0
LINE
8
Modules
10
-0.4233424387
20
-43.0992654672
11
2.9002322787
21
-43.0658589722
62
254
0
LINE
8
Modules
10
2.9002322787
20
-43.0658589722
11
2.8310501288
21
-36.1830043312
62
254
0
LINE
8
Modules
10
0.7896476492
20
-39.2351725249
11
0.7978914708
21
-40.0553410951
62
254
0
LINE
8
Modules
10
0.7978914708
20
-40.0553410951
11
1.6180600410
21
-40.0470972735
62
254
0
LINE
8
Modules
10
1.6180600410
20
-40.0470972735
11
1.6098162193
21
-39.2269287033
62
254
0
LINE
8
Modules
10
1.6098162193
20
-39.2269287033
11
0.7896476492
21
-39.2351725249
62
254
0
LINE
8
Modules
10
0.7896476492
20
-39.2351725249
11
1.6180600410
21
-40.0470972735
62
254
0
TEXT
8
Modules
100
AcDbText
10
1.2986467920
20
-39.2792714697
1
DC
7
NewTextStyle_4
40
0.2624672000000003
50
-89.42411804197069
0
TEXT
8
Modules
100
AcDbText
10
0.8421552920
20
-39.5627453237
1
DC
7
NewTextStyle_4
40
0.2624672000000003
50
-89.42411804197069
0
LINE
8
Modules
10
5.5419074603
20
14.0166823473
11
2.2183327430
21
13.9832758523
62
254
0
LINE
8
Modules
10
2.2183327430
20
13.9832758523
11
2.2875148929
21
7.1004212113
62
254
0
LINE
8
Modules
10
2.2875148929
20
7.1004212113
11
5.6110896102
21
7.1338277063
62
254
0
LINE
8
Modules
10
5.6110896102
20
7.1338277063
11
5.5419074603
21
14.0166823473
62
254
0
LINE
8
Modules
10
3.5005049807
20
10.9645141536
11
3.5087488023
21
10.1443455834
62
254
0
LINE
8
Modules
10
3.5087488023
20
10.1443455834
11
4.3289173725
21
10.1525894050
62
254
0
LINE
8
Modules
10
4.3289173725
20
10.1525894050
11
4.3206735509
21
10.9727579752
62
254
0
LINE
8
Modules
10
4.3206735509
20
10.9727579752
11
3.5005049807
21
10.9645141536
62
254
0
LINE
8
Modules
10
3.5005049807
20
10.9645141536
11
4.3289173725
21
10.1525894050
62
254
0
TEXT
8
Modules
100
AcDbText
10
4.0095041235
20
10.9204152088
1
DC
7
NewTextStyle_4
40
0.2624672000000003
50
-89.42411804197069
0
TEXT
8
Modules
100
AcDbText
10
3.5530126235
20
10.6369413548
1
DC
7
NewTextStyle_4
40
0.2624672000000003
50
-89.42411804197069
0
LINE
8
Modules
10
5.6118650705
20
7.0920838774
11
2.2882903532
21
7.0586773825
62
254
0
LINE
8
Modules
10
2.2882903532
20
7.0586773825
11
2.3574725030
21
0.1758227415
62
254
0
LINE
8
Modules
10
2.3574725030
20
0.1758227415
11
5.6810472204
21
0.2092292365
62
254
0
LINE
8
Modules
10
5.6810472204
20
0.2092292365
11
5.6118650705
21
7.0920838774
62
254
0
LINE
8
Modules
10
3.5704625909
20
4.0399156837
11
3.5787064125
21
3.2197471136
62
254
0
LINE
8
Modules
10
3.5787064125
20
3.2197471136
11
4.3988749827
21
3.2279909352
62
254
0
LINE
8
Modules
10
4.3988749827
20
3.2279909352
11
4.3906311610
21
4.0481595054
62
254
0
LINE
8
Modules
10
4.3906311610
20
4.0481595054
11
3.5704625909
21
4.0399156837
62
254
0
LINE
8
Modules
10
3.5704625909
20
4.0399156837
11
4.3988749827
21
3.2279909352
62
254
0
TEXT
8
Modules
100
AcDbText
10
4.0794617337
20
3.9958167390
1
DC
7
NewTextStyle_4
40
0.2624672000000003
50
-89.42411804197069
0
TEXT
8
Modules
100
AcDbText
10
3.6229702337
20
3.7123428850
1
DC
7
NewTextStyle_4
40
0.2624672000000003
50
-89.42411804197069
0
LINE
8
Modules
10
5.9820574153
20
-15.3763389974
11
2.6584826979
21
-15.4097454924
62
254
0
LINE
8
Modules
10
2.6584826979
20
-15.4097454924
11
2.7276648478
21
-22.2926001333
62
254
0
LINE
8
Modules
10
2.7276648478
20
-22.2926001333
11
6.0512395651
21
-22.2591936384
62
254
0
LINE
8
Modules
10
6.0512395651
20
-22.2591936384
11
5.9820574153
21
-15.3763389974
62
254
0
LINE
8
Modules
10
3.9406549356
20
-18.4285071911
11
3.9488987573
21
-19.2486757613
62
254
0
LINE
8
Modules
10
3.9488987573
20
-19.2486757613
11
4.7690673274
21
-19.2404319396
62
254
0
LINE
8
Modules
10
4.7690673274
20
-19.2404319396
11
4.7608235058
21
-18.4202633695
62
254
0
LINE
8
Modules
10
4.7608235058
20
-18.4202633695
11
3.9406549356
21
-18.4285071911
62
254
0
LINE
8
Modules
10
3.9406549356
20
-18.4285071911
11
4.7690673274
21
-19.2404319396
62
254
0
TEXT
8
Modules
100
AcDbText
10
4.4496540784
20
-18.4726061359
1
DC
7
NewTextStyle_4
40
0.2624672000000003
50
-89.42411804197069
0
TEXT
8
Modules
100
AcDbText
10
3.9931625785
20
-18.7560799899
1
DC
7
NewTextStyle_4
40
0.2624672000000003
50
-89.42411804197069
0
LINE
8
Modules
10
6.0520150213
20
-22.3009374646
11
2.7284403040
21
-22.3343439596
62
254
0
LINE
8
Modules
10
2.7284403040
20
-22.3343439596
11
2.7976224538
21
-29.2171986006
62
254
0
LINE
8
Modules
10
2.7976224538
20
-29.2171986006
11
6.1211971712
21
-29.1837921056
62
254
0
LINE
8
Modules
10
6.1211971712
20
-29.1837921056
11
6.0520150213
21
-22.3009374646
62
254
0
LINE
8
Modules
10
4.0106125417
20
-25.3531056583
11
4.0188563633
21
-26.1732742285
62
254
0
LINE
8
Modules
10
4.0188563633
20
-26.1732742285
11
4.8390249335
21
-26.1650304069
62
254
0
LINE
8
Modules
10
4.8390249335
20
-26.1650304069
11
4.8307811118
21
-25.3448618367
62
254
0
LINE
8
Modules
10
4.8307811118
20
-25.3448618367
11
4.0106125417
21
-25.3531056583
62
254
0
LINE
8
Modules
10
4.0106125417
20
-25.3531056583
11
4.8390249335
21
-26.1650304069
62
254
0
TEXT
8
Modules
100
AcDbText
10
4.5196116845
20
-25.3972046031
1
DC
7
NewTextStyle_4
40
0.2624672000000003
50
-89.42411804197069
0
TEXT
8
Modules
100
AcDbText
10
4.0631201845
20
-25.6806784571
1
DC
7
NewTextStyle_4
40
0.2624672000000003
50
-89.42411804197069
0
LINE
8
Modules
10
6.1219726315
20
-29.2255359345
11
2.7983979142
21
-29.2589424294
62
254
0
LINE
8
Modules
10
2.7983979142
20
-29.2589424294
11
2.8675800640
21
-36.1417970704
62
254
0
LINE
8
Modules
10
2.8675800640
20
-36.1417970704
11
6.1911547814
21
-36.1083905754
62
254
0
LINE
8
Modules
10
6.1911547814
20
-36.1083905754
11
6.1219726315
21
-29.2255359345
62
254
0
LINE
8
Modules
10
4.0805701518
20
-32.2777041282
11
4.0888139735
21
-33.0978726983
62
254
0
LINE
8
Modules
10
4.0888139735
20
-33.0978726983
11
4.9089825437
21
-33.0896288767
62
254
0
LINE
8
Modules
10
4.9089825437
20
-33.0896288767
11
4.9007387220
21
-32.2694603065
62
254
0
LINE
8
Modules
10
4.9007387220
20
-32.2694603065
11
4.0805701518
21
-32.2777041282
62
254
0
LINE
8
Modules
10
4.0805701518
20
-32.2777041282
11
4.9089825437
21
-33.0896288767
62
254
0
TEXT
8
Modules
100
AcDbText
10
4.5895692946
20
-32.3218030729
1
DC
7
NewTextStyle_4
40
0.2624672000000003
50
-89.42411804197069
0
TEXT
8
Modules
100
AcDbText
10
4.1330777947
20
-32.6052769269
1
DC
7
NewTextStyle_4
40
0.2624672000000003
50
-89.42411804197069
0
LINE
8
Modules
10
6.1919302417
20
-36.1501344017
11
2.8683555243
21
-36.1835408967
62
254
0
LINE
8
Modules
10
2.8683555243
20
-36.1835408967
11
2.9375376742
21
-43.0663955376
62
254
0
LINE
8
Modules
10
2.9375376742
20
-43.0663955376
11
6.2611123915
21
-43.0329890426
62
254
0
LINE
8
Modules
10
6.2611123915
20
-43.0329890426
11
6.1919302417
21
-36.1501344017
62
254
0
LINE
8
Modules
10
4.1505277620
20
-39.2023025954
11
4.1587715837
21
-40.0224711656
62
254
0
LINE
8
Modules
10
4.1587715837
20
-40.0224711656
11
4.9789401539
21
-40.0142273439
62
254
0
LINE
8
Modules
10
4.9789401539
20
-40.0142273439
11
4.9706963322
21
-39.1940587737
62
254
0
LINE
8
Modules
10
4.9706963322
20
-39.1940587737
11
4.1505277620
21
-39.2023025954
62
254
0
LINE
8
Modules
10
4.1505277620
20
-39.2023025954
11
4.9789401539
21
-40.0142273439
62
254
0
TEXT
8
Modules
100
AcDbText
10
4.6595269048
20
-39.2464015402
1
DC
7
NewTextStyle_4
40
0.2624672000000003
50
-89.42411804197069
0
TEXT
8
Modules
100
AcDbText
10
4.2030354049
20
-39.5298753942
1
DC
7
NewTextStyle_4
40
0.2624672000000003
50
-89.42411804197069
0
LINE
8
Modules
10
22.4469656969
20
-35.9336208495
11
25.7705405250
21
-35.9002143534
62
254
0
LINE
8
Modules
10
25.7705405250
20
-35.9002143534
11
25.7013583752
21
-29.0173597125
62
254
0
LINE
8
Modules
10
25.7013583752
20
-29.0173597125
11
22.3777835470
21
-29.0507662086
62
254
0
LINE
8
Modules
10
22.3777835470
20
-29.0507662086
11
22.4469656969
21
-35.9336208495
62
254
0
LINE
8
Modules
10
24.4883682320
20
-32.8814526553
11
24.4801244103
21
-32.0612840851
62
254
0
LINE
8
Modules
10
24.4801244103
20
-32.0612840851
11
23.6599558401
21
-32.0695279067
62
254
0
LINE
8
Modules
10
23.6599558401
20
-32.0695279067
11
23.6681996618
21
-32.8896964769
62
254
0
LINE
8
Modules
10
23.6681996618
20
-32.8896964769
11
24.4883682320
21
-32.8814526553
62
254
0
LINE
8
Modules
10
24.4883682320
20
-32.8814526553
11
23.6599558401
21
-32.0695279067
62
254
0
TEXT
8
Modules
100
AcDbText
10
23.9793690891
20
-32.8373537105
1
DC
7
NewTextStyle_4
40
0.2624672000000003
50
90.57588195801094
0
TEXT
8
Modules
100
AcDbText
10
24.4358605891
20
-32.5538798565
1
DC
7
NewTextStyle_4
40
0.2624672000000003
50
90.57588195801094
0
LINE
8
Modules
10
22.3245398843
20
7.3414673592
11
25.6481147124
21
7.3748738553
62
254
0
LINE
8
Modules
10
25.6481147124
20
7.3748738553
11
25.5789325625
21
14.2577284962
62
254
0
LINE
8
Modules
10
25.5789325625
20
14.2577284962
11
22.2553577344
21
14.2243220001
62
254
0
LINE
8
Modules
10
22.2553577344
20
14.2243220001
11
22.3245398843
21
7.3414673592
62
254
0
LINE
8
Modules
10
24.3659424193
20
10.3936355534
11
24.3576985977
21
11.2138041236
62
254
0
LINE
8
Modules
10
24.3576985977
20
11.2138041236
11
23.5375300275
21
11.2055603019
62
254
0
LINE
8
Modules
10
23.5375300275
20
11.2055603019
11
23.5457738491
21
10.3853917318
62
254
0
LINE
8
Modules
10
23.5457738491
20
10.3853917318
11
24.3659424193
21
10.3936355534
62
254
0
LINE
8
Modules
10
24.3659424193
20
10.3936355534
11
23.5375300275
21
11.2055603019
62
254
0
TEXT
8
Modules
100
AcDbText
10
23.8569432765
20
10.4377344982
1
DC
7
NewTextStyle_4
40
0.2624672000000003
50
90.57588195801094
0
TEXT
8
Modules
100
AcDbText
10
24.3134347764
20
10.7212083522
1
DC
7
NewTextStyle_4
40
0.2624672000000003
50
90.57588195801094
0
LINE
8
Modules
10
22.2545822741
20
14.2660658264
11
25.5781571022
21
14.2994723225
62
254
0
LINE
8
Modules
10
25.5781571022
20
14.2994723225
11
25.5089749523
21
21.1823269634
62
254
0
LINE
8
Modules
10
25.5089749523
20
21.1823269634
11
22.1854001242
21
21.1489204673
62
254
0
LINE
8
Modules
10
22.1854001242
20
21.1489204673
11
22.2545822741
21
14.2660658264
62
254
0
LINE
8
Modules
10
24.2959848091
20
17.3182340206
11
24.2877409875
21
18.1384025908
62
254
0
LINE
8
Modules
10
24.2877409875
20
18.1384025908
11
23.4675724173
21
18.1301587692
62
254
0
LINE
8
Modules
10
23.4675724173
20
18.1301587692
11
23.4758162389
21
17.3099901990
62
254
0
LINE
8
Modules
10
23.4758162389
20
17.3099901990
11
24.2959848091
21
17.3182340206
62
254
0
LINE
8
Modules
10
24.2959848091
20
17.3182340206
11
23.4675724173
21
18.1301587692
62
254
0
TEXT
8
Modules
100
AcDbText
10
23.7869856663
20
17.3623329654
1
DC
7
NewTextStyle_4
40
0.2624672000000003
50
90.57588195801094
0
TEXT
8
Modules
100
AcDbText
10
24.2434771662
20
17.6458068194
1
DC
7
NewTextStyle_4
40
0.2624672000000003
50
90.57588195801094
0
LINE
8
Modules
10
19.0860855882
20
-35.9664907791
11
22.4096604163
21
-35.9330842830
62
254
0
LINE
8
Modules
10
22.4096604163
20
-35.9330842830
11
22.3404782664
21
-29.0502296421
62
254
0
LINE
8
Modules
10
22.3404782664
20
-29.0502296421
11
19.0169034383
21
-29.0836361382
62
254
0
LINE
8
Modules
10
19.0169034383
20
-29.0836361382
11
19.0860855882
21
-35.9664907791
62
254
0
LINE
8
Modules
10
21.1274881232
20
-32.9143225848
11
21.1192443016
21
-32.0941540147
62
254
0
LINE
8
Modules
10
21.1192443016
20
-32.0941540147
11
20.2990757314
21
-32.1023978363
62
254
0
LINE
8
Modules
10
20.2990757314
20
-32.1023978363
11
20.3073195531
21
-32.9225664065
62
254
0
LINE
8
Modules
10
20.3073195531
20
-32.9225664065
11
21.1274881232
21
-32.9143225848
62
254
0
LINE
8
Modules
10
21.1274881232
20
-32.9143225848
11
20.2990757314
21
-32.1023978363
62
254
0
TEXT
8
Modules
100
AcDbText
10
20.6184889804
20
-32.8702236400
1
DC
7
NewTextStyle_4
40
0.2624672000000003
50
90.57588195801094
0
TEXT
8
Modules
100
AcDbText
10
21.0749804804
20
-32.5867497861
1
DC
7
NewTextStyle_4
40
0.2624672000000003
50
90.57588195801094
0
LINE
8
Modules
10
19.0161279780
20
-29.0418923119
11
22.3397028061
21
-29.0084858158
62
254
0
LINE
8
Modules
10
22.3397028061
20
-29.0084858158
11
22.2705206563
21
-22.1256311748
62
254
0
LINE
8
Modules
10
22.2705206563
20
-22.1256311748
11
18.9469458281
21
-22.1590376709
62
254
0
LINE
8
Modules
10
18.9469458281
20
-22.1590376709
11
19.0161279780
21
-29.0418923119
62
254
0
LINE
8
Modules
10
21.0575305130
20
-25.9897241176
11
21.0492866914
21
-25.1695555474
62
254
0
LINE
8
Modules
10
21.0492866914
20
-25.1695555474
11
20.2291181212
21
-25.1777993691
62
254
0
LINE
8
Modules
10
20.2291181212
20
-25.1777993691
11
20.2373619429
21
-25.9979679393
62
254
0
LINE
8
Modules
10
20.2373619429
20
-25.9979679393
11
21.0575305130
21
-25.9897241176
62
254
0
LINE
8
Modules
10
21.0575305130
20
-25.9897241176
11
20.2291181212
21
-25.1777993691
62
254
0
TEXT
8
Modules
100
AcDbText
10
20.5485313702
20
-25.9456251728
1
DC
7
NewTextStyle_4
40
0.2624672000000003
50
90.57588195801094
0
TEXT
8
Modules
100
AcDbText
10
21.0050228702
20
-25.6621513188
1
DC
7
NewTextStyle_4
40
0.2624672000000003
50
90.57588195801094
0
LINE
8
Modules
10
18.9636597714
20
7.3049452149
11
22.2872345995
21
7.3383517110
62
254
0
LINE
8
Modules
10
22.2872345995
20
7.3383517110
11
22.2180524497
21
14.2212063519
62
254
0
LINE
8
Modules
10
22.2180524497
20
14.2212063519
11
18.8944776215
21
14.1877998558
62
254
0
LINE
8
Modules
10
18.8944776215
20
14.1877998558
11
18.9636597714
21
7.3049452149
62
254
0
LINE
8
Modules
10
21.0050623064
20
10.3571134092
11
20.9968184848
21
11.1772819793
62
254
0
LINE
8
Modules
10
20.9968184848
20
11.1772819793
11
20.1766499146
21
11.1690381577
62
254
0
LINE
8
Modules
10
20.1766499146
20
11.1690381577
11
20.1848937363
21
10.3488695875
62
254
0
LINE
8
Modules
10
20.1848937363
20
10.3488695875
11
21.0050623064
21
10.3571134092
62
254
0
LINE
8
Modules
10
21.0050623064
20
10.3571134092
11
20.1766499146
21
11.1690381577
62
254
0
TEXT
8
Modules
100
AcDbText
10
20.4960631636
20
10.4012123540
1
DC
7
NewTextStyle_4
40
0.2624672000000003
50
90.57588195801094
0
TEXT
8
Modules
100
AcDbText
10
20.9525546636
20
10.6846862079
1
DC
7
NewTextStyle_4
40
0.2624672000000003
50
90.57588195801094
0
LINE
8
Modules
10
18.8937021653
20
14.2295436821
11
22.2172769935
21
14.2629501782
62
254
0
LINE
8
Modules
10
22.2172769935
20
14.2629501782
11
22.1480948436
21
21.1458048192
62
254
0
LINE
8
Modules
10
22.1480948436
20
21.1458048192
11
18.8245200155
21
21.1123983231
62
254
0
LINE
8
Modules
10
18.8245200155
20
21.1123983231
11
18.8937021653
21
14.2295436821
62
254
0
LINE
8
Modules
10
20.9351047004
20
17.2817118764
11
20.9268608787
21
18.1018804466
62
254
0
LINE
8
Modules
10
20.9268608787
20
18.1018804466
11
20.1066923086
21
18.0936366249
62
254
0
LINE
8
Modules
10
20.1066923086
20
18.0936366249
11
20.1149361302
21
17.2734680547
62
254
0
LINE
8
Modules
10
20.1149361302
20
17.2734680547
11
20.9351047004
21
17.2817118764
62
254
0
LINE
8
Modules
10
20.9351047004
20
17.2817118764
11
20.1066923086
21
18.0936366249
62
254
0
TEXT
8
Modules
100
AcDbText
10
20.4261055576
20
17.3258108212
1
DC
7
NewTextStyle_4
40
0.2624672000000003
50
90.57588195801094
0
TEXT
8
Modules
100
AcDbText
10
20.8825970575
20
17.6092846752
1
DC
7
NewTextStyle_4
40
0.2624672000000003
50
90.57588195801094
0
LINE
8
Modules
10
15.7252054794
20
-35.9993607086
11
19.0487803076
21
-35.9659542125
62
254
0
LINE
8
Modules
10
19.0487803076
20
-35.9659542125
11
18.9795981577
21
-29.0830995716
62
254
0
LINE
8
Modules
10
18.9795981577
20
-29.0830995716
11
15.6560233296
21
-29.1165060677
62
254
0
LINE
8
Modules
10
15.6560233296
20
-29.1165060677
11
15.7252054794
21
-35.9993607086
62
254
0
LINE
8
Modules
10
17.7666080145
20
-32.9471925144
11
17.7583641928
21
-32.1270239442
62
254
0
LINE
8
Modules
10
17.7583641928
20
-32.1270239442
11
16.9381956227
21
-32.1352677659
62
254
0
LINE
8
Modules
10
16.9381956227
20
-32.1352677659
11
16.9464394443
21
-32.9554363360
62
254
0
LINE
8
Modules
10
16.9464394443
20
-32.9554363360
11
17.7666080145
21
-32.9471925144
62
254
0
LINE
8
Modules
10
17.7666080145
20
-32.9471925144
11
16.9381956227
21
-32.1352677659
62
254
0
TEXT
8
Modules
100
AcDbText
10
17.2576088717
20
-32.9030935696
1
DC
7
NewTextStyle_4
40
0.2624672000000003
50
90.57588195801094
0
TEXT
8
Modules
100
AcDbText
10
17.7141003716
20
-32.6196197156
1
DC
7
NewTextStyle_4
40
0.2624672000000003
50
90.57588195801094
0
LINE
8
Modules
10
15.6552478693
20
-29.0747622414
11
18.9788226974
21
-29.0413557453
62
254
0
LINE
8
Modules
10
18.9788226974
20
-29.0413557453
11
18.9096405475
21
-22.1585011044
62
254
0
LINE
8
Modules
10
18.9096405475
20
-22.1585011044
11
15.5860657194
21
-22.1919076005
62
254
0
LINE
8
Modules
10
15.5860657194
20
-22.1919076005
11
15.6552478693
21
-29.0747622414
62
254
0
LINE
8
Modules
10
17.6966504043
20
-26.0225940472
11
17.6884065827
21
-25.2024254770
62
254
0
LINE
8
Modules
10
17.6884065827
20
-25.2024254770
11
16.8682380125
21
-25.2106692986
62
254
0
LINE
8
Modules
10
16.8682380125
20
-25.2106692986
11
16.8764818341
21
-26.0308378688
62
254
0
LINE
8
Modules
10
16.8764818341
20
-26.0308378688
11
17.6966504043
21
-26.0225940472
62
254
0
LINE
8
Modules
10
17.6966504043
20
-26.0225940472
11
16.8682380125
21
-25.2106692986
62
254
0
TEXT
8
Modules
100
AcDbText
10
17.1876512615
20
-25.9784951024
1
DC
7
NewTextStyle_4
40
0.2624672000000003
50
90.57588195801094
0
TEXT
8
Modules
100
AcDbText
10
17.6441427614
20
-25.6950212484
1
DC
7
NewTextStyle_4
40
0.2624672000000003
50
90.57588195801094
0
LINE
8
Modules
10
15.6727372728
20
0.3474768181
11
18.9963121010
21
0.3808833142
62
254
0
LINE
8
Modules
10
18.9963121010
20
0.3808833142
11
18.9271299511
21
7.2637379552
62
254
0
LINE
8
Modules
10
18.9271299511
20
7.2637379552
11
15.6035551230
21
7.2303314591
62
254
0
LINE
8
Modules
10
15.6035551230
20
7.2303314591
11
15.6727372728
21
0.3474768181
62
254
0
LINE
8
Modules
10
17.7141398079
20
3.3996450124
11
17.7058959862
21
4.2198135826
62
254
0
LINE
8
Modules
10
17.7058959862
20
4.2198135826
11
16.8857274161
21
4.2115697609
62
254
0
LINE
8
Modules
10
16.8857274161
20
4.2115697609
11
16.8939712377
21
3.3914011907
62
254
0
LINE
8
Modules
10
16.8939712377
20
3.3914011907
11
17.7141398079
21
3.3996450124
62
254
0
LINE
8
Modules
10
17.7141398079
20
3.3996450124
11
16.8857274161
21
4.2115697609
62
254
0
TEXT
8
Modules
100
AcDbText
10
17.2051406651
20
3.4437439572
1
DC
7
NewTextStyle_4
40
0.2624672000000003
50
90.57588195801094
0
TEXT
8
Modules
100
AcDbText
10
17.6616321650
20
3.7272178112
1
DC
7
NewTextStyle_4
40
0.2624672000000003
50
90.57588195801094
0
LINE
8
Modules
10
15.6027796627
20
7.2720752854
11
18.9263544908
21
7.3054817815
62
254
0
LINE
8
Modules
10
18.9263544908
20
7.3054817815
11
18.8571723409
21
14.1883364224
62
254
0
LINE
8
Modules
10
18.8571723409
20
14.1883364224
11
15.5335975128
21
14.1549299263
62
254
0
LINE
8
Modules
10
15.5335975128
20
14.1549299263
11
15.6027796627
21
7.2720752854
62
254
0
LINE
8
Modules
10
17.6441821977
20
10.3242434796
11
17.6359383761
21
11.1444120498
62
254
0
LINE
8
Modules
10
17.6359383761
20
11.1444120498
11
16.8157698059
21
11.1361682281
62
254
0
LINE
8
Modules
10
16.8157698059
20
11.1361682281
11
16.8240136275
21
10.3159996580
62
254
0
LINE
8
Modules
10
16.8240136275
20
10.3159996580
11
17.6441821977
21
10.3242434796
62
254
0
LINE
8
Modules
10
17.6441821977
20
10.3242434796
11
16.8157698059
21
11.1361682281
62
254
0
TEXT
8
Modules
100
AcDbText
10
17.1351830549
20
10.3683424244
1
DC
7
NewTextStyle_4
40
0.2624672000000003
50
90.57588195801094
0
TEXT
8
Modules
100
AcDbText
10
17.5916745548
20
10.6518162784
1
DC
7
NewTextStyle_4
40
0.2624672000000003
50
90.57588195801094
0
LINE
8
Modules
10
15.5328220525
20
14.1966737526
11
18.8563968806
21
14.2300802487
62
254
0
LINE
8
Modules
10
18.8563968806
20
14.2300802487
11
18.7872147307
21
21.1129348896
62
254
0
LINE
8
Modules
10
18.7872147307
20
21.1129348896
11
15.4636399026
21
21.0795283935
62
254
0
LINE
8
Modules
10
15.4636399026
20
21.0795283935
11
15.5328220525
21
14.1966737526
62
254
0
LINE
8
Modules
10
17.5742245875
20
17.2488419468
11
17.5659807659
21
18.0690105170
62
254
0
LINE
8
Modules
10
17.5659807659
20
18.0690105170
11
16.7458121957
21
18.0607666954
62
254
0
LINE
8
Modules
10
16.7458121957
20
18.0607666954
11
16.7540560173
21
17.2405981252
62
254
0
LINE
8
Modules
10
16.7540560173
20
17.2405981252
11
17.5742245875
21
17.2488419468
62
254
0
LINE
8
Modules
10
17.5742245875
20
17.2488419468
11
16.7458121957
21
18.0607666954
62
254
0
TEXT
8
Modules
100
AcDbText
10
17.0652254447
20
17.2929408916
1
DC
7
NewTextStyle_4
40
0.2624672000000003
50
90.57588195801094
0
TEXT
8
Modules
100
AcDbText
10
17.5217169447
20
17.5764147456
1
DC
7
NewTextStyle_4
40
0.2624672000000003
50
90.57588195801094
0
LINE
8
Modules
10
12.4342829768
20
-42.9568291054
11
15.7578578049
21
-42.9234226093
62
254
0
LINE
8
Modules
10
15.7578578049
20
-42.9234226093
11
15.6886756550
21
-36.0405679684
62
254
0
LINE
8
Modules
10
15.6886756550
20
-36.0405679684
11
12.3651008269
21
-36.0739744645
62
254
0
LINE
8
Modules
10
12.3651008269
20
-36.0739744645
11
12.4342829768
21
-42.9568291054
62
254
0
LINE
8
Modules
10
14.4756855118
20
-39.9046609112
11
14.4674416902
21
-39.0844923410
62
254
0
LINE
8
Modules
10
14.4674416902
20
-39.0844923410
11
13.6472731200
21
-39.0927361626
62
254
0
LINE
8
Modules
10
13.6472731200
20
-39.0927361626
11
13.6555169416
21
-39.9129047328
62
254
0
LINE
8
Modules
10
13.6555169416
20
-39.9129047328
11
14.4756855118
21
-39.9046609112
62
254
0
LINE
8
Modules
10
14.4756855118
20
-39.9046609112
11
13.6472731200
21
-39.0927361626
62
254
0
TEXT
8
Modules
100
AcDbText
10
13.9666863690
20
-39.8605619664
1
DC
7
NewTextStyle_4
40
0.2624672000000003
50
90.57588195801094
0
TEXT
8
Modules
100
AcDbText
10
14.4231778689
20
-39.5770881124
1
DC
7
NewTextStyle_4
40
0.2624672000000003
50
90.57588195801094
0
LINE
8
Modules
10
12.3643253666
20
-36.0322306382
11
15.6879001947
21
-35.9988241421
62
254
0
LINE
8
Modules
10
15.6879001947
20
-35.9988241421
11
15.6187180449
21
-29.1159695012
62
254
0
LINE
8
Modules
10
15.6187180449
20
-29.1159695012
11
12.2951432167
21
-29.1493759973
62
254
0
LINE
8
Modules
10
12.2951432167
20
-29.1493759973
11
12.3643253666
21
-36.0322306382
62
254
0
LINE
8
Modules
10
14.4057279016
20
-32.9800624439
11
14.3974840800
21
-32.1598938738
62
254
0
LINE
8
Modules
10
14.3974840800
20
-32.1598938738
11
13.5773155098
21
-32.1681376954
62
254
0
LINE
8
Modules
10
13.5773155098
20
-32.1681376954
11
13.5855593315
21
-32.9883062656
62
254
0
LINE
8
Modules
10
13.5855593315
20
-32.9883062656
11
14.4057279016
21
-32.9800624439
62
254
0
LINE
8
Modules
10
14.4057279016
20
-32.9800624439
11
13.5773155098
21
-32.1681376954
62
254
0
TEXT
8
Modules
100
AcDbText
10
13.8967287588
20
-32.9359634992
1
DC
7
NewTextStyle_4
40
0.2624672000000003
50
90.57588195801094
0
TEXT
8
Modules
100
AcDbText
10
14.3532202588
20
-32.6524896452
1
DC
7
NewTextStyle_4
40
0.2624672000000003
50
90.57588195801094
0
LINE
8
Modules
10
12.2943677605
20
-29.1112843857
11
15.6179425887
21
-29.0778778896
62
254
0
LINE
8
Modules
10
15.6179425887
20
-29.0778778896
11
15.5487604388
21
-22.1950232486
62
254
0
LINE
8
Modules
10
15.5487604388
20
-22.1950232486
11
12.2251856107
21
-22.2284297447
62
254
0
LINE
8
Modules
10
12.2251856107
20
-22.2284297447
11
12.2943677605
21
-29.1112843857
62
254
0
LINE
8
Modules
10
14.3357702956
20
-26.0591161914
11
14.3275264739
21
-25.2389476212
62
254
0
LINE
8
Modules
10
14.3275264739
20
-25.2389476212
11
13.5073579038
21
-25.2471914429
62
254
0
LINE
8
Modules
10
13.5073579038
20
-25.2471914429
11
13.5156017254
21
-26.0673600131
62
254
0
LINE
8
Modules
10
13.5156017254
20
-26.0673600131
11
14.3357702956
21
-26.0591161914
62
254
0
LINE
8
Modules
10
14.3357702956
20
-26.0591161914
11
13.5073579038
21
-25.2471914429
62
254
0
TEXT
8
Modules
100
AcDbText
10
13.8267711528
20
-26.0150172466
1
DC
7
NewTextStyle_4
40
0.2624672000000003
50
90.57588195801094
0
TEXT
8
Modules
100
AcDbText
10
14.2832626527
20
-25.7315433926
1
DC
7
NewTextStyle_4
40
0.2624672000000003
50
90.57588195801094
0
LINE
8
Modules
10
12.2244101504
20
-22.1866859184
11
15.5479849785
21
-22.1532794224
62
254
0
LINE
8
Modules
10
15.5479849785
20
-22.1532794224
11
15.4788028286
21
-15.2704247814
62
254
0
LINE
8
Modules
10
15.4788028286
20
-15.2704247814
11
12.1552280005
21
-15.3038312775
62
254
0
LINE
8
Modules
10
12.1552280005
20
-15.3038312775
11
12.2244101504
21
-22.1866859184
62
254
0
LINE
8
Modules
10
14.2658126854
20
-19.1345177242
11
14.2575688637
21
-18.3143491540
62
254
0
LINE
8
Modules
10
14.2575688637
20
-18.3143491540
11
13.4374002936
21
-18.3225929757
62
254
0
LINE
8
Modules
10
13.4374002936
20
-18.3225929757
11
13.4456441152
21
-19.1427615458
62
254
0
LINE
8
Modules
10
13.4456441152
20
-19.1427615458
11
14.2658126854
21
-19.1345177242
62
254
0
LINE
8
Modules
10
14.2658126854
20
-19.1345177242
11
13.4374002936
21
-18.3225929757
62
254
0
TEXT
8
Modules
100
AcDbText
10
13.7568135426
20
-19.0904187794
1
DC
7
NewTextStyle_4
40
0.2624672000000003
50
90.57588195801094
0
TEXT
8
Modules
100
AcDbText
10
14.2133050425
20
-18.8069449254
1
DC
7
NewTextStyle_4
40
0.2624672000000003
50
90.57588195801094
0
LINE
8
Modules
10
12.3118571600
20
0.3146068886
11
15.6354319881
21
0.3480133847
62
254
0
LINE
8
Modules
10
15.6354319881
20
0.3480133847
11
15.5662498382
21
7.2308680256
62
254
0
LINE
8
Modules
10
15.5662498382
20
7.2308680256
11
12.2426750101
21
7.1974615295
62
254
0
LINE
8
Modules
10
12.2426750101
20
7.1974615295
11
12.3118571600
21
0.3146068886
62
254
0
LINE
8
Modules
10
14.3532596950
20
3.3667750828
11
14.3450158734
21
4.1869436530
62
254
0
LINE
8
Modules
10
14.3450158734
20
4.1869436530
11
13.5248473032
21
4.1786998314
62
254
0
LINE
8
Modules
10
13.5248473032
20
4.1786998314
11
13.5330911249
21
3.3585312612
62
254
0
LINE
8
Modules
10
13.5330911249
20
3.3585312612
11
14.3532596950
21
3.3667750828
62
254
0
LINE
8
Modules
10
14.3532596950
20
3.3667750828
11
13.5248473032
21
4.1786998314
62
254
0
TEXT
8
Modules
100
AcDbText
10
13.8442605522
20
3.4108740276
1
DC
7
NewTextStyle_4
40
0.2624672000000003
50
90.57588195801094
0
TEXT
8
Modules
100
AcDbText
10
14.3007520522
20
3.6943478816
1
DC
7
NewTextStyle_4
40
0.2624672000000003
50
90.57588195801094
0
LINE
8
Modules
10
12.2418995539
20
7.2392053558
11
15.5654743821
21
7.2726118519
62
254
0
LINE
8
Modules
10
15.5654743821
20
7.2726118519
11
15.4962922322
21
14.1554664928
62
254
0
LINE
8
Modules
10
15.4962922322
20
14.1554664928
11
12.1727174041
21
14.1220599967
62
254
0
LINE
8
Modules
10
12.1727174041
20
14.1220599967
11
12.2418995539
21
7.2392053558
62
254
0
LINE
8
Modules
10
14.2833020890
20
10.2913735500
11
14.2750582673
21
11.1115421202
62
254
0
LINE
8
Modules
10
14.2750582673
20
11.1115421202
11
13.4548896972
21
11.1032982986
62
254
0
LINE
8
Modules
10
13.4548896972
20
11.1032982986
11
13.4631335188
21
10.2831297284
62
254
0
LINE
8
Modules
10
13.4631335188
20
10.2831297284
11
14.2833020890
21
10.2913735500
62
254
0
LINE
8
Modules
10
14.2833020890
20
10.2913735500
11
13.4548896972
21
11.1032982986
62
254
0
TEXT
8
Modules
100
AcDbText
10
13.7743029462
20
10.3354724948
1
DC
7
NewTextStyle_4
40
0.2624672000000003
50
90.57588195801094
0
TEXT
8
Modules
100
AcDbText
10
14.2307944461
20
10.6189463488
1
DC
7
NewTextStyle_4
40
0.2624672000000003
50
90.57588195801094
0
LINE
8
Modules
10
12.1719419437
20
14.1638038230
11
15.4955167719
21
14.1972103191
62
254
0
LINE
8
Modules
10
15.4955167719
20
14.1972103191
11
15.4263346220
21
21.0800649600
62
254
0
LINE
8
Modules
10
15.4263346220
20
21.0800649600
11
12.1027597939
21
21.0466584639
62
254
0
LINE
8
Modules
10
12.1027597939
20
21.0466584639
11
12.1719419437
21
14.1638038230
62
254
0
LINE
8
Modules
10
14.2133444788
20
17.2159720173
11
14.2051006571
21
18.0361405874
62
254
0
LINE
8
Modules
10
14.2051006571
20
18.0361405874
11
13.3849320870
21
18.0278967658
62
254
0
LINE
8
Modules
10
13.3849320870
20
18.0278967658
11
13.3931759086
21
17.2077281956
62
254
0
LINE
8
Modules
10
13.3931759086
20
17.2077281956
11
14.2133444788
21
17.2159720173
62
254
0
LINE
8
Modules
10
14.2133444788
20
17.2159720173
11
13.3849320870
21
18.0278967658
62
254
0
TEXT
8
Modules
100
AcDbText
10
13.7043453360
20
17.2600709621
1
DC
7
NewTextStyle_4
40
0.2624672000000003
50
90.57588195801094
0
TEXT
8
Modules
100
AcDbText
10
14.1608368359
20
17.5435448160
1
DC
7
NewTextStyle_4
40
0.2624672000000003
50
90.57588195801094
0
LINE
8
Modules
10
9.0734028680
20
-42.9933512497
11
12.3969776962
21
-42.9599447536
62
254
0
LINE
8
Modules
10
12.3969776962
20
-42.9599447536
11
12.3277955463
21
-36.0770901126
62
254
0
LINE
8
Modules
10
12.3277955463
20
-36.0770901126
11
9.0042207182
21
-36.1104966087
62
254
0
LINE
8
Modules
10
9.0042207182
20
-36.1104966087
11
9.0734028680
21
-42.9933512497
62
254
0
LINE
8
Modules
10
11.1148054031
20
-39.9411830554
11
11.1065615814
21
-39.1210144852
62
254
0
LINE
8
Modules
10
11.1065615814
20
-39.1210144852
11
10.2863930113
21
-39.1292583069
62
254
0
LINE
8
Modules
10
10.2863930113
20
-39.1292583069
11
10.2946368329
21
-39.9494268771
62
254
0
LINE
8
Modules
10
10.2946368329
20
-39.9494268771
11
11.1148054031
21
-39.9411830554
62
254
0
LINE
8
Modules
10
11.1148054031
20
-39.9411830554
11
10.2863930113
21
-39.1292583069
62
254
0
TEXT
8
Modules
100
AcDbText
10
10.6058062603
20
-39.8970841106
1
DC
7
NewTextStyle_4
40
0.2624672000000003
50
90.57588195801094
0
TEXT
8
Modules
100
AcDbText
10
11.0622977602
20
-39.6136102566
1
DC
7
NewTextStyle_4
40
0.2624672000000003
50
90.57588195801094
0
LINE
8
Modules
10
9.0034452579
20
-36.0687527824
11
12.3270200860
21
-36.0353462864
62
254
0
LINE
8
Modules
10
12.3270200860
20
-36.0353462864
11
12.2578379361
21
-29.1524916454
62
254
0
LINE
8
Modules
10
12.2578379361
20
-29.1524916454
11
8.9342631080
21
-29.1858981415
62
254
0
LINE
8
Modules
10
8.9342631080
20
-29.1858981415
11
9.0034452579
21
-36.0687527824
62
254
0
LINE
8
Modules
10
11.0448477929
20
-33.0165845882
11
11.0366039713
21
-32.1964160180
62
254
0
LINE
8
Modules
10
11.0366039713
20
-32.1964160180
11
10.2164354011
21
-32.2046598397
62
254
0
LINE
8
Modules
10
10.2164354011
20
-32.2046598397
11
10.2246792227
21
-33.0248284098
62
254
0
LINE
8
Modules
10
10.2246792227
20
-33.0248284098
11
11.0448477929
21
-33.0165845882
62
254
0
LINE
8
Modules
10
11.0448477929
20
-33.0165845882
11
10.2164354011
21
-32.2046598397
62
254
0
TEXT
8
Modules
100
AcDbText
10
10.5358486501
20
-32.9724856434
1
DC
7
NewTextStyle_4
40
0.2624672000000003
50
90.57588195801094
0
TEXT
8
Modules
100
AcDbText
10
10.9923401500
20
-32.6890117894
1
DC
7
NewTextStyle_4
40
0.2624672000000003
50
90.57588195801094
0
LINE
8
Modules
10
8.9334876477
20
-29.1441543152
11
12.2570624758
21
-29.1107478191
62
254
0
LINE
8
Modules
10
12.2570624758
20
-29.1107478191
11
12.1878803259
21
-22.2278931782
62
254
0
LINE
8
Modules
10
12.1878803259
20
-22.2278931782
11
8.8643054978
21
-22.2612996743
62
254
0
LINE
8
Modules
10
8.8643054978
20
-22.2612996743
11
8.9334876477
21
-29.1441543152
62
254
0
LINE
8
Modules
10
10.9748901827
20
-26.0919861210
11
10.9666463611
21
-25.2718175508
62
254
0
LINE
8
Modules
10
10.9666463611
20
-25.2718175508
11
10.1464777909
21
-25.2800613725
62
254
0
LINE
8
Modules
10
10.1464777909
20
-25.2800613725
11
10.1547216125
21
-26.1002299426
62
254
0
LINE
8
Modules
10
10.1547216125
20
-26.1002299426
11
10.9748901827
21
-26.0919861210
62
254
0
LINE
8
Modules
10
10.9748901827
20
-26.0919861210
11
10.1464777909
21
-25.2800613725
62
254
0
TEXT
8
Modules
100
AcDbText
10
10.4658910399
20
-26.0478871762
1
DC
7
NewTextStyle_4
40
0.2624672000000003
50
90.57588195801094
0
TEXT
8
Modules
100
AcDbText
10
10.9223825398
20
-25.7644133222
1
DC
7
NewTextStyle_4
40
0.2624672000000003
50
90.57588195801094
0
LINE
8
Modules
10
8.8635300416
20
-22.2195558480
11
12.1871048698
21
-22.1861493519
62
254
0
LINE
8
Modules
10
12.1871048698
20
-22.1861493519
11
12.1179227199
21
-15.3032947110
62
254
0
LINE
8
Modules
10
12.1179227199
20
-15.3032947110
11
8.7943478918
21
-15.3367012071
62
254
0
LINE
8
Modules
10
8.7943478918
20
-15.3367012071
11
8.8635300416
21
-22.2195558480
62
254
0
LINE
8
Modules
10
10.9049325767
20
-19.1673876538
11
10.8966887550
21
-18.3472190836
62
254
0
LINE
8
Modules
10
10.8966887550
20
-18.3472190836
11
10.0765201848
21
-18.3554629052
62
254
0
LINE
8
Modules
10
10.0765201848
20
-18.3554629052
11
10.0847640065
21
-19.1756314754
62
254
0
LINE
8
Modules
10
10.0847640065
20
-19.1756314754
11
10.9049325767
21
-19.1673876538
62
254
0
LINE
8
Modules
10
10.9049325767
20
-19.1673876538
11
10.0765201848
21
-18.3554629052
62
254
0
TEXT
8
Modules
100
AcDbText
10
10.3959334339
20
-19.1232887090
1
DC
7
NewTextStyle_4
40
0.2624672000000003
50
90.57588195801094
0
TEXT
8
Modules
100
AcDbText
10
10.8524249338
20
-18.8398148550
1
DC
7
NewTextStyle_4
40
0.2624672000000003
50
90.57588195801094
0
LINE
8
Modules
10
8.9509770513
20
0.2817369590
11
12.2745518794
21
0.3151434551
62
254
0
LINE
8
Modules
10
12.2745518794
20
0.3151434551
11
12.2053697295
21
7.1979980960
62
254
0
LINE
8
Modules
10
12.2053697295
20
7.1979980960
11
8.8817949014
21
7.1645915999
62
254
0
LINE
8
Modules
10
8.8817949014
20
7.1645915999
11
8.9509770513
21
0.2817369590
62
254
0
LINE
8
Modules
10
10.9923795863
20
3.3339051533
11
10.9841357646
21
4.1540737234
62
254
0
LINE
8
Modules
10
10.9841357646
20
4.1540737234
11
10.1639671945
21
4.1458299018
62
254
0
LINE
8
Modules
10
10.1639671945
20
4.1458299018
11
10.1722110161
21
3.3256613316
62
254
0
LINE
8
Modules
10
10.1722110161
20
3.3256613316
11
10.9923795863
21
3.3339051533
62
254
0
LINE
8
Modules
10
10.9923795863
20
3.3339051533
11
10.1639671945
21
4.1458299018
62
254
0
TEXT
8
Modules
100
AcDbText
10
10.4833804435
20
3.3780040981
1
DC
7
NewTextStyle_4
40
0.2624672000000003
50
90.57588195801094
0
TEXT
8
Modules
100
AcDbText
10
10.9398719434
20
3.6614779520
1
DC
7
NewTextStyle_4
40
0.2624672000000003
50
90.57588195801094
0
LINE
8
Modules
10
8.8810194411
20
7.2063354262
11
12.2045942692
21
7.2397419223
62
254
0
LINE
8
Modules
10
12.2045942692
20
7.2397419223
11
12.1354121193
21
14.1225965633
62
254
0
LINE
8
Modules
10
12.1354121193
20
14.1225965633
11
8.8118372912
21
14.0891900672
62
254
0
LINE
8
Modules
10
8.8118372912
20
14.0891900672
11
8.8810194411
21
7.2063354262
62
254
0
LINE
8
Modules
10
10.9224219761
20
10.2585036205
11
10.9141781545
21
11.0786721907
62
254
0
LINE
8
Modules
10
10.9141781545
20
11.0786721907
11
10.0940095843
21
11.0704283690
62
254
0
LINE
8
Modules
10
10.0940095843
20
11.0704283690
11
10.1022534059
21
10.2502597988
62
254
0
LINE
8
Modules
10
10.1022534059
20
10.2502597988
11
10.9224219761
21
10.2585036205
62
254
0
LINE
8
Modules
10
10.9224219761
20
10.2585036205
11
10.0940095843
21
11.0704283690
62
254
0
TEXT
8
Modules
100
AcDbText
10
10.4134228333
20
10.3026025653
1
DC
7
NewTextStyle_4
40
0.2624672000000003
50
90.57588195801094
0
TEXT
8
Modules
100
AcDbText
10
10.8699143332
20
10.5860764193
1
DC
7
NewTextStyle_4
40
0.2624672000000003
50
90.57588195801094
0
LINE
8
Modules
10
-4.4707751959
20
6.9898218756
11
-7.7943500352
21
6.9564153829
62
254
0
LINE
8
Modules
10
-7.7943500352
20
6.9564153829
11
-7.7251678912
21
0.0735607419
62
254
0
LINE
8
Modules
10
-7.7251678912
20
0.0735607419
11
-4.4015930519
21
0.1069672346
62
254
0
LINE
8
Modules
10
-4.4015930519
20
0.1069672346
11
-4.4707751959
21
6.9898218756
62
254
0
LINE
8
Modules
10
-6.5121777390
20
3.9376536834
11
-6.5039339182
21
3.1174851132
62
254
0
LINE
8
Modules
10
-6.5039339182
20
3.1174851132
11
-5.6837653481
21
3.1257289340
62
254
0
LINE
8
Modules
10
-5.6837653481
20
3.1257289340
11
-5.6920091688
21
3.9458975042
62
254
0
LINE
8
Modules
10
-5.6920091688
20
3.9458975042
11
-6.5121777390
21
3.9376536834
62
254
0
LINE
8
Modules
10
-6.5121777390
20
3.9376536834
11
-5.6837653481
21
3.1257289340
62
254
0
TEXT
8
Modules
100
AcDbText
10
-6.0031785963
20
3.8935547381
1
DC
7
NewTextStyle_4
40
0.2624672000000003
50
-89.42411810265371
0
TEXT
8
Modules
100
AcDbText
10
-6.4596700965
20
3.6100808846
1
DC
7
NewTextStyle_4
40
0.2624672000000003
50
-89.42411810265371
0
LINE
8
Modules
10
19.0336173731
20
0.3803467494
11
22.3571922124
21
0.4137532421
62
254
0
LINE
8
Modules
10
22.3571922124
20
0.4137532421
11
22.2880100683
21
7.2966078831
62
254
0
LINE
8
Modules
10
22.2880100683
20
7.2966078831
11
18.9644352291
21
7.2632013904
62
254
0
LINE
8
Modules
10
18.9644352291
20
7.2632013904
11
19.0336173731
21
0.3803467494
62
254
0
LINE
8
Modules
10
21.0750199162
20
3.4325149415
11
21.0667760954
21
4.2526835117
62
254
0
LINE
8
Modules
10
21.0667760954
20
4.2526835117
11
20.2466075252
21
4.2444396909
62
254
0
LINE
8
Modules
10
20.2466075252
20
4.2444396909
11
20.2548513460
21
3.4242711207
62
254
0
LINE
8
Modules
10
20.2548513460
20
3.4242711207
11
21.0750199162
21
3.4325149415
62
254
0
LINE
8
Modules
10
21.0750199162
20
3.4325149415
11
20.2466075252
21
4.2444396909
62
254
0
TEXT
8
Modules
100
AcDbText
10
20.5660207734
20
3.4766138868
1
DC
7
NewTextStyle_4
40
0.2624672000000003
50
90.57588189733903
0
TEXT
8
Modules
100
AcDbText
10
21.0225122737
20
3.7600877403
1
DC
7
NewTextStyle_4
40
0.2624672000000003
50
90.57588189733903
0
LINE
8
Modules
10
-0.7397027425
20
-15.4420788577
11
-4.0632775817
21
-15.4754853504
62
254
0
LINE
8
Modules
10
-4.0632775817
20
-15.4754853504
11
-3.9940954377
21
-22.3583399913
62
254
0
LINE
8
Modules
10
-3.9940954377
20
-22.3583399913
11
-0.6705205984
21
-22.3249334987
62
254
0
LINE
8
Modules
10
-0.6705205984
20
-22.3249334987
11
-0.7397027425
21
-15.4420788577
62
254
0
LINE
8
Modules
10
-2.7811052856
20
-18.4942470498
11
-2.7728614648
21
-19.3144156200
62
254
0
LINE
8
Modules
10
-2.7728614648
20
-19.3144156200
11
-1.9526928946
21
-19.3061717992
62
254
0
LINE
8
Modules
10
-1.9526928946
20
-19.3061717992
11
-1.9609367154
21
-18.4860032290
62
254
0
LINE
8
Modules
10
-1.9609367154
20
-18.4860032290
11
-2.7811052856
21
-18.4942470498
62
254
0
LINE
8
Modules
10
-2.7811052856
20
-18.4942470498
11
-1.9526928946
21
-19.3061717992
62
254
0
TEXT
8
Modules
100
AcDbText
10
-2.2721061428
20
-18.5383459951
1
DC
7
NewTextStyle_4
40
0.2624672000000003
50
-89.42411810265371
0
TEXT
8
Modules
100
AcDbText
10
-2.7285976430
20
-18.8218198486
1
DC
7
NewTextStyle_4
40
0.2624672000000003
50
-89.42411810265371
0
LINE
8
Modules
10
22.3770080824
20
-29.0090223806
11
25.7005829216
21
-28.9756158879
62
254
0
LINE
8
Modules
10
25.7005829216
20
-28.9756158879
11
25.6314007776
21
-22.0927612469
62
254
0
LINE
8
Modules
10
25.6314007776
20
-22.0927612469
11
22.3078259384
21
-22.1261677396
62
254
0
LINE
8
Modules
10
22.3078259384
20
-22.1261677396
11
22.3770080824
21
-29.0090223806
62
254
0
LINE
8
Modules
10
24.4184106255
20
-25.9568541885
11
24.4101668047
21
-25.1366856183
62
254
0
LINE
8
Modules
10
24.4101668047
20
-25.1366856183
11
23.5899982345
21
-25.1449294391
62
254
0
LINE
8
Modules
10
23.5899982345
20
-25.1449294391
11
23.5982420553
21
-25.9650980093
62
254
0
LINE
8
Modules
10
23.5982420553
20
-25.9650980093
11
24.4184106255
21
-25.9568541885
62
254
0
LINE
8
Modules
10
24.4184106255
20
-25.9568541885
11
23.5899982345
21
-25.1449294391
62
254
0
TEXT
8
Modules
100
AcDbText
10
23.9094114827
20
-25.9127552432
1
DC
7
NewTextStyle_4
40
0.2624672000000003
50
90.57588189733903
0
TEXT
8
Modules
100
AcDbText
10
24.3659029830
20
-25.6292813897
1
DC
7
NewTextStyle_4
40
0.2624672000000003
50
90.57588189733903
0
LINE
8
Modules
10
-7.3915053539
20
-22.4360693987
11
-10.7150801931
21
-22.4694758914
62
254
0
LINE
8
Modules
10
-10.7150801931
20
-22.4694758914
11
-10.6458980491
21
-29.3523305324
62
254
0
LINE
8
Modules
10
-10.6458980491
20
-29.3523305324
11
-7.3223232098
21
-29.3189240397
62
254
0
LINE
8
Modules
10
-7.3223232098
20
-29.3189240397
11
-7.3915053539
21
-22.4360693987
62
254
0
LINE
8
Modules
10
-9.4329078970
20
-25.4882375908
11
-9.4246640762
21
-26.3084061610
62
254
0
LINE
8
Modules
10
-9.4246640762
20
-26.3084061610
11
-8.6044955060
21
-26.3001623402
62
254
0
LINE
8
Modules
10
-8.6044955060
20
-26.3001623402
11
-8.6127393268
21
-25.4799937700
62
254
0
LINE
8
Modules
10
-8.6127393268
20
-25.4799937700
11
-9.4329078970
21
-25.4882375908
62
254
0
LINE
8
Modules
10
-9.4329078970
20
-25.4882375908
11
-8.6044955060
21
-26.3001623402
62
254
0
TEXT
8
Modules
100
AcDbText
10
-8.9239087542
20
-25.5323365362
1
DC
7
NewTextStyle_4
40
0.2624672000000003
50
-89.42411810265371
0
TEXT
8
Modules
100
AcDbText
10
-9.3804002544
20
-25.8158103897
1
DC
7
NewTextStyle_4
40
0.2624672000000003
50
-89.42411810265371
0
LINE
8
Modules
10
-0.5298299160
20
-36.2158742619
11
-3.8534047553
21
-36.2492807546
62
254
0
LINE
8
Modules
10
-3.8534047553
20
-36.2492807546
11
-3.7842226113
21
-43.1321353956
62
254
0
LINE
8
Modules
10
-3.7842226113
20
-43.1321353956
11
-0.4606477720
21
-43.0987289029
62
254
0
LINE
8
Modules
10
-0.4606477720
20
-43.0987289029
11
-0.5298299160
21
-36.2158742619
62
254
0
LINE
8
Modules
10
-2.5712324591
20
-39.2680424541
11
-2.5629886384
21
-40.0882110242
62
254
0
LINE
8
Modules
10
-2.5629886384
20
-40.0882110242
11
-1.7428200682
21
-40.0799672035
62
254
0
LINE
8
Modules
10
-1.7428200682
20
-40.0799672035
11
-1.7510638890
21
-39.2597986333
62
254
0
LINE
8
Modules
10
-1.7510638890
20
-39.2597986333
11
-2.5712324591
21
-39.2680424541
62
254
0
LINE
8
Modules
10
-2.5712324591
20
-39.2680424541
11
-1.7428200682
21
-40.0799672035
62
254
0
TEXT
8
Modules
100
AcDbText
10
-2.0622333164
20
-39.3121413994
1
DC
7
NewTextStyle_4
40
0.2624672000000003
50
-89.42411810265371
0
TEXT
8
Modules
100
AcDbText
10
-2.5187248166
20
-39.5956152529
1
DC
7
NewTextStyle_4
40
0.2624672000000003
50
-89.42411810265371
0
LINE
8
Modules
10
15.7951630770
20
-42.9239591742
11
19.1187379163
21
-42.8905526815
62
254
0
LINE
8
Modules
10
19.1187379163
20
-42.8905526815
11
19.0495557722
21
-36.0076980405
62
254
0
LINE
8
Modules
10
19.0495557722
20
-36.0076980405
11
15.7259809330
21
-36.0411045332
62
254
0
LINE
8
Modules
10
15.7259809330
20
-36.0411045332
11
15.7951630770
21
-42.9239591742
62
254
0
LINE
8
Modules
10
17.8365656201
20
-39.8717909820
11
17.8283217993
21
-39.0516224119
62
254
0
LINE
8
Modules
10
17.8283217993
20
-39.0516224119
11
17.0081532291
21
-39.0598662326
62
254
0
LINE
8
Modules
10
17.0081532291
20
-39.0598662326
11
17.0163970499
21
-39.8800348028
62
254
0
LINE
8
Modules
10
17.0163970499
20
-39.8800348028
11
17.8365656201
21
-39.8717909820
62
254
0
LINE
8
Modules
10
17.8365656201
20
-39.8717909820
11
17.0081532291
21
-39.0598662326
62
254
0
TEXT
8
Modules
100
AcDbText
10
17.3275664774
20
-39.8276920367
1
DC
7
NewTextStyle_4
40
0.2624672000000003
50
90.57588189733903
0
TEXT
8
Modules
100
AcDbText
10
17.7840579776
20
-39.5442181832
1
DC
7
NewTextStyle_4
40
0.2624672000000003
50
90.57588189733903
0
LINE
8
Modules
10
-7.8316553088
20
6.9569519460
11
-11.1552301481
21
6.9235454533
62
254
0
LINE
8
Modules
10
-11.1552301481
20
6.9235454533
11
-11.0860480040
21
0.0406908123
62
254
0
LINE
8
Modules
10
-11.0860480040
20
0.0406908123
11
-7.7624731648
21
0.0740973050
62
254
0
LINE
8
Modules
10
-7.7624731648
20
0.0740973050
11
-7.8316553088
21
6.9569519460
62
254
0
LINE
8
Modules
10
-9.8730578519
20
3.9047837539
11
-9.8648140311
21
3.0846151837
62
254
0
LINE
8
Modules
10
-9.8648140311
20
3.0846151837
11
-9.0446454609
21
3.0928590045
62
254
0
LINE
8
Modules
10
-9.0446454609
20
3.0928590045
11
-9.0528892817
21
3.9130275746
62
254
0
LINE
8
Modules
10
-9.0528892817
20
3.9130275746
11
-9.8730578519
21
3.9047837539
62
254
0
LINE
8
Modules
10
-9.8730578519
20
3.9047837539
11
-9.0446454609
21
3.0928590045
62
254
0
TEXT
8
Modules
100
AcDbText
10
-9.3640587091
20
3.8606848085
1
DC
7
NewTextStyle_4
40
0.2624672000000003
50
-89.42411810265371
0
TEXT
8
Modules
100
AcDbText
10
-9.8205502094
20
3.5772109550
1
DC
7
NewTextStyle_4
40
0.2624672000000003
50
-89.42411810265371
0
LINE
8
Modules
10
22.3944974818
20
0.4168688936
11
25.7180723211
21
0.4502753863
62
254
0
LINE
8
Modules
10
25.7180723211
20
0.4502753863
11
25.6488901770
21
7.3331300273
62
254
0
LINE
8
Modules
10
25.6488901770
20
7.3331300273
11
22.3253153378
21
7.2997235346
62
254
0
LINE
8
Modules
10
22.3253153378
20
7.2997235346
11
22.3944974818
21
0.4168688936
62
254
0
LINE
8
Modules
10
24.4359000249
20
3.4690370858
11
24.4276562041
21
4.2892056559
62
254
0
LINE
8
Modules
10
24.4276562041
20
4.2892056559
11
23.6074876339
21
4.2809618352
62
254
0
LINE
8
Modules
10
23.6074876339
20
4.2809618352
11
23.6157314547
21
3.4607932650
62
254
0
LINE
8
Modules
10
23.6157314547
20
3.4607932650
11
24.4359000249
21
3.4690370858
62
254
0
LINE
8
Modules
10
24.4359000249
20
3.4690370858
11
23.6074876339
21
4.2809618352
62
254
0
TEXT
8
Modules
100
AcDbText
10
23.9269008822
20
3.5131360311
1
DC
7
NewTextStyle_4
40
0.2624672000000003
50
90.57588189733903
0
TEXT
8
Modules
100
AcDbText
10
24.3833923824
20
3.7966098846
1
DC
7
NewTextStyle_4
40
0.2624672000000003
50
90.57588189733903
0
LINE
8
Modules
10
15.5852902506
20
-22.1501637725
11
18.9088650899
21
-22.1167572798
62
254
0
LINE
8
Modules
10
18.9088650899
20
-22.1167572798
11
18.8396829458
21
-15.2339026388
62
254
0
LINE
8
Modules
10
18.8396829458
20
-15.2339026388
11
15.5161081066
21
-15.2673091315
62
254
0
LINE
8
Modules
10
15.5161081066
20
-15.2673091315
11
15.5852902506
21
-22.1501637725
62
254
0
LINE
8
Modules
10
17.6266927937
20
-19.0979955804
11
17.6184489729
21
-18.2778270102
62
254
0
LINE
8
Modules
10
17.6184489729
20
-18.2778270102
11
16.7982804027
21
-18.2860708310
62
254
0
LINE
8
Modules
10
16.7982804027
20
-18.2860708310
11
16.8065242235
21
-19.1062394012
62
254
0
LINE
8
Modules
10
16.8065242235
20
-19.1062394012
11
17.6266927937
21
-19.0979955804
62
254
0
LINE
8
Modules
10
17.6266927937
20
-19.0979955804
11
16.7982804027
21
-18.2860708310
62
254
0
TEXT
8
Modules
100
AcDbText
10
17.1176936509
20
-19.0538966351
1
DC
7
NewTextStyle_4
40
0.2624672000000003
50
90.57588189733903
0
TEXT
8
Modules
100
AcDbText
10
17.5741851512
20
-18.7704227816
1
DC
7
NewTextStyle_4
40
0.2624672000000003
50
90.57588189733903
0
LINE
8
Buildings
10
-6.6524463617
20
-41.6211754966
11
-6.6054565554
21
-46.2961391200
62
252
0
LINE
8
Buildings
10
-6.6054565554
20
-46.2961391200
11
7.6793499983
21
-46.1525571913
62
252
0
LINE
8
Buildings
10
7.6793499983
20
-46.1525571913
11
7.0261297163
21
18.8356028620
62
252
0
LINE
8
Buildings
10
7.0261297163
20
18.8356028620
11
3.9288182758
21
18.8199907752
62
252
0
LINE
8
Buildings
10
3.9288182758
20
18.8199907752
11
3.8917747628
21
26.1691234044
62
252
0
LINE
8
Buildings
10
3.8917747628
20
26.1691234044
11
6.9522627036
21
26.1845498813
62
252
0
LINE
8
Buildings
10
6.9522627036
20
26.1845498813
11
6.8395213317
21
37.4010637111
62
252
0
LINE
8
Buildings
10
6.8395213317
20
37.4010637111
11
-14.2860759446
21
37.1887224385
62
252
0
LINE
8
Buildings
10
-14.2860759446
20
37.1887224385
11
-13.4932370843
21
-41.6899348405
62
252
0
LINE
8
Buildings
10
-13.4932370843
20
-41.6899348405
11
-6.6524463617
21
-41.6211754966
62
252
0
LINE
8
Buildings
10
-13.4715960779
20
-9.8939552065
11
0.9766284696
21
-9.7487307024
62
252
0
LINE
8
Buildings
10
0.9766284696
20
-9.7487307024
11
-11.0207824586
21
-0.6518103036
62
252
0
LINE
8
Buildings
10
-11.0207824586
20
-0.6518103036
11
-13.5642353646
21
-0.6773754992
62
252
0
LINE
8
Buildings
10
-13.5642353646
20
-0.6773754992
11
-13.4715960779
21
-9.8939552065
62
252
0
LINE
8
Buildings
10
3.9288182758
20
18.8199907752
11
10.3815548776
21
18.8525159784
62
252
0
LINE
8
Buildings
10
10.3815548776
20
18.8525159784
11
7.1389239751
21
22.0626216777
62
252
0
LINE
8
Buildings
10
7.1389239751
20
22.0626216777
11
3.9288182758
21
18.8199907752
62
252
0
LINE
8
Buildings
10
7.1344056653
20
22.9590177051
11
7.1389239751
21
22.0626216777
62
252
0
LINE
8
Buildings
10
7.1389239751
20
22.0626216777
11
10.3815548776
21
18.8525159784
62
252
0
LINE
8
Buildings
10
10.3815548776
20
18.8525159784
11
10.3445113646
21
26.2016486076
62
252
0
LINE
8
Buildings
10
10.3445113646
20
26.2016486076
11
7.1344056653
21
22.9590177051
62
252
0
LINE
8
Buildings
10
10.3445113646
20
26.2016486076
11
3.8917747628
21
26.1691234044
62
252
0
LINE
8
Buildings
10
3.8917747628
20
26.1691234044
11
7.1344056653
21
22.9590177051
62
252
0
LINE
8
Buildings
10
7.1344056653
20
22.9590177051
11
10.3445113646
21
26.2016486076
62
252
0
LINE
8
Buildings
10
3.8917747628
20
26.1691234044
11
3.9288182758
21
18.8199907752
62
252
0
LINE
8
Buildings
10
3.9288182758
20
18.8199907752
11
7.1389239751
21
22.0626216777
62
252
0
LINE
8
Buildings
10
7.1389239751
20
22.0626216777
11
7.1344056653
21
22.9590177051
62
252
0
LINE
8
Buildings
10
7.1344056653
20
22.9590177051
11
3.8917747628
21
26.1691234044
62
252
0
LINE
8
Buildings
10
0.9766284696
20
-9.7487307024
11
-13.4715960779
21
-9.8939552065
62
252
0
LINE
8
Buildings
10
-13.4715960779
20
-9.8939552065
11
-13.3789567911
21
-19.1105349137
62
252
0
LINE
8
Buildings
10
-13.3789567911
20
-19.1105349137
11
-10.8355038851
21
-19.0849697181
62
252
0
LINE
8
Buildings
10
-10.8355038851
20
-19.0849697181
11
0.9766284696
21
-9.7487307024
62
252
0
LINE
8
Buildings
10
21.3761552373
20
-41.3394495480
11
28.7579574682
21
-41.2652522953
62
252
0
LINE
8
Buildings
10
28.7579574682
20
-41.2652522953
11
27.9651186079
21
37.6134049837
62
252
0
LINE
8
Buildings
10
27.9651186079
20
37.6134049837
11
6.8395213317
21
37.4010637111
62
252
0
LINE
8
Buildings
10
6.8395213317
20
37.4010637111
11
6.9522627036
21
26.1845498813
62
252
0
LINE
8
Buildings
10
6.9522627036
20
26.1845498813
11
10.3445113646
21
26.2016486076
62
252
0
LINE
8
Buildings
10
10.3445113646
20
26.2016486076
11
10.3815548776
21
18.8525159784
62
252
0
LINE
8
Buildings
10
10.3815548776
20
18.8525159784
11
7.0261297163
21
18.8356028620
62
252
0
LINE
8
Buildings
10
7.0261297163
20
18.8356028620
11
7.6793499983
21
-46.1525571913
62
252
0
LINE
8
Buildings
10
7.6793499983
20
-46.1525571913
11
21.4231450436
21
-46.0144131714
62
252
0
LINE
8
Buildings
10
21.4231450436
20
-46.0144131714
11
21.3761552373
21
-41.3394495480
62
252
0
LINE
8
Buildings
10
28.0783294526
20
-10.2195757529
11
13.6301049051
21
-10.3648002570
62
252
0
LINE
8
Buildings
10
13.6301049051
20
-10.3648002570
11
25.6275158333
21
-19.4617206558
62
252
0
LINE
8
Buildings
10
25.6275158333
20
-19.4617206558
11
28.1709687393
21
-19.4361554602
62
252
0
LINE
8
Buildings
10
28.1709687393
20
-19.4361554602
11
28.0783294526
21
-10.2195757529
62
252
0
LINE
8
Buildings
10
13.6301049051
20
-10.3648002570
11
28.0783294526
21
-10.2195757529
62
252
0
LINE
8
Buildings
10
28.0783294526
20
-10.2195757529
11
27.9856901658
21
-1.0029960457
62
252
0
LINE
8
Buildings
10
27.9856901658
20
-1.0029960457
11
25.4422372598
21
-1.0285612413
62
252
0
LINE
8
Buildings
10
25.4422372598
20
-1.0285612413
11
13.6301049051
21
-10.3648002570
62
252
0
LINE
8
Setbacks
10
-13.4906157712
20
-38.6864757854
11
-6.6826319423
21
-38.6180463490
62
2
0
LINE
8
Setbacks
10
-6.6826319423
20
-38.6180463490
11
-6.6820592286
21
-38.6180908846
62
2
0
LINE
8
Setbacks
10
-6.6820592286
20
-38.6180908846
11
-5.8516986377
21
-38.7565823589
62
2
0
LINE
8
Setbacks
10
-5.8516986377
20
-38.7565823589
11
-5.8511548419
21
-38.7567217469
62
2
0
LINE
8
Setbacks
10
-5.8511548419
20
-38.7567217469
11
-5.8506427696
21
-38.7569518008
62
2
0
LINE
8
Setbacks
10
-5.8506427696
20
-38.7569518008
11
-5.0986122337
21
-39.1755328509
62
2
0
LINE
8
Setbacks
10
-5.0986122337
20
-39.1755328509
11
-5.0981716852
21
-39.1758270036
62
2
0
LINE
8
Setbacks
10
-5.0981716852
20
-39.1758270036
11
-5.0977842180
21
-39.1761882210
62
2
0
LINE
8
Setbacks
10
-5.0977842180
20
-39.1761882210
11
-4.4976975846
21
-39.8338854205
62
2
0
LINE
8
Setbacks
10
-4.4976975846
20
-39.8338854205
11
-4.4973924473
21
-39.8342752694
62
2
0
LINE
8
Setbacks
10
-4.4973924473
20
-39.8342752694
11
-4.4971494429
21
-39.8347065927
62
2
0
LINE
8
Setbacks
10
-4.4971494429
20
-39.8347065927
11
-4.1077475276
21
-40.6671396902
62
2
0
LINE
8
Setbacks
10
-4.1077475276
20
-40.6671396902
11
-4.1074756534
21
-40.6680371762
62
2
0
LINE
8
Setbacks
10
-4.1074756534
20
-40.6680371762
11
-3.9668755833
21
-41.5937219171
62
2
0
LINE
8
Setbacks
10
-3.9668755833
20
-41.5937219171
11
-3.9668663356
21
-41.5946419548
62
2
0
LINE
8
Setbacks
10
-3.9668663356
20
-41.5946419548
11
-4.0888309065
21
-42.5229654753
62
2
0
LINE
8
Setbacks
10
-4.0888309065
20
-42.5229654753
11
-4.0890846860
21
-42.5238682460
62
2
0
LINE
8
Setbacks
10
-4.0890846860
20
-42.5238682460
11
-4.4203326275
21
-43.2707429417
62
2
0
LINE
8
Setbacks
10
-4.4203326275
20
-43.2707429417
11
6.3047200169
21
-43.1629416744
62
2
0
LINE
8
Setbacks
10
6.3047200169
20
-43.1629416744
11
5.7118035002
21
15.8256665086
62
2
0
LINE
8
Setbacks
10
5.7118035002
20
15.8256665086
11
3.9469697471
21
15.8167708890
62
2
0
LINE
8
Setbacks
10
3.9469697471
20
15.8167708890
11
3.9463973649
21
15.8168182763
62
2
0
LINE
8
Setbacks
10
3.9463973649
20
15.8168182763
11
3.1165915640
21
15.9594675591
62
2
0
LINE
8
Setbacks
10
3.1165915640
20
15.9594675591
11
3.1160488046
21
15.9596095338
62
2
0
LINE
8
Setbacks
10
3.1160488046
20
15.9596095338
11
3.1155381691
21
15.9598419044
62
2
0
LINE
8
Setbacks
10
3.1155381691
20
15.9598419044
11
2.3651844706
21
16.3821824691
62
2
0
LINE
8
Setbacks
10
2.3651844706
20
16.3821824691
11
2.3647457278
21
16.3824783969
62
2
0
LINE
8
Setbacks
10
2.3647457278
20
16.3824783969
11
2.3643602718
21
16.3828410155
62
2
0
LINE
8
Setbacks
10
2.3643602718
20
16.3828410155
11
1.7669084811
21
17.0435316534
62
2
0
LINE
8
Setbacks
10
1.7669084811
20
17.0435316534
11
1.7666053289
21
17.0439224823
62
2
0
LINE
8
Setbacks
10
1.7666053289
20
17.0439224823
11
1.7663643756
21
17.0443544429
62
2
0
LINE
8
Setbacks
10
1.7663643756
20
17.0443544429
11
1.3802971060
21
17.8787215956
62
2
0
LINE
8
Setbacks
10
1.3802971060
20
17.8787215956
11
1.3800290556
21
17.8796197169
62
2
0
LINE
8
Setbacks
10
1.3800290556
20
17.8796197169
11
1.2431373189
21
18.8059901534
62
2
0
LINE
8
Setbacks
10
1.2431373189
20
18.8059901534
11
1.2431317752
21
18.8069102253
62
2
0
LINE
8
Setbacks
10
1.2431317752
20
18.8069102253
11
1.3688155062
21
19.7346041527
62
2
0
LINE
8
Setbacks
10
1.3688155062
20
19.7346041527
11
1.3690731249
21
19.7355063541
62
2
0
LINE
8
Setbacks
10
1.3690731249
20
19.7355063541
11
1.7450295018
21
20.5737147143
62
2
0
LINE
8
Setbacks
10
1.7450295018
20
20.5737147143
11
1.7452658519
21
20.5741502297
62
2
0
LINE
8
Setbacks
10
1.7452658519
20
20.5741502297
11
1.7455650957
21
20.5745451831
62
2
0
LINE
8
Setbacks
10
1.7455650957
20
20.5745451831
11
2.3349929360
21
21.2412184328
62
2
0
LINE
8
Setbacks
10
2.3349929360
20
21.2412184328
11
2.3353750998
21
21.2415859922
62
2
0
LINE
8
Setbacks
10
2.3353750998
20
21.2415859922
11
2.3358114816
21
21.2418871897
62
2
0
LINE
8
Setbacks
10
2.3358114816
20
21.2418871897
11
2.5713920916
21
21.3777848451
62
2
0
LINE
8
Setbacks
10
2.5713920916
20
21.3777848451
11
2.5601875578
21
23.6007067161
62
2
0
LINE
8
Setbacks
10
2.5601875578
20
23.6007067161
11
2.3281408361
21
23.7313152492
62
2
0
LINE
8
Setbacks
10
2.3281408361
20
23.7313152492
11
2.3277020925
21
23.7316111771
62
2
0
LINE
8
Setbacks
10
2.3277020925
20
23.7316111771
11
2.3273166360
21
23.7319737960
62
2
0
LINE
8
Setbacks
10
2.3273166360
20
23.7319737960
11
1.7298648453
21
24.3926641058
62
2
0
LINE
8
Setbacks
10
1.7298648453
20
24.3926641058
11
1.7295616926
21
24.3930549352
62
2
0
LINE
8
Setbacks
10
1.7295616926
20
24.3930549352
11
1.7293207390
21
24.3934868964
62
2
0
LINE
8
Setbacks
10
1.7293207390
20
24.3934868964
11
1.3432534694
21
25.2278543772
62
2
0
LINE
8
Setbacks
10
1.3432534694
20
25.2278543772
11
1.3429854192
21
25.2287524980
62
2
0
LINE
8
Setbacks
10
1.3429854192
20
25.2287524980
11
1.2060936826
21
26.1551229345
62
2
0
LINE
8
Setbacks
10
1.2060936826
20
26.1551229345
11
1.2060881388
21
26.1560430064
62
2
0
LINE
8
Setbacks
10
1.2060881388
20
26.1560430064
11
1.3317718699
21
27.0837369338
62
2
0
LINE
8
Setbacks
10
1.3317718699
20
27.0837369338
11
1.3320294886
21
27.0846391352
62
2
0
LINE
8
Setbacks
10
1.3320294886
20
27.0846391352
11
1.7079858654
21
27.9228474954
62
2
0
LINE
8
Setbacks
10
1.7079858654
20
27.9228474954
11
1.7082222158
21
27.9232830111
62
2
0
LINE
8
Setbacks
10
1.7082222158
20
27.9232830111
11
1.7085214598
21
27.9236779648
62
2
0
LINE
8
Setbacks
10
1.7085214598
20
27.9236779648
11
2.2979493002
21
28.5903508864
62
2
0
LINE
8
Setbacks
10
2.2979493002
20
28.5903508864
11
2.2983314637
21
28.5907184455
62
2
0
LINE
8
Setbacks
10
2.2983314637
20
28.5907184455
11
2.2987678453
21
28.5910196427
62
2
0
LINE
8
Setbacks
10
2.2987678453
20
28.5910196427
11
3.0439699688
21
29.0208989216
62
2
0
LINE
8
Setbacks
10
3.0439699688
20
29.0208989216
11
3.0444787834
21
29.0211369224
62
2
0
LINE
8
Setbacks
10
3.0444787834
20
29.0211369224
11
3.0450207398
21
29.0212846384
62
2
0
LINE
8
Setbacks
10
3.0450207398
20
29.0212846384
11
3.8730512781
21
29.1722902206
62
2
0
LINE
8
Setbacks
10
3.8730512781
20
29.1722902206
11
3.8736233509
21
29.1723434115
62
2
0
LINE
8
Setbacks
10
3.8736233509
20
29.1723434115
11
5.5775646444
21
29.1809321069
62
2
0
LINE
8
Setbacks
10
5.5775646444
20
29.1809321069
11
5.5252626484
21
34.3844207186
62
2
0
LINE
8
Setbacks
10
5.5252626484
20
34.3844207186
11
-14.2230836037
21
34.1859228761
62
2
0
LINE
8
Setbacks
10
-13.3487712575
20
-22.1136642558
11
-13.3493439727
21
-22.1136197200
62
2
0
LINE
8
Setbacks
10
-13.3493439727
20
-22.1136197200
11
-13.6577127239
21
-22.0621883965
62
2
0
LINE
8
Setbacks
10
-13.9022653688
20
2.2680784709
11
-13.5949925811
21
2.3256978070
62
2
0
LINE
8
Setbacks
10
-13.5949925811
20
2.3256978070
11
-13.5944208772
21
2.3257538457
62
2
0
LINE
8
Setbacks
10
-13.5944208772
20
2.3257538457
11
-11.0509680399
21
2.3513188072
62
2
0
LINE
8
Setbacks
10
-11.0509680399
20
2.3513188072
11
-11.0503953264
21
2.3512742715
62
2
0
LINE
8
Setbacks
10
-11.0503953264
20
2.3512742715
11
-10.2200347355
21
2.2127827973
62
2
0
LINE
8
Setbacks
10
-10.2200347355
20
2.2127827973
11
-10.2194909397
21
2.2126434093
62
2
0
LINE
8
Setbacks
10
-10.2194909397
20
2.2126434093
11
-10.2189788674
21
2.2124133554
62
2
0
LINE
8
Setbacks
10
-10.2189788674
20
2.2124133554
11
-9.4669483315
21
1.7938323053
62
2
0
LINE
8
Setbacks
10
-9.4669483315
20
1.7938323053
11
-9.4665077830
21
1.7935381526
62
2
0
LINE
8
Setbacks
10
-9.4665077830
20
1.7935381526
11
-9.4661203158
21
1.7931769352
62
2
0
LINE
8
Setbacks
10
-9.4661203158
20
1.7931769352
11
-8.8660336824
21
1.1354797357
62
2
0
LINE
8
Setbacks
10
-8.8660336824
20
1.1354797357
11
-8.8657285451
21
1.1350898868
62
2
0
LINE
8
Setbacks
10
-8.8657285451
20
1.1350898868
11
-8.8654855407
21
1.1346585635
62
2
0
LINE
8
Setbacks
10
-8.8654855407
20
1.1346585635
11
-8.4760836254
21
0.3022254660
62
2
0
LINE
8
Setbacks
10
-8.4760836254
20
0.3022254660
11
-8.4758117513
21
0.3013279802
62
2
0
LINE
8
Setbacks
10
-8.4758117513
20
0.3013279802
11
-8.3352116811
21
-0.6243564326
62
2
0
LINE
8
Setbacks
10
-8.3352116811
20
-0.6243564326
11
-8.3352024335
21
-0.6252764714
62
2
0
LINE
8
Setbacks
10
-8.3352024335
20
-0.6252764714
11
-8.3648796539
21
-0.8511617876
62
2
0
LINE
8
Setbacks
10
-8.3648796539
20
-0.8511617876
11
1.7295731986
21
-8.5051825648
62
2
0
LINE
8
Setbacks
10
1.7295731986
20
-8.5051825648
11
1.7299636629
21
-8.5055310112
62
2
0
LINE
8
Setbacks
10
1.7299636629
20
-8.5055310112
11
1.7522119174
21
-8.5288287087
62
2
0
LINE
8
Setbacks
10
1.7522119174
20
-8.5288287087
11
1.7791649203
21
-8.5446973211
62
2
0
LINE
8
Setbacks
10
1.7791649203
20
-8.5446973211
11
1.7795962067
21
-8.5450003801
62
2
0
LINE
8
Setbacks
10
1.7795962067
20
-8.5450003801
11
1.7799733928
21
-8.5453685964
62
2
0
LINE
8
Setbacks
10
1.7799733928
20
-8.5453685964
11
1.9054343488
21
-8.6892797122
62
2
0
LINE
8
Setbacks
10
1.9054343488
20
-8.6892797122
11
2.0366218156
21
-8.8266560282
62
2
0
LINE
8
Setbacks
10
2.0366218156
20
-8.8266560282
11
2.0369370614
21
-8.8270407348
62
2
0
LINE
8
Setbacks
10
2.0369370614
20
-8.8270407348
11
2.0371905314
21
-8.8274686741
62
2
0
LINE
8
Setbacks
10
2.0371905314
20
-8.8274686741
11
2.0519477830
21
-8.8573391912
62
2
0
LINE
8
Setbacks
10
2.0519477830
20
-8.8573391912
11
2.0732460390
21
-8.8817695247
62
2
0
LINE
8
Setbacks
10
2.0732460390
20
-8.8817695247
11
2.0735410712
21
-8.8821642682
62
2
0
LINE
8
Setbacks
10
2.0735410712
20
-8.8821642682
11
2.0737736480
21
-8.8825987499
62
2
0
LINE
8
Setbacks
10
2.0737736480
20
-8.8825987499
11
2.1534189709
21
-9.0627294491
62
2
0
LINE
8
Setbacks
10
2.1534189709
20
-9.0627294491
11
2.2403211171
21
-9.2386307643
62
2
0
LINE
8
Setbacks
10
2.2403211171
20
-9.2386307643
11
2.2406125157
21
-9.2395248630
62
2
0
LINE
8
Setbacks
10
2.2406125157
20
-9.2395248630
11
2.2464091496
21
-9.2730427526
62
2
0
LINE
8
Setbacks
10
2.2464091496
20
-9.2730427526
11
2.2599435983
21
-9.3036528903
62
2
0
LINE
8
Setbacks
10
2.2599435983
20
-9.3036528903
11
2.2601960355
21
-9.3045535092
62
2
0
LINE
8
Setbacks
10
2.2601960355
20
-9.3045535092
11
2.2862263411
21
-9.5032722479
62
2
0
LINE
8
Setbacks
10
2.2862263411
20
-9.5032722479
11
2.3203320043
21
-9.7004769650
62
2
0
LINE
8
Setbacks
10
2.3203320043
20
-9.7004769650
11
2.3203601144
21
-9.7013967070
62
2
0
LINE
8
Setbacks
10
2.3203601144
20
-9.7013967070
11
2.3166149570
21
-9.7352613880
62
2
0
LINE
8
Setbacks
10
2.3166149570
20
-9.7352613880
11
2.3210401987
21
-9.7690450031
62
2
0
LINE
8
Setbacks
10
2.3210401987
20
-9.7690450031
11
2.3210305818
21
-9.7699651231
62
2
0
LINE
8
Setbacks
10
2.3210305818
20
-9.7699651231
11
2.2908953688
21
-9.9678185739
62
2
0
LINE
8
Setbacks
10
2.2908953688
20
-9.9678185739
11
2.2688650331
21
-10.1670174660
62
2
0
LINE
8
Setbacks
10
2.2688650331
20
-10.1670174660
11
2.2686307554
21
-10.1679229643
62
2
0
LINE
8
Setbacks
10
2.2686307554
20
-10.1679229643
11
2.2557144950
21
-10.1987989339
62
2
0
LINE
8
Setbacks
10
2.2557144950
20
-10.1987989339
11
2.2505925870
21
-10.2324267548
62
2
0
LINE
8
Setbacks
10
2.2505925870
20
-10.2324267548
11
2.2503192201
21
-10.2333265190
62
2
0
LINE
8
Setbacks
10
2.2503192201
20
-10.2333265190
11
2.1669702724
21
-10.4109388374
62
2
0
LINE
8
Setbacks
10
2.1669702724
20
-10.4109388374
11
2.0909617844
21
-10.5926342687
62
2
0
LINE
8
Setbacks
10
2.0909617844
20
-10.5926342687
11
2.0907379898
21
-10.5930733350
62
2
0
LINE
8
Setbacks
10
2.0907379898
20
-10.5930733350
11
2.0904509544
21
-10.5934739270
62
2
0
LINE
8
Setbacks
10
2.0904509544
20
-10.5934739270
11
2.0696478256
21
-10.6183278387
62
2
0
LINE
8
Setbacks
10
2.0696478256
20
-10.6183278387
11
2.0554940803
21
-10.6484886107
62
2
0
LINE
8
Setbacks
10
2.0554940803
20
-10.6484886107
11
2.0552492648
21
-10.6489215553
62
2
0
LINE
8
Setbacks
10
2.0552492648
20
-10.6489215553
11
2.0549418177
21
-10.6493125181
62
2
0
LINE
8
Setbacks
10
2.0549418177
20
-10.6493125181
11
1.9265432842
21
-10.7892970652
62
2
0
LINE
8
Setbacks
10
1.9265432842
20
-10.7892970652
11
1.8039994974
21
-10.9357019614
62
2
0
LINE
8
Setbacks
10
1.8039994974
20
-10.9357019614
11
1.8036297929
21
-10.9360776815
62
2
0
LINE
8
Setbacks
10
1.8036297929
20
-10.9360776815
11
1.8032046905
21
-10.9363893462
62
2
0
LINE
8
Setbacks
10
1.8032046905
20
-10.9363893462
11
1.7765760162
21
-10.9527966943
62
2
0
LINE
8
Setbacks
10
1.7765760162
20
-10.9527966943
11
1.7548007200
21
-10.9765366229
62
2
0
LINE
8
Setbacks
10
1.7548007200
20
-10.9765366229
11
1.7544173429
21
-10.9768928430
62
2
0
LINE
8
Setbacks
10
1.7544173429
20
-10.9768928430
11
-8.1841445904
21
-18.8322730906
62
2
0
LINE
8
Setbacks
10
-8.1841445904
20
-18.8322730906
11
-8.1499328042
21
-19.0575158125
62
2
0
LINE
8
Setbacks
10
-8.1499328042
20
-19.0575158125
11
-8.1499235562
21
-19.0584358540
62
2
0
LINE
8
Setbacks
10
-8.1499235562
20
-19.0584358540
11
-8.2718884551
21
-19.9867597026
62
2
0
LINE
8
Setbacks
10
-8.2718884551
20
-19.9867597026
11
-8.2721422344
21
-19.9876624719
62
2
0
LINE
8
Setbacks
10
-8.2721422344
20
-19.9876624719
11
-8.6447331255
21
-20.8277546904
62
2
0
LINE
8
Setbacks
10
-8.6447331255
20
-20.8277546904
11
-8.6449674108
21
-20.8281908110
62
2
0
LINE
8
Setbacks
10
-8.6449674108
20
-20.8281908110
11
-8.6452646502
21
-20.8285867144
62
2
0
LINE
8
Setbacks
10
-8.6452646502
20
-20.8285867144
11
-9.2320097477
21
-21.4982130482
62
2
0
LINE
8
Setbacks
10
-9.2320097477
20
-21.4982130482
11
-9.2323898759
21
-21.4985819809
62
2
0
LINE
8
Setbacks
10
-9.2323898759
20
-21.4985819809
11
-9.2328244227
21
-21.4988849295
62
2
0
LINE
8
Setbacks
10
-9.2328244227
20
-21.4988849295
11
-9.9762893415
21
-21.9324978043
62
2
0
LINE
8
Setbacks
10
-9.9762893415
20
-21.9324978043
11
-9.9767966858
21
-21.9327381045
62
2
0
LINE
8
Setbacks
10
-9.9767966858
20
-21.9327381045
11
-9.9773375696
21
-21.9328883951
62
2
0
LINE
8
Setbacks
10
-9.9773375696
20
-21.9328883951
11
-10.8047467168
21
-22.0880429276
62
2
0
LINE
8
Setbacks
10
-10.8047467168
20
-22.0880429276
11
-10.8053184202
21
-22.0880989663
62
2
0
LINE
8
Setbacks
10
-10.8053184202
20
-22.0880989663
11
-13.3487712575
21
-22.1136642558
62
2
0
LINE
8
Setbacks
10
-10.4811588044
20
-8.6010599854
11
-2.8851477263
21
-8.5247097584
62
2
0
LINE
8
Setbacks
10
-2.8851477263
20
-8.5247097584
11
-10.5402685731
21
-2.7202884780
62
2
0
LINE
8
Setbacks
10
-10.5402685731
20
-2.7202884780
11
-10.4811588044
21
-8.6010599854
62
2
0
LINE
8
Setbacks
10
8.2856187799
20
18.8747602688
11
7.1493221721
21
19.9996591192
62
2
0
LINE
8
Setbacks
10
7.1493221721
20
19.9996591192
11
6.0244232929
21
18.8633626560
62
2
0
LINE
8
Setbacks
10
10.3222672581
20
24.1057126044
11
8.7514293996
21
22.5189588188
62
2
0
LINE
8
Setbacks
10
8.7514293996
20
22.5189588188
11
10.3381832064
21
20.9481211400
62
2
0
LINE
8
Setbacks
10
5.9877107451
20
26.1468792952
11
7.1240073529
21
25.0219804449
62
2
0
LINE
8
Setbacks
10
7.1240073529
20
25.0219804449
11
8.2489062321
21
26.1582769080
62
2
0
LINE
8
Setbacks
10
3.9510625950
20
20.9159266315
11
5.5219004536
21
22.5026804173
62
2
0
LINE
8
Setbacks
10
5.5219004536
20
22.5026804173
11
3.9351466456
21
24.0735182979
62
2
0
LINE
8
Setbacks
10
-10.4557746119
20
-11.1264793542
11
-10.3966651707
21
-17.0072505335
62
2
0
LINE
8
Setbacks
10
-10.3966651707
20
-17.0072505335
11
-2.8597638621
21
-11.0501291272
62
2
0
LINE
8
Setbacks
10
-2.8597638621
20
-11.0501291272
11
-10.4557746119
21
-11.1264793542
62
2
0
LINE
8
Setbacks
10
27.9624974679
20
34.6099461264
11
8.2141511828
21
34.4114479561
62
2
0
LINE
8
Setbacks
10
8.2141511828
20
34.4114479561
11
8.2665890074
21
29.1944861791
62
2
0
LINE
8
Setbacks
10
8.2665890074
20
29.1944861791
11
10.3263597775
21
29.2048686750
62
2
0
LINE
8
Setbacks
10
10.3263597775
20
29.2048686750
11
10.3269321601
21
29.2048212877
62
2
0
LINE
8
Setbacks
10
10.3269321601
20
29.2048212877
11
11.1567379610
21
29.0621720050
62
2
0
LINE
8
Setbacks
10
11.1567379610
20
29.0621720050
11
11.1572807209
21
29.0620300300
62
2
0
LINE
8
Setbacks
10
11.1572807209
20
29.0620300300
11
11.1577913568
21
29.0617976591
62
2
0
LINE
8
Setbacks
10
11.1577913568
20
29.0617976591
11
11.9081450553
21
28.6394567663
62
2
0
LINE
8
Setbacks
10
11.9081450553
20
28.6394567663
11
11.9085837970
21
28.6391608393
62
2
0
LINE
8
Setbacks
10
11.9085837970
20
28.6391608393
11
11.9089692520
21
28.6387982218
62
2
0
LINE
8
Setbacks
10
11.9089692520
20
28.6387982218
11
12.5064213709
21
27.9781079119
62
2
0
LINE
8
Setbacks
10
12.5064213709
20
27.9781079119
11
12.5067245238
21
27.9777170822
62
2
0
LINE
8
Setbacks
10
12.5067245238
20
27.9777170822
11
12.5069654777
21
27.9772851207
62
2
0
LINE
8
Setbacks
10
12.5069654777
20
27.9772851207
11
12.8930327473
21
27.1429176399
62
2
0
LINE
8
Setbacks
10
12.8930327473
20
27.1429176399
11
12.8933007975
21
27.1420195190
62
2
0
LINE
8
Setbacks
10
12.8933007975
20
27.1420195190
11
13.0301925342
21
26.2156490826
62
2
0
LINE
8
Setbacks
10
13.0301925342
20
26.2156490826
11
13.0301980779
21
26.2147290106
62
2
0
LINE
8
Setbacks
10
13.0301980779
20
26.2147290106
11
12.9045143469
21
25.2870350833
62
2
0
LINE
8
Setbacks
10
12.9045143469
20
25.2870350833
11
12.9042567281
21
25.2861328818
62
2
0
LINE
8
Setbacks
10
12.9042567281
20
25.2861328818
11
12.5283003513
21
24.4479245217
62
2
0
LINE
8
Setbacks
10
12.5283003513
20
24.4479245217
11
12.5280640010
21
24.4474890060
62
2
0
LINE
8
Setbacks
10
12.5280640010
20
24.4474890060
11
12.5277647569
21
24.4470940523
62
2
0
LINE
8
Setbacks
10
12.5277647569
20
24.4470940523
11
11.9383369165
21
23.7804211307
62
2
0
LINE
8
Setbacks
10
11.9383369165
20
23.7804211307
11
11.9379547522
21
23.7800535710
62
2
0
LINE
8
Setbacks
10
11.9379547522
20
23.7800535710
11
11.9375183697
21
23.7797523734
62
2
0
LINE
8
Setbacks
10
11.9375183697
20
23.7797523734
11
11.7019374337
21
23.6438547178
62
2
0
LINE
8
Setbacks
10
11.7019374337
20
23.6438547178
11
11.7131422950
21
21.4209328468
62
2
0
LINE
8
Setbacks
10
11.7131422950
20
21.4209328468
11
11.9451886906
21
21.2903243139
62
2
0
LINE
8
Setbacks
10
11.9451886906
20
21.2903243139
11
11.9456274335
21
21.2900283861
62
2
0
LINE
8
Setbacks
10
11.9456274335
20
21.2900283861
11
11.9460128895
21
21.2896657675
62
2
0
LINE
8
Setbacks
10
11.9460128895
20
21.2896657675
11
12.5434646803
21
20.6289751295
62
2
0
LINE
8
Setbacks
10
12.5434646803
20
20.6289751295
11
12.5437678325
21
20.6285843006
62
2
0
LINE
8
Setbacks
10
12.5437678325
20
20.6285843006
11
12.5440087858
21
20.6281523400
62
2
0
LINE
8
Setbacks
10
12.5440087858
20
20.6281523400
11
12.9300760553
21
19.7937851873
62
2
0
LINE
8
Setbacks
10
12.9300760553
20
19.7937851873
11
12.9303441058
21
19.7928870660
62
2
0
LINE
8
Setbacks
10
12.9303441058
20
19.7928870660
11
13.0672358424
21
18.8665166295
62
2
0
LINE
8
Setbacks
10
13.0672358424
20
18.8665166295
11
13.0672413862
21
18.8655965578
62
2
0
LINE
8
Setbacks
10
13.0672413862
20
18.8655965578
11
12.9415576551
21
17.9379023024
62
2
0
LINE
8
Setbacks
10
12.9415576551
20
17.9379023024
11
12.9413000364
21
17.9370001007
62
2
0
LINE
8
Setbacks
10
12.9413000364
20
17.9370001007
11
12.5653436595
21
17.0987917406
62
2
0
LINE
8
Setbacks
10
12.5653436595
20
17.0987917406
11
12.5651073092
21
17.0983562248
62
2
0
LINE
8
Setbacks
10
12.5651073092
20
17.0983562248
11
12.5648080652
21
17.0979612712
62
2
0
LINE
8
Setbacks
10
12.5648080652
20
17.0979612712
11
11.9753802248
21
16.4312883496
62
2
0
LINE
8
Setbacks
10
11.9753802248
20
16.4312883496
11
11.9749980611
21
16.4309207904
62
2
0
LINE
8
Setbacks
10
11.9749980611
20
16.4309207904
11
11.9745616793
21
16.4306195930
62
2
0
LINE
8
Setbacks
10
11.9745616793
20
16.4306195930
11
11.2293598838
21
16.0007406422
62
2
0
LINE
8
Setbacks
10
11.2293598838
20
16.0007406422
11
11.2288510700
21
16.0005026418
62
2
0
LINE
8
Setbacks
10
11.2288510700
20
16.0005026418
11
11.2283091145
21
16.0003549259
62
2
0
LINE
8
Setbacks
10
11.2283091145
20
16.0003549259
11
10.4002785762
21
15.8493490155
62
2
0
LINE
8
Setbacks
10
10.4002785762
20
15.8493490155
11
10.3997065020
21
15.8492958244
62
2
0
LINE
8
Setbacks
10
10.3997065020
20
15.8492958244
11
8.4008275354
21
15.8392205804
62
2
0
LINE
8
Setbacks
10
8.4008275354
20
15.8392205804
11
8.9936088791
21
-43.1359144369
62
2
0
LINE
8
Setbacks
10
8.9936088791
20
-43.1359144369
11
19.1776500234
21
-43.0335508340
62
2
0
LINE
8
Setbacks
10
19.1776500234
20
-43.0335508340
11
18.8314563324
21
-42.2934853405
62
2
0
LINE
8
Setbacks
10
18.8314563324
20
-42.2934853405
11
18.8311844580
21
-42.2925878541
62
2
0
LINE
8
Setbacks
10
18.8311844580
20
-42.2925878541
11
18.6905843878
21
-41.3669034413
62
2
0
LINE
8
Setbacks
10
18.6905843878
20
-41.3669034413
11
18.6905751401
21
-41.3659834035
62
2
0
LINE
8
Setbacks
10
18.6905751401
20
-41.3659834035
11
18.8125397109
21
-40.4376595549
62
2
0
LINE
8
Setbacks
10
18.8125397109
20
-40.4376595549
11
18.8127934903
21
-40.4367567845
62
2
0
LINE
8
Setbacks
10
18.8127934903
20
-40.4367567845
11
19.1853843815
21
-39.5966645660
62
2
0
LINE
8
Setbacks
10
19.1853843815
20
-39.5966645660
11
19.1856186670
21
-39.5962284451
62
2
0
LINE
8
Setbacks
10
19.1856186670
20
-39.5962284451
11
19.1859159068
21
-39.5958325413
62
2
0
LINE
8
Setbacks
10
19.1859159068
20
-39.5958325413
11
19.7726613324
21
-38.9262062076
62
2
0
LINE
8
Setbacks
10
19.7726613324
20
-38.9262062076
11
19.7730414603
21
-38.9258372752
62
2
0
LINE
8
Setbacks
10
19.7730414603
20
-38.9258372752
11
19.7734760067
21
-38.9255343269
62
2
0
LINE
8
Setbacks
10
19.7734760067
20
-38.9255343269
11
20.5169409255
21
-38.4919214521
62
2
0
LINE
8
Setbacks
10
20.5169409255
20
-38.4919214521
11
20.5174482697
21
-38.4916811519
62
2
0
LINE
8
Setbacks
10
20.5174482697
20
-38.4916811519
11
20.5179891534
21
-38.4915308614
62
2
0
LINE
8
Setbacks
10
20.5179891534
20
-38.4915308614
11
21.3453979725
21
-38.3363763289
62
2
0
LINE
8
Setbacks
10
21.3453979725
20
-38.3363763289
11
21.3459696763
21
-38.3363202901
62
2
0
LINE
8
Setbacks
10
21.3459696763
20
-38.3363202901
11
28.6949653037
21
-38.2624528588
62
2
0
LINE
8
Setbacks
10
28.5352914268
20
-22.3766789147
11
28.2017259884
21
-22.4392286343
62
2
0
LINE
8
Setbacks
10
28.2017259884
20
-22.4392286343
11
28.2011542847
21
-22.4392846731
62
2
0
LINE
8
Setbacks
10
28.2011542847
20
-22.4392846731
11
25.6577014474
21
-22.4648499626
62
2
0
LINE
8
Setbacks
10
25.6577014474
20
-22.4648499626
11
25.6571287322
21
-22.4648054268
62
2
0
LINE
8
Setbacks
10
25.6571287322
20
-22.4648054268
11
24.8267681413
21
-22.3263136244
62
2
0
LINE
8
Setbacks
10
24.8267681413
20
-22.3263136244
11
24.8262243462
21
-22.3261742364
62
2
0
LINE
8
Setbacks
10
24.8262243462
20
-22.3261742364
11
24.8257122744
21
-22.3259441828
62
2
0
LINE
8
Setbacks
10
24.8257122744
20
-22.3259441828
11
24.0736817385
21
-21.9073631326
62
2
0
LINE
8
Setbacks
10
24.0736817385
20
-21.9073631326
11
24.0732411900
21
-21.9070689799
62
2
0
LINE
8
Setbacks
10
24.0732411900
20
-21.9070689799
11
24.0728537229
21
-21.9067077626
62
2
0
LINE
8
Setbacks
10
24.0728537229
20
-21.9067077626
11
23.4727670895
21
-21.2490105630
62
2
0
LINE
8
Setbacks
10
23.4727670895
20
-21.2490105630
11
23.4724619523
21
-21.2486207144
62
2
0
LINE
8
Setbacks
10
23.4724619523
20
-21.2486207144
11
23.4722189480
21
-21.2481893913
62
2
0
LINE
8
Setbacks
10
23.4722189480
20
-21.2481893913
11
23.0828170326
21
-20.4157566219
62
2
0
LINE
8
Setbacks
10
23.0828170326
20
-20.4157566219
11
23.0825451585
21
-20.4148591366
62
2
0
LINE
8
Setbacks
10
23.0825451585
20
-20.4148591366
11
22.9419447603
21
-19.4891743957
62
2
0
LINE
8
Setbacks
10
22.9419447603
20
-19.4891743957
11
22.9419355125
21
-19.4882543560
62
2
0
LINE
8
Setbacks
10
22.9419355125
20
-19.4882543560
11
22.9716127329
21
-19.2623690398
62
2
0
LINE
8
Setbacks
10
22.9716127329
20
-19.2623690398
11
12.8771598804
21
-11.6083482626
62
2
0
LINE
8
Setbacks
10
12.8771598804
20
-11.6083482626
11
12.8767694154
21
-11.6079998154
62
2
0
LINE
8
Setbacks
10
12.8767694154
20
-11.6079998154
11
12.8545214892
21
-11.5847024465
62
2
0
LINE
8
Setbacks
10
12.8545214892
20
-11.5847024465
11
12.8275684867
21
-11.5688338343
62
2
0
LINE
8
Setbacks
10
12.8275684867
20
-11.5688338343
11
12.8271372004
21
-11.5685307753
62
2
0
LINE
8
Setbacks
10
12.8271372004
20
-11.5685307753
11
12.8267600142
21
-11.5681625590
62
2
0
LINE
8
Setbacks
10
12.8267600142
20
-11.5681625590
11
12.7012990583
21
-11.4242514432
62
2
0
LINE
8
Setbacks
10
12.7012990583
20
-11.4242514432
11
12.5701115915
21
-11.2868751272
62
2
0
LINE
8
Setbacks
10
12.5701115915
20
-11.2868751272
11
12.5697963456
21
-11.2864904207
62
2
0
LINE
8
Setbacks
10
12.5697963456
20
-11.2864904207
11
12.5695428756
21
-11.2860624813
62
2
0
LINE
8
Setbacks
10
12.5695428756
20
-11.2860624813
11
12.5547856241
21
-11.2561919642
62
2
0
LINE
8
Setbacks
10
12.5547856241
20
-11.2561919642
11
12.5334873680
21
-11.2317616307
62
2
0
LINE
8
Setbacks
10
12.5334873680
20
-11.2317616307
11
12.5331923350
21
-11.2313668859
62
2
0
LINE
8
Setbacks
10
12.5331923350
20
-11.2313668859
11
12.5329597577
21
-11.2309324025
62
2
0
LINE
8
Setbacks
10
12.5329597577
20
-11.2309324025
11
12.4533137797
21
-11.0507997374
62
2
0
LINE
8
Setbacks
10
12.4533137797
20
-11.0507997374
11
12.3664122910
21
-10.8749000651
62
2
0
LINE
8
Setbacks
10
12.3664122910
20
-10.8749000651
11
12.3661208923
21
-10.8740059696
62
2
0
LINE
8
Setbacks
10
12.3661208923
20
-10.8740059696
11
12.3603242585
21
-10.8404884053
62
2
0
LINE
8
Setbacks
10
12.3603242585
20
-10.8404884053
11
12.3467898087
21
-10.8098782652
62
2
0
LINE
8
Setbacks
10
12.3467898087
20
-10.8098782652
11
12.3465373713
21
-10.8089776442
62
2
0
LINE
8
Setbacks
10
12.3465373713
20
-10.8089776442
11
12.3205070659
21
-10.6102579232
62
2
0
LINE
8
Setbacks
10
12.3205070659
20
-10.6102579232
11
12.2864014031
21
-10.4130538641
62
2
0
LINE
8
Setbacks
10
12.2864014031
20
-10.4130538641
11
12.2863732926
21
-10.4121341203
62
2
0
LINE
8
Setbacks
10
12.2863732926
20
-10.4121341203
11
12.2901184500
21
-10.3782694393
62
2
0
LINE
8
Setbacks
10
12.2901184500
20
-10.3782694393
11
12.2856932083
21
-10.3444858242
62
2
0
LINE
8
Setbacks
10
12.2856932083
20
-10.3444858242
11
12.2857028255
21
-10.3435657026
62
2
0
LINE
8
Setbacks
10
12.2857028255
20
-10.3435657026
11
12.3158380383
21
-10.1457129094
62
2
0
LINE
8
Setbacks
10
12.3158380383
20
-10.1457129094
11
12.3378683739
21
-9.9465133626
62
2
0
LINE
8
Setbacks
10
12.3378683739
20
-9.9465133626
11
12.3381026517
21
-9.9456078631
62
2
0
LINE
8
Setbacks
10
12.3381026517
20
-9.9456078631
11
12.3510189129
21
-9.9147318913
62
2
0
LINE
8
Setbacks
10
12.3510189129
20
-9.9147318913
11
12.3561408207
21
-9.8811043960
62
2
0
LINE
8
Setbacks
10
12.3561408207
20
-9.8811043960
11
12.3564141867
21
-9.8802046370
62
2
0
LINE
8
Setbacks
10
12.3564141867
20
-9.8802046370
11
12.4397624782
21
-9.7025936308
62
2
0
LINE
8
Setbacks
10
12.4397624782
20
-9.7025936308
11
12.5157716224
21
-9.5208965591
62
2
0
LINE
8
Setbacks
10
12.5157716224
20
-9.5208965591
11
12.5159954171
21
-9.5204574925
62
2
0
LINE
8
Setbacks
10
12.5159954171
20
-9.5204574925
11
12.5162824526
21
-9.5200569003
62
2
0
LINE
8
Setbacks
10
12.5162824526
20
-9.5200569003
11
12.5370855814
21
-9.4952029887
62
2
0
LINE
8
Setbacks
10
12.5370855814
20
-9.4952029887
11
12.5512393267
21
-9.4650422166
62
2
0
LINE
8
Setbacks
10
12.5512393267
20
-9.4650422166
11
12.5514841423
21
-9.4646092721
62
2
0
LINE
8
Setbacks
10
12.5514841423
20
-9.4646092721
11
12.5517915894
21
-9.4642183093
62
2
0
LINE
8
Setbacks
10
12.5517915894
20
-9.4642183093
11
12.6801901228
21
-9.3242337622
62
2
0
LINE
8
Setbacks
10
12.6801901228
20
-9.3242337622
11
12.8027339096
21
-9.1778288659
62
2
0
LINE
8
Setbacks
10
12.8027339096
20
-9.1778288659
11
12.8031036141
21
-9.1774531459
62
2
0
LINE
8
Setbacks
10
12.8031036141
20
-9.1774531459
11
12.8035287165
21
-9.1771414812
62
2
0
LINE
8
Setbacks
10
12.8035287165
20
-9.1771414812
11
12.8301573909
21
-9.1607341330
62
2
0
LINE
8
Setbacks
10
12.8301573909
20
-9.1607341330
11
12.8519326870
21
-9.1369942044
62
2
0
LINE
8
Setbacks
10
12.8519326870
20
-9.1369942044
11
12.8523160642
21
-9.1366379844
62
2
0
LINE
8
Setbacks
10
12.8523160642
20
-9.1366379844
11
22.7908779979
21
-1.2812580645
62
2
0
LINE
8
Setbacks
10
22.7908779979
20
-1.2812580645
11
22.7566662112
21
-1.0560150142
62
2
0
LINE
8
Setbacks
10
22.7566662112
20
-1.0560150142
11
22.7566569633
21
-1.0550949734
62
2
0
LINE
8
Setbacks
10
22.7566569633
20
-1.0550949734
11
22.8786218622
21
-0.1267711248
62
2
0
LINE
8
Setbacks
10
22.8786218622
20
-0.1267711248
11
22.8788756416
21
-0.1258683550
62
2
0
LINE
8
Setbacks
10
22.8788756416
20
-0.1258683550
11
23.2514665328
21
0.7142235354
62
2
0
LINE
8
Setbacks
10
23.2514665328
20
0.7142235354
11
23.2517008178
21
0.7146596554
62
2
0
LINE
8
Setbacks
10
23.2517008178
20
0.7146596554
11
23.2519980567
21
0.7150555584
62
2
0
LINE
8
Setbacks
10
23.2519980567
20
0.7150555584
11
23.8387431543
21
1.3846822202
62
2
0
LINE
8
Setbacks
10
23.8387431543
20
1.3846822202
11
23.8391232826
21
1.3850511533
62
2
0
LINE
8
Setbacks
10
23.8391232826
20
1.3850511533
11
23.8395578298
21
1.3853541021
62
2
0
LINE
8
Setbacks
10
23.8395578298
20
1.3853541021
11
24.5830227486
21
1.8189669769
62
2
0
LINE
8
Setbacks
10
24.5830227486
20
1.8189669769
11
24.5835300929
21
1.8192072772
62
2
0
LINE
8
Setbacks
10
24.5835300929
20
1.8192072772
11
24.5840709766
21
1.8193575677
62
2
0
LINE
8
Setbacks
10
24.5840709766
20
1.8193575677
11
25.4114801238
21
1.9745121002
62
2
0
LINE
8
Setbacks
10
25.4114801238
20
1.9745121002
11
25.4120518277
21
1.9745681389
62
2
0
LINE
8
Setbacks
10
25.4120518277
20
1.9745681389
11
27.9555046650
21
2.0001331004
62
2
0
LINE
8
Setbacks
10
27.9555046650
20
2.0001331004
11
27.9560773787
21
2.0000885647
62
2
0
LINE
8
Setbacks
10
27.9560773787
20
2.0000885647
11
28.2908325760
21
1.9442564845
62
2
0
LINE
8
Setbacks
10
17.4918811333
20
-11.5888213966
11
25.1470019801
21
-17.3932423496
62
2
0
LINE
8
Setbacks
10
25.1470019801
20
-17.3932423496
11
25.0878922115
21
-11.5124708421
62
2
0
LINE
8
Setbacks
10
25.0878922115
20
-11.5124708421
11
17.4918811333
21
-11.5888213966
62
2
0
LINE
8
Setbacks
10
17.4664972692
20
-9.0634020278
11
25.0625080189
21
-8.9870514733
62
2
0
LINE
8
Setbacks
10
25.0625080189
20
-8.9870514733
11
25.0033985778
21
-3.1062802941
62
2
0
LINE
8
Setbacks
10
25.0033985778
20
-3.1062802941
11
17.4664972692
21
-9.0634020278
62
2
0
LINE
8
Inverters
10
-10.3131445105
20
-20.5614857209
11
-7.8525145105
21
-20.5614857209
0
LINE
8
Inverters
10
-7.8525145105
20
-20.5614857209
11
-7.8525145105
21
-18.1008557209
0
LINE
8
Inverters
10
-7.8525145105
20
-18.1008557209
11
-10.3131445105
21
-18.1008557209
0
LINE
8
Inverters
10
-10.3131445105
20
-18.1008557209
11
-10.3131445105
21
-20.5614857209
0
LINE
8
Inverters
10
-10.3131445105
20
-20.5614857209
11
-7.8525145105
21
-18.1008557209
0
TEXT
8
Inverters
100
AcDbText
10
-10.1491025105
20
-19.0194909209
1
DC
7
NewTextStyle_4
40
0.7545932000000003
50
0
0
TEXT
8
Inverters
100
AcDbText
10
-9.3124883105
20
-20.3974437209
1
AC
7
NewTextStyle_4
40
0.7545932000000003
50
0
0
LINE
8
Inverters
10
19.3459666096
20
-20.2510474987
11
21.8065966096
21
-20.2510474987
0
LINE
8
Inverters
10
21.8065966096
20
-20.2510474987
11
21.8065966096
21
-17.7904174987
0
LINE
8
Inverters
10
21.8065966096
20
-17.7904174987
11
19.3459666096
21
-17.7904174987
0
LINE
8
Inverters
10
19.3459666096
20
-17.7904174987
11
19.3459666096
21
-20.2510474987
0
LINE
8
Inverters
10
19.3459666096
20
-20.2510474987
11
21.8065966096
21
-17.7904174987
0
TEXT
8
Inverters
100
AcDbText
10
19.5100086096
20
-18.7090526987
1
DC
7
NewTextStyle_4
40
0.7545932000000003
50
0
0
TEXT
8
Inverters
100
AcDbText
10
20.3466228096
20
-20.0870054987
1
AC
7
NewTextStyle_4
40
0.7545932000000003
50
0
0
LINE
8
Strings
10
-9.0187017015
20
-25.8941999655
11
-8.9487440913
21
-32.8187984328
62
11
0
LINE
8
Strings
10
-8.9487440913
20
-32.8187984328
11
-5.5878639826
21
-32.7859285032
62
11
0
LINE
8
Strings
10
-5.5878639826
20
-32.7859285032
11
-5.6578215928
21
-25.8613300360
62
11
0
LINE
8
Strings
10
-5.6578215928
20
-25.8613300360
11
-2.3668990901
21
-18.9002094245
62
11
0
LINE
8
Strings
10
-2.3668990901
20
-18.9002094245
11
-2.2969414799
21
-25.8248078917
62
11
0
LINE
8
Strings
10
-2.2969414799
20
-25.8248078917
11
-2.2269838738
21
-32.7494063615
62
11
0
LINE
8
Strings
10
-2.2269838738
20
-32.7494063615
11
-2.1570262637
21
-39.6740048288
62
11
0
LINE
8
Strings
10
-2.1570262637
20
-39.6740048288
11
1.2038538451
21
-39.6411348992
62
11
0
LINE
8
Strings
10
1.2038538451
20
-39.6411348992
11
1.1338962390
21
-32.7165364320
62
11
0
LINE
8
Strings
10
1.1338962390
20
-32.7165364320
11
1.0639386288
21
-25.7919379622
62
11
0
LINE
8
Strings
10
1.0639386288
20
-25.7919379622
11
0.9939810187
21
-18.8673394949
62
11
0
LINE
8
Strings
10
0.9939810187
20
-18.8673394949
11
4.3548611315
21
-18.8344695654
62
11
0
LINE
8
Strings
10
4.3548611315
20
-18.8344695654
11
4.4248187376
21
-25.7590680326
62
11
0
LINE
8
Strings
10
4.4947763478
20
-32.6836665024
11
4.5647339579
21
-39.6082649696
62
11
0
LINE
8
Strings
10
4.5647339579
20
-39.6082649696
11
10.7005992072
21
-39.5352206812
62
11
0
LINE
8
Strings
10
10.7005992072
20
-39.5352206812
11
10.6306415970
21
-32.6106222139
62
11
0
LINE
8
Strings
10
10.6306415970
20
-32.6106222139
11
10.5606839868
21
-25.6860237467
62
11
0
LINE
8
Strings
10
10.5606839868
20
-25.6860237467
11
10.4907263808
21
-18.7614252795
62
11
0
LINE
8
Strings
10
10.4907263808
20
-18.7614252795
11
13.8516064895
21
-18.7285553499
62
11
0
LINE
8
Strings
10
13.8516064895
20
-18.7285553499
11
13.9215640997
21
-25.6531538172
62
11
0
LINE
8
Strings
10
13.9215640997
20
-25.6531538172
11
13.9915217057
21
-32.5741000697
62
11
0
LINE
8
Strings
10
13.9915217057
20
-32.5741000697
11
14.0614793159
21
-39.4986985369
62
11
0
LINE
8
Strings
10
14.0614793159
20
-39.4986985369
11
17.4223594246
21
-39.4658286073
62
11
0
LINE
8
Strings
10
17.4223594246
20
-39.4658286073
11
17.3524018186
21
-32.5412301401
62
11
0
LINE
8
Strings
10
17.3524018186
20
-32.5412301401
11
17.2824442084
21
-25.6166316729
62
11
0
LINE
8
Strings
10
17.2824442084
20
-25.6166316729
11
17.2124865982
21
-18.6920332057
62
11
0
LINE
8
Strings
10
20.6433243171
20
-25.5837617433
11
20.7132819273
21
-32.5083602106
62
11
0
LINE
8
Strings
10
20.7132819273
20
-32.5083602106
11
24.0741620360
21
-32.4754902810
62
11
0
LINE
8
Strings
10
24.0741620360
20
-32.4754902810
11
24.0042044300
21
-25.5508918138
62
11
0
LINE
8
Strings
10
24.0042044300
20
-25.5508918138
11
24.0216938294
21
3.8749994605
62
11
0
LINE
8
Strings
10
24.0216938294
20
3.8749994605
11
23.9517362234
21
10.7995979277
62
11
0
LINE
8
Strings
10
23.9517362234
20
10.7995979277
11
23.8817786132
21
17.7241963949
62
11
0
LINE
8
Strings
10
23.8817786132
20
17.7241963949
11
20.5208985045
21
17.6876742507
62
11
0
LINE
8
Strings
10
20.5208985045
20
17.6876742507
11
20.5908561105
21
10.7630757834
62
11
0
LINE
8
Strings
10
20.5908561105
20
10.7630757834
11
20.6608137207
21
3.8384773162
62
11
0
LINE
8
Strings
10
20.6608137207
20
3.8384773162
11
17.2999336120
21
3.8056073867
62
11
0
LINE
8
Strings
10
17.2999336120
20
3.8056073867
11
17.2299760018
21
10.7302058539
62
11
0
LINE
8
Strings
10
17.1600183916
20
17.6548043211
11
13.7991382829
21
17.6219343915
62
11
0
LINE
8
Strings
10
13.7991382829
20
17.6219343915
11
13.8690958931
21
10.6973359243
62
11
0
LINE
8
Strings
10
13.8690958931
20
10.6973359243
11
13.9390534991
21
3.7727374571
62
11
0
LINE
8
Strings
10
13.9390534991
20
3.7727374571
11
10.5781733904
21
3.7398675275
62
11
0
LINE
8
Strings
10
10.5781733904
20
3.7398675275
11
10.5082157802
21
10.6644659948
62
11
0
LINE
8
Strings
10
10.5082157802
20
10.6644659948
11
3.9147111766
21
10.5585517793
62
11
0
LINE
8
Strings
10
3.9147111766
20
10.5585517793
11
3.9846687868
21
3.6339533095
62
11
0
LINE
8
Strings
10
0.6237886739
20
3.6010833799
11
0.5538310679
21
10.5256818497
62
11
0
LINE
8
Strings
10
0.5538310679
20
10.5256818497
11
0.4838734577
21
17.4502803170
62
11
0
LINE
8
Strings
10
0.4838734577
20
17.4502803170
11
-2.8770066510
21
17.4174103874
62
11
0
LINE
8
Strings
10
-2.8770066510
20
17.4174103874
11
-2.8070490450
21
10.4928119202
62
11
0
LINE
8
Strings
10
-2.8070490450
20
10.4928119202
11
-2.7370914348
21
3.5682134504
62
11
0
LINE
8
Strings
10
-2.7370914348
20
3.5682134504
11
-6.0979715435
21
3.5316913087
62
11
0
LINE
8
Strings
10
-6.0979715435
20
3.5316913087
11
-6.1679291537
21
10.4562897759
62
11
0
LINE
8
Strings
10
-6.1679291537
20
10.4562897759
11
-6.2378867639
21
17.3808882432
62
11
0
LINE
8
Strings
10
-6.2378867639
20
17.3808882432
11
-9.5987668726
21
17.3480183136
62
11
0
LINE
8
Strings
10
-9.5987668726
20
17.3480183136
11
-9.5288092625
21
10.4234198464
62
11
0
LINE
8
Strings
10
-9.5288092625
20
10.4234198464
11
-9.4588516564
21
3.4988213792
62
11
0
LINE
8
Connections
10
-8.9837228964
20
-29.3564991991
11
-9.4758240385
21
-29.3614454916
62
91
0
LINE
8
Connections
10
-9.4758240385
20
-29.3614454916
11
-9.4807703310
21
-28.8693443495
62
91
0
LINE
8
Connections
10
-9.4807703310
20
-28.8693443495
11
-9.5716459010
21
-19.8282348562
62
91
0
LINE
8
Connections
10
-9.5716459010
20
-19.8282348562
11
-9.5699843601
21
-19.8282181555
62
91
0
LINE
8
Connections
10
-9.5699843601
20
-19.8282181555
11
-9.0778832180
21
-19.8232718630
62
91
0
LINE
8
Connections
10
-9.0778832180
20
-19.8232718630
11
-9.0828295105
21
-19.3311707209
62
91
0
LINE
8
Connections
10
4.5297551528
20
-36.1459657360
11
4.0376540107
21
-36.1509120285
62
91
0
LINE
8
Connections
10
4.0376540107
20
-36.1509120285
11
4.0327077183
21
-35.6588108864
62
91
0
LINE
8
Connections
10
4.0327077183
20
-35.6588108864
11
3.8722304466
21
-19.6931054313
62
91
0
LINE
8
Connections
10
3.8722304466
20
-19.6931054313
11
-8.5857820759
21
-19.8183255705
62
91
0
LINE
8
Connections
10
-8.5857820759
20
-19.8183255705
11
-9.0778832180
21
-19.8232718630
62
91
0
LINE
8
Connections
10
-9.0778832180
20
-19.8232718630
11
-9.0828295105
21
-19.3311707209
62
91
0
LINE
8
Connections
10
20.6783031222
20
-29.0460609770
11
21.1704042643
21
-29.0411146845
62
91
0
LINE
8
Connections
10
21.1704042643
20
-29.0411146845
11
21.1654579719
21
-28.5490135424
62
91
0
LINE
8
Connections
10
21.1654579719
20
-28.5490135424
11
21.0745821073
21
-19.5078747533
62
91
0
LINE
8
Connections
10
21.0745821073
20
-19.5078747533
11
21.0733290442
21
-19.5078873483
62
91
0
LINE
8
Connections
10
21.0733290442
20
-19.5078873483
11
20.5812279021
21
-19.5128336408
62
91
0
LINE
8
Connections
10
20.5812279021
20
-19.5128336408
11
20.5762816096
21
-19.0207324987
62
91
0
LINE
8
Connections
10
15.4795783372
20
17.6383693563
11
15.9716794794
21
17.6433156488
62
91
0
LINE
8
Connections
10
15.9716794794
20
17.6433156488
11
15.9766257718
21
17.1512145067
62
91
0
LINE
8
Connections
10
15.9766257718
20
17.1512145067
11
16.3356851639
21
-18.5712054591
62
91
0
LINE
8
Connections
10
16.3356851639
20
-18.5712054591
11
20.0792341750
21
-18.5335776491
62
91
0
LINE
8
Connections
10
20.0792341750
20
-18.5335776491
11
20.5713353171
21
-18.5286313566
62
91
0
LINE
8
Connections
10
20.5713353171
20
-18.5286313566
11
20.5762816096
21
-19.0207324987
62
91
0
LINE
8
Connections
10
0.5888098709
20
7.0633826148
11
1.0809110130
21
7.0683289073
62
91
0
LINE
8
Connections
10
1.0809110130
20
7.0683289073
11
1.0858573055
21
6.5762277652
62
91
0
LINE
8
Connections
10
1.0858573055
20
6.5762277652
11
1.3401385559
21
-18.7219313017
62
91
0
LINE
8
Connections
10
1.3401385559
20
-18.7219313017
11
20.0792341750
21
-18.5335776491
62
91
0
LINE
8
Connections
10
20.0792341750
20
-18.5335776491
11
20.5713353171
21
-18.5286313566
62
91
0
LINE
8
Connections
10
20.5713353171
20
-18.5286313566
11
20.5762816096
21
-19.0207324987
62
91
0
ENDSEC
0
EOF