999
Design created by Aurora
0
SECTION
2
HEADER
9
$ACADVER
1
AC1009
9
$INSUNITS
70
2
0
ENDSEC
0
SECTION
2
TABLES
0
TABLE
2
LTYPE
100
AcDbLinetypeTableRecord
2
LTYPE
0
LTYPE
2
DASHED
70
0
3
dashed line
72
65
73
2
40
4.0
49
2.0
49
-2.0
0
ENDTAB
0
TABLE
2
LAYER
70
6
0
LAYER
100
AcDbSymbolTable
100
AcDbLayerTable
2
Inverters
70
0
62
7
6
CONTINUOUS
0
LAYER
100
AcDbSymbolTable
100
AcDbLayerTable
2
Setbacks
70
0
62
7
6
CONTINUOUS
0
LAYER
100
AcDbSymbolTable
100
AcDbLayerTable
2
Connections
70
0
62
7
6
CONTINUOUS
0
LAYER
100
AcDbSymbolTable
100
AcDbLayerTable
2
Strings
70
0
62
7
6
CONTINUOUS
0
LAYER
100
AcDbSymbolTable
100
AcDbLayerTable
2
Modules
70
0
62
7
6
CONTINUOUS
0
LAYER
100
AcDbSymbolTable
100
AcDbLayerTable
2
Buildings
70
0
62
7
6
CONTINUOUS
0
ENDTAB
0
ENDSEC
0
SECTION
2
ENTITIES
0
LINE
8
Modules
10
-8.5516357601
20
26.4670811745
11
-11.8752104774
21
26.4336746795
62
254
0
LINE
8
Modules
10
-11.8752104774
20
26.4336746795
11
-11.8060283275
21
19.5508200386
62
254
0
LINE
8
Modules
10
-11.8060283275
20
19.5508200386
11
-8.4824536102
21
19.5842265336
62
254
0
LINE
8
Modules
10
-8.4824536102
20
19.5842265336
11
-8.5516357601
21
26.4670811745
62
254
0
LINE
8
Modules
10
-10.5930382397
20
23.4149129808
11
-10.5847944181
21
22.5947444107
62
254
0
LINE
8
Modules
10
-10.5847944181
20
22.5947444107
11
-9.7646258479
21
22.6029882323
62
254
0
LINE
8
Modules
10
-9.7646258479
20
22.6029882323
11
-9.7728696695
21
23.4231568025
62
254
0
LINE
8
Modules
10
-9.7728696695
20
23.4231568025
11
-10.5930382397
21
23.4149129808
62
254
0
LINE
8
Modules
10
-10.5930382397
20
23.4149129808
11
-9.7646258479
21
22.6029882323
62
254
0
TEXT
8
Modules
100
AcDbText
10
-10.0840390969
20
23.3708140360
1
DC
7
NewTextStyle_4
40
0.2624672000000003
50
-89.42411804197069
0
TEXT
8
Modules
100
AcDbText
10
-10.5405305969
20
23.0873401821
1
DC
7
NewTextStyle_4
40
0.2624672000000003
50
-89.42411804197069
0
LINE
8
Modules
10
-8.4816781499
20
19.5424827047
11
-11.8052528672
21
19.5090762097
62
254
0
LINE
8
Modules
10
-11.8052528672
20
19.5090762097
11
-11.7360707174
21
12.6262215688
62
254
0
LINE
8
Modules
10
-11.7360707174
20
12.6262215688
11
-8.4124960000
21
12.6596280638
62
254
0
LINE
8
Modules
10
-8.4124960000
20
12.6596280638
11
-8.4816781499
21
19.5424827047
62
254
0
LINE
8
Modules
10
-10.5230806295
20
16.4903145110
11
-10.5148368079
21
15.6701459408
62
254
0
LINE
8
Modules
10
-10.5148368079
20
15.6701459408
11
-9.6946682377
21
15.6783897625
62
254
0
LINE
8
Modules
10
-9.6946682377
20
15.6783897625
11
-9.7029120594
21
16.4985583327
62
254
0
LINE
8
Modules
10
-9.7029120594
20
16.4985583327
11
-10.5230806295
21
16.4903145110
62
254
0
LINE
8
Modules
10
-10.5230806295
20
16.4903145110
11
-9.6946682377
21
15.6783897625
62
254
0
TEXT
8
Modules
100
AcDbText
10
-10.0140814867
20
16.4462155662
1
DC
7
NewTextStyle_4
40
0.2624672000000003
50
-89.42411804197069
0
TEXT
8
Modules
100
AcDbText
10
-10.4705729867
20
16.1627417122
1
DC
7
NewTextStyle_4
40
0.2624672000000003
50
-89.42411804197069
0
LINE
8
Modules
10
-8.4117205438
20
12.6178842375
11
-11.7352952612
21
12.5844777425
62
254
0
LINE
8
Modules
10
-11.7352952612
20
12.5844777425
11
-11.6661131113
21
5.7016231016
62
254
0
LINE
8
Modules
10
-11.6661131113
20
5.7016231016
11
-8.3425383940
21
5.7350295966
62
254
0
LINE
8
Modules
10
-8.3425383940
20
5.7350295966
11
-8.4117205438
21
12.6178842375
62
254
0
LINE
8
Modules
10
-10.4531230235
20
9.5657160438
11
-10.4448792018
21
8.7455474736
62
254
0
LINE
8
Modules
10
-10.4448792018
20
8.7455474736
11
-9.6247106317
21
8.7537912953
62
254
0
LINE
8
Modules
10
-9.6247106317
20
8.7537912953
11
-9.6329544533
21
9.5739598654
62
254
0
LINE
8
Modules
10
-9.6329544533
20
9.5739598654
11
-10.4531230235
21
9.5657160438
62
254
0
LINE
8
Modules
10
-10.4531230235
20
9.5657160438
11
-9.6247106317
21
8.7537912953
62
254
0
TEXT
8
Modules
100
AcDbText
10
-9.9441238807
20
9.5216170990
1
DC
7
NewTextStyle_4
40
0.2624672000000003
50
-89.42411804197069
0
TEXT
8
Modules
100
AcDbText
10
-10.4006153806
20
9.2381432450
1
DC
7
NewTextStyle_4
40
0.2624672000000003
50
-89.42411804197069
0
LINE
8
Modules
10
-8.3417629337
20
5.6932857703
11
-11.6653376510
21
5.6598792753
62
254
0
LINE
8
Modules
10
-11.6653376510
20
5.6598792753
11
-11.5961555011
21
-1.2229753656
62
254
0
LINE
8
Modules
10
-11.5961555011
20
-1.2229753656
11
-8.2725807838
21
-1.1895688707
62
254
0
LINE
8
Modules
10
-8.2725807838
20
-1.1895688707
11
-8.3417629337
21
5.6932857703
62
254
0
LINE
8
Modules
10
-10.3831654133
20
2.6411175766
11
-10.3749215917
21
1.8209490064
62
254
0
LINE
8
Modules
10
-10.3749215917
20
1.8209490064
11
-9.5547530215
21
1.8291928281
62
254
0
LINE
8
Modules
10
-9.5547530215
20
1.8291928281
11
-9.5629968431
21
2.6493613982
62
254
0
LINE
8
Modules
10
-9.5629968431
20
2.6493613982
11
-10.3831654133
21
2.6411175766
62
254
0
LINE
8
Modules
10
-10.3831654133
20
2.6411175766
11
-9.5547530215
21
1.8291928281
62
254
0
TEXT
8
Modules
100
AcDbText
10
-9.8741662705
20
2.5970186318
1
DC
7
NewTextStyle_4
40
0.2624672000000003
50
-89.42411804197069
0
TEXT
8
Modules
100
AcDbText
10
-10.3306577704
20
2.3135447778
1
DC
7
NewTextStyle_4
40
0.2624672000000003
50
-89.42411804197069
0
LINE
8
Modules
10
-7.6713358543
20
-26.2928077846
11
-10.9949105717
21
-26.3262142796
62
254
0
LINE
8
Modules
10
-10.9949105717
20
-26.3262142796
11
-10.9257284218
21
-33.2090689205
62
254
0
LINE
8
Modules
10
-10.9257284218
20
-33.2090689205
11
-7.6021537045
21
-33.1756624255
62
254
0
LINE
8
Modules
10
-7.6021537045
20
-33.1756624255
11
-7.6713358543
21
-26.2928077846
62
254
0
LINE
8
Modules
10
-9.7127383340
20
-29.3449759783
11
-9.7044945123
21
-30.1651445485
62
254
0
LINE
8
Modules
10
-9.7044945123
20
-30.1651445485
11
-8.8843259422
21
-30.1569007268
62
254
0
LINE
8
Modules
10
-8.8843259422
20
-30.1569007268
11
-8.8925697638
21
-29.3367321567
62
254
0
LINE
8
Modules
10
-8.8925697638
20
-29.3367321567
11
-9.7127383340
21
-29.3449759783
62
254
0
LINE
8
Modules
10
-9.7127383340
20
-29.3449759783
11
-8.8843259422
21
-30.1569007268
62
254
0
TEXT
8
Modules
100
AcDbText
10
-9.2037391912
20
-29.3890749231
1
DC
7
NewTextStyle_4
40
0.2624672000000003
50
-89.42411804197069
0
TEXT
8
Modules
100
AcDbText
10
-9.6602306911
20
-29.6725487771
1
DC
7
NewTextStyle_4
40
0.2624672000000003
50
-89.42411804197069
0
LINE
8
Modules
10
-5.1907556514
20
26.4999511041
11
-8.5143303687
21
26.4665446091
62
254
0
LINE
8
Modules
10
-8.5143303687
20
26.4665446091
11
-8.4451482188
21
19.5836899682
62
254
0
LINE
8
Modules
10
-8.4451482188
20
19.5836899682
11
-5.1215735015
21
19.6170964632
62
254
0
LINE
8
Modules
10
-5.1215735015
20
19.6170964632
11
-5.1907556514
21
26.4999511041
62
254
0
LINE
8
Modules
10
-7.2321581310
20
23.4477829104
11
-7.2239143093
21
22.6276143402
62
254
0
LINE
8
Modules
10
-7.2239143093
20
22.6276143402
11
-6.4037457392
21
22.6358581619
62
254
0
LINE
8
Modules
10
-6.4037457392
20
22.6358581619
11
-6.4119895608
21
23.4560267320
62
254
0
LINE
8
Modules
10
-6.4119895608
20
23.4560267320
11
-7.2321581310
21
23.4477829104
62
254
0
LINE
8
Modules
10
-7.2321581310
20
23.4477829104
11
-6.4037457392
21
22.6358581619
62
254
0
TEXT
8
Modules
100
AcDbText
10
-6.7231589882
20
23.4036839656
1
DC
7
NewTextStyle_4
40
0.2624672000000003
50
-89.42411804197069
0
TEXT
8
Modules
100
AcDbText
10
-7.1796504881
20
23.1202101116
1
DC
7
NewTextStyle_4
40
0.2624672000000003
50
-89.42411804197069
0
LINE
8
Modules
10
-5.1207980412
20
19.5753526343
11
-8.4443727585
21
19.5419461393
62
254
0
LINE
8
Modules
10
-8.4443727585
20
19.5419461393
11
-8.3751906086
21
12.6590914984
62
254
0
LINE
8
Modules
10
-8.3751906086
20
12.6590914984
11
-5.0516158913
21
12.6924979933
62
254
0
LINE
8
Modules
10
-5.0516158913
20
12.6924979933
11
-5.1207980412
21
19.5753526343
62
254
0
LINE
8
Modules
10
-7.1622005208
20
16.5231844406
11
-7.1539566992
21
15.7030158704
62
254
0
LINE
8
Modules
10
-7.1539566992
20
15.7030158704
11
-6.3337881290
21
15.7112596921
62
254
0
LINE
8
Modules
10
-6.3337881290
20
15.7112596921
11
-6.3420319506
21
16.5314282622
62
254
0
LINE
8
Modules
10
-6.3420319506
20
16.5314282622
11
-7.1622005208
21
16.5231844406
62
254
0
LINE
8
Modules
10
-7.1622005208
20
16.5231844406
11
-6.3337881290
21
15.7112596921
62
254
0
TEXT
8
Modules
100
AcDbText
10
-6.6532013780
20
16.4790854958
1
DC
7
NewTextStyle_4
40
0.2624672000000003
50
-89.42411804197069
0
TEXT
8
Modules
100
AcDbText
10
-7.1096928779
20
16.1956116418
1
DC
7
NewTextStyle_4
40
0.2624672000000003
50
-89.42411804197069
0
LINE
8
Modules
10
-5.0508404310
20
12.6507541671
11
-8.3744151483
21
12.6173476721
62
254
0
LINE
8
Modules
10
-8.3744151483
20
12.6173476721
11
-8.3052329984
21
5.7344930311
62
254
0
LINE
8
Modules
10
-8.3052329984
20
5.7344930311
11
-4.9816582811
21
5.7678995261
62
254
0
LINE
8
Modules
10
-4.9816582811
20
5.7678995261
11
-5.0508404310
21
12.6507541671
62
254
0
LINE
8
Modules
10
-7.0922429106
20
9.5985859734
11
-7.0839990890
21
8.7784174032
62
254
0
LINE
8
Modules
10
-7.0839990890
20
8.7784174032
11
-6.2638305188
21
8.7866612248
62
254
0
LINE
8
Modules
10
-6.2638305188
20
8.7866612248
11
-6.2720743405
21
9.6068297950
62
254
0
LINE
8
Modules
10
-6.2720743405
20
9.6068297950
11
-7.0922429106
21
9.5985859734
62
254
0
LINE
8
Modules
10
-7.0922429106
20
9.5985859734
11
-6.2638305188
21
8.7866612248
62
254
0
TEXT
8
Modules
100
AcDbText
10
-6.5832437678
20
9.5544870286
1
DC
7
NewTextStyle_4
40
0.2624672000000003
50
-89.42411804197069
0
TEXT
8
Modules
100
AcDbText
10
-7.0397352678
20
9.2710131746
1
DC
7
NewTextStyle_4
40
0.2624672000000003
50
-89.42411804197069
0
LINE
8
Modules
10
-4.9808828249
20
5.7261556998
11
-8.3044575423
21
5.6927492048
62
254
0
LINE
8
Modules
10
-8.3044575423
20
5.6927492048
11
-8.2352753924
21
-1.1901054361
62
254
0
LINE
8
Modules
10
-8.2352753924
20
-1.1901054361
11
-4.9117006751
21
-1.1566989411
62
254
0
LINE
8
Modules
10
-4.9117006751
20
-1.1566989411
11
-4.9808828249
21
5.7261556998
62
254
0
LINE
8
Modules
10
-7.0222853046
20
2.6739875061
11
-7.0140414829
21
1.8538189360
62
254
0
LINE
8
Modules
10
-7.0140414829
20
1.8538189360
11
-6.1938729128
21
1.8620627576
62
254
0
LINE
8
Modules
10
-6.1938729128
20
1.8620627576
11
-6.2021167344
21
2.6822313278
62
254
0
LINE
8
Modules
10
-6.2021167344
20
2.6822313278
11
-7.0222853046
21
2.6739875061
62
254
0
LINE
8
Modules
10
-7.0222853046
20
2.6739875061
11
-6.1938729128
21
1.8620627576
62
254
0
TEXT
8
Modules
100
AcDbText
10
-6.5132861618
20
2.6298885614
1
DC
7
NewTextStyle_4
40
0.2624672000000003
50
-89.42411804197069
0
TEXT
8
Modules
100
AcDbText
10
-6.9697776617
20
2.3464147074
1
DC
7
NewTextStyle_4
40
0.2624672000000003
50
-89.42411804197069
0
LINE
8
Modules
10
-4.3804133517
20
-19.3353393878
11
-7.7039880690
21
-19.3687458828
62
254
0
LINE
8
Modules
10
-7.7039880690
20
-19.3687458828
11
-7.6348059191
21
-26.2516005237
62
254
0
LINE
8
Modules
10
-7.6348059191
20
-26.2516005237
11
-4.3112312018
21
-26.2181940288
62
254
0
LINE
8
Modules
10
-4.3112312018
20
-26.2181940288
11
-4.3804133517
21
-19.3353393878
62
254
0
LINE
8
Modules
10
-6.4218158313
20
-22.3875075815
11
-6.4135720097
21
-23.2076761517
62
254
0
LINE
8
Modules
10
-6.4135720097
20
-23.2076761517
11
-5.5934034395
21
-23.1994323300
62
254
0
LINE
8
Modules
10
-5.5934034395
20
-23.1994323300
11
-5.6016472611
21
-22.3792637599
62
254
0
LINE
8
Modules
10
-5.6016472611
20
-22.3792637599
11
-6.4218158313
21
-22.3875075815
62
254
0
LINE
8
Modules
10
-6.4218158313
20
-22.3875075815
11
-5.5934034395
21
-23.1994323300
62
254
0
TEXT
8
Modules
100
AcDbText
10
-5.9128166885
20
-22.4316065263
1
DC
7
NewTextStyle_4
40
0.2624672000000003
50
-89.42411804197069
0
TEXT
8
Modules
100
AcDbText
10
-6.3693081884
20
-22.7150803803
1
DC
7
NewTextStyle_4
40
0.2624672000000003
50
-89.42411804197069
0
LINE
8
Modules
10
-4.3104557415
20
-26.2599378550
11
-7.6340304588
21
-26.2933443500
62
254
0
LINE
8
Modules
10
-7.6340304588
20
-26.2933443500
11
-7.5648483089
21
-33.1761989910
62
254
0
LINE
8
Modules
10
-7.5648483089
20
-33.1761989910
11
-4.2412735916
21
-33.1427924960
62
254
0
LINE
8
Modules
10
-4.2412735916
20
-33.1427924960
11
-4.3104557415
21
-26.2599378550
62
254
0
LINE
8
Modules
10
-6.3518582211
20
-29.3121060487
11
-6.3436143995
21
-30.1322746189
62
254
0
LINE
8
Modules
10
-6.3436143995
20
-30.1322746189
11
-5.5234458293
21
-30.1240307973
62
254
0
LINE
8
Modules
10
-5.5234458293
20
-30.1240307973
11
-5.5316896509
21
-29.3038622271
62
254
0
LINE
8
Modules
10
-5.5316896509
20
-29.3038622271
11
-6.3518582211
21
-29.3121060487
62
254
0
LINE
8
Modules
10
-6.3518582211
20
-29.3121060487
11
-5.5234458293
21
-30.1240307973
62
254
0
TEXT
8
Modules
100
AcDbText
10
-5.8428590783
20
-29.3562049935
1
DC
7
NewTextStyle_4
40
0.2624672000000003
50
-89.42411804197069
0
TEXT
8
Modules
100
AcDbText
10
-6.2993505783
20
-29.6396788475
1
DC
7
NewTextStyle_4
40
0.2624672000000003
50
-89.42411804197069
0
LINE
8
Modules
10
-1.8298755385
20
26.5328210336
11
-5.1534502558
21
26.4994145387
62
254
0
LINE
8
Modules
10
-5.1534502558
20
26.4994145387
11
-5.0842681059
21
19.6165598977
62
254
0
LINE
8
Modules
10
-5.0842681059
20
19.6165598977
11
-1.7606933886
21
19.6499663927
62
254
0
LINE
8
Modules
10
-1.7606933886
20
19.6499663927
11
-1.8298755385
21
26.5328210336
62
254
0
LINE
8
Modules
10
-3.8712780181
20
23.4806528400
11
-3.8630341965
21
22.6604842698
62
254
0
LINE
8
Modules
10
-3.8630341965
20
22.6604842698
11
-3.0428656263
21
22.6687280914
62
254
0
LINE
8
Modules
10
-3.0428656263
20
22.6687280914
11
-3.0511094480
21
23.4888966616
62
254
0
LINE
8
Modules
10
-3.0511094480
20
23.4888966616
11
-3.8712780181
21
23.4806528400
62
254
0
LINE
8
Modules
10
-3.8712780181
20
23.4806528400
11
-3.0428656263
21
22.6687280914
62
254
0
TEXT
8
Modules
100
AcDbText
10
-3.3622788753
20
23.4365538952
1
DC
7
NewTextStyle_4
40
0.2624672000000003
50
-89.42411804197069
0
TEXT
8
Modules
100
AcDbText
10
-3.8187703753
20
23.1530800412
1
DC
7
NewTextStyle_4
40
0.2624672000000003
50
-89.42411804197069
0
LINE
8
Modules
10
-1.7599179324
20
19.6082225638
11
-5.0834926498
21
19.5748160688
62
254
0
LINE
8
Modules
10
-5.0834926498
20
19.5748160688
11
-5.0143104999
21
12.6919614279
62
254
0
LINE
8
Modules
10
-5.0143104999
20
12.6919614279
11
-1.6907357826
21
12.7253679229
62
254
0
LINE
8
Modules
10
-1.6907357826
20
12.7253679229
11
-1.7599179324
21
19.6082225638
62
254
0
LINE
8
Modules
10
-3.8013204121
20
16.5560543701
11
-3.7930765904
21
15.7358858000
62
254
0
LINE
8
Modules
10
-3.7930765904
20
15.7358858000
11
-2.9729080203
21
15.7441296216
62
254
0
LINE
8
Modules
10
-2.9729080203
20
15.7441296216
11
-2.9811518419
21
16.5642981918
62
254
0
LINE
8
Modules
10
-2.9811518419
20
16.5642981918
11
-3.8013204121
21
16.5560543701
62
254
0
LINE
8
Modules
10
-3.8013204121
20
16.5560543701
11
-2.9729080203
21
15.7441296216
62
254
0
TEXT
8
Modules
100
AcDbText
10
-3.2923212693
20
16.5119554254
1
DC
7
NewTextStyle_4
40
0.2624672000000003
50
-89.42411804197069
0
TEXT
8
Modules
100
AcDbText
10
-3.7488127692
20
16.2284815714
1
DC
7
NewTextStyle_4
40
0.2624672000000003
50
-89.42411804197069
0
LINE
8
Modules
10
-1.6899603223
20
12.6836240966
11
-5.0135350396
21
12.6502176016
62
254
0
LINE
8
Modules
10
-5.0135350396
20
12.6502176016
11
-4.9443528897
21
5.7673629607
62
254
0
LINE
8
Modules
10
-4.9443528897
20
5.7673629607
11
-1.6207781724
21
5.8007694557
62
254
0
LINE
8
Modules
10
-1.6207781724
20
5.8007694557
11
-1.6899603223
21
12.6836240966
62
254
0
LINE
8
Modules
10
-3.7313628019
20
9.6314559029
11
-3.7231189802
21
8.8112873327
62
254
0
LINE
8
Modules
10
-3.7231189802
20
8.8112873327
11
-2.9029504101
21
8.8195311544
62
254
0
LINE
8
Modules
10
-2.9029504101
20
8.8195311544
11
-2.9111942317
21
9.6396997246
62
254
0
LINE
8
Modules
10
-2.9111942317
20
9.6396997246
11
-3.7313628019
21
9.6314559029
62
254
0
LINE
8
Modules
10
-3.7313628019
20
9.6314559029
11
-2.9029504101
21
8.8195311544
62
254
0
TEXT
8
Modules
100
AcDbText
10
-3.2223636591
20
9.5873569581
1
DC
7
NewTextStyle_4
40
0.2624672000000003
50
-89.42411804197069
0
TEXT
8
Modules
100
AcDbText
10
-3.6788551590
20
9.3038831041
1
DC
7
NewTextStyle_4
40
0.2624672000000003
50
-89.42411804197069
0
LINE
8
Modules
10
-1.6200027121
20
5.7590256294
11
-4.9435774294
21
5.7256191344
62
254
0
LINE
8
Modules
10
-4.9435774294
20
5.7256191344
11
-4.8743952795
21
-1.1572355065
62
254
0
LINE
8
Modules
10
-4.8743952795
20
-1.1572355065
11
-1.5508205622
21
-1.1238290115
62
254
0
LINE
8
Modules
10
-1.5508205622
20
-1.1238290115
11
-1.6200027121
21
5.7590256294
62
254
0
LINE
8
Modules
10
-3.6614051917
20
2.7068574357
11
-3.6531613701
21
1.8866888655
62
254
0
LINE
8
Modules
10
-3.6531613701
20
1.8866888655
11
-2.8329927999
21
1.8949326872
62
254
0
LINE
8
Modules
10
-2.8329927999
20
1.8949326872
11
-2.8412366215
21
2.7151012574
62
254
0
LINE
8
Modules
10
-2.8412366215
20
2.7151012574
11
-3.6614051917
21
2.7068574357
62
254
0
LINE
8
Modules
10
-3.6614051917
20
2.7068574357
11
-2.8329927999
21
1.8949326872
62
254
0
TEXT
8
Modules
100
AcDbText
10
-3.1524060489
20
2.6627584909
1
DC
7
NewTextStyle_4
40
0.2624672000000003
50
-89.42411804197069
0
TEXT
8
Modules
100
AcDbText
10
-3.6088975488
20
2.3792846369
1
DC
7
NewTextStyle_4
40
0.2624672000000003
50
-89.42411804197069
0
LINE
8
Modules
10
-1.0195332388
20
-19.2988172436
11
-4.3431079561
21
-19.3322237386
62
254
0
LINE
8
Modules
10
-4.3431079561
20
-19.3322237386
11
-4.2739258063
21
-26.2150783795
62
254
0
LINE
8
Modules
10
-4.2739258063
20
-26.2150783795
11
-0.9503510889
21
-26.1816718845
62
254
0
LINE
8
Modules
10
-0.9503510889
20
-26.1816718845
11
-1.0195332388
21
-19.2988172436
62
254
0
LINE
8
Modules
10
-3.0609357184
20
-22.3509854373
11
-3.0526918968
21
-23.1711540075
62
254
0
LINE
8
Modules
10
-3.0526918968
20
-23.1711540075
11
-2.2325233266
21
-23.1629101858
62
254
0
LINE
8
Modules
10
-2.2325233266
20
-23.1629101858
11
-2.2407671483
21
-22.3427416156
62
254
0
LINE
8
Modules
10
-2.2407671483
20
-22.3427416156
11
-3.0609357184
21
-22.3509854373
62
254
0
LINE
8
Modules
10
-3.0609357184
20
-22.3509854373
11
-2.2325233266
21
-23.1629101858
62
254
0
TEXT
8
Modules
100
AcDbText
10
-2.5519365756
20
-22.3950843821
1
DC
7
NewTextStyle_4
40
0.2624672000000003
50
-89.42411804197069
0
TEXT
8
Modules
100
AcDbText
10
-3.0084280756
20
-22.6785582361
1
DC
7
NewTextStyle_4
40
0.2624672000000003
50
-89.42411804197069
0
LINE
8
Modules
10
-0.9495756328
20
-26.2234157108
11
-4.2731503501
21
-26.2568222058
62
254
0
LINE
8
Modules
10
-4.2731503501
20
-26.2568222058
11
-4.2039682002
21
-33.1396768467
62
254
0
LINE
8
Modules
10
-4.2039682002
20
-33.1396768467
11
-0.8803934829
21
-33.1062703517
62
254
0
LINE
8
Modules
10
-0.8803934829
20
-33.1062703517
11
-0.9495756328
21
-26.2234157108
62
254
0
LINE
8
Modules
10
-2.9909781124
20
-29.2755839045
11
-2.9827342907
21
-30.0957524747
62
254
0
LINE
8
Modules
10
-2.9827342907
20
-30.0957524747
11
-2.1625657206
21
-30.0875086530
62
254
0
LINE
8
Modules
10
-2.1625657206
20
-30.0875086530
11
-2.1708095422
21
-29.2673400828
62
254
0
LINE
8
Modules
10
-2.1708095422
20
-29.2673400828
11
-2.9909781124
21
-29.2755839045
62
254
0
LINE
8
Modules
10
-2.9909781124
20
-29.2755839045
11
-2.1625657206
21
-30.0875086530
62
254
0
TEXT
8
Modules
100
AcDbText
10
-2.4819789696
20
-29.3196828493
1
DC
7
NewTextStyle_4
40
0.2624672000000003
50
-89.42411804197069
0
TEXT
8
Modules
100
AcDbText
10
-2.9384704695
20
-29.6031567033
1
DC
7
NewTextStyle_4
40
0.2624672000000003
50
-89.42411804197069
0
LINE
8
Modules
10
1.5310045702
20
26.5693431753
11
-1.7925701471
21
26.5359366803
62
254
0
LINE
8
Modules
10
-1.7925701471
20
26.5359366803
11
-1.7233879972
21
19.6530820394
62
254
0
LINE
8
Modules
10
-1.7233879972
20
19.6530820394
11
1.6001867201
21
19.6864885344
62
254
0
LINE
8
Modules
10
1.6001867201
20
19.6864885344
11
1.5310045702
21
26.5693431753
62
254
0
LINE
8
Modules
10
-0.5103979094
20
23.5171749816
11
-0.5021540877
21
22.6970064114
62
254
0
LINE
8
Modules
10
-0.5021540877
20
22.6970064114
11
0.3180144824
21
22.7052502331
62
254
0
LINE
8
Modules
10
0.3180144824
20
22.7052502331
11
0.3097706608
21
23.5254188033
62
254
0
LINE
8
Modules
10
0.3097706608
20
23.5254188033
11
-0.5103979094
21
23.5171749816
62
254
0
LINE
8
Modules
10
-0.5103979094
20
23.5171749816
11
0.3180144824
21
22.7052502331
62
254
0
TEXT
8
Modules
100
AcDbText
10
-0.0013987666
20
23.4730760368
1
DC
7
NewTextStyle_4
40
0.2624672000000003
50
-89.42411804197069
0
TEXT
8
Modules
100
AcDbText
10
-0.4578902665
20
23.1896021828
1
DC
7
NewTextStyle_4
40
0.2624672000000003
50
-89.42411804197069
0
LINE
8
Modules
10
1.6009621804
20
19.6447447081
11
-1.7226125369
21
19.6113382131
62
254
0
LINE
8
Modules
10
-1.7226125369
20
19.6113382131
11
-1.6534303870
21
12.7284835722
62
254
0
LINE
8
Modules
10
-1.6534303870
20
12.7284835722
11
1.6701443303
21
12.7618900671
62
254
0
LINE
8
Modules
10
1.6701443303
20
12.7618900671
11
1.6009621804
21
19.6447447081
62
254
0
LINE
8
Modules
10
-0.4404402992
20
16.5925765144
11
-0.4321964776
21
15.7724079442
62
254
0
LINE
8
Modules
10
-0.4321964776
20
15.7724079442
11
0.3879720926
21
15.7806517659
62
254
0
LINE
8
Modules
10
0.3879720926
20
15.7806517659
11
0.3797282710
21
16.6008203360
62
254
0
LINE
8
Modules
10
0.3797282710
20
16.6008203360
11
-0.4404402992
21
16.5925765144
62
254
0
LINE
8
Modules
10
-0.4404402992
20
16.5925765144
11
0.3879720926
21
15.7806517659
62
254
0
TEXT
8
Modules
100
AcDbText
10
0.0685588436
20
16.5484775696
1
DC
7
NewTextStyle_4
40
0.2624672000000003
50
-89.42411804197069
0
TEXT
8
Modules
100
AcDbText
10
-0.3879326563
20
16.2650037156
1
DC
7
NewTextStyle_4
40
0.2624672000000003
50
-89.42411804197069
0
LINE
8
Modules
10
1.6709197865
20
12.7201462409
11
-1.6526549309
21
12.6867397459
62
254
0
LINE
8
Modules
10
-1.6526549309
20
12.6867397459
11
-1.5834727810
21
5.8038851049
62
254
0
LINE
8
Modules
10
-1.5834727810
20
5.8038851049
11
1.7401019363
21
5.8372915999
62
254
0
LINE
8
Modules
10
1.7401019363
20
5.8372915999
11
1.6709197865
21
12.7201462409
62
254
0
LINE
8
Modules
10
-0.3704826932
20
9.6679780472
11
-0.3622388715
21
8.8478094770
62
254
0
LINE
8
Modules
10
-0.3622388715
20
8.8478094770
11
0.4579296987
21
8.8560532986
62
254
0
LINE
8
Modules
10
0.4579296987
20
8.8560532986
11
0.4496858770
21
9.6762218688
62
254
0
LINE
8
Modules
10
0.4496858770
20
9.6762218688
11
-0.3704826932
21
9.6679780472
62
254
0
LINE
8
Modules
10
-0.3704826932
20
9.6679780472
11
0.4579296987
21
8.8560532986
62
254
0
TEXT
8
Modules
100
AcDbText
10
0.1385164496
20
9.6238791024
1
DC
7
NewTextStyle_4
40
0.2624672000000003
50
-89.42411804197069
0
TEXT
8
Modules
100
AcDbText
10
-0.3179750503
20
9.3404052484
1
DC
7
NewTextStyle_4
40
0.2624672000000003
50
-89.42411804197069
0
LINE
8
Modules
10
1.7408773967
20
5.7955477736
11
-1.5826973207
21
5.7621412787
62
254
0
LINE
8
Modules
10
-1.5826973207
20
5.7621412787
11
-1.5135151708
21
-1.1207133623
62
254
0
LINE
8
Modules
10
-1.5135151708
20
-1.1207133623
11
1.8100595465
21
-1.0873068673
62
254
0
LINE
8
Modules
10
1.8100595465
20
-1.0873068673
11
1.7408773967
21
5.7955477736
62
254
0
LINE
8
Modules
10
-0.3005250830
20
2.7433795799
11
-0.2922812613
21
1.9232110098
62
254
0
LINE
8
Modules
10
-0.2922812613
20
1.9232110098
11
0.5278873088
21
1.9314548314
62
254
0
LINE
8
Modules
10
0.5278873088
20
1.9314548314
11
0.5196434872
21
2.7516234016
62
254
0
LINE
8
Modules
10
0.5196434872
20
2.7516234016
11
-0.3005250830
21
2.7433795799
62
254
0
LINE
8
Modules
10
-0.3005250830
20
2.7433795799
11
0.5278873088
21
1.9314548314
62
254
0
TEXT
8
Modules
100
AcDbText
10
0.2084740598
20
2.6992806352
1
DC
7
NewTextStyle_4
40
0.2624672000000003
50
-89.42411804197069
0
TEXT
8
Modules
100
AcDbText
10
-0.2480174401
20
2.4158067812
1
DC
7
NewTextStyle_4
40
0.2624672000000003
50
-89.42411804197069
0
LINE
8
Modules
10
1.8108350068
20
-1.1290506962
11
-1.5127397105
21
-1.1624571912
62
254
0
LINE
8
Modules
10
-1.5127397105
20
-1.1624571912
11
-1.4435575606
21
-8.0453118321
62
254
0
LINE
8
Modules
10
-1.4435575606
20
-8.0453118321
11
1.8800171567
21
-8.0119053371
62
254
0
LINE
8
Modules
10
1.8800171567
20
-8.0119053371
11
1.8108350068
21
-1.1290506962
62
254
0
LINE
8
Modules
10
-0.2305674728
20
-4.1812188899
11
-0.2223236511
21
-5.0013874601
62
254
0
LINE
8
Modules
10
-0.2223236511
20
-5.0013874601
11
0.5978449190
21
-4.9931436384
62
254
0
LINE
8
Modules
10
0.5978449190
20
-4.9931436384
11
0.5896010974
21
-4.1729750682
62
254
0
LINE
8
Modules
10
0.5896010974
20
-4.1729750682
11
-0.2305674728
21
-4.1812188899
62
254
0
LINE
8
Modules
10
-0.2305674728
20
-4.1812188899
11
0.5978449190
21
-4.9931436384
62
254
0
TEXT
8
Modules
100
AcDbText
10
0.2784316700
20
-4.2253178347
1
DC
7
NewTextStyle_4
40
0.2624672000000003
50
-89.42411804197069
0
TEXT
8
Modules
100
AcDbText
10
-0.1780598299
20
-4.5087916886
1
DC
7
NewTextStyle_4
40
0.2624672000000003
50
-89.42411804197069
0
LINE
8
Modules
10
2.2713892597
20
-12.3413488468
11
-1.0521854576
21
-12.3747553418
62
254
0
LINE
8
Modules
10
-1.0521854576
20
-12.3747553418
11
-0.9830033077
21
-19.2576099827
62
254
0
LINE
8
Modules
10
-0.9830033077
20
-19.2576099827
11
2.3405714096
21
-19.2242034877
62
254
0
LINE
8
Modules
10
2.3405714096
20
-19.2242034877
11
2.2713892597
21
-12.3413488468
62
254
0
LINE
8
Modules
10
0.2299867801
20
-15.3935170405
11
0.2382306018
21
-16.2136856107
62
254
0
LINE
8
Modules
10
0.2382306018
20
-16.2136856107
11
1.0583991719
21
-16.2054417890
62
254
0
LINE
8
Modules
10
1.0583991719
20
-16.2054417890
11
1.0501553503
21
-15.3852732188
62
254
0
LINE
8
Modules
10
1.0501553503
20
-15.3852732188
11
0.2299867801
21
-15.3935170405
62
254
0
LINE
8
Modules
10
0.2299867801
20
-15.3935170405
11
1.0583991719
21
-16.2054417890
62
254
0
TEXT
8
Modules
100
AcDbText
10
0.7389859229
20
-15.4376159853
1
DC
7
NewTextStyle_4
40
0.2624672000000003
50
-89.42411804197069
0
TEXT
8
Modules
100
AcDbText
10
0.2824944230
20
-15.7210898393
1
DC
7
NewTextStyle_4
40
0.2624672000000003
50
-89.42411804197069
0
LINE
8
Modules
10
2.3413468699
20
-19.2659473140
11
-0.9822278474
21
-19.2993538090
62
254
0
LINE
8
Modules
10
-0.9822278474
20
-19.2993538090
11
-0.9130456975
21
-26.1822084499
62
254
0
LINE
8
Modules
10
-0.9130456975
20
-26.1822084499
11
2.4105290198
21
-26.1488019550
62
254
0
LINE
8
Modules
10
2.4105290198
20
-26.1488019550
11
2.3413468699
21
-19.2659473140
62
254
0
LINE
8
Modules
10
0.2999443903
20
-22.3181155077
11
0.3081882119
21
-23.1382840779
62
254
0
LINE
8
Modules
10
0.3081882119
20
-23.1382840779
11
1.1283567821
21
-23.1300402562
62
254
0
LINE
8
Modules
10
1.1283567821
20
-23.1300402562
11
1.1201129605
21
-22.3098716861
62
254
0
LINE
8
Modules
10
1.1201129605
20
-22.3098716861
11
0.2999443903
21
-22.3181155077
62
254
0
LINE
8
Modules
10
0.2999443903
20
-22.3181155077
11
1.1283567821
21
-23.1300402562
62
254
0
TEXT
8
Modules
100
AcDbText
10
0.8089435331
20
-22.3622144525
1
DC
7
NewTextStyle_4
40
0.2624672000000003
50
-89.42411804197069
0
TEXT
8
Modules
100
AcDbText
10
0.3524520332
20
-22.6456883065
1
DC
7
NewTextStyle_4
40
0.2624672000000003
50
-89.42411804197069
0
LINE
8
Modules
10
2.4113044801
20
-26.1905457812
11
-0.9122702372
21
-26.2239522762
62
254
0
LINE
8
Modules
10
-0.9122702372
20
-26.2239522762
11
-0.8430880873
21
-33.1068069172
62
254
0
LINE
8
Modules
10
-0.8430880873
20
-33.1068069172
11
2.4804866300
21
-33.0734004222
62
254
0
LINE
8
Modules
10
2.4804866300
20
-33.0734004222
11
2.4113044801
21
-26.1905457812
62
254
0
LINE
8
Modules
10
0.3699020005
20
-29.2427139749
11
0.3781458221
21
-30.0628825451
62
254
0
LINE
8
Modules
10
0.3781458221
20
-30.0628825451
11
1.1983143923
21
-30.0546387235
62
254
0
LINE
8
Modules
10
1.1983143923
20
-30.0546387235
11
1.1900705706
21
-29.2344701533
62
254
0
LINE
8
Modules
10
1.1900705706
20
-29.2344701533
11
0.3699020005
21
-29.2427139749
62
254
0
LINE
8
Modules
10
0.3699020005
20
-29.2427139749
11
1.1983143923
21
-30.0546387235
62
254
0
TEXT
8
Modules
100
AcDbText
10
0.8789011433
20
-29.2868129197
1
DC
7
NewTextStyle_4
40
0.2624672000000003
50
-89.42411804197069
0
TEXT
8
Modules
100
AcDbText
10
0.4224096433
20
-29.5702867737
1
DC
7
NewTextStyle_4
40
0.2624672000000003
50
-89.42411804197069
0
LINE
8
Modules
10
2.4812620862
20
-33.1151442511
11
-0.8423126312
21
-33.1485507460
62
254
0
LINE
8
Modules
10
-0.8423126312
20
-33.1485507460
11
-0.7731304813
21
-40.0314053870
62
254
0
LINE
8
Modules
10
-0.7731304813
20
-40.0314053870
11
2.5504442360
21
-39.9979988920
62
254
0
LINE
8
Modules
10
2.5504442360
20
-39.9979988920
11
2.4812620862
21
-33.1151442511
62
254
0
LINE
8
Modules
10
0.4398596065
20
-36.1673124448
11
0.4481034282
21
-36.9874810149
62
254
0
LINE
8
Modules
10
0.4481034282
20
-36.9874810149
11
1.2682719983
21
-36.9792371933
62
254
0
LINE
8
Modules
10
1.2682719983
20
-36.9792371933
11
1.2600281767
21
-36.1590686231
62
254
0
LINE
8
Modules
10
1.2600281767
20
-36.1590686231
11
0.4398596065
21
-36.1673124448
62
254
0
LINE
8
Modules
10
0.4398596065
20
-36.1673124448
11
1.2682719983
21
-36.9792371933
62
254
0
TEXT
8
Modules
100
AcDbText
10
0.9488587493
20
-36.2114113895
1
DC
7
NewTextStyle_4
40
0.2624672000000003
50
-89.42411804197069
0
TEXT
8
Modules
100
AcDbText
10
0.4923672494
20
-36.4948852435
1
DC
7
NewTextStyle_4
40
0.2624672000000003
50
-89.42411804197069
0
LINE
8
Modules
10
5.1017575054
20
5.8284177032
11
1.7781827881
21
5.7950112082
62
254
0
LINE
8
Modules
10
1.7781827881
20
5.7950112082
11
1.8473649379
21
-1.0878434327
62
254
0
LINE
8
Modules
10
1.8473649379
20
-1.0878434327
11
5.1709396552
21
-1.0544369377
62
254
0
LINE
8
Modules
10
5.1709396552
20
-1.0544369377
11
5.1017575054
21
5.8284177032
62
254
0
LINE
8
Modules
10
3.0603550257
20
2.7762495095
11
3.0685988474
21
1.9560809393
62
254
0
LINE
8
Modules
10
3.0685988474
20
1.9560809393
11
3.8887674176
21
1.9643247610
62
254
0
LINE
8
Modules
10
3.8887674176
20
1.9643247610
11
3.8805235959
21
2.7844933312
62
254
0
LINE
8
Modules
10
3.8805235959
20
2.7844933312
11
3.0603550257
21
2.7762495095
62
254
0
LINE
8
Modules
10
3.0603550257
20
2.7762495095
11
3.8887674176
21
1.9643247610
62
254
0
TEXT
8
Modules
100
AcDbText
10
3.5693541685
20
2.7321505647
1
DC
7
NewTextStyle_4
40
0.2624672000000003
50
-89.42411804197069
0
TEXT
8
Modules
100
AcDbText
10
3.1128626686
20
2.4486767107
1
DC
7
NewTextStyle_4
40
0.2624672000000003
50
-89.42411804197069
0
LINE
8
Modules
10
5.1717151156
20
-1.0961807666
11
1.8481403982
21
-1.1295872616
62
254
0
LINE
8
Modules
10
1.8481403982
20
-1.1295872616
11
1.9173225481
21
-8.0124419025
62
254
0
LINE
8
Modules
10
1.9173225481
20
-8.0124419025
11
5.2408972654
21
-7.9790354075
62
254
0
LINE
8
Modules
10
5.2408972654
20
-7.9790354075
11
5.1717151156
21
-1.0961807666
62
254
0
LINE
8
Modules
10
3.1303126359
20
-4.1483489603
11
3.1385564576
21
-4.9685175305
62
254
0
LINE
8
Modules
10
3.1385564576
20
-4.9685175305
11
3.9587250278
21
-4.9602737088
62
254
0
LINE
8
Modules
10
3.9587250278
20
-4.9602737088
11
3.9504812061
21
-4.1401051387
62
254
0
LINE
8
Modules
10
3.9504812061
20
-4.1401051387
11
3.1303126359
21
-4.1483489603
62
254
0
LINE
8
Modules
10
3.1303126359
20
-4.1483489603
11
3.9587250278
21
-4.9602737088
62
254
0
TEXT
8
Modules
100
AcDbText
10
3.6393117787
20
-4.1924479051
1
DC
7
NewTextStyle_4
40
0.2624672000000003
50
-89.42411804197069
0
TEXT
8
Modules
100
AcDbText
10
3.1828202788
20
-4.4759217591
1
DC
7
NewTextStyle_4
40
0.2624672000000003
50
-89.42411804197069
0
LINE
8
Modules
10
-7.7412934604
20
-19.3682093174
11
-11.0648681777
21
-19.4016158124
62
254
0
LINE
8
Modules
10
-11.0648681777
20
-19.4016158124
11
-10.9956860279
21
-26.2844704533
62
254
0
LINE
8
Modules
10
-10.9956860279
20
-26.2844704533
11
-7.6721113105
21
-26.2510639583
62
254
0
LINE
8
Modules
10
-7.6721113105
20
-26.2510639583
11
-7.7412934604
21
-19.3682093174
62
254
0
LINE
8
Modules
10
-9.7826959400
20
-22.4203775111
11
-9.7744521184
21
-23.2405460813
62
254
0
LINE
8
Modules
10
-9.7744521184
20
-23.2405460813
11
-8.9542835482
21
-23.2323022596
62
254
0
LINE
8
Modules
10
-8.9542835482
20
-23.2323022596
11
-8.9625273699
21
-22.4121336894
62
254
0
LINE
8
Modules
10
-8.9625273699
20
-22.4121336894
11
-9.7826959400
21
-22.4203775111
62
254
0
LINE
8
Modules
10
-9.7826959400
20
-22.4203775111
11
-8.9542835482
21
-23.2323022596
62
254
0
TEXT
8
Modules
100
AcDbText
10
-9.2736967972
20
-22.4644764559
1
DC
7
NewTextStyle_4
40
0.2624672000000003
50
-89.42411804197069
0
TEXT
8
Modules
100
AcDbText
10
-9.7301882972
20
-22.7479503099
1
DC
7
NewTextStyle_4
40
0.2624672000000003
50
-89.42411804197069
0
LINE
8
Modules
10
5.6322693726
20
-12.3084789172
11
2.3086946553
21
-12.3418854122
62
254
0
LINE
8
Modules
10
2.3086946553
20
-12.3418854122
11
2.3778768052
21
-19.2247400532
62
254
0
LINE
8
Modules
10
2.3778768052
20
-19.2247400532
11
5.7014515225
21
-19.1913335582
62
254
0
LINE
8
Modules
10
5.7014515225
20
-19.1913335582
11
5.6322693726
21
-12.3084789172
62
254
0
LINE
8
Modules
10
3.5908668930
20
-15.3606471109
11
3.5991107146
21
-16.1808156811
62
254
0
LINE
8
Modules
10
3.5991107146
20
-16.1808156811
11
4.4192792848
21
-16.1725718595
62
254
0
LINE
8
Modules
10
4.4192792848
20
-16.1725718595
11
4.4110354631
21
-15.3524032893
62
254
0
LINE
8
Modules
10
4.4110354631
20
-15.3524032893
11
3.5908668930
21
-15.3606471109
62
254
0
LINE
8
Modules
10
3.5908668930
20
-15.3606471109
11
4.4192792848
21
-16.1725718595
62
254
0
TEXT
8
Modules
100
AcDbText
10
4.0998660358
20
-15.4047460557
1
DC
7
NewTextStyle_4
40
0.2624672000000003
50
-89.42411804197069
0
TEXT
8
Modules
100
AcDbText
10
3.6433745358
20
-15.6882199097
1
DC
7
NewTextStyle_4
40
0.2624672000000003
50
-89.42411804197069
0
LINE
8
Modules
10
5.7022269787
20
-19.2330773845
11
2.3786522613
21
-19.2664838794
62
254
0
LINE
8
Modules
10
2.3786522613
20
-19.2664838794
11
2.4478344112
21
-26.1493385204
62
254
0
LINE
8
Modules
10
2.4478344112
20
-26.1493385204
11
5.7714091285
21
-26.1159320254
62
254
0
LINE
8
Modules
10
5.7714091285
20
-26.1159320254
11
5.7022269787
21
-19.2330773845
62
254
0
LINE
8
Modules
10
3.6608244990
20
-22.2852455782
11
3.6690683207
21
-23.1054141483
62
254
0
LINE
8
Modules
10
3.6690683207
20
-23.1054141483
11
4.4892368908
21
-23.0971703267
62
254
0
LINE
8
Modules
10
4.4892368908
20
-23.0971703267
11
4.4809930692
21
-22.2770017565
62
254
0
LINE
8
Modules
10
4.4809930692
20
-22.2770017565
11
3.6608244990
21
-22.2852455782
62
254
0
LINE
8
Modules
10
3.6608244990
20
-22.2852455782
11
4.4892368908
21
-23.0971703267
62
254
0
TEXT
8
Modules
100
AcDbText
10
4.1698236418
20
-22.3293445229
1
DC
7
NewTextStyle_4
40
0.2624672000000003
50
-89.42411804197069
0
TEXT
8
Modules
100
AcDbText
10
3.7133321419
20
-22.6128183769
1
DC
7
NewTextStyle_4
40
0.2624672000000003
50
-89.42411804197069
0
LINE
8
Modules
10
5.7721845888
20
-26.1576758543
11
2.4486098715
21
-26.1910823493
62
254
0
LINE
8
Modules
10
2.4486098715
20
-26.1910823493
11
2.5177920214
21
-33.0739369902
62
254
0
LINE
8
Modules
10
2.5177920214
20
-33.0739369902
11
5.8413667387
21
-33.0405304952
62
254
0
LINE
8
Modules
10
5.8413667387
20
-33.0405304952
11
5.7721845888
21
-26.1576758543
62
254
0
LINE
8
Modules
10
3.7307821092
20
-29.2098440480
11
3.7390259309
21
-30.0300126182
62
254
0
LINE
8
Modules
10
3.7390259309
20
-30.0300126182
11
4.5591945010
21
-30.0217687965
62
254
0
LINE
8
Modules
10
4.5591945010
20
-30.0217687965
11
4.5509506794
21
-29.2016002263
62
254
0
LINE
8
Modules
10
4.5509506794
20
-29.2016002263
11
3.7307821092
21
-29.2098440480
62
254
0
LINE
8
Modules
10
3.7307821092
20
-29.2098440480
11
4.5591945010
21
-30.0217687965
62
254
0
TEXT
8
Modules
100
AcDbText
10
4.2397812520
20
-29.2539429928
1
DC
7
NewTextStyle_4
40
0.2624672000000003
50
-89.42411804197069
0
TEXT
8
Modules
100
AcDbText
10
3.7832897521
20
-29.5374168467
1
DC
7
NewTextStyle_4
40
0.2624672000000003
50
-89.42411804197069
0
LINE
8
Modules
10
5.8421421990
20
-33.0822743215
11
2.5185674817
21
-33.1156808165
62
254
0
LINE
8
Modules
10
2.5185674817
20
-33.1156808165
11
2.5877496316
21
-39.9985354574
62
254
0
LINE
8
Modules
10
2.5877496316
20
-39.9985354574
11
5.9113243489
21
-39.9651289624
62
254
0
LINE
8
Modules
10
5.9113243489
20
-39.9651289624
11
5.8421421990
21
-33.0822743215
62
254
0
LINE
8
Modules
10
3.8007397194
20
-36.1344425152
11
3.8089835410
21
-36.9546110854
62
254
0
LINE
8
Modules
10
3.8089835410
20
-36.9546110854
11
4.6291521112
21
-36.9463672637
62
254
0
LINE
8
Modules
10
4.6291521112
20
-36.9463672637
11
4.6209082896
21
-36.1261986935
62
254
0
LINE
8
Modules
10
4.6209082896
20
-36.1261986935
11
3.8007397194
21
-36.1344425152
62
254
0
LINE
8
Modules
10
3.8007397194
20
-36.1344425152
11
4.6291521112
21
-36.9463672637
62
254
0
TEXT
8
Modules
100
AcDbText
10
4.3097388622
20
-36.1785414600
1
DC
7
NewTextStyle_4
40
0.2624672000000003
50
-89.42411804197069
0
TEXT
8
Modules
100
AcDbText
10
3.8532473623
20
-36.4620153140
1
DC
7
NewTextStyle_4
40
0.2624672000000003
50
-89.42411804197069
0
LINE
8
Modules
10
22.3332845840
20
-32.8621085547
11
25.6568594121
21
-32.8287020586
62
254
0
LINE
8
Modules
10
25.6568594121
20
-32.8287020586
11
25.5876772622
21
-25.9458474176
62
254
0
LINE
8
Modules
10
25.5876772622
20
-25.9458474176
11
22.2641024341
21
-25.9792539137
62
254
0
LINE
8
Modules
10
22.2641024341
20
-25.9792539137
11
22.3332845840
21
-32.8621085547
62
254
0
LINE
8
Modules
10
24.3746871190
20
-29.8099403604
11
24.3664432974
21
-28.9897717902
62
254
0
LINE
8
Modules
10
24.3664432974
20
-28.9897717902
11
23.5462747272
21
-28.9980156119
62
254
0
LINE
8
Modules
10
23.5462747272
20
-28.9980156119
11
23.5545185488
21
-29.8181841821
62
254
0
LINE
8
Modules
10
23.5545185488
20
-29.8181841821
11
24.3746871190
21
-29.8099403604
62
254
0
LINE
8
Modules
10
24.3746871190
20
-29.8099403604
11
23.5462747272
21
-28.9980156119
62
254
0
TEXT
8
Modules
100
AcDbText
10
23.8656879762
20
-29.7658414156
1
DC
7
NewTextStyle_4
40
0.2624672000000003
50
90.57588195801094
0
TEXT
8
Modules
100
AcDbText
10
24.3221794762
20
-29.4823675616
1
DC
7
NewTextStyle_4
40
0.2624672000000003
50
90.57588195801094
0
LINE
8
Modules
10
21.7852833173
20
6.0485834674
11
25.1088581454
21
6.0819899635
62
254
0
LINE
8
Modules
10
25.1088581454
20
6.0819899635
11
25.0396759956
21
12.9648446045
62
254
0
LINE
8
Modules
10
25.0396759956
20
12.9648446045
11
21.7161011674
21
12.9314381084
62
254
0
LINE
8
Modules
10
21.7161011674
20
12.9314381084
11
21.7852833173
21
6.0485834674
62
254
0
LINE
8
Modules
10
23.8266858524
20
9.1007516617
11
23.8184420307
21
9.9209202319
62
254
0
LINE
8
Modules
10
23.8184420307
20
9.9209202319
11
22.9982734605
21
9.9126764102
62
254
0
LINE
8
Modules
10
22.9982734605
20
9.9126764102
11
23.0065172822
21
9.0925078400
62
254
0
LINE
8
Modules
10
23.0065172822
20
9.0925078400
11
23.8266858524
21
9.1007516617
62
254
0
LINE
8
Modules
10
23.8266858524
20
9.1007516617
11
22.9982734605
21
9.9126764102
62
254
0
TEXT
8
Modules
100
AcDbText
10
23.3176867095
20
9.1448506065
1
DC
7
NewTextStyle_4
40
0.2624672000000003
50
90.57588195801094
0
TEXT
8
Modules
100
AcDbText
10
23.7741782095
20
9.4283244605
1
DC
7
NewTextStyle_4
40
0.2624672000000003
50
90.57588195801094
0
LINE
8
Modules
10
21.7182406098
20
12.9731819347
11
25.0418154379
21
13.0065884308
62
254
0
LINE
8
Modules
10
25.0418154379
20
13.0065884308
11
24.9726332881
21
19.8894430717
62
254
0
LINE
8
Modules
10
24.9726332881
20
19.8894430717
11
21.6490584599
21
19.8560365756
62
254
0
LINE
8
Modules
10
21.6490584599
20
19.8560365756
11
21.7182406098
21
12.9731819347
62
254
0
LINE
8
Modules
10
23.7596431448
20
16.0253501289
11
23.7513993232
21
16.8455186991
62
254
0
LINE
8
Modules
10
23.7513993232
20
16.8455186991
11
22.9312307530
21
16.8372748774
62
254
0
LINE
8
Modules
10
22.9312307530
20
16.8372748774
11
22.9394745747
21
16.0171063073
62
254
0
LINE
8
Modules
10
22.9394745747
20
16.0171063073
11
23.7596431448
21
16.0253501289
62
254
0
LINE
8
Modules
10
23.7596431448
20
16.0253501289
11
22.9312307530
21
16.8372748774
62
254
0
TEXT
8
Modules
100
AcDbText
10
23.2506440020
20
16.0694490737
1
DC
7
NewTextStyle_4
40
0.2624672000000003
50
90.57588195801094
0
TEXT
8
Modules
100
AcDbText
10
23.7071355020
20
16.3529229277
1
DC
7
NewTextStyle_4
40
0.2624672000000003
50
90.57588195801094
0
LINE
8
Modules
10
21.6482829996
20
19.8977804045
11
24.9718578277
21
19.9311869006
62
254
0
LINE
8
Modules
10
24.9718578277
20
19.9311869006
11
24.9026756779
21
26.8140415415
62
254
0
LINE
8
Modules
10
24.9026756779
20
26.8140415415
11
21.5791008497
21
26.7806350454
62
254
0
LINE
8
Modules
10
21.5791008497
20
26.7806350454
11
21.6482829996
21
19.8977804045
62
254
0
LINE
8
Modules
10
23.6896855347
20
22.9499485987
11
23.6814417130
21
23.7701171689
62
254
0
LINE
8
Modules
10
23.6814417130
20
23.7701171689
11
22.8612731428
21
23.7618733473
62
254
0
LINE
8
Modules
10
22.8612731428
20
23.7618733473
11
22.8695169645
21
22.9417047771
62
254
0
LINE
8
Modules
10
22.8695169645
20
22.9417047771
11
23.6896855347
21
22.9499485987
62
254
0
LINE
8
Modules
10
23.6896855347
20
22.9499485987
11
22.8612731428
21
23.7618733473
62
254
0
TEXT
8
Modules
100
AcDbText
10
23.1806863918
20
22.9940475435
1
DC
7
NewTextStyle_4
40
0.2624672000000003
50
90.57588195801094
0
TEXT
8
Modules
100
AcDbText
10
23.6371778918
20
23.2775213975
1
DC
7
NewTextStyle_4
40
0.2624672000000003
50
90.57588195801094
0
LINE
8
Modules
10
21.5783253936
20
26.8223788717
11
24.9019002217
21
26.8557853678
62
254
0
LINE
8
Modules
10
24.9019002217
20
26.8557853678
11
24.8327180718
21
33.7386400087
62
254
0
LINE
8
Modules
10
24.8327180718
20
33.7386400087
11
21.5091432437
21
33.7052335126
62
254
0
LINE
8
Modules
10
21.5091432437
20
33.7052335126
11
21.5783253936
21
26.8223788717
62
254
0
LINE
8
Modules
10
23.6197279286
20
29.8745470660
11
23.6114841070
21
30.6947156361
62
254
0
LINE
8
Modules
10
23.6114841070
20
30.6947156361
11
22.7913155368
21
30.6864718145
62
254
0
LINE
8
Modules
10
22.7913155368
20
30.6864718145
11
22.7995593584
21
29.8663032443
62
254
0
LINE
8
Modules
10
22.7995593584
20
29.8663032443
11
23.6197279286
21
29.8745470660
62
254
0
LINE
8
Modules
10
23.6197279286
20
29.8745470660
11
22.7913155368
21
30.6864718145
62
254
0
TEXT
8
Modules
100
AcDbText
10
23.1107287858
20
29.9186460107
1
DC
7
NewTextStyle_4
40
0.2624672000000003
50
90.57588195801094
0
TEXT
8
Modules
100
AcDbText
10
23.5672202857
20
30.2021198647
1
DC
7
NewTextStyle_4
40
0.2624672000000003
50
90.57588195801094
0
LINE
8
Modules
10
18.9724044752
20
-32.8949784842
11
22.2959793034
21
-32.8615719881
62
254
0
LINE
8
Modules
10
22.2959793034
20
-32.8615719881
11
22.2267971535
21
-25.9787173472
62
254
0
LINE
8
Modules
10
22.2267971535
20
-25.9787173472
11
18.9032223254
21
-26.0121238433
62
254
0
LINE
8
Modules
10
18.9032223254
20
-26.0121238433
11
18.9724044752
21
-32.8949784842
62
254
0
LINE
8
Modules
10
21.0138070103
20
-29.8428102900
11
21.0055631886
21
-29.0226417198
62
254
0
LINE
8
Modules
10
21.0055631886
20
-29.0226417198
11
20.1853946185
21
-29.0308855414
62
254
0
LINE
8
Modules
10
20.1853946185
20
-29.0308855414
11
20.1936384401
21
-29.8510541116
62
254
0
LINE
8
Modules
10
20.1936384401
20
-29.8510541116
11
21.0138070103
21
-29.8428102900
62
254
0
LINE
8
Modules
10
21.0138070103
20
-29.8428102900
11
20.1853946185
21
-29.0308855414
62
254
0
TEXT
8
Modules
100
AcDbText
10
20.5048078675
20
-29.7987113452
1
DC
7
NewTextStyle_4
40
0.2624672000000003
50
90.57588195801094
0
TEXT
8
Modules
100
AcDbText
10
20.9612993674
20
-29.5152374912
1
DC
7
NewTextStyle_4
40
0.2624672000000003
50
90.57588195801094
0
LINE
8
Modules
10
18.9024468651
20
-25.9703800170
11
22.2260216932
21
-25.9369735209
62
254
0
LINE
8
Modules
10
22.2260216932
20
-25.9369735209
11
22.1568395433
21
-19.0541188800
62
254
0
LINE
8
Modules
10
22.1568395433
20
-19.0541188800
11
18.8332647152
21
-19.0875253761
62
254
0
LINE
8
Modules
10
18.8332647152
20
-19.0875253761
11
18.9024468651
21
-25.9703800170
62
254
0
LINE
8
Modules
10
20.9438494001
20
-22.9182118227
11
20.9356055785
21
-22.0980432526
62
254
0
LINE
8
Modules
10
20.9356055785
20
-22.0980432526
11
20.1154370083
21
-22.1062870742
62
254
0
LINE
8
Modules
10
20.1154370083
20
-22.1062870742
11
20.1236808299
21
-22.9264556444
62
254
0
LINE
8
Modules
10
20.1236808299
20
-22.9264556444
11
20.9438494001
21
-22.9182118227
62
254
0
LINE
8
Modules
10
20.9438494001
20
-22.9182118227
11
20.1154370083
21
-22.1062870742
62
254
0
TEXT
8
Modules
100
AcDbText
10
20.4348502573
20
-22.8741128780
1
DC
7
NewTextStyle_4
40
0.2624672000000003
50
90.57588195801094
0
TEXT
8
Modules
100
AcDbText
10
20.8913417572
20
-22.5906390240
1
DC
7
NewTextStyle_4
40
0.2624672000000003
50
90.57588195801094
0
LINE
8
Modules
10
18.4244032086
20
6.0157135379
11
21.7479780367
21
6.0491200340
62
254
0
LINE
8
Modules
10
21.7479780367
20
6.0491200340
11
21.6787958869
21
12.9319746749
62
254
0
LINE
8
Modules
10
21.6787958869
20
12.9319746749
11
18.3552210587
21
12.8985681788
62
254
0
LINE
8
Modules
10
18.3552210587
20
12.8985681788
11
18.4244032086
21
6.0157135379
62
254
0
LINE
8
Modules
10
20.4658057436
20
9.0678817321
11
20.4575619220
21
9.8880503023
62
254
0
LINE
8
Modules
10
20.4575619220
20
9.8880503023
11
19.6373933518
21
9.8798064807
62
254
0
LINE
8
Modules
10
19.6373933518
20
9.8798064807
11
19.6456371735
21
9.0596379105
62
254
0
LINE
8
Modules
10
19.6456371735
20
9.0596379105
11
20.4658057436
21
9.0678817321
62
254
0
LINE
8
Modules
10
20.4658057436
20
9.0678817321
11
19.6373933518
21
9.8798064807
62
254
0
TEXT
8
Modules
100
AcDbText
10
19.9568066008
20
9.1119806769
1
DC
7
NewTextStyle_4
40
0.2624672000000003
50
90.57588195801094
0
TEXT
8
Modules
100
AcDbText
10
20.4132981008
20
9.3954545309
1
DC
7
NewTextStyle_4
40
0.2624672000000003
50
90.57588195801094
0
LINE
8
Modules
10
18.3573605011
20
12.9403120051
11
21.6809353292
21
12.9737185012
62
254
0
LINE
8
Modules
10
21.6809353292
20
12.9737185012
11
21.6117531793
21
19.8565731421
62
254
0
LINE
8
Modules
10
21.6117531793
20
19.8565731421
11
18.2881783512
21
19.8231666460
62
254
0
LINE
8
Modules
10
18.2881783512
20
19.8231666460
11
18.3573605011
21
12.9403120051
62
254
0
LINE
8
Modules
10
20.3987630361
20
15.9924801994
11
20.3905192145
21
16.8126487695
62
254
0
LINE
8
Modules
10
20.3905192145
20
16.8126487695
11
19.5703506443
21
16.8044049479
62
254
0
LINE
8
Modules
10
19.5703506443
20
16.8044049479
11
19.5785944659
21
15.9842363777
62
254
0
LINE
8
Modules
10
19.5785944659
20
15.9842363777
11
20.3987630361
21
15.9924801994
62
254
0
LINE
8
Modules
10
20.3987630361
20
15.9924801994
11
19.5703506443
21
16.8044049479
62
254
0
TEXT
8
Modules
100
AcDbText
10
19.8897638933
20
16.0365791441
1
DC
7
NewTextStyle_4
40
0.2624672000000003
50
90.57588195801094
0
TEXT
8
Modules
100
AcDbText
10
20.3462553932
20
16.3200529981
1
DC
7
NewTextStyle_4
40
0.2624672000000003
50
90.57588195801094
0
LINE
8
Modules
10
18.2874028909
20
19.8649104749
11
21.6109777190
21
19.8983169710
62
254
0
LINE
8
Modules
10
21.6109777190
20
19.8983169710
11
21.5417955691
21
26.7811716120
62
254
0
LINE
8
Modules
10
21.5417955691
20
26.7811716120
11
18.2182207410
21
26.7477651159
62
254
0
LINE
8
Modules
10
18.2182207410
20
26.7477651159
11
18.2874028909
21
19.8649104749
62
254
0
LINE
8
Modules
10
20.3288054259
20
22.9170786692
11
20.3205616043
21
23.7372472394
62
254
0
LINE
8
Modules
10
20.3205616043
20
23.7372472394
11
19.5003930341
21
23.7290034177
62
254
0
LINE
8
Modules
10
19.5003930341
20
23.7290034177
11
19.5086368558
21
22.9088348475
62
254
0
LINE
8
Modules
10
19.5086368558
20
22.9088348475
11
20.3288054259
21
22.9170786692
62
254
0
LINE
8
Modules
10
20.3288054259
20
22.9170786692
11
19.5003930341
21
23.7290034177
62
254
0
TEXT
8
Modules
100
AcDbText
10
19.8198062831
20
22.9611776140
1
DC
7
NewTextStyle_4
40
0.2624672000000003
50
90.57588195801094
0
TEXT
8
Modules
100
AcDbText
10
20.2762977831
20
23.2446514679
1
DC
7
NewTextStyle_4
40
0.2624672000000003
50
90.57588195801094
0
LINE
8
Modules
10
18.2174452807
20
26.7895089421
11
21.5410201088
21
26.8229154382
62
254
0
LINE
8
Modules
10
21.5410201088
20
26.8229154382
11
21.4718379590
21
33.7057700792
62
254
0
LINE
8
Modules
10
21.4718379590
20
33.7057700792
11
18.1482631308
21
33.6723635831
62
254
0
LINE
8
Modules
10
18.1482631308
20
33.6723635831
11
18.2174452807
21
26.7895089421
62
254
0
LINE
8
Modules
10
20.2588478157
20
29.8416771364
11
20.2506039941
21
30.6618457066
62
254
0
LINE
8
Modules
10
20.2506039941
20
30.6618457066
11
19.4304354239
21
30.6536018849
62
254
0
LINE
8
Modules
10
19.4304354239
20
30.6536018849
11
19.4386792456
21
29.8334333147
62
254
0
LINE
8
Modules
10
19.4386792456
20
29.8334333147
11
20.2588478157
21
29.8416771364
62
254
0
LINE
8
Modules
10
20.2588478157
20
29.8416771364
11
19.4304354239
21
30.6536018849
62
254
0
TEXT
8
Modules
100
AcDbText
10
19.7498486729
20
29.8857760812
1
DC
7
NewTextStyle_4
40
0.2624672000000003
50
90.57588195801094
0
TEXT
8
Modules
100
AcDbText
10
20.2063401729
20
30.1692499352
1
DC
7
NewTextStyle_4
40
0.2624672000000003
50
90.57588195801094
0
LINE
8
Modules
10
15.6115243624
20
-32.9315006285
11
18.9350991905
21
-32.8980941324
62
254
0
LINE
8
Modules
10
18.9350991905
20
-32.8980941324
11
18.8659170407
21
-26.0152394914
62
254
0
LINE
8
Modules
10
18.8659170407
20
-26.0152394914
11
15.5423422125
21
-26.0486459875
62
254
0
LINE
8
Modules
10
15.5423422125
20
-26.0486459875
11
15.6115243624
21
-32.9315006285
62
254
0
LINE
8
Modules
10
17.6529268974
20
-29.8793324342
11
17.6446830758
21
-29.0591638640
62
254
0
LINE
8
Modules
10
17.6446830758
20
-29.0591638640
11
16.8245145056
21
-29.0674076857
62
254
0
LINE
8
Modules
10
16.8245145056
20
-29.0674076857
11
16.8327583273
21
-29.8875762559
62
254
0
LINE
8
Modules
10
16.8327583273
20
-29.8875762559
11
17.6529268974
21
-29.8793324342
62
254
0
LINE
8
Modules
10
17.6529268974
20
-29.8793324342
11
16.8245145056
21
-29.0674076857
62
254
0
TEXT
8
Modules
100
AcDbText
10
17.1439277546
20
-29.8352334894
1
DC
7
NewTextStyle_4
40
0.2624672000000003
50
90.57588195801094
0
TEXT
8
Modules
100
AcDbText
10
17.6004192546
20
-29.5517596354
1
DC
7
NewTextStyle_4
40
0.2624672000000003
50
90.57588195801094
0
LINE
8
Modules
10
15.5415667563
20
-26.0069021612
11
18.8651415845
21
-25.9734956651
62
254
0
LINE
8
Modules
10
18.8651415845
20
-25.9734956651
11
18.7959594346
21
-19.0906410242
62
254
0
LINE
8
Modules
10
18.7959594346
20
-19.0906410242
11
15.4723846065
21
-19.1240475203
62
254
0
LINE
8
Modules
10
15.4723846065
20
-19.1240475203
11
15.5415667563
21
-26.0069021612
62
254
0
LINE
8
Modules
10
17.5829692914
20
-22.9547339670
11
17.5747254697
21
-22.1345653968
62
254
0
LINE
8
Modules
10
17.5747254697
20
-22.1345653968
11
16.7545568996
21
-22.1428092185
62
254
0
LINE
8
Modules
10
16.7545568996
20
-22.1428092185
11
16.7628007212
21
-22.9629777886
62
254
0
LINE
8
Modules
10
16.7628007212
20
-22.9629777886
11
17.5829692914
21
-22.9547339670
62
254
0
LINE
8
Modules
10
17.5829692914
20
-22.9547339670
11
16.7545568996
21
-22.1428092185
62
254
0
TEXT
8
Modules
100
AcDbText
10
17.0739701486
20
-22.9106350222
1
DC
7
NewTextStyle_4
40
0.2624672000000003
50
90.57588195801094
0
TEXT
8
Modules
100
AcDbText
10
17.5304616485
20
-22.6271611682
1
DC
7
NewTextStyle_4
40
0.2624672000000003
50
90.57588195801094
0
LINE
8
Modules
10
15.1334807059
20
-0.9417548589
11
18.4570555340
21
-0.9083483628
62
254
0
LINE
8
Modules
10
18.4570555340
20
-0.9083483628
11
18.3878733842
21
5.9745062781
62
254
0
LINE
8
Modules
10
18.3878733842
20
5.9745062781
11
15.0642985560
21
5.9410997820
62
254
0
LINE
8
Modules
10
15.0642985560
20
5.9410997820
11
15.1334807059
21
-0.9417548589
62
254
0
LINE
8
Modules
10
17.1748832409
20
2.1104133354
11
17.1666394193
21
2.9305819055
62
254
0
LINE
8
Modules
10
17.1666394193
20
2.9305819055
11
16.3464708491
21
2.9223380839
62
254
0
LINE
8
Modules
10
16.3464708491
20
2.9223380839
11
16.3547146708
21
2.1021695137
62
254
0
LINE
8
Modules
10
16.3547146708
20
2.1021695137
11
17.1748832409
21
2.1104133354
62
254
0
LINE
8
Modules
10
17.1748832409
20
2.1104133354
11
16.3464708491
21
2.9223380839
62
254
0
TEXT
8
Modules
100
AcDbText
10
16.6658840981
20
2.1545122801
1
DC
7
NewTextStyle_4
40
0.2624672000000003
50
90.57588195801094
0
TEXT
8
Modules
100
AcDbText
10
17.1223755981
20
2.4379861341
1
DC
7
NewTextStyle_4
40
0.2624672000000003
50
90.57588195801094
0
LINE
8
Modules
10
15.0635230957
20
5.9828436083
11
18.3870979238
21
6.0162501044
62
254
0
LINE
8
Modules
10
18.3870979238
20
6.0162501044
11
18.3179157740
21
12.8991047454
62
254
0
LINE
8
Modules
10
18.3179157740
20
12.8991047454
11
14.9943409458
21
12.8656982493
62
254
0
LINE
8
Modules
10
14.9943409458
20
12.8656982493
11
15.0635230957
21
5.9828436083
62
254
0
LINE
8
Modules
10
17.1049256308
20
9.0350118026
11
17.0966818091
21
9.8551803728
62
254
0
LINE
8
Modules
10
17.0966818091
20
9.8551803728
11
16.2765132389
21
9.8469365511
62
254
0
LINE
8
Modules
10
16.2765132389
20
9.8469365511
11
16.2847570606
21
9.0267679809
62
254
0
LINE
8
Modules
10
16.2847570606
20
9.0267679809
11
17.1049256308
21
9.0350118026
62
254
0
LINE
8
Modules
10
17.1049256308
20
9.0350118026
11
16.2765132389
21
9.8469365511
62
254
0
TEXT
8
Modules
100
AcDbText
10
16.5959264880
20
9.0791107474
1
DC
7
NewTextStyle_4
40
0.2624672000000003
50
90.57588195801094
0
TEXT
8
Modules
100
AcDbText
10
17.0524179879
20
9.3625846014
1
DC
7
NewTextStyle_4
40
0.2624672000000003
50
90.57588195801094
0
LINE
8
Modules
10
14.9964803882
20
12.9074420755
11
18.3200552163
21
12.9408485716
62
254
0
LINE
8
Modules
10
18.3200552163
20
12.9408485716
11
18.2508730665
21
19.8237032126
62
254
0
LINE
8
Modules
10
18.2508730665
20
19.8237032126
11
14.9272982383
21
19.7902967165
62
254
0
LINE
8
Modules
10
14.9272982383
20
19.7902967165
11
14.9964803882
21
12.9074420755
62
254
0
LINE
8
Modules
10
17.0378829232
20
15.9596102698
11
17.0296391016
21
16.7797788400
62
254
0
LINE
8
Modules
10
17.0296391016
20
16.7797788400
11
16.2094705314
21
16.7715350183
62
254
0
LINE
8
Modules
10
16.2094705314
20
16.7715350183
11
16.2177143531
21
15.9513664481
62
254
0
LINE
8
Modules
10
16.2177143531
20
15.9513664481
11
17.0378829232
21
15.9596102698
62
254
0
LINE
8
Modules
10
17.0378829232
20
15.9596102698
11
16.2094705314
21
16.7715350183
62
254
0
TEXT
8
Modules
100
AcDbText
10
16.5288837804
20
16.0037092146
1
DC
7
NewTextStyle_4
40
0.2624672000000003
50
90.57588195801094
0
TEXT
8
Modules
100
AcDbText
10
16.9853752804
20
16.2871830686
1
DC
7
NewTextStyle_4
40
0.2624672000000003
50
90.57588195801094
0
LINE
8
Modules
10
14.9265227821
20
19.8320405454
11
18.2500976103
21
19.8654470415
62
254
0
LINE
8
Modules
10
18.2500976103
20
19.8654470415
11
18.1809154604
21
26.7483016824
62
254
0
LINE
8
Modules
10
18.1809154604
20
26.7483016824
11
14.8573406323
21
26.7148951863
62
254
0
LINE
8
Modules
10
14.8573406323
20
26.7148951863
11
14.9265227821
21
19.8320405454
62
254
0
LINE
8
Modules
10
16.9679253172
20
22.8842087396
11
16.9596814955
21
23.7043773098
62
254
0
LINE
8
Modules
10
16.9596814955
20
23.7043773098
11
16.1395129254
21
23.6961334881
62
254
0
LINE
8
Modules
10
16.1395129254
20
23.6961334881
11
16.1477567470
21
22.8759649180
62
254
0
LINE
8
Modules
10
16.1477567470
20
22.8759649180
11
16.9679253172
21
22.8842087396
62
254
0
LINE
8
Modules
10
16.9679253172
20
22.8842087396
11
16.1395129254
21
23.6961334881
62
254
0
TEXT
8
Modules
100
AcDbText
10
16.4589261744
20
22.9283076844
1
DC
7
NewTextStyle_4
40
0.2624672000000003
50
90.57588195801094
0
TEXT
8
Modules
100
AcDbText
10
16.9154176743
20
23.2117815384
1
DC
7
NewTextStyle_4
40
0.2624672000000003
50
90.57588195801094
0
LINE
8
Modules
10
14.8565651720
20
26.7566390126
11
18.1801400001
21
26.7900455087
62
254
0
LINE
8
Modules
10
18.1801400001
20
26.7900455087
11
18.1109578502
21
33.6729001496
62
254
0
LINE
8
Modules
10
18.1109578502
20
33.6729001496
11
14.7873830221
21
33.6394936535
62
254
0
LINE
8
Modules
10
14.7873830221
20
33.6394936535
11
14.8565651720
21
26.7566390126
62
254
0
LINE
8
Modules
10
16.8979677070
20
29.8088072068
11
16.8897238854
21
30.6289757770
62
254
0
LINE
8
Modules
10
16.8897238854
20
30.6289757770
11
16.0695553152
21
30.6207319554
62
254
0
LINE
8
Modules
10
16.0695553152
20
30.6207319554
11
16.0777991368
21
29.8005633852
62
254
0
LINE
8
Modules
10
16.0777991368
20
29.8005633852
11
16.8979677070
21
29.8088072068
62
254
0
LINE
8
Modules
10
16.8979677070
20
29.8088072068
11
16.0695553152
21
30.6207319554
62
254
0
TEXT
8
Modules
100
AcDbText
10
16.3889685642
20
29.8529061516
1
DC
7
NewTextStyle_4
40
0.2624672000000003
50
90.57588195801094
0
TEXT
8
Modules
100
AcDbText
10
16.8454600641
20
30.1363800056
1
DC
7
NewTextStyle_4
40
0.2624672000000003
50
90.57588195801094
0
LINE
8
Modules
10
12.3176869612
20
-39.8889690252
11
15.6412617893
21
-39.8555625291
62
254
0
LINE
8
Modules
10
15.6412617893
20
-39.8555625291
11
15.5720796394
21
-32.9727078882
62
254
0
LINE
8
Modules
10
15.5720796394
20
-32.9727078882
11
12.2485048113
21
-33.0061143843
62
254
0
LINE
8
Modules
10
12.2485048113
20
-33.0061143843
11
12.3176869612
21
-39.8889690252
62
254
0
LINE
8
Modules
10
14.3590894962
20
-36.8368008310
11
14.3508456746
21
-36.0166322608
62
254
0
LINE
8
Modules
10
14.3508456746
20
-36.0166322608
11
13.5306771044
21
-36.0248760825
62
254
0
LINE
8
Modules
10
13.5306771044
20
-36.0248760825
11
13.5389209260
21
-36.8450446526
62
254
0
LINE
8
Modules
10
13.5389209260
20
-36.8450446526
11
14.3590894962
21
-36.8368008310
62
254
0
LINE
8
Modules
10
14.3590894962
20
-36.8368008310
11
13.5306771044
21
-36.0248760825
62
254
0
TEXT
8
Modules
100
AcDbText
10
13.8500903534
20
-36.7927018862
1
DC
7
NewTextStyle_4
40
0.2624672000000003
50
90.57588195801094
0
TEXT
8
Modules
100
AcDbText
10
14.3065818533
20
-36.5092280322
1
DC
7
NewTextStyle_4
40
0.2624672000000003
50
90.57588195801094
0
LINE
8
Modules
10
12.2506442537
20
-32.9643705580
11
15.5742190818
21
-32.9309640619
62
254
0
LINE
8
Modules
10
15.5742190818
20
-32.9309640619
11
15.5050369319
21
-26.0481094210
62
254
0
LINE
8
Modules
10
15.5050369319
20
-26.0481094210
11
12.1814621038
21
-26.0815159171
62
254
0
LINE
8
Modules
10
12.1814621038
20
-26.0815159171
11
12.2506442537
21
-32.9643705580
62
254
0
LINE
8
Modules
10
14.2920467887
20
-29.9122023638
11
14.2838029671
21
-29.0920337936
62
254
0
LINE
8
Modules
10
14.2838029671
20
-29.0920337936
11
13.4636343969
21
-29.1002776152
62
254
0
LINE
8
Modules
10
13.4636343969
20
-29.1002776152
11
13.4718782185
21
-29.9204461854
62
254
0
LINE
8
Modules
10
13.4718782185
20
-29.9204461854
11
14.2920467887
21
-29.9122023638
62
254
0
LINE
8
Modules
10
14.2920467887
20
-29.9122023638
11
13.4636343969
21
-29.1002776152
62
254
0
TEXT
8
Modules
100
AcDbText
10
13.7830476459
20
-29.8681034190
1
DC
7
NewTextStyle_4
40
0.2624672000000003
50
90.57588195801094
0
TEXT
8
Modules
100
AcDbText
10
14.2395391458
20
-29.5846295650
1
DC
7
NewTextStyle_4
40
0.2624672000000003
50
90.57588195801094
0
LINE
8
Modules
10
12.1806866435
20
-26.0397720908
11
15.5042614716
21
-26.0063655947
62
254
0
LINE
8
Modules
10
15.5042614716
20
-26.0063655947
11
15.4350793217
21
-19.1235109538
62
254
0
LINE
8
Modules
10
15.4350793217
20
-19.1235109538
11
12.1115044936
21
-19.1569174499
62
254
0
LINE
8
Modules
10
12.1115044936
20
-19.1569174499
11
12.1806866435
21
-26.0397720908
62
254
0
LINE
8
Modules
10
14.2220891785
20
-22.9876038965
11
14.2138453569
21
-22.1674353264
62
254
0
LINE
8
Modules
10
14.2138453569
20
-22.1674353264
11
13.3936767867
21
-22.1756791480
62
254
0
LINE
8
Modules
10
13.3936767867
20
-22.1756791480
11
13.4019206083
21
-22.9958477182
62
254
0
LINE
8
Modules
10
13.4019206083
20
-22.9958477182
11
14.2220891785
21
-22.9876038965
62
254
0
LINE
8
Modules
10
14.2220891785
20
-22.9876038965
11
13.3936767867
21
-22.1756791480
62
254
0
TEXT
8
Modules
100
AcDbText
10
13.7130900357
20
-22.9435049518
1
DC
7
NewTextStyle_4
40
0.2624672000000003
50
90.57588195801094
0
TEXT
8
Modules
100
AcDbText
10
14.1695815356
20
-22.6600310978
1
DC
7
NewTextStyle_4
40
0.2624672000000003
50
90.57588195801094
0
LINE
8
Modules
10
12.1107290374
20
-19.1151736236
11
15.4343038656
21
-19.0817671275
62
254
0
LINE
8
Modules
10
15.4343038656
20
-19.0817671275
11
15.3651217157
21
-12.1989124866
62
254
0
LINE
8
Modules
10
15.3651217157
20
-12.1989124866
11
12.0415468876
21
-12.2323189826
62
254
0
LINE
8
Modules
10
12.0415468876
20
-12.2323189826
11
12.1107290374
21
-19.1151736236
62
254
0
LINE
8
Modules
10
14.1521315725
20
-16.0630054293
11
14.1438877508
21
-15.2428368592
62
254
0
LINE
8
Modules
10
14.1438877508
20
-15.2428368592
11
13.3237191806
21
-15.2510806808
62
254
0
LINE
8
Modules
10
13.3237191806
20
-15.2510806808
11
13.3319630023
21
-16.0712492510
62
254
0
LINE
8
Modules
10
13.3319630023
20
-16.0712492510
11
14.1521315725
21
-16.0630054293
62
254
0
LINE
8
Modules
10
14.1521315725
20
-16.0630054293
11
13.3237191806
21
-15.2510806808
62
254
0
TEXT
8
Modules
100
AcDbText
10
13.6431324297
20
-16.0189064845
1
DC
7
NewTextStyle_4
40
0.2624672000000003
50
90.57588195801094
0
TEXT
8
Modules
100
AcDbText
10
14.0996239296
20
-15.7354326306
1
DC
7
NewTextStyle_4
40
0.2624672000000003
50
90.57588195801094
0
LINE
8
Modules
10
11.7726005972
20
-0.9746247885
11
15.0961754253
21
-0.9412182924
62
254
0
LINE
8
Modules
10
15.0961754253
20
-0.9412182924
11
15.0269932754
21
5.9416363486
62
254
0
LINE
8
Modules
10
15.0269932754
20
5.9416363486
11
11.7034184473
21
5.9082298525
62
254
0
LINE
8
Modules
10
11.7034184473
20
5.9082298525
11
11.7726005972
21
-0.9746247885
62
254
0
LINE
8
Modules
10
13.8140031322
20
2.0775434058
11
13.8057593106
21
2.8977119760
62
254
0
LINE
8
Modules
10
13.8057593106
20
2.8977119760
11
12.9855907404
21
2.8894681543
62
254
0
LINE
8
Modules
10
12.9855907404
20
2.8894681543
11
12.9938345620
21
2.0692995841
62
254
0
LINE
8
Modules
10
12.9938345620
20
2.0692995841
11
13.8140031322
21
2.0775434058
62
254
0
LINE
8
Modules
10
13.8140031322
20
2.0775434058
11
12.9855907404
21
2.8894681543
62
254
0
TEXT
8
Modules
100
AcDbText
10
13.3050039894
20
2.1216423506
1
DC
7
NewTextStyle_4
40
0.2624672000000003
50
90.57588195801094
0
TEXT
8
Modules
100
AcDbText
10
13.7614954893
20
2.4051162046
1
DC
7
NewTextStyle_4
40
0.2624672000000003
50
90.57588195801094
0
LINE
8
Modules
10
11.7026429870
20
5.9499736788
11
15.0262178151
21
5.9833801749
62
254
0
LINE
8
Modules
10
15.0262178151
20
5.9833801749
11
14.9570356653
21
12.8662348158
62
254
0
LINE
8
Modules
10
14.9570356653
20
12.8662348158
11
11.6334608371
21
12.8328283197
62
254
0
LINE
8
Modules
10
11.6334608371
20
12.8328283197
11
11.7026429870
21
5.9499736788
62
254
0
LINE
8
Modules
10
13.7440455220
20
9.0021418730
11
13.7358017004
21
9.8223104432
62
254
0
LINE
8
Modules
10
13.7358017004
20
9.8223104432
11
12.9156331302
21
9.8140666215
62
254
0
LINE
8
Modules
10
12.9156331302
20
9.8140666215
11
12.9238769519
21
8.9938980514
62
254
0
LINE
8
Modules
10
12.9238769519
20
8.9938980514
11
13.7440455220
21
9.0021418730
62
254
0
LINE
8
Modules
10
13.7440455220
20
9.0021418730
11
12.9156331302
21
9.8140666215
62
254
0
TEXT
8
Modules
100
AcDbText
10
13.2350463792
20
9.0462408178
1
DC
7
NewTextStyle_4
40
0.2624672000000003
50
90.57588195801094
0
TEXT
8
Modules
100
AcDbText
10
13.6915378792
20
9.3297146718
1
DC
7
NewTextStyle_4
40
0.2624672000000003
50
90.57588195801094
0
LINE
8
Modules
10
11.8425582032
20
-7.8992232557
11
15.1661330313
21
-7.8658167596
62
254
0
LINE
8
Modules
10
15.1661330313
20
-7.8658167596
11
15.0969508815
21
-0.9829621186
62
254
0
LINE
8
Modules
10
15.0969508815
20
-0.9829621186
11
11.7733760533
21
-1.0163686147
62
254
0
LINE
8
Modules
10
11.7733760533
20
-1.0163686147
11
11.8425582032
21
-7.8992232557
62
254
0
LINE
8
Modules
10
13.8839607383
20
-4.8470550614
11
13.8757169166
21
-4.0268864912
62
254
0
LINE
8
Modules
10
13.8757169166
20
-4.0268864912
11
13.0555483464
21
-4.0351303129
62
254
0
LINE
8
Modules
10
13.0555483464
20
-4.0351303129
11
13.0637921681
21
-4.8552988831
62
254
0
LINE
8
Modules
10
13.0637921681
20
-4.8552988831
11
13.8839607383
21
-4.8470550614
62
254
0
LINE
8
Modules
10
13.8839607383
20
-4.8470550614
11
13.0555483464
21
-4.0351303129
62
254
0
TEXT
8
Modules
100
AcDbText
10
13.3749615955
20
-4.8029561166
1
DC
7
NewTextStyle_4
40
0.2624672000000003
50
90.57588195801094
0
TEXT
8
Modules
100
AcDbText
10
13.8314530954
20
-4.5194822626
1
DC
7
NewTextStyle_4
40
0.2624672000000003
50
90.57588195801094
0
LINE
8
Modules
10
8.4816780945
20
-7.9357453999
11
11.8052529226
21
-7.9023389038
62
254
0
LINE
8
Modules
10
11.8052529226
20
-7.9023389038
11
11.7360707728
21
-1.0194842629
62
254
0
LINE
8
Modules
10
11.7360707728
20
-1.0194842629
11
8.4124959446
21
-1.0528907590
62
254
0
LINE
8
Modules
10
8.4124959446
20
-1.0528907590
11
8.4816780945
21
-7.9357453999
62
254
0
LINE
8
Modules
10
10.5230806295
20
-4.8835772057
11
10.5148368079
21
-4.0634086355
62
254
0
LINE
8
Modules
10
10.5148368079
20
-4.0634086355
11
9.6946682377
21
-4.0716524571
62
254
0
LINE
8
Modules
10
9.6946682377
20
-4.0716524571
11
9.7029120594
21
-4.8918210273
62
254
0
LINE
8
Modules
10
9.7029120594
20
-4.8918210273
11
10.5230806295
21
-4.8835772057
62
254
0
LINE
8
Modules
10
10.5230806295
20
-4.8835772057
11
9.6946682377
21
-4.0716524571
62
254
0
TEXT
8
Modules
100
AcDbText
10
10.0140814867
20
-4.8394782609
1
DC
7
NewTextStyle_4
40
0.2624672000000003
50
90.57588195801094
0
TEXT
8
Modules
100
AcDbText
10
10.4705729867
20
-4.5560044069
1
DC
7
NewTextStyle_4
40
0.2624672000000003
50
90.57588195801094
0
LINE
8
Modules
10
8.9568068524
20
-39.9218389548
11
12.2803816806
21
-39.8884324587
62
254
0
LINE
8
Modules
10
12.2803816806
20
-39.8884324587
11
12.2111995307
21
-33.0055778178
62
254
0
LINE
8
Modules
10
12.2111995307
20
-33.0055778178
11
8.8876247026
21
-33.0389843139
62
254
0
LINE
8
Modules
10
8.8876247026
20
-33.0389843139
11
8.9568068524
21
-39.9218389548
62
254
0
LINE
8
Modules
10
10.9982093875
20
-36.8696707605
11
10.9899655658
21
-36.0495021904
62
254
0
LINE
8
Modules
10
10.9899655658
20
-36.0495021904
11
10.1697969957
21
-36.0577460120
62
254
0
LINE
8
Modules
10
10.1697969957
20
-36.0577460120
11
10.1780408173
21
-36.8779145822
62
254
0
LINE
8
Modules
10
10.1780408173
20
-36.8779145822
11
10.9982093875
21
-36.8696707605
62
254
0
LINE
8
Modules
10
10.9982093875
20
-36.8696707605
11
10.1697969957
21
-36.0577460120
62
254
0
TEXT
8
Modules
100
AcDbText
10
10.4892102447
20
-36.8255718158
1
DC
7
NewTextStyle_4
40
0.2624672000000003
50
90.57588195801094
0
TEXT
8
Modules
100
AcDbText
10
10.9457017446
20
-36.5420979618
1
DC
7
NewTextStyle_4
40
0.2624672000000003
50
90.57588195801094
0
LINE
8
Modules
10
8.8897641449
20
-32.9972404876
11
12.2133389731
21
-32.9638339915
62
254
0
LINE
8
Modules
10
12.2133389731
20
-32.9638339915
11
12.1441568232
21
-26.0809793506
62
254
0
LINE
8
Modules
10
12.1441568232
20
-26.0809793506
11
8.8205819951
21
-26.1143858466
62
254
0
LINE
8
Modules
10
8.8205819951
20
-26.1143858466
11
8.8897641449
21
-32.9972404876
62
254
0
LINE
8
Modules
10
10.9311666800
20
-29.9450722933
11
10.9229228583
21
-29.1249037232
62
254
0
LINE
8
Modules
10
10.9229228583
20
-29.1249037232
11
10.1027542881
21
-29.1331475448
62
254
0
LINE
8
Modules
10
10.1027542881
20
-29.1331475448
11
10.1109981098
21
-29.9533161150
62
254
0
LINE
8
Modules
10
10.1109981098
20
-29.9533161150
11
10.9311666800
21
-29.9450722933
62
254
0
LINE
8
Modules
10
10.9311666800
20
-29.9450722933
11
10.1027542881
21
-29.1331475448
62
254
0
TEXT
8
Modules
100
AcDbText
10
10.4221675372
20
-29.9009733485
1
DC
7
NewTextStyle_4
40
0.2624672000000003
50
90.57588195801094
0
TEXT
8
Modules
100
AcDbText
10
10.8786590371
20
-29.6174994946
1
DC
7
NewTextStyle_4
40
0.2624672000000003
50
90.57588195801094
0
LINE
8
Modules
10
8.8198065347
20
-26.0726420204
11
12.1433813629
21
-26.0392355243
62
254
0
LINE
8
Modules
10
12.1433813629
20
-26.0392355243
11
12.0741992130
21
-19.1563808833
62
254
0
LINE
8
Modules
10
12.0741992130
20
-19.1563808833
11
8.7506243849
21
-19.1897873794
62
254
0
LINE
8
Modules
10
8.7506243849
20
-19.1897873794
11
8.8198065347
21
-26.0726420204
62
254
0
LINE
8
Modules
10
10.8612090698
20
-23.0204738261
11
10.8529652481
21
-22.2003052559
62
254
0
LINE
8
Modules
10
10.8529652481
20
-22.2003052559
11
10.0327966780
21
-22.2085490776
62
254
0
LINE
8
Modules
10
10.0327966780
20
-22.2085490776
11
10.0410404996
21
-23.0287176478
62
254
0
LINE
8
Modules
10
10.0410404996
20
-23.0287176478
11
10.8612090698
21
-23.0204738261
62
254
0
LINE
8
Modules
10
10.8612090698
20
-23.0204738261
11
10.0327966780
21
-22.2085490776
62
254
0
TEXT
8
Modules
100
AcDbText
10
10.3522099270
20
-22.9763748813
1
DC
7
NewTextStyle_4
40
0.2624672000000003
50
90.57588195801094
0
TEXT
8
Modules
100
AcDbText
10
10.8087014269
20
-22.6929010273
1
DC
7
NewTextStyle_4
40
0.2624672000000003
50
90.57588195801094
0
LINE
8
Modules
10
8.7498489246
20
-19.1480435531
11
12.0734237527
21
-19.1146370570
62
254
0
LINE
8
Modules
10
12.0734237527
20
-19.1146370570
11
12.0042416028
21
-12.2317824161
62
254
0
LINE
8
Modules
10
12.0042416028
20
-12.2317824161
11
8.6806667747
21
-12.2651889122
62
254
0
LINE
8
Modules
10
8.6806667747
20
-12.2651889122
11
8.7498489246
21
-19.1480435531
62
254
0
LINE
8
Modules
10
10.7912514596
20
-16.0958753589
11
10.7830076380
21
-15.2757067887
62
254
0
LINE
8
Modules
10
10.7830076380
20
-15.2757067887
11
9.9628390678
21
-15.2839506104
62
254
0
LINE
8
Modules
10
9.9628390678
20
-15.2839506104
11
9.9710828894
21
-16.1041191805
62
254
0
LINE
8
Modules
10
9.9710828894
20
-16.1041191805
11
10.7912514596
21
-16.0958753589
62
254
0
LINE
8
Modules
10
10.7912514596
20
-16.0958753589
11
9.9628390678
21
-15.2839506104
62
254
0
TEXT
8
Modules
100
AcDbText
10
10.2822523168
20
-16.0517764141
1
DC
7
NewTextStyle_4
40
0.2624672000000003
50
90.57588195801094
0
TEXT
8
Modules
100
AcDbText
10
10.7387438167
20
-15.7683025601
1
DC
7
NewTextStyle_4
40
0.2624672000000003
50
90.57588195801094
0
LINE
8
Modules
10
22.2633269779
20
-25.9375100874
11
25.5869018061
21
-25.9041035913
62
254
0
LINE
8
Modules
10
25.5869018061
20
-25.9041035913
11
25.5177196562
21
-19.0212489504
62
254
0
LINE
8
Modules
10
25.5177196562
20
-19.0212489504
11
22.1941448281
21
-19.0546554465
62
254
0
LINE
8
Modules
10
22.1941448281
20
-19.0546554465
11
22.2633269779
21
-25.9375100874
62
254
0
LINE
8
Modules
10
24.3047295130
20
-22.8853418932
11
24.2964856913
21
-22.0651733230
62
254
0
LINE
8
Modules
10
24.2964856913
20
-22.0651733230
11
23.4763171212
21
-22.0734171447
62
254
0
LINE
8
Modules
10
23.4763171212
20
-22.0734171447
11
23.4845609428
21
-22.8935857148
62
254
0
LINE
8
Modules
10
23.4845609428
20
-22.8935857148
11
24.3047295130
21
-22.8853418932
62
254
0
LINE
8
Modules
10
24.3047295130
20
-22.8853418932
11
23.4763171212
21
-22.0734171447
62
254
0
TEXT
8
Modules
100
AcDbText
10
23.7957303702
20
-22.8412429484
1
DC
7
NewTextStyle_4
40
0.2624672000000003
50
90.57588195801094
0
TEXT
8
Modules
100
AcDbText
10
24.2522218701
20
-22.5577690944
1
DC
7
NewTextStyle_4
40
0.2624672000000003
50
90.57588195801094
0
LINE
8
Modules
10
8.4117204843
20
-1.0111469327
11
11.7352953124
21
-0.9777404366
62
254
0
LINE
8
Modules
10
11.7352953124
20
-0.9777404366
11
11.6661131626
21
5.9051142043
62
254
0
LINE
8
Modules
10
11.6661131626
20
5.9051142043
11
8.3425383344
21
5.8717077082
62
254
0
LINE
8
Modules
10
8.3425383344
20
5.8717077082
11
8.4117204843
21
-1.0111469327
62
254
0
LINE
8
Modules
10
10.4531230194
20
2.0410212616
11
10.4448791977
21
2.8611898317
62
254
0
LINE
8
Modules
10
10.4448791977
20
2.8611898317
11
9.6247106275
21
2.8529460101
62
254
0
LINE
8
Modules
10
9.6247106275
20
2.8529460101
11
9.6329544492
21
2.0327774399
62
254
0
LINE
8
Modules
10
9.6329544492
20
2.0327774399
11
10.4531230194
21
2.0410212616
62
254
0
LINE
8
Modules
10
10.4531230194
20
2.0410212616
11
9.6247106275
21
2.8529460101
62
254
0
TEXT
8
Modules
100
AcDbText
10
9.9441238765
20
2.0851202063
1
DC
7
NewTextStyle_4
40
0.2624672000000003
50
90.57588195801094
0
TEXT
8
Modules
100
AcDbText
10
10.4006153765
20
2.3685940603
1
DC
7
NewTextStyle_4
40
0.2624672000000003
50
90.57588195801094
0
LINE
8
Modules
10
8.3417628783
20
5.9134515345
11
11.6653377064
21
5.9468580306
62
254
0
LINE
8
Modules
10
11.6653377064
20
5.9468580306
11
11.5961555565
21
12.8297126716
62
254
0
LINE
8
Modules
10
11.5961555565
20
12.8297126716
11
8.2725807284
21
12.7963061755
62
254
0
LINE
8
Modules
10
8.2725807284
20
12.7963061755
11
8.3417628783
21
5.9134515345
62
254
0
LINE
8
Modules
10
10.3831654133
20
8.9656197288
11
10.3749215917
21
9.7857882990
62
254
0
LINE
8
Modules
10
10.3749215917
20
9.7857882990
11
9.5547530215
21
9.7775444773
62
254
0
LINE
8
Modules
10
9.5547530215
20
9.7775444773
11
9.5629968431
21
8.9573759071
62
254
0
LINE
8
Modules
10
9.5629968431
20
8.9573759071
11
10.3831654133
21
8.9656197288
62
254
0
LINE
8
Modules
10
10.3831654133
20
8.9656197288
11
9.5547530215
21
9.7775444773
62
254
0
TEXT
8
Modules
100
AcDbText
10
9.8741662705
20
9.0097186736
1
DC
7
NewTextStyle_4
40
0.2624672000000003
50
90.57588195801094
0
TEXT
8
Modules
100
AcDbText
10
10.3306577704
20
9.2931925275
1
DC
7
NewTextStyle_4
40
0.2624672000000003
50
90.57588195801094
0
LINE
8
Modules
10
22.4003272915
20
-39.7867070219
11
25.7239021196
21
-39.7533005258
62
254
0
LINE
8
Modules
10
25.7239021196
20
-39.7533005258
11
25.6547199698
21
-32.8704458848
62
254
0
LINE
8
Modules
10
25.6547199698
20
-32.8704458848
11
22.3311451416
21
-32.9038523809
62
254
0
LINE
8
Modules
10
22.3311451416
20
-32.9038523809
11
22.4003272915
21
-39.7867070219
62
254
0
LINE
8
Modules
10
24.4417298265
20
-36.7345388276
11
24.4334860049
21
-35.9143702574
62
254
0
LINE
8
Modules
10
24.4334860049
20
-35.9143702574
11
23.6133174347
21
-35.9226140791
62
254
0
LINE
8
Modules
10
23.6133174347
20
-35.9226140791
11
23.6215612564
21
-36.7427826493
62
254
0
LINE
8
Modules
10
23.6215612564
20
-36.7427826493
11
24.4417298265
21
-36.7345388276
62
254
0
LINE
8
Modules
10
24.4417298265
20
-36.7345388276
11
23.6133174347
21
-35.9226140791
62
254
0
TEXT
8
Modules
100
AcDbText
10
23.9327306837
20
-36.6904398828
1
DC
7
NewTextStyle_4
40
0.2624672000000003
50
90.57588195801094
0
TEXT
8
Modules
100
AcDbText
10
24.3892221837
20
-36.4069660288
1
DC
7
NewTextStyle_4
40
0.2624672000000003
50
90.57588195801094
0
LINE
8
Modules
10
19.0394471828
20
-39.8195769514
11
22.3630220109
21
-39.7861704553
62
254
0
LINE
8
Modules
10
22.3630220109
20
-39.7861704553
11
22.2938398610
21
-32.9033158144
62
254
0
LINE
8
Modules
10
22.2938398610
20
-32.9033158144
11
18.9702650329
21
-32.9367223105
62
254
0
LINE
8
Modules
10
18.9702650329
20
-32.9367223105
11
19.0394471828
21
-39.8195769514
62
254
0
LINE
8
Modules
10
21.0808497178
20
-36.7674087572
11
21.0726058962
21
-35.9472401870
62
254
0
LINE
8
Modules
10
21.0726058962
20
-35.9472401870
11
20.2524373260
21
-35.9554840087
62
254
0
LINE
8
Modules
10
20.2524373260
20
-35.9554840087
11
20.2606811476
21
-36.7756525788
62
254
0
LINE
8
Modules
10
20.2606811476
20
-36.7756525788
11
21.0808497178
21
-36.7674087572
62
254
0
LINE
8
Modules
10
21.0808497178
20
-36.7674087572
11
20.2524373260
21
-35.9554840087
62
254
0
TEXT
8
Modules
100
AcDbText
10
20.5718505750
20
-36.7233098124
1
DC
7
NewTextStyle_4
40
0.2624672000000003
50
90.57588195801094
0
TEXT
8
Modules
100
AcDbText
10
21.0283420749
20
-36.4398359584
1
DC
7
NewTextStyle_4
40
0.2624672000000003
50
90.57588195801094
0
LINE
8
Modules
10
15.6785670740
20
-39.8560990957
11
19.0021419022
21
-39.8226925996
62
254
0
LINE
8
Modules
10
19.0021419022
20
-39.8226925996
11
18.9329597523
21
-32.9398379587
62
254
0
LINE
8
Modules
10
18.9329597523
20
-32.9398379587
11
15.6093849242
21
-32.9732444547
62
254
0
LINE
8
Modules
10
15.6093849242
20
-32.9732444547
11
15.6785670740
21
-39.8560990957
62
254
0
LINE
8
Modules
10
17.7199696091
20
-36.8039309014
11
17.7117257874
21
-35.9837623312
62
254
0
LINE
8
Modules
10
17.7117257874
20
-35.9837623312
11
16.8915572173
21
-35.9920061529
62
254
0
LINE
8
Modules
10
16.8915572173
20
-35.9920061529
11
16.8998010389
21
-36.8121747231
62
254
0
LINE
8
Modules
10
16.8998010389
20
-36.8121747231
11
17.7199696091
21
-36.8039309014
62
254
0
LINE
8
Modules
10
17.7199696091
20
-36.8039309014
11
16.8915572173
21
-35.9920061529
62
254
0
TEXT
8
Modules
100
AcDbText
10
17.2109704663
20
-36.7598319566
1
DC
7
NewTextStyle_4
40
0.2624672000000003
50
90.57588195801094
0
TEXT
8
Modules
100
AcDbText
10
17.6674619662
20
-36.4763581027
1
DC
7
NewTextStyle_4
40
0.2624672000000003
50
90.57588195801094
0
LINE
8
Modules
10
-7.6013781888
20
-33.2174062513
11
-10.9249530169
21
-33.2508127474
62
254
0
LINE
8
Modules
10
-10.9249530169
20
-33.2508127474
11
-10.8557708670
21
-40.1336673883
62
254
0
LINE
8
Modules
10
-10.8557708670
20
-40.1336673883
11
-7.5321960389
21
-40.1002608922
62
254
0
LINE
8
Modules
10
-7.5321960389
20
-40.1002608922
11
-7.6013781888
21
-33.2174062513
62
254
0
LINE
8
Modules
10
-9.6427807238
20
-36.2695744455
11
-9.6345369022
21
-37.0897430157
62
254
0
LINE
8
Modules
10
-9.6345369022
20
-37.0897430157
11
-8.8143683320
21
-37.0814991940
62
254
0
LINE
8
Modules
10
-8.8143683320
20
-37.0814991940
11
-8.8226121536
21
-36.2613306239
62
254
0
LINE
8
Modules
10
-8.8226121536
20
-36.2613306239
11
-9.6427807238
21
-36.2695744455
62
254
0
LINE
8
Modules
10
-9.6427807238
20
-36.2695744455
11
-8.8143683320
21
-37.0814991940
62
254
0
TEXT
8
Modules
100
AcDbText
10
-9.1337815810
20
-36.3136733903
1
DC
7
NewTextStyle_4
40
0.2624672000000003
50
-89.42411804198186
0
TEXT
8
Modules
100
AcDbText
10
-9.5902730809
20
-36.5971472443
1
DC
7
NewTextStyle_4
40
0.2624672000000003
50
-89.42411804198186
0
LINE
8
Modules
10
-4.2404980800
20
-33.1845363217
11
-7.5640729082
21
-33.2179428178
62
254
0
LINE
8
Modules
10
-7.5640729082
20
-33.2179428178
11
-7.4948907583
21
-40.1007974587
62
254
0
LINE
8
Modules
10
-7.4948907583
20
-40.1007974587
11
-4.1713159302
21
-40.0673909626
62
254
0
LINE
8
Modules
10
-4.1713159302
20
-40.0673909626
11
-4.2404980800
21
-33.1845363217
62
254
0
LINE
8
Modules
10
-6.2819006151
20
-36.2367045160
11
-6.2736567934
21
-37.0568730861
62
254
0
LINE
8
Modules
10
-6.2736567934
20
-37.0568730861
11
-5.4534882233
21
-37.0486292645
62
254
0
LINE
8
Modules
10
-5.4534882233
20
-37.0486292645
11
-5.4617320449
21
-36.2284606943
62
254
0
LINE
8
Modules
10
-5.4617320449
20
-36.2284606943
11
-6.2819006151
21
-36.2367045160
62
254
0
LINE
8
Modules
10
-6.2819006151
20
-36.2367045160
11
-5.4534882233
21
-37.0486292645
62
254
0
TEXT
8
Modules
100
AcDbText
10
-5.7729014723
20
-36.2808034608
1
DC
7
NewTextStyle_4
40
0.2624672000000003
50
-89.42411804198186
0
TEXT
8
Modules
100
AcDbText
10
-6.2293929722
20
-36.5642773147
1
DC
7
NewTextStyle_4
40
0.2624672000000003
50
-89.42411804198186
0
LINE
8
Modules
10
-0.8796179672
20
-33.1480141801
11
-4.2031927953
21
-33.1814206762
62
254
0
LINE
8
Modules
10
-4.2031927953
20
-33.1814206762
11
-4.1340106454
21
-40.0642753171
62
254
0
LINE
8
Modules
10
-4.1340106454
20
-40.0642753171
11
-0.8104358173
21
-40.0308688210
62
254
0
LINE
8
Modules
10
-0.8104358173
20
-40.0308688210
11
-0.8796179672
21
-33.1480141801
62
254
0
LINE
8
Modules
10
-2.9210205022
20
-36.2001823743
11
-2.9127766806
21
-37.0203509445
62
254
0
LINE
8
Modules
10
-2.9127766806
20
-37.0203509445
11
-2.0926081104
21
-37.0121071228
62
254
0
LINE
8
Modules
10
-2.0926081104
20
-37.0121071228
11
-2.1008519320
21
-36.1919385527
62
254
0
LINE
8
Modules
10
-2.1008519320
20
-36.1919385527
11
-2.9210205022
21
-36.2001823743
62
254
0
LINE
8
Modules
10
-2.9210205022
20
-36.2001823743
11
-2.0926081104
21
-37.0121071228
62
254
0
TEXT
8
Modules
100
AcDbText
10
-2.4120213594
20
-36.2442813191
1
DC
7
NewTextStyle_4
40
0.2624672000000003
50
-89.42411804198186
0
TEXT
8
Modules
100
AcDbText
10
-2.8685128593
20
-36.5277551731
1
DC
7
NewTextStyle_4
40
0.2624672000000003
50
-89.42411804198186
0
LINE
8
Modules
10
5.0317998993
20
12.7530161704
11
1.7082251820
21
12.7196096754
62
254
0
LINE
8
Modules
10
1.7082251820
20
12.7196096754
11
1.7774073319
21
5.8367550345
62
254
0
LINE
8
Modules
10
1.7774073319
20
5.8367550345
11
5.1009820492
21
5.8701615295
62
254
0
LINE
8
Modules
10
5.1009820492
20
5.8701615295
11
5.0317998993
21
12.7530161704
62
254
0
LINE
8
Modules
10
2.9903974197
20
9.7008479767
11
2.9986412413
21
8.8806794065
62
254
0
LINE
8
Modules
10
2.9986412413
20
8.8806794065
11
3.8188098115
21
8.8889232282
62
254
0
LINE
8
Modules
10
3.8188098115
20
8.8889232282
11
3.8105659899
21
9.7090917984
62
254
0
LINE
8
Modules
10
3.8105659899
20
9.7090917984
11
2.9903974197
21
9.7008479767
62
254
0
LINE
8
Modules
10
2.9903974197
20
9.7008479767
11
3.8188098115
21
8.8889232282
62
254
0
TEXT
8
Modules
100
AcDbText
10
3.4993965625
20
9.6567490319
1
DC
7
NewTextStyle_4
40
0.2624672000000003
50
-89.42411804197069
0
TEXT
8
Modules
100
AcDbText
10
3.0429050626
20
9.3732751779
1
DC
7
NewTextStyle_4
40
0.2624672000000003
50
-89.42411804197069
0
LINE
8
Modules
10
21.8552409829
20
-0.8760149992
11
25.1788157002
21
-0.8426085042
62
254
0
LINE
8
Modules
10
25.1788157002
20
-0.8426085042
11
25.1096335504
21
6.0402461367
62
254
0
LINE
8
Modules
10
25.1096335504
20
6.0402461367
11
21.7860588330
21
6.0068396417
62
254
0
LINE
8
Modules
10
21.7860588330
20
6.0068396417
11
21.8552409829
21
-0.8760149992
62
254
0
LINE
8
Modules
10
23.8966434625
20
2.1761531945
11
23.8883996409
21
2.9963217647
62
254
0
LINE
8
Modules
10
23.8883996409
20
2.9963217647
11
23.0682310707
21
2.9880779430
62
254
0
LINE
8
Modules
10
23.0682310707
20
2.9880779430
11
23.0764748924
21
2.1679093728
62
254
0
LINE
8
Modules
10
23.0764748924
20
2.1679093728
11
23.8966434625
21
2.1761531945
62
254
0
LINE
8
Modules
10
23.8966434625
20
2.1761531945
11
23.0682310707
21
2.9880779430
62
254
0
TEXT
8
Modules
100
AcDbText
10
23.3876443197
20
2.2202521393
1
DC
7
NewTextStyle_4
40
0.2624672000000003
50
90.57588195802207
0
TEXT
8
Modules
100
AcDbText
10
23.8441358197
20
2.5037259933
1
DC
7
NewTextStyle_4
40
0.2624672000000003
50
90.57588195802207
0
LINE
8
Modules
10
18.4943608700
20
-0.9088849288
11
21.8179355874
21
-0.8754784338
62
254
0
LINE
8
Modules
10
21.8179355874
20
-0.8754784338
11
21.7487534375
21
6.0073762071
62
254
0
LINE
8
Modules
10
21.7487534375
20
6.0073762071
11
18.4251787202
21
5.9739697122
62
254
0
LINE
8
Modules
10
18.4251787202
20
5.9739697122
11
18.4943608700
21
-0.9088849288
62
254
0
LINE
8
Modules
10
20.5357633497
20
2.1432832649
11
20.5275195280
21
2.9634518351
62
254
0
LINE
8
Modules
10
20.5275195280
20
2.9634518351
11
19.7073509578
21
2.9552080134
62
254
0
LINE
8
Modules
10
19.7073509578
20
2.9552080134
11
19.7155947795
21
2.1350394433
62
254
0
LINE
8
Modules
10
19.7155947795
20
2.1350394433
11
20.5357633497
21
2.1432832649
62
254
0
LINE
8
Modules
10
20.5357633497
20
2.1432832649
11
19.7073509578
21
2.9552080134
62
254
0
TEXT
8
Modules
100
AcDbText
10
20.0267642069
20
2.1873822097
1
DC
7
NewTextStyle_4
40
0.2624672000000003
50
90.57588195802207
0
TEXT
8
Modules
100
AcDbText
10
20.4832557068
20
2.4708560637
1
DC
7
NewTextStyle_4
40
0.2624672000000003
50
90.57588195802207
0
LINE
8
Modules
10
-8.6215933703
20
33.3916796417
11
-11.9451680876
21
33.3582731468
62
254
0
LINE
8
Modules
10
-11.9451680876
20
33.3582731468
11
-11.8759859377
21
26.4754185058
62
254
0
LINE
8
Modules
10
-11.8759859377
20
26.4754185058
11
-8.5524112204
21
26.5088250008
62
254
0
LINE
8
Modules
10
-8.5524112204
20
26.5088250008
11
-8.6215933703
21
33.3916796417
62
254
0
LINE
8
Modules
10
-10.6629958499
20
30.3395114480
11
-10.6547520283
21
29.5193428779
62
254
0
LINE
8
Modules
10
-10.6547520283
20
29.5193428779
11
-9.8345834581
21
29.5275866995
62
254
0
LINE
8
Modules
10
-9.8345834581
20
29.5275866995
11
-9.8428272797
21
30.3477552697
62
254
0
LINE
8
Modules
10
-9.8428272797
20
30.3477552697
11
-10.6629958499
21
30.3395114480
62
254
0
LINE
8
Modules
10
-10.6629958499
20
30.3395114480
11
-9.8345834581
21
29.5275866995
62
254
0
TEXT
8
Modules
100
AcDbText
10
-10.1539967071
20
30.2954125033
1
DC
7
NewTextStyle_4
40
0.2624672000000003
50
-89.42411804197069
0
TEXT
8
Modules
100
AcDbText
10
-10.6104882070
20
30.0119386493
1
DC
7
NewTextStyle_4
40
0.2624672000000003
50
-89.42411804197069
0
LINE
8
Modules
10
-5.2607132574
20
33.4245495713
11
-8.5842879747
21
33.3911430763
62
254
0
LINE
8
Modules
10
-8.5842879747
20
33.3911430763
11
-8.5151058249
21
26.5082884354
62
254
0
LINE
8
Modules
10
-8.5151058249
20
26.5082884354
11
-5.1915311075
21
26.5416949304
62
254
0
LINE
8
Modules
10
-5.1915311075
20
26.5416949304
11
-5.2607132574
21
33.4245495713
62
254
0
LINE
8
Modules
10
-7.3021157370
20
30.3723813776
11
-7.2938719154
21
29.5522128074
62
254
0
LINE
8
Modules
10
-7.2938719154
20
29.5522128074
11
-6.4737033452
21
29.5604566291
62
254
0
LINE
8
Modules
10
-6.4737033452
20
29.5604566291
11
-6.4819471669
21
30.3806251993
62
254
0
LINE
8
Modules
10
-6.4819471669
20
30.3806251993
11
-7.3021157370
21
30.3723813776
62
254
0
LINE
8
Modules
10
-7.3021157370
20
30.3723813776
11
-6.4737033452
21
29.5604566291
62
254
0
TEXT
8
Modules
100
AcDbText
10
-6.7931165942
20
30.3282824328
1
DC
7
NewTextStyle_4
40
0.2624672000000003
50
-89.42411804197069
0
TEXT
8
Modules
100
AcDbText
10
-7.2496080942
20
30.0448085788
1
DC
7
NewTextStyle_4
40
0.2624672000000003
50
-89.42411804197069
0
LINE
8
Modules
10
-1.8998331487
20
33.4574195009
11
-5.2234078660
21
33.4240130059
62
254
0
LINE
8
Modules
10
-5.2234078660
20
33.4240130059
11
-5.1542257161
21
26.5411583650
62
254
0
LINE
8
Modules
10
-5.1542257161
20
26.5411583650
11
-1.8306509988
21
26.5745648599
62
254
0
LINE
8
Modules
10
-1.8306509988
20
26.5745648599
11
-1.8998331487
21
33.4574195009
62
254
0
LINE
8
Modules
10
-3.9412356283
20
30.4052513072
11
-3.9329918067
21
29.5850827370
62
254
0
LINE
8
Modules
10
-3.9329918067
20
29.5850827370
11
-3.1128232365
21
29.5933265586
62
254
0
LINE
8
Modules
10
-3.1128232365
20
29.5933265586
11
-3.1210670581
21
30.4134951288
62
254
0
LINE
8
Modules
10
-3.1210670581
20
30.4134951288
11
-3.9412356283
21
30.4052513072
62
254
0
LINE
8
Modules
10
-3.9412356283
20
30.4052513072
11
-3.1128232365
21
29.5933265586
62
254
0
TEXT
8
Modules
100
AcDbText
10
-3.4322364855
20
30.3611523624
1
DC
7
NewTextStyle_4
40
0.2624672000000003
50
-89.42411804197069
0
TEXT
8
Modules
100
AcDbText
10
-3.8887279854
20
30.0776785084
1
DC
7
NewTextStyle_4
40
0.2624672000000003
50
-89.42411804197069
0
LINE
8
Modules
10
1.4610469642
20
33.4939416451
11
-1.8625277531
21
33.4605351501
62
254
0
LINE
8
Modules
10
-1.8625277531
20
33.4605351501
11
-1.7933456033
21
26.5776805092
62
254
0
LINE
8
Modules
10
-1.7933456033
20
26.5776805092
11
1.5302291141
21
26.6110870042
62
254
0
LINE
8
Modules
10
1.5302291141
20
26.6110870042
11
1.4610469642
21
33.4939416451
62
254
0
LINE
8
Modules
10
-0.5803555154
20
30.4417734514
11
-0.5721116938
21
29.6216048812
62
254
0
LINE
8
Modules
10
-0.5721116938
20
29.6216048812
11
0.2480568764
21
29.6298487029
62
254
0
LINE
8
Modules
10
0.2480568764
20
29.6298487029
11
0.2398130547
21
30.4500172731
62
254
0
LINE
8
Modules
10
0.2398130547
20
30.4500172731
11
-0.5803555154
21
30.4417734514
62
254
0
LINE
8
Modules
10
-0.5803555154
20
30.4417734514
11
0.2480568764
21
29.6298487029
62
254
0
TEXT
8
Modules
100
AcDbText
10
-0.0713563726
20
30.3976745066
1
DC
7
NewTextStyle_4
40
0.2624672000000003
50
-89.42411804197069
0
TEXT
8
Modules
100
AcDbText
10
-0.5278478726
20
30.1142006526
1
DC
7
NewTextStyle_4
40
0.2624672000000003
50
-89.42411804197069
0
LINE
8
Modules
10
4.8219271368
20
33.5268115736
11
1.4983522976
21
33.4934050809
62
254
0
LINE
8
Modules
10
1.4983522976
20
33.4934050809
11
1.5675344416
21
26.6105504399
62
254
0
LINE
8
Modules
10
1.5675344416
20
26.6105504399
11
4.8911092808
21
26.6439569326
62
254
0
LINE
8
Modules
10
4.8911092808
20
26.6439569326
11
4.8219271368
21
33.5268115736
62
254
0
LINE
8
Modules
10
2.7805245937
20
30.4746433814
11
2.7887684145
21
29.6544748112
62
254
0
LINE
8
Modules
10
2.7887684145
20
29.6544748112
11
3.6089369847
21
29.6627186320
62
254
0
LINE
8
Modules
10
3.6089369847
20
29.6627186320
11
3.6006931639
21
30.4828872022
62
254
0
LINE
8
Modules
10
3.6006931639
20
30.4828872022
11
2.7805245937
21
30.4746433814
62
254
0
LINE
8
Modules
10
2.7805245937
20
30.4746433814
11
3.6089369847
21
29.6627186320
62
254
0
TEXT
8
Modules
100
AcDbText
10
3.2895237365
20
30.4305444361
1
DC
7
NewTextStyle_4
40
0.2624672000000003
50
-89.42411810265371
0
TEXT
8
Modules
100
AcDbText
10
2.8330322362
20
30.1470705826
1
DC
7
NewTextStyle_4
40
0.2624672000000003
50
-89.42411810265371
0
LINE
8
Modules
10
11.4956850548
20
26.7237690847
11
14.8192598940
21
26.7571755774
62
254
0
LINE
8
Modules
10
14.8192598940
20
26.7571755774
11
14.7500777500
21
33.6400302184
62
254
0
LINE
8
Modules
10
14.7500777500
20
33.6400302184
11
11.4265029107
21
33.6066237257
62
254
0
LINE
8
Modules
10
11.4265029107
20
33.6066237257
11
11.4956850548
21
26.7237690847
62
254
0
LINE
8
Modules
10
13.5370875979
20
29.7759372768
11
13.5288437771
21
30.5961058470
62
254
0
LINE
8
Modules
10
13.5288437771
20
30.5961058470
11
12.7086752069
21
30.5878620262
62
254
0
LINE
8
Modules
10
12.7086752069
20
30.5878620262
11
12.7169190277
21
29.7676934561
62
254
0
LINE
8
Modules
10
12.7169190277
20
29.7676934561
11
13.5370875979
21
29.7759372768
62
254
0
LINE
8
Modules
10
13.5370875979
20
29.7759372768
11
12.7086752069
21
30.5878620262
62
254
0
TEXT
8
Modules
100
AcDbText
10
13.0280884551
20
29.8200362222
1
DC
7
NewTextStyle_4
40
0.2624672000000003
50
90.57588189733903
0
TEXT
8
Modules
100
AcDbText
10
13.4845799553
20
30.1035100757
1
DC
7
NewTextStyle_4
40
0.2624672000000003
50
90.57588189733903
0
LINE
8
Modules
10
8.1348049419
20
26.6872469405
11
11.4583797811
21
26.7206534331
62
254
0
LINE
8
Modules
10
11.4583797811
20
26.7206534331
11
11.3891976371
21
33.6035080741
62
254
0
LINE
8
Modules
10
11.3891976371
20
33.6035080741
11
8.0656227979
21
33.5701015814
62
254
0
LINE
8
Modules
10
8.0656227979
20
33.5701015814
11
8.1348049419
21
26.6872469405
62
254
0
LINE
8
Modules
10
10.1762074850
20
29.7394151326
11
10.1679636642
21
30.5595837028
62
254
0
LINE
8
Modules
10
10.1679636642
20
30.5595837028
11
9.3477950940
21
30.5513398820
62
254
0
LINE
8
Modules
10
9.3477950940
20
30.5513398820
11
9.3560389148
21
29.7311713118
62
254
0
LINE
8
Modules
10
9.3560389148
20
29.7311713118
11
10.1762074850
21
29.7394151326
62
254
0
LINE
8
Modules
10
10.1762074850
20
29.7394151326
11
9.3477950940
21
30.5513398820
62
254
0
TEXT
8
Modules
100
AcDbText
10
9.6672083422
20
29.7835140779
1
DC
7
NewTextStyle_4
40
0.2624672000000003
50
90.57588189733903
0
TEXT
8
Modules
100
AcDbText
10
10.1236998425
20
30.0669879314
1
DC
7
NewTextStyle_4
40
0.2624672000000003
50
90.57588189733903
0
LINE
8
Buildings
10
-6.6524463617
20
-41.6211754966
11
-6.6054565554
21
-46.2961391200
62
252
0
LINE
8
Buildings
10
-6.6054565554
20
-46.2961391200
11
7.6793499983
21
-46.1525571913
62
252
0
LINE
8
Buildings
10
7.6793499983
20
-46.1525571913
11
7.0261297163
21
18.8356028620
62
252
0
LINE
8
Buildings
10
7.0261297163
20
18.8356028620
11
3.9288182758
21
18.8199907752
62
252
0
LINE
8
Buildings
10
3.9288182758
20
18.8199907752
11
3.8917747628
21
26.1691234044
62
252
0
LINE
8
Buildings
10
3.8917747628
20
26.1691234044
11
6.9522627036
21
26.1845498813
62
252
0
LINE
8
Buildings
10
6.9522627036
20
26.1845498813
11
6.8395213317
21
37.4010637111
62
252
0
LINE
8
Buildings
10
6.8395213317
20
37.4010637111
11
-14.2860759446
21
37.1887224385
62
252
0
LINE
8
Buildings
10
-14.2860759446
20
37.1887224385
11
-13.4932370843
21
-41.6899348405
62
252
0
LINE
8
Buildings
10
-13.4932370843
20
-41.6899348405
11
-6.6524463617
21
-41.6211754966
62
252
0
LINE
8
Buildings
10
-13.4715960779
20
-9.8939552065
11
0.9766284696
21
-9.7487307024
62
252
0
LINE
8
Buildings
10
0.9766284696
20
-9.7487307024
11
-11.0207824586
21
-0.6518103036
62
252
0
LINE
8
Buildings
10
-11.0207824586
20
-0.6518103036
11
-13.5642353646
21
-0.6773754992
62
252
0
LINE
8
Buildings
10
-13.5642353646
20
-0.6773754992
11
-13.4715960779
21
-9.8939552065
62
252
0
LINE
8
Buildings
10
3.9288182758
20
18.8199907752
11
10.3815548776
21
18.8525159784
62
252
0
LINE
8
Buildings
10
10.3815548776
20
18.8525159784
11
7.1389239751
21
22.0626216777
62
252
0
LINE
8
Buildings
10
7.1389239751
20
22.0626216777
11
3.9288182758
21
18.8199907752
62
252
0
LINE
8
Buildings
10
7.1344056653
20
22.9590177051
11
7.1389239751
21
22.0626216777
62
252
0
LINE
8
Buildings
10
7.1389239751
20
22.0626216777
11
10.3815548776
21
18.8525159784
62
252
0
LINE
8
Buildings
10
10.3815548776
20
18.8525159784
11
10.3445113646
21
26.2016486076
62
252
0
LINE
8
Buildings
10
10.3445113646
20
26.2016486076
11
7.1344056653
21
22.9590177051
62
252
0
LINE
8
Buildings
10
10.3445113646
20
26.2016486076
11
3.8917747628
21
26.1691234044
62
252
0
LINE
8
Buildings
10
3.8917747628
20
26.1691234044
11
7.1344056653
21
22.9590177051
62
252
0
LINE
8
Buildings
10
7.1344056653
20
22.9590177051
11
10.3445113646
21
26.2016486076
62
252
0
LINE
8
Buildings
10
3.8917747628
20
26.1691234044
11
3.9288182758
21
18.8199907752
62
252
0
LINE
8
Buildings
10
3.9288182758
20
18.8199907752
11
7.1389239751
21
22.0626216777
62
252
0
LINE
8
Buildings
10
7.1389239751
20
22.0626216777
11
7.1344056653
21
22.9590177051
62
252
0
LINE
8
Buildings
10
7.1344056653
20
22.9590177051
11
3.8917747628
21
26.1691234044
62
252
0
LINE
8
Buildings
10
0.9766284696
20
-9.7487307024
11
-13.4715960779
21
-9.8939552065
62
252
0
LINE
8
Buildings
10
-13.4715960779
20
-9.8939552065
11
-13.3789567911
21
-19.1105349137
62
252
0
LINE
8
Buildings
10
-13.3789567911
20
-19.1105349137
11
-10.8355038851
21
-19.0849697181
62
252
0
LINE
8
Buildings
10
-10.8355038851
20
-19.0849697181
11
0.9766284696
21
-9.7487307024
62
252
0
LINE
8
Buildings
10
21.3761552373
20
-41.3394495480
11
28.7579574682
21
-41.2652522953
62
252
0
LINE
8
Buildings
10
28.7579574682
20
-41.2652522953
11
27.9651186079
21
37.6134049837
62
252
0
LINE
8
Buildings
10
27.9651186079
20
37.6134049837
11
6.8395213317
21
37.4010637111
62
252
0
LINE
8
Buildings
10
6.8395213317
20
37.4010637111
11
6.9522627036
21
26.1845498813
62
252
0
LINE
8
Buildings
10
6.9522627036
20
26.1845498813
11
10.3445113646
21
26.2016486076
62
252
0
LINE
8
Buildings
10
10.3445113646
20
26.2016486076
11
10.3815548776
21
18.8525159784
62
252
0
LINE
8
Buildings
10
10.3815548776
20
18.8525159784
11
7.0261297163
21
18.8356028620
62
252
0
LINE
8
Buildings
10
7.0261297163
20
18.8356028620
11
7.6793499983
21
-46.1525571913
62
252
0
LINE
8
Buildings
10
7.6793499983
20
-46.1525571913
11
21.4231450436
21
-46.0144131714
62
252
0
LINE
8
Buildings
10
21.4231450436
20
-46.0144131714
11
21.3761552373
21
-41.3394495480
62
252
0
LINE
8
Buildings
10
28.0783294526
20
-10.2195757529
11
13.6301049051
21
-10.3648002570
62
252
0
LINE
8
Buildings
10
13.6301049051
20
-10.3648002570
11
25.6275158333
21
-19.4617206558
62
252
0
LINE
8
Buildings
10
25.6275158333
20
-19.4617206558
11
28.1709687393
21
-19.4361554602
62
252
0
LINE
8
Buildings
10
28.1709687393
20
-19.4361554602
11
28.0783294526
21
-10.2195757529
62
252
0
LINE
8
Buildings
10
13.6301049051
20
-10.3648002570
11
28.0783294526
21
-10.2195757529
62
252
0
LINE
8
Buildings
10
28.0783294526
20
-10.2195757529
11
27.9856901658
21
-1.0029960457
62
252
0
LINE
8
Buildings
10
27.9856901658
20
-1.0029960457
11
25.4422372598
21
-1.0285612413
62
252
0
LINE
8
Buildings
10
25.4422372598
20
-1.0285612413
11
13.6301049051
21
-10.3648002570
62
252
0
LINE
8
Setbacks
10
-13.4906157712
20
-38.6864757854
11
-6.6826319423
21
-38.6180463490
62
2
0
LINE
8
Setbacks
10
-6.6826319423
20
-38.6180463490
11
-6.6820592286
21
-38.6180908846
62
2
0
LINE
8
Setbacks
10
-6.6820592286
20
-38.6180908846
11
-5.8516986377
21
-38.7565823589
62
2
0
LINE
8
Setbacks
10
-5.8516986377
20
-38.7565823589
11
-5.8511548419
21
-38.7567217469
62
2
0
LINE
8
Setbacks
10
-5.8511548419
20
-38.7567217469
11
-5.8506427696
21
-38.7569518008
62
2
0
LINE
8
Setbacks
10
-5.8506427696
20
-38.7569518008
11
-5.0986122337
21
-39.1755328509
62
2
0
LINE
8
Setbacks
10
-5.0986122337
20
-39.1755328509
11
-5.0981716852
21
-39.1758270036
62
2
0
LINE
8
Setbacks
10
-5.0981716852
20
-39.1758270036
11
-5.0977842180
21
-39.1761882210
62
2
0
LINE
8
Setbacks
10
-5.0977842180
20
-39.1761882210
11
-4.4976975846
21
-39.8338854205
62
2
0
LINE
8
Setbacks
10
-4.4976975846
20
-39.8338854205
11
-4.4973924473
21
-39.8342752694
62
2
0
LINE
8
Setbacks
10
-4.4973924473
20
-39.8342752694
11
-4.4971494429
21
-39.8347065927
62
2
0
LINE
8
Setbacks
10
-4.4971494429
20
-39.8347065927
11
-4.1077475276
21
-40.6671396902
62
2
0
LINE
8
Setbacks
10
-4.1077475276
20
-40.6671396902
11
-4.1074756534
21
-40.6680371762
62
2
0
LINE
8
Setbacks
10
-4.1074756534
20
-40.6680371762
11
-3.9668755833
21
-41.5937219171
62
2
0
LINE
8
Setbacks
10
-3.9668755833
20
-41.5937219171
11
-3.9668663356
21
-41.5946419548
62
2
0
LINE
8
Setbacks
10
-3.9668663356
20
-41.5946419548
11
-4.0888309065
21
-42.5229654753
62
2
0
LINE
8
Setbacks
10
-4.0888309065
20
-42.5229654753
11
-4.0890846860
21
-42.5238682460
62
2
0
LINE
8
Setbacks
10
-4.0890846860
20
-42.5238682460
11
-4.4203326275
21
-43.2707429417
62
2
0
LINE
8
Setbacks
10
-4.4203326275
20
-43.2707429417
11
6.3047200169
21
-43.1629416744
62
2
0
LINE
8
Setbacks
10
6.3047200169
20
-43.1629416744
11
5.7118035002
21
15.8256665086
62
2
0
LINE
8
Setbacks
10
5.7118035002
20
15.8256665086
11
3.9469697471
21
15.8167708890
62
2
0
LINE
8
Setbacks
10
3.9469697471
20
15.8167708890
11
3.9463973649
21
15.8168182763
62
2
0
LINE
8
Setbacks
10
3.9463973649
20
15.8168182763
11
3.1165915640
21
15.9594675591
62
2
0
LINE
8
Setbacks
10
3.1165915640
20
15.9594675591
11
3.1160488046
21
15.9596095338
62
2
0
LINE
8
Setbacks
10
3.1160488046
20
15.9596095338
11
3.1155381691
21
15.9598419044
62
2
0
LINE
8
Setbacks
10
3.1155381691
20
15.9598419044
11
2.3651844706
21
16.3821824691
62
2
0
LINE
8
Setbacks
10
2.3651844706
20
16.3821824691
11
2.3647457278
21
16.3824783969
62
2
0
LINE
8
Setbacks
10
2.3647457278
20
16.3824783969
11
2.3643602718
21
16.3828410155
62
2
0
LINE
8
Setbacks
10
2.3643602718
20
16.3828410155
11
1.7669084811
21
17.0435316534
62
2
0
LINE
8
Setbacks
10
1.7669084811
20
17.0435316534
11
1.7666053289
21
17.0439224823
62
2
0
LINE
8
Setbacks
10
1.7666053289
20
17.0439224823
11
1.7663643756
21
17.0443544429
62
2
0
LINE
8
Setbacks
10
1.7663643756
20
17.0443544429
11
1.3802971060
21
17.8787215956
62
2
0
LINE
8
Setbacks
10
1.3802971060
20
17.8787215956
11
1.3800290556
21
17.8796197169
62
2
0
LINE
8
Setbacks
10
1.3800290556
20
17.8796197169
11
1.2431373189
21
18.8059901534
62
2
0
LINE
8
Setbacks
10
1.2431373189
20
18.8059901534
11
1.2431317752
21
18.8069102253
62
2
0
LINE
8
Setbacks
10
1.2431317752
20
18.8069102253
11
1.3688155062
21
19.7346041527
62
2
0
LINE
8
Setbacks
10
1.3688155062
20
19.7346041527
11
1.3690731249
21
19.7355063541
62
2
0
LINE
8
Setbacks
10
1.3690731249
20
19.7355063541
11
1.7450295018
21
20.5737147143
62
2
0
LINE
8
Setbacks
10
1.7450295018
20
20.5737147143
11
1.7452658519
21
20.5741502297
62
2
0
LINE
8
Setbacks
10
1.7452658519
20
20.5741502297
11
1.7455650957
21
20.5745451831
62
2
0
LINE
8
Setbacks
10
1.7455650957
20
20.5745451831
11
2.3349929360
21
21.2412184328
62
2
0
LINE
8
Setbacks
10
2.3349929360
20
21.2412184328
11
2.3353750998
21
21.2415859922
62
2
0
LINE
8
Setbacks
10
2.3353750998
20
21.2415859922
11
2.3358114816
21
21.2418871897
62
2
0
LINE
8
Setbacks
10
2.3358114816
20
21.2418871897
11
2.5713920916
21
21.3777848451
62
2
0
LINE
8
Setbacks
10
2.5713920916
20
21.3777848451
11
2.5601875578
21
23.6007067161
62
2
0
LINE
8
Setbacks
10
2.5601875578
20
23.6007067161
11
2.3281408361
21
23.7313152492
62
2
0
LINE
8
Setbacks
10
2.3281408361
20
23.7313152492
11
2.3277020925
21
23.7316111771
62
2
0
LINE
8
Setbacks
10
2.3277020925
20
23.7316111771
11
2.3273166360
21
23.7319737960
62
2
0
LINE
8
Setbacks
10
2.3273166360
20
23.7319737960
11
1.7298648453
21
24.3926641058
62
2
0
LINE
8
Setbacks
10
1.7298648453
20
24.3926641058
11
1.7295616926
21
24.3930549352
62
2
0
LINE
8
Setbacks
10
1.7295616926
20
24.3930549352
11
1.7293207390
21
24.3934868964
62
2
0
LINE
8
Setbacks
10
1.7293207390
20
24.3934868964
11
1.3432534694
21
25.2278543772
62
2
0
LINE
8
Setbacks
10
1.3432534694
20
25.2278543772
11
1.3429854192
21
25.2287524980
62
2
0
LINE
8
Setbacks
10
1.3429854192
20
25.2287524980
11
1.2060936826
21
26.1551229345
62
2
0
LINE
8
Setbacks
10
1.2060936826
20
26.1551229345
11
1.2060881388
21
26.1560430064
62
2
0
LINE
8
Setbacks
10
1.2060881388
20
26.1560430064
11
1.3317718699
21
27.0837369338
62
2
0
LINE
8
Setbacks
10
1.3317718699
20
27.0837369338
11
1.3320294886
21
27.0846391352
62
2
0
LINE
8
Setbacks
10
1.3320294886
20
27.0846391352
11
1.7079858654
21
27.9228474954
62
2
0
LINE
8
Setbacks
10
1.7079858654
20
27.9228474954
11
1.7082222158
21
27.9232830111
62
2
0
LINE
8
Setbacks
10
1.7082222158
20
27.9232830111
11
1.7085214598
21
27.9236779648
62
2
0
LINE
8
Setbacks
10
1.7085214598
20
27.9236779648
11
2.2979493002
21
28.5903508864
62
2
0
LINE
8
Setbacks
10
2.2979493002
20
28.5903508864
11
2.2983314637
21
28.5907184455
62
2
0
LINE
8
Setbacks
10
2.2983314637
20
28.5907184455
11
2.2987678453
21
28.5910196427
62
2
0
LINE
8
Setbacks
10
2.2987678453
20
28.5910196427
11
3.0439699688
21
29.0208989216
62
2
0
LINE
8
Setbacks
10
3.0439699688
20
29.0208989216
11
3.0444787834
21
29.0211369224
62
2
0
LINE
8
Setbacks
10
3.0444787834
20
29.0211369224
11
3.0450207398
21
29.0212846384
62
2
0
LINE
8
Setbacks
10
3.0450207398
20
29.0212846384
11
3.8730512781
21
29.1722902206
62
2
0
LINE
8
Setbacks
10
3.8730512781
20
29.1722902206
11
3.8736233509
21
29.1723434115
62
2
0
LINE
8
Setbacks
10
3.8736233509
20
29.1723434115
11
5.5775646444
21
29.1809321069
62
2
0
LINE
8
Setbacks
10
5.5775646444
20
29.1809321069
11
5.5252626484
21
34.3844207186
62
2
0
LINE
8
Setbacks
10
5.5252626484
20
34.3844207186
11
-14.2230836037
21
34.1859228761
62
2
0
LINE
8
Setbacks
10
-13.3487712575
20
-22.1136642558
11
-13.3493439727
21
-22.1136197200
62
2
0
LINE
8
Setbacks
10
-13.3493439727
20
-22.1136197200
11
-13.6577127239
21
-22.0621883965
62
2
0
LINE
8
Setbacks
10
-13.9022653688
20
2.2680784709
11
-13.5949925811
21
2.3256978070
62
2
0
LINE
8
Setbacks
10
-13.5949925811
20
2.3256978070
11
-13.5944208772
21
2.3257538457
62
2
0
LINE
8
Setbacks
10
-13.5944208772
20
2.3257538457
11
-11.0509680399
21
2.3513188072
62
2
0
LINE
8
Setbacks
10
-11.0509680399
20
2.3513188072
11
-11.0503953264
21
2.3512742715
62
2
0
LINE
8
Setbacks
10
-11.0503953264
20
2.3512742715
11
-10.2200347355
21
2.2127827973
62
2
0
LINE
8
Setbacks
10
-10.2200347355
20
2.2127827973
11
-10.2194909397
21
2.2126434093
62
2
0
LINE
8
Setbacks
10
-10.2194909397
20
2.2126434093
11
-10.2189788674
21
2.2124133554
62
2
0
LINE
8
Setbacks
10
-10.2189788674
20
2.2124133554
11
-9.4669483315
21
1.7938323053
62
2
0
LINE
8
Setbacks
10
-9.4669483315
20
1.7938323053
11
-9.4665077830
21
1.7935381526
62
2
0
LINE
8
Setbacks
10
-9.4665077830
20
1.7935381526
11
-9.4661203158
21
1.7931769352
62
2
0
LINE
8
Setbacks
10
-9.4661203158
20
1.7931769352
11
-8.8660336824
21
1.1354797357
62
2
0
LINE
8
Setbacks
10
-8.8660336824
20
1.1354797357
11
-8.8657285451
21
1.1350898868
62
2
0
LINE
8
Setbacks
10
-8.8657285451
20
1.1350898868
11
-8.8654855407
21
1.1346585635
62
2
0
LINE
8
Setbacks
10
-8.8654855407
20
1.1346585635
11
-8.4760836254
21
0.3022254660
62
2
0
LINE
8
Setbacks
10
-8.4760836254
20
0.3022254660
11
-8.4758117513
21
0.3013279802
62
2
0
LINE
8
Setbacks
10
-8.4758117513
20
0.3013279802
11
-8.3352116811
21
-0.6243564326
62
2
0
LINE
8
Setbacks
10
-8.3352116811
20
-0.6243564326
11
-8.3352024335
21
-0.6252764714
62
2
0
LINE
8
Setbacks
10
-8.3352024335
20
-0.6252764714
11
-8.3648796539
21
-0.8511617876
62
2
0
LINE
8
Setbacks
10
-8.3648796539
20
-0.8511617876
11
1.7295731986
21
-8.5051825648
62
2
0
LINE
8
Setbacks
10
1.7295731986
20
-8.5051825648
11
1.7299636629
21
-8.5055310112
62
2
0
LINE
8
Setbacks
10
1.7299636629
20
-8.5055310112
11
1.7522119174
21
-8.5288287087
62
2
0
LINE
8
Setbacks
10
1.7522119174
20
-8.5288287087
11
1.7791649203
21
-8.5446973211
62
2
0
LINE
8
Setbacks
10
1.7791649203
20
-8.5446973211
11
1.7795962067
21
-8.5450003801
62
2
0
LINE
8
Setbacks
10
1.7795962067
20
-8.5450003801
11
1.7799733928
21
-8.5453685964
62
2
0
LINE
8
Setbacks
10
1.7799733928
20
-8.5453685964
11
1.9054343488
21
-8.6892797122
62
2
0
LINE
8
Setbacks
10
1.9054343488
20
-8.6892797122
11
2.0366218156
21
-8.8266560282
62
2
0
LINE
8
Setbacks
10
2.0366218156
20
-8.8266560282
11
2.0369370614
21
-8.8270407348
62
2
0
LINE
8
Setbacks
10
2.0369370614
20
-8.8270407348
11
2.0371905314
21
-8.8274686741
62
2
0
LINE
8
Setbacks
10
2.0371905314
20
-8.8274686741
11
2.0519477830
21
-8.8573391912
62
2
0
LINE
8
Setbacks
10
2.0519477830
20
-8.8573391912
11
2.0732460390
21
-8.8817695247
62
2
0
LINE
8
Setbacks
10
2.0732460390
20
-8.8817695247
11
2.0735410712
21
-8.8821642682
62
2
0
LINE
8
Setbacks
10
2.0735410712
20
-8.8821642682
11
2.0737736480
21
-8.8825987499
62
2
0
LINE
8
Setbacks
10
2.0737736480
20
-8.8825987499
11
2.1534189709
21
-9.0627294491
62
2
0
LINE
8
Setbacks
10
2.1534189709
20
-9.0627294491
11
2.2403211171
21
-9.2386307643
62
2
0
LINE
8
Setbacks
10
2.2403211171
20
-9.2386307643
11
2.2406125157
21
-9.2395248630
62
2
0
LINE
8
Setbacks
10
2.2406125157
20
-9.2395248630
11
2.2464091496
21
-9.2730427526
62
2
0
LINE
8
Setbacks
10
2.2464091496
20
-9.2730427526
11
2.2599435983
21
-9.3036528903
62
2
0
LINE
8
Setbacks
10
2.2599435983
20
-9.3036528903
11
2.2601960355
21
-9.3045535092
62
2
0
LINE
8
Setbacks
10
2.2601960355
20
-9.3045535092
11
2.2862263411
21
-9.5032722479
62
2
0
LINE
8
Setbacks
10
2.2862263411
20
-9.5032722479
11
2.3203320043
21
-9.7004769650
62
2
0
LINE
8
Setbacks
10
2.3203320043
20
-9.7004769650
11
2.3203601144
21
-9.7013967070
62
2
0
LINE
8
Setbacks
10
2.3203601144
20
-9.7013967070
11
2.3166149570
21
-9.7352613880
62
2
0
LINE
8
Setbacks
10
2.3166149570
20
-9.7352613880
11
2.3210401987
21
-9.7690450031
62
2
0
LINE
8
Setbacks
10
2.3210401987
20
-9.7690450031
11
2.3210305818
21
-9.7699651231
62
2
0
LINE
8
Setbacks
10
2.3210305818
20
-9.7699651231
11
2.2908953688
21
-9.9678185739
62
2
0
LINE
8
Setbacks
10
2.2908953688
20
-9.9678185739
11
2.2688650331
21
-10.1670174660
62
2
0
LINE
8
Setbacks
10
2.2688650331
20
-10.1670174660
11
2.2686307554
21
-10.1679229643
62
2
0
LINE
8
Setbacks
10
2.2686307554
20
-10.1679229643
11
2.2557144950
21
-10.1987989339
62
2
0
LINE
8
Setbacks
10
2.2557144950
20
-10.1987989339
11
2.2505925870
21
-10.2324267548
62
2
0
LINE
8
Setbacks
10
2.2505925870
20
-10.2324267548
11
2.2503192201
21
-10.2333265190
62
2
0
LINE
8
Setbacks
10
2.2503192201
20
-10.2333265190
11
2.1669702724
21
-10.4109388374
62
2
0
LINE
8
Setbacks
10
2.1669702724
20
-10.4109388374
11
2.0909617844
21
-10.5926342687
62
2
0
LINE
8
Setbacks
10
2.0909617844
20
-10.5926342687
11
2.0907379898
21
-10.5930733350
62
2
0
LINE
8
Setbacks
10
2.0907379898
20
-10.5930733350
11
2.0904509544
21
-10.5934739270
62
2
0
LINE
8
Setbacks
10
2.0904509544
20
-10.5934739270
11
2.0696478256
21
-10.6183278387
62
2
0
LINE
8
Setbacks
10
2.0696478256
20
-10.6183278387
11
2.0554940803
21
-10.6484886107
62
2
0
LINE
8
Setbacks
10
2.0554940803
20
-10.6484886107
11
2.0552492648
21
-10.6489215553
62
2
0
LINE
8
Setbacks
10
2.0552492648
20
-10.6489215553
11
2.0549418177
21
-10.6493125181
62
2
0
LINE
8
Setbacks
10
2.0549418177
20
-10.6493125181
11
1.9265432842
21
-10.7892970652
62
2
0
LINE
8
Setbacks
10
1.9265432842
20
-10.7892970652
11
1.8039994974
21
-10.9357019614
62
2
0
LINE
8
Setbacks
10
1.8039994974
20
-10.9357019614
11
1.8036297929
21
-10.9360776815
62
2
0
LINE
8
Setbacks
10
1.8036297929
20
-10.9360776815
11
1.8032046905
21
-10.9363893462
62
2
0
LINE
8
Setbacks
10
1.8032046905
20
-10.9363893462
11
1.7765760162
21
-10.9527966943
62
2
0
LINE
8
Setbacks
10
1.7765760162
20
-10.9527966943
11
1.7548007200
21
-10.9765366229
62
2
0
LINE
8
Setbacks
10
1.7548007200
20
-10.9765366229
11
1.7544173429
21
-10.9768928430
62
2
0
LINE
8
Setbacks
10
1.7544173429
20
-10.9768928430
11
-8.1841445904
21
-18.8322730906
62
2
0
LINE
8
Setbacks
10
-8.1841445904
20
-18.8322730906
11
-8.1499328042
21
-19.0575158125
62
2
0
LINE
8
Setbacks
10
-8.1499328042
20
-19.0575158125
11
-8.1499235562
21
-19.0584358540
62
2
0
LINE
8
Setbacks
10
-8.1499235562
20
-19.0584358540
11
-8.2718884551
21
-19.9867597026
62
2
0
LINE
8
Setbacks
10
-8.2718884551
20
-19.9867597026
11
-8.2721422344
21
-19.9876624719
62
2
0
LINE
8
Setbacks
10
-8.2721422344
20
-19.9876624719
11
-8.6447331255
21
-20.8277546904
62
2
0
LINE
8
Setbacks
10
-8.6447331255
20
-20.8277546904
11
-8.6449674108
21
-20.8281908110
62
2
0
LINE
8
Setbacks
10
-8.6449674108
20
-20.8281908110
11
-8.6452646502
21
-20.8285867144
62
2
0
LINE
8
Setbacks
10
-8.6452646502
20
-20.8285867144
11
-9.2320097477
21
-21.4982130482
62
2
0
LINE
8
Setbacks
10
-9.2320097477
20
-21.4982130482
11
-9.2323898759
21
-21.4985819809
62
2
0
LINE
8
Setbacks
10
-9.2323898759
20
-21.4985819809
11
-9.2328244227
21
-21.4988849295
62
2
0
LINE
8
Setbacks
10
-9.2328244227
20
-21.4988849295
11
-9.9762893415
21
-21.9324978043
62
2
0
LINE
8
Setbacks
10
-9.9762893415
20
-21.9324978043
11
-9.9767966858
21
-21.9327381045
62
2
0
LINE
8
Setbacks
10
-9.9767966858
20
-21.9327381045
11
-9.9773375696
21
-21.9328883951
62
2
0
LINE
8
Setbacks
10
-9.9773375696
20
-21.9328883951
11
-10.8047467168
21
-22.0880429276
62
2
0
LINE
8
Setbacks
10
-10.8047467168
20
-22.0880429276
11
-10.8053184202
21
-22.0880989663
62
2
0
LINE
8
Setbacks
10
-10.8053184202
20
-22.0880989663
11
-13.3487712575
21
-22.1136642558
62
2
0
LINE
8
Setbacks
10
-10.4811588044
20
-8.6010599854
11
-2.8851477263
21
-8.5247097584
62
2
0
LINE
8
Setbacks
10
-2.8851477263
20
-8.5247097584
11
-10.5402685731
21
-2.7202884780
62
2
0
LINE
8
Setbacks
10
-10.5402685731
20
-2.7202884780
11
-10.4811588044
21
-8.6010599854
62
2
0
LINE
8
Setbacks
10
8.2856187799
20
18.8747602688
11
7.1493221721
21
19.9996591192
62
2
0
LINE
8
Setbacks
10
7.1493221721
20
19.9996591192
11
6.0244232929
21
18.8633626560
62
2
0
LINE
8
Setbacks
10
10.3222672581
20
24.1057126044
11
8.7514293996
21
22.5189588188
62
2
0
LINE
8
Setbacks
10
8.7514293996
20
22.5189588188
11
10.3381832064
21
20.9481211400
62
2
0
LINE
8
Setbacks
10
5.9877107451
20
26.1468792952
11
7.1240073529
21
25.0219804449
62
2
0
LINE
8
Setbacks
10
7.1240073529
20
25.0219804449
11
8.2489062321
21
26.1582769080
62
2
0
LINE
8
Setbacks
10
3.9510625950
20
20.9159266315
11
5.5219004536
21
22.5026804173
62
2
0
LINE
8
Setbacks
10
5.5219004536
20
22.5026804173
11
3.9351466456
21
24.0735182979
62
2
0
LINE
8
Setbacks
10
-10.4557746119
20
-11.1264793542
11
-10.3966651707
21
-17.0072505335
62
2
0
LINE
8
Setbacks
10
-10.3966651707
20
-17.0072505335
11
-2.8597638621
21
-11.0501291272
62
2
0
LINE
8
Setbacks
10
-2.8597638621
20
-11.0501291272
11
-10.4557746119
21
-11.1264793542
62
2
0
LINE
8
Setbacks
10
27.9624974679
20
34.6099461264
11
8.2141511828
21
34.4114479561
62
2
0
LINE
8
Setbacks
10
8.2141511828
20
34.4114479561
11
8.2665890074
21
29.1944861791
62
2
0
LINE
8
Setbacks
10
8.2665890074
20
29.1944861791
11
10.3263597775
21
29.2048686750
62
2
0
LINE
8
Setbacks
10
10.3263597775
20
29.2048686750
11
10.3269321601
21
29.2048212877
62
2
0
LINE
8
Setbacks
10
10.3269321601
20
29.2048212877
11
11.1567379610
21
29.0621720050
62
2
0
LINE
8
Setbacks
10
11.1567379610
20
29.0621720050
11
11.1572807209
21
29.0620300300
62
2
0
LINE
8
Setbacks
10
11.1572807209
20
29.0620300300
11
11.1577913568
21
29.0617976591
62
2
0
LINE
8
Setbacks
10
11.1577913568
20
29.0617976591
11
11.9081450553
21
28.6394567663
62
2
0
LINE
8
Setbacks
10
11.9081450553
20
28.6394567663
11
11.9085837970
21
28.6391608393
62
2
0
LINE
8
Setbacks
10
11.9085837970
20
28.6391608393
11
11.9089692520
21
28.6387982218
62
2
0
LINE
8
Setbacks
10
11.9089692520
20
28.6387982218
11
12.5064213709
21
27.9781079119
62
2
0
LINE
8
Setbacks
10
12.5064213709
20
27.9781079119
11
12.5067245238
21
27.9777170822
62
2
0
LINE
8
Setbacks
10
12.5067245238
20
27.9777170822
11
12.5069654777
21
27.9772851207
62
2
0
LINE
8
Setbacks
10
12.5069654777
20
27.9772851207
11
12.8930327473
21
27.1429176399
62
2
0
LINE
8
Setbacks
10
12.8930327473
20
27.1429176399
11
12.8933007975
21
27.1420195190
62
2
0
LINE
8
Setbacks
10
12.8933007975
20
27.1420195190
11
13.0301925342
21
26.2156490826
62
2
0
LINE
8
Setbacks
10
13.0301925342
20
26.2156490826
11
13.0301980779
21
26.2147290106
62
2
0
LINE
8
Setbacks
10
13.0301980779
20
26.2147290106
11
12.9045143469
21
25.2870350833
62
2
0
LINE
8
Setbacks
10
12.9045143469
20
25.2870350833
11
12.9042567281
21
25.2861328818
62
2
0
LINE
8
Setbacks
10
12.9042567281
20
25.2861328818
11
12.5283003513
21
24.4479245217
62
2
0
LINE
8
Setbacks
10
12.5283003513
20
24.4479245217
11
12.5280640010
21
24.4474890060
62
2
0
LINE
8
Setbacks
10
12.5280640010
20
24.4474890060
11
12.5277647569
21
24.4470940523
62
2
0
LINE
8
Setbacks
10
12.5277647569
20
24.4470940523
11
11.9383369165
21
23.7804211307
62
2
0
LINE
8
Setbacks
10
11.9383369165
20
23.7804211307
11
11.9379547522
21
23.7800535710
62
2
0
LINE
8
Setbacks
10
11.9379547522
20
23.7800535710
11
11.9375183697
21
23.7797523734
62
2
0
LINE
8
Setbacks
10
11.9375183697
20
23.7797523734
11
11.7019374337
21
23.6438547178
62
2
0
LINE
8
Setbacks
10
11.7019374337
20
23.6438547178
11
11.7131422950
21
21.4209328468
62
2
0
LINE
8
Setbacks
10
11.7131422950
20
21.4209328468
11
11.9451886906
21
21.2903243139
62
2
0
LINE
8
Setbacks
10
11.9451886906
20
21.2903243139
11
11.9456274335
21
21.2900283861
62
2
0
LINE
8
Setbacks
10
11.9456274335
20
21.2900283861
11
11.9460128895
21
21.2896657675
62
2
0
LINE
8
Setbacks
10
11.9460128895
20
21.2896657675
11
12.5434646803
21
20.6289751295
62
2
0
LINE
8
Setbacks
10
12.5434646803
20
20.6289751295
11
12.5437678325
21
20.6285843006
62
2
0
LINE
8
Setbacks
10
12.5437678325
20
20.6285843006
11
12.5440087858
21
20.6281523400
62
2
0
LINE
8
Setbacks
10
12.5440087858
20
20.6281523400
11
12.9300760553
21
19.7937851873
62
2
0
LINE
8
Setbacks
10
12.9300760553
20
19.7937851873
11
12.9303441058
21
19.7928870660
62
2
0
LINE
8
Setbacks
10
12.9303441058
20
19.7928870660
11
13.0672358424
21
18.8665166295
62
2
0
LINE
8
Setbacks
10
13.0672358424
20
18.8665166295
11
13.0672413862
21
18.8655965578
62
2
0
LINE
8
Setbacks
10
13.0672413862
20
18.8655965578
11
12.9415576551
21
17.9379023024
62
2
0
LINE
8
Setbacks
10
12.9415576551
20
17.9379023024
11
12.9413000364
21
17.9370001007
62
2
0
LINE
8
Setbacks
10
12.9413000364
20
17.9370001007
11
12.5653436595
21
17.0987917406
62
2
0
LINE
8
Setbacks
10
12.5653436595
20
17.0987917406
11
12.5651073092
21
17.0983562248
62
2
0
LINE
8
Setbacks
10
12.5651073092
20
17.0983562248
11
12.5648080652
21
17.0979612712
62
2
0
LINE
8
Setbacks
10
12.5648080652
20
17.0979612712
11
11.9753802248
21
16.4312883496
62
2
0
LINE
8
Setbacks
10
11.9753802248
20
16.4312883496
11
11.9749980611
21
16.4309207904
62
2
0
LINE
8
Setbacks
10
11.9749980611
20
16.4309207904
11
11.9745616793
21
16.4306195930
62
2
0
LINE
8
Setbacks
10
11.9745616793
20
16.4306195930
11
11.2293598838
21
16.0007406422
62
2
0
LINE
8
Setbacks
10
11.2293598838
20
16.0007406422
11
11.2288510700
21
16.0005026418
62
2
0
LINE
8
Setbacks
10
11.2288510700
20
16.0005026418
11
11.2283091145
21
16.0003549259
62
2
0
LINE
8
Setbacks
10
11.2283091145
20
16.0003549259
11
10.4002785762
21
15.8493490155
62
2
0
LINE
8
Setbacks
10
10.4002785762
20
15.8493490155
11
10.3997065020
21
15.8492958244
62
2
0
LINE
8
Setbacks
10
10.3997065020
20
15.8492958244
11
8.4008275354
21
15.8392205804
62
2
0
LINE
8
Setbacks
10
8.4008275354
20
15.8392205804
11
8.9936088791
21
-43.1359144369
62
2
0
LINE
8
Setbacks
10
8.9936088791
20
-43.1359144369
11
19.1776500234
21
-43.0335508340
62
2
0
LINE
8
Setbacks
10
19.1776500234
20
-43.0335508340
11
18.8314563324
21
-42.2934853405
62
2
0
LINE
8
Setbacks
10
18.8314563324
20
-42.2934853405
11
18.8311844580
21
-42.2925878541
62
2
0
LINE
8
Setbacks
10
18.8311844580
20
-42.2925878541
11
18.6905843878
21
-41.3669034413
62
2
0
LINE
8
Setbacks
10
18.6905843878
20
-41.3669034413
11
18.6905751401
21
-41.3659834035
62
2
0
LINE
8
Setbacks
10
18.6905751401
20
-41.3659834035
11
18.8125397109
21
-40.4376595549
62
2
0
LINE
8
Setbacks
10
18.8125397109
20
-40.4376595549
11
18.8127934903
21
-40.4367567845
62
2
0
LINE
8
Setbacks
10
18.8127934903
20
-40.4367567845
11
19.1853843815
21
-39.5966645660
62
2
0
LINE
8
Setbacks
10
19.1853843815
20
-39.5966645660
11
19.1856186670
21
-39.5962284451
62
2
0
LINE
8
Setbacks
10
19.1856186670
20
-39.5962284451
11
19.1859159068
21
-39.5958325413
62
2
0
LINE
8
Setbacks
10
19.1859159068
20
-39.5958325413
11
19.7726613324
21
-38.9262062076
62
2
0
LINE
8
Setbacks
10
19.7726613324
20
-38.9262062076
11
19.7730414603
21
-38.9258372752
62
2
0
LINE
8
Setbacks
10
19.7730414603
20
-38.9258372752
11
19.7734760067
21
-38.9255343269
62
2
0
LINE
8
Setbacks
10
19.7734760067
20
-38.9255343269
11
20.5169409255
21
-38.4919214521
62
2
0
LINE
8
Setbacks
10
20.5169409255
20
-38.4919214521
11
20.5174482697
21
-38.4916811519
62
2
0
LINE
8
Setbacks
10
20.5174482697
20
-38.4916811519
11
20.5179891534
21
-38.4915308614
62
2
0
LINE
8
Setbacks
10
20.5179891534
20
-38.4915308614
11
21.3453979725
21
-38.3363763289
62
2
0
LINE
8
Setbacks
10
21.3453979725
20
-38.3363763289
11
21.3459696763
21
-38.3363202901
62
2
0
LINE
8
Setbacks
10
21.3459696763
20
-38.3363202901
11
28.6949653037
21
-38.2624528588
62
2
0
LINE
8
Setbacks
10
28.5352914268
20
-22.3766789147
11
28.2017259884
21
-22.4392286343
62
2
0
LINE
8
Setbacks
10
28.2017259884
20
-22.4392286343
11
28.2011542847
21
-22.4392846731
62
2
0
LINE
8
Setbacks
10
28.2011542847
20
-22.4392846731
11
25.6577014474
21
-22.4648499626
62
2
0
LINE
8
Setbacks
10
25.6577014474
20
-22.4648499626
11
25.6571287322
21
-22.4648054268
62
2
0
LINE
8
Setbacks
10
25.6571287322
20
-22.4648054268
11
24.8267681413
21
-22.3263136244
62
2
0
LINE
8
Setbacks
10
24.8267681413
20
-22.3263136244
11
24.8262243462
21
-22.3261742364
62
2
0
LINE
8
Setbacks
10
24.8262243462
20
-22.3261742364
11
24.8257122744
21
-22.3259441828
62
2
0
LINE
8
Setbacks
10
24.8257122744
20
-22.3259441828
11
24.0736817385
21
-21.9073631326
62
2
0
LINE
8
Setbacks
10
24.0736817385
20
-21.9073631326
11
24.0732411900
21
-21.9070689799
62
2
0
LINE
8
Setbacks
10
24.0732411900
20
-21.9070689799
11
24.0728537229
21
-21.9067077626
62
2
0
LINE
8
Setbacks
10
24.0728537229
20
-21.9067077626
11
23.4727670895
21
-21.2490105630
62
2
0
LINE
8
Setbacks
10
23.4727670895
20
-21.2490105630
11
23.4724619523
21
-21.2486207144
62
2
0
LINE
8
Setbacks
10
23.4724619523
20
-21.2486207144
11
23.4722189480
21
-21.2481893913
62
2
0
LINE
8
Setbacks
10
23.4722189480
20
-21.2481893913
11
23.0828170326
21
-20.4157566219
62
2
0
LINE
8
Setbacks
10
23.0828170326
20
-20.4157566219
11
23.0825451585
21
-20.4148591366
62
2
0
LINE
8
Setbacks
10
23.0825451585
20
-20.4148591366
11
22.9419447603
21
-19.4891743957
62
2
0
LINE
8
Setbacks
10
22.9419447603
20
-19.4891743957
11
22.9419355125
21
-19.4882543560
62
2
0
LINE
8
Setbacks
10
22.9419355125
20
-19.4882543560
11
22.9716127329
21
-19.2623690398
62
2
0
LINE
8
Setbacks
10
22.9716127329
20
-19.2623690398
11
12.8771598804
21
-11.6083482626
62
2
0
LINE
8
Setbacks
10
12.8771598804
20
-11.6083482626
11
12.8767694154
21
-11.6079998154
62
2
0
LINE
8
Setbacks
10
12.8767694154
20
-11.6079998154
11
12.8545214892
21
-11.5847024465
62
2
0
LINE
8
Setbacks
10
12.8545214892
20
-11.5847024465
11
12.8275684867
21
-11.5688338343
62
2
0
LINE
8
Setbacks
10
12.8275684867
20
-11.5688338343
11
12.8271372004
21
-11.5685307753
62
2
0
LINE
8
Setbacks
10
12.8271372004
20
-11.5685307753
11
12.8267600142
21
-11.5681625590
62
2
0
LINE
8
Setbacks
10
12.8267600142
20
-11.5681625590
11
12.7012990583
21
-11.4242514432
62
2
0
LINE
8
Setbacks
10
12.7012990583
20
-11.4242514432
11
12.5701115915
21
-11.2868751272
62
2
0
LINE
8
Setbacks
10
12.5701115915
20
-11.2868751272
11
12.5697963456
21
-11.2864904207
62
2
0
LINE
8
Setbacks
10
12.5697963456
20
-11.2864904207
11
12.5695428756
21
-11.2860624813
62
2
0
LINE
8
Setbacks
10
12.5695428756
20
-11.2860624813
11
12.5547856241
21
-11.2561919642
62
2
0
LINE
8
Setbacks
10
12.5547856241
20
-11.2561919642
11
12.5334873680
21
-11.2317616307
62
2
0
LINE
8
Setbacks
10
12.5334873680
20
-11.2317616307
11
12.5331923350
21
-11.2313668859
62
2
0
LINE
8
Setbacks
10
12.5331923350
20
-11.2313668859
11
12.5329597577
21
-11.2309324025
62
2
0
LINE
8
Setbacks
10
12.5329597577
20
-11.2309324025
11
12.4533137797
21
-11.0507997374
62
2
0
LINE
8
Setbacks
10
12.4533137797
20
-11.0507997374
11
12.3664122910
21
-10.8749000651
62
2
0
LINE
8
Setbacks
10
12.3664122910
20
-10.8749000651
11
12.3661208923
21
-10.8740059696
62
2
0
LINE
8
Setbacks
10
12.3661208923
20
-10.8740059696
11
12.3603242585
21
-10.8404884053
62
2
0
LINE
8
Setbacks
10
12.3603242585
20
-10.8404884053
11
12.3467898087
21
-10.8098782652
62
2
0
LINE
8
Setbacks
10
12.3467898087
20
-10.8098782652
11
12.3465373713
21
-10.8089776442
62
2
0
LINE
8
Setbacks
10
12.3465373713
20
-10.8089776442
11
12.3205070659
21
-10.6102579232
62
2
0
LINE
8
Setbacks
10
12.3205070659
20
-10.6102579232
11
12.2864014031
21
-10.4130538641
62
2
0
LINE
8
Setbacks
10
12.2864014031
20
-10.4130538641
11
12.2863732926
21
-10.4121341203
62
2
0
LINE
8
Setbacks
10
12.2863732926
20
-10.4121341203
11
12.2901184500
21
-10.3782694393
62
2
0
LINE
8
Setbacks
10
12.2901184500
20
-10.3782694393
11
12.2856932083
21
-10.3444858242
62
2
0
LINE
8
Setbacks
10
12.2856932083
20
-10.3444858242
11
12.2857028255
21
-10.3435657026
62
2
0
LINE
8
Setbacks
10
12.2857028255
20
-10.3435657026
11
12.3158380383
21
-10.1457129094
62
2
0
LINE
8
Setbacks
10
12.3158380383
20
-10.1457129094
11
12.3378683739
21
-9.9465133626
62
2
0
LINE
8
Setbacks
10
12.3378683739
20
-9.9465133626
11
12.3381026517
21
-9.9456078631
62
2
0
LINE
8
Setbacks
10
12.3381026517
20
-9.9456078631
11
12.3510189129
21
-9.9147318913
62
2
0
LINE
8
Setbacks
10
12.3510189129
20
-9.9147318913
11
12.3561408207
21
-9.8811043960
62
2
0
LINE
8
Setbacks
10
12.3561408207
20
-9.8811043960
11
12.3564141867
21
-9.8802046370
62
2
0
LINE
8
Setbacks
10
12.3564141867
20
-9.8802046370
11
12.4397624782
21
-9.7025936308
62
2
0
LINE
8
Setbacks
10
12.4397624782
20
-9.7025936308
11
12.5157716224
21
-9.5208965591
62
2
0
LINE
8
Setbacks
10
12.5157716224
20
-9.5208965591
11
12.5159954171
21
-9.5204574925
62
2
0
LINE
8
Setbacks
10
12.5159954171
20
-9.5204574925
11
12.5162824526
21
-9.5200569003
62
2
0
LINE
8
Setbacks
10
12.5162824526
20
-9.5200569003
11
12.5370855814
21
-9.4952029887
62
2
0
LINE
8
Setbacks
10
12.5370855814
20
-9.4952029887
11
12.5512393267
21
-9.4650422166
62
2
0
LINE
8
Setbacks
10
12.5512393267
20
-9.4650422166
11
12.5514841423
21
-9.4646092721
62
2
0
LINE
8
Setbacks
10
12.5514841423
20
-9.4646092721
11
12.5517915894
21
-9.4642183093
62
2
0
LINE
8
Setbacks
10
12.5517915894
20
-9.4642183093
11
12.6801901228
21
-9.3242337622
62
2
0
LINE
8
Setbacks
10
12.6801901228
20
-9.3242337622
11
12.8027339096
21
-9.1778288659
62
2
0
LINE
8
Setbacks
10
12.8027339096
20
-9.1778288659
11
12.8031036141
21
-9.1774531459
62
2
0
LINE
8
Setbacks
10
12.8031036141
20
-9.1774531459
11
12.8035287165
21
-9.1771414812
62
2
0
LINE
8
Setbacks
10
12.8035287165
20
-9.1771414812
11
12.8301573909
21
-9.1607341330
62
2
0
LINE
8
Setbacks
10
12.8301573909
20
-9.1607341330
11
12.8519326870
21
-9.1369942044
62
2
0
LINE
8
Setbacks
10
12.8519326870
20
-9.1369942044
11
12.8523160642
21
-9.1366379844
62
2
0
LINE
8
Setbacks
10
12.8523160642
20
-9.1366379844
11
22.7908779979
21
-1.2812580645
62
2
0
LINE
8
Setbacks
10
22.7908779979
20
-1.2812580645
11
22.7566662112
21
-1.0560150142
62
2
0
LINE
8
Setbacks
10
22.7566662112
20
-1.0560150142
11
22.7566569633
21
-1.0550949734
62
2
0
LINE
8
Setbacks
10
22.7566569633
20
-1.0550949734
11
22.8786218622
21
-0.1267711248
62
2
0
LINE
8
Setbacks
10
22.8786218622
20
-0.1267711248
11
22.8788756416
21
-0.1258683550
62
2
0
LINE
8
Setbacks
10
22.8788756416
20
-0.1258683550
11
23.2514665328
21
0.7142235354
62
2
0
LINE
8
Setbacks
10
23.2514665328
20
0.7142235354
11
23.2517008178
21
0.7146596554
62
2
0
LINE
8
Setbacks
10
23.2517008178
20
0.7146596554
11
23.2519980567
21
0.7150555584
62
2
0
LINE
8
Setbacks
10
23.2519980567
20
0.7150555584
11
23.8387431543
21
1.3846822202
62
2
0
LINE
8
Setbacks
10
23.8387431543
20
1.3846822202
11
23.8391232826
21
1.3850511533
62
2
0
LINE
8
Setbacks
10
23.8391232826
20
1.3850511533
11
23.8395578298
21
1.3853541021
62
2
0
LINE
8
Setbacks
10
23.8395578298
20
1.3853541021
11
24.5830227486
21
1.8189669769
62
2
0
LINE
8
Setbacks
10
24.5830227486
20
1.8189669769
11
24.5835300929
21
1.8192072772
62
2
0
LINE
8
Setbacks
10
24.5835300929
20
1.8192072772
11
24.5840709766
21
1.8193575677
62
2
0
LINE
8
Setbacks
10
24.5840709766
20
1.8193575677
11
25.4114801238
21
1.9745121002
62
2
0
LINE
8
Setbacks
10
25.4114801238
20
1.9745121002
11
25.4120518277
21
1.9745681389
62
2
0
LINE
8
Setbacks
10
25.4120518277
20
1.9745681389
11
27.9555046650
21
2.0001331004
62
2
0
LINE
8
Setbacks
10
27.9555046650
20
2.0001331004
11
27.9560773787
21
2.0000885647
62
2
0
LINE
8
Setbacks
10
27.9560773787
20
2.0000885647
11
28.2908325760
21
1.9442564845
62
2
0
LINE
8
Setbacks
10
17.4918811333
20
-11.5888213966
11
25.1470019801
21
-17.3932423496
62
2
0
LINE
8
Setbacks
10
25.1470019801
20
-17.3932423496
11
25.0878922115
21
-11.5124708421
62
2
0
LINE
8
Setbacks
10
25.0878922115
20
-11.5124708421
11
17.4918811333
21
-11.5888213966
62
2
0
LINE
8
Setbacks
10
17.4664972692
20
-9.0634020278
11
25.0625080189
21
-8.9870514733
62
2
0
LINE
8
Setbacks
10
25.0625080189
20
-8.9870514733
11
25.0033985778
21
-3.1062802941
62
2
0
LINE
8
Setbacks
10
25.0033985778
20
-3.1062802941
11
17.4664972692
21
-9.0634020278
62
2
0
LINE
8
Inverters
10
32.2160199563
20
31.6144333860
11
32.1912884940
21
29.1539276754
0
LINE
8
Inverters
10
32.1912884940
20
29.1539276754
11
34.6517942045
21
29.1291962131
0
LINE
8
Inverters
10
34.6517942045
20
29.1291962131
11
34.6765256669
21
31.5897019236
0
LINE
8
Inverters
10
34.6765256669
20
31.5897019236
11
32.2160199563
21
31.6144333860
0
LINE
8
Inverters
10
32.2160199563
20
31.6144333860
11
34.6517942045
21
29.1291962131
0
TEXT
8
Inverters
100
AcDbText
10
33.7562881041
20
31.4349012889
1
DC
7
NewTextStyle_4
40
0.7545932000000003
50
-90.57588189733
0
TEXT
8
Inverters
100
AcDbText
10
32.3699962090
20
30.6121789662
1
AC
7
NewTextStyle_4
40
0.7545932000000003
50
-90.57588189733
0
LINE
8
Inverters
10
-20.0714626279
20
-27.3213500924
11
-20.0961940903
21
-29.7818558030
0
LINE
8
Inverters
10
-20.0961940903
20
-29.7818558030
11
-17.6356883797
21
-29.8065872654
0
LINE
8
Inverters
10
-17.6356883797
20
-29.8065872654
11
-17.6109569174
21
-27.3460815548
0
LINE
8
Inverters
10
-17.6109569174
20
-27.3460815548
11
-20.0714626279
21
-27.3213500924
0
LINE
8
Inverters
10
-20.0714626279
20
-27.3213500924
11
-17.6356883797
21
-29.8065872654
0
TEXT
8
Inverters
100
AcDbText
10
-18.5311944801
20
-27.5008821896
1
DC
7
NewTextStyle_4
40
0.7545932000000003
50
-90.57588189733
0
TEXT
8
Inverters
100
AcDbText
10
-19.9174863753
20
-28.3236045122
1
AC
7
NewTextStyle_4
40
0.7545932000000003
50
-90.57588189733
0
LINE
8
Strings
10
9.7620012895
20
30.1453775073
11
13.1228814024
21
30.1818996515
62
11
0
LINE
8
Strings
10
13.1228814024
20
30.1818996515
11
16.4837615111
21
30.2147695811
62
11
0
LINE
8
Strings
10
16.4837615111
20
30.2147695811
11
16.5537191213
21
23.2901711139
62
11
0
LINE
8
Strings
10
16.5537191213
20
23.2901711139
11
16.6236767273
21
16.3655726441
62
11
0
LINE
8
Strings
10
16.6236767273
20
16.3655726441
11
16.6907194348
21
9.4409741768
62
11
0
LINE
8
Strings
10
16.6907194348
20
9.4409741768
11
16.7606770450
21
2.5163757096
62
11
0
LINE
8
Strings
10
16.7606770450
20
2.5163757096
11
20.1215571538
21
2.5492456392
62
11
0
LINE
8
Strings
10
20.1215571538
20
2.5492456392
11
20.0515995477
21
9.4738441064
62
11
0
LINE
8
Strings
10
20.0515995477
20
9.4738441064
11
19.9845568402
21
16.3984425736
62
11
0
LINE
8
Strings
10
19.9845568402
20
16.3984425736
11
19.9145992300
21
23.3230410434
62
11
0
LINE
8
Strings
10
19.9145992300
20
23.3230410434
11
19.8446416198
21
30.2476395107
62
11
0
LINE
8
Strings
10
19.8446416198
20
30.2476395107
11
23.2055217327
21
30.2805094402
62
11
0
LINE
8
Strings
10
23.2754793387
20
23.3559109730
11
23.3454369489
21
16.4313125032
62
11
0
LINE
8
Strings
10
23.3454369489
20
16.4313125032
11
23.4124796564
21
9.5067140360
62
11
0
LINE
8
Strings
10
23.4124796564
20
9.5067140360
11
23.4824372666
21
2.5821155687
62
11
0
LINE
8
Strings
10
23.4824372666
20
2.5821155687
11
13.3298393261
21
9.4081042473
62
11
0
LINE
8
Strings
10
13.3298393261
20
9.4081042473
11
13.3997969363
21
2.4835057801
62
11
0
LINE
8
Strings
10
13.3997969363
20
2.4835057801
11
13.4697545423
21
-4.4410926872
62
11
0
LINE
8
Strings
10
13.4697545423
20
-4.4410926872
11
13.7379253766
21
-15.6570430551
62
11
0
LINE
8
Strings
10
13.7379253766
20
-15.6570430551
11
13.8078829826
21
-22.5816415223
62
11
0
LINE
8
Strings
10
13.8078829826
20
-22.5816415223
11
13.8778405928
21
-29.5062399895
62
11
0
LINE
8
Strings
10
13.8778405928
20
-29.5062399895
11
13.9448833003
21
-36.4308384567
62
11
0
LINE
8
Strings
10
13.9448833003
20
-36.4308384567
11
10.5840031916
21
-36.4637083863
62
11
0
LINE
8
Strings
10
10.5840031916
20
-36.4637083863
11
10.5169604841
21
-29.5391099191
62
11
0
LINE
8
Strings
10
10.4470028739
20
-22.6145114518
11
10.3770452637
21
-15.6899129846
62
11
0
LINE
8
Strings
10
10.3770452637
20
-15.6899129846
11
10.1088744336
21
-4.4776148314
62
11
0
LINE
8
Strings
10
10.1088744336
20
-4.4776148314
11
10.0389168234
21
2.4469836358
62
11
0
LINE
8
Strings
10
10.0389168234
20
2.4469836358
11
9.9689592174
21
9.3715821030
62
11
0
LINE
8
Strings
10
9.9689592174
20
9.3715821030
11
3.4046036156
21
9.2948856025
62
11
0
LINE
8
Strings
10
3.4046036156
20
9.2948856025
11
3.4745612217
21
2.3702871352
62
11
0
LINE
8
Strings
10
3.4745612217
20
2.3702871352
11
3.5445188318
21
-4.5543113346
62
11
0
LINE
8
Strings
10
3.5445188318
20
-4.5543113346
11
4.0050730889
21
-15.7666094852
62
11
0
LINE
8
Strings
10
4.0050730889
20
-15.7666094852
11
4.0750306949
21
-22.6912079524
62
11
0
LINE
8
Strings
10
4.0750306949
20
-22.6912079524
11
4.1449883051
21
-29.6158064222
62
11
0
LINE
8
Strings
10
4.1449883051
20
-29.6158064222
11
4.2149459153
21
-36.5404048895
62
11
0
LINE
8
Strings
10
4.2149459153
20
-36.5404048895
11
0.8540658024
21
-36.5732748190
62
11
0
LINE
8
Strings
10
0.8540658024
20
-36.5732748190
11
0.7841081964
21
-29.6486763492
62
11
0
LINE
8
Strings
10
0.7141505862
20
-22.7240778820
11
0.6441929760
21
-15.7994794148
62
11
0
LINE
8
Strings
10
0.6441929760
20
-15.7994794148
11
0.1836387231
21
-4.5871812641
62
11
0
LINE
8
Strings
10
0.1836387231
20
-4.5871812641
11
0.1136811129
21
2.3374172057
62
11
0
LINE
8
Strings
10
0.1136811129
20
2.3374172057
11
0.0437235027
21
9.2620156729
62
11
0
LINE
8
Strings
10
0.0437235027
20
9.2620156729
11
-0.0262341033
21
16.1866141401
62
11
0
LINE
8
Strings
10
-0.0262341033
20
16.1866141401
11
-0.0961917135
21
23.1112126073
62
11
0
LINE
8
Strings
10
-0.0961917135
20
23.1112126073
11
-0.1661493195
21
30.0358110772
62
11
0
LINE
8
Strings
10
-0.1661493195
20
30.0358110772
11
3.1947307892
21
30.0686810067
62
11
0
LINE
8
Strings
10
3.1947307892
20
30.0686810067
11
-3.5270294324
21
29.9992889329
62
11
0
LINE
8
Strings
10
-3.5270294324
20
29.9992889329
11
-3.4570718222
21
23.0746904657
62
11
0
LINE
8
Strings
10
-3.4570718222
20
23.0746904657
11
-3.3871142162
21
16.1500919959
62
11
0
LINE
8
Strings
10
-3.3871142162
20
16.1500919959
11
-3.3171566060
21
9.2254935287
62
11
0
LINE
8
Strings
10
-3.3171566060
20
9.2254935287
11
-3.2471989958
21
2.3008950614
62
11
0
LINE
8
Strings
10
-6.6080791087
20
2.2680251319
11
-6.6780367147
21
9.1926235991
62
11
0
LINE
8
Strings
10
-6.6780367147
20
9.1926235991
11
-6.7479943249
21
16.1172220663
62
11
0
LINE
8
Strings
10
-6.7479943249
20
16.1172220663
11
-6.8179519351
21
23.0418205361
62
11
0
LINE
8
Strings
10
-6.8179519351
20
23.0418205361
11
-6.8879095411
21
29.9664190033
62
11
0
LINE
8
Strings
10
-6.8879095411
20
29.9664190033
11
-10.2487896540
21
29.9335490738
62
11
0
LINE
8
Strings
10
-10.2487896540
20
29.9335490738
11
-10.1788320438
21
23.0089506066
62
11
0
LINE
8
Strings
10
-10.1788320438
20
23.0089506066
11
-10.1088744336
21
16.0843521368
62
11
0
LINE
8
Strings
10
-10.1088744336
20
16.0843521368
11
-10.0389168276
21
9.1597536695
62
11
0
LINE
8
Strings
10
-10.0389168276
20
9.1597536695
11
-9.9689592174
21
2.2351552023
62
11
0
LINE
8
Strings
10
-9.9689592174
20
2.2351552023
11
-9.3684897441
21
-22.8263398853
62
11
0
LINE
8
Strings
10
-9.3684897441
20
-22.8263398853
11
-9.2985321381
21
-29.7509383526
62
11
0
LINE
8
Strings
10
-9.2985321381
20
-29.7509383526
11
-9.2285745279
21
-36.6755368198
62
11
0
LINE
8
Strings
10
-9.2285745279
20
-36.6755368198
11
-5.8676944192
21
-36.6426668902
62
11
0
LINE
8
Strings
10
-5.9376520252
20
-29.7180684230
11
-6.0076096354
21
-22.7934699558
62
11
0
LINE
8
Strings
10
-6.0076096354
20
-22.7934699558
11
-2.6467295225
21
-22.7569478115
62
11
0
LINE
8
Strings
10
-2.6467295225
20
-22.7569478115
11
-2.5767719165
21
-29.6815462788
62
11
0
LINE
8
Strings
10
-2.5767719165
20
-29.6815462788
11
-2.5068143063
21
-36.6061447486
62
11
0
LINE
8
Strings
10
-2.5068143063
20
-36.6061447486
11
17.3057634132
21
-36.3979685272
62
11
0
LINE
8
Strings
10
17.3057634132
20
-36.3979685272
11
17.2387207015
21
-29.4733700599
62
11
0
LINE
8
Strings
10
17.2387207015
20
-29.4733700599
11
17.1687630955
21
-22.5487715927
62
11
0
LINE
8
Strings
10
17.1687630955
20
-22.5487715927
11
20.5296432042
21
-22.5122494485
62
11
0
LINE
8
Strings
10
20.5296432042
20
-22.5122494485
11
20.5996008144
21
-29.4368479157
62
11
0
LINE
8
Strings
10
20.5996008144
20
-29.4368479157
11
20.6666435219
21
-36.3614463829
62
11
0
LINE
8
Strings
10
20.6666435219
20
-36.3614463829
11
24.0275236306
21
-36.3285764534
62
11
0
LINE
8
Strings
10
24.0275236306
20
-36.3285764534
11
23.9604809231
21
-29.4039779861
62
11
0
LINE
8
Strings
10
23.9604809231
20
-29.4039779861
11
23.8905233171
21
-22.4793795189
62
11
0
LINE
8
Connections
10
11.4424413459
20
30.1636385794
11
11.9345424881
21
30.1685848719
62
91
0
LINE
8
Connections
10
11.9345424881
20
30.1685848719
11
11.9346071532
21
30.1621514119
62
91
0
LINE
8
Connections
10
11.9346071532
20
30.1621514119
11
32.9417412732
21
30.3733019670
62
91
0
LINE
8
Connections
10
32.9417412732
20
30.3733019670
11
33.4338424153
21
30.3782482595
62
91
0
LINE
8
Connections
10
33.4338424153
20
30.3782482595
11
33.4339070804
21
30.3718147995
62
91
0
LINE
8
Connections
10
23.3104581438
20
19.8936117381
11
23.8025592859
21
19.8985580306
62
91
0
LINE
8
Connections
10
23.8025592859
20
19.8985580306
11
23.7976129935
21
20.3906591727
62
91
0
LINE
8
Connections
10
23.7976129935
20
20.3906591727
11
23.7032185532
21
29.7818571538
62
91
0
LINE
8
Connections
10
23.7032185532
20
29.7818571538
11
32.9467522308
21
29.8747673649
62
91
0
LINE
8
Connections
10
32.9467522308
20
29.8747673649
11
33.4388533729
21
29.8797136574
62
91
0
LINE
8
Connections
10
33.4388533729
20
29.8797136574
11
33.4339070804
21
30.3718147995
62
91
0
LINE
8
Connections
10
10.4120240688
20
-19.1522122182
11
10.9041252109
21
-19.1472659258
62
91
0
LINE
8
Connections
10
10.9041252109
20
-19.1472659258
11
10.8991789184
21
-18.6551647837
62
91
0
LINE
8
Connections
10
10.8991789184
20
-18.6551647837
11
10.4136629559
21
29.6482788643
62
91
0
LINE
8
Connections
10
10.4136629559
20
29.6482788643
11
32.9467522308
21
29.8747673649
62
91
0
LINE
8
Connections
10
32.9467522308
20
29.8747673649
11
33.4388533729
21
29.8797136574
62
91
0
LINE
8
Connections
10
33.4388533729
20
29.8797136574
11
33.4339070804
21
30.3718147995
62
91
0
LINE
8
Connections
10
0.6791717811
20
-19.2617786484
11
0.1870706390
21
-19.2667249408
62
91
0
LINE
8
Connections
10
0.1870706390
20
-19.2667249408
11
0.1920169315
21
-19.7588260830
62
91
0
LINE
8
Connections
10
0.1920169315
20
-19.7588260830
11
0.2736414930
21
-27.8795630141
62
91
0
LINE
8
Connections
10
0.2736414930
20
-27.8795630141
11
-18.3664206542
21
-28.0669212443
62
91
0
LINE
8
Connections
10
-18.3664206542
20
-28.0669212443
11
-18.8585217963
21
-28.0718675368
62
91
0
LINE
8
Connections
10
-18.8585217963
20
-28.0718675368
11
-18.8535755038
21
-28.5639686789
62
91
0
LINE
8
Connections
10
-6.6430579117
20
5.7303243655
11
-7.1351590538
21
5.7253780730
62
91
0
LINE
8
Connections
10
-7.1351590538
20
5.7253780730
11
-7.1302127613
21
5.2332769309
62
91
0
LINE
8
Connections
10
-7.1302127613
20
5.2332769309
11
-6.7966689189
21
-27.9506293462
62
91
0
LINE
8
Connections
10
-6.7966689189
20
-27.9506293462
11
-18.3664206542
21
-28.0669212443
62
91
0
LINE
8
Connections
10
-18.3664206542
20
-28.0669212443
11
-18.8585217963
21
-28.0718675368
62
91
0
LINE
8
Connections
10
-18.8585217963
20
-28.0718675368
11
-18.8535755038
21
-28.5639686789
62
91
0
LINE
8
Connections
10
-5.9726308303
20
-26.2557691894
11
-6.4647319724
21
-26.2607154819
62
91
0
LINE
8
Connections
10
-6.4647319724
20
-26.2607154819
11
-6.4597856799
21
-26.7528166240
62
91
0
LINE
8
Connections
10
-6.4597856799
20
-26.7528166240
11
-6.4477812648
21
-27.9471225460
62
91
0
LINE
8
Connections
10
-6.4477812648
20
-27.9471225460
11
-18.3664206542
21
-28.0669212443
62
91
0
LINE
8
Connections
10
-18.3664206542
20
-28.0669212443
11
-18.8585217963
21
-28.0718675368
62
91
0
LINE
8
Connections
10
-18.8585217963
20
-28.0718675368
11
-18.8535755038
21
-28.5639686789
62
91
0
ENDSEC
0
EOF