999
Design created by Aurora
0
SECTION
2
HEADER
9
$ACADVER
1
AC1009
9
$INSUNITS
70
2
0
ENDSEC
0
SECTION
2
TABLES
0
TABLE
2
LTYPE
100
AcDbLinetypeTableRecord
2
LTYPE
0
LTYPE
2
DASHED
70
0
3
dashed line
72
65
73
2
40
4.0
49
2.0
49
-2.0
0
ENDTAB
0
TABLE
2
LAYER
70
7
0
LAYER
100
AcDbSymbolTable
100
AcDbLayerTable
2
Obstructions
70
0
62
7
6
CONTINUOUS
0
LAYER
100
AcDbSymbolTable
100
AcDbLayerTable
2
Inverters
70
0
62
7
6
CONTINUOUS
0
LAYER
100
AcDbSymbolTable
100
AcDbLayerTable
2
Setbacks
70
0
62
7
6
CONTINUOUS
0
LAYER
100
AcDbSymbolTable
100
AcDbLayerTable
2
Connections
70
0
62
7
6
CONTINUOUS
0
LAYER
100
AcDbSymbolTable
100
AcDbLayerTable
2
Strings
70
0
62
7
6
CONTINUOUS
0
LAYER
100
AcDbSymbolTable
100
AcDbLayerTable
2
Modules
70
0
62
7
6
CONTINUOUS
0
LAYER
100
AcDbSymbolTable
100
AcDbLayerTable
2
Buildings
70
0
62
7
6
CONTINUOUS
0
ENDTAB
0
ENDSEC
0
SECTION
2
ENTITIES
0
LINE
8
Modules
10
34.5844262965
20
12.7970250150
11
30.4746575610
21
6.8580984280
62
254
0
LINE
8
Modules
10
30.4746575610
20
6.8580984280
11
33.5340339322
21
4.7409937331
62
254
0
LINE
8
Modules
10
33.5340339322
20
4.7409937331
11
37.6438026677
21
10.6799203200
62
254
0
LINE
8
Modules
10
37.6438026677
20
10.6799203200
11
34.5844262965
21
12.7970250150
62
254
0
LINE
8
Modules
10
31.5265248828
20
14.9135240797
11
27.4167561473
21
8.9745974928
62
254
0
LINE
8
Modules
10
27.4167561473
20
8.9745974928
11
30.4761325185
21
6.8574927978
62
254
0
LINE
8
Modules
10
30.4761325185
20
6.8574927978
11
34.5859012540
21
12.7964193848
62
254
0
LINE
8
Modules
10
34.5859012540
20
12.7964193848
11
31.5265248828
21
14.9135240797
62
254
0
LINE
8
Modules
10
28.4657054160
20
17.0300231393
11
24.3559366805
21
11.0910965524
62
254
0
LINE
8
Modules
10
24.3559366805
20
11.0910965524
11
27.4153130517
21
8.9739918574
62
254
0
LINE
8
Modules
10
27.4153130517
20
8.9739918574
11
31.5250817871
21
14.9129184443
62
254
0
LINE
8
Modules
10
31.5250817871
20
14.9129184443
11
28.4657054160
21
17.0300231393
62
254
0
LINE
8
Modules
10
25.4048859492
20
19.1501744187
11
21.2951172137
21
13.2112478318
62
254
0
LINE
8
Modules
10
21.2951172137
20
13.2112478318
11
24.3544935848
21
11.0941431368
62
254
0
LINE
8
Modules
10
24.3544935848
20
11.0941431368
11
28.4642623203
21
17.0330697238
62
254
0
LINE
8
Modules
10
28.4642623203
20
17.0330697238
11
25.4048859492
21
19.1501744187
62
254
0
LINE
8
Modules
10
28.8481714635
20
4.7963516036
11
24.7384027280
21
-1.1425749834
62
254
0
LINE
8
Modules
10
24.7384027280
20
-1.1425749834
11
27.7977790992
21
-3.2596796783
62
254
0
LINE
8
Modules
10
27.7977790992
20
-3.2596796783
11
31.9075478346
21
2.6792469086
62
254
0
LINE
8
Modules
10
31.9075478346
20
2.6792469086
11
28.8481714635
21
4.7963516036
62
254
0
LINE
8
Modules
10
25.7873519967
20
6.9165028804
11
21.6775832612
21
0.9775762935
62
254
0
LINE
8
Modules
10
21.6775832612
20
0.9775762935
11
24.7369596323
21
-1.1395284015
62
254
0
LINE
8
Modules
10
24.7369596323
20
-1.1395284015
11
28.8467283678
21
4.7993981855
62
254
0
LINE
8
Modules
10
28.8467283678
20
4.7993981855
11
25.7873519967
21
6.9165028804
62
254
0
LINE
8
Modules
10
22.7294505871
20
9.0293497305
11
18.6196818516
21
3.0904231436
62
254
0
LINE
8
Modules
10
18.6196818516
20
3.0904231436
11
21.6790582228
21
0.9733184486
62
254
0
LINE
8
Modules
10
21.6790582228
20
0.9733184486
11
25.7888269583
21
6.9122450355
62
254
0
LINE
8
Modules
10
25.7888269583
20
6.9122450355
11
22.7294505871
21
9.0293497305
62
254
0
LINE
8
Modules
10
19.6686311161
20
11.1495010047
11
15.5588623807
21
5.2105744178
62
254
0
LINE
8
Modules
10
15.5588623807
20
5.2105744178
11
18.6182387518
21
3.0934697229
62
254
0
LINE
8
Modules
10
18.6182387518
20
3.0934697229
11
22.7280074873
21
9.0323963098
62
254
0
LINE
8
Modules
10
22.7280074873
20
9.0323963098
11
19.6686311161
21
11.1495010047
62
254
0
LINE
8
Modules
10
16.6107297024
20
13.2660000695
11
12.5009609670
21
7.3270734826
62
254
0
LINE
8
Modules
10
12.5009609670
20
7.3270734826
11
15.5603373381
21
5.2099687876
62
254
0
LINE
8
Modules
10
15.5603373381
20
5.2099687876
11
19.6701060736
21
11.1488953745
62
254
0
LINE
8
Modules
10
19.6701060736
20
11.1488953745
11
16.6107297024
21
13.2660000695
62
254
0
LINE
8
Modules
10
23.0010305450
20
-3.4161502439
11
18.8912618095
21
-9.3550768309
62
254
0
LINE
8
Modules
10
18.8912618095
20
-9.3550768309
11
21.9506381807
21
-11.4721815258
62
254
0
LINE
8
Modules
10
21.9506381807
20
-11.4721815258
11
26.0604069162
21
-5.5332549389
62
254
0
LINE
8
Modules
10
26.0604069162
20
-5.5332549389
11
23.0010305450
21
-3.4161502439
62
254
0
LINE
8
Modules
10
19.9431291313
20
-1.2959989645
11
15.8333603958
21
-7.2349255514
62
254
0
LINE
8
Modules
10
15.8333603958
20
-7.2349255514
11
18.8927367670
21
-9.3520302464
62
254
0
LINE
8
Modules
10
18.8927367670
20
-9.3520302464
11
23.0025055025
21
-3.4131036594
62
254
0
LINE
8
Modules
10
23.0025055025
20
-3.4131036594
11
19.9431291313
21
-1.2959989645
62
254
0
LINE
8
Modules
10
16.8823096645
20
0.8168478804
11
12.7725409290
21
-5.1220787065
62
254
0
LINE
8
Modules
10
12.7725409290
20
-5.1220787065
11
15.8319173001
21
-7.2391834015
62
254
0
LINE
8
Modules
10
15.8319173001
20
-7.2391834015
11
19.9416860356
21
-1.3002568145
62
254
0
LINE
8
Modules
10
19.9416860356
20
-1.3002568145
11
16.8823096645
21
0.8168478804
62
254
0
LINE
8
Modules
10
13.8244082549
20
2.9369991598
11
9.7146395195
21
-3.0019274271
62
254
0
LINE
8
Modules
10
9.7146395195
20
-3.0019274271
11
12.7740158906
21
-5.1190321220
62
254
0
LINE
8
Modules
10
12.7740158906
20
-5.1190321220
11
16.8837846261
21
0.8198944649
62
254
0
LINE
8
Modules
10
16.8837846261
20
0.8198944649
11
13.8244082549
21
2.9369991598
62
254
0
LINE
8
Modules
10
17.2912584022
20
-11.5391320101
11
13.1814896667
21
-17.4780585971
62
254
0
LINE
8
Modules
10
13.1814896667
20
-17.4780585971
11
16.2408660378
21
-19.5951632920
62
254
0
LINE
8
Modules
10
16.2408660378
20
-19.5951632920
11
20.3506347733
21
-13.6562367051
62
254
0
LINE
8
Modules
10
20.3506347733
20
-13.6562367051
11
17.2912584022
21
-11.5391320101
62
254
0
LINE
8
Modules
10
14.2275208781
20
-9.4262851601
11
10.1177521426
21
-15.3652117470
62
254
0
LINE
8
Modules
10
10.1177521426
20
-15.3652117470
11
13.1771285137
21
-17.4823164420
62
254
0
LINE
8
Modules
10
13.1771285137
20
-17.4823164420
11
17.2868972492
21
-11.5433898550
62
254
0
LINE
8
Modules
10
17.2868972492
20
-11.5433898550
11
14.2275208781
21
-9.4262851601
62
254
0
LINE
8
Modules
10
11.1696194685
20
-7.3061338832
11
7.0598507330
21
-13.2450604702
62
254
0
LINE
8
Modules
10
7.0598507330
20
-13.2450604702
11
10.1192271042
21
-15.3621651651
62
254
0
LINE
8
Modules
10
10.1192271042
20
-15.3621651651
11
14.2289958396
21
-9.4232385782
62
254
0
LINE
8
Modules
10
14.2289958396
20
-9.4232385782
11
11.1696194685
21
-7.3061338832
62
254
0
LINE
8
Modules
10
8.1088000017
20
-5.1896348211
11
3.9990312662
21
-11.1285614080
62
254
0
LINE
8
Modules
10
3.9990312662
20
-11.1285614080
11
7.0584076373
21
-13.2456661030
62
254
0
LINE
8
Modules
10
7.0584076373
20
-13.2456661030
11
11.1681763728
21
-7.3067395160
62
254
0
LINE
8
Modules
10
11.1681763728
20
-7.3067395160
11
8.1088000017
21
-5.1896348211
62
254
0
LINE
8
Modules
10
-6.4743403989
20
-27.8148655416
11
-10.5524867292
21
-33.7755509529
62
254
0
LINE
8
Modules
10
-10.5524867292
20
-33.7755509529
11
-7.4819015256
21
-35.8763656942
62
254
0
LINE
8
Modules
10
-7.4819015256
20
-35.8763656942
11
-3.4037551953
21
-29.9156802828
62
254
0
LINE
8
Modules
10
-3.4037551953
20
-29.9156802828
11
-6.4743403989
21
-27.8148655416
62
254
0
LINE
8
Modules
10
-9.5439239195
20
-25.7129897018
11
-13.6220702497
21
-31.6736751131
62
254
0
LINE
8
Modules
10
-13.6220702497
20
-31.6736751131
11
-10.5514850461
21
-33.7744898544
62
254
0
LINE
8
Modules
10
-10.5514850461
20
-33.7744898544
11
-6.4733387158
21
-27.8138044430
62
254
0
LINE
8
Modules
10
-6.4733387158
20
-27.8138044430
11
-9.5439239195
21
-25.7129897018
62
254
0
LINE
8
Modules
10
-12.6164254890
20
-23.6147660767
11
-16.6945718192
21
-29.5754514880
62
254
0
LINE
8
Modules
10
-16.6945718192
20
-29.5754514880
11
-13.6239866156
21
-31.6762662292
62
254
0
LINE
8
Modules
10
-13.6239866156
20
-31.6762662292
11
-9.5458402853
21
-25.7155808179
62
254
0
LINE
8
Modules
10
-9.5458402853
20
-25.7155808179
11
-12.6164254890
21
-23.6147660767
62
254
0
LINE
8
Modules
10
22.3440664823
20
21.2630212662
11
18.2342977468
21
15.3240946793
62
254
0
LINE
8
Modules
10
18.2342977468
20
15.3240946793
11
21.2936741180
21
13.2069899843
62
254
0
LINE
8
Modules
10
21.2936741180
20
13.2069899843
11
25.4034428535
21
19.1459165713
62
254
0
LINE
8
Modules
10
25.4034428535
20
19.1459165713
11
22.3440664823
21
21.2630212662
62
254
0
LINE
8
Modules
10
19.2861650686
20
23.3831725431
11
15.1763963331
21
17.4442459561
62
254
0
LINE
8
Modules
10
15.1763963331
20
17.4442459561
11
18.2357727043
21
15.3271412612
62
254
0
LINE
8
Modules
10
18.2357727043
20
15.3271412612
11
22.3455414398
21
21.2660678481
62
254
0
LINE
8
Modules
10
22.3455414398
20
21.2660678481
11
19.2861650686
21
23.3831725431
62
254
0
LINE
8
Modules
10
13.5528282929
20
15.3824991291
11
9.4430595574
21
9.4435725421
62
254
0
LINE
8
Modules
10
9.4430595574
20
9.4435725421
11
12.5024359285
21
7.3264678472
62
254
0
LINE
8
Modules
10
12.5024359285
20
7.3264678472
11
16.6122046640
21
13.2653944341
62
254
0
LINE
8
Modules
10
16.6122046640
20
13.2653944341
11
13.5528282929
21
15.3824991291
62
254
0
LINE
8
Modules
10
16.2282636549
20
25.4996716052
11
12.1184949194
21
19.5607450183
62
254
0
LINE
8
Modules
10
12.1184949194
20
19.5607450183
11
15.1778712906
21
17.4436403233
62
254
0
LINE
8
Modules
10
15.1778712906
20
17.4436403233
11
19.2876400261
21
23.3825669103
62
254
0
LINE
8
Modules
10
19.2876400261
20
23.3825669103
11
16.2282636549
21
25.4996716052
62
254
0
LINE
8
Modules
10
13.1674441839
20
27.6161706674
11
9.0576754485
21
21.6772440804
62
254
0
LINE
8
Modules
10
9.0576754485
20
21.6772440804
11
12.1170518196
21
19.5601393855
62
254
0
LINE
8
Modules
10
12.1170518196
20
19.5601393855
11
16.2268205551
21
25.4990659724
62
254
0
LINE
8
Modules
10
16.2268205551
20
25.4990659724
11
13.1674441839
21
27.6161706674
62
254
0
LINE
8
Modules
10
10.4920088260
20
17.4989981938
11
6.3822400906
21
11.5600716069
62
254
0
LINE
8
Modules
10
6.3822400906
20
11.5600716069
11
9.4416164617
21
9.4429669119
62
254
0
LINE
8
Modules
10
9.4416164617
20
9.4429669119
11
13.5513851972
21
15.3818934989
62
254
0
LINE
8
Modules
10
13.5513851972
20
15.3818934989
11
10.4920088260
21
17.4989981938
62
254
0
LINE
8
Modules
10
3.4745076713
20
10.3656848679
11
-0.6352610642
21
4.4267582810
62
254
0
LINE
8
Modules
10
-0.6352610642
20
4.4267582810
11
2.4241153069
21
2.3096535860
62
254
0
LINE
8
Modules
10
2.4241153069
20
2.3096535860
11
6.5338840424
21
8.2485801730
62
254
0
LINE
8
Modules
10
6.5338840424
20
8.2485801730
11
3.4745076713
21
10.3656848679
62
254
0
LINE
8
Modules
10
6.5324090808
20
8.2455335911
11
2.4226403453
21
2.3066070041
62
254
0
LINE
8
Modules
10
2.4226403453
20
2.3066070041
11
5.4820167165
21
0.1895023092
62
254
0
LINE
8
Modules
10
5.4820167165
20
0.1895023092
11
9.5917854520
21
6.1284288961
62
254
0
LINE
8
Modules
10
9.5917854520
20
6.1284288961
11
6.5324090808
21
8.2455335911
62
254
0
LINE
8
Modules
10
1.7945500919
20
-12.9766945209
11
-2.3152186436
21
-18.9156211078
62
254
0
LINE
8
Modules
10
-2.3152186436
20
-18.9156211078
11
0.7441577275
21
-21.0327258028
62
254
0
LINE
8
Modules
10
0.7441577275
20
-21.0327258028
11
4.8539264630
21
-15.0937992159
62
254
0
LINE
8
Modules
10
4.8539264630
20
-15.0937992159
11
1.7945500919
21
-12.9766945209
62
254
0
LINE
8
Modules
10
4.8524515056
20
-15.0968457977
11
0.7426827701
21
-21.0357723847
62
254
0
LINE
8
Modules
10
0.7426827701
20
-21.0357723847
11
3.8020591412
21
-23.1528770796
62
254
0
LINE
8
Modules
10
3.8020591412
20
-23.1528770796
11
7.9118278767
21
-17.2139504927
62
254
0
LINE
8
Modules
10
7.9118278767
20
-17.2139504927
11
4.8524515056
21
-15.0968457977
62
254
0
LINE
8
Modules
10
-27.5187218927
20
-12.4152242118
11
-31.5968682229
21
-18.3759096231
62
254
0
LINE
8
Modules
10
-31.5968682229
20
-18.3759096231
11
-28.5262830193
21
-20.4767243643
62
254
0
LINE
8
Modules
10
-28.5262830193
20
-20.4767243643
11
-24.4481366890
21
-14.5160389530
62
254
0
LINE
8
Modules
10
-24.4481366890
20
-14.5160389530
11
-27.5187218927
21
-12.4152242118
62
254
0
LINE
8
Modules
10
-30.5883054090
20
-10.3170005841
11
-34.6664517393
21
-16.2776859954
62
254
0
LINE
8
Modules
10
-34.6664517393
20
-16.2776859954
11
-31.5958665357
21
-18.3785007366
62
254
0
LINE
8
Modules
10
-31.5958665357
20
-18.3785007366
11
-27.5177202054
21
-12.4178153253
62
254
0
LINE
8
Modules
10
-27.5177202054
20
-12.4178153253
11
-30.5883054090
21
-10.3170005841
62
254
0
LINE
8
Modules
10
-33.6608069827
20
-8.2114725296
11
-37.7389533130
21
-14.1721579409
62
254
0
LINE
8
Modules
10
-37.7389533130
20
-14.1721579409
11
-34.6683681093
21
-16.2729726821
62
254
0
LINE
8
Modules
10
-34.6683681093
20
-16.2729726821
11
-30.5902217791
21
-10.3122872708
62
254
0
LINE
8
Modules
10
-30.5902217791
20
-10.3122872708
11
-33.6608069827
21
-8.2114725296
62
254
0
LINE
8
Buildings
10
6.8186671430
20
32.9836892485
11
1.9954038585
21
26.0137090866
62
252
0
LINE
8
Buildings
10
1.9954038585
20
26.0137090866
11
7.0734135171
21
22.4996994372
62
252
0
LINE
8
Buildings
10
7.0734135171
20
22.4996994372
11
-8.8418712340
21
-0.4990904779
62
252
0
LINE
8
Buildings
10
-8.8418712340
20
-0.4990904779
11
-6.9858265453
21
-1.7834832587
62
252
0
LINE
8
Buildings
10
-6.9858265453
20
-1.7834832587
11
-9.4350903799
21
-5.3228547032
62
252
0
LINE
8
Buildings
10
-9.4350903799
20
-5.3228547032
11
-26.7781419694
21
6.6786290931
62
252
0
LINE
8
Buildings
10
-26.7781419694
20
6.6786290931
11
-33.4969164219
21
-3.0305080375
62
252
0
LINE
8
Buildings
10
-33.4969164219
20
-3.0305080375
11
6.9805803702
21
-31.0411507643
62
252
0
LINE
8
Buildings
10
6.9805803702
20
-31.0411507643
11
11.7330891710
21
-24.1734161816
62
252
0
LINE
8
Buildings
10
11.7330891710
20
-24.1734161816
11
8.5019388370
21
-21.9374429921
62
252
0
LINE
8
Buildings
10
8.5019388370
20
-21.9374429921
11
10.4682044888
21
-19.0960404442
62
252
0
LINE
8
Buildings
10
10.4682044888
20
-19.0960404442
11
18.2880116740
21
-24.5073885416
62
252
0
LINE
8
Buildings
10
18.2880116740
20
-24.5073885416
11
41.4758235443
21
9.0007529799
62
252
0
LINE
8
Buildings
10
41.4758235443
20
9.0007529799
11
6.8186671430
21
32.9836892485
62
252
0
LINE
8
Buildings
10
6.4556055454
20
33.1087961941
11
6.7592238019
21
32.8977891256
62
252
0
LINE
8
Buildings
10
6.7592238019
20
32.8977891256
11
6.8186671430
21
32.9836892485
62
252
0
LINE
8
Buildings
10
6.8186671430
20
32.9836892485
11
41.4758235443
21
9.0007529799
62
252
0
LINE
8
Buildings
10
41.4758235443
20
9.0007529799
11
41.3682889779
21
8.8453574002
62
252
0
LINE
8
Buildings
10
41.3682889779
20
8.8453574002
11
52.0154499814
21
1.4458477110
62
252
0
LINE
8
Buildings
10
52.0154499814
20
1.4458477110
11
59.8866936995
21
12.7717872237
62
252
0
LINE
8
Buildings
10
59.8866936995
20
12.7717872237
11
14.3268492635
21
44.4347357068
62
252
0
LINE
8
Buildings
10
14.3268492635
20
44.4347357068
11
6.4556055454
21
33.1087961941
62
252
0
LINE
8
Buildings
10
-42.1767433082
20
-16.2769961761
11
-5.9850285101
21
-41.0384285794
62
252
0
LINE
8
Buildings
10
-5.9850285101
20
-41.0384285794
11
0.6146569376
21
-31.3922203314
62
252
0
LINE
8
Buildings
10
0.6146569376
20
-31.3922203314
11
-2.2112513348
21
-29.4588071993
62
252
0
LINE
8
Buildings
10
-2.2112513348
20
-29.4588071993
11
-0.0247724005
21
-26.2630138093
62
252
0
LINE
8
Buildings
10
-0.0247724005
20
-26.2630138093
11
-29.9565706612
21
-5.7844539103
62
252
0
LINE
8
Buildings
10
-29.9565706612
20
-5.7844539103
11
-32.1430495955
21
-8.9802473003
62
252
0
LINE
8
Buildings
10
-32.1430495955
20
-8.9802473003
11
-35.5770578605
21
-6.6307879281
62
252
0
LINE
8
Buildings
10
-35.5770578605
20
-6.6307879281
11
-42.1767433082
21
-16.2769961761
62
252
0
LINE
8
Setbacks
10
-8.3794271984
20
-19.6709097063
11
-8.4309489840
21
-19.6790698185
62
2
0
LINE
8
Setbacks
10
-8.4309489840
20
-19.6790698185
11
-8.4314622121
21
-19.6791102098
62
2
0
LINE
8
Setbacks
10
-8.4314622121
20
-19.6791102098
11
-8.5679294080
21
-19.6791102098
62
2
0
LINE
8
Setbacks
10
-8.5679294080
20
-19.6791102098
11
-8.5684426530
21
-19.6790698159
62
2
0
LINE
8
Setbacks
10
-8.5684426530
20
-19.6790698159
11
-8.6199647492
21
-19.6709093792
62
2
0
LINE
8
Setbacks
10
-8.6199647492
20
-19.6709093792
11
-8.6720568144
21
-19.6681795327
62
2
0
LINE
8
Setbacks
10
-8.6720568144
20
-19.6681795327
11
-8.6725672495
21
-19.6681123331
62
2
0
LINE
8
Setbacks
10
-8.6725672495
20
-19.6681123331
11
-8.8060524900
21
-19.6397389727
62
2
0
LINE
8
Setbacks
10
-8.8060524900
20
-19.6397389727
11
-8.8065461010
21
-19.6395927587
62
2
0
LINE
8
Setbacks
10
-8.8065461010
20
-19.6395927587
11
-8.8552441829
21
-19.6208994525
62
2
0
LINE
8
Setbacks
10
-8.8552441829
20
-19.6208994525
11
-8.9056319138
21
-19.6073980206
62
2
0
LINE
8
Setbacks
10
-8.9056319138
20
-19.6073980206
11
-8.9061172009
21
-19.6072261713
62
2
0
LINE
8
Setbacks
10
-8.9061172009
20
-19.6072261713
11
-9.0307864962
21
-19.5517199359
62
2
0
LINE
8
Setbacks
10
-9.0307864962
20
-19.5517199359
11
-9.0312389393
21
-19.5514742790
62
2
0
LINE
8
Setbacks
10
-9.0312389393
20
-19.5514742790
11
-9.0749877816
21
-19.5230633323
62
2
0
LINE
8
Setbacks
10
-9.0749877816
20
-19.5230633323
11
-9.1214658140
21
-19.4993815498
62
2
0
LINE
8
Setbacks
10
-9.1214658140
20
-19.4993815498
11
-9.1219047659
21
-19.4991125601
62
2
0
LINE
8
Setbacks
10
-9.1219047659
20
-19.4991125601
11
-9.2323092970
21
-19.4188993030
62
2
0
LINE
8
Setbacks
10
-9.2323092970
20
-19.4188993030
11
-9.2327007873
21
-19.4185649378
62
2
0
LINE
8
Setbacks
10
-9.2327007873
20
-19.4185649378
11
-9.2695864154
21
-19.3816789827
62
2
0
LINE
8
Setbacks
10
-9.2695864154
20
-19.3816789827
11
-9.3101253533
21
-19.3488515011
62
2
0
LINE
8
Setbacks
10
-9.3101253533
20
-19.3488515011
11
-9.3104988069
21
-19.3484971080
62
2
0
LINE
8
Setbacks
10
-9.3104988069
20
-19.3484971080
11
-9.4018131143
21
-19.2470820786
62
2
0
LINE
8
Setbacks
10
-9.4018131143
20
-19.2470820786
11
-9.4021265166
21
-19.2466736443
62
2
0
LINE
8
Setbacks
10
-9.4021265166
20
-19.2466736443
11
-9.4305371362
21
-19.2029251291
62
2
0
LINE
8
Setbacks
10
-9.4305371362
20
-19.2029251291
11
-9.4633649542
21
-19.1623861797
62
2
0
LINE
8
Setbacks
10
-9.4633649542
20
-19.1623861797
11
-9.4636565561
21
-19.1619618959
62
2
0
LINE
8
Setbacks
10
-9.4636565561
20
-19.1619618959
11
-9.5318901541
21
-19.0437775089
62
2
0
LINE
8
Setbacks
10
-9.5318901541
20
-19.0437775089
11
-9.5321117853
21
-19.0433128507
62
2
0
LINE
8
Setbacks
10
-9.5321117853
20
-19.0433128507
11
-9.5508054198
21
-18.9946147655
62
2
0
LINE
8
Setbacks
10
-9.5508054198
20
-18.9946147655
11
-9.5744878641
21
-18.9481350828
62
2
0
LINE
8
Setbacks
10
-9.5744878641
20
-18.9481350828
11
-9.5746848757
21
-18.9476594527
62
2
0
LINE
8
Setbacks
10
-9.5746848757
20
-18.9476594527
11
-9.6168554807
21
-18.8178713908
62
2
0
LINE
8
Setbacks
10
-9.6168554807
20
-18.8178713908
11
-9.6169756618
21
-18.8173708025
62
2
0
LINE
8
Setbacks
10
-9.6169756618
20
-18.8173708025
11
-9.6251361014
21
-18.7658486879
62
2
0
LINE
8
Setbacks
10
-9.6251361014
20
-18.7658486879
11
-9.6386368782
21
-18.7154625957
62
2
0
LINE
8
Setbacks
10
-9.6386368782
20
-18.7154625957
11
-9.6387306951
21
-18.7149564018
62
2
0
LINE
8
Setbacks
10
-9.6387306951
20
-18.7149564018
11
-9.6529954594
21
-18.5792365812
62
2
0
LINE
8
Setbacks
10
-9.6529954594
20
-18.5792365812
11
-9.6530089367
21
-18.5787219469
62
2
0
LINE
8
Setbacks
10
-9.6530089367
20
-18.5787219469
11
-9.6502790888
21
-18.5266292023
62
2
0
LINE
8
Setbacks
10
-9.6502790888
20
-18.5266292023
11
-9.6530089366
21
-18.4745367858
62
2
0
LINE
8
Setbacks
10
-9.6530089366
20
-18.4745367858
11
-9.6529954594
21
-18.4740221505
62
2
0
LINE
8
Setbacks
10
-9.6529954594
20
-18.4740221505
11
-9.6387306951
21
-18.3383023298
62
2
0
LINE
8
Setbacks
10
-9.6387306951
20
-18.3383023298
11
-9.6386368782
21
-18.3377961360
62
2
0
LINE
8
Setbacks
10
-9.6386368782
20
-18.3377961360
11
-9.6251361014
21
-18.2874100437
62
2
0
LINE
8
Setbacks
10
-9.6251361014
20
-18.2874100437
11
-9.6169756618
21
-18.2358879292
62
2
0
LINE
8
Setbacks
10
-9.6169756618
20
-18.2358879292
11
-9.6168554807
21
-18.2353873408
62
2
0
LINE
8
Setbacks
10
-9.6168554807
20
-18.2353873408
11
-9.5746848757
21
-18.1055992789
62
2
0
LINE
8
Setbacks
10
-9.5746848757
20
-18.1055992789
11
-9.5744878641
21
-18.1051236489
62
2
0
LINE
8
Setbacks
10
-9.5744878641
20
-18.1051236489
11
-9.5508054198
21
-18.0586439661
62
2
0
LINE
8
Setbacks
10
-9.5508054198
20
-18.0586439661
11
-9.5321117853
21
-18.0099458810
62
2
0
LINE
8
Setbacks
10
-9.5321117853
20
-18.0099458810
11
-9.5318901541
21
-18.0094812228
62
2
0
LINE
8
Setbacks
10
-9.5318901541
20
-18.0094812228
11
-9.4636565561
21
-17.8912968358
62
2
0
LINE
8
Setbacks
10
-9.4636565561
20
-17.8912968358
11
-9.4633649542
21
-17.8908725519
62
2
0
LINE
8
Setbacks
10
-9.4633649542
20
-17.8908725519
11
-9.4305371362
21
-17.8503336025
62
2
0
LINE
8
Setbacks
10
-9.4305371362
20
-17.8503336025
11
-9.4021265166
21
-17.8065850873
62
2
0
LINE
8
Setbacks
10
-9.4021265166
20
-17.8065850873
11
-9.4018131143
21
-17.8061766531
62
2
0
LINE
8
Setbacks
10
-9.4018131143
20
-17.8061766531
11
-9.3104988069
21
-17.7047616236
62
2
0
LINE
8
Setbacks
10
-9.3104988069
20
-17.7047616236
11
-9.3101253533
21
-17.7044072306
62
2
0
LINE
8
Setbacks
10
-9.3101253533
20
-17.7044072306
11
-9.2695864154
21
-17.6715797490
62
2
0
LINE
8
Setbacks
10
-9.2695864154
20
-17.6715797490
11
-9.2327007873
21
-17.6346937938
62
2
0
LINE
8
Setbacks
10
-9.2327007873
20
-17.6346937938
11
-9.2323092970
21
-17.6343594287
62
2
0
LINE
8
Setbacks
10
-9.2323092970
20
-17.6343594287
11
-9.1219047659
21
-17.5541461715
62
2
0
LINE
8
Setbacks
10
-9.1219047659
20
-17.5541461715
11
-9.1214658140
21
-17.5538771818
62
2
0
LINE
8
Setbacks
10
-9.1214658140
20
-17.5538771818
11
-9.0749877816
21
-17.5301953993
62
2
0
LINE
8
Setbacks
10
-9.0749877816
20
-17.5301953993
11
-9.0312389393
21
-17.5017844526
62
2
0
LINE
8
Setbacks
10
-9.0312389393
20
-17.5017844526
11
-9.0307864962
21
-17.5015387957
62
2
0
LINE
8
Setbacks
10
-9.0307864962
20
-17.5015387957
11
-8.9061172009
21
-17.4460325604
62
2
0
LINE
8
Setbacks
10
-8.9061172009
20
-17.4460325604
11
-8.9056319138
21
-17.4458607110
62
2
0
LINE
8
Setbacks
10
-8.9056319138
20
-17.4458607110
11
-8.8552441829
21
-17.4323592791
62
2
0
LINE
8
Setbacks
10
-8.8552441829
20
-17.4323592791
11
-8.8065461010
21
-17.4136659729
62
2
0
LINE
8
Setbacks
10
-8.8065461010
20
-17.4136659729
11
-8.8060524900
21
-17.4135197590
62
2
0
LINE
8
Setbacks
10
-8.8060524900
20
-17.4135197590
11
-8.6725672495
21
-17.3851463985
62
2
0
LINE
8
Setbacks
10
-8.6725672495
20
-17.3851463985
11
-8.6720568144
21
-17.3850791990
62
2
0
LINE
8
Setbacks
10
-8.6720568144
20
-17.3850791990
11
-8.6199647492
21
-17.3823493524
62
2
0
LINE
8
Setbacks
10
-8.6199647492
20
-17.3823493524
11
-8.5684426530
21
-17.3741889158
62
2
0
LINE
8
Setbacks
10
-8.5684426530
20
-17.3741889158
11
-8.5679294080
21
-17.3741485219
62
2
0
LINE
8
Setbacks
10
-8.5679294080
20
-17.3741485219
11
-8.4314622121
21
-17.3741485219
62
2
0
LINE
8
Setbacks
10
-8.4314622121
20
-17.3741485219
11
-8.4309489840
21
-17.3741889131
62
2
0
LINE
8
Setbacks
10
-8.4309489840
20
-17.3741889131
11
-8.3794271984
21
-17.3823490253
62
2
0
LINE
8
Setbacks
10
-8.3794271984
20
-17.3823490253
11
-8.3273344592
21
-17.3850791999
62
2
0
LINE
8
Setbacks
10
-8.3273344592
20
-17.3850791999
11
-8.3268240425
21
-17.3851463985
62
2
0
LINE
8
Setbacks
10
-8.3268240425
20
-17.3851463985
11
-8.1933388020
21
-17.4135197590
62
2
0
LINE
8
Setbacks
10
-8.1933388020
20
-17.4135197590
11
-8.1928451842
21
-17.4136659756
62
2
0
LINE
8
Setbacks
10
-8.1928451842
20
-17.4136659756
11
-8.1441474361
21
-17.4323592791
62
2
0
LINE
8
Setbacks
10
-8.1441474361
20
-17.4323592791
11
-8.0937593833
21
-17.4458607096
62
2
0
LINE
8
Setbacks
10
-8.0937593833
20
-17.4458607096
11
-8.0932740882
21
-17.4460325617
62
2
0
LINE
8
Setbacks
10
-8.0932740882
20
-17.4460325617
11
-7.9686051209
21
-17.5015387970
62
2
0
LINE
8
Setbacks
10
-7.9686051209
20
-17.5015387970
11
-7.9681526902
21
-17.5017844465
62
2
0
LINE
8
Setbacks
10
-7.9681526902
20
-17.5017844465
11
-7.9244035115
21
-17.5301953993
62
2
0
LINE
8
Setbacks
10
-7.9244035115
20
-17.5301953993
11
-7.8779257978
21
-17.5538771860
62
2
0
LINE
8
Setbacks
10
-7.8779257978
20
-17.5538771860
11
-7.8774868542
21
-17.5541461715
62
2
0
LINE
8
Setbacks
10
-7.8774868542
20
-17.5541461715
11
-7.7670823231
21
-17.6343594287
62
2
0
LINE
8
Setbacks
10
-7.7670823231
20
-17.6343594287
11
-7.7666908328
21
-17.6346937938
62
2
0
LINE
8
Setbacks
10
-7.7666908328
20
-17.6346937938
11
-7.7298052047
21
-17.6715797490
62
2
0
LINE
8
Setbacks
10
-7.7298052047
20
-17.6715797490
11
-7.6892662668
21
-17.7044072306
62
2
0
LINE
8
Setbacks
10
-7.6892662668
20
-17.7044072306
11
-7.6888928132
21
-17.7047616236
62
2
0
LINE
8
Setbacks
10
-7.6888928132
20
-17.7047616236
11
-7.5975785058
21
-17.8061766531
62
2
0
LINE
8
Setbacks
10
-7.5975785058
20
-17.8061766531
11
-7.5972651063
21
-17.8065850830
62
2
0
LINE
8
Setbacks
10
-7.5972651063
20
-17.8065850830
11
-7.5688548109
21
-17.8503329485
62
2
0
LINE
8
Setbacks
10
-7.5688548109
20
-17.8503329485
11
-7.5360266597
21
-17.8908725596
62
2
0
LINE
8
Setbacks
10
-7.5360266597
20
-17.8908725596
11
-7.5357350674
21
-17.8912968299
62
2
0
LINE
8
Setbacks
10
-7.5357350674
20
-17.8912968299
11
-7.4675011413
21
-18.0094812169
62
2
0
LINE
8
Setbacks
10
-7.4675011413
20
-18.0094812169
11
-7.4672795046
21
-18.0099458864
62
2
0
LINE
8
Setbacks
10
-7.4672795046
20
-18.0099458864
11
-7.4485852149
21
-18.0586459368
62
2
0
LINE
8
Setbacks
10
-7.4485852149
20
-18.0586459368
11
-7.4249037565
21
-18.1051236479
62
2
0
LINE
8
Setbacks
10
-7.4249037565
20
-18.1051236479
11
-7.4247067444
21
-18.1055992789
62
2
0
LINE
8
Setbacks
10
-7.4247067444
20
-18.1055992789
11
-7.3825361394
21
-18.2353873408
62
2
0
LINE
8
Setbacks
10
-7.3825361394
20
-18.2353873408
11
-7.3824159564
21
-18.2358879407
62
2
0
LINE
8
Setbacks
10
-7.3824159564
20
-18.2358879407
11
-7.3742561743
21
-18.2874070908
62
2
0
LINE
8
Setbacks
10
-7.3742561743
20
-18.2874070908
11
-7.3607544168
21
-18.3377961247
62
2
0
LINE
8
Setbacks
10
-7.3607544168
20
-18.3377961247
11
-7.3606605960
21
-18.3383023377
62
2
0
LINE
8
Setbacks
10
-7.3606605960
20
-18.3383023377
11
-7.3463961599
21
-18.4740221583
62
2
0
LINE
8
Setbacks
10
-7.3463961599
20
-18.4740221583
11
-7.3463826835
21
-18.4745367858
62
2
0
LINE
8
Setbacks
10
-7.3463826835
20
-18.4745367858
11
-7.3491125313
21
-18.5266292023
62
2
0
LINE
8
Setbacks
10
-7.3491125313
20
-18.5266292023
11
-7.3463826834
21
-18.5787219469
62
2
0
LINE
8
Setbacks
10
-7.3463826834
20
-18.5787219469
11
-7.3463961599
21
-18.5792365734
62
2
0
LINE
8
Setbacks
10
-7.3463961599
20
-18.5792365734
11
-7.3606605960
21
-18.7149563940
62
2
0
LINE
8
Setbacks
10
-7.3606605960
20
-18.7149563940
11
-7.3607544168
21
-18.7154626070
62
2
0
LINE
8
Setbacks
10
-7.3607544168
20
-18.7154626070
11
-7.3742561743
21
-18.7658516408
62
2
0
LINE
8
Setbacks
10
-7.3742561743
20
-18.7658516408
11
-7.3824159564
21
-18.8173707909
62
2
0
LINE
8
Setbacks
10
-7.3824159564
20
-18.8173707909
11
-7.3825361394
21
-18.8178713908
62
2
0
LINE
8
Setbacks
10
-7.3825361394
20
-18.8178713908
11
-7.4247067444
21
-18.9476594527
62
2
0
LINE
8
Setbacks
10
-7.4247067444
20
-18.9476594527
11
-7.4249037565
21
-18.9481350837
62
2
0
LINE
8
Setbacks
10
-7.4249037565
20
-18.9481350837
11
-7.4485852149
21
-18.9946127949
62
2
0
LINE
8
Setbacks
10
-7.4485852149
20
-18.9946127949
11
-7.4672795046
21
-19.0433128452
62
2
0
LINE
8
Setbacks
10
-7.4672795046
20
-19.0433128452
11
-7.4675011413
21
-19.0437775148
62
2
0
LINE
8
Setbacks
10
-7.4675011413
20
-19.0437775148
11
-7.5357350674
21
-19.1619619018
62
2
0
LINE
8
Setbacks
10
-7.5357350674
20
-19.1619619018
11
-7.5360266597
21
-19.1623861720
62
2
0
LINE
8
Setbacks
10
-7.5360266597
20
-19.1623861720
11
-7.5688548109
21
-19.2029257831
62
2
0
LINE
8
Setbacks
10
-7.5688548109
20
-19.2029257831
11
-7.5972651063
21
-19.2466736486
62
2
0
LINE
8
Setbacks
10
-7.5972651063
20
-19.2466736486
11
-7.5975785058
21
-19.2470820786
62
2
0
LINE
8
Setbacks
10
-7.5975785058
20
-19.2470820786
11
-7.6888928132
21
-19.3484971080
62
2
0
LINE
8
Setbacks
10
-7.6888928132
20
-19.3484971080
11
-7.6892662668
21
-19.3488515011
62
2
0
LINE
8
Setbacks
10
-7.6892662668
20
-19.3488515011
11
-7.7298052047
21
-19.3816789827
62
2
0
LINE
8
Setbacks
10
-7.7298052047
20
-19.3816789827
11
-7.7666908328
21
-19.4185649378
62
2
0
LINE
8
Setbacks
10
-7.7666908328
20
-19.4185649378
11
-7.7670823231
21
-19.4188993030
62
2
0
LINE
8
Setbacks
10
-7.7670823231
20
-19.4188993030
11
-7.8774868542
21
-19.4991125601
62
2
0
LINE
8
Setbacks
10
-7.8774868542
20
-19.4991125601
11
-7.8779257978
21
-19.4993815456
62
2
0
LINE
8
Setbacks
10
-7.8779257978
20
-19.4993815456
11
-7.9244035115
21
-19.5230633323
62
2
0
LINE
8
Setbacks
10
-7.9244035115
20
-19.5230633323
11
-7.9681526902
21
-19.5514742851
62
2
0
LINE
8
Setbacks
10
-7.9681526902
20
-19.5514742851
11
-7.9686051209
21
-19.5517199346
62
2
0
LINE
8
Setbacks
10
-7.9686051209
20
-19.5517199346
11
-8.0932740882
21
-19.6072261700
62
2
0
LINE
8
Setbacks
10
-8.0932740882
20
-19.6072261700
11
-8.0937593833
21
-19.6073980220
62
2
0
LINE
8
Setbacks
10
-8.0937593833
20
-19.6073980220
11
-8.1441474361
21
-19.6208994525
62
2
0
LINE
8
Setbacks
10
-8.1441474361
20
-19.6208994525
11
-8.1928451842
21
-19.6395927561
62
2
0
LINE
8
Setbacks
10
-8.1928451842
20
-19.6395927561
11
-8.1933388020
21
-19.6397389727
62
2
0
LINE
8
Setbacks
10
-8.1933388020
20
-19.6397389727
11
-8.3268240425
21
-19.6681123331
62
2
0
LINE
8
Setbacks
10
-8.3268240425
20
-19.6681123331
11
-8.3273344592
21
-19.6681795317
62
2
0
LINE
8
Setbacks
10
-8.3273344592
20
-19.6681795317
11
-8.3794271984
21
-19.6709097063
62
2
0
LINE
8
Setbacks
10
-5.2983631203
20
-16.7967255597
11
-5.3498871878
21
-16.8048863248
62
2
0
LINE
8
Setbacks
10
-5.3498871878
20
-16.8048863248
11
-5.3504004337
21
-16.8049267189
62
2
0
LINE
8
Setbacks
10
-5.3504004337
20
-16.8049267189
11
-5.5571510965
21
-16.8049267189
62
2
0
LINE
8
Setbacks
10
-5.5571510965
20
-16.8049267189
11
-5.5576643223
21
-16.8048863280
62
2
0
LINE
8
Setbacks
10
-5.5576643223
20
-16.8048863280
11
-5.6091884093
21
-16.7967258868
62
2
0
LINE
8
Setbacks
10
-5.6091884093
20
-16.7967258868
11
-5.6612788569
21
-16.7939957123
62
2
0
LINE
8
Setbacks
10
-5.6612788569
20
-16.7939957123
11
-5.6617892580
21
-16.7939285159
62
2
0
LINE
8
Setbacks
10
-5.6617892580
20
-16.7939285159
11
-5.8640215479
21
-16.7509429502
62
2
0
LINE
8
Setbacks
10
-5.8640215479
20
-16.7509429502
11
-5.8645151752
21
-16.7507967313
62
2
0
LINE
8
Setbacks
10
-5.8645151752
20
-16.7507967313
11
-5.9132145637
21
-16.7321027717
62
2
0
LINE
8
Setbacks
10
-5.9132145637
20
-16.7321027717
11
-5.9636013041
21
-16.7186016693
62
2
0
LINE
8
Setbacks
10
-5.9636013041
20
-16.7186016693
11
-5.9640865994
21
-16.7184298170
62
2
0
LINE
8
Setbacks
10
-5.9640865994
20
-16.7184298170
11
-6.1529625897
21
-16.6343366384
62
2
0
LINE
8
Setbacks
10
-6.1529625897
20
-16.6343366384
11
-6.1534150181
21
-16.6340909902
62
2
0
LINE
8
Setbacks
10
-6.1534150181
20
-16.6340909902
11
-6.1971632089
21
-16.6056806959
62
2
0
LINE
8
Setbacks
10
-6.1971632089
20
-16.6056806959
11
-6.2436419027
21
-16.5819985826
62
2
0
LINE
8
Setbacks
10
-6.2436419027
20
-16.5819985826
11
-6.2440808598
21
-16.5817295892
62
2
0
LINE
8
Setbacks
10
-6.2440808598
20
-16.5817295892
11
-6.4113456289
21
-16.4602046509
62
2
0
LINE
8
Setbacks
10
-6.4113456289
20
-16.4602046509
11
-6.4117371041
21
-16.4598702996
62
2
0
LINE
8
Setbacks
10
-6.4117371041
20
-16.4598702996
11
-6.4486227425
21
-16.4229846612
62
2
0
LINE
8
Setbacks
10
-6.4486227425
20
-16.4229846612
11
-6.4891616928
21
-16.3901568425
62
2
0
LINE
8
Setbacks
10
-6.4891616928
20
-16.3901568425
11
-6.4895351317
21
-16.3898024621
62
2
0
LINE
8
Setbacks
10
-6.4895351317
20
-16.3898024621
11
-6.6278783120
21
-16.2361567879
62
2
0
LINE
8
Setbacks
10
-6.6278783120
20
-16.2361567879
11
-6.6281917198
21
-16.2357483460
62
2
0
LINE
8
Setbacks
10
-6.6281917198
20
-16.2357483460
11
-6.6566020092
21
-16.1920001629
62
2
0
LINE
8
Setbacks
10
-6.6566020092
20
-16.1920001629
11
-6.6894301522
21
-16.1514608889
62
2
0
LINE
8
Setbacks
10
-6.6894301522
20
-16.1514608889
11
-6.6897217536
21
-16.1510366070
62
2
0
LINE
8
Setbacks
10
-6.6897217536
20
-16.1510366070
11
-6.7930970849
21
-15.9719854202
62
2
0
LINE
8
Setbacks
10
-6.7930970849
20
-15.9719854202
11
-6.7933187250
21
-15.9715207411
62
2
0
LINE
8
Setbacks
10
-6.7933187250
20
-15.9715207411
11
-6.8120126835
21
-15.9228210288
62
2
0
LINE
8
Setbacks
10
-6.8120126835
20
-15.9228210288
11
-6.8356944648
21
-15.8763429987
62
2
0
LINE
8
Setbacks
10
-6.8356944648
20
-15.8763429987
11
-6.8358914804
21
-15.8758673612
62
2
0
LINE
8
Setbacks
10
-6.8358914804
20
-15.8758673612
11
-6.8997809182
21
-15.6792357933
62
2
0
LINE
8
Setbacks
10
-6.8997809182
20
-15.6792357933
11
-6.8999010998
21
-15.6787352033
62
2
0
LINE
8
Setbacks
10
-6.8999010998
20
-15.6787352033
11
-6.9080615393
21
-15.6272130888
62
2
0
LINE
8
Setbacks
10
-6.9080615393
20
-15.6272130888
11
-6.9215623162
21
-15.5768269965
62
2
0
LINE
8
Setbacks
10
-6.9215623162
20
-15.5768269965
11
-6.9216561329
21
-15.5763208052
62
2
0
LINE
8
Setbacks
10
-6.9216561329
20
-15.5763208052
11
-6.9432676821
21
-15.3707026883
62
2
0
LINE
8
Setbacks
10
-6.9432676821
20
-15.3707026883
11
-6.9432811586
21
-15.3701880310
62
2
0
LINE
8
Setbacks
10
-6.9432811586
20
-15.3701880310
11
-6.9405509848
21
-15.3180953070
62
2
0
LINE
8
Setbacks
10
-6.9405509848
20
-15.3180953070
11
-6.9432811586
21
-15.2660029110
62
2
0
LINE
8
Setbacks
10
-6.9432811586
20
-15.2660029110
11
-6.9432676821
21
-15.2654882521
62
2
0
LINE
8
Setbacks
10
-6.9432676821
20
-15.2654882521
11
-6.9216561328
21
-15.0598704634
62
2
0
LINE
8
Setbacks
10
-6.9216561328
20
-15.0598704634
11
-6.9215623149
21
-15.0593642674
62
2
0
LINE
8
Setbacks
10
-6.9215623149
20
-15.0593642674
11
-6.9080615398
21
-15.0089785089
62
2
0
LINE
8
Setbacks
10
-6.9080615398
20
-15.0089785089
11
-6.8999011008
21
-14.9574557440
62
2
0
LINE
8
Setbacks
10
-6.8999011008
20
-14.9574557440
11
-6.8997809182
21
-14.9569551477
62
2
0
LINE
8
Setbacks
10
-6.8997809182
20
-14.9569551477
11
-6.8358914804
21
-14.7603235798
62
2
0
LINE
8
Setbacks
10
-6.8358914804
20
-14.7603235798
11
-6.8356944689
21
-14.7598479503
62
2
0
LINE
8
Setbacks
10
-6.8356944689
20
-14.7598479503
11
-6.8120130105
21
-14.7133702392
62
2
0
LINE
8
Setbacks
10
-6.8120130105
20
-14.7133702392
11
-6.7933187208
21
-14.6646701888
62
2
0
LINE
8
Setbacks
10
-6.7933187208
20
-14.6646701888
11
-6.7930970849
21
-14.6642055208
62
2
0
LINE
8
Setbacks
10
-6.7930970849
20
-14.6642055208
11
-6.6897217536
21
-14.4851543340
62
2
0
LINE
8
Setbacks
10
-6.6897217536
20
-14.4851543340
11
-6.6894301522
21
-14.4847300521
62
2
0
LINE
8
Setbacks
10
-6.6894301522
20
-14.4847300521
11
-6.6566020092
21
-14.4441907781
62
2
0
LINE
8
Setbacks
10
-6.6566020092
20
-14.4441907781
11
-6.6281917198
21
-14.4004425950
62
2
0
LINE
8
Setbacks
10
-6.6281917198
20
-14.4004425950
11
-6.6278783120
21
-14.4000341531
62
2
0
LINE
8
Setbacks
10
-6.6278783120
20
-14.4000341531
11
-6.4895351317
21
-14.2463884789
62
2
0
LINE
8
Setbacks
10
-6.4895351317
20
-14.2463884789
11
-6.4891616804
21
-14.2460340884
62
2
0
LINE
8
Setbacks
10
-6.4891616804
20
-14.2460340884
11
-6.4486227425
21
-14.2132066068
62
2
0
LINE
8
Setbacks
10
-6.4486227425
20
-14.2132066068
11
-6.4117371143
21
-14.1763206517
62
2
0
LINE
8
Setbacks
10
-6.4117371143
20
-14.1763206517
11
-6.4113456289
21
-14.1759862900
62
2
0
LINE
8
Setbacks
10
-6.4113456289
20
-14.1759862900
11
-6.2440808598
21
-14.0544613518
62
2
0
LINE
8
Setbacks
10
-6.2440808598
20
-14.0544613518
11
-6.2436418941
21
-14.0541923540
62
2
0
LINE
8
Setbacks
10
-6.2436418941
20
-14.0541923540
11
-6.1971622279
21
-14.0305099181
62
2
0
LINE
8
Setbacks
10
-6.1971622279
20
-14.0305099181
11
-6.1534150319
21
-14.0020999597
62
2
0
LINE
8
Setbacks
10
-6.1534150319
20
-14.0020999597
11
-6.1529625897
21
-14.0018543025
62
2
0
LINE
8
Setbacks
10
-6.1529625897
20
-14.0018543025
11
-5.9640865994
21
-13.9177611240
62
2
0
LINE
8
Setbacks
10
-5.9640865994
20
-13.9177611240
11
-5.9636012925
21
-13.9175892685
62
2
0
LINE
8
Setbacks
10
-5.9636012925
20
-13.9175892685
11
-5.9132125924
21
-13.9040878398
62
2
0
LINE
8
Setbacks
10
-5.9132125924
20
-13.9040878398
11
-5.8645151807
21
-13.8853945398
62
2
0
LINE
8
Setbacks
10
-5.8645151807
20
-13.8853945398
11
-5.8640215529
21
-13.8852483200
62
2
0
LINE
8
Setbacks
10
-5.8640215529
20
-13.8852483200
11
-5.6617892629
21
-13.8422624262
62
2
0
LINE
8
Setbacks
10
-5.6617892629
20
-13.8422624262
11
-5.6612788461
21
-13.8421952281
62
2
0
LINE
8
Setbacks
10
-5.6612788461
20
-13.8421952281
11
-5.6091851291
21
-13.8394650537
62
2
0
LINE
8
Setbacks
10
-5.6091851291
20
-13.8394650537
11
-5.5576643340
21
-13.8313049430
62
2
0
LINE
8
Setbacks
10
-5.5576643340
20
-13.8313049430
11
-5.5571510965
21
-13.8312645502
62
2
0
LINE
8
Setbacks
10
-5.5571510965
20
-13.8312645502
11
-5.3504004337
21
-13.8312645502
62
2
0
LINE
8
Setbacks
10
-5.3504004337
20
-13.8312645502
11
-5.3498871961
21
-13.8313049430
62
2
0
LINE
8
Setbacks
10
-5.3498871961
20
-13.8313049430
11
-5.2983664005
21
-13.8394650538
62
2
0
LINE
8
Setbacks
10
-5.2983664005
20
-13.8394650538
11
-5.2462730111
21
-13.8421952282
62
2
0
LINE
8
Setbacks
10
-5.2462730111
20
-13.8421952282
11
-5.2457625963
21
-13.8422624260
62
2
0
LINE
8
Setbacks
10
-5.2457625963
20
-13.8422624260
11
-5.0435299783
21
-13.8852483197
62
2
0
LINE
8
Setbacks
10
-5.0435299783
20
-13.8852483197
11
-5.0430363563
21
-13.8853945372
62
2
0
LINE
8
Setbacks
10
-5.0430363563
20
-13.8853945372
11
-4.9943386083
21
-13.9040878408
62
2
0
LINE
8
Setbacks
10
-4.9943386083
20
-13.9040878408
11
-4.9439505555
21
-13.9175892713
62
2
0
LINE
8
Setbacks
10
-4.9439505555
20
-13.9175892713
11
-4.9434652588
21
-13.9177611240
62
2
0
LINE
8
Setbacks
10
-4.9434652588
20
-13.9177611240
11
-4.7545892685
21
-14.0018543025
62
2
0
LINE
8
Setbacks
10
-4.7545892685
20
-14.0018543025
11
-4.7541368358
21
-14.0020999536
62
2
0
LINE
8
Setbacks
10
-4.7541368358
20
-14.0020999536
11
-4.7103893034
21
-14.0305099181
62
2
0
LINE
8
Setbacks
10
-4.7103893034
20
-14.0305099181
11
-4.6639099558
21
-14.0541923582
62
2
0
LINE
8
Setbacks
10
-4.6639099558
20
-14.0541923582
11
-4.6634709985
21
-14.0544613518
62
2
0
LINE
8
Setbacks
10
-4.6634709985
20
-14.0544613518
11
-4.4962062293
21
-14.1759862900
62
2
0
LINE
8
Setbacks
10
-4.4962062293
20
-14.1759862900
11
-4.4958147542
21
-14.1763206414
62
2
0
LINE
8
Setbacks
10
-4.4958147542
20
-14.1763206414
11
-4.4589294428
21
-14.2132059528
62
2
0
LINE
8
Setbacks
10
-4.4589294428
20
-14.2132059528
11
-4.4183901631
21
-14.2460341004
62
2
0
LINE
8
Setbacks
10
-4.4183901631
20
-14.2460341004
11
-4.4180167265
21
-14.2463884789
62
2
0
LINE
8
Setbacks
10
-4.4180167265
20
-14.2463884789
11
-4.2796735463
21
-14.4000341531
62
2
0
LINE
8
Setbacks
10
-4.2796735463
20
-14.4000341531
11
-4.2793601450
21
-14.4004425848
62
2
0
LINE
8
Setbacks
10
-4.2793601450
20
-14.4004425848
11
-4.2509491950
21
-14.4441914321
62
2
0
LINE
8
Setbacks
10
-4.2509491950
20
-14.4441914321
11
-4.2181217022
21
-14.4847300569
62
2
0
LINE
8
Setbacks
10
-4.2181217022
20
-14.4847300569
11
-4.2178301047
21
-14.4851543340
62
2
0
LINE
8
Setbacks
10
-4.2178301047
20
-14.4851543340
11
-4.1144547733
21
-14.6642055208
62
2
0
LINE
8
Setbacks
10
-4.1144547733
20
-14.6642055208
11
-4.1142331374
21
-14.6646701888
62
2
0
LINE
8
Setbacks
10
-4.1142331374
20
-14.6646701888
11
-4.0955388478
21
-14.7133702392
62
2
0
LINE
8
Setbacks
10
-4.0955388478
20
-14.7133702392
11
-4.0718573894
21
-14.7598479503
62
2
0
LINE
8
Setbacks
10
-4.0718573894
20
-14.7598479503
11
-4.0716603778
21
-14.7603235798
62
2
0
LINE
8
Setbacks
10
-4.0716603778
20
-14.7603235798
11
-4.0077709401
21
-14.9569551477
62
2
0
LINE
8
Setbacks
10
-4.0077709401
20
-14.9569551477
11
-4.0076507556
21
-14.9574557555
62
2
0
LINE
8
Setbacks
10
-4.0076507556
20
-14.9574557555
11
-3.9994909740
21
-15.0089755560
62
2
0
LINE
8
Setbacks
10
-3.9994909740
20
-15.0089755560
11
-3.9859892183
21
-15.0593642561
62
2
0
LINE
8
Setbacks
10
-3.9859892183
20
-15.0593642561
11
-3.9858953968
21
-15.0598704685
62
2
0
LINE
8
Setbacks
10
-3.9858953968
20
-15.0598704685
11
-3.9642841756
21
-15.2654882572
62
2
0
LINE
8
Setbacks
10
-3.9642841756
20
-15.2654882572
11
-3.9642706986
21
-15.2660028905
62
2
0
LINE
8
Setbacks
10
-3.9642706986
20
-15.2660028905
11
-3.9670005464
21
-15.3180953070
62
2
0
LINE
8
Setbacks
10
-3.9670005464
20
-15.3180953070
11
-3.9642706985
21
-15.3701880515
62
2
0
LINE
8
Setbacks
10
-3.9642706985
20
-15.3701880515
11
-3.9642841756
21
-15.3707026832
62
2
0
LINE
8
Setbacks
10
-3.9642841756
20
-15.3707026832
11
-3.9858953967
21
-15.5763208000
62
2
0
LINE
8
Setbacks
10
-3.9858953967
20
-15.5763208000
11
-3.9859892169
21
-15.5768270078
62
2
0
LINE
8
Setbacks
10
-3.9859892169
20
-15.5768270078
11
-3.9994909744
21
-15.6272160417
62
2
0
LINE
8
Setbacks
10
-3.9994909744
20
-15.6272160417
11
-4.0076507566
21
-15.6787351918
62
2
0
LINE
8
Setbacks
10
-4.0076507566
20
-15.6787351918
11
-4.0077709401
21
-15.6792357933
62
2
0
LINE
8
Setbacks
10
-4.0077709401
20
-15.6792357933
11
-4.0716603778
21
-15.8758673612
62
2
0
LINE
8
Setbacks
10
-4.0716603778
20
-15.8758673612
11
-4.0718573934
21
-15.8763429987
62
2
0
LINE
8
Setbacks
10
-4.0718573934
20
-15.8763429987
11
-4.0955391748
21
-15.9228210288
62
2
0
LINE
8
Setbacks
10
-4.0955391748
20
-15.9228210288
11
-4.1142331332
21
-15.9715207411
62
2
0
LINE
8
Setbacks
10
-4.1142331332
20
-15.9715207411
11
-4.1144547733
21
-15.9719854202
62
2
0
LINE
8
Setbacks
10
-4.1144547733
20
-15.9719854202
11
-4.2178301047
21
-16.1510366070
62
2
0
LINE
8
Setbacks
10
-4.2178301047
20
-16.1510366070
11
-4.2181217022
21
-16.1514608841
62
2
0
LINE
8
Setbacks
10
-4.2181217022
20
-16.1514608841
11
-4.2509491950
21
-16.1919995089
62
2
0
LINE
8
Setbacks
10
-4.2509491950
20
-16.1919995089
11
-4.2793601450
21
-16.2357483562
62
2
0
LINE
8
Setbacks
10
-4.2793601450
20
-16.2357483562
11
-4.2796735463
21
-16.2361567879
62
2
0
LINE
8
Setbacks
10
-4.2796735463
20
-16.2361567879
11
-4.4180167265
21
-16.3898024621
62
2
0
LINE
8
Setbacks
10
-4.4180167265
20
-16.3898024621
11
-4.4183901631
21
-16.3901568406
62
2
0
LINE
8
Setbacks
10
-4.4183901631
20
-16.3901568406
11
-4.4589294428
21
-16.4229849882
62
2
0
LINE
8
Setbacks
10
-4.4589294428
20
-16.4229849882
11
-4.4958147542
21
-16.4598702996
62
2
0
LINE
8
Setbacks
10
-4.4958147542
20
-16.4598702996
11
-4.4962062293
21
-16.4602046509
62
2
0
LINE
8
Setbacks
10
-4.4962062293
20
-16.4602046509
11
-4.6634709985
21
-16.5817295892
62
2
0
LINE
8
Setbacks
10
-4.6634709985
20
-16.5817295892
11
-4.6639099555
21
-16.5819985826
62
2
0
LINE
8
Setbacks
10
-4.6639099555
20
-16.5819985826
11
-4.7103886494
21
-16.6056806959
62
2
0
LINE
8
Setbacks
10
-4.7103886494
20
-16.6056806959
11
-4.7541368401
21
-16.6340909902
62
2
0
LINE
8
Setbacks
10
-4.7541368401
20
-16.6340909902
11
-4.7545892685
21
-16.6343366384
62
2
0
LINE
8
Setbacks
10
-4.7545892685
20
-16.6343366384
11
-4.9434652588
21
-16.7184298170
62
2
0
LINE
8
Setbacks
10
-4.9434652588
20
-16.7184298170
11
-4.9439505490
21
-16.7186016680
62
2
0
LINE
8
Setbacks
10
-4.9439505490
20
-16.7186016680
11
-4.9943369639
21
-16.7321027707
62
2
0
LINE
8
Setbacks
10
-4.9943369639
20
-16.7321027707
11
-5.0430363549
21
-16.7507967313
62
2
0
LINE
8
Setbacks
10
-5.0430363549
20
-16.7507967313
11
-5.0435299833
21
-16.7509429504
62
2
0
LINE
8
Setbacks
10
-5.0435299833
20
-16.7509429504
11
-5.2457626013
21
-16.7939285161
62
2
0
LINE
8
Setbacks
10
-5.2457626013
20
-16.7939285161
11
-5.2462730208
21
-16.7939957133
62
2
0
LINE
8
Setbacks
10
-5.2462730208
20
-16.7939957133
11
-5.2983631203
21
-16.7967255597
62
2
0
LINE
8
Setbacks
10
8.9708236880
20
0.5088386424
11
8.9192996206
21
0.5006778773
62
2
0
LINE
8
Setbacks
10
8.9192996206
20
0.5006778773
11
8.9187863746
21
0.5006374832
62
2
0
LINE
8
Setbacks
10
8.9187863746
20
0.5006374832
11
8.8622830920
21
0.5006374832
62
2
0
LINE
8
Setbacks
10
8.8622830920
20
0.5006374832
11
8.8617698461
21
0.5006778773
62
2
0
LINE
8
Setbacks
10
8.8617698461
20
0.5006778773
11
8.8102457786
21
0.5088386424
62
2
0
LINE
8
Setbacks
10
8.8102457786
20
0.5088386424
11
8.7581556791
21
0.5115684888
62
2
0
LINE
8
Setbacks
10
8.7581556791
20
0.5115684888
11
8.7576452706
21
0.5116356837
62
2
0
LINE
8
Setbacks
10
8.7576452706
20
0.5116356837
11
8.7023768961
21
0.5233830594
62
2
0
LINE
8
Setbacks
10
8.7023768961
20
0.5233830594
11
8.7018832568
21
0.5235292808
62
2
0
LINE
8
Setbacks
10
8.7018832568
20
0.5235292808
11
8.6531838683
21
0.5422232404
62
2
0
LINE
8
Setbacks
10
8.6531838683
20
0.5422232404
11
8.6027971279
21
0.5557243428
62
2
0
LINE
8
Setbacks
10
8.6027971279
20
0.5557243428
11
8.6023118304
21
0.5558961961
62
2
0
LINE
8
Setbacks
10
8.6023118304
20
0.5558961961
11
8.5506937185
21
0.5788781522
62
2
0
LINE
8
Setbacks
10
8.5506937185
20
0.5788781522
11
8.5502412923
21
0.5791237995
62
2
0
LINE
8
Setbacks
10
8.5502412923
20
0.5791237995
11
8.5064931015
21
0.6075340938
62
2
0
LINE
8
Setbacks
10
8.5064931015
20
0.6075340938
11
8.4600144077
21
0.6312162071
62
2
0
LINE
8
Setbacks
10
8.4600144077
20
0.6312162071
11
8.4595754524
21
0.6314851991
62
2
0
LINE
8
Setbacks
10
8.4595754524
20
0.6314851991
11
8.4138635087
21
0.6646968144
62
2
0
LINE
8
Setbacks
10
8.4138635087
20
0.6646968144
11
8.4134720215
21
0.6650311773
62
2
0
LINE
8
Setbacks
10
8.4134720215
20
0.6650311773
11
8.3765863933
21
0.7019171324
62
2
0
LINE
8
Setbacks
10
8.3765863933
20
0.7019171324
11
8.3360474555
21
0.7347446141
62
2
0
LINE
8
Setbacks
10
8.3360474555
20
0.7347446141
11
8.3356740031
21
0.7350990057
62
2
0
LINE
8
Setbacks
10
8.3356740031
20
0.7350990057
11
8.2978659311
21
0.7770891645
62
2
0
LINE
8
Setbacks
10
8.2978659311
20
0.7770891645
11
8.2975525242
21
0.7774976052
62
2
0
LINE
8
Setbacks
10
8.2975525242
20
0.7774976052
11
8.2691422349
21
0.8212457883
62
2
0
LINE
8
Setbacks
10
8.2691422349
20
0.8212457883
11
8.2363140918
21
0.8617850624
62
2
0
LINE
8
Setbacks
10
8.2363140918
20
0.8617850624
11
8.2360224847
21
0.8622093543
62
2
0
LINE
8
Setbacks
10
8.2360224847
20
0.8622093543
11
8.2077711714
21
0.9111424267
62
2
0
LINE
8
Setbacks
10
8.2077711714
20
0.9111424267
11
8.2075495392
21
0.9116070903
62
2
0
LINE
8
Setbacks
10
8.2075495392
20
0.9116070903
11
8.1888562360
21
0.9603048374
62
2
0
LINE
8
Setbacks
10
8.1888562360
20
0.9603048374
11
8.1651734688
21
1.0067848391
62
2
0
LINE
8
Setbacks
10
8.1651734688
20
1.0067848391
11
8.1649764524
21
1.0072604794
62
2
0
LINE
8
Setbacks
10
8.1649764524
20
1.0072604794
11
8.1475161500
21
1.0609980139
62
2
0
LINE
8
Setbacks
10
8.1475161500
20
1.0609980139
11
8.1473959681
21
1.0614986096
62
2
0
LINE
8
Setbacks
10
8.1473959681
20
1.0614986096
11
8.1392355297
21
1.1130216983
62
2
0
LINE
8
Setbacks
10
8.1392355297
20
1.1130216983
11
8.1257347560
21
1.1634071247
62
2
0
LINE
8
Setbacks
10
8.1257347560
20
1.1634071247
11
8.1256409361
21
1.1639133305
62
2
0
LINE
8
Setbacks
10
8.1256409361
20
1.1639133305
11
8.1197347680
21
1.2201069019
62
2
0
LINE
8
Setbacks
10
8.1197347680
20
1.2201069019
11
8.1197212908
21
1.2206215345
62
2
0
LINE
8
Setbacks
10
8.1197212908
20
1.2206215345
11
8.1224511387
21
1.2727142790
62
2
0
LINE
8
Setbacks
10
8.1224511387
20
1.2727142790
11
8.1197212909
21
1.3248066955
62
2
0
LINE
8
Setbacks
10
8.1197212909
20
1.3248066955
11
8.1197347680
21
1.3253213292
62
2
0
LINE
8
Setbacks
10
8.1197347680
20
1.3253213292
11
8.1256409361
21
1.3815149006
62
2
0
LINE
8
Setbacks
10
8.1256409361
20
1.3815149006
11
8.1257347532
21
1.3820210961
62
2
0
LINE
8
Setbacks
10
8.1257347532
20
1.3820210961
11
8.1392355301
21
1.4324071884
62
2
0
LINE
8
Setbacks
10
8.1392355301
20
1.4324071884
11
8.1473959696
21
1.4839293029
62
2
0
LINE
8
Setbacks
10
8.1473959696
20
1.4839293029
11
8.1475161482
21
1.4844298834
62
2
0
LINE
8
Setbacks
10
8.1475161482
20
1.4844298834
11
8.1649764506
21
1.5381677460
62
2
0
LINE
8
Setbacks
10
8.1649764506
20
1.5381677460
11
8.1651734690
21
1.5386433923
62
2
0
LINE
8
Setbacks
10
8.1651734690
20
1.5386433923
11
8.1888559090
21
1.5851227397
62
2
0
LINE
8
Setbacks
10
8.1888559090
20
1.5851227397
11
8.2075495408
21
1.6338211449
62
2
0
LINE
8
Setbacks
10
8.2075495408
20
1.6338211449
11
8.2077711714
21
1.6342858043
62
2
0
LINE
8
Setbacks
10
8.2077711714
20
1.6342858043
11
8.2360224847
21
1.6832188768
62
2
0
LINE
8
Setbacks
10
8.2360224847
20
1.6832188768
11
8.2363140918
21
1.6836431687
62
2
0
LINE
8
Setbacks
10
8.2363140918
20
1.6836431687
11
8.2691422349
21
1.7241824427
62
2
0
LINE
8
Setbacks
10
8.2691422349
20
1.7241824427
11
8.2975525242
21
1.7679306258
62
2
0
LINE
8
Setbacks
10
8.2975525242
20
1.7679306258
11
8.2978659396
21
1.7683390761
62
2
0
LINE
8
Setbacks
10
8.2978659396
20
1.7683390761
11
8.3356740117
21
1.8103289068
62
2
0
LINE
8
Setbacks
10
8.3356740117
20
1.8103289068
11
8.3360474430
21
1.8106832789
62
2
0
LINE
8
Setbacks
10
8.3360474430
20
1.8106832789
11
8.3765863933
21
1.8435110975
62
2
0
LINE
8
Setbacks
10
8.3765863933
20
1.8435110975
11
8.4134720318
21
1.8803967360
62
2
0
LINE
8
Setbacks
10
8.4134720318
20
1.8803967360
11
8.4138634963
21
1.8807310796
62
2
0
LINE
8
Setbacks
10
8.4138634963
20
1.8807310796
11
8.4595754400
21
1.9139430229
62
2
0
LINE
8
Setbacks
10
8.4595754400
20
1.9139430229
11
8.4600144163
21
1.9142120284
62
2
0
LINE
8
Setbacks
10
8.4600144163
20
1.9142120284
11
8.5064940826
21
1.9378944643
62
2
0
LINE
8
Setbacks
10
8.5064940826
20
1.9378944643
11
8.5502412786
21
1.9663044226
62
2
0
LINE
8
Setbacks
10
8.5502412786
20
1.9663044226
11
8.5506937185
21
1.9665500788
62
2
0
LINE
8
Setbacks
10
8.5506937185
20
1.9665500788
11
8.6023118304
21
1.9895320350
62
2
0
LINE
8
Setbacks
10
8.6023118304
20
1.9895320350
11
8.6027971395
21
1.9897038914
62
2
0
LINE
8
Setbacks
10
8.6027971395
20
1.9897038914
11
8.6531858396
21
2.0032053201
62
2
0
LINE
8
Setbacks
10
8.6531858396
20
2.0032053201
11
8.7018832513
21
2.0218986201
62
2
0
LINE
8
Setbacks
10
8.7018832513
20
2.0218986201
11
8.7023768779
21
2.0220448397
62
2
0
LINE
8
Setbacks
10
8.7023768779
20
2.0220448397
11
8.7576452523
21
2.0337925435
62
2
0
LINE
8
Setbacks
10
8.7576452523
20
2.0337925435
11
8.7581556694
21
2.0338597418
62
2
0
LINE
8
Setbacks
10
8.7581556694
20
2.0338597418
11
8.8102490588
21
2.0365899162
62
2
0
LINE
8
Setbacks
10
8.8102490588
20
2.0365899162
11
8.8617698544
21
2.0447500270
62
2
0
LINE
8
Setbacks
10
8.8617698544
20
2.0447500270
11
8.8622830920
21
2.0447904198
62
2
0
LINE
8
Setbacks
10
8.8622830920
20
2.0447904198
11
8.9187863746
21
2.0447904198
62
2
0
LINE
8
Setbacks
10
8.9187863746
20
2.0447904198
11
8.9192996122
21
2.0447500270
62
2
0
LINE
8
Setbacks
10
8.9192996122
20
2.0447500270
11
8.9708204078
21
2.0365899162
62
2
0
LINE
8
Setbacks
10
8.9708204078
20
2.0365899162
11
9.0229137973
21
2.0338597418
62
2
0
LINE
8
Setbacks
10
9.0229137973
20
2.0338597418
11
9.0234242143
21
2.0337925435
62
2
0
LINE
8
Setbacks
10
9.0234242143
20
2.0337925435
11
9.0786925888
21
2.0220448397
62
2
0
LINE
8
Setbacks
10
9.0786925888
20
2.0220448397
11
9.0791862015
21
2.0218986254
62
2
0
LINE
8
Setbacks
10
9.0791862015
20
2.0218986254
11
9.1278842835
21
2.0032053192
62
2
0
LINE
8
Setbacks
10
9.1278842835
20
2.0032053192
11
9.1782720144
21
1.9897038873
62
2
0
LINE
8
Setbacks
10
9.1782720144
20
1.9897038873
11
9.1787573082
21
1.9895320350
62
2
0
LINE
8
Setbacks
10
9.1787573082
20
1.9895320350
11
9.2303754201
21
1.9665500788
62
2
0
LINE
8
Setbacks
10
9.2303754201
20
1.9665500788
11
9.2308278506
21
1.9663044287
62
2
0
LINE
8
Setbacks
10
9.2308278506
20
1.9663044287
11
9.2745753830
21
1.9378944643
62
2
0
LINE
8
Setbacks
10
9.2745753830
20
1.9378944643
11
9.3210547305
21
1.9142120242
62
2
0
LINE
8
Setbacks
10
9.3210547305
20
1.9142120242
11
9.3214936895
21
1.9139430295
62
2
0
LINE
8
Setbacks
10
9.3214936895
20
1.9139430295
11
9.3672059613
21
1.8807310861
62
2
0
LINE
8
Setbacks
10
9.3672059613
20
1.8807310861
11
9.3675974349
21
1.8803967360
62
2
0
LINE
8
Setbacks
10
9.3675974349
20
1.8803967360
11
9.4044830733
21
1.8435110975
62
2
0
LINE
8
Setbacks
10
9.4044830733
20
1.8435110975
11
9.4450220236
21
1.8106832789
62
2
0
LINE
8
Setbacks
10
9.4450220236
20
1.8106832789
11
9.4453954644
21
1.8103288963
62
2
0
LINE
8
Setbacks
10
9.4453954644
20
1.8103288963
11
9.4832032084
21
1.7683390655
62
2
0
LINE
8
Setbacks
10
9.4832032084
20
1.7683390655
11
9.4835166050
21
1.7679306403
62
2
0
LINE
8
Setbacks
10
9.4835166050
20
1.7679306403
11
9.5119272307
21
1.7241824427
62
2
0
LINE
8
Setbacks
10
9.5119272307
20
1.7241824427
11
9.5447550568
21
1.6836431562
62
2
0
LINE
8
Setbacks
10
9.5447550568
20
1.6836431562
11
9.5450466456
21
1.6832188911
62
2
0
LINE
8
Setbacks
10
9.5450466456
20
1.6832188911
11
9.5732982870
21
1.6342858186
62
2
0
LINE
8
Setbacks
10
9.5732982870
20
1.6342858186
11
9.5735199252
21
1.6338211464
62
2
0
LINE
8
Setbacks
10
9.5735199252
20
1.6338211464
11
9.5922142149
21
1.5851210960
62
2
0
LINE
8
Setbacks
10
9.5922142149
20
1.5851210960
11
9.6158956733
21
1.5386433849
62
2
0
LINE
8
Setbacks
10
9.6158956733
20
1.5386433849
11
9.6160926823
21
1.5381677633
62
2
0
LINE
8
Setbacks
10
9.6160926823
20
1.5381677633
11
9.6335533128
21
1.4844299007
62
2
0
LINE
8
Setbacks
10
9.6335533128
20
1.4844299007
11
9.6336734970
21
1.4839293029
62
2
0
LINE
8
Setbacks
10
9.6336734970
20
1.4839293029
11
9.6418339365
21
1.4324071884
62
2
0
LINE
8
Setbacks
10
9.6418339365
20
1.4324071884
11
9.6553347134
21
1.3820210961
62
2
0
LINE
8
Setbacks
10
9.6553347134
20
1.3820210961
11
9.6554285305
21
1.3815149006
62
2
0
LINE
8
Setbacks
10
9.6554285305
20
1.3815149006
11
9.6613346987
21
1.3253213292
62
2
0
LINE
8
Setbacks
10
9.6613346987
20
1.3253213292
11
9.6613481757
21
1.3248066955
62
2
0
LINE
8
Setbacks
10
9.6613481757
20
1.3248066955
11
9.6586183279
21
1.2727142790
62
2
0
LINE
8
Setbacks
10
9.6586183279
20
1.2727142790
11
9.6613481758
21
1.2206215345
62
2
0
LINE
8
Setbacks
10
9.6613481758
20
1.2206215345
11
9.6613346987
21
1.2201069019
62
2
0
LINE
8
Setbacks
10
9.6613346987
20
1.2201069019
11
9.6554285305
21
1.1639133305
62
2
0
LINE
8
Setbacks
10
9.6554285305
20
1.1639133305
11
9.6553347107
21
1.1634071247
62
2
0
LINE
8
Setbacks
10
9.6553347107
20
1.1634071247
11
9.6418339370
21
1.1130216983
62
2
0
LINE
8
Setbacks
10
9.6418339370
20
1.1130216983
11
9.6336734985
21
1.0614986096
62
2
0
LINE
8
Setbacks
10
9.6336734985
20
1.0614986096
11
9.6335533110
21
1.0609979967
62
2
0
LINE
8
Setbacks
10
9.6335533110
20
1.0609979967
11
9.6160926805
21
1.0072604622
62
2
0
LINE
8
Setbacks
10
9.6160926805
20
1.0072604622
11
9.6158956692
21
1.0067848382
62
2
0
LINE
8
Setbacks
10
9.6158956692
20
1.0067848382
11
9.5922138879
21
0.9603068080
62
2
0
LINE
8
Setbacks
10
9.5922138879
20
0.9603068080
11
9.5735199295
21
0.9116070957
62
2
0
LINE
8
Setbacks
10
9.5735199295
20
0.9116070957
11
9.5732982870
21
0.9111424124
62
2
0
LINE
8
Setbacks
10
9.5732982870
20
0.9111424124
11
9.5450466456
21
0.8622093400
62
2
0
LINE
8
Setbacks
10
9.5450466456
20
0.8622093400
11
9.5447550568
21
0.8617850748
62
2
0
LINE
8
Setbacks
10
9.5447550568
20
0.8617850748
11
9.5119272307
21
0.8212457883
62
2
0
LINE
8
Setbacks
10
9.5119272307
20
0.8212457883
11
9.4835166050
21
0.7774975908
62
2
0
LINE
8
Setbacks
10
9.4835166050
20
0.7774975908
11
9.4832032170
21
0.7770891750
62
2
0
LINE
8
Setbacks
10
9.4832032170
20
0.7770891750
11
9.4453954730
21
0.7350990162
62
2
0
LINE
8
Setbacks
10
9.4453954730
20
0.7350990162
11
9.4450220112
21
0.7347446141
62
2
0
LINE
8
Setbacks
10
9.4450220112
20
0.7347446141
11
9.4044830733
21
0.7019171324
62
2
0
LINE
8
Setbacks
10
9.4044830733
20
0.7019171324
11
9.3675974452
21
0.6650311773
62
2
0
LINE
8
Setbacks
10
9.3675974452
20
0.6650311773
11
9.3672059488
21
0.6646968078
62
2
0
LINE
8
Setbacks
10
9.3672059488
20
0.6646968078
11
9.3214936770
21
0.6314851925
62
2
0
LINE
8
Setbacks
10
9.3214936770
20
0.6314851925
11
9.3210547308
21
0.6312162071
62
2
0
LINE
8
Setbacks
10
9.3210547308
20
0.6312162071
11
9.2745760370
21
0.6075340938
62
2
0
LINE
8
Setbacks
10
9.2745760370
20
0.6075340938
11
9.2308278463
21
0.5791237995
62
2
0
LINE
8
Setbacks
10
9.2308278463
20
0.5791237995
11
9.2303754201
21
0.5788781522
62
2
0
LINE
8
Setbacks
10
9.2303754201
20
0.5788781522
11
9.1787573082
21
0.5558961961
62
2
0
LINE
8
Setbacks
10
9.1787573082
20
0.5558961961
11
9.1782720018
21
0.5557243404
62
2
0
LINE
8
Setbacks
10
9.1782720018
20
0.5557243404
11
9.1278859279
21
0.5422235684
62
2
0
LINE
8
Setbacks
10
9.1278859279
20
0.5422235684
11
9.0791862209
21
0.5235292850
62
2
0
LINE
8
Setbacks
10
9.0791862209
20
0.5235292850
11
9.0786925705
21
0.5233830594
62
2
0
LINE
8
Setbacks
10
9.0786925705
20
0.5233830594
11
9.0234241961
21
0.5116356837
62
2
0
LINE
8
Setbacks
10
9.0234241961
20
0.5116356837
11
9.0229137875
21
0.5115684888
62
2
0
LINE
8
Setbacks
10
9.0229137875
20
0.5115684888
11
8.9708236880
21
0.5088386424
62
2
0
LINE
8
Setbacks
10
6.5990574883
20
16.7258843656
11
6.5986584339
21
16.7262096345
62
2
0
LINE
8
Setbacks
10
6.5986584339
20
16.7262096345
11
6.4855301495
21
16.8342549136
62
2
0
LINE
8
Setbacks
10
6.4855301495
20
16.8342549136
11
6.4851868918
21
16.8346386035
62
2
0
LINE
8
Setbacks
10
6.4851868918
20
16.8346386035
11
6.4849078826
21
16.8350712669
62
2
0
LINE
8
Setbacks
10
6.4849078826
20
16.8350712669
11
6.4107044682
21
16.9727868225
62
2
0
LINE
8
Setbacks
10
6.4107044682
20
16.9727868225
11
6.4104965785
21
16.9732578033
62
2
0
LINE
8
Setbacks
10
6.4104965785
20
16.9732578033
11
6.4103649256
21
16.9737555066
62
2
0
LINE
8
Setbacks
10
6.4103649256
20
16.9737555066
11
6.3823495047
21
17.1276610233
62
2
0
LINE
8
Setbacks
10
6.3823495047
20
17.1276610233
11
6.3822973302
21
17.1281731984
62
2
0
LINE
8
Setbacks
10
6.3822973302
20
17.1281731984
11
6.3823259202
21
17.1286872296
62
2
0
LINE
8
Setbacks
10
6.3823259202
20
17.1286872296
11
6.4032412752
21
17.2837170902
62
2
0
LINE
8
Setbacks
10
6.4032412752
20
17.2837170902
11
6.4033499242
21
17.2842203151
62
2
0
LINE
8
Setbacks
10
6.4033499242
20
17.2842203151
11
6.4035359568
21
17.2847003483
62
2
0
LINE
8
Setbacks
10
6.4035359568
20
17.2847003483
11
6.4713341873
21
17.4256793554
62
2
0
LINE
8
Setbacks
10
6.4713341873
20
17.4256793554
11
6.4715930269
21
17.4261243828
62
2
0
LINE
8
Setbacks
10
6.4715930269
20
17.4261243828
11
7.6299752818
21
19.1000742395
62
2
0
LINE
8
Setbacks
10
7.6299752818
20
19.1000742395
11
7.6303005474
21
19.1004732904
62
2
0
LINE
8
Setbacks
10
7.6303005474
20
19.1004732904
11
7.7383454983
21
19.2136015748
62
2
0
LINE
8
Setbacks
10
7.7383454983
20
19.2136015748
11
7.7387291897
21
19.2139448346
62
2
0
LINE
8
Setbacks
10
7.7387291897
20
19.2139448346
11
7.7391618551
21
19.2142238452
62
2
0
LINE
8
Setbacks
10
7.7391618551
20
19.2142238452
11
7.8768774107
21
19.2884272597
62
2
0
LINE
8
Setbacks
10
7.8768774107
20
19.2884272597
11
7.8773483915
21
19.2886351494
62
2
0
LINE
8
Setbacks
10
7.8773483915
20
19.2886351494
11
7.8778460948
21
19.2887668023
62
2
0
LINE
8
Setbacks
10
7.8778460948
20
19.2887668023
11
8.0317516115
21
19.3167822232
62
2
0
LINE
8
Setbacks
10
8.0317516115
20
19.3167822232
11
8.0322637861
21
19.3168343977
62
2
0
LINE
8
Setbacks
10
8.0322637861
20
19.3168343977
11
8.0327778169
21
19.3168058078
62
2
0
LINE
8
Setbacks
10
8.0327778169
20
19.3168058078
11
8.1878080056
21
19.2958904528
62
2
0
LINE
8
Setbacks
10
8.1878080056
20
19.2958904528
11
8.1883112339
21
19.2957818030
62
2
0
LINE
8
Setbacks
10
8.1883112339
20
19.2957818030
11
8.1887912701
21
19.2955957684
62
2
0
LINE
8
Setbacks
10
8.1887912701
20
19.2955957684
11
8.3297702773
21
19.2277972098
62
2
0
LINE
8
Setbacks
10
8.3297702773
20
19.2277972098
11
8.3302152991
21
19.2275383729
62
2
0
LINE
8
Setbacks
10
8.3302152991
20
19.2275383729
11
9.9706661390
21
18.0923375491
62
2
0
LINE
8
Setbacks
10
9.9706661390
20
18.0923375491
11
9.9710651898
21
18.0920122836
62
2
0
LINE
8
Setbacks
10
9.9710651898
20
18.0920122836
11
10.0841934743
21
17.9839673327
62
2
0
LINE
8
Setbacks
10
10.0841934743
20
17.9839673327
11
10.0845367322
21
17.9835836437
62
2
0
LINE
8
Setbacks
10
10.0845367322
20
17.9835836437
11
10.0848157418
21
17.9831509812
62
2
0
LINE
8
Setbacks
10
10.0848157418
20
17.9831509812
11
10.1590194844
21
17.8454354257
62
2
0
LINE
8
Setbacks
10
10.1590194844
20
17.8454354257
11
10.1592273771
21
17.8449644392
62
2
0
LINE
8
Setbacks
10
10.1592273771
20
17.8449644392
11
10.1593590311
21
17.8444667296
62
2
0
LINE
8
Setbacks
10
10.1593590311
20
17.8444667296
11
10.1873741238
21
17.6905612128
62
2
0
LINE
8
Setbacks
10
10.1873741238
20
17.6905612128
11
10.1874262972
21
17.6900490444
62
2
0
LINE
8
Setbacks
10
10.1874262972
20
17.6900490444
11
10.1873977081
21
17.6895350199
62
2
0
LINE
8
Setbacks
10
10.1873977081
20
17.6895350199
11
10.1664826812
21
17.5345051593
62
2
0
LINE
8
Setbacks
10
10.1664826812
20
17.5345051593
11
10.1663740318
21
17.5340019294
62
2
0
LINE
8
Setbacks
10
10.1663740318
20
17.5340019294
11
10.1661879973
21
17.5335218916
62
2
0
LINE
8
Setbacks
10
10.1661879973
20
17.5335218916
11
10.0983894387
21
17.3925425564
62
2
0
LINE
8
Setbacks
10
10.0983894387
20
17.3925425564
11
10.0981306003
21
17.3920975317
62
2
0
LINE
8
Setbacks
10
10.0981306003
20
17.3920975317
11
8.9397483454
21
15.7181480031
62
2
0
LINE
8
Setbacks
10
8.9397483454
20
15.7181480031
11
8.9394230800
21
15.7177489524
62
2
0
LINE
8
Setbacks
10
8.9394230800
20
15.7177489524
11
8.8313781290
21
15.6046206680
62
2
0
LINE
8
Setbacks
10
8.8313781290
20
15.6046206680
11
8.8309944377
21
15.6042774082
62
2
0
LINE
8
Setbacks
10
8.8309944377
20
15.6042774082
11
8.8305617723
21
15.6039983975
62
2
0
LINE
8
Setbacks
10
8.8305617723
20
15.6039983975
11
8.6928462167
21
15.5297949831
62
2
0
LINE
8
Setbacks
10
8.6928462167
20
15.5297949831
11
8.6923752359
21
15.5295870934
62
2
0
LINE
8
Setbacks
10
8.6923752359
20
15.5295870934
11
8.6918775326
21
15.5294554405
62
2
0
LINE
8
Setbacks
10
8.6918775326
20
15.5294554405
11
8.5379720159
21
15.5014400196
62
2
0
LINE
8
Setbacks
10
8.5379720159
20
15.5014400196
11
8.5374598408
21
15.5013878451
62
2
0
LINE
8
Setbacks
10
8.5374598408
20
15.5013878451
11
8.5369458095
21
15.5014164351
62
2
0
LINE
8
Setbacks
10
8.5369458095
20
15.5014164351
11
8.3819159489
21
15.5223317901
62
2
0
LINE
8
Setbacks
10
8.3819159489
20
15.5223317901
11
8.3814127254
21
15.5224404386
62
2
0
LINE
8
Setbacks
10
8.3814127254
20
15.5224404386
11
8.3809326936
21
15.5226264704
62
2
0
LINE
8
Setbacks
10
8.3809326936
20
15.5226264704
11
8.2399533584
21
15.5904247009
62
2
0
LINE
8
Setbacks
10
8.2399533584
20
15.5904247009
11
8.2395083282
21
15.5906835418
62
2
0
LINE
8
Setbacks
10
8.2395083282
20
15.5906835418
11
6.5990574883
21
16.7258843656
62
2
0
LINE
8
Setbacks
10
-1.6015587503
20
-14.2498982312
11
-1.6018840159
21
-14.2502972821
62
2
0
LINE
8
Setbacks
10
-1.6018840159
20
-14.2502972821
11
-1.7099289668
21
-14.3634255666
62
2
0
LINE
8
Setbacks
10
-1.7099289668
20
-14.3634255666
11
-1.7103126582
21
-14.3637688263
62
2
0
LINE
8
Setbacks
10
-1.7103126582
20
-14.3637688263
11
-1.7107453236
21
-14.3640478370
62
2
0
LINE
8
Setbacks
10
-1.7107453236
20
-14.3640478370
11
-1.8484608792
21
-14.4382512515
62
2
0
LINE
8
Setbacks
10
-1.8484608792
20
-14.4382512515
11
-1.8489318600
21
-14.4384591412
62
2
0
LINE
8
Setbacks
10
-1.8489318600
20
-14.4384591412
11
-1.8494295633
21
-14.4385907941
62
2
0
LINE
8
Setbacks
10
-1.8494295633
20
-14.4385907941
11
-2.0033350800
21
-14.4666062149
62
2
0
LINE
8
Setbacks
10
-2.0033350800
20
-14.4666062149
11
-2.0038472546
21
-14.4666583895
62
2
0
LINE
8
Setbacks
10
-2.0038472546
20
-14.4666583895
11
-2.0043612854
21
-14.4666297996
62
2
0
LINE
8
Setbacks
10
-2.0043612854
20
-14.4666297996
11
-2.1593914741
21
-14.4457144446
62
2
0
LINE
8
Setbacks
10
-2.1593914741
20
-14.4457144446
11
-2.1598947024
21
-14.4456057947
62
2
0
LINE
8
Setbacks
10
-2.1598947024
20
-14.4456057947
11
-2.1603747386
21
-14.4454197602
62
2
0
LINE
8
Setbacks
10
-2.1603747386
20
-14.4454197602
11
-2.3013537458
21
-14.3776212016
62
2
0
LINE
8
Setbacks
10
-2.3013537458
20
-14.3776212016
11
-2.3017987670
21
-14.3773623651
62
2
0
LINE
8
Setbacks
10
-2.3017987670
20
-14.3773623651
11
-3.2511764220
21
-13.7203882627
62
2
0
LINE
8
Setbacks
10
-3.2511764220
20
-13.7203882627
11
-3.2515754771
21
-13.7200629933
62
2
0
LINE
8
Setbacks
10
-3.2515754771
20
-13.7200629933
11
-3.3647037615
21
-13.6120177143
62
2
0
LINE
8
Setbacks
10
-3.3647037615
20
-13.6120177143
11
-3.3650470192
21
-13.6116340244
62
2
0
LINE
8
Setbacks
10
-3.3650470192
20
-13.6116340244
11
-3.3653260284
21
-13.6112013609
62
2
0
LINE
8
Setbacks
10
-3.3653260284
20
-13.6112013609
11
-3.4395294428
21
-13.4734858054
62
2
0
LINE
8
Setbacks
10
-3.4395294428
20
-13.4734858054
11
-3.4397373325
21
-13.4730148246
62
2
0
LINE
8
Setbacks
10
-3.4397373325
20
-13.4730148246
11
-3.4398689854
21
-13.4725171213
62
2
0
LINE
8
Setbacks
10
-3.4398689854
20
-13.4725171213
11
-3.4678844063
21
-13.3186116045
62
2
0
LINE
8
Setbacks
10
-3.4678844063
20
-13.3186116045
11
-3.4679365808
21
-13.3180994295
62
2
0
LINE
8
Setbacks
10
-3.4679365808
20
-13.3180994295
11
-3.4679079908
21
-13.3175853982
62
2
0
LINE
8
Setbacks
10
-3.4679079908
20
-13.3175853982
11
-3.4469926358
21
-13.1625555376
62
2
0
LINE
8
Setbacks
10
-3.4469926358
20
-13.1625555376
11
-3.4468839860
21
-13.1620523097
62
2
0
LINE
8
Setbacks
10
-3.4468839860
20
-13.1620523097
11
-3.4466979516
21
-13.1615722740
62
2
0
LINE
8
Setbacks
10
-3.4466979516
20
-13.1615722740
11
-3.3788993930
21
-13.0205932668
62
2
0
LINE
8
Setbacks
10
-3.3788993930
20
-13.0205932668
11
-3.3786405561
21
-13.0201482452
62
2
0
LINE
8
Setbacks
10
-3.3786405561
20
-13.0201482452
11
1.7295123569
21
-5.6384807145
62
2
0
LINE
8
Setbacks
10
1.7295123569
20
-5.6384807145
11
1.3922243169
21
-5.4050756605
62
2
0
LINE
8
Setbacks
10
1.3922243169
20
-5.4050756605
11
1.3918252621
21
-5.4047503913
62
2
0
LINE
8
Setbacks
10
1.3918252621
20
-5.4047503913
11
1.2786969776
21
-5.2967051122
62
2
0
LINE
8
Setbacks
10
1.2786969776
20
-5.2967051122
11
1.2783537200
21
-5.2963214223
62
2
0
LINE
8
Setbacks
10
1.2783537200
20
-5.2963214223
11
1.2780747108
21
-5.2958887589
62
2
0
LINE
8
Setbacks
10
1.2780747108
20
-5.2958887589
11
1.2038712963
21
-5.1581732033
62
2
0
LINE
8
Setbacks
10
1.2038712963
20
-5.1581732033
11
1.2036634066
21
-5.1577022225
62
2
0
LINE
8
Setbacks
10
1.2036634066
20
-5.1577022225
11
1.2035317537
21
-5.1572045192
62
2
0
LINE
8
Setbacks
10
1.2035317537
20
-5.1572045192
11
1.1755163329
21
-5.0032990025
62
2
0
LINE
8
Setbacks
10
1.1755163329
20
-5.0032990025
11
1.1754641583
21
-5.0027868274
62
2
0
LINE
8
Setbacks
10
1.1754641583
20
-5.0027868274
11
1.1754927483
21
-5.0022727962
62
2
0
LINE
8
Setbacks
10
1.1754927483
20
-5.0022727962
11
1.1964081033
21
-4.8472429356
62
2
0
LINE
8
Setbacks
10
1.1964081033
20
-4.8472429356
11
1.1965167532
21
-4.8467397077
62
2
0
LINE
8
Setbacks
10
1.1965167532
20
-4.8467397077
11
1.1967027876
21
-4.8462596719
62
2
0
LINE
8
Setbacks
10
1.1967027876
20
-4.8462596719
11
1.2645013462
21
-4.7052806648
62
2
0
LINE
8
Setbacks
10
1.2645013462
20
-4.7052806648
11
1.2647601828
21
-4.7048356434
62
2
0
LINE
8
Setbacks
10
1.2647601828
20
-4.7048356434
11
2.9629344497
21
-2.2508447512
62
2
0
LINE
8
Setbacks
10
2.9629344497
20
-2.2508447512
11
2.9632597223
21
-2.2504456929
62
2
0
LINE
8
Setbacks
10
2.9632597223
20
-2.2504456929
11
3.0713050014
21
-2.1373177366
62
2
0
LINE
8
Setbacks
10
3.0713050014
20
-2.1373177366
11
3.0716886875
21
-2.1369744827
62
2
0
LINE
8
Setbacks
10
3.0716886875
20
-2.1369744827
11
3.0721213461
21
-2.1366954760
62
2
0
LINE
8
Setbacks
10
3.0721213461
20
-2.1366954760
11
3.2098369017
21
-2.0624917335
62
2
0
LINE
8
Setbacks
10
3.2098369017
20
-2.0624917335
11
3.2103078881
21
-2.0622838408
62
2
0
LINE
8
Setbacks
10
3.2103078881
20
-2.0622838408
11
3.2108055977
21
-2.0621521868
62
2
0
LINE
8
Setbacks
10
3.2108055977
20
-2.0621521868
11
3.3647111145
21
-2.0341370940
62
2
0
LINE
8
Setbacks
10
3.3647111145
20
-2.0341370940
11
3.3652232829
21
-2.0340849207
62
2
0
LINE
8
Setbacks
10
3.3652232829
20
-2.0340849207
11
3.3657373074
21
-2.0341135098
62
2
0
LINE
8
Setbacks
10
3.3657373074
20
-2.0341135098
11
3.5207671680
21
-2.0550285367
62
2
0
LINE
8
Setbacks
10
3.5207671680
20
-2.0550285367
11
3.5212703979
21
-2.0551371861
62
2
0
LINE
8
Setbacks
10
3.5212703979
20
-2.0551371861
11
3.5217504357
21
-2.0553232206
62
2
0
LINE
8
Setbacks
10
3.5217504357
20
-2.0553232206
11
3.6627297709
21
-2.1231217792
62
2
0
LINE
8
Setbacks
10
3.6627297709
20
-2.1231217792
11
3.6631747955
21
-2.1233806175
62
2
0
LINE
8
Setbacks
10
3.6631747955
20
-2.1233806175
11
5.9466102360
21
-3.7035302743
62
2
0
LINE
8
Setbacks
10
5.9466102360
20
-3.7035302743
11
5.9470092904
21
-3.7038555433
62
2
0
LINE
8
Setbacks
10
5.9470092904
20
-3.7038555433
11
6.0601375748
21
-3.8119008223
62
2
0
LINE
8
Setbacks
10
6.0601375748
20
-3.8119008223
11
6.0604808306
21
-3.8122845098
62
2
0
LINE
8
Setbacks
10
6.0604808306
20
-3.8122845098
11
6.0607598388
21
-3.8127171703
62
2
0
LINE
8
Setbacks
10
6.0607598388
20
-3.8127171703
11
6.1349635813
21
-3.9504327259
62
2
0
LINE
8
Setbacks
10
6.1349635813
20
-3.9504327259
11
6.1351714740
21
-3.9509037124
62
2
0
LINE
8
Setbacks
10
6.1351714740
20
-3.9509037124
11
6.1353031280
21
-3.9514014220
62
2
0
LINE
8
Setbacks
10
6.1353031280
20
-3.9514014220
11
6.1633182208
21
-4.1053069387
62
2
0
LINE
8
Setbacks
10
6.1633182208
20
-4.1053069387
11
6.1633703941
21
-4.1058191071
62
2
0
LINE
8
Setbacks
10
6.1633703941
20
-4.1058191071
11
6.1633418050
21
-4.1063331316
62
2
0
LINE
8
Setbacks
10
6.1633418050
20
-4.1063331316
11
6.1424267781
21
-4.2613629922
62
2
0
LINE
8
Setbacks
10
6.1424267781
20
-4.2613629922
11
6.1423181283
21
-4.2618662236
62
2
0
LINE
8
Setbacks
10
6.1423181283
20
-4.2618662236
11
6.1421320929
21
-4.2623462626
62
2
0
LINE
8
Setbacks
10
6.1421320929
20
-4.2623462626
11
6.0743335343
21
-4.4033252697
62
2
0
LINE
8
Setbacks
10
6.0743335343
20
-4.4033252697
11
6.0740746974
21
-4.4037702915
62
2
0
LINE
8
Setbacks
10
6.0740746974
20
-4.4037702915
11
4.3759001024
21
-6.8577608556
62
2
0
LINE
8
Setbacks
10
4.3759001024
20
-6.8577608556
11
4.3755748334
21
-6.8581599101
62
2
0
LINE
8
Setbacks
10
4.3755748334
20
-6.8581599101
11
4.2675295543
21
-6.9712881945
62
2
0
LINE
8
Setbacks
10
4.2675295543
20
-6.9712881945
11
4.2671458669
21
-6.9716314503
62
2
0
LINE
8
Setbacks
10
4.2671458669
20
-6.9716314503
11
4.2667132064
21
-6.9719104585
62
2
0
LINE
8
Setbacks
10
4.2667132064
20
-6.9719104585
11
4.1289976508
21
-7.0461142010
62
2
0
LINE
8
Setbacks
10
4.1289976508
20
-7.0461142010
11
4.1285266649
21
-7.0463220935
62
2
0
LINE
8
Setbacks
10
4.1285266649
20
-7.0463220935
11
4.1280289559
21
-7.0464537475
62
2
0
LINE
8
Setbacks
10
4.1280289559
20
-7.0464537475
11
3.9741237673
21
-7.0744688403
62
2
0
LINE
8
Setbacks
10
3.9741237673
20
-7.0744688403
11
3.9736115987
21
-7.0745210138
62
2
0
LINE
8
Setbacks
10
3.9736115987
20
-7.0745210138
11
3.9730975741
21
-7.0744924249
62
2
0
LINE
8
Setbacks
10
3.9730975741
20
-7.0744924249
11
3.8180673854
21
-7.0535773979
62
2
0
LINE
8
Setbacks
10
3.8180673854
20
-7.0535773979
11
3.8175641535
21
-7.0534687481
62
2
0
LINE
8
Setbacks
10
3.8175641535
20
-7.0534687481
11
3.8170841141
21
-7.0532827126
62
2
0
LINE
8
Setbacks
10
3.8170841141
20
-7.0532827126
11
3.6761051069
21
-6.9854841540
62
2
0
LINE
8
Setbacks
10
3.6761051069
20
-6.9854841540
11
3.6756600876
21
-6.9852253188
62
2
0
LINE
8
Setbacks
10
3.6756600876
20
-6.9852253188
11
3.5065941646
21
-6.8682310258
62
2
0
LINE
8
Setbacks
10
3.5065941646
20
-6.8682310258
11
-1.6015587503
21
-14.2498982312
62
2
0
LINE
8
Setbacks
10
-19.8682479413
20
-31.4243237203
11
-19.8685710837
21
-31.4247244967
62
2
0
LINE
8
Setbacks
10
-19.8685710837
20
-31.4247244967
11
-19.9117248430
21
-31.4703919700
62
2
0
LINE
8
Setbacks
10
-28.4195106061
20
-25.6495856484
11
-28.3925809377
21
-25.5928180659
62
2
0
LINE
8
Setbacks
10
-28.3925809377
20
-25.5928180659
11
-28.3923244692
21
-25.5923716739
62
2
0
LINE
8
Setbacks
10
-28.3923244692
20
-25.5923716739
11
-21.5737054846
21
-15.6261663025
62
2
0
LINE
8
Setbacks
10
-21.5737054846
20
-15.6261663025
11
-21.5733823387
21
-15.6257655224
62
2
0
LINE
8
Setbacks
10
-21.5733823387
20
-15.6257655224
11
-21.4659397500
21
-15.5120647313
62
2
0
LINE
8
Setbacks
10
-21.4659397500
20
-15.5120647313
11
-21.4655578915
21
-15.5117194412
62
2
0
LINE
8
Setbacks
10
-21.4655578915
20
-15.5117194412
11
-21.4651267192
21
-15.5114381377
62
2
0
LINE
8
Setbacks
10
-21.4651267192
20
-15.5114381377
11
-21.3278074891
21
-15.4365037521
62
2
0
LINE
8
Setbacks
10
-21.3278074891
20
-15.4365037521
11
-21.3273376195
21
-15.4362933618
62
2
0
LINE
8
Setbacks
10
-21.3273376195
20
-15.4362933618
11
-21.3268406225
21
-15.4361590653
62
2
0
LINE
8
Setbacks
10
-21.3268406225
20
-15.4361590653
11
-21.1730863525
21
-15.4073260591
62
2
0
LINE
8
Setbacks
10
-21.1730863525
20
-15.4073260591
11
-21.1725744609
21
-15.4072711630
62
2
0
LINE
8
Setbacks
10
-21.1725744609
20
-15.4072711630
11
-21.1720602840
21
-15.4072970208
62
2
0
LINE
8
Setbacks
10
-21.1720602840
20
-15.4072970208
11
-21.0169211714
21
-15.4273882288
62
2
0
LINE
8
Setbacks
10
-21.0169211714
20
-15.4273882288
11
-21.0164173744
21
-15.4274942025
62
2
0
LINE
8
Setbacks
10
-21.0164173744
20
-15.4274942025
11
-21.0159363578
21
-15.4276776824
62
2
0
LINE
8
Setbacks
10
-21.0159363578
20
-15.4276776824
11
-20.8745990829
21
-15.4947259129
62
2
0
LINE
8
Setbacks
10
-20.8745990829
20
-15.4947259129
11
-20.8741526909
21
-15.4949823814
62
2
0
LINE
8
Setbacks
10
-20.8741526909
20
-15.4949823814
11
-13.1808128778
21
-20.7585658831
62
2
0
LINE
8
Setbacks
10
-13.1808128778
20
-20.7585658831
11
-13.1804121013
21
-20.7588890256
62
2
0
LINE
8
Setbacks
10
-13.1804121013
20
-20.7588890256
11
-13.0667113103
21
-20.8663312863
62
2
0
LINE
8
Setbacks
10
-13.0667113103
20
-20.8663312863
11
-13.0663660180
21
-20.8667131462
62
2
0
LINE
8
Setbacks
10
-13.0663660180
20
-20.8667131462
11
-13.0660847130
21
-20.8671443205
62
2
0
LINE
8
Setbacks
10
-13.0660847130
20
-20.8671443205
11
-12.9911503274
21
-21.0044635506
62
2
0
LINE
8
Setbacks
10
-12.9911503274
20
-21.0044635506
11
-12.9909399371
21
-21.0049334202
62
2
0
LINE
8
Setbacks
10
-12.9909399371
20
-21.0049334202
11
-12.9908056406
21
-21.0054304171
62
2
0
LINE
8
Setbacks
10
-12.9908056406
20
-21.0054304171
11
-12.9619726344
21
-21.1591846872
62
2
0
LINE
8
Setbacks
10
-12.9619726344
20
-21.1591846872
11
-12.9619177384
21
-21.1596965753
62
2
0
LINE
8
Setbacks
10
-12.9619177384
20
-21.1596965753
11
-12.9619435953
21
-21.1602107489
62
2
0
LINE
8
Setbacks
10
-12.9619435953
20
-21.1602107489
11
-12.9820344752
21
-21.3153498615
62
2
0
LINE
8
Setbacks
10
-12.9820344752
20
-21.3153498615
11
-12.9821404483
21
-21.3158536606
62
2
0
LINE
8
Setbacks
10
-12.9821404483
20
-21.3158536606
11
-12.9823239284
21
-21.3163346792
62
2
0
LINE
8
Setbacks
10
-12.9823239284
20
-21.3163346792
11
-13.0493721589
21
-21.4576722822
62
2
0
LINE
8
Setbacks
10
-13.0493721589
20
-21.4576722822
11
-13.0496286286
21
-21.4581186769
62
2
0
LINE
8
Setbacks
10
-13.0496286286
20
-21.4581186769
11
-19.8682479413
21
-31.4243237203
62
2
0
CIRCLE
8
Obstructions
10
-8.4996957420
20
-18.5266293637
40
0.6527759044
62
252
0
CIRCLE
8
Obstructions
10
-5.4537758635
20
-15.3180955211
40
0.9889678636
62
252
0
CIRCLE
8
Obstructions
10
8.8905346833
20
1.2727140727
40
0.2702761835
62
252
0
LINE
8
Obstructions
10
-27.9769559886
20
-25.8765559130
11
-20.2836161835
21
-31.1401394270
62
252
0
LINE
8
Obstructions
10
-20.2836161835
20
-31.1401394270
11
-13.4649971442
21
-21.1739342456
62
252
0
LINE
8
Obstructions
10
-13.4649971442
20
-21.1739342456
11
-21.1583369202
21
-15.9103507343
62
252
0
LINE
8
Obstructions
10
-21.1583369202
20
-15.9103507343
11
-27.9769559886
21
-25.8765559130
62
252
0
LINE
8
Obstructions
10
1.6786121691
20
-4.9912234488
11
3.9620479321
21
-6.5713731282
62
252
0
LINE
8
Obstructions
10
3.9620479321
20
-6.5713731282
11
5.6602225070
21
-4.1173824745
62
252
0
LINE
8
Obstructions
10
5.6602225070
20
-4.1173824745
11
3.3767867481
21
-2.5372327976
62
252
0
LINE
8
Obstructions
10
3.3767867481
20
-2.5372327976
11
1.6786121691
21
-4.9912234488
62
252
0
LINE
8
Obstructions
10
-2.9647884620
20
-13.3065359850
11
-2.0154108325
21
-13.9635103549
62
252
0
LINE
8
Obstructions
10
-2.0154108325
20
-13.9635103549
11
3.3088609333
21
-6.2695350539
62
252
0
LINE
8
Obstructions
10
3.3088609333
20
-6.2695350539
11
2.3594832788
21
-5.6125606814
62
252
0
LINE
8
Obstructions
10
2.3594832788
20
-5.6125606814
11
-2.9647884620
21
-13.3065359850
62
252
0
LINE
8
Obstructions
10
8.0438273596
20
18.8136863223
11
9.6842784057
21
17.6784854926
62
252
0
LINE
8
Obstructions
10
9.6842784057
20
17.6784854926
11
8.5258963457
21
16.0045358021
62
252
0
LINE
8
Obstructions
10
8.5258963457
20
16.0045358021
11
6.8854452995
21
17.1397366318
62
252
0
LINE
8
Obstructions
10
6.8854452995
20
17.1397366318
11
8.0438273596
21
18.8136863223
62
252
0
LINE
8
Inverters
10
-2.4821605784
20
15.6648287317
11
-0.0215305784
21
15.6648287317
0
LINE
8
Inverters
10
-0.0215305784
20
15.6648287317
11
-0.0215305784
21
18.1254587317
0
LINE
8
Inverters
10
-0.0215305784
20
18.1254587317
11
-2.4821605784
21
18.1254587317
0
LINE
8
Inverters
10
-2.4821605784
20
18.1254587317
11
-2.4821605784
21
15.6648287317
0
LINE
8
Inverters
10
-2.4821605784
20
15.6648287317
11
-0.0215305784
21
18.1254587317
0
TEXT
8
Inverters
100
AcDbText
10
-2.3181185784
20
17.2068235317
1
DC
7
NewTextStyle_4
40
0.7545932000000003
50
0
0
TEXT
8
Inverters
100
AcDbText
10
-1.4815043784
20
15.8288707317
1
AC
7
NewTextStyle_4
40
0.7545932000000003
50
0
0
LINE
8
Strings
10
-34.1645875460
20
-12.2422226059
11
-31.0920859724
21
-14.3477506603
62
11
0
LINE
8
Strings
10
-31.0920859724
20
-14.3477506603
11
-28.0225024560
21
-16.4459742881
62
11
0
LINE
8
Strings
10
-28.0225024560
20
-16.4459742881
11
-13.1202060523
21
-27.6455161529
62
11
0
LINE
8
Strings
10
-13.1202060523
20
-27.6455161529
11
-10.0477044828
21
-29.7437397781
62
11
0
LINE
8
Strings
10
-10.0477044828
20
-29.7437397781
11
-6.9781209623
21
-31.8456156179
62
11
0
LINE
8
Strings
10
-6.9781209623
20
-31.8456156179
11
4.3272553234
21
-19.1248614387
62
11
0
LINE
8
Strings
10
4.3272553234
20
-19.1248614387
11
1.2693539097
21
-17.0047101618
62
11
0
LINE
8
Strings
10
7.5836038195
20
-9.2176504620
11
10.6444232863
21
-11.3341495242
62
11
0
LINE
8
Strings
10
10.6444232863
20
-11.3341495242
11
13.7023246959
21
-13.4543008010
62
11
0
LINE
8
Strings
10
13.7023246959
20
-13.4543008010
11
16.7660622200
21
-15.5671476511
62
11
0
LINE
8
Strings
10
16.7660622200
20
-15.5671476511
11
22.4758343629
21
-7.4441658849
62
11
0
LINE
8
Strings
10
22.4758343629
20
-7.4441658849
11
19.4179329492
21
-5.3240146054
62
11
0
LINE
8
Strings
10
19.4179329492
20
-5.3240146054
11
16.3571134823
21
-3.2111677605
62
11
0
LINE
8
Strings
10
16.3571134823
20
-3.2111677605
11
13.2992120728
21
-1.0910164811
62
11
0
LINE
8
Strings
10
13.2992120728
20
-1.0910164811
11
6.0072128987
21
4.2175179501
62
11
0
LINE
8
Strings
10
6.0072128987
20
4.2175179501
11
2.9493114891
21
6.3376692270
62
11
0
LINE
8
Strings
10
34.0592301144
20
8.7690093740
11
31.0013287007
21
10.8855084388
62
11
0
LINE
8
Strings
10
31.0013287007
20
10.8855084388
11
27.9405092338
21
13.0020074983
62
11
0
LINE
8
Strings
10
27.9405092338
20
13.0020074983
11
24.8796897670
21
15.1221587778
62
11
0
LINE
8
Strings
10
24.8796897670
20
15.1221587778
11
21.8188703002
21
17.2350056253
62
11
0
LINE
8
Strings
10
21.8188703002
20
17.2350056253
11
18.7609688865
21
19.3551569021
62
11
0
LINE
8
Strings
10
18.7609688865
20
19.3551569021
11
15.7030674728
21
21.4716559643
62
11
0
LINE
8
Strings
10
15.7030674728
20
21.4716559643
11
12.6422480018
21
23.5881550264
62
11
0
LINE
8
Strings
10
28.3229752813
20
0.7683359626
11
25.2621558145
21
2.8884872395
62
11
0
LINE
8
Strings
10
25.2621558145
20
2.8884872395
11
22.2042544049
21
5.0013340895
62
11
0
LINE
8
Strings
10
22.2042544049
20
5.0013340895
11
19.1434349340
21
7.1214853638
62
11
0
LINE
8
Strings
10
19.1434349340
20
7.1214853638
11
16.0855335203
21
9.2379844286
62
11
0
LINE
8
Strings
10
16.0855335203
20
9.2379844286
11
13.0276321107
21
11.3544834881
62
11
0
LINE
8
Strings
10
13.0276321107
20
11.3544834881
11
9.9668126439
21
13.4709825529
62
11
0
LINE
8
Connections
10
1.2693539097
20
-17.0047101618
11
1.5493942133
21
-16.6000307477
62
91
0
LINE
8
Connections
10
1.5493942133
20
-16.6000307477
11
1.1447147991
21
-16.3199904441
62
91
0
LINE
8
Connections
10
1.1447147991
20
-16.3199904441
11
-15.6134304085
21
-4.7232649702
62
91
0
LINE
8
Connections
10
-15.6134304085
20
-4.7232649702
11
-1.1272064678
21
16.2104240140
62
91
0
LINE
8
Connections
10
-1.1272064678
20
16.2104240140
11
-0.8471661643
21
16.6151034281
62
91
0
LINE
8
Connections
10
-0.8471661643
20
16.6151034281
11
-1.2518455784
21
16.8951437317
62
91
0
LINE
8
Connections
10
2.9493114891
20
6.3376692270
11
3.2293517927
21
6.7423486411
62
91
0
LINE
8
Connections
10
3.2293517927
20
6.7423486411
11
2.8246723785
21
7.0223889447
62
91
0
LINE
8
Connections
10
2.8246723785
20
7.0223889447
11
-4.1468927337
21
11.8467490233
62
91
0
LINE
8
Connections
10
-4.1468927337
20
11.8467490233
11
-1.1272064678
21
16.2104240140
62
91
0
LINE
8
Connections
10
-1.1272064678
20
16.2104240140
11
-0.8471661643
21
16.6151034281
62
91
0
LINE
8
Connections
10
-0.8471661643
20
16.6151034281
11
-1.2518455784
21
16.8951437317
62
91
0
LINE
8
Connections
10
12.6422480018
20
23.5881550264
11
12.3622076982
21
23.1834756123
62
91
0
LINE
8
Connections
10
12.3622076982
20
23.1834756123
11
11.9575282840
21
23.4635159158
62
91
0
LINE
8
Connections
10
11.9575282840
20
23.4635159158
11
6.5036687290
21
27.2376156894
62
91
0
LINE
8
Connections
10
6.5036687290
20
27.2376156894
11
-0.5671258607
21
17.0197828423
62
91
0
LINE
8
Connections
10
-0.5671258607
20
17.0197828423
11
-0.8471661643
21
16.6151034281
62
91
0
LINE
8
Connections
10
-0.8471661643
20
16.6151034281
11
-1.2518455784
21
16.8951437317
62
91
0
LINE
8
Connections
10
9.9668126439
20
13.4709825529
11
9.6867723403
21
13.0663031387
62
91
0
LINE
8
Connections
10
9.6867723403
20
13.0663031387
11
9.2820929261
21
13.3463434423
62
91
0
LINE
8
Connections
10
9.2820929261
20
13.3463434423
11
0.9032313279
21
19.1445601623
62
91
0
LINE
8
Connections
10
0.9032313279
20
19.1445601623
11
-0.5671258607
21
17.0197828423
62
91
0
LINE
8
Connections
10
-0.5671258607
20
17.0197828423
11
-0.8471661643
21
16.6151034281
62
91
0
LINE
8
Connections
10
-0.8471661643
20
16.6151034281
11
-1.2518455784
21
16.8951437317
62
91
0
ENDSEC
0
EOF