999
Design created by Aurora
0
SECTION
2
HEADER
9
$ACADVER
1
AC1009
9
$INSUNITS
70
2
0
ENDSEC
0
SECTION
2
TABLES
0
TABLE
2
LTYPE
100
AcDbLinetypeTableRecord
2
LTYPE
0
LTYPE
2
DASHED
70
0
3
dashed line
72
65
73
2
40
4.0
49
2.0
49
-2.0
0
ENDTAB
0
TABLE
2
LAYER
70
5
0
LAYER
100
AcDbSymbolTable
100
AcDbLayerTable
2
Obstructions
70
0
62
7
6
CONTINUOUS
0
LAYER
100
AcDbSymbolTable
100
AcDbLayerTable
2
Setbacks
70
0
62
7
6
CONTINUOUS
0
LAYER
100
AcDbSymbolTable
100
AcDbLayerTable
2
Walkways
70
0
62
7
6
CONTINUOUS
0
LAYER
100
AcDbSymbolTable
100
AcDbLayerTable
2
Modules
70
0
62
7
6
CONTINUOUS
0
LAYER
100
AcDbSymbolTable
100
AcDbLayerTable
2
Buildings
70
0
62
7
6
CONTINUOUS
0
ENDTAB
0
ENDSEC
0
SECTION
2
ENTITIES
0
LINE
8
Modules
10
-15.9543624684
20
-11.2694628844
11
-15.1859790665
21
-15.9208300447
62
254
0
LINE
8
Modules
10
-15.1859790665
20
-15.9208300447
11
-11.2312436736
21
-15.2675268136
62
254
0
LINE
8
Modules
10
-11.2312436736
20
-15.2675268136
11
-11.9996270756
21
-10.6161596533
62
254
0
LINE
8
Modules
10
-11.9996270756
20
-10.6161596533
11
-15.9543624684
21
-11.2694628844
62
254
0
LINE
8
Modules
10
-13.9305828156
20
-13.7399575371
11
-13.1213403830
21
-13.6062745935
62
254
0
LINE
8
Modules
10
-13.1213403830
20
-13.6062745935
11
-13.2550233265
21
-12.7970321609
62
254
0
LINE
8
Modules
10
-13.2550233265
20
-12.7970321609
11
-14.0642657591
21
-12.9307151045
62
254
0
LINE
8
Modules
10
-14.0642657591
20
-12.9307151045
11
-13.9305828156
21
-13.7399575371
62
254
0
LINE
8
Modules
10
-13.9305828156
20
-13.7399575371
11
-13.2550233265
21
-12.7970321609
62
254
0
TEXT
8
Modules
100
AcDbText
10
-13.9649116946
20
-13.2302062522
1
DC
7
NewTextStyle_4
40
0.2624672000000003
50
9.380270957946701
0
TEXT
8
Modules
100
AcDbText
10
-13.6149068191
20
-13.6379298137
1
AC
7
NewTextStyle_4
40
0.2624672000000003
50
9.380270957946701
0
LINE
8
Modules
10
-20.6778542397
20
-7.2702881351
11
-19.9094708377
21
-11.9216552954
62
254
0
LINE
8
Modules
10
-19.9094708377
20
-11.9216552954
11
-15.9547354449
21
-11.2683520642
62
254
0
LINE
8
Modules
10
-15.9547354449
20
-11.2683520642
11
-16.7231188468
21
-6.6169849040
62
254
0
LINE
8
Modules
10
-16.7231188468
20
-6.6169849040
11
-20.6778542397
21
-7.2702881351
62
254
0
LINE
8
Modules
10
-18.6540745868
20
-9.7407827877
11
-17.8448321542
21
-9.6070998442
62
254
0
LINE
8
Modules
10
-17.8448321542
20
-9.6070998442
11
-17.9785150978
21
-8.7978574116
62
254
0
LINE
8
Modules
10
-17.9785150978
20
-8.7978574116
11
-18.7877575304
21
-8.9315403551
62
254
0
LINE
8
Modules
10
-18.7877575304
20
-8.9315403551
11
-18.6540745868
21
-9.7407827877
62
254
0
LINE
8
Modules
10
-18.6540745868
20
-9.7407827877
11
-17.9785150978
21
-8.7978574116
62
254
0
TEXT
8
Modules
100
AcDbText
10
-18.6884034659
20
-9.2310315029
1
DC
7
NewTextStyle_4
40
0.2624672000000003
50
9.380270957946701
0
TEXT
8
Modules
100
AcDbText
10
-18.3383985904
20
-9.6387550644
1
AC
7
NewTextStyle_4
40
0.2624672000000003
50
9.380270957946701
0
LINE
8
Modules
10
-16.7216745962
20
-6.6165417612
11
-15.9532911942
21
-11.2679089215
62
254
0
LINE
8
Modules
10
-15.9532911942
20
-11.2679089215
11
-11.9985558014
21
-10.6146056903
62
254
0
LINE
8
Modules
10
-11.9985558014
20
-10.6146056903
11
-12.7669392033
21
-5.9632385300
62
254
0
LINE
8
Modules
10
-12.7669392033
20
-5.9632385300
11
-16.7216745962
21
-6.6165417612
62
254
0
LINE
8
Modules
10
-14.6978949433
20
-9.0870364138
11
-13.8886525107
21
-8.9533534703
62
254
0
LINE
8
Modules
10
-13.8886525107
20
-8.9533534703
11
-14.0223354543
21
-8.1441110377
62
254
0
LINE
8
Modules
10
-14.0223354543
20
-8.1441110377
11
-14.8315778869
21
-8.2777939812
62
254
0
LINE
8
Modules
10
-14.8315778869
20
-8.2777939812
11
-14.6978949433
21
-9.0870364138
62
254
0
LINE
8
Modules
10
-14.6978949433
20
-9.0870364138
11
-14.0223354543
21
-8.1441110377
62
254
0
TEXT
8
Modules
100
AcDbText
10
-14.7322238224
20
-8.5772851290
1
DC
7
NewTextStyle_4
40
0.2624672000000003
50
9.380270957946701
0
TEXT
8
Modules
100
AcDbText
10
-14.3822189469
20
-8.9850086904
1
AC
7
NewTextStyle_4
40
0.2624672000000003
50
9.380270957946701
0
LINE
8
Modules
10
-12.7684124875
20
-5.9627953872
11
-12.0000290855
21
-10.6141625475
62
254
0
LINE
8
Modules
10
-12.0000290855
20
-10.6141625475
11
-8.0452936927
21
-9.9608593164
62
254
0
LINE
8
Modules
10
-8.0452936927
20
-9.9608593164
11
-8.8136770946
21
-5.3094921561
62
254
0
LINE
8
Modules
10
-8.8136770946
20
-5.3094921561
11
-12.7684124875
21
-5.9627953872
62
254
0
LINE
8
Modules
10
-10.7446328346
20
-8.4332900399
11
-9.9353904020
21
-8.2996070964
62
254
0
LINE
8
Modules
10
-9.9353904020
20
-8.2996070964
11
-10.0690733455
21
-7.4903646638
62
254
0
LINE
8
Modules
10
-10.0690733455
20
-7.4903646638
11
-10.8783157781
21
-7.6240476073
62
254
0
LINE
8
Modules
10
-10.8783157781
20
-7.6240476073
11
-10.7446328346
21
-8.4332900399
62
254
0
LINE
8
Modules
10
-10.7446328346
20
-8.4332900399
11
-10.0690733455
21
-7.4903646638
62
254
0
TEXT
8
Modules
100
AcDbText
10
-10.7789617136
20
-7.9235387551
1
DC
7
NewTextStyle_4
40
0.2624672000000003
50
9.380270957946701
0
TEXT
8
Modules
100
AcDbText
10
-10.4289568382
20
-8.3312623165
1
AC
7
NewTextStyle_4
40
0.2624672000000003
50
9.380270957946701
0
LINE
8
Modules
10
-11.9981828249
20
-10.6157165105
11
-11.2297994230
21
-15.2670836708
62
254
0
LINE
8
Modules
10
-11.2297994230
20
-15.2670836708
11
-7.2750640301
21
-14.6137804396
62
254
0
LINE
8
Modules
10
-7.2750640301
20
-14.6137804396
11
-8.0434474321
21
-9.9624132794
62
254
0
LINE
8
Modules
10
-8.0434474321
20
-9.9624132794
11
-11.9981828249
21
-10.6157165105
62
254
0
LINE
8
Modules
10
-9.9744031721
20
-13.0862111631
11
-9.1651607395
21
-12.9525282196
62
254
0
LINE
8
Modules
10
-9.1651607395
20
-12.9525282196
11
-9.2988436830
21
-12.1432857870
62
254
0
LINE
8
Modules
10
-9.2988436830
20
-12.1432857870
11
-10.1080861156
21
-12.2769687305
62
254
0
LINE
8
Modules
10
-10.1080861156
20
-12.2769687305
11
-9.9744031721
21
-13.0862111631
62
254
0
LINE
8
Modules
10
-9.9744031721
20
-13.0862111631
11
-9.2988436830
21
-12.1432857870
62
254
0
TEXT
8
Modules
100
AcDbText
10
-10.0087320511
20
-12.5764598783
1
DC
7
NewTextStyle_4
40
0.2624672000000003
50
9.380270957946701
0
TEXT
8
Modules
100
AcDbText
10
-9.6587271756
20
-12.9841834398
1
AC
7
NewTextStyle_4
40
0.2624672000000003
50
9.380270957946701
0
LINE
8
Modules
10
-48.9520290508
20
-4.8204547907
11
-54.1005419383
21
-5.7487144026
62
254
0
LINE
8
Modules
10
-54.1005419383
20
-5.7487144026
11
-53.3893201746
21
-9.6934451592
62
254
0
LINE
8
Modules
10
-53.3893201746
20
-9.6934451592
11
-48.2408072871
21
-8.7651855473
62
254
0
LINE
8
Modules
10
-48.2408072871
20
-8.7651855473
11
-48.9520290508
21
-4.8204547907
62
254
0
LINE
8
Modules
10
-51.6470395198
20
-6.9261196600
11
-51.5015049276
21
-7.7333148821
62
254
0
LINE
8
Modules
10
-51.5015049276
20
-7.7333148821
11
-50.6943097055
21
-7.5877802899
62
254
0
LINE
8
Modules
10
-50.6943097055
20
-7.5877802899
11
-50.8398442978
21
-6.7805850678
62
254
0
LINE
8
Modules
10
-50.8398442978
20
-6.7805850678
11
-51.6470395198
21
-6.9261196600
62
254
0
LINE
8
Modules
10
-51.6470395198
20
-6.9261196600
11
-50.6943097055
21
-7.5877802899
62
254
0
TEXT
8
Modules
100
AcDbText
10
-51.1378464066
20
-6.8843199261
1
DC
7
NewTextStyle_4
40
0.2624672000000003
50
-79.77956390380416
0
TEXT
8
Modules
100
AcDbText
10
-51.5403939696
20
-7.2402656733
1
AC
7
NewTextStyle_4
40
0.2624672000000003
50
-79.77956390380416
0
LINE
8
Modules
10
-43.8054944713
20
-3.8927923388
11
-48.9540073588
21
-4.8210519507
62
254
0
LINE
8
Modules
10
-48.9540073588
20
-4.8210519507
11
-48.2427855950
21
-8.7657827073
62
254
0
LINE
8
Modules
10
-48.2427855950
20
-8.7657827073
11
-43.0942727075
21
-7.8375230954
62
254
0
LINE
8
Modules
10
-43.0942727075
20
-7.8375230954
11
-43.8054944713
21
-3.8927923388
62
254
0
LINE
8
Modules
10
-46.5005049403
20
-5.9984572081
11
-46.3549703481
21
-6.8056524302
62
254
0
LINE
8
Modules
10
-46.3549703481
20
-6.8056524302
11
-45.5477751260
21
-6.6601178380
62
254
0
LINE
8
Modules
10
-45.5477751260
20
-6.6601178380
11
-45.6933097182
21
-5.8529226159
62
254
0
LINE
8
Modules
10
-45.6933097182
20
-5.8529226159
11
-46.5005049403
21
-5.9984572081
62
254
0
LINE
8
Modules
10
-46.5005049403
20
-5.9984572081
11
-45.5477751260
21
-6.6601178380
62
254
0
TEXT
8
Modules
100
AcDbText
10
-45.9913118271
20
-5.9566574743
1
DC
7
NewTextStyle_4
40
0.2624672000000003
50
-79.77956390380416
0
TEXT
8
Modules
100
AcDbText
10
-46.3938593901
20
-6.3126032214
1
AC
7
NewTextStyle_4
40
0.2624672000000003
50
-79.77956390380416
0
LINE
8
Modules
10
-38.6531248139
20
-2.9651298869
11
-43.8016377014
21
-3.8933894988
62
254
0
LINE
8
Modules
10
-43.8016377014
20
-3.8933894988
11
-43.0904159376
21
-7.8381202554
62
254
0
LINE
8
Modules
10
-43.0904159376
20
-7.8381202554
11
-37.9419030501
21
-6.9098606435
62
254
0
LINE
8
Modules
10
-37.9419030501
20
-6.9098606435
11
-38.6531248139
21
-2.9651298869
62
254
0
LINE
8
Modules
10
-41.3481352829
20
-5.0707947562
11
-41.2026006907
21
-5.8779899783
62
254
0
LINE
8
Modules
10
-41.2026006907
20
-5.8779899783
11
-40.3954054686
21
-5.7324553861
62
254
0
LINE
8
Modules
10
-40.3954054686
20
-5.7324553861
11
-40.5409400608
21
-4.9252601640
62
254
0
LINE
8
Modules
10
-40.5409400608
20
-4.9252601640
11
-41.3481352829
21
-5.0707947562
62
254
0
LINE
8
Modules
10
-41.3481352829
20
-5.0707947562
11
-40.3954054686
21
-5.7324553861
62
254
0
TEXT
8
Modules
100
AcDbText
10
-40.8389421697
20
-5.0289950224
1
DC
7
NewTextStyle_4
40
0.2624672000000003
50
-79.77956390380416
0
TEXT
8
Modules
100
AcDbText
10
-41.2414897327
20
-5.3849407695
1
AC
7
NewTextStyle_4
40
0.2624672000000003
50
-79.77956390380416
0
LINE
8
Modules
10
11.7786148548
20
24.3040633489
11
7.1272474402
21
23.5356800741
62
254
0
LINE
8
Modules
10
7.1272474402
20
23.5356800741
11
7.7805505744
21
19.5809446652
62
254
0
LINE
8
Modules
10
7.7805505744
20
19.5809446652
11
12.4319179891
21
20.3493279401
62
254
0
LINE
8
Modules
10
12.4319179891
20
20.3493279401
11
11.7786148548
21
24.3040633489
62
254
0
LINE
8
Modules
10
9.3081200385
20
22.2802837683
11
9.4418029534
21
21.4710413310
62
254
0
LINE
8
Modules
10
9.4418029534
20
21.4710413310
11
10.2510453907
21
21.6047242459
62
254
0
LINE
8
Modules
10
10.2510453907
20
21.6047242459
11
10.1173624758
21
22.4139666832
62
254
0
LINE
8
Modules
10
10.1173624758
20
22.4139666832
11
9.3081200385
21
22.2802837683
62
254
0
LINE
8
Modules
10
9.3081200385
20
22.2802837683
11
10.2510453907
21
21.6047242459
62
254
0
TEXT
8
Modules
100
AcDbText
10
9.8178713245
20
22.3146126293
1
DC
7
NewTextStyle_4
40
0.2624672000000003
50
-80.61973107028679
0
TEXT
8
Modules
100
AcDbText
10
9.4101477507
20
21.9646077683
1
AC
7
NewTextStyle_4
40
0.2624672000000003
50
-80.61973107028679
0
LINE
8
Modules
10
-8.8122328440
20
-5.3127012280
11
-8.0438494420
21
-9.9640683883
62
254
0
LINE
8
Modules
10
-8.0438494420
20
-9.9640683883
11
-4.0891140492
21
-9.3107651572
62
254
0
LINE
8
Modules
10
-4.0891140492
20
-9.3107651572
11
-4.8574974511
21
-4.6593979969
62
254
0
LINE
8
Modules
10
-4.8574974511
20
-4.6593979969
11
-8.8122328440
21
-5.3127012280
62
254
0
LINE
8
Modules
10
-6.7884531911
20
-7.7831958806
11
-5.9792107585
21
-7.6495129371
62
254
0
LINE
8
Modules
10
-5.9792107585
20
-7.6495129371
11
-6.1128937020
21
-6.8402705045
62
254
0
LINE
8
Modules
10
-6.1128937020
20
-6.8402705045
11
-6.9221361346
21
-6.9739534480
62
254
0
LINE
8
Modules
10
-6.9221361346
20
-6.9739534480
11
-6.7884531911
21
-7.7831958806
62
254
0
LINE
8
Modules
10
-6.7884531911
20
-7.7831958806
11
-6.1128937020
21
-6.8402705045
62
254
0
TEXT
8
Modules
100
AcDbText
10
-6.8227820701
20
-7.2734445958
1
DC
7
NewTextStyle_4
40
0.2624672000000003
50
9.380270957946701
0
TEXT
8
Modules
100
AcDbText
10
-6.4727771947
20
-7.6811681573
1
AC
7
NewTextStyle_4
40
0.2624672000000003
50
9.380270957946701
0
LINE
8
Modules
10
-48.2401501170
20
-8.7648463249
11
-53.3886630045
21
-9.6931059368
62
254
0
LINE
8
Modules
10
-53.3886630045
20
-9.6931059368
11
-52.6774412408
21
-13.6378366934
62
254
0
LINE
8
Modules
10
-52.6774412408
20
-13.6378366934
11
-47.5289283533
21
-12.7095770815
62
254
0
LINE
8
Modules
10
-47.5289283533
20
-12.7095770815
11
-48.2401501170
21
-8.7648463249
62
254
0
LINE
8
Modules
10
-50.9351605860
20
-10.8705111942
11
-50.7896259938
21
-11.6777064163
62
254
0
LINE
8
Modules
10
-50.7896259938
20
-11.6777064163
11
-49.9824307717
21
-11.5321718241
62
254
0
LINE
8
Modules
10
-49.9824307717
20
-11.5321718241
11
-50.1279653640
21
-10.7249766020
62
254
0
LINE
8
Modules
10
-50.1279653640
20
-10.7249766020
11
-50.9351605860
21
-10.8705111942
62
254
0
LINE
8
Modules
10
-50.9351605860
20
-10.8705111942
11
-49.9824307717
21
-11.5321718241
62
254
0
TEXT
8
Modules
100
AcDbText
10
-50.4259674728
20
-10.8287114604
1
DC
7
NewTextStyle_4
40
0.2624672000000003
50
-79.77956390380416
0
TEXT
8
Modules
100
AcDbText
10
-50.8285150358
20
-11.1846572075
1
AC
7
NewTextStyle_4
40
0.2624672000000003
50
-79.77956390380416
0
LINE
8
Modules
10
-43.0936155375
20
-7.8371838705
11
-48.2421284250
21
-8.7654434824
62
254
0
LINE
8
Modules
10
-48.2421284250
20
-8.7654434824
11
-47.5309066612
21
-12.7101742390
62
254
0
LINE
8
Modules
10
-47.5309066612
20
-12.7101742390
11
-42.3823937737
21
-11.7819146271
62
254
0
LINE
8
Modules
10
-42.3823937737
20
-11.7819146271
11
-43.0936155375
21
-7.8371838705
62
254
0
LINE
8
Modules
10
-45.7886260065
20
-9.9428487398
11
-45.6430914143
21
-10.7500439619
62
254
0
LINE
8
Modules
10
-45.6430914143
20
-10.7500439619
11
-44.8358961922
21
-10.6045093697
62
254
0
LINE
8
Modules
10
-44.8358961922
20
-10.6045093697
11
-44.9814307844
21
-9.7973141476
62
254
0
LINE
8
Modules
10
-44.9814307844
20
-9.7973141476
11
-45.7886260065
21
-9.9428487398
62
254
0
LINE
8
Modules
10
-45.7886260065
20
-9.9428487398
11
-44.8358961922
21
-10.6045093697
62
254
0
TEXT
8
Modules
100
AcDbText
10
-45.2794328933
20
-9.9010490059
1
DC
7
NewTextStyle_4
40
0.2624672000000003
50
-79.77956390380416
0
TEXT
8
Modules
100
AcDbText
10
-45.6819804563
20
-10.2569947531
1
AC
7
NewTextStyle_4
40
0.2624672000000003
50
-79.77956390380416
0
LINE
8
Modules
10
-37.9412458843
20
-6.9095214186
11
-43.0897587718
21
-7.8377810305
62
254
0
LINE
8
Modules
10
-43.0897587718
20
-7.8377810305
11
-42.3785370080
21
-11.7825117871
62
254
0
LINE
8
Modules
10
-42.3785370080
20
-11.7825117871
11
-37.2300241205
21
-10.8542521752
62
254
0
LINE
8
Modules
10
-37.2300241205
20
-10.8542521752
11
-37.9412458843
21
-6.9095214186
62
254
0
LINE
8
Modules
10
-40.6362563533
20
-9.0151862879
11
-40.4907217611
21
-9.8223815100
62
254
0
LINE
8
Modules
10
-40.4907217611
20
-9.8223815100
11
-39.6835265390
21
-9.6768469178
62
254
0
LINE
8
Modules
10
-39.6835265390
20
-9.6768469178
11
-39.8290611312
21
-8.8696516957
62
254
0
LINE
8
Modules
10
-39.8290611312
20
-8.8696516957
11
-40.6362563533
21
-9.0151862879
62
254
0
LINE
8
Modules
10
-40.6362563533
20
-9.0151862879
11
-39.6835265390
21
-9.6768469178
62
254
0
TEXT
8
Modules
100
AcDbText
10
-40.1270632400
20
-8.9733865541
1
DC
7
NewTextStyle_4
40
0.2624672000000003
50
-79.77956390380416
0
TEXT
8
Modules
100
AcDbText
10
-40.5296108031
20
-9.3293323012
1
AC
7
NewTextStyle_4
40
0.2624672000000003
50
-79.77956390380416
0
LINE
8
Modules
10
12.4321430557
20
20.3487151732
11
7.7807756411
21
19.5803318984
62
254
0
LINE
8
Modules
10
7.7807756411
20
19.5803318984
11
8.4340787753
21
15.6255964895
62
254
0
LINE
8
Modules
10
8.4340787753
20
15.6255964895
11
13.0854461900
21
16.3939797644
62
254
0
LINE
8
Modules
10
13.0854461900
20
16.3939797644
11
12.4321430557
21
20.3487151732
62
254
0
LINE
8
Modules
10
9.9616482394
20
18.3249355926
11
10.0953311543
21
17.5156931553
62
254
0
LINE
8
Modules
10
10.0953311543
20
17.5156931553
11
10.9045735916
21
17.6493760701
62
254
0
LINE
8
Modules
10
10.9045735916
20
17.6493760701
11
10.7708906767
21
18.4586185075
62
254
0
LINE
8
Modules
10
10.7708906767
20
18.4586185075
11
9.9616482394
21
18.3249355926
62
254
0
LINE
8
Modules
10
9.9616482394
20
18.3249355926
11
10.9045735916
21
17.6493760701
62
254
0
TEXT
8
Modules
100
AcDbText
10
10.4713995255
20
18.3592644536
1
DC
7
NewTextStyle_4
40
0.2624672000000003
50
-80.61973107028679
0
TEXT
8
Modules
100
AcDbText
10
10.0636759516
20
18.0092595926
1
AC
7
NewTextStyle_4
40
0.2624672000000003
50
-80.61973107028679
0
LINE
8
Modules
10
-47.5311887222
20
-12.7128900713
11
-52.6797016097
21
-13.6411496832
62
254
0
LINE
8
Modules
10
-52.6797016097
20
-13.6411496832
11
-51.9684798459
21
-17.5858804398
62
254
0
LINE
8
Modules
10
-51.9684798459
20
-17.5858804398
11
-46.8199669584
21
-16.6576208279
62
254
0
LINE
8
Modules
10
-46.8199669584
20
-16.6576208279
11
-47.5311887222
21
-12.7128900713
62
254
0
LINE
8
Modules
10
-50.2261991912
20
-14.8185549406
11
-50.0806645990
21
-15.6257501627
62
254
0
LINE
8
Modules
10
-50.0806645990
20
-15.6257501627
11
-49.2734693769
21
-15.4802155705
62
254
0
LINE
8
Modules
10
-49.2734693769
20
-15.4802155705
11
-49.4190039691
21
-14.6730203484
62
254
0
LINE
8
Modules
10
-49.4190039691
20
-14.6730203484
11
-50.2261991912
21
-14.8185549406
62
254
0
LINE
8
Modules
10
-50.2261991912
20
-14.8185549406
11
-49.2734693769
21
-15.4802155705
62
254
0
TEXT
8
Modules
100
AcDbText
10
-49.7170060779
20
-14.7767552067
1
DC
7
NewTextStyle_4
40
0.2624672000000003
50
-79.77956390380416
0
TEXT
8
Modules
100
AcDbText
10
-50.1195536410
20
-15.1327009539
1
AC
7
NewTextStyle_4
40
0.2624672000000003
50
-79.77956390380416
0
LINE
8
Modules
10
-42.3817366037
20
-11.7815754021
11
-47.5302494912
21
-12.7098350140
62
254
0
LINE
8
Modules
10
-47.5302494912
20
-12.7098350140
11
-46.8190277274
21
-16.6545657706
62
254
0
LINE
8
Modules
10
-46.8190277274
20
-16.6545657706
11
-41.6705148399
21
-15.7263061587
62
254
0
LINE
8
Modules
10
-41.6705148399
20
-15.7263061587
11
-42.3817366037
21
-11.7815754021
62
254
0
LINE
8
Modules
10
-45.0767470727
20
-13.8872402714
11
-44.9312124805
21
-14.6944354935
62
254
0
LINE
8
Modules
10
-44.9312124805
20
-14.6944354935
11
-44.1240172584
21
-14.5489009013
62
254
0
LINE
8
Modules
10
-44.1240172584
20
-14.5489009013
11
-44.2695518506
21
-13.7417056792
62
254
0
LINE
8
Modules
10
-44.2695518506
20
-13.7417056792
11
-45.0767470727
21
-13.8872402714
62
254
0
LINE
8
Modules
10
-45.0767470727
20
-13.8872402714
11
-44.1240172584
21
-14.5489009013
62
254
0
TEXT
8
Modules
100
AcDbText
10
-44.5675539595
20
-13.8454405376
1
DC
7
NewTextStyle_4
40
0.2624672000000003
50
-79.77956390380416
0
TEXT
8
Modules
100
AcDbText
10
-44.9701015225
20
-14.2013862847
1
AC
7
NewTextStyle_4
40
0.2624672000000003
50
-79.77956390380416
0
LINE
8
Modules
10
-37.2293669505
20
-10.8539129503
11
-42.3778798380
21
-11.7821725622
62
254
0
LINE
8
Modules
10
-42.3778798380
20
-11.7821725622
11
-41.6666580742
21
-15.7269033188
62
254
0
LINE
8
Modules
10
-41.6666580742
20
-15.7269033188
11
-36.5181451867
21
-14.7986437069
62
254
0
LINE
8
Modules
10
-36.5181451867
20
-14.7986437069
11
-37.2293669505
21
-10.8539129503
62
254
0
LINE
8
Modules
10
-39.9243774195
20
-12.9595778196
11
-39.7788428273
21
-13.7667730417
62
254
0
LINE
8
Modules
10
-39.7788428273
20
-13.7667730417
11
-38.9716476052
21
-13.6212384494
62
254
0
LINE
8
Modules
10
-38.9716476052
20
-13.6212384494
11
-39.1171821974
21
-12.8140432274
62
254
0
LINE
8
Modules
10
-39.1171821974
20
-12.8140432274
11
-39.9243774195
21
-12.9595778196
62
254
0
LINE
8
Modules
10
-39.9243774195
20
-12.9595778196
11
-38.9716476052
21
-13.6212384494
62
254
0
TEXT
8
Modules
100
AcDbText
10
-39.4151843063
20
-12.9177780857
1
DC
7
NewTextStyle_4
40
0.2624672000000003
50
-79.77956390380416
0
TEXT
8
Modules
100
AcDbText
10
-39.8177318693
20
-13.2737238329
1
AC
7
NewTextStyle_4
40
0.2624672000000003
50
-79.77956390380416
0
LINE
8
Modules
10
13.0827537219
20
16.3933669975
11
8.4313863072
21
15.6249837227
62
254
0
LINE
8
Modules
10
8.4313863072
20
15.6249837227
11
9.0846894414
21
11.6702483138
62
254
0
LINE
8
Modules
10
9.0846894414
20
11.6702483138
11
13.7360568561
21
12.4386315886
62
254
0
LINE
8
Modules
10
13.7360568561
20
12.4386315886
11
13.0827537219
21
16.3933669975
62
254
0
LINE
8
Modules
10
10.6122589055
20
14.3695874169
11
10.7459418204
21
13.5603449796
62
254
0
LINE
8
Modules
10
10.7459418204
20
13.5603449796
11
11.5551842577
21
13.6940278944
62
254
0
LINE
8
Modules
10
11.5551842577
20
13.6940278944
11
11.4215013429
21
14.5032703318
62
254
0
LINE
8
Modules
10
11.4215013429
20
14.5032703318
11
10.6122589055
21
14.3695874169
62
254
0
LINE
8
Modules
10
10.6122589055
20
14.3695874169
11
11.5551842577
21
13.6940278944
62
254
0
TEXT
8
Modules
100
AcDbText
10
11.1220101916
20
14.4039162779
1
DC
7
NewTextStyle_4
40
0.2624672000000003
50
-80.61973107028679
0
TEXT
8
Modules
100
AcDbText
10
10.7142866177
20
14.0539114168
1
AC
7
NewTextStyle_4
40
0.2624672000000003
50
-80.61973107028679
0
LINE
8
Modules
10
6.7965880196
20
-2.8620653775
11
7.5649714216
21
-7.5134325378
62
254
0
LINE
8
Modules
10
7.5649714216
20
-7.5134325378
11
11.5197068144
21
-6.8601293066
62
254
0
LINE
8
Modules
10
11.5197068144
20
-6.8601293066
11
10.7513234125
21
-2.2087621464
62
254
0
LINE
8
Modules
10
10.7513234125
20
-2.2087621464
11
6.7965880196
21
-2.8620653775
62
254
0
LINE
8
Modules
10
8.8203676725
20
-5.3325600301
11
9.6296101051
21
-5.1988770866
62
254
0
LINE
8
Modules
10
9.6296101051
20
-5.1988770866
11
9.4959271615
21
-4.3896346540
62
254
0
LINE
8
Modules
10
9.4959271615
20
-4.3896346540
11
8.6866847289
21
-4.5233175975
62
254
0
LINE
8
Modules
10
8.6866847289
20
-4.5233175975
11
8.8203676725
21
-5.3325600301
62
254
0
LINE
8
Modules
10
8.8203676725
20
-5.3325600301
11
9.4959271615
21
-4.3896346540
62
254
0
TEXT
8
Modules
100
AcDbText
10
8.7860387934
20
-4.8228087453
1
DC
7
NewTextStyle_4
40
0.2624672000000003
50
9.380270957946701
0
TEXT
8
Modules
100
AcDbText
10
9.1360436689
20
-5.2305323068
1
AC
7
NewTextStyle_4
40
0.2624672000000003
50
9.380270957946701
0
LINE
8
Modules
10
2.8433259150
20
-3.5158117514
11
3.6117093170
21
-8.1671789117
62
254
0
LINE
8
Modules
10
3.6117093170
20
-8.1671789117
11
7.5664447098
21
-7.5138756806
62
254
0
LINE
8
Modules
10
7.5664447098
20
-7.5138756806
11
6.7980613079
21
-2.8625085203
62
254
0
LINE
8
Modules
10
6.7980613079
20
-2.8625085203
11
2.8433259150
21
-3.5158117514
62
254
0
LINE
8
Modules
10
4.8671055679
20
-5.9863064041
11
5.6763480005
21
-5.8526234605
62
254
0
LINE
8
Modules
10
5.6763480005
20
-5.8526234605
11
5.5426650570
21
-5.0433810279
62
254
0
LINE
8
Modules
10
5.5426650570
20
-5.0433810279
11
4.7334226244
21
-5.1770639715
62
254
0
LINE
8
Modules
10
4.7334226244
20
-5.1770639715
11
4.8671055679
21
-5.9863064041
62
254
0
LINE
8
Modules
10
4.8671055679
20
-5.9863064041
11
5.5426650570
21
-5.0433810279
62
254
0
TEXT
8
Modules
100
AcDbText
10
4.8327766889
20
-5.4765551192
1
DC
7
NewTextStyle_4
40
0.2624672000000003
50
9.380270957946701
0
TEXT
8
Modules
100
AcDbText
10
5.1827815643
20
-5.8842786807
1
AC
7
NewTextStyle_4
40
0.2624672000000003
50
9.380270957946701
0
LINE
8
Modules
10
19.4750762599
20
-15.9323824389
11
14.8237090996
21
-16.7007658408
62
254
0
LINE
8
Modules
10
14.8237090996
20
-16.7007658408
11
15.4770123307
21
-20.6555012337
62
254
0
LINE
8
Modules
10
15.4770123307
20
-20.6555012337
11
20.1283794910
21
-19.8871178317
62
254
0
LINE
8
Modules
10
20.1283794910
20
-19.8871178317
11
19.4750762599
21
-15.9323824389
62
254
0
LINE
8
Modules
10
17.0045816073
20
-17.9561620917
11
17.1382645508
21
-18.7654045243
62
254
0
LINE
8
Modules
10
17.1382645508
20
-18.7654045243
11
17.9475069834
21
-18.6317215808
62
254
0
LINE
8
Modules
10
17.9475069834
20
-18.6317215808
11
17.8138240399
21
-17.8224791482
62
254
0
LINE
8
Modules
10
17.8138240399
20
-17.8224791482
11
17.0045816073
21
-17.9561620917
62
254
0
LINE
8
Modules
10
17.0045816073
20
-17.9561620917
11
17.9475069834
21
-18.6317215808
62
254
0
TEXT
8
Modules
100
AcDbText
10
17.5143328921
20
-17.9218332127
1
DC
7
NewTextStyle_4
40
0.2624672000000003
50
-80.61972904193769
0
TEXT
8
Modules
100
AcDbText
10
17.1066093306
20
-18.2718380882
1
AC
7
NewTextStyle_4
40
0.2624672000000003
50
-80.61972904193769
0
LINE
8
Modules
10
18.8215480590
20
-11.9770342657
11
14.1701808987
21
-12.7454176677
62
254
0
LINE
8
Modules
10
14.1701808987
20
-12.7454176677
11
14.8234841298
21
-16.7001530606
62
254
0
LINE
8
Modules
10
14.8234841298
20
-16.7001530606
11
19.4748512901
21
-15.9317696586
62
254
0
LINE
8
Modules
10
19.4748512901
20
-15.9317696586
11
18.8215480590
21
-11.9770342657
62
254
0
LINE
8
Modules
10
16.3510534064
20
-14.0008139186
11
16.4847363499
21
-14.8100563512
62
254
0
LINE
8
Modules
10
16.4847363499
20
-14.8100563512
11
17.2939787825
21
-14.6763734077
62
254
0
LINE
8
Modules
10
17.2939787825
20
-14.6763734077
11
17.1602958389
21
-13.8671309751
62
254
0
LINE
8
Modules
10
17.1602958389
20
-13.8671309751
11
16.3510534064
21
-14.0008139186
62
254
0
LINE
8
Modules
10
16.3510534064
20
-14.0008139186
11
17.2939787825
21
-14.6763734077
62
254
0
TEXT
8
Modules
100
AcDbText
10
16.8608046912
20
-13.9664850396
1
DC
7
NewTextStyle_4
40
0.2624672000000003
50
-80.61972904193769
0
TEXT
8
Modules
100
AcDbText
10
16.4530811297
20
-14.3164899150
1
AC
7
NewTextStyle_4
40
0.2624672000000003
50
-80.61972904193769
0
LINE
8
Modules
10
11.1250864783
20
28.2557593655
11
6.4737193180
21
27.4873759636
62
254
0
LINE
8
Modules
10
6.4737193180
20
27.4873759636
11
7.1270225491
21
23.5326405707
62
254
0
LINE
8
Modules
10
7.1270225491
20
23.5326405707
11
11.7783897094
21
24.3010239727
62
254
0
LINE
8
Modules
10
11.7783897094
20
24.3010239727
11
11.1250864783
21
28.2557593655
62
254
0
LINE
8
Modules
10
8.6545918256
20
26.2319797127
11
8.7882747692
21
25.4227372801
62
254
0
LINE
8
Modules
10
8.7882747692
20
25.4227372801
11
9.5975172018
21
25.5564202236
62
254
0
LINE
8
Modules
10
9.5975172018
20
25.5564202236
11
9.4638342582
21
26.3656626562
62
254
0
LINE
8
Modules
10
9.4638342582
20
26.3656626562
11
8.6545918256
21
26.2319797127
62
254
0
LINE
8
Modules
10
8.6545918256
20
26.2319797127
11
9.5975172018
21
25.5564202236
62
254
0
TEXT
8
Modules
100
AcDbText
10
9.1643431105
20
26.2663085917
1
DC
7
NewTextStyle_4
40
0.2624672000000003
50
-80.61972904208608
0
TEXT
8
Modules
100
AcDbText
10
8.7566195490
20
25.9163037162
1
AC
7
NewTextStyle_4
40
0.2624672000000003
50
-80.61972904208608
0
LINE
8
Modules
10
18.1680198581
20
-8.0216860900
11
13.5166526978
21
-8.7900694920
62
254
0
LINE
8
Modules
10
13.5166526978
20
-8.7900694920
11
14.1699559289
21
-12.7448048849
62
254
0
LINE
8
Modules
10
14.1699559289
20
-12.7448048849
11
18.8213230892
21
-11.9764214829
62
254
0
LINE
8
Modules
10
18.8213230892
20
-11.9764214829
11
18.1680198581
21
-8.0216860900
62
254
0
LINE
8
Modules
10
15.6975252054
20
-10.0454657429
11
15.8312081490
21
-10.8547081755
62
254
0
LINE
8
Modules
10
15.8312081490
20
-10.8547081755
11
16.6404505816
21
-10.7210252320
62
254
0
LINE
8
Modules
10
16.6404505816
20
-10.7210252320
11
16.5067676380
21
-9.9117827994
62
254
0
LINE
8
Modules
10
16.5067676380
20
-9.9117827994
11
15.6975252054
21
-10.0454657429
62
254
0
LINE
8
Modules
10
15.6975252054
20
-10.0454657429
11
16.6404505816
21
-10.7210252320
62
254
0
TEXT
8
Modules
100
AcDbText
10
16.2072764903
20
-10.0111368639
1
DC
7
NewTextStyle_4
40
0.2624672000000003
50
-80.61972904193769
0
TEXT
8
Modules
100
AcDbText
10
15.7995529288
20
-10.3611417393
1
AC
7
NewTextStyle_4
40
0.2624672000000003
50
-80.61972904193769
0
LINE
8
Buildings
10
20.6703618499
20
-2.2009377717
11
21.4274272353
21
-1.1442488845
62
252
0
LINE
8
Buildings
10
21.4274272353
20
-1.1442488845
11
31.9840204330
21
-8.7075263967
62
252
0
LINE
8
Buildings
10
31.9840204330
20
-8.7075263967
11
41.8198367516
21
-7.0826967421
62
252
0
LINE
8
Buildings
10
41.8198367516
20
-7.0826967421
11
40.2770180539
21
2.2566707915
62
252
0
LINE
8
Buildings
10
40.2770180539
20
2.2566707915
11
19.2712681082
21
-1.2133782948
62
252
0
LINE
8
Buildings
10
19.2712681082
20
-1.2133782948
11
17.2083829552
21
0.2645770073
62
252
0
LINE
8
Buildings
10
17.2083829552
20
0.2645770073
11
-32.8399955558
21
-8.0031749448
62
252
0
LINE
8
Buildings
10
-32.8399955558
20
-8.0031749448
11
-31.0047119326
21
-19.1129627059
62
252
0
LINE
8
Buildings
10
-31.0047119326
20
-19.1129627059
11
-29.1247203737
21
-18.8023971223
62
252
0
LINE
8
Buildings
10
-29.1247203737
20
-18.8023971223
11
-23.6922582565
21
-11.2199313803
62
252
0
LINE
8
Buildings
10
-23.6922582565
20
-11.2199313803
11
-23.2367540022
21
-11.1446842634
62
252
0
LINE
8
Buildings
10
-23.2367540022
20
-11.1446842634
11
-15.6542882602
21
-16.5771463806
62
252
0
LINE
8
Buildings
10
-15.6542882602
20
-16.5771463806
11
-5.7191663938
21
-14.9359119261
62
252
0
LINE
8
Buildings
10
-5.7191663938
20
-14.9359119261
11
-0.2300569010
21
-7.2743794965
62
252
0
LINE
8
Buildings
10
-0.2300569010
20
-7.2743794965
11
7.4314755287
21
-12.7634889893
62
252
0
LINE
8
Buildings
10
7.4314755287
20
-12.7634889893
11
9.6489714147
21
-12.3971693106
62
252
0
LINE
8
Buildings
10
9.6489714147
20
-12.3971693106
11
17.3764141516
21
-1.6114392747
62
252
0
LINE
8
Buildings
10
17.3764141516
20
-1.6114392747
11
19.3845361246
21
-1.2797071616
62
252
0
LINE
8
Buildings
10
19.3845361246
20
-1.2797071616
11
20.6703618499
21
-2.2009377717
62
252
0
LINE
8
Buildings
10
26.4283007388
20
13.1334584150
11
26.4828870931
21
13.2096483916
62
252
0
LINE
8
Buildings
10
26.4828870931
20
13.2096483916
11
26.4174989276
21
13.1988465805
62
252
0
LINE
8
Buildings
10
26.4174989276
20
13.1988465805
11
26.4283007388
21
13.1334584150
62
252
0
LINE
8
Buildings
10
5.5615633778
20
9.6689979019
11
5.5479674446
21
9.7513001306
62
252
0
LINE
8
Buildings
10
5.5479674446
20
9.7513001306
11
-34.6752791790
21
3.1066128163
62
252
0
LINE
8
Buildings
10
-34.6752791790
20
3.1066128163
11
-32.8399955558
21
-8.0031749448
62
252
0
LINE
8
Buildings
10
-32.8399955558
20
-8.0031749448
11
17.2083829552
21
0.2645770073
62
252
0
LINE
8
Buildings
10
17.2083829552
20
0.2645770073
11
18.4176865501
21
1.9524862614
62
252
0
LINE
8
Buildings
10
18.4176865501
20
1.9524862614
11
16.7228273462
21
1.6725036544
62
252
0
LINE
8
Buildings
10
16.7228273462
20
1.6725036544
11
5.5615633778
21
9.6689979019
62
252
0
LINE
8
Buildings
10
41.3161617055
20
-7.1659014427
11
31.9840204330
21
-8.7075263967
62
252
0
LINE
8
Buildings
10
31.9840204330
20
-8.7075263967
11
21.4274272353
21
-1.1442488845
62
252
0
LINE
8
Buildings
10
21.4274272353
20
-1.1442488845
11
25.1223215307
21
-23.5110868501
62
252
0
LINE
8
Buildings
10
25.1223215307
20
-23.5110868501
11
43.3773462887
21
-20.4954443644
62
252
0
LINE
8
Buildings
10
43.3773462887
20
-20.4954443644
11
41.3161617055
21
-7.1659014427
62
252
0
LINE
8
Buildings
10
6.0592477081
20
-35.0177292796
11
52.5087882869
21
-27.0482332328
62
252
0
LINE
8
Buildings
10
52.5087882869
20
-27.0482332328
11
43.2674203613
21
-20.5136036001
62
252
0
LINE
8
Buildings
10
43.2674203613
20
-20.5136036001
11
12.7505087460
21
-25.5548509509
62
252
0
LINE
8
Buildings
10
12.7505087460
20
-25.5548509509
11
6.0592477081
21
-35.0177292796
62
252
0
LINE
8
Buildings
10
-33.9634760950
20
-1.2022477280
11
-56.3599738794
21
-5.2402624992
62
252
0
LINE
8
Buildings
10
-56.3599738794
20
-5.2402624992
11
-53.8918605158
21
-18.9294386442
62
252
0
LINE
8
Buildings
10
-53.8918605158
20
-18.9294386442
11
-31.6961107789
21
-14.9276180847
62
252
0
LINE
8
Buildings
10
-31.6961107789
20
-14.9276180847
11
-33.9634760950
21
-1.2022477280
62
252
0
LINE
8
Buildings
10
23.4216233655
20
31.3342133616
11
12.9868576239
21
29.6104401366
62
252
0
LINE
8
Buildings
10
12.9868576239
20
29.6104401366
11
17.5787139797
21
1.8138920189
62
252
0
LINE
8
Buildings
10
17.5787139797
20
1.8138920189
11
21.9754410683
21
2.5402102344
62
252
0
LINE
8
Buildings
10
21.9754410683
20
2.5402102344
11
27.0160247118
21
9.5757038967
62
252
0
LINE
8
Buildings
10
27.0160247118
20
9.5757038967
11
23.4216233655
21
31.3342133616
62
252
0
LINE
8
Buildings
10
16.7228273462
20
1.6725036544
11
17.5787139797
21
1.8138920189
62
252
0
LINE
8
Buildings
10
17.5787139797
20
1.8138920189
11
12.9868576239
21
29.6104401366
62
252
0
LINE
8
Buildings
10
12.9868576239
20
29.6104401366
11
2.5520918825
21
27.8866669117
62
252
0
LINE
8
Buildings
10
2.5520918825
20
27.8866669117
11
5.5615633778
21
9.6689979019
62
252
0
LINE
8
Buildings
10
5.5615633778
20
9.6689979019
11
16.7228273462
21
1.6725036544
62
252
0
LINE
8
Buildings
10
-29.8471435721
20
-18.9217379679
11
-30.9901660796
21
-19.1105598008
62
252
0
LINE
8
Buildings
10
-30.9901660796
20
-19.1105598008
11
-37.6402349138
21
-28.5151835182
62
252
0
LINE
8
Buildings
10
-37.6402349138
20
-28.5151835182
11
3.7258760217
21
-21.4178677328
62
252
0
LINE
8
Buildings
10
3.7258760217
20
-21.4178677328
11
9.1107979958
21
-13.8024330394
62
252
0
LINE
8
Buildings
10
9.1107979958
20
-13.8024330394
11
8.8991182551
21
-12.5210414540
62
252
0
LINE
8
Buildings
10
8.8991182551
20
-12.5210414540
11
8.3137938226
21
-12.6177342414
62
252
0
LINE
8
Buildings
10
8.3137938226
20
-12.6177342414
11
8.6113239553
21
-14.4188164206
62
252
0
LINE
8
Buildings
10
8.6113239553
20
-14.4188164206
11
-6.3039545549
21
-16.8827488533
62
252
0
LINE
8
Buildings
10
-6.3039545549
20
-16.8827488533
11
-6.6014846877
21
-15.0816666741
62
252
0
LINE
8
Buildings
10
-6.6014846877
20
-15.0816666741
11
-14.9318650618
21
-16.4578055351
62
252
0
LINE
8
Buildings
10
-14.9318650618
20
-16.4578055351
11
-14.6091609845
21
-18.4112767933
62
252
0
LINE
8
Buildings
10
-14.6091609845
20
-18.4112767933
11
-29.5244394947
21
-20.8752092261
62
252
0
LINE
8
Buildings
10
-29.5244394947
20
-20.8752092261
11
-29.8471435721
21
-18.9217379679
62
252
0
LINE
8
Buildings
10
43.2674203613
20
-20.5136036001
11
52.5087882869
21
-27.0482332328
62
252
0
LINE
8
Buildings
10
52.5087882869
20
-27.0482332328
11
45.7573115648
21
12.3021836731
62
252
0
LINE
8
Buildings
10
45.7573115648
20
12.3021836731
11
39.9393132625
21
4.3009480411
62
252
0
LINE
8
Buildings
10
39.9393132625
20
4.3009480411
11
41.8198367516
21
-7.0826967421
62
252
0
LINE
8
Buildings
10
41.8198367516
20
-7.0826967421
11
41.3161617055
21
-7.1659014427
62
252
0
LINE
8
Buildings
10
41.3161617055
20
-7.1659014427
11
43.3773462887
21
-20.4954443644
62
252
0
LINE
8
Buildings
10
43.3773462887
20
-20.4954443644
11
43.2674203613
21
-20.5136036001
62
252
0
LINE
8
Buildings
10
-15.5506037382
20
23.5690401184
11
-15.3624060586
21
23.3799780912
62
252
0
LINE
8
Buildings
10
-15.3624060586
20
23.3799780912
11
-15.8138294870
21
25.9041518661
62
252
0
LINE
8
Buildings
10
-15.8138294870
20
25.9041518661
11
-15.6499867297
21
25.9334535171
62
252
0
LINE
8
Buildings
10
-15.6499867297
20
25.9334535171
11
-1.6664047294
21
9.9725024443
62
252
0
LINE
8
Buildings
10
-1.6664047294
20
9.9725024443
11
-6.0240388791
21
34.3385967790
62
252
0
LINE
8
Buildings
10
-6.0240388791
20
34.3385967790
11
-17.1216873976
21
32.3538924804
62
252
0
LINE
8
Buildings
10
-17.1216873976
20
32.3538924804
11
-15.5506037382
21
23.5690401184
62
252
0
LINE
8
Buildings
10
8.8991182551
20
-12.5210414540
11
10.5700667167
21
-22.6360354159
62
252
0
LINE
8
Buildings
10
10.5700667167
20
-22.6360354159
11
21.5805672491
21
-20.8171535664
62
252
0
LINE
8
Buildings
10
21.5805672491
20
-20.8171535664
11
18.3804751381
21
-1.4455732181
62
252
0
LINE
8
Buildings
10
18.3804751381
20
-1.4455732181
11
17.3764141516
21
-1.6114392747
62
252
0
LINE
8
Buildings
10
17.3764141516
20
-1.6114392747
11
9.6489714147
21
-12.3971693106
62
252
0
LINE
8
Buildings
10
9.6489714147
20
-12.3971693106
11
8.8991182551
21
-12.5210414540
62
252
0
LINE
8
Buildings
10
6.2318665423
20
29.8468058077
11
5.0736096395
21
36.3233010775
62
252
0
LINE
8
Buildings
10
5.0736096395
20
36.3233010775
11
-6.0240388791
21
34.3385967790
62
252
0
LINE
8
Buildings
10
-6.0240388791
20
34.3385967790
11
-1.6664047294
21
9.9725024443
62
252
0
LINE
8
Buildings
10
-1.6664047294
20
9.9725024443
11
3.3473237011
21
23.0727751433
62
252
0
LINE
8
Buildings
10
3.3473237011
20
23.0727751433
11
2.5520918825
21
27.8866669117
62
252
0
LINE
8
Buildings
10
2.5520918825
20
27.8866669117
11
5.3677061711
21
28.3517928803
62
252
0
LINE
8
Buildings
10
5.3677061711
20
28.3517928803
11
5.9184227772
21
29.7907495010
62
252
0
LINE
8
Buildings
10
5.9184227772
20
29.7907495010
11
6.2318665423
21
29.8468058077
62
252
0
LINE
8
Buildings
10
27.0160247118
20
9.5757038967
11
21.9754410683
21
2.5402102344
62
252
0
LINE
8
Buildings
10
21.9754410683
20
2.5402102344
11
21.9585270052
21
2.5374161123
62
252
0
LINE
8
Buildings
10
21.9585270052
20
2.5374161123
11
19.2712681082
21
-1.2133782948
62
252
0
LINE
8
Buildings
10
19.2712681082
20
-1.2133782948
11
40.2770180539
21
2.2566707915
62
252
0
LINE
8
Buildings
10
40.2770180539
20
2.2566707915
11
38.7341993562
21
11.5960383250
62
252
0
LINE
8
Buildings
10
38.7341993562
20
11.5960383250
11
27.0678169441
21
9.6688079366
62
252
0
LINE
8
Buildings
10
27.0678169441
20
9.6688079366
11
27.0132305898
21
9.5926179599
62
252
0
LINE
8
Buildings
10
27.0132305898
20
9.5926179599
11
27.0160247118
21
9.5757038967
62
252
0
LINE
8
Buildings
10
7.2450301122
20
28.6619177862
11
7.0082916451
21
29.9856617316
62
252
0
LINE
8
Buildings
10
7.0082916451
20
29.9856617316
11
5.9184227772
21
29.7907495010
62
252
0
LINE
8
Buildings
10
5.9184227772
20
29.7907495010
11
5.3677061711
21
28.3517928803
62
252
0
LINE
8
Buildings
10
5.3677061711
20
28.3517928803
11
7.2450301122
21
28.6619177862
62
252
0
LINE
8
Buildings
10
5.5479674446
20
9.7513001306
11
3.3473237011
21
23.0727751433
62
252
0
LINE
8
Buildings
10
3.3473237011
20
23.0727751433
11
-1.6664047294
21
9.9725024443
62
252
0
LINE
8
Buildings
10
-1.6664047294
20
9.9725024443
11
-15.6499867297
21
25.9334535171
62
252
0
LINE
8
Buildings
10
-15.6499867297
20
25.9334535171
11
-15.8138294870
21
25.9041518661
62
252
0
LINE
8
Buildings
10
-15.8138294870
20
25.9041518661
11
-12.3949551317
21
6.7872154276
62
252
0
LINE
8
Buildings
10
-12.3949551317
20
6.7872154276
11
5.5479674446
21
9.7513001306
62
252
0
LINE
8
Buildings
10
-52.4816058404
20
-27.2038685295
11
-38.3003610420
21
-24.6676936396
62
252
0
LINE
8
Buildings
10
-38.3003610420
20
-24.6676936396
11
-31.6519757198
21
-15.1947872206
62
252
0
LINE
8
Buildings
10
-31.6519757198
20
-15.1947872206
11
-31.6961107789
21
-14.9276180847
62
252
0
LINE
8
Buildings
10
-31.6961107789
20
-14.9276180847
11
-45.6873627420
21
-17.4501947231
62
252
0
LINE
8
Buildings
10
-45.6873627420
20
-17.4501947231
11
-52.4816058404
21
-27.2038685295
62
252
0
LINE
8
Buildings
10
-12.5198094886
20
7.4853495376
11
-57.2546395846
21
-0.5150308528
62
252
0
LINE
8
Buildings
10
-57.2546395846
20
-0.5150308528
11
-51.6819971300
21
-4.3968387016
62
252
0
LINE
8
Buildings
10
-51.6819971300
20
-4.3968387016
11
-33.9634760950
21
-1.2022477280
62
252
0
LINE
8
Buildings
10
-33.9634760950
20
-1.2022477280
11
-34.6752791790
21
3.1066128163
62
252
0
LINE
8
Buildings
10
-34.6752791790
20
3.1066128163
11
-12.3949551317
21
6.7872154276
62
252
0
LINE
8
Buildings
10
-12.3949551317
20
6.7872154276
11
-12.5198094886
21
7.4853495376
62
252
0
LINE
8
Buildings
10
35.8839305148
20
22.1612934585
11
35.7439267979
21
22.2570819904
62
252
0
LINE
8
Buildings
10
35.7439267979
20
22.2570819904
11
27.6698739501
21
17.2274774702
62
252
0
LINE
8
Buildings
10
27.6698739501
20
17.2274774702
11
26.1091933086
21
15.0651575689
62
252
0
LINE
8
Buildings
10
26.1091933086
20
15.0651575689
11
26.4174989276
21
13.1988465805
62
252
0
LINE
8
Buildings
10
26.4174989276
20
13.1988465805
11
26.4828870931
21
13.2096483916
62
252
0
LINE
8
Buildings
10
26.4828870931
20
13.2096483916
11
27.0678169441
21
9.6688079366
62
252
0
LINE
8
Buildings
10
27.0678169441
20
9.6688079366
11
37.4409872113
21
11.3824058847
62
252
0
LINE
8
Buildings
10
37.4409872113
20
11.3824058847
11
35.8839305148
21
22.1612934585
62
252
0
LINE
8
Buildings
10
12.7505087460
20
-25.5548509509
11
11.1382480001
21
-25.8211886890
62
252
0
LINE
8
Buildings
10
11.1382480001
20
-25.8211886890
11
10.6109600090
21
-22.6292800402
62
252
0
LINE
8
Buildings
10
10.6109600090
20
-22.6292800402
11
10.5700667167
21
-22.6360354159
62
252
0
LINE
8
Buildings
10
10.5700667167
20
-22.6360354159
11
9.1107979958
21
-13.8024330394
62
252
0
LINE
8
Buildings
10
9.1107979958
20
-13.8024330394
11
3.7258760217
21
-21.4178677328
62
252
0
LINE
8
Buildings
10
3.7258760217
20
-21.4178677328
11
6.0592477081
21
-35.0177292796
62
252
0
LINE
8
Buildings
10
6.0592477081
20
-35.0177292796
11
12.7505087460
21
-25.5548509509
62
252
0
LINE
8
Buildings
10
21.4274272353
20
-1.1442488845
11
20.6703618499
21
-2.2009377717
62
252
0
LINE
8
Buildings
10
20.6703618499
20
-2.2009377717
11
23.6881564033
21
-20.4689899522
62
252
0
LINE
8
Buildings
10
23.6881564033
20
-20.4689899522
11
10.6109600090
21
-22.6292800402
62
252
0
LINE
8
Buildings
10
10.6109600090
20
-22.6292800402
11
11.1382480001
21
-25.8211886890
62
252
0
LINE
8
Buildings
10
11.1382480001
20
-25.8211886890
11
25.1223215307
21
-23.5110868501
62
252
0
LINE
8
Buildings
10
25.1223215307
20
-23.5110868501
11
21.4274272353
21
-1.1442488845
62
252
0
LINE
8
Buildings
10
-57.2546395846
20
-0.5150308528
11
-52.4816058404
21
-27.2038685295
62
252
0
LINE
8
Buildings
10
-52.4816058404
20
-27.2038685295
11
-45.6873627420
21
-17.4501947231
62
252
0
LINE
8
Buildings
10
-45.6873627420
20
-17.4501947231
11
-53.8918605158
21
-18.9294386442
62
252
0
LINE
8
Buildings
10
-53.8918605158
20
-18.9294386442
11
-56.3599738794
21
-5.2402624992
62
252
0
LINE
8
Buildings
10
-56.3599738794
20
-5.2402624992
11
-51.6819971300
21
-4.3968387016
62
252
0
LINE
8
Buildings
10
-51.6819971300
20
-4.3968387016
11
-57.2546395846
21
-0.5150308528
62
252
0
LINE
8
Buildings
10
20.6703618499
20
-2.2009377717
11
19.3845361246
21
-1.2797071616
62
252
0
LINE
8
Buildings
10
19.3845361246
20
-1.2797071616
11
18.3804751381
21
-1.4455732181
62
252
0
LINE
8
Buildings
10
18.3804751381
20
-1.4455732181
11
21.5805672491
21
-20.8171535664
62
252
0
LINE
8
Buildings
10
21.5805672491
20
-20.8171535664
11
23.6881564033
21
-20.4689899522
62
252
0
LINE
8
Buildings
10
23.6881564033
20
-20.4689899522
11
20.6703618499
21
-2.2009377717
62
252
0
LINE
8
Buildings
10
-14.9318650618
20
-16.4578055351
11
-15.6542882602
21
-16.5771463806
62
252
0
LINE
8
Buildings
10
-15.6542882602
20
-16.5771463806
11
-23.2367540022
21
-11.1446842634
62
252
0
LINE
8
Buildings
10
-23.2367540022
20
-11.1446842634
11
-23.4645061293
21
-11.1823078218
62
252
0
LINE
8
Buildings
10
-23.4645061293
20
-11.1823078218
11
-22.0668002396
21
-19.6432430097
62
252
0
LINE
8
Buildings
10
-22.0668002396
20
-19.6432430097
11
-14.6091609845
21
-18.4112767933
62
252
0
LINE
8
Buildings
10
-14.6091609845
20
-18.4112767933
11
-14.9318650618
21
-16.4578055351
62
252
0
LINE
8
Buildings
10
-29.8471435721
20
-18.9217379679
11
-29.5244394947
21
-20.8752092261
62
252
0
LINE
8
Buildings
10
-29.5244394947
20
-20.8752092261
11
-22.0668002396
21
-19.6432430097
62
252
0
LINE
8
Buildings
10
-22.0668002396
20
-19.6432430097
11
-23.4645061293
21
-11.1823078218
62
252
0
LINE
8
Buildings
10
-23.4645061293
20
-11.1823078218
11
-23.6922582565
21
-11.2199313803
62
252
0
LINE
8
Buildings
10
-23.6922582565
20
-11.2199313803
11
-29.1247203737
21
-18.8023971223
62
252
0
LINE
8
Buildings
10
-29.1247203737
20
-18.8023971223
11
-29.8471435721
21
-18.9217379679
62
252
0
LINE
8
Buildings
10
8.3137938226
20
-12.6177342414
11
7.4314755287
21
-12.7634889893
62
252
0
LINE
8
Buildings
10
7.4314755287
20
-12.7634889893
11
-0.2300569010
21
-7.2743794965
62
252
0
LINE
8
Buildings
10
-0.2300569010
20
-7.2743794965
11
1.1536847002
21
-15.6507826369
62
252
0
LINE
8
Buildings
10
1.1536847002
20
-15.6507826369
11
8.6113239553
21
-14.4188164206
62
252
0
LINE
8
Buildings
10
8.6113239553
20
-14.4188164206
11
8.3137938226
21
-12.6177342414
62
252
0
LINE
8
Buildings
10
-6.6014846877
20
-15.0816666741
11
-6.3039545549
21
-16.8827488533
62
252
0
LINE
8
Buildings
10
-6.3039545549
20
-16.8827488533
11
1.1536847002
21
-15.6507826369
62
252
0
LINE
8
Buildings
10
1.1536847002
20
-15.6507826369
11
-0.2300569010
21
-7.2743794965
62
252
0
LINE
8
Buildings
10
-0.2300569010
20
-7.2743794965
11
-5.7191663938
21
-14.9359119261
62
252
0
LINE
8
Buildings
10
-5.7191663938
20
-14.9359119261
11
-6.6014846877
21
-15.0816666741
62
252
0
LINE
8
Buildings
10
26.1091933086
20
15.0651575689
11
27.6698739501
21
17.2274774702
62
252
0
LINE
8
Buildings
10
27.6698739501
20
17.2274774702
11
29.6459069939
21
26.4292595421
62
252
0
LINE
8
Buildings
10
29.6459069939
20
26.4292595421
11
29.1801483422
21
26.7479249210
62
252
0
LINE
8
Buildings
10
29.1801483422
20
26.7479249210
11
24.3227605508
21
25.8792293219
62
252
0
LINE
8
Buildings
10
24.3227605508
20
25.8792293219
11
26.1091933086
21
15.0651575689
62
252
0
LINE
8
Buildings
10
35.7439267979
20
22.2570819904
11
29.6459069939
21
26.4292595421
62
252
0
LINE
8
Buildings
10
29.6459069939
20
26.4292595421
11
27.6698739501
21
17.2274774702
62
252
0
LINE
8
Buildings
10
27.6698739501
20
17.2274774702
11
35.7439267979
21
22.2570819904
62
252
0
LINE
8
Buildings
10
-31.6519757198
20
-15.1947872206
11
-38.3003610420
21
-24.6676936396
62
252
0
LINE
8
Buildings
10
-38.3003610420
20
-24.6676936396
11
-37.6402349138
21
-28.5151835182
62
252
0
LINE
8
Buildings
10
-37.6402349138
20
-28.5151835182
11
-30.9901660796
21
-19.1105598008
62
252
0
LINE
8
Buildings
10
-30.9901660796
20
-19.1105598008
11
-31.0047119326
21
-19.1129627059
62
252
0
LINE
8
Buildings
10
-31.0047119326
20
-19.1129627059
11
-31.6519757198
21
-15.1947872206
62
252
0
LINE
8
Buildings
10
39.9393132625
20
4.3009480411
11
45.7573115648
21
12.3021836731
62
252
0
LINE
8
Buildings
10
45.7573115648
20
12.3021836731
11
38.7839538679
21
11.2948521442
62
252
0
LINE
8
Buildings
10
38.7839538679
20
11.2948521442
11
39.9393132625
21
4.3009480411
62
252
0
LINE
8
Buildings
10
7.0473664453
20
29.7671715521
11
7.2450301122
21
28.6619177862
62
252
0
LINE
8
Buildings
10
7.2450301122
20
28.6619177862
11
18.8633742021
21
30.5812124744
62
252
0
LINE
8
Buildings
10
18.8633742021
20
30.5812124744
11
18.6382375563
21
31.8400838163
62
252
0
LINE
8
Buildings
10
18.6382375563
20
31.8400838163
11
7.0473664453
21
29.7671715521
62
252
0
LINE
8
Buildings
10
27.0132305898
20
9.5926179599
11
27.0678169441
21
9.6688079366
62
252
0
LINE
8
Buildings
10
27.0678169441
20
9.6688079366
11
26.4828870931
21
13.2096483916
62
252
0
LINE
8
Buildings
10
26.4828870931
20
13.2096483916
11
26.4283007388
21
13.1334584150
62
252
0
LINE
8
Buildings
10
26.4283007388
20
13.1334584150
11
27.0132305898
21
9.5926179599
62
252
0
LINE
8
Buildings
10
21.9585270052
20
2.5374161123
11
18.4176865501
21
1.9524862614
62
252
0
LINE
8
Buildings
10
18.4176865501
20
1.9524862614
11
17.2083829552
21
0.2645770073
62
252
0
LINE
8
Buildings
10
17.2083829552
20
0.2645770073
11
19.2712681082
21
-1.2133782948
62
252
0
LINE
8
Buildings
10
19.2712681082
20
-1.2133782948
11
21.9585270052
21
2.5374161123
62
252
0
LINE
8
Setbacks
10
-24.9627032276
20
-10.6185095167
11
-24.9623757451
21
-10.6181201594
62
2
0
LINE
8
Setbacks
10
-24.9623757451
20
-10.6181201594
11
-24.6561562471
21
-10.3066572230
62
2
0
LINE
8
Setbacks
10
-24.6561562471
20
-10.3066572230
11
-24.6554093787
21
-10.3060890076
62
2
0
LINE
8
Setbacks
10
-24.6554093787
20
-10.3060890076
11
-24.2550658620
21
-10.0837986461
62
2
0
LINE
8
Setbacks
10
-24.2550658620
20
-10.0837986461
11
-24.2542527148
21
-10.0834800953
62
2
0
LINE
8
Setbacks
10
-24.2542527148
20
-10.0834800953
11
-23.7989735007
21
-9.9721211678
62
2
0
LINE
8
Setbacks
10
-23.7989735007
20
-9.9721211678
11
-23.7981202228
21
-9.9720280517
62
2
0
LINE
8
Setbacks
10
-23.7981202228
20
-9.9720280517
11
-23.6639392518
21
-9.9750463046
62
2
0
LINE
8
Setbacks
10
-23.6639392518
20
-9.9750463046
11
-23.5378591049
21
-9.9290344415
62
2
0
LINE
8
Setbacks
10
-23.5378591049
20
-9.9290344415
11
-23.5370212172
21
-9.9288481851
62
2
0
LINE
8
Setbacks
10
-23.5370212172
20
-9.9288481851
11
-23.0701160186
21
-9.8878662284
62
2
0
LINE
8
Setbacks
10
-23.0701160186
20
-9.8878662284
11
-23.0692436190
21
-9.8879063356
62
2
0
LINE
8
Setbacks
10
-23.0692436190
20
-9.8879063356
11
-22.6186783159
21
-9.9696307476
62
2
0
LINE
8
Setbacks
10
-22.6186783159
20
-9.9696307476
11
-22.6177883828
21
-9.9699285709
62
2
0
LINE
8
Setbacks
10
-22.6177883828
20
-9.9699285709
11
-22.2276673073
21
-10.1663593515
62
2
0
LINE
8
Setbacks
10
-22.2276673073
20
-10.1663593515
11
-22.2272320010
21
-10.1666226997
62
2
0
LINE
8
Setbacks
10
-22.2272320010
20
-10.1666226997
11
-14.6447662072
21
-15.5990848158
62
2
0
LINE
8
Setbacks
10
-14.6447662072
20
-15.5990848158
11
-14.6443554030
21
-15.5994335792
62
2
0
LINE
8
Setbacks
10
-14.6443554030
20
-15.5994335792
11
-14.3528662205
21
-15.8913430374
62
2
0
LINE
8
Setbacks
10
-14.3528662205
20
-15.8913430374
11
-14.3524931620
21
-15.8917896762
62
2
0
LINE
8
Setbacks
10
-14.3524931620
20
-15.8917896762
11
-14.3522048832
21
-15.8922952000
62
2
0
LINE
8
Setbacks
10
-14.3522048832
20
-15.8922952000
11
-14.1878807310
21
-16.2511088597
62
2
0
LINE
8
Setbacks
10
-14.1878807310
20
-16.2511088597
11
-14.1876781528
21
-16.2516897143
62
2
0
LINE
8
Setbacks
10
-14.1876781528
20
-16.2516897143
11
-14.1875875679
21
-16.2522981748
62
2
0
LINE
8
Setbacks
10
-14.1875875679
20
-16.2522981748
11
-14.1849509945
21
-16.3011659679
62
2
0
LINE
8
Setbacks
10
38.8513674490
20
-7.5398206668
11
37.5178265218
21
0.5326961634
62
2
0
LINE
8
Setbacks
10
37.5178265218
20
0.5326961634
11
24.4699709854
21
-1.6227469178
62
2
0
LINE
8
Setbacks
10
24.4699709854
20
-1.6227469178
11
32.9935424039
21
-7.7294651415
62
2
0
LINE
8
Setbacks
10
32.9935424039
20
-7.7294651415
11
32.9939532067
21
-7.7298139035
62
2
0
LINE
8
Setbacks
10
32.9939532067
20
-7.7298139035
11
33.2854423893
21
-8.0217230336
62
2
0
LINE
8
Setbacks
10
33.2854423893
20
-8.0217230336
11
33.2858154485
21
-8.0221696730
62
2
0
LINE
8
Setbacks
10
33.2858154485
20
-8.0221696730
11
33.2861037278
21
-8.0226751975
62
2
0
LINE
8
Setbacks
10
33.2861037278
20
-8.0226751975
11
33.4504278800
21
-8.3814888573
62
2
0
LINE
8
Setbacks
10
33.4504278800
20
-8.3814888573
11
33.4506304579
21
-8.3820697104
62
2
0
LINE
8
Setbacks
10
33.4506304579
20
-8.3820697104
11
33.4507210430
21
-8.3826781696
62
2
0
LINE
8
Setbacks
10
33.4507210430
20
-8.3826781696
11
33.4533576592
21
-8.4315459953
62
2
0
LINE
8
Setbacks
10
-7.1991982135
20
-15.1471529356
11
-7.2124182844
21
-15.1000334030
62
2
0
LINE
8
Setbacks
10
-7.2124182844
20
-15.1000334030
11
-7.2125282012
21
-15.0994281367
62
2
0
LINE
8
Setbacks
10
-7.2125282012
20
-15.0994281367
11
-7.2125231967
21
-15.0988129912
62
2
0
LINE
8
Setbacks
10
-7.2125231967
20
-15.0988129912
11
-7.1723289697
21
-14.7062142254
62
2
0
LINE
8
Setbacks
10
-7.1723289697
20
-14.7062142254
11
-7.1722185901
21
-14.7056428438
62
2
0
LINE
8
Setbacks
10
-7.1722185901
20
-14.7056428438
11
-7.1720089963
21
-14.7050999525
62
2
0
LINE
8
Setbacks
10
-7.1720089963
20
-14.7050999525
11
-6.9898882556
21
-14.3349526310
62
2
0
LINE
8
Setbacks
10
-6.9898882556
20
-14.3349526310
11
-6.9896114451
21
-14.3344902787
62
2
0
LINE
8
Setbacks
10
-6.9896114451
20
-14.3344902787
11
-1.5005020175
21
-6.6729575532
62
2
0
LINE
8
Setbacks
10
-1.5005020175
20
-6.6729575532
11
-1.5001745339
21
-6.6725681947
62
2
0
LINE
8
Setbacks
10
-1.5001745339
20
-6.6725681947
11
-1.4107243955
21
-6.5815864803
62
2
0
LINE
8
Setbacks
10
-1.4107243955
20
-6.5815864803
11
-1.3355416268
21
-6.4822486183
62
2
0
LINE
8
Setbacks
10
-1.3355416268
20
-6.4822486183
11
-1.3352169993
21
-6.4818805225
62
2
0
LINE
8
Setbacks
10
-1.3352169993
20
-6.4818805225
11
-1.3348410935
21
-6.4815649715
62
2
0
LINE
8
Setbacks
10
-1.3348410935
20
-6.4815649715
11
-1.2581929515
21
-6.4264431562
62
2
0
LINE
8
Setbacks
10
-1.2581929515
20
-6.4264431562
11
-1.1939550375
21
-6.3611052599
62
2
0
LINE
8
Setbacks
10
-1.1939550375
20
-6.3611052599
11
-1.1932081658
21
-6.3605370425
62
2
0
LINE
8
Setbacks
10
-1.1932081658
20
-6.3605370425
11
-1.0762374578
21
-6.2955893171
62
2
0
LINE
8
Setbacks
10
-1.0762374578
20
-6.2955893171
11
-0.9694939716
21
-6.2188241514
62
2
0
LINE
8
Setbacks
10
-0.9694939716
20
-6.2188241514
11
-0.9687031933
21
-6.2184057118
62
2
0
LINE
8
Setbacks
10
-0.9687031933
20
-6.2184057118
11
-0.8768779546
21
-6.1848950722
62
2
0
LINE
8
Setbacks
10
-0.8768779546
20
-6.1848950722
11
-0.7928646540
21
-6.1382466838
62
2
0
LINE
8
Setbacks
10
-0.7928646540
20
-6.1382466838
11
-0.7920515004
21
-6.1379281307
62
2
0
LINE
8
Setbacks
10
-0.7920515004
20
-6.1379281307
11
-0.6590154004
21
-6.1053883831
62
2
0
LINE
8
Setbacks
10
-0.6590154004
20
-6.1053883831
11
-0.5311621728
21
-6.0587295270
62
2
0
LINE
8
Setbacks
10
-0.5311621728
20
-6.0587295270
11
-0.5303242851
21
-6.0585432711
62
2
0
LINE
8
Setbacks
10
-0.5303242851
20
-6.0585432711
11
-0.4323276387
21
-6.0499418036
62
2
0
LINE
8
Setbacks
10
-0.4323276387
20
-6.0499418036
11
-0.3367722884
21
-6.0265695319
62
2
0
LINE
8
Setbacks
10
-0.3367722884
20
-6.0265695319
11
-0.3359190148
21
-6.0264764162
62
2
0
LINE
8
Setbacks
10
-0.3359190148
20
-6.0264764162
11
-0.1998529382
21
-6.0295369855
62
2
0
LINE
8
Setbacks
10
-0.1998529382
20
-6.0295369855
11
-0.0634190893
21
-6.0175616428
62
2
0
LINE
8
Setbacks
10
-0.0634190893
20
-6.0175616428
11
-0.0625466860
21
-6.0176017502
62
2
0
LINE
8
Setbacks
10
-0.0625466860
20
-6.0176017502
11
0.0320055765
21
-6.0347519023
62
2
0
LINE
8
Setbacks
10
0.0320055765
20
-6.0347519023
11
0.1297299435
21
-6.0369498416
62
2
0
LINE
8
Setbacks
10
0.1297299435
20
-6.0369498416
11
0.1306132824
21
-6.0370917235
62
2
0
LINE
8
Setbacks
10
0.1306132824
20
-6.0370917235
11
0.2563759904
21
-6.0754485910
62
2
0
LINE
8
Setbacks
10
0.2563759904
20
-6.0754485910
11
0.3880186140
21
-6.0993261617
62
2
0
LINE
8
Setbacks
10
0.3880186140
20
-6.0993261617
11
0.3889085448
21
-6.0996239837
62
2
0
LINE
8
Setbacks
10
0.3889085448
20
-6.0996239837
11
0.4707458455
21
-6.1408299770
62
2
0
LINE
8
Setbacks
10
0.4707458455
20
-6.1408299770
11
0.5610509626
21
-6.1683725683
62
2
0
LINE
8
Setbacks
10
0.5610509626
20
-6.1683725683
11
0.5615083823
21
-6.1685504581
62
2
0
LINE
8
Setbacks
10
0.5615083823
20
-6.1685504581
11
0.5619341473
21
-6.1687945929
62
2
0
LINE
8
Setbacks
10
0.5619341473
20
-6.1687945929
11
0.6650719740
21
-6.2386756872
62
2
0
LINE
8
Setbacks
10
0.6650719740
20
-6.2386756872
11
0.7790299477
21
-6.2960547639
62
2
0
LINE
8
Setbacks
10
0.7790299477
20
-6.2960547639
11
0.7794652575
21
-6.2963181139
62
2
0
LINE
8
Setbacks
10
0.7794652575
20
-6.2963181139
11
8.4046019836
21
-11.7593517439
62
2
0
LINE
8
Setbacks
10
8.4046019836
20
-11.7593517439
11
15.9631995092
21
-1.2092910886
62
2
0
LINE
8
Setbacks
10
15.9631995092
20
-1.2092910886
11
-29.6729431587
21
-8.7481628195
62
2
0
LINE
8
Setbacks
10
-29.6729431587
20
-8.7481628195
11
-28.5392989953
21
-15.6106136302
62
2
0
LINE
8
Setbacks
10
-28.5392989953
20
-15.6106136302
11
-24.9627032276
21
-10.6185095167
62
2
0
LINE
8
Setbacks
10
-30.0808039741
20
-6.2792002842
11
15.0425998326
21
1.1749696724
62
2
0
LINE
8
Setbacks
10
15.0425998326
20
1.1749696724
11
6.4322047095
21
7.3438924567
62
2
0
LINE
8
Setbacks
10
6.4322047095
20
7.3438924567
11
5.9693075457
21
7.2033700450
62
2
0
LINE
8
Setbacks
10
5.9693075457
20
7.2033700450
11
5.9684617954
21
7.2032303312
62
2
0
LINE
8
Setbacks
10
5.9684617954
20
7.2032303312
11
5.0338974610
21
7.1726565113
62
2
0
LINE
8
Setbacks
10
5.0338974610
20
7.1726565113
11
5.0330191754
21
7.1727466393
62
2
0
LINE
8
Setbacks
10
5.0330191754
20
7.1727466393
11
4.1501165880
21
7.3862108850
62
2
0
LINE
8
Setbacks
10
4.1501165880
20
7.3862108850
11
4.1492284391
21
7.3865694548
62
2
0
LINE
8
Setbacks
10
4.1492284391
20
7.3865694548
11
3.4044127985
21
7.8231770803
62
2
0
LINE
8
Setbacks
10
3.4044127985
20
7.8231770803
11
3.4039737713
21
7.8234852634
62
2
0
LINE
8
Setbacks
10
3.4039737713
20
7.8234852634
11
3.4035908291
21
7.8238608655
62
2
0
LINE
8
Setbacks
10
3.4035908291
20
7.8238608655
11
2.8697696177
21
8.4408730244
62
2
0
LINE
8
Setbacks
10
2.8697696177
20
8.4408730244
11
2.8694242364
21
8.4413538712
62
2
0
LINE
8
Setbacks
10
2.8694242364
20
8.4413538712
11
2.8691708939
21
8.4418889596
62
2
0
LINE
8
Setbacks
10
2.8691708939
20
8.4418889596
11
2.5985983786
21
9.1789083401
62
2
0
LINE
8
Setbacks
10
2.5985983786
20
9.1789083401
11
2.5984412624
21
9.1795042805
62
2
0
LINE
8
Setbacks
10
2.5984412624
20
9.1795042805
11
2.5901927292
21
9.2294367679
62
2
0
LINE
8
Setbacks
10
-31.7068097515
20
3.5637365502
11
-30.0808039741
21
-6.2792002842
62
2
0
LINE
8
Setbacks
10
41.6837949516
20
-17.7312269057
11
40.5405614810
21
-10.3380108358
62
2
0
LINE
8
Setbacks
10
40.5405614810
20
-10.3380108358
11
32.4735141175
21
-11.6706484323
62
2
0
LINE
8
Setbacks
10
32.4735141175
20
-11.6706484323
11
32.4728993126
21
-11.6706913253
62
2
0
LINE
8
Setbacks
10
32.4728993126
20
-11.6706913253
11
31.6880170696
21
-11.6515295793
62
2
0
LINE
8
Setbacks
10
31.6880170696
20
-11.6515295793
11
31.6874289319
21
-11.6514617884
62
2
0
LINE
8
Setbacks
10
31.6874289319
20
-11.6514617884
11
31.6868625530
21
-11.6512894040
62
2
0
LINE
8
Setbacks
10
31.6868625530
20
-11.6512894040
11
30.9309475025
21
-11.3442693810
62
2
0
LINE
8
Setbacks
10
30.9309475025
20
-11.3442693810
11
30.9304686958
21
-11.3440275828
62
2
0
LINE
8
Setbacks
10
30.9304686958
20
-11.3440275828
11
30.9300356887
21
-11.3437109963
62
2
0
LINE
8
Setbacks
10
30.9300356887
20
-11.3437109963
11
30.2770815995
21
-10.7788855189
62
2
0
LINE
8
Setbacks
10
30.2770815995
20
-10.7788855189
11
30.2764564400
21
-10.7781598783
62
2
0
LINE
8
Setbacks
10
30.2764564400
20
-10.7781598783
11
29.7903796528
21
-10.0108183183
62
2
0
LINE
8
Setbacks
10
29.7903796528
20
-10.0108183183
11
29.7900118441
21
-10.0100156811
62
2
0
LINE
8
Setbacks
10
29.7900118441
20
-10.0100156811
11
29.5183924129
21
-9.1152705738
62
2
0
LINE
8
Setbacks
10
29.5183924129
20
-9.1152705738
11
29.5182526988
21
-9.1144248233
62
2
0
LINE
8
Setbacks
10
29.5182526988
20
-9.1144248233
11
29.5024352010
21
-8.6309272766
62
2
0
LINE
8
Setbacks
10
29.5024352010
20
-8.6309272766
11
23.1846202039
21
-4.1045248862
62
2
0
LINE
8
Setbacks
10
23.1846202039
20
-4.1045248862
11
25.8673093647
21
-20.3440343958
62
2
0
LINE
8
Setbacks
10
25.8673093647
20
-20.3440343958
11
41.6837949516
21
-17.7312269057
62
2
0
LINE
8
Setbacks
10
50.4542341607
20
-27.3674517713
11
42.8488799519
21
-21.9896580136
62
2
0
LINE
8
Setbacks
10
42.8488799519
20
-21.9896580136
11
13.6304661523
21
-26.8163998880
62
2
0
LINE
8
Setbacks
10
13.6304661523
20
-26.8163998880
11
8.1027058475
21
-34.6338389585
62
2
0
LINE
8
Setbacks
10
-54.3924623166
20
-15.9679913383
11
-33.5518995055
21
-12.2105063635
62
2
0
LINE
8
Setbacks
10
-33.5518995055
20
-12.2105063635
11
-34.8401728155
21
-4.4120174946
62
2
0
LINE
8
Setbacks
10
-34.8401728155
20
-4.4120174946
11
-55.7947964163
21
-8.1900670845
62
2
0
LINE
8
Setbacks
10
21.4859475830
20
5.5033322901
11
21.4865623879
21
5.5033751831
62
2
0
LINE
8
Setbacks
10
21.4865623879
20
5.5033751831
11
22.2714446309
21
5.4842134371
62
2
0
LINE
8
Setbacks
10
22.2714446309
20
5.4842134371
11
22.2720327686
21
5.4841456462
62
2
0
LINE
8
Setbacks
10
22.2720327686
20
5.4841456462
11
22.2725991476
21
5.4839732617
62
2
0
LINE
8
Setbacks
10
22.2725991476
20
5.4839732617
11
22.3582454880
21
5.4491874148
62
2
0
LINE
8
Setbacks
10
22.3582454880
20
5.4491874148
11
26.0379634307
21
10.5852260700
62
2
0
LINE
8
Setbacks
10
26.0379634307
20
10.5852260700
11
26.0383121928
21
10.5856368728
62
2
0
LINE
8
Setbacks
10
26.0383121928
20
10.5856368728
11
26.3302213229
21
10.8771260554
62
2
0
LINE
8
Setbacks
10
26.3302213229
20
10.8771260554
11
26.3306679623
21
10.8774991147
62
2
0
LINE
8
Setbacks
10
26.3306679623
20
10.8774991147
11
26.3311734868
21
10.8777873939
62
2
0
LINE
8
Setbacks
10
26.3311734868
20
10.8777873939
11
26.6899871465
21
11.0421115462
62
2
0
LINE
8
Setbacks
10
26.6899871465
20
11.0421115462
11
26.6905680011
21
11.0423141243
62
2
0
LINE
8
Setbacks
10
26.6905680011
20
11.0423141243
11
26.6911764616
21
11.0424047093
62
2
0
LINE
8
Setbacks
10
26.6911764616
20
11.0424047093
11
26.7400442487
21
11.0450412824
62
2
0
LINE
8
Setbacks
10
23.8787473491
20
28.3657440775
11
14.7108325397
21
26.8512484247
62
2
0
LINE
8
Setbacks
10
14.7108325397
20
26.8512484247
11
18.3237018399
21
4.9809444331
62
2
0
LINE
8
Setbacks
10
18.3237018399
20
4.9809444331
11
21.4859475830
21
5.5033322901
62
2
0
LINE
8
Setbacks
10
5.3503221712
20
11.1490297164
11
5.3974416624
21
11.1622497757
62
2
0
LINE
8
Setbacks
10
5.3974416624
20
11.1622497757
11
5.3980469285
21
11.1623596925
62
2
0
LINE
8
Setbacks
10
5.3980469285
20
11.1623596925
11
5.3986620739
21
11.1623546880
62
2
0
LINE
8
Setbacks
10
5.3986620739
20
11.1623546880
11
5.7912611678
21
11.1221604610
62
2
0
LINE
8
Setbacks
10
5.7912611678
20
11.1221604610
11
5.7918325495
21
11.1220500814
62
2
0
LINE
8
Setbacks
10
5.7918325495
20
11.1220500814
11
5.7923754409
21
11.1218404875
62
2
0
LINE
8
Setbacks
10
5.7923754409
20
11.1218404875
11
6.1625227625
21
10.9397197468
62
2
0
LINE
8
Setbacks
10
6.1625227625
20
10.9397197468
11
6.1629851148
21
10.9394429363
62
2
0
LINE
8
Setbacks
10
6.1629851148
20
10.9394429363
11
15.4247939148
21
4.3038144662
62
2
0
LINE
8
Setbacks
10
15.4247939148
20
4.3038144662
11
15.4947023183
21
4.3642972147
62
2
0
LINE
8
Setbacks
10
15.4947023183
20
4.3642972147
11
15.4951831652
21
4.3646425962
62
2
0
LINE
8
Setbacks
10
15.4951831652
20
4.3646425962
11
15.4957182538
21
4.3648959388
62
2
0
LINE
8
Setbacks
10
15.4957182538
20
4.3648959388
11
15.8666359633
21
4.5010661922
62
2
0
LINE
8
Setbacks
10
15.8666359633
20
4.5010661922
11
12.2418700043
21
26.4433876094
62
2
0
LINE
8
Setbacks
10
12.2418700043
20
26.4433876094
11
3.0739550187
21
24.9288923083
62
2
0
LINE
8
Setbacks
10
2.2543331822
20
-21.6370571503
11
2.2270326452
21
-21.5109154854
62
2
0
LINE
8
Setbacks
10
2.2270326452
20
-21.5109154854
11
2.2269615265
21
-21.5103645806
62
2
0
LINE
8
Setbacks
10
2.2269615265
20
-21.5103645806
11
2.2269843656
21
-21.5098095739
62
2
0
LINE
8
Setbacks
10
2.2269843656
20
-21.5098095739
11
2.2817261653
21
-21.0772495207
62
2
0
LINE
8
Setbacks
10
2.2817261653
20
-21.0772495207
11
2.2818380461
21
-21.0767204396
62
2
0
LINE
8
Setbacks
10
2.2818380461
20
-21.0767204396
11
2.2820353189
21
-21.0762169243
62
2
0
LINE
8
Setbacks
10
2.2820353189
20
-21.0762169243
11
2.4778217425
21
-20.6769587094
62
2
0
LINE
8
Setbacks
10
2.4778217425
20
-20.6769587094
11
2.4780886726
21
-20.6765090278
62
2
0
LINE
8
Setbacks
10
2.4780886726
20
-20.6765090278
11
5.5505775786
21
-16.3313505435
62
2
0
LINE
8
Setbacks
10
5.5505775786
20
-16.3313505435
11
-3.5500968274
21
-17.8347384194
62
2
0
LINE
8
Setbacks
10
-3.5500968274
20
-17.8347384194
11
-3.6412998862
21
-18.0922602205
62
2
0
LINE
8
Setbacks
10
-3.6412998862
20
-18.0922602205
11
-3.6415144494
21
-18.0927399750
62
2
0
LINE
8
Setbacks
10
-3.6415144494
20
-18.0927399750
11
-3.6418028635
21
-18.0931793143
62
2
0
LINE
8
Setbacks
10
-3.6418028635
20
-18.0931793143
11
-4.1966555715
21
-18.8064906888
62
2
0
LINE
8
Setbacks
10
-4.1966555715
20
-18.8064906888
11
-4.1969922815
21
-18.8068613205
62
2
0
LINE
8
Setbacks
10
-4.1969922815
20
-18.8068613205
11
-4.1973814728
21
-18.8071763945
62
2
0
LINE
8
Setbacks
10
-4.1973814728
20
-18.8071763945
11
-4.9582578095
21
-19.3323758864
62
2
0
LINE
8
Setbacks
10
-4.9582578095
20
-19.3323758864
11
-4.9591213040
21
-19.3328004625
62
2
0
LINE
8
Setbacks
10
-4.9591213040
20
-19.3328004625
11
-5.8515412801
21
-19.6184773089
62
2
0
LINE
8
Setbacks
10
-5.8515412801
20
-19.6184773089
11
-5.8524778169
21
-19.6186328832
62
2
0
LINE
8
Setbacks
10
-5.8524778169
20
-19.6186328832
11
-6.7890854584
21
-19.6368238287
62
2
0
LINE
8
Setbacks
10
-6.7890854584
20
-19.6368238287
11
-6.7895676490
21
-19.6367976485
62
2
0
LINE
8
Setbacks
10
-6.7895676490
20
-19.6367976485
11
-6.7900407735
21
-19.6367009716
62
2
0
LINE
8
Setbacks
10
-6.7900407735
20
-19.6367009716
11
-7.6791539909
21
-19.3856248481
62
2
0
LINE
8
Setbacks
10
-7.6791539909
20
-19.3856248481
11
-7.6796248594
21
-19.3854520397
62
2
0
LINE
8
Setbacks
10
-7.6796248594
20
-19.3854520397
11
-7.6800638833
21
-19.3852094747
62
2
0
LINE
8
Setbacks
10
-7.6800638833
20
-19.3852094747
11
-8.4346501936
21
-18.8894433827
62
2
0
LINE
8
Setbacks
10
-8.4346501936
20
-18.8894433827
11
-8.4350655803
21
-18.8891199308
62
2
0
LINE
8
Setbacks
10
-8.4350655803
20
-18.8891199308
11
-8.4354238829
21
-18.8887342023
62
2
0
LINE
8
Setbacks
10
-8.4354238829
20
-18.8887342023
11
-8.9816194385
21
-18.1968073429
62
2
0
LINE
8
Setbacks
10
-8.9816194385
20
-18.1968073429
11
-8.9819219786
21
-18.1963501568
62
2
0
LINE
8
Setbacks
10
-8.9819219786
20
-18.1963501568
11
-8.9821441669
21
-18.1958489762
62
2
0
LINE
8
Setbacks
10
-8.9821441669
20
-18.1958489762
11
-9.2664834149
21
-17.3754916665
62
2
0
LINE
8
Setbacks
10
-9.2664834149
20
-17.3754916665
11
-9.2666204682
21
-17.3749519545
62
2
0
LINE
8
Setbacks
10
-9.2666204682
20
-17.3749519545
11
-9.3383570642
21
-16.9406984244
62
2
0
LINE
8
Setbacks
10
-9.3383570642
20
-16.9406984244
11
-11.7425098426
21
-17.3378527273
62
2
0
LINE
8
Setbacks
10
-11.7425098426
20
-17.3378527273
11
-11.6464950303
21
-17.9190734535
62
2
0
LINE
8
Setbacks
10
-11.6464950303
20
-17.9190734535
11
-11.6464512224
21
-17.9196283978
62
2
0
LINE
8
Setbacks
10
-11.6464512224
20
-17.9196283978
11
-11.6518019443
21
-18.7881136618
62
2
0
LINE
8
Setbacks
10
-11.6518019443
20
-18.7881136618
11
-11.6518510066
21
-18.7886590695
62
2
0
LINE
8
Setbacks
10
-11.6518510066
20
-18.7886590695
11
-11.6519901027
21
-18.7891887192
62
2
0
LINE
8
Setbacks
10
-11.6519901027
20
-18.7891887192
11
-11.9465061883
21
-19.6207881553
62
2
0
LINE
8
Setbacks
10
-11.9465061883
20
-19.6207881553
11
-11.9467207516
21
-19.6212679104
62
2
0
LINE
8
Setbacks
10
-11.9467207516
20
-19.6212679104
11
-11.9470091660
21
-19.6217072503
62
2
0
LINE
8
Setbacks
10
-11.9470091660
20
-19.6217072503
11
-12.5018618740
21
-20.3350186249
62
2
0
LINE
8
Setbacks
10
-12.5018618740
20
-20.3350186249
11
-12.5021985841
21
-20.3353892565
62
2
0
LINE
8
Setbacks
10
-12.5021985841
20
-20.3353892565
11
-12.5025877753
21
-20.3357043305
62
2
0
LINE
8
Setbacks
10
-12.5025877753
20
-20.3357043305
11
-13.2634641120
21
-20.8609038224
62
2
0
LINE
8
Setbacks
10
-13.2634641120
20
-20.8609038224
11
-13.2643276065
21
-20.8613283985
62
2
0
LINE
8
Setbacks
10
-13.2643276065
20
-20.8613283985
11
-14.1567475826
21
-21.1470052450
62
2
0
LINE
8
Setbacks
10
-14.1567475826
20
-21.1470052450
11
-14.1576841194
21
-21.1471608192
62
2
0
LINE
8
Setbacks
10
-14.1576841194
20
-21.1471608192
11
-15.0942917609
21
-21.1653517647
62
2
0
LINE
8
Setbacks
10
-15.0942917609
20
-21.1653517647
11
-15.0947739515
21
-21.1653255845
62
2
0
LINE
8
Setbacks
10
-15.0947739515
20
-21.1653255845
11
-15.0952470760
21
-21.1652289077
62
2
0
LINE
8
Setbacks
10
-15.0952470760
20
-21.1652289077
11
-15.9843602935
21
-20.9141527842
62
2
0
LINE
8
Setbacks
10
-15.9843602935
20
-20.9141527842
11
-15.9848311616
21
-20.9139799759
62
2
0
LINE
8
Setbacks
10
-15.9848311616
20
-20.9139799759
11
-15.9852701853
21
-20.9137374111
62
2
0
LINE
8
Setbacks
10
-15.9852701853
20
-20.9137374111
11
-16.7398568236
21
-20.4179713191
62
2
0
LINE
8
Setbacks
10
-16.7398568236
20
-20.4179713191
11
-16.7402722108
21
-20.4176478669
62
2
0
LINE
8
Setbacks
10
-16.7402722108
20
-20.4176478669
11
-16.7406305138
21
-20.4172621380
62
2
0
LINE
8
Setbacks
10
-16.7406305138
20
-20.4172621380
11
-16.9130899928
21
-20.1987884200
62
2
0
LINE
8
Setbacks
10
-16.9130899928
20
-20.1987884200
11
-26.7705814935
21
-21.8271985208
62
2
0
LINE
8
Setbacks
10
-26.7705814935
20
-21.8271985208
11
-26.8617845527
21
-22.0847206489
62
2
0
LINE
8
Setbacks
10
-26.8617845527
20
-22.0847206489
11
-26.8619991161
21
-22.0852004040
62
2
0
LINE
8
Setbacks
10
-26.8619991161
20
-22.0852004040
11
-26.8622875304
21
-22.0856397439
62
2
0
LINE
8
Setbacks
10
-26.8622875304
20
-22.0856397439
11
-27.4171402384
21
-22.7989511184
62
2
0
LINE
8
Setbacks
10
-27.4171402384
20
-22.7989511184
11
-27.4174769485
21
-22.7993217501
62
2
0
LINE
8
Setbacks
10
-27.4174769485
20
-22.7993217501
11
-27.4178661398
21
-22.7996368241
62
2
0
LINE
8
Setbacks
10
-27.4178661398
20
-22.7996368241
11
-28.1787424764
21
-23.3248363160
62
2
0
LINE
8
Setbacks
10
-28.1787424764
20
-23.3248363160
11
-28.1796059713
21
-23.3252608922
62
2
0
LINE
8
Setbacks
10
-28.1796059713
20
-23.3252608922
11
-29.0720262754
21
-23.6109377386
62
2
0
LINE
8
Setbacks
10
-29.0720262754
20
-23.6109377386
11
-29.0729628119
21
-23.6110933128
62
2
0
LINE
8
Setbacks
10
-29.0729628119
20
-23.6110933128
11
-30.0095701253
21
-23.6292842582
62
2
0
LINE
8
Setbacks
10
-30.0095701253
20
-23.6292842582
11
-30.0100523164
21
-23.6292580780
62
2
0
LINE
8
Setbacks
10
-30.0100523164
20
-23.6292580780
11
-30.0105254412
21
-23.6291614010
62
2
0
LINE
8
Setbacks
10
-30.0105254412
20
-23.6291614010
11
-30.8996389867
21
-23.3780849494
62
2
0
LINE
8
Setbacks
10
-30.8996389867
20
-23.3780849494
11
-30.9001098543
21
-23.3779121412
62
2
0
LINE
8
Setbacks
10
-30.9001098543
20
-23.3779121412
11
-30.9005488775
21
-23.3776695767
62
2
0
LINE
8
Setbacks
10
-30.9005488775
20
-23.3776695767
11
-31.6551351878
21
-22.8819038128
62
2
0
LINE
8
Setbacks
10
-31.6551351878
20
-22.8819038128
11
-31.6555505755
21
-22.8815803602
62
2
0
LINE
8
Setbacks
10
-31.6555505755
20
-22.8815803602
11
-31.6559088788
21
-22.8811946307
62
2
0
LINE
8
Setbacks
10
-31.6559088788
20
-22.8811946307
11
-31.7764348976
21
-22.7285107367
62
2
0
LINE
8
Setbacks
10
-31.7764348976
20
-22.7285107367
11
-35.5967767434
21
-28.1312931300
62
2
0
LINE
8
Setbacks
10
43.1226117565
20
-9.7644650146
11
44.3576889605
21
-17.7516278768
62
2
0
LINE
8
Setbacks
10
44.3576889605
20
-17.7516278768
11
44.5868578525
21
-17.8327895134
62
2
0
LINE
8
Setbacks
10
44.5868578525
20
-17.8327895134
11
44.5873376073
21
-17.8330040766
62
2
0
LINE
8
Setbacks
10
44.5873376073
20
-17.8330040766
11
44.5877769469
21
-17.8332924908
62
2
0
LINE
8
Setbacks
10
44.5877769469
20
-17.8332924908
11
45.3010883214
21
-18.3881451989
62
2
0
LINE
8
Setbacks
10
45.3010883214
20
-18.3881451989
11
45.3014589534
21
-18.3884819092
62
2
0
LINE
8
Setbacks
10
45.3014589534
20
-18.3884819092
11
45.3017740276
21
-18.3888711010
62
2
0
LINE
8
Setbacks
10
45.3017740276
20
-18.3888711010
11
45.8269731914
21
-19.1497474376
62
2
0
LINE
8
Setbacks
10
45.8269731914
20
-19.1497474376
11
45.8273977667
21
-19.1506109303
62
2
0
LINE
8
Setbacks
10
45.8273977667
20
-19.1506109303
11
46.1130749412
21
-20.0430309064
62
2
0
LINE
8
Setbacks
10
46.1130749412
20
-20.0430309064
11
46.1132305158
21
-20.0439674452
62
2
0
LINE
8
Setbacks
10
46.1132305158
20
-20.0439674452
11
46.1272104581
21
-20.7637722820
62
2
0
LINE
8
Setbacks
10
46.1272104581
20
-20.7637722820
11
52.1248978472
21
-25.0047748075
62
2
0
LINE
8
Setbacks
10
46.0722566292
20
10.2725366154
11
41.4172907324
21
3.8707683148
62
2
0
LINE
8
Setbacks
10
41.4172907324
20
3.8707683148
11
42.7718264878
21
-4.3288389783
62
2
0
LINE
8
Setbacks
10
42.7718264878
20
-4.3288389783
11
43.0293482889
21
-4.4200420371
62
2
0
LINE
8
Setbacks
10
43.0293482889
20
-4.4200420371
11
43.0298280433
21
-4.4202566003
62
2
0
LINE
8
Setbacks
10
43.0298280433
20
-4.4202566003
11
43.0302673826
21
-4.4205450144
62
2
0
LINE
8
Setbacks
10
43.0302673826
20
-4.4205450144
11
43.7435787571
21
-4.9753977224
62
2
0
LINE
8
Setbacks
10
43.7435787571
20
-4.9753977224
11
43.7439493891
21
-4.9757344328
62
2
0
LINE
8
Setbacks
10
43.7439493891
20
-4.9757344328
11
43.7442644634
21
-4.9761236245
62
2
0
LINE
8
Setbacks
10
43.7442644634
20
-4.9761236245
11
44.2694636271
21
-5.7369999612
62
2
0
LINE
8
Setbacks
10
44.2694636271
20
-5.7369999612
11
44.2698882024
21
-5.7378634539
62
2
0
LINE
8
Setbacks
10
44.2698882024
20
-5.7378634539
11
44.5555653769
21
-6.6302834299
62
2
0
LINE
8
Setbacks
10
44.5555653769
20
-6.6302834299
11
44.5557209515
21
-6.6312199689
62
2
0
LINE
8
Setbacks
10
44.5557209515
20
-6.6312199689
11
44.5739115689
21
-7.5678276104
62
2
0
LINE
8
Setbacks
10
44.5739115689
20
-7.5678276104
11
44.5738853887
21
-7.5683098005
62
2
0
LINE
8
Setbacks
10
44.5738853887
20
-7.5683098005
11
44.5737887119
21
-7.5687829244
62
2
0
LINE
8
Setbacks
10
44.5737887119
20
-7.5687829244
11
44.3227125883
21
-8.4578961419
62
2
0
LINE
8
Setbacks
10
44.3227125883
20
-8.4578961419
11
44.3225397801
21
-8.4583670100
62
2
0
LINE
8
Setbacks
10
44.3225397801
20
-8.4583670100
11
44.3222972153
21
-8.4588060337
62
2
0
LINE
8
Setbacks
10
44.3222972153
20
-8.4588060337
11
43.8265311233
21
-9.2133926720
62
2
0
LINE
8
Setbacks
10
43.8265311233
20
-9.2133926720
11
43.8262076709
21
-9.2138080594
62
2
0
LINE
8
Setbacks
10
43.8262076709
20
-9.2138080594
11
43.8258219418
21
-9.2141663625
62
2
0
LINE
8
Setbacks
10
43.8258219418
20
-9.2141663625
11
43.1338950823
21
-9.7603615900
62
2
0
LINE
8
Setbacks
10
43.1338950823
20
-9.7603615900
11
43.1334378995
21
-9.7606641282
62
2
0
LINE
8
Setbacks
10
43.1334378995
20
-9.7606641282
11
43.1329367226
21
-9.7608863157
62
2
0
LINE
8
Setbacks
10
43.1329367226
20
-9.7608863157
11
43.1226117565
21
-9.7644650146
62
2
0
LINE
8
Setbacks
10
-11.4261400875
20
23.1603710827
11
-10.9332043196
21
23.2486947202
62
2
0
LINE
8
Setbacks
10
-10.9332043196
20
23.2486947202
11
-10.9331679531
21
23.2486978011
62
2
0
LINE
8
Setbacks
10
-10.9331679531
20
23.2486978011
11
-10.9331330598
21
23.2487075072
62
2
0
LINE
8
Setbacks
10
-10.9331330598
20
23.2487075072
11
-10.9325305269
21
23.2487598788
62
2
0
LINE
8
Setbacks
10
-10.9325305269
20
23.2487598788
11
-10.8655334892
21
23.2483845526
62
2
0
LINE
8
Setbacks
10
-10.8655334892
20
23.2483845526
11
-10.7979101391
21
23.2480197251
62
2
0
LINE
8
Setbacks
10
-10.7979101391
20
23.2480197251
11
-10.7973367489
21
23.2479660869
62
2
0
LINE
8
Setbacks
10
-10.7973367489
20
23.2479660869
11
-10.7972922641
21
23.2479538217
62
2
0
LINE
8
Setbacks
10
-10.7972922641
20
23.2479538217
11
-10.7972502909
21
23.2479497781
62
2
0
LINE
8
Setbacks
10
-10.7972502909
20
23.2479497781
11
-10.7966965649
21
23.2477956611
62
2
0
LINE
8
Setbacks
10
-10.7966965649
20
23.2477956611
11
-10.7322815057
21
23.2236110607
62
2
0
LINE
8
Setbacks
10
-10.7322815057
20
23.2236110607
11
-10.6666341631
21
23.1989782974
62
2
0
LINE
8
Setbacks
10
-10.6666341631
20
23.1989782974
11
-10.6661453473
21
23.1987473003
62
2
0
LINE
8
Setbacks
10
-10.6661453473
20
23.1987473003
11
-10.6661143297
21
23.1987257857
62
2
0
LINE
8
Setbacks
10
-10.6661143297
20
23.1987257857
11
-10.6660850579
21
23.1987120947
62
2
0
LINE
8
Setbacks
10
-10.6660850579
20
23.1987120947
11
-10.6656395132
21
23.1984056407
62
2
0
LINE
8
Setbacks
10
-10.6656395132
20
23.1984056407
11
-10.6094501058
21
23.1524999847
62
2
0
LINE
8
Setbacks
10
-10.6094501058
20
23.1524999847
11
-10.5528669977
21
23.1062895387
62
2
0
LINE
8
Setbacks
10
-10.5528669977
20
23.1062895387
11
-10.5528068900
21
23.1062235802
62
2
0
LINE
8
Setbacks
10
-10.5528068900
20
23.1062235802
11
-10.5528011824
21
23.1062188898
62
2
0
LINE
8
Setbacks
10
-10.5528011824
20
23.1062188898
11
-10.5525728847
21
23.1059667970
62
2
0
LINE
8
Setbacks
10
-10.5525728847
20
23.1059667970
11
-10.5522198786
21
23.1055794296
62
2
0
LINE
8
Setbacks
10
-10.5522198786
20
23.1055794296
11
-10.5522135225
21
23.1055699791
62
2
0
LINE
8
Setbacks
10
-10.5522135225
20
23.1055699791
11
-10.5521560022
21
23.1055064636
62
2
0
LINE
8
Setbacks
10
-10.5521560022
20
23.1055064636
11
-10.5099199295
21
23.0422750576
62
2
0
LINE
8
Setbacks
10
-10.5099199295
20
23.0422750576
11
-10.4677120722
21
22.9791082841
62
2
0
LINE
8
Setbacks
10
-10.4677120722
20
22.9791082841
11
-10.4676723372
21
22.9790262112
62
2
0
LINE
8
Setbacks
10
-10.4676723372
20
22.9790262112
11
-10.4676711017
21
22.9790243580
62
2
0
LINE
8
Setbacks
10
-10.4676711017
20
22.9790243580
11
-10.4675195369
21
22.9787106009
62
2
0
LINE
8
Setbacks
10
-10.4675195369
20
22.9787106009
11
-10.4673182282
21
22.9782947963
62
2
0
LINE
8
Setbacks
10
-10.4673182282
20
22.9782947963
11
-10.4673173210
21
22.9782919903
62
2
0
LINE
8
Setbacks
10
-10.4673173210
20
22.9782919903
11
-10.4672784919
21
22.9782116095
62
2
0
LINE
8
Setbacks
10
-10.4672784919
20
22.9782116095
11
-10.4432893966
21
22.9038378352
62
2
0
LINE
8
Setbacks
10
-10.4432893966
20
22.9038378352
11
-10.4194295664
21
22.8299043496
62
2
0
LINE
8
Setbacks
10
-10.4194295664
20
22.8299043496
11
-10.4194134842
21
22.8298147784
62
2
0
LINE
8
Setbacks
10
-10.4194134842
20
22.8298147784
11
-10.4194118284
21
22.8298096187
62
2
0
LINE
8
Setbacks
10
-10.4194118284
20
22.8298096187
11
-10.4193062168
21
22.8293850186
62
2
0
LINE
8
Setbacks
10
-10.4193062168
20
22.8293850186
11
-10.2353300750
21
21.8011730639
62
2
0
LINE
8
Setbacks
10
-10.2353300750
20
21.8011730639
11
-3.7722265589
21
14.4241449255
62
2
0
LINE
8
Setbacks
10
-3.7722265589
20
14.4241449255
11
-6.7644199502
21
31.1552561521
62
2
0
LINE
8
Setbacks
10
-6.7644199502
20
31.1552561521
11
-16.5606731904
21
29.4032932280
62
2
0
LINE
8
Setbacks
10
-16.4559869362
20
28.8179308021
11
-16.3431250403
21
28.8603681076
62
2
0
LINE
8
Setbacks
10
-16.3431250403
20
28.8603681076
11
-16.3425479242
21
28.8605267818
62
2
0
LINE
8
Setbacks
10
-16.3425479242
20
28.8605267818
11
-16.1787050712
21
28.8898286200
62
2
0
LINE
8
Setbacks
10
-16.1787050712
20
28.8898286200
11
-16.1781087249
21
28.8898798078
62
2
0
LINE
8
Setbacks
10
-16.1781087249
20
28.8898798078
11
-15.3699092240
21
28.8852580885
62
2
0
LINE
8
Setbacks
10
-15.3699092240
20
28.8852580885
11
-15.3693325613
21
28.8852036595
62
2
0
LINE
8
Setbacks
10
-15.3693325613
20
28.8852036595
11
-15.3687744575
21
28.8850486675
62
2
0
LINE
8
Setbacks
10
-15.3687744575
20
28.8850486675
11
-14.5879889994
21
28.5918052198
62
2
0
LINE
8
Setbacks
10
-14.5879889994
20
28.5918052198
11
-14.5875061069
21
28.5915774507
62
2
0
LINE
8
Setbacks
10
-14.5875061069
20
28.5915774507
11
-14.5870665523
21
28.5912743739
62
2
0
LINE
8
Setbacks
10
-14.5870665523
20
28.5912743739
11
-13.9101236172
21
28.0381132670
62
2
0
LINE
8
Setbacks
10
-13.9101236172
20
28.0381132670
11
-13.9097707143
21
28.0377783004
62
2
0
LINE
8
Setbacks
10
-13.9097707143
20
28.0377783004
11
-13.9094712324
21
28.0373948244
62
2
0
LINE
8
Setbacks
10
-13.9094712324
20
28.0373948244
11
-13.4026352582
21
27.2784636978
62
2
0
LINE
8
Setbacks
10
-13.4026352582
20
27.2784636978
11
-13.4022410985
21
27.2776484889
62
2
0
LINE
8
Setbacks
10
-13.4022410985
20
27.2776484889
11
-13.1151246195
21
26.3872370431
62
2
0
LINE
8
Setbacks
10
-13.1151246195
20
26.3872370431
11
-13.1149691938
21
26.3863679664
62
2
0
LINE
8
Setbacks
10
-13.1149691938
20
26.3863679664
11
-13.0756768697
21
25.4516353250
62
2
0
LINE
8
Setbacks
10
-13.0756768697
20
25.4516353250
11
-13.0757640501
21
25.4507340340
62
2
0
LINE
8
Setbacks
10
-13.0757640501
20
25.4507340340
11
-13.1523486455
21
25.1306769918
62
2
0
LINE
8
Setbacks
10
-13.1523486455
20
25.1306769918
11
-11.4261400875
21
23.1603710827
62
2
0
LINE
8
Setbacks
10
10.1129429749
20
-19.6675659360
11
19.8565924510
21
-18.0579620539
62
2
0
LINE
8
Setbacks
10
19.8565924510
20
-18.0579620539
11
17.6282504215
21
-4.5688170899
62
2
0
LINE
8
Setbacks
10
17.6282504215
20
-4.5688170899
11
17.0804106331
21
-4.5554427381
62
2
0
LINE
8
Setbacks
10
17.0804106331
20
-4.5554427381
11
17.0798224943
21
-4.5553749474
62
2
0
LINE
8
Setbacks
10
17.0798224943
20
-4.5553749474
11
17.0792561143
21
-4.5552025627
62
2
0
LINE
8
Setbacks
10
17.0792561143
20
-4.5552025627
11
16.9936097738
21
-4.5204167158
62
2
0
LINE
8
Setbacks
10
16.9936097738
20
-4.5204167158
11
11.9740769938
21
-11.5265281484
62
2
0
LINE
8
Setbacks
10
11.9740769938
20
-11.5265281484
11
12.1145994050
21
-11.9894249837
62
2
0
LINE
8
Setbacks
10
12.1145994050
20
-11.9894249837
11
12.1147391190
21
-11.9902707347
62
2
0
LINE
8
Setbacks
10
12.1147391190
20
-11.9902707347
11
12.1453129389
21
-12.9248353971
62
2
0
LINE
8
Setbacks
10
12.1453129389
20
-12.9248353971
11
12.1452228105
21
-12.9257136842
62
2
0
LINE
8
Setbacks
10
12.1452228105
20
-12.9257136842
11
11.9317582368
21
-13.8086159434
62
2
0
LINE
8
Setbacks
10
11.9317582368
20
-13.8086159434
11
11.9313996682
21
-13.8095040895
62
2
0
LINE
8
Setbacks
10
11.9313996682
20
-13.8095040895
11
11.4947923708
21
-14.5543200582
62
2
0
LINE
8
Setbacks
10
11.4947923708
20
-14.5543200582
11
11.4944841871
21
-14.5547590866
62
2
0
LINE
8
Setbacks
10
11.4944841871
20
-14.5547590866
11
11.4941085839
21
-14.5551420297
62
2
0
LINE
8
Setbacks
10
11.4941085839
20
-14.5551420297
11
10.8770964251
21
-15.0889629130
62
2
0
LINE
8
Setbacks
10
10.8770964251
20
-15.0889629130
11
10.8766155783
21
-15.0893082940
62
2
0
LINE
8
Setbacks
10
10.8766155783
20
-15.0893082940
11
10.8760804902
21
-15.0895616364
62
2
0
LINE
8
Setbacks
10
10.8760804902
20
-15.0895616364
11
10.1390607816
21
-15.3601341516
62
2
0
LINE
8
Setbacks
10
10.1390607816
20
-15.3601341516
11
10.1384648474
21
-15.3602912667
62
2
0
LINE
8
Setbacks
10
10.1384648474
20
-15.3602912667
11
9.4209815695
21
-15.4788163053
62
2
0
LINE
8
Setbacks
10
3.0079091228
20
24.9261070393
11
2.2427787936
21
24.9405289398
62
2
0
LINE
8
Setbacks
10
2.2427787936
20
24.9405289398
11
2.2422042008
21
24.9405906761
62
2
0
LINE
8
Setbacks
10
2.2422042008
20
24.9405906761
11
2.2416493541
21
24.9407522723
62
2
0
LINE
8
Setbacks
10
2.2416493541
20
24.9407522723
11
1.4633271507
21
25.2440606810
62
2
0
LINE
8
Setbacks
10
1.4633271507
20
25.2440606810
11
1.4628486644
21
25.2442934548
62
2
0
LINE
8
Setbacks
10
1.4628486644
20
25.2442934548
11
1.4624140991
21
25.2446005149
62
2
0
LINE
8
Setbacks
10
1.4624140991
20
25.2446005149
11
0.7905512167
21
25.8062865565
62
2
0
LINE
8
Setbacks
10
0.7905512167
20
25.8062865565
11
0.7902030917
21
25.8066243304
62
2
0
LINE
8
Setbacks
10
0.7902030917
20
25.8066243304
11
0.7899085734
21
25.8070097408
62
2
0
LINE
8
Setbacks
10
0.7899085734
20
25.8070097408
11
0.2902714183
21
26.5720914582
62
2
0
LINE
8
Setbacks
10
0.2902714183
20
26.5720914582
11
0.2898861458
21
26.5729091442
62
2
0
LINE
8
Setbacks
10
0.2898861458
20
26.5729091442
11
0.0113831841
21
27.4664951308
62
2
0
LINE
8
Setbacks
10
0.0113831841
20
27.4664951308
11
0.0112362814
21
27.4673657180
62
2
0
LINE
8
Setbacks
10
0.0112362814
20
27.4673657180
11
-0.0188713311
21
28.4019854986
62
2
0
LINE
8
Setbacks
10
-0.0188713311
20
28.4019854986
11
-0.0187749103
21
28.4028875086
62
2
0
LINE
8
Setbacks
10
-0.0187749103
20
28.4028875086
11
0.2024603330
21
29.2870538755
62
2
0
LINE
8
Setbacks
10
0.2024603330
20
29.2870538755
11
0.2026137006
21
29.2875172393
62
2
0
LINE
8
Setbacks
10
0.2026137006
20
29.2875172393
11
0.2028341141
21
29.2879527225
62
2
0
LINE
8
Setbacks
10
0.2028341141
20
29.2879527225
11
0.6537560445
21
30.0351174446
62
2
0
LINE
8
Setbacks
10
0.6537560445
20
30.0351174446
11
0.6540693785
21
30.0355519805
62
2
0
LINE
8
Setbacks
10
0.6540693785
20
30.0355519805
11
0.6544492530
21
30.0359297303
62
2
0
LINE
8
Setbacks
10
0.6544492530
20
30.0359297303
11
1.2909187616
21
30.5729553381
62
2
0
LINE
8
Setbacks
10
1.2909187616
20
30.5729553381
11
1.2913938253
21
30.5732889781
62
2
0
LINE
8
Setbacks
10
1.2913938253
20
30.5732889781
11
1.2919202558
21
30.5735336661
62
2
0
LINE
8
Setbacks
10
1.2919202558
20
30.5735336661
11
2.0516351751
21
30.8478515883
62
2
0
LINE
8
Setbacks
10
2.0516351751
20
30.8478515883
11
2.0522146774
21
30.8480027205
62
2
0
LINE
8
Setbacks
10
2.0522146774
20
30.8480027205
11
3.5405072102
21
31.0938616153
62
2
0
LINE
8
Setbacks
10
3.5405072102
20
31.0938616153
11
3.5565783801
21
31.1610243477
62
2
0
LINE
8
Setbacks
10
3.5565783801
20
31.1610243477
11
3.5567263873
21
31.1614878483
62
2
0
LINE
8
Setbacks
10
3.5567263873
20
31.1614878483
11
3.5569413162
21
31.1619243623
62
2
0
LINE
8
Setbacks
10
3.5569413162
20
31.1619243623
11
4.0002008448
21
31.9154224179
62
2
0
LINE
8
Setbacks
10
4.0002008448
20
31.9154224179
11
4.0005081089
21
31.9158590561
62
2
0
LINE
8
Setbacks
10
4.0005081089
20
31.9158590561
11
4.0008821259
21
31.9162400751
62
2
0
LINE
8
Setbacks
10
4.0008821259
20
31.9162400751
11
4.6316341145
21
32.4619231634
62
2
0
LINE
8
Setbacks
10
4.6316341145
20
32.4619231634
11
4.6321039047
21
32.4622619840
62
2
0
LINE
8
Setbacks
10
4.6321039047
20
32.4622619840
11
4.6326259578
21
32.4625129075
62
2
0
LINE
8
Setbacks
10
4.6326259578
20
32.4625129075
11
5.3891272944
21
32.7469660006
62
2
0
LINE
8
Setbacks
10
5.3891272944
20
32.7469660006
11
5.3897044172
21
32.7471246762
62
2
0
LINE
8
Setbacks
10
5.3897044172
20
32.7471246762
11
5.6708522454
21
32.7974049706
62
2
0
LINE
8
Setbacks
10
2.1568654311
20
23.7380760090
11
2.1570766531
21
23.7385235033
62
2
0
LINE
8
Setbacks
10
2.1570766531
20
23.7385235033
11
2.3734421456
21
24.1195074394
62
2
0
LINE
8
Setbacks
10
2.3734421456
20
24.1195074394
11
2.3737411559
21
24.1199467865
62
2
0
LINE
8
Setbacks
10
2.3737411559
20
24.1199467865
11
2.3741071768
21
24.1203320937
62
2
0
LINE
8
Setbacks
10
2.3741071768
20
24.1203320937
11
2.6855235253
21
24.3990135331
62
2
0
LINE
8
Setbacks
10
2.6855235253
20
24.3990135331
11
2.6859860199
21
24.3993592264
62
2
0
LINE
8
Setbacks
10
2.6859860199
20
24.3993592264
11
2.6865019560
21
24.3996184849
62
2
0
LINE
8
Setbacks
10
2.6865019560
20
24.3996184849
11
3.0624858919
21
24.5487175710
62
2
0
LINE
8
Setbacks
10
3.0624858919
20
24.5487175710
11
3.0630600339
21
24.5488865281
62
2
0
LINE
8
Setbacks
10
3.0630600339
20
24.5488865281
11
3.0636553156
21
24.5489483765
62
2
0
LINE
8
Setbacks
10
3.0636553156
20
24.5489483765
11
3.0702007450
21
24.5490281691
62
2
0
LINE
8
Setbacks
10
5.5700319968
20
33.3611501609
11
-4.2262211697
21
31.6091875769
62
2
0
LINE
8
Setbacks
10
-4.2262211697
20
31.6091875769
11
-1.2340277785
21
14.8780766787
62
2
0
LINE
8
Setbacks
10
-1.2340277785
20
14.8780766787
11
2.1568654311
21
23.7380760090
62
2
0
LINE
8
Setbacks
10
29.9646704636
20
10.1141011634
11
29.9761956428
21
10.0827074337
62
2
0
LINE
8
Setbacks
10
29.9761956428
20
10.0827074337
11
29.9763527630
21
10.0821114691
62
2
0
LINE
8
Setbacks
10
29.9763527630
20
10.0821114691
11
29.9791467264
21
10.0651974266
62
2
0
LINE
8
Setbacks
10
29.9791467264
20
10.0651974266
11
29.9791896146
21
10.0645826506
62
2
0
LINE
8
Setbacks
10
29.9791896146
20
10.0645826506
11
29.9600278686
21
9.2797004077
62
2
0
LINE
8
Setbacks
10
29.9600278686
20
9.2797004077
11
29.9599600777
21
9.2791122700
62
2
0
LINE
8
Setbacks
10
29.9599600777
20
9.2791122700
11
29.9597876933
21
9.2785458910
62
2
0
LINE
8
Setbacks
10
29.9597876933
20
9.2785458910
11
29.6527676703
21
8.5226308406
62
2
0
LINE
8
Setbacks
10
29.6527676703
20
8.5226308406
11
29.6525258719
21
8.5221520335
62
2
0
LINE
8
Setbacks
10
29.6525258719
20
8.5221520335
11
29.6522092851
21
8.5217190261
62
2
0
LINE
8
Setbacks
10
29.6522092851
20
8.5217190261
11
29.0873838077
21
7.8687652650
62
2
0
LINE
8
Setbacks
10
29.0873838077
20
7.8687652650
11
29.0866581684
21
7.8681401067
62
2
0
LINE
8
Setbacks
10
29.0866581684
20
7.8681401067
11
28.3193166084
21
7.3820629914
62
2
0
LINE
8
Setbacks
10
28.3193166084
20
7.3820629914
11
28.3185139707
21
7.3816951823
62
2
0
LINE
8
Setbacks
10
28.3185139707
20
7.3816951823
11
27.4237691915
21
7.1100757510
62
2
0
LINE
8
Setbacks
10
27.4237691915
20
7.1100757510
11
27.4229234384
21
7.1099360368
62
2
0
LINE
8
Setbacks
10
27.4229234384
20
7.1099360368
11
26.9394255652
21
7.0941188660
62
2
0
LINE
8
Setbacks
10
26.9394255652
20
7.0941188660
11
23.2458862435
21
1.9387884385
62
2
0
LINE
8
Setbacks
10
23.2458862435
20
1.9387884385
11
23.2455587614
21
1.9383990815
62
2
0
LINE
8
Setbacks
10
23.2455587614
20
1.9383990815
11
23.1907678246
21
1.8826699347
62
2
0
LINE
8
Setbacks
10
23.1907678246
20
1.8826699347
11
22.2315441671
21
0.5438146894
62
2
0
LINE
8
Setbacks
10
22.2315441671
20
0.5438146894
11
37.1099657064
21
3.0016586986
62
2
0
LINE
8
Setbacks
10
37.1099657064
20
3.0016586986
11
35.7764244872
21
11.0741749929
62
2
0
LINE
8
Setbacks
10
0.0332985113
20
10.2731928350
11
2.3544570484
21
10.6566369622
62
2
0
LINE
8
Setbacks
10
2.3544570484
20
10.6566369622
11
1.6988775346
21
14.6251515881
62
2
0
LINE
8
Setbacks
10
1.6988775346
20
14.6251515881
11
0.0332985113
21
10.2731928350
62
2
0
LINE
8
Setbacks
10
-9.7315008300
20
16.5313516427
11
-9.7317859351
21
16.5312788722
62
2
0
LINE
8
Setbacks
10
-9.7317859351
20
16.5312788722
11
-11.0449022284
21
16.2978242082
62
2
0
LINE
8
Setbacks
10
-11.0449022284
20
16.2978242082
11
-9.6804774994
21
8.6685234690
62
2
0
LINE
8
Setbacks
10
-9.6804774994
20
8.6685234690
11
-3.4004575471
21
9.7059525704
62
2
0
LINE
8
Setbacks
10
-3.4004575471
20
9.7059525704
11
-9.4852976771
21
16.6512289475
62
2
0
LINE
8
Setbacks
10
-9.4852976771
20
16.6512289475
11
-9.5193782652
21
16.6267585002
62
2
0
LINE
8
Setbacks
10
-9.5193782652
20
16.6267585002
11
-9.5818292063
21
16.5818117356
62
2
0
LINE
8
Setbacks
10
-9.5818292063
20
16.5818117356
11
-9.5822465639
21
16.5815563144
62
2
0
LINE
8
Setbacks
10
-9.5822465639
20
16.5815563144
11
-9.5825194209
21
16.5814409805
62
2
0
LINE
8
Setbacks
10
-9.5825194209
20
16.5814409805
11
-9.5827669840
21
16.5812899793
62
2
0
LINE
8
Setbacks
10
-9.5827669840
20
16.5812899793
11
-9.5832179599
21
16.5811001458
62
2
0
LINE
8
Setbacks
10
-9.5832179599
20
16.5811001458
11
-9.6570082489
21
16.5563362826
62
2
0
LINE
8
Setbacks
10
-9.6570082489
20
16.5563362826
11
-9.7307391553
21
16.5315022113
62
2
0
LINE
8
Setbacks
10
-9.7307391553
20
16.5315022113
11
-9.7312089406
21
16.5313818006
62
2
0
LINE
8
Setbacks
10
-9.7312089406
20
16.5313818006
11
-9.7315008300
21
16.5313516427
62
2
0
LINE
8
Setbacks
10
-39.7700024927
20
-24.8971953583
11
-39.7987489114
21
-24.7664266458
62
2
0
LINE
8
Setbacks
10
-39.7987489114
20
-24.7664266458
11
-39.7988218135
21
-24.7658760519
62
2
0
LINE
8
Setbacks
10
-39.7988218135
20
-24.7658760519
11
-39.7988007978
21
-24.7653210504
62
2
0
LINE
8
Setbacks
10
-39.7988007978
20
-24.7653210504
11
-39.7454746806
21
-24.3325146061
62
2
0
LINE
8
Setbacks
10
-39.7454746806
20
-24.3325146061
11
-39.7453646097
21
-24.3319853886
62
2
0
LINE
8
Setbacks
10
-39.7453646097
20
-24.3319853886
11
-39.7451691365
21
-24.3314814273
62
2
0
LINE
8
Setbacks
10
-39.7451691365
20
-24.3314814273
11
-39.5507042353
21
-23.9314456533
62
2
0
LINE
8
Setbacks
10
-39.5507042353
20
-23.9314456533
11
-39.5504390181
21
-23.9309952930
62
2
0
LINE
8
Setbacks
10
-39.5504390181
20
-23.9309952930
11
-34.5873536517
21
-16.8593768808
62
2
0
LINE
8
Setbacks
10
-34.5873536517
20
-16.8593768808
11
-44.7944782591
21
-18.6996882055
62
2
0
LINE
8
Setbacks
10
-44.7944782591
20
-18.6996882055
11
-50.4409048476
21
-26.8055804805
62
2
0
LINE
8
Setbacks
10
-55.2023870206
20
-0.1813349057
11
-51.2796810410
21
-2.9138249771
62
2
0
LINE
8
Setbacks
10
-51.2796810410
20
-2.9138249771
11
-37.1456466677
21
-0.3655050002
62
2
0
LINE
8
Setbacks
10
-37.1456466677
20
-0.3655050002
11
-37.6374061530
21
2.6113331338
62
2
0
LINE
8
Setbacks
10
-37.6374061530
20
2.6113331338
11
-37.6374499617
21
2.6118879695
62
2
0
LINE
8
Setbacks
10
-37.6374499617
20
2.6118879695
11
-37.6353146011
21
2.9603617381
62
2
0
LINE
8
Setbacks
10
36.2773876735
20
19.2080677275
11
36.1054941957
21
19.1675030198
62
2
0
LINE
8
Setbacks
10
36.1054941957
20
19.1675030198
11
36.1049439607
21
19.1674216167
62
2
0
LINE
8
Setbacks
10
36.1049439607
20
19.1674216167
11
36.1043878822
21
19.1674343328
62
2
0
LINE
8
Setbacks
10
36.1043878822
20
19.1674343328
11
35.2389229595
21
19.2610366980
62
2
0
LINE
8
Setbacks
10
35.2389229595
20
19.2610366980
11
35.2383893066
21
19.2611396945
62
2
0
LINE
8
Setbacks
10
35.2383893066
20
19.2611396945
11
35.2378799798
21
19.2613293785
62
2
0
LINE
8
Setbacks
10
35.2378799798
20
19.2613293785
11
34.4355180775
21
19.6385095087
62
2
0
LINE
8
Setbacks
10
34.4355180775
20
19.6385095087
11
34.4350612376
21
19.6387709160
62
2
0
LINE
8
Setbacks
10
34.4350612376
20
19.6387709160
11
34.3944465379
21
19.6665589613
62
2
0
LINE
8
Setbacks
10
34.3944465379
20
19.6665589613
11
28.6127568874
21
16.0649458351
62
2
0
LINE
8
Setbacks
10
28.6127568874
20
16.0649458351
11
28.1961891520
21
15.4877920803
62
2
0
LINE
8
Setbacks
10
28.1961891520
20
15.4877920803
11
28.4134993417
21
15.3180281851
62
2
0
LINE
8
Setbacks
10
28.4134993417
20
15.3180281851
11
28.4138705024
21
15.3176893935
62
2
0
LINE
8
Setbacks
10
28.4138705024
20
15.3176893935
11
28.4141855679
21
15.3172978917
62
2
0
LINE
8
Setbacks
10
28.4141855679
20
15.3172978917
11
28.9361685242
21
14.5559136810
62
2
0
LINE
8
Setbacks
10
28.9361685242
20
14.5559136810
11
28.9364117750
21
14.5554958689
62
2
0
LINE
8
Setbacks
10
28.9364117750
20
14.5554958689
11
28.9365909833
21
14.5550468452
62
2
0
LINE
8
Setbacks
10
28.9365909833
20
14.5550468452
11
29.2186943388
21
13.6620622365
62
2
0
LINE
8
Setbacks
10
29.2186943388
20
13.6620622365
11
29.2188463369
21
13.6611250684
62
2
0
LINE
8
Setbacks
10
29.2188463369
20
13.6611250684
11
29.2280684953
21
13.0695632143
62
2
0
LINE
8
Setbacks
10
29.2280684953
20
13.0695632143
11
36.9603601518
21
14.3469004865
62
2
0
LINE
8
Setbacks
10
36.9603601518
20
14.3469004865
11
36.9609154314
21
14.3469442924
62
2
0
LINE
8
Setbacks
10
36.9609154314
20
14.3469442924
11
36.9796147646
21
14.3468271762
62
2
0
LINE
8
Setbacks
10
5.7400289767
20
-32.9631751996
11
9.2697194661
21
-27.9714357088
62
2
0
LINE
8
Setbacks
10
9.2697194661
20
-27.9714357088
11
9.2145059499
21
-27.9284878505
62
2
0
LINE
8
Setbacks
10
9.2145059499
20
-27.9284878505
11
9.2141353139
21
-27.9281511378
62
2
0
LINE
8
Setbacks
10
9.2141353139
20
-27.9281511378
11
9.2138202365
21
-27.9277619429
62
2
0
LINE
8
Setbacks
10
9.2138202365
20
-27.9277619429
11
8.6886210728
21
-27.1668856062
62
2
0
LINE
8
Setbacks
10
8.6886210728
20
-27.1668856062
11
8.6881964975
21
-27.1660221135
62
2
0
LINE
8
Setbacks
10
8.6881964975
20
-27.1660221135
11
8.4025193230
21
-26.2736021374
62
2
0
LINE
8
Setbacks
10
8.4025193230
20
-26.2736021374
11
8.4023637484
21
-26.2726655984
62
2
0
LINE
8
Setbacks
10
8.4023637484
20
-26.2726655984
11
8.3841731310
21
-25.3360579569
62
2
0
LINE
8
Setbacks
10
8.3841731310
20
-25.3360579569
11
8.3841993113
21
-25.3355757666
62
2
0
LINE
8
Setbacks
10
8.3841993113
20
-25.3355757666
11
8.3842959882
21
-25.3351026425
62
2
0
LINE
8
Setbacks
10
8.3842959882
20
-25.3351026425
11
8.5789097176
21
-24.6459349628
62
2
0
LINE
8
Setbacks
10
8.5789097176
20
-24.6459349628
11
8.1204396250
21
-23.9817322903
62
2
0
LINE
8
Setbacks
10
8.1204396250
20
-23.9817322903
11
8.1200150485
21
-23.9808687953
62
2
0
LINE
8
Setbacks
10
8.1200150485
20
-23.9808687953
11
7.8343382021
21
-23.0884488192
62
2
0
LINE
8
Setbacks
10
7.8343382021
20
-23.0884488192
11
7.8341826278
21
-23.0875122824
62
2
0
LINE
8
Setbacks
10
7.8341826278
20
-23.0875122824
11
7.8159916824
21
-22.1509046409
62
2
0
LINE
8
Setbacks
10
7.8159916824
20
-22.1509046409
11
7.8160178626
21
-22.1504224497
62
2
0
LINE
8
Setbacks
10
7.8160178626
20
-22.1504224497
11
7.8161145397
21
-22.1499493247
62
2
0
LINE
8
Setbacks
10
7.8161145397
20
-22.1499493247
11
8.0671909913
21
-21.2608361073
62
2
0
LINE
8
Setbacks
10
8.0671909913
20
-21.2608361073
11
8.0673637993
21
-21.2603652402
62
2
0
LINE
8
Setbacks
10
8.0673637993
20
-21.2603652402
11
8.0676063635
21
-21.2599262174
62
2
0
LINE
8
Setbacks
10
8.0676063635
20
-21.2599262174
11
8.5633721274
21
-20.5053395790
62
2
0
LINE
8
Setbacks
10
8.5633721274
20
-20.5053395790
11
8.5636955798
21
-20.5049241914
62
2
0
LINE
8
Setbacks
10
8.5636955798
20
-20.5049241914
11
8.5640813091
21
-20.5045658881
62
2
0
LINE
8
Setbacks
10
8.5640813091
20
-20.5045658881
11
8.7825550272
21
-20.3321064089
62
2
0
LINE
8
Setbacks
10
8.7825550272
20
-20.3321064089
11
8.3059039157
21
-17.4467238782
62
2
0
LINE
8
Setbacks
10
8.3059039157
20
-17.4467238782
11
4.8407655642
21
-22.3471727952
62
2
0
LINE
8
Setbacks
10
4.8407655642
20
-22.3471727952
11
4.8404305769
21
-22.3475743539
62
2
0
LINE
8
Setbacks
10
4.8404305769
20
-22.3475743539
11
4.5292684934
21
-22.6652498890
62
2
0
LINE
8
Setbacks
10
4.5292684934
20
-22.6652498890
11
4.5288595324
21
-22.6656037182
62
2
0
LINE
8
Setbacks
10
4.5288595324
20
-22.6656037182
11
4.5283980036
21
-22.6658855610
62
2
0
LINE
8
Setbacks
10
4.5283980036
20
-22.6658855610
11
4.1388238441
21
-22.8616834676
62
2
0
LINE
8
Setbacks
10
4.1388238441
20
-22.8616834676
11
4.1383081917
21
-22.8618900030
62
2
0
LINE
8
Setbacks
10
4.1383081917
20
-22.8618900030
11
4.1377650873
21
-22.8620065868
62
2
0
LINE
8
Setbacks
10
4.1377650873
20
-22.8620065868
11
4.0097373493
21
-22.8783146621
62
2
0
LINE
8
Setbacks
10
-52.8153019475
20
-25.1516159978
11
-50.1349701718
21
-21.3037872851
62
2
0
LINE
8
Setbacks
10
-50.1349701718
20
-21.3037872851
11
-53.3595862356
21
-21.8851750191
62
2
0
LINE
8
Setbacks
10
-53.3595862356
20
-21.8851750191
11
-53.3601405848
21
-21.8852269606
62
2
0
LINE
8
Setbacks
10
-53.3601405848
20
-21.8852269606
11
-53.3994037108
21
-21.8855595391
62
2
0
LINE
8
Setbacks
10
-21.3218125521
20
-16.4761904400
11
-18.7604537426
21
-16.0530663118
62
2
0
LINE
8
Setbacks
10
-18.7604537426
20
-16.0530663118
11
-21.7449366803
21
-13.9148316306
62
2
0
LINE
8
Setbacks
10
-21.7449366803
20
-13.9148316306
11
-21.3218125521
21
-16.4761904400
62
2
0
LINE
8
Setbacks
10
-24.2138992156
20
-14.3226924458
11
-26.3521338968
21
-17.3071753834
62
2
0
LINE
8
Setbacks
10
-26.3521338968
20
-17.3071753834
11
-23.7907750874
21
-16.8840512552
62
2
0
LINE
8
Setbacks
10
-23.7907750874
20
-16.8840512552
11
-24.2138992156
21
-14.3226924458
62
2
0
LINE
8
Setbacks
10
1.8986724426
20
-12.4837300105
11
4.1477467930
21
-12.1121938103
62
2
0
LINE
8
Setbacks
10
4.1477467930
20
-12.1121938103
11
1.5271359159
21
-10.2346556601
62
2
0
LINE
8
Setbacks
10
1.5271359159
20
-10.2346556601
11
1.8986724426
21
-12.4837300105
62
2
0
LINE
8
Setbacks
10
-2.8193647711
20
-13.2631270260
11
-0.5702900928
21
-12.8915908255
62
2
0
LINE
8
Setbacks
10
-0.5702900928
20
-12.8915908255
11
-0.9418266197
21
-10.6425164736
62
2
0
LINE
8
Setbacks
10
-0.9418266197
20
-10.6425164736
11
-2.8193647711
21
-13.2631270260
62
2
0
LINE
8
Setbacks
10
27.6256599222
20
24.3116619210
11
27.6449190496
21
24.1950784360
62
2
0
LINE
8
Setbacks
10
27.6449190496
20
24.1950784360
11
27.6642802906
21
24.2852383138
62
2
0
LINE
8
Setbacks
10
27.6642802906
20
24.2852383138
11
27.6256599222
21
24.3116619210
62
2
0
LINE
8
Setbacks
10
30.9648013023
20
25.4871386410
11
29.8598143479
21
20.3415519156
62
2
0
LINE
8
Setbacks
10
29.8598143479
20
20.3415519156
11
34.3747809263
21
23.1540794549
62
2
0
LINE
8
Setbacks
10
-37.9594533985
20
-26.4606295236
11
-37.6158174377
21
-25.9746546184
62
2
0
LINE
8
Setbacks
10
-37.6158174377
20
-25.9746546184
11
-37.8827445752
21
-26.1100700726
62
2
0
LINE
8
Setbacks
10
-37.8827445752
20
-26.1100700726
11
-37.8832593744
21
-26.1102785225
62
2
0
LINE
8
Setbacks
10
-37.8832593744
20
-26.1102785225
11
-37.8838019582
21
-26.1103971498
62
2
0
LINE
8
Setbacks
10
-37.8838019582
20
-26.1103971498
11
-38.0165544654
21
-26.1278207428
62
2
0
LINE
8
Setbacks
10
41.7622504112
20
11.6919308593
11
42.0881756310
21
9.7189601154
62
2
0
LINE
8
Setbacks
10
42.0881756310
20
9.7189601154
11
43.7294248816
21
11.9760976522
62
2
0
LINE
8
Obstructions
10
-13.8407936806
20
22.2164200850
11
-10.8444835847
21
22.7532955995
62
252
0
LINE
8
Obstructions
10
-10.8444835847
20
22.7532955995
11
-9.8145931610
21
16.9974057325
62
252
0
LINE
8
Obstructions
10
-9.8145931610
20
16.9974057325
11
-12.8138207959
21
16.4641824327
62
252
0
LINE
8
Obstructions
10
-12.8138207959
20
16.4641824327
11
-13.8407936806
21
22.2164200850
62
252
0
ENDSEC
0
EOF