999
Design created by Aurora
0
SECTION
2
HEADER
9
$ACADVER
1
AC1009
9
$INSUNITS
70
2
0
ENDSEC
0
SECTION
2
TABLES
0
TABLE
2
LTYPE
100
AcDbLinetypeTableRecord
2
LTYPE
0
LTYPE
2
DASHED
70
0
3
dashed line
72
65
73
2
40
4.0
49
2.0
49
-2.0
0
ENDTAB
0
TABLE
2
LAYER
70
2
0
LAYER
100
AcDbSymbolTable
100
AcDbLayerTable
2
Obstructions
70
0
62
7
6
CONTINUOUS
0
LAYER
100
AcDbSymbolTable
100
AcDbLayerTable
2
Modules
70
0
62
7
6
CONTINUOUS
0
ENDTAB
0
ENDSEC
0
SECTION
2
ENTITIES
0
LINE
8
Modules
10
-349.4140633929
20
-711.7752127060
11
-352.3085504031
21
-713.1906214808
62
254
0
LINE
8
Modules
10
-352.3085504031
20
-713.1906214808
11
-349.8267243200
21
-718.2659138538
62
254
0
LINE
8
Modules
10
-349.8267243200
20
-718.2659138538
11
-346.9322373097
21
-716.8505050790
62
254
0
LINE
8
Modules
10
-346.9322373097
20
-716.8505050790
11
-349.4140633929
21
-711.7752127060
62
254
0
LINE
8
Modules
10
-350.1689651729
20
-714.8323035318
11
-349.8086536045
21
-715.5691345964
62
254
0
LINE
8
Modules
10
-349.8086536045
20
-715.5691345964
11
-349.0718225399
21
-715.2088230280
62
254
0
LINE
8
Modules
10
-349.0718225399
20
-715.2088230280
11
-349.4321341083
21
-714.4719919634
62
254
0
LINE
8
Modules
10
-349.4321341083
20
-714.4719919634
11
-350.1689651729
21
-714.8323035318
62
254
0
LINE
8
Modules
10
-350.1689651729
20
-714.8323035318
11
-349.0718225399
21
-715.2088230280
62
254
0
TEXT
8
Modules
100
AcDbText
10
-349.6905112188
20
-714.6531202233
1
DC
7
NewTextStyle_4
40
0.2624672000000003
50
-63.941292879749994
0
TEXT
8
Modules
100
AcDbText
10
-349.9806306817
20
-715.1054172635
1
AC
7
NewTextStyle_4
40
0.2624672000000003
50
-63.941292879749994
0
LINE
8
Modules
10
-346.9139334820
20
-716.8879360971
11
-349.8084204923
21
-718.3033448719
62
254
0
LINE
8
Modules
10
-349.8084204923
20
-718.3033448719
11
-347.3265944091
21
-723.3786372449
62
254
0
LINE
8
Modules
10
-347.3265944091
20
-723.3786372449
11
-344.4321073989
21
-721.9632284701
62
254
0
LINE
8
Modules
10
-344.4321073989
20
-721.9632284701
11
-346.9139334820
21
-716.8879360971
62
254
0
LINE
8
Modules
10
-347.6688352621
20
-719.9450269229
11
-347.3085236937
21
-720.6818579875
62
254
0
LINE
8
Modules
10
-347.3085236937
20
-720.6818579875
11
-346.5716926291
21
-720.3215464191
62
254
0
LINE
8
Modules
10
-346.5716926291
20
-720.3215464191
11
-346.9320041975
21
-719.5847153545
62
254
0
LINE
8
Modules
10
-346.9320041975
20
-719.5847153545
11
-347.6688352621
21
-719.9450269229
62
254
0
LINE
8
Modules
10
-347.6688352621
20
-719.9450269229
11
-346.5716926291
21
-720.3215464191
62
254
0
TEXT
8
Modules
100
AcDbText
10
-347.1903813079
20
-719.7658436144
1
DC
7
NewTextStyle_4
40
0.2624672000000003
50
-63.941292879749994
0
TEXT
8
Modules
100
AcDbText
10
-347.4805007708
20
-720.2181406547
1
AC
7
NewTextStyle_4
40
0.2624672000000003
50
-63.941292879749994
0
LINE
8
Modules
10
-344.4138035712
20
-722.0006594882
11
-347.3082905814
21
-723.4160682630
62
254
0
LINE
8
Modules
10
-347.3082905814
20
-723.4160682630
11
-344.8264644983
21
-728.4913606361
62
254
0
LINE
8
Modules
10
-344.8264644983
20
-728.4913606361
11
-341.9319774880
21
-727.0759518613
62
254
0
LINE
8
Modules
10
-341.9319774880
20
-727.0759518613
11
-344.4138035712
21
-722.0006594882
62
254
0
LINE
8
Modules
10
-345.1687053512
20
-725.0577503140
11
-344.8083937828
21
-725.7945813786
62
254
0
LINE
8
Modules
10
-344.8083937828
20
-725.7945813786
11
-344.0715627182
21
-725.4342698102
62
254
0
LINE
8
Modules
10
-344.0715627182
20
-725.4342698102
11
-344.4318742866
21
-724.6974387456
62
254
0
LINE
8
Modules
10
-344.4318742866
20
-724.6974387456
11
-345.1687053512
21
-725.0577503140
62
254
0
LINE
8
Modules
10
-345.1687053512
20
-725.0577503140
11
-344.0715627182
21
-725.4342698102
62
254
0
TEXT
8
Modules
100
AcDbText
10
-344.6902513971
20
-724.8785670055
1
DC
7
NewTextStyle_4
40
0.2624672000000003
50
-63.941292879749994
0
TEXT
8
Modules
100
AcDbText
10
-344.9803708600
20
-725.3308640458
1
AC
7
NewTextStyle_4
40
0.2624672000000003
50
-63.941292879749994
0
LINE
8
Modules
10
-352.3409666157
20
-713.2064730605
11
-355.2354536259
21
-714.6218818353
62
254
0
LINE
8
Modules
10
-355.2354536259
20
-714.6218818353
11
-352.7536275428
21
-719.6971742084
62
254
0
LINE
8
Modules
10
-352.7536275428
20
-719.6971742084
11
-349.8591405325
21
-718.2817654336
62
254
0
LINE
8
Modules
10
-349.8591405325
20
-718.2817654336
11
-352.3409666157
21
-713.2064730605
62
254
0
LINE
8
Modules
10
-353.0958683957
20
-716.2635638863
11
-352.7355568273
21
-717.0003949510
62
254
0
LINE
8
Modules
10
-352.7355568273
20
-717.0003949510
11
-351.9987257627
21
-716.6400833826
62
254
0
LINE
8
Modules
10
-351.9987257627
20
-716.6400833826
11
-352.3590373311
21
-715.9032523179
62
254
0
LINE
8
Modules
10
-352.3590373311
20
-715.9032523179
11
-353.0958683957
21
-716.2635638863
62
254
0
LINE
8
Modules
10
-353.0958683957
20
-716.2635638863
11
-351.9987257627
21
-716.6400833826
62
254
0
TEXT
8
Modules
100
AcDbText
10
-352.6174144416
20
-716.0843805778
1
DC
7
NewTextStyle_4
40
0.2624672000000003
50
-63.941292879749994
0
TEXT
8
Modules
100
AcDbText
10
-352.9075339045
20
-716.5366776181
1
AC
7
NewTextStyle_4
40
0.2624672000000003
50
-63.941292879749994
0
LINE
8
Modules
10
-349.8408367048
20
-718.3191964517
11
-352.7353237151
21
-719.7346052264
62
254
0
LINE
8
Modules
10
-352.7353237151
20
-719.7346052264
11
-350.2534976319
21
-724.8098975995
62
254
0
LINE
8
Modules
10
-350.2534976319
20
-724.8098975995
11
-347.3590106217
21
-723.3944888247
62
254
0
LINE
8
Modules
10
-347.3590106217
20
-723.3944888247
11
-349.8408367048
21
-718.3191964517
62
254
0
LINE
8
Modules
10
-350.5957384849
20
-721.3762872775
11
-350.2354269165
21
-722.1131183421
62
254
0
LINE
8
Modules
10
-350.2354269165
20
-722.1131183421
11
-349.4985958519
21
-721.7528067737
62
254
0
LINE
8
Modules
10
-349.4985958519
20
-721.7528067737
11
-349.8589074203
21
-721.0159757091
62
254
0
LINE
8
Modules
10
-349.8589074203
20
-721.0159757091
11
-350.5957384849
21
-721.3762872775
62
254
0
LINE
8
Modules
10
-350.5957384849
20
-721.3762872775
11
-349.4985958519
21
-721.7528067737
62
254
0
TEXT
8
Modules
100
AcDbText
10
-350.1172845307
20
-721.1971039689
1
DC
7
NewTextStyle_4
40
0.2624672000000003
50
-63.941292879749994
0
TEXT
8
Modules
100
AcDbText
10
-350.4074039936
20
-721.6494010092
1
AC
7
NewTextStyle_4
40
0.2624672000000003
50
-63.941292879749994
0
LINE
8
Modules
10
-347.3407067940
20
-723.4319198428
11
-350.2351938042
21
-724.8473286176
62
254
0
LINE
8
Modules
10
-350.2351938042
20
-724.8473286176
11
-347.7533677211
21
-729.9226209906
62
254
0
LINE
8
Modules
10
-347.7533677211
20
-729.9226209906
11
-344.8588807108
21
-728.5072122158
62
254
0
LINE
8
Modules
10
-344.8588807108
20
-728.5072122158
11
-347.3407067940
21
-723.4319198428
62
254
0
LINE
8
Modules
10
-348.0956085740
20
-726.4890106686
11
-347.7352970056
21
-727.2258417332
62
254
0
LINE
8
Modules
10
-347.7352970056
20
-727.2258417332
11
-346.9984659410
21
-726.8655301648
62
254
0
LINE
8
Modules
10
-346.9984659410
20
-726.8655301648
11
-347.3587775094
21
-726.1286991002
62
254
0
LINE
8
Modules
10
-347.3587775094
20
-726.1286991002
11
-348.0956085740
21
-726.4890106686
62
254
0
LINE
8
Modules
10
-348.0956085740
20
-726.4890106686
11
-346.9984659410
21
-726.8655301648
62
254
0
TEXT
8
Modules
100
AcDbText
10
-347.6171546199
20
-726.3098273600
1
DC
7
NewTextStyle_4
40
0.2624672000000003
50
-63.941292879749994
0
TEXT
8
Modules
100
AcDbText
10
-347.9072740828
20
-726.7621244003
1
AC
7
NewTextStyle_4
40
0.2624672000000003
50
-63.941292879749994
0
LINE
8
Modules
10
-355.2678698385
20
-714.6377334151
11
-358.1623568487
21
-716.0531421899
62
254
0
LINE
8
Modules
10
-358.1623568487
20
-716.0531421899
11
-355.6805307656
21
-721.1284345629
62
254
0
LINE
8
Modules
10
-355.6805307656
20
-721.1284345629
11
-352.7860437553
21
-719.7130257881
62
254
0
LINE
8
Modules
10
-352.7860437553
20
-719.7130257881
11
-355.2678698385
21
-714.6377334151
62
254
0
LINE
8
Modules
10
-356.0227716185
20
-717.6948242409
11
-355.6624600501
21
-718.4316553055
62
254
0
LINE
8
Modules
10
-355.6624600501
20
-718.4316553055
11
-354.9256289855
21
-718.0713437371
62
254
0
LINE
8
Modules
10
-354.9256289855
20
-718.0713437371
11
-355.2859405539
21
-717.3345126725
62
254
0
LINE
8
Modules
10
-355.2859405539
20
-717.3345126725
11
-356.0227716185
21
-717.6948242409
62
254
0
LINE
8
Modules
10
-356.0227716185
20
-717.6948242409
11
-354.9256289855
21
-718.0713437371
62
254
0
TEXT
8
Modules
100
AcDbText
10
-355.5443176644
20
-717.5156409324
1
DC
7
NewTextStyle_4
40
0.2624672000000003
50
-63.941292879749994
0
TEXT
8
Modules
100
AcDbText
10
-355.8344371273
20
-717.9679379726
1
AC
7
NewTextStyle_4
40
0.2624672000000003
50
-63.941292879749994
0
LINE
8
Modules
10
-352.7677399276
20
-719.7504568062
11
-355.6622269379
21
-721.1658655810
62
254
0
LINE
8
Modules
10
-355.6622269379
20
-721.1658655810
11
-353.1804008547
21
-726.2411579540
62
254
0
LINE
8
Modules
10
-353.1804008547
20
-726.2411579540
11
-350.2859138445
21
-724.8257491792
62
254
0
LINE
8
Modules
10
-350.2859138445
20
-724.8257491792
11
-352.7677399276
21
-719.7504568062
62
254
0
LINE
8
Modules
10
-353.5226417077
20
-722.8075476320
11
-353.1623301393
21
-723.5443786966
62
254
0
LINE
8
Modules
10
-353.1623301393
20
-723.5443786966
11
-352.4254990747
21
-723.1840671282
62
254
0
LINE
8
Modules
10
-352.4254990747
20
-723.1840671282
11
-352.7858106431
21
-722.4472360636
62
254
0
LINE
8
Modules
10
-352.7858106431
20
-722.4472360636
11
-353.5226417077
21
-722.8075476320
62
254
0
LINE
8
Modules
10
-353.5226417077
20
-722.8075476320
11
-352.4254990747
21
-723.1840671282
62
254
0
TEXT
8
Modules
100
AcDbText
10
-353.0441877535
20
-722.6283643235
1
DC
7
NewTextStyle_4
40
0.2624672000000003
50
-63.941292879749994
0
TEXT
8
Modules
100
AcDbText
10
-353.3343072165
20
-723.0806613637
1
AC
7
NewTextStyle_4
40
0.2624672000000003
50
-63.941292879749994
0
LINE
8
Modules
10
-350.2676100168
20
-724.8631801973
11
-353.1620970271
21
-726.2785889721
62
254
0
LINE
8
Modules
10
-353.1620970271
20
-726.2785889721
11
-350.6802709439
21
-731.3538813451
62
254
0
LINE
8
Modules
10
-350.6802709439
20
-731.3538813451
11
-347.7857839336
21
-729.9384725704
62
254
0
LINE
8
Modules
10
-347.7857839336
20
-729.9384725704
11
-350.2676100168
21
-724.8631801973
62
254
0
LINE
8
Modules
10
-351.0225117968
20
-727.9202710231
11
-350.6622002284
21
-728.6571020877
62
254
0
LINE
8
Modules
10
-350.6622002284
20
-728.6571020877
11
-349.9253691638
21
-728.2967905193
62
254
0
LINE
8
Modules
10
-349.9253691638
20
-728.2967905193
11
-350.2856807322
21
-727.5599594547
62
254
0
LINE
8
Modules
10
-350.2856807322
20
-727.5599594547
11
-351.0225117968
21
-727.9202710231
62
254
0
LINE
8
Modules
10
-351.0225117968
20
-727.9202710231
11
-349.9253691638
21
-728.2967905193
62
254
0
TEXT
8
Modules
100
AcDbText
10
-350.5440578427
20
-727.7410877146
1
DC
7
NewTextStyle_4
40
0.2624672000000003
50
-63.941292879749994
0
TEXT
8
Modules
100
AcDbText
10
-350.8341773056
20
-728.1933847549
1
AC
7
NewTextStyle_4
40
0.2624672000000003
50
-63.941292879749994
0
LINE
8
Modules
10
-358.1947730613
20
-716.0689937696
11
-361.0892600715
21
-717.4844025444
62
254
0
LINE
8
Modules
10
-361.0892600715
20
-717.4844025444
11
-358.6074339884
21
-722.5596949175
62
254
0
LINE
8
Modules
10
-358.6074339884
20
-722.5596949175
11
-355.7129469781
21
-721.1442861427
62
254
0
LINE
8
Modules
10
-355.7129469781
20
-721.1442861427
11
-358.1947730613
21
-716.0689937696
62
254
0
LINE
8
Modules
10
-358.9496748413
20
-719.1260845954
11
-358.5893632729
21
-719.8629156600
62
254
0
LINE
8
Modules
10
-358.5893632729
20
-719.8629156600
11
-357.8525322083
21
-719.5026040916
62
254
0
LINE
8
Modules
10
-357.8525322083
20
-719.5026040916
11
-358.2128437767
21
-718.7657730270
62
254
0
LINE
8
Modules
10
-358.2128437767
20
-718.7657730270
11
-358.9496748413
21
-719.1260845954
62
254
0
LINE
8
Modules
10
-358.9496748413
20
-719.1260845954
11
-357.8525322083
21
-719.5026040916
62
254
0
TEXT
8
Modules
100
AcDbText
10
-358.4712208872
20
-718.9469012869
1
DC
7
NewTextStyle_4
40
0.2624672000000003
50
-63.941292879749994
0
TEXT
8
Modules
100
AcDbText
10
-358.7613403501
20
-719.3991983272
1
AC
7
NewTextStyle_4
40
0.2624672000000003
50
-63.941292879749994
0
LINE
8
Modules
10
-355.6946431504
20
-721.1817171607
11
-358.5891301607
21
-722.5971259355
62
254
0
LINE
8
Modules
10
-358.5891301607
20
-722.5971259355
11
-356.1073040775
21
-727.6724183086
62
254
0
LINE
8
Modules
10
-356.1073040775
20
-727.6724183086
11
-353.2128170673
21
-726.2570095338
62
254
0
LINE
8
Modules
10
-353.2128170673
20
-726.2570095338
11
-355.6946431504
21
-721.1817171607
62
254
0
LINE
8
Modules
10
-356.4495449305
20
-724.2388079866
11
-356.0892333621
21
-724.9756390512
62
254
0
LINE
8
Modules
10
-356.0892333621
20
-724.9756390512
11
-355.3524022975
21
-724.6153274828
62
254
0
LINE
8
Modules
10
-355.3524022975
20
-724.6153274828
11
-355.7127138659
21
-723.8784964182
62
254
0
LINE
8
Modules
10
-355.7127138659
20
-723.8784964182
11
-356.4495449305
21
-724.2388079866
62
254
0
LINE
8
Modules
10
-356.4495449305
20
-724.2388079866
11
-355.3524022975
21
-724.6153274828
62
254
0
TEXT
8
Modules
100
AcDbText
10
-355.9710909763
20
-724.0596246780
1
DC
7
NewTextStyle_4
40
0.2624672000000003
50
-63.941292879749994
0
TEXT
8
Modules
100
AcDbText
10
-356.2612104393
20
-724.5119217183
1
AC
7
NewTextStyle_4
40
0.2624672000000003
50
-63.941292879749994
0
LINE
8
Modules
10
-353.1945132396
20
-726.2944405519
11
-356.0890002499
21
-727.7098493267
62
254
0
LINE
8
Modules
10
-356.0890002499
20
-727.7098493267
11
-353.6071741667
21
-732.7851416997
62
254
0
LINE
8
Modules
10
-353.6071741667
20
-732.7851416997
11
-350.7126871564
21
-731.3697329249
62
254
0
LINE
8
Modules
10
-350.7126871564
20
-731.3697329249
11
-353.1945132396
21
-726.2944405519
62
254
0
LINE
8
Modules
10
-353.9494150197
20
-729.3515313777
11
-353.5891034512
21
-730.0883624423
62
254
0
LINE
8
Modules
10
-353.5891034512
20
-730.0883624423
11
-352.8522723866
21
-729.7280508739
62
254
0
LINE
8
Modules
10
-352.8522723866
20
-729.7280508739
11
-353.2125839550
21
-728.9912198093
62
254
0
LINE
8
Modules
10
-353.2125839550
20
-728.9912198093
11
-353.9494150197
21
-729.3515313777
62
254
0
LINE
8
Modules
10
-353.9494150197
20
-729.3515313777
11
-352.8522723866
21
-729.7280508739
62
254
0
TEXT
8
Modules
100
AcDbText
10
-353.4709610655
20
-729.1723480691
1
DC
7
NewTextStyle_4
40
0.2624672000000003
50
-63.941292879749994
0
TEXT
8
Modules
100
AcDbText
10
-353.7610805284
20
-729.6246451094
1
AC
7
NewTextStyle_4
40
0.2624672000000003
50
-63.941292879749994
0
LINE
8
Modules
10
-372.8116979432
20
-723.2942968667
11
-375.7061849534
21
-724.7097056415
62
254
0
LINE
8
Modules
10
-375.7061849534
20
-724.7097056415
11
-373.2243588703
21
-729.7849980145
62
254
0
LINE
8
Modules
10
-373.2243588703
20
-729.7849980145
11
-370.3298718600
21
-728.3695892398
62
254
0
LINE
8
Modules
10
-370.3298718600
20
-728.3695892398
11
-372.8116979432
21
-723.2942968667
62
254
0
LINE
8
Modules
10
-373.5665997232
20
-726.3513876925
11
-373.2062881548
21
-727.0882187571
62
254
0
LINE
8
Modules
10
-373.2062881548
20
-727.0882187571
11
-372.4694570902
21
-726.7279071887
62
254
0
LINE
8
Modules
10
-372.4694570902
20
-726.7279071887
11
-372.8297686586
21
-725.9910761241
62
254
0
LINE
8
Modules
10
-372.8297686586
20
-725.9910761241
11
-373.5665997232
21
-726.3513876925
62
254
0
LINE
8
Modules
10
-373.5665997232
20
-726.3513876925
11
-372.4694570902
21
-726.7279071887
62
254
0
TEXT
8
Modules
100
AcDbText
10
-373.0881457691
20
-726.1722043840
1
DC
7
NewTextStyle_4
40
0.2624672000000003
50
-63.941292879749994
0
TEXT
8
Modules
100
AcDbText
10
-373.3782652320
20
-726.6245014243
1
AC
7
NewTextStyle_4
40
0.2624672000000003
50
-63.941292879749994
0
LINE
8
Modules
10
-370.3115680323
20
-728.4070202578
11
-373.2060550426
21
-729.8224290326
62
254
0
LINE
8
Modules
10
-373.2060550426
20
-729.8224290326
11
-370.7242289594
21
-734.8977214057
62
254
0
LINE
8
Modules
10
-370.7242289594
20
-734.8977214057
11
-367.8297419492
21
-733.4823126309
62
254
0
LINE
8
Modules
10
-367.8297419492
20
-733.4823126309
11
-370.3115680323
21
-728.4070202578
62
254
0
LINE
8
Modules
10
-371.0664698124
20
-731.4641110836
11
-370.7061582440
21
-732.2009421483
62
254
0
LINE
8
Modules
10
-370.7061582440
20
-732.2009421483
11
-369.9693271794
21
-731.8406305798
62
254
0
LINE
8
Modules
10
-369.9693271794
20
-731.8406305798
11
-370.3296387478
21
-731.1037995152
62
254
0
LINE
8
Modules
10
-370.3296387478
20
-731.1037995152
11
-371.0664698124
21
-731.4641110836
62
254
0
LINE
8
Modules
10
-371.0664698124
20
-731.4641110836
11
-369.9693271794
21
-731.8406305798
62
254
0
TEXT
8
Modules
100
AcDbText
10
-370.5880158582
20
-731.2849277751
1
DC
7
NewTextStyle_4
40
0.2624672000000003
50
-63.941292879749994
0
TEXT
8
Modules
100
AcDbText
10
-370.8781353212
20
-731.7372248154
1
AC
7
NewTextStyle_4
40
0.2624672000000003
50
-63.941292879749994
0
LINE
8
Modules
10
-367.8114381215
20
-733.5197436490
11
-370.7059251318
21
-734.9351524237
62
254
0
LINE
8
Modules
10
-370.7059251318
20
-734.9351524237
11
-368.2240990486
21
-740.0104447968
62
254
0
LINE
8
Modules
10
-368.2240990486
20
-740.0104447968
11
-365.3296120383
21
-738.5950360220
62
254
0
LINE
8
Modules
10
-365.3296120383
20
-738.5950360220
11
-367.8114381215
21
-733.5197436490
62
254
0
LINE
8
Modules
10
-368.5663399016
20
-736.5768344748
11
-368.2060283332
21
-737.3136655394
62
254
0
LINE
8
Modules
10
-368.2060283332
20
-737.3136655394
11
-367.4691972685
21
-736.9533539710
62
254
0
LINE
8
Modules
10
-367.4691972685
20
-736.9533539710
11
-367.8295088369
21
-736.2165229064
62
254
0
LINE
8
Modules
10
-367.8295088369
20
-736.2165229064
11
-368.5663399016
21
-736.5768344748
62
254
0
LINE
8
Modules
10
-368.5663399016
20
-736.5768344748
11
-367.4691972685
21
-736.9533539710
62
254
0
TEXT
8
Modules
100
AcDbText
10
-368.0878859474
20
-736.3976511662
1
DC
7
NewTextStyle_4
40
0.2624672000000003
50
-63.941292879749994
0
TEXT
8
Modules
100
AcDbText
10
-368.3780054103
20
-736.8499482065
1
AC
7
NewTextStyle_4
40
0.2624672000000003
50
-63.941292879749994
0
LINE
8
Modules
10
-375.7386011660
20
-724.7255572213
11
-378.6330881762
21
-726.1409659961
62
254
0
LINE
8
Modules
10
-378.6330881762
20
-726.1409659961
11
-376.1512620931
21
-731.2162583691
62
254
0
LINE
8
Modules
10
-376.1512620931
20
-731.2162583691
11
-373.2567750828
21
-729.8008495943
62
254
0
LINE
8
Modules
10
-373.2567750828
20
-729.8008495943
11
-375.7386011660
21
-724.7255572213
62
254
0
LINE
8
Modules
10
-376.4935029460
20
-727.7826480471
11
-376.1331913776
21
-728.5194791117
62
254
0
LINE
8
Modules
10
-376.1331913776
20
-728.5194791117
11
-375.3963603130
21
-728.1591675433
62
254
0
LINE
8
Modules
10
-375.3963603130
20
-728.1591675433
11
-375.7566718814
21
-727.4223364787
62
254
0
LINE
8
Modules
10
-375.7566718814
20
-727.4223364787
11
-376.4935029460
21
-727.7826480471
62
254
0
LINE
8
Modules
10
-376.4935029460
20
-727.7826480471
11
-375.3963603130
21
-728.1591675433
62
254
0
TEXT
8
Modules
100
AcDbText
10
-376.0150489919
20
-727.6034647385
1
DC
7
NewTextStyle_4
40
0.2624672000000003
50
-63.941292879749994
0
TEXT
8
Modules
100
AcDbText
10
-376.3051684548
20
-728.0557617788
1
AC
7
NewTextStyle_4
40
0.2624672000000003
50
-63.941292879749994
0
LINE
8
Modules
10
-373.2384712551
20
-729.8382806124
11
-376.1329582654
21
-731.2536893872
62
254
0
LINE
8
Modules
10
-376.1329582654
20
-731.2536893872
11
-373.6511321822
21
-736.3289817602
62
254
0
LINE
8
Modules
10
-373.6511321822
20
-736.3289817602
11
-370.7566451720
21
-734.9135729854
62
254
0
LINE
8
Modules
10
-370.7566451720
20
-734.9135729854
11
-373.2384712551
21
-729.8382806124
62
254
0
LINE
8
Modules
10
-373.9933730352
20
-732.8953714382
11
-373.6330614668
21
-733.6322025028
62
254
0
LINE
8
Modules
10
-373.6330614668
20
-733.6322025028
11
-372.8962304022
21
-733.2718909344
62
254
0
LINE
8
Modules
10
-372.8962304022
20
-733.2718909344
11
-373.2565419706
21
-732.5350598698
62
254
0
LINE
8
Modules
10
-373.2565419706
20
-732.5350598698
11
-373.9933730352
21
-732.8953714382
62
254
0
LINE
8
Modules
10
-373.9933730352
20
-732.8953714382
11
-372.8962304022
21
-733.2718909344
62
254
0
TEXT
8
Modules
100
AcDbText
10
-373.5149190810
20
-732.7161881297
1
DC
7
NewTextStyle_4
40
0.2624672000000003
50
-63.941292879749994
0
TEXT
8
Modules
100
AcDbText
10
-373.8050385440
20
-733.1684851699
1
AC
7
NewTextStyle_4
40
0.2624672000000003
50
-63.941292879749994
0
LINE
8
Modules
10
-370.7383413443
20
-734.9510040035
11
-373.6328283546
21
-736.3664127783
62
254
0
LINE
8
Modules
10
-373.6328283546
20
-736.3664127783
11
-371.1510022714
21
-741.4417051513
62
254
0
LINE
8
Modules
10
-371.1510022714
20
-741.4417051513
11
-368.2565152611
21
-740.0262963765
62
254
0
LINE
8
Modules
10
-368.2565152611
20
-740.0262963765
11
-370.7383413443
21
-734.9510040035
62
254
0
LINE
8
Modules
10
-371.4932431244
20
-738.0080948293
11
-371.1329315560
21
-738.7449258939
62
254
0
LINE
8
Modules
10
-371.1329315560
20
-738.7449258939
11
-370.3961004913
21
-738.3846143255
62
254
0
LINE
8
Modules
10
-370.3961004913
20
-738.3846143255
11
-370.7564120597
21
-737.6477832609
62
254
0
LINE
8
Modules
10
-370.7564120597
20
-737.6477832609
11
-371.4932431244
21
-738.0080948293
62
254
0
LINE
8
Modules
10
-371.4932431244
20
-738.0080948293
11
-370.3961004913
21
-738.3846143255
62
254
0
TEXT
8
Modules
100
AcDbText
10
-371.0147891702
20
-737.8289115208
1
DC
7
NewTextStyle_4
40
0.2624672000000003
50
-63.941292879749994
0
TEXT
8
Modules
100
AcDbText
10
-371.3049086331
20
-738.2812085610
1
AC
7
NewTextStyle_4
40
0.2624672000000003
50
-63.941292879749994
0
LINE
8
Modules
10
-378.6655043888
20
-726.1568175758
11
-381.5599913990
21
-727.5722263506
62
254
0
LINE
8
Modules
10
-381.5599913990
20
-727.5722263506
11
-379.0781653159
21
-732.6475187236
62
254
0
LINE
8
Modules
10
-379.0781653159
20
-732.6475187236
11
-376.1836783056
21
-731.2321099488
62
254
0
LINE
8
Modules
10
-376.1836783056
20
-731.2321099488
11
-378.6655043888
21
-726.1568175758
62
254
0
LINE
8
Modules
10
-379.4204061688
20
-729.2139084016
11
-379.0600946004
21
-729.9507394662
62
254
0
LINE
8
Modules
10
-379.0600946004
20
-729.9507394662
11
-378.3232635358
21
-729.5904278978
62
254
0
LINE
8
Modules
10
-378.3232635358
20
-729.5904278978
11
-378.6835751042
21
-728.8535968332
62
254
0
LINE
8
Modules
10
-378.6835751042
20
-728.8535968332
11
-379.4204061688
21
-729.2139084016
62
254
0
LINE
8
Modules
10
-379.4204061688
20
-729.2139084016
11
-378.3232635358
21
-729.5904278978
62
254
0
TEXT
8
Modules
100
AcDbText
10
-378.9419522147
20
-729.0347250931
1
DC
7
NewTextStyle_4
40
0.2624672000000003
50
-63.941292879749994
0
TEXT
8
Modules
100
AcDbText
10
-379.2320716776
20
-729.4870221334
1
AC
7
NewTextStyle_4
40
0.2624672000000003
50
-63.941292879749994
0
LINE
8
Modules
10
-376.1653744779
20
-731.2695409669
11
-379.0598614882
21
-732.6849497417
62
254
0
LINE
8
Modules
10
-379.0598614882
20
-732.6849497417
11
-376.5780354050
21
-737.7602421147
62
254
0
LINE
8
Modules
10
-376.5780354050
20
-737.7602421147
11
-373.6835483948
21
-736.3448333400
62
254
0
LINE
8
Modules
10
-373.6835483948
20
-736.3448333400
11
-376.1653744779
21
-731.2695409669
62
254
0
LINE
8
Modules
10
-376.9202762580
20
-734.3266317927
11
-376.5599646896
21
-735.0634628573
62
254
0
LINE
8
Modules
10
-376.5599646896
20
-735.0634628573
11
-375.8231336250
21
-734.7031512889
62
254
0
LINE
8
Modules
10
-375.8231336250
20
-734.7031512889
11
-376.1834451934
21
-733.9663202243
62
254
0
LINE
8
Modules
10
-376.1834451934
20
-733.9663202243
11
-376.9202762580
21
-734.3266317927
62
254
0
LINE
8
Modules
10
-376.9202762580
20
-734.3266317927
11
-375.8231336250
21
-734.7031512889
62
254
0
TEXT
8
Modules
100
AcDbText
10
-376.4418223038
20
-734.1474484842
1
DC
7
NewTextStyle_4
40
0.2624672000000003
50
-63.941292879749994
0
TEXT
8
Modules
100
AcDbText
10
-376.7319417668
20
-734.5997455245
1
AC
7
NewTextStyle_4
40
0.2624672000000003
50
-63.941292879749994
0
LINE
8
Modules
10
-373.6652445671
20
-736.3822643580
11
-376.5597315774
21
-737.7976731328
62
254
0
LINE
8
Modules
10
-376.5597315774
20
-737.7976731328
11
-374.0779054942
21
-742.8729655059
62
254
0
LINE
8
Modules
10
-374.0779054942
20
-742.8729655059
11
-371.1834184839
21
-741.4575567311
62
254
0
LINE
8
Modules
10
-371.1834184839
20
-741.4575567311
11
-373.6652445671
21
-736.3822643580
62
254
0
LINE
8
Modules
10
-374.4201463472
20
-739.4393551838
11
-374.0598347788
21
-740.1761862485
62
254
0
LINE
8
Modules
10
-374.0598347788
20
-740.1761862485
11
-373.3230037141
21
-739.8158746801
62
254
0
LINE
8
Modules
10
-373.3230037141
20
-739.8158746801
11
-373.6833152825
21
-739.0790436154
62
254
0
LINE
8
Modules
10
-373.6833152825
20
-739.0790436154
11
-374.4201463472
21
-739.4393551838
62
254
0
LINE
8
Modules
10
-374.4201463472
20
-739.4393551838
11
-373.3230037141
21
-739.8158746801
62
254
0
TEXT
8
Modules
100
AcDbText
10
-373.9416923930
20
-739.2601718753
1
DC
7
NewTextStyle_4
40
0.2624672000000003
50
-63.941292879749994
0
TEXT
8
Modules
100
AcDbText
10
-374.2318118559
20
-739.7124689156
1
AC
7
NewTextStyle_4
40
0.2624672000000003
50
-63.941292879749994
0
LINE
8
Modules
10
-381.5924076116
20
-727.5880779304
11
-384.4868946218
21
-729.0034867051
62
254
0
LINE
8
Modules
10
-384.4868946218
20
-729.0034867051
11
-382.0050685387
21
-734.0787790782
62
254
0
LINE
8
Modules
10
-382.0050685387
20
-734.0787790782
11
-379.1105815284
21
-732.6633703034
62
254
0
LINE
8
Modules
10
-379.1105815284
20
-732.6633703034
11
-381.5924076116
21
-727.5880779304
62
254
0
LINE
8
Modules
10
-382.3473093916
20
-730.6451687562
11
-381.9869978232
21
-731.3819998208
62
254
0
LINE
8
Modules
10
-381.9869978232
20
-731.3819998208
11
-381.2501667586
21
-731.0216882524
62
254
0
LINE
8
Modules
10
-381.2501667586
20
-731.0216882524
11
-381.6104783270
21
-730.2848571878
62
254
0
LINE
8
Modules
10
-381.6104783270
20
-730.2848571878
11
-382.3473093916
21
-730.6451687562
62
254
0
LINE
8
Modules
10
-382.3473093916
20
-730.6451687562
11
-381.2501667586
21
-731.0216882524
62
254
0
TEXT
8
Modules
100
AcDbText
10
-381.8688554375
20
-730.4659854476
1
DC
7
NewTextStyle_4
40
0.2624672000000003
50
-63.941292879749994
0
TEXT
8
Modules
100
AcDbText
10
-382.1589749004
20
-730.9182824879
1
AC
7
NewTextStyle_4
40
0.2624672000000003
50
-63.941292879749994
0
LINE
8
Modules
10
-379.0922777007
20
-732.7008013215
11
-381.9867647110
21
-734.1162100963
62
254
0
LINE
8
Modules
10
-381.9867647110
20
-734.1162100963
11
-379.5049386278
21
-739.1915024693
62
254
0
LINE
8
Modules
10
-379.5049386278
20
-739.1915024693
11
-376.6104516176
21
-737.7760936945
62
254
0
LINE
8
Modules
10
-376.6104516176
20
-737.7760936945
11
-379.0922777007
21
-732.7008013215
62
254
0
LINE
8
Modules
10
-379.8471794808
20
-735.7578921473
11
-379.4868679124
21
-736.4947232119
62
254
0
LINE
8
Modules
10
-379.4868679124
20
-736.4947232119
11
-378.7500368478
21
-736.1344116435
62
254
0
LINE
8
Modules
10
-378.7500368478
20
-736.1344116435
11
-379.1103484162
21
-735.3975805789
62
254
0
LINE
8
Modules
10
-379.1103484162
20
-735.3975805789
11
-379.8471794808
21
-735.7578921473
62
254
0
LINE
8
Modules
10
-379.8471794808
20
-735.7578921473
11
-378.7500368478
21
-736.1344116435
62
254
0
TEXT
8
Modules
100
AcDbText
10
-379.3687255266
20
-735.5787088387
1
DC
7
NewTextStyle_4
40
0.2624672000000003
50
-63.941292879749994
0
TEXT
8
Modules
100
AcDbText
10
-379.6588449896
20
-736.0310058790
1
AC
7
NewTextStyle_4
40
0.2624672000000003
50
-63.941292879749994
0
LINE
8
Modules
10
-376.5921477899
20
-737.8135247126
11
-379.4866348002
21
-739.2289334874
62
254
0
LINE
8
Modules
10
-379.4866348002
20
-739.2289334874
11
-377.0048087170
21
-744.3042258604
62
254
0
LINE
8
Modules
10
-377.0048087170
20
-744.3042258604
11
-374.1103217067
21
-742.8888170856
62
254
0
LINE
8
Modules
10
-374.1103217067
20
-742.8888170856
11
-376.5921477899
21
-737.8135247126
62
254
0
LINE
8
Modules
10
-377.3470495700
20
-740.8706155384
11
-376.9867380016
21
-741.6074466030
62
254
0
LINE
8
Modules
10
-376.9867380016
20
-741.6074466030
11
-376.2499069369
21
-741.2471350346
62
254
0
LINE
8
Modules
10
-376.2499069369
20
-741.2471350346
11
-376.6102185054
21
-740.5103039700
62
254
0
LINE
8
Modules
10
-376.6102185054
20
-740.5103039700
11
-377.3470495700
21
-740.8706155384
62
254
0
LINE
8
Modules
10
-377.3470495700
20
-740.8706155384
11
-376.2499069369
21
-741.2471350346
62
254
0
TEXT
8
Modules
100
AcDbText
10
-376.8685956158
20
-740.6914322299
1
DC
7
NewTextStyle_4
40
0.2624672000000003
50
-63.941292879749994
0
TEXT
8
Modules
100
AcDbText
10
-377.1587150787
20
-741.1437292701
1
AC
7
NewTextStyle_4
40
0.2624672000000003
50
-63.941292879749994
0
LINE
8
Modules
10
-415.6662649638
20
-745.3482823854
11
-414.3530311547
21
-748.2905356062
62
254
0
LINE
8
Modules
10
-414.3530311547
20
-748.2905356062
11
-409.1939838769
21
-745.9878665973
62
254
0
LINE
8
Modules
10
-409.1939838769
20
-745.9878665973
11
-410.5072176860
21
-743.0456133765
62
254
0
LINE
8
Modules
10
-410.5072176860
20
-743.0456133765
11
-415.6662649638
21
-745.3482823854
62
254
0
LINE
8
Modules
10
-412.6374689521
20
-746.2097205633
11
-411.8884783485
21
-745.8754190231
62
254
0
LINE
8
Modules
10
-411.8884783485
20
-745.8754190231
11
-412.2227798887
21
-745.1264284194
62
254
0
LINE
8
Modules
10
-412.2227798887
20
-745.1264284194
11
-412.9717704923
21
-745.4607299596
62
254
0
LINE
8
Modules
10
-412.9717704923
20
-745.4607299596
11
-412.6374689521
21
-746.2097205633
62
254
0
LINE
8
Modules
10
-412.6374689521
20
-746.2097205633
11
-412.2227798887
21
-745.1264284194
62
254
0
TEXT
8
Modules
100
AcDbText
10
-412.7997964708
20
-745.7252882966
1
DC
7
NewTextStyle_4
40
0.2624672000000003
50
24.052931226510076
0
TEXT
8
Modules
100
AcDbText
10
-412.3579308030
20
-746.0310605110
1
AC
7
NewTextStyle_4
40
0.2624672000000003
50
24.052931226510076
0
LINE
8
Modules
10
-410.4691689634
20
-743.0286308583
11
-409.1559351543
21
-745.9708840790
62
254
0
LINE
8
Modules
10
-409.1559351543
20
-745.9708840790
11
-403.9968878765
21
-743.6682150701
62
254
0
LINE
8
Modules
10
-403.9968878765
20
-743.6682150701
11
-405.3101216856
21
-740.7259618494
62
254
0
LINE
8
Modules
10
-405.3101216856
20
-740.7259618494
11
-410.4691689634
21
-743.0286308583
62
254
0
LINE
8
Modules
10
-407.4403729517
20
-743.8900690361
11
-406.6913823480
21
-743.5557674959
62
254
0
LINE
8
Modules
10
-406.6913823480
20
-743.5557674959
11
-407.0256838882
21
-742.8067768923
62
254
0
LINE
8
Modules
10
-407.0256838882
20
-742.8067768923
11
-407.7746744919
21
-743.1410784325
62
254
0
LINE
8
Modules
10
-407.7746744919
20
-743.1410784325
11
-407.4403729517
21
-743.8900690361
62
254
0
LINE
8
Modules
10
-407.4403729517
20
-743.8900690361
11
-407.0256838882
21
-742.8067768923
62
254
0
TEXT
8
Modules
100
AcDbText
10
-407.6027004704
20
-743.4056367694
1
DC
7
NewTextStyle_4
40
0.2624672000000003
50
24.052931226510076
0
TEXT
8
Modules
100
AcDbText
10
-407.1608348026
20
-743.7114089838
1
AC
7
NewTextStyle_4
40
0.2624672000000003
50
24.052931226510076
0
LINE
8
Modules
10
-405.2720729629
20
-740.7089793311
11
-403.9588391539
21
-743.6512325519
62
254
0
LINE
8
Modules
10
-403.9588391539
20
-743.6512325519
11
-398.7997918761
21
-741.3485635429
62
254
0
LINE
8
Modules
10
-398.7997918761
20
-741.3485635429
11
-400.1130256852
21
-738.4063103222
62
254
0
LINE
8
Modules
10
-400.1130256852
20
-738.4063103222
11
-405.2720729629
21
-740.7089793311
62
254
0
LINE
8
Modules
10
-402.2432769512
20
-741.5704175089
11
-401.4942863476
21
-741.2361159687
62
254
0
LINE
8
Modules
10
-401.4942863476
20
-741.2361159687
11
-401.8285878878
21
-740.4871253651
62
254
0
LINE
8
Modules
10
-401.8285878878
20
-740.4871253651
11
-402.5775784914
21
-740.8214269053
62
254
0
LINE
8
Modules
10
-402.5775784914
20
-740.8214269053
11
-402.2432769512
21
-741.5704175089
62
254
0
LINE
8
Modules
10
-402.2432769512
20
-741.5704175089
11
-401.8285878878
21
-740.4871253651
62
254
0
TEXT
8
Modules
100
AcDbText
10
-402.4056044699
20
-741.0859852423
1
DC
7
NewTextStyle_4
40
0.2624672000000003
50
24.052931226510076
0
TEXT
8
Modules
100
AcDbText
10
-401.9637388022
20
-741.3917574566
1
AC
7
NewTextStyle_4
40
0.2624672000000003
50
24.052931226510076
0
LINE
8
Modules
10
-400.0749769625
20
-738.3893278039
11
-398.7617431534
21
-741.3315810247
62
254
0
LINE
8
Modules
10
-398.7617431534
20
-741.3315810247
11
-393.6026958757
21
-739.0289120158
62
254
0
LINE
8
Modules
10
-393.6026958757
20
-739.0289120158
11
-394.9159296847
21
-736.0866587950
62
254
0
LINE
8
Modules
10
-394.9159296847
20
-736.0866587950
11
-400.0749769625
21
-738.3893278039
62
254
0
LINE
8
Modules
10
-397.0461809508
20
-739.2507659818
11
-396.2971903472
21
-738.9164644416
62
254
0
LINE
8
Modules
10
-396.2971903472
20
-738.9164644416
11
-396.6314918874
21
-738.1674738379
62
254
0
LINE
8
Modules
10
-396.6314918874
20
-738.1674738379
11
-397.3804824910
21
-738.5017753781
62
254
0
LINE
8
Modules
10
-397.3804824910
20
-738.5017753781
11
-397.0461809508
21
-739.2507659818
62
254
0
LINE
8
Modules
10
-397.0461809508
20
-739.2507659818
11
-396.6314918874
21
-738.1674738379
62
254
0
TEXT
8
Modules
100
AcDbText
10
-397.2085084695
20
-738.7663337151
1
DC
7
NewTextStyle_4
40
0.2624672000000003
50
24.052931226510076
0
TEXT
8
Modules
100
AcDbText
10
-396.7666428018
20
-739.0721059295
1
AC
7
NewTextStyle_4
40
0.2624672000000003
50
24.052931226510076
0
LINE
8
Modules
10
-414.3383238625
20
-748.3234867666
11
-413.0250900534
21
-751.2657399873
62
254
0
LINE
8
Modules
10
-413.0250900534
20
-751.2657399873
11
-407.8660427756
21
-748.9630709784
62
254
0
LINE
8
Modules
10
-407.8660427756
20
-748.9630709784
11
-409.1792765847
21
-746.0208177577
62
254
0
LINE
8
Modules
10
-409.1792765847
20
-746.0208177577
11
-414.3383238625
21
-748.3234867666
62
254
0
LINE
8
Modules
10
-411.3095278508
20
-749.1849249444
11
-410.5605372472
21
-748.8506234042
62
254
0
LINE
8
Modules
10
-410.5605372472
20
-748.8506234042
11
-410.8948387874
21
-748.1016328006
62
254
0
LINE
8
Modules
10
-410.8948387874
20
-748.1016328006
11
-411.6438293910
21
-748.4359343408
62
254
0
LINE
8
Modules
10
-411.6438293910
20
-748.4359343408
11
-411.3095278508
21
-749.1849249444
62
254
0
LINE
8
Modules
10
-411.3095278508
20
-749.1849249444
11
-410.8948387874
21
-748.1016328006
62
254
0
TEXT
8
Modules
100
AcDbText
10
-411.4718553695
20
-748.7004926778
1
DC
7
NewTextStyle_4
40
0.2624672000000003
50
24.052931226510076
0
TEXT
8
Modules
100
AcDbText
10
-411.0299897017
20
-749.0062648921
1
AC
7
NewTextStyle_4
40
0.2624672000000003
50
24.052931226510076
0
LINE
8
Modules
10
-409.1412278621
20
-746.0038352394
11
-407.8279940530
21
-748.9460884602
62
254
0
LINE
8
Modules
10
-407.8279940530
20
-748.9460884602
11
-402.6689467752
21
-746.6434194512
62
254
0
LINE
8
Modules
10
-402.6689467752
20
-746.6434194512
11
-403.9821805843
21
-743.7011662305
62
254
0
LINE
8
Modules
10
-403.9821805843
20
-743.7011662305
11
-409.1412278621
21
-746.0038352394
62
254
0
LINE
8
Modules
10
-406.1124318504
20
-746.8652734173
11
-405.3634412467
21
-746.5309718770
62
254
0
LINE
8
Modules
10
-405.3634412467
20
-746.5309718770
11
-405.6977427869
21
-745.7819812734
62
254
0
LINE
8
Modules
10
-405.6977427869
20
-745.7819812734
11
-406.4467333906
21
-746.1162828136
62
254
0
LINE
8
Modules
10
-406.4467333906
20
-746.1162828136
11
-406.1124318504
21
-746.8652734173
62
254
0
LINE
8
Modules
10
-406.1124318504
20
-746.8652734173
11
-405.6977427869
21
-745.7819812734
62
254
0
TEXT
8
Modules
100
AcDbText
10
-406.2747593691
20
-746.3808411506
1
DC
7
NewTextStyle_4
40
0.2624672000000003
50
24.052931226510076
0
TEXT
8
Modules
100
AcDbText
10
-405.8328937013
20
-746.6866133650
1
AC
7
NewTextStyle_4
40
0.2624672000000003
50
24.052931226510076
0
LINE
8
Modules
10
-403.9441318616
20
-743.6841837123
11
-402.6308980526
21
-746.6264369330
62
254
0
LINE
8
Modules
10
-402.6308980526
20
-746.6264369330
11
-397.4718507748
21
-744.3237679241
62
254
0
LINE
8
Modules
10
-397.4718507748
20
-744.3237679241
11
-398.7850845839
21
-741.3815147033
62
254
0
LINE
8
Modules
10
-398.7850845839
20
-741.3815147033
11
-403.9441318616
21
-743.6841837123
62
254
0
LINE
8
Modules
10
-400.9153358499
20
-744.5456218901
11
-400.1663452463
21
-744.2113203499
62
254
0
LINE
8
Modules
10
-400.1663452463
20
-744.2113203499
11
-400.5006467865
21
-743.4623297463
62
254
0
LINE
8
Modules
10
-400.5006467865
20
-743.4623297463
11
-401.2496373901
21
-743.7966312865
62
254
0
LINE
8
Modules
10
-401.2496373901
20
-743.7966312865
11
-400.9153358499
21
-744.5456218901
62
254
0
LINE
8
Modules
10
-400.9153358499
20
-744.5456218901
11
-400.5006467865
21
-743.4623297463
62
254
0
TEXT
8
Modules
100
AcDbText
10
-401.0776633686
20
-744.0611896234
1
DC
7
NewTextStyle_4
40
0.2624672000000003
50
24.052931226510076
0
TEXT
8
Modules
100
AcDbText
10
-400.6357977009
20
-744.3669618378
1
AC
7
NewTextStyle_4
40
0.2624672000000003
50
24.052931226510076
0
LINE
8
Modules
10
-398.7470358612
20
-741.3645321851
11
-397.4338020521
21
-744.3067854058
62
254
0
LINE
8
Modules
10
-397.4338020521
20
-744.3067854058
11
-392.2747547744
21
-742.0041163969
62
254
0
LINE
8
Modules
10
-392.2747547744
20
-742.0041163969
11
-393.5879885834
21
-739.0618631762
62
254
0
LINE
8
Modules
10
-393.5879885834
20
-739.0618631762
11
-398.7470358612
21
-741.3645321851
62
254
0
LINE
8
Modules
10
-395.7182398495
20
-742.2259703629
11
-394.9692492459
21
-741.8916688227
62
254
0
LINE
8
Modules
10
-394.9692492459
20
-741.8916688227
11
-395.3035507861
21
-741.1426782191
62
254
0
LINE
8
Modules
10
-395.3035507861
20
-741.1426782191
11
-396.0525413897
21
-741.4769797593
62
254
0
LINE
8
Modules
10
-396.0525413897
20
-741.4769797593
11
-395.7182398495
21
-742.2259703629
62
254
0
LINE
8
Modules
10
-395.7182398495
20
-742.2259703629
11
-395.3035507861
21
-741.1426782191
62
254
0
TEXT
8
Modules
100
AcDbText
10
-395.8805673682
20
-741.7415380963
1
DC
7
NewTextStyle_4
40
0.2624672000000003
50
24.052931226510076
0
TEXT
8
Modules
100
AcDbText
10
-395.4387017005
20
-742.0473103106
1
AC
7
NewTextStyle_4
40
0.2624672000000003
50
24.052931226510076
0
LINE
8
Modules
10
-413.0103827612
20
-751.2986911477
11
-411.6971489521
21
-754.2409443685
62
254
0
LINE
8
Modules
10
-411.6971489521
20
-754.2409443685
11
-406.5381016743
21
-751.9382753596
62
254
0
LINE
8
Modules
10
-406.5381016743
20
-751.9382753596
11
-407.8513354834
21
-748.9960221388
62
254
0
LINE
8
Modules
10
-407.8513354834
20
-748.9960221388
11
-413.0103827612
21
-751.2986911477
62
254
0
LINE
8
Modules
10
-409.9815867495
20
-752.1601293256
11
-409.2325961459
21
-751.8258277854
62
254
0
LINE
8
Modules
10
-409.2325961459
20
-751.8258277854
11
-409.5668976861
21
-751.0768371817
62
254
0
LINE
8
Modules
10
-409.5668976861
20
-751.0768371817
11
-410.3158882897
21
-751.4111387219
62
254
0
LINE
8
Modules
10
-410.3158882897
20
-751.4111387219
11
-409.9815867495
21
-752.1601293256
62
254
0
LINE
8
Modules
10
-409.9815867495
20
-752.1601293256
11
-409.5668976861
21
-751.0768371817
62
254
0
TEXT
8
Modules
100
AcDbText
10
-410.1439142682
20
-751.6756970589
1
DC
7
NewTextStyle_4
40
0.2624672000000003
50
24.052931226510076
0
TEXT
8
Modules
100
AcDbText
10
-409.7020486004
20
-751.9814692733
1
AC
7
NewTextStyle_4
40
0.2624672000000003
50
24.052931226510076
0
LINE
8
Modules
10
-407.8132867608
20
-748.9790396206
11
-406.5000529517
21
-751.9212928413
62
254
0
LINE
8
Modules
10
-406.5000529517
20
-751.9212928413
11
-401.3410056739
21
-749.6186238324
62
254
0
LINE
8
Modules
10
-401.3410056739
20
-749.6186238324
11
-402.6542394830
21
-746.6763706117
62
254
0
LINE
8
Modules
10
-402.6542394830
20
-746.6763706117
11
-407.8132867608
21
-748.9790396206
62
254
0
LINE
8
Modules
10
-404.7844907491
20
-749.8404777984
11
-404.0355001454
21
-749.5061762582
62
254
0
LINE
8
Modules
10
-404.0355001454
20
-749.5061762582
11
-404.3698016856
21
-748.7571856546
62
254
0
LINE
8
Modules
10
-404.3698016856
20
-748.7571856546
11
-405.1187922893
21
-749.0914871948
62
254
0
LINE
8
Modules
10
-405.1187922893
20
-749.0914871948
11
-404.7844907491
21
-749.8404777984
62
254
0
LINE
8
Modules
10
-404.7844907491
20
-749.8404777984
11
-404.3698016856
21
-748.7571856546
62
254
0
TEXT
8
Modules
100
AcDbText
10
-404.9468182678
20
-749.3560455317
1
DC
7
NewTextStyle_4
40
0.2624672000000003
50
24.052931226510076
0
TEXT
8
Modules
100
AcDbText
10
-404.5049526000
20
-749.6618177461
1
AC
7
NewTextStyle_4
40
0.2624672000000003
50
24.052931226510076
0
LINE
8
Modules
10
-402.6161907603
20
-746.6593880934
11
-401.3029569513
21
-749.6016413142
62
254
0
LINE
8
Modules
10
-401.3029569513
20
-749.6016413142
11
-396.1439096735
21
-747.2989723052
62
254
0
LINE
8
Modules
10
-396.1439096735
20
-747.2989723052
11
-397.4571434826
21
-744.3567190845
62
254
0
LINE
8
Modules
10
-397.4571434826
20
-744.3567190845
11
-402.6161907603
21
-746.6593880934
62
254
0
LINE
8
Modules
10
-399.5873947486
20
-747.5208262712
11
-398.8384041450
21
-747.1865247310
62
254
0
LINE
8
Modules
10
-398.8384041450
20
-747.1865247310
11
-399.1727056852
21
-746.4375341274
62
254
0
LINE
8
Modules
10
-399.1727056852
20
-746.4375341274
11
-399.9216962888
21
-746.7718356676
62
254
0
LINE
8
Modules
10
-399.9216962888
20
-746.7718356676
11
-399.5873947486
21
-747.5208262712
62
254
0
LINE
8
Modules
10
-399.5873947486
20
-747.5208262712
11
-399.1727056852
21
-746.4375341274
62
254
0
TEXT
8
Modules
100
AcDbText
10
-399.7497222673
20
-747.0363940046
1
DC
7
NewTextStyle_4
40
0.2624672000000003
50
24.052931226510076
0
TEXT
8
Modules
100
AcDbText
10
-399.3078565996
20
-747.3421662189
1
AC
7
NewTextStyle_4
40
0.2624672000000003
50
24.052931226510076
0
LINE
8
Modules
10
-397.4190947599
20
-744.3397365662
11
-396.1058609508
21
-747.2819897870
62
254
0
LINE
8
Modules
10
-396.1058609508
20
-747.2819897870
11
-390.9468136731
21
-744.9793207781
62
254
0
LINE
8
Modules
10
-390.9468136731
20
-744.9793207781
11
-392.2600474821
21
-742.0370675573
62
254
0
LINE
8
Modules
10
-392.2600474821
20
-742.0370675573
11
-397.4190947599
21
-744.3397365662
62
254
0
LINE
8
Modules
10
-394.3902987482
20
-745.2011747441
11
-393.6413081446
21
-744.8668732039
62
254
0
LINE
8
Modules
10
-393.6413081446
20
-744.8668732039
11
-393.9756096848
21
-744.1178826002
62
254
0
LINE
8
Modules
10
-393.9756096848
20
-744.1178826002
11
-394.7246002884
21
-744.4521841404
62
254
0
LINE
8
Modules
10
-394.7246002884
20
-744.4521841404
11
-394.3902987482
21
-745.2011747441
62
254
0
LINE
8
Modules
10
-394.3902987482
20
-745.2011747441
11
-393.9756096848
21
-744.1178826002
62
254
0
TEXT
8
Modules
100
AcDbText
10
-394.5526262669
20
-744.7167424774
1
DC
7
NewTextStyle_4
40
0.2624672000000003
50
24.052931226510076
0
TEXT
8
Modules
100
AcDbText
10
-394.1107605992
20
-745.0225146918
1
AC
7
NewTextStyle_4
40
0.2624672000000003
50
24.052931226510076
0
LINE
8
Modules
10
-411.6824416599
20
-754.2738955289
11
-410.3692078508
21
-757.2161487496
62
254
0
LINE
8
Modules
10
-410.3692078508
20
-757.2161487496
11
-405.2101605730
21
-754.9134797407
62
254
0
LINE
8
Modules
10
-405.2101605730
20
-754.9134797407
11
-406.5233943821
21
-751.9712265200
62
254
0
LINE
8
Modules
10
-406.5233943821
20
-751.9712265200
11
-411.6824416599
21
-754.2738955289
62
254
0
LINE
8
Modules
10
-408.6536456482
20
-755.1353337067
11
-407.9046550446
21
-754.8010321665
62
254
0
LINE
8
Modules
10
-407.9046550446
20
-754.8010321665
11
-408.2389565848
21
-754.0520415629
62
254
0
LINE
8
Modules
10
-408.2389565848
20
-754.0520415629
11
-408.9879471884
21
-754.3863431031
62
254
0
LINE
8
Modules
10
-408.9879471884
20
-754.3863431031
11
-408.6536456482
21
-755.1353337067
62
254
0
LINE
8
Modules
10
-408.6536456482
20
-755.1353337067
11
-408.2389565848
21
-754.0520415629
62
254
0
TEXT
8
Modules
100
AcDbText
10
-408.8159731669
20
-754.6509014401
1
DC
7
NewTextStyle_4
40
0.2624672000000003
50
24.052931226510076
0
TEXT
8
Modules
100
AcDbText
10
-408.3741074991
20
-754.9566736544
1
AC
7
NewTextStyle_4
40
0.2624672000000003
50
24.052931226510076
0
LINE
8
Modules
10
-406.4853456595
20
-751.9542440017
11
-405.1721118504
21
-754.8964972225
62
254
0
LINE
8
Modules
10
-405.1721118504
20
-754.8964972225
11
-400.0130645726
21
-752.5938282136
62
254
0
LINE
8
Modules
10
-400.0130645726
20
-752.5938282136
11
-401.3262983817
21
-749.6515749928
62
254
0
LINE
8
Modules
10
-401.3262983817
20
-749.6515749928
11
-406.4853456595
21
-751.9542440017
62
254
0
LINE
8
Modules
10
-403.4565496478
20
-752.8156821796
11
-402.7075590441
21
-752.4813806394
62
254
0
LINE
8
Modules
10
-402.7075590441
20
-752.4813806394
11
-403.0418605843
21
-751.7323900357
62
254
0
LINE
8
Modules
10
-403.0418605843
20
-751.7323900357
11
-403.7908511880
21
-752.0666915759
62
254
0
LINE
8
Modules
10
-403.7908511880
20
-752.0666915759
11
-403.4565496478
21
-752.8156821796
62
254
0
LINE
8
Modules
10
-403.4565496478
20
-752.8156821796
11
-403.0418605843
21
-751.7323900357
62
254
0
TEXT
8
Modules
100
AcDbText
10
-403.6188771665
20
-752.3312499129
1
DC
7
NewTextStyle_4
40
0.2624672000000003
50
24.052931226510076
0
TEXT
8
Modules
100
AcDbText
10
-403.1770114987
20
-752.6370221273
1
AC
7
NewTextStyle_4
40
0.2624672000000003
50
24.052931226510076
0
LINE
8
Modules
10
-401.2882496590
20
-749.6345924746
11
-399.9750158500
21
-752.5768456953
62
254
0
LINE
8
Modules
10
-399.9750158500
20
-752.5768456953
11
-394.8159685722
21
-750.2741766864
62
254
0
LINE
8
Modules
10
-394.8159685722
20
-750.2741766864
11
-396.1292023813
21
-747.3319234656
62
254
0
LINE
8
Modules
10
-396.1292023813
20
-747.3319234656
11
-401.2882496590
21
-749.6345924746
62
254
0
LINE
8
Modules
10
-398.2594536473
20
-750.4960306524
11
-397.5104630437
21
-750.1617291122
62
254
0
LINE
8
Modules
10
-397.5104630437
20
-750.1617291122
11
-397.8447645839
21
-749.4127385086
62
254
0
LINE
8
Modules
10
-397.8447645839
20
-749.4127385086
11
-398.5937551875
21
-749.7470400488
62
254
0
LINE
8
Modules
10
-398.5937551875
20
-749.7470400488
11
-398.2594536473
21
-750.4960306524
62
254
0
LINE
8
Modules
10
-398.2594536473
20
-750.4960306524
11
-397.8447645839
21
-749.4127385086
62
254
0
TEXT
8
Modules
100
AcDbText
10
-398.4217811660
20
-750.0115983857
1
DC
7
NewTextStyle_4
40
0.2624672000000003
50
24.052931226510076
0
TEXT
8
Modules
100
AcDbText
10
-397.9799154983
20
-750.3173706001
1
AC
7
NewTextStyle_4
40
0.2624672000000003
50
24.052931226510076
0
LINE
8
Modules
10
-396.0911536586
20
-747.3149409474
11
-394.7779198495
21
-750.2571941681
62
254
0
LINE
8
Modules
10
-394.7779198495
20
-750.2571941681
11
-389.6188725718
21
-747.9545251592
62
254
0
LINE
8
Modules
10
-389.6188725718
20
-747.9545251592
11
-390.9321063808
21
-745.0122719385
62
254
0
LINE
8
Modules
10
-390.9321063808
20
-745.0122719385
11
-396.0911536586
21
-747.3149409474
62
254
0
LINE
8
Modules
10
-393.0623576469
20
-748.1763791252
11
-392.3133670433
21
-747.8420775850
62
254
0
LINE
8
Modules
10
-392.3133670433
20
-747.8420775850
11
-392.6476685835
21
-747.0930869814
62
254
0
LINE
8
Modules
10
-392.6476685835
20
-747.0930869814
11
-393.3966591871
21
-747.4273885216
62
254
0
LINE
8
Modules
10
-393.3966591871
20
-747.4273885216
11
-393.0623576469
21
-748.1763791252
62
254
0
LINE
8
Modules
10
-393.0623576469
20
-748.1763791252
11
-392.6476685835
21
-747.0930869814
62
254
0
TEXT
8
Modules
100
AcDbText
10
-393.2246851656
20
-747.6919468586
1
DC
7
NewTextStyle_4
40
0.2624672000000003
50
24.052931226510076
0
TEXT
8
Modules
100
AcDbText
10
-392.7828194979
20
-747.9977190729
1
AC
7
NewTextStyle_4
40
0.2624672000000003
50
24.052931226510076
0
LINE
8
Obstructions
10
-443.3986081805
20
-726.9257938967
11
-436.3401854757
21
-722.1194797723
62
252
0
LINE
8
Obstructions
10
-436.3401854757
20
-722.1194797723
11
-425.3656085129
21
-738.2403540533
62
252
0
LINE
8
Obstructions
10
-425.3656085129
20
-738.2403540533
11
-432.4240312177
21
-743.0466681777
62
252
0
LINE
8
Obstructions
10
-432.4240312177
20
-743.0466681777
11
-443.3986081805
21
-726.9257938967
62
252
0
LINE
8
Obstructions
10
-459.9159597800
20
-726.9915337558
11
-453.6869090418
21
-720.5526798027
62
252
0
LINE
8
Obstructions
10
-453.6869090418
20
-720.5526798027
11
-453.1962946388
21
-721.0274676701
62
252
0
LINE
8
Obstructions
10
-453.1962946388
20
-721.0274676701
11
-459.4253453729
21
-727.4663216258
62
252
0
LINE
8
Obstructions
10
-459.4253453729
20
-727.4663216258
11
-459.9159597800
21
-726.9915337558
62
252
0
LINE
8
Obstructions
10
-454.5454842492
20
-741.2643875599
11
-450.6994177606
21
-741.2643875599
62
252
0
LINE
8
Obstructions
10
-450.6994177606
20
-741.2643875599
11
-450.6994177606
21
-745.1466914471
62
252
0
LINE
8
Obstructions
10
-450.6994177606
20
-745.1466914471
11
-454.5454842492
21
-745.1466914471
62
252
0
LINE
8
Obstructions
10
-454.5454842492
20
-745.1466914471
11
-454.5454842492
21
-741.2643875599
62
252
0
LINE
8
Obstructions
10
-440.2358974673
20
-747.9662009496
11
-444.5054109113
21
-747.9662009496
62
252
0
LINE
8
Obstructions
10
-444.5054109113
20
-747.9662009496
11
-444.5054109113
21
-739.6647176607
62
252
0
LINE
8
Obstructions
10
-444.5054109113
20
-739.6647176607
11
-440.2358974673
21
-739.6647176607
62
252
0
LINE
8
Obstructions
10
-440.2358974673
20
-739.6647176607
11
-440.2358974673
21
-747.9662009496
62
252
0
ENDSEC
0
EOF