999
Design created by Aurora
0
SECTION
2
HEADER
9
$ACADVER
1
AC1009
9
$INSUNITS
70
2
0
ENDSEC
0
SECTION
2
TABLES
0
TABLE
2
LTYPE
100
AcDbLinetypeTableRecord
2
LTYPE
0
LTYPE
2
DASHED
70
0
3
dashed line
72
65
73
2
40
4.0
49
2.0
49
-2.0
0
ENDTAB
0
TABLE
2
LAYER
70
4
0
LAYER
100
AcDbSymbolTable
100
AcDbLayerTable
2
Obstructions
70
0
62
7
6
CONTINUOUS
0
LAYER
100
AcDbSymbolTable
100
AcDbLayerTable
2
Setbacks
70
0
62
7
6
CONTINUOUS
0
LAYER
100
AcDbSymbolTable
100
AcDbLayerTable
2
Modules
70
0
62
7
6
CONTINUOUS
0
LAYER
100
AcDbSymbolTable
100
AcDbLayerTable
2
Buildings
70
0
62
7
6
CONTINUOUS
0
ENDTAB
0
ENDSEC
0
SECTION
2
ENTITIES
0
LINE
8
Modules
10
-2.1160317117
20
-2.6780606769
11
-2.1496209027
21
-8.7490104968
62
254
0
LINE
8
Modules
10
-2.1496209027
20
-8.7490104968
11
1.2788044230
21
-8.7679791980
62
254
0
LINE
8
Modules
10
1.2788044230
20
-8.7679791980
11
1.3123936140
21
-2.6970293781
62
254
0
LINE
8
Modules
10
1.3123936140
20
-2.6970293781
11
-2.1160317117
21
-2.6780606769
62
254
0
LINE
8
Modules
10
1.3520660369
20
-2.6999739624
11
1.3184768459
21
-8.7709237823
62
254
0
LINE
8
Modules
10
1.3184768459
20
-8.7709237823
11
4.7469021716
21
-8.7898924835
62
254
0
LINE
8
Modules
10
4.7469021716
20
-8.7898924835
11
4.7804913626
21
-2.7189426636
62
254
0
LINE
8
Modules
10
4.7804913626
20
-2.7189426636
11
1.3520660369
21
-2.6999739624
62
254
0
LINE
8
Modules
10
4.8230708271
20
-2.7182350358
11
4.7894816360
21
-8.7891848557
62
254
0
LINE
8
Modules
10
4.7894816360
20
-8.7891848557
11
8.2179069617
21
-8.8081535569
62
254
0
LINE
8
Modules
10
8.2179069617
20
-8.8081535569
11
8.2514961527
21
-2.7372037370
62
254
0
LINE
8
Modules
10
8.2514961527
20
-2.7372037370
11
4.8230708271
21
-2.7182350358
62
254
0
LINE
8
Modules
10
8.2940756130
20
-2.7364961066
11
8.2604864220
21
-8.8074459265
62
254
0
LINE
8
Modules
10
8.2604864220
20
-8.8074459265
11
11.6889117477
21
-8.8264146277
62
254
0
LINE
8
Modules
10
11.6889117477
20
-8.8264146277
11
11.7225009387
21
-2.7554648078
62
254
0
LINE
8
Modules
10
11.7225009387
20
-2.7554648078
11
8.2940756130
21
-2.7364961066
62
254
0
LINE
8
Modules
10
11.7621733616
20
-2.7547571774
11
11.7285841706
21
-8.8257069974
62
254
0
LINE
8
Modules
10
11.7285841706
20
-8.8257069974
11
15.1570094963
21
-8.8446756986
62
254
0
LINE
8
Modules
10
15.1570094963
20
-8.8446756986
11
15.1905986873
21
-2.7737258786
62
254
0
LINE
8
Modules
10
15.1905986873
20
-2.7737258786
11
11.7621733616
21
-2.7547571774
62
254
0
LINE
8
Modules
10
15.2331781518
20
-2.7766704655
11
15.1995889607
21
-8.8476202855
62
254
0
LINE
8
Modules
10
15.1995889607
20
-8.8476202855
11
18.6280142864
21
-8.8665889867
62
254
0
LINE
8
Modules
10
18.6280142864
20
-8.8665889867
11
18.6616034774
21
-2.7956391667
62
254
0
LINE
8
Modules
10
18.6616034774
20
-2.7956391667
11
15.2331781518
21
-2.7766704655
62
254
0
LINE
8
Modules
10
18.7041829377
20
-2.7949315364
11
18.6705937467
21
-8.8658813563
62
254
0
LINE
8
Modules
10
18.6705937467
20
-8.8658813563
11
22.0990190724
21
-8.8848500575
62
254
0
LINE
8
Modules
10
22.0990190724
20
-8.8848500575
11
22.1326082634
21
-2.8139002376
62
254
0
LINE
8
Modules
10
22.1326082634
20
-2.8139002376
11
18.7041829377
21
-2.7949315364
62
254
0
LINE
8
Modules
10
22.1751877278
20
-2.8131926098
11
22.1415985368
21
-8.8841424297
62
254
0
LINE
8
Modules
10
22.1415985368
20
-8.8841424297
11
25.5700238625
21
-8.9031111309
62
254
0
LINE
8
Modules
10
25.5700238625
20
-8.9031111309
11
25.6036130535
21
-2.8321613110
62
254
0
LINE
8
Modules
10
25.6036130535
20
-2.8321613110
11
22.1751877278
21
-2.8131926098
62
254
0
LINE
8
Modules
10
25.6432854765
20
-2.8314536806
11
25.6096962854
21
-8.9024035005
62
254
0
LINE
8
Modules
10
25.6096962854
20
-8.9024035005
11
29.0381216111
21
-8.9213722017
62
254
0
LINE
8
Modules
10
29.0381216111
20
-8.9213722017
11
29.0717108021
21
-2.8504223818
62
254
0
LINE
8
Modules
10
29.0717108021
20
-2.8504223818
11
25.6432854765
21
-2.8314536806
62
254
0
LINE
8
Modules
10
29.1142902624
20
-2.8533669661
11
29.0807010714
21
-8.9243167860
62
254
0
LINE
8
Modules
10
29.0807010714
20
-8.9243167860
11
32.5091263971
21
-8.9432854872
62
254
0
LINE
8
Modules
10
32.5091263971
20
-8.9432854872
11
32.5427155881
21
-2.8723356673
62
254
0
LINE
8
Modules
10
32.5427155881
20
-2.8723356673
11
29.1142902624
21
-2.8533669661
62
254
0
LINE
8
Modules
10
32.5852950525
20
-2.8716280395
11
32.5517058615
21
-8.9425778595
62
254
0
LINE
8
Modules
10
32.5517058615
20
-8.9425778595
11
35.9801311872
21
-8.9615465607
62
254
0
LINE
8
Modules
10
35.9801311872
20
-8.9615465607
11
36.0137203782
21
-2.8905967407
62
254
0
LINE
8
Modules
10
36.0137203782
20
-2.8905967407
11
32.5852950525
21
-2.8716280395
62
254
0
LINE
8
Modules
10
-2.0695190850
20
6.0580361257
11
-2.1031082760
21
-0.0129136942
62
254
0
LINE
8
Modules
10
-2.1031082760
20
-0.0129136942
11
1.3253170496
21
-0.0318823954
62
254
0
LINE
8
Modules
10
1.3253170496
20
-0.0318823954
11
1.3589062407
21
6.0390674245
62
254
0
LINE
8
Modules
10
1.3589062407
20
6.0390674245
11
-2.0695190850
21
6.0580361257
62
254
0
LINE
8
Modules
10
1.4014857051
20
6.0397750523
11
1.3678965141
21
-0.0311747677
62
254
0
LINE
8
Modules
10
1.3678965141
20
-0.0311747677
11
4.7963218398
21
-0.0501434689
62
254
0
LINE
8
Modules
10
4.7963218398
20
-0.0501434689
11
4.8299110308
21
6.0208063511
62
254
0
LINE
8
Modules
10
4.8299110308
20
6.0208063511
11
1.4014857051
21
6.0397750523
62
254
0
LINE
8
Modules
10
4.8724904911
20
6.0215139814
11
4.8389013001
21
-0.0494358385
62
254
0
LINE
8
Modules
10
4.8389013001
20
-0.0494358385
11
8.2673266257
21
-0.0684045397
62
254
0
LINE
8
Modules
10
8.2673266257
20
-0.0684045397
11
8.3009158167
21
6.0025452802
62
254
0
LINE
8
Modules
10
8.3009158167
20
6.0025452802
11
4.8724904911
21
6.0215139814
62
254
0
LINE
8
Modules
10
8.3405882397
20
5.9996006959
11
8.3069990487
21
-0.0713491240
62
254
0
LINE
8
Modules
10
8.3069990487
20
-0.0713491240
11
11.7354243744
21
-0.0903178252
62
254
0
LINE
8
Modules
10
11.7354243744
20
-0.0903178252
11
11.7690135654
21
5.9806319947
62
254
0
LINE
8
Modules
10
11.7690135654
20
5.9806319947
11
8.3405882397
21
5.9996006959
62
254
0
LINE
8
Modules
10
11.8115930298
20
5.9813396225
11
11.7780038388
21
-0.0896101974
62
254
0
LINE
8
Modules
10
11.7780038388
20
-0.0896101974
11
15.2064291645
21
-0.1085788986
62
254
0
LINE
8
Modules
10
15.2064291645
20
-0.1085788986
11
15.2400183555
21
5.9623709213
62
254
0
LINE
8
Modules
10
15.2400183555
20
5.9623709213
11
11.8115930298
21
5.9813396225
62
254
0
LINE
8
Modules
10
15.2825978158
20
5.9630785517
11
15.2490086248
21
-0.1078712682
62
254
0
LINE
8
Modules
10
15.2490086248
20
-0.1078712682
11
18.6774339504
21
-0.1268399694
62
254
0
LINE
8
Modules
10
18.6774339504
20
-0.1268399694
11
18.7110231414
21
5.9441098505
62
254
0
LINE
8
Modules
10
18.7110231414
20
5.9441098505
11
15.2825978158
21
5.9630785517
62
254
0
LINE
8
Modules
10
18.7506955644
20
5.9448174783
11
18.7171063734
21
-0.1261323417
62
254
0
LINE
8
Modules
10
18.7171063734
20
-0.1261323417
11
22.1455316991
21
-0.1451010429
62
254
0
LINE
8
Modules
10
22.1455316991
20
-0.1451010429
11
22.1791208901
21
5.9258487771
62
254
0
LINE
8
Modules
10
22.1791208901
20
5.9258487771
11
18.7506955644
21
5.9448174783
62
254
0
LINE
8
Modules
10
22.2217003545
20
5.9229041928
11
22.1881111635
21
-0.1480456272
62
254
0
LINE
8
Modules
10
22.1881111635
20
-0.1480456272
11
25.6165364892
21
-0.1670143284
62
254
0
LINE
8
Modules
10
25.6165364892
20
-0.1670143284
11
25.6501256802
21
5.9039354916
62
254
0
LINE
8
Modules
10
25.6501256802
20
5.9039354916
11
22.2217003545
21
5.9229041928
62
254
0
LINE
8
Modules
10
25.6927051405
20
5.9046431219
11
25.6591159495
21
-0.1663066980
62
254
0
LINE
8
Modules
10
25.6591159495
20
-0.1663066980
11
29.0875412751
21
-0.1852753992
62
254
0
LINE
8
Modules
10
29.0875412751
20
-0.1852753992
11
29.1211304661
21
5.8856744207
62
254
0
LINE
8
Modules
10
29.1211304661
20
5.8856744207
11
25.6927051405
21
5.9046431219
62
254
0
LINE
8
Modules
10
29.1637099306
20
5.8863820485
11
29.1301207396
21
-0.1845677714
62
254
0
LINE
8
Modules
10
29.1301207396
20
-0.1845677714
11
32.5585460652
21
-0.2035364726
62
254
0
LINE
8
Modules
10
32.5585460652
20
-0.2035364726
11
32.5921352563
21
5.8674133473
62
254
0
LINE
8
Modules
10
32.5921352563
20
5.8674133473
11
29.1637099306
21
5.8863820485
62
254
0
LINE
8
Modules
10
32.6318076792
20
5.8681209777
11
32.5982184882
21
-0.2028288422
62
254
0
LINE
8
Modules
10
32.5982184882
20
-0.2028288422
11
36.0266438139
21
-0.2217975434
62
254
0
LINE
8
Modules
10
36.0266438139
20
-0.2217975434
11
36.0602330049
21
5.8491522765
62
254
0
LINE
8
Modules
10
36.0602330049
20
5.8491522765
11
32.6318076792
21
5.8681209777
62
254
0
LINE
8
Modules
10
-2.9619801166
20
14.8014373550
11
-2.9955693076
21
8.7304875351
62
254
0
LINE
8
Modules
10
-2.9955693076
20
8.7304875351
11
0.4328560180
21
8.7115188339
62
254
0
LINE
8
Modules
10
0.4328560180
20
8.7115188339
11
0.4664452090
21
14.7824686538
62
254
0
LINE
8
Modules
10
0.4664452090
20
14.7824686538
11
-2.9619801166
21
14.8014373550
62
254
0
LINE
8
Modules
10
11.8610126939
20
14.7210886371
11
11.8274235029
21
8.6501388172
62
254
0
LINE
8
Modules
10
11.8274235029
20
8.6501388172
11
15.2558488285
21
8.6311701160
62
254
0
LINE
8
Modules
10
15.2558488285
20
8.6311701160
11
15.2894380195
21
14.7021199359
62
254
0
LINE
8
Modules
10
15.2894380195
20
14.7021199359
11
11.8610126939
21
14.7210886371
62
254
0
LINE
8
Modules
10
15.3291104425
20
14.6991753516
11
15.2955212515
21
8.6282255317
62
254
0
LINE
8
Modules
10
15.2955212515
20
8.6282255317
11
18.7239465771
21
8.6092568305
62
254
0
LINE
8
Modules
10
18.7239465771
20
8.6092568305
11
18.7575357681
21
14.6802066504
62
254
0
LINE
8
Modules
10
18.7575357681
20
14.6802066504
11
15.3291104425
21
14.6991753516
62
254
0
LINE
8
Modules
10
18.8001152326
20
14.6809142808
11
18.7665260416
21
8.6099644609
62
254
0
LINE
8
Modules
10
18.7665260416
20
8.6099644609
11
22.1949513672
21
8.5909957597
62
254
0
LINE
8
Modules
10
22.1949513672
20
8.5909957597
11
22.2285405582
21
14.6619455796
62
254
0
LINE
8
Modules
10
22.2285405582
20
14.6619455796
11
18.8001152326
21
14.6809142808
62
254
0
LINE
8
Modules
10
22.2711200186
20
14.6626532074
11
22.2375308276
21
8.5917033874
62
254
0
LINE
8
Modules
10
22.2375308276
20
8.5917033874
11
25.6659561532
21
8.5727346862
62
254
0
LINE
8
Modules
10
25.6659561532
20
8.5727346862
11
25.6995453442
21
14.6436845062
62
254
0
LINE
8
Modules
10
25.6995453442
20
14.6436845062
11
22.2711200186
21
14.6626532074
62
254
0
LINE
8
Modules
10
25.7392177672
20
14.6443921365
11
25.7056285762
21
8.5734423166
62
254
0
LINE
8
Modules
10
25.7056285762
20
8.5734423166
11
29.1340539018
21
8.5544736154
62
254
0
LINE
8
Modules
10
29.1340539018
20
8.5544736154
11
29.1676430928
21
14.6254234353
62
254
0
LINE
8
Modules
10
29.1676430928
20
14.6254234353
11
25.7392177672
21
14.6443921365
62
254
0
LINE
8
Modules
10
29.2102225573
20
14.6224788510
11
29.1766333663
21
8.5515290311
62
254
0
LINE
8
Modules
10
29.1766333663
20
8.5515290311
11
32.6050586919
21
8.5325603299
62
254
0
LINE
8
Modules
10
32.6050586919
20
8.5325603299
11
32.6386478829
21
14.6035101498
62
254
0
LINE
8
Modules
10
32.6386478829
20
14.6035101498
11
29.2102225573
21
14.6224788510
62
254
0
LINE
8
Modules
10
32.6812273433
20
14.6042177776
11
32.6476381523
21
8.5332679577
62
254
0
LINE
8
Modules
10
32.6476381523
20
8.5332679577
11
36.0760634779
21
8.5142992565
62
254
0
LINE
8
Modules
10
36.0760634779
20
8.5142992565
11
36.1096526689
21
14.5852490764
62
254
0
LINE
8
Modules
10
36.1096526689
20
14.5852490764
11
32.6812273433
21
14.6042177776
62
254
0
LINE
8
Modules
10
46.5623394581
20
14.5275212770
11
46.5287502671
21
8.4565714571
62
254
0
LINE
8
Modules
10
46.5287502671
20
8.4565714571
11
49.9571755927
21
8.4376027559
62
254
0
LINE
8
Modules
10
49.9571755927
20
8.4376027559
11
49.9907647837
21
14.5085525758
62
254
0
LINE
8
Modules
10
49.9907647837
20
14.5085525758
11
46.5623394581
21
14.5275212770
62
254
0
LINE
8
Modules
10
43.0913346680
20
14.5457823479
11
43.0577454770
21
8.4748325279
62
254
0
LINE
8
Modules
10
43.0577454770
20
8.4748325279
11
46.4861708026
21
8.4558638267
62
254
0
LINE
8
Modules
10
46.4861708026
20
8.4558638267
11
46.5197599936
21
14.5268136467
62
254
0
LINE
8
Modules
10
46.5197599936
20
14.5268136467
11
43.0913346680
21
14.5457823479
62
254
0
LINE
8
Modules
10
39.6203298820
20
14.5640434187
11
39.5867406910
21
8.4930935988
62
254
0
LINE
8
Modules
10
39.5867406910
20
8.4930935988
11
43.0151660166
21
8.4741248976
62
254
0
LINE
8
Modules
10
43.0151660166
20
8.4741248976
11
43.0487552076
21
14.5450747175
62
254
0
LINE
8
Modules
10
43.0487552076
20
14.5450747175
11
39.6203298820
21
14.5640434187
62
254
0
LINE
8
Modules
10
36.1522321334
20
14.5859567068
11
36.1186429424
21
8.5150068869
62
254
0
LINE
8
Modules
10
36.1186429424
20
8.5150068869
11
39.5470682680
21
8.4960381857
62
254
0
LINE
8
Modules
10
39.5470682680
20
8.4960381857
11
39.5806574590
21
14.5669880056
62
254
0
LINE
8
Modules
10
39.5806574590
20
14.5669880056
11
36.1522321334
21
14.5859567068
62
254
0
LINE
8
Modules
10
0.5090246735
20
14.7831762816
11
0.4754354825
21
8.7122264616
62
254
0
LINE
8
Modules
10
0.4754354825
20
8.7122264616
11
3.9038608081
21
8.6932577604
62
254
0
LINE
8
Modules
10
3.9038608081
20
8.6932577604
11
3.9374499991
21
14.7642075804
62
254
0
LINE
8
Modules
10
3.9374499991
20
14.7642075804
11
0.5090246735
21
14.7831762816
62
254
0
LINE
8
Modules
10
3.9771224221
20
14.7612629961
11
3.9435332311
21
8.6903131761
62
254
0
LINE
8
Modules
10
3.9435332311
20
8.6903131761
11
7.3719585568
21
8.6713444749
62
254
0
LINE
8
Modules
10
7.3719585568
20
8.6713444749
11
7.4055477478
21
14.7422942949
62
254
0
LINE
8
Modules
10
7.4055477478
20
14.7422942949
11
3.9771224221
21
14.7612629961
62
254
0
LINE
8
Modules
10
32.5358753844
20
-11.6077248395
11
32.5022861933
21
-17.6786746594
62
254
0
LINE
8
Modules
10
32.5022861933
20
-17.6786746594
11
35.9307115190
21
-17.6976433606
62
254
0
LINE
8
Modules
10
35.9307115190
20
-17.6976433606
11
35.9643007100
21
-11.6266935407
62
254
0
LINE
8
Modules
10
35.9643007100
20
-11.6266935407
11
32.5358753844
21
-11.6077248395
62
254
0
LINE
8
Modules
10
29.0648705984
20
-11.5894637686
11
29.0312814074
21
-17.6604135886
62
254
0
LINE
8
Modules
10
29.0312814074
20
-17.6604135886
11
32.4597067330
21
-17.6793822898
62
254
0
LINE
8
Modules
10
32.4597067330
20
-17.6793822898
11
32.4932959240
21
-11.6084324698
62
254
0
LINE
8
Modules
10
32.4932959240
20
-11.6084324698
11
29.0648705984
21
-11.5894637686
62
254
0
LINE
8
Modules
10
25.5967728456
20
-11.5712026952
11
25.5631836546
21
-17.6421525151
62
254
0
LINE
8
Modules
10
25.5631836546
20
-17.6421525151
11
28.9916089803
21
-17.6611212163
62
254
0
LINE
8
Modules
10
28.9916089803
20
-17.6611212163
11
29.0251981713
21
-11.5901713964
62
254
0
LINE
8
Modules
10
29.0251981713
20
-11.5901713964
11
25.5967728456
21
-11.5712026952
62
254
0
LINE
8
Modules
10
22.1257680597
20
-11.5492894097
11
22.0921788686
21
-17.6202392296
62
254
0
LINE
8
Modules
10
22.0921788686
20
-17.6202392296
11
25.5206041943
21
-17.6392079308
62
254
0
LINE
8
Modules
10
25.5206041943
20
-17.6392079308
11
25.5541933853
21
-11.5682581109
62
254
0
LINE
8
Modules
10
25.5541933853
20
-11.5682581109
11
22.1257680597
21
-11.5492894097
62
254
0
LINE
8
Modules
10
18.6547632737
20
-11.5310283389
11
18.6211740827
21
-17.6019781588
62
254
0
LINE
8
Modules
10
18.6211740827
20
-17.6019781588
11
22.0495994083
21
-17.6209468600
62
254
0
LINE
8
Modules
10
22.0495994083
20
-17.6209468600
11
22.0831885993
21
-11.5499970401
62
254
0
LINE
8
Modules
10
22.0831885993
20
-11.5499970401
11
18.6547632737
21
-11.5310283389
62
254
0
LINE
8
Modules
10
15.1837584836
20
-11.5127672655
11
15.1501692926
21
-17.5837170854
62
254
0
LINE
8
Modules
10
15.1501692926
20
-17.5837170854
11
18.5785946182
21
-17.6026857866
62
254
0
LINE
8
Modules
10
18.5785946182
20
-17.6026857866
11
18.6121838092
21
-11.5317359667
62
254
0
LINE
8
Modules
10
18.6121838092
20
-11.5317359667
11
15.1837584836
21
-11.5127672655
62
254
0
LINE
8
Modules
10
11.7156607350
20
-11.4945061946
11
11.6820715439
21
-17.5654560146
62
254
0
LINE
8
Modules
10
11.6820715439
20
-17.5654560146
11
15.1104968696
21
-17.5844247158
62
254
0
LINE
8
Modules
10
15.1104968696
20
-17.5844247158
11
15.1440860606
21
-11.5134748958
62
254
0
LINE
8
Modules
10
15.1440860606
20
-11.5134748958
11
11.7156607350
21
-11.4945061946
62
254
0
LINE
8
Modules
10
8.2446559490
20
-11.4725929065
11
8.2110667580
21
-17.5435427265
62
254
0
LINE
8
Modules
10
8.2110667580
20
-17.5435427265
11
11.6394920836
21
-17.5625114277
62
254
0
LINE
8
Modules
10
11.6394920836
20
-17.5625114277
11
11.6730812746
21
-11.4915616077
62
254
0
LINE
8
Modules
10
11.6730812746
20
-11.4915616077
11
8.2446559490
21
-11.4725929065
62
254
0
LINE
8
Modules
10
4.7736511589
20
-11.4543318357
11
4.7400619679
21
-17.5252816556
62
254
0
LINE
8
Modules
10
4.7400619679
20
-17.5252816556
11
8.1684872935
21
-17.5442503568
62
254
0
LINE
8
Modules
10
8.1684872935
20
-17.5442503568
11
8.2020764845
21
-11.4733005369
62
254
0
LINE
8
Modules
10
8.2020764845
20
-11.4733005369
11
4.7736511589
21
-11.4543318357
62
254
0
LINE
8
Modules
10
1.3055534103
20
-11.4360707649
11
1.2719642192
21
-17.5070205848
62
254
0
LINE
8
Modules
10
1.2719642192
20
-17.5070205848
11
4.7003895449
21
-17.5259892860
62
254
0
LINE
8
Modules
10
4.7003895449
20
-17.5259892860
11
4.7339787359
21
-11.4550394661
62
254
0
LINE
8
Modules
10
4.7339787359
20
-11.4550394661
11
1.3055534103
21
-11.4360707649
62
254
0
LINE
8
Modules
10
-2.1654513757
20
-11.4178096915
11
-2.1990405667
21
-17.4887595114
62
254
0
LINE
8
Modules
10
-2.1990405667
20
-17.4887595114
11
1.2293847589
21
-17.5077282126
62
254
0
LINE
8
Modules
10
1.2293847589
20
-17.5077282126
11
1.2629739499
21
-11.4367783927
62
254
0
LINE
8
Modules
10
1.2629739499
20
-11.4367783927
11
-2.1654513757
21
-11.4178096915
62
254
0
LINE
8
Modules
10
46.4169874950
20
-11.6844213426
11
46.3833983040
21
-17.7553711626
62
254
0
LINE
8
Modules
10
46.3833983040
20
-17.7553711626
11
49.8118236297
21
-17.7743398638
62
254
0
LINE
8
Modules
10
49.8118236297
20
-17.7743398638
11
49.8454128207
21
-11.7033900438
62
254
0
LINE
8
Modules
10
49.8454128207
20
-11.7033900438
11
46.4169874950
21
-11.6844213426
62
254
0
LINE
8
Modules
10
42.9459827091
20
-11.6661602692
11
42.9123935180
21
-17.7371100891
62
254
0
LINE
8
Modules
10
42.9123935180
20
-17.7371100891
11
46.3408188437
21
-17.7560787903
62
254
0
LINE
8
Modules
10
46.3408188437
20
-17.7560787903
11
46.3744080347
21
-11.6851289704
62
254
0
LINE
8
Modules
10
46.3744080347
20
-11.6851289704
11
42.9459827091
21
-11.6661602692
62
254
0
LINE
8
Modules
10
39.4749779231
20
-11.6478991984
11
39.4413887321
21
-17.7188490183
62
254
0
LINE
8
Modules
10
39.4413887321
20
-17.7188490183
11
42.8698140577
21
-17.7378177195
62
254
0
LINE
8
Modules
10
42.8698140577
20
-17.7378177195
11
42.9034032487
21
-11.6668678996
62
254
0
LINE
8
Modules
10
42.9034032487
20
-11.6668678996
11
39.4749779231
21
-11.6478991984
62
254
0
LINE
8
Modules
10
36.0068801703
20
-11.6296381250
11
35.9732909793
21
-17.7005879449
62
254
0
LINE
8
Modules
10
35.9732909793
20
-17.7005879449
11
39.4017163050
21
-17.7195566461
62
254
0
LINE
8
Modules
10
39.4017163050
20
-17.7195566461
11
39.4353054960
21
-11.6486068262
62
254
0
LINE
8
Modules
10
39.4353054960
20
-11.6486068262
11
36.0068801703
21
-11.6296381250
62
254
0
LINE
8
Modules
10
36.1028124652
20
5.8462076896
11
36.0692232742
21
-0.2247421303
62
254
0
LINE
8
Modules
10
36.0692232742
20
-0.2247421303
11
39.4976485998
21
-0.2437108315
62
254
0
LINE
8
Modules
10
39.4976485998
20
-0.2437108315
11
39.5312377908
21
5.8272389884
62
254
0
LINE
8
Modules
10
39.5312377908
20
5.8272389884
11
36.1028124652
21
5.8462076896
62
254
0
LINE
8
Modules
10
36.0533928012
20
-2.8898891104
11
36.0198036101
21
-8.9608389303
62
254
0
LINE
8
Modules
10
36.0198036101
20
-8.9608389303
11
39.4482289358
21
-8.9798076315
62
254
0
LINE
8
Modules
10
39.4482289358
20
-8.9798076315
11
39.4818181268
21
-2.9088578116
62
254
0
LINE
8
Modules
10
39.4818181268
20
-2.9088578116
11
36.0533928012
21
-2.8898891104
62
254
0
LINE
8
Buildings
10
51.7835415252
20
18.2553823130
11
-12.2698312786
21
18.7990376053
62
252
0
LINE
8
Buildings
10
-12.2698312786
20
18.7990376053
11
-12.3209676280
21
9.5566363837
62
252
0
LINE
8
Buildings
10
-12.3209676280
20
9.5566363837
11
-6.2187123435
21
9.5228738310
62
252
0
LINE
8
Buildings
10
-6.2187123435
20
9.5228738310
11
-6.3887984825
21
-21.2185529231
62
252
0
LINE
8
Buildings
10
-6.3887984825
20
-21.2185529231
11
52.6543273296
21
-21.7721759185
62
252
0
LINE
8
Buildings
10
52.6543273296
20
-21.7721759185
11
52.3435325856
21
-7.4858213938
62
252
0
LINE
8
Buildings
10
52.3435325856
20
-7.4858213938
11
42.9330193819
21
-7.2740687071
62
252
0
LINE
8
Buildings
10
42.9330193819
20
-7.2740687071
11
43.2003492641
21
4.6063537981
62
252
0
LINE
8
Buildings
10
43.2003492641
20
4.6063537981
11
52.0848205611
21
4.4064379564
62
252
0
LINE
8
Buildings
10
52.0848205611
20
4.4064379564
11
51.7835415252
21
18.2553823130
62
252
0
LINE
8
Buildings
10
53.4436375204
20
4.1915459011
11
53.4477828554
21
4.3757689672
62
252
0
LINE
8
Buildings
10
53.4477828554
20
4.3757689672
11
43.2003492641
21
4.6063537981
62
252
0
LINE
8
Buildings
10
43.2003492641
20
4.6063537981
11
43.1963434010
21
4.4283290095
62
252
0
LINE
8
Buildings
10
43.1963434010
20
4.4283290095
11
48.2077971840
21
-0.8138490763
62
252
0
LINE
8
Buildings
10
48.2077971840
20
-0.8138490763
11
53.4436375204
21
4.1915459011
62
252
0
LINE
8
Buildings
10
53.1805924451
20
-7.4984552605
11
48.1751974677
21
-2.2626149241
62
252
0
LINE
8
Buildings
10
48.1751974677
20
-2.2626149241
11
42.9330193819
21
-7.2740687071
62
252
0
LINE
8
Buildings
10
42.9330193819
20
-7.2740687071
11
53.1804529732
21
-7.5046535380
62
252
0
LINE
8
Buildings
10
53.1804529732
20
-7.5046535380
11
53.1805924451
21
-7.4984552605
62
252
0
LINE
8
Buildings
10
48.2077971840
20
-0.8138490763
11
43.1963434010
21
4.4283290095
62
252
0
LINE
8
Buildings
10
43.1963434010
20
4.4283290095
11
42.9330193819
21
-7.2740687071
62
252
0
LINE
8
Buildings
10
42.9330193819
20
-7.2740687071
11
48.1751974677
21
-2.2626149241
62
252
0
LINE
8
Buildings
10
48.1751974677
20
-2.2626149241
11
48.2077971840
21
-0.8138490763
62
252
0
LINE
8
Buildings
10
53.1805924451
20
-7.4984552605
11
53.4436375204
21
4.1915459011
62
252
0
LINE
8
Buildings
10
53.4436375204
20
4.1915459011
11
48.2077971840
21
-0.8138490763
62
252
0
LINE
8
Buildings
10
48.2077971840
20
-0.8138490763
11
48.1751974677
21
-2.2626149241
62
252
0
LINE
8
Buildings
10
48.1751974677
20
-2.2626149241
11
53.1805924451
21
-7.4984552605
62
252
0
LINE
8
Buildings
10
-13.3633186217
20
-22.0676138980
11
-6.5532974569
21
-22.1252327468
62
252
0
LINE
8
Buildings
10
-6.5532974569
20
-22.1252327468
11
-6.2879606684
21
9.2351498903
62
252
0
LINE
8
Buildings
10
-6.2879606684
20
9.2351498903
11
-13.0979818332
21
9.2927687391
62
252
0
LINE
8
Buildings
10
-13.0979818332
20
9.2927687391
11
-13.3633186217
21
-22.0676138980
62
252
0
LINE
8
Setbacks
10
-2.3635148519
20
-17.2528394109
11
8.8168872513
21
-17.3576732800
62
2
0
LINE
8
Setbacks
10
8.8168872513
20
-17.3576732800
11
8.8417045597
21
-17.3450284670
62
2
0
LINE
8
Setbacks
10
8.8417045597
20
-17.3450284670
11
8.9324788915
21
-17.2715207447
62
2
0
LINE
8
Setbacks
10
8.9324788915
20
-17.2715207447
11
8.9329031735
21
-17.2712291436
62
2
0
LINE
8
Setbacks
10
8.9329031735
20
-17.2712291436
11
8.9333678485
21
-17.2710075054
62
2
0
LINE
8
Setbacks
10
8.9333678485
20
-17.2710075054
11
9.0495087124
21
-17.2264253523
62
2
0
LINE
8
Setbacks
10
9.0495087124
20
-17.2264253523
11
9.1461878866
21
-17.1481358992
62
2
0
LINE
8
Setbacks
10
9.1461878866
20
-17.1481358992
11
9.1466121675
21
-17.1478442984
62
2
0
LINE
8
Setbacks
10
9.1466121675
20
-17.1478442984
11
9.1470768414
21
-17.1476226602
62
2
0
LINE
8
Setbacks
10
9.1470768414
20
-17.1476226602
11
9.2561233564
21
-17.1057636235
62
2
0
LINE
8
Setbacks
10
9.2561233564
20
-17.1057636235
11
9.4061806188
21
-17.0083152736
62
2
0
LINE
8
Setbacks
10
9.4061806188
20
-17.0083152736
11
9.4066330542
21
-17.0080696211
62
2
0
LINE
8
Setbacks
10
9.4066330542
20
-17.0080696211
11
9.5199716405
21
-16.9576080053
62
2
0
LINE
8
Setbacks
10
9.5199716405
20
-16.9576080053
11
9.5204569360
21
-16.9574361532
62
2
0
LINE
8
Setbacks
10
9.5204569360
20
-16.9574361532
11
9.6932836377
21
-16.9111274344
62
2
0
LINE
8
Setbacks
10
9.6932836377
20
-16.9111274344
11
9.7973566441
21
-16.8580995993
62
2
0
LINE
8
Setbacks
10
9.7973566441
20
-16.8580995993
11
9.7978322779
21
-16.8579025853
62
2
0
LINE
8
Setbacks
10
9.7978322779
20
-16.8579025853
11
9.7983328755
21
-16.8577824022
62
2
0
LINE
8
Setbacks
10
9.7983328755
20
-16.8577824022
11
9.9212044873
21
-16.8383213675
62
2
0
LINE
8
Setbacks
10
9.9212044873
20
-16.8383213675
11
10.0320489097
21
-16.7818433629
62
2
0
LINE
8
Setbacks
10
10.0320489097
20
-16.7818433629
11
10.0325245451
21
-16.7816463485
62
2
0
LINE
8
Setbacks
10
10.0325245451
20
-16.7816463485
11
10.0330251444
21
-16.7815261655
62
2
0
LINE
8
Setbacks
10
10.0330251444
20
-16.7815261655
11
10.1483915828
21
-16.7632539928
62
2
0
LINE
8
Setbacks
10
10.1483915828
20
-16.7632539928
11
10.3154302242
21
-16.6991338011
62
2
0
LINE
8
Setbacks
10
10.3154302242
20
-16.6991338011
11
10.3159238457
21
-16.6989875835
62
2
0
LINE
8
Setbacks
10
10.3159238457
20
-16.6989875835
11
10.4372775241
21
-16.6731929632
62
2
0
LINE
8
Setbacks
10
10.4372775241
20
-16.6731929632
11
10.4377879447
21
-16.6731257648
62
2
0
LINE
8
Setbacks
10
10.4377879447
20
-16.6731257648
11
10.6164659040
21
-16.6637615937
62
2
0
LINE
8
Setbacks
10
10.6164659040
20
-16.6637615937
11
10.7292896528
21
-16.6335306308
62
2
0
LINE
8
Setbacks
10
10.7292896528
20
-16.6335306308
11
10.7297958559
21
-16.6334368119
62
2
0
LINE
8
Setbacks
10
10.7297958559
20
-16.6334368119
11
10.7303105034
21
-16.6334233358
62
2
0
LINE
8
Setbacks
10
10.7303105034
20
-16.6334233358
11
10.8545432227
21
-16.6399341976
62
2
0
LINE
8
Setbacks
10
10.8545432227
20
-16.6399341976
11
10.9747079624
21
-16.6077360119
62
2
0
LINE
8
Setbacks
10
10.9747079624
20
-16.6077360119
11
10.9752141681
21
-16.6076421919
62
2
0
LINE
8
Setbacks
10
10.9752141681
20
-16.6076421919
11
10.9757288182
21
-16.6076287155
62
2
0
LINE
8
Setbacks
10
10.9757288182
20
-16.6076287155
11
11.0923736356
21
-16.6137419019
62
2
0
LINE
8
Setbacks
10
11.0923736356
20
-16.6137419019
11
11.2690930939
21
-16.5857522096
62
2
0
LINE
8
Setbacks
10
11.2690930939
20
-16.5857522096
11
11.2696063318
21
-16.5857118168
62
2
0
LINE
8
Setbacks
10
11.2696063318
20
-16.5857118168
11
11.3936709683
21
-16.5857118168
62
2
0
LINE
8
Setbacks
10
11.3936709683
20
-16.5857118168
11
11.3941842061
21
-16.5857522096
62
2
0
LINE
8
Setbacks
10
11.3941842061
20
-16.5857522096
11
11.5709036645
21
-16.6137419019
62
2
0
LINE
8
Setbacks
10
11.5709036645
20
-16.6137419019
11
11.6875484818
21
-16.6076287155
62
2
0
LINE
8
Setbacks
10
11.6875484818
20
-16.6076287155
11
11.6880631320
21
-16.6076421919
62
2
0
LINE
8
Setbacks
10
11.6880631320
20
-16.6076421919
11
11.6885693376
21
-16.6077360119
62
2
0
LINE
8
Setbacks
10
11.6885693376
20
-16.6077360119
11
11.8087340773
21
-16.6399341976
62
2
0
LINE
8
Setbacks
10
11.8087340773
20
-16.6399341976
11
11.9329667967
21
-16.6334233358
62
2
0
LINE
8
Setbacks
10
11.9329667967
20
-16.6334233358
11
11.9334814441
21
-16.6334368119
62
2
0
LINE
8
Setbacks
10
11.9334814441
20
-16.6334368119
11
11.9339876473
21
-16.6335306308
62
2
0
LINE
8
Setbacks
10
11.9339876473
20
-16.6335306308
11
12.0468113959
21
-16.6637615936
62
2
0
LINE
8
Setbacks
10
12.0468113959
20
-16.6637615936
11
12.2254896831
21
-16.6731257648
62
2
0
LINE
8
Setbacks
10
12.2254896831
20
-16.6731257648
11
12.2260001040
21
-16.6731929632
62
2
0
LINE
8
Setbacks
10
12.2260001040
20
-16.6731929632
11
12.3473537824
21
-16.6989875835
62
2
0
LINE
8
Setbacks
10
12.3473537824
20
-16.6989875835
11
12.3478474039
21
-16.6991338011
62
2
0
LINE
8
Setbacks
10
12.3478474039
20
-16.6991338011
11
12.5148860454
21
-16.7632539928
62
2
0
LINE
8
Setbacks
10
12.5148860454
20
-16.7632539928
11
12.6302524837
21
-16.7815261655
62
2
0
LINE
8
Setbacks
10
12.6302524837
20
-16.7815261655
11
12.6307530831
21
-16.7816463485
62
2
0
LINE
8
Setbacks
10
12.6307530831
20
-16.7816463485
11
12.6312287184
21
-16.7818433629
62
2
0
LINE
8
Setbacks
10
12.6312287184
20
-16.7818433629
11
12.7420731409
21
-16.8383213675
62
2
0
LINE
8
Setbacks
10
12.7420731409
20
-16.8383213675
11
12.8649447526
21
-16.8577824022
62
2
0
LINE
8
Setbacks
10
12.8649447526
20
-16.8577824022
11
12.8654453483
21
-16.8579025847
62
2
0
LINE
8
Setbacks
10
12.8654453483
20
-16.8579025847
11
12.8659209803
21
-16.8580995974
62
2
0
LINE
8
Setbacks
10
12.8659209803
20
-16.8580995974
11
12.9699943178
21
-16.9111274346
62
2
0
LINE
8
Setbacks
10
12.9699943178
20
-16.9111274346
11
13.1428203670
21
-16.9574361540
62
2
0
LINE
8
Setbacks
10
13.1428203670
20
-16.9574361540
11
13.1433056563
21
-16.9576080039
62
2
0
LINE
8
Setbacks
10
13.1433056563
20
-16.9576080039
11
13.2566445707
21
-17.0080696197
62
2
0
LINE
8
Setbacks
10
13.2566445707
20
-17.0080696197
11
13.2570970108
21
-17.0083152745
62
2
0
LINE
8
Setbacks
10
13.2570970108
20
-17.0083152745
11
13.4071545998
21
-17.1057639513
62
2
0
LINE
8
Setbacks
10
13.4071545998
20
-17.1057639513
11
13.5162004568
21
-17.1476226595
62
2
0
LINE
8
Setbacks
10
13.5162004568
20
-17.1476226595
11
13.5166651287
21
-17.1478442963
62
2
0
LINE
8
Setbacks
10
13.5166651287
20
-17.1478442963
11
13.5170894082
21
-17.1481358950
62
2
0
LINE
8
Setbacks
10
13.5170894082
20
-17.1481358950
11
13.6137685864
21
-17.2264250246
62
2
0
LINE
8
Setbacks
10
13.6137685864
20
-17.2264250246
11
13.7299097843
21
-17.2710075071
62
2
0
LINE
8
Setbacks
10
13.7299097843
20
-17.2710075071
11
13.7303744568
21
-17.2712291448
62
2
0
LINE
8
Setbacks
10
13.7303744568
20
-17.2712291448
11
13.7307987366
21
-17.2715207447
62
2
0
LINE
8
Setbacks
10
13.7307987366
20
-17.2715207447
11
13.8215730753
21
-17.3450284726
62
2
0
LINE
8
Setbacks
10
13.8215730753
20
-17.3450284726
11
13.9406815176
21
-17.4057169236
62
2
0
LINE
8
Setbacks
10
13.9406815176
20
-17.4057169236
11
48.5621708428
21
-17.7303485703
62
2
0
LINE
8
Setbacks
10
48.5621708428
20
-17.7303485703
11
48.4244980862
21
-11.4019305649
62
2
0
LINE
8
Setbacks
10
48.4244980862
20
-11.4019305649
11
42.8429613578
21
-11.2763364728
62
2
0
LINE
8
Setbacks
10
42.8429613578
20
-11.2763364728
11
42.8424491603
21
-11.2762845448
62
2
0
LINE
8
Setbacks
10
42.8424491603
20
-11.2762845448
11
41.6110980710
21
-11.0527536977
62
2
0
LINE
8
Setbacks
10
41.6110980710
20
-11.0527536977
11
41.6106003022
21
-11.0526222835
62
2
0
LINE
8
Setbacks
10
41.6106003022
20
-11.0526222835
11
41.6101292194
21
-11.0524146189
62
2
0
LINE
8
Setbacks
10
41.6101292194
20
-11.0524146189
11
40.5081196697
21
-10.4593155185
62
2
0
LINE
8
Setbacks
10
40.5081196697
20
-10.4593155185
11
40.5076868731
21
-10.4590367173
62
2
0
LINE
8
Setbacks
10
40.5076868731
20
-10.4590367173
11
40.5073030190
21
-10.4586936443
62
2
0
LINE
8
Setbacks
10
40.5073030190
20
-10.4586936443
11
39.6425073876
21
-9.5540833791
62
2
0
LINE
8
Setbacks
10
39.6425073876
20
-9.5540833791
11
39.6421819276
21
-9.5536844816
62
2
0
LINE
8
Setbacks
10
39.6421819276
20
-9.5536844816
11
39.6419228759
21
-9.5532395820
62
2
0
LINE
8
Setbacks
10
39.6419228759
20
-9.5532395820
11
39.0989933966
21
-8.4256673674
62
2
0
LINE
8
Setbacks
10
39.0989933966
20
-8.4256673674
11
39.0988071321
21
-8.4251874212
62
2
0
LINE
8
Setbacks
10
39.0988071321
20
-8.4251874212
11
39.0986982409
21
-8.4246842458
62
2
0
LINE
8
Setbacks
10
39.0986982409
20
-8.4246842458
11
38.9307802565
21
-7.1845247573
62
2
0
LINE
8
Setbacks
10
38.9307802565
20
-7.1845247573
11
38.9307514199
21
-7.1840107416
62
2
0
LINE
8
Setbacks
10
38.9307514199
20
-7.1840107416
11
39.1980814809
21
4.6964115546
62
2
0
LINE
8
Setbacks
10
39.1980814809
20
4.6964115546
11
39.1981334090
21
4.6969237520
62
2
0
LINE
8
Setbacks
10
39.1981334090
20
4.6969237520
11
39.4216642561
21
5.9282748413
62
2
0
LINE
8
Setbacks
10
39.4216642561
20
5.9282748413
11
39.4217956703
21
5.9287726102
62
2
0
LINE
8
Setbacks
10
39.4217956703
20
5.9287726102
11
39.4220033349
21
5.9292436929
62
2
0
LINE
8
Setbacks
10
39.4220033349
20
5.9292436929
11
40.0151024352
21
7.0312532426
62
2
0
LINE
8
Setbacks
10
40.0151024352
20
7.0312532426
11
40.0153812363
21
7.0316860390
62
2
0
LINE
8
Setbacks
10
40.0153812363
20
7.0316860390
11
40.0157243091
21
7.0320698929
62
2
0
LINE
8
Setbacks
10
40.0157243091
20
7.0320698929
11
40.9203345742
21
7.8968658524
62
2
0
LINE
8
Setbacks
10
40.9203345742
20
7.8968658524
11
40.9207334719
21
7.8971913126
62
2
0
LINE
8
Setbacks
10
40.9207334719
20
7.8971913126
11
40.9211783718
21
7.8974503645
62
2
0
LINE
8
Setbacks
10
40.9211783718
20
7.8974503645
11
42.0487505864
21
8.4403798438
62
2
0
LINE
8
Setbacks
10
42.0487505864
20
8.4403798438
11
42.0492305325
21
8.4405661083
62
2
0
LINE
8
Setbacks
10
42.0492305325
20
8.4405661083
11
42.0497337079
21
8.4406749995
62
2
0
LINE
8
Setbacks
10
42.0497337079
20
8.4406749995
11
43.2898931964
21
8.6085929839
62
2
0
LINE
8
Setbacks
10
43.2898931964
20
8.6085929839
11
43.2904072121
21
8.6086218205
62
2
0
LINE
8
Setbacks
10
43.2904072121
20
8.6086218205
11
47.9914766102
21
8.5028397113
62
2
0
LINE
8
Setbacks
10
47.9914766102
20
8.5028397113
11
47.8656830873
21
14.2852103338
62
2
0
LINE
8
Setbacks
10
47.8656830873
20
14.2852103338
11
-8.2888262636
21
14.7618237128
62
2
0
LINE
8
Setbacks
10
-8.2888262636
20
14.7618237128
11
-8.2955989619
21
13.5377069688
62
2
0
LINE
8
Setbacks
10
-8.2955989619
20
13.5377069688
11
-6.1965634114
21
13.5260935585
62
2
0
LINE
8
Setbacks
10
-6.1965634114
20
13.5260935585
11
-6.1960504056
21
13.5260503268
62
2
0
LINE
8
Setbacks
10
-6.1960504056
20
13.5260503268
11
-4.9610844869
21
13.3234404122
62
2
0
LINE
8
Setbacks
10
-4.9610844869
20
13.3234404122
11
-4.9605845612
21
13.3233174614
62
2
0
LINE
8
Setbacks
10
-4.9605845612
20
13.3233174614
11
-4.9601100241
21
13.3231178187
62
2
0
LINE
8
Setbacks
10
-4.9601100241
20
13.3231178187
11
-3.8481972589
21
12.7487992308
62
2
0
LINE
8
Setbacks
10
-3.8481972589
20
12.7487992308
11
-3.8477597941
21
12.7485278115
62
2
0
LINE
8
Setbacks
10
-3.8477597941
20
12.7485278115
11
-3.8473701747
21
12.7481912992
62
2
0
LINE
8
Setbacks
10
-3.8473701747
20
12.7481912992
11
-2.9673527581
21
11.8583815594
62
2
0
LINE
8
Setbacks
10
-2.9673527581
20
11.8583815594
11
-2.9670205783
21
11.8579882409
62
2
0
LINE
8
Setbacks
10
-2.9670205783
20
11.8579882409
11
-2.9667540167
21
11.8575478005
62
2
0
LINE
8
Setbacks
10
-2.9667540167
20
11.8575478005
11
-2.4047740118
21
10.7393486177
62
2
0
LINE
8
Setbacks
10
-2.4047740118
20
10.7393486177
11
-2.4045796319
21
10.7388719000
62
2
0
LINE
8
Setbacks
10
-2.4045796319
20
10.7388719000
11
-2.4044622202
21
10.7383706436
62
2
0
LINE
8
Setbacks
10
-2.4044622202
20
10.7383706436
11
-2.2155301275
21
9.5012383862
62
2
0
LINE
8
Setbacks
10
-2.2155301275
20
9.5012383862
11
-2.2154925752
21
9.5007249342
62
2
0
LINE
8
Setbacks
10
-2.2154925752
20
9.5007249342
11
-2.3635148519
21
-17.2528394109
62
2
0
LINE
8
Setbacks
10
12.6972557876
20
7.4328686658
11
12.6907449254
21
7.3086359400
62
2
0
LINE
8
Setbacks
10
12.6907449254
20
7.3086359400
11
12.6906777273
21
7.3081255223
62
2
0
LINE
8
Setbacks
10
12.6906777273
20
7.3081255223
11
12.6905315098
21
7.3076319006
62
2
0
LINE
8
Setbacks
10
12.6905315098
20
7.3076319006
11
12.6486724730
21
7.1985853853
62
2
0
LINE
8
Setbacks
10
12.6486724730
20
7.1985853853
11
12.6206827802
21
7.0218655967
62
2
0
LINE
8
Setbacks
10
12.6206827802
20
7.0218655967
11
12.6205625957
21
7.0213649940
62
2
0
LINE
8
Setbacks
10
12.6205625957
20
7.0213649940
11
12.5822243399
21
6.9033725361
62
2
0
LINE
8
Setbacks
10
12.5822243399
20
6.9033725361
11
12.5820273256
21
6.9028969031
62
2
0
LINE
8
Setbacks
10
12.5820273256
20
6.9028969031
11
12.5007983760
21
6.7434764570
62
2
0
LINE
8
Setbacks
10
12.5007983760
20
6.7434764570
11
12.4705670861
21
6.6306510731
62
2
0
LINE
8
Setbacks
10
12.4705670861
20
6.6306510731
11
12.4703952340
21
6.6301657762
62
2
0
LINE
8
Setbacks
10
12.4703952340
20
6.6301657762
11
12.4701495802
21
6.6297133379
62
2
0
LINE
8
Setbacks
10
12.4701495802
20
6.6297133379
11
12.4023945343
21
6.5253797807
62
2
0
LINE
8
Setbacks
10
12.4023945343
20
6.5253797807
11
12.3701966755
21
6.4052153680
62
2
0
LINE
8
Setbacks
10
12.3701966755
20
6.4052153680
11
12.3700248229
21
6.4047300710
62
2
0
LINE
8
Setbacks
10
12.3700248229
20
6.4047300710
11
12.3697791685
21
6.4042776327
62
2
0
LINE
8
Setbacks
10
12.3697791685
20
6.4042776327
11
12.3061625146
21
6.3063168309
62
2
0
LINE
8
Setbacks
10
12.3061625146
20
6.3063168309
11
12.2420426512
21
6.1392785190
62
2
0
LINE
8
Setbacks
10
12.2420426512
20
6.1392785190
11
12.2418210120
21
6.1388138428
62
2
0
LINE
8
Setbacks
10
12.2418210120
20
6.1388138428
11
12.1797885297
21
6.0313705979
62
2
0
LINE
8
Setbacks
10
12.1797885297
20
6.0313705979
11
12.1794969311
21
6.0309463197
62
2
0
LINE
8
Setbacks
10
12.1794969311
20
6.0309463197
11
12.0668983199
21
5.8918986824
62
2
0
LINE
8
Setbacks
10
12.0668983199
20
5.8918986824
11
12.0138695007
21
5.7878237078
62
2
0
LINE
8
Setbacks
10
12.0138695007
20
5.7878237078
11
12.0136005042
21
5.7873847458
62
2
0
LINE
8
Setbacks
10
12.0136005042
20
5.7873847458
11
12.0132661504
21
5.7869932689
62
2
0
LINE
8
Setbacks
10
12.0132661504
20
5.7869932689
11
11.9252992714
21
5.6990267166
62
2
0
LINE
8
Setbacks
10
11.9252992714
20
5.6990267166
11
11.8688215977
21
5.5881826291
62
2
0
LINE
8
Setbacks
10
11.8688215977
20
5.5881826291
11
11.8685526024
21
5.5877436675
62
2
0
LINE
8
Setbacks
10
11.8685526024
20
5.5877436675
11
11.8682182498
21
5.5873521907
62
2
0
LINE
8
Setbacks
10
11.8682182498
20
5.5873521907
11
11.7856241524
21
5.5047580932
62
2
0
LINE
8
Setbacks
10
11.7856241524
20
5.5047580932
11
11.6881764585
21
5.3547018148
62
2
0
LINE
8
Setbacks
10
11.6881764585
20
5.3547018148
11
11.6878630562
21
5.3542933806
62
2
0
LINE
8
Setbacks
10
11.6878630562
20
5.3542933806
11
11.6048476336
21
5.2620952149
62
2
0
LINE
8
Setbacks
10
11.6048476336
20
5.2620952149
11
11.6044741913
21
5.2617408310
62
2
0
LINE
8
Setbacks
10
11.6044741913
20
5.2617408310
11
11.4654252407
21
5.1491412347
62
2
0
LINE
8
Setbacks
10
11.4654252407
20
5.1491412347
11
11.3919178374
21
5.0583672200
62
2
0
LINE
8
Setbacks
10
11.3919178374
20
5.0583672200
11
11.3915634578
21
5.0579937818
62
2
0
LINE
8
Setbacks
10
11.3915634578
20
5.0579937818
11
11.3911550227
21
5.0576803782
62
2
0
LINE
8
Setbacks
10
11.3911550227
20
5.0576803782
11
11.2868221182
21
4.9899256585
62
2
0
LINE
8
Setbacks
10
11.2868221182
20
4.9899256585
11
11.2085320047
21
4.8932454955
62
2
0
LINE
8
Setbacks
10
11.2085320047
20
4.8932454955
11
11.2081776236
21
4.8928720560
62
2
0
LINE
8
Setbacks
10
11.2081776236
20
4.8928720560
11
11.2077691866
21
4.8925586515
62
2
0
LINE
8
Setbacks
10
11.2077691866
20
4.8925586515
11
11.1098080548
21
4.8289419957
62
2
0
LINE
8
Setbacks
10
11.1098080548
20
4.8289419957
11
10.9832910561
21
4.7024249970
62
2
0
LINE
8
Setbacks
10
10.9832910561
20
4.7024249970
11
10.9828995788
21
4.7020906441
62
2
0
LINE
8
Setbacks
10
10.9828995788
20
4.7020906441
11
10.8825291688
21
4.6291674134
62
2
0
LINE
8
Setbacks
10
10.8825291688
20
4.6291674134
11
10.8820902145
21
4.6288984219
62
2
0
LINE
8
Setbacks
10
10.8820902145
20
4.6288984219
11
10.7226691055
21
4.5476691408
62
2
0
LINE
8
Setbacks
10
10.7226691055
20
4.5476691408
11
10.6318947605
21
4.4741617349
62
2
0
LINE
8
Setbacks
10
10.6318947605
20
4.4741617349
11
10.6314704850
21
4.4738701388
62
2
0
LINE
8
Setbacks
10
10.6314704850
20
4.4738701388
11
10.6310058177
21
4.4736485034
62
2
0
LINE
8
Setbacks
10
10.6310058177
20
4.4736485034
11
10.5148659285
21
4.4290663482
62
2
0
LINE
8
Setbacks
10
10.5148659285
20
4.4290663482
11
10.4181857635
21
4.3507765598
62
2
0
LINE
8
Setbacks
10
10.4181857635
20
4.3507765598
11
10.4177614853
21
4.3504849623
62
2
0
LINE
8
Setbacks
10
10.4177614853
20
4.3504849623
11
10.4172968150
21
4.3502633263
62
2
0
LINE
8
Setbacks
10
10.4172968150
20
4.3502633263
11
10.3082493163
21
4.3084039616
62
2
0
LINE
8
Setbacks
10
10.3082493163
20
4.3084039616
11
10.1581930385
21
4.2109562681
62
2
0
LINE
8
Setbacks
10
10.1581930385
20
4.2109562681
11
10.1577406033
21
4.2107106158
62
2
0
LINE
8
Setbacks
10
10.1577406033
20
4.2107106158
11
10.0444020170
21
4.1602490000
62
2
0
LINE
8
Setbacks
10
10.0444020170
20
4.1602490000
11
10.0439167234
21
4.1600771484
62
2
0
LINE
8
Setbacks
10
10.0439167234
20
4.1600771484
11
9.8710916610
21
4.1137687576
62
2
0
LINE
8
Setbacks
10
9.8710916610
20
4.1137687576
11
9.7670173412
21
4.0607402658
62
2
0
LINE
8
Setbacks
10
9.7670173412
20
4.0607402658
11
9.7665417070
21
4.0605432516
62
2
0
LINE
8
Setbacks
10
9.7665417070
20
4.0605432516
11
9.7660411088
21
4.0604230686
62
2
0
LINE
8
Setbacks
10
9.7660411088
20
4.0604230686
11
9.6431691697
21
4.0409620338
62
2
0
LINE
8
Setbacks
10
9.6431691697
20
4.0409620338
11
9.5323247479
21
3.9844840295
62
2
0
LINE
8
Setbacks
10
9.5323247479
20
3.9844840295
11
9.5318491125
21
3.9842870151
62
2
0
LINE
8
Setbacks
10
9.5318491125
20
3.9842870151
11
9.5313485131
21
3.9841668321
62
2
0
LINE
8
Setbacks
10
9.5313485131
20
3.9841668321
11
9.4159820748
21
3.9658946594
62
2
0
LINE
8
Setbacks
10
9.4159820748
20
3.9658946594
11
9.2489434333
21
3.9017744677
62
2
0
LINE
8
Setbacks
10
9.2489434333
20
3.9017744677
11
9.2484498036
21
3.9016282483
62
2
0
LINE
8
Setbacks
10
9.2484498036
20
3.9016282483
11
9.1270961252
21
3.8758339561
62
2
0
LINE
8
Setbacks
10
9.1270961252
20
3.8758339561
11
9.1265857141
21
3.8757667595
62
2
0
LINE
8
Setbacks
10
9.1265857141
20
3.8757667595
11
8.9479090662
21
3.8664025885
62
2
0
LINE
8
Setbacks
10
8.9479090662
20
3.8664025885
11
8.8350840042
21
3.8361712972
62
2
0
LINE
8
Setbacks
10
8.8350840042
20
3.8361712972
11
8.8345778013
21
3.8360774785
62
2
0
LINE
8
Setbacks
10
8.8345778013
20
3.8360774785
11
8.8340631542
21
3.8360640024
62
2
0
LINE
8
Setbacks
10
8.8340631542
20
3.8360640024
11
8.7098304348
21
3.8425748642
62
2
0
LINE
8
Setbacks
10
8.7098304348
20
3.8425748642
11
8.5896656951
21
3.8103766785
62
2
0
LINE
8
Setbacks
10
8.5896656951
20
3.8103766785
11
8.5891594895
21
3.8102828585
62
2
0
LINE
8
Setbacks
10
8.5891594895
20
3.8102828585
11
8.5886448394
21
3.8102693821
62
2
0
LINE
8
Setbacks
10
8.5886448394
20
3.8102693821
11
8.4720000220
21
3.8163825685
62
2
0
LINE
8
Setbacks
10
8.4720000220
20
3.8163825685
11
8.2952805637
21
3.7883928762
62
2
0
LINE
8
Setbacks
10
8.2952805637
20
3.7883928762
11
8.2947673258
21
3.7883524834
62
2
0
LINE
8
Setbacks
10
8.2947673258
20
3.7883524834
11
8.1707026893
21
3.7883524834
62
2
0
LINE
8
Setbacks
10
8.1707026893
20
3.7883524834
11
8.1701894514
21
3.7883928762
62
2
0
LINE
8
Setbacks
10
8.1701894514
20
3.7883928762
11
7.9934699931
21
3.8163825685
62
2
0
LINE
8
Setbacks
10
7.9934699931
20
3.8163825685
11
7.8768251757
21
3.8102693821
62
2
0
LINE
8
Setbacks
10
7.8768251757
20
3.8102693821
11
7.8763105256
21
3.8102828585
62
2
0
LINE
8
Setbacks
10
7.8763105256
20
3.8102828585
11
7.8758043199
21
3.8103766785
62
2
0
LINE
8
Setbacks
10
7.8758043199
20
3.8103766785
11
7.7556395803
21
3.8425748642
62
2
0
LINE
8
Setbacks
10
7.7556395803
20
3.8425748642
11
7.6314068609
21
3.8360640024
62
2
0
LINE
8
Setbacks
10
7.6314068609
20
3.8360640024
11
7.6308922137
21
3.8360774785
62
2
0
LINE
8
Setbacks
10
7.6308922137
20
3.8360774785
11
7.6303860109
21
3.8361712972
62
2
0
LINE
8
Setbacks
10
7.6303860109
20
3.8361712972
11
7.5175609490
21
3.8664025885
62
2
0
LINE
8
Setbacks
10
7.5175609490
20
3.8664025885
11
7.3388839732
21
3.8757667595
62
2
0
LINE
8
Setbacks
10
7.3388839732
20
3.8757667595
11
7.3383735601
21
3.8758339565
62
2
0
LINE
8
Setbacks
10
7.3383735601
20
3.8758339565
11
7.2170202097
21
3.9016282487
62
2
0
LINE
8
Setbacks
10
7.2170202097
20
3.9016282487
11
7.2165265818
21
3.9017744677
62
2
0
LINE
8
Setbacks
10
7.2165265818
20
3.9017744677
11
7.0494879403
21
3.9658946594
62
2
0
LINE
8
Setbacks
10
7.0494879403
20
3.9658946594
11
6.9341215020
21
3.9841668321
62
2
0
LINE
8
Setbacks
10
6.9341215020
20
3.9841668321
11
6.9336209026
21
3.9842870151
62
2
0
LINE
8
Setbacks
10
6.9336209026
20
3.9842870151
11
6.9331452672
21
3.9844840295
62
2
0
LINE
8
Setbacks
10
6.9331452672
20
3.9844840295
11
6.8223008454
21
4.0409620338
62
2
0
LINE
8
Setbacks
10
6.8223008454
20
4.0409620338
11
6.6994289063
21
4.0604230686
62
2
0
LINE
8
Setbacks
10
6.6994289063
20
4.0604230686
11
6.6989283081
21
4.0605432516
62
2
0
LINE
8
Setbacks
10
6.6989283081
20
4.0605432516
11
6.6984526738
21
4.0607402658
62
2
0
LINE
8
Setbacks
10
6.6984526738
20
4.0607402658
11
6.5943783541
21
4.1137687576
62
2
0
LINE
8
Setbacks
10
6.5943783541
20
4.1137687576
11
6.4215532917
21
4.1600771484
62
2
0
LINE
8
Setbacks
10
6.4215532917
20
4.1600771484
11
6.4210680013
21
4.1602489986
62
2
0
LINE
8
Setbacks
10
6.4210680013
20
4.1602489986
11
6.3077290869
21
4.2107106143
62
2
0
LINE
8
Setbacks
10
6.3077290869
20
4.2107106143
11
6.3072766470
21
4.2109562691
62
2
0
LINE
8
Setbacks
10
6.3072766470
20
4.2109562691
11
6.1572200426
21
4.3084042894
62
2
0
LINE
8
Setbacks
10
6.1572200426
20
4.3084042894
11
6.0481732020
21
4.3502633256
62
2
0
LINE
8
Setbacks
10
6.0481732020
20
4.3502633256
11
6.0477085283
21
4.3504849632
62
2
0
LINE
8
Setbacks
10
6.0477085283
20
4.3504849632
11
6.0472842474
21
4.3507765632
62
2
0
LINE
8
Setbacks
10
6.0472842474
20
4.3507765632
11
5.9506044145
21
4.4290663472
62
2
0
LINE
8
Setbacks
10
5.9506044145
20
4.4290663472
11
5.8344638750
21
4.4736485011
62
2
0
LINE
8
Setbacks
10
5.8344638750
20
4.4736485011
11
5.8339992041
21
4.4738701376
62
2
0
LINE
8
Setbacks
10
5.8339992041
20
4.4738701376
11
5.8335749254
21
4.4741617358
62
2
0
LINE
8
Setbacks
10
5.8335749254
20
4.4741617358
11
5.7428002528
21
4.5476694692
62
2
0
LINE
8
Setbacks
10
5.7428002528
20
4.5476694692
11
5.5833798005
21
4.6288984220
62
2
0
LINE
8
Setbacks
10
5.5833798005
20
4.6288984220
11
5.5829408463
21
4.6291674134
62
2
0
LINE
8
Setbacks
10
5.5829408463
20
4.6291674134
11
5.4825704362
21
4.7020906441
62
2
0
LINE
8
Setbacks
10
5.4825704362
20
4.7020906441
11
5.4821789590
21
4.7024249970
62
2
0
LINE
8
Setbacks
10
5.4821789590
20
4.7024249970
11
5.3556619603
21
4.8289419957
62
2
0
LINE
8
Setbacks
10
5.3556619603
20
4.8289419957
11
5.2577008285
21
4.8925586515
62
2
0
LINE
8
Setbacks
10
5.2577008285
20
4.8925586515
11
5.2572923915
21
4.8928720560
62
2
0
LINE
8
Setbacks
10
5.2572923915
20
4.8928720560
11
5.2569380103
21
4.8932454955
62
2
0
LINE
8
Setbacks
10
5.2569380103
20
4.8932454955
11
5.1786478969
21
4.9899256585
62
2
0
LINE
8
Setbacks
10
5.1786478969
20
4.9899256585
11
5.0743149924
21
5.0576803782
62
2
0
LINE
8
Setbacks
10
5.0743149924
20
5.0576803782
11
5.0739065573
21
5.0579937818
62
2
0
LINE
8
Setbacks
10
5.0739065573
20
5.0579937818
11
5.0735521777
21
5.0583672200
62
2
0
LINE
8
Setbacks
10
5.0735521777
20
5.0583672200
11
5.0000447744
21
5.1491412347
62
2
0
LINE
8
Setbacks
10
5.0000447744
20
5.1491412347
11
4.8609958238
21
5.2617408310
62
2
0
LINE
8
Setbacks
10
4.8609958238
20
5.2617408310
11
4.8606223858
21
5.2620952101
62
2
0
LINE
8
Setbacks
10
4.8606223858
20
5.2620952101
11
4.7776066351
21
5.3542933758
62
2
0
LINE
8
Setbacks
10
4.7776066351
20
5.3542933758
11
4.7772932286
21
5.3547018146
62
2
0
LINE
8
Setbacks
10
4.7772932286
20
5.3547018146
11
4.6798448786
21
5.5047590774
62
2
0
LINE
8
Setbacks
10
4.6798448786
20
5.5047590774
11
4.5972517653
21
5.5873521907
62
2
0
LINE
8
Setbacks
10
4.5972517653
20
5.5873521907
11
4.5969174127
21
5.5877436675
62
2
0
LINE
8
Setbacks
10
4.5969174127
20
5.5877436675
11
4.5966484174
21
5.5881826291
62
2
0
LINE
8
Setbacks
10
4.5966484174
20
5.5881826291
11
4.5401707437
21
5.6990267166
62
2
0
LINE
8
Setbacks
10
4.5401707437
20
5.6990267166
11
4.4522038647
21
5.7869932689
62
2
0
LINE
8
Setbacks
10
4.4522038647
20
5.7869932689
11
4.4518695121
21
5.7873847441
62
2
0
LINE
8
Setbacks
10
4.4518695121
20
5.7873847441
11
4.4516005164
21
5.7878237040
62
2
0
LINE
8
Setbacks
10
4.4516005164
20
5.7878237040
11
4.3985720242
21
5.8918976973
62
2
0
LINE
8
Setbacks
10
4.3985720242
20
5.8918976973
11
4.2859727546
21
6.0309463213
62
2
0
LINE
8
Setbacks
10
4.2859727546
20
6.0309463213
11
4.2856811535
21
6.0313706044
62
2
0
LINE
8
Setbacks
10
4.2856811535
20
6.0313706044
11
4.2236489993
21
6.1388138493
62
2
0
LINE
8
Setbacks
10
4.2236489993
20
6.1388138493
11
4.2234273639
21
6.1392785190
62
2
0
LINE
8
Setbacks
10
4.2234273639
20
6.1392785190
11
4.1593075005
21
6.3063168309
62
2
0
LINE
8
Setbacks
10
4.1593075005
20
6.3063168309
11
4.0956908465
21
6.4042776327
62
2
0
LINE
8
Setbacks
10
4.0956908465
20
6.4042776327
11
4.0954451922
21
6.4047300710
62
2
0
LINE
8
Setbacks
10
4.0954451922
20
6.4047300710
11
4.0952733396
21
6.4052153680
62
2
0
LINE
8
Setbacks
10
4.0952733396
20
6.4052153680
11
4.0630754808
21
6.5253797807
62
2
0
LINE
8
Setbacks
10
4.0630754808
20
6.5253797807
11
3.9953204349
21
6.6297133379
62
2
0
LINE
8
Setbacks
10
3.9953204349
20
6.6297133379
11
3.9950747830
21
6.6301657718
62
2
0
LINE
8
Setbacks
10
3.9950747830
20
6.6301657718
11
3.9949029314
21
6.6306510639
62
2
0
LINE
8
Setbacks
10
3.9949029314
20
6.6306510639
11
3.9646716405
21
6.7434751430
62
2
0
LINE
8
Setbacks
10
3.9646716405
20
6.7434751430
11
3.8834423589
21
6.9028969080
62
2
0
LINE
8
Setbacks
10
3.8834423589
20
6.9028969080
11
3.8832453445
21
6.9033725440
62
2
0
LINE
8
Setbacks
10
3.8832453445
20
6.9033725440
11
3.8449074168
21
7.0213650018
62
2
0
LINE
8
Setbacks
10
3.8449074168
20
7.0213650018
11
3.8447872349
21
7.0218655967
62
2
0
LINE
8
Setbacks
10
3.8447872349
20
7.0218655967
11
3.8167975421
21
7.1985853853
62
2
0
LINE
8
Setbacks
10
3.8167975421
20
7.1985853853
11
3.7749385052
21
7.3076319006
62
2
0
LINE
8
Setbacks
10
3.7749385052
20
7.3076319006
11
3.7747922877
21
7.3081255223
62
2
0
LINE
8
Setbacks
10
3.7747922877
20
7.3081255223
11
3.7747250896
21
7.3086359400
62
2
0
LINE
8
Setbacks
10
3.7747250896
20
7.3086359400
11
3.7682142275
21
7.4328686658
62
2
0
LINE
8
Setbacks
10
3.7682142275
20
7.4328686658
11
3.7236320718
21
7.5490095365
62
2
0
LINE
8
Setbacks
10
3.7236320718
20
7.5490095365
11
3.7234858553
21
7.5495031563
62
2
0
LINE
8
Setbacks
10
3.7234858553
20
7.5495031563
11
3.7234186576
21
7.5500135721
62
2
0
LINE
8
Setbacks
10
3.7234186576
20
7.5500135721
11
3.7173054710
21
7.6666580660
62
2
0
LINE
8
Setbacks
10
3.7173054710
20
7.6666580660
11
3.6709970794
21
7.8394837862
62
2
0
LINE
8
Setbacks
10
3.6709970794
20
7.8394837862
11
3.6709032605
21
7.8399899902
62
2
0
LINE
8
Setbacks
10
3.6709032605
20
7.8399899902
11
3.6579350842
21
7.9633751648
62
2
0
LINE
8
Setbacks
10
3.6579350842
20
7.9633751648
11
3.6579216082
21
7.9638898108
62
2
0
LINE
8
Setbacks
10
3.6579216082
20
7.9638898108
11
3.6672857789
21
8.1425664531
62
2
0
LINE
8
Setbacks
10
3.6672857789
20
8.1425664531
11
3.6490132790
21
8.2579335461
62
2
0
LINE
8
Setbacks
10
3.6490132790
20
8.2579335461
11
3.6489728858
21
8.2584467849
62
2
0
LINE
8
Setbacks
10
3.6489728858
20
8.2584467849
11
3.6490132785
21
8.2589600238
62
2
0
LINE
8
Setbacks
10
3.6490132785
20
8.2589600238
11
3.6684743130
21
8.3818319611
62
2
0
LINE
8
Setbacks
10
3.6684743130
20
8.3818319611
11
3.6490132785
21
8.5047038984
62
2
0
LINE
8
Setbacks
10
3.6490132785
20
8.5047038984
11
3.6489728858
21
8.5052171373
62
2
0
LINE
8
Setbacks
10
3.6489728858
20
8.5052171373
11
3.6490132790
21
8.5057303762
62
2
0
LINE
8
Setbacks
10
3.6490132790
20
8.5057303762
11
3.6672857789
21
8.6210974692
62
2
0
LINE
8
Setbacks
10
3.6672857789
20
8.6210974692
11
3.6579216082
21
8.7997741115
62
2
0
LINE
8
Setbacks
10
3.6579216082
20
8.7997741115
11
3.6579350842
21
8.8002887575
62
2
0
LINE
8
Setbacks
10
3.6579350842
20
8.8002887575
11
3.6709032605
21
8.9236739320
62
2
0
LINE
8
Setbacks
10
3.6709032605
20
8.9236739320
11
3.6709970794
21
8.9241801360
62
2
0
LINE
8
Setbacks
10
3.6709970794
20
8.9241801360
11
3.7173054710
21
9.0970058563
62
2
0
LINE
8
Setbacks
10
3.7173054710
20
9.0970058563
11
3.7234186576
21
9.2136503502
62
2
0
LINE
8
Setbacks
10
3.7234186576
20
9.2136503502
11
3.7234858553
21
9.2141607660
62
2
0
LINE
8
Setbacks
10
3.7234858553
20
9.2141607660
11
3.7236320718
21
9.2146543858
62
2
0
LINE
8
Setbacks
10
3.7236320718
20
9.2146543858
11
3.7682142275
21
9.3307952564
62
2
0
LINE
8
Setbacks
10
3.7682142275
20
9.3307952564
11
3.7747250896
21
9.4550279822
62
2
0
LINE
8
Setbacks
10
3.7747250896
20
9.4550279822
11
3.7747922877
21
9.4555384000
62
2
0
LINE
8
Setbacks
10
3.7747922877
20
9.4555384000
11
3.7749385052
21
9.4560320216
62
2
0
LINE
8
Setbacks
10
3.7749385052
20
9.4560320216
11
3.8167975421
21
9.5650785370
62
2
0
LINE
8
Setbacks
10
3.8167975421
20
9.5650785370
11
3.8447872349
21
9.7417983256
62
2
0
LINE
8
Setbacks
10
3.8447872349
20
9.7417983256
11
3.8449074168
21
9.7422989205
62
2
0
LINE
8
Setbacks
10
3.8449074168
20
9.7422989205
11
3.8832453445
21
9.8602913783
62
2
0
LINE
8
Setbacks
10
3.8832453445
20
9.8602913783
11
3.8834423589
21
9.8607670143
62
2
0
LINE
8
Setbacks
10
3.8834423589
20
9.8607670143
11
3.9646716405
21
10.0201887792
62
2
0
LINE
8
Setbacks
10
3.9646716405
20
10.0201887792
11
3.9949029314
21
10.1330128584
62
2
0
LINE
8
Setbacks
10
3.9949029314
20
10.1330128584
11
3.9950747830
21
10.1334981504
62
2
0
LINE
8
Setbacks
10
3.9950747830
20
10.1334981504
11
3.9953204349
21
10.1339505844
62
2
0
LINE
8
Setbacks
10
3.9953204349
20
10.1339505844
11
4.0630754808
21
10.2382841415
62
2
0
LINE
8
Setbacks
10
4.0630754808
20
10.2382841415
11
4.0952733396
21
10.3584485543
62
2
0
LINE
8
Setbacks
10
4.0952733396
20
10.3584485543
11
4.0954451922
21
10.3589338513
62
2
0
LINE
8
Setbacks
10
4.0954451922
20
10.3589338513
11
4.0956908465
21
10.3593862896
62
2
0
LINE
8
Setbacks
10
4.0956908465
20
10.3593862896
11
4.1593075005
21
10.4573470914
62
2
0
LINE
8
Setbacks
10
4.1593075005
20
10.4573470914
11
4.2234273639
21
10.6243854032
62
2
0
LINE
8
Setbacks
10
4.2234273639
20
10.6243854032
11
4.2236489993
21
10.6248500729
62
2
0
LINE
8
Setbacks
10
4.2236489993
20
10.6248500729
11
4.2856811535
21
10.7322933178
62
2
0
LINE
8
Setbacks
10
4.2856811535
20
10.7322933178
11
4.2859727576
21
10.7327176046
62
2
0
LINE
8
Setbacks
10
4.2859727576
20
10.7327176046
11
4.3985723507
21
10.8717662238
62
2
0
LINE
8
Setbacks
10
4.3985723507
20
10.8717662238
11
4.4516005127
21
10.9758402110
62
2
0
LINE
8
Setbacks
10
4.4516005127
20
10.9758402110
11
4.4518695097
21
10.9762791749
62
2
0
LINE
8
Setbacks
10
4.4518695097
20
10.9762791749
11
4.4522038647
21
10.9766706534
62
2
0
LINE
8
Setbacks
10
4.4522038647
20
10.9766706534
11
4.5401707437
21
11.0646372057
62
2
0
LINE
8
Setbacks
10
4.5401707437
20
11.0646372057
11
4.5966484174
21
11.1754812932
62
2
0
LINE
8
Setbacks
10
4.5966484174
20
11.1754812932
11
4.5969174127
21
11.1759202548
62
2
0
LINE
8
Setbacks
10
4.5969174127
20
11.1759202548
11
4.5972517653
21
11.1763117316
62
2
0
LINE
8
Setbacks
10
4.5972517653
20
11.1763117316
11
4.6798448786
21
11.2589048449
62
2
0
LINE
8
Setbacks
10
4.6798448786
20
11.2589048449
11
4.7772932286
21
11.4089621076
62
2
0
LINE
8
Setbacks
10
4.7772932286
20
11.4089621076
11
4.7776066351
21
11.4093705464
62
2
0
LINE
8
Setbacks
10
4.7776066351
20
11.4093705464
11
4.8606223858
21
11.5015687121
62
2
0
LINE
8
Setbacks
10
4.8606223858
20
11.5015687121
11
4.8609958216
21
11.5019230894
62
2
0
LINE
8
Setbacks
10
4.8609958216
20
11.5019230894
11
5.0000441183
21
11.6145223592
62
2
0
LINE
8
Setbacks
10
5.0000441183
20
11.6145223592
11
5.0735521794
21
11.7052970324
62
2
0
LINE
8
Setbacks
10
5.0735521794
20
11.7052970324
11
5.0739065601
21
11.7056704710
62
2
0
LINE
8
Setbacks
10
5.0739065601
20
11.7056704710
11
5.0743149963
21
11.7059838747
62
2
0
LINE
8
Setbacks
10
5.0743149963
20
11.7059838747
11
5.1786482259
21
11.7737385933
62
2
0
LINE
8
Setbacks
10
5.1786482259
20
11.7737385933
11
5.2569380095
21
11.8704184257
62
2
0
LINE
8
Setbacks
10
5.2569380095
20
11.8704184257
11
5.2572923911
21
11.8707918659
62
2
0
LINE
8
Setbacks
10
5.2572923911
20
11.8707918659
11
5.2577008285
21
11.8711052708
62
2
0
LINE
8
Setbacks
10
5.2577008285
20
11.8711052708
11
5.3556619603
21
11.9347219266
62
2
0
LINE
8
Setbacks
10
5.3556619603
20
11.9347219266
11
5.4821789590
21
12.0612389253
62
2
0
LINE
8
Setbacks
10
5.4821789590
20
12.0612389253
11
5.4825704362
21
12.0615732781
62
2
0
LINE
8
Setbacks
10
5.4825704362
20
12.0615732781
11
5.5829408463
21
12.1344965088
62
2
0
LINE
8
Setbacks
10
5.5829408463
20
12.1344965088
11
5.5833798005
21
12.1347655003
62
2
0
LINE
8
Setbacks
10
5.5833798005
20
12.1347655003
11
5.7428002528
21
12.2159944531
62
2
0
LINE
8
Setbacks
10
5.7428002528
20
12.2159944531
11
5.8335749254
21
12.2895021865
62
2
0
LINE
8
Setbacks
10
5.8335749254
20
12.2895021865
11
5.8339992041
21
12.2897937846
62
2
0
LINE
8
Setbacks
10
5.8339992041
20
12.2897937846
11
5.8344638750
21
12.2900154211
62
2
0
LINE
8
Setbacks
10
5.8344638750
20
12.2900154211
11
5.9506044145
21
12.3345975751
62
2
0
LINE
8
Setbacks
10
5.9506044145
20
12.3345975751
11
6.0472842474
21
12.4128873590
62
2
0
LINE
8
Setbacks
10
6.0472842474
20
12.4128873590
11
6.0477085283
21
12.4131789591
62
2
0
LINE
8
Setbacks
10
6.0477085283
20
12.4131789591
11
6.0481732020
21
12.4134005966
62
2
0
LINE
8
Setbacks
10
6.0481732020
20
12.4134005966
11
6.1572200426
21
12.4552596328
62
2
0
LINE
8
Setbacks
10
6.1572200426
20
12.4552596328
11
6.3072766470
21
12.5527076532
62
2
0
LINE
8
Setbacks
10
6.3072766470
20
12.5527076532
11
6.3077290797
21
12.5529533047
62
2
0
LINE
8
Setbacks
10
6.3077290797
20
12.5529533047
11
6.4210679940
21
12.6034152486
62
2
0
LINE
8
Setbacks
10
6.4210679940
20
12.6034152486
11
6.4215532906
21
12.6035871017
62
2
0
LINE
8
Setbacks
10
6.4215532906
20
12.6035871017
11
6.5943793397
21
12.6498958211
62
2
0
LINE
8
Setbacks
10
6.5943793397
20
12.6498958211
11
6.6984526773
21
12.7029236583
62
2
0
LINE
8
Setbacks
10
6.6984526773
20
12.7029236583
11
6.6989283099
21
12.7031206712
62
2
0
LINE
8
Setbacks
10
6.6989283099
20
12.7031206712
11
6.6994289063
21
12.7032408537
62
2
0
LINE
8
Setbacks
10
6.6994289063
20
12.7032408537
11
6.8223008454
21
12.7227018885
62
2
0
LINE
8
Setbacks
10
6.8223008454
20
12.7227018885
11
6.9331452672
21
12.7791798928
62
2
0
LINE
8
Setbacks
10
6.9331452672
20
12.7791798928
11
6.9336209026
21
12.7793769072
62
2
0
LINE
8
Setbacks
10
6.9336209026
20
12.7793769072
11
6.9341215020
21
12.7794970902
62
2
0
LINE
8
Setbacks
10
6.9341215020
20
12.7794970902
11
7.0494879403
21
12.7977692629
62
2
0
LINE
8
Setbacks
10
7.0494879403
20
12.7977692629
11
7.2165265818
21
12.8618894546
62
2
0
LINE
8
Setbacks
10
7.2165265818
20
12.8618894546
11
7.2170202014
21
12.8620356718
62
2
0
LINE
8
Setbacks
10
7.2170202014
20
12.8620356718
11
7.3383735518
21
12.8878302921
62
2
0
LINE
8
Setbacks
10
7.3383735518
20
12.8878302921
11
7.3388839744
21
12.8878974909
62
2
0
LINE
8
Setbacks
10
7.3388839744
20
12.8878974909
11
7.5175622617
21
12.8972616620
62
2
0
LINE
8
Setbacks
10
7.5175622617
20
12.8972616620
11
7.6303860103
21
12.9274926249
62
2
0
LINE
8
Setbacks
10
7.6303860103
20
12.9274926249
11
7.6308922134
21
12.9275864438
62
2
0
LINE
8
Setbacks
10
7.6308922134
20
12.9275864438
11
7.6314068609
21
12.9275999199
62
2
0
LINE
8
Setbacks
10
7.6314068609
20
12.9275999199
11
7.7556395803
21
12.9210890581
62
2
0
LINE
8
Setbacks
10
7.7556395803
20
12.9210890581
11
7.8758043199
21
12.9532872437
62
2
0
LINE
8
Setbacks
10
7.8758043199
20
12.9532872437
11
7.8763105256
21
12.9533810637
62
2
0
LINE
8
Setbacks
10
7.8763105256
20
12.9533810637
11
7.8768251757
21
12.9533945401
62
2
0
LINE
8
Setbacks
10
7.8768251757
20
12.9533945401
11
7.9934699931
21
12.9472813537
62
2
0
LINE
8
Setbacks
10
7.9934699931
20
12.9472813537
11
8.1701894514
21
12.9752710460
62
2
0
LINE
8
Setbacks
10
8.1701894514
20
12.9752710460
11
8.1707026893
21
12.9753114388
62
2
0
LINE
8
Setbacks
10
8.1707026893
20
12.9753114388
11
8.2947673258
21
12.9753114388
62
2
0
LINE
8
Setbacks
10
8.2947673258
20
12.9753114388
11
8.2952805637
21
12.9752710460
62
2
0
LINE
8
Setbacks
10
8.2952805637
20
12.9752710460
11
8.4720000220
21
12.9472813537
62
2
0
LINE
8
Setbacks
10
8.4720000220
20
12.9472813537
11
8.5886448394
21
12.9533945401
62
2
0
LINE
8
Setbacks
10
8.5886448394
20
12.9533945401
11
8.5891594895
21
12.9533810637
62
2
0
LINE
8
Setbacks
10
8.5891594895
20
12.9533810637
11
8.5896656951
21
12.9532872437
62
2
0
LINE
8
Setbacks
10
8.5896656951
20
12.9532872437
11
8.7098304348
21
12.9210890581
62
2
0
LINE
8
Setbacks
10
8.7098304348
20
12.9210890581
11
8.8340631542
21
12.9275999199
62
2
0
LINE
8
Setbacks
10
8.8340631542
20
12.9275999199
11
8.8345778017
21
12.9275864438
62
2
0
LINE
8
Setbacks
10
8.8345778017
20
12.9275864438
11
8.8350840048
21
12.9274926249
62
2
0
LINE
8
Setbacks
10
8.8350840048
20
12.9274926249
11
8.9479077536
21
12.8972616620
62
2
0
LINE
8
Setbacks
10
8.9479077536
20
12.8972616620
11
9.1265857129
21
12.8878974909
62
2
0
LINE
8
Setbacks
10
9.1265857129
20
12.8878974909
11
9.1270961335
21
12.8878302925
62
2
0
LINE
8
Setbacks
10
9.1270961335
20
12.8878302925
11
9.2484498119
21
12.8620356722
62
2
0
LINE
8
Setbacks
10
9.2484498119
20
12.8620356722
11
9.2489434333
21
12.8618894546
62
2
0
LINE
8
Setbacks
10
9.2489434333
20
12.8618894546
11
9.4159820748
21
12.7977692629
62
2
0
LINE
8
Setbacks
10
9.4159820748
20
12.7977692629
11
9.5313485131
21
12.7794970902
62
2
0
LINE
8
Setbacks
10
9.5313485131
20
12.7794970902
11
9.5318491125
21
12.7793769072
62
2
0
LINE
8
Setbacks
10
9.5318491125
20
12.7793769072
11
9.5323247479
21
12.7791798928
62
2
0
LINE
8
Setbacks
10
9.5323247479
20
12.7791798928
11
9.6431691697
21
12.7227018885
62
2
0
LINE
8
Setbacks
10
9.6431691697
20
12.7227018885
11
9.7660411088
21
12.7032408537
62
2
0
LINE
8
Setbacks
10
9.7660411088
20
12.7032408537
11
9.7665417052
21
12.7031206712
62
2
0
LINE
8
Setbacks
10
9.7665417052
20
12.7031206712
11
9.7670173378
21
12.7029236583
62
2
0
LINE
8
Setbacks
10
9.7670173378
20
12.7029236583
11
9.8710906754
21
12.6498958211
62
2
0
LINE
8
Setbacks
10
9.8710906754
20
12.6498958211
11
10.0439167245
21
12.6035871017
62
2
0
LINE
8
Setbacks
10
10.0439167245
20
12.6035871017
11
10.0444020243
21
12.6034152471
62
2
0
LINE
8
Setbacks
10
10.0444020243
20
12.6034152471
11
10.1577406106
21
12.5529533033
62
2
0
LINE
8
Setbacks
10
10.1577406106
20
12.5529533033
11
10.1581930385
21
12.5527076541
62
2
0
LINE
8
Setbacks
10
10.1581930385
20
12.5527076541
11
10.3082493163
21
12.4552599607
62
2
0
LINE
8
Setbacks
10
10.3082493163
20
12.4552599607
11
10.4172968150
21
12.4134005959
62
2
0
LINE
8
Setbacks
10
10.4172968150
20
12.4134005959
11
10.4177614882
21
12.4131789583
62
2
0
LINE
8
Setbacks
10
10.4177614882
20
12.4131789583
11
10.4181857687
21
12.4128873582
62
2
0
LINE
8
Setbacks
10
10.4181857687
20
12.4128873582
11
10.5148659285
21
12.3345972474
62
2
0
LINE
8
Setbacks
10
10.5148659285
20
12.3345972474
11
10.6310058102
21
12.2900154218
62
2
0
LINE
8
Setbacks
10
10.6310058102
20
12.2900154218
11
10.6314704815
21
12.2897937855
62
2
0
LINE
8
Setbacks
10
10.6314704815
20
12.2897937855
11
10.6318947605
21
12.2895021874
62
2
0
LINE
8
Setbacks
10
10.6318947605
20
12.2895021874
11
10.7226691055
21
12.2159947815
62
2
0
LINE
8
Setbacks
10
10.7226691055
20
12.2159947815
11
10.8820902145
21
12.1347655003
62
2
0
LINE
8
Setbacks
10
10.8820902145
20
12.1347655003
11
10.8825291688
21
12.1344965088
62
2
0
LINE
8
Setbacks
10
10.8825291688
20
12.1344965088
11
10.9828995788
21
12.0615732781
62
2
0
LINE
8
Setbacks
10
10.9828995788
20
12.0615732781
11
10.9832910561
21
12.0612389253
62
2
0
LINE
8
Setbacks
10
10.9832910561
20
12.0612389253
11
11.1098080548
21
11.9347219266
62
2
0
LINE
8
Setbacks
10
11.1098080548
20
11.9347219266
11
11.2077691866
21
11.8711052708
62
2
0
LINE
8
Setbacks
10
11.2077691866
20
11.8711052708
11
11.2081776240
21
11.8707918659
62
2
0
LINE
8
Setbacks
10
11.2081776240
20
11.8707918659
11
11.2085320055
21
11.8704184257
62
2
0
LINE
8
Setbacks
10
11.2085320055
20
11.8704184257
11
11.2868217892
21
11.7737385933
62
2
0
LINE
8
Setbacks
10
11.2868217892
20
11.7737385933
11
11.3911550188
21
11.7059838747
62
2
0
LINE
8
Setbacks
10
11.3911550188
20
11.7059838747
11
11.3915634550
21
11.7056704710
62
2
0
LINE
8
Setbacks
10
11.3915634550
20
11.7056704710
11
11.3919178357
21
11.7052970324
62
2
0
LINE
8
Setbacks
10
11.3919178357
20
11.7052970324
11
11.4654258967
21
11.6145223592
62
2
0
LINE
8
Setbacks
10
11.4654258967
20
11.6145223592
11
11.6044741935
21
11.5019230894
62
2
0
LINE
8
Setbacks
10
11.6044741935
20
11.5019230894
11
11.6048476336
21
11.5015687073
62
2
0
LINE
8
Setbacks
10
11.6048476336
20
11.5015687073
11
11.6878630562
21
11.4093705416
62
2
0
LINE
8
Setbacks
10
11.6878630562
20
11.4093705416
11
11.6881764585
21
11.4089621074
62
2
0
LINE
8
Setbacks
10
11.6881764585
20
11.4089621074
11
11.7856241524
21
11.2589058290
62
2
0
LINE
8
Setbacks
10
11.7856241524
20
11.2589058290
11
11.8682182498
21
11.1763117316
62
2
0
LINE
8
Setbacks
10
11.8682182498
20
11.1763117316
11
11.8685526024
21
11.1759202548
62
2
0
LINE
8
Setbacks
10
11.8685526024
20
11.1759202548
11
11.8688215977
21
11.1754812932
62
2
0
LINE
8
Setbacks
10
11.8688215977
20
11.1754812932
11
11.9252992714
21
11.0646372057
62
2
0
LINE
8
Setbacks
10
11.9252992714
20
11.0646372057
11
12.0132661504
21
10.9766706534
62
2
0
LINE
8
Setbacks
10
12.0132661504
20
10.9766706534
11
12.0136005030
21
10.9762791781
62
2
0
LINE
8
Setbacks
10
12.0136005030
20
10.9762791781
11
12.0138694988
21
10.9758402181
62
2
0
LINE
8
Setbacks
10
12.0138694988
20
10.9758402181
11
12.0668983195
21
10.8717655679
62
2
0
LINE
8
Setbacks
10
12.0668983195
20
10.8717655679
11
12.1794969335
21
10.7327175996
62
2
0
LINE
8
Setbacks
10
12.1794969335
20
10.7327175996
11
12.1797885297
21
10.7322933243
62
2
0
LINE
8
Setbacks
10
12.1797885297
20
10.7322933243
11
12.2418210120
21
10.6248500794
62
2
0
LINE
8
Setbacks
10
12.2418210120
20
10.6248500794
11
12.2420426512
21
10.6243854032
62
2
0
LINE
8
Setbacks
10
12.2420426512
20
10.6243854032
11
12.3061625146
21
10.4573470914
62
2
0
LINE
8
Setbacks
10
12.3061625146
20
10.4573470914
11
12.3697791685
21
10.3593862896
62
2
0
LINE
8
Setbacks
10
12.3697791685
20
10.3593862896
11
12.3700248229
21
10.3589338513
62
2
0
LINE
8
Setbacks
10
12.3700248229
20
10.3589338513
11
12.3701966755
21
10.3584485543
62
2
0
LINE
8
Setbacks
10
12.3701966755
20
10.3584485543
11
12.4023945343
21
10.2382841415
62
2
0
LINE
8
Setbacks
10
12.4023945343
20
10.2382841415
11
12.4701495802
21
10.1339505844
62
2
0
LINE
8
Setbacks
10
12.4701495802
20
10.1339505844
11
12.4703952340
21
10.1334981461
62
2
0
LINE
8
Setbacks
10
12.4703952340
20
10.1334981461
11
12.4705670861
21
10.1330128492
62
2
0
LINE
8
Setbacks
10
12.4705670861
20
10.1330128492
11
12.5007983760
21
10.0201874653
62
2
0
LINE
8
Setbacks
10
12.5007983760
20
10.0201874653
11
12.5820273256
21
9.8607670192
62
2
0
LINE
8
Setbacks
10
12.5820273256
20
9.8607670192
11
12.5822243399
21
9.8602913861
62
2
0
LINE
8
Setbacks
10
12.5822243399
20
9.8602913861
11
12.6205625957
21
9.7422989283
62
2
0
LINE
8
Setbacks
10
12.6205625957
20
9.7422989283
11
12.6206827802
21
9.7417983256
62
2
0
LINE
8
Setbacks
10
12.6206827802
20
9.7417983256
11
12.6486724730
21
9.5650785370
62
2
0
LINE
8
Setbacks
10
12.6486724730
20
9.5650785370
11
12.6905315098
21
9.4560320216
62
2
0
LINE
8
Setbacks
10
12.6905315098
20
9.4560320216
11
12.6906777273
21
9.4555384000
62
2
0
LINE
8
Setbacks
10
12.6906777273
20
9.4555384000
11
12.6907449254
21
9.4550279822
62
2
0
LINE
8
Setbacks
10
12.6907449254
20
9.4550279822
11
12.6972557876
21
9.3307952564
62
2
0
LINE
8
Setbacks
10
12.6972557876
20
9.3307952564
11
12.7418379432
21
9.2146543858
62
2
0
LINE
8
Setbacks
10
12.7418379432
20
9.2146543858
11
12.7419841598
21
9.2141607660
62
2
0
LINE
8
Setbacks
10
12.7419841598
20
9.2141607660
11
12.7420513575
21
9.2136503502
62
2
0
LINE
8
Setbacks
10
12.7420513575
20
9.2136503502
11
12.7481645441
21
9.0970058563
62
2
0
LINE
8
Setbacks
10
12.7481645441
20
9.0970058563
11
12.7944729357
21
8.9241801360
62
2
0
LINE
8
Setbacks
10
12.7944729357
20
8.9241801360
11
12.7945667546
21
8.9236739320
62
2
0
LINE
8
Setbacks
10
12.7945667546
20
8.9236739320
11
12.8075349308
21
8.8002887575
62
2
0
LINE
8
Setbacks
10
12.8075349308
20
8.8002887575
11
12.8075484069
21
8.7997741115
62
2
0
LINE
8
Setbacks
10
12.8075484069
20
8.7997741115
11
12.7981842362
21
8.6210974692
62
2
0
LINE
8
Setbacks
10
12.7981842362
20
8.6210974692
11
12.8164567361
21
8.5057303762
62
2
0
LINE
8
Setbacks
10
12.8164567361
20
8.5057303762
11
12.8164971293
21
8.5052171373
62
2
0
LINE
8
Setbacks
10
12.8164971293
20
8.5052171373
11
12.8164567366
21
8.5047038984
62
2
0
LINE
8
Setbacks
10
12.8164567366
20
8.5047038984
11
12.7969957020
21
8.3818319611
62
2
0
LINE
8
Setbacks
10
12.7969957020
20
8.3818319611
11
12.8164567366
21
8.2589600238
62
2
0
LINE
8
Setbacks
10
12.8164567366
20
8.2589600238
11
12.8164971293
21
8.2584467849
62
2
0
LINE
8
Setbacks
10
12.8164971293
20
8.2584467849
11
12.8164567361
21
8.2579335461
62
2
0
LINE
8
Setbacks
10
12.8164567361
20
8.2579335461
11
12.7981842362
21
8.1425664531
62
2
0
LINE
8
Setbacks
10
12.7981842362
20
8.1425664531
11
12.8075484069
21
7.9638898108
62
2
0
LINE
8
Setbacks
10
12.8075484069
20
7.9638898108
11
12.8075349308
21
7.9633751648
62
2
0
LINE
8
Setbacks
10
12.8075349308
20
7.9633751648
11
12.7945667546
21
7.8399899902
62
2
0
LINE
8
Setbacks
10
12.7945667546
20
7.8399899902
11
12.7944729357
21
7.8394837862
62
2
0
LINE
8
Setbacks
10
12.7944729357
20
7.8394837862
11
12.7481645441
21
7.6666580660
62
2
0
LINE
8
Setbacks
10
12.7481645441
20
7.6666580660
11
12.7420513575
21
7.5500135721
62
2
0
LINE
8
Setbacks
10
12.7420513575
20
7.5500135721
11
12.7419841598
21
7.5495031563
62
2
0
LINE
8
Setbacks
10
12.7419841598
20
7.5495031563
11
12.7418379432
21
7.5490095365
62
2
0
LINE
8
Setbacks
10
12.7418379432
20
7.5490095365
11
12.6972557876
21
7.4328686658
62
2
0
CIRCLE
8
Obstructions
10
8.2327349740
20
8.3818320041
40
0.5934494403
62
252
0
CIRCLE
8
Obstructions
10
11.3316387465
20
-21.1791912004
40
0.5934494403
62
252
0
CIRCLE
8
Obstructions
10
-1.7238742373
20
-22.5670326661
40
0.5934494403
62
252
0
ENDSEC
0
EOF