999
Design created by Aurora
0
SECTION
2
HEADER
9
$ACADVER
1
AC1009
9
$INSUNITS
70
2
0
ENDSEC
0
SECTION
2
TABLES
0
TABLE
2
LTYPE
100
AcDbLinetypeTableRecord
2
LTYPE
0
LTYPE
2
DASHED
70
0
3
dashed line
72
65
73
2
40
4.0
49
2.0
49
-2.0
0
ENDTAB
0
TABLE
2
LAYER
70
4
0
LAYER
100
AcDbSymbolTable
100
AcDbLayerTable
2
Obstructions
70
0
62
7
6
CONTINUOUS
0
LAYER
100
AcDbSymbolTable
100
AcDbLayerTable
2
Setbacks
70
0
62
7
6
CONTINUOUS
0
LAYER
100
AcDbSymbolTable
100
AcDbLayerTable
2
Modules
70
0
62
7
6
CONTINUOUS
0
LAYER
100
AcDbSymbolTable
100
AcDbLayerTable
2
Buildings
70
0
62
7
6
CONTINUOUS
0
ENDTAB
0
ENDSEC
0
SECTION
2
ENTITIES
0
LINE
8
Modules
10
-3.2682090016
20
-11.5163860885
11
-3.2868895256
21
-14.8927259298
62
254
0
LINE
8
Modules
10
-3.2868895256
20
-14.8927259298
11
3.9833406386
21
-14.9329504675
62
254
0
LINE
8
Modules
10
3.9833406386
20
-14.9329504675
11
4.0020211626
21
-11.5566106262
62
254
0
LINE
8
Modules
10
4.0020211626
20
-11.5566106262
11
-3.2682090016
21
-11.5163860885
62
254
0
LINE
8
Modules
10
-0.0548018881
20
-13.6324980177
11
0.7653955582
21
-13.6370359845
62
254
0
LINE
8
Modules
10
0.7653955582
20
-13.6370359845
11
0.7699335250
21
-12.8168385382
62
254
0
LINE
8
Modules
10
0.7699335250
20
-12.8168385382
11
-0.0502639213
21
-12.8123005714
62
254
0
LINE
8
Modules
10
-0.0502639213
20
-12.8123005714
11
-0.0548018881
21
-13.6324980177
62
254
0
LINE
8
Modules
10
-0.0548018881
20
-13.6324980177
11
0.7699335250
21
-12.8168385382
62
254
0
TEXT
8
Modules
100
AcDbText
10
-0.0027765019
20
-13.1242478790
1
DC
7
NewTextStyle_4
40
0.2624672000000003
50
-0.31700134276998615
0
TEXT
8
Modules
100
AcDbText
10
0.2735493684
20
-13.5851013577
1
AC
7
NewTextStyle_4
40
0.2624672000000003
50
-0.31700134276998615
0
LINE
8
Modules
10
4.0400875133
20
-11.5565604448
11
4.0214069893
21
-14.9329002861
62
254
0
LINE
8
Modules
10
4.0214069893
20
-14.9329002861
11
11.2916371535
21
-14.9731248238
62
254
0
LINE
8
Modules
10
11.2916371535
20
-14.9731248238
11
11.3103176775
21
-11.5967849825
62
254
0
LINE
8
Modules
10
11.3103176775
20
-11.5967849825
11
4.0400875133
21
-11.5565604448
62
254
0
LINE
8
Modules
10
7.2534946268
20
-13.6726723741
11
8.0736920731
21
-13.6772103409
62
254
0
LINE
8
Modules
10
8.0736920731
20
-13.6772103409
11
8.0782300399
21
-12.8570128946
62
254
0
LINE
8
Modules
10
8.0782300399
20
-12.8570128946
11
7.2580325936
21
-12.8524749278
62
254
0
LINE
8
Modules
10
7.2580325936
20
-12.8524749278
11
7.2534946268
21
-13.6726723741
62
254
0
LINE
8
Modules
10
7.2534946268
20
-13.6726723741
11
8.0782300399
21
-12.8570128946
62
254
0
TEXT
8
Modules
100
AcDbText
10
7.3055200130
20
-13.1644222354
1
DC
7
NewTextStyle_4
40
0.2624672000000003
50
-0.31700134276998615
0
TEXT
8
Modules
100
AcDbText
10
7.5818458833
20
-13.6252757140
1
AC
7
NewTextStyle_4
40
0.2624672000000003
50
-0.31700134276998615
0
LINE
8
Modules
10
11.3541981029
20
-11.5967348038
11
11.3355175789
21
-14.9730746451
62
254
0
LINE
8
Modules
10
11.3355175789
20
-14.9730746451
11
18.6057477431
21
-15.0132991827
62
254
0
LINE
8
Modules
10
18.6057477431
20
-15.0132991827
11
18.6244282671
21
-11.6369593414
62
254
0
LINE
8
Modules
10
18.6244282671
20
-11.6369593414
11
11.3541981029
21
-11.5967348038
62
254
0
LINE
8
Modules
10
14.5676052164
20
-13.7128467330
11
15.3878026627
21
-13.7173846998
62
254
0
LINE
8
Modules
10
15.3878026627
20
-13.7173846998
11
15.3923406295
21
-12.8971872535
62
254
0
LINE
8
Modules
10
15.3923406295
20
-12.8971872535
11
14.5721431832
21
-12.8926492867
62
254
0
LINE
8
Modules
10
14.5721431832
20
-12.8926492867
11
14.5676052164
21
-13.7128467330
62
254
0
LINE
8
Modules
10
14.5676052164
20
-13.7128467330
11
15.3923406295
21
-12.8971872535
62
254
0
TEXT
8
Modules
100
AcDbText
10
14.6196306026
20
-13.2045965943
1
DC
7
NewTextStyle_4
40
0.2624672000000003
50
-0.31700134276998615
0
TEXT
8
Modules
100
AcDbText
10
14.8959564730
20
-13.6654500729
1
AC
7
NewTextStyle_4
40
0.2624672000000003
50
-0.31700134276998615
0
LINE
8
Modules
10
18.6654016551
20
-11.6369091627
11
18.6467211311
21
-15.0132490040
62
254
0
LINE
8
Modules
10
18.6467211311
20
-15.0132490040
11
25.9169512953
21
-15.0534735417
62
254
0
LINE
8
Modules
10
25.9169512953
20
-15.0534735417
11
25.9356318194
21
-11.6771337003
62
254
0
LINE
8
Modules
10
25.9356318194
20
-11.6771337003
11
18.6654016551
21
-11.6369091627
62
254
0
LINE
8
Modules
10
21.8788087687
20
-13.7530210919
11
22.6990062150
21
-13.7575590587
62
254
0
LINE
8
Modules
10
22.6990062150
20
-13.7575590587
11
22.7035441818
21
-12.9373616124
62
254
0
LINE
8
Modules
10
22.7035441818
20
-12.9373616124
11
21.8833467355
21
-12.9328236456
62
254
0
LINE
8
Modules
10
21.8833467355
20
-12.9328236456
11
21.8788087687
21
-13.7530210919
62
254
0
LINE
8
Modules
10
21.8788087687
20
-13.7530210919
11
22.7035441818
21
-12.9373616124
62
254
0
TEXT
8
Modules
100
AcDbText
10
21.9308341549
20
-13.2447709532
1
DC
7
NewTextStyle_4
40
0.2624672000000003
50
-0.31700134276998615
0
TEXT
8
Modules
100
AcDbText
10
22.2071600252
20
-13.7056244319
1
AC
7
NewTextStyle_4
40
0.2624672000000003
50
-0.31700134276998615
0
LINE
8
Modules
10
25.9766052074
20
-11.6807357337
11
25.9579246834
21
-15.0570755750
62
254
0
LINE
8
Modules
10
25.9579246834
20
-15.0570755750
11
33.2281548476
21
-15.0973001127
62
254
0
LINE
8
Modules
10
33.2281548476
20
-15.0973001127
11
33.2468353716
21
-11.7209602714
62
254
0
LINE
8
Modules
10
33.2468353716
20
-11.7209602714
11
25.9766052074
21
-11.6807357337
62
254
0
LINE
8
Modules
10
29.1900123209
20
-13.7968476630
11
30.0102097673
21
-13.8013856297
62
254
0
LINE
8
Modules
10
30.0102097673
20
-13.8013856297
11
30.0147477341
21
-12.9811881834
62
254
0
LINE
8
Modules
10
30.0147477341
20
-12.9811881834
11
29.1945502877
21
-12.9766502166
62
254
0
LINE
8
Modules
10
29.1945502877
20
-12.9766502166
11
29.1900123209
21
-13.7968476630
62
254
0
LINE
8
Modules
10
29.1900123209
20
-13.7968476630
11
30.0147477341
21
-12.9811881834
62
254
0
TEXT
8
Modules
100
AcDbText
10
29.2420377071
20
-13.2885975242
1
DC
7
NewTextStyle_4
40
0.2624672000000003
50
-0.31700134276998615
0
TEXT
8
Modules
100
AcDbText
10
29.5183635775
20
-13.7494510029
1
AC
7
NewTextStyle_4
40
0.2624672000000003
50
-0.31700134276998615
0
LINE
8
Modules
10
33.2907158011
20
-11.7172578780
11
33.2720352771
21
-15.0935977193
62
254
0
LINE
8
Modules
10
33.2720352771
20
-15.0935977193
11
40.5422654414
21
-15.1338222569
62
254
0
LINE
8
Modules
10
40.5422654414
20
-15.1338222569
11
40.5609459654
21
-11.7574824156
62
254
0
LINE
8
Modules
10
40.5609459654
20
-11.7574824156
11
33.2907158011
21
-11.7172578780
62
254
0
LINE
8
Modules
10
36.5041229147
20
-13.8333698072
11
37.3243203610
21
-13.8379077740
62
254
0
LINE
8
Modules
10
37.3243203610
20
-13.8379077740
11
37.3288583278
21
-13.0177103277
62
254
0
LINE
8
Modules
10
37.3288583278
20
-13.0177103277
11
36.5086608815
21
-13.0131723609
62
254
0
LINE
8
Modules
10
36.5086608815
20
-13.0131723609
11
36.5041229147
21
-13.8333698072
62
254
0
LINE
8
Modules
10
36.5041229147
20
-13.8333698072
11
37.3288583278
21
-13.0177103277
62
254
0
TEXT
8
Modules
100
AcDbText
10
36.5561483009
20
-13.3251196685
1
DC
7
NewTextStyle_4
40
0.2624672000000003
50
-0.31700134276998615
0
TEXT
8
Modules
100
AcDbText
10
36.8324741712
20
-13.7859731471
1
AC
7
NewTextStyle_4
40
0.2624672000000003
50
-0.31700134276998615
0
LINE
8
Modules
10
40.6019193534
20
-11.7574322369
11
40.5832388294
21
-15.1337720782
62
254
0
LINE
8
Modules
10
40.5832388294
20
-15.1337720782
11
47.8534689936
21
-15.1739966158
62
254
0
LINE
8
Modules
10
47.8534689936
20
-15.1739966158
11
47.8721495176
21
-11.7976567745
62
254
0
LINE
8
Modules
10
47.8721495176
20
-11.7976567745
11
40.6019193534
21
-11.7574322369
62
254
0
LINE
8
Modules
10
43.8153264669
20
-13.8735441661
11
44.6355239133
21
-13.8780821329
62
254
0
LINE
8
Modules
10
44.6355239133
20
-13.8780821329
11
44.6400618801
21
-13.0578846866
62
254
0
LINE
8
Modules
10
44.6400618801
20
-13.0578846866
11
43.8198644337
21
-13.0533467198
62
254
0
LINE
8
Modules
10
43.8198644337
20
-13.0533467198
11
43.8153264669
21
-13.8735441661
62
254
0
LINE
8
Modules
10
43.8153264669
20
-13.8735441661
11
44.6400618801
21
-13.0578846866
62
254
0
TEXT
8
Modules
100
AcDbText
10
43.8673518531
20
-13.3652940274
1
DC
7
NewTextStyle_4
40
0.2624672000000003
50
-0.31700134276998615
0
TEXT
8
Modules
100
AcDbText
10
44.1436777235
20
-13.8261475061
1
AC
7
NewTextStyle_4
40
0.2624672000000003
50
-0.31700134276998615
0
LINE
8
Modules
10
-3.2449526862
20
-7.1410332579
11
-3.2636332102
21
-10.5173730992
62
254
0
LINE
8
Modules
10
-3.2636332102
20
-10.5173730992
11
4.0065969540
21
-10.5575976368
62
254
0
LINE
8
Modules
10
4.0065969540
20
-10.5575976368
11
4.0252774780
21
-7.1812577955
62
254
0
LINE
8
Modules
10
4.0252774780
20
-7.1812577955
11
-3.2449526862
21
-7.1410332579
62
254
0
LINE
8
Modules
10
-0.0315455727
20
-9.2571451871
11
0.7886518736
21
-9.2616831539
62
254
0
LINE
8
Modules
10
0.7886518736
20
-9.2616831539
11
0.7931898404
21
-8.4414857076
62
254
0
LINE
8
Modules
10
0.7931898404
20
-8.4414857076
11
-0.0270076059
21
-8.4369477408
62
254
0
LINE
8
Modules
10
-0.0270076059
20
-8.4369477408
11
-0.0315455727
21
-9.2571451871
62
254
0
LINE
8
Modules
10
-0.0315455727
20
-9.2571451871
11
0.7931898404
21
-8.4414857076
62
254
0
TEXT
8
Modules
100
AcDbText
10
0.0204798135
20
-8.7488950484
1
DC
7
NewTextStyle_4
40
0.2624672000000003
50
-0.31700134276998615
0
TEXT
8
Modules
100
AcDbText
10
0.2968056839
20
-9.2097485271
1
AC
7
NewTextStyle_4
40
0.2624672000000003
50
-0.31700134276998615
0
LINE
8
Modules
10
4.0662508660
20
-7.1812076168
11
4.0475703420
21
-10.5575474581
62
254
0
LINE
8
Modules
10
4.0475703420
20
-10.5575474581
11
11.3178005062
21
-10.5977719958
62
254
0
LINE
8
Modules
10
11.3178005062
20
-10.5977719958
11
11.3364810302
21
-7.2214321545
62
254
0
LINE
8
Modules
10
11.3364810302
20
-7.2214321545
11
4.0662508660
21
-7.1812076168
62
254
0
LINE
8
Modules
10
7.2796579796
20
-9.2973195460
11
8.0998554259
21
-9.3018575128
62
254
0
LINE
8
Modules
10
8.0998554259
20
-9.3018575128
11
8.1043933927
21
-8.4816600665
62
254
0
LINE
8
Modules
10
8.1043933927
20
-8.4816600665
11
7.2841959464
21
-8.4771220997
62
254
0
LINE
8
Modules
10
7.2841959464
20
-8.4771220997
11
7.2796579796
21
-9.2973195460
62
254
0
LINE
8
Modules
10
7.2796579796
20
-9.2973195460
11
8.1043933927
21
-8.4816600665
62
254
0
TEXT
8
Modules
100
AcDbText
10
7.3316833658
20
-8.7890694073
1
DC
7
NewTextStyle_4
40
0.2624672000000003
50
-0.31700134276998615
0
TEXT
8
Modules
100
AcDbText
10
7.6080092361
20
-9.2499228860
1
AC
7
NewTextStyle_4
40
0.2624672000000003
50
-0.31700134276998615
0
LINE
8
Modules
10
11.3803614556
20
-7.2177297610
11
11.3616809316
21
-10.5940696023
62
254
0
LINE
8
Modules
10
11.3616809316
20
-10.5940696023
11
18.6319110959
21
-10.6342941400
62
254
0
LINE
8
Modules
10
18.6319110959
20
-10.6342941400
11
18.6505916199
21
-7.2579542987
62
254
0
LINE
8
Modules
10
18.6505916199
20
-7.2579542987
11
11.3803614556
21
-7.2177297610
62
254
0
LINE
8
Modules
10
14.5937685692
20
-9.3338416903
11
15.4139660155
21
-9.3383796571
62
254
0
LINE
8
Modules
10
15.4139660155
20
-9.3383796571
11
15.4185039823
21
-8.5181822108
62
254
0
LINE
8
Modules
10
15.4185039823
20
-8.5181822108
11
14.5983065360
21
-8.5136442440
62
254
0
LINE
8
Modules
10
14.5983065360
20
-8.5136442440
11
14.5937685692
21
-9.3338416903
62
254
0
LINE
8
Modules
10
14.5937685692
20
-9.3338416903
11
15.4185039823
21
-8.5181822108
62
254
0
TEXT
8
Modules
100
AcDbText
10
14.6457939554
20
-8.8255915516
1
DC
7
NewTextStyle_4
40
0.2624672000000003
50
-0.31700134276998615
0
TEXT
8
Modules
100
AcDbText
10
14.9221198257
20
-9.2864450302
1
AC
7
NewTextStyle_4
40
0.2624672000000003
50
-0.31700134276998615
0
LINE
8
Modules
10
18.6915650079
20
-7.2615563321
11
18.6728844839
21
-10.6378961734
62
254
0
LINE
8
Modules
10
18.6728844839
20
-10.6378961734
11
25.9431146481
21
-10.6781207110
62
254
0
LINE
8
Modules
10
25.9431146481
20
-10.6781207110
11
25.9617951721
21
-7.3017808697
62
254
0
LINE
8
Modules
10
25.9617951721
20
-7.3017808697
11
18.6915650079
21
-7.2615563321
62
254
0
LINE
8
Modules
10
21.9049721215
20
-9.3776682613
11
22.7251695678
21
-9.3822062281
62
254
0
LINE
8
Modules
10
22.7251695678
20
-9.3822062281
11
22.7297075346
21
-8.5620087818
62
254
0
LINE
8
Modules
10
22.7297075346
20
-8.5620087818
11
21.9095100882
21
-8.5574708150
62
254
0
LINE
8
Modules
10
21.9095100882
20
-8.5574708150
11
21.9049721215
21
-9.3776682613
62
254
0
LINE
8
Modules
10
21.9049721215
20
-9.3776682613
11
22.7297075346
21
-8.5620087818
62
254
0
TEXT
8
Modules
100
AcDbText
10
21.9569975076
20
-8.8694181226
1
DC
7
NewTextStyle_4
40
0.2624672000000003
50
-0.31700134276998615
0
TEXT
8
Modules
100
AcDbText
10
22.2333233780
20
-9.3302716012
1
AC
7
NewTextStyle_4
40
0.2624672000000003
50
-0.31700134276998615
0
LINE
8
Modules
10
26.0027685602
20
-7.3017306910
11
25.9840880362
21
-10.6780705323
62
254
0
LINE
8
Modules
10
25.9840880362
20
-10.6780705323
11
33.2543182004
21
-10.7182950700
62
254
0
LINE
8
Modules
10
33.2543182004
20
-10.7182950700
11
33.2729987244
21
-7.3419552286
62
254
0
LINE
8
Modules
10
33.2729987244
20
-7.3419552286
11
26.0027685602
21
-7.3017306910
62
254
0
LINE
8
Modules
10
29.2161756737
20
-9.4178426202
11
30.0363731200
21
-9.4223805870
62
254
0
LINE
8
Modules
10
30.0363731200
20
-9.4223805870
11
30.0409110868
21
-8.6021831407
62
254
0
LINE
8
Modules
10
30.0409110868
20
-8.6021831407
11
29.2207136405
21
-8.5976451739
62
254
0
LINE
8
Modules
10
29.2207136405
20
-8.5976451739
11
29.2161756737
21
-9.4178426202
62
254
0
LINE
8
Modules
10
29.2161756737
20
-9.4178426202
11
30.0409110868
21
-8.6021831407
62
254
0
TEXT
8
Modules
100
AcDbText
10
29.2682010599
20
-8.9095924815
1
DC
7
NewTextStyle_4
40
0.2624672000000003
50
-0.31700134276998615
0
TEXT
8
Modules
100
AcDbText
10
29.5445269302
20
-9.3704459602
1
AC
7
NewTextStyle_4
40
0.2624672000000003
50
-0.31700134276998615
0
LINE
8
Modules
10
33.3139721124
20
-7.3419050499
11
33.2952915884
21
-10.7182448912
62
254
0
LINE
8
Modules
10
33.2952915884
20
-10.7182448912
11
40.5655217526
21
-10.7584694289
62
254
0
LINE
8
Modules
10
40.5655217526
20
-10.7584694289
11
40.5842022766
21
-7.3821295876
62
254
0
LINE
8
Modules
10
40.5842022766
20
-7.3821295876
11
33.3139721124
21
-7.3419050499
62
254
0
LINE
8
Modules
10
36.5273792260
20
-9.4580169792
11
37.3475766723
21
-9.4625549460
62
254
0
LINE
8
Modules
10
37.3475766723
20
-9.4625549460
11
37.3521146391
21
-8.6423574996
62
254
0
LINE
8
Modules
10
37.3521146391
20
-8.6423574996
11
36.5319171928
21
-8.6378195328
62
254
0
LINE
8
Modules
10
36.5319171928
20
-8.6378195328
11
36.5273792260
21
-9.4580169792
62
254
0
LINE
8
Modules
10
36.5273792260
20
-9.4580169792
11
37.3521146391
21
-8.6423574996
62
254
0
TEXT
8
Modules
100
AcDbText
10
36.5794046122
20
-8.9497668404
1
DC
7
NewTextStyle_4
40
0.2624672000000003
50
-0.31700134276998615
0
TEXT
8
Modules
100
AcDbText
10
36.8557304825
20
-9.4106203191
1
AC
7
NewTextStyle_4
40
0.2624672000000003
50
-0.31700134276998615
0
LINE
8
Modules
10
-3.2216963749
20
-2.7620282151
11
-3.2403768990
21
-6.1383680565
62
254
0
LINE
8
Modules
10
-3.2403768990
20
-6.1383680565
11
4.0298532653
21
-6.1785925941
62
254
0
LINE
8
Modules
10
4.0298532653
20
-6.1785925941
11
4.0485337893
21
-2.8022527528
62
254
0
LINE
8
Modules
10
4.0485337893
20
-2.8022527528
11
-3.2216963749
21
-2.7620282151
62
254
0
LINE
8
Modules
10
-0.0082892614
20
-4.8781401444
11
0.8119081849
21
-4.8826781112
62
254
0
LINE
8
Modules
10
0.8119081849
20
-4.8826781112
11
0.8164461517
21
-4.0624806649
62
254
0
LINE
8
Modules
10
0.8164461517
20
-4.0624806649
11
-0.0037512946
21
-4.0579426981
62
254
0
LINE
8
Modules
10
-0.0037512946
20
-4.0579426981
11
-0.0082892614
21
-4.8781401444
62
254
0
LINE
8
Modules
10
-0.0082892614
20
-4.8781401444
11
0.8164461517
21
-4.0624806649
62
254
0
TEXT
8
Modules
100
AcDbText
10
0.0437361248
20
-4.3698900057
1
DC
7
NewTextStyle_4
40
0.2624672000000003
50
-0.31700134276998615
0
TEXT
8
Modules
100
AcDbText
10
0.3200619951
20
-4.8307434843
1
AC
7
NewTextStyle_4
40
0.2624672000000003
50
-0.31700134276998615
0
LINE
8
Modules
10
4.0895071773
20
-2.8058547862
11
4.0708266533
21
-6.1821946275
62
254
0
LINE
8
Modules
10
4.0708266533
20
-6.1821946275
11
11.3410568175
21
-6.2224191651
62
254
0
LINE
8
Modules
10
11.3410568175
20
-6.2224191651
11
11.3597373415
21
-2.8460793238
62
254
0
LINE
8
Modules
10
11.3597373415
20
-2.8460793238
11
4.0895071773
21
-2.8058547862
62
254
0
LINE
8
Modules
10
7.3029142909
20
-4.9219667154
11
8.1231117372
21
-4.9265046822
62
254
0
LINE
8
Modules
10
8.1231117372
20
-4.9265046822
11
8.1276497040
21
-4.1063072359
62
254
0
LINE
8
Modules
10
8.1276497040
20
-4.1063072359
11
7.3074522577
21
-4.1017692691
62
254
0
LINE
8
Modules
10
7.3074522577
20
-4.1017692691
11
7.3029142909
21
-4.9219667154
62
254
0
LINE
8
Modules
10
7.3029142909
20
-4.9219667154
11
8.1276497040
21
-4.1063072359
62
254
0
TEXT
8
Modules
100
AcDbText
10
7.3549396770
20
-4.4137165767
1
DC
7
NewTextStyle_4
40
0.2624672000000003
50
-0.31700134276998615
0
TEXT
8
Modules
100
AcDbText
10
7.6312655474
20
-4.8745700554
1
AC
7
NewTextStyle_4
40
0.2624672000000003
50
-0.31700134276998615
0
LINE
8
Modules
10
11.4036177711
20
-2.8423769304
11
11.3849372471
21
-6.2187167717
62
254
0
LINE
8
Modules
10
11.3849372471
20
-6.2187167717
11
18.6551674113
21
-6.2589413094
62
254
0
LINE
8
Modules
10
18.6551674113
20
-6.2589413094
11
18.6738479353
21
-2.8826014681
62
254
0
LINE
8
Modules
10
18.6738479353
20
-2.8826014681
11
11.4036177711
21
-2.8423769304
62
254
0
LINE
8
Modules
10
14.6170248846
20
-4.9584888597
11
15.4372223309
21
-4.9630268264
62
254
0
LINE
8
Modules
10
15.4372223309
20
-4.9630268264
11
15.4417602977
21
-4.1428293801
62
254
0
LINE
8
Modules
10
15.4417602977
20
-4.1428293801
11
14.6215628514
21
-4.1382914133
62
254
0
LINE
8
Modules
10
14.6215628514
20
-4.1382914133
11
14.6170248846
21
-4.9584888597
62
254
0
LINE
8
Modules
10
14.6170248846
20
-4.9584888597
11
15.4417602977
21
-4.1428293801
62
254
0
TEXT
8
Modules
100
AcDbText
10
14.6690502708
20
-4.4502387209
1
DC
7
NewTextStyle_4
40
0.2624672000000003
50
-0.31700134276998615
0
TEXT
8
Modules
100
AcDbText
10
14.9453761411
20
-4.9110921996
1
AC
7
NewTextStyle_4
40
0.2624672000000003
50
-0.31700134276998615
0
LINE
8
Modules
10
18.7148213233
20
-2.8862035040
11
18.6961407993
21
-6.2625433453
62
254
0
LINE
8
Modules
10
18.6961407993
20
-6.2625433453
11
25.9663709635
21
-6.3027678830
62
254
0
LINE
8
Modules
10
25.9663709635
20
-6.3027678830
11
25.9850514875
21
-2.9264280417
62
254
0
LINE
8
Modules
10
25.9850514875
20
-2.9264280417
11
18.7148213233
21
-2.8862035040
62
254
0
LINE
8
Modules
10
21.9282284369
20
-5.0023154333
11
22.7484258832
21
-5.0068534001
62
254
0
LINE
8
Modules
10
22.7484258832
20
-5.0068534001
11
22.7529638500
21
-4.1866559537
62
254
0
LINE
8
Modules
10
22.7529638500
20
-4.1866559537
11
21.9327664037
21
-4.1821179869
62
254
0
LINE
8
Modules
10
21.9327664037
20
-4.1821179869
11
21.9282284369
21
-5.0023154333
62
254
0
LINE
8
Modules
10
21.9282284369
20
-5.0023154333
11
22.7529638500
21
-4.1866559537
62
254
0
TEXT
8
Modules
100
AcDbText
10
21.9802538231
20
-4.4940652946
1
DC
7
NewTextStyle_4
40
0.2624672000000003
50
-0.31700134276998615
0
TEXT
8
Modules
100
AcDbText
10
22.2565796934
20
-4.9549187732
1
AC
7
NewTextStyle_4
40
0.2624672000000003
50
-0.31700134276998615
0
LINE
8
Modules
10
26.0260248756
20
-2.9263778629
11
26.0073443516
21
-6.3027177043
62
254
0
LINE
8
Modules
10
26.0073443516
20
-6.3027177043
11
33.2775745158
21
-6.3429422419
62
254
0
LINE
8
Modules
10
33.2775745158
20
-6.3429422419
11
33.2962550398
21
-2.9666024006
62
254
0
LINE
8
Modules
10
33.2962550398
20
-2.9666024006
11
26.0260248756
21
-2.9263778629
62
254
0
LINE
8
Modules
10
29.2394319891
20
-5.0424897922
11
30.0596294354
21
-5.0470277590
62
254
0
LINE
8
Modules
10
30.0596294354
20
-5.0470277590
11
30.0641674022
21
-4.2268303127
62
254
0
LINE
8
Modules
10
30.0641674022
20
-4.2268303127
11
29.2439699559
21
-4.2222923459
62
254
0
LINE
8
Modules
10
29.2439699559
20
-4.2222923459
11
29.2394319891
21
-5.0424897922
62
254
0
LINE
8
Modules
10
29.2394319891
20
-5.0424897922
11
30.0641674022
21
-4.2268303127
62
254
0
TEXT
8
Modules
100
AcDbText
10
29.2914573753
20
-4.5342396535
1
DC
7
NewTextStyle_4
40
0.2624672000000003
50
-0.31700134276998615
0
TEXT
8
Modules
100
AcDbText
10
29.5677832457
20
-4.9950931321
1
AC
7
NewTextStyle_4
40
0.2624672000000003
50
-0.31700134276998615
0
LINE
8
Modules
10
33.3401354652
20
-2.9629000046
11
33.3214549412
21
-6.3392398459
62
254
0
LINE
8
Modules
10
33.3214549412
20
-6.3392398459
11
40.5916851054
21
-6.3794643836
62
254
0
LINE
8
Modules
10
40.5916851054
20
-6.3794643836
11
40.6103656294
21
-3.0031245423
62
254
0
LINE
8
Modules
10
40.6103656294
20
-3.0031245423
11
33.3401354652
21
-2.9629000046
62
254
0
LINE
8
Modules
10
36.5535425787
20
-5.0790119338
11
37.3737400251
21
-5.0835499006
62
254
0
LINE
8
Modules
10
37.3737400251
20
-5.0835499006
11
37.3782779919
21
-4.2633524543
62
254
0
LINE
8
Modules
10
37.3782779919
20
-4.2633524543
11
36.5580805455
21
-4.2588144875
62
254
0
LINE
8
Modules
10
36.5580805455
20
-4.2588144875
11
36.5535425787
21
-5.0790119338
62
254
0
LINE
8
Modules
10
36.5535425787
20
-5.0790119338
11
37.3782779919
21
-4.2633524543
62
254
0
TEXT
8
Modules
100
AcDbText
10
36.6055679649
20
-4.5707617951
1
DC
7
NewTextStyle_4
40
0.2624672000000003
50
-0.31700134276998615
0
TEXT
8
Modules
100
AcDbText
10
36.8818938353
20
-5.0316152738
1
AC
7
NewTextStyle_4
40
0.2624672000000003
50
-0.31700134276998615
0
LINE
8
Modules
10
-3.1984400595
20
1.6133246155
11
-3.2171205835
21
-1.7630152258
62
254
0
LINE
8
Modules
10
-3.2171205835
20
-1.7630152258
11
4.0531095807
21
-1.8032397635
62
254
0
LINE
8
Modules
10
4.0531095807
20
-1.8032397635
11
4.0717901047
21
1.5731000778
62
254
0
LINE
8
Modules
10
4.0717901047
20
1.5731000778
11
-3.1984400595
21
1.6133246155
62
254
0
LINE
8
Modules
10
0.0149670540
20
-0.5027873138
11
0.8351645003
21
-0.5073252806
62
254
0
LINE
8
Modules
10
0.8351645003
20
-0.5073252806
11
0.8397024671
21
0.3128721658
62
254
0
LINE
8
Modules
10
0.8397024671
20
0.3128721658
11
0.0195050208
21
0.3174101326
62
254
0
LINE
8
Modules
10
0.0195050208
20
0.3174101326
11
0.0149670540
21
-0.5027873138
62
254
0
LINE
8
Modules
10
0.0149670540
20
-0.5027873138
11
0.8397024671
21
0.3128721658
62
254
0
TEXT
8
Modules
100
AcDbText
10
0.0669924402
20
0.0054628250
1
DC
7
NewTextStyle_4
40
0.2624672000000003
50
-0.31700134276998615
0
TEXT
8
Modules
100
AcDbText
10
0.3433183105
20
-0.4553906537
1
AC
7
NewTextStyle_4
40
0.2624672000000003
50
-0.31700134276998615
0
LINE
8
Modules
10
4.1127634927
20
1.5694980419
11
4.0940829687
21
-1.8068417994
62
254
0
LINE
8
Modules
10
4.0940829687
20
-1.8068417994
11
11.3643131329
21
-1.8470663371
62
254
0
LINE
8
Modules
10
11.3643131329
20
-1.8470663371
11
11.3829936569
21
1.5292735042
62
254
0
LINE
8
Modules
10
11.3829936569
20
1.5292735042
11
4.1127634927
21
1.5694980419
62
254
0
LINE
8
Modules
10
7.3261706063
20
-0.5466138874
11
8.1463680526
21
-0.5511518542
62
254
0
LINE
8
Modules
10
8.1463680526
20
-0.5511518542
11
8.1509060194
21
0.2690455922
62
254
0
LINE
8
Modules
10
8.1509060194
20
0.2690455922
11
7.3307085731
21
0.2735835590
62
254
0
LINE
8
Modules
10
7.3307085731
20
0.2735835590
11
7.3261706063
21
-0.5466138874
62
254
0
LINE
8
Modules
10
7.3261706063
20
-0.5466138874
11
8.1509060194
21
0.2690455922
62
254
0
TEXT
8
Modules
100
AcDbText
10
7.3781959925
20
-0.0383637487
1
DC
7
NewTextStyle_4
40
0.2624672000000003
50
-0.31700134276998615
0
TEXT
8
Modules
100
AcDbText
10
7.6545218628
20
-0.4992172273
1
AC
7
NewTextStyle_4
40
0.2624672000000003
50
-0.31700134276998615
0
LINE
8
Modules
10
11.4268740823
20
1.5329758976
11
11.4081935583
21
-1.8433639437
62
254
0
LINE
8
Modules
10
11.4081935583
20
-1.8433639437
11
18.6784237226
21
-1.8835884813
62
254
0
LINE
8
Modules
10
18.6784237226
20
-1.8835884813
11
18.6971042466
21
1.4927513600
62
254
0
LINE
8
Modules
10
18.6971042466
20
1.4927513600
11
11.4268740823
21
1.5329758976
62
254
0
LINE
8
Modules
10
14.6402811959
20
-0.5831360316
11
15.4604786422
21
-0.5876739984
62
254
0
LINE
8
Modules
10
15.4604786422
20
-0.5876739984
11
15.4650166090
21
0.2325234479
62
254
0
LINE
8
Modules
10
15.4650166090
20
0.2325234479
11
14.6448191627
21
0.2370614147
62
254
0
LINE
8
Modules
10
14.6448191627
20
0.2370614147
11
14.6402811959
21
-0.5831360316
62
254
0
LINE
8
Modules
10
14.6402811959
20
-0.5831360316
11
15.4650166090
21
0.2325234479
62
254
0
TEXT
8
Modules
100
AcDbText
10
14.6923065821
20
-0.0748858929
1
DC
7
NewTextStyle_4
40
0.2624672000000003
50
-0.31700134276998615
0
TEXT
8
Modules
100
AcDbText
10
14.9686324524
20
-0.5357393716
1
AC
7
NewTextStyle_4
40
0.2624672000000003
50
-0.31700134276998615
0
LINE
8
Modules
10
18.7380776346
20
1.4928015413
11
18.7193971106
21
-1.8835383000
62
254
0
LINE
8
Modules
10
18.7193971106
20
-1.8835383000
11
25.9896272748
21
-1.9237628377
62
254
0
LINE
8
Modules
10
25.9896272748
20
-1.9237628377
11
26.0083077988
21
1.4525770036
62
254
0
LINE
8
Modules
10
26.0083077988
20
1.4525770036
11
18.7380776346
21
1.4928015413
62
254
0
LINE
8
Modules
10
21.9514847481
20
-0.6233103880
11
22.7716821945
21
-0.6278483547
62
254
0
LINE
8
Modules
10
22.7716821945
20
-0.6278483547
11
22.7762201613
21
0.1923490916
62
254
0
LINE
8
Modules
10
22.7762201613
20
0.1923490916
11
21.9560227149
21
0.1968870584
62
254
0
LINE
8
Modules
10
21.9560227149
20
0.1968870584
11
21.9514847481
21
-0.6233103880
62
254
0
LINE
8
Modules
10
21.9514847481
20
-0.6233103880
11
22.7762201613
21
0.1923490916
62
254
0
TEXT
8
Modules
100
AcDbText
10
22.0035101343
20
-0.1150602492
1
DC
7
NewTextStyle_4
40
0.2624672000000003
50
-0.31700134276998615
0
TEXT
8
Modules
100
AcDbText
10
22.2798360047
20
-0.5759137279
1
AC
7
NewTextStyle_4
40
0.2624672000000003
50
-0.31700134276998615
0
LINE
8
Modules
10
26.0492811869
20
1.4489749677
11
26.0306006629
21
-1.9273648736
62
254
0
LINE
8
Modules
10
26.0306006629
20
-1.9273648736
11
33.3008308271
21
-1.9675894113
62
254
0
LINE
8
Modules
10
33.3008308271
20
-1.9675894113
11
33.3195113511
21
1.4087504300
62
254
0
LINE
8
Modules
10
33.3195113511
20
1.4087504300
11
26.0492811869
21
1.4489749677
62
254
0
LINE
8
Modules
10
29.2626883004
20
-0.6671369616
11
30.0828857467
21
-0.6716749284
62
254
0
LINE
8
Modules
10
30.0828857467
20
-0.6716749284
11
30.0874237135
21
0.1485225180
62
254
0
LINE
8
Modules
10
30.0874237135
20
0.1485225180
11
29.2672262672
21
0.1530604848
62
254
0
LINE
8
Modules
10
29.2672262672
20
0.1530604848
11
29.2626883004
21
-0.6671369616
62
254
0
LINE
8
Modules
10
29.2626883004
20
-0.6671369616
11
30.0874237135
21
0.1485225180
62
254
0
TEXT
8
Modules
100
AcDbText
10
29.3147136866
20
-0.1588868229
1
DC
7
NewTextStyle_4
40
0.2624672000000003
50
-0.31700134276998615
0
TEXT
8
Modules
100
AcDbText
10
29.5910395569
20
-0.6197403015
1
AC
7
NewTextStyle_4
40
0.2624672000000003
50
-0.31700134276998615
0
LINE
8
Modules
10
33.3633917806
20
1.4124528234
11
33.3447112566
21
-1.9638870179
62
254
0
LINE
8
Modules
10
33.3447112566
20
-1.9638870179
11
40.6149414208
21
-2.0041115555
62
254
0
LINE
8
Modules
10
40.6149414208
20
-2.0041115555
11
40.6336219448
21
1.3722282858
62
254
0
LINE
8
Modules
10
40.6336219448
20
1.3722282858
11
33.3633917806
21
1.4124528234
62
254
0
LINE
8
Modules
10
36.5767988942
20
-0.7036591058
11
37.3969963405
21
-0.7081970726
62
254
0
LINE
8
Modules
10
37.3969963405
20
-0.7081970726
11
37.4015343073
21
0.1120003737
62
254
0
LINE
8
Modules
10
37.4015343073
20
0.1120003737
11
36.5813368609
21
0.1165383405
62
254
0
LINE
8
Modules
10
36.5813368609
20
0.1165383405
11
36.5767988942
21
-0.7036591058
62
254
0
LINE
8
Modules
10
36.5767988942
20
-0.7036591058
11
37.4015343073
21
0.1120003737
62
254
0
TEXT
8
Modules
100
AcDbText
10
36.6288242803
20
-0.1954089671
1
DC
7
NewTextStyle_4
40
0.2624672000000003
50
-0.31700134276998615
0
TEXT
8
Modules
100
AcDbText
10
36.9051501507
20
-0.6562624457
1
AC
7
NewTextStyle_4
40
0.2624672000000003
50
-0.31700134276998615
0
LINE
8
Modules
10
-3.1722767068
20
5.9886774435
11
-3.1909572308
21
2.6123376022
62
254
0
LINE
8
Modules
10
-3.1909572308
20
2.6123376022
11
4.0792729335
21
2.5721130646
62
254
0
LINE
8
Modules
10
4.0792729335
20
2.5721130646
11
4.0979534575
21
5.9484529059
62
254
0
LINE
8
Modules
10
4.0979534575
20
5.9484529059
11
-3.1722767068
21
5.9886774435
62
254
0
LINE
8
Modules
10
0.0411304068
20
3.8725655143
11
0.8613278531
21
3.8680275475
62
254
0
LINE
8
Modules
10
0.8613278531
20
3.8680275475
11
0.8658658199
21
4.6882249938
62
254
0
LINE
8
Modules
10
0.8658658199
20
4.6882249938
11
0.0456683736
21
4.6927629606
62
254
0
LINE
8
Modules
10
0.0456683736
20
4.6927629606
11
0.0411304068
21
3.8725655143
62
254
0
LINE
8
Modules
10
0.0411304068
20
3.8725655143
11
0.8658658199
21
4.6882249938
62
254
0
TEXT
8
Modules
100
AcDbText
10
0.0931557930
20
4.3808156530
1
DC
7
NewTextStyle_4
40
0.2624672000000003
50
-0.31700134276998615
0
TEXT
8
Modules
100
AcDbText
10
0.3694816633
20
3.9199621743
1
AC
7
NewTextStyle_4
40
0.2624672000000003
50
-0.31700134276998615
0
LINE
8
Modules
10
4.1389268455
20
5.9485030872
11
4.1202463215
21
2.5721632459
62
254
0
LINE
8
Modules
10
4.1202463215
20
2.5721632459
11
11.3904764857
21
2.5319387082
62
254
0
LINE
8
Modules
10
11.3904764857
20
2.5319387082
11
11.4091570097
21
5.9082785495
62
254
0
LINE
8
Modules
10
11.4091570097
20
5.9082785495
11
4.1389268455
21
5.9485030872
62
254
0
LINE
8
Modules
10
7.3523339590
20
3.8323911579
11
8.1725314054
21
3.8278531911
62
254
0
LINE
8
Modules
10
8.1725314054
20
3.8278531911
11
8.1770693722
21
4.6480506375
62
254
0
LINE
8
Modules
10
8.1770693722
20
4.6480506375
11
7.3568719258
21
4.6525886043
62
254
0
LINE
8
Modules
10
7.3568719258
20
4.6525886043
11
7.3523339590
21
3.8323911579
62
254
0
LINE
8
Modules
10
7.3523339590
20
3.8323911579
11
8.1770693722
21
4.6480506375
62
254
0
TEXT
8
Modules
100
AcDbText
10
7.4043593452
20
4.3406412967
1
DC
7
NewTextStyle_4
40
0.2624672000000003
50
-0.31700134276998615
0
TEXT
8
Modules
100
AcDbText
10
7.6806852156
20
3.8797878180
1
AC
7
NewTextStyle_4
40
0.2624672000000003
50
-0.31700134276998615
0
LINE
8
Modules
10
11.4530374351
20
5.9083287283
11
11.4343569111
21
2.5319888870
62
254
0
LINE
8
Modules
10
11.4343569111
20
2.5319888870
11
18.7045870753
21
2.4917643493
62
254
0
LINE
8
Modules
10
18.7045870753
20
2.4917643493
11
18.7232675993
21
5.8681041906
62
254
0
LINE
8
Modules
10
18.7232675993
20
5.8681041906
11
11.4530374351
21
5.9083287283
62
254
0
LINE
8
Modules
10
14.6664445487
20
3.7922167990
11
15.4866419950
21
3.7876788322
62
254
0
LINE
8
Modules
10
15.4866419950
20
3.7876788322
11
15.4911799618
21
4.6078762785
62
254
0
LINE
8
Modules
10
15.4911799618
20
4.6078762785
11
14.6709825155
21
4.6124142453
62
254
0
LINE
8
Modules
10
14.6709825155
20
4.6124142453
11
14.6664445487
21
3.7922167990
62
254
0
LINE
8
Modules
10
14.6664445487
20
3.7922167990
11
15.4911799618
21
4.6078762785
62
254
0
TEXT
8
Modules
100
AcDbText
10
14.7184699349
20
4.3004669377
1
DC
7
NewTextStyle_4
40
0.2624672000000003
50
-0.31700134276998615
0
TEXT
8
Modules
100
AcDbText
10
14.9947958052
20
3.8396134591
1
AC
7
NewTextStyle_4
40
0.2624672000000003
50
-0.31700134276998615
0
LINE
8
Modules
10
18.7642409874
20
5.8681543693
11
18.7455604634
21
2.4918145280
62
254
0
LINE
8
Modules
10
18.7455604634
20
2.4918145280
11
26.0157906276
21
2.4515899904
62
254
0
LINE
8
Modules
10
26.0157906276
20
2.4515899904
11
26.0344711516
21
5.8279298317
62
254
0
LINE
8
Modules
10
26.0344711516
20
5.8279298317
11
18.7642409874
21
5.8681543693
62
254
0
LINE
8
Modules
10
21.9776481009
20
3.7520424401
11
22.7978455472
21
3.7475044733
62
254
0
LINE
8
Modules
10
22.7978455472
20
3.7475044733
11
22.8023835140
21
4.5677019196
62
254
0
LINE
8
Modules
10
22.8023835140
20
4.5677019196
11
21.9821860677
21
4.5722398864
62
254
0
LINE
8
Modules
10
21.9821860677
20
4.5722398864
11
21.9776481009
21
3.7520424401
62
254
0
LINE
8
Modules
10
21.9776481009
20
3.7520424401
11
22.8023835140
21
4.5677019196
62
254
0
TEXT
8
Modules
100
AcDbText
10
22.0296734871
20
4.2602925788
1
DC
7
NewTextStyle_4
40
0.2624672000000003
50
-0.31700134276998615
0
TEXT
8
Modules
100
AcDbText
10
22.3059993575
20
3.7994391001
1
AC
7
NewTextStyle_4
40
0.2624672000000003
50
-0.31700134276998615
0
LINE
8
Modules
10
26.0754445396
20
5.8279800104
11
26.0567640156
21
2.4516401691
62
254
0
LINE
8
Modules
10
26.0567640156
20
2.4516401691
11
33.3269941798
21
2.4114156314
62
254
0
LINE
8
Modules
10
33.3269941798
20
2.4114156314
11
33.3456747038
21
5.7877554727
62
254
0
LINE
8
Modules
10
33.3456747038
20
5.7877554727
11
26.0754445396
21
5.8279800104
62
254
0
LINE
8
Modules
10
29.2888516532
20
3.7118680812
11
30.1090490995
21
3.7073301144
62
254
0
LINE
8
Modules
10
30.1090490995
20
3.7073301144
11
30.1135870663
21
4.5275275607
62
254
0
LINE
8
Modules
10
30.1135870663
20
4.5275275607
11
29.2933896200
21
4.5320655275
62
254
0
LINE
8
Modules
10
29.2933896200
20
4.5320655275
11
29.2888516532
21
3.7118680812
62
254
0
LINE
8
Modules
10
29.2888516532
20
3.7118680812
11
30.1135870663
21
4.5275275607
62
254
0
TEXT
8
Modules
100
AcDbText
10
29.3408770394
20
4.2201182199
1
DC
7
NewTextStyle_4
40
0.2624672000000003
50
-0.31700134276998615
0
TEXT
8
Modules
100
AcDbText
10
29.6172029097
20
3.7592647412
1
AC
7
NewTextStyle_4
40
0.2624672000000003
50
-0.31700134276998615
0
LINE
8
Modules
10
33.3866480919
20
5.7878056541
11
33.3679675679
21
2.4114658128
62
254
0
LINE
8
Modules
10
33.3679675679
20
2.4114658128
11
40.6381977321
21
2.3712412751
62
254
0
LINE
8
Modules
10
40.6381977321
20
2.3712412751
11
40.6568782561
21
5.7475811164
62
254
0
LINE
8
Modules
10
40.6568782561
20
5.7475811164
11
33.3866480919
21
5.7878056541
62
254
0
LINE
8
Modules
10
36.6000552054
20
3.6716937248
11
37.4202526518
21
3.6671557580
62
254
0
LINE
8
Modules
10
37.4202526518
20
3.6671557580
11
37.4247906186
21
4.4873532044
62
254
0
LINE
8
Modules
10
37.4247906186
20
4.4873532044
11
36.6045931722
21
4.4918911711
62
254
0
LINE
8
Modules
10
36.6045931722
20
4.4918911711
11
36.6000552054
21
3.6716937248
62
254
0
LINE
8
Modules
10
36.6000552054
20
3.6716937248
11
37.4247906186
21
4.4873532044
62
254
0
TEXT
8
Modules
100
AcDbText
10
36.6520805916
20
4.1799438635
1
DC
7
NewTextStyle_4
40
0.2624672000000003
50
-0.31700134276998615
0
TEXT
8
Modules
100
AcDbText
10
36.9284064620
20
3.7190903849
1
AC
7
NewTextStyle_4
40
0.2624672000000003
50
-0.31700134276998615
0
LINE
8
Modules
10
-3.1490203955
20
10.3640302742
11
-3.1677009195
21
6.9876904328
62
254
0
LINE
8
Modules
10
-3.1677009195
20
6.9876904328
11
4.1025292447
21
6.9474658952
62
254
0
LINE
8
Modules
10
4.1025292447
20
6.9474658952
11
4.1212097687
21
10.3238057365
62
254
0
LINE
8
Modules
10
4.1212097687
20
10.3238057365
11
-3.1490203955
21
10.3640302742
62
254
0
LINE
8
Modules
10
0.0643867181
20
8.2479183449
11
0.8845841644
21
8.2433803781
62
254
0
LINE
8
Modules
10
0.8845841644
20
8.2433803781
11
0.8891221312
21
9.0635778244
62
254
0
LINE
8
Modules
10
0.8891221312
20
9.0635778244
11
0.0689246849
21
9.0681157912
62
254
0
LINE
8
Modules
10
0.0689246849
20
9.0681157912
11
0.0643867181
21
8.2479183449
62
254
0
LINE
8
Modules
10
0.0643867181
20
8.2479183449
11
0.8891221312
21
9.0635778244
62
254
0
TEXT
8
Modules
100
AcDbText
10
0.1164121043
20
8.7561684836
1
DC
7
NewTextStyle_4
40
0.2624672000000003
50
-0.31700134276998615
0
TEXT
8
Modules
100
AcDbText
10
0.3927379746
20
8.2953150050
1
AC
7
NewTextStyle_4
40
0.2624672000000003
50
-0.31700134276998615
0
LINE
8
Modules
10
10.3687118179
20
10.2909859857
11
10.3500312939
21
6.9146461444
62
254
0
LINE
8
Modules
10
10.3500312939
20
6.9146461444
11
17.6202614581
21
6.8744216067
62
254
0
LINE
8
Modules
10
17.6202614581
20
6.8744216067
11
17.6389419821
21
10.2507614480
62
254
0
LINE
8
Modules
10
17.6389419821
20
10.2507614480
11
10.3687118179
21
10.2909859857
62
254
0
LINE
8
Modules
10
13.5821189314
20
8.1748740564
11
14.4023163777
21
8.1703360896
62
254
0
LINE
8
Modules
10
14.4023163777
20
8.1703360896
11
14.4068543445
21
8.9905335360
62
254
0
LINE
8
Modules
10
14.4068543445
20
8.9905335360
11
13.5866568982
21
8.9950715027
62
254
0
LINE
8
Modules
10
13.5866568982
20
8.9950715027
11
13.5821189314
21
8.1748740564
62
254
0
LINE
8
Modules
10
13.5821189314
20
8.1748740564
11
14.4068543445
21
8.9905335360
62
254
0
TEXT
8
Modules
100
AcDbText
10
13.6341443176
20
8.6831241951
1
DC
7
NewTextStyle_4
40
0.2624672000000003
50
-0.31700134276998615
0
TEXT
8
Modules
100
AcDbText
10
13.9104701880
20
8.2222707165
1
AC
7
NewTextStyle_4
40
0.2624672000000003
50
-0.31700134276998615
0
LINE
8
Modules
10
17.6828224116
20
10.2508116267
11
17.6641418876
21
6.8744717854
62
254
0
LINE
8
Modules
10
17.6641418876
20
6.8744717854
11
24.9343720518
21
6.8342472478
62
254
0
LINE
8
Modules
10
24.9343720518
20
6.8342472478
11
24.9530525758
21
10.2105870891
62
254
0
LINE
8
Modules
10
24.9530525758
20
10.2105870891
11
17.6828224116
21
10.2508116267
62
254
0
LINE
8
Modules
10
20.8962295252
20
8.1346996975
11
21.7164269715
21
8.1301617307
62
254
0
LINE
8
Modules
10
21.7164269715
20
8.1301617307
11
21.7209649383
21
8.9503591770
62
254
0
LINE
8
Modules
10
21.7209649383
20
8.9503591770
11
20.9007674920
21
8.9548971438
62
254
0
LINE
8
Modules
10
20.9007674920
20
8.9548971438
11
20.8962295252
21
8.1346996975
62
254
0
LINE
8
Modules
10
20.8962295252
20
8.1346996975
11
21.7209649383
21
8.9503591770
62
254
0
TEXT
8
Modules
100
AcDbText
10
20.9482549114
20
8.6429498362
1
DC
7
NewTextStyle_4
40
0.2624672000000003
50
-0.31700134276998615
0
TEXT
8
Modules
100
AcDbText
10
21.2245807817
20
8.1820963576
1
AC
7
NewTextStyle_4
40
0.2624672000000003
50
-0.31700134276998615
0
LINE
8
Modules
10
24.9940259639
20
10.2106372704
11
24.9753454399
21
6.8342974291
62
254
0
LINE
8
Modules
10
24.9753454399
20
6.8342974291
11
32.2455756041
21
6.7940728914
62
254
0
LINE
8
Modules
10
32.2455756041
20
6.7940728914
11
32.2642561281
21
10.1704127327
62
254
0
LINE
8
Modules
10
32.2642561281
20
10.1704127327
11
24.9940259639
21
10.2106372704
62
254
0
LINE
8
Modules
10
28.2074330774
20
8.0945253412
11
29.0276305238
21
8.0899873744
62
254
0
LINE
8
Modules
10
29.0276305238
20
8.0899873744
11
29.0321684905
21
8.9101848207
62
254
0
LINE
8
Modules
10
29.0321684905
20
8.9101848207
11
28.2119710442
21
8.9147227875
62
254
0
LINE
8
Modules
10
28.2119710442
20
8.9147227875
11
28.2074330774
21
8.0945253412
62
254
0
LINE
8
Modules
10
28.2074330774
20
8.0945253412
11
29.0321684905
21
8.9101848207
62
254
0
TEXT
8
Modules
100
AcDbText
10
28.2594584636
20
8.6027754799
1
DC
7
NewTextStyle_4
40
0.2624672000000003
50
-0.31700134276998615
0
TEXT
8
Modules
100
AcDbText
10
28.5357843340
20
8.1419220012
1
AC
7
NewTextStyle_4
40
0.2624672000000003
50
-0.31700134276998615
0
LINE
8
Modules
10
32.3052295161
20
10.1668106968
11
32.2865489921
21
6.7904708555
62
254
0
LINE
8
Modules
10
32.2865489921
20
6.7904708555
11
39.5567791564
21
6.7502463178
62
254
0
LINE
8
Modules
10
39.5567791564
20
6.7502463178
11
39.5754596804
21
10.1265861591
62
254
0
LINE
8
Modules
10
39.5754596804
20
10.1265861591
11
32.3052295161
21
10.1668106968
62
254
0
LINE
8
Modules
10
35.5186366297
20
8.0506987675
11
36.3388340760
21
8.0461608008
62
254
0
LINE
8
Modules
10
36.3388340760
20
8.0461608008
11
36.3433720428
21
8.8663582471
62
254
0
LINE
8
Modules
10
36.3433720428
20
8.8663582471
11
35.5231745965
21
8.8708962139
62
254
0
LINE
8
Modules
10
35.5231745965
20
8.8708962139
11
35.5186366297
21
8.0506987675
62
254
0
LINE
8
Modules
10
35.5186366297
20
8.0506987675
11
36.3433720428
21
8.8663582471
62
254
0
TEXT
8
Modules
100
AcDbText
10
35.5706620159
20
8.5589489063
1
DC
7
NewTextStyle_4
40
0.2624672000000003
50
-0.31700134276998615
0
TEXT
8
Modules
100
AcDbText
10
35.8469878862
20
8.0980954276
1
AC
7
NewTextStyle_4
40
0.2624672000000003
50
-0.31700134276998615
0
LINE
8
Modules
10
-3.1257640801
20
14.7430353169
11
-3.1444446041
21
11.3666954756
62
254
0
LINE
8
Modules
10
-3.1444446041
20
11.3666954756
11
4.1257855601
21
11.3264709379
62
254
0
LINE
8
Modules
10
4.1257855601
20
11.3264709379
11
4.1444660841
21
14.7028107792
62
254
0
LINE
8
Modules
10
4.1444660841
20
14.7028107792
11
-3.1257640801
21
14.7430353169
62
254
0
LINE
8
Modules
10
0.0876430335
20
12.6269233876
11
0.9078404798
21
12.6223854208
62
254
0
LINE
8
Modules
10
0.9078404798
20
12.6223854208
11
0.9123784466
21
13.4425828672
62
254
0
LINE
8
Modules
10
0.9123784466
20
13.4425828672
11
0.0921810003
21
13.4471208340
62
254
0
LINE
8
Modules
10
0.0921810003
20
13.4471208340
11
0.0876430335
21
12.6269233876
62
254
0
LINE
8
Modules
10
0.0876430335
20
12.6269233876
11
0.9123784466
21
13.4425828672
62
254
0
TEXT
8
Modules
100
AcDbText
10
0.1396684197
20
13.1351735263
1
DC
7
NewTextStyle_4
40
0.2624672000000003
50
-0.31700134276998615
0
TEXT
8
Modules
100
AcDbText
10
0.4159942900
20
12.6743200477
1
AC
7
NewTextStyle_4
40
0.2624672000000003
50
-0.31700134276998615
0
LINE
8
Modules
10
4.1854394722
20
14.6992087459
11
4.1667589482
21
11.3228689046
62
254
0
LINE
8
Modules
10
4.1667589482
20
11.3228689046
11
11.4369891124
21
11.2826443669
62
254
0
LINE
8
Modules
10
11.4369891124
20
11.2826443669
11
11.4556696364
21
14.6589842082
62
254
0
LINE
8
Modules
10
11.4556696364
20
14.6589842082
11
4.1854394722
21
14.6992087459
62
254
0
LINE
8
Modules
10
7.3988465857
20
12.5830968166
11
8.2190440321
21
12.5785588498
62
254
0
LINE
8
Modules
10
8.2190440321
20
12.5785588498
11
8.2235819989
21
13.3987562961
62
254
0
LINE
8
Modules
10
8.2235819989
20
13.3987562961
11
7.4033845525
21
13.4032942629
62
254
0
LINE
8
Modules
10
7.4033845525
20
13.4032942629
11
7.3988465857
21
12.5830968166
62
254
0
LINE
8
Modules
10
7.3988465857
20
12.5830968166
11
8.2235819989
21
13.3987562961
62
254
0
TEXT
8
Modules
100
AcDbText
10
7.4508719719
20
13.0913469553
1
DC
7
NewTextStyle_4
40
0.2624672000000003
50
-0.31700134276998615
0
TEXT
8
Modules
100
AcDbText
10
7.7271978423
20
12.6304934767
1
AC
7
NewTextStyle_4
40
0.2624672000000003
50
-0.31700134276998615
0
LINE
8
Modules
10
11.4995500618
20
14.6626866016
11
11.4808695378
21
11.2863467603
62
254
0
LINE
8
Modules
10
11.4808695378
20
11.2863467603
11
18.7510997020
21
11.2461222226
62
254
0
LINE
8
Modules
10
18.7510997020
20
11.2461222226
11
18.7697802260
21
14.6224620640
62
254
0
LINE
8
Modules
10
18.7697802260
20
14.6224620640
11
11.4995500618
21
14.6626866016
62
254
0
LINE
8
Modules
10
14.7129571754
20
12.5465746724
11
15.5331546217
21
12.5420367056
62
254
0
LINE
8
Modules
10
15.5331546217
20
12.5420367056
11
15.5376925885
21
13.3622341519
62
254
0
LINE
8
Modules
10
15.5376925885
20
13.3622341519
11
14.7174951421
21
13.3667721187
62
254
0
LINE
8
Modules
10
14.7174951421
20
13.3667721187
11
14.7129571754
21
12.5465746724
62
254
0
LINE
8
Modules
10
14.7129571754
20
12.5465746724
11
15.5376925885
21
13.3622341519
62
254
0
TEXT
8
Modules
100
AcDbText
10
14.7649825615
20
13.0548248111
1
DC
7
NewTextStyle_4
40
0.2624672000000003
50
-0.31700134276998615
0
TEXT
8
Modules
100
AcDbText
10
15.0413084319
20
12.5939713324
1
AC
7
NewTextStyle_4
40
0.2624672000000003
50
-0.31700134276998615
0
LINE
8
Modules
10
18.8107536141
20
14.6188600280
11
18.7920730901
21
11.2425201867
62
254
0
LINE
8
Modules
10
18.7920730901
20
11.2425201867
11
26.0623032543
21
11.2022956490
62
254
0
LINE
8
Modules
10
26.0623032543
20
11.2022956490
11
26.0809837783
21
14.5786354903
62
254
0
LINE
8
Modules
10
26.0809837783
20
14.5786354903
11
18.8107536141
21
14.6188600280
62
254
0
LINE
8
Modules
10
22.0241607276
20
12.5027480988
11
22.8443581739
21
12.4982101320
62
254
0
LINE
8
Modules
10
22.8443581739
20
12.4982101320
11
22.8488961407
21
13.3184075783
62
254
0
LINE
8
Modules
10
22.8488961407
20
13.3184075783
11
22.0286986944
21
13.3229455451
62
254
0
LINE
8
Modules
10
22.0286986944
20
13.3229455451
11
22.0241607276
21
12.5027480988
62
254
0
LINE
8
Modules
10
22.0241607276
20
12.5027480988
11
22.8488961407
21
13.3184075783
62
254
0
TEXT
8
Modules
100
AcDbText
10
22.0761861138
20
13.0109982375
1
DC
7
NewTextStyle_4
40
0.2624672000000003
50
-0.31700134276998615
0
TEXT
8
Modules
100
AcDbText
10
22.3525119841
20
12.5501447588
1
AC
7
NewTextStyle_4
40
0.2624672000000003
50
-0.31700134276998615
0
LINE
8
Modules
10
26.1219571663
20
14.5786856691
11
26.1032766423
21
11.2023458278
62
254
0
LINE
8
Modules
10
26.1032766423
20
11.2023458278
11
33.3735068065
21
11.1621212901
62
254
0
LINE
8
Modules
10
33.3735068065
20
11.1621212901
11
33.3921873305
21
14.5384611314
62
254
0
LINE
8
Modules
10
33.3921873305
20
14.5384611314
11
26.1219571663
21
14.5786856691
62
254
0
LINE
8
Modules
10
29.3353642799
20
12.4625737398
11
30.1555617262
21
12.4580357730
62
254
0
LINE
8
Modules
10
30.1555617262
20
12.4580357730
11
30.1600996930
21
13.2782332194
62
254
0
LINE
8
Modules
10
30.1600996930
20
13.2782332194
11
29.3399022467
21
13.2827711862
62
254
0
LINE
8
Modules
10
29.3399022467
20
13.2827711862
11
29.3353642799
21
12.4625737398
62
254
0
LINE
8
Modules
10
29.3353642799
20
12.4625737398
11
30.1600996930
21
13.2782332194
62
254
0
TEXT
8
Modules
100
AcDbText
10
29.3873896661
20
12.9708238785
1
DC
7
NewTextStyle_4
40
0.2624672000000003
50
-0.31700134276998615
0
TEXT
8
Modules
100
AcDbText
10
29.6637155364
20
12.5099703999
1
AC
7
NewTextStyle_4
40
0.2624672000000003
50
-0.31700134276998615
0
LINE
8
Modules
10
33.4360677601
20
14.5421635274
11
33.4173872361
21
11.1658236861
62
254
0
LINE
8
Modules
10
33.4173872361
20
11.1658236861
11
40.6876174003
21
11.1255991485
62
254
0
LINE
8
Modules
10
40.6876174003
20
11.1255991485
11
40.7062979243
21
14.5019389898
62
254
0
LINE
8
Modules
10
40.7062979243
20
14.5019389898
11
33.4360677601
21
14.5421635274
62
254
0
LINE
8
Modules
10
36.6494748736
20
12.4260515982
11
37.4696723199
21
12.4215136314
62
254
0
LINE
8
Modules
10
37.4696723199
20
12.4215136314
11
37.4742102867
21
13.2417110777
62
254
0
LINE
8
Modules
10
37.4742102867
20
13.2417110777
11
36.6540128404
21
13.2462490445
62
254
0
LINE
8
Modules
10
36.6540128404
20
13.2462490445
11
36.6494748736
21
12.4260515982
62
254
0
LINE
8
Modules
10
36.6494748736
20
12.4260515982
11
37.4742102867
21
13.2417110777
62
254
0
TEXT
8
Modules
100
AcDbText
10
36.7015002598
20
12.9343017369
1
DC
7
NewTextStyle_4
40
0.2624672000000003
50
-0.31700134276998615
0
TEXT
8
Modules
100
AcDbText
10
36.9778261302
20
12.4734482582
1
AC
7
NewTextStyle_4
40
0.2624672000000003
50
-0.31700134276998615
0
LINE
8
Modules
10
40.7472713123
20
14.4983369538
11
40.7285907883
21
11.1219971125
62
254
0
LINE
8
Modules
10
40.7285907883
20
11.1219971125
11
47.9988209525
21
11.0817725748
62
254
0
LINE
8
Modules
10
47.9988209525
20
11.0817725748
11
48.0175014765
21
14.4581124162
62
254
0
LINE
8
Modules
10
48.0175014765
20
14.4581124162
11
40.7472713123
21
14.4983369538
62
254
0
LINE
8
Modules
10
43.9606784259
20
12.3822250246
11
44.7808758722
21
12.3776870578
62
254
0
LINE
8
Modules
10
44.7808758722
20
12.3776870578
11
44.7854138390
21
13.1978845041
62
254
0
LINE
8
Modules
10
44.7854138390
20
13.1978845041
11
43.9652163927
21
13.2024224709
62
254
0
LINE
8
Modules
10
43.9652163927
20
13.2024224709
11
43.9606784259
21
12.3822250246
62
254
0
LINE
8
Modules
10
43.9606784259
20
12.3822250246
11
44.7854138390
21
13.1978845041
62
254
0
TEXT
8
Modules
100
AcDbText
10
44.0127038121
20
12.8904751633
1
DC
7
NewTextStyle_4
40
0.2624672000000003
50
-0.31700134276998615
0
TEXT
8
Modules
100
AcDbText
10
44.2890296824
20
12.4296216846
1
AC
7
NewTextStyle_4
40
0.2624672000000003
50
-0.31700134276998615
0
LINE
8
Modules
10
-7.2947350568
20
9.0255817422
11
-12.9036587222
21
9.0730382356
62
254
0
LINE
8
Modules
10
-12.9036587222
20
9.0730382356
11
-12.9324435992
21
5.6709289263
62
254
0
LINE
8
Modules
10
-12.9324435992
20
5.6709289263
11
-7.3235199338
21
5.6234724329
62
254
0
LINE
8
Modules
10
-7.3235199338
20
5.6234724329
11
-7.2947350568
21
9.0255817422
62
254
0
LINE
8
Modules
10
-10.5202099201
20
7.7618153856
11
-10.5271493794
21
6.9416347421
62
254
0
LINE
8
Modules
10
-10.5271493794
20
6.9416347421
11
-9.7069687359
21
6.9346952828
62
254
0
LINE
8
Modules
10
-9.7069687359
20
6.9346952828
11
-9.7000292766
21
7.7548759264
62
254
0
LINE
8
Modules
10
-9.7000292766
20
7.7548759264
11
-10.5202099201
21
7.7618153856
62
254
0
LINE
8
Modules
10
-10.5202099201
20
7.7618153856
11
-9.7069687359
21
6.9346952828
62
254
0
TEXT
8
Modules
100
AcDbText
10
-10.0121142887
20
7.7083020823
1
DC
7
NewTextStyle_4
40
0.2624672000000003
50
-90.48476179493518
0
TEXT
8
Modules
100
AcDbText
10
-10.4737748652
20
7.4333267607
1
AC
7
NewTextStyle_4
40
0.2624672000000003
50
-90.48476179493518
0
LINE
8
Modules
10
-7.3238054510
20
5.5815435807
11
-12.9327291164
21
5.6290000741
62
254
0
LINE
8
Modules
10
-12.9327291164
20
5.6290000741
11
-12.9615139935
21
2.2268907648
62
254
0
LINE
8
Modules
10
-12.9615139935
20
2.2268907648
11
-7.3525903281
21
2.1794342714
62
254
0
LINE
8
Modules
10
-7.3525903281
20
2.1794342714
11
-7.3238054510
21
5.5815435807
62
254
0
LINE
8
Modules
10
-10.5492803144
20
4.3177772241
11
-10.5562197737
21
3.4975965806
62
254
0
LINE
8
Modules
10
-10.5562197737
20
3.4975965806
11
-9.7360391301
21
3.4906571213
62
254
0
LINE
8
Modules
10
-9.7360391301
20
3.4906571213
11
-9.7290996709
21
4.3108377649
62
254
0
LINE
8
Modules
10
-9.7290996709
20
4.3108377649
11
-10.5492803144
21
4.3177772241
62
254
0
LINE
8
Modules
10
-10.5492803144
20
4.3177772241
11
-9.7360391301
21
3.4906571213
62
254
0
TEXT
8
Modules
100
AcDbText
10
-10.0411846830
20
4.2642639208
1
DC
7
NewTextStyle_4
40
0.2624672000000003
50
-90.48476179493518
0
TEXT
8
Modules
100
AcDbText
10
-10.5028452595
20
3.9892885992
1
AC
7
NewTextStyle_4
40
0.2624672000000003
50
-90.48476179493518
0
LINE
8
Modules
10
-7.3528758412
20
2.1375054192
11
-12.9617995066
21
2.1849619126
62
254
0
LINE
8
Modules
10
-12.9617995066
20
2.1849619126
11
-12.9905843836
21
-1.2171473967
62
254
0
LINE
8
Modules
10
-12.9905843836
20
-1.2171473967
11
-7.3816607182
21
-1.2646038901
62
254
0
LINE
8
Modules
10
-7.3816607182
20
-1.2646038901
11
-7.3528758412
21
2.1375054192
62
254
0
LINE
8
Modules
10
-10.5783507045
20
0.8737390626
11
-10.5852901638
21
0.0535584191
62
254
0
LINE
8
Modules
10
-10.5852901638
20
0.0535584191
11
-9.7651095203
21
0.0466189599
62
254
0
LINE
8
Modules
10
-9.7651095203
20
0.0466189599
11
-9.7581700610
21
0.8667996034
62
254
0
LINE
8
Modules
10
-9.7581700610
20
0.8667996034
11
-10.5783507045
21
0.8737390626
62
254
0
LINE
8
Modules
10
-10.5783507045
20
0.8737390626
11
-9.7651095203
21
0.0466189599
62
254
0
TEXT
8
Modules
100
AcDbText
10
-10.0702550731
20
0.8202257593
1
DC
7
NewTextStyle_4
40
0.2624672000000003
50
-90.48476179493518
0
TEXT
8
Modules
100
AcDbText
10
-10.5319156496
20
0.5452504377
1
AC
7
NewTextStyle_4
40
0.2624672000000003
50
-90.48476179493518
0
LINE
8
Modules
10
-7.3819462354
20
-1.3065327423
11
-12.9908699008
21
-1.2590762489
62
254
0
LINE
8
Modules
10
-12.9908699008
20
-1.2590762489
11
-13.0196547779
21
-4.6611855582
62
254
0
LINE
8
Modules
10
-13.0196547779
20
-4.6611855582
11
-7.4107311125
21
-4.7086420516
62
254
0
LINE
8
Modules
10
-7.4107311125
20
-4.7086420516
11
-7.3819462354
21
-1.3065327423
62
254
0
LINE
8
Modules
10
-10.6074210988
20
-2.5702990988
11
-10.6143605580
21
-3.3904797424
62
254
0
LINE
8
Modules
10
-10.6143605580
20
-3.3904797424
11
-9.7941799145
21
-3.3974192016
62
254
0
LINE
8
Modules
10
-9.7941799145
20
-3.3974192016
11
-9.7872404553
21
-2.5772385581
62
254
0
LINE
8
Modules
10
-9.7872404553
20
-2.5772385581
11
-10.6074210988
21
-2.5702990988
62
254
0
LINE
8
Modules
10
-10.6074210988
20
-2.5702990988
11
-9.7941799145
21
-3.3974192016
62
254
0
TEXT
8
Modules
100
AcDbText
10
-10.0993254674
20
-2.6238124022
1
DC
7
NewTextStyle_4
40
0.2624672000000003
50
-90.48476179493518
0
TEXT
8
Modules
100
AcDbText
10
-10.5609860439
20
-2.8987877238
1
AC
7
NewTextStyle_4
40
0.2624672000000003
50
-90.48476179493518
0
LINE
8
Modules
10
-7.4110166256
20
-4.7505709038
11
-13.0199402910
21
-4.7031144104
62
254
0
LINE
8
Modules
10
-13.0199402910
20
-4.7031144104
11
-13.0487251680
21
-8.1052237197
62
254
0
LINE
8
Modules
10
-13.0487251680
20
-8.1052237197
11
-7.4398015026
21
-8.1526802131
62
254
0
LINE
8
Modules
10
-7.4398015026
20
-8.1526802131
11
-7.4110166256
21
-4.7505709038
62
254
0
LINE
8
Modules
10
-10.6364914889
20
-6.0143372603
11
-10.6434309482
21
-6.8345179039
62
254
0
LINE
8
Modules
10
-10.6434309482
20
-6.8345179039
11
-9.8232503047
21
-6.8414573631
62
254
0
LINE
8
Modules
10
-9.8232503047
20
-6.8414573631
11
-9.8163108454
21
-6.0212767196
62
254
0
LINE
8
Modules
10
-9.8163108454
20
-6.0212767196
11
-10.6364914889
21
-6.0143372603
62
254
0
LINE
8
Modules
10
-10.6364914889
20
-6.0143372603
11
-9.8232503047
21
-6.8414573631
62
254
0
TEXT
8
Modules
100
AcDbText
10
-10.1283958575
20
-6.0678505637
1
DC
7
NewTextStyle_4
40
0.2624672000000003
50
-90.48476179493518
0
TEXT
8
Modules
100
AcDbText
10
-10.5900564340
20
-6.3428258853
1
AC
7
NewTextStyle_4
40
0.2624672000000003
50
-90.48476179493518
0
LINE
8
Modules
10
-7.4400870157
20
-8.1946090679
11
-13.0490106811
21
-8.1471525744
62
254
0
LINE
8
Modules
10
-13.0490106811
20
-8.1471525744
11
-13.0777955581
21
-11.5492618838
62
254
0
LINE
8
Modules
10
-13.0777955581
20
-11.5492618838
11
-7.4688718927
21
-11.5967183772
62
254
0
LINE
8
Modules
10
-7.4688718927
20
-11.5967183772
11
-7.4400870157
21
-8.1946090679
62
254
0
LINE
8
Modules
10
-10.6655618790
20
-9.4583754244
11
-10.6725013383
21
-10.2785560679
62
254
0
LINE
8
Modules
10
-10.6725013383
20
-10.2785560679
11
-9.8523206948
21
-10.2854955272
62
254
0
LINE
8
Modules
10
-9.8523206948
20
-10.2854955272
11
-9.8453812355
21
-9.4653148837
62
254
0
LINE
8
Modules
10
-9.8453812355
20
-9.4653148837
11
-10.6655618790
21
-9.4583754244
62
254
0
LINE
8
Modules
10
-10.6655618790
20
-9.4583754244
11
-9.8523206948
21
-10.2854955272
62
254
0
TEXT
8
Modules
100
AcDbText
10
-10.1574662476
20
-9.5118887278
1
DC
7
NewTextStyle_4
40
0.2624672000000003
50
-90.48476179493518
0
TEXT
8
Modules
100
AcDbText
10
-10.6191268241
20
-9.7868640494
1
AC
7
NewTextStyle_4
40
0.2624672000000003
50
-90.48476179493518
0
LINE
8
Modules
10
-7.6668360744
20
-18.3185473335
11
-13.2757597398
21
-18.2710908401
62
254
0
LINE
8
Modules
10
-13.2757597398
20
-18.2710908401
11
-13.3045446169
21
-21.6732001494
62
254
0
LINE
8
Modules
10
-13.3045446169
20
-21.6732001494
11
-7.6956209515
21
-21.7206566428
62
254
0
LINE
8
Modules
10
-7.6956209515
20
-21.7206566428
11
-7.6668360744
21
-18.3185473335
62
254
0
LINE
8
Modules
10
-10.8923109378
20
-19.5823136901
11
-10.8992503971
21
-20.4024943336
62
254
0
LINE
8
Modules
10
-10.8992503971
20
-20.4024943336
11
-10.0790697535
21
-20.4094337928
62
254
0
LINE
8
Modules
10
-10.0790697535
20
-20.4094337928
11
-10.0721302943
21
-19.5892531493
62
254
0
LINE
8
Modules
10
-10.0721302943
20
-19.5892531493
11
-10.8923109378
21
-19.5823136901
62
254
0
LINE
8
Modules
10
-10.8923109378
20
-19.5823136901
11
-10.0790697535
21
-20.4094337928
62
254
0
TEXT
8
Modules
100
AcDbText
10
-10.3842153064
20
-19.6358269934
1
DC
7
NewTextStyle_4
40
0.2624672000000003
50
-90.48476179493518
0
TEXT
8
Modules
100
AcDbText
10
-10.8458758829
20
-19.9108023150
1
AC
7
NewTextStyle_4
40
0.2624672000000003
50
-90.48476179493518
0
LINE
8
Modules
10
-7.6377656802
20
-14.8745091720
11
-13.2466893456
21
-14.8270526786
62
254
0
LINE
8
Modules
10
-13.2466893456
20
-14.8270526786
11
-13.2754742226
21
-18.2291619879
62
254
0
LINE
8
Modules
10
-13.2754742226
20
-18.2291619879
11
-7.6665505572
21
-18.2766184813
62
254
0
LINE
8
Modules
10
-7.6665505572
20
-18.2766184813
11
-7.6377656802
21
-14.8745091720
62
254
0
LINE
8
Modules
10
-10.8632405435
20
-16.1382755286
11
-10.8701800028
21
-16.9584561721
62
254
0
LINE
8
Modules
10
-10.8701800028
20
-16.9584561721
11
-10.0499993593
21
-16.9653956314
62
254
0
LINE
8
Modules
10
-10.0499993593
20
-16.9653956314
11
-10.0430599000
21
-16.1452149878
62
254
0
LINE
8
Modules
10
-10.0430599000
20
-16.1452149878
11
-10.8632405435
21
-16.1382755286
62
254
0
LINE
8
Modules
10
-10.8632405435
20
-16.1382755286
11
-10.0499993593
21
-16.9653956314
62
254
0
TEXT
8
Modules
100
AcDbText
10
-10.3551449121
20
-16.1917888319
1
DC
7
NewTextStyle_4
40
0.2624672000000003
50
-90.48476179493518
0
TEXT
8
Modules
100
AcDbText
10
-10.8168054886
20
-16.4667641535
1
AC
7
NewTextStyle_4
40
0.2624672000000003
50
-90.48476179493518
0
LINE
8
Buildings
10
51.7835415252
20
18.2553823130
11
-12.2698312786
21
18.7990376053
62
252
0
LINE
8
Buildings
10
-12.2698312786
20
18.7990376053
11
-12.3209676280
21
9.5566363837
62
252
0
LINE
8
Buildings
10
-12.3209676280
20
9.5566363837
11
-6.2187123435
21
9.5228738310
62
252
0
LINE
8
Buildings
10
-6.2187123435
20
9.5228738310
11
-6.3887984825
21
-21.2185529231
62
252
0
LINE
8
Buildings
10
-6.3887984825
20
-21.2185529231
11
52.6543273296
21
-21.7721759185
62
252
0
LINE
8
Buildings
10
52.6543273296
20
-21.7721759185
11
52.3435325856
21
-7.4858213938
62
252
0
LINE
8
Buildings
10
52.3435325856
20
-7.4858213938
11
42.9330193819
21
-7.2740687071
62
252
0
LINE
8
Buildings
10
42.9330193819
20
-7.2740687071
11
43.2003492641
21
4.6063537981
62
252
0
LINE
8
Buildings
10
43.2003492641
20
4.6063537981
11
52.0848205611
21
4.4064379564
62
252
0
LINE
8
Buildings
10
52.0848205611
20
4.4064379564
11
51.7835415252
21
18.2553823130
62
252
0
LINE
8
Buildings
10
53.4436375204
20
4.1915459011
11
53.4477828554
21
4.3757689672
62
252
0
LINE
8
Buildings
10
53.4477828554
20
4.3757689672
11
43.2003492641
21
4.6063537981
62
252
0
LINE
8
Buildings
10
43.2003492641
20
4.6063537981
11
43.1963434010
21
4.4283290095
62
252
0
LINE
8
Buildings
10
43.1963434010
20
4.4283290095
11
48.2077971840
21
-0.8138490763
62
252
0
LINE
8
Buildings
10
48.2077971840
20
-0.8138490763
11
53.4436375204
21
4.1915459011
62
252
0
LINE
8
Buildings
10
53.1805924451
20
-7.4984552605
11
48.1751974677
21
-2.2626149241
62
252
0
LINE
8
Buildings
10
48.1751974677
20
-2.2626149241
11
42.9330193819
21
-7.2740687071
62
252
0
LINE
8
Buildings
10
42.9330193819
20
-7.2740687071
11
53.1804529732
21
-7.5046535380
62
252
0
LINE
8
Buildings
10
53.1804529732
20
-7.5046535380
11
53.1805924451
21
-7.4984552605
62
252
0
LINE
8
Buildings
10
48.2077971840
20
-0.8138490763
11
43.1963434010
21
4.4283290095
62
252
0
LINE
8
Buildings
10
43.1963434010
20
4.4283290095
11
42.9330193819
21
-7.2740687071
62
252
0
LINE
8
Buildings
10
42.9330193819
20
-7.2740687071
11
48.1751974677
21
-2.2626149241
62
252
0
LINE
8
Buildings
10
48.1751974677
20
-2.2626149241
11
48.2077971840
21
-0.8138490763
62
252
0
LINE
8
Buildings
10
53.1805924451
20
-7.4984552605
11
53.4436375204
21
4.1915459011
62
252
0
LINE
8
Buildings
10
53.4436375204
20
4.1915459011
11
48.2077971840
21
-0.8138490763
62
252
0
LINE
8
Buildings
10
48.2077971840
20
-0.8138490763
11
48.1751974677
21
-2.2626149241
62
252
0
LINE
8
Buildings
10
48.1751974677
20
-2.2626149241
11
53.1805924451
21
-7.4984552605
62
252
0
LINE
8
Buildings
10
-13.3633186217
20
-22.0676138980
11
-6.5532974569
21
-22.1252327468
62
252
0
LINE
8
Buildings
10
-6.5532974569
20
-22.1252327468
11
-6.2879606684
21
9.2351498903
62
252
0
LINE
8
Buildings
10
-6.2879606684
20
9.2351498903
11
-13.0979818332
21
9.2927687391
62
252
0
LINE
8
Buildings
10
-13.0979818332
20
9.2927687391
11
-13.3633186217
21
-22.0676138980
62
252
0
LINE
8
Setbacks
10
-2.3635148519
20
-17.2528394109
11
8.8168872513
21
-17.3576732800
62
2
0
LINE
8
Setbacks
10
8.8168872513
20
-17.3576732800
11
8.8417045597
21
-17.3450284670
62
2
0
LINE
8
Setbacks
10
8.8417045597
20
-17.3450284670
11
8.9324788915
21
-17.2715207447
62
2
0
LINE
8
Setbacks
10
8.9324788915
20
-17.2715207447
11
8.9329031735
21
-17.2712291436
62
2
0
LINE
8
Setbacks
10
8.9329031735
20
-17.2712291436
11
8.9333678485
21
-17.2710075054
62
2
0
LINE
8
Setbacks
10
8.9333678485
20
-17.2710075054
11
9.0495087124
21
-17.2264253523
62
2
0
LINE
8
Setbacks
10
9.0495087124
20
-17.2264253523
11
9.1461878866
21
-17.1481358992
62
2
0
LINE
8
Setbacks
10
9.1461878866
20
-17.1481358992
11
9.1466121675
21
-17.1478442984
62
2
0
LINE
8
Setbacks
10
9.1466121675
20
-17.1478442984
11
9.1470768414
21
-17.1476226602
62
2
0
LINE
8
Setbacks
10
9.1470768414
20
-17.1476226602
11
9.2561233564
21
-17.1057636235
62
2
0
LINE
8
Setbacks
10
9.2561233564
20
-17.1057636235
11
9.4061806188
21
-17.0083152736
62
2
0
LINE
8
Setbacks
10
9.4061806188
20
-17.0083152736
11
9.4066330542
21
-17.0080696211
62
2
0
LINE
8
Setbacks
10
9.4066330542
20
-17.0080696211
11
9.5199716405
21
-16.9576080053
62
2
0
LINE
8
Setbacks
10
9.5199716405
20
-16.9576080053
11
9.5204569360
21
-16.9574361532
62
2
0
LINE
8
Setbacks
10
9.5204569360
20
-16.9574361532
11
9.6932836377
21
-16.9111274344
62
2
0
LINE
8
Setbacks
10
9.6932836377
20
-16.9111274344
11
9.7973566441
21
-16.8580995993
62
2
0
LINE
8
Setbacks
10
9.7973566441
20
-16.8580995993
11
9.7978322779
21
-16.8579025853
62
2
0
LINE
8
Setbacks
10
9.7978322779
20
-16.8579025853
11
9.7983328755
21
-16.8577824022
62
2
0
LINE
8
Setbacks
10
9.7983328755
20
-16.8577824022
11
9.9212044873
21
-16.8383213675
62
2
0
LINE
8
Setbacks
10
9.9212044873
20
-16.8383213675
11
10.0320489097
21
-16.7818433629
62
2
0
LINE
8
Setbacks
10
10.0320489097
20
-16.7818433629
11
10.0325245451
21
-16.7816463485
62
2
0
LINE
8
Setbacks
10
10.0325245451
20
-16.7816463485
11
10.0330251444
21
-16.7815261655
62
2
0
LINE
8
Setbacks
10
10.0330251444
20
-16.7815261655
11
10.1483915828
21
-16.7632539928
62
2
0
LINE
8
Setbacks
10
10.1483915828
20
-16.7632539928
11
10.3154302242
21
-16.6991338011
62
2
0
LINE
8
Setbacks
10
10.3154302242
20
-16.6991338011
11
10.3159238457
21
-16.6989875835
62
2
0
LINE
8
Setbacks
10
10.3159238457
20
-16.6989875835
11
10.4372775241
21
-16.6731929632
62
2
0
LINE
8
Setbacks
10
10.4372775241
20
-16.6731929632
11
10.4377879447
21
-16.6731257648
62
2
0
LINE
8
Setbacks
10
10.4377879447
20
-16.6731257648
11
10.6164659040
21
-16.6637615937
62
2
0
LINE
8
Setbacks
10
10.6164659040
20
-16.6637615937
11
10.7292896528
21
-16.6335306308
62
2
0
LINE
8
Setbacks
10
10.7292896528
20
-16.6335306308
11
10.7297958559
21
-16.6334368119
62
2
0
LINE
8
Setbacks
10
10.7297958559
20
-16.6334368119
11
10.7303105034
21
-16.6334233358
62
2
0
LINE
8
Setbacks
10
10.7303105034
20
-16.6334233358
11
10.8545432227
21
-16.6399341976
62
2
0
LINE
8
Setbacks
10
10.8545432227
20
-16.6399341976
11
10.9747079624
21
-16.6077360119
62
2
0
LINE
8
Setbacks
10
10.9747079624
20
-16.6077360119
11
10.9752141681
21
-16.6076421919
62
2
0
LINE
8
Setbacks
10
10.9752141681
20
-16.6076421919
11
10.9757288182
21
-16.6076287155
62
2
0
LINE
8
Setbacks
10
10.9757288182
20
-16.6076287155
11
11.0923736356
21
-16.6137419019
62
2
0
LINE
8
Setbacks
10
11.0923736356
20
-16.6137419019
11
11.2690930939
21
-16.5857522096
62
2
0
LINE
8
Setbacks
10
11.2690930939
20
-16.5857522096
11
11.2696063318
21
-16.5857118168
62
2
0
LINE
8
Setbacks
10
11.2696063318
20
-16.5857118168
11
11.3936709683
21
-16.5857118168
62
2
0
LINE
8
Setbacks
10
11.3936709683
20
-16.5857118168
11
11.3941842061
21
-16.5857522096
62
2
0
LINE
8
Setbacks
10
11.3941842061
20
-16.5857522096
11
11.5709036645
21
-16.6137419019
62
2
0
LINE
8
Setbacks
10
11.5709036645
20
-16.6137419019
11
11.6875484818
21
-16.6076287155
62
2
0
LINE
8
Setbacks
10
11.6875484818
20
-16.6076287155
11
11.6880631320
21
-16.6076421919
62
2
0
LINE
8
Setbacks
10
11.6880631320
20
-16.6076421919
11
11.6885693376
21
-16.6077360119
62
2
0
LINE
8
Setbacks
10
11.6885693376
20
-16.6077360119
11
11.8087340773
21
-16.6399341976
62
2
0
LINE
8
Setbacks
10
11.8087340773
20
-16.6399341976
11
11.9329667967
21
-16.6334233358
62
2
0
LINE
8
Setbacks
10
11.9329667967
20
-16.6334233358
11
11.9334814441
21
-16.6334368119
62
2
0
LINE
8
Setbacks
10
11.9334814441
20
-16.6334368119
11
11.9339876473
21
-16.6335306308
62
2
0
LINE
8
Setbacks
10
11.9339876473
20
-16.6335306308
11
12.0468113959
21
-16.6637615936
62
2
0
LINE
8
Setbacks
10
12.0468113959
20
-16.6637615936
11
12.2254896831
21
-16.6731257648
62
2
0
LINE
8
Setbacks
10
12.2254896831
20
-16.6731257648
11
12.2260001040
21
-16.6731929632
62
2
0
LINE
8
Setbacks
10
12.2260001040
20
-16.6731929632
11
12.3473537824
21
-16.6989875835
62
2
0
LINE
8
Setbacks
10
12.3473537824
20
-16.6989875835
11
12.3478474039
21
-16.6991338011
62
2
0
LINE
8
Setbacks
10
12.3478474039
20
-16.6991338011
11
12.5148860454
21
-16.7632539928
62
2
0
LINE
8
Setbacks
10
12.5148860454
20
-16.7632539928
11
12.6302524837
21
-16.7815261655
62
2
0
LINE
8
Setbacks
10
12.6302524837
20
-16.7815261655
11
12.6307530831
21
-16.7816463485
62
2
0
LINE
8
Setbacks
10
12.6307530831
20
-16.7816463485
11
12.6312287184
21
-16.7818433629
62
2
0
LINE
8
Setbacks
10
12.6312287184
20
-16.7818433629
11
12.7420731409
21
-16.8383213675
62
2
0
LINE
8
Setbacks
10
12.7420731409
20
-16.8383213675
11
12.8649447526
21
-16.8577824022
62
2
0
LINE
8
Setbacks
10
12.8649447526
20
-16.8577824022
11
12.8654453483
21
-16.8579025847
62
2
0
LINE
8
Setbacks
10
12.8654453483
20
-16.8579025847
11
12.8659209803
21
-16.8580995974
62
2
0
LINE
8
Setbacks
10
12.8659209803
20
-16.8580995974
11
12.9699943178
21
-16.9111274346
62
2
0
LINE
8
Setbacks
10
12.9699943178
20
-16.9111274346
11
13.1428203670
21
-16.9574361540
62
2
0
LINE
8
Setbacks
10
13.1428203670
20
-16.9574361540
11
13.1433056563
21
-16.9576080039
62
2
0
LINE
8
Setbacks
10
13.1433056563
20
-16.9576080039
11
13.2566445707
21
-17.0080696197
62
2
0
LINE
8
Setbacks
10
13.2566445707
20
-17.0080696197
11
13.2570970108
21
-17.0083152745
62
2
0
LINE
8
Setbacks
10
13.2570970108
20
-17.0083152745
11
13.4071545998
21
-17.1057639513
62
2
0
LINE
8
Setbacks
10
13.4071545998
20
-17.1057639513
11
13.5162004568
21
-17.1476226595
62
2
0
LINE
8
Setbacks
10
13.5162004568
20
-17.1476226595
11
13.5166651287
21
-17.1478442963
62
2
0
LINE
8
Setbacks
10
13.5166651287
20
-17.1478442963
11
13.5170894082
21
-17.1481358950
62
2
0
LINE
8
Setbacks
10
13.5170894082
20
-17.1481358950
11
13.6137685864
21
-17.2264250246
62
2
0
LINE
8
Setbacks
10
13.6137685864
20
-17.2264250246
11
13.7299097843
21
-17.2710075071
62
2
0
LINE
8
Setbacks
10
13.7299097843
20
-17.2710075071
11
13.7303744568
21
-17.2712291448
62
2
0
LINE
8
Setbacks
10
13.7303744568
20
-17.2712291448
11
13.7307987366
21
-17.2715207447
62
2
0
LINE
8
Setbacks
10
13.7307987366
20
-17.2715207447
11
13.8215730753
21
-17.3450284726
62
2
0
LINE
8
Setbacks
10
13.8215730753
20
-17.3450284726
11
13.9406815176
21
-17.4057169236
62
2
0
LINE
8
Setbacks
10
13.9406815176
20
-17.4057169236
11
48.5621708428
21
-17.7303485703
62
2
0
LINE
8
Setbacks
10
48.5621708428
20
-17.7303485703
11
48.4244980862
21
-11.4019305649
62
2
0
LINE
8
Setbacks
10
48.4244980862
20
-11.4019305649
11
42.8429613578
21
-11.2763364728
62
2
0
LINE
8
Setbacks
10
42.8429613578
20
-11.2763364728
11
42.8424491603
21
-11.2762845448
62
2
0
LINE
8
Setbacks
10
42.8424491603
20
-11.2762845448
11
41.6110980710
21
-11.0527536977
62
2
0
LINE
8
Setbacks
10
41.6110980710
20
-11.0527536977
11
41.6106003022
21
-11.0526222835
62
2
0
LINE
8
Setbacks
10
41.6106003022
20
-11.0526222835
11
41.6101292194
21
-11.0524146189
62
2
0
LINE
8
Setbacks
10
41.6101292194
20
-11.0524146189
11
40.5081196697
21
-10.4593155185
62
2
0
LINE
8
Setbacks
10
40.5081196697
20
-10.4593155185
11
40.5076868731
21
-10.4590367173
62
2
0
LINE
8
Setbacks
10
40.5076868731
20
-10.4590367173
11
40.5073030190
21
-10.4586936443
62
2
0
LINE
8
Setbacks
10
40.5073030190
20
-10.4586936443
11
39.6425073876
21
-9.5540833791
62
2
0
LINE
8
Setbacks
10
39.6425073876
20
-9.5540833791
11
39.6421819276
21
-9.5536844816
62
2
0
LINE
8
Setbacks
10
39.6421819276
20
-9.5536844816
11
39.6419228759
21
-9.5532395820
62
2
0
LINE
8
Setbacks
10
39.6419228759
20
-9.5532395820
11
39.0989933966
21
-8.4256673674
62
2
0
LINE
8
Setbacks
10
39.0989933966
20
-8.4256673674
11
39.0988071321
21
-8.4251874212
62
2
0
LINE
8
Setbacks
10
39.0988071321
20
-8.4251874212
11
39.0986982409
21
-8.4246842458
62
2
0
LINE
8
Setbacks
10
39.0986982409
20
-8.4246842458
11
38.9307802565
21
-7.1845247573
62
2
0
LINE
8
Setbacks
10
38.9307802565
20
-7.1845247573
11
38.9307514199
21
-7.1840107416
62
2
0
LINE
8
Setbacks
10
38.9307514199
20
-7.1840107416
11
39.1980814809
21
4.6964115546
62
2
0
LINE
8
Setbacks
10
39.1980814809
20
4.6964115546
11
39.1981334090
21
4.6969237520
62
2
0
LINE
8
Setbacks
10
39.1981334090
20
4.6969237520
11
39.4216642561
21
5.9282748413
62
2
0
LINE
8
Setbacks
10
39.4216642561
20
5.9282748413
11
39.4217956703
21
5.9287726102
62
2
0
LINE
8
Setbacks
10
39.4217956703
20
5.9287726102
11
39.4220033349
21
5.9292436929
62
2
0
LINE
8
Setbacks
10
39.4220033349
20
5.9292436929
11
40.0151024352
21
7.0312532426
62
2
0
LINE
8
Setbacks
10
40.0151024352
20
7.0312532426
11
40.0153812363
21
7.0316860390
62
2
0
LINE
8
Setbacks
10
40.0153812363
20
7.0316860390
11
40.0157243091
21
7.0320698929
62
2
0
LINE
8
Setbacks
10
40.0157243091
20
7.0320698929
11
40.9203345742
21
7.8968658524
62
2
0
LINE
8
Setbacks
10
40.9203345742
20
7.8968658524
11
40.9207334719
21
7.8971913126
62
2
0
LINE
8
Setbacks
10
40.9207334719
20
7.8971913126
11
40.9211783718
21
7.8974503645
62
2
0
LINE
8
Setbacks
10
40.9211783718
20
7.8974503645
11
42.0487505864
21
8.4403798438
62
2
0
LINE
8
Setbacks
10
42.0487505864
20
8.4403798438
11
42.0492305325
21
8.4405661083
62
2
0
LINE
8
Setbacks
10
42.0492305325
20
8.4405661083
11
42.0497337079
21
8.4406749995
62
2
0
LINE
8
Setbacks
10
42.0497337079
20
8.4406749995
11
43.2898931964
21
8.6085929839
62
2
0
LINE
8
Setbacks
10
43.2898931964
20
8.6085929839
11
43.2904072121
21
8.6086218205
62
2
0
LINE
8
Setbacks
10
43.2904072121
20
8.6086218205
11
47.9914766102
21
8.5028397113
62
2
0
LINE
8
Setbacks
10
47.9914766102
20
8.5028397113
11
47.8656830873
21
14.2852103338
62
2
0
LINE
8
Setbacks
10
47.8656830873
20
14.2852103338
11
-8.2888262636
21
14.7618237128
62
2
0
LINE
8
Setbacks
10
-8.2888262636
20
14.7618237128
11
-8.2955989619
21
13.5377069688
62
2
0
LINE
8
Setbacks
10
-8.2955989619
20
13.5377069688
11
-6.1965634114
21
13.5260935585
62
2
0
LINE
8
Setbacks
10
-6.1965634114
20
13.5260935585
11
-6.1960504056
21
13.5260503268
62
2
0
LINE
8
Setbacks
10
-6.1960504056
20
13.5260503268
11
-4.9610844869
21
13.3234404122
62
2
0
LINE
8
Setbacks
10
-4.9610844869
20
13.3234404122
11
-4.9605845612
21
13.3233174614
62
2
0
LINE
8
Setbacks
10
-4.9605845612
20
13.3233174614
11
-4.9601100241
21
13.3231178187
62
2
0
LINE
8
Setbacks
10
-4.9601100241
20
13.3231178187
11
-3.8481972589
21
12.7487992308
62
2
0
LINE
8
Setbacks
10
-3.8481972589
20
12.7487992308
11
-3.8477597941
21
12.7485278115
62
2
0
LINE
8
Setbacks
10
-3.8477597941
20
12.7485278115
11
-3.8473701747
21
12.7481912992
62
2
0
LINE
8
Setbacks
10
-3.8473701747
20
12.7481912992
11
-2.9673527581
21
11.8583815594
62
2
0
LINE
8
Setbacks
10
-2.9673527581
20
11.8583815594
11
-2.9670205783
21
11.8579882409
62
2
0
LINE
8
Setbacks
10
-2.9670205783
20
11.8579882409
11
-2.9667540167
21
11.8575478005
62
2
0
LINE
8
Setbacks
10
-2.9667540167
20
11.8575478005
11
-2.4047740118
21
10.7393486177
62
2
0
LINE
8
Setbacks
10
-2.4047740118
20
10.7393486177
11
-2.4045796319
21
10.7388719000
62
2
0
LINE
8
Setbacks
10
-2.4045796319
20
10.7388719000
11
-2.4044622202
21
10.7383706436
62
2
0
LINE
8
Setbacks
10
-2.4044622202
20
10.7383706436
11
-2.2155301275
21
9.5012383862
62
2
0
LINE
8
Setbacks
10
-2.2155301275
20
9.5012383862
11
-2.2154925752
21
9.5007249342
62
2
0
LINE
8
Setbacks
10
-2.2154925752
20
9.5007249342
11
-2.3635148519
21
-17.2528394109
62
2
0
LINE
8
Setbacks
10
12.6972557876
20
7.4328686658
11
12.6907449254
21
7.3086359400
62
2
0
LINE
8
Setbacks
10
12.6907449254
20
7.3086359400
11
12.6906777273
21
7.3081255223
62
2
0
LINE
8
Setbacks
10
12.6906777273
20
7.3081255223
11
12.6905315098
21
7.3076319006
62
2
0
LINE
8
Setbacks
10
12.6905315098
20
7.3076319006
11
12.6486724730
21
7.1985853853
62
2
0
LINE
8
Setbacks
10
12.6486724730
20
7.1985853853
11
12.6206827802
21
7.0218655967
62
2
0
LINE
8
Setbacks
10
12.6206827802
20
7.0218655967
11
12.6205625957
21
7.0213649940
62
2
0
LINE
8
Setbacks
10
12.6205625957
20
7.0213649940
11
12.5822243399
21
6.9033725361
62
2
0
LINE
8
Setbacks
10
12.5822243399
20
6.9033725361
11
12.5820273256
21
6.9028969031
62
2
0
LINE
8
Setbacks
10
12.5820273256
20
6.9028969031
11
12.5007983760
21
6.7434764570
62
2
0
LINE
8
Setbacks
10
12.5007983760
20
6.7434764570
11
12.4705670861
21
6.6306510731
62
2
0
LINE
8
Setbacks
10
12.4705670861
20
6.6306510731
11
12.4703952340
21
6.6301657762
62
2
0
LINE
8
Setbacks
10
12.4703952340
20
6.6301657762
11
12.4701495802
21
6.6297133379
62
2
0
LINE
8
Setbacks
10
12.4701495802
20
6.6297133379
11
12.4023945343
21
6.5253797807
62
2
0
LINE
8
Setbacks
10
12.4023945343
20
6.5253797807
11
12.3701966755
21
6.4052153680
62
2
0
LINE
8
Setbacks
10
12.3701966755
20
6.4052153680
11
12.3700248229
21
6.4047300710
62
2
0
LINE
8
Setbacks
10
12.3700248229
20
6.4047300710
11
12.3697791685
21
6.4042776327
62
2
0
LINE
8
Setbacks
10
12.3697791685
20
6.4042776327
11
12.3061625146
21
6.3063168309
62
2
0
LINE
8
Setbacks
10
12.3061625146
20
6.3063168309
11
12.2420426512
21
6.1392785190
62
2
0
LINE
8
Setbacks
10
12.2420426512
20
6.1392785190
11
12.2418210120
21
6.1388138428
62
2
0
LINE
8
Setbacks
10
12.2418210120
20
6.1388138428
11
12.1797885297
21
6.0313705979
62
2
0
LINE
8
Setbacks
10
12.1797885297
20
6.0313705979
11
12.1794969311
21
6.0309463197
62
2
0
LINE
8
Setbacks
10
12.1794969311
20
6.0309463197
11
12.0668983199
21
5.8918986824
62
2
0
LINE
8
Setbacks
10
12.0668983199
20
5.8918986824
11
12.0138695007
21
5.7878237078
62
2
0
LINE
8
Setbacks
10
12.0138695007
20
5.7878237078
11
12.0136005042
21
5.7873847458
62
2
0
LINE
8
Setbacks
10
12.0136005042
20
5.7873847458
11
12.0132661504
21
5.7869932689
62
2
0
LINE
8
Setbacks
10
12.0132661504
20
5.7869932689
11
11.9252992714
21
5.6990267166
62
2
0
LINE
8
Setbacks
10
11.9252992714
20
5.6990267166
11
11.8688215977
21
5.5881826291
62
2
0
LINE
8
Setbacks
10
11.8688215977
20
5.5881826291
11
11.8685526024
21
5.5877436675
62
2
0
LINE
8
Setbacks
10
11.8685526024
20
5.5877436675
11
11.8682182498
21
5.5873521907
62
2
0
LINE
8
Setbacks
10
11.8682182498
20
5.5873521907
11
11.7856241524
21
5.5047580932
62
2
0
LINE
8
Setbacks
10
11.7856241524
20
5.5047580932
11
11.6881764585
21
5.3547018148
62
2
0
LINE
8
Setbacks
10
11.6881764585
20
5.3547018148
11
11.6878630562
21
5.3542933806
62
2
0
LINE
8
Setbacks
10
11.6878630562
20
5.3542933806
11
11.6048476336
21
5.2620952149
62
2
0
LINE
8
Setbacks
10
11.6048476336
20
5.2620952149
11
11.6044741913
21
5.2617408310
62
2
0
LINE
8
Setbacks
10
11.6044741913
20
5.2617408310
11
11.4654252407
21
5.1491412347
62
2
0
LINE
8
Setbacks
10
11.4654252407
20
5.1491412347
11
11.3919178374
21
5.0583672200
62
2
0
LINE
8
Setbacks
10
11.3919178374
20
5.0583672200
11
11.3915634578
21
5.0579937818
62
2
0
LINE
8
Setbacks
10
11.3915634578
20
5.0579937818
11
11.3911550227
21
5.0576803782
62
2
0
LINE
8
Setbacks
10
11.3911550227
20
5.0576803782
11
11.2868221182
21
4.9899256585
62
2
0
LINE
8
Setbacks
10
11.2868221182
20
4.9899256585
11
11.2085320047
21
4.8932454955
62
2
0
LINE
8
Setbacks
10
11.2085320047
20
4.8932454955
11
11.2081776236
21
4.8928720560
62
2
0
LINE
8
Setbacks
10
11.2081776236
20
4.8928720560
11
11.2077691866
21
4.8925586515
62
2
0
LINE
8
Setbacks
10
11.2077691866
20
4.8925586515
11
11.1098080548
21
4.8289419957
62
2
0
LINE
8
Setbacks
10
11.1098080548
20
4.8289419957
11
10.9832910561
21
4.7024249970
62
2
0
LINE
8
Setbacks
10
10.9832910561
20
4.7024249970
11
10.9828995788
21
4.7020906441
62
2
0
LINE
8
Setbacks
10
10.9828995788
20
4.7020906441
11
10.8825291688
21
4.6291674134
62
2
0
LINE
8
Setbacks
10
10.8825291688
20
4.6291674134
11
10.8820902145
21
4.6288984219
62
2
0
LINE
8
Setbacks
10
10.8820902145
20
4.6288984219
11
10.7226691055
21
4.5476691408
62
2
0
LINE
8
Setbacks
10
10.7226691055
20
4.5476691408
11
10.6318947605
21
4.4741617349
62
2
0
LINE
8
Setbacks
10
10.6318947605
20
4.4741617349
11
10.6314704850
21
4.4738701388
62
2
0
LINE
8
Setbacks
10
10.6314704850
20
4.4738701388
11
10.6310058177
21
4.4736485034
62
2
0
LINE
8
Setbacks
10
10.6310058177
20
4.4736485034
11
10.5148659285
21
4.4290663482
62
2
0
LINE
8
Setbacks
10
10.5148659285
20
4.4290663482
11
10.4181857635
21
4.3507765598
62
2
0
LINE
8
Setbacks
10
10.4181857635
20
4.3507765598
11
10.4177614853
21
4.3504849623
62
2
0
LINE
8
Setbacks
10
10.4177614853
20
4.3504849623
11
10.4172968150
21
4.3502633263
62
2
0
LINE
8
Setbacks
10
10.4172968150
20
4.3502633263
11
10.3082493163
21
4.3084039616
62
2
0
LINE
8
Setbacks
10
10.3082493163
20
4.3084039616
11
10.1581930385
21
4.2109562681
62
2
0
LINE
8
Setbacks
10
10.1581930385
20
4.2109562681
11
10.1577406033
21
4.2107106158
62
2
0
LINE
8
Setbacks
10
10.1577406033
20
4.2107106158
11
10.0444020170
21
4.1602490000
62
2
0
LINE
8
Setbacks
10
10.0444020170
20
4.1602490000
11
10.0439167234
21
4.1600771484
62
2
0
LINE
8
Setbacks
10
10.0439167234
20
4.1600771484
11
9.8710916610
21
4.1137687576
62
2
0
LINE
8
Setbacks
10
9.8710916610
20
4.1137687576
11
9.7670173412
21
4.0607402658
62
2
0
LINE
8
Setbacks
10
9.7670173412
20
4.0607402658
11
9.7665417070
21
4.0605432516
62
2
0
LINE
8
Setbacks
10
9.7665417070
20
4.0605432516
11
9.7660411088
21
4.0604230686
62
2
0
LINE
8
Setbacks
10
9.7660411088
20
4.0604230686
11
9.6431691697
21
4.0409620338
62
2
0
LINE
8
Setbacks
10
9.6431691697
20
4.0409620338
11
9.5323247479
21
3.9844840295
62
2
0
LINE
8
Setbacks
10
9.5323247479
20
3.9844840295
11
9.5318491125
21
3.9842870151
62
2
0
LINE
8
Setbacks
10
9.5318491125
20
3.9842870151
11
9.5313485131
21
3.9841668321
62
2
0
LINE
8
Setbacks
10
9.5313485131
20
3.9841668321
11
9.4159820748
21
3.9658946594
62
2
0
LINE
8
Setbacks
10
9.4159820748
20
3.9658946594
11
9.2489434333
21
3.9017744677
62
2
0
LINE
8
Setbacks
10
9.2489434333
20
3.9017744677
11
9.2484498036
21
3.9016282483
62
2
0
LINE
8
Setbacks
10
9.2484498036
20
3.9016282483
11
9.1270961252
21
3.8758339561
62
2
0
LINE
8
Setbacks
10
9.1270961252
20
3.8758339561
11
9.1265857141
21
3.8757667595
62
2
0
LINE
8
Setbacks
10
9.1265857141
20
3.8757667595
11
8.9479090662
21
3.8664025885
62
2
0
LINE
8
Setbacks
10
8.9479090662
20
3.8664025885
11
8.8350840042
21
3.8361712972
62
2
0
LINE
8
Setbacks
10
8.8350840042
20
3.8361712972
11
8.8345778013
21
3.8360774785
62
2
0
LINE
8
Setbacks
10
8.8345778013
20
3.8360774785
11
8.8340631542
21
3.8360640024
62
2
0
LINE
8
Setbacks
10
8.8340631542
20
3.8360640024
11
8.7098304348
21
3.8425748642
62
2
0
LINE
8
Setbacks
10
8.7098304348
20
3.8425748642
11
8.5896656951
21
3.8103766785
62
2
0
LINE
8
Setbacks
10
8.5896656951
20
3.8103766785
11
8.5891594895
21
3.8102828585
62
2
0
LINE
8
Setbacks
10
8.5891594895
20
3.8102828585
11
8.5886448394
21
3.8102693821
62
2
0
LINE
8
Setbacks
10
8.5886448394
20
3.8102693821
11
8.4720000220
21
3.8163825685
62
2
0
LINE
8
Setbacks
10
8.4720000220
20
3.8163825685
11
8.2952805637
21
3.7883928762
62
2
0
LINE
8
Setbacks
10
8.2952805637
20
3.7883928762
11
8.2947673258
21
3.7883524834
62
2
0
LINE
8
Setbacks
10
8.2947673258
20
3.7883524834
11
8.1707026893
21
3.7883524834
62
2
0
LINE
8
Setbacks
10
8.1707026893
20
3.7883524834
11
8.1701894514
21
3.7883928762
62
2
0
LINE
8
Setbacks
10
8.1701894514
20
3.7883928762
11
7.9934699931
21
3.8163825685
62
2
0
LINE
8
Setbacks
10
7.9934699931
20
3.8163825685
11
7.8768251757
21
3.8102693821
62
2
0
LINE
8
Setbacks
10
7.8768251757
20
3.8102693821
11
7.8763105256
21
3.8102828585
62
2
0
LINE
8
Setbacks
10
7.8763105256
20
3.8102828585
11
7.8758043199
21
3.8103766785
62
2
0
LINE
8
Setbacks
10
7.8758043199
20
3.8103766785
11
7.7556395803
21
3.8425748642
62
2
0
LINE
8
Setbacks
10
7.7556395803
20
3.8425748642
11
7.6314068609
21
3.8360640024
62
2
0
LINE
8
Setbacks
10
7.6314068609
20
3.8360640024
11
7.6308922137
21
3.8360774785
62
2
0
LINE
8
Setbacks
10
7.6308922137
20
3.8360774785
11
7.6303860109
21
3.8361712972
62
2
0
LINE
8
Setbacks
10
7.6303860109
20
3.8361712972
11
7.5175609490
21
3.8664025885
62
2
0
LINE
8
Setbacks
10
7.5175609490
20
3.8664025885
11
7.3388839732
21
3.8757667595
62
2
0
LINE
8
Setbacks
10
7.3388839732
20
3.8757667595
11
7.3383735601
21
3.8758339565
62
2
0
LINE
8
Setbacks
10
7.3383735601
20
3.8758339565
11
7.2170202097
21
3.9016282487
62
2
0
LINE
8
Setbacks
10
7.2170202097
20
3.9016282487
11
7.2165265818
21
3.9017744677
62
2
0
LINE
8
Setbacks
10
7.2165265818
20
3.9017744677
11
7.0494879403
21
3.9658946594
62
2
0
LINE
8
Setbacks
10
7.0494879403
20
3.9658946594
11
6.9341215020
21
3.9841668321
62
2
0
LINE
8
Setbacks
10
6.9341215020
20
3.9841668321
11
6.9336209026
21
3.9842870151
62
2
0
LINE
8
Setbacks
10
6.9336209026
20
3.9842870151
11
6.9331452672
21
3.9844840295
62
2
0
LINE
8
Setbacks
10
6.9331452672
20
3.9844840295
11
6.8223008454
21
4.0409620338
62
2
0
LINE
8
Setbacks
10
6.8223008454
20
4.0409620338
11
6.6994289063
21
4.0604230686
62
2
0
LINE
8
Setbacks
10
6.6994289063
20
4.0604230686
11
6.6989283081
21
4.0605432516
62
2
0
LINE
8
Setbacks
10
6.6989283081
20
4.0605432516
11
6.6984526738
21
4.0607402658
62
2
0
LINE
8
Setbacks
10
6.6984526738
20
4.0607402658
11
6.5943783541
21
4.1137687576
62
2
0
LINE
8
Setbacks
10
6.5943783541
20
4.1137687576
11
6.4215532917
21
4.1600771484
62
2
0
LINE
8
Setbacks
10
6.4215532917
20
4.1600771484
11
6.4210680013
21
4.1602489986
62
2
0
LINE
8
Setbacks
10
6.4210680013
20
4.1602489986
11
6.3077290869
21
4.2107106143
62
2
0
LINE
8
Setbacks
10
6.3077290869
20
4.2107106143
11
6.3072766470
21
4.2109562691
62
2
0
LINE
8
Setbacks
10
6.3072766470
20
4.2109562691
11
6.1572200426
21
4.3084042894
62
2
0
LINE
8
Setbacks
10
6.1572200426
20
4.3084042894
11
6.0481732020
21
4.3502633256
62
2
0
LINE
8
Setbacks
10
6.0481732020
20
4.3502633256
11
6.0477085283
21
4.3504849632
62
2
0
LINE
8
Setbacks
10
6.0477085283
20
4.3504849632
11
6.0472842474
21
4.3507765632
62
2
0
LINE
8
Setbacks
10
6.0472842474
20
4.3507765632
11
5.9506044145
21
4.4290663472
62
2
0
LINE
8
Setbacks
10
5.9506044145
20
4.4290663472
11
5.8344638750
21
4.4736485011
62
2
0
LINE
8
Setbacks
10
5.8344638750
20
4.4736485011
11
5.8339992041
21
4.4738701376
62
2
0
LINE
8
Setbacks
10
5.8339992041
20
4.4738701376
11
5.8335749254
21
4.4741617358
62
2
0
LINE
8
Setbacks
10
5.8335749254
20
4.4741617358
11
5.7428002528
21
4.5476694692
62
2
0
LINE
8
Setbacks
10
5.7428002528
20
4.5476694692
11
5.5833798005
21
4.6288984220
62
2
0
LINE
8
Setbacks
10
5.5833798005
20
4.6288984220
11
5.5829408463
21
4.6291674134
62
2
0
LINE
8
Setbacks
10
5.5829408463
20
4.6291674134
11
5.4825704362
21
4.7020906441
62
2
0
LINE
8
Setbacks
10
5.4825704362
20
4.7020906441
11
5.4821789590
21
4.7024249970
62
2
0
LINE
8
Setbacks
10
5.4821789590
20
4.7024249970
11
5.3556619603
21
4.8289419957
62
2
0
LINE
8
Setbacks
10
5.3556619603
20
4.8289419957
11
5.2577008285
21
4.8925586515
62
2
0
LINE
8
Setbacks
10
5.2577008285
20
4.8925586515
11
5.2572923915
21
4.8928720560
62
2
0
LINE
8
Setbacks
10
5.2572923915
20
4.8928720560
11
5.2569380103
21
4.8932454955
62
2
0
LINE
8
Setbacks
10
5.2569380103
20
4.8932454955
11
5.1786478969
21
4.9899256585
62
2
0
LINE
8
Setbacks
10
5.1786478969
20
4.9899256585
11
5.0743149924
21
5.0576803782
62
2
0
LINE
8
Setbacks
10
5.0743149924
20
5.0576803782
11
5.0739065573
21
5.0579937818
62
2
0
LINE
8
Setbacks
10
5.0739065573
20
5.0579937818
11
5.0735521777
21
5.0583672200
62
2
0
LINE
8
Setbacks
10
5.0735521777
20
5.0583672200
11
5.0000447744
21
5.1491412347
62
2
0
LINE
8
Setbacks
10
5.0000447744
20
5.1491412347
11
4.8609958238
21
5.2617408310
62
2
0
LINE
8
Setbacks
10
4.8609958238
20
5.2617408310
11
4.8606223858
21
5.2620952101
62
2
0
LINE
8
Setbacks
10
4.8606223858
20
5.2620952101
11
4.7776066351
21
5.3542933758
62
2
0
LINE
8
Setbacks
10
4.7776066351
20
5.3542933758
11
4.7772932286
21
5.3547018146
62
2
0
LINE
8
Setbacks
10
4.7772932286
20
5.3547018146
11
4.6798448786
21
5.5047590774
62
2
0
LINE
8
Setbacks
10
4.6798448786
20
5.5047590774
11
4.5972517653
21
5.5873521907
62
2
0
LINE
8
Setbacks
10
4.5972517653
20
5.5873521907
11
4.5969174127
21
5.5877436675
62
2
0
LINE
8
Setbacks
10
4.5969174127
20
5.5877436675
11
4.5966484174
21
5.5881826291
62
2
0
LINE
8
Setbacks
10
4.5966484174
20
5.5881826291
11
4.5401707437
21
5.6990267166
62
2
0
LINE
8
Setbacks
10
4.5401707437
20
5.6990267166
11
4.4522038647
21
5.7869932689
62
2
0
LINE
8
Setbacks
10
4.4522038647
20
5.7869932689
11
4.4518695121
21
5.7873847441
62
2
0
LINE
8
Setbacks
10
4.4518695121
20
5.7873847441
11
4.4516005164
21
5.7878237040
62
2
0
LINE
8
Setbacks
10
4.4516005164
20
5.7878237040
11
4.3985720242
21
5.8918976973
62
2
0
LINE
8
Setbacks
10
4.3985720242
20
5.8918976973
11
4.2859727546
21
6.0309463213
62
2
0
LINE
8
Setbacks
10
4.2859727546
20
6.0309463213
11
4.2856811535
21
6.0313706044
62
2
0
LINE
8
Setbacks
10
4.2856811535
20
6.0313706044
11
4.2236489993
21
6.1388138493
62
2
0
LINE
8
Setbacks
10
4.2236489993
20
6.1388138493
11
4.2234273639
21
6.1392785190
62
2
0
LINE
8
Setbacks
10
4.2234273639
20
6.1392785190
11
4.1593075005
21
6.3063168309
62
2
0
LINE
8
Setbacks
10
4.1593075005
20
6.3063168309
11
4.0956908465
21
6.4042776327
62
2
0
LINE
8
Setbacks
10
4.0956908465
20
6.4042776327
11
4.0954451922
21
6.4047300710
62
2
0
LINE
8
Setbacks
10
4.0954451922
20
6.4047300710
11
4.0952733396
21
6.4052153680
62
2
0
LINE
8
Setbacks
10
4.0952733396
20
6.4052153680
11
4.0630754808
21
6.5253797807
62
2
0
LINE
8
Setbacks
10
4.0630754808
20
6.5253797807
11
3.9953204349
21
6.6297133379
62
2
0
LINE
8
Setbacks
10
3.9953204349
20
6.6297133379
11
3.9950747830
21
6.6301657718
62
2
0
LINE
8
Setbacks
10
3.9950747830
20
6.6301657718
11
3.9949029314
21
6.6306510639
62
2
0
LINE
8
Setbacks
10
3.9949029314
20
6.6306510639
11
3.9646716405
21
6.7434751430
62
2
0
LINE
8
Setbacks
10
3.9646716405
20
6.7434751430
11
3.8834423589
21
6.9028969080
62
2
0
LINE
8
Setbacks
10
3.8834423589
20
6.9028969080
11
3.8832453445
21
6.9033725440
62
2
0
LINE
8
Setbacks
10
3.8832453445
20
6.9033725440
11
3.8449074168
21
7.0213650018
62
2
0
LINE
8
Setbacks
10
3.8449074168
20
7.0213650018
11
3.8447872349
21
7.0218655967
62
2
0
LINE
8
Setbacks
10
3.8447872349
20
7.0218655967
11
3.8167975421
21
7.1985853853
62
2
0
LINE
8
Setbacks
10
3.8167975421
20
7.1985853853
11
3.7749385052
21
7.3076319006
62
2
0
LINE
8
Setbacks
10
3.7749385052
20
7.3076319006
11
3.7747922877
21
7.3081255223
62
2
0
LINE
8
Setbacks
10
3.7747922877
20
7.3081255223
11
3.7747250896
21
7.3086359400
62
2
0
LINE
8
Setbacks
10
3.7747250896
20
7.3086359400
11
3.7682142275
21
7.4328686658
62
2
0
LINE
8
Setbacks
10
3.7682142275
20
7.4328686658
11
3.7236320718
21
7.5490095365
62
2
0
LINE
8
Setbacks
10
3.7236320718
20
7.5490095365
11
3.7234858553
21
7.5495031563
62
2
0
LINE
8
Setbacks
10
3.7234858553
20
7.5495031563
11
3.7234186576
21
7.5500135721
62
2
0
LINE
8
Setbacks
10
3.7234186576
20
7.5500135721
11
3.7173054710
21
7.6666580660
62
2
0
LINE
8
Setbacks
10
3.7173054710
20
7.6666580660
11
3.6709970794
21
7.8394837862
62
2
0
LINE
8
Setbacks
10
3.6709970794
20
7.8394837862
11
3.6709032605
21
7.8399899902
62
2
0
LINE
8
Setbacks
10
3.6709032605
20
7.8399899902
11
3.6579350842
21
7.9633751648
62
2
0
LINE
8
Setbacks
10
3.6579350842
20
7.9633751648
11
3.6579216082
21
7.9638898108
62
2
0
LINE
8
Setbacks
10
3.6579216082
20
7.9638898108
11
3.6672857789
21
8.1425664531
62
2
0
LINE
8
Setbacks
10
3.6672857789
20
8.1425664531
11
3.6490132790
21
8.2579335461
62
2
0
LINE
8
Setbacks
10
3.6490132790
20
8.2579335461
11
3.6489728858
21
8.2584467849
62
2
0
LINE
8
Setbacks
10
3.6489728858
20
8.2584467849
11
3.6490132785
21
8.2589600238
62
2
0
LINE
8
Setbacks
10
3.6490132785
20
8.2589600238
11
3.6684743130
21
8.3818319611
62
2
0
LINE
8
Setbacks
10
3.6684743130
20
8.3818319611
11
3.6490132785
21
8.5047038984
62
2
0
LINE
8
Setbacks
10
3.6490132785
20
8.5047038984
11
3.6489728858
21
8.5052171373
62
2
0
LINE
8
Setbacks
10
3.6489728858
20
8.5052171373
11
3.6490132790
21
8.5057303762
62
2
0
LINE
8
Setbacks
10
3.6490132790
20
8.5057303762
11
3.6672857789
21
8.6210974692
62
2
0
LINE
8
Setbacks
10
3.6672857789
20
8.6210974692
11
3.6579216082
21
8.7997741115
62
2
0
LINE
8
Setbacks
10
3.6579216082
20
8.7997741115
11
3.6579350842
21
8.8002887575
62
2
0
LINE
8
Setbacks
10
3.6579350842
20
8.8002887575
11
3.6709032605
21
8.9236739320
62
2
0
LINE
8
Setbacks
10
3.6709032605
20
8.9236739320
11
3.6709970794
21
8.9241801360
62
2
0
LINE
8
Setbacks
10
3.6709970794
20
8.9241801360
11
3.7173054710
21
9.0970058563
62
2
0
LINE
8
Setbacks
10
3.7173054710
20
9.0970058563
11
3.7234186576
21
9.2136503502
62
2
0
LINE
8
Setbacks
10
3.7234186576
20
9.2136503502
11
3.7234858553
21
9.2141607660
62
2
0
LINE
8
Setbacks
10
3.7234858553
20
9.2141607660
11
3.7236320718
21
9.2146543858
62
2
0
LINE
8
Setbacks
10
3.7236320718
20
9.2146543858
11
3.7682142275
21
9.3307952564
62
2
0
LINE
8
Setbacks
10
3.7682142275
20
9.3307952564
11
3.7747250896
21
9.4550279822
62
2
0
LINE
8
Setbacks
10
3.7747250896
20
9.4550279822
11
3.7747922877
21
9.4555384000
62
2
0
LINE
8
Setbacks
10
3.7747922877
20
9.4555384000
11
3.7749385052
21
9.4560320216
62
2
0
LINE
8
Setbacks
10
3.7749385052
20
9.4560320216
11
3.8167975421
21
9.5650785370
62
2
0
LINE
8
Setbacks
10
3.8167975421
20
9.5650785370
11
3.8447872349
21
9.7417983256
62
2
0
LINE
8
Setbacks
10
3.8447872349
20
9.7417983256
11
3.8449074168
21
9.7422989205
62
2
0
LINE
8
Setbacks
10
3.8449074168
20
9.7422989205
11
3.8832453445
21
9.8602913783
62
2
0
LINE
8
Setbacks
10
3.8832453445
20
9.8602913783
11
3.8834423589
21
9.8607670143
62
2
0
LINE
8
Setbacks
10
3.8834423589
20
9.8607670143
11
3.9646716405
21
10.0201887792
62
2
0
LINE
8
Setbacks
10
3.9646716405
20
10.0201887792
11
3.9949029314
21
10.1330128584
62
2
0
LINE
8
Setbacks
10
3.9949029314
20
10.1330128584
11
3.9950747830
21
10.1334981504
62
2
0
LINE
8
Setbacks
10
3.9950747830
20
10.1334981504
11
3.9953204349
21
10.1339505844
62
2
0
LINE
8
Setbacks
10
3.9953204349
20
10.1339505844
11
4.0630754808
21
10.2382841415
62
2
0
LINE
8
Setbacks
10
4.0630754808
20
10.2382841415
11
4.0952733396
21
10.3584485543
62
2
0
LINE
8
Setbacks
10
4.0952733396
20
10.3584485543
11
4.0954451922
21
10.3589338513
62
2
0
LINE
8
Setbacks
10
4.0954451922
20
10.3589338513
11
4.0956908465
21
10.3593862896
62
2
0
LINE
8
Setbacks
10
4.0956908465
20
10.3593862896
11
4.1593075005
21
10.4573470914
62
2
0
LINE
8
Setbacks
10
4.1593075005
20
10.4573470914
11
4.2234273639
21
10.6243854032
62
2
0
LINE
8
Setbacks
10
4.2234273639
20
10.6243854032
11
4.2236489993
21
10.6248500729
62
2
0
LINE
8
Setbacks
10
4.2236489993
20
10.6248500729
11
4.2856811535
21
10.7322933178
62
2
0
LINE
8
Setbacks
10
4.2856811535
20
10.7322933178
11
4.2859727576
21
10.7327176046
62
2
0
LINE
8
Setbacks
10
4.2859727576
20
10.7327176046
11
4.3985723507
21
10.8717662238
62
2
0
LINE
8
Setbacks
10
4.3985723507
20
10.8717662238
11
4.4516005127
21
10.9758402110
62
2
0
LINE
8
Setbacks
10
4.4516005127
20
10.9758402110
11
4.4518695097
21
10.9762791749
62
2
0
LINE
8
Setbacks
10
4.4518695097
20
10.9762791749
11
4.4522038647
21
10.9766706534
62
2
0
LINE
8
Setbacks
10
4.4522038647
20
10.9766706534
11
4.5401707437
21
11.0646372057
62
2
0
LINE
8
Setbacks
10
4.5401707437
20
11.0646372057
11
4.5966484174
21
11.1754812932
62
2
0
LINE
8
Setbacks
10
4.5966484174
20
11.1754812932
11
4.5969174127
21
11.1759202548
62
2
0
LINE
8
Setbacks
10
4.5969174127
20
11.1759202548
11
4.5972517653
21
11.1763117316
62
2
0
LINE
8
Setbacks
10
4.5972517653
20
11.1763117316
11
4.6798448786
21
11.2589048449
62
2
0
LINE
8
Setbacks
10
4.6798448786
20
11.2589048449
11
4.7772932286
21
11.4089621076
62
2
0
LINE
8
Setbacks
10
4.7772932286
20
11.4089621076
11
4.7776066351
21
11.4093705464
62
2
0
LINE
8
Setbacks
10
4.7776066351
20
11.4093705464
11
4.8606223858
21
11.5015687121
62
2
0
LINE
8
Setbacks
10
4.8606223858
20
11.5015687121
11
4.8609958216
21
11.5019230894
62
2
0
LINE
8
Setbacks
10
4.8609958216
20
11.5019230894
11
5.0000441183
21
11.6145223592
62
2
0
LINE
8
Setbacks
10
5.0000441183
20
11.6145223592
11
5.0735521794
21
11.7052970324
62
2
0
LINE
8
Setbacks
10
5.0735521794
20
11.7052970324
11
5.0739065601
21
11.7056704710
62
2
0
LINE
8
Setbacks
10
5.0739065601
20
11.7056704710
11
5.0743149963
21
11.7059838747
62
2
0
LINE
8
Setbacks
10
5.0743149963
20
11.7059838747
11
5.1786482259
21
11.7737385933
62
2
0
LINE
8
Setbacks
10
5.1786482259
20
11.7737385933
11
5.2569380095
21
11.8704184257
62
2
0
LINE
8
Setbacks
10
5.2569380095
20
11.8704184257
11
5.2572923911
21
11.8707918659
62
2
0
LINE
8
Setbacks
10
5.2572923911
20
11.8707918659
11
5.2577008285
21
11.8711052708
62
2
0
LINE
8
Setbacks
10
5.2577008285
20
11.8711052708
11
5.3556619603
21
11.9347219266
62
2
0
LINE
8
Setbacks
10
5.3556619603
20
11.9347219266
11
5.4821789590
21
12.0612389253
62
2
0
LINE
8
Setbacks
10
5.4821789590
20
12.0612389253
11
5.4825704362
21
12.0615732781
62
2
0
LINE
8
Setbacks
10
5.4825704362
20
12.0615732781
11
5.5829408463
21
12.1344965088
62
2
0
LINE
8
Setbacks
10
5.5829408463
20
12.1344965088
11
5.5833798005
21
12.1347655003
62
2
0
LINE
8
Setbacks
10
5.5833798005
20
12.1347655003
11
5.7428002528
21
12.2159944531
62
2
0
LINE
8
Setbacks
10
5.7428002528
20
12.2159944531
11
5.8335749254
21
12.2895021865
62
2
0
LINE
8
Setbacks
10
5.8335749254
20
12.2895021865
11
5.8339992041
21
12.2897937846
62
2
0
LINE
8
Setbacks
10
5.8339992041
20
12.2897937846
11
5.8344638750
21
12.2900154211
62
2
0
LINE
8
Setbacks
10
5.8344638750
20
12.2900154211
11
5.9506044145
21
12.3345975751
62
2
0
LINE
8
Setbacks
10
5.9506044145
20
12.3345975751
11
6.0472842474
21
12.4128873590
62
2
0
LINE
8
Setbacks
10
6.0472842474
20
12.4128873590
11
6.0477085283
21
12.4131789591
62
2
0
LINE
8
Setbacks
10
6.0477085283
20
12.4131789591
11
6.0481732020
21
12.4134005966
62
2
0
LINE
8
Setbacks
10
6.0481732020
20
12.4134005966
11
6.1572200426
21
12.4552596328
62
2
0
LINE
8
Setbacks
10
6.1572200426
20
12.4552596328
11
6.3072766470
21
12.5527076532
62
2
0
LINE
8
Setbacks
10
6.3072766470
20
12.5527076532
11
6.3077290797
21
12.5529533047
62
2
0
LINE
8
Setbacks
10
6.3077290797
20
12.5529533047
11
6.4210679940
21
12.6034152486
62
2
0
LINE
8
Setbacks
10
6.4210679940
20
12.6034152486
11
6.4215532906
21
12.6035871017
62
2
0
LINE
8
Setbacks
10
6.4215532906
20
12.6035871017
11
6.5943793397
21
12.6498958211
62
2
0
LINE
8
Setbacks
10
6.5943793397
20
12.6498958211
11
6.6984526773
21
12.7029236583
62
2
0
LINE
8
Setbacks
10
6.6984526773
20
12.7029236583
11
6.6989283099
21
12.7031206712
62
2
0
LINE
8
Setbacks
10
6.6989283099
20
12.7031206712
11
6.6994289063
21
12.7032408537
62
2
0
LINE
8
Setbacks
10
6.6994289063
20
12.7032408537
11
6.8223008454
21
12.7227018885
62
2
0
LINE
8
Setbacks
10
6.8223008454
20
12.7227018885
11
6.9331452672
21
12.7791798928
62
2
0
LINE
8
Setbacks
10
6.9331452672
20
12.7791798928
11
6.9336209026
21
12.7793769072
62
2
0
LINE
8
Setbacks
10
6.9336209026
20
12.7793769072
11
6.9341215020
21
12.7794970902
62
2
0
LINE
8
Setbacks
10
6.9341215020
20
12.7794970902
11
7.0494879403
21
12.7977692629
62
2
0
LINE
8
Setbacks
10
7.0494879403
20
12.7977692629
11
7.2165265818
21
12.8618894546
62
2
0
LINE
8
Setbacks
10
7.2165265818
20
12.8618894546
11
7.2170202014
21
12.8620356718
62
2
0
LINE
8
Setbacks
10
7.2170202014
20
12.8620356718
11
7.3383735518
21
12.8878302921
62
2
0
LINE
8
Setbacks
10
7.3383735518
20
12.8878302921
11
7.3388839744
21
12.8878974909
62
2
0
LINE
8
Setbacks
10
7.3388839744
20
12.8878974909
11
7.5175622617
21
12.8972616620
62
2
0
LINE
8
Setbacks
10
7.5175622617
20
12.8972616620
11
7.6303860103
21
12.9274926249
62
2
0
LINE
8
Setbacks
10
7.6303860103
20
12.9274926249
11
7.6308922134
21
12.9275864438
62
2
0
LINE
8
Setbacks
10
7.6308922134
20
12.9275864438
11
7.6314068609
21
12.9275999199
62
2
0
LINE
8
Setbacks
10
7.6314068609
20
12.9275999199
11
7.7556395803
21
12.9210890581
62
2
0
LINE
8
Setbacks
10
7.7556395803
20
12.9210890581
11
7.8758043199
21
12.9532872437
62
2
0
LINE
8
Setbacks
10
7.8758043199
20
12.9532872437
11
7.8763105256
21
12.9533810637
62
2
0
LINE
8
Setbacks
10
7.8763105256
20
12.9533810637
11
7.8768251757
21
12.9533945401
62
2
0
LINE
8
Setbacks
10
7.8768251757
20
12.9533945401
11
7.9934699931
21
12.9472813537
62
2
0
LINE
8
Setbacks
10
7.9934699931
20
12.9472813537
11
8.1701894514
21
12.9752710460
62
2
0
LINE
8
Setbacks
10
8.1701894514
20
12.9752710460
11
8.1707026893
21
12.9753114388
62
2
0
LINE
8
Setbacks
10
8.1707026893
20
12.9753114388
11
8.2947673258
21
12.9753114388
62
2
0
LINE
8
Setbacks
10
8.2947673258
20
12.9753114388
11
8.2952805637
21
12.9752710460
62
2
0
LINE
8
Setbacks
10
8.2952805637
20
12.9752710460
11
8.4720000220
21
12.9472813537
62
2
0
LINE
8
Setbacks
10
8.4720000220
20
12.9472813537
11
8.5886448394
21
12.9533945401
62
2
0
LINE
8
Setbacks
10
8.5886448394
20
12.9533945401
11
8.5891594895
21
12.9533810637
62
2
0
LINE
8
Setbacks
10
8.5891594895
20
12.9533810637
11
8.5896656951
21
12.9532872437
62
2
0
LINE
8
Setbacks
10
8.5896656951
20
12.9532872437
11
8.7098304348
21
12.9210890581
62
2
0
LINE
8
Setbacks
10
8.7098304348
20
12.9210890581
11
8.8340631542
21
12.9275999199
62
2
0
LINE
8
Setbacks
10
8.8340631542
20
12.9275999199
11
8.8345778017
21
12.9275864438
62
2
0
LINE
8
Setbacks
10
8.8345778017
20
12.9275864438
11
8.8350840048
21
12.9274926249
62
2
0
LINE
8
Setbacks
10
8.8350840048
20
12.9274926249
11
8.9479077536
21
12.8972616620
62
2
0
LINE
8
Setbacks
10
8.9479077536
20
12.8972616620
11
9.1265857129
21
12.8878974909
62
2
0
LINE
8
Setbacks
10
9.1265857129
20
12.8878974909
11
9.1270961335
21
12.8878302925
62
2
0
LINE
8
Setbacks
10
9.1270961335
20
12.8878302925
11
9.2484498119
21
12.8620356722
62
2
0
LINE
8
Setbacks
10
9.2484498119
20
12.8620356722
11
9.2489434333
21
12.8618894546
62
2
0
LINE
8
Setbacks
10
9.2489434333
20
12.8618894546
11
9.4159820748
21
12.7977692629
62
2
0
LINE
8
Setbacks
10
9.4159820748
20
12.7977692629
11
9.5313485131
21
12.7794970902
62
2
0
LINE
8
Setbacks
10
9.5313485131
20
12.7794970902
11
9.5318491125
21
12.7793769072
62
2
0
LINE
8
Setbacks
10
9.5318491125
20
12.7793769072
11
9.5323247479
21
12.7791798928
62
2
0
LINE
8
Setbacks
10
9.5323247479
20
12.7791798928
11
9.6431691697
21
12.7227018885
62
2
0
LINE
8
Setbacks
10
9.6431691697
20
12.7227018885
11
9.7660411088
21
12.7032408537
62
2
0
LINE
8
Setbacks
10
9.7660411088
20
12.7032408537
11
9.7665417052
21
12.7031206712
62
2
0
LINE
8
Setbacks
10
9.7665417052
20
12.7031206712
11
9.7670173378
21
12.7029236583
62
2
0
LINE
8
Setbacks
10
9.7670173378
20
12.7029236583
11
9.8710906754
21
12.6498958211
62
2
0
LINE
8
Setbacks
10
9.8710906754
20
12.6498958211
11
10.0439167245
21
12.6035871017
62
2
0
LINE
8
Setbacks
10
10.0439167245
20
12.6035871017
11
10.0444020243
21
12.6034152471
62
2
0
LINE
8
Setbacks
10
10.0444020243
20
12.6034152471
11
10.1577406106
21
12.5529533033
62
2
0
LINE
8
Setbacks
10
10.1577406106
20
12.5529533033
11
10.1581930385
21
12.5527076541
62
2
0
LINE
8
Setbacks
10
10.1581930385
20
12.5527076541
11
10.3082493163
21
12.4552599607
62
2
0
LINE
8
Setbacks
10
10.3082493163
20
12.4552599607
11
10.4172968150
21
12.4134005959
62
2
0
LINE
8
Setbacks
10
10.4172968150
20
12.4134005959
11
10.4177614882
21
12.4131789583
62
2
0
LINE
8
Setbacks
10
10.4177614882
20
12.4131789583
11
10.4181857687
21
12.4128873582
62
2
0
LINE
8
Setbacks
10
10.4181857687
20
12.4128873582
11
10.5148659285
21
12.3345972474
62
2
0
LINE
8
Setbacks
10
10.5148659285
20
12.3345972474
11
10.6310058102
21
12.2900154218
62
2
0
LINE
8
Setbacks
10
10.6310058102
20
12.2900154218
11
10.6314704815
21
12.2897937855
62
2
0
LINE
8
Setbacks
10
10.6314704815
20
12.2897937855
11
10.6318947605
21
12.2895021874
62
2
0
LINE
8
Setbacks
10
10.6318947605
20
12.2895021874
11
10.7226691055
21
12.2159947815
62
2
0
LINE
8
Setbacks
10
10.7226691055
20
12.2159947815
11
10.8820902145
21
12.1347655003
62
2
0
LINE
8
Setbacks
10
10.8820902145
20
12.1347655003
11
10.8825291688
21
12.1344965088
62
2
0
LINE
8
Setbacks
10
10.8825291688
20
12.1344965088
11
10.9828995788
21
12.0615732781
62
2
0
LINE
8
Setbacks
10
10.9828995788
20
12.0615732781
11
10.9832910561
21
12.0612389253
62
2
0
LINE
8
Setbacks
10
10.9832910561
20
12.0612389253
11
11.1098080548
21
11.9347219266
62
2
0
LINE
8
Setbacks
10
11.1098080548
20
11.9347219266
11
11.2077691866
21
11.8711052708
62
2
0
LINE
8
Setbacks
10
11.2077691866
20
11.8711052708
11
11.2081776240
21
11.8707918659
62
2
0
LINE
8
Setbacks
10
11.2081776240
20
11.8707918659
11
11.2085320055
21
11.8704184257
62
2
0
LINE
8
Setbacks
10
11.2085320055
20
11.8704184257
11
11.2868217892
21
11.7737385933
62
2
0
LINE
8
Setbacks
10
11.2868217892
20
11.7737385933
11
11.3911550188
21
11.7059838747
62
2
0
LINE
8
Setbacks
10
11.3911550188
20
11.7059838747
11
11.3915634550
21
11.7056704710
62
2
0
LINE
8
Setbacks
10
11.3915634550
20
11.7056704710
11
11.3919178357
21
11.7052970324
62
2
0
LINE
8
Setbacks
10
11.3919178357
20
11.7052970324
11
11.4654258967
21
11.6145223592
62
2
0
LINE
8
Setbacks
10
11.4654258967
20
11.6145223592
11
11.6044741935
21
11.5019230894
62
2
0
LINE
8
Setbacks
10
11.6044741935
20
11.5019230894
11
11.6048476336
21
11.5015687073
62
2
0
LINE
8
Setbacks
10
11.6048476336
20
11.5015687073
11
11.6878630562
21
11.4093705416
62
2
0
LINE
8
Setbacks
10
11.6878630562
20
11.4093705416
11
11.6881764585
21
11.4089621074
62
2
0
LINE
8
Setbacks
10
11.6881764585
20
11.4089621074
11
11.7856241524
21
11.2589058290
62
2
0
LINE
8
Setbacks
10
11.7856241524
20
11.2589058290
11
11.8682182498
21
11.1763117316
62
2
0
LINE
8
Setbacks
10
11.8682182498
20
11.1763117316
11
11.8685526024
21
11.1759202548
62
2
0
LINE
8
Setbacks
10
11.8685526024
20
11.1759202548
11
11.8688215977
21
11.1754812932
62
2
0
LINE
8
Setbacks
10
11.8688215977
20
11.1754812932
11
11.9252992714
21
11.0646372057
62
2
0
LINE
8
Setbacks
10
11.9252992714
20
11.0646372057
11
12.0132661504
21
10.9766706534
62
2
0
LINE
8
Setbacks
10
12.0132661504
20
10.9766706534
11
12.0136005030
21
10.9762791781
62
2
0
LINE
8
Setbacks
10
12.0136005030
20
10.9762791781
11
12.0138694988
21
10.9758402181
62
2
0
LINE
8
Setbacks
10
12.0138694988
20
10.9758402181
11
12.0668983195
21
10.8717655679
62
2
0
LINE
8
Setbacks
10
12.0668983195
20
10.8717655679
11
12.1794969335
21
10.7327175996
62
2
0
LINE
8
Setbacks
10
12.1794969335
20
10.7327175996
11
12.1797885297
21
10.7322933243
62
2
0
LINE
8
Setbacks
10
12.1797885297
20
10.7322933243
11
12.2418210120
21
10.6248500794
62
2
0
LINE
8
Setbacks
10
12.2418210120
20
10.6248500794
11
12.2420426512
21
10.6243854032
62
2
0
LINE
8
Setbacks
10
12.2420426512
20
10.6243854032
11
12.3061625146
21
10.4573470914
62
2
0
LINE
8
Setbacks
10
12.3061625146
20
10.4573470914
11
12.3697791685
21
10.3593862896
62
2
0
LINE
8
Setbacks
10
12.3697791685
20
10.3593862896
11
12.3700248229
21
10.3589338513
62
2
0
LINE
8
Setbacks
10
12.3700248229
20
10.3589338513
11
12.3701966755
21
10.3584485543
62
2
0
LINE
8
Setbacks
10
12.3701966755
20
10.3584485543
11
12.4023945343
21
10.2382841415
62
2
0
LINE
8
Setbacks
10
12.4023945343
20
10.2382841415
11
12.4701495802
21
10.1339505844
62
2
0
LINE
8
Setbacks
10
12.4701495802
20
10.1339505844
11
12.4703952340
21
10.1334981461
62
2
0
LINE
8
Setbacks
10
12.4703952340
20
10.1334981461
11
12.4705670861
21
10.1330128492
62
2
0
LINE
8
Setbacks
10
12.4705670861
20
10.1330128492
11
12.5007983760
21
10.0201874653
62
2
0
LINE
8
Setbacks
10
12.5007983760
20
10.0201874653
11
12.5820273256
21
9.8607670192
62
2
0
LINE
8
Setbacks
10
12.5820273256
20
9.8607670192
11
12.5822243399
21
9.8602913861
62
2
0
LINE
8
Setbacks
10
12.5822243399
20
9.8602913861
11
12.6205625957
21
9.7422989283
62
2
0
LINE
8
Setbacks
10
12.6205625957
20
9.7422989283
11
12.6206827802
21
9.7417983256
62
2
0
LINE
8
Setbacks
10
12.6206827802
20
9.7417983256
11
12.6486724730
21
9.5650785370
62
2
0
LINE
8
Setbacks
10
12.6486724730
20
9.5650785370
11
12.6905315098
21
9.4560320216
62
2
0
LINE
8
Setbacks
10
12.6905315098
20
9.4560320216
11
12.6906777273
21
9.4555384000
62
2
0
LINE
8
Setbacks
10
12.6906777273
20
9.4555384000
11
12.6907449254
21
9.4550279822
62
2
0
LINE
8
Setbacks
10
12.6907449254
20
9.4550279822
11
12.6972557876
21
9.3307952564
62
2
0
LINE
8
Setbacks
10
12.6972557876
20
9.3307952564
11
12.7418379432
21
9.2146543858
62
2
0
LINE
8
Setbacks
10
12.7418379432
20
9.2146543858
11
12.7419841598
21
9.2141607660
62
2
0
LINE
8
Setbacks
10
12.7419841598
20
9.2141607660
11
12.7420513575
21
9.2136503502
62
2
0
LINE
8
Setbacks
10
12.7420513575
20
9.2136503502
11
12.7481645441
21
9.0970058563
62
2
0
LINE
8
Setbacks
10
12.7481645441
20
9.0970058563
11
12.7944729357
21
8.9241801360
62
2
0
LINE
8
Setbacks
10
12.7944729357
20
8.9241801360
11
12.7945667546
21
8.9236739320
62
2
0
LINE
8
Setbacks
10
12.7945667546
20
8.9236739320
11
12.8075349308
21
8.8002887575
62
2
0
LINE
8
Setbacks
10
12.8075349308
20
8.8002887575
11
12.8075484069
21
8.7997741115
62
2
0
LINE
8
Setbacks
10
12.8075484069
20
8.7997741115
11
12.7981842362
21
8.6210974692
62
2
0
LINE
8
Setbacks
10
12.7981842362
20
8.6210974692
11
12.8164567361
21
8.5057303762
62
2
0
LINE
8
Setbacks
10
12.8164567361
20
8.5057303762
11
12.8164971293
21
8.5052171373
62
2
0
LINE
8
Setbacks
10
12.8164971293
20
8.5052171373
11
12.8164567366
21
8.5047038984
62
2
0
LINE
8
Setbacks
10
12.8164567366
20
8.5047038984
11
12.7969957020
21
8.3818319611
62
2
0
LINE
8
Setbacks
10
12.7969957020
20
8.3818319611
11
12.8164567366
21
8.2589600238
62
2
0
LINE
8
Setbacks
10
12.8164567366
20
8.2589600238
11
12.8164971293
21
8.2584467849
62
2
0
LINE
8
Setbacks
10
12.8164971293
20
8.2584467849
11
12.8164567361
21
8.2579335461
62
2
0
LINE
8
Setbacks
10
12.8164567361
20
8.2579335461
11
12.7981842362
21
8.1425664531
62
2
0
LINE
8
Setbacks
10
12.7981842362
20
8.1425664531
11
12.8075484069
21
7.9638898108
62
2
0
LINE
8
Setbacks
10
12.8075484069
20
7.9638898108
11
12.8075349308
21
7.9633751648
62
2
0
LINE
8
Setbacks
10
12.8075349308
20
7.9633751648
11
12.7945667546
21
7.8399899902
62
2
0
LINE
8
Setbacks
10
12.7945667546
20
7.8399899902
11
12.7944729357
21
7.8394837862
62
2
0
LINE
8
Setbacks
10
12.7944729357
20
7.8394837862
11
12.7481645441
21
7.6666580660
62
2
0
LINE
8
Setbacks
10
12.7481645441
20
7.6666580660
11
12.7420513575
21
7.5500135721
62
2
0
LINE
8
Setbacks
10
12.7420513575
20
7.5500135721
11
12.7419841598
21
7.5495031563
62
2
0
LINE
8
Setbacks
10
12.7419841598
20
7.5495031563
11
12.7418379432
21
7.5490095365
62
2
0
LINE
8
Setbacks
10
12.7418379432
20
7.5490095365
11
12.6972557876
21
7.4328686658
62
2
0
CIRCLE
8
Obstructions
10
8.2327349740
20
8.3818320041
40
0.5934494403
62
252
0
CIRCLE
8
Obstructions
10
11.3316387465
20
-21.1791912004
40
0.5934494403
62
252
0
CIRCLE
8
Obstructions
10
-1.7238742373
20
-22.5670326661
40
0.5934494403
62
252
0
ENDSEC
0
EOF