999
Design created by Aurora
0
SECTION
2
HEADER
9
$ACADVER
1
AC1009
9
$INSUNITS
70
2
0
ENDSEC
0
SECTION
2
TABLES
0
TABLE
2
LTYPE
100
AcDbLinetypeTableRecord
2
LTYPE
0
LTYPE
2
DASHED
70
0
3
dashed line
72
65
73
2
40
4.0
49
2.0
49
-2.0
0
ENDTAB
0
TABLE
2
LAYER
70
4
0
LAYER
100
AcDbSymbolTable
100
AcDbLayerTable
2
Obstructions
70
0
62
7
6
CONTINUOUS
0
LAYER
100
AcDbSymbolTable
100
AcDbLayerTable
2
Setbacks
70
0
62
7
6
CONTINUOUS
0
LAYER
100
AcDbSymbolTable
100
AcDbLayerTable
2
Modules
70
0
62
7
6
CONTINUOUS
0
LAYER
100
AcDbSymbolTable
100
AcDbLayerTable
2
Buildings
70
0
62
7
6
CONTINUOUS
0
ENDTAB
0
ENDSEC
0
SECTION
2
ENTITIES
0
LINE
8
Modules
10
-13.6486251948
20
16.4643644577
11
-13.6481804031
21
12.8036452595
62
254
0
LINE
8
Modules
10
-13.6481804031
20
12.8036452595
11
-6.7649781339
21
12.8044815955
62
254
0
LINE
8
Modules
10
-6.7649781339
20
12.8044815955
11
-6.7654229256
21
16.4652007938
62
254
0
LINE
8
Modules
10
-6.7654229256
20
16.4652007938
11
-13.6486251948
21
16.4643644577
62
254
0
LINE
8
Modules
10
-10.6168568320
20
14.2242682003
11
-9.7966468380
21
14.2243678590
62
254
0
LINE
8
Modules
10
-9.7966468380
20
14.2243678590
11
-9.7967464967
21
15.0445778529
62
254
0
LINE
8
Modules
10
-9.7967464967
20
15.0445778529
11
-10.6169564907
21
15.0444781942
62
254
0
LINE
8
Modules
10
-10.6169564907
20
15.0444781942
11
-10.6168568320
21
14.2242682003
62
254
0
LINE
8
Modules
10
-10.6168568320
20
14.2242682003
11
-9.7967464967
21
15.0445778529
62
254
0
TEXT
8
Modules
100
AcDbText
10
-10.5677060207
20
14.7328043760
1
DC
7
NewTextStyle_4
40
0.2624672000000003
50
0.006961661470000988
0
TEXT
8
Modules
100
AcDbText
10
-10.2887788139
20
14.2735206634
1
AC
7
NewTextStyle_4
40
0.2624672000000003
50
0.006961661470000988
0
LINE
8
Modules
10
-6.7653075484
20
16.4643644577
11
-6.7648627566
21
12.8036452595
62
254
0
LINE
8
Modules
10
-6.7648627566
20
12.8036452595
11
0.1183395126
21
12.8044815955
62
254
0
LINE
8
Modules
10
0.1183395126
20
12.8044815955
11
0.1178947208
21
16.4652007938
62
254
0
LINE
8
Modules
10
0.1178947208
20
16.4652007938
11
-6.7653075484
21
16.4643644577
62
254
0
LINE
8
Modules
10
-3.7335391855
20
14.2242682003
11
-2.9133291916
21
14.2243678590
62
254
0
LINE
8
Modules
10
-2.9133291916
20
14.2243678590
11
-2.9134288503
21
15.0445778529
62
254
0
LINE
8
Modules
10
-2.9134288503
20
15.0445778529
11
-3.7336388442
21
15.0444781942
62
254
0
LINE
8
Modules
10
-3.7336388442
20
15.0444781942
11
-3.7335391855
21
14.2242682003
62
254
0
LINE
8
Modules
10
-3.7335391855
20
14.2242682003
11
-2.9134288503
21
15.0445778529
62
254
0
TEXT
8
Modules
100
AcDbText
10
-3.6843883743
20
14.7328043760
1
DC
7
NewTextStyle_4
40
0.2624672000000003
50
0.006961661470000988
0
TEXT
8
Modules
100
AcDbText
10
-3.4054611675
20
14.2735206634
1
AC
7
NewTextStyle_4
40
0.2624672000000003
50
0.006961661470000988
0
LINE
8
Modules
10
0.1180100981
20
16.4643644577
11
0.1184548898
21
12.8036452595
62
254
0
LINE
8
Modules
10
0.1184548898
20
12.8036452595
11
7.0016571590
21
12.8044815955
62
254
0
LINE
8
Modules
10
7.0016571590
20
12.8044815955
11
7.0012123673
21
16.4652007938
62
254
0
LINE
8
Modules
10
7.0012123673
20
16.4652007938
11
0.1180100981
21
16.4643644577
62
254
0
LINE
8
Modules
10
3.1497784609
20
14.2242682003
11
3.9699884549
21
14.2243678590
62
254
0
LINE
8
Modules
10
3.9699884549
20
14.2243678590
11
3.9698887962
21
15.0445778529
62
254
0
LINE
8
Modules
10
3.9698887962
20
15.0445778529
11
3.1496788022
21
15.0444781942
62
254
0
LINE
8
Modules
10
3.1496788022
20
15.0444781942
11
3.1497784609
21
14.2242682003
62
254
0
LINE
8
Modules
10
3.1497784609
20
14.2242682003
11
3.9698887962
21
15.0445778529
62
254
0
TEXT
8
Modules
100
AcDbText
10
3.1989292722
20
14.7328043760
1
DC
7
NewTextStyle_4
40
0.2624672000000003
50
0.006961661470000988
0
TEXT
8
Modules
100
AcDbText
10
3.4778564790
20
14.2735206634
1
AC
7
NewTextStyle_4
40
0.2624672000000003
50
0.006961661470000988
0
LINE
8
Modules
10
7.0013277446
20
16.4680166724
11
7.0017725363
21
12.8072974741
62
254
0
LINE
8
Modules
10
7.0017725363
20
12.8072974741
11
13.8849748055
21
12.8081338102
62
254
0
LINE
8
Modules
10
13.8849748055
20
12.8081338102
11
13.8845300137
21
16.4688530084
62
254
0
LINE
8
Modules
10
13.8845300137
20
16.4688530084
11
7.0013277446
21
16.4680166724
62
254
0
LINE
8
Modules
10
10.0330961074
20
14.2279204150
11
10.8533061013
21
14.2280200737
62
254
0
LINE
8
Modules
10
10.8533061013
20
14.2280200737
11
10.8532064426
21
15.0482300676
62
254
0
LINE
8
Modules
10
10.8532064426
20
15.0482300676
11
10.0329964487
21
15.0481304089
62
254
0
LINE
8
Modules
10
10.0329964487
20
15.0481304089
11
10.0330961074
21
14.2279204150
62
254
0
LINE
8
Modules
10
10.0330961074
20
14.2279204150
11
10.8532064426
21
15.0482300676
62
254
0
TEXT
8
Modules
100
AcDbText
10
10.0822469186
20
14.7364565907
1
DC
7
NewTextStyle_4
40
0.2624672000000003
50
0.006961661470000988
0
TEXT
8
Modules
100
AcDbText
10
10.3611741254
20
14.2771728781
1
AC
7
NewTextStyle_4
40
0.2624672000000003
50
0.006961661470000988
0
LINE
8
Modules
10
7.0013277446
20
20.9602403626
11
7.0017725363
21
17.2995211643
62
254
0
LINE
8
Modules
10
7.0017725363
20
17.2995211643
11
13.8849748055
21
17.3003575003
62
254
0
LINE
8
Modules
10
13.8849748055
20
17.3003575003
11
13.8845300137
21
20.9610766986
62
254
0
LINE
8
Modules
10
13.8845300137
20
20.9610766986
11
7.0013277446
21
20.9602403626
62
254
0
LINE
8
Modules
10
10.0330961074
20
18.7201441051
11
10.8533061013
21
18.7202437638
62
254
0
LINE
8
Modules
10
10.8533061013
20
18.7202437638
11
10.8532064426
21
19.5404537578
62
254
0
LINE
8
Modules
10
10.8532064426
20
19.5404537578
11
10.0329964487
21
19.5403540990
62
254
0
LINE
8
Modules
10
10.0329964487
20
19.5403540990
11
10.0330961074
21
18.7201441051
62
254
0
LINE
8
Modules
10
10.0330961074
20
18.7201441051
11
10.8532064426
21
19.5404537578
62
254
0
TEXT
8
Modules
100
AcDbText
10
10.0822469186
20
19.2286802809
1
DC
7
NewTextStyle_4
40
0.2624672000000003
50
0.006961661470000988
0
TEXT
8
Modules
100
AcDbText
10
10.3611741254
20
18.7693965682
1
AC
7
NewTextStyle_4
40
0.2624672000000003
50
0.006961661470000988
0
LINE
8
Modules
10
0.1180100981
20
20.9602403626
11
0.1184548898
21
17.2995211643
62
254
0
LINE
8
Modules
10
0.1184548898
20
17.2995211643
11
7.0016571590
21
17.3003575003
62
254
0
LINE
8
Modules
10
7.0016571590
20
17.3003575003
11
7.0012123673
21
20.9610766986
62
254
0
LINE
8
Modules
10
7.0012123673
20
20.9610766986
11
0.1180100981
21
20.9602403626
62
254
0
LINE
8
Modules
10
3.1497784609
20
18.7201441051
11
3.9699884549
21
18.7202437638
62
254
0
LINE
8
Modules
10
3.9699884549
20
18.7202437638
11
3.9698887962
21
19.5404537578
62
254
0
LINE
8
Modules
10
3.9698887962
20
19.5404537578
11
3.1496788022
21
19.5403540990
62
254
0
LINE
8
Modules
10
3.1496788022
20
19.5403540990
11
3.1497784609
21
18.7201441051
62
254
0
LINE
8
Modules
10
3.1497784609
20
18.7201441051
11
3.9698887962
21
19.5404537578
62
254
0
TEXT
8
Modules
100
AcDbText
10
3.1989292722
20
19.2286802809
1
DC
7
NewTextStyle_4
40
0.2624672000000003
50
0.006961661470000988
0
TEXT
8
Modules
100
AcDbText
10
3.4778564790
20
18.7693965682
1
AC
7
NewTextStyle_4
40
0.2624672000000003
50
0.006961661470000988
0
LINE
8
Modules
10
-6.7653075484
20
20.9602403626
11
-6.7648627566
21
17.2995211643
62
254
0
LINE
8
Modules
10
-6.7648627566
20
17.2995211643
11
0.1183395126
21
17.3003575003
62
254
0
LINE
8
Modules
10
0.1183395126
20
17.3003575003
11
0.1178947208
21
20.9610766986
62
254
0
LINE
8
Modules
10
0.1178947208
20
20.9610766986
11
-6.7653075484
21
20.9602403626
62
254
0
LINE
8
Modules
10
-3.7335391855
20
18.7201441051
11
-2.9133291916
21
18.7202437638
62
254
0
LINE
8
Modules
10
-2.9133291916
20
18.7202437638
11
-2.9134288503
21
19.5404537578
62
254
0
LINE
8
Modules
10
-2.9134288503
20
19.5404537578
11
-3.7336388442
21
19.5403540990
62
254
0
LINE
8
Modules
10
-3.7336388442
20
19.5403540990
11
-3.7335391855
21
18.7201441051
62
254
0
LINE
8
Modules
10
-3.7335391855
20
18.7201441051
11
-2.9134288503
21
19.5404537578
62
254
0
TEXT
8
Modules
100
AcDbText
10
-3.6843883743
20
19.2286802809
1
DC
7
NewTextStyle_4
40
0.2624672000000003
50
0.006961661470000988
0
TEXT
8
Modules
100
AcDbText
10
-3.4054611675
20
18.7693965682
1
AC
7
NewTextStyle_4
40
0.2624672000000003
50
0.006961661470000988
0
LINE
8
Modules
10
-13.6486251948
20
20.9602403626
11
-13.6481804031
21
17.2995211643
62
254
0
LINE
8
Modules
10
-13.6481804031
20
17.2995211643
11
-6.7649781339
21
17.3003575003
62
254
0
LINE
8
Modules
10
-6.7649781339
20
17.3003575003
11
-6.7654229256
21
20.9610766986
62
254
0
LINE
8
Modules
10
-6.7654229256
20
20.9610766986
11
-13.6486251948
21
20.9602403626
62
254
0
LINE
8
Modules
10
-10.6168568320
20
18.7201441051
11
-9.7966468380
21
18.7202437638
62
254
0
LINE
8
Modules
10
-9.7966468380
20
18.7202437638
11
-9.7967464967
21
19.5404537578
62
254
0
LINE
8
Modules
10
-9.7967464967
20
19.5404537578
11
-10.6169564907
21
19.5403540990
62
254
0
LINE
8
Modules
10
-10.6169564907
20
19.5403540990
11
-10.6168568320
21
18.7201441051
62
254
0
LINE
8
Modules
10
-10.6168568320
20
18.7201441051
11
-9.7967464967
21
19.5404537578
62
254
0
TEXT
8
Modules
100
AcDbText
10
-10.5677060207
20
19.2286802809
1
DC
7
NewTextStyle_4
40
0.2624672000000003
50
0.006961661470000988
0
TEXT
8
Modules
100
AcDbText
10
-10.2887788139
20
18.7693965682
1
AC
7
NewTextStyle_4
40
0.2624672000000003
50
0.006961661470000988
0
LINE
8
Modules
10
7.0013277446
20
7.4799170800
11
7.0017725363
21
3.8191978818
62
254
0
LINE
8
Modules
10
7.0017725363
20
3.8191978818
11
13.8849748055
21
3.8200342178
62
254
0
LINE
8
Modules
10
13.8849748055
20
3.8200342178
11
13.8845300137
21
7.4807534161
62
254
0
LINE
8
Modules
10
13.8845300137
20
7.4807534161
11
7.0013277446
21
7.4799170800
62
254
0
LINE
8
Modules
10
10.0330961074
20
5.2398208226
11
10.8533061013
21
5.2399204813
62
254
0
LINE
8
Modules
10
10.8533061013
20
5.2399204813
11
10.8532064426
21
6.0601304753
62
254
0
LINE
8
Modules
10
10.8532064426
20
6.0601304753
11
10.0329964487
21
6.0600308165
62
254
0
LINE
8
Modules
10
10.0329964487
20
6.0600308165
11
10.0330961074
21
5.2398208226
62
254
0
LINE
8
Modules
10
10.0330961074
20
5.2398208226
11
10.8532064426
21
6.0601304753
62
254
0
TEXT
8
Modules
100
AcDbText
10
10.0822469186
20
5.7483569984
1
DC
7
NewTextStyle_4
40
0.2624672000000003
50
0.006961661470000988
0
TEXT
8
Modules
100
AcDbText
10
10.3611741254
20
5.2890732857
1
AC
7
NewTextStyle_4
40
0.2624672000000003
50
0.006961661470000988
0
LINE
8
Modules
10
0.1180100981
20
7.4762648654
11
0.1184548898
21
3.8155456671
62
254
0
LINE
8
Modules
10
0.1184548898
20
3.8155456671
11
7.0016571590
21
3.8163820031
62
254
0
LINE
8
Modules
10
7.0016571590
20
3.8163820031
11
7.0012123673
21
7.4771012014
62
254
0
LINE
8
Modules
10
7.0012123673
20
7.4771012014
11
0.1180100981
21
7.4762648654
62
254
0
LINE
8
Modules
10
3.1497784609
20
5.2361686079
11
3.9699884549
21
5.2362682666
62
254
0
LINE
8
Modules
10
3.9699884549
20
5.2362682666
11
3.9698887962
21
6.0564782606
62
254
0
LINE
8
Modules
10
3.9698887962
20
6.0564782606
11
3.1496788022
21
6.0563786019
62
254
0
LINE
8
Modules
10
3.1496788022
20
6.0563786019
11
3.1497784609
21
5.2361686079
62
254
0
LINE
8
Modules
10
3.1497784609
20
5.2361686079
11
3.9698887962
21
6.0564782606
62
254
0
TEXT
8
Modules
100
AcDbText
10
3.1989292722
20
5.7447047837
1
DC
7
NewTextStyle_4
40
0.2624672000000003
50
0.006961661470000988
0
TEXT
8
Modules
100
AcDbText
10
3.4778564790
20
5.2854210710
1
AC
7
NewTextStyle_4
40
0.2624672000000003
50
0.006961661470000988
0
LINE
8
Modules
10
-13.6486251948
20
25.4524640527
11
-13.6481804031
21
21.7917448544
62
254
0
LINE
8
Modules
10
-13.6481804031
20
21.7917448544
11
-6.7649781339
21
21.7925811904
62
254
0
LINE
8
Modules
10
-6.7649781339
20
21.7925811904
11
-6.7654229256
21
25.4533003887
62
254
0
LINE
8
Modules
10
-6.7654229256
20
25.4533003887
11
-13.6486251948
21
25.4524640527
62
254
0
LINE
8
Modules
10
-10.6168568320
20
23.2123677952
11
-9.7966468380
21
23.2124674540
62
254
0
LINE
8
Modules
10
-9.7966468380
20
23.2124674540
11
-9.7967464967
21
24.0326774479
62
254
0
LINE
8
Modules
10
-9.7967464967
20
24.0326774479
11
-10.6169564907
21
24.0325777892
62
254
0
LINE
8
Modules
10
-10.6169564907
20
24.0325777892
11
-10.6168568320
21
23.2123677952
62
254
0
LINE
8
Modules
10
-10.6168568320
20
23.2123677952
11
-9.7967464967
21
24.0326774479
62
254
0
TEXT
8
Modules
100
AcDbText
10
-10.5677060207
20
23.7209039710
1
DC
7
NewTextStyle_4
40
0.2624672000000003
50
0.006961661470000988
0
TEXT
8
Modules
100
AcDbText
10
-10.2887788139
20
23.2616202584
1
AC
7
NewTextStyle_4
40
0.2624672000000003
50
0.006961661470000988
0
LINE
8
Modules
10
-6.7653075484
20
25.4524640527
11
-6.7648627566
21
21.7917448544
62
254
0
LINE
8
Modules
10
-6.7648627566
20
21.7917448544
11
0.1183395126
21
21.7925811904
62
254
0
LINE
8
Modules
10
0.1183395126
20
21.7925811904
11
0.1178947208
21
25.4533003887
62
254
0
LINE
8
Modules
10
0.1178947208
20
25.4533003887
11
-6.7653075484
21
25.4524640527
62
254
0
LINE
8
Modules
10
-3.7335391855
20
23.2123677952
11
-2.9133291916
21
23.2124674540
62
254
0
LINE
8
Modules
10
-2.9133291916
20
23.2124674540
11
-2.9134288503
21
24.0326774479
62
254
0
LINE
8
Modules
10
-2.9134288503
20
24.0326774479
11
-3.7336388442
21
24.0325777892
62
254
0
LINE
8
Modules
10
-3.7336388442
20
24.0325777892
11
-3.7335391855
21
23.2123677952
62
254
0
LINE
8
Modules
10
-3.7335391855
20
23.2123677952
11
-2.9134288503
21
24.0326774479
62
254
0
TEXT
8
Modules
100
AcDbText
10
-3.6843883743
20
23.7209039710
1
DC
7
NewTextStyle_4
40
0.2624672000000003
50
0.006961661470000988
0
TEXT
8
Modules
100
AcDbText
10
-3.4054611675
20
23.2616202584
1
AC
7
NewTextStyle_4
40
0.2624672000000003
50
0.006961661470000988
0
LINE
8
Modules
10
0.1180100981
20
25.4561162674
11
0.1184548898
21
21.7953970691
62
254
0
LINE
8
Modules
10
0.1184548898
20
21.7953970691
11
7.0016571590
21
21.7962334051
62
254
0
LINE
8
Modules
10
7.0016571590
20
21.7962334051
11
7.0012123673
21
25.4569526034
62
254
0
LINE
8
Modules
10
7.0012123673
20
25.4569526034
11
0.1180100981
21
25.4561162674
62
254
0
LINE
8
Modules
10
3.1497784609
20
23.2160200099
11
3.9699884549
21
23.2161196686
62
254
0
LINE
8
Modules
10
3.9699884549
20
23.2161196686
11
3.9698887962
21
24.0363296626
62
254
0
LINE
8
Modules
10
3.9698887962
20
24.0363296626
11
3.1496788022
21
24.0362300039
62
254
0
LINE
8
Modules
10
3.1496788022
20
24.0362300039
11
3.1497784609
21
23.2160200099
62
254
0
LINE
8
Modules
10
3.1497784609
20
23.2160200099
11
3.9698887962
21
24.0363296626
62
254
0
TEXT
8
Modules
100
AcDbText
10
3.1989292722
20
23.7245561857
1
DC
7
NewTextStyle_4
40
0.2624672000000003
50
0.006961661470000988
0
TEXT
8
Modules
100
AcDbText
10
3.4778564790
20
23.2652724730
1
AC
7
NewTextStyle_4
40
0.2624672000000003
50
0.006961661470000988
0
LINE
8
Modules
10
7.0013277446
20
25.4561162674
11
7.0017725363
21
21.7953970691
62
254
0
LINE
8
Modules
10
7.0017725363
20
21.7953970691
11
13.8849748055
21
21.7962334051
62
254
0
LINE
8
Modules
10
13.8849748055
20
21.7962334051
11
13.8845300137
21
25.4569526034
62
254
0
LINE
8
Modules
10
13.8845300137
20
25.4569526034
11
7.0013277446
21
25.4561162674
62
254
0
LINE
8
Modules
10
10.0330961074
20
23.2160200099
11
10.8533061013
21
23.2161196686
62
254
0
LINE
8
Modules
10
10.8533061013
20
23.2161196686
11
10.8532064426
21
24.0363296626
62
254
0
LINE
8
Modules
10
10.8532064426
20
24.0363296626
11
10.0329964487
21
24.0362300039
62
254
0
LINE
8
Modules
10
10.0329964487
20
24.0362300039
11
10.0330961074
21
23.2160200099
62
254
0
LINE
8
Modules
10
10.0330961074
20
23.2160200099
11
10.8532064426
21
24.0363296626
62
254
0
TEXT
8
Modules
100
AcDbText
10
10.0822469186
20
23.7245561857
1
DC
7
NewTextStyle_4
40
0.2624672000000003
50
0.006961661470000988
0
TEXT
8
Modules
100
AcDbText
10
10.3611741254
20
23.2652724730
1
AC
7
NewTextStyle_4
40
0.2624672000000003
50
0.006961661470000988
0
LINE
8
Modules
10
0.1150922035
20
38.9364395499
11
0.1155369952
21
35.2757203516
62
254
0
LINE
8
Modules
10
0.1155369952
20
35.2757203516
11
6.9987392644
21
35.2765566876
62
254
0
LINE
8
Modules
10
6.9987392644
20
35.2765566876
11
6.9982944727
21
38.9372758859
62
254
0
LINE
8
Modules
10
6.9982944727
20
38.9372758859
11
0.1150922035
21
38.9364395499
62
254
0
LINE
8
Modules
10
3.1468605664
20
36.6963432924
11
3.9670705603
21
36.6964429511
62
254
0
LINE
8
Modules
10
3.9670705603
20
36.6964429511
11
3.9669709016
21
37.5166529451
62
254
0
LINE
8
Modules
10
3.9669709016
20
37.5166529451
11
3.1467609076
21
37.5165532864
62
254
0
LINE
8
Modules
10
3.1467609076
20
37.5165532864
11
3.1468605664
21
36.6963432924
62
254
0
LINE
8
Modules
10
3.1468605664
20
36.6963432924
11
3.9669709016
21
37.5166529451
62
254
0
TEXT
8
Modules
100
AcDbText
10
3.1960113776
20
37.2048794682
1
DC
7
NewTextStyle_4
40
0.2624672000000003
50
0.006961661470000988
0
TEXT
8
Modules
100
AcDbText
10
3.4749385844
20
36.7455957555
1
AC
7
NewTextStyle_4
40
0.2624672000000003
50
0.006961661470000988
0
LINE
8
Modules
10
-6.7682254429
20
38.9364395499
11
-6.7677806512
21
35.2757203516
62
254
0
LINE
8
Modules
10
-6.7677806512
20
35.2757203516
11
0.1154216180
21
35.2765566876
62
254
0
LINE
8
Modules
10
0.1154216180
20
35.2765566876
11
0.1149768263
21
38.9372758859
62
254
0
LINE
8
Modules
10
0.1149768263
20
38.9372758859
11
-6.7682254429
21
38.9364395499
62
254
0
LINE
8
Modules
10
-3.7364570801
20
36.6963432924
11
-2.9162470862
21
36.6964429511
62
254
0
LINE
8
Modules
10
-2.9162470862
20
36.6964429511
11
-2.9163467449
21
37.5166529451
62
254
0
LINE
8
Modules
10
-2.9163467449
20
37.5166529451
11
-3.7365567388
21
37.5165532864
62
254
0
LINE
8
Modules
10
-3.7365567388
20
37.5165532864
11
-3.7364570801
21
36.6963432924
62
254
0
LINE
8
Modules
10
-3.7364570801
20
36.6963432924
11
-2.9163467449
21
37.5166529451
62
254
0
TEXT
8
Modules
100
AcDbText
10
-3.6873062689
20
37.2048794682
1
DC
7
NewTextStyle_4
40
0.2624672000000003
50
0.006961661470000988
0
TEXT
8
Modules
100
AcDbText
10
-3.4083790620
20
36.7455957555
1
AC
7
NewTextStyle_4
40
0.2624672000000003
50
0.006961661470000988
0
LINE
8
Modules
10
6.9984098500
20
29.9483399549
11
6.9988546417
21
26.2876207567
62
254
0
LINE
8
Modules
10
6.9988546417
20
26.2876207567
11
13.8820569109
21
26.2884570927
62
254
0
LINE
8
Modules
10
13.8820569109
20
26.2884570927
11
13.8816121192
21
29.9491762909
62
254
0
LINE
8
Modules
10
13.8816121192
20
29.9491762909
11
6.9984098500
21
29.9483399549
62
254
0
LINE
8
Modules
10
10.0301782128
20
27.7082436975
11
10.8503882068
21
27.7083433562
62
254
0
LINE
8
Modules
10
10.8503882068
20
27.7083433562
11
10.8502885480
21
28.5285533501
62
254
0
LINE
8
Modules
10
10.8502885480
20
28.5285533501
11
10.0300785541
21
28.5284536914
62
254
0
LINE
8
Modules
10
10.0300785541
20
28.5284536914
11
10.0301782128
21
27.7082436975
62
254
0
LINE
8
Modules
10
10.0301782128
20
27.7082436975
11
10.8502885480
21
28.5285533501
62
254
0
TEXT
8
Modules
100
AcDbText
10
10.0793290240
20
28.2167798732
1
DC
7
NewTextStyle_4
40
0.2624672000000003
50
0.006961661470000988
0
TEXT
8
Modules
100
AcDbText
10
10.3582562309
20
27.7574961606
1
AC
7
NewTextStyle_4
40
0.2624672000000003
50
0.006961661470000988
0
LINE
8
Modules
10
0.1150922035
20
29.9483399549
11
0.1155369952
21
26.2876207567
62
254
0
LINE
8
Modules
10
0.1155369952
20
26.2876207567
11
6.9987392644
21
26.2884570927
62
254
0
LINE
8
Modules
10
6.9987392644
20
26.2884570927
11
6.9982944727
21
29.9491762909
62
254
0
LINE
8
Modules
10
6.9982944727
20
29.9491762909
11
0.1150922035
21
29.9483399549
62
254
0
LINE
8
Modules
10
3.1468605664
20
27.7082436975
11
3.9670705603
21
27.7083433562
62
254
0
LINE
8
Modules
10
3.9670705603
20
27.7083433562
11
3.9669709016
21
28.5285533501
62
254
0
LINE
8
Modules
10
3.9669709016
20
28.5285533501
11
3.1467609076
21
28.5284536914
62
254
0
LINE
8
Modules
10
3.1467609076
20
28.5284536914
11
3.1468605664
21
27.7082436975
62
254
0
LINE
8
Modules
10
3.1468605664
20
27.7082436975
11
3.9669709016
21
28.5285533501
62
254
0
TEXT
8
Modules
100
AcDbText
10
3.1960113776
20
28.2167798732
1
DC
7
NewTextStyle_4
40
0.2624672000000003
50
0.006961661470000988
0
TEXT
8
Modules
100
AcDbText
10
3.4749385844
20
27.7574961606
1
AC
7
NewTextStyle_4
40
0.2624672000000003
50
0.006961661470000988
0
LINE
8
Modules
10
-6.7682254429
20
29.9483399549
11
-6.7677806512
21
26.2876207567
62
254
0
LINE
8
Modules
10
-6.7677806512
20
26.2876207567
11
0.1154216180
21
26.2884570927
62
254
0
LINE
8
Modules
10
0.1154216180
20
26.2884570927
11
0.1149768263
21
29.9491762909
62
254
0
LINE
8
Modules
10
0.1149768263
20
29.9491762909
11
-6.7682254429
21
29.9483399549
62
254
0
LINE
8
Modules
10
-3.7364570801
20
27.7082436975
11
-2.9162470862
21
27.7083433562
62
254
0
LINE
8
Modules
10
-2.9162470862
20
27.7083433562
11
-2.9163467449
21
28.5285533501
62
254
0
LINE
8
Modules
10
-2.9163467449
20
28.5285533501
11
-3.7365567388
21
28.5284536914
62
254
0
LINE
8
Modules
10
-3.7365567388
20
28.5284536914
11
-3.7364570801
21
27.7082436975
62
254
0
LINE
8
Modules
10
-3.7364570801
20
27.7082436975
11
-2.9163467449
21
28.5285533501
62
254
0
TEXT
8
Modules
100
AcDbText
10
-3.6873062689
20
28.2167798732
1
DC
7
NewTextStyle_4
40
0.2624672000000003
50
0.006961661470000988
0
TEXT
8
Modules
100
AcDbText
10
-3.4083790620
20
27.7574961606
1
AC
7
NewTextStyle_4
40
0.2624672000000003
50
0.006961661470000988
0
LINE
8
Modules
10
-13.6486251948
20
29.9483399549
11
-13.6481804031
21
26.2876207567
62
254
0
LINE
8
Modules
10
-13.6481804031
20
26.2876207567
11
-6.7649781339
21
26.2884570927
62
254
0
LINE
8
Modules
10
-6.7649781339
20
26.2884570927
11
-6.7654229256
21
29.9491762909
62
254
0
LINE
8
Modules
10
-6.7654229256
20
29.9491762909
11
-13.6486251948
21
29.9483399549
62
254
0
LINE
8
Modules
10
-10.6168568320
20
27.7082436975
11
-9.7966468380
21
27.7083433562
62
254
0
LINE
8
Modules
10
-9.7966468380
20
27.7083433562
11
-9.7967464967
21
28.5285533501
62
254
0
LINE
8
Modules
10
-9.7967464967
20
28.5285533501
11
-10.6169564907
21
28.5284536914
62
254
0
LINE
8
Modules
10
-10.6169564907
20
28.5284536914
11
-10.6168568320
21
27.7082436975
62
254
0
LINE
8
Modules
10
-10.6168568320
20
27.7082436975
11
-9.7967464967
21
28.5285533501
62
254
0
TEXT
8
Modules
100
AcDbText
10
-10.5677060207
20
28.2167798732
1
DC
7
NewTextStyle_4
40
0.2624672000000003
50
0.006961661470000988
0
TEXT
8
Modules
100
AcDbText
10
-10.2887788139
20
27.7574961606
1
AC
7
NewTextStyle_4
40
0.2624672000000003
50
0.006961661470000988
0
LINE
8
Modules
10
-13.6515430935
20
34.4405636451
11
-13.6510983018
21
30.7798444468
62
254
0
LINE
8
Modules
10
-13.6510983018
20
30.7798444468
11
-6.7678960326
21
30.7806807828
62
254
0
LINE
8
Modules
10
-6.7678960326
20
30.7806807828
11
-6.7683408243
21
34.4413999811
62
254
0
LINE
8
Modules
10
-6.7683408243
20
34.4413999811
11
-13.6515430935
21
34.4405636451
62
254
0
LINE
8
Modules
10
-10.6197747307
20
32.2004673876
11
-9.7995647367
21
32.2005670463
62
254
0
LINE
8
Modules
10
-9.7995647367
20
32.2005670463
11
-9.7996643955
21
33.0207770403
62
254
0
LINE
8
Modules
10
-9.7996643955
20
33.0207770403
11
-10.6198743894
21
33.0206773815
62
254
0
LINE
8
Modules
10
-10.6198743894
20
33.0206773815
11
-10.6197747307
21
32.2004673876
62
254
0
LINE
8
Modules
10
-10.6197747307
20
32.2004673876
11
-9.7996643955
21
33.0207770403
62
254
0
TEXT
8
Modules
100
AcDbText
10
-10.5706239195
20
32.7090035634
1
DC
7
NewTextStyle_4
40
0.2624672000000003
50
0.006961661470000988
0
TEXT
8
Modules
100
AcDbText
10
-10.2916967126
20
32.2497198507
1
AC
7
NewTextStyle_4
40
0.2624672000000003
50
0.006961661470000988
0
LINE
8
Modules
10
-6.7682254429
20
34.4405636451
11
-6.7677806512
21
30.7798444468
62
254
0
LINE
8
Modules
10
-6.7677806512
20
30.7798444468
11
0.1154216180
21
30.7806807828
62
254
0
LINE
8
Modules
10
0.1154216180
20
30.7806807828
11
0.1149768263
21
34.4413999811
62
254
0
LINE
8
Modules
10
0.1149768263
20
34.4413999811
11
-6.7682254429
21
34.4405636451
62
254
0
LINE
8
Modules
10
-3.7364570801
20
32.2004673876
11
-2.9162470862
21
32.2005670463
62
254
0
LINE
8
Modules
10
-2.9162470862
20
32.2005670463
11
-2.9163467449
21
33.0207770403
62
254
0
LINE
8
Modules
10
-2.9163467449
20
33.0207770403
11
-3.7365567388
21
33.0206773815
62
254
0
LINE
8
Modules
10
-3.7365567388
20
33.0206773815
11
-3.7364570801
21
32.2004673876
62
254
0
LINE
8
Modules
10
-3.7364570801
20
32.2004673876
11
-2.9163467449
21
33.0207770403
62
254
0
TEXT
8
Modules
100
AcDbText
10
-3.6873062689
20
32.7090035634
1
DC
7
NewTextStyle_4
40
0.2624672000000003
50
0.006961661470000988
0
TEXT
8
Modules
100
AcDbText
10
-3.4083790620
20
32.2497198507
1
AC
7
NewTextStyle_4
40
0.2624672000000003
50
0.006961661470000988
0
LINE
8
Modules
10
0.1150922035
20
34.4442158597
11
0.1155369952
21
30.7834966615
62
254
0
LINE
8
Modules
10
0.1155369952
20
30.7834966615
11
6.9987392644
21
30.7843329975
62
254
0
LINE
8
Modules
10
6.9987392644
20
30.7843329975
11
6.9982944727
21
34.4450521958
62
254
0
LINE
8
Modules
10
6.9982944727
20
34.4450521958
11
0.1150922035
21
34.4442158597
62
254
0
LINE
8
Modules
10
3.1468605664
20
32.2041196023
11
3.9670705603
21
32.2042192610
62
254
0
LINE
8
Modules
10
3.9670705603
20
32.2042192610
11
3.9669709016
21
33.0244292550
62
254
0
LINE
8
Modules
10
3.9669709016
20
33.0244292550
11
3.1467609076
21
33.0243295962
62
254
0
LINE
8
Modules
10
3.1467609076
20
33.0243295962
11
3.1468605664
21
32.2041196023
62
254
0
LINE
8
Modules
10
3.1468605664
20
32.2041196023
11
3.9669709016
21
33.0244292550
62
254
0
TEXT
8
Modules
100
AcDbText
10
3.1960113776
20
32.7126557781
1
DC
7
NewTextStyle_4
40
0.2624672000000003
50
0.006961661470000988
0
TEXT
8
Modules
100
AcDbText
10
3.4749385844
20
32.2533720654
1
AC
7
NewTextStyle_4
40
0.2624672000000003
50
0.006961661470000988
0
LINE
8
Modules
10
6.9984098500
20
34.4442158597
11
6.9988546417
21
30.7834966615
62
254
0
LINE
8
Modules
10
6.9988546417
20
30.7834966615
11
13.8820569109
21
30.7843329975
62
254
0
LINE
8
Modules
10
13.8820569109
20
30.7843329975
11
13.8816121192
21
34.4450521958
62
254
0
LINE
8
Modules
10
13.8816121192
20
34.4450521958
11
6.9984098500
21
34.4442158597
62
254
0
LINE
8
Modules
10
10.0301782128
20
32.2041196023
11
10.8503882068
21
32.2042192610
62
254
0
LINE
8
Modules
10
10.8503882068
20
32.2042192610
11
10.8502885480
21
33.0244292550
62
254
0
LINE
8
Modules
10
10.8502885480
20
33.0244292550
11
10.0300785541
21
33.0243295962
62
254
0
LINE
8
Modules
10
10.0300785541
20
33.0243295962
11
10.0301782128
21
32.2041196023
62
254
0
LINE
8
Modules
10
10.0301782128
20
32.2041196023
11
10.8502885480
21
33.0244292550
62
254
0
TEXT
8
Modules
100
AcDbText
10
10.0793290240
20
32.7126557781
1
DC
7
NewTextStyle_4
40
0.2624672000000003
50
0.006961661470000988
0
TEXT
8
Modules
100
AcDbText
10
10.3582562309
20
32.2533720654
1
AC
7
NewTextStyle_4
40
0.2624672000000003
50
0.006961661470000988
0
LINE
8
Modules
10
7.0013277446
20
11.9721407676
11
7.0017725363
21
8.3114215693
62
254
0
LINE
8
Modules
10
7.0017725363
20
8.3114215693
11
13.8849748055
21
8.3122579053
62
254
0
LINE
8
Modules
10
13.8849748055
20
8.3122579053
11
13.8845300137
21
11.9729771036
62
254
0
LINE
8
Modules
10
13.8845300137
20
11.9729771036
11
7.0013277446
21
11.9721407676
62
254
0
LINE
8
Modules
10
10.0330961074
20
9.7320445101
11
10.8533061013
21
9.7321441689
62
254
0
LINE
8
Modules
10
10.8533061013
20
9.7321441689
11
10.8532064426
21
10.5523541628
62
254
0
LINE
8
Modules
10
10.8532064426
20
10.5523541628
11
10.0329964487
21
10.5522545041
62
254
0
LINE
8
Modules
10
10.0329964487
20
10.5522545041
11
10.0330961074
21
9.7320445101
62
254
0
LINE
8
Modules
10
10.0330961074
20
9.7320445101
11
10.8532064426
21
10.5523541628
62
254
0
TEXT
8
Modules
100
AcDbText
10
10.0822469186
20
10.2405806859
1
DC
7
NewTextStyle_4
40
0.2624672000000003
50
0.006961661470000988
0
TEXT
8
Modules
100
AcDbText
10
10.3611741254
20
9.7812969733
1
AC
7
NewTextStyle_4
40
0.2624672000000003
50
0.006961661470000988
0
LINE
8
Modules
10
0.1180100981
20
11.9721407676
11
0.1184548898
21
8.3114215693
62
254
0
LINE
8
Modules
10
0.1184548898
20
8.3114215693
11
7.0016571590
21
8.3122579053
62
254
0
LINE
8
Modules
10
7.0016571590
20
8.3122579053
11
7.0012123673
21
11.9729771036
62
254
0
LINE
8
Modules
10
7.0012123673
20
11.9729771036
11
0.1180100981
21
11.9721407676
62
254
0
LINE
8
Modules
10
3.1497784609
20
9.7320445101
11
3.9699884549
21
9.7321441689
62
254
0
LINE
8
Modules
10
3.9699884549
20
9.7321441689
11
3.9698887962
21
10.5523541628
62
254
0
LINE
8
Modules
10
3.9698887962
20
10.5523541628
11
3.1496788022
21
10.5522545041
62
254
0
LINE
8
Modules
10
3.1496788022
20
10.5522545041
11
3.1497784609
21
9.7320445101
62
254
0
LINE
8
Modules
10
3.1497784609
20
9.7320445101
11
3.9698887962
21
10.5523541628
62
254
0
TEXT
8
Modules
100
AcDbText
10
3.1989292722
20
10.2405806859
1
DC
7
NewTextStyle_4
40
0.2624672000000003
50
0.006961661470000988
0
TEXT
8
Modules
100
AcDbText
10
3.4778564790
20
9.7812969733
1
AC
7
NewTextStyle_4
40
0.2624672000000003
50
0.006961661470000988
0
LINE
8
Modules
10
-6.7653075484
20
11.9721407676
11
-6.7648627566
21
8.3114215693
62
254
0
LINE
8
Modules
10
-6.7648627566
20
8.3114215693
11
0.1183395126
21
8.3122579053
62
254
0
LINE
8
Modules
10
0.1183395126
20
8.3122579053
11
0.1178947208
21
11.9729771036
62
254
0
LINE
8
Modules
10
0.1178947208
20
11.9729771036
11
-6.7653075484
21
11.9721407676
62
254
0
LINE
8
Modules
10
-3.7335391855
20
9.7320445101
11
-2.9133291916
21
9.7321441689
62
254
0
LINE
8
Modules
10
-2.9133291916
20
9.7321441689
11
-2.9134288503
21
10.5523541628
62
254
0
LINE
8
Modules
10
-2.9134288503
20
10.5523541628
11
-3.7336388442
21
10.5522545041
62
254
0
LINE
8
Modules
10
-3.7336388442
20
10.5522545041
11
-3.7335391855
21
9.7320445101
62
254
0
LINE
8
Modules
10
-3.7335391855
20
9.7320445101
11
-2.9134288503
21
10.5523541628
62
254
0
TEXT
8
Modules
100
AcDbText
10
-3.6843883743
20
10.2405806859
1
DC
7
NewTextStyle_4
40
0.2624672000000003
50
0.006961661470000988
0
TEXT
8
Modules
100
AcDbText
10
-3.4054611675
20
9.7812969733
1
AC
7
NewTextStyle_4
40
0.2624672000000003
50
0.006961661470000988
0
LINE
8
Modules
10
-13.6486251948
20
11.9721407676
11
-13.6481804031
21
8.3114215693
62
254
0
LINE
8
Modules
10
-13.6481804031
20
8.3114215693
11
-6.7649781339
21
8.3122579053
62
254
0
LINE
8
Modules
10
-6.7649781339
20
8.3122579053
11
-6.7654229256
21
11.9729771036
62
254
0
LINE
8
Modules
10
-6.7654229256
20
11.9729771036
11
-13.6486251948
21
11.9721407676
62
254
0
LINE
8
Modules
10
-10.6168568320
20
9.7320445101
11
-9.7966468380
21
9.7321441689
62
254
0
LINE
8
Modules
10
-9.7966468380
20
9.7321441689
11
-9.7967464967
21
10.5523541628
62
254
0
LINE
8
Modules
10
-9.7967464967
20
10.5523541628
11
-10.6169564907
21
10.5522545041
62
254
0
LINE
8
Modules
10
-10.6169564907
20
10.5522545041
11
-10.6168568320
21
9.7320445101
62
254
0
LINE
8
Modules
10
-10.6168568320
20
9.7320445101
11
-9.7967464967
21
10.5523541628
62
254
0
TEXT
8
Modules
100
AcDbText
10
-10.5677060207
20
10.2405806859
1
DC
7
NewTextStyle_4
40
0.2624672000000003
50
0.006961661470000988
0
TEXT
8
Modules
100
AcDbText
10
-10.2887788139
20
9.7812969733
1
AC
7
NewTextStyle_4
40
0.2624672000000003
50
0.006961661470000988
0
LINE
8
Modules
10
-13.6515430935
20
38.9364395499
11
-13.6510983018
21
35.2757203516
62
254
0
LINE
8
Modules
10
-13.6510983018
20
35.2757203516
11
-6.7678960326
21
35.2765566876
62
254
0
LINE
8
Modules
10
-6.7678960326
20
35.2765566876
11
-6.7683408243
21
38.9372758859
62
254
0
LINE
8
Modules
10
-6.7683408243
20
38.9372758859
11
-13.6515430935
21
38.9364395499
62
254
0
LINE
8
Modules
10
-10.6197747307
20
36.6963432924
11
-9.7995647367
21
36.6964429511
62
254
0
LINE
8
Modules
10
-9.7995647367
20
36.6964429511
11
-9.7996643955
21
37.5166529451
62
254
0
LINE
8
Modules
10
-9.7996643955
20
37.5166529451
11
-10.6198743894
21
37.5165532864
62
254
0
LINE
8
Modules
10
-10.6198743894
20
37.5165532864
11
-10.6197747307
21
36.6963432924
62
254
0
LINE
8
Modules
10
-10.6197747307
20
36.6963432924
11
-9.7996643955
21
37.5166529451
62
254
0
TEXT
8
Modules
100
AcDbText
10
-10.5706239195
20
37.2048794682
1
DC
7
NewTextStyle_4
40
0.2624672000000003
50
0.006961661470000988
0
TEXT
8
Modules
100
AcDbText
10
-10.2916967126
20
36.7455957555
1
AC
7
NewTextStyle_4
40
0.2624672000000003
50
0.006961661470000988
0
LINE
8
Modules
10
6.9984098500
20
38.9364395499
11
6.9988546417
21
35.2757203516
62
254
0
LINE
8
Modules
10
6.9988546417
20
35.2757203516
11
13.8820569109
21
35.2765566876
62
254
0
LINE
8
Modules
10
13.8820569109
20
35.2765566876
11
13.8816121192
21
38.9372758859
62
254
0
LINE
8
Modules
10
13.8816121192
20
38.9372758859
11
6.9984098500
21
38.9364395499
62
254
0
LINE
8
Modules
10
10.0301782128
20
36.6963432924
11
10.8503882068
21
36.6964429511
62
254
0
LINE
8
Modules
10
10.8503882068
20
36.6964429511
11
10.8502885480
21
37.5166529451
62
254
0
LINE
8
Modules
10
10.8502885480
20
37.5166529451
11
10.0300785541
21
37.5165532864
62
254
0
LINE
8
Modules
10
10.0300785541
20
37.5165532864
11
10.0301782128
21
36.6963432924
62
254
0
LINE
8
Modules
10
10.0301782128
20
36.6963432924
11
10.8502885480
21
37.5166529451
62
254
0
TEXT
8
Modules
100
AcDbText
10
10.0793290240
20
37.2048794682
1
DC
7
NewTextStyle_4
40
0.2624672000000003
50
0.006961661470000988
0
TEXT
8
Modules
100
AcDbText
10
10.3582562309
20
36.7455957555
1
AC
7
NewTextStyle_4
40
0.2624672000000003
50
0.006961661470000988
0
LINE
8
Buildings
10
32.3109645263
20
68.2825996303
11
20.2147423848
21
68.3086101266
62
252
0
LINE
8
Buildings
10
20.2147423848
20
68.3086101266
11
20.1641278792
21
44.7702548448
62
252
0
LINE
8
Buildings
10
20.1641278792
20
44.7702548448
11
32.2603500207
21
44.7442443485
62
252
0
LINE
8
Buildings
10
32.2603500207
20
44.7442443485
11
32.3109645263
21
68.2825996303
62
252
0
LINE
8
Buildings
10
-34.6189594005
20
86.2359399762
11
-34.6167883914
21
68.3681280811
62
252
0
LINE
8
Buildings
10
-34.6167883914
20
68.3681280811
11
-19.8999171244
21
68.3699162386
62
252
0
LINE
8
Buildings
10
-19.8999171244
20
68.3699162386
11
-19.8970062921
21
44.4132205606
62
252
0
LINE
8
Buildings
10
-19.8970062921
20
44.4132205606
11
-34.6138775591
21
44.4114324032
62
252
0
LINE
8
Buildings
10
-34.6138775591
20
44.4114324032
11
-34.6080545219
21
-3.5132555339
62
252
0
LINE
8
Buildings
10
-34.6080545219
20
-3.5132555339
11
35.1897682816
21
-3.5047748252
62
252
0
LINE
8
Buildings
10
35.1897682816
20
-3.5047748252
11
35.1839452444
21
44.4199131119
62
252
0
LINE
8
Buildings
10
35.1839452444
20
44.4199131119
11
19.9042968851
21
44.4180565748
62
252
0
LINE
8
Buildings
10
19.9042968851
20
44.4180565748
11
19.9013860528
21
68.3747522527
62
252
0
LINE
8
Buildings
10
19.9013860528
20
68.3747522527
11
35.1810344120
21
68.3766087898
62
252
0
LINE
8
Buildings
10
35.1810344120
20
68.3766087898
11
35.1788634030
21
86.2444206849
62
252
0
LINE
8
Buildings
10
35.1788634030
20
86.2444206849
11
-34.6189594005
21
86.2359399762
62
252
0
LINE
8
Buildings
10
-19.8998741927
20
68.0165808409
11
-31.7811022489
21
68.0670816569
62
252
0
LINE
8
Buildings
10
-31.7811022489
20
68.0670816569
11
-31.8811506743
21
44.5288845825
62
252
0
LINE
8
Buildings
10
-31.8811506743
20
44.5288845825
11
-19.8970141565
21
44.4779463571
62
252
0
LINE
8
Buildings
10
-19.8970141565
20
44.4779463571
11
-19.8998741927
21
68.0165808409
62
252
0
LINE
8
Setbacks
10
32.2716982867
20
65.2793961350
11
21.6211012410
21
65.3022981921
62
2
0
LINE
8
Setbacks
10
21.6211012410
20
65.3022981921
11
21.5834024229
21
47.7704908573
62
2
0
LINE
8
Setbacks
10
21.5834024229
20
47.7704908573
11
32.2339996437
21
47.7475888006
62
2
0
LINE
8
Setbacks
10
-16.4249787389
20
79.9197753503
11
-16.4249530345
21
79.9198828031
62
2
0
LINE
8
Setbacks
10
-16.4249530345
20
79.9198828031
11
-16.4247554715
21
79.9203601315
62
2
0
LINE
8
Setbacks
10
-16.4247554715
20
79.9203601315
11
-16.3891554026
21
79.9902295727
62
2
0
LINE
8
Setbacks
10
-16.3891554026
20
79.9902295727
11
-16.3538657009
21
80.0595648930
62
2
0
LINE
8
Setbacks
10
-16.3538657009
20
80.0595648930
11
-16.3535984865
21
80.0600017823
62
2
0
LINE
8
Setbacks
10
-16.3535984865
20
80.0600017823
11
-16.3535250904
21
80.0600880103
62
2
0
LINE
8
Setbacks
10
-16.3535250904
20
80.0600880103
11
-16.3534652362
21
80.0601854197
62
2
0
LINE
8
Setbacks
10
-16.3534652362
20
80.0601854197
11
-16.3531324353
21
80.0605747627
62
2
0
LINE
8
Setbacks
10
-16.3531324353
20
80.0605747627
11
-16.2976050556
21
80.1161021424
62
2
0
LINE
8
Setbacks
10
-16.2976050556
20
80.1161021424
11
-16.2426954578
21
80.1710599681
62
2
0
LINE
8
Setbacks
10
-16.2426954578
20
80.1710599681
11
-16.2423040471
21
80.1713945511
62
2
0
LINE
8
Setbacks
10
-16.2423040471
20
80.1713945511
11
-16.2422109233
21
80.1714516677
62
2
0
LINE
8
Setbacks
10
-16.2422109233
20
80.1714516677
11
-16.2421251413
21
80.1715249324
62
2
0
LINE
8
Setbacks
10
-16.2421251413
20
80.1715249324
11
-16.2416861798
21
80.1717939277
62
2
0
LINE
8
Setbacks
10
-16.2416861798
20
80.1717939277
11
-16.1716681237
21
80.2074697803
62
2
0
LINE
8
Setbacks
10
-16.1716681237
20
80.2074697803
11
-16.1025126002
21
80.2427447140
62
2
0
LINE
8
Setbacks
10
-16.1025126002
20
80.2427447140
11
-16.1020368180
21
80.2429420145
62
2
0
LINE
8
Setbacks
10
-16.1020368180
20
80.2429420145
11
-16.1019300820
21
80.2429676766
62
2
0
LINE
8
Setbacks
10
-16.1019300820
20
80.2429676766
11
-16.1018267819
21
80.2430104896
62
2
0
LINE
8
Setbacks
10
-16.1018267819
20
80.2430104896
11
-16.1013257569
21
80.2431308108
62
2
0
LINE
8
Setbacks
10
-16.1013257569
20
80.2431308108
11
-16.0240426808
21
80.2553711829
62
2
0
LINE
8
Setbacks
10
-16.0240426808
20
80.2553711829
11
-15.9470388042
21
80.2676023683
62
2
0
LINE
8
Setbacks
10
-15.9470388042
20
80.2676023683
11
-15.9465255773
21
80.2676429882
62
2
0
LINE
8
Setbacks
10
-15.9465255773
20
80.2676429882
11
-7.6538638946
21
80.2712952193
62
2
0
LINE
8
Setbacks
10
-7.6538638946
20
80.2712952193
11
-7.6537526703
21
80.2712865257
62
2
0
LINE
8
Setbacks
10
-7.6537526703
20
80.2712865257
11
-7.6536420213
21
80.2712952196
62
2
0
LINE
8
Setbacks
10
-7.6536420213
20
80.2712952196
11
-7.6531290626
21
80.2712548260
62
2
0
LINE
8
Setbacks
10
-7.6531290626
20
80.2712548260
11
-7.5759716414
21
80.2590341388
62
2
0
LINE
8
Setbacks
10
-7.5759716414
20
80.2590341388
11
-7.4988312806
21
80.2468511809
62
2
0
LINE
8
Setbacks
10
-7.4988312806
20
80.2468511809
11
-7.4983294349
21
80.2467308310
62
2
0
LINE
8
Setbacks
10
-7.4983294349
20
80.2467308310
11
-7.4982281888
21
80.2466888777
62
2
0
LINE
8
Setbacks
10
-7.4982281888
20
80.2466888777
11
-7.4981209229
21
80.2466631792
62
2
0
LINE
8
Setbacks
10
-7.4981209229
20
80.2466631792
11
-7.4976443079
21
80.2464658479
62
2
0
LINE
8
Setbacks
10
-7.4976443079
20
80.2464658479
11
-7.4279247981
21
80.2109422211
62
2
0
LINE
8
Setbacks
10
-7.4279247981
20
80.2109422211
11
-7.3584395404
21
80.1755760743
62
2
0
LINE
8
Setbacks
10
-7.3584395404
20
80.1755760743
11
-7.3580026535
21
80.1753088607
62
2
0
LINE
8
Setbacks
10
-7.3580026535
20
80.1753088607
11
-7.3579164267
21
80.1752354655
62
2
0
LINE
8
Setbacks
10
-7.3579164267
20
80.1752354655
11
-7.3578190181
21
80.1751756118
62
2
0
LINE
8
Setbacks
10
-7.3578190181
20
80.1751756118
11
-7.3574296751
21
80.1748428109
62
2
0
LINE
8
Setbacks
10
-7.3574296751
20
80.1748428109
11
-7.3019022954
21
80.1193154312
62
2
0
LINE
8
Setbacks
10
-7.3019022954
20
80.1193154312
11
-7.2469444697
21
80.0644058334
62
2
0
LINE
8
Setbacks
10
-7.2469444697
20
80.0644058334
11
-7.2466098867
21
80.0640144227
62
2
0
LINE
8
Setbacks
10
-7.2466098867
20
80.0640144227
11
-7.2465527702
21
80.0639212991
62
2
0
LINE
8
Setbacks
10
-7.2465527702
20
80.0639212991
11
-7.2464795058
21
80.0638355175
62
2
0
LINE
8
Setbacks
10
-7.2464795058
20
80.0638355175
11
-7.2462105107
21
80.0633965565
62
2
0
LINE
8
Setbacks
10
-7.2462105107
20
80.0633965565
11
-7.2106855775
21
79.9936747619
62
2
0
LINE
8
Setbacks
10
-7.2106855775
20
79.9936747619
11
-7.1752593979
21
79.9242229802
62
2
0
LINE
8
Setbacks
10
-7.1752593979
20
79.9242229802
11
-7.1750613973
21
79.9237450457
62
2
0
LINE
8
Setbacks
10
-7.1750613973
20
79.9237450457
11
-7.1750359240
21
79.9236386113
62
2
0
LINE
8
Setbacks
10
-7.1750359240
20
79.9236386113
11
-7.1749946570
21
79.9235393354
62
2
0
LINE
8
Setbacks
10
-7.1749946570
20
79.9235393354
11
-7.1748736274
21
79.9230361349
62
2
0
LINE
8
Setbacks
10
-7.1748736274
20
79.9230361349
11
-7.1626906691
21
79.8461159140
62
2
0
LINE
8
Setbacks
10
-7.1626906691
20
79.8461159140
11
-7.1504020681
21
79.7687491708
62
2
0
LINE
8
Setbacks
10
-7.1504020681
20
79.7687491708
11
-7.1503614498
21
79.7682362645
62
2
0
LINE
8
Setbacks
10
-7.1503614498
20
79.7682362645
11
-7.1503701441
21
79.7681249628
62
2
0
LINE
8
Setbacks
10
-7.1503701441
20
79.7681249628
11
-7.1503614493
21
79.7680143636
62
2
0
LINE
8
Setbacks
10
-7.1503614493
20
79.7680143636
11
-7.1503614493
21
75.3451828572
62
2
0
LINE
8
Setbacks
10
-7.1503614493
20
75.3451828572
11
-7.1504018420
21
75.3446696200
62
2
0
LINE
8
Setbacks
10
-7.1504018420
20
75.3446696200
11
-7.1748736276
21
75.1901610849
62
2
0
LINE
8
Setbacks
10
-7.1748736276
20
75.1901610849
11
-7.1749938104
21
75.1896604874
62
2
0
LINE
8
Setbacks
10
-7.1749938104
20
75.1896604874
11
-7.1751908241
21
75.1891848537
62
2
0
LINE
8
Setbacks
10
-7.1751908241
20
75.1891848537
11
-7.2462105114
21
75.0498006629
62
2
0
LINE
8
Setbacks
10
-7.2462105114
20
75.0498006629
11
-7.2464795063
21
75.0493617027
62
2
0
LINE
8
Setbacks
10
-7.2464795063
20
75.0493617027
11
-7.2468138579
21
75.0489702271
62
2
0
LINE
8
Setbacks
10
-7.2468138579
20
75.0489702271
11
-7.3574296751
21
74.9383544099
62
2
0
LINE
8
Setbacks
10
-7.3574296751
20
74.9383544099
11
-7.3578211483
21
74.9380200600
62
2
0
LINE
8
Setbacks
10
-7.3578211483
20
74.9380200600
11
-7.3582601054
21
74.9377510662
62
2
0
LINE
8
Setbacks
10
-7.3582601054
20
74.9377510662
11
-7.4976442963
21
74.8667310508
62
2
0
LINE
8
Setbacks
10
-7.4976442963
20
74.8667310508
11
-7.4981199357
21
74.8665340342
62
2
0
LINE
8
Setbacks
10
-7.4981199357
20
74.8665340342
11
-7.4986205396
21
74.8664138504
62
2
0
LINE
8
Setbacks
10
-7.4986205396
20
74.8664138504
11
-7.6531290748
21
74.8419423929
62
2
0
LINE
8
Setbacks
10
-7.6531290748
20
74.8419423929
11
-7.6536423053
21
74.8419020012
62
2
0
LINE
8
Setbacks
10
-7.6536423053
20
74.8419020012
11
-15.9463039880
21
74.8419020012
62
2
0
LINE
8
Setbacks
10
-15.9463039880
20
74.8419020012
11
-15.9468172185
21
74.8419423929
62
2
0
LINE
8
Setbacks
10
-15.9468172185
20
74.8419423929
11
-16.1013257536
21
74.8664138504
62
2
0
LINE
8
Setbacks
10
-16.1013257536
20
74.8664138504
11
-16.1018263575
21
74.8665340342
62
2
0
LINE
8
Setbacks
10
-16.1018263575
20
74.8665340342
11
-16.1023019970
21
74.8667310508
62
2
0
LINE
8
Setbacks
10
-16.1023019970
20
74.8667310508
11
-16.2416861878
21
74.9377510662
62
2
0
LINE
8
Setbacks
10
-16.2416861878
20
74.9377510662
11
-16.2421251450
21
74.9380200600
62
2
0
LINE
8
Setbacks
10
-16.2421251450
20
74.9380200600
11
-16.2425166181
21
74.9383544099
62
2
0
LINE
8
Setbacks
10
-16.2425166181
20
74.9383544099
11
-16.3531324353
21
75.0489702271
62
2
0
LINE
8
Setbacks
10
-16.3531324353
20
75.0489702271
11
-16.3534667870
21
75.0493617027
62
2
0
LINE
8
Setbacks
10
-16.3534667870
20
75.0493617027
11
-16.3537357818
21
75.0498006629
62
2
0
LINE
8
Setbacks
10
-16.3537357818
20
75.0498006629
11
-16.4247554691
21
75.1891848537
62
2
0
LINE
8
Setbacks
10
-16.4247554691
20
75.1891848537
11
-16.4249524829
21
75.1896604874
62
2
0
LINE
8
Setbacks
10
-16.4249524829
20
75.1896604874
11
-16.4250726657
21
75.1901610849
62
2
0
LINE
8
Setbacks
10
-16.4250726657
20
75.1901610849
11
-16.4495444513
21
75.3446696200
62
2
0
LINE
8
Setbacks
10
-16.4495444513
20
75.3446696200
11
-16.4495848440
21
75.3451828572
62
2
0
LINE
8
Setbacks
10
-16.4495848440
20
75.3451828572
11
-16.4495848440
21
79.7643621325
62
2
0
LINE
8
Setbacks
10
-16.4495848440
20
79.7643621325
11
-16.4495444519
21
79.7648753656
62
2
0
LINE
8
Setbacks
10
-16.4495444519
20
79.7648753656
11
-16.4373149048
21
79.8420902116
62
2
0
LINE
8
Setbacks
10
-16.4373149048
20
79.8420902116
11
-16.4251408036
21
79.9191728398
62
2
0
LINE
8
Setbacks
10
-16.4251408036
20
79.9191728398
11
-16.4250204537
21
79.9196746800
62
2
0
LINE
8
Setbacks
10
-16.4250204537
20
79.9196746800
11
-16.4249787389
21
79.9197753503
62
2
0
LINE
8
Setbacks
10
7.0482481140
20
79.6984574199
11
7.0482351341
21
79.6986239252
62
2
0
LINE
8
Setbacks
10
7.0482351341
20
79.6986239252
11
7.0482755267
21
79.6991355402
62
2
0
LINE
8
Setbacks
10
7.0482755267
20
79.6991355402
11
7.0604567878
21
79.7760445759
62
2
0
LINE
8
Setbacks
10
7.0604567878
20
79.7760445759
11
7.0726449393
21
79.8533279553
62
2
0
LINE
8
Setbacks
10
7.0726449393
20
79.8533279553
11
7.0727652727
21
79.8538301159
62
2
0
LINE
8
Setbacks
10
7.0727652727
20
79.8538301159
11
7.0728287681
21
79.8539833848
62
2
0
LINE
8
Setbacks
10
7.0728287681
20
79.8539833848
11
7.0728669929
21
79.8541431249
62
2
0
LINE
8
Setbacks
10
7.0728669929
20
79.8541431249
11
7.0730645065
21
79.8546203007
62
2
0
LINE
8
Setbacks
10
7.0730645065
20
79.8546203007
11
7.1085141505
21
79.9241944757
62
2
0
LINE
8
Setbacks
10
7.1085141505
20
79.9241944757
11
7.1438893201
21
79.9937351857
62
2
0
LINE
8
Setbacks
10
7.1438893201
20
79.9937351857
11
7.1441586596
21
79.9941751949
62
2
0
LINE
8
Setbacks
10
7.1441586596
20
79.9941751949
11
7.1442654342
21
79.9943002536
62
2
0
LINE
8
Setbacks
10
7.1442654342
20
79.9943002536
11
7.1443526144
21
79.9944426621
62
2
0
LINE
8
Setbacks
10
7.1443526144
20
79.9944426621
11
7.1446875423
21
79.9948349312
62
2
0
LINE
8
Setbacks
10
7.1446875423
20
79.9948349312
11
7.2000119081
21
80.0501592970
62
2
0
LINE
8
Setbacks
10
7.2000119081
20
80.0501592970
11
7.2550347652
21
80.1052549877
62
2
0
LINE
8
Setbacks
10
7.2550347652
20
80.1052549877
11
7.2554264663
21
80.1055899231
62
2
0
LINE
8
Setbacks
10
7.2554264663
20
80.1055899231
11
7.2555678422
21
80.1056766378
62
2
0
LINE
8
Setbacks
10
7.2555678422
20
80.1056766378
11
7.2556948348
21
80.1057850998
62
2
0
LINE
8
Setbacks
10
7.2556948348
20
80.1057850998
11
7.2561337945
21
80.1060540945
62
2
0
LINE
8
Setbacks
10
7.2561337945
20
80.1060540945
11
7.3256587497
21
80.1414788004
62
2
0
LINE
8
Setbacks
10
7.3256587497
20
80.1414788004
11
7.3952020779
21
80.1769707629
62
2
0
LINE
8
Setbacks
10
7.3952020779
20
80.1769707629
11
7.3956780866
21
80.1771682555
62
2
0
LINE
8
Setbacks
10
7.3956780866
20
80.1771682555
11
7.3958401888
21
80.1772072445
62
2
0
LINE
8
Setbacks
10
7.3958401888
20
80.1772072445
11
7.3959931106
21
80.1772706304
62
2
0
LINE
8
Setbacks
10
7.3959931106
20
80.1772706304
11
7.3964942119
21
80.1773909779
62
2
0
LINE
8
Setbacks
10
7.3964942119
20
80.1773909779
11
7.4736906599
21
80.1896178443
62
2
0
LINE
8
Setbacks
10
7.4736906599
20
80.1896178443
11
7.5506705725
21
80.2018620986
62
2
0
LINE
8
Setbacks
10
7.5506705725
20
80.2018620986
11
7.5511837397
21
80.2019028282
62
2
0
LINE
8
Setbacks
10
7.5511837397
20
80.2019028282
11
7.5513485043
21
80.2018899730
62
2
0
LINE
8
Setbacks
10
7.5513485043
20
80.2018899730
11
7.5515159897
21
80.2019031570
62
2
0
LINE
8
Setbacks
10
7.5515159897
20
80.2019031570
11
15.8470953234
21
80.2019031570
62
2
0
LINE
8
Setbacks
10
15.8470953234
20
80.2019031570
11
15.8476085606
21
80.2018627643
62
2
0
LINE
8
Setbacks
10
15.8476085606
20
80.2018627643
11
16.0021170957
21
80.1773909787
62
2
0
LINE
8
Setbacks
10
16.0021170957
20
80.1773909787
11
16.0026176933
21
80.1772707959
62
2
0
LINE
8
Setbacks
10
16.0026176933
20
80.1772707959
11
16.0030933269
21
80.1770737822
62
2
0
LINE
8
Setbacks
10
16.0030933269
20
80.1770737822
11
16.1424775178
21
80.1060540949
62
2
0
LINE
8
Setbacks
10
16.1424775178
20
80.1060540949
11
16.1429164779
21
80.1057851000
62
2
0
LINE
8
Setbacks
10
16.1429164779
20
80.1057851000
11
16.1433079535
21
80.1054507484
62
2
0
LINE
8
Setbacks
10
16.1433079535
20
80.1054507484
11
16.2539237707
21
79.9948349312
62
2
0
LINE
8
Setbacks
10
16.2539237707
20
79.9948349312
11
16.2542581224
21
79.9944434555
62
2
0
LINE
8
Setbacks
10
16.2542581224
20
79.9944434555
11
16.2545271172
21
79.9940044954
62
2
0
LINE
8
Setbacks
10
16.2545271172
20
79.9940044954
11
16.3255468046
21
79.8546203046
62
2
0
LINE
8
Setbacks
10
16.3255468046
20
79.8546203046
11
16.3257438183
21
79.8541446709
62
2
0
LINE
8
Setbacks
10
16.3257438183
20
79.8541446709
11
16.3258640011
21
79.8536440734
62
2
0
LINE
8
Setbacks
10
16.3258640011
20
79.8536440734
11
16.3503357867
21
79.6991355382
62
2
0
LINE
8
Setbacks
10
16.3503357867
20
79.6991355382
11
16.3503761794
21
79.6986223010
62
2
0
LINE
8
Setbacks
10
16.3503761794
20
79.6986223010
11
16.3503761794
21
75.2794426977
62
2
0
LINE
8
Setbacks
10
16.3503761794
20
75.2794426977
11
16.3503357865
21
75.2789294594
62
2
0
LINE
8
Setbacks
10
16.3503357865
20
75.2789294594
11
16.3258640009
21
75.1244212523
62
2
0
LINE
8
Setbacks
10
16.3258640009
20
75.1244212523
11
16.3257438181
21
75.1239206553
62
2
0
LINE
8
Setbacks
10
16.3257438181
20
75.1239206553
11
16.3255468046
21
75.1234450222
62
2
0
LINE
8
Setbacks
10
16.3255468046
20
75.1234450222
11
16.2545271172
21
74.9840608314
62
2
0
LINE
8
Setbacks
10
16.2545271172
20
74.9840608314
11
16.2542581224
21
74.9836218712
62
2
0
LINE
8
Setbacks
10
16.2542581224
20
74.9836218712
11
16.2539237707
21
74.9832303956
62
2
0
LINE
8
Setbacks
10
16.2539237707
20
74.9832303956
11
16.1433079535
21
74.8726145784
62
2
0
LINE
8
Setbacks
10
16.1433079535
20
74.8726145784
11
16.1429164804
21
74.8722802285
62
2
0
LINE
8
Setbacks
10
16.1429164804
20
74.8722802285
11
16.1424775232
21
74.8720112347
62
2
0
LINE
8
Setbacks
10
16.1424775232
20
74.8720112347
11
16.0030933324
21
74.8009912193
62
2
0
LINE
8
Setbacks
10
16.0030933324
20
74.8009912193
11
16.0026176962
21
74.8007942037
62
2
0
LINE
8
Setbacks
10
16.0026176962
20
74.8007942037
11
16.0021170957
21
74.8006740199
62
2
0
LINE
8
Setbacks
10
16.0021170957
20
74.8006740199
11
15.8476085606
21
74.7762022344
62
2
0
LINE
8
Setbacks
10
15.8476085606
20
74.7762022344
11
15.8470953234
21
74.7761618417
62
2
0
LINE
8
Setbacks
10
15.8470953234
20
74.7761618417
11
7.5544339688
21
74.7761618417
62
2
0
LINE
8
Setbacks
10
7.5544339688
20
74.7761618417
11
7.5539207308
21
74.7762022345
62
2
0
LINE
8
Setbacks
10
7.5539207308
20
74.7762022345
11
7.4765267858
21
74.7884602674
62
2
0
LINE
8
Setbacks
10
7.4765267858
20
74.7884602674
11
7.3997283133
21
74.8005719756
62
2
0
LINE
8
Setbacks
10
7.3997283133
20
74.8005719756
11
7.3992274424
21
74.8006918907
62
2
0
LINE
8
Setbacks
10
7.3992274424
20
74.8006918907
11
7.3990747644
21
74.8007550305
62
2
0
LINE
8
Setbacks
10
7.3990747644
20
74.8007550305
11
7.3989115482
21
74.8007942192
62
2
0
LINE
8
Setbacks
10
7.3989115482
20
74.8007942192
11
7.3984359591
21
74.8009912196
62
2
0
LINE
8
Setbacks
10
7.3984359591
20
74.8009912196
11
7.3289621892
21
74.8363900048
62
2
0
LINE
8
Setbacks
10
7.3289621892
20
74.8363900048
11
7.2593207688
21
74.8718160215
62
2
0
LINE
8
Setbacks
10
7.2593207688
20
74.8718160215
11
7.2588807526
21
74.8720853633
62
2
0
LINE
8
Setbacks
10
7.2588807526
20
74.8720853633
11
7.2587534993
21
74.8721940115
62
2
0
LINE
8
Setbacks
10
7.2587534993
20
74.8721940115
11
7.2586135259
21
74.8722797099
62
2
0
LINE
8
Setbacks
10
7.2586135259
20
74.8722797099
11
7.2582213386
21
74.8726145784
62
2
0
LINE
8
Setbacks
10
7.2582213386
20
74.8726145784
11
7.2032690184
21
74.9275668987
62
2
0
LINE
8
Setbacks
10
7.2032690184
20
74.9275668987
11
7.1478009506
21
74.9829618047
62
2
0
LINE
8
Setbacks
10
7.1478009506
20
74.9829618047
11
7.1474659837
21
74.9833535503
62
2
0
LINE
8
Setbacks
10
7.1474659837
20
74.9833535503
11
7.1473784669
21
74.9834962424
62
2
0
LINE
8
Setbacks
10
7.1473784669
20
74.9834962424
11
7.1472711700
21
74.9836218709
62
2
0
LINE
8
Setbacks
10
7.1472711700
20
74.9836218709
11
7.1470021753
21
74.9840608305
62
2
0
LINE
8
Setbacks
10
7.1470021753
20
74.9840608305
11
7.1115774694
21
75.0535857857
62
2
0
LINE
8
Setbacks
10
7.1115774694
20
75.0535857857
11
7.0760855069
21
75.1231291139
62
2
0
LINE
8
Setbacks
10
7.0760855069
20
75.1231291139
11
7.0758884853
21
75.1236036767
62
2
0
LINE
8
Setbacks
10
7.0758884853
20
75.1236036767
11
7.0758494855
21
75.1237653293
62
2
0
LINE
8
Setbacks
10
7.0758494855
20
75.1237653293
11
7.0757848427
21
75.1239215894
62
2
0
LINE
8
Setbacks
10
7.0757848427
20
75.1239215894
11
7.0756649627
21
75.1244212551
62
2
0
LINE
8
Setbacks
10
7.0756649627
20
75.1244212551
11
7.0634384256
21
75.2016167106
62
2
0
LINE
8
Setbacks
10
7.0634384256
20
75.2016167106
11
7.0511938446
21
75.2785972713
62
2
0
LINE
8
Setbacks
10
7.0511938446
20
75.2785972713
11
7.0511531135
21
75.2791104788
62
2
0
LINE
8
Setbacks
10
7.0511531135
20
75.2791104788
11
7.0482351344
21
79.6982900822
62
2
0
LINE
8
Setbacks
10
7.0482351344
20
79.6982900822
11
7.0482481140
21
79.6984574199
62
2
0
LINE
8
Setbacks
10
-21.3735912351
20
27.5895520640
11
-21.3741044724
21
27.5895924567
62
2
0
LINE
8
Setbacks
10
-21.3741044724
20
27.5895924567
11
-21.5286130075
21
27.6140642422
62
2
0
LINE
8
Setbacks
10
-21.5286130075
20
27.6140642422
11
-21.5291136050
21
27.6141844251
62
2
0
LINE
8
Setbacks
10
-21.5291136050
20
27.6141844251
11
-21.5295892387
21
27.6143814388
62
2
0
LINE
8
Setbacks
10
-21.5295892387
20
27.6143814388
11
-21.6689734295
21
27.6854011261
62
2
0
LINE
8
Setbacks
10
-21.6689734295
20
27.6854011261
11
-21.6694123916
21
27.6856701224
62
2
0
LINE
8
Setbacks
10
-21.6694123916
20
27.6856701224
11
-21.6698038687
21
27.6860044761
62
2
0
LINE
8
Setbacks
10
-21.6698038687
20
27.6860044761
11
-21.7804196859
21
27.7966206213
62
2
0
LINE
8
Setbacks
10
-21.7804196859
20
27.7966206213
11
-21.7807540347
21
27.7970120942
62
2
0
LINE
8
Setbacks
10
-21.7807540347
20
27.7970120942
11
-21.7810230276
21
27.7974510509
62
2
0
LINE
8
Setbacks
10
-21.7810230276
20
27.7974510509
11
-21.8520427149
21
27.9368349136
62
2
0
LINE
8
Setbacks
10
-21.8520427149
20
27.9368349136
11
-21.8522397295
21
27.9373105486
62
2
0
LINE
8
Setbacks
10
-21.8522397295
20
27.9373105486
11
-21.8523599129
21
27.9378111476
62
2
0
LINE
8
Setbacks
10
-21.8523599129
20
27.9378111476
11
-21.8768316984
21
28.0923196827
62
2
0
LINE
8
Setbacks
10
-21.8768316984
20
28.0923196827
11
-21.8768720911
21
28.0928329200
62
2
0
LINE
8
Setbacks
10
-21.8768720911
20
28.0928329200
11
-21.8768720911
21
36.6791891659
62
2
0
LINE
8
Setbacks
10
-21.8768720911
20
36.6791891659
11
-21.8768316983
21
36.6797024041
62
2
0
LINE
8
Setbacks
10
-21.8768316983
20
36.6797024041
11
-21.8523599127
21
36.8342106112
62
2
0
LINE
8
Setbacks
10
-21.8523599127
20
36.8342106112
11
-21.8522397299
21
36.8347112082
62
2
0
LINE
8
Setbacks
10
-21.8522397299
20
36.8347112082
11
-21.8520427163
21
36.8351868413
62
2
0
LINE
8
Setbacks
10
-21.8520427163
20
36.8351868413
11
-21.7810230290
21
36.9745710322
62
2
0
LINE
8
Setbacks
10
-21.7810230290
20
36.9745710322
11
-21.7807540342
21
36.9750099923
62
2
0
LINE
8
Setbacks
10
-21.7807540342
20
36.9750099923
11
-21.7804196825
21
36.9754014679
62
2
0
LINE
8
Setbacks
10
-21.7804196825
20
36.9754014679
11
-21.6698038653
21
37.0860172851
62
2
0
LINE
8
Setbacks
10
-21.6698038653
20
37.0860172851
11
-21.6694123921
21
37.0863516350
62
2
0
LINE
8
Setbacks
10
-21.6694123921
20
37.0863516350
11
-21.6689734350
21
37.0866206289
62
2
0
LINE
8
Setbacks
10
-21.6689734350
20
37.0866206289
11
-21.5295892442
21
37.1576406443
62
2
0
LINE
8
Setbacks
10
-21.5295892442
20
37.1576406443
11
-21.5291136079
21
37.1578376598
62
2
0
LINE
8
Setbacks
10
-21.5291136079
20
37.1578376598
11
-21.5286130075
21
37.1579578436
62
2
0
LINE
8
Setbacks
10
-21.5286130075
20
37.1579578436
11
-21.3741044724
21
37.1824296292
62
2
0
LINE
8
Setbacks
10
-21.3741044724
20
37.1824296292
11
-21.3735912351
21
37.1824700219
62
2
0
LINE
8
Setbacks
10
-21.3735912351
20
37.1824700219
11
-15.5115372418
21
37.1824700219
62
2
0
LINE
8
Setbacks
10
-15.5115372418
20
37.1824700219
11
-15.5110240024
21
37.1824296288
62
2
0
LINE
8
Setbacks
10
-15.5110240024
20
37.1824296288
11
-15.4338762584
21
37.1702105558
62
2
0
LINE
8
Setbacks
10
-15.4338762584
20
37.1702105558
11
-15.3566783176
21
37.1580105115
62
2
0
LINE
8
Setbacks
10
-15.3566783176
20
37.1580105115
11
-15.3561783598
21
37.1578907198
62
2
0
LINE
8
Setbacks
10
-15.3561783598
20
37.1578907198
11
-15.3560987305
21
37.1578577986
62
2
0
LINE
8
Setbacks
10
-15.3560987305
20
37.1578577986
11
-15.3560149959
21
37.1578377010
62
2
0
LINE
8
Setbacks
10
-15.3560149959
20
37.1578377010
11
-15.3555392323
21
37.1576406440
62
2
0
LINE
8
Setbacks
10
-15.3555392323
20
37.1576406440
11
-15.2861158423
21
37.1222675364
62
2
0
LINE
8
Setbacks
10
-15.2861158423
20
37.1222675364
11
-15.2162938302
21
37.0867212002
62
2
0
LINE
8
Setbacks
10
-15.2162938302
20
37.0867212002
11
-15.2158543309
21
37.0864520281
62
2
0
LINE
8
Setbacks
10
-15.2158543309
20
37.0864520281
11
-15.2157887187
21
37.0863959996
62
2
0
LINE
8
Setbacks
10
-15.2157887187
20
37.0863959996
11
-15.2157173683
21
37.0863523289
62
2
0
LINE
8
Setbacks
10
-15.2157173683
20
37.0863523289
11
-15.2153249397
21
37.0860172851
62
2
0
LINE
8
Setbacks
10
-15.2153249397
20
37.0860172851
11
-15.1601366853
21
37.0308290307
62
2
0
LINE
8
Setbacks
10
-15.1601366853
20
37.0308290307
11
-15.1048096515
21
36.9755397263
62
2
0
LINE
8
Setbacks
10
-15.1048096515
20
36.9755397263
11
-15.1044757597
21
36.9751491806
62
2
0
LINE
8
Setbacks
10
-15.1044757597
20
36.9751491806
11
-15.1044308720
21
36.9750760623
62
2
0
LINE
8
Setbacks
10
-15.1044308720
20
36.9750760623
11
-15.1043744414
21
36.9750099904
62
2
0
LINE
8
Setbacks
10
-15.1043744414
20
36.9750099904
11
-15.1041054458
21
36.9745710280
62
2
0
LINE
8
Setbacks
10
-15.1041054458
20
36.9745710280
11
-15.0686112785
21
36.9049094555
62
2
0
LINE
8
Setbacks
10
-15.0686112785
20
36.9049094555
11
-15.0331387648
21
36.8353495889
62
2
0
LINE
8
Setbacks
10
-15.0331387648
20
36.8353495889
11
-15.0329410717
21
36.8348724340
62
2
0
LINE
8
Setbacks
10
-15.0329410717
20
36.8348724340
11
-15.0329213204
21
36.8347900108
62
2
0
LINE
8
Setbacks
10
-15.0329213204
20
36.8347900108
11
-15.0328892319
21
36.8347126993
62
2
0
LINE
8
Setbacks
10
-15.0328892319
20
36.8347126993
11
-15.0327685641
21
36.8342106103
62
2
0
LINE
8
Setbacks
10
-15.0327685641
20
36.8342106103
11
-15.0205567086
21
36.7571081401
62
2
0
LINE
8
Setbacks
10
-15.0205567086
20
36.7571081401
11
-15.0082969531
21
36.6798731239
62
2
0
LINE
8
Setbacks
10
-15.0082969531
20
36.6798731239
11
-15.0082563860
21
36.6793599001
62
2
0
LINE
8
Setbacks
10
-15.0082563860
20
36.6793599001
11
-15.0053387350
21
28.0930039823
62
2
0
LINE
8
Setbacks
10
-15.0053387350
20
28.0930039823
11
-15.0053454598
21
28.0929183046
62
2
0
LINE
8
Setbacks
10
-15.0053454598
20
28.0929183046
11
-15.0053387348
21
28.0928327888
62
2
0
LINE
8
Setbacks
10
-15.0053387348
20
28.0928327888
11
-15.0053791267
21
28.0923196877
62
2
0
LINE
8
Setbacks
10
-15.0053791267
20
28.0923196877
11
-15.0175978717
21
28.0151729276
62
2
0
LINE
8
Setbacks
10
-15.0175978717
20
28.0151729276
11
-15.0297979160
21
27.9379740021
62
2
0
LINE
8
Setbacks
10
-15.0297979160
20
27.9379740021
11
-15.0299177077
21
27.9374740410
62
2
0
LINE
8
Setbacks
10
-15.0299177077
20
27.9374740410
11
-15.0299506297
21
27.9373944100
62
2
0
LINE
8
Setbacks
10
-15.0299506297
20
27.9373944100
11
-15.0299707275
21
27.9373106741
62
2
0
LINE
8
Setbacks
10
-15.0299707275
20
27.9373106741
11
-15.0301677845
21
27.9368349105
62
2
0
LINE
8
Setbacks
10
-15.0301677845
20
27.9368349105
11
-15.0655408921
21
27.8674115205
62
2
0
LINE
8
Setbacks
10
-15.0655408921
20
27.8674115205
11
-15.1010872283
21
27.7975895084
62
2
0
LINE
8
Setbacks
10
-15.1010872283
20
27.7975895084
11
-15.1013564005
21
27.7971500091
62
2
0
LINE
8
Setbacks
10
-15.1013564005
20
27.7971500091
11
-15.1014124289
21
27.7970843969
62
2
0
LINE
8
Setbacks
10
-15.1014124289
20
27.7970843969
11
-15.1014560997
21
27.7970130465
62
2
0
LINE
8
Setbacks
10
-15.1014560997
20
27.7970130465
11
-15.1017911434
21
27.7966206179
62
2
0
LINE
8
Setbacks
10
-15.1017911434
20
27.7966206179
11
-15.1569793978
21
27.7414323635
62
2
0
LINE
8
Setbacks
10
-15.1569793978
20
27.7414323635
11
-15.2122687023
21
27.6861053297
62
2
0
LINE
8
Setbacks
10
-15.2122687023
20
27.6861053297
11
-15.2126592479
21
27.6857714379
62
2
0
LINE
8
Setbacks
10
-15.2126592479
20
27.6857714379
11
-15.2127323663
21
27.6857265502
62
2
0
LINE
8
Setbacks
10
-15.2127323663
20
27.6857265502
11
-15.2127984381
21
27.6856701196
62
2
0
LINE
8
Setbacks
10
-15.2127984381
20
27.6856701196
11
-15.2132374005
21
27.6854011240
62
2
0
LINE
8
Setbacks
10
-15.2132374005
20
27.6854011240
11
-15.2828989731
21
27.6499069567
62
2
0
LINE
8
Setbacks
10
-15.2828989731
20
27.6499069567
11
-15.3524588397
21
27.6144344430
62
2
0
LINE
8
Setbacks
10
-15.3524588397
20
27.6144344430
11
-15.3529359945
21
27.6142367499
62
2
0
LINE
8
Setbacks
10
-15.3529359945
20
27.6142367499
11
-15.3530184179
21
27.6142169985
62
2
0
LINE
8
Setbacks
10
-15.3530184179
20
27.6142169985
11
-15.3530957295
21
27.6141849100
62
2
0
LINE
8
Setbacks
10
-15.3530957295
20
27.6141849100
11
-15.3535978188
21
27.6140642422
62
2
0
LINE
8
Setbacks
10
-15.3535978188
20
27.6140642422
11
-15.4306258139
21
27.6018641978
62
2
0
LINE
8
Setbacks
10
-15.4306258139
20
27.6018641978
11
-15.5079353051
21
27.5895926312
62
2
0
LINE
8
Setbacks
10
-15.5079353051
20
27.5895926312
11
-15.5084489522
21
27.5895520640
62
2
0
LINE
8
Setbacks
10
-15.5084489522
20
27.5895520640
11
-15.5085343285
21
27.5895587708
62
2
0
LINE
8
Setbacks
10
-15.5085343285
20
27.5895587708
11
-15.5086195908
21
27.5895520640
62
2
0
LINE
8
Setbacks
10
-15.5086195908
20
27.5895520640
11
-21.3735912351
21
27.5895520640
62
2
0
LINE
8
Setbacks
10
15.1629117379
20
36.6681470894
11
15.1629050128
21
36.6682326073
62
2
0
LINE
8
Setbacks
10
15.1629050128
20
36.6682326073
11
15.1629454058
21
36.6687457119
62
2
0
LINE
8
Setbacks
10
15.1629454058
20
36.6687457119
11
15.1751644788
21
36.7458934560
62
2
0
LINE
8
Setbacks
10
15.1751644788
20
36.7458934560
11
15.1873645231
21
36.8230913968
62
2
0
LINE
8
Setbacks
10
15.1873645231
20
36.8230913968
11
15.1874843148
21
36.8235913546
62
2
0
LINE
8
Setbacks
10
15.1874843148
20
36.8235913546
11
15.1875172355
21
36.8236709825
62
2
0
LINE
8
Setbacks
10
15.1875172355
20
36.8236709825
11
15.1875373325
21
36.8237547150
62
2
0
LINE
8
Setbacks
10
15.1875373325
20
36.8237547150
11
15.1877343873
21
36.8242304755
62
2
0
LINE
8
Setbacks
10
15.1877343873
20
36.8242304755
11
15.2233020507
21
36.8940360873
62
2
0
LINE
8
Setbacks
10
15.2233020507
20
36.8940360873
11
15.2586538350
21
36.9634758853
62
2
0
LINE
8
Setbacks
10
15.2586538350
20
36.9634758853
11
15.2589230069
21
36.9639153840
62
2
0
LINE
8
Setbacks
10
15.2589230069
20
36.9639153840
11
15.2589778598
21
36.9639796194
62
2
0
LINE
8
Setbacks
10
15.2589778598
20
36.9639796194
11
15.2590223184
21
36.9640522645
62
2
0
LINE
8
Setbacks
10
15.2590223184
20
36.9640522645
11
15.2593574146
21
36.9644447678
62
2
0
LINE
8
Setbacks
10
15.2593574146
20
36.9644447678
11
15.3147871440
21
37.0198748253
62
2
0
LINE
8
Setbacks
10
15.3147871440
20
37.0198748253
11
15.3698349837
21
37.0749600663
62
2
0
LINE
8
Setbacks
10
15.3698349837
20
37.0749600663
11
15.3702255279
21
37.0752939561
62
2
0
LINE
8
Setbacks
10
15.3702255279
20
37.0752939561
11
15.3702986432
21
37.0753388419
62
2
0
LINE
8
Setbacks
10
15.3702986432
20
37.0753388419
11
15.3703647120
21
37.0753952700
62
2
0
LINE
8
Setbacks
10
15.3703647120
20
37.0753952700
11
15.3708036694
21
37.0756642639
62
2
0
LINE
8
Setbacks
10
15.3708036694
20
37.0756642639
11
15.4406604625
21
37.1112581742
62
2
0
LINE
8
Setbacks
10
15.4406604625
20
37.1112581742
11
15.5100254577
21
37.1466309556
62
2
0
LINE
8
Setbacks
10
15.5100254577
20
37.1466309556
11
15.5105016802
21
37.1468283436
62
2
0
LINE
8
Setbacks
10
15.5105016802
20
37.1468283436
11
15.5105840213
21
37.1468481140
62
2
0
LINE
8
Setbacks
10
15.5105840213
20
37.1468481140
11
15.5106620083
21
37.1468804828
62
2
0
LINE
8
Setbacks
10
15.5106620083
20
37.1468804828
11
15.5111640983
21
37.1470011506
62
2
0
LINE
8
Setbacks
10
15.5111640983
20
37.1470011506
11
15.5882668945
21
37.1592130057
62
2
0
LINE
8
Setbacks
10
15.5882668945
20
37.1592130057
11
15.6655015805
21
37.1714727609
62
2
0
LINE
8
Setbacks
10
15.6655015805
20
37.1714727609
11
15.6660152289
21
37.1715133285
62
2
0
LINE
8
Setbacks
10
15.6660152289
20
37.1715133285
11
15.6661006060
21
37.1715066218
62
2
0
LINE
8
Setbacks
10
15.6661006060
20
37.1715066218
11
15.6661858688
21
37.1715133286
62
2
0
LINE
8
Setbacks
10
15.6661858688
20
37.1715133286
11
21.5311575131
21
37.1715133286
62
2
0
LINE
8
Setbacks
10
21.5311575131
20
37.1715133286
11
21.5316707512
21
37.1714729358
62
2
0
LINE
8
Setbacks
10
21.5316707512
20
37.1714729358
11
21.6086695464
21
37.1592774846
62
2
0
LINE
8
Setbacks
10
21.6086695464
20
37.1592774846
11
21.6860167667
21
37.1470538180
62
2
0
LINE
8
Setbacks
10
21.6860167667
20
37.1470538180
11
21.6865167238
21
37.1469340263
62
2
0
LINE
8
Setbacks
10
21.6865167238
20
37.1469340263
11
21.6865970346
21
37.1469008234
62
2
0
LINE
8
Setbacks
10
21.6865970346
20
37.1469008234
11
21.6866806903
21
37.1468807051
62
2
0
LINE
8
Setbacks
10
21.6866806903
20
37.1468807051
11
21.6871555179
21
37.1466839532
62
2
0
LINE
8
Setbacks
10
21.6871555179
20
37.1466839532
11
21.7567659164
21
37.1112157009
62
2
0
LINE
8
Setbacks
10
21.7567659164
20
37.1112157009
11
21.8264012493
21
37.0757645088
62
2
0
LINE
8
Setbacks
10
21.8264012493
20
37.0757645088
11
21.8268407505
21
37.0754953360
62
2
0
LINE
8
Setbacks
10
21.8268407505
20
37.0754953360
11
21.8269049887
21
37.0754404808
62
2
0
LINE
8
Setbacks
10
21.8269049887
20
37.0754404808
11
21.8269776370
21
37.0753960201
62
2
0
LINE
8
Setbacks
10
21.8269776370
20
37.0753960201
11
21.8273701433
21
37.0750609199
62
2
0
LINE
8
Setbacks
10
21.8273701433
20
37.0750609199
11
21.8825597135
21
37.0198713497
62
2
0
LINE
8
Setbacks
10
21.8825597135
20
37.0198713497
11
21.9378854384
21
36.9645830261
62
2
0
LINE
8
Setbacks
10
21.9378854384
20
36.9645830261
11
21.9382193960
21
36.9641923874
62
2
0
LINE
8
Setbacks
10
21.9382193960
20
36.9641923874
11
21.9382650682
21
36.9641179819
62
2
0
LINE
8
Setbacks
10
21.9382650682
20
36.9641179819
11
21.9383203090
21
36.9640533034
62
2
0
LINE
8
Setbacks
10
21.9383203090
20
36.9640533034
11
21.9385893021
21
36.9636143486
62
2
0
LINE
8
Setbacks
10
21.9385893021
20
36.9636143486
11
21.9741845256
21
36.8937552570
62
2
0
LINE
8
Setbacks
10
21.9741845256
20
36.8937552570
11
22.0095559957
21
36.8243928846
62
2
0
LINE
8
Setbacks
10
22.0095559957
20
36.8243928846
11
22.0097524652
21
36.8239194837
62
2
0
LINE
8
Setbacks
10
22.0097524652
20
36.8239194837
11
22.0097725828
21
36.8238361946
62
2
0
LINE
8
Setbacks
10
22.0097725828
20
36.8238361946
11
22.0098067596
21
36.8237535381
62
2
0
LINE
8
Setbacks
10
22.0098067596
20
36.8237535381
11
22.0099265200
21
36.8232542386
62
2
0
LINE
8
Setbacks
10
22.0099265200
20
36.8232542386
11
22.0222125219
21
36.7456826114
62
2
0
LINE
8
Setbacks
10
22.0222125219
20
36.7456826114
11
22.0343978018
21
36.6689167586
62
2
0
LINE
8
Setbacks
10
22.0343978018
20
36.6689167586
11
22.0344383690
21
36.6684035351
62
2
0
LINE
8
Setbacks
10
22.0344383690
20
36.6684035351
11
22.0373563481
21
28.0820472892
62
2
0
LINE
8
Setbacks
10
22.0373563481
20
28.0820472892
11
22.0373496231
21
28.0819616100
62
2
0
LINE
8
Setbacks
10
22.0373496231
20
28.0819616100
11
22.0373563482
21
28.0818760923
62
2
0
LINE
8
Setbacks
10
22.0373563482
20
28.0818760923
11
22.0373159553
21
28.0813629880
62
2
0
LINE
8
Setbacks
10
22.0373159553
20
28.0813629880
11
22.0251086931
21
28.0042897179
62
2
0
LINE
8
Setbacks
10
22.0251086931
20
28.0042897179
11
22.0128968376
21
27.9270173008
62
2
0
LINE
8
Setbacks
10
22.0128968376
20
27.9270173008
11
22.0127770459
21
27.9265173439
62
2
0
LINE
8
Setbacks
10
22.0127770459
20
27.9265173439
11
22.0127438430
21
27.9264370333
62
2
0
LINE
8
Setbacks
10
22.0127438430
20
27.9264370333
11
22.0127237247
21
27.9263533777
62
2
0
LINE
8
Setbacks
10
22.0127237247
20
27.9263533777
11
22.0125269728
21
27.9258785500
62
2
0
LINE
8
Setbacks
10
22.0125269728
20
27.9258785500
11
21.9770587205
21
27.8562681515
62
2
0
LINE
8
Setbacks
10
21.9770587205
20
27.8562681515
11
21.9416075284
21
27.7866328187
62
2
0
LINE
8
Setbacks
10
21.9416075284
20
27.7866328187
11
21.9413383556
21
27.7861933174
62
2
0
LINE
8
Setbacks
10
21.9413383556
20
27.7861933174
11
21.9412835005
21
27.7861290792
62
2
0
LINE
8
Setbacks
10
21.9412835005
20
27.7861290792
11
21.9412390398
21
27.7860564309
62
2
0
LINE
8
Setbacks
10
21.9412390398
20
27.7860564309
11
21.9409039396
21
27.7856639246
62
2
0
LINE
8
Setbacks
10
21.9409039396
20
27.7856639246
11
21.8857150290
21
27.7304750141
62
2
0
LINE
8
Setbacks
10
21.8857150290
20
27.7304750141
11
21.8304263807
21
27.6751486364
62
2
0
LINE
8
Setbacks
10
21.8304263807
20
27.6751486364
11
21.8300357390
21
27.6748146747
62
2
0
LINE
8
Setbacks
10
21.8300357390
20
27.6748146747
11
21.8299613298
21
27.6747690002
62
2
0
LINE
8
Setbacks
10
21.8299613298
20
27.6747690002
11
21.8298966480
21
27.6747137567
62
2
0
LINE
8
Setbacks
10
21.8298966480
20
27.6747137567
11
21.8294576894
21
27.6744447624
62
2
0
LINE
8
Setbacks
10
21.8294576894
20
27.6744447624
11
21.7601796428
21
27.6391458028
62
2
0
LINE
8
Setbacks
10
21.7601796428
20
27.6391458028
11
21.6902362418
21
27.6034777490
62
2
0
LINE
8
Setbacks
10
21.6902362418
20
27.6034777490
11
21.6897590877
21
27.6032800564
62
2
0
LINE
8
Setbacks
10
21.6897590877
20
27.6032800564
11
21.6896766656
21
27.6032603053
62
2
0
LINE
8
Setbacks
10
21.6896766656
20
27.6032603053
11
21.6895993553
21
27.6032282174
62
2
0
LINE
8
Setbacks
10
21.6895993553
20
27.6032282174
11
21.6890972681
21
27.6031075495
62
2
0
LINE
8
Setbacks
10
21.6890972681
20
27.6031075495
11
21.6115955124
21
27.5908323727
62
2
0
LINE
8
Setbacks
10
21.6115955124
20
27.5908323727
11
21.5347597673
21
27.5786362644
62
2
0
LINE
8
Setbacks
10
21.5347597673
20
27.5786362644
11
21.5342494089
21
27.5785957012
62
2
0
LINE
8
Setbacks
10
21.5342494089
20
27.5785957012
11
21.5341641777
21
27.5786022679
62
2
0
LINE
8
Setbacks
10
21.5341641777
20
27.5786022679
11
21.5340754922
21
27.5785953707
62
2
0
LINE
8
Setbacks
10
21.5340754922
20
27.5785953707
11
15.6691038479
21
27.5785953707
62
2
0
LINE
8
Setbacks
10
15.6691038479
20
27.5785953707
11
15.6685906072
21
27.5786357640
62
2
0
LINE
8
Setbacks
10
15.6685906072
20
27.5786357640
11
15.5910494957
21
27.5909171721
62
2
0
LINE
8
Setbacks
10
15.5910494957
20
27.5909171721
11
15.5142446047
21
27.6030548796
62
2
0
LINE
8
Setbacks
10
15.5142446047
20
27.6030548796
11
15.5137446422
21
27.6031746713
62
2
0
LINE
8
Setbacks
10
15.5137446422
20
27.6031746713
11
15.5136643271
21
27.6032078760
62
2
0
LINE
8
Setbacks
10
15.5136643271
20
27.6032078760
11
15.5135806673
21
27.6032279954
62
2
0
LINE
8
Setbacks
10
15.5135806673
20
27.6032279954
11
15.5131058366
21
27.6034247495
62
2
0
LINE
8
Setbacks
10
15.5131058366
20
27.6034247495
11
15.4438776597
21
27.6386984460
62
2
0
LINE
8
Setbacks
10
15.4438776597
20
27.6386984460
11
15.3738601128
21
27.6743441900
62
2
0
LINE
8
Setbacks
10
15.3738601128
20
27.6743441900
11
15.3734206110
21
27.6746133630
62
2
0
LINE
8
Setbacks
10
15.3734206110
20
27.6746133630
11
15.3733549976
21
27.6746693924
62
2
0
LINE
8
Setbacks
10
15.3733549976
20
27.6746693924
11
15.3732836463
21
27.6747130637
62
2
0
LINE
8
Setbacks
10
15.3732836463
20
27.6747130637
11
15.3728912177
21
27.6750481074
62
2
0
LINE
8
Setbacks
10
15.3728912177
20
27.6750481074
11
15.3179437752
21
27.7299955499
62
2
0
LINE
8
Setbacks
10
15.3179437752
20
27.7299955499
11
15.2623759260
21
27.7855256697
62
2
0
LINE
8
Setbacks
10
15.2623759260
20
27.7855256697
11
15.2620419664
21
27.7859163100
62
2
0
LINE
8
Setbacks
10
15.2620419664
20
27.7859163100
11
15.2619962926
21
27.7859907180
62
2
0
LINE
8
Setbacks
10
15.2619962926
20
27.7859907180
11
15.2619410497
21
27.7860553991
62
2
0
LINE
8
Setbacks
10
15.2619410497
20
27.7860553991
11
15.2616720553
21
27.7864943578
62
2
0
LINE
8
Setbacks
10
15.2616720553
20
27.7864943578
11
15.2263727651
21
27.8557730658
62
2
0
LINE
8
Setbacks
10
15.2263727651
20
27.8557730658
11
15.1907053647
21
27.9257158159
62
2
0
LINE
8
Setbacks
10
15.1907053647
20
27.9257158159
11
15.1905076757
21
27.9261929650
62
2
0
LINE
8
Setbacks
10
15.1905076757
20
27.9261929650
11
15.1904879253
21
27.9262753844
62
2
0
LINE
8
Setbacks
10
15.1904879253
20
27.9262753844
11
15.1904558380
21
27.9263526933
62
2
0
LINE
8
Setbacks
10
15.1904558380
20
27.9263526933
11
15.1903351702
21
27.9268547822
62
2
0
LINE
8
Setbacks
10
15.1903351702
20
27.9268547822
11
15.1781233147
21
28.0039572525
62
2
0
LINE
8
Setbacks
10
15.1781233147
20
28.0039572525
11
15.1658635592
21
28.0811922687
62
2
0
LINE
8
Setbacks
10
15.1658635592
20
28.0811922687
11
15.1658229921
21
28.0817054923
62
2
0
LINE
8
Setbacks
10
15.1658229921
20
28.0817054923
11
15.1629050130
21
36.6680614101
62
2
0
LINE
8
Setbacks
10
15.1629050130
20
36.6680614101
11
15.1629117379
21
36.6681470894
62
2
0
LINE
8
Setbacks
10
15.6399247131
20
3.4666762920
11
15.6394114759
21
3.4667166847
62
2
0
LINE
8
Setbacks
10
15.6394114759
20
3.4667166847
11
15.4849029407
21
3.4911884703
62
2
0
LINE
8
Setbacks
10
15.4849029407
20
3.4911884703
11
15.4844023417
21
3.4913086536
62
2
0
LINE
8
Setbacks
10
15.4844023417
20
3.4913086536
11
15.4839267067
21
3.4915056683
62
2
0
LINE
8
Setbacks
10
15.4839267067
20
3.4915056683
11
15.3445428440
21
3.5625253556
62
2
0
LINE
8
Setbacks
10
15.3445428440
20
3.5625253556
11
15.3441038874
21
3.5627943485
62
2
0
LINE
8
Setbacks
10
15.3441038874
20
3.5627943485
11
15.3437124144
21
3.5631286973
62
2
0
LINE
8
Setbacks
10
15.3437124144
20
3.5631286973
11
15.2330962692
21
3.6737445144
62
2
0
LINE
8
Setbacks
10
15.2330962692
20
3.6737445144
11
15.2327619155
21
3.6741359916
62
2
0
LINE
8
Setbacks
10
15.2327619155
20
3.6741359916
11
15.2324929192
21
3.6745749537
62
2
0
LINE
8
Setbacks
10
15.2324929192
20
3.6745749537
11
15.1614732319
21
3.8139591445
62
2
0
LINE
8
Setbacks
10
15.1614732319
20
3.8139591445
11
15.1612762182
21
3.8144347782
62
2
0
LINE
8
Setbacks
10
15.1612762182
20
3.8144347782
11
15.1611560353
21
3.8149353757
62
2
0
LINE
8
Setbacks
10
15.1611560353
20
3.8149353757
11
15.1366842498
21
3.9694439108
62
2
0
LINE
8
Setbacks
10
15.1366842498
20
3.9694439108
11
15.1366438571
21
3.9699571480
62
2
0
LINE
8
Setbacks
10
15.1366438571
20
3.9699571480
11
15.1366438571
21
12.5563130658
62
2
0
LINE
8
Setbacks
10
15.1366438571
20
12.5563130658
11
15.1366842498
21
12.5568263031
62
2
0
LINE
8
Setbacks
10
15.1366842498
20
12.5568263031
11
15.1611560353
21
12.7113348382
62
2
0
LINE
8
Setbacks
10
15.1611560353
20
12.7113348382
11
15.1612762182
21
12.7118354357
62
2
0
LINE
8
Setbacks
10
15.1612762182
20
12.7118354357
11
15.1614732319
21
12.7123110694
62
2
0
LINE
8
Setbacks
10
15.1614732319
20
12.7123110694
11
15.2324929192
21
12.8516952602
62
2
0
LINE
8
Setbacks
10
15.2324929192
20
12.8516952602
11
15.2327619155
21
12.8521342223
62
2
0
LINE
8
Setbacks
10
15.2327619155
20
12.8521342223
11
15.2330962692
21
12.8525256994
62
2
0
LINE
8
Setbacks
10
15.2330962692
20
12.8525256994
11
15.3437124144
21
12.9631415166
62
2
0
LINE
8
Setbacks
10
15.3437124144
20
12.9631415166
11
15.3441038874
21
12.9634758654
62
2
0
LINE
8
Setbacks
10
15.3441038874
20
12.9634758654
11
15.3445428440
21
12.9637448583
62
2
0
LINE
8
Setbacks
10
15.3445428440
20
12.9637448583
11
15.4839267067
21
13.0347645456
62
2
0
LINE
8
Setbacks
10
15.4839267067
20
13.0347645456
11
15.4844023417
21
13.0349615602
62
2
0
LINE
8
Setbacks
10
15.4844023417
20
13.0349615602
11
15.4849029407
21
13.0350817436
62
2
0
LINE
8
Setbacks
10
15.4849029407
20
13.0350817436
11
15.6394114759
21
13.0595535291
62
2
0
LINE
8
Setbacks
10
15.6394114759
20
13.0595535291
11
15.6399247131
21
13.0595939218
62
2
0
LINE
8
Setbacks
10
15.6399247131
20
13.0595939218
11
21.5048966855
21
13.0595939218
62
2
0
LINE
8
Setbacks
10
21.5048966855
20
13.0595939218
11
21.5054099228
21
13.0595535291
62
2
0
LINE
8
Setbacks
10
21.5054099228
20
13.0595535291
11
21.6599184579
21
13.0350817436
62
2
0
LINE
8
Setbacks
10
21.6599184579
20
13.0350817436
11
21.6604190569
21
13.0349615602
62
2
0
LINE
8
Setbacks
10
21.6604190569
20
13.0349615602
11
21.6608946919
21
13.0347645456
62
2
0
LINE
8
Setbacks
10
21.6608946919
20
13.0347645456
11
21.8002785546
21
12.9637448583
62
2
0
LINE
8
Setbacks
10
21.8002785546
20
12.9637448583
11
21.8007175113
21
12.9634758654
62
2
0
LINE
8
Setbacks
10
21.8007175113
20
12.9634758654
11
21.8011089842
21
12.9631415166
62
2
0
LINE
8
Setbacks
10
21.8011089842
20
12.9631415166
11
21.9117251294
21
12.8525256994
62
2
0
LINE
8
Setbacks
10
21.9117251294
20
12.8525256994
11
21.9120594831
21
12.8521342223
62
2
0
LINE
8
Setbacks
10
21.9120594831
20
12.8521342223
11
21.9123284794
21
12.8516952602
62
2
0
LINE
8
Setbacks
10
21.9123284794
20
12.8516952602
11
21.9833481667
21
12.7123110694
62
2
0
LINE
8
Setbacks
10
21.9833481667
20
12.7123110694
11
21.9835451804
21
12.7118354357
62
2
0
LINE
8
Setbacks
10
21.9835451804
20
12.7118354357
11
21.9836653633
21
12.7113348382
62
2
0
LINE
8
Setbacks
10
21.9836653633
20
12.7113348382
11
22.0081371488
21
12.5568263031
62
2
0
LINE
8
Setbacks
10
22.0081371488
20
12.5568263031
11
22.0081775415
21
12.5563130658
62
2
0
LINE
8
Setbacks
10
22.0081775415
20
12.5563130658
11
22.0081775415
21
3.9699571480
62
2
0
LINE
8
Setbacks
10
22.0081775415
20
3.9699571480
11
22.0081371488
21
3.9694439108
62
2
0
LINE
8
Setbacks
10
22.0081371488
20
3.9694439108
11
21.9836653633
21
3.8149353757
62
2
0
LINE
8
Setbacks
10
21.9836653633
20
3.8149353757
11
21.9835451804
21
3.8144347782
62
2
0
LINE
8
Setbacks
10
21.9835451804
20
3.8144347782
11
21.9833481667
21
3.8139591445
62
2
0
LINE
8
Setbacks
10
21.9833481667
20
3.8139591445
11
21.9123284794
21
3.6745749537
62
2
0
LINE
8
Setbacks
10
21.9123284794
20
3.6745749537
11
21.9120594831
21
3.6741359916
62
2
0
LINE
8
Setbacks
10
21.9120594831
20
3.6741359916
11
21.9117251294
21
3.6737445144
62
2
0
LINE
8
Setbacks
10
21.9117251294
20
3.6737445144
11
21.8011089842
21
3.5631286973
62
2
0
LINE
8
Setbacks
10
21.8011089842
20
3.5631286973
11
21.8007175113
21
3.5627943485
62
2
0
LINE
8
Setbacks
10
21.8007175113
20
3.5627943485
11
21.8002785546
21
3.5625253556
62
2
0
LINE
8
Setbacks
10
21.8002785546
20
3.5625253556
11
21.6608946919
21
3.4915056683
62
2
0
LINE
8
Setbacks
10
21.6608946919
20
3.4915056683
11
21.6604190569
21
3.4913086536
62
2
0
LINE
8
Setbacks
10
21.6604190569
20
3.4913086536
11
21.6599184579
21
3.4911884703
62
2
0
LINE
8
Setbacks
10
21.6599184579
20
3.4911884703
11
21.5054099228
21
3.4667166847
62
2
0
LINE
8
Setbacks
10
21.5054099228
20
3.4667166847
11
21.5048966855
21
3.4666762920
62
2
0
LINE
8
Setbacks
10
21.5048966855
20
3.4666762920
11
15.6399247131
21
3.4666762920
62
2
0
LINE
8
Setbacks
10
-21.8376869159
20
12.6897689838
11
-21.8376504054
21
12.6899213016
62
2
0
LINE
8
Setbacks
10
-21.8376504054
20
12.6899213016
11
-21.8374531507
21
12.6903976794
62
2
0
LINE
8
Setbacks
10
-21.8374531507
20
12.6903976794
11
-21.8020392422
21
12.7599016947
62
2
0
LINE
8
Setbacks
10
-21.8020392422
20
12.7599016947
11
-21.7666174592
21
12.8295280850
62
2
0
LINE
8
Setbacks
10
-21.7666174592
20
12.8295280850
11
-21.7663495523
21
12.8299660893
62
2
0
LINE
8
Setbacks
10
-21.7663495523
20
12.8299660893
11
-21.7662462721
21
12.8300873231
62
2
0
LINE
8
Setbacks
10
-21.7662462721
20
12.8300873231
11
-21.7661636907
21
12.8302219015
62
2
0
LINE
8
Setbacks
10
-21.7661636907
20
12.8302219015
11
-21.7658301151
21
12.8306123095
62
2
0
LINE
8
Setbacks
10
-21.7658301151
20
12.8306123095
11
-21.7107402846
21
12.8857021399
62
2
0
LINE
8
Setbacks
10
-21.7107402846
20
12.8857021399
11
-21.6554677109
21
12.9410436104
62
2
0
LINE
8
Setbacks
10
-21.6554677109
20
12.9410436104
11
-21.6550766330
21
12.9413780680
62
2
0
LINE
8
Setbacks
10
-21.6550766330
20
12.9413780680
11
-21.6549419371
21
12.9414607450
62
2
0
LINE
8
Setbacks
10
-21.6549419371
20
12.9414607450
11
-21.6548228259
21
12.9415624757
62
2
0
LINE
8
Setbacks
10
-21.6548228259
20
12.9415624757
11
-21.6543838702
21
12.9418314691
62
2
0
LINE
8
Setbacks
10
-21.6543838702
20
12.9418314691
11
-21.5850537348
21
12.9771571253
62
2
0
LINE
8
Setbacks
10
-21.5850537348
20
12.9771571253
11
-21.5152977462
21
13.0127541064
62
2
0
LINE
8
Setbacks
10
-21.5152977462
20
13.0127541064
11
-21.5148227032
21
13.0129512629
62
2
0
LINE
8
Setbacks
10
-21.5148227032
20
13.0129512629
11
-21.5146679978
21
13.0129885429
62
2
0
LINE
8
Setbacks
10
-21.5146679978
20
13.0129885429
11
-21.5145238738
21
13.0130482274
62
2
0
LINE
8
Setbacks
10
-21.5145238738
20
13.0130482274
11
-21.5140234472
21
13.0131683559
62
2
0
LINE
8
Setbacks
10
-21.5140234472
20
13.0131683559
11
-21.4371586318
21
13.0253427385
62
2
0
LINE
8
Setbacks
10
-21.4371586318
20
13.0253427385
11
-21.3598282651
21
13.0376398239
62
2
0
LINE
8
Setbacks
10
-21.3598282651
20
13.0376398239
11
-21.3593150625
21
13.0376805347
62
2
0
LINE
8
Setbacks
10
-21.3593150625
20
13.0376805347
11
-15.4943434181
21
13.0413327658
62
2
0
LINE
8
Setbacks
10
-15.4943434181
20
13.0413327658
11
-15.4941861612
21
13.0413204764
62
2
0
LINE
8
Setbacks
10
-15.4941861612
20
13.0413204764
11
-15.4940297737
21
13.0413327664
62
2
0
LINE
8
Setbacks
10
-15.4940297737
20
13.0413327664
11
-15.4935167888
21
13.0412923741
62
2
0
LINE
8
Setbacks
10
-15.4935167888
20
13.0412923741
11
-15.4164826865
21
13.0290914174
62
2
0
LINE
8
Setbacks
10
-15.4164826865
20
13.0290914174
11
-15.3393065239
21
13.0169170349
62
2
0
LINE
8
Setbacks
10
-15.3393065239
20
13.0169170349
11
-15.3388051042
21
13.0167969206
62
2
0
LINE
8
Setbacks
10
-15.3388051042
20
13.0167969206
11
-15.3386607189
21
13.0167371586
62
2
0
LINE
8
Setbacks
10
-15.3386607189
20
13.0167371586
11
-15.3385084011
21
13.0167006481
62
2
0
LINE
8
Setbacks
10
-15.3385084011
20
13.0167006481
11
-15.3380320233
21
13.0165033933
62
2
0
LINE
8
Setbacks
10
-15.3380320233
20
13.0165033933
11
-15.2685280080
21
12.9810894849
62
2
0
LINE
8
Setbacks
10
-15.2685280080
20
12.9810894849
11
-15.1989016177
21
12.9456677018
62
2
0
LINE
8
Setbacks
10
-15.1989016177
20
12.9456677018
11
-15.1984636134
21
12.9453997950
62
2
0
LINE
8
Setbacks
10
-15.1984636134
20
12.9453997950
11
-15.1983423795
21
12.9452965148
62
2
0
LINE
8
Setbacks
10
-15.1983423795
20
12.9452965148
11
-15.1982078012
21
12.9452139334
62
2
0
LINE
8
Setbacks
10
-15.1982078012
20
12.9452139334
11
-15.1978173932
21
12.9448803577
62
2
0
LINE
8
Setbacks
10
-15.1978173932
20
12.9448803577
11
-15.1427278908
21
12.8897908554
62
2
0
LINE
8
Setbacks
10
-15.1427278908
20
12.8897908554
11
-15.0873860923
21
12.8345179536
62
2
0
LINE
8
Setbacks
10
-15.0873860923
20
12.8345179536
11
-15.0870516347
21
12.8341268757
62
2
0
LINE
8
Setbacks
10
-15.0870516347
20
12.8341268757
11
-15.0869689577
21
12.8339921798
62
2
0
LINE
8
Setbacks
10
-15.0869689577
20
12.8339921798
11
-15.0868672270
21
12.8338730686
62
2
0
LINE
8
Setbacks
10
-15.0868672270
20
12.8338730686
11
-15.0865982336
21
12.8334341128
62
2
0
LINE
8
Setbacks
10
-15.0865982336
20
12.8334341128
11
-15.0512725774
21
12.7641039775
62
2
0
LINE
8
Setbacks
10
-15.0512725774
20
12.7641039775
11
-15.0156755963
21
12.6943479889
62
2
0
LINE
8
Setbacks
10
-15.0156755963
20
12.6943479889
11
-15.0154784398
21
12.6938729459
62
2
0
LINE
8
Setbacks
10
-15.0154784398
20
12.6938729459
11
-15.0154411598
21
12.6937182405
62
2
0
LINE
8
Setbacks
10
-15.0154411598
20
12.6937182405
11
-15.0153814753
21
12.6935741165
62
2
0
LINE
8
Setbacks
10
-15.0153814753
20
12.6935741165
11
-15.0152613468
21
12.6930736899
62
2
0
LINE
8
Setbacks
10
-15.0152613468
20
12.6930736899
11
-15.0030869642
21
12.6162088745
62
2
0
LINE
8
Setbacks
10
-15.0030869642
20
12.6162088745
11
-14.9907898788
21
12.5388785078
62
2
0
LINE
8
Setbacks
10
-14.9907898788
20
12.5388785078
11
-14.9907491679
21
12.5383650630
62
2
0
LINE
8
Setbacks
10
-14.9907491679
20
12.5383650630
11
-14.9907614439
21
12.5382080509
62
2
0
LINE
8
Setbacks
10
-14.9907614439
20
12.5382080509
11
-14.9907491674
21
12.5380519104
62
2
0
LINE
8
Setbacks
10
-14.9907491674
20
12.5380519104
11
-14.9907491674
21
3.9516959926
62
2
0
LINE
8
Setbacks
10
-14.9907491674
20
3.9516959926
11
-14.9907895601
21
3.9511827554
62
2
0
LINE
8
Setbacks
10
-14.9907895601
20
3.9511827554
11
-15.0152613456
21
3.7966742202
62
2
0
LINE
8
Setbacks
10
-15.0152613456
20
3.7966742202
11
-15.0153815285
21
3.7961736227
62
2
0
LINE
8
Setbacks
10
-15.0153815285
20
3.7961736227
11
-15.0155785422
21
3.7956979890
62
2
0
LINE
8
Setbacks
10
-15.0155785422
20
3.7956979890
11
-15.0865982295
21
3.6563137982
62
2
0
LINE
8
Setbacks
10
-15.0865982295
20
3.6563137982
11
-15.0868672243
21
3.6558748381
62
2
0
LINE
8
Setbacks
10
-15.0868672243
20
3.6558748381
11
-15.0872015760
21
3.6554833624
62
2
0
LINE
8
Setbacks
10
-15.0872015760
20
3.6554833624
11
-15.1978173932
21
3.5448675453
62
2
0
LINE
8
Setbacks
10
-15.1978173932
20
3.5448675453
11
-15.1982088689
21
3.5445331936
62
2
0
LINE
8
Setbacks
10
-15.1982088689
20
3.5445331936
11
-15.1986478290
21
3.5442641987
62
2
0
LINE
8
Setbacks
10
-15.1986478290
20
3.5442641987
11
-15.3380320198
21
3.4732445114
62
2
0
LINE
8
Setbacks
10
-15.3380320198
20
3.4732445114
11
-15.3385076535
21
3.4730474977
62
2
0
LINE
8
Setbacks
10
-15.3385076535
20
3.4730474977
11
-15.3390082510
21
3.4729273149
62
2
0
LINE
8
Setbacks
10
-15.3390082510
20
3.4729273149
11
-15.4935167861
21
3.4484555293
62
2
0
LINE
8
Setbacks
10
-15.4935167861
20
3.4484555293
11
-15.4940300234
21
3.4484151366
62
2
0
LINE
8
Setbacks
10
-15.4940300234
20
3.4484151366
11
-21.3590016677
21
3.4484151366
62
2
0
LINE
8
Setbacks
10
-21.3590016677
20
3.4484151366
11
-21.3595149050
21
3.4484555293
62
2
0
LINE
8
Setbacks
10
-21.3595149050
20
3.4484555293
11
-21.5140234401
21
3.4729273149
62
2
0
LINE
8
Setbacks
10
-21.5140234401
20
3.4729273149
11
-21.5145240376
21
3.4730474977
62
2
0
LINE
8
Setbacks
10
-21.5145240376
20
3.4730474977
11
-21.5149996713
21
3.4732445114
62
2
0
LINE
8
Setbacks
10
-21.5149996713
20
3.4732445114
11
-21.6543838621
21
3.5442641987
62
2
0
LINE
8
Setbacks
10
-21.6543838621
20
3.5442641987
11
-21.6548228223
21
3.5445331936
62
2
0
LINE
8
Setbacks
10
-21.6548228223
20
3.5445331936
11
-21.6552142979
21
3.5448675453
62
2
0
LINE
8
Setbacks
10
-21.6552142979
20
3.5448675453
11
-21.7658301151
21
3.6554833624
62
2
0
LINE
8
Setbacks
10
-21.7658301151
20
3.6554833624
11
-21.7661644668
21
3.6558748381
62
2
0
LINE
8
Setbacks
10
-21.7661644668
20
3.6558748381
11
-21.7664334616
21
3.6563137982
62
2
0
LINE
8
Setbacks
10
-21.7664334616
20
3.6563137982
11
-21.8374531489
21
3.7956979890
62
2
0
LINE
8
Setbacks
10
-21.8374531489
20
3.7956979890
11
-21.8376501626
21
3.7961736227
62
2
0
LINE
8
Setbacks
10
-21.8376501626
20
3.7961736227
11
-21.8377703455
21
3.7966742202
62
2
0
LINE
8
Setbacks
10
-21.8377703455
20
3.7966742202
11
-21.8622421310
21
3.9511827554
62
2
0
LINE
8
Setbacks
10
-21.8622421310
20
3.9511827554
11
-21.8622825237
21
3.9516959926
62
2
0
LINE
8
Setbacks
10
-21.8622825237
20
3.9516959926
11
-21.8622825237
21
12.5343996793
62
2
0
LINE
8
Setbacks
10
-21.8622825237
20
12.5343996793
11
-21.8622421315
21
12.5349129139
62
2
0
LINE
8
Setbacks
10
-21.8622421315
20
12.5349129139
11
-21.8500411748
21
12.6119470162
62
2
0
LINE
8
Setbacks
10
-21.8500411748
20
12.6119470162
11
-21.8378667923
21
12.6891231787
62
2
0
LINE
8
Setbacks
10
-21.8378667923
20
12.6891231787
11
-21.8377466779
21
12.6896245985
62
2
0
LINE
8
Setbacks
10
-21.8377466779
20
12.6896245985
11
-21.8376869159
21
12.6897689838
62
2
0
LINE
8
Setbacks
10
-0.6569443371
20
59.4492247158
11
-0.7084684241
21
59.4410642746
62
2
0
LINE
8
Setbacks
10
-0.7084684241
20
59.4410642746
11
-0.7089816500
21
59.4410238837
62
2
0
LINE
8
Setbacks
10
-0.7089816500
20
59.4410238837
11
-1.0650994435
21
59.4410238837
62
2
0
LINE
8
Setbacks
10
-1.0650994435
20
59.4410238837
11
-1.0656126895
21
59.4410642778
62
2
0
LINE
8
Setbacks
10
-1.0656126895
20
59.4410642778
11
-1.1171367569
21
59.4492250429
62
2
0
LINE
8
Setbacks
10
-1.1171367569
20
59.4492250429
11
-1.1692268564
21
59.4519548893
62
2
0
LINE
8
Setbacks
10
-1.1692268564
20
59.4519548893
11
-1.1697372798
21
59.4520220873
62
2
0
LINE
8
Setbacks
10
-1.1697372798
20
59.4520220873
11
-1.5180732489
21
59.5260631002
62
2
0
LINE
8
Setbacks
10
-1.5180732489
20
59.5260631002
11
-1.5185668720
21
59.5262093179
62
2
0
LINE
8
Setbacks
10
-1.5185668720
20
59.5262093179
11
-1.5672646201
21
59.5449026215
62
2
0
LINE
8
Setbacks
10
-1.5672646201
20
59.5449026215
11
-1.6176526729
21
59.5584040520
62
2
0
LINE
8
Setbacks
10
-1.6176526729
20
59.5584040520
11
-1.6181379673
21
59.5585759037
62
2
0
LINE
8
Setbacks
10
-1.6181379673
20
59.5585759037
11
-1.9434677021
21
59.7034220370
62
2
0
LINE
8
Setbacks
10
-1.9434677021
20
59.7034220370
11
-1.9439201437
21
59.7036676933
62
2
0
LINE
8
Setbacks
10
-1.9439201437
20
59.7036676933
11
-1.9876699662
21
59.7320792936
62
2
0
LINE
8
Setbacks
10
-1.9876699662
20
59.7320792936
11
-2.0341470100
21
59.7557604181
62
2
0
LINE
8
Setbacks
10
-2.0341470100
20
59.7557604181
11
-2.0345859734
21
59.7560294145
62
2
0
LINE
8
Setbacks
10
-2.0345859734
20
59.7560294145
11
-2.3226912975
21
59.9653499593
62
2
0
LINE
8
Setbacks
10
-2.3226912975
20
59.9653499593
11
-2.3230827840
21
59.9656843216
62
2
0
LINE
8
Setbacks
10
-2.3230827840
20
59.9656843216
11
-2.3599684122
21
60.0025702768
62
2
0
LINE
8
Setbacks
10
-2.3599684122
20
60.0025702768
11
-2.4005073501
21
60.0353977584
62
2
0
LINE
8
Setbacks
10
-2.4005073501
20
60.0353977584
11
-2.4008808020
21
60.0357521495
62
2
0
LINE
8
Setbacks
10
-2.4008808020
20
60.0357521495
11
-2.6391701797
21
60.3003994677
62
2
0
LINE
8
Setbacks
10
-2.6391701797
20
60.3003994677
11
-2.6394835804
21
60.3008078988
62
2
0
LINE
8
Setbacks
10
-2.6394835804
20
60.3008078988
11
-2.6678945303
21
60.3445567460
62
2
0
LINE
8
Setbacks
10
-2.6678945303
20
60.3445567460
11
-2.7007220232
21
60.3850953708
62
2
0
LINE
8
Setbacks
10
-2.7007220232
20
60.3850953708
11
-2.7010136214
21
60.3855196491
62
2
0
LINE
8
Setbacks
10
-2.7010136214
20
60.3855196491
11
-2.8790723541
21
60.6939264831
62
2
0
LINE
8
Setbacks
10
-2.8790723541
20
60.6939264831
11
-2.8792939898
21
60.6943911514
62
2
0
LINE
8
Setbacks
10
-2.8792939898
20
60.6943911514
11
-2.8979876216
21
60.7430895567
62
2
0
LINE
8
Setbacks
10
-2.8979876216
20
60.7430895567
11
-2.9216700617
21
60.7895689041
62
2
0
LINE
8
Setbacks
10
-2.9216700617
20
60.7895689041
11
-2.9218670775
21
60.7900445425
62
2
0
LINE
8
Setbacks
10
-2.9218670775
20
60.7900445425
11
-3.0319133409
21
61.1287328735
62
2
0
LINE
8
Setbacks
10
-3.0319133409
20
61.1287328735
11
-3.0320335238
21
61.1292334734
62
2
0
LINE
8
Setbacks
10
-3.0320335238
20
61.1292334734
11
-3.0401933059
21
61.1807526235
62
2
0
LINE
8
Setbacks
10
-3.0401933059
20
61.1807526235
11
-3.0536950635
21
61.2311416574
62
2
0
LINE
8
Setbacks
10
-3.0536950635
20
61.2311416574
11
-3.0537888835
21
61.2316478638
62
2
0
LINE
8
Setbacks
10
-3.0537888835
20
61.2316478638
11
-3.0910132941
21
61.5858148699
62
2
0
LINE
8
Setbacks
10
-3.0910132941
20
61.5858148699
11
-3.0910267703
21
61.5863295234
62
2
0
LINE
8
Setbacks
10
-3.0910267703
20
61.5863295234
11
-3.0882965964
21
61.6384222475
62
2
0
LINE
8
Setbacks
10
-3.0882965964
20
61.6384222475
11
-3.0910267702
21
61.6905146434
62
2
0
LINE
8
Setbacks
10
-3.0910267702
20
61.6905146434
11
-3.0910132941
21
61.6910292981
62
2
0
LINE
8
Setbacks
10
-3.0910132941
20
61.6910292981
11
-3.0537888835
21
62.0451963042
62
2
0
LINE
8
Setbacks
10
-3.0537888835
20
62.0451963042
11
-3.0536950635
21
62.0457025106
62
2
0
LINE
8
Setbacks
10
-3.0536950635
20
62.0457025106
11
-3.0401933059
21
62.0960915444
62
2
0
LINE
8
Setbacks
10
-3.0401933059
20
62.0960915444
11
-3.0320335238
21
62.1476106946
62
2
0
LINE
8
Setbacks
10
-3.0320335238
20
62.1476106946
11
-3.0319133409
21
62.1481112944
62
2
0
LINE
8
Setbacks
10
-3.0319133409
20
62.1481112944
11
-2.9218670775
21
62.4867996255
62
2
0
LINE
8
Setbacks
10
-2.9218670775
20
62.4867996255
11
-2.9216700618
21
62.4872752636
62
2
0
LINE
8
Setbacks
10
-2.9216700618
20
62.4872752636
11
-2.8979872946
21
62.5337552653
62
2
0
LINE
8
Setbacks
10
-2.8979872946
20
62.5337552653
11
-2.8792939914
21
62.5824530124
62
2
0
LINE
8
Setbacks
10
-2.8792939914
20
62.5824530124
11
-2.8790723549
21
62.5829176835
62
2
0
LINE
8
Setbacks
10
-2.8790723549
20
62.5829176835
11
-2.7010136221
21
62.8913248456
62
2
0
LINE
8
Setbacks
10
-2.7010136221
20
62.8913248456
11
-2.7007220150
21
62.8917491353
62
2
0
LINE
8
Setbacks
10
-2.7007220150
20
62.8917491353
11
-2.6678945303
21
62.9322874230
62
2
0
LINE
8
Setbacks
10
-2.6678945303
20
62.9322874230
11
-2.6394835865
21
62.9760365879
62
2
0
LINE
8
Setbacks
10
-2.6394835865
20
62.9760365879
11
-2.6391701783
21
62.9764450298
62
2
0
LINE
8
Setbacks
10
-2.6391701783
20
62.9764450298
11
-2.4008808006
21
63.2410920199
62
2
0
LINE
8
Setbacks
10
-2.4008808006
20
63.2410920199
11
-2.4005073625
21
63.2414463995
62
2
0
LINE
8
Setbacks
10
-2.4005073625
20
63.2414463995
11
-2.3599684122
21
63.2742742182
62
2
0
LINE
8
Setbacks
10
-2.3599684122
20
63.2742742182
11
-2.3230827738
21
63.3111598566
62
2
0
LINE
8
Setbacks
10
-2.3230827738
20
63.3111598566
11
-2.3226912975
21
63.3114942087
62
2
0
LINE
8
Setbacks
10
-2.3226912975
20
63.3114942087
11
-2.0345859734
21
63.5208147535
62
2
0
LINE
8
Setbacks
10
-2.0345859734
20
63.5208147535
11
-2.0341470177
21
63.5210837459
62
2
0
LINE
8
Setbacks
10
-2.0341470177
20
63.5210837459
11
-1.9876689852
21
63.5447655284
62
2
0
LINE
8
Setbacks
10
-1.9876689852
20
63.5447655284
11
-1.9439201429
21
63.5731764751
62
2
0
LINE
8
Setbacks
10
-1.9439201429
20
63.5731764751
11
-1.9434677021
21
63.5734221310
62
2
0
LINE
8
Setbacks
10
-1.9434677021
20
63.5734221310
11
-1.6181379673
21
63.7182682642
62
2
0
LINE
8
Setbacks
10
-1.6181379673
20
63.7182682642
11
-1.6176526794
21
63.7184401142
62
2
0
LINE
8
Setbacks
10
-1.6176526794
20
63.7184401142
11
-1.5672662644
21
63.7319412170
62
2
0
LINE
8
Setbacks
10
-1.5672662644
20
63.7319412170
11
-1.5185668734
21
63.7506351776
62
2
0
LINE
8
Setbacks
10
-1.5185668734
20
63.7506351776
11
-1.5180732489
21
63.7507813958
62
2
0
LINE
8
Setbacks
10
-1.5180732489
20
63.7507813958
11
-1.1697372798
21
63.8248224087
62
2
0
LINE
8
Setbacks
10
-1.1697372798
20
63.8248224087
11
-1.1692268499
21
63.8248896071
62
2
0
LINE
8
Setbacks
10
-1.1692268499
20
63.8248896071
11
-1.1171347847
21
63.8276194537
62
2
0
LINE
8
Setbacks
10
-1.1171347847
20
63.8276194537
11
-1.0656126885
21
63.8357798903
62
2
0
LINE
8
Setbacks
10
-1.0656126885
20
63.8357798903
11
-1.0650994435
21
63.8358202842
62
2
0
LINE
8
Setbacks
10
-1.0650994435
20
63.8358202842
11
-0.7089816500
21
63.8358202842
62
2
0
LINE
8
Setbacks
10
-0.7089816500
20
63.8358202842
11
-0.7084684219
21
63.8357798930
62
2
0
LINE
8
Setbacks
10
-0.7084684219
20
63.8357798930
11
-0.6569466363
21
63.8276197808
62
2
0
LINE
8
Setbacks
10
-0.6569466363
20
63.8276197808
11
-0.6048538971
21
63.8248896061
62
2
0
LINE
8
Setbacks
10
-0.6048538971
20
63.8248896061
11
-0.6043434850
21
63.8248224086
62
2
0
LINE
8
Setbacks
10
-0.6043434850
20
63.8248224086
11
-0.2560078440
21
63.7507813957
62
2
0
LINE
8
Setbacks
10
-0.2560078440
20
63.7507813957
11
-0.2555142201
21
63.7506351776
62
2
0
LINE
8
Setbacks
10
-0.2555142201
20
63.7506351776
11
-0.2068148291
21
63.7319412170
62
2
0
LINE
8
Setbacks
10
-0.2068148291
20
63.7319412170
11
-0.1564284141
21
63.7184401142
62
2
0
LINE
8
Setbacks
10
-0.1564284141
20
63.7184401142
11
-0.1559431262
21
63.7182682642
62
2
0
LINE
8
Setbacks
10
-0.1559431262
20
63.7182682642
11
0.1693866086
21
63.5734221310
62
2
0
LINE
8
Setbacks
10
0.1693866086
20
63.5734221310
11
0.1698390400
21
63.5731764812
62
2
0
LINE
8
Setbacks
10
0.1698390400
20
63.5731764812
11
0.2135882187
21
63.5447655284
62
2
0
LINE
8
Setbacks
10
0.2135882187
20
63.5447655284
11
0.2600659325
21
63.5210837417
62
2
0
LINE
8
Setbacks
10
0.2600659325
20
63.5210837417
11
0.2605048798
21
63.5208147535
62
2
0
LINE
8
Setbacks
10
0.2605048798
20
63.5208147535
11
0.5486102040
21
63.3114942087
62
2
0
LINE
8
Setbacks
10
0.5486102040
20
63.3114942087
11
0.5490016700
21
63.3111598669
62
2
0
LINE
8
Setbacks
10
0.5490016700
20
63.3111598669
11
0.5858876457
21
63.2742742182
62
2
0
LINE
8
Setbacks
10
0.5858876457
20
63.2742742182
11
0.6264262790
21
63.2414463914
62
2
0
LINE
8
Setbacks
10
0.6264262790
20
63.2414463914
11
0.6267997071
21
63.2410920199
62
2
0
LINE
8
Setbacks
10
0.6267997071
20
63.2410920199
11
0.8650890848
21
62.9764450298
62
2
0
LINE
8
Setbacks
10
0.8650890848
20
62.9764450298
11
0.8654024840
21
62.9760366016
62
2
0
LINE
8
Setbacks
10
0.8654024840
20
62.9760366016
11
0.8938131098
21
62.9322884040
62
2
0
LINE
8
Setbacks
10
0.8938131098
20
62.9322884040
11
0.9266409359
21
62.8917491175
62
2
0
LINE
8
Setbacks
10
0.9266409359
20
62.8917491175
11
0.9269325273
21
62.8913248479
62
2
0
LINE
8
Setbacks
10
0.9269325273
20
62.8913248479
11
1.1049915881
21
62.5829176858
62
2
0
LINE
8
Setbacks
10
1.1049915881
20
62.5829176858
11
1.1052132280
21
62.5824530070
62
2
0
LINE
8
Setbacks
10
1.1052132280
20
62.5824530070
11
1.1239071865
21
62.5337532947
62
2
0
LINE
8
Setbacks
10
1.1239071865
20
62.5337532947
11
1.1475889678
21
62.4872752645
62
2
0
LINE
8
Setbacks
10
1.1475889678
20
62.4872752645
11
1.1477859831
21
62.4867996282
62
2
0
LINE
8
Setbacks
10
1.1477859831
20
62.4867996282
11
1.2578325745
21
62.1481112971
62
2
0
LINE
8
Setbacks
10
1.2578325745
20
62.1481112971
11
1.2579527566
21
62.1476107061
62
2
0
LINE
8
Setbacks
10
1.2579527566
20
62.1476107061
11
1.2661131961
21
62.0960885915
62
2
0
LINE
8
Setbacks
10
1.2661131961
20
62.0960885915
11
1.2796139730
21
62.0457024993
62
2
0
LINE
8
Setbacks
10
1.2796139730
20
62.0457024993
11
1.2797077900
21
62.0451963042
62
2
0
LINE
8
Setbacks
10
1.2797077900
20
62.0451963042
11
1.3169322006
21
61.6910292981
62
2
0
LINE
8
Setbacks
10
1.3169322006
20
61.6910292981
11
1.3169456778
21
61.6905146640
62
2
0
LINE
8
Setbacks
10
1.3169456778
20
61.6905146640
11
1.3142158299
21
61.6384222475
62
2
0
LINE
8
Setbacks
10
1.3142158299
20
61.6384222475
11
1.3169456778
21
61.5863295029
62
2
0
LINE
8
Setbacks
10
1.3169456778
20
61.5863295029
11
1.3169322006
21
61.5858148699
62
2
0
LINE
8
Setbacks
10
1.3169322006
20
61.5858148699
11
1.2797077900
21
61.2316478638
62
2
0
LINE
8
Setbacks
10
1.2797077900
20
61.2316478638
11
1.2796139730
21
61.2311416687
62
2
0
LINE
8
Setbacks
10
1.2796139730
20
61.2311416687
11
1.2661131961
21
61.1807555764
62
2
0
LINE
8
Setbacks
10
1.2661131961
20
61.1807555764
11
1.2579527566
21
61.1292334619
62
2
0
LINE
8
Setbacks
10
1.2579527566
20
61.1292334619
11
1.2578325745
21
61.1287328708
62
2
0
LINE
8
Setbacks
10
1.2578325745
20
61.1287328708
11
1.1477859831
21
60.7900445398
62
2
0
LINE
8
Setbacks
10
1.1477859831
20
60.7900445398
11
1.1475889719
21
60.7895689115
62
2
0
LINE
8
Setbacks
10
1.1475889719
20
60.7895689115
11
1.1239075135
21
60.7430912003
62
2
0
LINE
8
Setbacks
10
1.1239075135
20
60.7430912003
11
1.1052132238
21
60.6943911500
62
2
0
LINE
8
Setbacks
10
1.1052132238
20
60.6943911500
11
1.1049915874
21
60.6939264809
62
2
0
LINE
8
Setbacks
10
1.1049915874
20
60.6939264809
11
0.9269325265
21
60.3855196469
62
2
0
LINE
8
Setbacks
10
0.9269325265
20
60.3855196469
11
0.9266409359
21
60.3850953785
62
2
0
LINE
8
Setbacks
10
0.9266409359
20
60.3850953785
11
0.8938131098
21
60.3445560920
62
2
0
LINE
8
Setbacks
10
0.8938131098
20
60.3445560920
11
0.8654024840
21
60.3008078945
62
2
0
LINE
8
Setbacks
10
0.8654024840
20
60.3008078945
11
0.8650890861
21
60.3003994677
62
2
0
LINE
8
Setbacks
10
0.8650890861
20
60.3003994677
11
0.6267997084
21
60.0357521495
62
2
0
LINE
8
Setbacks
10
0.6267997084
20
60.0357521495
11
0.6264262666
21
60.0353977665
62
2
0
LINE
8
Setbacks
10
0.6264262666
20
60.0353977665
11
0.5858876457
21
60.0025702768
62
2
0
LINE
8
Setbacks
10
0.5858876457
20
60.0025702768
11
0.5490016802
21
59.9656843114
62
2
0
LINE
8
Setbacks
10
0.5490016802
20
59.9656843114
11
0.5486102040
21
59.9653499593
62
2
0
LINE
8
Setbacks
10
0.5486102040
20
59.9653499593
11
0.2605048798
21
59.7560294145
62
2
0
LINE
8
Setbacks
10
0.2605048798
20
59.7560294145
11
0.2600659164
21
59.7557604181
62
2
0
LINE
8
Setbacks
10
0.2600659164
20
59.7557604181
11
0.2135888727
21
59.7320792936
62
2
0
LINE
8
Setbacks
10
0.2135888727
20
59.7320792936
11
0.1698390502
21
59.7036676933
62
2
0
LINE
8
Setbacks
10
0.1698390502
20
59.7036676933
11
0.1693866086
21
59.7034220370
62
2
0
LINE
8
Setbacks
10
0.1693866086
20
59.7034220370
11
-0.1559431262
21
59.5585759037
62
2
0
LINE
8
Setbacks
10
-0.1559431262
20
59.5585759037
11
-0.1564284207
21
59.5584040520
62
2
0
LINE
8
Setbacks
10
-0.1564284207
20
59.5584040520
11
-0.2068164734
21
59.5449026215
62
2
0
LINE
8
Setbacks
10
-0.2068164734
20
59.5449026215
11
-0.2555142215
21
59.5262093179
62
2
0
LINE
8
Setbacks
10
-0.2555142215
20
59.5262093179
11
-0.2560078440
21
59.5260631003
62
2
0
LINE
8
Setbacks
10
-0.2560078440
20
59.5260631003
11
-0.6043434850
21
59.4520220875
62
2
0
LINE
8
Setbacks
10
-0.6043434850
20
59.4520220875
11
-0.6048538896
21
59.4519548903
62
2
0
LINE
8
Setbacks
10
-0.6048538896
20
59.4519548903
11
-0.6569443371
21
59.4492247158
62
2
0
LINE
8
Setbacks
10
0.0239749728
20
81.2065213423
11
-0.0275471234
21
81.1983609057
62
2
0
LINE
8
Setbacks
10
-0.0275471234
20
81.1983609057
11
-0.0280603684
21
81.1983205117
62
2
0
LINE
8
Setbacks
10
-0.0280603684
20
81.1983205117
11
-0.2695649693
21
81.1983205117
62
2
0
LINE
8
Setbacks
10
-0.2695649693
20
81.1983205117
11
-0.2700781973
21
81.1983609030
62
2
0
LINE
8
Setbacks
10
-0.2700781973
20
81.1983609030
11
-0.3215999829
21
81.2065210152
62
2
0
LINE
8
Setbacks
10
-0.3215999829
20
81.2065210152
11
-0.3736927221
21
81.2092511898
62
2
0
LINE
8
Setbacks
10
-0.3736927221
20
81.2092511898
11
-0.3742031344
21
81.2093183874
62
2
0
LINE
8
Setbacks
10
-0.3742031344
20
81.2093183874
11
-0.6104301761
21
81.2595300032
62
2
0
LINE
8
Setbacks
10
-0.6104301761
20
81.2595300032
11
-0.6109237971
21
81.2596762202
62
2
0
LINE
8
Setbacks
10
-0.6109237971
20
81.2596762202
11
-0.6596241693
21
81.2783705079
62
2
0
LINE
8
Setbacks
10
-0.6596241693
20
81.2783705079
11
-0.7100099249
21
81.2918712823
62
2
0
LINE
8
Setbacks
10
-0.7100099249
20
81.2918712823
11
-0.7104952211
21
81.2920431344
62
2
0
LINE
8
Setbacks
10
-0.7104952211
20
81.2920431344
11
-0.9311205563
21
81.3902718121
62
2
0
LINE
8
Setbacks
10
-0.9311205563
20
81.3902718121
11
-0.9315729933
21
81.3905174654
62
2
0
LINE
8
Setbacks
10
-0.9315729933
20
81.3905174654
11
-0.9753224940
21
81.4189287419
62
2
0
LINE
8
Setbacks
10
-0.9753224940
20
81.4189287419
11
-1.0217998727
21
81.4426101975
62
2
0
LINE
8
Setbacks
10
-1.0217998727
20
81.4426101975
11
-1.0222388272
21
81.4428791892
62
2
0
LINE
8
Setbacks
10
-1.0222388272
20
81.4428791892
11
-1.2176203951
21
81.5848319496
62
2
0
LINE
8
Setbacks
10
-1.2176203951
20
81.5848319496
11
-1.2180118722
21
81.5851663024
62
2
0
LINE
8
Setbacks
10
-1.2180118722
20
81.5851663024
11
-1.2548975107
21
81.6220519408
62
2
0
LINE
8
Setbacks
10
-1.2548975107
20
81.6220519408
11
-1.2954364610
21
81.6548797595
62
2
0
LINE
8
Setbacks
10
-1.2954364610
20
81.6548797595
11
-1.2958099012
21
81.6552341414
62
2
0
LINE
8
Setbacks
10
-1.2958099012
20
81.6552341414
11
-1.4574080035
21
81.8347072442
62
2
0
LINE
8
Setbacks
10
-1.4574080035
20
81.8347072442
11
-1.4577214034
21
81.8351156745
62
2
0
LINE
8
Setbacks
10
-1.4577214034
20
81.8351156745
11
-1.4861323534
21
81.8788645217
62
2
0
LINE
8
Setbacks
10
-1.4861323534
20
81.8788645217
11
-1.5189598462
21
81.9194031465
62
2
0
LINE
8
Setbacks
10
-1.5189598462
20
81.9194031465
11
-1.5192514437
21
81.9198274236
62
2
0
LINE
8
Setbacks
10
-1.5192514437
20
81.9198274236
11
-1.6400037442
21
82.1289763805
62
2
0
LINE
8
Setbacks
10
-1.6400037442
20
82.1289763805
11
-1.6402253806
21
82.1294410499
62
2
0
LINE
8
Setbacks
10
-1.6402253806
20
82.1294410499
11
-1.6589190124
21
82.1781394552
62
2
0
LINE
8
Setbacks
10
-1.6589190124
20
82.1781394552
11
-1.6826014524
21
82.2246188026
62
2
0
LINE
8
Setbacks
10
-1.6826014524
20
82.2246188026
11
-1.6827984682
21
82.2250944408
62
2
0
LINE
8
Setbacks
10
-1.6827984682
20
82.2250944408
11
-1.7574274076
21
82.4547791594
62
2
0
LINE
8
Setbacks
10
-1.7574274076
20
82.4547791594
11
-1.7575475898
21
82.4552797543
62
2
0
LINE
8
Setbacks
10
-1.7575475898
20
82.4552797543
11
-1.7657080288
21
82.5068025192
62
2
0
LINE
8
Setbacks
10
-1.7657080288
20
82.5068025192
11
-1.7792088038
21
82.5571882777
62
2
0
LINE
8
Setbacks
10
-1.7792088038
20
82.5571882777
11
-1.7793026222
21
82.5576944775
62
2
0
LINE
8
Setbacks
10
-1.7793026222
20
82.5576944775
11
-1.8045467175
21
82.7978759156
62
2
0
LINE
8
Setbacks
10
-1.8045467175
20
82.7978759156
11
-1.8045601947
21
82.7983905492
62
2
0
LINE
8
Setbacks
10
-1.8045601947
20
82.7983905492
11
-1.8018303468
21
82.8504832937
62
2
0
LINE
8
Setbacks
10
-1.8018303468
20
82.8504832937
11
-1.8045601947
21
82.9025757102
62
2
0
LINE
8
Setbacks
10
-1.8045601947
20
82.9025757102
11
-1.8045467175
21
82.9030903444
62
2
0
LINE
8
Setbacks
10
-1.8045467175
20
82.9030903444
11
-1.7793026222
21
83.1432721106
62
2
0
LINE
8
Setbacks
10
-1.7793026222
20
83.1432721106
11
-1.7792088025
21
83.1437783159
62
2
0
LINE
8
Setbacks
10
-1.7792088025
20
83.1437783159
11
-1.7657080288
21
83.1941637423
62
2
0
LINE
8
Setbacks
10
-1.7657080288
20
83.1941637423
11
-1.7575475903
21
83.2456868310
62
2
0
LINE
8
Setbacks
10
-1.7575475903
20
83.2456868310
11
-1.7574274072
21
83.2461874304
62
2
0
LINE
8
Setbacks
10
-1.7574274072
20
83.2461874304
11
-1.6827984678
21
83.4758718209
62
2
0
LINE
8
Setbacks
10
-1.6827984678
20
83.4758718209
11
-1.6826014567
21
83.4763474495
62
2
0
LINE
8
Setbacks
10
-1.6826014567
20
83.4763474495
11
-1.6589190124
21
83.5228271322
62
2
0
LINE
8
Setbacks
10
-1.6589190124
20
83.5228271322
11
-1.6402253780
21
83.5715252174
62
2
0
LINE
8
Setbacks
10
-1.6402253780
20
83.5715252174
11
-1.6400037453
21
83.5719898781
62
2
0
LINE
8
Setbacks
10
-1.6400037453
20
83.5719898781
11
-1.5192514449
21
83.7811391630
62
2
0
LINE
8
Setbacks
10
-1.5192514449
20
83.7811391630
11
-1.5189598462
21
83.7815634420
62
2
0
LINE
8
Setbacks
10
-1.5189598462
20
83.7815634420
11
-1.4861323534
21
83.8221020668
62
2
0
LINE
8
Setbacks
10
-1.4861323534
20
83.8221020668
11
-1.4577214034
21
83.8658509140
62
2
0
LINE
8
Setbacks
10
-1.4577214034
20
83.8658509140
11
-1.4574080035
21
83.8662593443
62
2
0
LINE
8
Setbacks
10
-1.4574080035
20
83.8662593443
11
-1.2958099012
21
84.0457324471
62
2
0
LINE
8
Setbacks
10
-1.2958099012
20
84.0457324471
11
-1.2954364485
21
84.0460868391
62
2
0
LINE
8
Setbacks
10
-1.2954364485
20
84.0460868391
11
-1.2548975107
21
84.0789143207
62
2
0
LINE
8
Setbacks
10
-1.2548975107
20
84.0789143207
11
-1.2180118825
21
84.1158002758
62
2
0
LINE
8
Setbacks
10
-1.2180118825
20
84.1158002758
11
-1.2176203951
21
84.1161346389
62
2
0
LINE
8
Setbacks
10
-1.2176203951
20
84.1161346389
11
-1.0222388272
21
84.2580873993
62
2
0
LINE
8
Setbacks
10
-1.0222388272
20
84.2580873993
11
-1.0217998641
21
84.2583563954
62
2
0
LINE
8
Setbacks
10
-1.0217998641
20
84.2583563954
11
-0.9753215053
21
84.2820381776
62
2
0
LINE
8
Setbacks
10
-0.9753215053
20
84.2820381776
11
-0.9315729926
21
84.3104487955
62
2
0
LINE
8
Setbacks
10
-0.9315729926
20
84.3104487955
11
-0.9311205600
21
84.3106944467
62
2
0
LINE
8
Setbacks
10
-0.9311205600
20
84.3106944467
11
-0.7104952248
21
84.4089234525
62
2
0
LINE
8
Setbacks
10
-0.7104952248
20
84.4089234525
11
-0.7100099287
21
84.4090953053
62
2
0
LINE
8
Setbacks
10
-0.7100099287
20
84.4090953053
11
-0.6596231883
21
84.4225964076
62
2
0
LINE
8
Setbacks
10
-0.6596231883
20
84.4225964076
11
-0.6109237998
21
84.4412903672
62
2
0
LINE
8
Setbacks
10
-0.6109237998
20
84.4412903672
11
-0.6104301761
21
84.4414365853
62
2
0
LINE
8
Setbacks
10
-0.6104301761
20
84.4414365853
11
-0.3742031344
21
84.4916482011
62
2
0
LINE
8
Setbacks
10
-0.3742031344
20
84.4916482011
11
-0.3736927221
21
84.4917153987
62
2
0
LINE
8
Setbacks
10
-0.3736927221
20
84.4917153987
11
-0.3215999829
21
84.4944455733
62
2
0
LINE
8
Setbacks
10
-0.3215999829
20
84.4944455733
11
-0.2700781973
21
84.5026056855
62
2
0
LINE
8
Setbacks
10
-0.2700781973
20
84.5026056855
11
-0.2695649693
21
84.5026460768
62
2
0
LINE
8
Setbacks
10
-0.2695649693
20
84.5026460768
11
-0.0280603684
21
84.5026460768
62
2
0
LINE
8
Setbacks
10
-0.0280603684
20
84.5026460768
11
-0.0275471234
21
84.5026056829
62
2
0
LINE
8
Setbacks
10
-0.0275471234
20
84.5026056829
11
0.0239749728
21
84.4944452462
62
2
0
LINE
8
Setbacks
10
0.0239749728
20
84.4944452462
11
0.0760670381
21
84.4917153997
62
2
0
LINE
8
Setbacks
10
0.0760670381
20
84.4917153997
11
0.0765774678
21
84.4916482013
62
2
0
LINE
8
Setbacks
10
0.0765774678
20
84.4916482013
11
0.3128048376
21
84.4414365855
62
2
0
LINE
8
Setbacks
10
0.3128048376
20
84.4414365855
11
0.3132984732
21
84.4412903630
62
2
0
LINE
8
Setbacks
10
0.3132984732
20
84.4412903630
11
0.3619981802
21
84.4225960796
62
2
0
LINE
8
Setbacks
10
0.3619981802
20
84.4225960796
11
0.4123842541
21
84.4090953076
62
2
0
LINE
8
Setbacks
10
0.4123842541
20
84.4090953076
11
0.4128695575
21
84.4089234532
62
2
0
LINE
8
Setbacks
10
0.4128695575
20
84.4089234532
11
0.6334952207
21
84.3106944475
62
2
0
LINE
8
Setbacks
10
0.6334952207
20
84.3106944475
11
0.6339476499
21
84.3104487988
62
2
0
LINE
8
Setbacks
10
0.6339476499
20
84.3104487988
11
0.6776958406
21
84.2820385046
62
2
0
LINE
8
Setbacks
10
0.6776958406
20
84.2820385046
11
0.7241745345
21
84.2583563913
62
2
0
LINE
8
Setbacks
10
0.7241745345
20
84.2583563913
11
0.7246134917
21
84.2580873978
62
2
0
LINE
8
Setbacks
10
0.7246134917
20
84.2580873978
11
0.9199947315
21
84.1161346374
62
2
0
LINE
8
Setbacks
10
0.9199947315
20
84.1161346374
11
0.9203862066
21
84.1158002861
62
2
0
LINE
8
Setbacks
10
0.9203862066
20
84.1158002861
11
0.9572721720
21
84.0789143207
62
2
0
LINE
8
Setbacks
10
0.9572721720
20
84.0789143207
11
0.9978107929
21
84.0460868309
62
2
0
LINE
8
Setbacks
10
0.9978107929
20
84.0460868309
11
0.9981842333
21
84.0457324496
62
2
0
LINE
8
Setbacks
10
0.9981842333
20
84.0457324496
11
1.1597826637
21
83.8662593467
62
2
0
LINE
8
Setbacks
10
1.1597826637
20
83.8662593467
11
1.1600960724
21
83.8658509039
62
2
0
LINE
8
Setbacks
10
1.1600960724
20
83.8658509039
11
1.1885063617
21
83.8221027208
62
2
0
LINE
8
Setbacks
10
1.1885063617
20
83.8221027208
11
1.2213345048
21
83.7815634467
62
2
0
LINE
8
Setbacks
10
1.2213345048
20
83.7815634467
11
1.2216261073
21
83.7811391630
62
2
0
LINE
8
Setbacks
10
1.2216261073
20
83.7811391630
11
1.3423784077
21
83.5719898781
62
2
0
LINE
8
Setbacks
10
1.3423784077
20
83.5719898781
11
1.3426000424
21
83.5715252120
62
2
0
LINE
8
Setbacks
10
1.3426000424
20
83.5715252120
11
1.3612943321
21
83.5228251616
62
2
0
LINE
8
Setbacks
10
1.3612943321
20
83.5228251616
11
1.3849757905
21
83.4763474504
62
2
0
LINE
8
Setbacks
10
1.3849757905
20
83.4763474504
11
1.3851728008
21
83.4758718250
62
2
0
LINE
8
Setbacks
10
1.3851728008
20
83.4758718250
11
1.4598020683
21
83.2461874344
62
2
0
LINE
8
Setbacks
10
1.4598020683
20
83.2461874344
11
1.4599222544
21
83.2456868205
62
2
0
LINE
8
Setbacks
10
1.4599222544
20
83.2456868205
11
1.4680823641
21
83.1941647234
62
2
0
LINE
8
Setbacks
10
1.4680823641
20
83.1941647234
11
1.4815834638
21
83.1437783197
62
2
0
LINE
8
Setbacks
10
1.4815834638
20
83.1437783197
11
1.4816772846
21
83.1432721106
62
2
0
LINE
8
Setbacks
10
1.4816772846
20
83.1432721106
11
1.5069213799
21
82.9030903444
62
2
0
LINE
8
Setbacks
10
1.5069213799
20
82.9030903444
11
1.5069348560
21
82.9025756897
62
2
0
LINE
8
Setbacks
10
1.5069348560
20
82.9025756897
11
1.5042046822
21
82.8504832937
62
2
0
LINE
8
Setbacks
10
1.5042046822
20
82.8504832937
11
1.5069348560
21
82.7983905697
62
2
0
LINE
8
Setbacks
10
1.5069348560
20
82.7983905697
11
1.5069213799
21
82.7978759156
62
2
0
LINE
8
Setbacks
10
1.5069213799
20
82.7978759156
11
1.4816772846
21
82.5576944775
62
2
0
LINE
8
Setbacks
10
1.4816772846
20
82.5576944775
11
1.4815834652
21
82.5571882739
62
2
0
LINE
8
Setbacks
10
1.4815834652
20
82.5571882739
11
1.4680823641
21
82.5068015382
62
2
0
LINE
8
Setbacks
10
1.4680823641
20
82.5068015382
11
1.4599222539
21
82.4552797649
62
2
0
LINE
8
Setbacks
10
1.4599222539
20
82.4552797649
11
1.4598020687
21
82.4547791554
62
2
0
LINE
8
Setbacks
10
1.4598020687
20
82.4547791554
11
1.3851728012
21
82.2250944368
62
2
0
LINE
8
Setbacks
10
1.3851728012
20
82.2250944368
11
1.3849757905
21
82.2246188100
62
2
0
LINE
8
Setbacks
10
1.3849757905
20
82.2246188100
11
1.3612943321
21
82.1781410988
62
2
0
LINE
8
Setbacks
10
1.3612943321
20
82.1781410988
11
1.3426000424
21
82.1294410485
62
2
0
LINE
8
Setbacks
10
1.3426000424
20
82.1294410485
11
1.3423784066
21
82.1289763805
62
2
0
LINE
8
Setbacks
10
1.3423784066
20
82.1289763805
11
1.2216261061
21
81.9198274236
62
2
0
LINE
8
Setbacks
10
1.2216261061
20
81.9198274236
11
1.2213345048
21
81.9194031418
62
2
0
LINE
8
Setbacks
10
1.2213345048
20
81.9194031418
11
1.1885063617
21
81.8788638677
62
2
0
LINE
8
Setbacks
10
1.1885063617
20
81.8788638677
11
1.1600960724
21
81.8351156846
62
2
0
LINE
8
Setbacks
10
1.1600960724
20
81.8351156846
11
1.1597826637
21
81.8347072418
62
2
0
LINE
8
Setbacks
10
1.1597826637
20
81.8347072418
11
0.9981842333
21
81.6552341389
62
2
0
LINE
8
Setbacks
10
0.9981842333
20
81.6552341389
11
0.9978108053
21
81.6548797676
62
2
0
LINE
8
Setbacks
10
0.9978108053
20
81.6548797676
11
0.9572721720
21
81.6220519408
62
2
0
LINE
8
Setbacks
10
0.9572721720
20
81.6220519408
11
0.9203861963
21
81.5851662921
62
2
0
LINE
8
Setbacks
10
0.9203861963
20
81.5851662921
11
0.9199947315
21
81.5848319512
62
2
0
LINE
8
Setbacks
10
0.9199947315
20
81.5848319512
11
0.7246134917
21
81.4428791907
62
2
0
LINE
8
Setbacks
10
0.7246134917
20
81.4428791907
11
0.7241745348
21
81.4426101974
62
2
0
LINE
8
Setbacks
10
0.7241745348
20
81.4426101974
11
0.6776965024
21
81.4189284149
62
2
0
LINE
8
Setbacks
10
0.6776965024
20
81.4189284149
11
0.6339476601
21
81.3905174682
62
2
0
LINE
8
Setbacks
10
0.6339476601
20
81.3905174682
11
0.6334952170
21
81.3902718113
62
2
0
LINE
8
Setbacks
10
0.6334952170
20
81.3902718113
11
0.4128695538
21
81.2920431336
62
2
0
LINE
8
Setbacks
10
0.4128695538
20
81.2920431336
11
0.4123842695
21
81.2918712850
62
2
0
LINE
8
Setbacks
10
0.4123842695
20
81.2918712850
11
0.3619991612
21
81.2783705089
62
2
0
LINE
8
Setbacks
10
0.3619991612
20
81.2783705089
11
0.3132984526
21
81.2596762176
62
2
0
LINE
8
Setbacks
10
0.3132984526
20
81.2596762176
11
0.3128048376
21
81.2595300030
62
2
0
LINE
8
Setbacks
10
0.3128048376
20
81.2595300030
11
0.0765774678
21
81.2093183872
62
2
0
LINE
8
Setbacks
10
0.0765774678
20
81.2093183872
11
0.0760670381
21
81.2092511889
62
2
0
LINE
8
Setbacks
10
0.0760670381
20
81.2092511889
11
0.0239749728
21
81.2065213423
62
2
0
LINE
8
Setbacks
10
-6.6265428630
20
-3.3008770741
11
-6.6270561002
21
-3.3008366814
62
2
0
LINE
8
Setbacks
10
-6.6270561002
20
-3.3008366814
11
-6.7815646353
21
-3.2763648959
62
2
0
LINE
8
Setbacks
10
-6.7815646353
20
-3.2763648959
11
-6.7820652343
21
-3.2762447125
62
2
0
LINE
8
Setbacks
10
-6.7820652343
20
-3.2762447125
11
-6.7825408693
21
-3.2760476979
62
2
0
LINE
8
Setbacks
10
-6.7825408693
20
-3.2760476979
11
-6.9219247320
21
-3.2050280106
62
2
0
LINE
8
Setbacks
10
-6.9219247320
20
-3.2050280106
11
-6.9223636887
21
-3.2047590177
62
2
0
LINE
8
Setbacks
10
-6.9223636887
20
-3.2047590177
11
-6.9227551616
21
-3.2044246689
62
2
0
LINE
8
Setbacks
10
-6.9227551616
20
-3.2044246689
11
-7.0333713069
21
-3.0938088517
62
2
0
LINE
8
Setbacks
10
-7.0333713069
20
-3.0938088517
11
-7.0337056606
21
-3.0934173746
62
2
0
LINE
8
Setbacks
10
-7.0337056606
20
-3.0934173746
11
-7.0339746568
21
-3.0929784125
62
2
0
LINE
8
Setbacks
10
-7.0339746568
20
-3.0929784125
11
-7.1049943441
21
-2.9535942217
62
2
0
LINE
8
Setbacks
10
-7.1049943441
20
-2.9535942217
11
-7.1051913579
21
-2.9531185880
62
2
0
LINE
8
Setbacks
10
-7.1051913579
20
-2.9531185880
11
-7.1053115407
21
-2.9526179905
62
2
0
LINE
8
Setbacks
10
-7.1053115407
20
-2.9526179905
11
-7.1297833263
21
-2.7981094554
62
2
0
LINE
8
Setbacks
10
-7.1297833263
20
-2.7981094554
11
-7.1298237190
21
-2.7975962181
62
2
0
LINE
8
Setbacks
10
-7.1298237190
20
-2.7975962181
11
-7.1298237190
21
-0.4017434512
62
2
0
LINE
8
Setbacks
10
-7.1298237190
20
-0.4017434512
11
-7.1297833263
21
-0.4012302140
62
2
0
LINE
8
Setbacks
10
-7.1297833263
20
-0.4012302140
11
-7.1053115407
21
-0.2467216788
62
2
0
LINE
8
Setbacks
10
-7.1053115407
20
-0.2467216788
11
-7.1051913574
21
-0.2462210798
62
2
0
LINE
8
Setbacks
10
-7.1051913574
20
-0.2462210798
11
-7.1049943427
21
-0.2457454448
62
2
0
LINE
8
Setbacks
10
-7.1049943427
20
-0.2457454448
11
-7.0339746554
21
-0.1063615821
62
2
0
LINE
8
Setbacks
10
-7.0339746554
20
-0.1063615821
11
-7.0337056611
21
-0.1059226235
62
2
0
LINE
8
Setbacks
10
-7.0337056611
20
-0.1059226235
11
-7.0333713103
21
-0.1055311491
62
2
0
LINE
8
Setbacks
10
-7.0333713103
20
-0.1055311491
11
-6.9227551650
21
0.0050849962
62
2
0
LINE
8
Setbacks
10
-6.9227551650
20
0.0050849962
11
-6.9223636907
21
0.0054193469
62
2
0
LINE
8
Setbacks
10
-6.9223636907
20
0.0054193469
11
-6.9219247320
21
0.0056883413
62
2
0
LINE
8
Setbacks
10
-6.9219247320
20
0.0056883413
11
-6.7825408693
21
0.0767080286
62
2
0
LINE
8
Setbacks
10
-6.7825408693
20
0.0767080286
11
-6.7820652343
21
0.0769050432
62
2
0
LINE
8
Setbacks
10
-6.7820652343
20
0.0769050432
11
-6.7815646353
21
0.0770252266
62
2
0
LINE
8
Setbacks
10
-6.7815646353
20
0.0770252266
11
-6.6270561002
21
0.1014970121
62
2
0
LINE
8
Setbacks
10
-6.6270561002
20
0.1014970121
11
-6.6265428630
21
0.1015374048
62
2
0
LINE
8
Setbacks
10
-6.6265428630
20
0.1015374048
11
-2.9441575745
21
0.1015374048
62
2
0
LINE
8
Setbacks
10
-2.9441575745
20
0.1015374048
11
-2.9436443373
21
0.1014970121
62
2
0
LINE
8
Setbacks
10
-2.9436443373
20
0.1014970121
11
-2.7891358022
21
0.0770252266
62
2
0
LINE
8
Setbacks
10
-2.7891358022
20
0.0770252266
11
-2.7886352046
21
0.0769050437
62
2
0
LINE
8
Setbacks
10
-2.7886352046
20
0.0769050437
11
-2.7881595710
21
0.0767080300
62
2
0
LINE
8
Setbacks
10
-2.7881595710
20
0.0767080300
11
-2.6487753801
21
0.0056883427
62
2
0
LINE
8
Setbacks
10
-2.6487753801
20
0.0056883427
11
-2.6483364180
21
0.0054193464
62
2
0
LINE
8
Setbacks
10
-2.6483364180
20
0.0054193464
11
-2.6479449409
21
0.0050849927
62
2
0
LINE
8
Setbacks
10
-2.6479449409
20
0.0050849927
11
-2.5373291237
21
-0.1055311525
62
2
0
LINE
8
Setbacks
10
-2.5373291237
20
-0.1055311525
11
-2.5369947750
21
-0.1059226255
62
2
0
LINE
8
Setbacks
10
-2.5369947750
20
-0.1059226255
11
-2.5367257821
21
-0.1063615821
62
2
0
LINE
8
Setbacks
10
-2.5367257821
20
-0.1063615821
11
-2.4657060948
21
-0.2457454448
62
2
0
LINE
8
Setbacks
10
-2.4657060948
20
-0.2457454448
11
-2.4655090801
21
-0.2462210798
62
2
0
LINE
8
Setbacks
10
-2.4655090801
20
-0.2462210798
11
-2.4653888968
21
-0.2467216788
62
2
0
LINE
8
Setbacks
10
-2.4653888968
20
-0.2467216788
11
-2.4409171112
21
-0.4012302140
62
2
0
LINE
8
Setbacks
10
-2.4409171112
20
-0.4012302140
11
-2.4408767185
21
-0.4017434512
62
2
0
LINE
8
Setbacks
10
-2.4408767185
20
-0.4017434512
11
-2.4408767185
21
-2.7975962181
62
2
0
LINE
8
Setbacks
10
-2.4408767185
20
-2.7975962181
11
-2.4409171112
21
-2.7981094554
62
2
0
LINE
8
Setbacks
10
-2.4409171112
20
-2.7981094554
11
-2.4653888968
21
-2.9526179905
62
2
0
LINE
8
Setbacks
10
-2.4653888968
20
-2.9526179905
11
-2.4655090796
21
-2.9531185880
62
2
0
LINE
8
Setbacks
10
-2.4655090796
20
-2.9531185880
11
-2.4657060934
21
-2.9535942217
62
2
0
LINE
8
Setbacks
10
-2.4657060934
20
-2.9535942217
11
-2.5367257807
21
-3.0929784125
62
2
0
LINE
8
Setbacks
10
-2.5367257807
20
-3.0929784125
11
-2.5369947755
21
-3.0934173726
62
2
0
LINE
8
Setbacks
10
-2.5369947755
20
-3.0934173726
11
-2.5373291272
21
-3.0938088483
62
2
0
LINE
8
Setbacks
10
-2.5373291272
20
-3.0938088483
11
-2.6479449444
21
-3.2044246655
62
2
0
LINE
8
Setbacks
10
-2.6479449444
20
-3.2044246655
11
-2.6483364200
21
-3.2047590172
62
2
0
LINE
8
Setbacks
10
-2.6483364200
20
-3.2047590172
11
-2.6487753801
21
-3.2050280120
62
2
0
LINE
8
Setbacks
10
-2.6487753801
20
-3.2050280120
11
-2.7881595710
21
-3.2760476993
62
2
0
LINE
8
Setbacks
10
-2.7881595710
20
-3.2760476993
11
-2.7886352046
21
-3.2762447130
62
2
0
LINE
8
Setbacks
10
-2.7886352046
20
-3.2762447130
11
-2.7891358022
21
-3.2763648959
62
2
0
LINE
8
Setbacks
10
-2.7891358022
20
-3.2763648959
11
-2.9436443373
21
-3.3008366814
62
2
0
LINE
8
Setbacks
10
-2.9436443373
20
-3.3008366814
11
-2.9441575745
21
-3.3008770741
62
2
0
LINE
8
Setbacks
10
-2.9441575745
20
-3.3008770741
11
-6.6265428630
21
-3.3008770741
62
2
0
LINE
8
Setbacks
10
5.5280232804
20
51.9781588401
11
5.5280110037
21
51.9783149835
62
2
0
LINE
8
Setbacks
10
5.5280110037
20
51.9783149835
11
5.5280110037
21
60.5646712294
62
2
0
LINE
8
Setbacks
10
5.5280110037
20
60.5646712294
11
5.5280513965
21
60.5651844677
62
2
0
LINE
8
Setbacks
10
5.5280513965
20
60.5651844677
11
5.5525231821
21
60.7196926747
62
2
0
LINE
8
Setbacks
10
5.5525231821
20
60.7196926747
11
5.5526433650
21
60.7201932717
62
2
0
LINE
8
Setbacks
10
5.5526433650
20
60.7201932717
11
5.5528403785
21
60.7206689049
62
2
0
LINE
8
Setbacks
10
5.5528403785
20
60.7206689049
11
5.6238600658
21
60.8600530957
62
2
0
LINE
8
Setbacks
10
5.6238600658
20
60.8600530957
11
5.6241290606
21
60.8604920558
62
2
0
LINE
8
Setbacks
10
5.6241290606
20
60.8604920558
11
5.6244634123
21
60.8608835315
62
2
0
LINE
8
Setbacks
10
5.6244634123
20
60.8608835315
11
5.7350792295
21
60.9714993487
62
2
0
LINE
8
Setbacks
10
5.7350792295
20
60.9714993487
11
5.7354707027
21
60.9718336985
62
2
0
LINE
8
Setbacks
10
5.7354707027
20
60.9718336985
11
5.7359096598
21
60.9721026924
62
2
0
LINE
8
Setbacks
10
5.7359096598
20
60.9721026924
11
5.8752938506
21
61.0431227078
62
2
0
LINE
8
Setbacks
10
5.8752938506
20
61.0431227078
11
5.8757694869
21
61.0433197233
62
2
0
LINE
8
Setbacks
10
5.8757694869
20
61.0433197233
11
5.8762700873
21
61.0434399071
62
2
0
LINE
8
Setbacks
10
5.8762700873
20
61.0434399071
11
6.0307786224
21
61.0679116927
62
2
0
LINE
8
Setbacks
10
6.0307786224
20
61.0679116927
11
6.0312918597
21
61.0679520854
62
2
0
LINE
8
Setbacks
10
6.0312918597
20
61.0679520854
11
11.8962638321
21
61.0679520854
62
2
0
LINE
8
Setbacks
10
11.8962638321
20
61.0679520854
11
11.8967770704
21
61.0679116925
62
2
0
LINE
8
Setbacks
10
11.8967770704
20
61.0679116925
11
12.0512852775
21
61.0434399070
62
2
0
LINE
8
Setbacks
10
12.0512852775
20
61.0434399070
11
12.0517858773
21
61.0433197232
62
2
0
LINE
8
Setbacks
10
12.0517858773
20
61.0433197232
11
12.0522615131
21
61.0431227078
62
2
0
LINE
8
Setbacks
10
12.0522615131
20
61.0431227078
11
12.1916457039
21
60.9721026924
62
2
0
LINE
8
Setbacks
10
12.1916457039
20
60.9721026924
11
12.1920846610
21
60.9718336985
62
2
0
LINE
8
Setbacks
10
12.1920846610
20
60.9718336985
11
12.1924761342
21
60.9714993487
62
2
0
LINE
8
Setbacks
10
12.1924761342
20
60.9714993487
11
12.3030919514
21
60.8608835315
62
2
0
LINE
8
Setbacks
10
12.3030919514
20
60.8608835315
11
12.3034263013
21
60.8604920583
62
2
0
LINE
8
Setbacks
10
12.3034263013
20
60.8604920583
11
12.3036952951
21
60.8600531012
62
2
0
LINE
8
Setbacks
10
12.3036952951
20
60.8600531012
11
12.3747153105
21
60.7206689104
62
2
0
LINE
8
Setbacks
10
12.3747153105
20
60.7206689104
11
12.3749123259
21
60.7201932746
62
2
0
LINE
8
Setbacks
10
12.3749123259
20
60.7201932746
11
12.3750325097
21
60.7196926747
62
2
0
LINE
8
Setbacks
10
12.3750325097
20
60.7196926747
11
12.3995042952
21
60.5651844677
62
2
0
LINE
8
Setbacks
10
12.3995042952
20
60.5651844677
11
12.3995446881
21
60.5646712294
62
2
0
LINE
8
Setbacks
10
12.3995446881
20
60.5646712294
11
12.3995446881
21
54.6549599187
62
2
0
LINE
8
Setbacks
10
12.3995446881
20
54.6549599187
11
12.5222619173
21
54.7174873379
62
2
0
LINE
8
Setbacks
10
12.5222619173
20
54.7174873379
11
12.5227375507
21
54.7176843514
62
2
0
LINE
8
Setbacks
10
12.5227375507
20
54.7176843514
11
12.5232381478
21
54.7178045341
62
2
0
LINE
8
Setbacks
10
12.5232381478
20
54.7178045341
11
12.6777466829
21
54.7422763197
62
2
0
LINE
8
Setbacks
10
12.6777466829
20
54.7422763197
11
12.6782599201
21
54.7423167124
62
2
0
LINE
8
Setbacks
10
12.6782599201
20
54.7423167124
11
15.4298361237
21
54.7423167124
62
2
0
LINE
8
Setbacks
10
15.4298361237
20
54.7423167124
11
15.4303493609
21
54.7422763197
62
2
0
LINE
8
Setbacks
10
15.4303493609
20
54.7422763197
11
15.5848578960
21
54.7178045341
62
2
0
LINE
8
Setbacks
10
15.5848578960
20
54.7178045341
11
15.5853584936
21
54.7176843513
62
2
0
LINE
8
Setbacks
10
15.5853584936
20
54.7176843513
11
15.5858341272
21
54.7174873376
62
2
0
LINE
8
Setbacks
10
15.5858341272
20
54.7174873376
11
15.7252183181
21
54.6464676502
62
2
0
LINE
8
Setbacks
10
15.7252183181
20
54.6464676502
11
15.7256572802
21
54.6461986540
62
2
0
LINE
8
Setbacks
10
15.7256572802
20
54.6461986540
11
15.7260487573
21
54.6458643003
62
2
0
LINE
8
Setbacks
10
15.7260487573
20
54.6458643003
11
15.8366645745
21
54.5352481550
62
2
0
LINE
8
Setbacks
10
15.8366645745
20
54.5352481550
11
15.8369989214
21
54.5348566846
62
2
0
LINE
8
Setbacks
10
15.8369989214
20
54.5348566846
11
15.8372679133
21
54.5344177309
62
2
0
LINE
8
Setbacks
10
15.8372679133
20
54.5344177309
11
15.9082879287
21
54.3950338682
62
2
0
LINE
8
Setbacks
10
15.9082879287
20
54.3950338682
11
15.9084849463
21
54.3945582274
62
2
0
LINE
8
Setbacks
10
15.9084849463
20
54.3945582274
11
15.9086051306
21
54.3940576220
62
2
0
LINE
8
Setbacks
10
15.9086051306
20
54.3940576220
11
15.9330765880
21
54.2395490869
62
2
0
LINE
8
Setbacks
10
15.9330765880
20
54.2395490869
11
15.9331169797
21
54.2390358564
62
2
0
LINE
8
Setbacks
10
15.9331169797
20
54.2390358564
11
15.9331169797
21
51.7883999512
62
2
0
LINE
8
Setbacks
10
15.9331169797
20
51.7883999512
11
15.9330765880
21
51.7878867207
62
2
0
LINE
8
Setbacks
10
15.9330765880
20
51.7878867207
11
15.9086051306
21
51.6333781856
62
2
0
LINE
8
Setbacks
10
15.9086051306
20
51.6333781856
11
15.9084849467
21
51.6328775816
62
2
0
LINE
8
Setbacks
10
15.9084849467
20
51.6328775816
11
15.9082879302
21
51.6324019422
62
2
0
LINE
8
Setbacks
10
15.9082879302
20
51.6324019422
11
15.8372679148
21
51.4930177513
62
2
0
LINE
8
Setbacks
10
15.8372679148
20
51.4930177513
11
15.8369989209
21
51.4925787942
62
2
0
LINE
8
Setbacks
10
15.8369989209
20
51.4925787942
11
15.8366645710
21
51.4921873210
62
2
0
LINE
8
Setbacks
10
15.8366645710
20
51.4921873210
11
15.7260487538
21
51.3815715039
62
2
0
LINE
8
Setbacks
10
15.7260487538
20
51.3815715039
11
15.7256572782
21
51.3812371522
62
2
0
LINE
8
Setbacks
10
15.7256572782
20
51.3812371522
11
15.7252183181
21
51.3809681573
62
2
0
LINE
8
Setbacks
10
15.7252183181
20
51.3809681573
11
15.5858341272
21
51.3099484700
62
2
0
LINE
8
Setbacks
10
15.5858341272
20
51.3099484700
11
15.5853584936
21
51.3097514563
62
2
0
LINE
8
Setbacks
10
15.5853584936
20
51.3097514563
11
15.5848578960
21
51.3096312735
62
2
0
LINE
8
Setbacks
10
15.5848578960
20
51.3096312735
11
15.4303493609
21
51.2851594879
62
2
0
LINE
8
Setbacks
10
15.4303493609
20
51.2851594879
11
15.4298361237
21
51.2851190952
62
2
0
LINE
8
Setbacks
10
15.4298361237
20
51.2851190952
11
12.6782599201
21
51.2851190952
62
2
0
LINE
8
Setbacks
10
12.6782599201
20
51.2851190952
11
12.6777466829
21
51.2851594879
62
2
0
LINE
8
Setbacks
10
12.6777466829
20
51.2851594879
11
12.5232381478
21
51.3096312735
62
2
0
LINE
8
Setbacks
10
12.5232381478
20
51.3096312735
11
12.5227375503
21
51.3097514563
62
2
0
LINE
8
Setbacks
10
12.5227375503
20
51.3097514563
11
12.5222619166
21
51.3099484700
62
2
0
LINE
8
Setbacks
10
12.5222619166
20
51.3099484700
11
12.3828777258
21
51.3809681573
62
2
0
LINE
8
Setbacks
10
12.3828777258
20
51.3809681573
11
12.3824387656
21
51.3812371522
62
2
0
LINE
8
Setbacks
10
12.3824387656
20
51.3812371522
11
12.3820472900
21
51.3815715039
62
2
0
LINE
8
Setbacks
10
12.3820472900
20
51.3815715039
11
12.2714314728
21
51.4921873210
62
2
0
LINE
8
Setbacks
10
12.2714314728
20
51.4921873210
11
12.2710971226
21
51.4925787947
62
2
0
LINE
8
Setbacks
10
12.2710971226
20
51.4925787947
11
12.2708281285
21
51.4930177524
62
2
0
LINE
8
Setbacks
10
12.2708281285
20
51.4930177524
11
12.2166751538
21
51.5992987067
62
2
0
LINE
8
Setbacks
10
12.2166751538
20
51.5992987067
11
12.1927295457
21
51.5753232820
62
2
0
LINE
8
Setbacks
10
12.1927295457
20
51.5753232820
11
12.1923384685
21
51.5749888253
62
2
0
LINE
8
Setbacks
10
12.1923384685
20
51.5749888253
11
12.1922037711
21
51.5749061475
62
2
0
LINE
8
Setbacks
10
12.1922037711
20
51.5749061475
11
12.1920846568
21
51.5748044143
62
2
0
LINE
8
Setbacks
10
12.1920846568
20
51.5748044143
11
12.1916456946
21
51.5745354188
62
2
0
LINE
8
Setbacks
10
12.1916456946
20
51.5745354188
11
12.1221062508
21
51.5391034680
62
2
0
LINE
8
Setbacks
10
12.1221062508
20
51.5391034680
11
12.0525595888
21
51.5036131189
62
2
0
LINE
8
Setbacks
10
12.0525595888
20
51.5036131189
11
12.0520828673
21
51.5034154148
62
2
0
LINE
8
Setbacks
10
12.0520828673
20
51.5034154148
11
12.0519317148
21
51.5033791198
62
2
0
LINE
8
Setbacks
10
12.0519317148
20
51.5033791198
11
12.0517870695
21
51.5033191085
62
2
0
LINE
8
Setbacks
10
12.0517870695
20
51.5033191085
11
12.0512852788
21
51.5031985373
62
2
0
LINE
8
Setbacks
10
12.0512852788
20
51.5031985373
11
11.9739060335
21
51.4909427908
62
2
0
LINE
8
Setbacks
10
11.9739060335
20
51.4909427908
11
11.8970904363
21
51.4787273992
62
2
0
LINE
8
Setbacks
10
11.8970904363
20
51.4787273992
11
11.8965786520
21
51.4786866885
62
2
0
LINE
8
Setbacks
10
11.8965786520
20
51.4786866885
11
11.8962682845
21
51.4786863604
62
2
0
LINE
8
Setbacks
10
11.8962682845
20
51.4786863604
11
6.0316052544
21
51.4750344562
62
2
0
LINE
8
Setbacks
10
6.0316052544
20
51.4750344562
11
6.0314506434
21
51.4750466149
62
2
0
LINE
8
Setbacks
10
6.0314506434
20
51.4750466149
11
6.0312933691
21
51.4750341279
62
2
0
LINE
8
Setbacks
10
6.0312933691
20
51.4750341279
11
6.0307786189
21
51.4750745208
62
2
0
LINE
8
Setbacks
10
6.0307786189
20
51.4750745208
11
5.9534886207
21
51.4873161584
62
2
0
LINE
8
Setbacks
10
5.9534886207
20
51.4873161584
11
5.8765683731
21
51.4994498569
62
2
0
LINE
8
Setbacks
10
5.8765683731
20
51.4994498569
11
5.8760669467
21
51.4995699713
62
2
0
LINE
8
Setbacks
10
5.8760669467
20
51.4995699713
11
5.8759225566
21
51.4996297352
62
2
0
LINE
8
Setbacks
10
5.8759225566
20
51.4996297352
11
5.8757702350
21
51.4996662466
62
2
0
LINE
8
Setbacks
10
5.8757702350
20
51.4996662466
11
5.8752938550
21
51.4998635029
62
2
0
LINE
8
Setbacks
10
5.8752938550
20
51.4998635029
11
5.8055801959
21
51.5353843658
62
2
0
LINE
8
Setbacks
10
5.8055801959
20
51.5353843658
11
5.7361634530
21
51.5706995206
62
2
0
LINE
8
Setbacks
10
5.7361634530
20
51.5706995206
11
5.7357254608
21
51.5709674190
62
2
0
LINE
8
Setbacks
10
5.7357254608
20
51.5709674190
11
5.7356055948
21
51.5710695326
62
2
0
LINE
8
Setbacks
10
5.7356055948
20
51.5710695326
11
5.7354696892
21
51.5711529230
62
2
0
LINE
8
Setbacks
10
5.7354696892
20
51.5711529230
11
5.7350792295
21
51.5714865362
62
2
0
LINE
8
Setbacks
10
5.7350792295
20
51.5714865362
11
5.6798575076
21
51.6267082581
62
2
0
LINE
8
Setbacks
10
5.6798575076
20
51.6267082581
11
5.6246479252
21
51.6818492719
62
2
0
LINE
8
Setbacks
10
5.6246479252
20
51.6818492719
11
5.6243134696
21
51.6822403483
62
2
0
LINE
8
Setbacks
10
5.6243134696
20
51.6822403483
11
5.6242307927
21
51.6823750441
62
2
0
LINE
8
Setbacks
10
5.6242307927
20
51.6823750441
11
5.6241290609
21
51.6824941568
62
2
0
LINE
8
Setbacks
10
5.6241290609
20
51.6824941568
11
5.6238600661
21
51.6829331166
62
2
0
LINE
8
Setbacks
10
5.6238600661
20
51.6829331166
11
5.5883736519
21
51.7525791907
62
2
0
LINE
8
Setbacks
10
5.5883736519
20
51.7525791907
11
5.5529377631
21
51.8220192285
62
2
0
LINE
8
Setbacks
10
5.5529377631
20
51.8220192285
11
5.5527403916
21
51.8224949290
62
2
0
LINE
8
Setbacks
10
5.5527403916
20
51.8224949290
11
5.5527039569
21
51.8226463359
62
2
0
LINE
8
Setbacks
10
5.5527039569
20
51.8226463359
11
5.5526432750
21
51.8227928899
62
2
0
LINE
8
Setbacks
10
5.5526432750
20
51.8227928899
11
5.5525231817
21
51.8232932129
62
2
0
LINE
8
Setbacks
10
5.5525231817
20
51.8232932129
11
5.5403018851
21
51.9004555878
62
2
0
LINE
8
Setbacks
10
5.5403018851
20
51.9004555878
11
5.5280517178
21
51.9774883695
62
2
0
LINE
8
Setbacks
10
5.5280517178
20
51.9774883695
11
5.5280110042
21
51.9780018225
62
2
0
LINE
8
Setbacks
10
5.5280110042
20
51.9780018225
11
5.5280232804
21
51.9781588401
62
2
0
LINE
8
Setbacks
10
-14.2276628569
20
51.5992096564
11
-14.2281760874
21
51.5992500481
62
2
0
LINE
8
Setbacks
10
-14.2281760874
20
51.5992500481
11
-14.3826846225
21
51.6237215055
62
2
0
LINE
8
Setbacks
10
-14.3826846225
20
51.6237215055
11
-14.3831852264
21
51.6238416894
62
2
0
LINE
8
Setbacks
10
-14.3831852264
20
51.6238416894
11
-14.3836608659
21
51.6240387059
62
2
0
LINE
8
Setbacks
10
-14.3836608659
20
51.6240387059
11
-14.5230450567
21
51.6950587213
62
2
0
LINE
8
Setbacks
10
-14.5230450567
20
51.6950587213
11
-14.5234840139
21
51.6953277152
62
2
0
LINE
8
Setbacks
10
-14.5234840139
20
51.6953277152
11
-14.5238754870
21
51.6956620651
62
2
0
LINE
8
Setbacks
10
-14.5238754870
20
51.6956620651
11
-14.6344913042
21
51.8062778823
62
2
0
LINE
8
Setbacks
10
-14.6344913042
20
51.8062778823
11
-14.6348256559
21
51.8066693579
62
2
0
LINE
8
Setbacks
10
-14.6348256559
20
51.8066693579
11
-14.6350946507
21
51.8071083180
62
2
0
LINE
8
Setbacks
10
-14.6350946507
20
51.8071083180
11
-14.7061143380
21
51.9464925089
62
2
0
LINE
8
Setbacks
10
-14.7061143380
20
51.9464925089
11
-14.7063113517
21
51.9469681425
62
2
0
LINE
8
Setbacks
10
-14.7063113517
20
51.9469681425
11
-14.7064315346
21
51.9474687401
62
2
0
LINE
8
Setbacks
10
-14.7064315346
20
51.9474687401
11
-14.7309033202
21
52.1019772752
62
2
0
LINE
8
Setbacks
10
-14.7309033202
20
52.1019772752
11
-14.7309437129
21
52.1024905124
62
2
0
LINE
8
Setbacks
10
-14.7309437129
20
52.1024905124
11
-14.7309437129
21
54.3522543639
62
2
0
LINE
8
Setbacks
10
-14.7309437129
20
54.3522543639
11
-14.7309033202
21
54.3527676012
62
2
0
LINE
8
Setbacks
10
-14.7309033202
20
54.3527676012
11
-14.7064315346
21
54.5072761363
62
2
0
LINE
8
Setbacks
10
-14.7064315346
20
54.5072761363
11
-14.7063113517
21
54.5077767338
62
2
0
LINE
8
Setbacks
10
-14.7063113517
20
54.5077767338
11
-14.7061143380
21
54.5082523675
62
2
0
LINE
8
Setbacks
10
-14.7061143380
20
54.5082523675
11
-14.6350946507
21
54.6476365583
62
2
0
LINE
8
Setbacks
10
-14.6350946507
20
54.6476365583
11
-14.6348256559
21
54.6480755185
62
2
0
LINE
8
Setbacks
10
-14.6348256559
20
54.6480755185
11
-14.6344913042
21
54.6484669941
62
2
0
LINE
8
Setbacks
10
-14.6344913042
20
54.6484669941
11
-14.5238754870
21
54.7590828113
62
2
0
LINE
8
Setbacks
10
-14.5238754870
20
54.7590828113
11
-14.5234840114
21
54.7594171630
62
2
0
LINE
8
Setbacks
10
-14.5234840114
20
54.7594171630
11
-14.5230450512
21
54.7596861578
62
2
0
LINE
8
Setbacks
10
-14.5230450512
20
54.7596861578
11
-14.3836608604
21
54.8307058451
62
2
0
LINE
8
Setbacks
10
-14.3836608604
20
54.8307058451
11
-14.3831852267
21
54.8309028588
62
2
0
LINE
8
Setbacks
10
-14.3831852267
20
54.8309028588
11
-14.3826846292
21
54.8310230417
62
2
0
LINE
8
Setbacks
10
-14.3826846292
20
54.8310230417
11
-14.2281760941
21
54.8554948272
62
2
0
LINE
8
Setbacks
10
-14.2281760941
20
54.8554948272
11
-14.2276628569
21
54.8555352199
62
2
0
LINE
8
Setbacks
10
-14.2276628569
20
54.8555352199
11
-11.6496450578
21
54.8555352199
62
2
0
LINE
8
Setbacks
10
-11.6496450578
20
54.8555352199
11
-11.6496450578
21
60.5025833009
62
2
0
LINE
8
Setbacks
10
-11.6496450578
20
60.5025833009
11
-11.6496046651
21
60.5030965381
62
2
0
LINE
8
Setbacks
10
-11.6496046651
20
60.5030965381
11
-11.6251328796
21
60.6576050733
62
2
0
LINE
8
Setbacks
10
-11.6251328796
20
60.6576050733
11
-11.6250126967
21
60.6581056708
62
2
0
LINE
8
Setbacks
10
-11.6250126967
20
60.6581056708
11
-11.6248156830
21
60.6585813045
62
2
0
LINE
8
Setbacks
10
-11.6248156830
20
60.6585813045
11
-11.5537959957
21
60.7979654953
62
2
0
LINE
8
Setbacks
10
-11.5537959957
20
60.7979654953
11
-11.5535270008
21
60.7984044554
62
2
0
LINE
8
Setbacks
10
-11.5535270008
20
60.7984044554
11
-11.5531926492
21
60.7987959311
62
2
0
LINE
8
Setbacks
10
-11.5531926492
20
60.7987959311
11
-11.4425768320
21
60.9094117483
62
2
0
LINE
8
Setbacks
10
-11.4425768320
20
60.9094117483
11
-11.4421853588
21
60.9097460981
62
2
0
LINE
8
Setbacks
10
-11.4421853588
20
60.9097460981
11
-11.4417464017
21
60.9100150920
62
2
0
LINE
8
Setbacks
10
-11.4417464017
20
60.9100150920
11
-11.3023622109
21
60.9810351074
62
2
0
LINE
8
Setbacks
10
-11.3023622109
20
60.9810351074
11
-11.3018865714
21
60.9812321240
62
2
0
LINE
8
Setbacks
10
-11.3018865714
20
60.9812321240
11
-11.3013859675
21
60.9813523078
62
2
0
LINE
8
Setbacks
10
-11.3013859675
20
60.9813523078
11
-11.1468774323
21
61.0058237653
62
2
0
LINE
8
Setbacks
10
-11.1468774323
20
61.0058237653
11
-11.1463642018
21
61.0058641569
62
2
0
LINE
8
Setbacks
10
-11.1463642018
20
61.0058641569
11
-5.2813925575
21
61.0058641569
62
2
0
LINE
8
Setbacks
10
-5.2813925575
20
61.0058641569
11
-5.2808793269
21
61.0058237653
62
2
0
LINE
8
Setbacks
10
-5.2808793269
20
61.0058237653
11
-5.1263707918
21
60.9813523078
62
2
0
LINE
8
Setbacks
10
-5.1263707918
20
60.9813523078
11
-5.1258701879
21
60.9812321240
62
2
0
LINE
8
Setbacks
10
-5.1258701879
20
60.9812321240
11
-5.1253945484
21
60.9810351074
62
2
0
LINE
8
Setbacks
10
-5.1253945484
20
60.9810351074
11
-4.9860103576
21
60.9100150920
62
2
0
LINE
8
Setbacks
10
-4.9860103576
20
60.9100150920
11
-4.9855714005
21
60.9097460981
62
2
0
LINE
8
Setbacks
10
-4.9855714005
20
60.9097460981
11
-4.9851799273
21
60.9094117483
62
2
0
LINE
8
Setbacks
10
-4.9851799273
20
60.9094117483
11
-4.8745641101
21
60.7987959311
62
2
0
LINE
8
Setbacks
10
-4.8745641101
20
60.7987959311
11
-4.8742297584
21
60.7984044554
62
2
0
LINE
8
Setbacks
10
-4.8742297584
20
60.7984044554
11
-4.8739607636
21
60.7979654953
62
2
0
LINE
8
Setbacks
10
-4.8739607636
20
60.7979654953
11
-4.8029410763
21
60.6585813045
62
2
0
LINE
8
Setbacks
10
-4.8029410763
20
60.6585813045
11
-4.8027440626
21
60.6581056708
62
2
0
LINE
8
Setbacks
10
-4.8027440626
20
60.6581056708
11
-4.8026238797
21
60.6576050733
62
2
0
LINE
8
Setbacks
10
-4.8026238797
20
60.6576050733
11
-4.7781520942
21
60.5030965381
62
2
0
LINE
8
Setbacks
10
-4.7781520942
20
60.5030965381
11
-4.7781117015
21
60.5025833009
62
2
0
LINE
8
Setbacks
10
-4.7781117015
20
60.5025833009
11
-4.7781117015
21
51.9162273831
62
2
0
LINE
8
Setbacks
10
-4.7781117015
20
51.9162273831
11
-4.7781520942
21
51.9157141459
62
2
0
LINE
8
Setbacks
10
-4.7781520942
20
51.9157141459
11
-4.8026238797
21
51.7612056108
62
2
0
LINE
8
Setbacks
10
-4.8026238797
20
51.7612056108
11
-4.8027440626
21
51.7607050132
62
2
0
LINE
8
Setbacks
10
-4.8027440626
20
51.7607050132
11
-4.8029410763
21
51.7602293795
62
2
0
LINE
8
Setbacks
10
-4.8029410763
20
51.7602293795
11
-4.8739607636
21
51.6208451887
62
2
0
LINE
8
Setbacks
10
-4.8739607636
20
51.6208451887
11
-4.8742297584
21
51.6204062286
62
2
0
LINE
8
Setbacks
10
-4.8742297584
20
51.6204062286
11
-4.8745641101
21
51.6200147530
62
2
0
LINE
8
Setbacks
10
-4.8745641101
20
51.6200147530
11
-4.9851799273
21
51.5093989358
62
2
0
LINE
8
Setbacks
10
-4.9851799273
20
51.5093989358
11
-4.9855714029
21
51.5090645841
62
2
0
LINE
8
Setbacks
10
-4.9855714029
20
51.5090645841
11
-4.9860103631
21
51.5087955892
62
2
0
LINE
8
Setbacks
10
-4.9860103631
20
51.5087955892
11
-5.1253945539
21
51.4377759019
62
2
0
LINE
8
Setbacks
10
-5.1253945539
20
51.4377759019
11
-5.1258701876
21
51.4375788882
62
2
0
LINE
8
Setbacks
10
-5.1258701876
20
51.4375788882
11
-5.1263707851
21
51.4374587054
62
2
0
LINE
8
Setbacks
10
-5.1263707851
20
51.4374587054
11
-5.2808793202
21
51.4129869198
62
2
0
LINE
8
Setbacks
10
-5.2808793202
20
51.4129869198
11
-5.2813925575
21
51.4129465271
62
2
0
LINE
8
Setbacks
10
-5.2813925575
20
51.4129465271
11
-11.1463642018
21
51.4129465271
62
2
0
LINE
8
Setbacks
10
-11.1463642018
20
51.4129465271
11
-11.1468774390
21
51.4129869198
62
2
0
LINE
8
Setbacks
10
-11.1468774390
20
51.4129869198
11
-11.3013859742
21
51.4374587054
62
2
0
LINE
8
Setbacks
10
-11.3013859742
20
51.4374587054
11
-11.3018865717
21
51.4375788882
62
2
0
LINE
8
Setbacks
10
-11.3018865717
20
51.4375788882
11
-11.3023622054
21
51.4377759019
62
2
0
LINE
8
Setbacks
10
-11.3023622054
20
51.4377759019
11
-11.4417463962
21
51.5087955892
62
2
0
LINE
8
Setbacks
10
-11.4417463962
20
51.5087955892
11
-11.4421853563
21
51.5090645841
62
2
0
LINE
8
Setbacks
10
-11.4421853563
20
51.5090645841
11
-11.4425768320
21
51.5093989358
62
2
0
LINE
8
Setbacks
10
-11.4425768320
20
51.5093989358
11
-11.5323875526
21
51.5992096564
62
2
0
LINE
8
Setbacks
10
-11.5323875526
20
51.5992096564
11
-14.2276628569
21
51.5992096564
62
2
0
LINE
8
Setbacks
10
-31.8355773468
20
47.5319988534
11
-21.3102015416
21
47.4872612309
62
2
0
LINE
8
Setbacks
10
-21.3102015416
20
47.4872612309
11
-21.3123316499
21
65.0192761651
62
2
0
LINE
8
Setbacks
10
-21.3123316499
20
65.0192761651
11
-31.7610595310
21
65.0636884483
62
2
0
CIRCLE
8
Obstructions
10
-0.8870405094
20
61.6384221214
40
1.7034488949
62
252
0
CIRCLE
8
Obstructions
10
-0.1488127151
20
82.8504832488
40
1.1552102292
62
252
0
LINE
8
Obstructions
10
-15.9463039162
20
79.7643620978
11
-7.6536423020
21
79.7680143124
62
252
0
LINE
8
Obstructions
10
-7.6536423020
20
79.7680143124
11
-7.6536423020
21
75.3451826961
62
252
0
LINE
8
Obstructions
10
-7.6536423020
20
75.3451826961
11
-15.9463039162
21
75.3451826961
62
252
0
LINE
8
Obstructions
10
-15.9463039162
20
75.3451826961
11
-15.9463039162
21
79.7643620978
62
252
0
LINE
8
Obstructions
10
7.5515159252
20
79.6986222386
11
15.8470954381
21
79.6986222386
62
252
0
LINE
8
Obstructions
10
15.8470954381
20
79.6986222386
11
15.8470954381
21
75.2794428370
62
252
0
LINE
8
Obstructions
10
15.8470954381
20
75.2794428370
11
7.5544338239
21
75.2794428370
62
252
0
LINE
8
Obstructions
10
7.5544338239
20
75.2794428370
11
7.5515159252
21
79.6986222386
62
252
0
LINE
8
Obstructions
10
-21.3735912525
20
36.6791890345
11
-15.5115373494
21
36.6791890345
62
252
0
LINE
8
Obstructions
10
-15.5115373494
20
36.6791890345
11
-15.5086194548
21
28.0928330236
62
252
0
LINE
8
Obstructions
10
-15.5086194548
20
28.0928330236
11
-21.3735912525
21
28.0928330236
62
252
0
LINE
8
Obstructions
10
-21.3735912525
20
28.0928330236
11
-21.3735912525
21
36.6791890345
62
252
0
LINE
8
Obstructions
10
15.6661858619
20
36.6682323930
11
21.5311576596
21
36.6682323930
62
252
0
LINE
8
Obstructions
10
21.5311576596
20
36.6682323930
11
21.5340755542
21
28.0818763796
62
252
0
LINE
8
Obstructions
10
21.5340755542
20
28.0818763796
11
15.6691037606
21
28.0818763796
62
252
0
LINE
8
Obstructions
10
15.6691037606
20
28.0818763796
11
15.6661858619
21
36.6682323930
62
252
0
LINE
8
Obstructions
10
15.6399247940
20
12.5563130427
11
21.5048965918
21
12.5563130427
62
252
0
LINE
8
Obstructions
10
21.5048965918
20
12.5563130427
11
21.5048965918
21
3.9699570319
62
252
0
LINE
8
Obstructions
10
21.5048965918
20
3.9699570319
11
15.6399247940
21
3.9699570319
62
252
0
LINE
8
Obstructions
10
15.6399247940
20
3.9699570319
11
15.6399247940
21
12.5563130427
62
252
0
LINE
8
Obstructions
10
-21.3590017713
20
12.5343997572
11
-15.4940299736
21
12.5380519719
62
252
0
LINE
8
Obstructions
10
-15.4940299736
20
12.5380519719
11
-15.4940299736
21
3.9516959610
62
252
0
LINE
8
Obstructions
10
-15.4940299736
20
3.9516959610
11
-21.3590017713
21
3.9516959610
62
252
0
LINE
8
Obstructions
10
-21.3590017713
20
3.9516959610
11
-21.3590017713
21
12.5343997572
62
252
0
LINE
8
Obstructions
10
6.0312918928
20
60.5646710925
11
11.8962636905
21
60.5646710925
62
252
0
LINE
8
Obstructions
10
11.8962636905
20
60.5646710925
11
11.8962636905
21
51.9819672937
62
252
0
LINE
8
Obstructions
10
11.8962636905
20
51.9819672937
11
6.0312918928
21
51.9783150817
62
252
0
LINE
8
Obstructions
10
6.0312918928
20
51.9783150817
11
6.0312918928
21
60.5646710925
62
252
0
LINE
8
Obstructions
10
-11.1463643095
20
60.5025834481
11
-5.2813925117
21
60.5025834481
62
252
0
LINE
8
Obstructions
10
-5.2813925117
20
60.5025834481
11
-5.2813925117
21
51.9162274372
62
252
0
LINE
8
Obstructions
10
-5.2813925117
20
51.9162274372
11
-11.1463643095
21
51.9162274372
62
252
0
LINE
8
Obstructions
10
-11.1463643095
20
51.9162274372
11
-11.1463643095
21
60.5025834481
62
252
0
LINE
8
Obstructions
10
-6.6265427613
20
-0.4017435815
11
-2.9441574855
21
-0.4017435815
62
252
0
LINE
8
Obstructions
10
-2.9441574855
20
-0.4017435815
11
-2.9441574855
21
-2.7975962169
62
252
0
LINE
8
Obstructions
10
-2.9441574855
20
-2.7975962169
11
-6.6265427613
21
-2.7975962169
62
252
0
LINE
8
Obstructions
10
-6.6265427613
20
-2.7975962169
11
-6.6265427613
21
-0.4017435815
62
252
0
LINE
8
Obstructions
10
12.6782599327
20
54.2390357816
11
15.4298362512
21
54.2390357816
62
252
0
LINE
8
Obstructions
10
15.4298362512
20
54.2390357816
11
15.4298362512
21
51.7883999337
62
252
0
LINE
8
Obstructions
10
15.4298362512
20
51.7883999337
11
12.6782599327
21
51.7883999337
62
252
0
LINE
8
Obstructions
10
12.6782599327
20
51.7883999337
11
12.6782599327
21
54.2390357816
62
252
0
LINE
8
Obstructions
10
-14.2276629276
20
54.3522544290
11
-11.0880063846
21
54.3522544290
62
252
0
LINE
8
Obstructions
10
-11.0880063846
20
54.3522544290
11
-11.0880063846
21
52.1024903705
62
252
0
LINE
8
Obstructions
10
-11.0880063846
20
52.1024903705
11
-14.2276629276
21
52.1024903705
62
252
0
LINE
8
Obstructions
10
-14.2276629276
20
52.1024903705
11
-14.2276629276
21
54.3522544290
62
252
0
ENDSEC
0
EOF