999
Design created by Aurora
0
SECTION
2
HEADER
9
$ACADVER
1
AC1009
9
$INSUNITS
70
2
0
ENDSEC
0
SECTION
2
TABLES
0
TABLE
2
LTYPE
100
AcDbLinetypeTableRecord
2
LTYPE
0
LTYPE
2
DASHED
70
0
3
dashed line
72
65
73
2
40
4.0
49
2.0
49
-2.0
0
ENDTAB
0
TABLE
2
LAYER
70
7
0
LAYER
100
AcDbSymbolTable
100
AcDbLayerTable
2
Obstructions
70
0
62
7
6
CONTINUOUS
0
LAYER
100
AcDbSymbolTable
100
AcDbLayerTable
2
Inverters
70
0
62
7
6
CONTINUOUS
0
LAYER
100
AcDbSymbolTable
100
AcDbLayerTable
2
Setbacks
70
0
62
7
6
CONTINUOUS
0
LAYER
100
AcDbSymbolTable
100
AcDbLayerTable
2
Connections
70
0
62
7
6
CONTINUOUS
0
LAYER
100
AcDbSymbolTable
100
AcDbLayerTable
2
Strings
70
0
62
7
6
CONTINUOUS
0
LAYER
100
AcDbSymbolTable
100
AcDbLayerTable
2
Modules
70
0
62
7
6
CONTINUOUS
0
LAYER
100
AcDbSymbolTable
100
AcDbLayerTable
2
Buildings
70
0
62
7
6
CONTINUOUS
0
ENDTAB
0
ENDSEC
0
SECTION
2
ENTITIES
0
LINE
8
Modules
10
-7.1461941770
20
5.7720493788
11
-13.1275605602
21
5.8226570696
62
254
0
LINE
8
Modules
10
-13.1275605602
20
5.8226570696
11
-13.1565675000
21
2.3943019797
62
254
0
LINE
8
Modules
10
-13.1565675000
20
2.3943019797
11
-7.1752011167
21
2.3436942889
62
254
0
LINE
8
Modules
10
-7.1752011167
20
2.3436942889
11
-7.1461941770
21
5.7720493788
62
254
0
LINE
8
Modules
10
-7.1752645671
20
2.3024457146
11
-13.1566309504
21
2.3530534053
62
254
0
LINE
8
Modules
10
-13.1566309504
20
2.3530534053
11
-13.1856378901
21
-1.0753016846
62
254
0
LINE
8
Modules
10
-13.1856378901
20
-1.0753016846
11
-7.2042715069
21
-1.1259093753
62
254
0
LINE
8
Modules
10
-7.2042715069
20
-1.1259093753
11
-7.1752645671
21
2.3024457146
62
254
0
LINE
8
Modules
10
-7.2043349614
20
-1.1671579471
11
-13.1857013446
21
-1.1165502563
62
254
0
LINE
8
Modules
10
-13.1857013446
20
-1.1165502563
11
-13.2147082844
21
-4.5449053463
62
254
0
LINE
8
Modules
10
-13.2147082844
20
-4.5449053463
11
-7.2333419011
21
-4.5955130370
62
254
0
LINE
8
Modules
10
-7.2333419011
20
-4.5955130370
11
-7.2043349614
21
-1.1671579471
62
254
0
LINE
8
Modules
10
-7.2334053515
20
-4.6367616114
11
-13.2147717347
21
-4.5861539206
62
254
0
LINE
8
Modules
10
-13.2147717347
20
-4.5861539206
11
-13.2437786745
21
-8.0145090105
62
254
0
LINE
8
Modules
10
-13.2437786745
20
-8.0145090105
11
-7.2624122913
21
-8.0651167013
62
254
0
LINE
8
Modules
10
-7.2624122913
20
-8.0651167013
11
-7.2334053515
21
-4.6367616114
62
254
0
LINE
8
Modules
10
-7.2624757458
20
-8.1063652731
11
-13.2438421290
21
-8.0557575823
62
254
0
LINE
8
Modules
10
-13.2438421290
20
-8.0557575823
11
-13.2728490688
21
-11.4841126722
62
254
0
LINE
8
Modules
10
-13.2728490688
20
-11.4841126722
11
-7.2914826855
21
-11.5347203630
62
254
0
LINE
8
Modules
10
-7.2914826855
20
-11.5347203630
11
-7.2624757458
21
-8.1063652731
62
254
0
LINE
8
Modules
10
-7.2915461359
20
-11.5796211494
11
-13.2729125191
21
-11.5290134587
62
254
0
LINE
8
Modules
10
-13.2729125191
20
-11.5290134587
11
-13.3019194589
21
-14.9573685486
62
254
0
LINE
8
Modules
10
-13.3019194589
20
-14.9573685486
11
-7.3205530756
21
-15.0079762393
62
254
0
LINE
8
Modules
10
-7.3205530756
20
-15.0079762393
11
-7.2915461359
21
-11.5796211494
62
254
0
LINE
8
Modules
10
-7.3235235675
20
-15.0492248137
11
-13.3048899508
21
-14.9986171229
62
254
0
LINE
8
Modules
10
-13.3048899508
20
-14.9986171229
11
-13.3338968905
21
-18.4269722128
62
254
0
LINE
8
Modules
10
-13.3338968905
20
-18.4269722128
11
-7.3525305073
21
-18.4775799036
62
254
0
LINE
8
Modules
10
-7.3525305073
20
-18.4775799036
11
-7.3235235675
21
-15.0492248137
62
254
0
LINE
8
Modules
10
-7.1171236361
20
9.2416529190
11
-13.0984901910
21
9.2922608518
62
254
0
LINE
8
Modules
10
-13.0984901910
20
9.2922608518
11
-13.1274972606
21
5.8639057629
62
254
0
LINE
8
Modules
10
-13.1274972606
20
5.8639057629
11
-7.1461307056
21
5.8132978302
62
254
0
LINE
8
Modules
10
-7.1461307056
20
5.8132978302
11
-7.1171236361
21
9.2416529190
62
254
0
LINE
8
Modules
10
-7.3525938069
20
-18.5188285969
11
-13.3339603619
21
-18.4682206642
62
254
0
LINE
8
Modules
10
-13.3339603619
20
-18.4682206642
11
-13.3629674314
21
-21.8965757530
62
254
0
LINE
8
Modules
10
-13.3629674314
20
-21.8965757530
11
-7.3816008764
21
-21.9471836858
62
254
0
LINE
8
Modules
10
-7.3816008764
20
-21.9471836858
11
-7.3525938069
21
-18.5188285969
62
254
0
LINE
8
Modules
10
-1.3752508567
20
-12.3777150562
11
-1.3939313807
21
-15.7540548975
62
254
0
LINE
8
Modules
10
-1.3939313807
20
-15.7540548975
11
4.7706726259
21
-15.7881622559
62
254
0
LINE
8
Modules
10
4.7706726259
20
-15.7881622559
11
4.7893531499
21
-12.4118224146
62
254
0
LINE
8
Modules
10
4.7893531499
20
-12.4118224146
11
-1.3752508567
21
-12.3777150562
62
254
0
LINE
8
Modules
10
4.8283707629
20
-12.4105849857
11
4.8096902389
21
-15.7869248271
62
254
0
LINE
8
Modules
10
4.8096902389
20
-15.7869248271
11
10.9742942455
21
-15.8210321855
62
254
0
LINE
8
Modules
10
10.9742942455
20
-15.8210321855
11
10.9929747695
21
-12.4446923442
62
254
0
LINE
8
Modules
10
10.9929747695
20
-12.4446923442
11
4.8283707629
21
-12.4105849857
62
254
0
LINE
8
Modules
10
11.0348994281
20
-12.4471071300
11
11.0162189041
21
-15.8234469713
62
254
0
LINE
8
Modules
10
11.0162189041
20
-15.8234469713
11
17.1808229107
21
-15.8575543297
62
254
0
LINE
8
Modules
10
17.1808229107
20
-15.8575543297
11
17.1995034347
21
-12.4812144884
62
254
0
LINE
8
Modules
10
17.1995034347
20
-12.4812144884
11
11.0348994281
21
-12.4471071300
62
254
0
LINE
8
Modules
10
17.2414280892
20
-12.4799770595
11
17.2227475652
21
-15.8563169009
62
254
0
LINE
8
Modules
10
17.2227475652
20
-15.8563169009
11
23.3873515718
21
-15.8904242593
62
254
0
LINE
8
Modules
10
23.3873515718
20
-15.8904242593
11
23.4060320958
21
-12.5140844180
62
254
0
LINE
8
Modules
10
23.4060320958
20
-12.5140844180
11
17.2414280892
21
-12.4799770595
62
254
0
LINE
8
Modules
10
23.4479567503
20
-12.5164992038
11
23.4292762263
21
-15.8928390451
62
254
0
LINE
8
Modules
10
23.4292762263
20
-15.8928390451
11
29.5938802329
21
-15.9269464035
62
254
0
LINE
8
Modules
10
29.5938802329
20
-15.9269464035
11
29.6125607569
21
-12.5506065622
62
254
0
LINE
8
Modules
10
29.6125607569
20
-12.5506065622
11
23.4479567503
21
-12.5164992038
62
254
0
LINE
8
Modules
10
29.6544854114
20
-12.5493691333
11
29.6358048874
21
-15.9257089747
62
254
0
LINE
8
Modules
10
29.6358048874
20
-15.9257089747
11
35.8004088940
21
-15.9598163331
62
254
0
LINE
8
Modules
10
35.8004088940
20
-15.9598163331
11
35.8190894180
21
-12.5834764918
62
254
0
LINE
8
Modules
10
35.8190894180
20
-12.5834764918
11
29.6544854114
21
-12.5493691333
62
254
0
LINE
8
Modules
10
35.8610140725
20
-12.5822390629
11
35.8423335485
21
-15.9585789042
62
254
0
LINE
8
Modules
10
35.8423335485
20
-15.9585789042
11
42.0069375551
21
-15.9926862626
62
254
0
LINE
8
Modules
10
42.0069375551
20
-15.9926862626
11
42.0256180791
21
-12.6163464213
62
254
0
LINE
8
Modules
10
42.0256180791
20
-12.6163464213
11
35.8610140725
21
-12.5822390629
62
254
0
LINE
8
Modules
10
42.0675427378
20
-12.6187612072
11
42.0488622138
21
-15.9951010485
62
254
0
LINE
8
Modules
10
42.0488622138
20
-15.9951010485
11
48.2134662203
21
-16.0292084069
62
254
0
LINE
8
Modules
10
48.2134662203
20
-16.0292084069
11
48.2321467443
21
-12.6528685656
62
254
0
LINE
8
Modules
10
48.2321467443
20
-12.6528685656
11
42.0675427378
21
-12.6187612072
62
254
0
LINE
8
Modules
10
-1.3519945454
20
-8.0023622281
11
-1.3706750694
21
-11.3787020695
62
254
0
LINE
8
Modules
10
-1.3706750694
20
-11.3787020695
11
4.7939289371
21
-11.4128094279
62
254
0
LINE
8
Modules
10
4.7939289371
20
-11.4128094279
11
4.8126094611
21
-8.0364695866
62
254
0
LINE
8
Modules
10
4.8126094611
20
-8.0364695866
11
-1.3519945454
21
-8.0023622281
62
254
0
LINE
8
Modules
10
4.8545341157
20
-8.0352321577
11
4.8358535917
21
-11.4115719990
62
254
0
LINE
8
Modules
10
4.8358535917
20
-11.4115719990
11
11.0004575982
21
-11.4456793574
62
254
0
LINE
8
Modules
10
11.0004575982
20
-11.4456793574
11
11.0191381222
21
-8.0693395161
62
254
0
LINE
8
Modules
10
11.0191381222
20
-8.0693395161
11
4.8545341157
21
-8.0352321577
62
254
0
LINE
8
Modules
10
11.0610627809
20
-8.0681020873
11
11.0423822569
21
-11.4444419286
62
254
0
LINE
8
Modules
10
11.0423822569
20
-11.4444419286
11
17.2069862635
21
-11.4785492870
62
254
0
LINE
8
Modules
10
17.2069862635
20
-11.4785492870
11
17.2256667875
21
-8.1022094457
62
254
0
LINE
8
Modules
10
17.2256667875
20
-8.1022094457
11
11.0610627809
21
-8.0681020873
62
254
0
LINE
8
Modules
10
17.2675914420
20
-8.1046242315
11
17.2489109180
21
-11.4809640728
62
254
0
LINE
8
Modules
10
17.2489109180
20
-11.4809640728
11
23.4135149246
21
-11.5150714312
62
254
0
LINE
8
Modules
10
23.4135149246
20
-11.5150714312
11
23.4321954486
21
-8.1387315899
62
254
0
LINE
8
Modules
10
23.4321954486
20
-8.1387315899
11
17.2675914420
21
-8.1046242315
62
254
0
LINE
8
Modules
10
23.4741201031
20
-8.1374941585
11
23.4554395791
21
-11.5138339998
62
254
0
LINE
8
Modules
10
23.4554395791
20
-11.5138339998
11
29.6200435857
21
-11.5479413582
62
254
0
LINE
8
Modules
10
29.6200435857
20
-11.5479413582
11
29.6387241097
21
-8.1716015169
62
254
0
LINE
8
Modules
10
29.6387241097
20
-8.1716015169
11
23.4741201031
21
-8.1374941585
62
254
0
LINE
8
Modules
10
29.6777417268
20
-8.1740163027
11
29.6590612028
21
-11.5503561440
62
254
0
LINE
8
Modules
10
29.6590612028
20
-11.5503561440
11
35.8236652094
21
-11.5844635024
62
254
0
LINE
8
Modules
10
35.8236652094
20
-11.5844635024
11
35.8423457334
21
-8.2081236611
62
254
0
LINE
8
Modules
10
35.8423457334
20
-8.2081236611
11
29.6777417268
21
-8.1740163027
62
254
0
LINE
8
Modules
10
-1.3287382300
20
-3.6233571828
11
-1.3474187540
21
-6.9996970241
62
254
0
LINE
8
Modules
10
-1.3474187540
20
-6.9996970241
11
4.8171852526
21
-7.0338043826
62
254
0
LINE
8
Modules
10
4.8171852526
20
-7.0338043826
11
4.8358657766
21
-3.6574645412
62
254
0
LINE
8
Modules
10
4.8358657766
20
-3.6574645412
11
-1.3287382300
21
-3.6233571828
62
254
0
LINE
8
Modules
10
4.8777904311
20
-3.6598793271
11
4.8591099071
21
-7.0362191684
62
254
0
LINE
8
Modules
10
4.8591099071
20
-7.0362191684
11
11.0237139137
21
-7.0703265268
62
254
0
LINE
8
Modules
10
11.0237139137
20
-7.0703265268
11
11.0423944377
21
-3.6939866855
62
254
0
LINE
8
Modules
10
11.0423944377
20
-3.6939866855
11
4.8777904311
21
-3.6598793271
62
254
0
LINE
8
Modules
10
11.0843190922
20
-3.6927492566
11
11.0656385682
21
-7.0690890979
62
254
0
LINE
8
Modules
10
11.0656385682
20
-7.0690890979
11
17.2302425748
21
-7.1031964564
62
254
0
LINE
8
Modules
10
17.2302425748
20
-7.1031964564
11
17.2489230988
21
-3.7268566151
62
254
0
LINE
8
Modules
10
17.2489230988
20
-3.7268566151
11
11.0843190922
21
-3.6927492566
62
254
0
LINE
8
Modules
10
17.2908477533
20
-3.7292714009
11
17.2721672293
21
-7.1056112422
62
254
0
LINE
8
Modules
10
17.2721672293
20
-7.1056112422
11
23.4367712359
21
-7.1397186006
62
254
0
LINE
8
Modules
10
23.4367712359
20
-7.1397186006
11
23.4554517599
21
-3.7633787593
62
254
0
LINE
8
Modules
10
23.4554517599
20
-3.7633787593
11
17.2908477533
21
-3.7292714009
62
254
0
LINE
8
Modules
10
23.4973764144
20
-3.7621413304
11
23.4786958904
21
-7.1384811717
62
254
0
LINE
8
Modules
10
23.4786958904
20
-7.1384811717
11
29.6432998970
21
-7.1725885302
62
254
0
LINE
8
Modules
10
29.6432998970
20
-7.1725885302
11
29.6619804210
21
-3.7962486889
62
254
0
LINE
8
Modules
10
29.6619804210
20
-3.7962486889
11
23.4973764144
21
-3.7621413304
62
254
0
LINE
8
Modules
10
29.7039050796
20
-3.7950112600
11
29.6852245556
21
-7.1713511013
62
254
0
LINE
8
Modules
10
29.6852245556
20
-7.1713511013
11
35.8498285622
21
-7.2054584597
62
254
0
LINE
8
Modules
10
35.8498285622
20
-7.2054584597
11
35.8685090862
21
-3.8291186184
62
254
0
LINE
8
Modules
10
35.8685090862
20
-3.8291186184
11
29.7039050796
21
-3.7950112600
62
254
0
LINE
8
Modules
10
-1.3054819187
20
0.7519956452
11
-1.3241624427
21
-2.6243441961
62
254
0
LINE
8
Modules
10
-1.3241624427
20
-2.6243441961
11
4.8404415638
21
-2.6584515545
62
254
0
LINE
8
Modules
10
4.8404415638
20
-2.6584515545
11
4.8591220878
21
0.7178882868
62
254
0
LINE
8
Modules
10
4.8591220878
20
0.7178882868
11
-1.3054819187
21
0.7519956452
62
254
0
LINE
8
Modules
10
4.9010467424
20
0.7154735010
11
4.8823662184
21
-2.6608663403
62
254
0
LINE
8
Modules
10
4.8823662184
20
-2.6608663403
11
11.0469702249
21
-2.6949736988
62
254
0
LINE
8
Modules
10
11.0469702249
20
-2.6949736988
11
11.0656507489
21
0.6813661425
62
254
0
LINE
8
Modules
10
11.0656507489
20
0.6813661425
11
4.9010467424
21
0.7154735010
62
254
0
LINE
8
Modules
10
11.1075754076
20
0.6826035714
11
11.0888948836
21
-2.6937362699
62
254
0
LINE
8
Modules
10
11.0888948836
20
-2.6937362699
11
17.2534988902
21
-2.7278436283
62
254
0
LINE
8
Modules
10
17.2534988902
20
-2.7278436283
11
17.2721794142
21
0.6484962130
62
254
0
LINE
8
Modules
10
17.2721794142
20
0.6484962130
11
11.1075754076
21
0.6826035714
62
254
0
LINE
8
Modules
10
17.3141040687
20
0.6497336418
11
17.2954235447
21
-2.7266061995
62
254
0
LINE
8
Modules
10
17.2954235447
20
-2.7266061995
11
23.4600275513
21
-2.7607135579
62
254
0
LINE
8
Modules
10
23.4600275513
20
-2.7607135579
11
23.4787080753
21
0.6156262834
62
254
0
LINE
8
Modules
10
23.4787080753
20
0.6156262834
11
17.3141040687
21
0.6497336418
62
254
0
LINE
8
Modules
10
23.5206327298
20
0.6132115002
11
23.5019522058
21
-2.7631283411
62
254
0
LINE
8
Modules
10
23.5019522058
20
-2.7631283411
11
29.6665562124
21
-2.7972356995
62
254
0
LINE
8
Modules
10
29.6665562124
20
-2.7972356995
11
29.6852367364
21
0.5791041418
62
254
0
LINE
8
Modules
10
29.6852367364
20
0.5791041418
11
23.5206327298
21
0.6132115002
62
254
0
LINE
8
Modules
10
29.7271613909
20
0.5803415706
11
29.7084808669
21
-2.7959982707
62
254
0
LINE
8
Modules
10
29.7084808669
20
-2.7959982707
11
35.8730848735
21
-2.8301056291
62
254
0
LINE
8
Modules
10
35.8730848735
20
-2.8301056291
11
35.8917653975
21
0.5462342122
62
254
0
LINE
8
Modules
10
35.8917653975
20
0.5462342122
11
29.7271613909
21
0.5803415706
62
254
0
LINE
8
Modules
10
-1.2793185660
20
5.1273484758
11
-1.2979990900
21
1.7510086345
62
254
0
LINE
8
Modules
10
-1.2979990900
20
1.7510086345
11
4.8666049166
21
1.7169012761
62
254
0
LINE
8
Modules
10
4.8666049166
20
1.7169012761
11
4.8852854406
21
5.0932411174
62
254
0
LINE
8
Modules
10
4.8852854406
20
5.0932411174
11
-1.2793185660
21
5.1273484758
62
254
0
LINE
8
Modules
10
4.9272100951
20
5.0944785463
11
4.9085295711
21
1.7181387050
62
254
0
LINE
8
Modules
10
4.9085295711
20
1.7181387050
11
11.0731335777
21
1.6840313466
62
254
0
LINE
8
Modules
10
11.0731335777
20
1.6840313466
11
11.0918141017
21
5.0603711879
62
254
0
LINE
8
Modules
10
11.0918141017
20
5.0603711879
11
4.9272100951
21
5.0944785463
62
254
0
LINE
8
Modules
10
11.1337387604
20
5.0579564020
11
11.1150582364
21
1.6816165607
62
254
0
LINE
8
Modules
10
11.1150582364
20
1.6816165607
11
17.2796622429
21
1.6475092023
62
254
0
LINE
8
Modules
10
17.2796622429
20
1.6475092023
11
17.2983427669
21
5.0238490436
62
254
0
LINE
8
Modules
10
17.2983427669
20
5.0238490436
11
11.1337387604
21
5.0579564020
62
254
0
LINE
8
Modules
10
17.3402674215
20
5.0250864725
11
17.3215868975
21
1.6487466312
62
254
0
LINE
8
Modules
10
17.3215868975
20
1.6487466312
11
23.4861909040
21
1.6146392727
62
254
0
LINE
8
Modules
10
23.4861909040
20
1.6146392727
11
23.5048714280
21
4.9909791141
62
254
0
LINE
8
Modules
10
23.5048714280
20
4.9909791141
11
17.3402674215
21
5.0250864725
62
254
0
LINE
8
Modules
10
23.5467960826
20
4.9922165429
11
23.5281155586
21
1.6158767016
62
254
0
LINE
8
Modules
10
23.5281155586
20
1.6158767016
11
29.6927195651
21
1.5817693432
62
254
0
LINE
8
Modules
10
29.6927195651
20
1.5817693432
11
29.7114000891
21
4.9581091845
62
254
0
LINE
8
Modules
10
29.7114000891
20
4.9581091845
11
23.5467960826
21
4.9922165429
62
254
0
LINE
8
Modules
10
29.7504177063
20
4.9556943987
11
29.7317371823
21
1.5793545574
62
254
0
LINE
8
Modules
10
29.7317371823
20
1.5793545574
11
35.8963411889
21
1.5452471989
62
254
0
LINE
8
Modules
10
35.8963411889
20
1.5452471989
11
35.9150217129
21
4.9215870403
62
254
0
LINE
8
Modules
10
35.9150217129
20
4.9215870403
11
29.7504177063
21
4.9556943987
62
254
0
LINE
8
Modules
10
-1.2560622506
20
9.5027013039
11
-1.2747427746
21
6.1263614626
62
254
0
LINE
8
Modules
10
-1.2747427746
20
6.1263614626
11
4.8898612320
21
6.0922541042
62
254
0
LINE
8
Modules
10
4.8898612320
20
6.0922541042
11
4.9085417560
21
9.4685939455
62
254
0
LINE
8
Modules
10
4.9085417560
20
9.4685939455
11
-1.2560622506
21
9.5027013039
62
254
0
LINE
8
Modules
10
11.1569950716
20
9.4369614448
11
11.1383145476
21
6.0606216035
62
254
0
LINE
8
Modules
10
11.1383145476
20
6.0606216035
11
17.3029185542
21
6.0265142450
62
254
0
LINE
8
Modules
10
17.3029185542
20
6.0265142450
11
17.3215990782
21
9.4028540863
62
254
0
LINE
8
Modules
10
17.3215990782
20
9.4028540863
11
11.1569950716
21
9.4369614448
62
254
0
LINE
8
Modules
10
17.3635237327
20
9.4004393005
11
17.3448432087
21
6.0240994592
62
254
0
LINE
8
Modules
10
17.3448432087
20
6.0240994592
11
23.5094472153
21
5.9899921008
62
254
0
LINE
8
Modules
10
23.5094472153
20
5.9899921008
11
23.5281277393
21
9.3663319421
62
254
0
LINE
8
Modules
10
23.5281277393
20
9.3663319421
11
17.3635237327
21
9.4004393005
62
254
0
LINE
8
Modules
10
23.5700523980
20
9.3675693710
11
23.5513718740
21
5.9912295296
62
254
0
LINE
8
Modules
10
23.5513718740
20
5.9912295296
11
29.7159758805
21
5.9571221712
62
254
0
LINE
8
Modules
10
29.7159758805
20
5.9571221712
11
29.7346564046
21
9.3334620125
62
254
0
LINE
8
Modules
10
29.7346564046
20
9.3334620125
11
23.5700523980
21
9.3675693710
62
254
0
LINE
8
Modules
10
29.7765810591
20
9.3310472293
11
29.7579005351
21
5.9547073880
62
254
0
LINE
8
Modules
10
29.7579005351
20
5.9547073880
11
35.9225045416
21
5.9206000296
62
254
0
LINE
8
Modules
10
35.9225045416
20
5.9206000296
11
35.9411850657
21
9.2969398709
62
254
0
LINE
8
Modules
10
35.9411850657
20
9.2969398709
11
29.7765810591
21
9.3310472293
62
254
0
LINE
8
Modules
10
-1.2328059393
20
13.8817063466
11
-1.2514864633
21
10.5053665053
62
254
0
LINE
8
Modules
10
-1.2514864633
20
10.5053665053
11
4.9131175433
21
10.4712591469
62
254
0
LINE
8
Modules
10
4.9131175433
20
10.4712591469
11
4.9317980673
21
13.8475989882
62
254
0
LINE
8
Modules
10
4.9317980673
20
13.8475989882
11
-1.2328059393
21
13.8817063466
62
254
0
LINE
8
Modules
10
4.9737227218
20
13.8451842050
11
4.9550421978
21
10.4688443636
62
254
0
LINE
8
Modules
10
4.9550421978
20
10.4688443636
11
11.1196462044
21
10.4347370052
62
254
0
LINE
8
Modules
10
11.1196462044
20
10.4347370052
11
11.1383267284
21
13.8110768465
62
254
0
LINE
8
Modules
10
11.1383267284
20
13.8110768465
11
4.9737227218
21
13.8451842050
62
254
0
LINE
8
Modules
10
11.1802513871
20
13.8123142754
11
11.1615708631
21
10.4359744341
62
254
0
LINE
8
Modules
10
11.1615708631
20
10.4359744341
11
17.3261748696
21
10.4018670757
62
254
0
LINE
8
Modules
10
17.3261748696
20
10.4018670757
11
17.3448553936
21
13.7782069170
62
254
0
LINE
8
Modules
10
17.3448553936
20
13.7782069170
11
11.1802513871
21
13.8123142754
62
254
0
LINE
8
Modules
10
17.3867800482
20
13.7757921312
11
17.3680995242
21
10.3994522898
62
254
0
LINE
8
Modules
10
17.3680995242
20
10.3994522898
11
23.5327035307
21
10.3653449314
62
254
0
LINE
8
Modules
10
23.5327035307
20
10.3653449314
11
23.5513840547
21
13.7416847727
62
254
0
LINE
8
Modules
10
23.5513840547
20
13.7416847727
11
17.3867800482
21
13.7757921312
62
254
0
LINE
8
Modules
10
23.5933087093
20
13.7429222016
11
23.5746281853
21
10.3665823603
62
254
0
LINE
8
Modules
10
23.5746281853
20
10.3665823603
11
29.7392321918
21
10.3324750019
62
254
0
LINE
8
Modules
10
29.7392321918
20
10.3324750019
11
29.7579127158
21
13.7088148432
62
254
0
LINE
8
Modules
10
29.7579127158
20
13.7088148432
11
23.5933087093
21
13.7429222016
62
254
0
LINE
8
Modules
10
29.7998373704
20
13.7100522720
11
29.7811568464
21
10.3337124307
62
254
0
LINE
8
Modules
10
29.7811568464
20
10.3337124307
11
35.9457608529
21
10.2996050723
62
254
0
LINE
8
Modules
10
35.9457608529
20
10.2996050723
11
35.9644413769
21
13.6759449136
62
254
0
LINE
8
Modules
10
35.9644413769
20
13.6759449136
11
29.7998373704
21
13.7100522720
62
254
0
LINE
8
Modules
10
36.0063660315
20
13.6735301278
11
35.9876855075
21
10.2971902865
62
254
0
LINE
8
Modules
10
35.9876855075
20
10.2971902865
11
42.1522895140
21
10.2630829281
62
254
0
LINE
8
Modules
10
42.1522895140
20
10.2630829281
11
42.1709700380
21
13.6394227694
62
254
0
LINE
8
Modules
10
42.1709700380
20
13.6394227694
11
36.0063660315
21
13.6735301278
62
254
0
LINE
8
Modules
10
42.2128946967
20
13.6406601982
11
42.1942141727
21
10.2643203569
62
254
0
LINE
8
Modules
10
42.1942141727
20
10.2643203569
11
48.3588181793
21
10.2302129985
62
254
0
LINE
8
Modules
10
48.3588181793
20
10.2302129985
11
48.3774987033
21
13.6065528398
62
254
0
LINE
8
Modules
10
48.3774987033
20
13.6065528398
11
42.2128946967
21
13.6406601982
62
254
0
LINE
8
Buildings
10
51.7835415252
20
18.2553823130
11
-12.2698312786
21
18.7990376053
62
252
0
LINE
8
Buildings
10
-12.2698312786
20
18.7990376053
11
-12.3209676280
21
9.5566363837
62
252
0
LINE
8
Buildings
10
-12.3209676280
20
9.5566363837
11
-6.2187123435
21
9.5228738310
62
252
0
LINE
8
Buildings
10
-6.2187123435
20
9.5228738310
11
-6.3887984825
21
-21.2185529231
62
252
0
LINE
8
Buildings
10
-6.3887984825
20
-21.2185529231
11
52.6543273296
21
-21.7721759185
62
252
0
LINE
8
Buildings
10
52.6543273296
20
-21.7721759185
11
52.3435325856
21
-7.4858213938
62
252
0
LINE
8
Buildings
10
52.3435325856
20
-7.4858213938
11
42.9330193819
21
-7.2740687071
62
252
0
LINE
8
Buildings
10
42.9330193819
20
-7.2740687071
11
43.2003492641
21
4.6063537981
62
252
0
LINE
8
Buildings
10
43.2003492641
20
4.6063537981
11
52.0848205611
21
4.4064379564
62
252
0
LINE
8
Buildings
10
52.0848205611
20
4.4064379564
11
51.7835415252
21
18.2553823130
62
252
0
LINE
8
Buildings
10
53.4436375204
20
4.1915459011
11
53.4477828554
21
4.3757689672
62
252
0
LINE
8
Buildings
10
53.4477828554
20
4.3757689672
11
43.2003492641
21
4.6063537981
62
252
0
LINE
8
Buildings
10
43.2003492641
20
4.6063537981
11
43.1963434010
21
4.4283290095
62
252
0
LINE
8
Buildings
10
43.1963434010
20
4.4283290095
11
48.2077971840
21
-0.8138490763
62
252
0
LINE
8
Buildings
10
48.2077971840
20
-0.8138490763
11
53.4436375204
21
4.1915459011
62
252
0
LINE
8
Buildings
10
53.1805924451
20
-7.4984552605
11
48.1751974677
21
-2.2626149241
62
252
0
LINE
8
Buildings
10
48.1751974677
20
-2.2626149241
11
42.9330193819
21
-7.2740687071
62
252
0
LINE
8
Buildings
10
42.9330193819
20
-7.2740687071
11
53.1804529732
21
-7.5046535380
62
252
0
LINE
8
Buildings
10
53.1804529732
20
-7.5046535380
11
53.1805924451
21
-7.4984552605
62
252
0
LINE
8
Buildings
10
48.2077971840
20
-0.8138490763
11
43.1963434010
21
4.4283290095
62
252
0
LINE
8
Buildings
10
43.1963434010
20
4.4283290095
11
42.9330193819
21
-7.2740687071
62
252
0
LINE
8
Buildings
10
42.9330193819
20
-7.2740687071
11
48.1751974677
21
-2.2626149241
62
252
0
LINE
8
Buildings
10
48.1751974677
20
-2.2626149241
11
48.2077971840
21
-0.8138490763
62
252
0
LINE
8
Buildings
10
53.1805924451
20
-7.4984552605
11
53.4436375204
21
4.1915459011
62
252
0
LINE
8
Buildings
10
53.4436375204
20
4.1915459011
11
48.2077971840
21
-0.8138490763
62
252
0
LINE
8
Buildings
10
48.2077971840
20
-0.8138490763
11
48.1751974677
21
-2.2626149241
62
252
0
LINE
8
Buildings
10
48.1751974677
20
-2.2626149241
11
53.1805924451
21
-7.4984552605
62
252
0
LINE
8
Buildings
10
-13.3633186217
20
-22.0676138980
11
-6.5532974569
21
-22.1252327468
62
252
0
LINE
8
Buildings
10
-6.5532974569
20
-22.1252327468
11
-6.2879606684
21
9.2351498903
62
252
0
LINE
8
Buildings
10
-6.2879606684
20
9.2351498903
11
-13.0979818332
21
9.2927687391
62
252
0
LINE
8
Buildings
10
-13.0979818332
20
9.2927687391
11
-13.3633186217
21
-22.0676138980
62
252
0
LINE
8
Setbacks
10
8.3468026670
20
7.2965534260
11
8.2952805707
21
7.2883929894
62
2
0
LINE
8
Setbacks
10
8.2952805707
20
7.2883929894
11
8.2947673258
21
7.2883525954
62
2
0
LINE
8
Setbacks
10
8.2947673258
20
7.2883525954
11
8.1707026893
21
7.2883525954
62
2
0
LINE
8
Setbacks
10
8.1707026893
20
7.2883525954
11
8.1701894612
21
7.2883929867
62
2
0
LINE
8
Setbacks
10
8.1701894612
20
7.2883929867
11
8.1186676756
21
7.2965530989
62
2
0
LINE
8
Setbacks
10
8.1186676756
20
7.2965530989
11
8.0665749364
21
7.2992832735
62
2
0
LINE
8
Setbacks
10
8.0665749364
20
7.2992832735
11
8.0660645199
21
7.2993504720
62
2
0
LINE
8
Setbacks
10
8.0660645199
20
7.2993504720
11
7.9447111696
21
7.3251450923
62
2
0
LINE
8
Setbacks
10
7.9447111696
20
7.3251450923
11
7.9442175528
21
7.3252913084
62
2
0
LINE
8
Setbacks
10
7.9442175528
20
7.3252913084
11
7.8955171806
21
7.3439855961
62
2
0
LINE
8
Setbacks
10
7.8955171806
20
7.3439855961
11
7.8451314250
21
7.3574863704
62
2
0
LINE
8
Setbacks
10
7.8451314250
20
7.3574863704
11
7.8446461276
21
7.3576582230
62
2
0
LINE
8
Setbacks
10
7.8446461276
20
7.3576582230
11
7.7313075413
21
7.4081198388
62
2
0
LINE
8
Setbacks
10
7.7313075413
20
7.4081198388
11
7.7308551061
21
7.4083654912
62
2
0
LINE
8
Setbacks
10
7.7308551061
20
7.4083654912
11
7.6871065935
21
7.4367761092
62
2
0
LINE
8
Setbacks
10
7.6871065935
20
7.4367761092
11
7.6406282346
21
7.4604578913
62
2
0
LINE
8
Setbacks
10
7.6406282346
20
7.4604578913
11
7.6401892660
21
7.4607268914
62
2
0
LINE
8
Setbacks
10
7.6401892660
20
7.4607268914
11
7.5398188560
21
7.5336504501
62
2
0
LINE
8
Setbacks
10
7.5398188560
20
7.5336504501
11
7.5394273947
21
7.5339847886
62
2
0
LINE
8
Setbacks
10
7.5394273947
20
7.5339847886
11
7.5025414189
21
7.5708704373
62
2
0
LINE
8
Setbacks
10
7.5025414189
20
7.5708704373
11
7.4620027856
21
7.6036982641
62
2
0
LINE
8
Setbacks
10
7.4620027856
20
7.6036982641
11
7.4616293626
21
7.6040526299
62
2
0
LINE
8
Setbacks
10
7.4616293626
20
7.6040526299
11
7.3786136120
21
7.6962504675
62
2
0
LINE
8
Setbacks
10
7.3786136120
20
7.6962504675
11
7.3783001982
21
7.6966589159
62
2
0
LINE
8
Setbacks
10
7.3783001982
20
7.6966589159
11
7.3498899089
21
7.7404070990
62
2
0
LINE
8
Setbacks
10
7.3498899089
20
7.7404070990
11
7.3170617658
21
7.7809463730
62
2
0
LINE
8
Setbacks
10
7.3170617658
20
7.7809463730
11
7.3167701613
21
7.7813706604
62
2
0
LINE
8
Setbacks
10
7.3167701613
20
7.7813706604
11
7.2547380070
21
7.8888139053
62
2
0
LINE
8
Setbacks
10
7.2547380070
20
7.8888139053
11
7.2545163723
21
7.8892785734
62
2
0
LINE
8
Setbacks
10
7.2545163723
20
7.8892785734
11
7.2358230690
21
7.9379763205
62
2
0
LINE
8
Setbacks
10
7.2358230690
20
7.9379763205
11
7.2121403018
21
7.9844563222
62
2
0
LINE
8
Setbacks
10
7.2121403018
20
7.9844563222
11
7.2119432849
21
7.9849319643
62
2
0
LINE
8
Setbacks
10
7.2119432849
20
7.9849319643
11
7.1736053571
21
8.1029247503
62
2
0
LINE
8
Setbacks
10
7.1736053571
20
8.1029247503
11
7.1734851768
21
8.1034253378
62
2
0
LINE
8
Setbacks
10
7.1734851768
20
8.1034253378
11
7.1653247378
21
8.1549477762
62
2
0
LINE
8
Setbacks
10
7.1653247378
20
8.1549477762
11
7.1518239623
21
8.2053335362
62
2
0
LINE
8
Setbacks
10
7.1518239623
20
8.2053335362
11
7.1517301444
21
8.2058397309
62
2
0
LINE
8
Setbacks
10
7.1517301444
20
8.2058397309
11
7.1387616401
21
8.3292249055
62
2
0
LINE
8
Setbacks
10
7.1387616401
20
8.3292249055
11
7.1387481634
21
8.3297395646
62
2
0
LINE
8
Setbacks
10
7.1387481634
20
8.3297395646
11
7.1414783372
21
8.3818322887
62
2
0
LINE
8
Setbacks
10
7.1414783372
20
8.3818322887
11
7.1387481635
21
8.4339246846
62
2
0
LINE
8
Setbacks
10
7.1387481635
20
8.4339246846
11
7.1387616402
21
8.4344393458
62
2
0
LINE
8
Setbacks
10
7.1387616402
20
8.4344393458
11
7.1517301445
21
8.5578241923
62
2
0
LINE
8
Setbacks
10
7.1517301445
20
8.5578241923
11
7.1518239636
21
8.5583303912
62
2
0
LINE
8
Setbacks
10
7.1518239636
20
8.5583303912
11
7.1653247374
21
8.6087158175
62
2
0
LINE
8
Setbacks
10
7.1653247374
20
8.6087158175
11
7.1734851758
21
8.6602389062
62
2
0
LINE
8
Setbacks
10
7.1734851758
20
8.6602389062
11
7.1736053580
21
8.6607395026
62
2
0
LINE
8
Setbacks
10
7.1736053580
20
8.6607395026
11
7.2119432857
21
8.7787319605
62
2
0
LINE
8
Setbacks
10
7.2119432857
20
8.7787319605
11
7.2121402978
21
8.7792075920
62
2
0
LINE
8
Setbacks
10
7.2121402978
20
8.7792075920
11
7.2358227420
21
8.8256872747
62
2
0
LINE
8
Setbacks
10
7.2358227420
20
8.8256872747
11
7.2545163765
21
8.8743853599
62
2
0
LINE
8
Setbacks
10
7.2545163765
20
8.8743853599
11
7.2547380070
21
8.8748500169
62
2
0
LINE
8
Setbacks
10
7.2547380070
20
8.8748500169
11
7.3167701613
21
8.9822932618
62
2
0
LINE
8
Setbacks
10
7.3167701613
20
8.9822932618
11
7.3170617658
21
8.9827175492
62
2
0
LINE
8
Setbacks
10
7.3170617658
20
8.9827175492
11
7.3498899089
21
9.0232568233
62
2
0
LINE
8
Setbacks
10
7.3498899089
20
9.0232568233
11
7.3783001982
21
9.0670050064
62
2
0
LINE
8
Setbacks
10
7.3783001982
20
9.0670050064
11
7.3786136081
21
9.0674134505
62
2
0
LINE
8
Setbacks
10
7.3786136081
20
9.0674134505
11
7.4616293588
21
9.1596116162
62
2
0
LINE
8
Setbacks
10
7.4616293588
20
9.1596116162
11
7.4620027980
21
9.1599659963
62
2
0
LINE
8
Setbacks
10
7.4620027980
20
9.1599659963
11
7.5025414189
21
9.1927934860
62
2
0
LINE
8
Setbacks
10
7.5025414189
20
9.1927934860
11
7.5394273844
21
9.2296794515
62
2
0
LINE
8
Setbacks
10
7.5394273844
20
9.2296794515
11
7.5398188616
21
9.2300138043
62
2
0
LINE
8
Setbacks
10
7.5398188616
20
9.2300138043
11
7.6401892717
21
9.3029370350
62
2
0
LINE
8
Setbacks
10
7.6401892717
20
9.3029370350
11
7.6406282346
21
9.3032060309
62
2
0
LINE
8
Setbacks
10
7.6406282346
20
9.3032060309
11
7.6871065935
21
9.3268878131
62
2
0
LINE
8
Setbacks
10
7.6871065935
20
9.3268878131
11
7.7308551061
21
9.3552984311
62
2
0
LINE
8
Setbacks
10
7.7308551061
20
9.3552984311
11
7.7313075341
21
9.3555440802
62
2
0
LINE
8
Setbacks
10
7.7313075341
20
9.3555440802
11
7.8446461204
21
9.4060060241
62
2
0
LINE
8
Setbacks
10
7.8446461204
20
9.4060060241
11
7.8451314329
21
9.4061778820
62
2
0
LINE
8
Setbacks
10
7.8451314329
20
9.4061778820
11
7.8955201330
21
9.4196793107
62
2
0
LINE
8
Setbacks
10
7.8955201330
20
9.4196793107
11
7.9442175447
21
9.4383726107
62
2
0
LINE
8
Setbacks
10
7.9442175447
20
9.4383726107
11
7.9447111696
21
9.4385188300
62
2
0
LINE
8
Setbacks
10
7.9447111696
20
9.4385188300
11
8.0660645199
21
9.4643134502
62
2
0
LINE
8
Setbacks
10
8.0660645199
20
9.4643134502
11
8.0665749364
21
9.4643806487
62
2
0
LINE
8
Setbacks
10
8.0665749364
20
9.4643806487
11
8.1186676756
21
9.4671108234
62
2
0
LINE
8
Setbacks
10
8.1186676756
20
9.4671108234
11
8.1701894612
21
9.4752709356
62
2
0
LINE
8
Setbacks
10
8.1701894612
20
9.4752709356
11
8.1707026893
21
9.4753113268
62
2
0
LINE
8
Setbacks
10
8.1707026893
20
9.4753113268
11
8.2947673258
21
9.4753113268
62
2
0
LINE
8
Setbacks
10
8.2947673258
20
9.4753113268
11
8.2952805707
21
9.4752709329
62
2
0
LINE
8
Setbacks
10
8.2952805707
20
9.4752709329
11
8.3468026670
21
9.4671104963
62
2
0
LINE
8
Setbacks
10
8.3468026670
20
9.4671104963
11
8.3988947322
21
9.4643806497
62
2
0
LINE
8
Setbacks
10
8.3988947322
20
9.4643806497
11
8.3994051653
21
9.4643134506
62
2
0
LINE
8
Setbacks
10
8.3994051653
20
9.4643134506
11
8.5207588437
21
9.4385188304
62
2
0
LINE
8
Setbacks
10
8.5207588437
20
9.4385188304
11
8.5212524567
21
9.4383726160
62
2
0
LINE
8
Setbacks
10
8.5212524567
20
9.4383726160
11
8.5699505386
21
9.4196793098
62
2
0
LINE
8
Setbacks
10
8.5699505386
20
9.4196793098
11
8.6203382695
21
9.4061778779
62
2
0
LINE
8
Setbacks
10
8.6203382695
20
9.4061778779
11
8.6208235634
21
9.4060060255
62
2
0
LINE
8
Setbacks
10
8.6208235634
20
9.4060060255
11
8.7341624778
21
9.3555440816
62
2
0
LINE
8
Setbacks
10
8.7341624778
20
9.3555440816
11
8.7346149039
21
9.3552984344
62
2
0
LINE
8
Setbacks
10
8.7346149039
20
9.3552984344
11
8.7783630946
21
9.3268881401
62
2
0
LINE
8
Setbacks
10
8.7783630946
20
9.3268881401
11
8.8248417885
21
9.3032060269
62
2
0
LINE
8
Setbacks
10
8.8248417885
20
9.3032060269
11
8.8252807434
21
9.3029370350
62
2
0
LINE
8
Setbacks
10
8.8252807434
20
9.3029370350
11
8.9256511534
21
9.2300138043
62
2
0
LINE
8
Setbacks
10
8.9256511534
20
9.2300138043
11
8.9260426410
21
9.2296794412
62
2
0
LINE
8
Setbacks
10
8.9260426410
20
9.2296794412
11
8.9629282691
21
9.1927934860
62
2
0
LINE
8
Setbacks
10
8.9629282691
20
9.1927934860
11
9.0034672070
21
9.1599660044
62
2
0
LINE
8
Setbacks
10
9.0034672070
20
9.1599660044
11
9.0038406606
21
9.1596116114
62
2
0
LINE
8
Setbacks
10
9.0038406606
20
9.1596116114
11
9.0868560832
21
9.0674134457
62
2
0
LINE
8
Setbacks
10
9.0868560832
20
9.0674134457
11
9.0871694794
21
9.0670050209
62
2
0
LINE
8
Setbacks
10
9.0871694794
20
9.0670050209
11
9.1155801051
21
9.0232568233
62
2
0
LINE
8
Setbacks
10
9.1155801051
20
9.0232568233
11
9.1484079313
21
8.9827175368
62
2
0
LINE
8
Setbacks
10
9.1484079313
20
8.9827175368
11
9.1486995220
21
8.9822932683
62
2
0
LINE
8
Setbacks
10
9.1486995220
20
8.9822932683
11
9.2107320043
21
8.8748500234
62
2
0
LINE
8
Setbacks
10
9.2107320043
20
8.8748500234
11
9.2109536407
21
8.8743853545
62
2
0
LINE
8
Setbacks
10
9.2109536407
20
8.8743853545
11
9.2296479303
21
8.8256853041
62
2
0
LINE
8
Setbacks
10
9.2296479303
20
8.8256853041
11
9.2533293888
21
8.7792075929
62
2
0
LINE
8
Setbacks
10
9.2533293888
20
8.7792075929
11
9.2535263988
21
8.7787319683
62
2
0
LINE
8
Setbacks
10
9.2535263988
20
8.7787319683
11
9.2918646546
21
8.6607395105
62
2
0
LINE
8
Setbacks
10
9.2918646546
20
8.6607395105
11
9.2919848393
21
8.6602389062
62
2
0
LINE
8
Setbacks
10
9.2919848393
20
8.6602389062
11
9.3001452777
21
8.6087158175
62
2
0
LINE
8
Setbacks
10
9.3001452777
20
8.6087158175
11
9.3136460514
21
8.5583303912
62
2
0
LINE
8
Setbacks
10
9.3136460514
20
8.5583303912
11
9.3137398705
21
8.5578241923
62
2
0
LINE
8
Setbacks
10
9.3137398705
20
8.5578241923
11
9.3267083749
21
8.4344393458
62
2
0
LINE
8
Setbacks
10
9.3267083749
20
8.4344393458
11
9.3267218516
21
8.4339246846
62
2
0
LINE
8
Setbacks
10
9.3267218516
20
8.4339246846
11
9.3239916778
21
8.3818322887
62
2
0
LINE
8
Setbacks
10
9.3239916778
20
8.3818322887
11
9.3267218517
21
8.3297395646
62
2
0
LINE
8
Setbacks
10
9.3267218517
20
8.3297395646
11
9.3267083750
21
8.3292249055
62
2
0
LINE
8
Setbacks
10
9.3267083750
20
8.3292249055
11
9.3137398706
21
8.2058397309
62
2
0
LINE
8
Setbacks
10
9.3137398706
20
8.2058397309
11
9.3136460528
21
8.2053335362
62
2
0
LINE
8
Setbacks
10
9.3136460528
20
8.2053335362
11
9.3001452773
21
8.1549477762
62
2
0
LINE
8
Setbacks
10
9.3001452773
20
8.1549477762
11
9.2919848383
21
8.1034253378
62
2
0
LINE
8
Setbacks
10
9.2919848383
20
8.1034253378
11
9.2918646554
21
8.1029247424
62
2
0
LINE
8
Setbacks
10
9.2918646554
20
8.1029247424
11
9.2535263996
21
7.9849319565
62
2
0
LINE
8
Setbacks
10
9.2535263996
20
7.9849319565
11
9.2533293847
21
7.9844563213
62
2
0
LINE
8
Setbacks
10
9.2533293847
20
7.9844563213
11
9.2296476033
21
7.9379782911
62
2
0
LINE
8
Setbacks
10
9.2296476033
20
7.9379782911
11
9.2109536449
21
7.8892785788
62
2
0
LINE
8
Setbacks
10
9.2109536449
20
7.8892785788
11
9.2107320043
21
7.8888138988
62
2
0
LINE
8
Setbacks
10
9.2107320043
20
7.8888138988
11
9.1486995220
21
7.7813706539
62
2
0
LINE
8
Setbacks
10
9.1486995220
20
7.7813706539
11
9.1484079313
21
7.7809463855
62
2
0
LINE
8
Setbacks
10
9.1484079313
20
7.7809463855
11
9.1155801051
21
7.7404070990
62
2
0
LINE
8
Setbacks
10
9.1155801051
20
7.7404070990
11
9.0871694794
21
7.6966589014
62
2
0
LINE
8
Setbacks
10
9.0871694794
20
7.6966589014
11
9.0868560794
21
7.6962504722
62
2
0
LINE
8
Setbacks
10
9.0868560794
20
7.6962504722
11
9.0038406567
21
7.6040526346
62
2
0
LINE
8
Setbacks
10
9.0038406567
20
7.6040526346
11
9.0034672194
21
7.6036982560
62
2
0
LINE
8
Setbacks
10
9.0034672194
20
7.6036982560
11
8.9629282691
21
7.5708704373
62
2
0
LINE
8
Setbacks
10
8.9629282691
20
7.5708704373
11
8.9260426307
21
7.5339847989
62
2
0
LINE
8
Setbacks
10
8.9260426307
20
7.5339847989
11
8.9256511591
21
7.5336504501
62
2
0
LINE
8
Setbacks
10
8.9256511591
20
7.5336504501
11
8.8252807491
21
7.4607268914
62
2
0
LINE
8
Setbacks
10
8.8252807491
20
7.4607268914
11
8.8248417885
21
7.4604578954
62
2
0
LINE
8
Setbacks
10
8.8248417885
20
7.4604578954
11
8.7783630946
21
7.4367757821
62
2
0
LINE
8
Setbacks
10
8.7783630946
20
7.4367757821
11
8.7346149039
21
7.4083654879
62
2
0
LINE
8
Setbacks
10
8.7346149039
20
7.4083654879
11
8.7341624706
21
7.4081198374
62
2
0
LINE
8
Setbacks
10
8.7341624706
20
7.4081198374
11
8.6208235562
21
7.3576582216
62
2
0
LINE
8
Setbacks
10
8.6208235562
20
7.3576582216
11
8.6203382723
21
7.3574863732
62
2
0
LINE
8
Setbacks
10
8.6203382723
20
7.3574863732
11
8.5699531640
21
7.3439855971
62
2
0
LINE
8
Setbacks
10
8.5699531640
20
7.3439855971
11
8.5212524554
21
7.3252913058
62
2
0
LINE
8
Setbacks
10
8.5212524554
20
7.3252913058
11
8.5207588437
21
7.3251450919
62
2
0
LINE
8
Setbacks
10
8.5207588437
20
7.3251450919
11
8.3994051653
21
7.2993504716
62
2
0
LINE
8
Setbacks
10
8.3994051653
20
7.2993504716
11
8.3988947322
21
7.2992832726
62
2
0
LINE
8
Setbacks
10
8.3988947322
20
7.2992832726
11
8.3468026670
21
7.2965534260
62
2
0
LINE
8
Setbacks
10
10.2492219844
20
-21.3417509879
11
10.2376656097
21
-21.2317983416
62
2
0
LINE
8
Setbacks
10
10.2376656097
20
-21.2317983416
11
10.2376521329
21
-21.2312837115
62
2
0
LINE
8
Setbacks
10
10.2376521329
20
-21.2312837115
11
10.2403819808
21
-21.1791909670
62
2
0
LINE
8
Setbacks
10
10.2403819808
20
-21.1791909670
11
10.2376521329
21
-21.1270985505
62
2
0
LINE
8
Setbacks
10
10.2376521329
20
-21.1270985505
11
10.2376656098
21
-21.1265839185
62
2
0
LINE
8
Setbacks
10
10.2376656098
20
-21.1265839185
11
10.2506337861
21
-21.0031990720
62
2
0
LINE
8
Setbacks
10
10.2506337861
20
-21.0031990720
11
10.2507276047
21
-21.0026928696
62
2
0
LINE
8
Setbacks
10
10.2507276047
20
-21.0026928696
11
10.2642283798
21
-20.9523071111
62
2
0
LINE
8
Setbacks
10
10.2642283798
20
-20.9523071111
11
10.2723888187
21
-20.9007843463
62
2
0
LINE
8
Setbacks
10
10.2723888187
20
-20.9007843463
11
10.2725090030
21
-20.9002837452
62
2
0
LINE
8
Setbacks
10
10.2725090030
20
-20.9002837452
11
10.3108472588
21
-20.7822912873
62
2
0
LINE
8
Setbacks
10
10.3108472588
20
-20.7822912873
11
10.3110442688
21
-20.7818156627
62
2
0
LINE
8
Setbacks
10
10.3110442688
20
-20.7818156627
11
10.3347257272
21
-20.7353379515
62
2
0
LINE
8
Setbacks
10
10.3347257272
20
-20.7353379515
11
10.3534200169
21
-20.6866379012
62
2
0
LINE
8
Setbacks
10
10.3534200169
20
-20.6866379012
11
10.3536416533
21
-20.6861732322
62
2
0
LINE
8
Setbacks
10
10.3536416533
20
-20.6861732322
11
10.4156741356
21
-20.5787299873
62
2
0
LINE
8
Setbacks
10
10.4156741356
20
-20.5787299873
11
10.4159657263
21
-20.5783057189
62
2
0
LINE
8
Setbacks
10
10.4159657263
20
-20.5783057189
11
10.4487935524
21
-20.5377664324
62
2
0
LINE
8
Setbacks
10
10.4487935524
20
-20.5377664324
11
10.4772041781
21
-20.4940182348
62
2
0
LINE
8
Setbacks
10
10.4772041781
20
-20.4940182348
11
10.4775175743
21
-20.4936098100
62
2
0
LINE
8
Setbacks
10
10.4775175743
20
-20.4936098100
11
10.5605329969
21
-20.4014116443
62
2
0
LINE
8
Setbacks
10
10.5605329969
20
-20.4014116443
11
10.5609064381
21
-20.4010572613
62
2
0
LINE
8
Setbacks
10
10.5609064381
20
-20.4010572613
11
10.6014453884
21
-20.3682294426
62
2
0
LINE
8
Setbacks
10
10.6014453884
20
-20.3682294426
11
10.6383310268
21
-20.3313438042
62
2
0
LINE
8
Setbacks
10
10.6383310268
20
-20.3313438042
11
10.6387225041
21
-20.3310094513
62
2
0
LINE
8
Setbacks
10
10.6387225041
20
-20.3310094513
11
10.7390929142
21
-20.2580862207
62
2
0
LINE
8
Setbacks
10
10.7390929142
20
-20.2580862207
11
10.7395318765
21
-20.2578172250
62
2
0
LINE
8
Setbacks
10
10.7395318765
20
-20.2578172250
11
10.7860089202
21
-20.2341361005
62
2
0
LINE
8
Setbacks
10
10.7860089202
20
-20.2341361005
11
10.8297587428
21
-20.2057245003
62
2
0
LINE
8
Setbacks
10
10.8297587428
20
-20.2057245003
11
10.8302111870
21
-20.2054788427
62
2
0
LINE
8
Setbacks
10
10.8302111870
20
-20.2054788427
11
10.9435501014
21
-20.1550172269
62
2
0
LINE
8
Setbacks
10
10.9435501014
20
-20.1550172269
11
10.9440353880
21
-20.1548453778
62
2
0
LINE
8
Setbacks
10
10.9440353880
20
-20.1548453778
11
10.9944231189
21
-20.1413439459
62
2
0
LINE
8
Setbacks
10
10.9944231189
20
-20.1413439459
11
11.0431212009
21
-20.1226506397
62
2
0
LINE
8
Setbacks
10
11.0431212009
20
-20.1226506397
11
11.0436148138
21
-20.1225044253
62
2
0
LINE
8
Setbacks
10
11.0436148138
20
-20.1225044253
11
11.1649684923
21
-20.0967098050
62
2
0
LINE
8
Setbacks
10
11.1649684923
20
-20.0967098050
11
11.1654789081
21
-20.0966426069
62
2
0
LINE
8
Setbacks
10
11.1654789081
20
-20.0966426069
11
11.2175719716
21
-20.0939124324
62
2
0
LINE
8
Setbacks
10
11.2175719716
20
-20.0939124324
11
11.2690930974
21
-20.0857523211
62
2
0
LINE
8
Setbacks
10
11.2690930974
20
-20.0857523211
11
11.2696063318
21
-20.0857119288
62
2
0
LINE
8
Setbacks
10
11.2696063318
20
-20.0857119288
11
11.3936709683
21
-20.0857119288
62
2
0
LINE
8
Setbacks
10
11.3936709683
20
-20.0857119288
11
11.3941842059
21
-20.0857523216
62
2
0
LINE
8
Setbacks
10
11.3941842059
20
-20.0857523216
11
11.4457050009
21
-20.0939124323
62
2
0
LINE
8
Setbacks
10
11.4457050009
20
-20.0939124323
11
11.4977987179
21
-20.0966426068
62
2
0
LINE
8
Setbacks
10
11.4977987179
20
-20.0966426068
11
11.4983091359
21
-20.0967098050
62
2
0
LINE
8
Setbacks
10
11.4983091359
20
-20.0967098050
11
11.6196628143
21
-20.1225044253
62
2
0
LINE
8
Setbacks
10
11.6196628143
20
-20.1225044253
11
11.6201564341
21
-20.1226506423
62
2
0
LINE
8
Setbacks
10
11.6201564341
20
-20.1226506423
11
11.6688541822
21
-20.1413439459
62
2
0
LINE
8
Setbacks
10
11.6688541822
20
-20.1413439459
11
11.7192422350
21
-20.1548453764
62
2
0
LINE
8
Setbacks
10
11.7192422350
20
-20.1548453764
11
11.7197275299
21
-20.1550172284
62
2
0
LINE
8
Setbacks
10
11.7197275299
20
-20.1550172284
11
11.8330661163
21
-20.2054788441
62
2
0
LINE
8
Setbacks
10
11.8330661163
20
-20.2054788441
11
11.8335185573
21
-20.2057245003
62
2
0
LINE
8
Setbacks
10
11.8335185573
20
-20.2057245003
11
11.8772683798
21
-20.2341361005
62
2
0
LINE
8
Setbacks
10
11.8772683798
20
-20.2341361005
11
11.9237454235
21
-20.2578172250
62
2
0
LINE
8
Setbacks
10
11.9237454235
20
-20.2578172250
11
11.9241843817
21
-20.2580862177
62
2
0
LINE
8
Setbacks
10
11.9241843817
20
-20.2580862177
11
12.0245551199
21
-20.3310094483
62
2
0
LINE
8
Setbacks
10
12.0245551199
20
-20.3310094483
11
12.0249466013
21
-20.3313438042
62
2
0
LINE
8
Setbacks
10
12.0249466013
20
-20.3313438042
11
12.0618322397
21
-20.3682294426
62
2
0
LINE
8
Setbacks
10
12.0618322397
20
-20.3682294426
11
12.1023711900
21
-20.4010572613
62
2
0
LINE
8
Setbacks
10
12.1023711900
20
-20.4010572613
11
12.1027446312
21
-20.4014116443
62
2
0
LINE
8
Setbacks
10
12.1027446312
20
-20.4014116443
11
12.1857600538
21
-20.4936098100
62
2
0
LINE
8
Setbacks
10
12.1857600538
20
-20.4936098100
11
12.1860734594
21
-20.4940182493
62
2
0
LINE
8
Setbacks
10
12.1860734594
20
-20.4940182493
11
12.2144837487
21
-20.5377664324
62
2
0
LINE
8
Setbacks
10
12.2144837487
20
-20.5377664324
11
12.2473118918
21
-20.5783057064
62
2
0
LINE
8
Setbacks
10
12.2473118918
20
-20.5783057064
11
12.2476034963
21
-20.5787299938
62
2
0
LINE
8
Setbacks
10
12.2476034963
20
-20.5787299938
11
12.3096356505
21
-20.6861732387
62
2
0
LINE
8
Setbacks
10
12.3096356505
20
-20.6861732387
11
12.3098572811
21
-20.6866378958
62
2
0
LINE
8
Setbacks
10
12.3098572811
20
-20.6866378958
11
12.3285509155
21
-20.7353359809
62
2
0
LINE
8
Setbacks
10
12.3285509155
20
-20.7353359809
11
12.3522333598
21
-20.7818156637
62
2
0
LINE
8
Setbacks
10
12.3522333598
20
-20.7818156637
11
12.3524303719
21
-20.7822912952
62
2
0
LINE
8
Setbacks
10
12.3524303719
20
-20.7822912952
11
12.3907682996
21
-20.9002837530
62
2
0
LINE
8
Setbacks
10
12.3907682996
20
-20.9002837530
11
12.3908884831
21
-20.9007843578
62
2
0
LINE
8
Setbacks
10
12.3908884831
20
-20.9007843578
11
12.3990482646
21
-20.9523041582
62
2
0
LINE
8
Setbacks
10
12.3990482646
20
-20.9523041582
11
12.4125500203
21
-21.0026928584
62
2
0
LINE
8
Setbacks
10
12.4125500203
20
-21.0026928584
11
12.4126438420
21
-21.0031990720
62
2
0
LINE
8
Setbacks
10
12.4126438420
20
-21.0031990720
11
12.4256120183
21
-21.1265839185
62
2
0
LINE
8
Setbacks
10
12.4256120183
20
-21.1265839185
11
12.4256254952
21
-21.1270985505
62
2
0
LINE
8
Setbacks
10
12.4256254952
20
-21.1270985505
11
12.4228956473
21
-21.1791909670
62
2
0
LINE
8
Setbacks
10
12.4228956473
20
-21.1791909670
11
12.4256254952
21
-21.2312837115
62
2
0
LINE
8
Setbacks
10
12.4256254952
20
-21.2312837115
11
12.4256120184
21
-21.2317983416
62
2
0
LINE
8
Setbacks
10
12.4256120184
20
-21.2317983416
11
12.4126438421
21
-21.3551835162
62
2
0
LINE
8
Setbacks
10
12.4126438421
20
-21.3551835162
11
12.4125500217
21
-21.3556897256
62
2
0
LINE
8
Setbacks
10
12.4125500217
20
-21.3556897256
11
12.4108539002
21
-21.3620197106
62
2
0
LINE
8
Setbacks
10
46.2021320074
20
4.5059918892
11
46.1988641651
21
4.3607672121
62
2
0
LINE
8
Setbacks
10
46.1988641651
20
4.3607672121
11
46.1988062775
21
4.3602230865
62
2
0
LINE
8
Setbacks
10
46.1988062775
20
4.3602230865
11
46.0452096331
21
3.5593147452
62
2
0
LINE
8
Setbacks
10
46.0452096331
20
3.5593147452
11
48.2542063149
21
1.2486173486
62
2
0
LINE
8
Setbacks
10
48.2542063149
20
1.2486173486
11
50.5585661123
21
3.4515553026
62
2
0
LINE
8
Setbacks
10
50.5585661123
20
3.4515553026
11
50.4411499717
21
4.2585615537
62
2
0
LINE
8
Setbacks
10
50.4411499717
20
4.2585615537
11
50.4411166176
21
4.2591077349
62
2
0
LINE
8
Setbacks
10
50.4411166176
20
4.2591077349
11
50.4445238988
21
4.4105307075
62
2
0
LINE
8
Setbacks
10
50.1831076623
20
-7.4043915017
11
50.3317261936
21
-6.6294411558
62
2
0
LINE
8
Setbacks
10
50.3317261936
20
-6.6294411558
11
48.1287882393
21
-4.3250816857
62
2
0
LINE
8
Setbacks
10
48.1287882393
20
-4.3250816857
11
45.0290241755
21
-7.2884157171
62
2
0
LINE
8
Setbacks
10
43.0129666739
20
-5.1795399809
11
46.7773616360
21
-1.5808274654
62
2
0
LINE
8
Setbacks
10
46.7773616360
20
-1.5808274654
11
46.7807086351
21
-1.4320706283
62
2
0
LINE
8
Setbacks
10
46.7807086351
20
-1.4320706283
11
43.1819963802
21
2.3323240731
62
2
0
LINE
8
Setbacks
10
53.3636902627
20
2.0970169856
11
49.6056332463
21
-1.4956362157
62
2
0
LINE
8
Setbacks
10
49.6056332463
20
-1.4956362157
11
49.6022862470
21
-1.6443937089
62
2
0
LINE
8
Setbacks
10
49.6022862470
20
-1.6443937089
11
53.1949394526
21
-5.4024504719
62
2
0
LINE
8
Setbacks
10
-13.3051017591
20
-19.0647179398
11
-7.9865599788
21
-19.1097177216
62
2
0
LINE
8
Setbacks
10
-7.9865599788
20
-19.1097177216
11
-7.7720426528
21
6.2443181012
62
2
0
LINE
8
Setbacks
10
-7.7720426528
20
6.2443181012
11
-13.0905841253
21
6.2893175574
62
2
0
CIRCLE
8
Obstructions
10
8.2327349740
20
8.3818320041
40
0.5934494403
62
252
0
CIRCLE
8
Obstructions
10
11.3316387465
20
-21.1791912004
40
0.5934494403
62
252
0
CIRCLE
8
Obstructions
10
-1.7238742373
20
-22.5670326661
40
0.5934494403
62
252
0
LINE
8
Inverters
10
50.4713769213
20
-15.5908219487
11
52.9320069213
21
-15.5908219487
0
LINE
8
Inverters
10
52.9320069213
20
-15.5908219487
11
52.9320069213
21
-13.1301919487
0
LINE
8
Inverters
10
52.9320069213
20
-13.1301919487
11
50.4713769213
21
-13.1301919487
0
LINE
8
Inverters
10
50.4713769213
20
-13.1301919487
11
50.4713769213
21
-15.5908219487
0
LINE
8
Inverters
10
50.4713769213
20
-15.5908219487
11
52.9320069213
21
-13.1301919487
0
TEXT
8
Inverters
100
AcDbText
10
50.6354189213
20
-14.0488271487
1
DC
7
NewTextStyle_4
40
0.7545932000000003
50
0
0
TEXT
8
Inverters
100
AcDbText
10
51.4720331213
20
-15.4267799487
1
AC
7
NewTextStyle_4
40
0.7545932000000003
50
0
0
LINE
8
Strings
10
45.1405044790
20
-14.3239848070
11
38.9339758138
21
-14.2874626628
62
11
0
LINE
8
Strings
10
38.9339758138
20
-14.2874626628
11
32.7274471527
21
-14.2545927332
62
11
0
LINE
8
Strings
10
32.7274471527
20
-14.2545927332
11
26.5209184916
21
-14.2217228037
62
11
0
LINE
8
Strings
10
26.5209184916
20
-14.2217228037
11
20.3143898305
21
-14.1852006594
62
11
0
LINE
8
Strings
10
20.3143898305
20
-14.1852006594
11
14.1078611694
21
-14.1523307298
62
11
0
LINE
8
Strings
10
14.1078611694
20
-14.1523307298
11
7.9013325042
21
-14.1158085856
62
11
0
LINE
8
Strings
10
-10.3577806192
20
-20.2077021750
11
-10.3287102290
21
-16.7380985133
62
11
0
LINE
8
Strings
10
-10.3287102290
20
-16.7380985133
11
-10.2967327974
21
-13.2684948490
62
11
0
LINE
8
Strings
10
-10.2967327974
20
-13.2684948490
11
-10.2676624073
21
-9.7952389726
62
11
0
LINE
8
Strings
10
-10.2676624073
20
-9.7952389726
11
-10.2385920130
21
-6.3256353110
62
11
0
LINE
8
Strings
10
-10.2385920130
20
-6.3256353110
11
-10.2095216229
21
-2.8560316467
62
11
0
LINE
8
Strings
10
-10.2095216229
20
-2.8560316467
11
-10.1804512286
21
0.6135720150
62
11
0
LINE
8
Strings
10
-10.1804512286
20
0.6135720150
11
-10.1513808385
21
4.0831756793
62
11
0
LINE
8
Strings
10
-10.1513808385
20
4.0831756793
11
-10.1223104483
21
7.5527793410
62
11
0
LINE
8
Strings
10
1.6977108846
20
-14.0829386560
11
1.7209671959
21
-9.7075858280
62
11
0
LINE
8
Strings
10
1.7209671959
20
-9.7075858280
11
7.9274958570
21
-9.7404557576
62
11
0
LINE
8
Strings
10
7.9274958570
20
-9.7404557576
11
14.1340245222
21
-9.7733256871
62
11
0
LINE
8
Strings
10
14.1340245222
20
-9.7733256871
11
20.3405531833
21
-9.8098478314
62
11
0
LINE
8
Strings
10
20.3405531833
20
-9.8098478314
11
26.5470818444
21
-9.8427177583
62
11
0
LINE
8
Strings
10
26.5470818444
20
-9.8427177583
11
32.7507034681
21
-9.8792399026
62
11
0
LINE
8
Strings
10
32.7507034681
20
-9.8792399026
11
32.7768668209
21
-5.5002348599
62
11
0
LINE
8
Strings
10
32.7768668209
20
-5.5002348599
11
26.5703381557
21
-5.4673649303
62
11
0
LINE
8
Strings
10
26.5703381557
20
-5.4673649303
11
20.3638094946
21
-5.4344950007
62
11
0
LINE
8
Strings
10
20.3638094946
20
-5.4344950007
11
14.1572808335
21
-5.3979728565
62
11
0
LINE
8
Strings
10
14.1572808335
20
-5.3979728565
11
7.9507521724
21
-5.3651029269
62
11
0
LINE
8
Strings
10
7.9507521724
20
-5.3651029269
11
1.7442235113
21
-5.3285807827
62
11
0
LINE
8
Strings
10
1.7442235113
20
-5.3285807827
11
1.7674798225
21
-0.9532279547
62
11
0
LINE
8
Strings
10
1.7674798225
20
-0.9532279547
11
7.9740084836
21
-0.9897500989
62
11
0
LINE
8
Strings
10
7.9740084836
20
-0.9897500989
11
14.1805371489
21
-1.0226200285
62
11
0
LINE
8
Strings
10
14.1805371489
20
-1.0226200285
11
20.3870658100
21
-1.0554899580
62
11
0
LINE
8
Strings
10
20.3870658100
20
-1.0554899580
11
26.5935944711
21
-1.0920120997
62
11
0
LINE
8
Strings
10
26.5935944711
20
-1.0920120997
11
32.8001231322
21
-1.1248820292
62
11
0
LINE
8
Strings
10
32.8233794476
20
3.2504707988
11
26.6197578239
21
3.2869929431
62
11
0
LINE
8
Strings
10
26.6197578239
20
3.2869929431
11
20.4132291628
21
3.3198628726
62
11
0
LINE
8
Strings
10
20.4132291628
20
3.3198628726
11
14.2067005017
21
3.3527328022
62
11
0
LINE
8
Strings
10
14.2067005017
20
3.3527328022
11
8.0001718364
21
3.3892549464
62
11
0
LINE
8
Strings
10
8.0001718364
20
3.3892549464
11
1.7936431753
21
3.4221248760
62
11
0
LINE
8
Strings
10
1.7936431753
20
3.4221248760
11
1.8168994907
21
7.7974777040
62
11
0
LINE
8
Strings
10
1.8168994907
20
7.7974777040
11
1.8401558020
21
12.1764827467
62
11
0
LINE
8
Strings
10
1.8401558020
20
12.1764827467
11
8.0466844631
21
12.1399606051
62
11
0
LINE
8
Strings
10
8.0466844631
20
12.1399606051
11
14.2532131283
21
12.1070906755
62
11
0
LINE
8
Strings
10
14.2532131283
20
12.1070906755
11
20.4597417894
21
12.0705685313
62
11
0
LINE
8
Strings
10
20.4597417894
20
12.0705685313
11
26.6662704505
21
12.0376986017
62
11
0
LINE
8
Strings
10
26.6662704505
20
12.0376986017
11
32.8727991116
21
12.0048286722
62
11
0
LINE
8
Strings
10
32.8727991116
20
12.0048286722
11
39.0793277727
21
11.9683065279
62
11
0
LINE
8
Strings
10
39.0793277727
20
11.9683065279
11
45.2858564380
21
11.9354365984
62
11
0
LINE
8
Strings
10
45.2858564380
20
11.9354365984
11
32.8495428004
21
7.6258236294
62
11
0
LINE
8
Strings
10
32.8495428004
20
7.6258236294
11
26.6430141393
21
7.6623457711
62
11
0
LINE
8
Strings
10
26.6430141393
20
7.6623457711
11
20.4364854740
21
7.6952157007
62
11
0
LINE
8
Strings
10
20.4364854740
20
7.6952157007
11
14.2299568129
21
7.7317378449
62
11
0
LINE
8
Connections
10
45.1405044790
20
-14.3239848070
11
45.1432272717
21
-13.8318663393
62
91
0
LINE
8
Connections
10
45.1432272717
20
-13.8318663393
11
45.6353457394
21
-13.8345891319
62
91
0
LINE
8
Connections
10
45.6353457394
20
-13.8345891319
11
51.2122974656
21
-13.8654452855
62
91
0
LINE
8
Connections
10
51.2122974656
20
-13.8654452855
11
51.2122962462
21
-13.8656656883
62
91
0
LINE
8
Connections
10
51.2122962462
20
-13.8656656883
11
51.2095734535
21
-14.3577841560
62
91
0
LINE
8
Connections
10
51.2095734535
20
-14.3577841560
11
51.7016919213
21
-14.3605069487
62
91
0
LINE
8
Connections
10
-10.3577806192
20
-20.2077021750
11
-9.8656722330
21
-20.2118658505
62
91
0
LINE
8
Connections
10
-9.8656722330
20
-20.2118658505
11
-9.8615085575
21
-19.7197574644
62
91
0
LINE
8
Connections
10
-9.8615085575
20
-19.7197574644
11
-9.8159246530
21
-14.3321566965
62
91
0
LINE
8
Connections
10
-9.8159246530
20
-14.3321566965
11
51.2054198596
21
-14.8484516592
62
91
0
LINE
8
Connections
10
51.2054198596
20
-14.8484516592
11
51.6975282457
21
-14.8526153348
62
91
0
LINE
8
Connections
10
51.6975282457
20
-14.8526153348
11
51.7016919213
21
-14.3605069487
62
91
0
LINE
8
Connections
10
1.6977108846
20
-14.0829386560
11
1.7004336772
21
-13.5908201883
62
91
0
LINE
8
Connections
10
1.7004336772
20
-13.5908201883
11
2.1925521449
21
-13.5935429809
62
91
0
LINE
8
Connections
10
2.1925521449
20
-13.5935429809
11
51.2123012604
21
-13.8647594058
62
91
0
LINE
8
Connections
10
51.2123012604
20
-13.8647594058
11
51.2122962462
21
-13.8656656883
62
91
0
LINE
8
Connections
10
51.2122962462
20
-13.8656656883
11
51.2095734535
21
-14.3577841560
62
91
0
LINE
8
Connections
10
51.2095734535
20
-14.3577841560
11
51.7016919213
21
-14.3605069487
62
91
0
LINE
8
Connections
10
32.8233794476
20
3.2504707988
11
32.8206566550
21
2.7583523311
62
91
0
LINE
8
Connections
10
32.8206566550
20
2.7583523311
11
33.3127751227
21
2.7556295385
62
91
0
LINE
8
Connections
10
33.3127751227
20
2.7556295385
11
51.3037077978
21
2.6560893220
62
91
0
LINE
8
Connections
10
51.3037077978
20
2.6560893220
11
51.2122962462
21
-13.8656656883
62
91
0
LINE
8
Connections
10
51.2122962462
20
-13.8656656883
11
51.2095734535
21
-14.3577841560
62
91
0
LINE
8
Connections
10
51.2095734535
20
-14.3577841560
11
51.7016919213
21
-14.3605069487
62
91
0
ENDSEC
0
EOF