999
Design created by Aurora
0
SECTION
2
HEADER
9
$ACADVER
1
AC1009
9
$INSUNITS
70
2
0
ENDSEC
0
SECTION
2
TABLES
0
TABLE
2
LTYPE
100
AcDbLinetypeTableRecord
2
LTYPE
0
LTYPE
2
DASHED
70
0
3
dashed line
72
65
73
2
40
4.0
49
2.0
49
-2.0
0
ENDTAB
0
TABLE
2
LAYER
70
6
0
LAYER
100
AcDbSymbolTable
100
AcDbLayerTable
2
Inverters
70
0
62
7
6
CONTINUOUS
0
LAYER
100
AcDbSymbolTable
100
AcDbLayerTable
2
Setbacks
70
0
62
7
6
CONTINUOUS
0
LAYER
100
AcDbSymbolTable
100
AcDbLayerTable
2
Connections
70
0
62
7
6
CONTINUOUS
0
LAYER
100
AcDbSymbolTable
100
AcDbLayerTable
2
Strings
70
0
62
7
6
CONTINUOUS
0
LAYER
100
AcDbSymbolTable
100
AcDbLayerTable
2
Modules
70
0
62
7
6
CONTINUOUS
0
LAYER
100
AcDbSymbolTable
100
AcDbLayerTable
2
Buildings
70
0
62
7
6
CONTINUOUS
0
ENDTAB
0
ENDSEC
0
SECTION
2
ENTITIES
0
LINE
8
Modules
10
64.8468566529
20
-7.3023410591
11
58.2157983448
21
-6.8188289929
62
254
0
LINE
8
Modules
10
58.2157983448
20
-6.8188289929
11
57.9454722538
21
-10.5261781925
62
254
0
LINE
8
Modules
10
57.9454722538
20
-10.5261781925
11
64.5765305620
21
-11.0096902587
62
254
0
LINE
8
Modules
10
64.5765305620
20
-11.0096902587
11
64.8468566529
21
-7.3023410591
62
254
0
LINE
8
Modules
10
64.5735004284
20
-11.0512466001
11
57.9424421202
21
-10.5677345339
62
254
0
LINE
8
Modules
10
57.9424421202
20
-10.5677345339
11
57.6721160292
21
-14.2750837335
62
254
0
LINE
8
Modules
10
57.6721160292
20
-14.2750837335
11
64.3031743374
21
-14.7585957997
62
254
0
LINE
8
Modules
10
64.3031743374
20
-14.7585957997
11
64.5735004284
21
-11.0512466001
62
254
0
LINE
8
Modules
10
64.3001442038
20
-14.8001521411
11
57.6690858957
21
-14.3166400750
62
254
0
LINE
8
Modules
10
57.6690858957
20
-14.3166400750
11
57.3987598047
21
-18.0239892746
62
254
0
LINE
8
Modules
10
57.3987598047
20
-18.0239892746
11
64.0298181129
21
-18.5075013407
62
254
0
LINE
8
Modules
10
64.0298181129
20
-18.5075013407
11
64.3001442038
21
-14.8001521411
62
254
0
LINE
8
Modules
10
64.0267879793
20
-18.5490576821
11
57.3957296711
21
-18.0655456160
62
254
0
LINE
8
Modules
10
57.3957296711
20
-18.0655456160
11
57.1254035801
21
-21.7728948156
62
254
0
LINE
8
Modules
10
57.1254035801
20
-21.7728948156
11
63.7564618883
21
-22.2564068817
62
254
0
LINE
8
Modules
10
63.7564618883
20
-22.2564068817
11
64.0267879793
21
-18.5490576821
62
254
0
LINE
8
Modules
10
63.7534317547
20
-22.2979632232
11
57.1223734465
21
-21.8144511570
62
254
0
LINE
8
Modules
10
57.1223734465
20
-21.8144511570
11
56.8520473556
21
-25.5218003566
62
254
0
LINE
8
Modules
10
56.8520473556
20
-25.5218003566
11
63.4831056637
21
-26.0053124228
62
254
0
LINE
8
Modules
10
63.4831056637
20
-26.0053124228
11
63.7534317547
21
-22.2979632232
62
254
0
LINE
8
Modules
10
63.4800755302
20
-26.0468687642
11
56.8490172220
21
-25.5633566980
62
254
0
LINE
8
Modules
10
56.8490172220
20
-25.5633566980
11
56.5786911310
21
-29.2707058976
62
254
0
LINE
8
Modules
10
56.5786911310
20
-29.2707058976
11
63.2097494392
21
-29.7542179638
62
254
0
LINE
8
Modules
10
63.2097494392
20
-29.7542179638
11
63.4800755302
21
-26.0468687642
62
254
0
LINE
8
Modules
10
63.2067193056
20
-29.7957743052
11
56.5756609974
21
-29.3122622391
62
254
0
LINE
8
Modules
10
56.5756609974
20
-29.3122622391
11
56.3053349065
21
-33.0196114387
62
254
0
LINE
8
Modules
10
56.3053349065
20
-33.0196114387
11
62.9363932146
21
-33.5031235048
62
254
0
LINE
8
Modules
10
62.9363932146
20
-33.5031235048
11
63.2067193056
21
-29.7957743052
62
254
0
LINE
8
Modules
10
62.9333630810
20
-33.5446798462
11
56.3023047729
21
-33.0611677801
62
254
0
LINE
8
Modules
10
56.3023047729
20
-33.0611677801
11
56.0319786819
21
-36.7685169797
62
254
0
LINE
8
Modules
10
56.0319786819
20
-36.7685169797
11
62.6630369901
21
-37.2520290458
62
254
0
LINE
8
Modules
10
62.6630369901
20
-37.2520290458
11
62.9333630810
21
-33.5446798462
62
254
0
LINE
8
Modules
10
62.6600068565
20
-37.2935853873
11
56.0289485483
21
-36.8100733211
62
254
0
LINE
8
Modules
10
56.0289485483
20
-36.8100733211
11
55.7586224574
21
-40.5174225207
62
254
0
LINE
8
Modules
10
55.7586224574
20
-40.5174225207
11
62.3896807655
21
-41.0009345869
62
254
0
LINE
8
Modules
10
62.3896807655
20
-41.0009345869
11
62.6600068565
21
-37.2935853873
62
254
0
LINE
8
Modules
10
62.3866506319
20
-41.0424909283
11
55.7555923238
21
-40.5589788621
62
254
0
LINE
8
Modules
10
55.7555923238
20
-40.5589788621
11
55.4852662328
21
-44.2663280617
62
254
0
LINE
8
Modules
10
55.4852662328
20
-44.2663280617
11
62.1163245410
21
-44.7498401279
62
254
0
LINE
8
Modules
10
62.1163245410
20
-44.7498401279
11
62.3866506319
21
-41.0424909283
62
254
0
LINE
8
Modules
10
62.1132944074
20
-44.7913964693
11
55.4822360992
21
-44.3078844032
62
254
0
LINE
8
Modules
10
55.4822360992
20
-44.3078844032
11
55.2119100082
21
-48.0152336028
62
254
0
LINE
8
Modules
10
55.2119100082
20
-48.0152336028
11
61.8429683164
21
-48.4987456689
62
254
0
LINE
8
Modules
10
61.8429683164
20
-48.4987456689
11
62.1132944074
21
-44.7913964693
62
254
0
LINE
8
Modules
10
61.8399381828
20
-48.5403020103
11
55.2088798747
21
-48.0567899442
62
254
0
LINE
8
Modules
10
55.2088798747
20
-48.0567899442
11
54.9385537837
21
-51.7641391438
62
254
0
LINE
8
Modules
10
54.9385537837
20
-51.7641391438
11
61.5696120919
21
-52.2476512099
62
254
0
LINE
8
Modules
10
61.5696120919
20
-52.2476512099
11
61.8399381828
21
-48.5403020103
62
254
0
LINE
8
Modules
10
61.5665819583
20
-52.2892075514
11
54.9355236501
21
-51.8056954852
62
254
0
LINE
8
Modules
10
54.9355236501
20
-51.8056954852
11
54.6651975591
21
-55.5130446848
62
254
0
LINE
8
Modules
10
54.6651975591
20
-55.5130446848
11
61.2962558673
21
-55.9965567510
62
254
0
LINE
8
Modules
10
61.2962558673
20
-55.9965567510
11
61.5665819583
21
-52.2892075514
62
254
0
LINE
8
Modules
10
61.2932257337
20
-56.0381130924
11
54.6621674256
21
-55.5546010263
62
254
0
LINE
8
Modules
10
54.6621674256
20
-55.5546010263
11
54.3918413346
21
-59.2619502259
62
254
0
LINE
8
Modules
10
54.3918413346
20
-59.2619502259
11
61.0228996427
21
-59.7454622920
62
254
0
LINE
8
Modules
10
61.0228996427
20
-59.7454622920
11
61.2932257337
21
-56.0381130924
62
254
0
LINE
8
Modules
10
61.0198695092
20
-59.7870186334
11
54.3888112010
21
-59.3035065673
62
254
0
LINE
8
Modules
10
54.3888112010
20
-59.3035065673
11
54.1184851100
21
-63.0108557669
62
254
0
LINE
8
Modules
10
54.1184851100
20
-63.0108557669
11
60.7495434182
21
-63.4943678330
62
254
0
LINE
8
Modules
10
60.7495434182
20
-63.4943678330
11
61.0198695092
21
-59.7870186334
62
254
0
LINE
8
Modules
10
60.7465132846
20
-63.5359241744
11
54.1154549764
21
-63.0524121083
62
254
0
LINE
8
Modules
10
54.1154549764
20
-63.0524121083
11
53.8451288855
21
-66.7597613079
62
254
0
LINE
8
Modules
10
53.8451288855
20
-66.7597613079
11
60.4761871936
21
-67.2432733740
62
254
0
LINE
8
Modules
10
60.4761871936
20
-67.2432733740
11
60.7465132846
21
-63.5359241744
62
254
0
LINE
8
Modules
10
60.4731570601
20
-67.2848297155
11
53.8420987519
21
-66.8013176493
62
254
0
LINE
8
Modules
10
53.8420987519
20
-66.8013176493
11
53.5717726609
21
-70.5086668489
62
254
0
LINE
8
Modules
10
53.5717726609
20
-70.5086668489
11
60.2028309691
21
-70.9921789151
62
254
0
LINE
8
Modules
10
60.2028309691
20
-70.9921789151
11
60.4731570601
21
-67.2848297155
62
254
0
LINE
8
Modules
10
60.1998008355
20
-71.0337352565
11
53.5687425273
21
-70.5502231904
62
254
0
LINE
8
Modules
10
53.5687425273
20
-70.5502231904
11
53.2984164364
21
-74.2575723900
62
254
0
LINE
8
Modules
10
53.2984164364
20
-74.2575723900
11
59.9294747445
21
-74.7410844561
62
254
0
LINE
8
Modules
10
59.9294747445
20
-74.7410844561
11
60.1998008355
21
-71.0337352565
62
254
0
LINE
8
Modules
10
59.9264446109
20
-74.7826407975
11
53.2953863028
21
-74.2991287314
62
254
0
LINE
8
Modules
10
53.2953863028
20
-74.2991287314
11
53.0250602118
21
-78.0064779310
62
254
0
LINE
8
Modules
10
53.0250602118
20
-78.0064779310
11
59.6561185200
21
-78.4899899971
62
254
0
LINE
8
Modules
10
59.6561185200
20
-78.4899899971
11
59.9264446109
21
-74.7826407975
62
254
0
LINE
8
Modules
10
59.6530883864
20
-78.5315463386
11
53.0220300782
21
-78.0480342724
62
254
0
LINE
8
Modules
10
53.0220300782
20
-78.0480342724
11
52.7517039873
21
-81.7553834720
62
254
0
LINE
8
Modules
10
52.7517039873
20
-81.7553834720
11
59.3827622954
21
-82.2388955382
62
254
0
LINE
8
Modules
10
59.3827622954
20
-82.2388955382
11
59.6530883864
21
-78.5315463386
62
254
0
LINE
8
Modules
10
59.3797321618
20
-82.2804518796
11
52.7486738537
21
-81.7969398134
62
254
0
LINE
8
Modules
10
52.7486738537
20
-81.7969398134
11
52.4783477627
21
-85.5042890130
62
254
0
LINE
8
Modules
10
52.4783477627
20
-85.5042890130
11
59.1094060709
21
-85.9878010792
62
254
0
LINE
8
Modules
10
59.1094060709
20
-85.9878010792
11
59.3797321618
21
-82.2804518796
62
254
0
LINE
8
Modules
10
59.1063759373
20
-86.0293574206
11
52.4753176291
21
-85.5458453545
62
254
0
LINE
8
Modules
10
52.4753176291
20
-85.5458453545
11
52.2049915381
21
-89.2531945541
62
254
0
LINE
8
Modules
10
52.2049915381
20
-89.2531945541
11
58.8360498463
21
-89.7367066202
62
254
0
LINE
8
Modules
10
58.8360498463
20
-89.7367066202
11
59.1063759373
21
-86.0293574206
62
254
0
LINE
8
Modules
10
58.8330197127
20
-89.7782629616
11
52.2019614046
21
-89.2947508955
62
254
0
LINE
8
Modules
10
52.2019614046
20
-89.2947508955
11
51.9316353136
21
-93.0021000951
62
254
0
LINE
8
Modules
10
51.9316353136
20
-93.0021000951
11
58.5626936218
21
-93.4856121612
62
254
0
LINE
8
Modules
10
58.5626936218
20
-93.4856121612
11
58.8330197127
21
-89.7782629616
62
254
0
LINE
8
Modules
10
58.5596634882
20
-93.5271685027
11
51.9286051800
21
-93.0436564365
62
254
0
LINE
8
Modules
10
51.9286051800
20
-93.0436564365
11
51.6582790890
21
-96.7510056361
62
254
0
LINE
8
Modules
10
51.6582790890
20
-96.7510056361
11
58.2893373972
21
-97.2345177023
62
254
0
LINE
8
Modules
10
58.2893373972
20
-97.2345177023
11
58.5596634882
21
-93.5271685027
62
254
0
LINE
8
Modules
10
58.2863072636
20
-97.2760740437
11
51.6552489554
21
-96.7925619775
62
254
0
LINE
8
Modules
10
51.6552489554
20
-96.7925619775
11
51.3849228645
21
-100.4999111771
62
254
0
LINE
8
Modules
10
51.3849228645
20
-100.4999111771
11
58.0159811726
21
-100.9834232433
62
254
0
LINE
8
Modules
10
58.0159811726
20
-100.9834232433
11
58.2863072636
21
-97.2760740437
62
254
0
LINE
8
Modules
10
58.0129510391
20
-101.0249795847
11
51.3818927309
21
-100.5414675186
62
254
0
LINE
8
Modules
10
51.3818927309
20
-100.5414675186
11
51.1115666399
21
-104.2488167182
62
254
0
LINE
8
Modules
10
51.1115666399
20
-104.2488167182
11
57.7426249481
21
-104.7323287843
62
254
0
LINE
8
Modules
10
57.7426249481
20
-104.7323287843
11
58.0129510391
21
-101.0249795847
62
254
0
LINE
8
Modules
10
57.7395948145
20
-104.7738851257
11
51.1085365063
21
-104.2903730596
62
254
0
LINE
8
Modules
10
51.1085365063
20
-104.2903730596
11
50.8382104154
21
-107.9977222592
62
254
0
LINE
8
Modules
10
50.8382104154
20
-107.9977222592
11
57.4692687235
21
-108.4812343253
62
254
0
LINE
8
Modules
10
57.4692687235
20
-108.4812343253
11
57.7395948145
21
-104.7738851257
62
254
0
LINE
8
Modules
10
57.4662385899
20
-108.5227906668
11
50.8351802818
21
-108.0392786006
62
254
0
LINE
8
Modules
10
50.8351802818
20
-108.0392786006
11
50.5648541908
21
-111.7466278002
62
254
0
LINE
8
Modules
10
50.5648541908
20
-111.7466278002
11
57.1959124990
21
-112.2301398664
62
254
0
LINE
8
Modules
10
57.1959124990
20
-112.2301398664
11
57.4662385899
21
-108.5227906668
62
254
0
LINE
8
Modules
10
58.1756580013
20
-6.8159021086
11
51.5445996932
21
-6.3323900425
62
254
0
LINE
8
Modules
10
51.5445996932
20
-6.3323900425
11
51.2742736022
21
-10.0397392421
62
254
0
LINE
8
Modules
10
51.2742736022
20
-10.0397392421
11
57.9053319104
21
-10.5232513082
62
254
0
LINE
8
Modules
10
57.9053319104
20
-10.5232513082
11
58.1756580013
21
-6.8159021086
62
254
0
LINE
8
Modules
10
57.9023017768
20
-10.5648076496
11
51.2712434686
21
-10.0812955835
62
254
0
LINE
8
Modules
10
51.2712434686
20
-10.0812955835
11
51.0009173776
21
-13.7886447831
62
254
0
LINE
8
Modules
10
51.0009173776
20
-13.7886447831
11
57.6319756858
21
-14.2721568493
62
254
0
LINE
8
Modules
10
57.6319756858
20
-14.2721568493
11
57.9023017768
21
-10.5648076496
62
254
0
LINE
8
Modules
10
57.6289455522
20
-14.3137131907
11
50.9978872441
21
-13.8302011245
62
254
0
LINE
8
Modules
10
50.9978872441
20
-13.8302011245
11
50.7275611531
21
-17.5375503241
62
254
0
LINE
8
Modules
10
50.7275611531
20
-17.5375503241
11
57.3586194613
21
-18.0210623903
62
254
0
LINE
8
Modules
10
57.3586194613
20
-18.0210623903
11
57.6289455522
21
-14.3137131907
62
254
0
LINE
8
Modules
10
57.3555893277
20
-18.0626187317
11
50.7245310195
21
-17.5791066656
62
254
0
LINE
8
Modules
10
50.7245310195
20
-17.5791066656
11
50.4542049285
21
-21.2864558652
62
254
0
LINE
8
Modules
10
50.4542049285
20
-21.2864558652
11
57.0852632367
21
-21.7699679313
62
254
0
LINE
8
Modules
10
57.0852632367
20
-21.7699679313
11
57.3555893277
21
-18.0626187317
62
254
0
LINE
8
Modules
10
57.0822331031
20
-21.8115242727
11
50.4511747949
21
-21.3280122066
62
254
0
LINE
8
Modules
10
50.4511747949
20
-21.3280122066
11
50.1808487040
21
-25.0353614062
62
254
0
LINE
8
Modules
10
50.1808487040
20
-25.0353614062
11
56.8119070121
21
-25.5188734723
62
254
0
LINE
8
Modules
10
56.8119070121
20
-25.5188734723
11
57.0822331031
21
-21.8115242727
62
254
0
LINE
8
Modules
10
56.8088768786
20
-25.5604298138
11
50.1778185704
21
-25.0769177476
62
254
0
LINE
8
Modules
10
50.1778185704
20
-25.0769177476
11
49.9074924794
21
-28.7842669472
62
254
0
LINE
8
Modules
10
49.9074924794
20
-28.7842669472
11
56.5385507876
21
-29.2677790134
62
254
0
LINE
8
Modules
10
56.5385507876
20
-29.2677790134
11
56.8088768786
21
-25.5604298138
62
254
0
LINE
8
Modules
10
56.5355206540
20
-29.3093353548
11
49.9044623458
21
-28.8258232886
62
254
0
LINE
8
Modules
10
49.9044623458
20
-28.8258232886
11
49.6341362549
21
-32.5331724882
62
254
0
LINE
8
Modules
10
49.6341362549
20
-32.5331724882
11
56.2651945630
21
-33.0166845544
62
254
0
LINE
8
Modules
10
56.2651945630
20
-33.0166845544
11
56.5355206540
21
-29.3093353548
62
254
0
LINE
8
Modules
10
56.2621644295
20
-33.0582408958
11
49.6311061213
21
-32.5747288297
62
254
0
LINE
8
Modules
10
49.6311061213
20
-32.5747288297
11
49.3607800303
21
-36.2820780293
62
254
0
LINE
8
Modules
10
49.3607800303
20
-36.2820780293
11
55.9918383385
21
-36.7655900954
62
254
0
LINE
8
Modules
10
55.9918383385
20
-36.7655900954
11
56.2621644295
21
-33.0582408958
62
254
0
LINE
8
Modules
10
55.9888082049
20
-36.8071464368
11
49.3577498967
21
-36.3236343707
62
254
0
LINE
8
Modules
10
49.3577498967
20
-36.3236343707
11
49.0874238058
21
-40.0309835703
62
254
0
LINE
8
Modules
10
49.0874238058
20
-40.0309835703
11
55.7184821139
21
-40.5144956364
62
254
0
LINE
8
Modules
10
55.7184821139
20
-40.5144956364
11
55.9888082049
21
-36.8071464368
62
254
0
LINE
8
Modules
10
55.7154519803
20
-40.5560519779
11
49.0843936722
21
-40.0725399117
62
254
0
LINE
8
Modules
10
49.0843936722
20
-40.0725399117
11
48.8140675812
21
-43.7798891113
62
254
0
LINE
8
Modules
10
48.8140675812
20
-43.7798891113
11
55.4451258894
21
-44.2634011775
62
254
0
LINE
8
Modules
10
55.4451258894
20
-44.2634011775
11
55.7154519803
21
-40.5560519779
62
254
0
LINE
8
Modules
10
55.4420957558
20
-44.3049575189
11
48.8110374476
21
-43.8214454527
62
254
0
LINE
8
Modules
10
48.8110374476
20
-43.8214454527
11
48.5407113567
21
-47.5287946523
62
254
0
LINE
8
Modules
10
48.5407113567
20
-47.5287946523
11
55.1717696648
21
-48.0123067185
62
254
0
LINE
8
Modules
10
55.1717696648
20
-48.0123067185
11
55.4420957558
21
-44.3049575189
62
254
0
LINE
8
Modules
10
55.1687395312
20
-48.0538630599
11
48.5376812231
21
-47.5703509938
62
254
0
LINE
8
Modules
10
48.5376812231
20
-47.5703509938
11
48.2673551321
21
-51.2777001934
62
254
0
LINE
8
Modules
10
48.2673551321
20
-51.2777001934
11
54.8984134403
21
-51.7612122595
62
254
0
LINE
8
Modules
10
54.8984134403
20
-51.7612122595
11
55.1687395312
21
-48.0538630599
62
254
0
LINE
8
Modules
10
54.8953833067
20
-51.8027686009
11
48.2643249985
21
-51.3192565348
62
254
0
LINE
8
Modules
10
48.2643249985
20
-51.3192565348
11
47.9939989075
21
-55.0266057344
62
254
0
LINE
8
Modules
10
47.9939989075
20
-55.0266057344
11
54.6250572157
21
-55.5101178005
62
254
0
LINE
8
Modules
10
54.6250572157
20
-55.5101178005
11
54.8953833067
21
-51.8027686009
62
254
0
LINE
8
Modules
10
54.6220270821
20
-55.5516741420
11
47.9909687740
21
-55.0681620758
62
254
0
LINE
8
Modules
10
47.9909687740
20
-55.0681620758
11
47.7206426830
21
-58.7755112754
62
254
0
LINE
8
Modules
10
47.7206426830
20
-58.7755112754
11
54.3517009912
21
-59.2590233416
62
254
0
LINE
8
Modules
10
54.3517009912
20
-59.2590233416
11
54.6220270821
21
-55.5516741420
62
254
0
LINE
8
Modules
10
54.3486708576
20
-59.3005796830
11
47.7176125494
21
-58.8170676168
62
254
0
LINE
8
Modules
10
47.7176125494
20
-58.8170676168
11
47.4472864584
21
-62.5244168164
62
254
0
LINE
8
Modules
10
47.4472864584
20
-62.5244168164
11
54.0783447666
21
-63.0079288826
62
254
0
LINE
8
Modules
10
54.0783447666
20
-63.0079288826
11
54.3486708576
21
-59.3005796830
62
254
0
LINE
8
Modules
10
54.0753146330
20
-63.0494852240
11
47.4442563248
21
-62.5659731579
62
254
0
LINE
8
Modules
10
47.4442563248
20
-62.5659731579
11
47.1739302339
21
-66.2733223575
62
254
0
LINE
8
Modules
10
47.1739302339
20
-66.2733223575
11
53.8049885420
21
-66.7568344236
62
254
0
LINE
8
Modules
10
53.8049885420
20
-66.7568344236
11
54.0753146330
21
-63.0494852240
62
254
0
LINE
8
Modules
10
53.8019584085
20
-66.7983907650
11
47.1709001003
21
-66.3148786989
62
254
0
LINE
8
Modules
10
47.1709001003
20
-66.3148786989
11
46.9005740093
21
-70.0222278985
62
254
0
LINE
8
Modules
10
46.9005740093
20
-70.0222278985
11
53.5316323175
21
-70.5057399646
62
254
0
LINE
8
Modules
10
53.5316323175
20
-70.5057399646
11
53.8019584085
21
-66.7983907650
62
254
0
LINE
8
Modules
10
53.5286021839
20
-70.5472963061
11
46.8975438757
21
-70.0637842399
62
254
0
LINE
8
Modules
10
46.8975438757
20
-70.0637842399
11
46.6272177848
21
-73.7711334395
62
254
0
LINE
8
Modules
10
46.6272177848
20
-73.7711334395
11
53.2582760929
21
-74.2546455057
62
254
0
LINE
8
Modules
10
53.2582760929
20
-74.2546455057
11
53.5286021839
21
-70.5472963061
62
254
0
LINE
8
Modules
10
53.2552459593
20
-74.2962018471
11
46.6241876512
21
-73.8126897809
62
254
0
LINE
8
Modules
10
46.6241876512
20
-73.8126897809
11
46.3538615602
21
-77.5200389805
62
254
0
LINE
8
Modules
10
46.3538615602
20
-77.5200389805
11
52.9849198684
21
-78.0035510467
62
254
0
LINE
8
Modules
10
52.9849198684
20
-78.0035510467
11
53.2552459593
21
-74.2962018471
62
254
0
LINE
8
Modules
10
52.9818897348
20
-78.0451073881
11
46.3508314266
21
-77.5615953220
62
254
0
LINE
8
Modules
10
46.3508314266
20
-77.5615953220
11
46.0805053357
21
-81.2689445216
62
254
0
LINE
8
Modules
10
46.0805053357
20
-81.2689445216
11
52.7115636438
21
-81.7524565877
62
254
0
LINE
8
Modules
10
52.7115636438
20
-81.7524565877
11
52.9818897348
21
-78.0451073881
62
254
0
LINE
8
Modules
10
52.7085335102
20
-81.7940129291
11
46.0774752021
21
-81.3105008630
62
254
0
LINE
8
Modules
10
46.0774752021
20
-81.3105008630
11
45.8071491111
21
-85.0178500626
62
254
0
LINE
8
Modules
10
45.8071491111
20
-85.0178500626
11
52.4382074193
21
-85.5013621287
62
254
0
LINE
8
Modules
10
52.4382074193
20
-85.5013621287
11
52.7085335102
21
-81.7940129291
62
254
0
LINE
8
Modules
10
52.4351772857
20
-85.5429184702
11
45.8041189775
21
-85.0594064040
62
254
0
LINE
8
Modules
10
45.8041189775
20
-85.0594064040
11
45.5337928866
21
-88.7667556036
62
254
0
LINE
8
Modules
10
45.5337928866
20
-88.7667556036
11
52.1648511947
21
-89.2502676698
62
254
0
LINE
8
Modules
10
52.1648511947
20
-89.2502676698
11
52.4351772857
21
-85.5429184702
62
254
0
LINE
8
Modules
10
52.1618210611
20
-89.2918240112
11
45.5307627530
21
-88.8083119451
62
254
0
LINE
8
Modules
10
45.5307627530
20
-88.8083119451
11
45.2604366620
21
-92.5156611447
62
254
0
LINE
8
Modules
10
45.2604366620
20
-92.5156611447
11
51.8914949702
21
-92.9991732108
62
254
0
LINE
8
Modules
10
51.8914949702
20
-92.9991732108
11
52.1618210611
21
-89.2918240112
62
254
0
LINE
8
Modules
10
51.8884648366
20
-93.0407295522
11
45.2574065284
21
-92.5572174861
62
254
0
LINE
8
Modules
10
45.2574065284
20
-92.5572174861
11
44.9870804374
21
-96.2645666857
62
254
0
LINE
8
Modules
10
44.9870804374
20
-96.2645666857
11
51.6181387456
21
-96.7480787518
62
254
0
LINE
8
Modules
10
51.6181387456
20
-96.7480787518
11
51.8884648366
21
-93.0407295522
62
254
0
LINE
8
Modules
10
51.6151086120
20
-96.7896350932
11
44.9840503039
21
-96.3061230271
62
254
0
LINE
8
Modules
10
44.9840503039
20
-96.3061230271
11
44.7137242129
21
-100.0134722267
62
254
0
LINE
8
Modules
10
44.7137242129
20
-100.0134722267
11
51.3447825211
21
-100.4969842928
62
254
0
LINE
8
Modules
10
51.3447825211
20
-100.4969842928
11
51.6151086120
21
-96.7896350932
62
254
0
LINE
8
Modules
10
51.3417523875
20
-100.5385406343
11
44.7106940793
21
-100.0550285681
62
254
0
LINE
8
Modules
10
44.7106940793
20
-100.0550285681
11
44.4403679883
21
-103.7623777677
62
254
0
LINE
8
Modules
10
44.4403679883
20
-103.7623777677
11
51.0714262965
21
-104.2458898339
62
254
0
LINE
8
Modules
10
51.0714262965
20
-104.2458898339
11
51.3417523875
21
-100.5385406343
62
254
0
LINE
8
Modules
10
51.0683961629
20
-104.2874461753
11
44.4373378547
21
-103.8039341092
62
254
0
LINE
8
Modules
10
44.4373378547
20
-103.8039341092
11
44.1670117638
21
-107.5112833088
62
254
0
LINE
8
Modules
10
44.1670117638
20
-107.5112833088
11
50.7980700719
21
-107.9947953749
62
254
0
LINE
8
Modules
10
50.7980700719
20
-107.9947953749
11
51.0683961629
21
-104.2874461753
62
254
0
LINE
8
Modules
10
50.7950399384
20
-108.0363517163
11
44.1639816302
21
-107.5528396502
62
254
0
LINE
8
Modules
10
44.1639816302
20
-107.5528396502
11
43.8936555392
21
-111.2601888498
62
254
0
LINE
8
Modules
10
43.8936555392
20
-111.2601888498
11
50.5247138474
21
-111.7437009159
62
254
0
LINE
8
Modules
10
50.5247138474
20
-111.7437009159
11
50.7950399384
21
-108.0363517163
62
254
0
LINE
8
Modules
10
51.5044593497
20
-6.3294631582
11
44.8734010416
21
-5.8459510920
62
254
0
LINE
8
Modules
10
44.8734010416
20
-5.8459510920
11
44.6030749506
21
-9.5533002916
62
254
0
LINE
8
Modules
10
44.6030749506
20
-9.5533002916
11
51.2341332588
21
-10.0368123578
62
254
0
LINE
8
Modules
10
51.2341332588
20
-10.0368123578
11
51.5044593497
21
-6.3294631582
62
254
0
LINE
8
Modules
10
51.2311031252
20
-10.0783686992
11
44.6000448170
21
-9.5948566331
62
254
0
LINE
8
Modules
10
44.6000448170
20
-9.5948566331
11
44.3297187261
21
-13.3022058327
62
254
0
LINE
8
Modules
10
44.3297187261
20
-13.3022058327
11
50.9607770342
21
-13.7857178988
62
254
0
LINE
8
Modules
10
50.9607770342
20
-13.7857178988
11
51.2311031252
21
-10.0783686992
62
254
0
LINE
8
Modules
10
50.9577469006
20
-13.8272742402
11
44.3266885925
21
-13.3437621741
62
254
0
LINE
8
Modules
10
44.3266885925
20
-13.3437621741
11
44.0563625015
21
-17.0511113737
62
254
0
LINE
8
Modules
10
44.0563625015
20
-17.0511113737
11
50.6874208097
21
-17.5346234398
62
254
0
LINE
8
Modules
10
50.6874208097
20
-17.5346234398
11
50.9577469006
21
-13.8272742402
62
254
0
LINE
8
Modules
10
50.6843906761
20
-17.5761797813
11
44.0533323679
21
-17.0926677151
62
254
0
LINE
8
Modules
10
44.0533323679
20
-17.0926677151
11
43.7830062769
21
-20.8000169147
62
254
0
LINE
8
Modules
10
43.7830062769
20
-20.8000169147
11
50.4140645851
21
-21.2835289809
62
254
0
LINE
8
Modules
10
50.4140645851
20
-21.2835289809
11
50.6843906761
21
-17.5761797813
62
254
0
LINE
8
Modules
10
50.4110344515
20
-21.3250853223
11
43.7799761434
21
-20.8415732561
62
254
0
LINE
8
Modules
10
43.7799761434
20
-20.8415732561
11
43.5096500524
21
-24.5489224557
62
254
0
LINE
8
Modules
10
43.5096500524
20
-24.5489224557
11
50.1407083606
21
-25.0324345219
62
254
0
LINE
8
Modules
10
50.1407083606
20
-25.0324345219
11
50.4110344515
21
-21.3250853223
62
254
0
LINE
8
Modules
10
50.1376782270
20
-25.0739908633
11
43.5066199188
21
-24.5904787972
62
254
0
LINE
8
Modules
10
43.5066199188
20
-24.5904787972
11
43.2362938278
21
-28.2978279968
62
254
0
LINE
8
Modules
10
43.2362938278
20
-28.2978279968
11
49.8673521360
21
-28.7813400629
62
254
0
LINE
8
Modules
10
49.8673521360
20
-28.7813400629
11
50.1376782270
21
-25.0739908633
62
254
0
LINE
8
Modules
10
49.8643220024
20
-28.8228964043
11
43.2332636942
21
-28.3393843382
62
254
0
LINE
8
Modules
10
43.2332636942
20
-28.3393843382
11
42.9629376033
21
-32.0467335378
62
254
0
LINE
8
Modules
10
42.9629376033
20
-32.0467335378
11
49.5939959114
21
-32.5302456039
62
254
0
LINE
8
Modules
10
49.5939959114
20
-32.5302456039
11
49.8643220024
21
-28.8228964043
62
254
0
LINE
8
Modules
10
49.5909657779
20
-32.5718019454
11
42.9599074697
21
-32.0882898792
62
254
0
LINE
8
Modules
10
42.9599074697
20
-32.0882898792
11
42.6895813787
21
-35.7956390788
62
254
0
LINE
8
Modules
10
42.6895813787
20
-35.7956390788
11
49.3206396869
21
-36.2791511450
62
254
0
LINE
8
Modules
10
49.3206396869
20
-36.2791511450
11
49.5909657779
21
-32.5718019454
62
254
0
LINE
8
Modules
10
49.3176095533
20
-36.3207074864
11
42.6865512451
21
-35.8371954203
62
254
0
LINE
8
Modules
10
42.6865512451
20
-35.8371954203
11
42.4162251542
21
-39.5445446199
62
254
0
LINE
8
Modules
10
42.4162251542
20
-39.5445446199
11
49.0472834623
21
-40.0280566860
62
254
0
LINE
8
Modules
10
49.0472834623
20
-40.0280566860
11
49.3176095533
21
-36.3207074864
62
254
0
LINE
8
Modules
10
49.0442533287
20
-40.0696130274
11
42.4131950206
21
-39.5861009613
62
254
0
LINE
8
Modules
10
42.4131950206
20
-39.5861009613
11
42.1428689296
21
-43.2934501609
62
254
0
LINE
8
Modules
10
42.1428689296
20
-43.2934501609
11
48.7739272378
21
-43.7769622270
62
254
0
LINE
8
Modules
10
48.7739272378
20
-43.7769622270
11
49.0442533287
21
-40.0696130274
62
254
0
LINE
8
Modules
10
48.7708971042
20
-43.8185185684
11
42.1398387960
21
-43.3350065023
62
254
0
LINE
8
Modules
10
42.1398387960
20
-43.3350065023
11
41.8695127051
21
-47.0423557019
62
254
0
LINE
8
Modules
10
41.8695127051
20
-47.0423557019
11
48.5005710132
21
-47.5258677680
62
254
0
LINE
8
Modules
10
48.5005710132
20
-47.5258677680
11
48.7708971042
21
-43.8185185684
62
254
0
LINE
8
Modules
10
48.4975408796
20
-47.5674241095
11
41.8664825715
21
-47.0839120433
62
254
0
LINE
8
Modules
10
41.8664825715
20
-47.0839120433
11
41.5961564805
21
-50.7912612429
62
254
0
LINE
8
Modules
10
41.5961564805
20
-50.7912612429
11
48.2272147887
21
-51.2747733091
62
254
0
LINE
8
Modules
10
48.2272147887
20
-51.2747733091
11
48.4975408796
21
-47.5674241095
62
254
0
LINE
8
Modules
10
48.2241846551
20
-51.3163296505
11
41.5931263469
21
-50.8328175844
62
254
0
LINE
8
Modules
10
41.5931263469
20
-50.8328175844
11
41.3228002560
21
-54.5401667840
62
254
0
LINE
8
Modules
10
41.3228002560
20
-54.5401667840
11
47.9538585641
21
-55.0236788501
62
254
0
LINE
8
Modules
10
47.9538585641
20
-55.0236788501
11
48.2241846551
21
-51.3163296505
62
254
0
LINE
8
Modules
10
47.9508284305
20
-55.0652351915
11
41.3197701224
21
-54.5817231254
62
254
0
LINE
8
Modules
10
41.3197701224
20
-54.5817231254
11
41.0494440314
21
-58.2890723250
62
254
0
LINE
8
Modules
10
41.0494440314
20
-58.2890723250
11
47.6805023396
21
-58.7725843911
62
254
0
LINE
8
Modules
10
47.6805023396
20
-58.7725843911
11
47.9508284305
21
-55.0652351915
62
254
0
LINE
8
Modules
10
47.6774722060
20
-58.8141407326
11
41.0464138978
21
-58.3306286664
62
254
0
LINE
8
Modules
10
41.0464138978
20
-58.3306286664
11
40.7760878068
21
-62.0379778660
62
254
0
LINE
8
Modules
10
40.7760878068
20
-62.0379778660
11
47.4071461150
21
-62.5214899322
62
254
0
LINE
8
Modules
10
47.4071461150
20
-62.5214899322
11
47.6774722060
21
-58.8141407326
62
254
0
LINE
8
Modules
10
47.4041159814
20
-62.5630462736
11
40.7730576733
21
-62.0795342074
62
254
0
LINE
8
Modules
10
40.7730576733
20
-62.0795342074
11
40.5027315823
21
-65.7868834070
62
254
0
LINE
8
Modules
10
40.5027315823
20
-65.7868834070
11
47.1337898905
21
-66.2703954732
62
254
0
LINE
8
Modules
10
47.1337898905
20
-66.2703954732
11
47.4041159814
21
-62.5630462736
62
254
0
LINE
8
Modules
10
47.1307597569
20
-66.3119518146
11
40.4997014487
21
-65.8284397485
62
254
0
LINE
8
Modules
10
40.4997014487
20
-65.8284397485
11
40.2293753577
21
-69.5357889481
62
254
0
LINE
8
Modules
10
40.2293753577
20
-69.5357889481
11
46.8604336659
21
-70.0193010142
62
254
0
LINE
8
Modules
10
46.8604336659
20
-70.0193010142
11
47.1307597569
21
-66.3119518146
62
254
0
LINE
8
Modules
10
46.8574035323
20
-70.0608573556
11
40.2263452241
21
-69.5773452895
62
254
0
LINE
8
Modules
10
40.2263452241
20
-69.5773452895
11
39.9560191332
21
-73.2846944891
62
254
0
LINE
8
Modules
10
39.9560191332
20
-73.2846944891
11
46.5870774413
21
-73.7682065552
62
254
0
LINE
8
Modules
10
46.5870774413
20
-73.7682065552
11
46.8574035323
21
-70.0608573556
62
254
0
LINE
8
Modules
10
46.5840473078
20
-73.8097628967
11
39.9529889996
21
-73.3262508305
62
254
0
LINE
8
Modules
10
39.9529889996
20
-73.3262508305
11
39.6826629086
21
-77.0336000301
62
254
0
LINE
8
Modules
10
39.6826629086
20
-77.0336000301
11
46.3137212168
21
-77.5171120963
62
254
0
LINE
8
Modules
10
46.3137212168
20
-77.5171120963
11
46.5840473078
21
-73.8097628967
62
254
0
LINE
8
Modules
10
46.3106910832
20
-77.5586684377
11
39.6796327750
21
-77.0751563715
62
254
0
LINE
8
Modules
10
39.6796327750
20
-77.0751563715
11
39.4093066841
21
-80.7825055711
62
254
0
LINE
8
Modules
10
39.4093066841
20
-80.7825055711
11
46.0403649922
21
-81.2660176373
62
254
0
LINE
8
Modules
10
46.0403649922
20
-81.2660176373
11
46.3106910832
21
-77.5586684377
62
254
0
LINE
8
Modules
10
46.0373348586
20
-81.3075739787
11
39.4062765505
21
-80.8240619126
62
254
0
LINE
8
Modules
10
39.4062765505
20
-80.8240619126
11
39.1359504595
21
-84.5314111122
62
254
0
LINE
8
Modules
10
39.1359504595
20
-84.5314111122
11
45.7670087677
21
-85.0149231783
62
254
0
LINE
8
Modules
10
45.7670087677
20
-85.0149231783
11
46.0373348586
21
-81.3075739787
62
254
0
LINE
8
Modules
10
45.7639786341
20
-85.0564795197
11
39.1329203259
21
-84.5729674536
62
254
0
LINE
8
Modules
10
39.1329203259
20
-84.5729674536
11
38.8625942350
21
-88.2803166532
62
254
0
LINE
8
Modules
10
38.8625942350
20
-88.2803166532
11
45.4936525431
21
-88.7638287193
62
254
0
LINE
8
Modules
10
45.4936525431
20
-88.7638287193
11
45.7639786341
21
-85.0564795197
62
254
0
LINE
8
Modules
10
45.4906224095
20
-88.8053850608
11
38.8595641014
21
-88.3218729946
62
254
0
LINE
8
Modules
10
38.8595641014
20
-88.3218729946
11
38.5892380104
21
-92.0292221942
62
254
0
LINE
8
Modules
10
38.5892380104
20
-92.0292221942
11
45.2202963186
21
-92.5127342604
62
254
0
LINE
8
Modules
10
45.2202963186
20
-92.5127342604
11
45.4906224095
21
-88.8053850608
62
254
0
LINE
8
Modules
10
45.2172661850
20
-92.5542906018
11
38.5862078768
21
-92.0707785356
62
254
0
LINE
8
Modules
10
38.5862078768
20
-92.0707785356
11
38.3158817858
21
-95.7781277352
62
254
0
LINE
8
Modules
10
38.3158817858
20
-95.7781277352
11
44.9469400940
21
-96.2616398014
62
254
0
LINE
8
Modules
10
44.9469400940
20
-96.2616398014
11
45.2172661850
21
-92.5542906018
62
254
0
LINE
8
Modules
10
44.9439099604
20
-96.3031961428
11
38.3128516523
21
-95.8196840767
62
254
0
LINE
8
Modules
10
38.3128516523
20
-95.8196840767
11
38.0425255613
21
-99.5270332763
62
254
0
LINE
8
Modules
10
38.0425255613
20
-99.5270332763
11
44.6735838695
21
-100.0105453424
62
254
0
LINE
8
Modules
10
44.6735838695
20
-100.0105453424
11
44.9439099604
21
-96.3031961428
62
254
0
LINE
8
Modules
10
44.6705537359
20
-100.0521016838
11
38.0394954277
21
-99.5685896177
62
254
0
LINE
8
Modules
10
38.0394954277
20
-99.5685896177
11
37.7691693367
21
-103.2759388173
62
254
0
LINE
8
Modules
10
37.7691693367
20
-103.2759388173
11
44.4002276449
21
-103.7594508834
62
254
0
LINE
8
Modules
10
44.4002276449
20
-103.7594508834
11
44.6705537359
21
-100.0521016838
62
254
0
LINE
8
Modules
10
44.3971975113
20
-103.8010072249
11
37.7661392032
21
-103.3174951587
62
254
0
LINE
8
Modules
10
37.7661392032
20
-103.3174951587
11
37.4958131122
21
-107.0248443583
62
254
0
LINE
8
Modules
10
37.4958131122
20
-107.0248443583
11
44.1268714203
21
-107.5083564245
62
254
0
LINE
8
Modules
10
44.1268714203
20
-107.5083564245
11
44.3971975113
21
-103.8010072249
62
254
0
LINE
8
Modules
10
44.1238412868
20
-107.5499127659
11
37.4927829786
21
-107.0664006997
62
254
0
LINE
8
Modules
10
37.4927829786
20
-107.0664006997
11
37.2224568876
21
-110.7737498993
62
254
0
LINE
8
Modules
10
37.2224568876
20
-110.7737498993
11
43.8535151958
21
-111.2572619655
62
254
0
LINE
8
Modules
10
43.8535151958
20
-111.2572619655
11
44.1238412868
21
-107.5499127659
62
254
0
LINE
8
Modules
10
59.7480077543
20
-112.2171865108
11
66.3745615078
21
-112.7589461961
62
254
0
LINE
8
Modules
10
66.3745615078
20
-112.7589461961
11
66.6774531794
21
-109.0541154417
62
254
0
LINE
8
Modules
10
66.6774531794
20
-109.0541154417
11
60.0508994259
21
-108.5123557565
62
254
0
LINE
8
Modules
10
60.0508994259
20
-108.5123557565
11
59.7480077543
21
-112.2171865108
62
254
0
LINE
8
Modules
10
60.0542945929
20
-108.4708276448
11
66.6808483464
21
-109.0125873300
62
254
0
LINE
8
Modules
10
66.6808483464
20
-109.0125873300
11
66.9837400180
21
-105.3077565756
62
254
0
LINE
8
Modules
10
66.9837400180
20
-105.3077565756
11
60.3571862645
21
-104.7659968904
62
254
0
LINE
8
Modules
10
60.3571862645
20
-104.7659968904
11
60.0542945929
21
-108.4708276448
62
254
0
LINE
8
Modules
10
60.3605814315
20
-104.7244687787
11
66.9871351850
21
-105.2662284639
62
254
0
LINE
8
Modules
10
66.9871351850
20
-105.2662284639
11
67.2900268566
21
-101.5613977096
62
254
0
LINE
8
Modules
10
67.2900268566
20
-101.5613977096
11
60.6634731032
21
-101.0196380243
62
254
0
LINE
8
Modules
10
60.6634731032
20
-101.0196380243
11
60.3605814315
21
-104.7244687787
62
254
0
LINE
8
Modules
10
60.6668682702
20
-100.9781099126
11
67.2934220237
21
-101.5198695978
62
254
0
LINE
8
Modules
10
67.2934220237
20
-101.5198695978
11
67.5963136953
21
-97.8150388435
62
254
0
LINE
8
Modules
10
67.5963136953
20
-97.8150388435
11
60.9697599418
21
-97.2732791582
62
254
0
LINE
8
Modules
10
60.9697599418
20
-97.2732791582
11
60.6668682702
21
-100.9781099126
62
254
0
LINE
8
Modules
10
60.9731551088
20
-97.2317510465
11
67.5997088623
21
-97.7735107317
62
254
0
LINE
8
Modules
10
67.5997088623
20
-97.7735107317
11
67.9026005339
21
-94.0686799774
62
254
0
LINE
8
Modules
10
67.9026005339
20
-94.0686799774
11
61.2760467804
21
-93.5269202921
62
254
0
LINE
8
Modules
10
61.2760467804
20
-93.5269202921
11
60.9731551088
21
-97.2317510465
62
254
0
LINE
8
Modules
10
61.2794419474
20
-93.4853921804
11
67.9059957009
21
-94.0271518657
62
254
0
LINE
8
Modules
10
67.9059957009
20
-94.0271518657
11
68.2088873725
21
-90.3223211113
62
254
0
LINE
8
Modules
10
68.2088873725
20
-90.3223211113
11
61.5823336190
21
-89.7805614260
62
254
0
LINE
8
Modules
10
61.5823336190
20
-89.7805614260
11
61.2794419474
21
-93.4853921804
62
254
0
LINE
8
Modules
10
61.5857287860
20
-89.7390333143
11
68.2122825395
21
-90.2807929996
62
254
0
LINE
8
Modules
10
68.2122825395
20
-90.2807929996
11
68.5151742111
21
-86.5759622452
62
254
0
LINE
8
Modules
10
68.5151742111
20
-86.5759622452
11
61.8886204577
21
-86.0342025599
62
254
0
LINE
8
Modules
10
61.8886204577
20
-86.0342025599
11
61.5857287860
21
-89.7390333143
62
254
0
LINE
8
Modules
10
61.8920156247
20
-85.9926744482
11
68.5185693782
21
-86.5344341335
62
254
0
LINE
8
Modules
10
68.5185693782
20
-86.5344341335
11
68.8214610498
21
-82.8296033791
62
254
0
LINE
8
Modules
10
68.8214610498
20
-82.8296033791
11
62.1949072963
21
-82.2878436939
62
254
0
LINE
8
Modules
10
62.1949072963
20
-82.2878436939
11
61.8920156247
21
-85.9926744482
62
254
0
LINE
8
Modules
10
62.1983024633
20
-82.2463155821
11
68.8248562168
21
-82.7880752674
62
254
0
LINE
8
Modules
10
68.8248562168
20
-82.7880752674
11
69.1277478884
21
-79.0832445130
62
254
0
LINE
8
Modules
10
69.1277478884
20
-79.0832445130
11
62.5011941349
21
-78.5414848278
62
254
0
LINE
8
Modules
10
62.5011941349
20
-78.5414848278
11
62.1983024633
21
-82.2463155821
62
254
0
LINE
8
Modules
10
62.5045893019
20
-78.4999567160
11
69.1311430554
21
-79.0417164013
62
254
0
LINE
8
Modules
10
69.1311430554
20
-79.0417164013
11
69.4340347270
21
-75.3368856469
62
254
0
LINE
8
Modules
10
69.4340347270
20
-75.3368856469
11
62.8074809735
21
-74.7951259617
62
254
0
LINE
8
Modules
10
62.8074809735
20
-74.7951259617
11
62.5045893019
21
-78.4999567160
62
254
0
LINE
8
Modules
10
62.8108761406
20
-74.7535978500
11
69.4374298940
21
-75.2953575352
62
254
0
LINE
8
Modules
10
69.4374298940
20
-75.2953575352
11
69.7403215657
21
-71.5905267808
62
254
0
LINE
8
Modules
10
69.7403215657
20
-71.5905267808
11
63.1137678122
21
-71.0487670956
62
254
0
LINE
8
Modules
10
63.1137678122
20
-71.0487670956
11
62.8108761406
21
-74.7535978500
62
254
0
LINE
8
Modules
10
63.1171629792
20
-71.0072389839
11
69.7437167327
21
-71.5489986691
62
254
0
LINE
8
Modules
10
69.7437167327
20
-71.5489986691
11
70.0466084043
21
-67.8441679148
62
254
0
LINE
8
Modules
10
70.0466084043
20
-67.8441679148
11
63.4200546508
21
-67.3024082295
62
254
0
LINE
8
Modules
10
63.4200546508
20
-67.3024082295
11
63.1171629792
21
-71.0072389839
62
254
0
LINE
8
Modules
10
63.4234498178
20
-67.2608801178
11
70.0500035713
21
-67.8026398030
62
254
0
LINE
8
Modules
10
70.0500035713
20
-67.8026398030
11
70.3528952429
21
-64.0978090487
62
254
0
LINE
8
Modules
10
70.3528952429
20
-64.0978090487
11
63.7263414894
21
-63.5560493634
62
254
0
LINE
8
Modules
10
63.7263414894
20
-63.5560493634
11
63.4234498178
21
-67.2608801178
62
254
0
LINE
8
Modules
10
63.7297366564
20
-63.5145212517
11
70.3562904099
21
-64.0562809369
62
254
0
LINE
8
Modules
10
70.3562904099
20
-64.0562809369
11
70.6591820815
21
-60.3514501826
62
254
0
LINE
8
Modules
10
70.6591820815
20
-60.3514501826
11
64.0326283281
21
-59.8096904973
62
254
0
LINE
8
Modules
10
64.0326283281
20
-59.8096904973
11
63.7297366564
21
-63.5145212517
62
254
0
LINE
8
Modules
10
64.0360234951
20
-59.7681623856
11
70.6625772486
21
-60.3099220709
62
254
0
LINE
8
Modules
10
70.6625772486
20
-60.3099220709
11
70.9654689202
21
-56.6050913165
62
254
0
LINE
8
Modules
10
70.9654689202
20
-56.6050913165
11
64.3389151667
21
-56.0633316312
62
254
0
LINE
8
Modules
10
64.3389151667
20
-56.0633316312
11
64.0360234951
21
-59.7681623856
62
254
0
LINE
8
Modules
10
64.3423103337
20
-56.0218035195
11
70.9688640872
21
-56.5635632048
62
254
0
LINE
8
Modules
10
70.9688640872
20
-56.5635632048
11
71.2717557588
21
-52.8587324504
62
254
0
LINE
8
Modules
10
71.2717557588
20
-52.8587324504
11
64.6452020053
21
-52.3169727651
62
254
0
LINE
8
Modules
10
64.6452020053
20
-52.3169727651
11
64.3423103337
21
-56.0218035195
62
254
0
LINE
8
Modules
10
64.6485971723
20
-52.2754446534
11
71.2751509258
21
-52.8172043387
62
254
0
LINE
8
Modules
10
71.2751509258
20
-52.8172043387
11
71.5780425974
21
-49.1123735843
62
254
0
LINE
8
Modules
10
71.5780425974
20
-49.1123735843
11
64.9514888439
21
-48.5706138991
62
254
0
LINE
8
Modules
10
64.9514888439
20
-48.5706138991
11
64.6485971723
21
-52.2754446534
62
254
0
LINE
8
Modules
10
64.9548840110
20
-48.5290857873
11
71.5814377644
21
-49.0708454726
62
254
0
LINE
8
Modules
10
71.5814377644
20
-49.0708454726
11
71.8843294360
21
-45.3660147182
62
254
0
LINE
8
Modules
10
71.8843294360
20
-45.3660147182
11
65.2577756826
21
-44.8242550330
62
254
0
LINE
8
Modules
10
65.2577756826
20
-44.8242550330
11
64.9548840110
21
-48.5290857873
62
254
0
LINE
8
Modules
10
65.2611708496
20
-44.7827269212
11
71.8877246031
21
-45.3244866065
62
254
0
LINE
8
Modules
10
71.8877246031
20
-45.3244866065
11
72.1906162747
21
-41.6196558521
62
254
0
LINE
8
Modules
10
72.1906162747
20
-41.6196558521
11
65.5640625212
21
-41.0778961669
62
254
0
LINE
8
Modules
10
65.5640625212
20
-41.0778961669
11
65.2611708496
21
-44.7827269212
62
254
0
LINE
8
Modules
10
65.5674576882
20
-41.0363680552
11
72.1940114417
21
-41.5781277404
62
254
0
LINE
8
Modules
10
72.1940114417
20
-41.5781277404
11
72.4969031133
21
-37.8732969860
62
254
0
LINE
8
Modules
10
72.4969031133
20
-37.8732969860
11
65.8703493598
21
-37.3315373008
62
254
0
LINE
8
Modules
10
65.8703493598
20
-37.3315373008
11
65.5674576882
21
-41.0363680552
62
254
0
LINE
8
Modules
10
65.8737445268
20
-37.2900091891
11
72.5002982803
21
-37.8317688743
62
254
0
LINE
8
Modules
10
72.5002982803
20
-37.8317688743
11
72.8031899519
21
-34.1269381200
62
254
0
LINE
8
Modules
10
72.8031899519
20
-34.1269381200
11
66.1766361984
21
-33.5851784347
62
254
0
LINE
8
Modules
10
66.1766361984
20
-33.5851784347
11
65.8737445268
21
-37.2900091891
62
254
0
LINE
8
Modules
10
66.1800313655
20
-33.5436503230
11
72.8065851189
21
-34.0854100082
62
254
0
LINE
8
Modules
10
72.8065851189
20
-34.0854100082
11
73.1094767906
21
-30.3805792539
62
254
0
LINE
8
Modules
10
73.1094767906
20
-30.3805792539
11
66.4829230371
21
-29.8388195686
62
254
0
LINE
8
Modules
10
66.4829230371
20
-29.8388195686
11
66.1800313655
21
-33.5436503230
62
254
0
LINE
8
Modules
10
66.4863182041
20
-29.7972914569
11
73.1128719576
21
-30.3390511422
62
254
0
LINE
8
Modules
10
73.1128719576
20
-30.3390511422
11
73.4157636292
21
-26.6342203878
62
254
0
LINE
8
Modules
10
73.4157636292
20
-26.6342203878
11
66.7892098757
21
-26.0924607025
62
254
0
LINE
8
Modules
10
66.7892098757
20
-26.0924607025
11
66.4863182041
21
-29.7972914569
62
254
0
LINE
8
Modules
10
66.7926050427
20
-26.0509325908
11
73.4191587962
21
-26.5926922761
62
254
0
LINE
8
Modules
10
73.4191587962
20
-26.5926922761
11
73.7220504678
21
-22.8878615217
62
254
0
LINE
8
Modules
10
73.7220504678
20
-22.8878615217
11
67.0954967143
21
-22.3461018364
62
254
0
LINE
8
Modules
10
67.0954967143
20
-22.3461018364
11
66.7926050427
21
-26.0509325908
62
254
0
LINE
8
Modules
10
67.0988918813
20
-22.3045737247
11
73.7254456348
21
-22.8463334100
62
254
0
LINE
8
Modules
10
73.7254456348
20
-22.8463334100
11
74.0283373064
21
-19.1415026556
62
254
0
LINE
8
Modules
10
74.0283373064
20
-19.1415026556
11
67.4017835530
21
-18.5997429703
62
254
0
LINE
8
Modules
10
67.4017835530
20
-18.5997429703
11
67.0988918813
21
-22.3045737247
62
254
0
LINE
8
Modules
10
67.4051787200
20
-18.5582148586
11
74.0317324735
21
-19.0999745439
62
254
0
LINE
8
Modules
10
74.0317324735
20
-19.0999745439
11
74.3346241451
21
-15.3951437895
62
254
0
LINE
8
Modules
10
74.3346241451
20
-15.3951437895
11
67.7080703916
21
-14.8533841043
62
254
0
LINE
8
Modules
10
67.7080703916
20
-14.8533841043
11
67.4051787200
21
-18.5582148586
62
254
0
LINE
8
Modules
10
67.7114655586
20
-14.8118559925
11
74.3380193121
21
-15.3536156778
62
254
0
LINE
8
Modules
10
74.3380193121
20
-15.3536156778
11
74.6409109837
21
-11.6487849234
62
254
0
LINE
8
Modules
10
74.6409109837
20
-11.6487849234
11
68.0143572302
21
-11.1070252382
62
254
0
LINE
8
Modules
10
68.0143572302
20
-11.1070252382
11
67.7114655586
21
-14.8118559925
62
254
0
LINE
8
Modules
10
68.0177523972
20
-11.0654971265
11
74.6443061507
21
-11.6072568117
62
254
0
LINE
8
Modules
10
74.6443061507
20
-11.6072568117
11
74.9471978223
21
-7.9024260573
62
254
0
LINE
8
Modules
10
74.9471978223
20
-7.9024260573
11
68.3206440688
21
-7.3606663721
62
254
0
LINE
8
Modules
10
68.3206440688
20
-7.3606663721
11
68.0177523972
21
-11.0654971265
62
254
0
LINE
8
Modules
10
66.4146745834
20
-112.7622256756
11
73.0412283369
21
-113.3039853609
62
254
0
LINE
8
Modules
10
73.0412283369
20
-113.3039853609
11
73.3441200085
21
-109.5991546065
62
254
0
LINE
8
Modules
10
73.3441200085
20
-109.5991546065
11
66.7175662550
21
-109.0573949212
62
254
0
LINE
8
Modules
10
66.7175662550
20
-109.0573949212
11
66.4146745834
21
-112.7622256756
62
254
0
LINE
8
Modules
10
66.7209614220
20
-109.0158668095
11
73.3475151755
21
-109.5576264948
62
254
0
LINE
8
Modules
10
73.3475151755
20
-109.5576264948
11
73.6504068471
21
-105.8527957404
62
254
0
LINE
8
Modules
10
73.6504068471
20
-105.8527957404
11
67.0238530936
21
-105.3110360552
62
254
0
LINE
8
Modules
10
67.0238530936
20
-105.3110360552
11
66.7209614220
21
-109.0158668095
62
254
0
LINE
8
Modules
10
67.0272482607
20
-105.2695079434
11
73.6538020141
21
-105.8112676287
62
254
0
LINE
8
Modules
10
73.6538020141
20
-105.8112676287
11
73.9566936857
21
-102.1064368743
62
254
0
LINE
8
Modules
10
73.9566936857
20
-102.1064368743
11
67.3301399323
21
-101.5646771891
62
254
0
LINE
8
Modules
10
67.3301399323
20
-101.5646771891
11
67.0272482607
21
-105.2695079434
62
254
0
LINE
8
Modules
10
67.3335350993
20
-101.5231490773
11
73.9600888528
21
-102.0649087626
62
254
0
LINE
8
Modules
10
73.9600888528
20
-102.0649087626
11
74.2629805244
21
-98.3600780082
62
254
0
LINE
8
Modules
10
74.2629805244
20
-98.3600780082
11
67.6364267709
21
-97.8183183230
62
254
0
LINE
8
Modules
10
67.6364267709
20
-97.8183183230
11
67.3335350993
21
-101.5231490773
62
254
0
LINE
8
Modules
10
67.6398219379
20
-97.7767902113
11
74.2663756914
21
-98.3185498965
62
254
0
LINE
8
Modules
10
74.2663756914
20
-98.3185498965
11
74.5692673630
21
-94.6137191421
62
254
0
LINE
8
Modules
10
74.5692673630
20
-94.6137191421
11
67.9427136095
21
-94.0719594569
62
254
0
LINE
8
Modules
10
67.9427136095
20
-94.0719594569
11
67.6398219379
21
-97.7767902113
62
254
0
LINE
8
Modules
10
67.9461087765
20
-94.0304313452
11
74.5726625300
21
-94.5721910304
62
254
0
LINE
8
Modules
10
74.5726625300
20
-94.5721910304
11
74.8755542016
21
-90.8673602761
62
254
0
LINE
8
Modules
10
74.8755542016
20
-90.8673602761
11
68.2490004481
21
-90.3256005908
62
254
0
LINE
8
Modules
10
68.2490004481
20
-90.3256005908
11
67.9461087765
21
-94.0304313452
62
254
0
LINE
8
Modules
10
68.2523956152
20
-90.2840724791
11
74.8789493686
21
-90.8258321643
62
254
0
LINE
8
Modules
10
74.8789493686
20
-90.8258321643
11
75.1818410403
21
-87.1210014100
62
254
0
LINE
8
Modules
10
75.1818410403
20
-87.1210014100
11
68.5552872868
21
-86.5792417247
62
254
0
LINE
8
Modules
10
68.5552872868
20
-86.5792417247
11
68.2523956152
21
-90.2840724791
62
254
0
LINE
8
Modules
10
68.5586824538
20
-86.5377136130
11
75.1852362073
21
-87.0794732982
62
254
0
LINE
8
Modules
10
75.1852362073
20
-87.0794732982
11
75.4881278789
21
-83.3746425439
62
254
0
LINE
8
Modules
10
75.4881278789
20
-83.3746425439
11
68.8615741254
21
-82.8328828586
62
254
0
LINE
8
Modules
10
68.8615741254
20
-82.8328828586
11
68.5586824538
21
-86.5377136130
62
254
0
LINE
8
Modules
10
68.8649692924
20
-82.7913547469
11
75.4915230459
21
-83.3331144322
62
254
0
LINE
8
Modules
10
75.4915230459
20
-83.3331144322
11
75.7944147175
21
-79.6282836778
62
254
0
LINE
8
Modules
10
75.7944147175
20
-79.6282836778
11
69.1678609640
21
-79.0865239925
62
254
0
LINE
8
Modules
10
69.1678609640
20
-79.0865239925
11
68.8649692924
21
-82.7913547469
62
254
0
LINE
8
Modules
10
69.1712561310
20
-79.0449958808
11
75.7978098845
21
-79.5867555661
62
254
0
LINE
8
Modules
10
75.7978098845
20
-79.5867555661
11
76.1007015561
21
-75.8819248117
62
254
0
LINE
8
Modules
10
76.1007015561
20
-75.8819248117
11
69.4741478027
21
-75.3401651264
62
254
0
LINE
8
Modules
10
69.4741478027
20
-75.3401651264
11
69.1712561310
21
-79.0449958808
62
254
0
LINE
8
Modules
10
69.4775429697
20
-75.2986370147
11
76.1040967232
21
-75.8403967000
62
254
0
LINE
8
Modules
10
76.1040967232
20
-75.8403967000
11
76.4069883948
21
-72.1355659456
62
254
0
LINE
8
Modules
10
76.4069883948
20
-72.1355659456
11
69.7804346413
21
-71.5938062604
62
254
0
LINE
8
Modules
10
69.7804346413
20
-71.5938062604
11
69.4775429697
21
-75.2986370147
62
254
0
LINE
8
Modules
10
69.7838298083
20
-71.5522781486
11
76.4103835618
21
-72.0940378339
62
254
0
LINE
8
Modules
10
76.4103835618
20
-72.0940378339
11
76.7132752334
21
-68.3892070795
62
254
0
LINE
8
Modules
10
76.7132752334
20
-68.3892070795
11
70.0867214799
21
-67.8474473943
62
254
0
LINE
8
Modules
10
70.0867214799
20
-67.8474473943
11
69.7838298083
21
-71.5522781486
62
254
0
LINE
8
Modules
10
70.0901166469
20
-67.8059192825
11
76.7166704004
21
-68.3476789678
62
254
0
LINE
8
Modules
10
76.7166704004
20
-68.3476789678
11
77.0195620720
21
-64.6428482134
62
254
0
LINE
8
Modules
10
77.0195620720
20
-64.6428482134
11
70.3930083185
21
-64.1010885282
62
254
0
LINE
8
Modules
10
70.3930083185
20
-64.1010885282
11
70.0901166469
21
-67.8059192825
62
254
0
LINE
8
Modules
10
70.3964034856
20
-64.0595604165
11
77.0229572390
21
-64.6013201017
62
254
0
LINE
8
Modules
10
77.0229572390
20
-64.6013201017
11
77.3258489107
21
-60.8964893473
62
254
0
LINE
8
Modules
10
77.3258489107
20
-60.8964893473
11
70.6992951572
21
-60.3547296621
62
254
0
LINE
8
Modules
10
70.6992951572
20
-60.3547296621
11
70.3964034856
21
-64.0595604165
62
254
0
LINE
8
Modules
10
70.7026903242
20
-60.3132015504
11
77.3292440777
21
-60.8549612356
62
254
0
LINE
8
Modules
10
77.3292440777
20
-60.8549612356
11
77.6321357493
21
-57.1501304813
62
254
0
LINE
8
Modules
10
77.6321357493
20
-57.1501304813
11
71.0055819958
21
-56.6083707960
62
254
0
LINE
8
Modules
10
71.0055819958
20
-56.6083707960
11
70.7026903242
21
-60.3132015504
62
254
0
LINE
8
Modules
10
71.0089771628
20
-56.5668426843
11
77.6355309163
21
-57.1086023695
62
254
0
LINE
8
Modules
10
77.6355309163
20
-57.1086023695
11
77.9384225879
21
-53.4037716152
62
254
0
LINE
8
Modules
10
77.9384225879
20
-53.4037716152
11
71.3118688344
21
-52.8620119299
62
254
0
LINE
8
Modules
10
71.3118688344
20
-52.8620119299
11
71.0089771628
21
-56.5668426843
62
254
0
LINE
8
Modules
10
71.3152640014
20
-52.8204838182
11
77.9418177549
21
-53.3622435034
62
254
0
LINE
8
Modules
10
77.9418177549
20
-53.3622435034
11
78.2447094265
21
-49.6574127491
62
254
0
LINE
8
Modules
10
78.2447094265
20
-49.6574127491
11
71.6181556730
21
-49.1156530638
62
254
0
LINE
8
Modules
10
71.6181556730
20
-49.1156530638
11
71.3152640014
21
-52.8204838182
62
254
0
LINE
8
Modules
10
71.6215508401
20
-49.0741249521
11
78.2481045935
21
-49.6158846374
62
254
0
LINE
8
Modules
10
78.2481045935
20
-49.6158846374
11
78.5509962652
21
-45.9110538830
62
254
0
LINE
8
Modules
10
78.5509962652
20
-45.9110538830
11
71.9244425117
21
-45.3692941977
62
254
0
LINE
8
Modules
10
71.9244425117
20
-45.3692941977
11
71.6215508401
21
-49.0741249521
62
254
0
LINE
8
Modules
10
71.9278376787
20
-45.3277660860
11
78.5543914322
21
-45.8695257713
62
254
0
LINE
8
Modules
10
78.5543914322
20
-45.8695257713
11
78.8572831038
21
-42.1646950169
62
254
0
LINE
8
Modules
10
78.8572831038
20
-42.1646950169
11
72.2307293503
21
-41.6229353316
62
254
0
LINE
8
Modules
10
72.2307293503
20
-41.6229353316
11
71.9278376787
21
-45.3277660860
62
254
0
LINE
8
Modules
10
72.2341245173
20
-41.5814072199
11
78.8606782708
21
-42.1231669052
62
254
0
LINE
8
Modules
10
78.8606782708
20
-42.1231669052
11
79.1635699424
21
-38.4183361508
62
254
0
LINE
8
Modules
10
79.1635699424
20
-38.4183361508
11
72.5370161889
21
-37.8765764656
62
254
0
LINE
8
Modules
10
72.5370161889
20
-37.8765764656
11
72.2341245173
21
-41.5814072199
62
254
0
LINE
8
Modules
10
72.5404113559
20
-37.8350483538
11
79.1669651094
21
-38.3768080391
62
254
0
LINE
8
Modules
10
79.1669651094
20
-38.3768080391
11
79.4698567810
21
-34.6719772847
62
254
0
LINE
8
Modules
10
79.4698567810
20
-34.6719772847
11
72.8433030276
21
-34.1302175995
62
254
0
LINE
8
Modules
10
72.8433030276
20
-34.1302175995
11
72.5404113559
21
-37.8350483538
62
254
0
LINE
8
Modules
10
72.8466981946
20
-34.0886894877
11
79.4732519481
21
-34.6304491730
62
254
0
LINE
8
Modules
10
79.4732519481
20
-34.6304491730
11
79.7761436197
21
-30.9256184186
62
254
0
LINE
8
Modules
10
79.7761436197
20
-30.9256184186
11
73.1495898662
21
-30.3838587334
62
254
0
LINE
8
Modules
10
73.1495898662
20
-30.3838587334
11
72.8466981946
21
-34.0886894877
62
254
0
LINE
8
Modules
10
73.1529850332
20
-30.3423306217
11
79.7795387867
21
-30.8840903069
62
254
0
LINE
8
Modules
10
79.7795387867
20
-30.8840903069
11
80.0824304583
21
-27.1792595525
62
254
0
LINE
8
Modules
10
80.0824304583
20
-27.1792595525
11
73.4558767048
21
-26.6374998673
62
254
0
LINE
8
Modules
10
73.4558767048
20
-26.6374998673
11
73.1529850332
21
-30.3423306217
62
254
0
LINE
8
Modules
10
73.4592718718
20
-26.5959717556
11
80.0858256253
21
-27.1377314408
62
254
0
LINE
8
Modules
10
80.0858256253
20
-27.1377314408
11
80.3887172969
21
-23.4329006865
62
254
0
LINE
8
Modules
10
80.3887172969
20
-23.4329006865
11
73.7621635434
21
-22.8911410012
62
254
0
LINE
8
Modules
10
73.7621635434
20
-22.8911410012
11
73.4592718718
21
-26.5959717556
62
254
0
LINE
8
Modules
10
73.7655587105
20
-22.8496128895
11
80.3921124639
21
-23.3913725747
62
254
0
LINE
8
Modules
10
80.3921124639
20
-23.3913725747
11
80.6950041356
21
-19.6865418204
62
254
0
LINE
8
Modules
10
80.6950041356
20
-19.6865418204
11
74.0684503821
21
-19.1447821351
62
254
0
LINE
8
Modules
10
74.0684503821
20
-19.1447821351
11
73.7655587105
21
-22.8496128895
62
254
0
LINE
8
Modules
10
74.0718455491
20
-19.1032540234
11
80.6983993026
21
-19.6450137086
62
254
0
LINE
8
Modules
10
80.6983993026
20
-19.6450137086
11
81.0012909742
21
-15.9401829543
62
254
0
LINE
8
Modules
10
81.0012909742
20
-15.9401829543
11
74.3747372207
21
-15.3984232690
62
254
0
LINE
8
Modules
10
74.3747372207
20
-15.3984232690
11
74.0718455491
21
-19.1032540234
62
254
0
LINE
8
Modules
10
74.3781323877
20
-15.3568951573
11
81.0046861412
21
-15.8986548426
62
254
0
LINE
8
Modules
10
81.0046861412
20
-15.8986548426
11
81.3075778128
21
-12.1938240882
62
254
0
LINE
8
Modules
10
81.3075778128
20
-12.1938240882
11
74.6810240593
21
-11.6520644029
62
254
0
LINE
8
Modules
10
74.6810240593
20
-11.6520644029
11
74.3781323877
21
-15.3568951573
62
254
0
LINE
8
Modules
10
74.6844192263
20
-11.6105362912
11
81.3109729798
21
-12.1522959765
62
254
0
LINE
8
Modules
10
81.3109729798
20
-12.1522959765
11
81.6138646514
21
-8.4474652221
62
254
0
LINE
8
Modules
10
81.6138646514
20
-8.4474652221
11
74.9873108979
21
-7.9057055368
62
254
0
LINE
8
Modules
10
74.9873108979
20
-7.9057055368
11
74.6844192263
21
-11.6105362912
62
254
0
LINE
8
Modules
10
73.0813414125
20
-113.3072648404
11
79.7078951660
21
-113.8490245256
62
254
0
LINE
8
Modules
10
79.7078951660
20
-113.8490245256
11
80.0107868376
21
-110.1441937713
62
254
0
LINE
8
Modules
10
80.0107868376
20
-110.1441937713
11
73.3842330841
21
-109.6024340860
62
254
0
LINE
8
Modules
10
73.3842330841
20
-109.6024340860
11
73.0813414125
21
-113.3072648404
62
254
0
LINE
8
Modules
10
73.3876282511
20
-109.5609059743
11
80.0141820046
21
-110.1026656595
62
254
0
LINE
8
Modules
10
80.0141820046
20
-110.1026656595
11
80.3170736762
21
-106.3978349052
62
254
0
LINE
8
Modules
10
80.3170736762
20
-106.3978349052
11
73.6905199228
21
-105.8560752199
62
254
0
LINE
8
Modules
10
73.6905199228
20
-105.8560752199
11
73.3876282511
21
-109.5609059743
62
254
0
LINE
8
Modules
10
73.6939150898
20
-105.8145471082
11
80.3204688433
21
-106.3563067934
62
254
0
LINE
8
Modules
10
80.3204688433
20
-106.3563067934
11
80.6233605149
21
-102.6514760391
62
254
0
LINE
8
Modules
10
80.6233605149
20
-102.6514760391
11
73.9968067614
21
-102.1097163538
62
254
0
LINE
8
Modules
10
73.9968067614
20
-102.1097163538
11
73.6939150898
21
-105.8145471082
62
254
0
LINE
8
Modules
10
74.0002019284
20
-102.0681882421
11
80.6267556819
21
-102.6099479274
62
254
0
LINE
8
Modules
10
80.6267556819
20
-102.6099479274
11
80.9296473535
21
-98.9051171730
62
254
0
LINE
8
Modules
10
80.9296473535
20
-98.9051171730
11
74.3030936000
21
-98.3633574877
62
254
0
LINE
8
Modules
10
74.3030936000
20
-98.3633574877
11
74.0002019284
21
-102.0681882421
62
254
0
LINE
8
Modules
10
74.3064887670
20
-98.3218293760
11
80.9330425205
21
-98.8635890613
62
254
0
LINE
8
Modules
10
80.9330425205
20
-98.8635890613
11
81.2359341921
21
-95.1587583069
62
254
0
LINE
8
Modules
10
81.2359341921
20
-95.1587583069
11
74.6093804386
21
-94.6169986216
62
254
0
LINE
8
Modules
10
74.6093804386
20
-94.6169986216
11
74.3064887670
21
-98.3218293760
62
254
0
LINE
8
Modules
10
74.6127756056
20
-94.5754705099
11
81.2393293591
21
-95.1172301952
62
254
0
LINE
8
Modules
10
81.2393293591
20
-95.1172301952
11
81.5422210307
21
-91.4123994408
62
254
0
LINE
8
Modules
10
81.5422210307
20
-91.4123994408
11
74.9156672773
21
-90.8706397556
62
254
0
LINE
8
Modules
10
74.9156672773
20
-90.8706397556
11
74.6127756056
21
-94.5754705099
62
254
0
LINE
8
Modules
10
74.9190624443
20
-90.8291116438
11
81.5456161978
21
-91.3708713291
62
254
0
LINE
8
Modules
10
81.5456161978
20
-91.3708713291
11
81.8485078694
21
-87.6660405747
62
254
0
LINE
8
Modules
10
81.8485078694
20
-87.6660405747
11
75.2219541159
21
-87.1242808895
62
254
0
LINE
8
Modules
10
75.2219541159
20
-87.1242808895
11
74.9190624443
21
-90.8291116438
62
254
0
LINE
8
Modules
10
75.2253492829
20
-87.0827527777
11
81.8519030364
21
-87.6245124630
62
254
0
LINE
8
Modules
10
81.8519030364
20
-87.6245124630
11
82.1547947080
21
-83.9196817086
62
254
0
LINE
8
Modules
10
82.1547947080
20
-83.9196817086
11
75.5282409545
21
-83.3779220234
62
254
0
LINE
8
Modules
10
75.5282409545
20
-83.3779220234
11
75.2253492829
21
-87.0827527777
62
254
0
LINE
8
Modules
10
75.5316361215
20
-83.3363939117
11
82.1581898750
21
-83.8781535969
62
254
0
LINE
8
Modules
10
82.1581898750
20
-83.8781535969
11
82.4610815466
21
-80.1733228425
62
254
0
LINE
8
Modules
10
82.4610815466
20
-80.1733228425
11
75.8345277931
21
-79.6315631573
62
254
0
LINE
8
Modules
10
75.8345277931
20
-79.6315631573
11
75.5316361215
21
-83.3363939117
62
254
0
LINE
8
Modules
10
75.8379229602
20
-79.5900350456
11
82.4644767136
21
-80.1317947308
62
254
0
LINE
8
Modules
10
82.4644767136
20
-80.1317947308
11
82.7673683853
21
-76.4269639765
62
254
0
LINE
8
Modules
10
82.7673683853
20
-76.4269639765
11
76.1408146318
21
-75.8852042912
62
254
0
LINE
8
Modules
10
76.1408146318
20
-75.8852042912
11
75.8379229602
21
-79.5900350456
62
254
0
LINE
8
Modules
10
76.1442097988
20
-75.8436761795
11
82.7707635523
21
-76.3854358647
62
254
0
LINE
8
Modules
10
82.7707635523
20
-76.3854358647
11
83.0736552239
21
-72.6806051104
62
254
0
LINE
8
Modules
10
83.0736552239
20
-72.6806051104
11
76.4471014704
21
-72.1388454251
62
254
0
LINE
8
Modules
10
76.4471014704
20
-72.1388454251
11
76.1442097988
21
-75.8436761795
62
254
0
LINE
8
Modules
10
76.4504966374
20
-72.0973173134
11
83.0770503909
21
-72.6390769987
62
254
0
LINE
8
Modules
10
83.0770503909
20
-72.6390769987
11
83.3799420625
21
-68.9342462443
62
254
0
LINE
8
Modules
10
83.3799420625
20
-68.9342462443
11
76.7533883090
21
-68.3924865590
62
254
0
LINE
8
Modules
10
76.7533883090
20
-68.3924865590
11
76.4504966374
21
-72.0973173134
62
254
0
LINE
8
Modules
10
76.7567834760
20
-68.3509584473
11
83.3833372295
21
-68.8927181326
62
254
0
LINE
8
Modules
10
83.3833372295
20
-68.8927181326
11
83.6862289011
21
-65.1878873782
62
254
0
LINE
8
Modules
10
83.6862289011
20
-65.1878873782
11
77.0596751477
21
-64.6461276929
62
254
0
LINE
8
Modules
10
77.0596751477
20
-64.6461276929
11
76.7567834760
21
-68.3509584473
62
254
0
LINE
8
Modules
10
77.0630703147
20
-64.6045995812
11
83.6896240682
21
-65.1463592665
62
254
0
LINE
8
Modules
10
83.6896240682
20
-65.1463592665
11
83.9925157398
21
-61.4415285121
62
254
0
LINE
8
Modules
10
83.9925157398
20
-61.4415285121
11
77.3659619863
21
-60.8997688268
62
254
0
LINE
8
Modules
10
77.3659619863
20
-60.8997688268
11
77.0630703147
21
-64.6045995812
62
254
0
LINE
8
Modules
10
77.3693571533
20
-60.8582407151
11
83.9959109068
21
-61.4000004004
62
254
0
LINE
8
Modules
10
83.9959109068
20
-61.4000004004
11
84.2988025784
21
-57.6951696460
62
254
0
LINE
8
Modules
10
84.2988025784
20
-57.6951696460
11
77.6722488249
21
-57.1534099608
62
254
0
LINE
8
Modules
10
77.6722488249
20
-57.1534099608
11
77.3693571533
21
-60.8582407151
62
254
0
LINE
8
Modules
10
77.6756439919
20
-57.1118818490
11
84.3021977454
21
-57.6536415343
62
254
0
LINE
8
Modules
10
84.3021977454
20
-57.6536415343
11
84.6050894170
21
-53.9488107799
62
254
0
LINE
8
Modules
10
84.6050894170
20
-53.9488107799
11
77.9785356635
21
-53.4070510947
62
254
0
LINE
8
Modules
10
77.9785356635
20
-53.4070510947
11
77.6756439919
21
-57.1118818490
62
254
0
LINE
8
Modules
10
77.9819308306
20
-53.3655229830
11
84.6084845840
21
-53.9072826682
62
254
0
LINE
8
Modules
10
84.6084845840
20
-53.9072826682
11
84.9113762556
21
-50.2024519138
62
254
0
LINE
8
Modules
10
84.9113762556
20
-50.2024519138
11
78.2848225022
21
-49.6606922286
62
254
0
LINE
8
Modules
10
78.2848225022
20
-49.6606922286
11
77.9819308306
21
-53.3655229830
62
254
0
LINE
8
Modules
10
78.2882176692
20
-49.6191641169
11
84.9147714227
21
-50.1609238021
62
254
0
LINE
8
Modules
10
84.9147714227
20
-50.1609238021
11
85.2176630943
21
-46.4560930478
62
254
0
LINE
8
Modules
10
85.2176630943
20
-46.4560930478
11
78.5911093408
21
-45.9143333625
62
254
0
LINE
8
Modules
10
78.5911093408
20
-45.9143333625
11
78.2882176692
21
-49.6191641169
62
254
0
LINE
8
Modules
10
78.5945045078
20
-45.8728052508
11
85.2210582613
21
-46.4145649360
62
254
0
LINE
8
Modules
10
85.2210582613
20
-46.4145649360
11
85.5239499329
21
-42.7097341817
62
254
0
LINE
8
Modules
10
85.5239499329
20
-42.7097341817
11
78.8973961794
21
-42.1679744964
62
254
0
LINE
8
Modules
10
78.8973961794
20
-42.1679744964
11
78.5945045078
21
-45.8728052508
62
254
0
LINE
8
Modules
10
78.9007913464
20
-42.1264463847
11
85.5273450999
21
-42.6682060699
62
254
0
LINE
8
Modules
10
85.5273450999
20
-42.6682060699
11
85.8302367715
21
-38.9633753156
62
254
0
LINE
8
Modules
10
85.8302367715
20
-38.9633753156
11
79.2036830180
21
-38.4216156303
62
254
0
LINE
8
Modules
10
79.2036830180
20
-38.4216156303
11
78.9007913464
21
-42.1264463847
62
254
0
LINE
8
Modules
10
79.2070781851
20
-38.3800875186
11
85.8336319385
21
-38.9218472039
62
254
0
LINE
8
Modules
10
85.8336319385
20
-38.9218472039
11
86.1365236102
21
-35.2170164495
62
254
0
LINE
8
Modules
10
86.1365236102
20
-35.2170164495
11
79.5099698567
21
-34.6752567642
62
254
0
LINE
8
Modules
10
79.5099698567
20
-34.6752567642
11
79.2070781851
21
-38.3800875186
62
254
0
LINE
8
Modules
10
79.5133650237
20
-34.6337286525
11
86.1399187772
21
-35.1754883378
62
254
0
LINE
8
Modules
10
86.1399187772
20
-35.1754883378
11
86.4428104488
21
-31.4706575834
62
254
0
LINE
8
Modules
10
86.4428104488
20
-31.4706575834
11
79.8162566953
21
-30.9288978981
62
254
0
LINE
8
Modules
10
79.8162566953
20
-30.9288978981
11
79.5133650237
21
-34.6337286525
62
254
0
LINE
8
Modules
10
79.8196518623
20
-30.8873697864
11
86.4462056158
21
-31.4291294717
62
254
0
LINE
8
Modules
10
86.4462056158
20
-31.4291294717
11
86.7490972874
21
-27.7242987173
62
254
0
LINE
8
Modules
10
86.7490972874
20
-27.7242987173
11
80.1225435339
21
-27.1825390321
62
254
0
LINE
8
Modules
10
80.1225435339
20
-27.1825390321
11
79.8196518623
21
-30.8873697864
62
254
0
LINE
8
Modules
10
80.1259387009
20
-27.1410109203
11
86.7524924544
21
-27.6827706056
62
254
0
LINE
8
Modules
10
86.7524924544
20
-27.6827706056
11
87.0553841260
21
-23.9779398512
62
254
0
LINE
8
Modules
10
87.0553841260
20
-23.9779398512
11
80.4288303726
21
-23.4361801660
62
254
0
LINE
8
Modules
10
80.4288303726
20
-23.4361801660
11
80.1259387009
21
-27.1410109203
62
254
0
LINE
8
Modules
10
80.4322255396
20
-23.3946520542
11
87.0587792931
21
-23.9364117395
62
254
0
LINE
8
Modules
10
87.0587792931
20
-23.9364117395
11
87.3616709647
21
-20.2315809851
62
254
0
LINE
8
Modules
10
87.3616709647
20
-20.2315809851
11
80.7351172112
21
-19.6898212999
62
254
0
LINE
8
Modules
10
80.7351172112
20
-19.6898212999
11
80.4322255396
21
-23.3946520542
62
254
0
LINE
8
Modules
10
80.7385123782
20
-19.6482931882
11
87.3650661317
21
-20.1900528734
62
254
0
LINE
8
Modules
10
87.3650661317
20
-20.1900528734
11
87.6679578033
21
-16.4852221190
62
254
0
LINE
8
Modules
10
87.6679578033
20
-16.4852221190
11
81.0414040498
21
-15.9434624338
62
254
0
LINE
8
Modules
10
81.0414040498
20
-15.9434624338
11
80.7385123782
21
-19.6482931882
62
254
0
LINE
8
Modules
10
81.0447992168
20
-15.9019343221
11
87.6713529703
21
-16.4436940073
62
254
0
LINE
8
Modules
10
87.6713529703
20
-16.4436940073
11
87.9742446419
21
-12.7388632530
62
254
0
LINE
8
Modules
10
87.9742446419
20
-12.7388632530
11
81.3476908884
21
-12.1971035677
62
254
0
LINE
8
Modules
10
81.3476908884
20
-12.1971035677
11
81.0447992168
21
-15.9019343221
62
254
0
LINE
8
Modules
10
81.3510860555
20
-12.1555754560
11
87.9776398089
21
-12.6973351412
62
254
0
LINE
8
Modules
10
87.9776398089
20
-12.6973351412
11
88.2805314805
21
-8.9925043869
62
254
0
LINE
8
Modules
10
88.2805314805
20
-8.9925043869
11
81.6539777271
21
-8.4507447016
62
254
0
LINE
8
Modules
10
81.6539777271
20
-8.4507447016
11
81.3510860555
21
-12.1555754560
62
254
0
LINE
8
Buildings
10
7.2512351327
20
-54.0731957309
11
17.1749057943
21
46.3484834120
62
252
0
LINE
8
Buildings
10
17.1749057943
20
46.3484834120
11
-13.8192408709
21
48.5961408812
62
252
0
LINE
8
Buildings
10
-13.8192408709
20
48.5961408812
11
-22.3626863677
21
-51.1467479112
62
252
0
LINE
8
Buildings
10
-22.3626863677
20
-51.1467479112
11
7.2512351327
21
-54.0731957309
62
252
0
LINE
8
Buildings
10
-51.9867036898
20
-48.2193024224
11
-22.3626863677
21
-51.1467479112
62
252
0
LINE
8
Buildings
10
-22.3626863677
20
-51.1467479112
11
-13.8192408709
21
48.5961408812
62
252
0
LINE
8
Buildings
10
-13.8192408709
20
48.5961408812
11
-44.8028247764
21
50.8430323519
62
252
0
LINE
8
Buildings
10
-44.8028247764
20
50.8430323519
11
-51.9867036898
21
-48.2193024224
62
252
0
LINE
8
Setbacks
10
16.8467270410
20
43.3611260383
11
-12.5842920157
21
45.4954274021
62
2
0
LINE
8
Setbacks
10
-12.5842920157
20
45.4954274021
11
-20.6184127758
21
-48.3012076243
62
2
0
LINE
8
Setbacks
10
-20.6184127758
20
-48.3012076243
11
7.5139314935
21
-51.0812458619
62
2
0
LINE
8
Setbacks
10
-51.7372566583
20
-45.2331458136
11
-51.6927280357
21
-45.2304960858
62
2
0
LINE
8
Setbacks
10
-51.6927280357
20
-45.2304960858
11
-51.6922105091
21
-45.2305061955
62
2
0
LINE
8
Setbacks
10
-51.6922105091
20
-45.2305061955
11
-23.5943038656
21
-48.0071413460
62
2
0
LINE
8
Setbacks
10
-23.5943038656
20
-48.0071413460
11
-15.5668456927
21
45.7117071662
62
2
0
LINE
8
Setbacks
10
-15.5668456927
20
45.7117071662
11
-44.9873260161
21
47.8452444167
62
2
0
LINE
8
Inverters
10
93.2316924733
20
-62.4779501813
11
95.6923224733
21
-62.4779501813
0
LINE
8
Inverters
10
95.6923224733
20
-62.4779501813
11
95.6923224733
21
-60.0173201813
0
LINE
8
Inverters
10
95.6923224733
20
-60.0173201813
11
93.2316924733
21
-60.0173201813
0
LINE
8
Inverters
10
93.2316924733
20
-60.0173201813
11
93.2316924733
21
-62.4779501813
0
LINE
8
Inverters
10
93.2316924733
20
-62.4779501813
11
95.6923224733
21
-60.0173201813
0
TEXT
8
Inverters
100
AcDbText
10
93.3957344733
20
-60.9359553813
1
DC
7
NewTextStyle_4
40
0.7545932000000003
50
0
0
TEXT
8
Inverters
100
AcDbText
10
94.2323486733
20
-62.3139081813
1
AC
7
NewTextStyle_4
40
0.7545932000000003
50
0
0
LINE
8
Inverters
10
28.5856523613
20
-53.7382011641
11
31.0462823613
21
-53.7382011641
0
LINE
8
Inverters
10
31.0462823613
20
-53.7382011641
11
31.0462823613
21
-51.2775711641
0
LINE
8
Inverters
10
31.0462823613
20
-51.2775711641
11
28.5856523613
21
-51.2775711641
0
LINE
8
Inverters
10
28.5856523613
20
-51.2775711641
11
28.5856523613
21
-53.7382011641
0
LINE
8
Inverters
10
28.5856523613
20
-53.7382011641
11
31.0462823613
21
-51.2775711641
0
TEXT
8
Inverters
100
AcDbText
10
28.7496943613
20
-52.1962063641
1
DC
7
NewTextStyle_4
40
0.7545932000000003
50
0
0
TEXT
8
Inverters
100
AcDbText
10
29.5863085613
20
-53.5741591641
1
AC
7
NewTextStyle_4
40
0.7545932000000003
50
0
0
LINE
8
Strings
10
84.8158087680
20
-10.5740399214
11
84.5095219294
21
-14.3203987875
62
11
0
LINE
8
Strings
10
84.5095219294
20
-14.3203987875
11
84.2032350907
21
-18.0667576536
62
11
0
LINE
8
Strings
10
84.2032350907
20
-18.0667576536
11
83.8969482521
21
-21.8131165197
62
11
0
LINE
8
Strings
10
83.8969482521
20
-21.8131165197
11
83.5906614135
21
-25.5594753858
62
11
0
LINE
8
Strings
10
83.5906614135
20
-25.5594753858
11
83.2843745749
21
-29.3058342519
62
11
0
LINE
8
Strings
10
83.2843745749
20
-29.3058342519
11
82.9780877362
21
-33.0521931180
62
11
0
LINE
8
Strings
10
78.1491419389
20
-10.0290007567
11
77.8428551003
21
-13.7753596227
62
11
0
LINE
8
Strings
10
77.8428551003
20
-13.7753596227
11
77.5365682616
21
-17.5217184888
62
11
0
LINE
8
Strings
10
77.5365682616
20
-17.5217184888
11
77.2302814230
21
-21.2680773549
62
11
0
LINE
8
Strings
10
77.2302814230
20
-21.2680773549
11
76.9239945844
21
-25.0144362210
62
11
0
LINE
8
Strings
10
76.9239945844
20
-25.0144362210
11
76.6177077457
21
-28.7607950871
62
11
0
LINE
8
Strings
10
76.6177077457
20
-28.7607950871
11
76.3114209071
21
-32.5071539532
62
11
0
LINE
8
Strings
10
71.4824751098
20
-9.4839615919
11
71.1761882711
21
-13.2303204580
62
11
0
LINE
8
Strings
10
71.1761882711
20
-13.2303204580
11
70.8699014325
21
-16.9766793241
62
11
0
LINE
8
Strings
10
70.8699014325
20
-16.9766793241
11
70.5636145939
21
-20.7230381902
62
11
0
LINE
8
Strings
10
70.5636145939
20
-20.7230381902
11
70.2573277553
21
-24.4693970562
62
11
0
LINE
8
Strings
10
70.2573277553
20
-24.4693970562
11
69.9510409166
21
-28.2157559223
62
11
0
LINE
8
Strings
10
69.9510409166
20
-28.2157559223
11
69.6447540780
21
-31.9621147884
62
11
0
LINE
8
Strings
10
69.3384672394
20
-35.7084736545
11
69.0321804008
21
-39.4548325206
62
11
0
LINE
8
Strings
10
69.0321804008
20
-39.4548325206
11
68.7258935621
21
-43.2011913867
62
11
0
LINE
8
Strings
10
68.7258935621
20
-43.2011913867
11
68.4196067235
21
-46.9475502528
62
11
0
LINE
8
Strings
10
68.4196067235
20
-46.9475502528
11
68.1133198849
21
-50.6939091189
62
11
0
LINE
8
Strings
10
68.1133198849
20
-50.6939091189
11
67.8070330462
21
-54.4402679850
62
11
0
LINE
8
Strings
10
67.8070330462
20
-54.4402679850
11
67.5007462076
21
-58.1866268510
62
11
0
LINE
8
Strings
10
76.0051340685
20
-36.2535128193
11
75.6988472299
21
-39.9998716854
62
11
0
LINE
8
Strings
10
75.6988472299
20
-39.9998716854
11
75.3925603912
21
-43.7462305515
62
11
0
LINE
8
Strings
10
75.3925603912
20
-43.7462305515
11
75.0862735526
21
-47.4925894175
62
11
0
LINE
8
Strings
10
75.0862735526
20
-47.4925894175
11
74.7799867140
21
-51.2389482836
62
11
0
LINE
8
Strings
10
74.7799867140
20
-51.2389482836
11
74.4736998754
21
-54.9853071497
62
11
0
LINE
8
Strings
10
74.4736998754
20
-54.9853071497
11
74.1674130367
21
-58.7316660158
62
11
0
LINE
8
Strings
10
82.6718008976
20
-36.7985519840
11
82.3655140590
21
-40.5449108501
62
11
0
LINE
8
Strings
10
82.3655140590
20
-40.5449108501
11
82.0592272204
21
-44.2912697162
62
11
0
LINE
8
Strings
10
82.0592272204
20
-44.2912697162
11
81.7529403817
21
-48.0376285823
62
11
0
LINE
8
Strings
10
81.7529403817
20
-48.0376285823
11
81.4466535431
21
-51.7839874484
62
11
0
LINE
8
Strings
10
81.4466535431
20
-51.7839874484
11
81.1403667045
21
-55.5303463145
62
11
0
LINE
8
Strings
10
81.1403667045
20
-55.5303463145
11
80.8340798658
21
-59.2767051806
62
11
0
LINE
8
Strings
10
76.5460641251
20
-111.7257293058
11
76.8523509637
21
-107.9793704397
62
11
0
LINE
8
Strings
10
76.8523509637
20
-107.9793704397
11
77.1586378023
21
-104.2330115736
62
11
0
LINE
8
Strings
10
77.1586378023
20
-104.2330115736
11
77.4649246409
21
-100.4866527075
62
11
0
LINE
8
Strings
10
77.4649246409
20
-100.4866527075
11
77.7712114796
21
-96.7402938415
62
11
0
LINE
8
Strings
10
77.7712114796
20
-96.7402938415
11
78.0774983182
21
-92.9939349754
62
11
0
LINE
8
Strings
10
78.0774983182
20
-92.9939349754
11
78.3837851568
21
-89.2475761093
62
11
0
LINE
8
Strings
10
69.8793972959
20
-111.1806901411
11
70.1856841346
21
-107.4343312750
62
11
0
LINE
8
Strings
10
70.1856841346
20
-107.4343312750
11
70.4919709732
21
-103.6879724089
62
11
0
LINE
8
Strings
10
70.4919709732
20
-103.6879724089
11
70.7982578118
21
-99.9416135428
62
11
0
LINE
8
Strings
10
70.7982578118
20
-99.9416135428
11
71.1045446505
21
-96.1952546767
62
11
0
LINE
8
Strings
10
71.1045446505
20
-96.1952546767
11
71.4108314891
21
-92.4488958106
62
11
0
LINE
8
Strings
10
71.4108314891
20
-92.4488958106
11
71.7171183277
21
-88.7025369445
62
11
0
LINE
8
Strings
10
63.2127304668
20
-110.6356509763
11
63.5190173055
21
-106.8892921102
62
11
0
LINE
8
Strings
10
63.5190173055
20
-106.8892921102
11
63.8253041441
21
-103.1429332441
62
11
0
LINE
8
Strings
10
63.8253041441
20
-103.1429332441
11
64.1315909827
21
-99.3965743780
62
11
0
LINE
8
Strings
10
64.1315909827
20
-99.3965743780
11
64.4378778213
21
-95.6502155119
62
11
0
LINE
8
Strings
10
64.4378778213
20
-95.6502155119
11
64.7441646600
21
-91.9038566458
62
11
0
LINE
8
Strings
10
64.7441646600
20
-91.9038566458
11
65.0504514986
21
-88.1574977798
62
11
0
LINE
8
Strings
10
78.6900719955
20
-85.5012172432
11
78.9963588341
21
-81.7548583771
62
11
0
LINE
8
Strings
10
78.9963588341
20
-81.7548583771
11
79.3026456727
21
-78.0084995110
62
11
0
LINE
8
Strings
10
79.3026456727
20
-78.0084995110
11
79.6089325113
21
-74.2621406449
62
11
0
LINE
8
Strings
10
79.6089325113
20
-74.2621406449
11
79.9152193500
21
-70.5157817788
62
11
0
LINE
8
Strings
10
79.9152193500
20
-70.5157817788
11
80.2215061886
21
-66.7694229127
62
11
0
LINE
8
Strings
10
80.2215061886
20
-66.7694229127
11
80.5277930272
21
-63.0230640467
62
11
0
LINE
8
Strings
10
72.0234051663
20
-84.9561780784
11
72.3296920050
21
-81.2098192123
62
11
0
LINE
8
Strings
10
72.3296920050
20
-81.2098192123
11
72.6359788436
21
-77.4634603463
62
11
0
LINE
8
Strings
10
72.6359788436
20
-77.4634603463
11
72.9422656822
21
-73.7171014802
62
11
0
LINE
8
Strings
10
72.9422656822
20
-73.7171014802
11
73.5548393595
21
-66.2243837480
62
11
0
LINE
8
Strings
10
73.5548393595
20
-66.2243837480
11
73.8611261981
21
-62.4780248819
62
11
0
LINE
8
Strings
10
65.3567383372
20
-84.4111389137
11
65.6630251759
21
-80.6647800476
62
11
0
LINE
8
Strings
10
65.6630251759
20
-80.6647800476
11
65.9693120145
21
-76.9184211815
62
11
0
LINE
8
Strings
10
65.9693120145
20
-76.9184211815
11
66.2755988531
21
-73.1720623154
62
11
0
LINE
8
Strings
10
66.2755988531
20
-73.1720623154
11
66.5818856917
21
-69.4257034493
62
11
0
LINE
8
Strings
10
66.5818856917
20
-69.4257034493
11
66.8881725304
21
-65.6793445832
62
11
0
LINE
8
Strings
10
66.8881725304
20
-65.6793445832
11
67.1944593690
21
-61.9329857171
62
11
0
LINE
8
Strings
10
48.0537671502
20
-7.9413817249
11
47.7804109256
21
-11.6902872659
62
11
0
LINE
8
Strings
10
47.7804109256
20
-11.6902872659
11
47.5070547011
21
-15.4391928070
62
11
0
LINE
8
Strings
10
47.5070547011
20
-15.4391928070
11
47.2336984765
21
-19.1880983480
62
11
0
LINE
8
Strings
10
47.2336984765
20
-19.1880983480
11
46.9603422520
21
-22.9370038890
62
11
0
LINE
8
Strings
10
46.9603422520
20
-22.9370038890
11
46.6869860274
21
-26.6859094300
62
11
0
LINE
8
Strings
10
46.6869860274
20
-26.6859094300
11
46.4136298028
21
-30.4348149711
62
11
0
LINE
8
Strings
10
54.7249658018
20
-8.4278206754
11
54.4516095772
21
-12.1767262164
62
11
0
LINE
8
Strings
10
54.4516095772
20
-12.1767262164
11
54.1782533527
21
-15.9256317574
62
11
0
LINE
8
Strings
10
54.1782533527
20
-15.9256317574
11
53.9048971281
21
-19.6745372984
62
11
0
LINE
8
Strings
10
53.9048971281
20
-19.6745372984
11
53.6315409035
21
-23.4234428395
62
11
0
LINE
8
Strings
10
53.6315409035
20
-23.4234428395
11
53.3581846790
21
-27.1723483805
62
11
0
LINE
8
Strings
10
53.3581846790
20
-27.1723483805
11
53.0848284544
21
-30.9212539215
62
11
0
LINE
8
Strings
10
61.3961644534
20
-8.9142596258
11
61.1228082288
21
-12.6631651668
62
11
0
LINE
8
Strings
10
61.1228082288
20
-12.6631651668
11
60.8494520043
21
-16.4120707078
62
11
0
LINE
8
Strings
10
60.8494520043
20
-16.4120707078
11
60.5760957797
21
-20.1609762489
62
11
0
LINE
8
Strings
10
60.5760957797
20
-20.1609762489
11
60.0293833306
21
-27.6587873309
62
11
0
LINE
8
Strings
10
60.0293833306
20
-27.6587873309
11
59.7560271060
21
-31.4076928719
62
11
0
LINE
8
Strings
10
46.1402735783
20
-34.1837205121
11
45.8669173537
21
-37.9326260531
62
11
0
LINE
8
Strings
10
45.8669173537
20
-37.9326260531
11
45.5935611292
21
-41.6815315942
62
11
0
LINE
8
Strings
10
45.5935611292
20
-41.6815315942
11
45.3202049046
21
-45.4304371352
62
11
0
LINE
8
Strings
10
45.3202049046
20
-45.4304371352
11
45.0468486801
21
-49.1793426762
62
11
0
LINE
8
Strings
10
45.0468486801
20
-49.1793426762
11
44.7734924555
21
-52.9282482172
62
11
0
LINE
8
Strings
10
44.7734924555
20
-52.9282482172
11
44.5001362310
21
-56.6771537583
62
11
0
LINE
8
Strings
10
52.8114722299
20
-34.6701594625
11
52.5381160053
21
-38.4190650036
62
11
0
LINE
8
Strings
10
52.5381160053
20
-38.4190650036
11
52.2647597808
21
-42.1679705446
62
11
0
LINE
8
Strings
10
52.2647597808
20
-42.1679705446
11
51.9914035562
21
-45.9168760856
62
11
0
LINE
8
Strings
10
51.9914035562
20
-45.9168760856
11
51.7180473317
21
-49.6657816266
62
11
0
LINE
8
Strings
10
51.7180473317
20
-49.6657816266
11
51.4446911071
21
-53.4146871677
62
11
0
LINE
8
Strings
10
51.4446911071
20
-53.4146871677
11
51.1713348826
21
-57.1635927087
62
11
0
LINE
8
Strings
10
59.4826708815
20
-35.1565984130
11
59.2093146569
21
-38.9055039540
62
11
0
LINE
8
Strings
10
59.2093146569
20
-38.9055039540
11
58.9359584324
21
-42.6544094950
62
11
0
LINE
8
Strings
10
58.9359584324
20
-42.6544094950
11
58.6626022078
21
-46.4033150360
62
11
0
LINE
8
Strings
10
58.6626022078
20
-46.4033150360
11
58.3892459833
21
-50.1522205771
62
11
0
LINE
8
Strings
10
58.3892459833
20
-50.1522205771
11
58.1158897587
21
-53.9011261181
62
11
0
LINE
8
Strings
10
58.1158897587
20
-53.9011261181
11
57.8425335341
21
-57.6500316591
62
11
0
LINE
8
Strings
10
40.6731490872
20
-109.1618313326
11
40.9465053118
21
-105.4129257916
62
11
0
LINE
8
Strings
10
40.9465053118
20
-105.4129257916
11
41.2198615363
21
-101.6640202506
62
11
0
LINE
8
Strings
10
41.2198615363
20
-101.6640202506
11
41.4932177609
21
-97.9151147095
62
11
0
LINE
8
Strings
10
41.4932177609
20
-97.9151147095
11
41.7665739854
21
-94.1662091685
62
11
0
LINE
8
Strings
10
41.7665739854
20
-94.1662091685
11
42.0399302100
21
-90.4173036275
62
11
0
LINE
8
Strings
10
42.0399302100
20
-90.4173036275
11
42.3132864345
21
-86.6683980865
62
11
0
LINE
8
Strings
10
47.3443477388
20
-109.6482702831
11
47.6177039633
21
-105.8993647420
62
11
0
LINE
8
Strings
10
47.6177039633
20
-105.8993647420
11
47.8910601879
21
-102.1504592010
62
11
0
LINE
8
Strings
10
47.8910601879
20
-102.1504592010
11
48.1644164125
21
-98.4015536600
62
11
0
LINE
8
Strings
10
48.1644164125
20
-98.4015536600
11
48.4377726370
21
-94.6526481189
62
11
0
LINE
8
Strings
10
48.4377726370
20
-94.6526481189
11
48.7111288616
21
-90.9037425779
62
11
0
LINE
8
Strings
10
48.7111288616
20
-90.9037425779
11
48.9844850861
21
-87.1548370369
62
11
0
LINE
8
Strings
10
54.0155463904
20
-110.1347092335
11
54.2889026149
21
-106.3858036925
62
11
0
LINE
8
Strings
10
54.2889026149
20
-106.3858036925
11
54.5622588395
21
-102.6368981514
62
11
0
LINE
8
Strings
10
54.5622588395
20
-102.6368981514
11
54.8356150640
21
-98.8879926104
62
11
0
LINE
8
Strings
10
54.8356150640
20
-98.8879926104
11
55.1089712886
21
-95.1390870694
62
11
0
LINE
8
Strings
10
55.1089712886
20
-95.1390870694
11
55.3823275132
21
-91.3901815284
62
11
0
LINE
8
Strings
10
55.3823275132
20
-91.3901815284
11
55.6556837377
21
-87.6412759873
62
11
0
LINE
8
Strings
10
42.5866426591
20
-82.9194925454
11
42.8599988836
21
-79.1705870044
62
11
0
LINE
8
Strings
10
42.8599988836
20
-79.1705870044
11
43.1333551082
21
-75.4216814634
62
11
0
LINE
8
Strings
10
43.1333551082
20
-75.4216814634
11
43.4067113327
21
-71.6727759224
62
11
0
LINE
8
Strings
10
43.4067113327
20
-71.6727759224
11
43.6800675573
21
-67.9238703813
62
11
0
LINE
8
Strings
10
43.6800675573
20
-67.9238703813
11
43.9534237819
21
-64.1749648403
62
11
0
LINE
8
Strings
10
43.9534237819
20
-64.1749648403
11
44.2267800064
21
-60.4260592993
62
11
0
LINE
8
Strings
10
49.2578413107
20
-83.4059314959
11
49.5311975352
21
-79.6570259548
62
11
0
LINE
8
Strings
10
49.5311975352
20
-79.6570259548
11
49.8045537598
21
-75.9081204138
62
11
0
LINE
8
Strings
10
49.8045537598
20
-75.9081204138
11
50.0779099843
21
-72.1592148728
62
11
0
LINE
8
Strings
10
50.0779099843
20
-72.1592148728
11
50.3512662089
21
-68.4103093318
62
11
0
LINE
8
Strings
10
50.3512662089
20
-68.4103093318
11
50.6246224334
21
-64.6614037907
62
11
0
LINE
8
Strings
10
50.6246224334
20
-64.6614037907
11
50.8979786580
21
-60.9124982497
62
11
0
LINE
8
Strings
10
55.9290399623
20
-83.8923704463
11
56.2023961868
21
-80.1434649053
62
11
0
LINE
8
Strings
10
56.2023961868
20
-80.1434649053
11
56.4757524114
21
-76.3945593643
62
11
0
LINE
8
Strings
10
56.4757524114
20
-76.3945593643
11
56.7491086359
21
-72.6456538232
62
11
0
LINE
8
Strings
10
56.7491086359
20
-72.6456538232
11
57.0224648605
21
-68.8967482822
62
11
0
LINE
8
Strings
10
57.0224648605
20
-68.8967482822
11
57.2958210850
21
-65.1478427412
62
11
0
LINE
8
Strings
10
57.2958210850
20
-65.1478427412
11
57.5691773096
21
-61.3989372001
62
11
0
LINE
8
Connections
10
82.9780877362
20
-33.0521931180
11
82.9780877362
21
-33.5443191180
62
91
0
LINE
8
Connections
10
82.9780877362
20
-33.5443191180
11
83.4702137362
21
-33.5443191180
62
91
0
LINE
8
Connections
10
83.4702137362
20
-33.5443191180
11
93.9698814733
21
-60.7555091813
62
91
0
LINE
8
Connections
10
93.9698814733
20
-60.7555091813
11
93.9698814733
21
-61.2476351813
62
91
0
LINE
8
Connections
10
93.9698814733
20
-61.2476351813
11
94.4620074733
21
-61.2476351813
62
91
0
LINE
8
Connections
10
76.3114209071
20
-32.5071539532
11
76.3114209071
21
-32.9992799532
62
91
0
LINE
8
Connections
10
76.3114209071
20
-32.9992799532
11
76.8035469071
21
-32.9992799532
62
91
0
LINE
8
Connections
10
76.8035469071
20
-32.9992799532
11
93.9698814733
21
-60.7555091813
62
91
0
LINE
8
Connections
10
93.9698814733
20
-60.7555091813
11
93.9698814733
21
-61.2476351813
62
91
0
LINE
8
Connections
10
93.9698814733
20
-61.2476351813
11
94.4620074733
21
-61.2476351813
62
91
0
LINE
8
Connections
10
69.6447540780
20
-31.9621147884
11
69.6447540780
21
-32.4542407884
62
91
0
LINE
8
Connections
10
69.6447540780
20
-32.4542407884
11
70.1368800780
21
-32.4542407884
62
91
0
LINE
8
Connections
10
70.1368800780
20
-32.4542407884
11
93.9698814733
21
-60.7555091813
62
91
0
LINE
8
Connections
10
93.9698814733
20
-60.7555091813
11
93.9698814733
21
-61.2476351813
62
91
0
LINE
8
Connections
10
93.9698814733
20
-61.2476351813
11
94.4620074733
21
-61.2476351813
62
91
0
LINE
8
Connections
10
67.5007462076
20
-58.1866268510
11
67.5007462076
21
-58.6787528510
62
91
0
LINE
8
Connections
10
67.5007462076
20
-58.6787528510
11
67.9928722076
21
-58.6787528510
62
91
0
LINE
8
Connections
10
67.9928722076
20
-58.6787528510
11
93.9698814733
21
-60.7555091813
62
91
0
LINE
8
Connections
10
93.9698814733
20
-60.7555091813
11
93.9698814733
21
-61.2476351813
62
91
0
LINE
8
Connections
10
93.9698814733
20
-61.2476351813
11
94.4620074733
21
-61.2476351813
62
91
0
LINE
8
Connections
10
74.1674130367
20
-58.7316660158
11
74.1674130367
21
-59.2237920158
62
91
0
LINE
8
Connections
10
74.1674130367
20
-59.2237920158
11
74.6595390367
21
-59.2237920158
62
91
0
LINE
8
Connections
10
74.6595390367
20
-59.2237920158
11
93.9698814733
21
-60.7555091813
62
91
0
LINE
8
Connections
10
93.9698814733
20
-60.7555091813
11
93.9698814733
21
-61.2476351813
62
91
0
LINE
8
Connections
10
93.9698814733
20
-61.2476351813
11
94.4620074733
21
-61.2476351813
62
91
0
LINE
8
Connections
10
80.8340798658
20
-59.2767051806
11
80.8340798658
21
-59.7688311806
62
91
0
LINE
8
Connections
10
80.8340798658
20
-59.7688311806
11
81.3262058658
21
-59.7688311806
62
91
0
LINE
8
Connections
10
81.3262058658
20
-59.7688311806
11
93.9698814733
21
-60.7555091813
62
91
0
LINE
8
Connections
10
93.9698814733
20
-60.7555091813
11
93.9698814733
21
-61.2476351813
62
91
0
LINE
8
Connections
10
93.9698814733
20
-61.2476351813
11
94.4620074733
21
-61.2476351813
62
91
0
LINE
8
Connections
10
78.3837851568
20
-89.2475761093
11
78.3837851568
21
-88.7554501093
62
91
0
LINE
8
Connections
10
78.3837851568
20
-88.7554501093
11
78.8759111568
21
-88.7554501093
62
91
0
LINE
8
Connections
10
78.8759111568
20
-88.7554501093
11
93.9698814733
21
-61.7397611813
62
91
0
LINE
8
Connections
10
93.9698814733
20
-61.7397611813
11
93.9698814733
21
-61.2476351813
62
91
0
LINE
8
Connections
10
93.9698814733
20
-61.2476351813
11
94.4620074733
21
-61.2476351813
62
91
0
LINE
8
Connections
10
71.7171183277
20
-88.7025369445
11
71.7171183277
21
-88.2104109445
62
91
0
LINE
8
Connections
10
71.7171183277
20
-88.2104109445
11
72.2092443277
21
-88.2104109445
62
91
0
LINE
8
Connections
10
72.2092443277
20
-88.2104109445
11
93.9698814733
21
-61.7397611813
62
91
0
LINE
8
Connections
10
93.9698814733
20
-61.7397611813
11
93.9698814733
21
-61.2476351813
62
91
0
LINE
8
Connections
10
93.9698814733
20
-61.2476351813
11
94.4620074733
21
-61.2476351813
62
91
0
LINE
8
Connections
10
65.0504514986
20
-88.1574977798
11
65.0504514986
21
-87.6653717798
62
91
0
LINE
8
Connections
10
65.0504514986
20
-87.6653717798
11
65.5425774986
21
-87.6653717798
62
91
0
LINE
8
Connections
10
65.5425774986
20
-87.6653717798
11
93.9698814733
21
-61.7397611813
62
91
0
LINE
8
Connections
10
93.9698814733
20
-61.7397611813
11
93.9698814733
21
-61.2476351813
62
91
0
LINE
8
Connections
10
93.9698814733
20
-61.2476351813
11
94.4620074733
21
-61.2476351813
62
91
0
LINE
8
Connections
10
80.5277930272
20
-63.0230640467
11
80.5277930272
21
-62.5309380467
62
91
0
LINE
8
Connections
10
80.5277930272
20
-62.5309380467
11
81.0199190272
21
-62.5309380467
62
91
0
LINE
8
Connections
10
81.0199190272
20
-62.5309380467
11
93.9698814733
21
-61.7397611813
62
91
0
LINE
8
Connections
10
93.9698814733
20
-61.7397611813
11
93.9698814733
21
-61.2476351813
62
91
0
LINE
8
Connections
10
93.9698814733
20
-61.2476351813
11
94.4620074733
21
-61.2476351813
62
91
0
LINE
8
Connections
10
73.8611261981
20
-62.4780248819
11
73.8611261981
21
-61.9858988819
62
91
0
LINE
8
Connections
10
73.8611261981
20
-61.9858988819
11
74.3532521981
21
-61.9858988819
62
91
0
LINE
8
Connections
10
74.3532521981
20
-61.9858988819
11
93.9698814733
21
-61.7397611813
62
91
0
LINE
8
Connections
10
93.9698814733
20
-61.7397611813
11
93.9698814733
21
-61.2476351813
62
91
0
LINE
8
Connections
10
93.9698814733
20
-61.2476351813
11
94.4620074733
21
-61.2476351813
62
91
0
LINE
8
Connections
10
67.1944593690
20
-61.9329857171
11
67.1944593690
21
-62.4251117171
62
91
0
LINE
8
Connections
10
67.1944593690
20
-62.4251117171
11
67.6865853690
21
-62.4251117171
62
91
0
LINE
8
Connections
10
67.6865853690
20
-62.4251117171
11
93.9698814733
21
-61.7397611813
62
91
0
LINE
8
Connections
10
93.9698814733
20
-61.7397611813
11
93.9698814733
21
-61.2476351813
62
91
0
LINE
8
Connections
10
93.9698814733
20
-61.2476351813
11
94.4620074733
21
-61.2476351813
62
91
0
LINE
8
Connections
10
46.4136298028
20
-30.4348149711
11
46.4136298028
21
-30.9269409711
62
91
0
LINE
8
Connections
10
46.4136298028
20
-30.9269409711
11
45.9215038028
21
-30.9269409711
62
91
0
LINE
8
Connections
10
45.9215038028
20
-30.9269409711
11
30.3080933613
21
-52.0157601641
62
91
0
LINE
8
Connections
10
30.3080933613
20
-52.0157601641
11
30.3080933613
21
-52.5078861641
62
91
0
LINE
8
Connections
10
30.3080933613
20
-52.5078861641
11
29.8159673613
21
-52.5078861641
62
91
0
LINE
8
Connections
10
53.0848284544
20
-30.9212539215
11
53.0848284544
21
-31.4133799215
62
91
0
LINE
8
Connections
10
53.0848284544
20
-31.4133799215
11
52.5927024544
21
-31.4133799215
62
91
0
LINE
8
Connections
10
52.5927024544
20
-31.4133799215
11
30.3080933613
21
-52.0157601641
62
91
0
LINE
8
Connections
10
30.3080933613
20
-52.0157601641
11
30.3080933613
21
-52.5078861641
62
91
0
LINE
8
Connections
10
30.3080933613
20
-52.5078861641
11
29.8159673613
21
-52.5078861641
62
91
0
LINE
8
Connections
10
59.7560271060
20
-31.4076928719
11
59.7560271060
21
-31.8998188719
62
91
0
LINE
8
Connections
10
59.7560271060
20
-31.8998188719
11
59.2639011060
21
-31.8998188719
62
91
0
LINE
8
Connections
10
59.2639011060
20
-31.8998188719
11
30.3080933613
21
-52.0157601641
62
91
0
LINE
8
Connections
10
30.3080933613
20
-52.0157601641
11
30.3080933613
21
-52.5078861641
62
91
0
LINE
8
Connections
10
30.3080933613
20
-52.5078861641
11
29.8159673613
21
-52.5078861641
62
91
0
LINE
8
Connections
10
44.5001362310
20
-56.6771537583
11
44.5001362310
21
-56.1850277583
62
91
0
LINE
8
Connections
10
44.5001362310
20
-56.1850277583
11
44.0080102310
21
-56.1850277583
62
91
0
LINE
8
Connections
10
44.0080102310
20
-56.1850277583
11
30.3080933613
21
-53.0000121641
62
91
0
LINE
8
Connections
10
30.3080933613
20
-53.0000121641
11
30.3080933613
21
-52.5078861641
62
91
0
LINE
8
Connections
10
30.3080933613
20
-52.5078861641
11
29.8159673613
21
-52.5078861641
62
91
0
LINE
8
Connections
10
51.1713348826
20
-57.1635927087
11
51.1713348826
21
-56.6714667087
62
91
0
LINE
8
Connections
10
51.1713348826
20
-56.6714667087
11
50.6792088826
21
-56.6714667087
62
91
0
LINE
8
Connections
10
50.6792088826
20
-56.6714667087
11
30.3080933613
21
-53.0000121641
62
91
0
LINE
8
Connections
10
30.3080933613
20
-53.0000121641
11
30.3080933613
21
-52.5078861641
62
91
0
LINE
8
Connections
10
30.3080933613
20
-52.5078861641
11
29.8159673613
21
-52.5078861641
62
91
0
LINE
8
Connections
10
57.8425335341
20
-57.6500316591
11
57.8425335341
21
-57.1579056591
62
91
0
LINE
8
Connections
10
57.8425335341
20
-57.1579056591
11
57.3504075341
21
-57.1579056591
62
91
0
LINE
8
Connections
10
57.3504075341
20
-57.1579056591
11
30.3080933613
21
-53.0000121641
62
91
0
LINE
8
Connections
10
30.3080933613
20
-53.0000121641
11
30.3080933613
21
-52.5078861641
62
91
0
LINE
8
Connections
10
30.3080933613
20
-52.5078861641
11
29.8159673613
21
-52.5078861641
62
91
0
LINE
8
Connections
10
42.3132864345
20
-86.6683980865
11
42.3132864345
21
-86.1762720865
62
91
0
LINE
8
Connections
10
42.3132864345
20
-86.1762720865
11
41.8211604345
21
-86.1762720865
62
91
0
LINE
8
Connections
10
41.8211604345
20
-86.1762720865
11
30.3080933613
21
-53.0000121641
62
91
0
LINE
8
Connections
10
30.3080933613
20
-53.0000121641
11
30.3080933613
21
-52.5078861641
62
91
0
LINE
8
Connections
10
30.3080933613
20
-52.5078861641
11
29.8159673613
21
-52.5078861641
62
91
0
LINE
8
Connections
10
48.9844850861
20
-87.1548370369
11
48.9844850861
21
-86.6627110369
62
91
0
LINE
8
Connections
10
48.9844850861
20
-86.6627110369
11
48.4923590861
21
-86.6627110369
62
91
0
LINE
8
Connections
10
48.4923590861
20
-86.6627110369
11
30.3080933613
21
-53.0000121641
62
91
0
LINE
8
Connections
10
30.3080933613
20
-53.0000121641
11
30.3080933613
21
-52.5078861641
62
91
0
LINE
8
Connections
10
30.3080933613
20
-52.5078861641
11
29.8159673613
21
-52.5078861641
62
91
0
LINE
8
Connections
10
55.6556837377
20
-87.6412759873
11
55.6556837377
21
-87.1491499873
62
91
0
LINE
8
Connections
10
55.6556837377
20
-87.1491499873
11
55.1635577377
21
-87.1491499873
62
91
0
LINE
8
Connections
10
55.1635577377
20
-87.1491499873
11
30.3080933613
21
-53.0000121641
62
91
0
LINE
8
Connections
10
30.3080933613
20
-53.0000121641
11
30.3080933613
21
-52.5078861641
62
91
0
LINE
8
Connections
10
30.3080933613
20
-52.5078861641
11
29.8159673613
21
-52.5078861641
62
91
0
LINE
8
Connections
10
44.2267800064
20
-60.4260592993
11
44.2267800064
21
-59.9339332993
62
91
0
LINE
8
Connections
10
44.2267800064
20
-59.9339332993
11
43.7346540064
21
-59.9339332993
62
91
0
LINE
8
Connections
10
43.7346540064
20
-59.9339332993
11
30.3080933613
21
-53.0000121641
62
91
0
LINE
8
Connections
10
30.3080933613
20
-53.0000121641
11
30.3080933613
21
-52.5078861641
62
91
0
LINE
8
Connections
10
30.3080933613
20
-52.5078861641
11
29.8159673613
21
-52.5078861641
62
91
0
LINE
8
Connections
10
50.8979786580
20
-60.9124982497
11
50.8979786580
21
-60.4203722497
62
91
0
LINE
8
Connections
10
50.8979786580
20
-60.4203722497
11
50.4058526580
21
-60.4203722497
62
91
0
LINE
8
Connections
10
50.4058526580
20
-60.4203722497
11
30.3080933613
21
-53.0000121641
62
91
0
LINE
8
Connections
10
30.3080933613
20
-53.0000121641
11
30.3080933613
21
-52.5078861641
62
91
0
LINE
8
Connections
10
30.3080933613
20
-52.5078861641
11
29.8159673613
21
-52.5078861641
62
91
0
LINE
8
Connections
10
57.5691773096
20
-61.3989372001
11
57.5691773096
21
-60.9068112001
62
91
0
LINE
8
Connections
10
57.5691773096
20
-60.9068112001
11
57.0770513096
21
-60.9068112001
62
91
0
LINE
8
Connections
10
57.0770513096
20
-60.9068112001
11
30.3080933613
21
-53.0000121641
62
91
0
LINE
8
Connections
10
30.3080933613
20
-53.0000121641
11
30.3080933613
21
-52.5078861641
62
91
0
LINE
8
Connections
10
30.3080933613
20
-52.5078861641
11
29.8159673613
21
-52.5078861641
62
91
0
ENDSEC
0
EOF