999
Design created by Aurora
0
SECTION
2
HEADER
9
$ACADVER
1
AC1009
9
$INSUNITS
70
2
0
ENDSEC
0
SECTION
2
TABLES
0
TABLE
2
LTYPE
100
AcDbLinetypeTableRecord
2
LTYPE
0
LTYPE
2
DASHED
70
0
3
dashed line
72
65
73
2
40
4.0
49
2.0
49
-2.0
0
ENDTAB
0
TABLE
2
LAYER
70
8
0
LAYER
100
AcDbSymbolTable
100
AcDbLayerTable
2
Obstructions
70
0
62
7
6
CONTINUOUS
0
LAYER
100
AcDbSymbolTable
100
AcDbLayerTable
2
Inverters
70
0
62
7
6
CONTINUOUS
0
LAYER
100
AcDbSymbolTable
100
AcDbLayerTable
2
Setbacks
70
0
62
7
6
CONTINUOUS
0
LAYER
100
AcDbSymbolTable
100
AcDbLayerTable
2
Walkways
70
0
62
7
6
CONTINUOUS
0
LAYER
100
AcDbSymbolTable
100
AcDbLayerTable
2
Connections
70
0
62
7
6
CONTINUOUS
0
LAYER
100
AcDbSymbolTable
100
AcDbLayerTable
2
Strings
70
0
62
7
6
CONTINUOUS
0
LAYER
100
AcDbSymbolTable
100
AcDbLayerTable
2
Modules
70
0
62
7
6
CONTINUOUS
0
LAYER
100
AcDbSymbolTable
100
AcDbLayerTable
2
Buildings
70
0
62
7
6
CONTINUOUS
0
ENDTAB
0
ENDSEC
0
SECTION
2
ENTITIES
0
LINE
8
Modules
10
-6.3491226249
20
48.9524121341
11
-11.1903650295
21
46.7349364377
62
254
0
LINE
8
Modules
10
-11.1903650295
20
46.7349364377
11
-9.5211618017
21
43.0906947164
62
254
0
LINE
8
Modules
10
-9.5211618017
20
43.0906947164
11
-4.6799193970
21
45.3081704127
62
254
0
LINE
8
Modules
10
-4.6799193970
20
45.3081704127
11
-6.3491226249
21
48.9524121341
62
254
0
LINE
8
Modules
10
-4.6810221656
20
45.3075021805
11
-9.5222645703
21
43.0900264842
62
254
0
LINE
8
Modules
10
-9.5222645703
20
43.0900264842
11
-7.8530613424
21
39.4457847628
62
254
0
LINE
8
Modules
10
-7.8530613424
20
39.4457847628
11
-3.0118189378
21
41.6632604592
62
254
0
LINE
8
Modules
10
-3.0118189378
20
41.6632604592
11
-4.6810221656
21
45.3075021805
62
254
0
LINE
8
Modules
10
-3.0129217064
20
41.6662444417
11
-7.8541641111
21
39.4487687453
62
254
0
LINE
8
Modules
10
-7.8541641111
20
39.4487687453
11
-6.1849608832
21
35.8045270240
62
254
0
LINE
8
Modules
10
-6.1849608832
20
35.8045270240
11
-1.3437184785
21
38.0220027204
62
254
0
LINE
8
Modules
10
-1.3437184785
20
38.0220027204
11
-3.0129217064
21
41.6662444417
62
254
0
LINE
8
Modules
10
-1.3419049894
20
38.0213344882
11
-6.1831473941
21
35.8038587918
62
254
0
LINE
8
Modules
10
-6.1831473941
20
35.8038587918
11
-4.5139441663
21
32.1596170705
62
254
0
LINE
8
Modules
10
-4.5139441663
20
32.1596170705
11
0.3272982384
21
34.3770927668
62
254
0
LINE
8
Modules
10
0.3272982384
20
34.3770927668
11
-1.3419049894
21
38.0213344882
62
254
0
LINE
8
Modules
10
-11.1901134630
20
46.7355180026
11
-16.0313558677
21
44.5180423062
62
254
0
LINE
8
Modules
10
-16.0313558677
20
44.5180423062
11
-14.3621526398
21
40.8738005849
62
254
0
LINE
8
Modules
10
-14.3621526398
20
40.8738005849
11
-9.5209102352
21
43.0912762812
62
254
0
LINE
8
Modules
10
-9.5209102352
20
43.0912762812
11
-11.1901134630
21
46.7355180026
62
254
0
LINE
8
Modules
10
-9.5220130038
20
43.0906080516
11
-14.3632554085
21
40.8731323553
62
254
0
LINE
8
Modules
10
-14.3632554085
20
40.8731323553
11
-12.6940521806
21
37.2288906340
62
254
0
LINE
8
Modules
10
-12.6940521806
20
37.2288906340
11
-7.8528097759
21
39.4463663303
62
254
0
LINE
8
Modules
10
-7.8528097759
20
39.4463663303
11
-9.5220130038
21
43.0906080516
62
254
0
LINE
8
Modules
10
-7.8539125487
20
39.4456980981
11
-12.6951549534
21
37.2282224018
62
254
0
LINE
8
Modules
10
-12.6951549534
20
37.2282224018
11
-11.0259517255
21
33.5839806804
62
254
0
LINE
8
Modules
10
-11.0259517255
20
33.5839806804
11
-6.1847093208
21
35.8014563768
62
254
0
LINE
8
Modules
10
-6.1847093208
20
35.8014563768
11
-7.8539125487
21
39.4456980981
62
254
0
LINE
8
Modules
10
-6.1828958317
20
35.8044403593
11
-11.0241382364
21
33.5869646629
62
254
0
LINE
8
Modules
10
-11.0241382364
20
33.5869646629
11
-9.3549350086
21
29.9427229416
62
254
0
LINE
8
Modules
10
-9.3549350086
20
29.9427229416
11
-4.5136926039
21
32.1601986379
62
254
0
LINE
8
Modules
10
-4.5136926039
20
32.1601986379
11
-6.1828958317
21
35.8044403593
62
254
0
LINE
8
Modules
10
3.2053948396
20
40.2857940701
11
8.0466372443
21
42.5032697664
62
254
0
LINE
8
Modules
10
8.0466372443
20
42.5032697664
11
6.3774340165
21
46.1475114878
62
254
0
LINE
8
Modules
10
6.3774340165
20
46.1475114878
11
1.5361916118
21
43.9300357914
62
254
0
LINE
8
Modules
10
1.5361916118
20
43.9300357914
11
3.2053948396
21
40.2857940701
62
254
0
LINE
8
Modules
10
1.5372943845
20
43.9307040236
11
6.3785367892
21
46.1481797200
62
254
0
LINE
8
Modules
10
6.3785367892
20
46.1481797200
11
4.7093335614
21
49.7924214413
62
254
0
LINE
8
Modules
10
4.7093335614
20
49.7924214413
11
-0.1319088433
21
47.5749457450
62
254
0
LINE
8
Modules
10
-0.1319088433
20
47.5749457450
11
1.5372943845
21
43.9307040236
62
254
0
LINE
8
Modules
10
6.3782852227
20
46.1475981525
11
11.2195276274
21
48.3650738489
62
254
0
LINE
8
Modules
10
11.2195276274
20
48.3650738489
11
9.5503243995
21
52.0093155702
62
254
0
LINE
8
Modules
10
9.5503243995
20
52.0093155702
11
4.7090819948
21
49.7918398738
62
254
0
LINE
8
Modules
10
4.7090819948
20
49.7918398738
11
6.3782852227
21
46.1475981525
62
254
0
LINE
8
Modules
10
8.0463856819
20
42.5063404137
11
12.8876280866
21
44.7238161100
62
254
0
LINE
8
Modules
10
12.8876280866
20
44.7238161100
11
11.2184248588
21
48.3680578314
62
254
0
LINE
8
Modules
10
11.2184248588
20
48.3680578314
11
6.3771824541
21
46.1505821350
62
254
0
LINE
8
Modules
10
6.3771824541
20
46.1505821350
11
8.0463856819
21
42.5063404137
62
254
0
LINE
8
Modules
10
9.7174023989
20
38.8614304601
11
14.5586448036
21
41.0789061565
62
254
0
LINE
8
Modules
10
14.5586448036
20
41.0789061565
11
12.8894415757
21
44.7231478778
62
254
0
LINE
8
Modules
10
12.8894415757
20
44.7231478778
11
8.0481991710
21
42.5056721815
62
254
0
LINE
8
Modules
10
8.0481991710
20
42.5056721815
11
9.7174023989
21
38.8614304601
62
254
0
LINE
8
Modules
10
-4.5147953725
20
32.1595304057
11
-9.3560377772
21
29.9420547094
62
254
0
LINE
8
Modules
10
-9.3560377772
20
29.9420547094
11
-7.6868345493
21
26.2978129880
62
254
0
LINE
8
Modules
10
-7.6868345493
20
26.2978129880
11
-2.8455921446
21
28.5152886844
62
254
0
LINE
8
Modules
10
-2.8455921446
20
28.5152886844
11
-4.5147953725
21
32.1595304057
62
254
0
LINE
8
Modules
10
0.3261954698
20
34.3764245346
11
-4.5150469349
21
32.1589488383
62
254
0
LINE
8
Modules
10
-4.5150469349
20
32.1589488383
11
-2.8458437070
21
28.5147071169
62
254
0
LINE
8
Modules
10
-2.8458437070
20
28.5147071169
11
1.9953986977
21
30.7321828133
62
254
0
LINE
8
Modules
10
1.9953986977
20
30.7321828133
11
0.3261954698
21
34.3764245346
62
254
0
LINE
8
Modules
10
11.3855028540
20
35.2165205092
11
16.2267452587
21
37.4339962056
62
254
0
LINE
8
Modules
10
16.2267452587
20
37.4339962056
11
14.5575420308
21
41.0782379269
62
254
0
LINE
8
Modules
10
14.5575420308
20
41.0782379269
11
9.7162996261
21
38.8607622305
62
254
0
LINE
8
Modules
10
9.7162996261
20
38.8607622305
11
11.3855028540
21
35.2165205092
62
254
0
LINE
8
Modules
10
4.8764115566
20
36.6445363312
11
9.7176539613
21
38.8620120276
62
254
0
LINE
8
Modules
10
9.7176539613
20
38.8620120276
11
8.0484507334
21
42.5062537489
62
254
0
LINE
8
Modules
10
8.0484507334
20
42.5062537489
11
3.2072083287
21
40.2887780526
62
254
0
LINE
8
Modules
10
3.2072083287
20
40.2887780526
11
4.8764115566
21
36.6445363312
62
254
0
LINE
8
Buildings
10
-10.6694089681
20
24.5404528015
11
-11.5477479091
21
24.1343946435
62
252
0
LINE
8
Buildings
10
-11.5477479091
20
24.1343946435
11
-0.2738504775
21
-0.2520212823
62
252
0
LINE
8
Buildings
10
-0.2738504775
20
-0.2520212823
11
13.9162109201
21
6.3080774723
62
252
0
LINE
8
Buildings
10
13.9162109201
20
6.3080774723
11
3.7738603943
21
28.2468595030
62
252
0
LINE
8
Buildings
10
3.7738603943
20
28.2468595030
11
-9.5679775924
21
22.1357832529
62
252
0
LINE
8
Buildings
10
-9.5679775924
20
22.1357832529
11
-10.6694089681
21
24.5404528015
62
252
0
LINE
8
Buildings
10
18.6514918233
20
35.0613883689
11
8.8247907616
21
56.5152613275
62
252
0
LINE
8
Buildings
10
8.8247907616
20
56.5152613275
11
-5.2849439463
21
50.0524587695
62
252
0
LINE
8
Buildings
10
-5.2849439463
20
50.0524587695
11
4.5417571154
21
28.5985858109
62
252
0
LINE
8
Buildings
10
4.5417571154
20
28.5985858109
11
18.6514918233
21
35.0613883689
62
252
0
LINE
8
Buildings
10
-9.5679775924
20
22.1357832529
11
4.5417571154
21
28.5985858109
62
252
0
LINE
8
Buildings
10
4.5417571154
20
28.5985858109
11
-5.2849439463
21
50.0524587695
62
252
0
LINE
8
Buildings
10
-5.2849439463
20
50.0524587695
11
-19.3946786542
21
43.5896562114
62
252
0
LINE
8
Buildings
10
-19.3946786542
20
43.5896562114
11
-9.5679775924
21
22.1357832529
62
252
0
LINE
8
Buildings
10
18.0306490100
20
32.3149905358
11
17.0913470765
21
34.3467819167
62
252
0
LINE
8
Buildings
10
17.0913470765
20
34.3467819167
11
3.7738603943
21
28.2468595030
62
252
0
LINE
8
Buildings
10
3.7738603943
20
28.2468595030
11
13.9162109201
21
6.3080774723
62
252
0
LINE
8
Buildings
10
13.9162109201
20
6.3080774723
11
27.2120691883
21
12.4547840174
62
252
0
LINE
8
Buildings
10
27.2120691883
20
12.4547840174
11
26.3572766281
21
14.3037743093
62
252
0
LINE
8
Buildings
10
26.3572766281
20
14.3037743093
11
25.9241269089
21
14.1035281755
62
252
0
LINE
8
Buildings
10
25.9241269089
20
14.1035281755
11
13.7668614622
21
19.4135136474
62
252
0
LINE
8
Buildings
10
13.7668614622
20
19.4135136474
11
17.5974992907
21
32.1147444020
62
252
0
LINE
8
Buildings
10
17.5974992907
20
32.1147444020
11
18.0306490100
21
32.3149905358
62
252
0
LINE
8
Buildings
10
1.7977026426
20
0.7056625967
11
6.9231262986
21
-10.3314293803
62
252
0
LINE
8
Buildings
10
6.9231262986
20
-10.3314293803
11
14.9360350744
21
-6.6103810934
62
252
0
LINE
8
Buildings
10
14.9360350744
20
-6.6103810934
11
9.8169812984
21
4.4129939781
62
252
0
LINE
8
Buildings
10
9.8169812984
20
4.4129939781
11
1.7977026426
21
0.7056625967
62
252
0
LINE
8
Buildings
10
9.8169812984
20
4.4129939781
11
14.9360350744
21
-6.6103810934
62
252
0
LINE
8
Buildings
10
14.9360350744
20
-6.6103810934
11
22.9489438502
21
-2.8893328066
62
252
0
LINE
8
Buildings
10
22.9489438502
20
-2.8893328066
11
17.8362599543
21
8.1203253595
62
252
0
LINE
8
Buildings
10
17.8362599543
20
8.1203253595
11
9.8169812984
21
4.4129939781
62
252
0
LINE
8
Buildings
10
26.5060165418
20
36.2331728771
11
21.6637222376
21
23.0642509548
62
252
0
LINE
8
Buildings
10
21.6637222376
20
23.0642509548
11
34.8326441600
21
18.2219566506
62
252
0
LINE
8
Buildings
10
34.8326441600
20
18.2219566506
11
26.5060165418
21
36.2331728771
62
252
0
LINE
8
Buildings
10
25.9241269089
20
14.1035281755
11
34.8326441600
21
18.2219566506
62
252
0
LINE
8
Buildings
10
34.8326441600
20
18.2219566506
11
21.6637222376
21
23.0642509548
62
252
0
LINE
8
Buildings
10
21.6637222376
20
23.0642509548
11
13.7668614622
21
19.4135136474
62
252
0
LINE
8
Buildings
10
13.7668614622
20
19.4135136474
11
25.9241269089
21
14.1035281755
62
252
0
LINE
8
Buildings
10
13.7668614622
20
19.4135136474
11
21.6637222376
21
23.0642509548
62
252
0
LINE
8
Buildings
10
21.6637222376
20
23.0642509548
11
26.5060165418
21
36.2331728771
62
252
0
LINE
8
Buildings
10
26.5060165418
20
36.2331728771
11
17.5974992907
21
32.1147444020
62
252
0
LINE
8
Buildings
10
17.5974992907
20
32.1147444020
11
13.7668614622
21
19.4135136474
62
252
0
LINE
8
Buildings
10
29.1196994367
20
42.9163111747
11
41.0571784392
21
17.3334943674
62
252
0
LINE
8
Buildings
10
41.0571784392
20
17.3334943674
11
51.5448531965
21
22.2272634211
62
252
0
LINE
8
Buildings
10
51.5448531965
20
22.2272634211
11
39.6073741939
21
47.8100802285
62
252
0
LINE
8
Buildings
10
39.6073741939
20
47.8100802285
11
29.1196994367
21
42.9163111747
62
252
0
LINE
8
Buildings
10
61.1048243658
20
26.6881465192
11
49.1673453632
21
52.2709633266
62
252
0
LINE
8
Buildings
10
49.1673453632
20
52.2709633266
11
39.6073741939
21
47.8100802285
62
252
0
LINE
8
Buildings
10
39.6073741939
20
47.8100802285
11
51.5448531965
21
22.2272634211
62
252
0
LINE
8
Buildings
10
51.5448531965
20
22.2272634211
11
61.1048243658
21
26.6881465192
62
252
0
LINE
8
Setbacks
10
-1.5043364123
20
2.4878103498
11
11.3735350585
21
8.4412806693
62
2
0
LINE
8
Setbacks
10
11.3735350585
20
8.4412806693
11
4.1006895125
21
24.1730746317
62
2
0
LINE
8
Setbacks
10
4.1006895125
20
24.1730746317
11
4.0790454446
21
24.1684740424
62
2
0
LINE
8
Setbacks
10
4.0790454446
20
24.1684740424
11
4.0785079331
21
24.1684055369
62
2
0
LINE
8
Setbacks
10
4.0785079331
20
24.1684055369
11
4.0315321419
21
24.1663329122
62
2
0
LINE
8
Setbacks
10
4.0315321419
20
24.1663329122
11
3.9853507721
21
24.1586515355
62
2
0
LINE
8
Setbacks
10
3.9853507721
20
24.1586515355
11
3.9848124635
21
24.1586070723
62
2
0
LINE
8
Setbacks
10
3.9848124635
20
24.1586070723
11
3.9166133143
21
24.1586070723
62
2
0
LINE
8
Setbacks
10
3.9166133143
20
24.1586070723
11
3.9160828339
21
24.1586502431
62
2
0
LINE
8
Setbacks
10
3.9160828339
20
24.1586502431
11
3.8683012869
21
24.1664790779
62
2
0
LINE
8
Setbacks
10
3.8683012869
20
24.1664790779
11
3.8202355826
21
24.1687807753
62
2
0
LINE
8
Setbacks
10
3.8202355826
20
24.1687807753
11
3.8197103963
21
24.1688487121
62
2
0
LINE
8
Setbacks
10
3.8197103963
20
24.1688487121
11
3.7530017327
21
24.1830278464
62
2
0
LINE
8
Setbacks
10
3.7530017327
20
24.1830278464
11
3.7525034101
21
24.1831758705
62
2
0
LINE
8
Setbacks
10
3.7525034101
20
24.1831758705
11
3.7056378097
21
24.2012482818
62
2
0
LINE
8
Setbacks
10
3.7056378097
20
24.2012482818
11
3.6574328572
21
24.2141370460
62
2
0
LINE
8
Setbacks
10
3.6574328572
20
24.2141370460
11
3.6569458561
21
24.2143093558
62
2
0
LINE
8
Setbacks
10
3.6569458561
20
24.2143093558
11
3.5946430326
21
24.2420485299
62
2
0
LINE
8
Setbacks
10
3.5946430326
20
24.2420485299
11
3.5941973876
21
24.2422897858
62
2
0
LINE
8
Setbacks
10
3.5941973876
20
24.2422897858
11
3.5503592018
21
24.2706053407
62
2
0
LINE
8
Setbacks
10
3.5503592018
20
24.2706053407
11
3.5042147249
21
24.2943196013
62
2
0
LINE
8
Setbacks
10
3.5042147249
20
24.2943196013
11
3.5037859256
21
24.2945833960
62
2
0
LINE
8
Setbacks
10
3.5037859256
20
24.2945833960
11
3.4486117113
21
24.3346696833
62
2
0
LINE
8
Setbacks
10
3.4486117113
20
24.3346696833
11
3.4482341822
21
24.3349901709
62
2
0
LINE
8
Setbacks
10
3.4482341822
20
24.3349901709
11
3.4098598672
21
24.3729071036
62
2
0
LINE
8
Setbacks
10
3.4098598672
20
24.3729071036
11
3.3683475205
21
24.4069947650
62
2
0
LINE
8
Setbacks
10
3.3683475205
20
24.4069947650
11
3.3679914257
21
24.4073350036
62
2
0
LINE
8
Setbacks
10
3.3679914257
20
24.4073350036
11
3.3223575660
21
24.4580167637
62
2
0
LINE
8
Setbacks
10
3.3223575660
20
24.4580167637
11
3.3220593911
21
24.4584019667
62
2
0
LINE
8
Setbacks
10
3.3220593911
20
24.4584019667
11
3.2916397982
21
24.5043870585
62
2
0
LINE
8
Setbacks
10
3.2916397982
20
24.5043870585
11
3.2573966720
21
24.5474533240
62
2
0
LINE
8
Setbacks
10
3.2573966720
20
24.5474533240
11
3.2571233793
21
24.5478547902
62
2
0
LINE
8
Setbacks
10
3.2571233793
20
24.5478547902
11
3.2230239687
21
24.6069168000
62
2
0
LINE
8
Setbacks
10
3.2230239687
20
24.6069168000
11
3.2228135556
21
24.6073526403
62
2
0
LINE
8
Setbacks
10
3.2228135556
20
24.6073526403
11
3.2024430769
21
24.6589596857
62
2
0
LINE
8
Setbacks
10
3.2024430769
20
24.6589596857
11
3.1931867550
21
24.6775560691
62
2
0
LINE
8
Setbacks
10
3.1931867550
20
24.6775560691
11
-8.3161897896
21
19.4058176607
62
2
0
LINE
8
Setbacks
10
-8.3161897896
20
19.4058176607
11
-8.3167045167
21
19.4056320804
62
2
0
LINE
8
Setbacks
10
-8.3167045167
20
19.4056320804
11
-9.1699191109
21
19.1763269550
62
2
0
LINE
8
Setbacks
10
-9.1699191109
20
19.1763269550
11
-9.1704507556
21
19.1762301556
62
2
0
LINE
8
Setbacks
10
-9.1704507556
20
19.1762301556
11
-9.1709910783
21
19.1762219387
62
2
0
LINE
8
Setbacks
10
-9.1709910783
20
19.1762219387
11
-9.2209847449
21
19.1795886826
62
2
0
LINE
8
Setbacks
10
-0.1032768008
20
12.6653760189
11
-0.1033098901
21
12.6655306733
62
2
0
LINE
8
Setbacks
10
-0.1033098901
20
12.6655306733
11
-0.1033399373
21
12.6660193501
62
2
0
LINE
8
Setbacks
10
-0.1033399373
20
12.6660193501
11
-0.1023127193
21
12.7433960002
62
2
0
LINE
8
Setbacks
10
-0.1023127193
20
12.7433960002
11
-0.1013383222
21
12.8202427945
62
2
0
LINE
8
Setbacks
10
-0.1013383222
20
12.8202427945
11
-0.1012930117
21
12.8207461440
62
2
0
LINE
8
Setbacks
10
-0.1012930117
20
12.8207461440
11
-0.1012572288
21
12.8208898916
62
2
0
LINE
8
Setbacks
10
-0.1012572288
20
12.8208898916
11
-0.1012431695
21
12.8210461833
62
2
0
LINE
8
Setbacks
10
-0.1012431695
20
12.8210461833
11
-0.1011210872
21
12.8215366888
62
2
0
LINE
8
Setbacks
10
-0.1011210872
20
12.8215366888
11
-0.0771089417
21
12.8937430705
62
2
0
LINE
8
Setbacks
10
-0.0771089417
20
12.8937430705
11
-0.0533599189
21
12.9653070636
62
2
0
LINE
8
Setbacks
10
-0.0533599189
20
12.9653070636
11
-0.0531555112
21
12.9657899646
62
2
0
LINE
8
Setbacks
10
-0.0531555112
20
12.9657899646
11
-0.0530778439
21
12.9659137291
62
2
0
LINE
8
Setbacks
10
-0.0530778439
20
12.9659137291
11
-0.0530178889
21
12.9660553540
62
2
0
LINE
8
Setbacks
10
-0.0530178889
20
12.9660553540
11
-0.0527388596
21
12.9664998290
62
2
0
LINE
8
Setbacks
10
-0.0527388596
20
12.9664998290
11
-0.0080905383
21
13.0263851404
62
2
0
LINE
8
Setbacks
10
-0.0080905383
20
13.0263851404
11
0.0361063400
21
13.0857445328
62
2
0
LINE
8
Setbacks
10
0.0361063400
20
13.0857445328
11
0.0364629418
21
13.0861492279
62
2
0
LINE
8
Setbacks
10
0.0364629418
20
13.0861492279
11
0.0365764097
21
13.0862417183
62
2
0
LINE
8
Setbacks
10
0.0365764097
20
13.0862417183
11
0.0366773434
21
13.0863559621
62
2
0
LINE
8
Setbacks
10
0.0366773434
20
13.0863559621
11
0.0370959173
21
13.0866962308
62
2
0
LINE
8
Setbacks
10
0.0370959173
20
13.0866962308
11
0.0977328238
21
13.1282041525
62
2
0
LINE
8
Setbacks
10
0.0977328238
20
13.1282041525
11
0.1583287202
21
13.1697425855
62
2
0
LINE
8
Setbacks
10
0.1583287202
20
13.1697425855
11
0.1588042724
21
13.1700132541
62
2
0
LINE
8
Setbacks
10
0.1588042724
20
13.1700132541
11
3.0196550857
21
14.4957669054
62
2
0
LINE
8
Setbacks
10
3.0196550857
20
14.4957669054
11
3.0199998093
21
14.4958930078
62
2
0
LINE
8
Setbacks
10
3.0199998093
20
14.4958930078
11
3.0203221026
21
14.4960755963
62
2
0
LINE
8
Setbacks
10
3.0203221026
20
14.4960755963
11
3.0208356541
21
14.4962622997
62
2
0
LINE
8
Setbacks
10
3.0208356541
20
14.4962622997
11
3.0916076590
21
14.5154932201
62
2
0
LINE
8
Setbacks
10
3.0916076590
20
14.5154932201
11
3.1621887202
21
14.5347969709
62
2
0
LINE
8
Setbacks
10
3.1621887202
20
14.5347969709
11
3.1627206119
21
14.5348961879
62
2
0
LINE
8
Setbacks
10
3.1627206119
20
14.5348961879
11
3.1630946571
21
14.5349034124
62
2
0
LINE
8
Setbacks
10
3.1630946571
20
14.5349034124
11
3.1634548952
21
14.5349701150
62
2
0
LINE
8
Setbacks
10
3.1634548952
20
14.5349701150
11
3.1639957991
21
14.5349798563
62
2
0
LINE
8
Setbacks
10
3.1639957991
20
14.5349798563
11
3.2380089211
21
14.5301968895
62
2
0
LINE
8
Setbacks
10
3.2380089211
20
14.5301968895
11
3.3119528171
21
14.5255376062
62
2
0
LINE
8
Setbacks
10
3.3119528171
20
14.5255376062
11
3.3124707860
21
14.5254631532
62
2
0
LINE
8
Setbacks
10
3.3124707860
20
14.5254631532
11
3.3128372505
21
14.5253488154
62
2
0
LINE
8
Setbacks
10
3.3128372505
20
14.5253488154
11
3.3132036894
21
14.5252954056
62
2
0
LINE
8
Setbacks
10
3.3132036894
20
14.5252954056
11
3.3137027167
21
14.5251386655
62
2
0
LINE
8
Setbacks
10
3.3137027167
20
14.5251386655
11
3.3837344847
21
14.4968308895
62
2
0
LINE
8
Setbacks
10
3.3837344847
20
14.4968308895
11
3.4537803588
21
14.4686435167
62
2
0
LINE
8
Setbacks
10
3.4537803588
20
14.4686435167
11
3.4542329393
21
14.4684194998
62
2
0
LINE
8
Setbacks
10
3.4542329393
20
14.4684194998
11
3.4545516056
21
14.4681950212
62
2
0
LINE
8
Setbacks
10
3.4545516056
20
14.4681950212
11
3.4548885964
21
14.4680276950
62
2
0
LINE
8
Setbacks
10
3.4548885964
20
14.4680276950
11
3.4553009235
21
14.4677365078
62
2
0
LINE
8
Setbacks
10
3.4553009235
20
14.4677365078
11
3.5145014688
21
14.4186885268
62
2
0
LINE
8
Setbacks
10
3.5145014688
20
14.4186885268
11
3.5737879698
21
14.3697182989
62
2
0
LINE
8
Setbacks
10
3.5737879698
20
14.3697182989
11
3.5741410547
21
14.3693792938
62
2
0
LINE
8
Setbacks
10
3.5741410547
20
14.3693792938
11
3.5743814198
21
14.3690672782
62
2
0
LINE
8
Setbacks
10
3.5743814198
20
14.3690672782
11
3.5746585941
21
14.3688003301
62
2
0
LINE
8
Setbacks
10
3.5746585941
20
14.3688003301
11
3.5749567711
21
14.3684119965
62
2
0
LINE
8
Setbacks
10
3.5749567711
20
14.3684119965
11
3.6175420744
21
14.3034320414
62
2
0
LINE
8
Setbacks
10
3.6175420744
20
14.3034320414
11
3.6602540151
21
14.2384658640
62
2
0
LINE
8
Setbacks
10
3.6602540151
20
14.2384658640
11
3.6604891474
21
14.2380433622
62
2
0
LINE
8
Setbacks
10
3.6604891474
20
14.2380433622
11
3.6606275549
21
14.2376760148
62
2
0
LINE
8
Setbacks
10
3.6606275549
20
14.2376760148
11
3.6608169419
21
14.2373342453
62
2
0
LINE
8
Setbacks
10
3.6608169419
20
14.2373342453
11
4.3957142752
21
12.6449687087
62
2
0
LINE
8
Setbacks
10
4.3957142752
20
12.6449687087
11
4.3958842069
21
12.6445152012
62
2
0
LINE
8
Setbacks
10
4.3958842069
20
12.6445152012
11
4.4177845539
21
12.5696633434
62
2
0
LINE
8
Setbacks
10
4.4177845539
20
12.5696633434
11
4.4397104910
21
12.4948711967
62
2
0
LINE
8
Setbacks
10
4.4397104910
20
12.4948711967
11
4.4398128696
21
12.4943917797
62
2
0
LINE
8
Setbacks
10
4.4398128696
20
12.4943917797
11
4.4398213409
21
12.4942526844
62
2
0
LINE
8
Setbacks
10
4.4398213409
20
12.4942526844
11
4.4398509531
21
12.4941140316
62
2
0
LINE
8
Setbacks
10
4.4398509531
20
12.4941140316
11
4.4398807182
21
12.4936241840
62
2
0
LINE
8
Setbacks
10
4.4398807182
20
12.4936241840
11
4.4387908357
21
12.4167202148
62
2
0
LINE
8
Setbacks
10
4.4387908357
20
12.4167202148
11
4.4377367139
21
12.3393815344
62
2
0
LINE
8
Setbacks
10
4.4377367139
20
12.3393815344
11
4.4376909982
21
12.3388786592
62
2
0
LINE
8
Setbacks
10
4.4376909982
20
12.3388786592
11
4.4376576073
21
12.3387449486
62
2
0
LINE
8
Setbacks
10
4.4376576073
20
12.3387449486
11
4.4376448911
21
12.3386056427
62
2
0
LINE
8
Setbacks
10
4.4376448911
20
12.3386056427
11
4.4375224984
21
12.3381160939
62
2
0
LINE
8
Setbacks
10
4.4375224984
20
12.3381160939
11
4.4136185887
21
12.2664565296
62
2
0
LINE
8
Setbacks
10
4.4136185887
20
12.2664565296
11
4.3896182218
21
12.1943734090
62
2
0
LINE
8
Setbacks
10
4.3896182218
20
12.1943734090
11
4.3894146871
21
12.1938932971
62
2
0
LINE
8
Setbacks
10
4.3894146871
20
12.1938932971
11
4.3893422979
21
12.1937778545
62
2
0
LINE
8
Setbacks
10
4.3893422979
20
12.1937778545
11
4.3892867786
21
12.1936475730
62
2
0
LINE
8
Setbacks
10
4.3892867786
20
12.1936475730
11
4.3890087550
21
12.1932061116
62
2
0
LINE
8
Setbacks
10
4.3890087550
20
12.1932061116
11
4.3445224520
21
12.1336583231
62
2
0
LINE
8
Setbacks
10
4.3445224520
20
12.1336583231
11
4.3000331959
21
12.0740337633
62
2
0
LINE
8
Setbacks
10
4.3000331959
20
12.0740337633
11
4.2996749309
21
12.0736282345
62
2
0
LINE
8
Setbacks
10
4.2996749309
20
12.0736282345
11
4.2995718316
21
12.0735445069
62
2
0
LINE
8
Setbacks
10
4.2995718316
20
12.0735445069
11
4.2994817596
21
12.0734426467
62
2
0
LINE
8
Setbacks
10
4.2994817596
20
12.0734426467
11
4.2990619794
21
12.0731019577
62
2
0
LINE
8
Setbacks
10
4.2990619794
20
12.0731019577
11
4.2383597063
21
12.0316372885
62
2
0
LINE
8
Setbacks
10
4.2383597063
20
12.0316372885
11
4.1777250181
21
11.9901654019
62
2
0
LINE
8
Setbacks
10
4.1777250181
20
11.9901654019
11
4.1772491664
21
11.9898952231
62
2
0
LINE
8
Setbacks
10
4.1772491664
20
11.9898952231
11
1.3165558334
21
10.6678663094
62
2
0
LINE
8
Setbacks
10
1.3165558334
20
10.6678663094
11
1.3165558242
21
10.6678663292
62
2
0
LINE
8
Setbacks
10
1.3165558242
20
10.6678663292
11
1.3165518611
21
10.6678644254
62
2
0
LINE
8
Setbacks
10
1.3165518611
20
10.6678644254
11
1.3163960212
21
10.6677925750
62
2
0
LINE
8
Setbacks
10
1.3163960212
20
10.6677925750
11
1.3158845473
21
10.6676064729
62
2
0
LINE
8
Setbacks
10
1.3158845473
20
10.6676064729
11
1.2451997973
21
10.6483540164
62
2
0
LINE
8
Setbacks
10
1.2451997973
20
10.6483540164
11
1.1739950341
21
10.6289299723
62
2
0
LINE
8
Setbacks
10
1.1739950341
20
10.6289299723
11
1.1734643571
21
10.6288312350
62
2
0
LINE
8
Setbacks
10
1.1734643571
20
10.6288312350
11
1.1733745841
21
10.6288295073
62
2
0
LINE
8
Setbacks
10
1.1733745841
20
10.6288295073
11
1.1732878517
21
10.6288134811
62
2
0
LINE
8
Setbacks
10
1.1732878517
20
10.6288134811
11
1.1727490319
21
10.6288036344
62
2
0
LINE
8
Setbacks
10
1.1727490319
20
10.6288036344
11
1.0984461692
21
10.6335617972
62
2
0
LINE
8
Setbacks
10
1.0984461692
20
10.6335617972
11
1.0242322172
21
10.6382861675
62
2
0
LINE
8
Setbacks
10
1.0242322172
20
10.6382861675
11
1.0237127428
21
10.6383613077
62
2
0
LINE
8
Setbacks
10
1.0237127428
20
10.6383613077
11
1.0236272428
21
10.6383881129
62
2
0
LINE
8
Setbacks
10
1.0236272428
20
10.6383881129
11
1.0235420591
21
10.6384003976
62
2
0
LINE
8
Setbacks
10
1.0235420591
20
10.6384003976
11
1.0230409276
21
10.6385573162
62
2
0
LINE
8
Setbacks
10
1.0230409276
20
10.6385573162
11
0.9527704877
21
10.6669156870
62
2
0
LINE
8
Setbacks
10
0.9527704877
20
10.6669156870
11
0.8824344310
21
10.6952704491
62
2
0
LINE
8
Setbacks
10
0.8824344310
20
10.6952704491
11
0.8819849504
21
10.6954929843
62
2
0
LINE
8
Setbacks
10
0.8819849504
20
10.6954929843
11
0.8819069128
21
10.6955478449
62
2
0
LINE
8
Setbacks
10
0.8819069128
20
10.6955478449
11
0.8818249231
21
10.6955886476
62
2
0
LINE
8
Setbacks
10
0.8818249231
20
10.6955886476
11
0.8814151547
21
10.6958779903
62
2
0
LINE
8
Setbacks
10
0.8814151547
20
10.6958779903
11
0.8220251786
21
10.7450285416
62
2
0
LINE
8
Setbacks
10
0.8220251786
20
10.7450285416
11
0.7624826436
21
10.7942699723
62
2
0
LINE
8
Setbacks
10
0.7624826436
20
10.7942699723
11
0.7621297419
21
10.7946092088
62
2
0
LINE
8
Setbacks
10
0.7621297419
20
10.7946092088
11
0.7620727497
21
10.7946832831
62
2
0
LINE
8
Setbacks
10
0.7620727497
20
10.7946832831
11
0.7620064073
21
10.7947471685
62
2
0
LINE
8
Setbacks
10
0.7620064073
20
10.7947471685
11
0.7617086891
21
10.7951346020
62
2
0
LINE
8
Setbacks
10
0.7617086891
20
10.7951346020
11
0.7188736977
21
10.8604202181
62
2
0
LINE
8
Setbacks
10
0.7188736977
20
10.8604202181
11
0.6760925122
21
10.9255746007
62
2
0
LINE
8
Setbacks
10
0.6760925122
20
10.9255746007
11
0.6758573280
21
10.9259978854
62
2
0
LINE
8
Setbacks
10
0.6758573280
20
10.9259978854
11
0.6757802283
21
10.9261645521
62
2
0
LINE
8
Setbacks
10
0.6757802283
20
10.9261645521
11
-0.0589093943
21
12.5144286383
62
2
0
LINE
8
Setbacks
10
-0.0589093943
20
12.5144286383
11
-0.0589106754
21
12.5144313021
62
2
0
LINE
8
Setbacks
10
-0.0589106754
20
12.5144313021
11
-0.0590405966
21
12.5147124701
62
2
0
LINE
8
Setbacks
10
-0.0590405966
20
12.5147124701
11
-0.0592103603
21
12.5151646069
62
2
0
LINE
8
Setbacks
10
-0.0592103603
20
12.5151646069
11
-0.0811434891
21
12.5898857995
62
2
0
LINE
8
Setbacks
10
-0.0811434891
20
12.5898857995
11
-0.1031645439
21
12.6647441313
62
2
0
LINE
8
Setbacks
10
-0.1031645439
20
12.6647441313
11
-0.1032672996
21
12.6652229486
62
2
0
LINE
8
Setbacks
10
-0.1032672996
20
12.6652229486
11
-0.1032768008
21
12.6653760189
62
2
0
LINE
8
Setbacks
10
-3.4249159925
20
19.9333737107
11
-3.4249288391
21
19.9334331882
62
2
0
LINE
8
Setbacks
10
-3.4249288391
20
19.9334331882
11
-3.4249594662
21
19.9339260778
62
2
0
LINE
8
Setbacks
10
-3.4249594662
20
19.9339260778
11
-3.4239345371
21
20.0111320440
62
2
0
LINE
8
Setbacks
10
-3.4239345371
20
20.0111320440
11
-3.4229286368
21
20.0883268553
62
2
0
LINE
8
Setbacks
10
-3.4229286368
20
20.0883268553
11
-3.4228839564
21
20.0888253880
62
2
0
LINE
8
Setbacks
10
-3.4228839564
20
20.0888253880
11
-3.4228681806
21
20.0888892734
62
2
0
LINE
8
Setbacks
10
-3.4228681806
20
20.0888892734
11
-3.4228619393
21
20.0889570723
62
2
0
LINE
8
Setbacks
10
-3.4228619393
20
20.0889570723
11
-3.4227406202
21
20.0894430768
62
2
0
LINE
8
Setbacks
10
-3.4227406202
20
20.0894430768
11
-3.3986803828
21
20.1617950481
62
2
0
LINE
8
Setbacks
10
-3.3986803828
20
20.1617950481
11
-3.3748983605
21
20.2333707726
62
2
0
LINE
8
Setbacks
10
-3.3748983605
20
20.2333707726
11
-3.3746941702
21
20.2338528424
62
2
0
LINE
8
Setbacks
10
-3.3746941702
20
20.2338528424
11
-3.3746620818
21
20.2339039787
62
2
0
LINE
8
Setbacks
10
-3.3746620818
20
20.2339039787
11
-3.3746367147
21
20.2339637310
62
2
0
LINE
8
Setbacks
10
-3.3746367147
20
20.2339637310
11
-3.3743587087
21
20.2344062400
62
2
0
LINE
8
Setbacks
10
-3.3743587087
20
20.2344062400
11
-3.3297854811
21
20.2941903358
62
2
0
LINE
8
Setbacks
10
-3.3297854811
20
20.2941903358
11
-3.2853884345
21
20.3537716756
62
2
0
LINE
8
Setbacks
10
-3.2853884345
20
20.3537716756
11
-3.2850283635
21
20.3541794211
62
2
0
LINE
8
Setbacks
10
-3.2850283635
20
20.3541794211
11
-3.2849841874
21
20.3542152482
62
2
0
LINE
8
Setbacks
10
-3.2849841874
20
20.3542152482
11
-3.2849458911
21
20.3542588006
62
2
0
LINE
8
Setbacks
10
-3.2849458911
20
20.3542588006
11
-3.2845236053
21
20.3546026356
62
2
0
LINE
8
Setbacks
10
-3.2845236053
20
20.3546026356
11
-3.2238868393
21
20.3961102542
62
2
0
LINE
8
Setbacks
10
-3.2238868393
20
20.3961102542
11
-3.1631342595
21
20.4377218754
62
2
0
LINE
8
Setbacks
10
-3.1631342595
20
20.4377218754
11
-3.1626585883
21
20.4379923687
62
2
0
LINE
8
Setbacks
10
-3.1626585883
20
20.4379923687
11
-0.2988917644
21
21.7637463481
62
2
0
LINE
8
Setbacks
10
-0.2988917644
20
21.7637463481
11
-0.2986250504
21
21.7638437704
62
2
0
LINE
8
Setbacks
10
-0.2986250504
20
21.7638437704
11
-0.2983813370
21
21.7639818818
62
2
0
LINE
8
Setbacks
10
-0.2983813370
20
21.7639818818
11
-0.2978675302
21
21.7641687018
62
2
0
LINE
8
Setbacks
10
-0.2978675302
20
21.7641687018
11
-0.2272960329
21
21.7833449974
62
2
0
LINE
8
Setbacks
10
-0.2272960329
20
21.7833449974
11
-0.1563416608
21
21.8027214217
62
2
0
LINE
8
Setbacks
10
-0.1563416608
20
21.8027214217
11
-0.1558107688
21
21.8028203276
62
2
0
LINE
8
Setbacks
10
-0.1558107688
20
21.8028203276
11
-0.1555220621
21
21.8028259302
62
2
0
LINE
8
Setbacks
10
-0.1555220621
20
21.8028259302
11
-0.1552476398
21
21.8028766146
62
2
0
LINE
8
Setbacks
10
-0.1552476398
20
21.8028766146
11
-0.1547077208
21
21.8028862570
62
2
0
LINE
8
Setbacks
10
-0.1547077208
20
21.8028862570
11
-0.0807441712
21
21.7981065307
62
2
0
LINE
8
Setbacks
10
-0.0807441712
20
21.7981065307
11
-0.0065781939
21
21.7934048859
62
2
0
LINE
8
Setbacks
10
-0.0065781939
20
21.7934048859
11
-0.0060596652
21
21.7933301022
62
2
0
LINE
8
Setbacks
10
-0.0060596652
20
21.7933301022
11
-0.0057797012
21
21.7932425509
62
2
0
LINE
8
Setbacks
10
-0.0057797012
20
21.7932425509
11
-0.0055007582
21
21.7932020182
62
2
0
LINE
8
Setbacks
10
-0.0055007582
20
21.7932020182
11
-0.0050007987
21
21.7930450649
62
2
0
LINE
8
Setbacks
10
-0.0050007987
20
21.7930450649
11
0.0650443135
21
21.7647318177
62
2
0
LINE
8
Setbacks
10
0.0650443135
20
21.7647318177
11
0.1352318132
21
21.7364579384
62
2
0
LINE
8
Setbacks
10
0.1352318132
20
21.7364579384
11
0.1356848648
21
21.7362334289
62
2
0
LINE
8
Setbacks
10
0.1356848648
20
21.7362334289
11
0.1359282635
21
21.7360617323
62
2
0
LINE
8
Setbacks
10
0.1359282635
20
21.7360617323
11
0.1361848049
21
21.7359344541
62
2
0
LINE
8
Setbacks
10
0.1361848049
20
21.7359344541
11
0.1365977359
21
21.7356429063
62
2
0
LINE
8
Setbacks
10
0.1365977359
20
21.7356429063
11
0.1958987897
21
21.6865115531
62
2
0
LINE
8
Setbacks
10
0.1958987897
20
21.6865115531
11
0.2552064038
21
21.6374887941
62
2
0
LINE
8
Setbacks
10
0.2552064038
20
21.6374887941
11
0.2555591201
21
21.6371499431
62
2
0
LINE
8
Setbacks
10
0.2555591201
20
21.6371499431
11
0.2557423859
21
21.6369119585
62
2
0
LINE
8
Setbacks
10
0.2557423859
20
21.6369119585
11
0.2559555288
21
21.6367065520
62
2
0
LINE
8
Setbacks
10
0.2559555288
20
21.6367065520
11
0.2562532551
21
21.6363187217
62
2
0
LINE
8
Setbacks
10
0.2562532551
20
21.6363187217
11
0.2989714110
21
21.5711358708
62
2
0
LINE
8
Setbacks
10
0.2989714110
20
21.5711358708
11
0.3416278854
21
21.5062056434
62
2
0
LINE
8
Setbacks
10
0.3416278854
20
21.5062056434
11
0.3418632507
21
21.5057822453
62
2
0
LINE
8
Setbacks
10
0.3418632507
20
21.5057822453
11
0.3419680874
21
21.5055033617
62
2
0
LINE
8
Setbacks
10
0.3419680874
20
21.5055033617
11
0.3421137517
21
21.5052406460
62
2
0
LINE
8
Setbacks
10
0.3421137517
20
21.5052406460
11
1.0769690901
21
19.9129663168
62
2
0
LINE
8
Setbacks
10
1.0769690901
20
19.9129663168
11
1.0769690482
21
19.9129662974
62
2
0
LINE
8
Setbacks
10
1.0769690482
20
19.9129662974
11
1.0769716250
21
19.9129609264
62
2
0
LINE
8
Setbacks
10
1.0769716250
20
19.9129609264
11
1.0770129636
21
19.9128710314
62
2
0
LINE
8
Setbacks
10
1.0770129636
20
19.9128710314
11
1.0771810191
21
19.9124215936
62
2
0
LINE
8
Setbacks
10
1.0771810191
20
19.9124215936
11
1.0988646595
21
19.8383096850
62
2
0
LINE
8
Setbacks
10
1.0988646595
20
19.8383096850
11
1.1210322237
21
19.7625970546
62
2
0
LINE
8
Setbacks
10
1.1210322237
20
19.7625970546
11
1.1211341474
21
19.7621197309
62
2
0
LINE
8
Setbacks
10
1.1211341474
20
19.7621197309
11
1.1211373775
21
19.7620672450
62
2
0
LINE
8
Setbacks
10
1.1211373775
20
19.7620672450
11
1.1211477611
21
19.7620183615
62
2
0
LINE
8
Setbacks
10
1.1211477611
20
19.7620183615
11
1.1211771999
21
19.7615309145
62
2
0
LINE
8
Setbacks
10
1.1211771999
20
19.7615309145
11
1.1200915744
21
19.6849242687
62
2
0
LINE
8
Setbacks
10
1.1200915744
20
19.6849242687
11
1.1190036522
21
19.6071109299
62
2
0
LINE
8
Setbacks
10
1.1190036522
20
19.6071109299
11
1.1189578562
21
19.6066086387
62
2
0
LINE
8
Setbacks
10
1.1189578562
20
19.6066086387
11
1.1189463597
21
19.6065626192
62
2
0
LINE
8
Setbacks
10
1.1189463597
20
19.6065626192
11
1.1189419217
21
19.6065136747
62
2
0
LINE
8
Setbacks
10
1.1189419217
20
19.6065136747
11
1.1188193077
21
19.6060228211
62
2
0
LINE
8
Setbacks
10
1.1188193077
20
19.6060228211
11
1.0949657340
21
19.5345142651
62
2
0
LINE
8
Setbacks
10
1.0949657340
20
19.5345142651
11
1.0708336169
21
19.4621234912
62
2
0
LINE
8
Setbacks
10
1.0708336169
20
19.4621234912
11
1.0706293116
21
19.4616423124
62
2
0
LINE
8
Setbacks
10
1.0706293116
20
19.4616423124
11
1.0706025584
21
19.4615997381
62
2
0
LINE
8
Setbacks
10
1.0706025584
20
19.4615997381
11
1.0705827728
21
19.4615533710
62
2
0
LINE
8
Setbacks
10
1.0705827728
20
19.4615533710
11
1.0703052400
21
19.4611128446
62
2
0
LINE
8
Setbacks
10
1.0703052400
20
19.4611128446
11
1.0260042601
21
19.4018129171
62
2
0
LINE
8
Setbacks
10
1.0260042601
20
19.4018129171
11
0.9812049206
21
19.3418200763
62
2
0
LINE
8
Setbacks
10
0.9812049206
20
19.3418200763
11
0.9808447186
21
19.3414129742
62
2
0
LINE
8
Setbacks
10
0.9808447186
20
19.3414129742
11
0.9808102024
21
19.3413850296
62
2
0
LINE
8
Setbacks
10
0.9808102024
20
19.3413850296
11
0.9807795004
21
19.3413502681
62
2
0
LINE
8
Setbacks
10
0.9807795004
20
19.3413502681
11
0.9803587875
21
19.3410086852
62
2
0
LINE
8
Setbacks
10
0.9803587875
20
19.3410086852
11
0.9198124873
21
19.2996506140
62
2
0
LINE
8
Setbacks
10
0.9198124873
20
19.2996506140
11
0.8588652685
21
19.2579995639
62
2
0
LINE
8
Setbacks
10
0.8588652685
20
19.2579995639
11
0.8583893093
21
19.2577295678
62
2
0
LINE
8
Setbacks
10
0.8583893093
20
19.2577295678
11
-2.0053775146
21
17.9356278195
62
2
0
LINE
8
Setbacks
10
-2.0053775146
20
17.9356278195
11
-2.0058917230
21
17.9354406884
62
2
0
LINE
8
Setbacks
10
-2.0058917230
20
17.9354406884
11
-2.0768170030
21
17.9161523088
62
2
0
LINE
8
Setbacks
10
-2.0768170030
20
17.9161523088
11
-2.1476248292
21
17.8968366992
62
2
0
LINE
8
Setbacks
10
-2.1476248292
20
17.8968366992
11
-2.1481556944
21
17.8967379438
62
2
0
LINE
8
Setbacks
10
-2.1481556944
20
17.8967379438
11
-2.1483335899
21
17.8967345359
62
2
0
LINE
8
Setbacks
10
-2.1483335899
20
17.8967345359
11
-2.1485036271
21
17.8967031128
62
2
0
LINE
8
Setbacks
10
-2.1485036271
20
17.8967031128
11
-2.1490433188
21
17.8966933820
62
2
0
LINE
8
Setbacks
10
-2.1490433188
20
17.8966933820
11
-2.2232349992
21
17.9014725020
62
2
0
LINE
8
Setbacks
10
-2.2232349992
20
17.9014725020
11
-2.2973873094
21
17.9061928960
62
2
0
LINE
8
Setbacks
10
-2.2973873094
20
17.9061928960
11
-2.2979046457
21
17.9062675501
62
2
0
LINE
8
Setbacks
10
-2.2979046457
20
17.9062675501
11
-2.2980775149
21
17.9063215560
62
2
0
LINE
8
Setbacks
10
-2.2980775149
20
17.9063215560
11
-2.2982519408
21
17.9063469742
62
2
0
LINE
8
Setbacks
10
-2.2982519408
20
17.9063469742
11
-2.2987506333
21
17.9065035311
62
2
0
LINE
8
Setbacks
10
-2.2987506333
20
17.9065035311
11
-2.3689303012
21
17.9348547901
62
2
0
LINE
8
Setbacks
10
-2.3689303012
20
17.9348547901
11
-2.4391850999
21
17.9631768505
62
2
0
LINE
8
Setbacks
10
-2.4391850999
20
17.9631768505
11
-2.4396381251
21
17.9634014957
62
2
0
LINE
8
Setbacks
10
-2.4396381251
20
17.9634014957
11
-2.4397886788
21
17.9635077602
62
2
0
LINE
8
Setbacks
10
-2.4397886788
20
17.9635077602
11
-2.4399454737
21
17.9635855114
62
2
0
LINE
8
Setbacks
10
-2.4399454737
20
17.9635855114
11
-2.4403584826
21
17.9638769938
62
2
0
LINE
8
Setbacks
10
-2.4403584826
20
17.9638769938
11
-2.4995987337
21
18.0129389203
62
2
0
LINE
8
Setbacks
10
-2.4995987337
20
18.0129389203
11
-2.5591368847
21
18.0621767004
62
2
0
LINE
8
Setbacks
10
-2.5591368847
20
18.0621767004
11
-2.5594903440
21
18.0625165595
62
2
0
LINE
8
Setbacks
10
-2.5594903440
20
18.0625165595
11
-2.5596030182
21
18.0626631208
62
2
0
LINE
8
Setbacks
10
-2.5596030182
20
18.0626631208
11
-2.5597337154
21
18.0627889100
62
2
0
LINE
8
Setbacks
10
-2.5597337154
20
18.0627889100
11
-2.5600321927
21
18.0631774436
62
2
0
LINE
8
Setbacks
10
-2.5600321927
20
18.0631774436
11
-2.6028006020
21
18.1284104224
62
2
0
LINE
8
Setbacks
10
-2.6028006020
20
18.1284104224
11
-2.6455270159
21
18.1934813282
62
2
0
LINE
8
Setbacks
10
-2.6455270159
20
18.1934813282
11
-2.6457622287
21
18.1939046744
62
2
0
LINE
8
Setbacks
10
-2.6457622287
20
18.1939046744
11
-3.3806051000
21
19.7825005257
62
2
0
LINE
8
Setbacks
10
-3.3806051000
20
19.7825005257
11
-3.3806047089
21
19.7825007067
62
2
0
LINE
8
Setbacks
10
-3.3806047089
20
19.7825007067
11
-3.3806084892
21
19.7825070490
62
2
0
LINE
8
Setbacks
10
-3.3806084892
20
19.7825070490
11
-3.3806619668
21
19.7826231907
62
2
0
LINE
8
Setbacks
10
-3.3806619668
20
19.7826231907
11
-3.3808298863
21
19.7830713257
62
2
0
LINE
8
Setbacks
10
-3.3808298863
20
19.7830713257
11
-3.4026765627
21
19.8574971375
62
2
0
LINE
8
Setbacks
10
-3.4026765627
20
19.8574971375
11
-3.4248093282
21
19.9328317420
62
2
0
LINE
8
Setbacks
10
-3.4248093282
20
19.9328317420
11
-3.4249124340
21
19.9333143742
62
2
0
LINE
8
Setbacks
10
-3.4249124340
20
19.9333143742
11
-3.4249159925
21
19.9333737107
62
2
0
LINE
8
Setbacks
10
10.0456284576
20
53.7711168615
11
-2.7497897877
21
47.9103219626
62
2
0
LINE
8
Setbacks
10
-2.7497897877
20
47.9103219626
11
4.5755793232
21
31.9174124372
62
2
0
LINE
8
Setbacks
10
4.5755793232
20
31.9174124372
11
17.3709975421
21
37.7782076513
62
2
0
LINE
8
Setbacks
10
6.7847555616
20
37.0310045646
11
6.7847275580
21
37.0311375885
62
2
0
LINE
8
Setbacks
10
6.7847275580
20
37.0311375885
11
6.7846991726
21
37.0316269388
62
2
0
LINE
8
Setbacks
10
6.7846991726
20
37.0316269388
11
6.7859957461
21
37.1086565965
62
2
0
LINE
8
Setbacks
10
6.7859957461
20
37.1086565965
11
6.7872552466
21
37.1858804798
62
2
0
LINE
8
Setbacks
10
6.7872552466
20
37.1858804798
11
6.7873022157
21
37.1863826855
62
2
0
LINE
8
Setbacks
10
6.7873022157
20
37.1863826855
11
6.7873343559
21
37.1865100720
62
2
0
LINE
8
Setbacks
10
6.7873343559
20
37.1865100720
11
6.7873471531
21
37.1866460151
62
2
0
LINE
8
Setbacks
10
6.7873471531
20
37.1866460151
11
6.7874707559
21
37.1871348037
62
2
0
LINE
8
Setbacks
10
6.7874707559
20
37.1871348037
11
6.8116617490
21
37.2590253761
62
2
0
LINE
8
Setbacks
10
6.8116617490
20
37.2590253761
11
6.8357602228
21
37.3307683106
62
2
0
LINE
8
Setbacks
10
6.8357602228
20
37.3307683106
11
6.8359651888
21
37.3312481860
62
2
0
LINE
8
Setbacks
10
6.8359651888
20
37.3312481860
11
6.8360346935
21
37.3313583402
62
2
0
LINE
8
Setbacks
10
6.8360346935
20
37.3313583402
11
6.8360884432
21
37.3314836205
62
2
0
LINE
8
Setbacks
10
6.8360884432
20
37.3314836205
11
6.8363677597
21
37.3319246468
62
2
0
LINE
8
Setbacks
10
6.8363677597
20
37.3319246468
11
6.8811844684
21
37.3915918956
62
2
0
LINE
8
Setbacks
10
6.8811844684
20
37.3915918956
11
6.9256635791
21
37.4508785666
62
2
0
LINE
8
Setbacks
10
6.9256635791
20
37.4508785666
11
6.9260233813
21
37.4512836119
62
2
0
LINE
8
Setbacks
10
6.9260233813
20
37.4512836119
11
6.9261210382
21
37.4513624479
62
2
0
LINE
8
Setbacks
10
6.9261210382
20
37.4513624479
11
6.9262079902
21
37.4514603665
62
2
0
LINE
8
Setbacks
10
6.9262079902
20
37.4514603665
11
6.9266294040
21
37.4518006999
62
2
0
LINE
8
Setbacks
10
6.9266294040
20
37.4518006999
11
6.9875013281
21
37.4931522046
62
2
0
LINE
8
Setbacks
10
6.9875013281
20
37.4931522046
11
7.0481908379
21
37.5344308743
62
2
0
LINE
8
Setbacks
10
7.0481908379
20
37.5344308743
11
7.0486663370
21
37.5346993345
62
2
0
LINE
8
Setbacks
10
7.0486663370
20
37.5346993345
11
7.0487886829
21
37.5347436264
62
2
0
LINE
8
Setbacks
10
7.0487886829
20
37.5347436264
11
7.0489003957
21
37.5348065718
62
2
0
LINE
8
Setbacks
10
7.0489003957
20
37.5348065718
11
9.3439965977
21
38.5866445320
62
2
0
LINE
8
Setbacks
10
9.3439965977
20
38.5866445320
11
9.3442020598
21
38.5867186666
62
2
0
LINE
8
Setbacks
10
9.3442020598
20
38.5867186666
11
9.3443908867
21
38.5868248081
62
2
0
LINE
8
Setbacks
10
9.3443908867
20
38.5868248081
11
9.3449054769
21
38.5870098649
62
2
0
LINE
8
Setbacks
10
9.3449054769
20
38.5870098649
11
9.4156942942
21
38.6059763166
62
2
0
LINE
8
Setbacks
10
9.4156942942
20
38.6059763166
11
9.4866957104
21
38.6250736723
62
2
0
LINE
8
Setbacks
10
9.4866957104
20
38.6250736723
11
9.4872270499
21
38.6251705513
62
2
0
LINE
8
Setbacks
10
9.4872270499
20
38.6251705513
11
9.4874489504
21
38.6251739999
62
2
0
LINE
8
Setbacks
10
9.4874489504
20
38.6251739999
11
9.4876617411
21
38.6252125686
62
2
0
LINE
8
Setbacks
10
9.4876617411
20
38.6252125686
11
9.4882021491
21
38.6252203429
62
2
0
LINE
8
Setbacks
10
9.4882021491
20
38.6252203429
11
9.5623679272
21
38.6201636897
62
2
0
LINE
8
Setbacks
10
9.5623679272
20
38.6201636897
11
9.6364247812
21
38.6151847910
62
2
0
LINE
8
Setbacks
10
9.6364247812
20
38.6151847910
11
9.6369424437
21
38.6151081596
62
2
0
LINE
8
Setbacks
10
9.6369424437
20
38.6151081596
11
9.6371583965
21
38.6150397836
62
2
0
LINE
8
Setbacks
10
9.6371583965
20
38.6150397836
11
9.6373746140
21
38.6150074916
62
2
0
LINE
8
Setbacks
10
9.6373746140
20
38.6150074916
11
9.6378731272
21
38.6148489759
62
2
0
LINE
8
Setbacks
10
9.6378731272
20
38.6148489759
11
9.7078927397
21
38.5862573499
62
2
0
LINE
8
Setbacks
10
9.7078927397
20
38.5862573499
11
9.7780189789
21
38.5576968905
62
2
0
LINE
8
Setbacks
10
9.7780189789
20
38.5576968905
11
9.7784696127
21
38.5574715909
62
2
0
LINE
8
Setbacks
10
9.7784696127
20
38.5574715909
11
9.7786582500
21
38.5573376796
62
2
0
LINE
8
Setbacks
10
9.7786582500
20
38.5573376796
11
9.7788570403
21
38.5572380161
62
2
0
LINE
8
Setbacks
10
9.7788570403
20
38.5572380161
11
9.7792677427
21
38.5569457246
62
2
0
LINE
8
Setbacks
10
9.7792677427
20
38.5569457246
11
9.8383532429
21
38.5076389115
62
2
0
LINE
8
Setbacks
10
9.8383532429
20
38.5076389115
11
9.8976185323
21
38.4582710737
62
2
0
LINE
8
Setbacks
10
9.8976185323
20
38.4582710737
11
9.8979699799
21
38.4579308623
62
2
0
LINE
8
Setbacks
10
9.8979699799
20
38.4579308623
11
9.8981119571
21
38.4577450330
62
2
0
LINE
8
Setbacks
10
9.8981119571
20
38.4577450330
11
9.8982745495
21
38.4575872357
62
2
0
LINE
8
Setbacks
10
9.8982745495
20
38.4575872357
11
9.8985709357
21
38.4571983150
62
2
0
LINE
8
Setbacks
10
9.8985709357
20
38.4571983150
11
9.9409687867
21
38.3920019942
62
2
0
LINE
8
Setbacks
10
9.9409687867
20
38.3920019942
11
9.9835415054
21
38.3266603314
62
2
0
LINE
8
Setbacks
10
9.9835415054
20
38.3266603314
11
9.9837753159
21
38.3262359269
62
2
0
LINE
8
Setbacks
10
9.9837753159
20
38.3262359269
11
9.9838555755
21
38.3260198991
62
2
0
LINE
8
Setbacks
10
9.9838555755
20
38.3260198991
11
9.9839670043
21
38.3258172471
62
2
0
LINE
8
Setbacks
10
9.9839670043
20
38.3258172471
11
10.7888544972
21
36.5654500648
62
2
0
LINE
8
Setbacks
10
10.7888544972
20
36.5654500648
11
10.7890228234
21
36.5649959569
62
2
0
LINE
8
Setbacks
10
10.7890228234
20
36.5649959569
11
10.8105757148
21
36.4903523182
62
2
0
LINE
8
Setbacks
10
10.8105757148
20
36.4903523182
11
10.8322654146
21
36.4155968020
62
2
0
LINE
8
Setbacks
10
10.8322654146
20
36.4155968020
11
10.8323663654
21
36.4151178093
62
2
0
LINE
8
Setbacks
10
10.8323663654
20
36.4151178093
11
10.8323862086
21
36.4147782627
62
2
0
LINE
8
Setbacks
10
10.8323862086
20
36.4147782627
11
10.8324572151
21
36.4144388890
62
2
0
LINE
8
Setbacks
10
10.8324572151
20
36.4144388890
11
10.8324850682
21
36.4139502743
62
2
0
LINE
8
Setbacks
10
10.8324850682
20
36.4139502743
11
10.8311238860
21
36.3371095877
62
2
0
LINE
8
Setbacks
10
10.8311238860
20
36.3371095877
11
10.8298614543
21
36.2601074839
62
2
0
LINE
8
Setbacks
10
10.8298614543
20
36.2601074839
11
10.8298143456
21
36.2596047192
62
2
0
LINE
8
Setbacks
10
10.8298143456
20
36.2596047192
11
10.8297329194
21
36.2592824598
62
2
0
LINE
8
Setbacks
10
10.8297329194
20
36.2592824598
11
10.8297006321
21
36.2589412471
62
2
0
LINE
8
Setbacks
10
10.8297006321
20
36.2589412471
11
10.8295764222
21
36.2584516466
62
2
0
LINE
8
Setbacks
10
10.8295764222
20
36.2584516466
11
10.8054380290
21
36.1869337501
62
2
0
LINE
8
Setbacks
10
10.8054380290
20
36.1869337501
11
10.7813439242
21
36.1152245816
62
2
0
LINE
8
Setbacks
10
10.7813439242
20
36.1152245816
11
10.7811380631
21
36.1147430999
62
2
0
LINE
8
Setbacks
10
10.7811380631
20
36.1147430999
11
10.7809635549
21
36.1144670980
62
2
0
LINE
8
Setbacks
10
10.7809635549
20
36.1144670980
11
10.7808304959
21
36.1141570503
62
2
0
LINE
8
Setbacks
10
10.7808304959
20
36.1141570503
11
10.7805498964
21
36.1137146507
62
2
0
LINE
8
Setbacks
10
10.7805498964
20
36.1137146507
11
10.7359676270
21
36.0544766711
62
2
0
LINE
8
Setbacks
10
10.7359676270
20
36.0544766711
11
10.6914296464
21
35.9951232078
62
2
0
LINE
8
Setbacks
10
10.6914296464
20
35.9951232078
11
10.6910704432
21
35.9947188044
62
2
0
LINE
8
Setbacks
10
10.6910704432
20
35.9947188044
11
10.6908197306
21
35.9945162826
62
2
0
LINE
8
Setbacks
10
10.6908197306
20
35.9945162826
11
10.6905995721
21
35.9942690726
62
2
0
LINE
8
Setbacks
10
10.6905995721
20
35.9942690726
11
10.6901785644
21
35.9939298493
62
2
0
LINE
8
Setbacks
10
10.6901785644
20
35.9939298493
11
10.6294636706
21
35.9527710796
62
2
0
LINE
8
Setbacks
10
10.6294636706
20
35.9527710796
11
10.5688947723
21
35.9115827852
62
2
0
LINE
8
Setbacks
10
10.5688947723
20
35.9115827852
11
10.5684182054
21
35.9113138912
62
2
0
LINE
8
Setbacks
10
10.5684182054
20
35.9113138912
11
8.2762767279
21
34.8594939756
62
2
0
LINE
8
Setbacks
10
8.2762767279
20
34.8594939756
11
8.2762765803
21
34.8594942971
62
2
0
LINE
8
Setbacks
10
8.2762765803
20
34.8594942971
11
8.2762715065
21
34.8594914069
62
2
0
LINE
8
Setbacks
10
8.2762715065
20
34.8594914069
11
8.2762334487
21
34.8594740185
62
2
0
LINE
8
Setbacks
10
8.2762334487
20
34.8594740185
11
8.2757237006
21
34.8592903088
62
2
0
LINE
8
Setbacks
10
8.2757237006
20
34.8592903088
11
8.2038301500
21
34.8399160055
62
2
0
LINE
8
Setbacks
10
8.2038301500
20
34.8399160055
11
8.1336009695
21
34.8209829751
62
2
0
LINE
8
Setbacks
10
8.1336009695
20
34.8209829751
11
8.1330810677
21
34.8208869351
62
2
0
LINE
8
Setbacks
10
8.1330810677
20
34.8208869351
11
8.1330394010
21
34.8208826700
62
2
0
LINE
8
Setbacks
10
8.1330394010
20
34.8208826700
11
8.1324867719
21
34.8208729023
62
2
0
LINE
8
Setbacks
10
8.1324867719
20
34.8208729023
11
8.0582743282
21
34.8258272883
62
2
0
LINE
8
Setbacks
10
8.0582743282
20
34.8258272883
11
7.9838709395
21
34.8307872518
62
2
0
LINE
8
Setbacks
10
7.9838709395
20
34.8307872518
11
7.9833349225
21
34.8308678607
62
2
0
LINE
8
Setbacks
10
7.9833349225
20
34.8308678607
11
7.9832932558
21
34.8308777032
62
2
0
LINE
8
Setbacks
10
7.9832932558
20
34.8308777032
11
7.9828113738
21
34.8310316054
62
2
0
LINE
8
Setbacks
10
7.9828113738
20
34.8310316054
11
7.9140982531
21
34.8589803699
62
2
0
LINE
8
Setbacks
10
7.9140982531
20
34.8589803699
11
7.8422499618
21
34.8881968509
62
2
0
LINE
8
Setbacks
10
7.8422499618
20
34.8881968509
11
7.8417869876
21
34.8884292658
62
2
0
LINE
8
Setbacks
10
7.8417869876
20
34.8884292658
11
7.8417495860
21
34.8884519036
62
2
0
LINE
8
Setbacks
10
7.8417495860
20
34.8884519036
11
7.8413496618
21
34.8887369267
62
2
0
LINE
8
Setbacks
10
7.8413496618
20
34.8887369267
11
7.7822444566
21
34.9379281083
62
2
0
LINE
8
Setbacks
10
7.7822444566
20
34.9379281083
11
7.7226018498
21
34.9875576101
62
2
0
LINE
8
Setbacks
10
7.7226018498
20
34.9875576101
11
7.7222509260
21
34.9878968513
62
2
0
LINE
8
Setbacks
10
7.7222509260
20
34.9878968513
11
7.7222213984
21
34.9879299878
62
2
0
LINE
8
Setbacks
10
7.7222213984
20
34.9879299878
11
7.7219227455
21
34.9883205109
62
2
0
LINE
8
Setbacks
10
7.7219227455
20
34.9883205109
11
7.6793535985
21
35.0535963087
62
2
0
LINE
8
Setbacks
10
7.6793535985
20
35.0535963087
11
7.6366122075
21
35.1191234189
62
2
0
LINE
8
Setbacks
10
7.6366122075
20
35.1191234189
11
7.6363782783
21
35.1195474885
62
2
0
LINE
8
Setbacks
10
7.6363782783
20
35.1195474885
11
6.8285744467
21
36.8799146708
62
2
0
LINE
8
Setbacks
10
6.8285744467
20
36.8799146708
11
6.8285262740
21
36.8800439373
62
2
0
LINE
8
Setbacks
10
6.8285262740
20
36.8800439373
11
6.8284603579
21
36.8801637408
62
2
0
LINE
8
Setbacks
10
6.8284603579
20
36.8801637408
11
6.8282921744
21
36.8806165376
62
2
0
LINE
8
Setbacks
10
6.8282921744
20
36.8806165376
11
6.8066644539
21
36.9552778092
62
2
0
LINE
8
Setbacks
10
6.8066644539
20
36.9552778092
11
6.7848644897
21
37.0303901964
62
2
0
LINE
8
Setbacks
10
6.7848644897
20
37.0303901964
11
6.7847633490
21
37.0308703050
62
2
0
LINE
8
Setbacks
10
6.7847633490
20
37.0308703050
11
6.7847555616
21
37.0310045646
62
2
0
LINE
8
Setbacks
10
-10.7888151794
20
24.8799276409
11
2.0066030841
21
30.7407222209
62
2
0
LINE
8
Setbacks
10
2.0066030841
20
30.7407222209
11
-5.3187663548
21
46.7336317464
62
2
0
LINE
8
Setbacks
10
-5.3187663548
20
46.7336317464
11
-18.1141843740
21
40.8728368012
62
2
0
LINE
8
Setbacks
10
-11.7280890899
20
31.6679017147
11
-11.7742545857
21
31.6602210234
62
2
0
LINE
8
Setbacks
10
-11.7742545857
20
31.6602210234
11
-11.7747930277
21
31.6601765381
62
2
0
LINE
8
Setbacks
10
-11.7747930277
20
31.6601765381
11
-11.8429921769
21
31.6601765381
62
2
0
LINE
8
Setbacks
10
-11.8429921769
20
31.6601765381
11
-11.8435228461
21
31.6602197398
62
2
0
LINE
8
Setbacks
10
-11.8435228461
20
31.6602197398
11
-11.8912746678
21
31.6680465626
62
2
0
LINE
8
Setbacks
10
-11.8912746678
20
31.6680465626
11
-11.9393162195
21
31.6703439974
62
2
0
LINE
8
Setbacks
10
-11.9393162195
20
31.6703439974
11
-11.9398416323
21
31.6704119475
62
2
0
LINE
8
Setbacks
10
-11.9398416323
20
31.6704119475
11
-12.0065502959
21
31.6845914099
62
2
0
LINE
8
Setbacks
10
-12.0065502959
20
31.6845914099
11
-12.0070488198
21
31.6847395143
62
2
0
LINE
8
Setbacks
10
-12.0070488198
20
31.6847395143
11
-12.0538830399
21
31.7028036283
62
2
0
LINE
8
Setbacks
10
-12.0538830399
20
31.7028036283
11
-12.1020572530
21
31.7156805334
62
2
0
LINE
8
Setbacks
10
-12.1020572530
20
31.7156805334
11
-12.1025444644
21
31.7158528971
62
2
0
LINE
8
Setbacks
10
-12.1025444644
20
31.7158528971
11
-12.1648472879
21
31.7435917431
62
2
0
LINE
8
Setbacks
10
-12.1648472879
20
31.7435917431
11
-12.1652931283
21
31.7438331225
62
2
0
LINE
8
Setbacks
10
-12.1652931283
20
31.7438331225
11
-12.2091029218
21
31.7721344428
62
2
0
LINE
8
Setbacks
10
-12.2091029218
20
31.7721344428
11
-12.2552189852
21
31.7958302407
62
2
0
LINE
8
Setbacks
10
-12.2552189852
20
31.7958302407
11
-12.2556479851
21
31.7960941401
62
2
0
LINE
8
Setbacks
10
-12.2556479851
20
31.7960941401
11
-12.3108218714
21
31.8361804275
62
2
0
LINE
8
Setbacks
10
-12.3108218714
20
31.8361804275
11
-12.3111995166
21
31.8365010318
62
2
0
LINE
8
Setbacks
10
-12.3111995166
20
31.8365010318
11
-12.3495537040
21
31.8744020921
62
2
0
LINE
8
Setbacks
10
-12.3495537040
20
31.8744020921
11
-12.3910465586
21
31.9084702953
62
2
0
LINE
8
Setbacks
10
-12.3910465586
20
31.9084702953
11
-12.3914027723
21
31.9088106295
62
2
0
LINE
8
Setbacks
10
-12.3914027723
20
31.9088106295
11
-12.4370366321
21
31.9594920615
62
2
0
LINE
8
Setbacks
10
-12.4370366321
20
31.9594920615
11
-12.4373348748
21
31.9598773643
62
2
0
LINE
8
Setbacks
10
-12.4373348748
20
31.9598773643
11
-12.4677472007
21
32.0058548271
62
2
0
LINE
8
Setbacks
10
-12.4677472007
20
32.0058548271
11
-12.5019797655
21
32.0489055996
62
2
0
LINE
8
Setbacks
10
-12.5019797655
20
32.0489055996
11
-12.5022531093
21
32.0493071300
62
2
0
LINE
8
Setbacks
10
-12.5022531093
20
32.0493071300
11
-12.5363525198
21
32.1083691397
62
2
0
LINE
8
Setbacks
10
-12.5363525198
20
32.1083691397
11
-12.5365629327
21
32.1088049796
62
2
0
LINE
8
Setbacks
10
-12.5365629327
20
32.1088049796
11
-12.5569340732
21
32.1604136796
62
2
0
LINE
8
Setbacks
10
-12.5569340732
20
32.1604136796
11
-12.5816602977
21
32.2100909512
62
2
0
LINE
8
Setbacks
10
-12.5816602977
20
32.2100909512
11
-12.5818434388
21
32.2105390420
62
2
0
LINE
8
Setbacks
10
-12.5818434388
20
32.2105390420
11
-12.6029179146
21
32.2754002645
62
2
0
LINE
8
Setbacks
10
-12.6029179146
20
32.2754002645
11
-12.6030334809
21
32.2758725264
62
2
0
LINE
8
Setbacks
10
-12.6030334809
20
32.2758725264
11
-12.6120959969
21
32.3300208550
62
2
0
LINE
8
Setbacks
10
-12.6120959969
20
32.3300208550
11
-12.6259023943
21
32.3833000932
62
2
0
LINE
8
Setbacks
10
-12.6259023943
20
32.3833000932
11
-12.6259893215
21
32.3837801471
62
2
0
LINE
8
Setbacks
10
-12.6259893215
20
32.3837801471
11
-12.6331179307
21
32.4516052805
62
2
0
LINE
8
Setbacks
10
-12.6331179307
20
32.4516052805
11
-12.6331324510
21
32.4520986788
62
2
0
LINE
8
Setbacks
10
-12.6331324510
20
32.4520986788
11
-12.6306781374
21
32.5055590070
62
2
0
LINE
8
Setbacks
10
-12.6306781374
20
32.5055590070
11
-12.6331900628
21
32.5592631077
62
2
0
LINE
8
Setbacks
10
-12.6331900628
20
32.5592631077
11
-12.6331756720
21
32.5597593466
62
2
0
LINE
8
Setbacks
10
-12.6331756720
20
32.5597593466
11
-12.6260467347
21
32.6275848081
62
2
0
LINE
8
Setbacks
10
-12.6260467347
20
32.6275848081
11
-12.6259554707
21
32.6280814117
62
2
0
LINE
8
Setbacks
10
-12.6259554707
20
32.6280814117
11
-12.6127398072
21
32.6780065245
62
2
0
LINE
8
Setbacks
10
-12.6127398072
20
32.6780065245
11
-12.6045085168
21
32.7293114565
62
2
0
LINE
8
Setbacks
10
-12.6045085168
20
32.7293114565
11
-12.6043893667
21
32.7298055701
62
2
0
LINE
8
Setbacks
10
-12.6043893667
20
32.7298055701
11
-12.5833145628
21
32.7946667926
62
2
0
LINE
8
Setbacks
10
-12.5833145628
20
32.7946667926
11
-12.5831160188
21
32.7951454239
62
2
0
LINE
8
Setbacks
10
-12.5831160188
20
32.7951454239
11
-12.5605199979
21
32.8393802454
62
2
0
LINE
8
Setbacks
10
-12.5605199979
20
32.8393802454
11
-12.5426952782
21
32.8860955135
62
2
0
LINE
8
Setbacks
10
-12.5426952782
20
32.8860955135
11
-12.5424712864
21
32.8865663390
62
2
0
LINE
8
Setbacks
10
-12.5424712864
20
32.8865663390
11
-12.5083718759
21
32.9456283488
62
2
0
LINE
8
Setbacks
10
-12.5083718759
20
32.9456283488
11
-12.5080700342
21
32.9460652136
62
2
0
LINE
8
Setbacks
10
-12.5080700342
20
32.9460652136
11
-12.4777169221
21
32.9831714862
62
2
0
LINE
8
Setbacks
10
-12.4777169221
20
32.9831714862
11
-12.4516833940
21
33.0237668879
62
2
0
LINE
8
Setbacks
10
-12.4516833940
20
33.0237668879
11
-12.4513597952
21
33.0241911203
62
2
0
LINE
8
Setbacks
10
-12.4513597952
20
33.0241911203
11
-12.4057259355
21
33.0748725524
62
2
0
LINE
8
Setbacks
10
-12.4057259355
20
33.0748725524
11
-12.4053319250
21
33.0752434542
62
2
0
LINE
8
Setbacks
10
-12.4053319250
20
33.0752434542
11
-12.3688036940
21
33.1043401324
62
2
0
LINE
8
Setbacks
10
-12.3688036940
20
33.1043401324
11
-12.3359289191
21
33.1377807450
62
2
0
LINE
8
Setbacks
10
-12.3359289191
20
33.1377807450
11
-12.3355177383
21
33.1381349719
62
2
0
LINE
8
Setbacks
10
-12.3355177383
20
33.1381349719
11
-12.2803438521
21
33.1782212592
62
2
0
LINE
8
Setbacks
10
-12.2803438521
20
33.1782212592
11
-12.2798762368
21
33.1785046796
62
2
0
LINE
8
Setbacks
10
-12.2798762368
20
33.1785046796
11
-12.2385933593
21
33.1990334289
62
2
0
LINE
8
Setbacks
10
-12.2385933593
20
33.1990334289
11
-12.2001255288
21
33.2245614950
62
2
0
LINE
8
Setbacks
10
-12.2001255288
20
33.2245614950
11
-12.1996458455
21
33.2248250341
62
2
0
LINE
8
Setbacks
10
-12.1996458455
20
33.2248250341
11
-12.1373430219
21
33.2525638801
62
2
0
LINE
8
Setbacks
10
-12.1373430219
20
33.2525638801
11
-12.1368264454
21
33.2527439476
62
2
0
LINE
8
Setbacks
10
-12.1368264454
20
33.2527439476
11
-12.0920739584
21
33.2642636104
62
2
0
LINE
8
Setbacks
10
-12.0920739584
20
33.2642636104
11
-12.0491663330
21
33.2812122547
62
2
0
LINE
8
Setbacks
10
-12.0491663330
20
33.2812122547
11
-12.0486431450
21
33.2813699866
62
2
0
LINE
8
Setbacks
10
-12.0486431450
20
33.2813699866
11
-11.9819344814
21
33.2955494490
62
2
0
LINE
8
Setbacks
10
-11.9819344814
20
33.2955494490
11
-11.9813968377
21
33.2956179611
62
2
0
LINE
8
Setbacks
10
-11.9813968377
20
33.2956179611
11
-11.9344388952
21
33.2976879631
62
2
0
LINE
8
Setbacks
10
-11.9344388952
20
33.2976879631
11
-11.8882753709
21
33.3053683258
62
2
0
LINE
8
Setbacks
10
-11.8882753709
20
33.3053683258
11
-11.8877369290
21
33.3054128112
62
2
0
LINE
8
Setbacks
10
-11.8877369290
20
33.3054128112
11
-11.8195377798
21
33.3054128112
62
2
0
LINE
8
Setbacks
10
-11.8195377798
20
33.3054128112
11
-11.8190071106
21
33.3053696094
62
2
0
LINE
8
Setbacks
10
-11.8190071106
20
33.3053696094
11
-11.7712552889
21
33.2975427867
62
2
0
LINE
8
Setbacks
10
-11.7712552889
20
33.2975427867
11
-11.7232137372
21
33.2952453518
62
2
0
LINE
8
Setbacks
10
-11.7232137372
20
33.2952453518
11
-11.7226883244
21
33.2951774018
62
2
0
LINE
8
Setbacks
10
-11.7226883244
20
33.2951774018
11
-11.6559796608
21
33.2809979394
62
2
0
LINE
8
Setbacks
10
-11.6559796608
20
33.2809979394
11
-11.6554811425
21
33.2808498371
62
2
0
LINE
8
Setbacks
10
-11.6554811425
20
33.2808498371
11
-11.6086492176
21
33.2627867065
62
2
0
LINE
8
Setbacks
10
-11.6086492176
20
33.2627867065
11
-11.5604723784
21
33.2499091446
62
2
0
LINE
8
Setbacks
10
-11.5604723784
20
33.2499091446
11
-11.5599851510
21
33.2497367744
62
2
0
LINE
8
Setbacks
10
-11.5599851510
20
33.2497367744
11
-11.4976823275
21
33.2219976003
62
2
0
LINE
8
Setbacks
10
-11.4976823275
20
33.2219976003
11
-11.4972365003
21
33.2217562267
62
2
0
LINE
8
Setbacks
10
-11.4972365003
20
33.2217562267
11
-11.4534267028
21
33.1934549039
62
2
0
LINE
8
Setbacks
10
-11.4534267028
20
33.1934549039
11
-11.4073109631
21
33.1697591042
62
2
0
LINE
8
Setbacks
10
-11.4073109631
20
33.1697591042
11
-11.4068819790
21
33.1694952145
62
2
0
LINE
8
Setbacks
10
-11.4068819790
20
33.1694952145
11
-11.3517077647
21
33.1294089272
62
2
0
LINE
8
Setbacks
10
-11.3517077647
20
33.1294089272
11
-11.3513301121
21
33.1290883175
62
2
0
LINE
8
Setbacks
10
-11.3513301121
20
33.1290883175
11
-11.3129762527
21
33.0911875852
62
2
0
LINE
8
Setbacks
10
-11.3129762527
20
33.0911875852
11
-11.2714833981
21
33.0571193820
62
2
0
LINE
8
Setbacks
10
-11.2714833981
20
33.0571193820
11
-11.2711271773
21
33.0567790400
62
2
0
LINE
8
Setbacks
10
-11.2711271773
20
33.0567790400
11
-11.2254933176
21
33.0060972798
62
2
0
LINE
8
Setbacks
10
-11.2254933176
20
33.0060972798
11
-11.2251950876
21
33.0057119937
62
2
0
LINE
8
Setbacks
10
-11.2251950876
20
33.0057119937
11
-11.1947834138
21
32.9597358361
62
2
0
LINE
8
Setbacks
10
-11.1947834138
20
32.9597358361
11
-11.1605501875
21
32.9166840731
62
2
0
LINE
8
Setbacks
10
-11.1605501875
20
32.9166840731
11
-11.1602768474
21
32.9162825473
62
2
0
LINE
8
Setbacks
10
-11.1602768474
20
32.9162825473
11
-11.1261774369
21
32.8572205376
62
2
0
LINE
8
Setbacks
10
-11.1261774369
20
32.8572205376
11
-11.1259670201
21
32.8567846880
62
2
0
LINE
8
Setbacks
10
-11.1259670201
20
32.8567846880
11
-11.1055955546
21
32.8051746847
62
2
0
LINE
8
Setbacks
10
-11.1055955546
20
32.8051746847
11
-11.0808696628
21
32.7554984057
62
2
0
LINE
8
Setbacks
10
-11.0808696628
20
32.7554984057
11
-11.0806865194
21
32.7550503119
62
2
0
LINE
8
Setbacks
10
-11.0806865194
20
32.7550503119
11
-11.0596120436
21
32.6901894174
62
2
0
LINE
8
Setbacks
10
-11.0596120436
20
32.6901894174
11
-11.0594964768
21
32.6897171572
62
2
0
LINE
8
Setbacks
10
-11.0594964768
20
32.6897171572
11
-11.0504336325
21
32.6355675134
62
2
0
LINE
8
Setbacks
10
-11.0504336325
20
32.6355675134
11
-11.0366275626
21
32.5822895848
62
2
0
LINE
8
Setbacks
10
-11.0366275626
20
32.5822895848
11
-11.0365406350
21
32.5818095286
62
2
0
LINE
8
Setbacks
10
-11.0365406350
20
32.5818095286
11
-11.0294120258
21
32.5139840671
62
2
0
LINE
8
Setbacks
10
-11.0294120258
20
32.5139840671
11
-11.0293975057
21
32.5134906705
62
2
0
LINE
8
Setbacks
10
-11.0293975057
20
32.5134906705
11
-11.0318518193
21
32.4600303423
62
2
0
LINE
8
Setbacks
10
-11.0318518193
20
32.4600303423
11
-11.0293398939
21
32.4063262416
62
2
0
LINE
8
Setbacks
10
-11.0293398939
20
32.4063262416
11
-11.0293542847
21
32.4058300026
62
2
0
LINE
8
Setbacks
10
-11.0293542847
20
32.4058300026
11
-11.0364832219
21
32.3380045411
62
2
0
LINE
8
Setbacks
10
-11.0364832219
20
32.3380045411
11
-11.0365744860
21
32.3375079376
62
2
0
LINE
8
Setbacks
10
-11.0365744860
20
32.3375079376
11
-11.0497901494
21
32.2875828248
62
2
0
LINE
8
Setbacks
10
-11.0497901494
20
32.2875828248
11
-11.0580214399
21
32.2362778927
62
2
0
LINE
8
Setbacks
10
-11.0580214399
20
32.2362778927
11
-11.0581405900
21
32.2357837792
62
2
0
LINE
8
Setbacks
10
-11.0581405900
20
32.2357837792
11
-11.0792153938
21
32.1709225566
62
2
0
LINE
8
Setbacks
10
-11.0792153938
20
32.1709225566
11
-11.0794139334
21
32.1704439341
62
2
0
LINE
8
Setbacks
10
-11.0794139334
20
32.1704439341
11
-11.1020099587
21
32.1262087769
62
2
0
LINE
8
Setbacks
10
-11.1020099587
20
32.1262087769
11
-11.1198346812
21
32.0794938286
62
2
0
LINE
8
Setbacks
10
-11.1198346812
20
32.0794938286
11
-11.1200586703
21
32.0790230102
62
2
0
LINE
8
Setbacks
10
-11.1200586703
20
32.0790230102
11
-11.1541580808
21
32.0199610004
62
2
0
LINE
8
Setbacks
10
-11.1541580808
20
32.0199610004
11
-11.1544599195
21
32.0195241393
62
2
0
LINE
8
Setbacks
10
-11.1544599195
20
32.0195241393
11
-11.1848140187
21
31.9824165512
62
2
0
LINE
8
Setbacks
10
-11.1848140187
20
31.9824165512
11
-11.2108465647
21
31.9418227861
62
2
0
LINE
8
Setbacks
10
-11.2108465647
20
31.9418227861
11
-11.2111701544
21
31.9413985649
62
2
0
LINE
8
Setbacks
10
-11.2111701544
20
31.9413985649
11
-11.2568040141
21
31.8907168047
62
2
0
LINE
8
Setbacks
10
-11.2568040141
20
31.8907168047
11
-11.2571980231
21
31.8903459019
62
2
0
LINE
8
Setbacks
10
-11.2571980231
20
31.8903459019
11
-11.2937272490
21
31.8612482317
62
2
0
LINE
8
Setbacks
10
-11.2937272490
20
31.8612482317
11
-11.3266010482
21
31.8278089215
62
2
0
LINE
8
Setbacks
10
-11.3266010482
20
31.8278089215
11
-11.3270122183
21
31.8274547055
62
2
0
LINE
8
Setbacks
10
-11.3270122183
20
31.8274547055
11
-11.3821861046
21
31.7873684181
62
2
0
LINE
8
Setbacks
10
-11.3821861046
20
31.7873684181
11
-11.3826537109
21
31.7870850023
62
2
0
LINE
8
Setbacks
10
-11.3826537109
20
31.7870850023
11
-11.4239349555
21
31.7665569061
62
2
0
LINE
8
Setbacks
10
-11.4239349555
20
31.7665569061
11
-11.4624044330
21
31.7410278508
62
2
0
LINE
8
Setbacks
10
-11.4624044330
20
31.7410278508
11
-11.4628841112
21
31.7407643152
62
2
0
LINE
8
Setbacks
10
-11.4628841112
20
31.7407643152
11
-11.5251869347
21
31.7130254691
62
2
0
LINE
8
Setbacks
10
-11.5251869347
20
31.7130254691
11
-11.5257035113
21
31.7128454016
62
2
0
LINE
8
Setbacks
10
-11.5257035113
20
31.7128454016
11
-11.5704559982
21
31.7013257389
62
2
0
LINE
8
Setbacks
10
-11.5704559982
20
31.7013257389
11
-11.6133636237
21
31.6843770945
62
2
0
LINE
8
Setbacks
10
-11.6133636237
20
31.6843770945
11
-11.6138868268
21
31.6842193594
62
2
0
LINE
8
Setbacks
10
-11.6138868268
20
31.6842193594
11
-11.6805954904
21
31.6700402251
62
2
0
LINE
8
Setbacks
10
-11.6805954904
20
31.6700402251
11
-11.6811331129
21
31.6699717165
62
2
0
LINE
8
Setbacks
10
-11.6811331129
20
31.6699717165
11
-11.7280890899
21
31.6679017147
62
2
0
LINE
8
Setbacks
10
6.3186291532
20
26.1091292305
11
13.9383549922
21
9.6270030150
62
2
0
LINE
8
Setbacks
10
13.9383549922
20
9.6270030150
11
22.9761126939
21
13.8051795792
62
2
0
LINE
8
Setbacks
10
22.9761126939
20
13.8051795792
11
19.4978057521
21
15.3244158850
62
2
0
LINE
8
Setbacks
10
19.4978057521
20
15.3244158850
11
19.4969339415
21
15.3054431923
62
2
0
LINE
8
Setbacks
10
19.4969339415
20
15.3054431923
11
19.4994471646
21
15.2517684406
62
2
0
LINE
8
Setbacks
10
19.4994471646
20
15.2517684406
11
19.4994327817
21
15.2512720415
62
2
0
LINE
8
Setbacks
10
19.4994327817
20
15.2512720415
11
19.4887067315
21
15.1492224976
62
2
0
LINE
8
Setbacks
10
19.4887067315
20
15.1492224976
11
19.4886154136
21
15.1487256892
62
2
0
LINE
8
Setbacks
10
19.4886154136
20
15.1487256892
11
19.4754047371
21
15.0988322795
62
2
0
LINE
8
Setbacks
10
19.4754047371
20
15.0988322795
11
19.4671823282
21
15.0475603718
62
2
0
LINE
8
Setbacks
10
19.4671823282
20
15.0475603718
11
19.4670631454
21
15.0470660458
62
2
0
LINE
8
Setbacks
10
19.4670631454
20
15.0470660458
11
19.4353544829
21
14.9494764757
62
2
0
LINE
8
Setbacks
10
19.4353544829
20
14.9494764757
11
19.4351558316
21
14.9489976314
62
2
0
LINE
8
Setbacks
10
19.4351558316
20
14.9489976314
11
19.4125707526
21
14.9047918793
62
2
0
LINE
8
Setbacks
10
19.4125707526
20
14.9047918793
11
19.3947611949
21
14.8581066849
62
2
0
LINE
8
Setbacks
10
19.3947611949
20
14.8581066849
11
19.3945371236
21
14.8576356501
62
2
0
LINE
8
Setbacks
10
19.3945371236
20
14.8576356501
11
19.3432313477
21
14.7687711460
62
2
0
LINE
8
Setbacks
10
19.3432313477
20
14.7687711460
11
19.3429293764
21
14.7683341221
62
2
0
LINE
8
Setbacks
10
19.3429293764
20
14.7683341221
11
19.3125891890
21
14.7312483304
62
2
0
LINE
8
Setbacks
10
19.3125891890
20
14.7312483304
11
19.2865731434
21
14.6906754038
62
2
0
LINE
8
Setbacks
10
19.2865731434
20
14.6906754038
11
19.2862494535
21
14.6902510276
62
2
0
LINE
8
Setbacks
10
19.2862494535
20
14.6902510276
11
19.2175890182
21
14.6139957759
62
2
0
LINE
8
Setbacks
10
19.2175890182
20
14.6139957759
11
19.2171949041
21
14.6136247903
62
2
0
LINE
8
Setbacks
10
19.2171949041
20
14.6136247903
11
19.1806766131
21
14.5845383503
62
2
0
LINE
8
Setbacks
10
19.1806766131
20
14.5845383503
11
19.1478163521
21
14.5511102940
62
2
0
LINE
8
Setbacks
10
19.1478163521
20
14.5511102940
11
19.1474050946
21
14.5507559893
62
2
0
LINE
8
Setbacks
10
19.1474050946
20
14.5507559893
11
19.0643906563
21
14.4904423391
62
2
0
LINE
8
Setbacks
10
19.0643906563
20
14.4904423391
11
19.0639229946
21
14.4901588959
62
2
0
LINE
8
Setbacks
10
19.0639229946
20
14.4901588959
11
19.0226437653
21
14.4696327871
62
2
0
LINE
8
Setbacks
10
19.0226437653
20
14.4696327871
11
18.9841812181
21
14.4441076986
62
2
0
LINE
8
Setbacks
10
18.9841812181
20
14.4441076986
11
18.9837015174
21
14.4438441461
62
2
0
LINE
8
Setbacks
10
18.9837015174
20
14.4438441461
11
18.8899613569
21
14.4021082524
62
2
0
LINE
8
Setbacks
10
18.8899613569
20
14.4021082524
11
18.8894447952
21
14.4019281871
62
2
0
LINE
8
Setbacks
10
18.8894447952
20
14.4019281871
11
18.8446847258
21
14.3904062199
62
2
0
LINE
8
Setbacks
10
18.8446847258
20
14.3904062199
11
18.8017718174
21
14.3734562466
62
2
0
LINE
8
Setbacks
10
18.8017718174
20
14.3734562466
11
18.8012486779
21
14.3732985335
62
2
0
LINE
8
Setbacks
10
18.8012486779
20
14.3732985335
11
18.7008795802
21
14.3519642152
62
2
0
LINE
8
Setbacks
10
18.7008795802
20
14.3519642152
11
18.7003420645
21
14.3518957084
62
2
0
LINE
8
Setbacks
10
18.7003420645
20
14.3518957084
11
18.6533669227
21
14.3498230835
62
2
0
LINE
8
Setbacks
10
18.6533669227
20
14.3498230835
11
18.6071845622
21
14.3421417051
62
2
0
LINE
8
Setbacks
10
18.6071845622
20
14.3421417051
11
18.6066462647
21
14.3420972437
62
2
0
LINE
8
Setbacks
10
18.6066462647
20
14.3420972437
11
18.5040347129
21
14.3420972437
62
2
0
LINE
8
Setbacks
10
18.5040347129
20
14.3420972437
11
18.5035042324
21
14.3421404146
62
2
0
LINE
8
Setbacks
10
18.5035042324
20
14.3421404146
11
18.4557226854
21
14.3499692493
62
2
0
LINE
8
Setbacks
10
18.4557226854
20
14.3499692493
11
18.4076569812
21
14.3522709468
62
2
0
LINE
8
Setbacks
10
18.4076569812
20
14.3522709468
11
18.4071317901
21
14.3523388845
62
2
0
LINE
8
Setbacks
10
18.4071317901
20
14.3523388845
11
18.3067623643
21
14.3736728747
62
2
0
LINE
8
Setbacks
10
18.3067623643
20
14.3736728747
11
18.3062640464
21
14.3738208978
62
2
0
LINE
8
Setbacks
10
18.3062640464
20
14.3738208978
11
18.2593984460
21
14.3918933091
62
2
0
LINE
8
Setbacks
10
18.2593984460
20
14.3918933091
11
18.2111934935
21
14.4047820734
62
2
0
LINE
8
Setbacks
10
18.2111934935
20
14.4047820734
11
18.2107064970
21
14.4049543811
62
2
0
LINE
8
Setbacks
10
18.2107064970
20
14.4049543811
11
18.1169663365
21
14.4466902748
62
2
0
LINE
8
Setbacks
10
18.1169663365
20
14.4466902748
11
18.1165206912
21
14.4469315300
62
2
0
LINE
8
Setbacks
10
18.1165206912
20
14.4469315300
11
18.0726818471
21
14.4752474147
62
2
0
LINE
8
Setbacks
10
18.0726818471
20
14.4752474147
11
18.0265380238
21
14.4989613485
62
2
0
LINE
8
Setbacks
10
18.0265380238
20
14.4989613485
11
18.0261092183
21
14.4992251477
62
2
0
LINE
8
Setbacks
10
18.0261092183
20
14.4992251477
11
17.9430947799
21
14.5595387980
62
2
0
LINE
8
Setbacks
10
17.9430947799
20
14.5595387980
11
17.9427172577
21
14.5598592806
62
2
0
LINE
8
Setbacks
10
17.9427172577
20
14.5598592806
11
17.9043432742
21
14.5977758817
62
2
0
LINE
8
Setbacks
10
17.9043432742
20
14.5977758817
11
17.8628302754
21
14.6318638685
62
2
0
LINE
8
Setbacks
10
17.8628302754
20
14.6318638685
11
17.8624741762
21
14.6322041098
62
2
0
LINE
8
Setbacks
10
17.8624741762
20
14.6322041098
11
17.7938137409
21
14.7084593616
62
2
0
LINE
8
Setbacks
10
17.7938137409
20
14.7084593616
11
17.7935155602
21
14.7088445721
62
2
0
LINE
8
Setbacks
10
17.7935155602
20
14.7088445721
11
17.7630943296
21
14.7548322841
62
2
0
LINE
8
Setbacks
10
17.7630943296
20
14.7548322841
11
17.7288531752
21
14.7978959211
62
2
0
LINE
8
Setbacks
10
17.7288531752
20
14.7978959211
11
17.7285798779
21
14.7982973936
62
2
0
LINE
8
Setbacks
10
17.7285798779
20
14.7982973936
11
17.6772741020
21
14.8871618978
62
2
0
LINE
8
Setbacks
10
17.6772741020
20
14.8871618978
11
17.6770636913
21
14.8875977330
62
2
0
LINE
8
Setbacks
10
17.6770636913
20
14.8875977330
11
17.6566935379
21
14.9392038015
62
2
0
LINE
8
Setbacks
10
17.6566935379
20
14.9392038015
11
17.6319666611
21
14.9888817231
62
2
0
LINE
8
Setbacks
10
17.6319666611
20
14.9888817231
11
17.6317835142
21
14.9893298234
62
2
0
LINE
8
Setbacks
10
17.6317835142
20
14.9893298234
11
17.6000748518
21
15.0869193935
62
2
0
LINE
8
Setbacks
10
17.6000748518
20
15.0869193935
11
17.5999592703
21
15.0873917400
62
2
0
LINE
8
Setbacks
10
17.5999592703
20
15.0873917400
11
17.5909010314
21
15.1415225874
62
2
0
LINE
8
Setbacks
10
17.5909010314
20
15.1415225874
11
17.5770966305
21
15.1947869725
62
2
0
LINE
8
Setbacks
10
17.5770966305
20
15.1947869725
11
17.5770096766
21
15.1952671289
62
2
0
LINE
8
Setbacks
10
17.5770096766
20
15.1952671289
11
17.5662839545
21
15.2973166728
62
2
0
LINE
8
Setbacks
10
17.5662839545
20
15.2973166728
11
17.5662694412
21
15.2978102285
62
2
0
LINE
8
Setbacks
10
17.5662694412
20
15.2978102285
11
17.5687250526
21
15.3512431680
62
2
0
LINE
8
Setbacks
10
17.5687250526
20
15.3512431680
11
17.5662118297
21
15.4049192239
62
2
0
LINE
8
Setbacks
10
17.5662118297
20
15.4049192239
11
17.5662262117
21
15.4054156089
62
2
0
LINE
8
Setbacks
10
17.5662262117
20
15.4054156089
11
17.5769519338
21
15.5074651528
62
2
0
LINE
8
Setbacks
10
17.5769519338
20
15.5074651528
11
17.5770432531
21
15.5079619728
62
2
0
LINE
8
Setbacks
10
17.5770432531
20
15.5079619728
11
17.5902536023
21
15.5578540731
62
2
0
LINE
8
Setbacks
10
17.5902536023
20
15.5578540731
11
17.5984763393
21
15.6091272962
62
2
0
LINE
8
Setbacks
10
17.5984763393
20
15.6091272962
11
17.5985955251
21
15.6096216276
62
2
0
LINE
8
Setbacks
10
17.5985955251
20
15.6096216276
11
17.6303045156
21
15.7072108696
62
2
0
LINE
8
Setbacks
10
17.6303045156
20
15.7072108696
11
17.6305031590
21
15.7076896937
62
2
0
LINE
8
Setbacks
10
17.6305031590
20
15.7076896937
11
17.6530872594
21
15.7518938153
62
2
0
LINE
8
Setbacks
10
17.6530872594
20
15.7518938153
11
17.6708978047
21
15.7985809892
62
2
0
LINE
8
Setbacks
10
17.6708978047
20
15.7985809892
11
17.6711218735
21
15.7990520152
62
2
0
LINE
8
Setbacks
10
17.6711218735
20
15.7990520152
11
17.7224276494
21
15.8879161913
62
2
0
LINE
8
Setbacks
10
17.7224276494
20
15.8879161913
11
17.7227296191
21
15.8883532118
62
2
0
LINE
8
Setbacks
10
17.7227296191
20
15.8883532118
11
17.7530684885
21
15.9254373564
62
2
0
LINE
8
Setbacks
10
17.7530684885
20
15.9254373564
11
17.7790855145
21
15.9660122437
62
2
0
LINE
8
Setbacks
10
17.7790855145
20
15.9660122437
11
17.7794092129
21
15.9664366332
62
2
0
LINE
8
Setbacks
10
17.7794092129
20
15.9664366332
11
17.8480696482
21
16.0426918849
62
2
0
LINE
8
Setbacks
10
17.8480696482
20
16.0426918849
11
17.8484637885
21
16.0430628913
62
2
0
LINE
8
Setbacks
10
17.8484637885
20
16.0430628913
11
17.8498779629
21
16.0441892430
62
2
0
LINE
8
Setbacks
10
17.8498779629
20
16.0441892430
11
15.8487494630
21
16.9182314421
62
2
0
LINE
8
Setbacks
10
15.8487494630
20
16.9182314421
11
16.2415607827
21
16.0670934905
62
2
0
LINE
8
Setbacks
10
16.2415607827
20
16.0670934905
11
16.2417307155
21
16.0666399792
62
2
0
LINE
8
Setbacks
10
16.2417307155
20
16.0666399792
11
16.2638825332
21
15.9909283282
62
2
0
LINE
8
Setbacks
10
16.2638825332
20
15.9909283282
11
16.2855815949
21
15.9168154306
62
2
0
LINE
8
Setbacks
10
16.2855815949
20
15.9168154306
11
16.2856835554
21
15.9163378316
62
2
0
LINE
8
Setbacks
10
16.2856835554
20
15.9163378316
11
16.2856866351
21
15.9162876858
62
2
0
LINE
8
Setbacks
10
16.2856866351
20
15.9162876858
11
16.2856972856
21
15.9162376903
62
2
0
LINE
8
Setbacks
10
16.2856972856
20
15.9162376903
11
16.2857268979
21
15.9157489721
62
2
0
LINE
8
Setbacks
10
16.2857268979
20
15.9157489721
11
16.2846288051
21
15.8382545296
62
2
0
LINE
8
Setbacks
10
16.2846288051
20
15.8382545296
11
16.2835533501
21
15.7613293129
62
2
0
LINE
8
Setbacks
10
16.2835533501
20
15.7613293129
11
16.2835075542
21
15.7608270207
62
2
0
LINE
8
Setbacks
10
16.2835075542
20
15.7608270207
11
16.2834961160
21
15.7607812344
62
2
0
LINE
8
Setbacks
10
16.2834961160
20
15.7607812344
11
16.2834916426
21
15.7607318635
62
2
0
LINE
8
Setbacks
10
16.2834916426
20
15.7607318635
11
16.2833690024
21
15.7602408644
62
2
0
LINE
8
Setbacks
10
16.2833690024
20
15.7602408644
11
16.2591010607
21
15.6874908448
62
2
0
LINE
8
Setbacks
10
16.2591010607
20
15.6874908448
11
16.2353829877
21
15.6163418752
62
2
0
LINE
8
Setbacks
10
16.2353829877
20
15.6163418752
11
16.2351776756
21
15.6158587689
62
2
0
LINE
8
Setbacks
10
16.2351776756
20
15.6158587689
11
16.2351537323
21
15.6158207501
62
2
0
LINE
8
Setbacks
10
16.2351537323
20
15.6158207501
11
16.2351340993
21
15.6157745353
62
2
0
LINE
8
Setbacks
10
16.2351340993
20
15.6157745353
11
16.2348549370
21
15.6153308963
62
2
0
LINE
8
Setbacks
10
16.2348549370
20
15.6153308963
11
16.1897921469
21
15.5550112848
62
2
0
LINE
8
Setbacks
10
16.1897921469
20
15.5550112848
11
16.1457542912
21
15.4960381302
62
2
0
LINE
8
Setbacks
10
16.1457542912
20
15.4960381302
11
16.1453940889
21
15.4956310275
62
2
0
LINE
8
Setbacks
10
16.1453940889
20
15.4956310275
11
16.1453603733
21
15.4956037311
62
2
0
LINE
8
Setbacks
10
16.1453603733
20
15.4956037311
11
16.1453308577
21
15.4955702421
62
2
0
LINE
8
Setbacks
10
16.1453308577
20
15.4955702421
11
16.1449084976
21
15.4952270744
62
2
0
LINE
8
Setbacks
10
16.1449084976
20
15.4952270744
11
16.0836341667
21
15.4533712914
62
2
0
LINE
8
Setbacks
10
16.0836341667
20
15.4533712914
11
16.0234146259
21
15.4122179363
62
2
0
LINE
8
Setbacks
10
16.0234146259
20
15.4122179363
11
16.0229361353
21
15.4119467756
62
2
0
LINE
8
Setbacks
10
16.0229361353
20
15.4119467756
11
16.0228568139
21
15.4119102378
62
2
0
LINE
8
Setbacks
10
16.0228568139
20
15.4119102378
11
16.0228540332
21
15.4119085785
62
2
0
LINE
8
Setbacks
10
16.0228540332
20
15.4119085785
11
13.1591718549
21
14.0898462002
62
2
0
LINE
8
Setbacks
10
13.1591718549
20
14.0898462002
11
13.1586576517
21
14.0896590706
62
2
0
LINE
8
Setbacks
10
13.1586576517
20
14.0896590706
11
13.0877340159
21
14.0703710201
62
2
0
LINE
8
Setbacks
10
13.0877340159
20
14.0703710201
11
13.0169248811
21
14.0510547553
62
2
0
LINE
8
Setbacks
10
13.0169248811
20
14.0510547553
11
13.0163940098
21
14.0509559973
62
2
0
LINE
8
Setbacks
10
13.0163940098
20
14.0509559973
11
13.0162161081
21
14.0509525890
62
2
0
LINE
8
Setbacks
10
13.0162161081
20
14.0509525890
11
13.0160460648
21
14.0509211650
62
2
0
LINE
8
Setbacks
10
13.0160460648
20
14.0509211650
11
13.0155063670
21
14.0509114355
62
2
0
LINE
8
Setbacks
10
13.0155063670
20
14.0509114355
11
12.9415430418
21
14.0556761193
62
2
0
LINE
8
Setbacks
10
12.9415430418
20
14.0556761193
11
12.8671620657
21
14.0604109484
62
2
0
LINE
8
Setbacks
10
12.8671620657
20
14.0604109484
11
12.8666425874
21
14.0604860883
62
2
0
LINE
8
Setbacks
10
12.8666425874
20
14.0604860883
11
12.8664696619
21
14.0605403021
62
2
0
LINE
8
Setbacks
10
12.8664696619
20
14.0605403021
11
12.8662999636
21
14.0605648521
62
2
0
LINE
8
Setbacks
10
12.8662999636
20
14.0605648521
11
12.8657990645
21
14.0607219119
62
2
0
LINE
8
Setbacks
10
12.8657990645
20
14.0607219119
11
12.7956193967
21
14.0890731710
62
2
0
LINE
8
Setbacks
10
12.7956193967
20
14.0890731710
11
12.7253645979
21
14.1173952314
62
2
0
LINE
8
Setbacks
10
12.7253645979
20
14.1173952314
11
12.7249125792
21
14.1176192770
62
2
0
LINE
8
Setbacks
10
12.7249125792
20
14.1176192770
11
12.7247633409
21
14.1177244933
62
2
0
LINE
8
Setbacks
10
12.7247633409
20
14.1177244933
11
12.7246029767
21
14.1178041123
62
2
0
LINE
8
Setbacks
10
12.7246029767
20
14.1178041123
11
12.7241908888
21
14.1180950452
62
2
0
LINE
8
Setbacks
10
12.7241908888
20
14.1180950452
11
12.6645595582
21
14.1674807934
62
2
0
LINE
8
Setbacks
10
12.6645595582
20
14.1674807934
11
12.6054128082
21
14.2163950855
62
2
0
LINE
8
Setbacks
10
12.6054128082
20
14.2163950855
11
12.6050598606
21
14.2167343745
62
2
0
LINE
8
Setbacks
10
12.6050598606
20
14.2167343745
11
12.6049476287
21
14.2168802554
62
2
0
LINE
8
Setbacks
10
12.6049476287
20
14.2168802554
11
12.6048157235
21
14.2170072523
62
2
0
LINE
8
Setbacks
10
12.6048157235
20
14.2170072523
11
12.6045175053
21
14.2173954961
62
2
0
LINE
8
Setbacks
10
12.6045175053
20
14.2173954961
11
12.5616772444
21
14.2827380568
62
2
0
LINE
8
Setbacks
10
12.5616772444
20
14.2827380568
11
12.5190226798
21
14.3476997124
62
2
0
LINE
8
Setbacks
10
12.5190226798
20
14.3476997124
11
12.5187874696
21
14.3481230543
62
2
0
LINE
8
Setbacks
10
12.5187874696
20
14.3481230543
11
11.7838898083
21
15.9368360316
62
2
0
LINE
8
Setbacks
10
11.7838898083
20
15.9368360316
11
11.7837194784
21
15.9372893960
62
2
0
LINE
8
Setbacks
10
11.7837194784
20
15.9372893960
11
11.7616346169
21
16.0125281866
62
2
0
LINE
8
Setbacks
10
11.7616346169
20
16.0125281866
11
11.7397403724
21
16.0870501136
62
2
0
LINE
8
Setbacks
10
11.7397403724
20
16.0870501136
11
11.7396372645
21
16.0875327503
62
2
0
LINE
8
Setbacks
10
11.7396372645
20
16.0875327503
11
11.7396337058
21
16.0875920895
62
2
0
LINE
8
Setbacks
10
11.7396337058
20
16.0875920895
11
11.7396208587
21
16.0876515691
62
2
0
LINE
8
Setbacks
10
11.7396208587
20
16.0876515691
11
11.7395902317
21
16.0881444587
62
2
0
LINE
8
Setbacks
10
11.7395902317
20
16.0881444587
11
11.7406151607
21
16.1653504249
62
2
0
LINE
8
Setbacks
10
11.7406151607
20
16.1653504249
11
11.7416210611
21
16.2425452362
62
2
0
LINE
8
Setbacks
10
11.7416210611
20
16.2425452362
11
11.7416657415
21
16.2430437689
62
2
0
LINE
8
Setbacks
10
11.7416657415
20
16.2430437689
11
11.7416815175
21
16.2431076554
62
2
0
LINE
8
Setbacks
10
11.7416815175
20
16.2431076554
11
11.7416877590
21
16.2431754558
62
2
0
LINE
8
Setbacks
10
11.7416877590
20
16.2431754558
11
11.7418090793
21
16.2436614628
62
2
0
LINE
8
Setbacks
10
11.7418090793
20
16.2436614628
11
11.7657403774
21
16.3156253034
62
2
0
LINE
8
Setbacks
10
11.7657403774
20
16.3156253034
11
11.7896510062
21
16.3875888160
62
2
0
LINE
8
Setbacks
10
11.7896510062
20
16.3875888160
11
11.7898536142
21
16.3880678500
62
2
0
LINE
8
Setbacks
10
11.7898536142
20
16.3880678500
11
11.7898878874
21
16.3881226586
62
2
0
LINE
8
Setbacks
10
11.7898878874
20
16.3881226586
11
11.7899142320
21
16.3881845013
62
2
0
LINE
8
Setbacks
10
11.7899142320
20
16.3881845013
11
11.7901909814
21
16.3886246105
62
2
0
LINE
8
Setbacks
10
11.7901909814
20
16.3886246105
11
11.8346887579
21
16.4483079955
62
2
0
LINE
8
Setbacks
10
11.8346887579
20
16.4483079955
11
11.8791612719
21
16.5079900680
62
2
0
LINE
8
Setbacks
10
11.8791612719
20
16.5079900680
11
11.8795213396
21
16.5083978069
62
2
0
LINE
8
Setbacks
10
11.8795213396
20
16.5083978069
11
11.8795655126
21
16.5084336314
62
2
0
LINE
8
Setbacks
10
11.8795655126
20
16.5084336314
11
11.8796038068
21
16.5084771814
62
2
0
LINE
8
Setbacks
10
11.8796038068
20
16.5084771814
11
11.8800260926
21
16.5088210165
62
2
0
LINE
8
Setbacks
10
11.8800260926
20
16.5088210165
11
11.9406628586
21
16.5503286351
62
2
0
LINE
8
Setbacks
10
11.9406628586
20
16.5503286351
11
12.0014154383
21
16.5919402562
62
2
0
LINE
8
Setbacks
10
12.0014154383
20
16.5919402562
11
12.0018911099
21
16.5922107497
62
2
0
LINE
8
Setbacks
10
12.0018911099
20
16.5922107497
11
14.2317424407
21
17.6244991715
62
2
0
LINE
8
Setbacks
10
14.2317424407
20
17.6244991715
11
13.2677082302
21
18.0455648778
62
2
0
LINE
8
Setbacks
10
13.2677082302
20
18.0455648778
11
13.2672605199
21
18.0458032069
62
2
0
LINE
8
Setbacks
10
13.2672605199
20
18.0458032069
11
13.1079968176
21
18.1471123816
62
2
0
LINE
8
Setbacks
10
13.1079968176
20
18.1471123816
11
12.9438764789
21
18.2390870220
62
2
0
LINE
8
Setbacks
10
12.9438764789
20
18.2390870220
11
12.9434622003
21
18.2393624210
62
2
0
LINE
8
Setbacks
10
12.9434622003
20
18.2393624210
11
12.9430943218
21
18.2396972893
62
2
0
LINE
8
Setbacks
10
12.9430943218
20
18.2396972893
11
12.9140259959
21
18.2704992189
62
2
0
LINE
8
Setbacks
10
12.9140259959
20
18.2704992189
11
12.8787329443
21
18.2929495429
62
2
0
LINE
8
Setbacks
10
12.8787329443
20
18.2929495429
11
12.8783366904
21
18.2932458201
62
2
0
LINE
8
Setbacks
10
12.8783366904
20
18.2932458201
11
12.8779894955
21
18.2935983155
62
2
0
LINE
8
Setbacks
10
12.8779894955
20
18.2935983155
11
12.7542869951
21
18.4397651401
62
2
0
LINE
8
Setbacks
10
12.7542869951
20
18.4397651401
11
12.6231244919
21
18.5787504534
62
2
0
LINE
8
Setbacks
10
12.6231244919
20
18.5787504534
11
12.6228179066
21
18.5791278151
62
2
0
LINE
8
Setbacks
10
12.6228179066
20
18.5791278151
11
12.6225704575
21
18.5795463428
62
2
0
LINE
8
Setbacks
10
12.6225704575
20
18.5795463428
11
12.6036468504
21
18.6177618229
62
2
0
LINE
8
Setbacks
10
12.6036468504
20
18.6177618229
11
12.5762257065
21
18.6501626312
62
2
0
LINE
8
Setbacks
10
12.5762257065
20
18.6501626312
11
12.5759404968
21
18.6505551764
62
2
0
LINE
8
Setbacks
10
12.5759404968
20
18.6505551764
11
12.5757163025
21
18.6509854940
62
2
0
LINE
8
Setbacks
10
12.5757163025
20
18.6509854940
11
12.4996899668
21
18.8276978459
62
2
0
LINE
8
Setbacks
10
12.4996899668
20
18.8276978459
11
12.4143237326
21
19.0000913017
62
2
0
LINE
8
Setbacks
10
12.4143237326
20
19.0000913017
11
12.4141411591
21
19.0005408558
62
2
0
LINE
8
Setbacks
10
12.4141411591
20
19.0005408558
11
12.4140268862
21
19.0010124210
62
2
0
LINE
8
Setbacks
10
12.4140268862
20
19.0010124210
11
12.4071081384
21
19.0428912079
62
2
0
LINE
8
Setbacks
10
12.4071081384
20
19.0428912079
11
12.3902550062
21
19.0820642578
62
2
0
LINE
8
Setbacks
10
12.3902550062
20
19.0820642578
11
12.3900964804
21
19.0825238914
62
2
0
LINE
8
Setbacks
10
12.3900964804
20
19.0825238914
11
12.3900076234
21
19.0830019059
62
2
0
LINE
8
Setbacks
10
12.3900076234
20
19.0830019059
11
12.3690996839
21
19.2729602608
62
2
0
LINE
8
Setbacks
10
12.3690996839
20
19.2729602608
11
12.3378884307
21
19.4618838368
62
2
0
LINE
8
Setbacks
10
12.3378884307
20
19.4618838368
11
12.3378448228
21
19.4623766785
62
2
0
LINE
8
Setbacks
10
12.3378448228
20
19.4623766785
11
12.3378758222
21
19.4628704736
62
2
0
LINE
8
Setbacks
10
12.3378758222
20
19.4628704736
11
12.3436368065
21
19.5042997847
62
2
0
LINE
8
Setbacks
10
12.3436368065
20
19.5042997847
11
12.3390033554
21
19.5463982581
62
2
0
LINE
8
Setbacks
10
12.3390033554
20
19.5463982581
11
12.3389865766
21
19.5468954355
62
2
0
LINE
8
Setbacks
10
12.3389865766
20
19.5468954355
11
12.3390451588
21
19.5473894346
62
2
0
LINE
8
Setbacks
10
12.3390451588
20
19.5473894346
11
12.3753004975
21
19.7319981696
62
2
0
LINE
8
Setbacks
10
12.3753004975
20
19.7319981696
11
12.4012983977
21
19.9189544870
62
2
0
LINE
8
Setbacks
10
12.4012983977
20
19.9189544870
11
12.4014068773
21
19.9194499460
62
2
0
LINE
8
Setbacks
10
12.4014068773
20
19.9194499460
11
15.5060679696
21
30.2135629620
62
2
0
LINE
8
Setbacks
10
15.5060679696
20
30.2135629620
11
15.4537063739
21
30.2933466662
62
2
0
LINE
8
Setbacks
10
15.4537063739
20
30.2933466662
11
6.3186291532
21
26.1091292305
62
2
0
LINE
8
Setbacks
10
10.2374150073
20
22.7421151866
11
10.1893463603
21
22.7444168842
62
2
0
LINE
8
Setbacks
10
10.1893463603
20
22.7444168842
11
10.1888211493
21
22.7444848246
62
2
0
LINE
8
Setbacks
10
10.1888211493
20
22.7444848246
11
10.1221124858
21
22.7586642870
62
2
0
LINE
8
Setbacks
10
10.1221124858
20
22.7586642870
11
10.1216141753
21
22.7588123090
62
2
0
LINE
8
Setbacks
10
10.1216141753
20
22.7588123090
11
10.0747495586
21
22.7768843922
62
2
0
LINE
8
Setbacks
10
10.0747495586
20
22.7768843922
11
10.0265436213
21
22.7897734845
62
2
0
LINE
8
Setbacks
10
10.0265436213
20
22.7897734845
11
10.0260566242
21
22.7899457931
62
2
0
LINE
8
Setbacks
10
10.0260566242
20
22.7899457931
11
9.9637538007
21
22.8176849673
62
2
0
LINE
8
Setbacks
10
9.9637538007
20
22.8176849673
11
9.9633081651
21
22.8179262171
62
2
0
LINE
8
Setbacks
10
9.9633081651
20
22.8179262171
11
9.9194696429
21
22.8462417781
62
2
0
LINE
8
Setbacks
10
9.9194696429
20
22.8462417781
11
9.8733254846
21
22.8699560430
62
2
0
LINE
8
Setbacks
10
9.8733254846
20
22.8699560430
11
9.8728966937
21
22.8702198333
62
2
0
LINE
8
Setbacks
10
9.8728966937
20
22.8702198333
11
9.8177224794
21
22.9103061207
62
2
0
LINE
8
Setbacks
10
9.8177224794
20
22.9103061207
11
9.8173449503
21
22.9106266083
62
2
0
LINE
8
Setbacks
10
9.8173449503
20
22.9106266083
11
9.7789706353
21
22.9485435409
62
2
0
LINE
8
Setbacks
10
9.7789706353
20
22.9485435409
11
9.7374582886
21
22.9826312024
62
2
0
LINE
8
Setbacks
10
9.7374582886
20
22.9826312024
11
9.7371021938
21
22.9829714409
62
2
0
LINE
8
Setbacks
10
9.7371021938
20
22.9829714409
11
9.6914683341
21
23.0336532011
62
2
0
LINE
8
Setbacks
10
9.6914683341
20
23.0336532011
11
9.6911701564
21
23.0340384083
62
2
0
LINE
8
Setbacks
10
9.6911701564
20
23.0340384083
11
9.6607495804
21
23.0800251384
62
2
0
LINE
8
Setbacks
10
9.6607495804
20
23.0800251384
11
9.6265077679
21
23.1230897617
62
2
0
LINE
8
Setbacks
10
9.6265077679
20
23.1230897617
11
9.6262344755
21
23.1234912276
62
2
0
LINE
8
Setbacks
10
9.6262344755
20
23.1234912276
11
9.5921350649
21
23.1825532373
62
2
0
LINE
8
Setbacks
10
9.5921350649
20
23.1825532373
11
9.5919246571
21
23.1829890644
62
2
0
LINE
8
Setbacks
10
9.5919246571
20
23.1829890644
11
9.5715541740
21
23.2345954663
62
2
0
LINE
8
Setbacks
10
9.5715541740
20
23.2345954663
11
9.5468272948
21
23.2842733928
62
2
0
LINE
8
Setbacks
10
9.5468272948
20
23.2842733928
11
9.5466441474
21
23.2847214945
62
2
0
LINE
8
Setbacks
10
9.5466441474
20
23.2847214945
11
9.5255696717
21
23.3495823890
62
2
0
LINE
8
Setbacks
10
9.5255696717
20
23.3495823890
11
9.5254540891
21
23.3500547436
62
2
0
LINE
8
Setbacks
10
9.5254540891
20
23.3500547436
11
9.5163958513
21
23.4041865655
62
2
0
LINE
8
Setbacks
10
9.5163958513
20
23.4041865655
11
9.5025914533
21
23.4574502852
62
2
0
LINE
8
Setbacks
10
9.5025914533
20
23.4574502852
11
9.5025044968
21
23.4579304520
62
2
0
LINE
8
Setbacks
10
9.5025044968
20
23.4579304520
11
9.4953758877
21
23.5257555854
62
2
0
LINE
8
Setbacks
10
9.4953758877
20
23.5257555854
11
9.4953613744
21
23.5262491364
62
2
0
LINE
8
Setbacks
10
9.4953613744
20
23.5262491364
11
9.4978169860
21
23.5796833882
62
2
0
LINE
8
Setbacks
10
9.4978169860
20
23.5796833882
11
9.4953037632
21
23.6333581318
62
2
0
LINE
8
Setbacks
10
9.4953037632
20
23.6333581318
11
9.4953181447
21
23.6338545178
62
2
0
LINE
8
Setbacks
10
9.4953181447
20
23.6338545178
11
9.5024467539
21
23.7016799793
62
2
0
LINE
8
Setbacks
10
9.5024467539
20
23.7016799793
11
9.5025380756
21
23.7021768099
62
2
0
LINE
8
Setbacks
10
9.5025380756
20
23.7021768099
11
9.5157490794
21
23.7520708745
62
2
0
LINE
8
Setbacks
10
9.5157490794
20
23.7520708745
11
9.5239714876
21
23.8033421246
62
2
0
LINE
8
Setbacks
10
9.5239714876
20
23.8033421246
11
9.5240906690
21
23.8038364428
62
2
0
LINE
8
Setbacks
10
9.5240906690
20
23.8038364428
11
9.5451651448
21
23.8686973372
62
2
0
LINE
8
Setbacks
10
9.5451651448
20
23.8686973372
11
9.5453637882
21
23.8691761666
62
2
0
LINE
8
Setbacks
10
9.5453637882
20
23.8691761666
11
9.5679478930
21
23.9133806238
62
2
0
LINE
8
Setbacks
10
9.5679478930
20
23.9133806238
11
9.5857584411
21
23.9600674780
62
2
0
LINE
8
Setbacks
10
9.5857584411
20
23.9600674780
11
9.5859825057
21
23.9605384944
62
2
0
LINE
8
Setbacks
10
9.5859825057
20
23.9605384944
11
9.6200819162
21
24.0196005041
62
2
0
LINE
8
Setbacks
10
9.6200819162
20
24.0196005041
11
9.6203838914
21
24.0200375320
62
2
0
LINE
8
Setbacks
10
9.6203838914
20
24.0200375320
11
9.6507234164
21
24.0571223326
62
2
0
LINE
8
Setbacks
10
9.6507234164
20
24.0571223326
11
9.6767401137
21
24.0976965634
62
2
0
LINE
8
Setbacks
10
9.6767401137
20
24.0976965634
11
9.6770638061
21
24.0981209449
62
2
0
LINE
8
Setbacks
10
9.6770638061
20
24.0981209449
11
9.7226976658
21
24.1488027051
62
2
0
LINE
8
Setbacks
10
9.7226976658
20
24.1488027051
11
9.7230917972
21
24.1491737054
62
2
0
LINE
8
Setbacks
10
9.7230917972
20
24.1491737054
11
9.7596100742
21
24.1782598075
62
2
0
LINE
8
Setbacks
10
9.7596100742
20
24.1782598075
11
9.7924703239
21
24.2116881791
62
2
0
LINE
8
Setbacks
10
9.7924703239
20
24.2116881791
11
9.7928815918
21
24.2120424946
62
2
0
LINE
8
Setbacks
10
9.7928815918
20
24.2120424946
11
9.8480554781
21
24.2521287820
62
2
0
LINE
8
Setbacks
10
9.8480554781
20
24.2521287820
11
9.8485231498
21
24.2524122304
62
2
0
LINE
8
Setbacks
10
9.8485231498
20
24.2524122304
11
9.8898026966
21
24.2729383346
62
2
0
LINE
8
Setbacks
10
9.8898026966
20
24.2729383346
11
9.9282649063
21
24.2984634160
62
2
0
LINE
8
Setbacks
10
9.9282649063
20
24.2984634160
11
9.9287446133
21
24.2987269735
62
2
0
LINE
8
Setbacks
10
9.9287446133
20
24.2987269735
11
9.9910474368
21
24.3264661476
62
2
0
LINE
8
Setbacks
10
9.9910474368
20
24.3264661476
11
9.9915639918
21
24.3266462121
62
2
0
LINE
8
Setbacks
10
9.9915639918
20
24.3266462121
11
10.0363234150
21
24.3381681811
62
2
0
LINE
8
Setbacks
10
10.0363234150
20
24.3381681811
11
10.0792366607
21
24.3551181586
62
2
0
LINE
8
Setbacks
10
10.0792366607
20
24.3551181586
11
10.0797598092
21
24.3552758722
62
2
0
LINE
8
Setbacks
10
10.0797598092
20
24.3552758722
11
10.1464684728
21
24.3694550065
62
2
0
LINE
8
Setbacks
10
10.1464684728
20
24.3694550065
11
10.1470059735
21
24.3695235098
62
2
0
LINE
8
Setbacks
10
10.1470059735
20
24.3695235098
11
10.1939817667
21
24.3715961346
62
2
0
LINE
8
Setbacks
10
10.1939817667
20
24.3715961346
11
10.2401634664
21
24.3792775118
62
2
0
LINE
8
Setbacks
10
10.2401634664
20
24.3792775118
11
10.2407017713
21
24.3793219744
62
2
0
LINE
8
Setbacks
10
10.2407017713
20
24.3793219744
11
10.3089005924
21
24.3793219744
62
2
0
LINE
8
Setbacks
10
10.3089005924
20
24.3793219744
11
10.3094310795
21
24.3792788024
62
2
0
LINE
8
Setbacks
10
10.3094310795
20
24.3792788024
11
10.3572099938
21
24.3714502975
62
2
0
LINE
8
Setbacks
10
10.3572099938
20
24.3714502975
11
10.4052786425
21
24.3691485999
62
2
0
LINE
8
Setbacks
10
10.4052786425
20
24.3691485999
11
10.4058038536
21
24.3690806594
62
2
0
LINE
8
Setbacks
10
10.4058038536
20
24.3690806594
11
10.4725125171
21
24.3549011970
62
2
0
LINE
8
Setbacks
10
10.4725125171
20
24.3549011970
11
10.4730108275
21
24.3547531750
62
2
0
LINE
8
Setbacks
10
10.4730108275
20
24.3547531750
11
10.5198754442
21
24.3366810918
62
2
0
LINE
8
Setbacks
10
10.5198754442
20
24.3366810918
11
10.5680813815
21
24.3237919995
62
2
0
LINE
8
Setbacks
10
10.5680813815
20
24.3237919995
11
10.5685683786
21
24.3236196909
62
2
0
LINE
8
Setbacks
10
10.5685683786
20
24.3236196909
11
10.6308712021
21
24.2958805167
62
2
0
LINE
8
Setbacks
10
10.6308712021
20
24.2958805167
11
10.6313168378
21
24.2956392669
62
2
0
LINE
8
Setbacks
10
10.6313168378
20
24.2956392669
11
10.6751553600
21
24.2673237059
62
2
0
LINE
8
Setbacks
10
10.6751553600
20
24.2673237059
11
10.7212995183
21
24.2436094410
62
2
0
LINE
8
Setbacks
10
10.7212995183
20
24.2436094410
11
10.7217283166
21
24.2433456452
62
2
0
LINE
8
Setbacks
10
10.7217283166
20
24.2433456452
11
10.7769022029
21
24.2032593579
62
2
0
LINE
8
Setbacks
10
10.7769022029
20
24.2032593579
11
10.7772797247
21
24.2029388755
62
2
0
LINE
8
Setbacks
10
10.7772797247
20
24.2029388755
11
10.8156546938
21
24.1650212887
62
2
0
LINE
8
Setbacks
10
10.8156546938
20
24.1650212887
11
10.8571663819
21
24.1309342852
62
2
0
LINE
8
Setbacks
10
10.8571663819
20
24.1309342852
11
10.8575224731
21
24.1305940518
62
2
0
LINE
8
Setbacks
10
10.8575224731
20
24.1305940518
11
10.9031566609
21
24.0799122916
62
2
0
LINE
8
Setbacks
10
10.9031566609
20
24.0799122916
11
10.9034548432
21
24.0795270805
62
2
0
LINE
8
Setbacks
10
10.9034548432
20
24.0795270805
11
10.9338764041
21
24.0335390367
62
2
0
LINE
8
Setbacks
10
10.9338764041
20
24.0335390367
11
10.9681172332
21
23.9904757245
62
2
0
LINE
8
Setbacks
10
10.9681172332
20
23.9904757245
11
10.9683905274
21
23.9900742565
62
2
0
LINE
8
Setbacks
10
10.9683905274
20
23.9900742565
11
11.0024899379
21
23.9310122467
62
2
0
LINE
8
Setbacks
10
11.0024899379
20
23.9310122467
11
11.0027003442
21
23.9305764236
62
2
0
LINE
8
Setbacks
10
11.0027003442
20
23.9305764236
11
11.0230718138
21
23.8789677189
62
2
0
LINE
8
Setbacks
10
11.0230718138
20
23.8789677189
11
11.0477973840
21
23.8292920833
62
2
0
LINE
8
Setbacks
10
11.0477973840
20
23.8292920833
11
11.0479805227
21
23.8288440038
62
2
0
LINE
8
Setbacks
10
11.0479805227
20
23.8288440038
11
11.0690553265
21
23.7639831093
62
2
0
LINE
8
Setbacks
10
11.0690553265
20
23.7639831093
11
11.0691709143
21
23.7635107371
62
2
0
LINE
8
Setbacks
10
11.0691709143
20
23.7635107371
11
11.0782294803
21
23.7093766185
62
2
0
LINE
8
Setbacks
10
11.0782294803
20
23.7093766185
11
11.0920332223
21
23.6561151954
62
2
0
LINE
8
Setbacks
10
11.0920332223
20
23.6561151954
11
11.0921201763
21
23.6556350476
62
2
0
LINE
8
Setbacks
10
11.0921201763
20
23.6556350476
11
11.0992491135
21
23.5878099142
62
2
0
LINE
8
Setbacks
10
11.0992491135
20
23.5878099142
11
11.0992636285
21
23.5873163476
62
2
0
LINE
8
Setbacks
10
11.0992636285
20
23.5873163476
11
11.0968080169
21
23.5338820958
62
2
0
LINE
8
Setbacks
10
11.0968080169
20
23.5338820958
11
11.0993212397
21
23.4802073522
62
2
0
LINE
8
Setbacks
10
11.0993212397
20
23.4802073522
11
11.0993068581
21
23.4797109662
62
2
0
LINE
8
Setbacks
10
11.0993068581
20
23.4797109662
11
11.0921782490
21
23.4118855047
62
2
0
LINE
8
Setbacks
10
11.0921782490
20
23.4118855047
11
11.0920869276
21
23.4113886752
62
2
0
LINE
8
Setbacks
10
11.0920869276
20
23.4113886752
11
11.0788755964
21
23.3614933013
62
2
0
LINE
8
Setbacks
10
11.0788755964
20
23.3614933013
11
11.0706535164
21
23.3102233666
62
2
0
LINE
8
Setbacks
10
11.0706535164
20
23.3102233666
11
11.0705343338
21
23.3097290412
62
2
0
LINE
8
Setbacks
10
11.0705343338
20
23.3097290412
11
11.0494598581
21
23.2448681468
62
2
0
LINE
8
Setbacks
10
11.0494598581
20
23.2448681468
11
11.0492612104
21
23.2443893091
62
2
0
LINE
8
Setbacks
10
11.0492612104
20
23.2443893091
11
11.0266767829
21
23.2001845332
62
2
0
LINE
8
Setbacks
10
11.0266767829
20
23.2001845332
11
11.0088665662
21
23.1534980176
62
2
0
LINE
8
Setbacks
10
11.0088665662
20
23.1534980176
11
11.0086424903
21
23.1530269778
62
2
0
LINE
8
Setbacks
10
11.0086424903
20
23.1530269778
11
10.9745427517
21
23.0939649681
62
2
0
LINE
8
Setbacks
10
10.9745427517
20
23.0939649681
11
10.9742407874
21
23.0935279569
62
2
0
LINE
8
Setbacks
10
10.9742407874
20
23.0935279569
11
10.9439019180
21
23.0564438123
62
2
0
LINE
8
Setbacks
10
10.9439019180
20
23.0564438123
11
10.9178848920
21
23.0158689250
62
2
0
LINE
8
Setbacks
10
10.9178848920
20
23.0158689250
11
10.9175611890
21
23.0154445304
62
2
0
LINE
8
Setbacks
10
10.9175611890
20
23.0154445304
11
10.8719270011
21
22.9647627702
62
2
0
LINE
8
Setbacks
10
10.8719270011
20
22.9647627702
11
10.8715328859
21
22.9643917853
62
2
0
LINE
8
Setbacks
10
10.8715328859
20
22.9643917853
11
10.8350152604
21
22.9353060083
62
2
0
LINE
8
Setbacks
10
10.8350152604
20
22.9353060083
11
10.8021546788
21
22.9018773048
62
2
0
LINE
8
Setbacks
10
10.8021546788
20
22.9018773048
11
10.8017434035
21
22.9015229839
62
2
0
LINE
8
Setbacks
10
10.8017434035
20
22.9015229839
11
10.7465691892
21
22.8614366966
62
2
0
LINE
8
Setbacks
10
10.7465691892
20
22.8614366966
11
10.7461015436
21
22.8611532629
62
2
0
LINE
8
Setbacks
10
10.7461015436
20
22.8611532629
11
10.7048219782
21
22.8406268228
62
2
0
LINE
8
Setbacks
10
10.7048219782
20
22.8406268228
11
10.6663597523
21
22.8151020573
62
2
0
LINE
8
Setbacks
10
10.6663597523
20
22.8151020573
11
10.6658800484
21
22.8148385046
62
2
0
LINE
8
Setbacks
10
10.6658800484
20
22.8148385046
11
10.6035772248
21
22.7870996586
62
2
0
LINE
8
Setbacks
10
10.6035772248
20
22.7870996586
11
10.6030606773
21
22.7869195986
62
2
0
LINE
8
Setbacks
10
10.6030606773
20
22.7869195986
11
10.5583009331
21
22.7753976310
62
2
0
LINE
8
Setbacks
10
10.5583009331
20
22.7753976310
11
10.5153880220
21
22.7584476566
62
2
0
LINE
8
Setbacks
10
10.5153880220
20
22.7584476566
11
10.5148648807
21
22.7582899431
62
2
0
LINE
8
Setbacks
10
10.5148648807
20
22.7582899431
11
10.4481562171
21
22.7441104807
62
2
0
LINE
8
Setbacks
10
10.4481562171
20
22.7441104807
11
10.4476187023
21
22.7440419743
62
2
0
LINE
8
Setbacks
10
10.4476187023
20
22.7440419743
11
10.4006432367
21
22.7419693495
62
2
0
LINE
8
Setbacks
10
10.4006432367
20
22.7419693495
11
10.3544615365
21
22.7342879722
62
2
0
LINE
8
Setbacks
10
10.3544615365
20
22.7342879722
11
10.3539232316
21
22.7342435096
62
2
0
LINE
8
Setbacks
10
10.3539232316
20
22.7342435096
11
10.2857240824
21
22.7342435096
62
2
0
LINE
8
Setbacks
10
10.2857240824
20
22.7342435096
11
10.2851935917
21
22.7342866822
62
2
0
LINE
8
Setbacks
10
10.2851935917
20
22.7342866822
11
10.2374150073
21
22.7421151866
62
2
0
LINE
8
Setbacks
10
5.6879522103
20
-7.5937082257
11
12.3897111620
21
-4.4815339598
62
2
0
LINE
8
Setbacks
10
12.3897111620
20
-4.4815339598
11
9.7995015828
21
1.0962254047
62
2
0
LINE
8
Setbacks
10
9.7995015828
20
1.0962254047
11
3.0924151378
21
-2.0044762615
62
2
0
LINE
8
Setbacks
10
19.0714121332
20
5.3826515230
11
12.3643254622
21
2.2819497229
62
2
0
LINE
8
Setbacks
10
12.3643254622
20
2.2819497229
11
14.9524978300
21
-3.2914228131
62
2
0
LINE
8
Setbacks
10
14.9524978300
20
-3.2914228131
11
21.6542567482
21
-0.1792482363
62
2
0
LINE
8
Setbacks
10
27.3608314215
20
34.3059501126
11
23.5473976535
21
23.9350786728
62
2
0
LINE
8
Setbacks
10
23.5473976535
20
23.9350786728
11
33.9182691974
21
20.1216446831
62
2
0
LINE
8
Setbacks
10
32.9054215087
20
17.3671417691
11
21.6789634561
21
21.4951797834
62
2
0
LINE
8
Setbacks
10
21.6789634561
20
21.4951797834
11
17.3061379393
21
19.4736124961
62
2
0
LINE
8
Setbacks
10
17.3061379393
20
19.4736124961
11
26.5790840554
21
15.4234247103
62
2
0
LINE
8
Setbacks
10
26.5790840554
20
15.4234247103
11
26.5795446393
21
15.4231781500
62
2
0
LINE
8
Setbacks
10
26.5795446393
20
15.4231781500
11
26.9604465543
21
15.1783835227
62
2
0
LINE
8
Setbacks
10
26.9604465543
20
15.1783835227
11
26.9608698676
21
15.1780600539
62
2
0
LINE
8
Setbacks
10
26.9608698676
20
15.1780600539
11
26.9612352473
21
15.1776723377
62
2
0
LINE
8
Setbacks
10
26.9612352473
20
15.1776723377
11
27.2408687864
21
14.8279334814
62
2
0
LINE
8
Setbacks
10
27.2408687864
20
14.8279334814
11
27.2411702574
21
14.8274852110
62
2
0
LINE
8
Setbacks
10
27.2411702574
20
14.8274852110
11
27.2413940813
21
14.8269935466
62
2
0
LINE
8
Setbacks
10
27.2413940813
20
14.8269935466
11
27.2655235126
21
14.7598035993
62
2
0
LINE
8
Setbacks
10
18.9664306464
20
32.7114599263
11
19.0019837923
21
32.6495512557
62
2
0
LINE
8
Setbacks
10
19.0019837923
20
32.6495512557
11
19.0022133400
21
32.6490622381
62
2
0
LINE
8
Setbacks
10
19.0022133400
20
32.6490622381
11
19.0023595292
21
32.6485421812
62
2
0
LINE
8
Setbacks
10
19.0023595292
20
32.6485421812
11
19.0876351225
21
32.2089512878
62
2
0
LINE
8
Setbacks
10
19.0876351225
20
32.2089512878
11
19.0876937807
21
32.2084217722
62
2
0
LINE
8
Setbacks
10
19.0876937807
20
32.2084217722
11
19.0876659648
21
32.2078897441
62
2
0
LINE
8
Setbacks
10
19.0876659648
20
32.2078897441
11
19.0273916847
21
31.7591384175
62
2
0
LINE
8
Setbacks
10
19.0273916847
20
31.7591384175
11
19.0272811363
21
31.7586278232
62
2
0
LINE
8
Setbacks
10
19.0272811363
20
31.7586278232
11
16.1054648050
21
22.0707723254
62
2
0
LINE
8
Setbacks
10
16.1054648050
20
22.0707723254
11
20.4782903225
21
24.0923396131
62
2
0
LINE
8
Setbacks
10
20.4782903225
20
24.0923396131
11
24.6063285949
21
35.3187978645
62
2
0
LINE
8
Setbacks
10
39.8169676793
20
20.0689377275
11
48.9946155755
21
24.3514205547
62
2
0
LINE
8
Setbacks
10
48.9946155755
20
24.3514205547
11
39.5970201400
21
44.4910970587
62
2
0
LINE
8
Setbacks
10
39.5970201400
20
44.4910970587
11
30.4193721187
21
40.2086141731
62
2
0
LINE
8
Setbacks
10
50.4075562188
20
49.5355198861
11
42.1576120789
21
45.6859228939
62
2
0
LINE
8
Setbacks
10
42.1576120789
20
45.6859228939
11
51.5552075144
21
25.5462463900
62
2
0
LINE
8
Setbacks
10
51.5552075144
20
25.5462463900
11
59.8051517533
21
29.3958437552
62
2
0
CIRCLE
8
Obstructions
10
10.2973124429
20
23.5567827624
40
0.3262218579
62
252
0
CIRCLE
8
Obstructions
10
22.7147455721
20
12.6293573312
40
0.3262218579
62
252
0
CIRCLE
8
Obstructions
10
3.9282016027
20
24.9811463724
40
0.3262218579
62
252
0
CIRCLE
8
Obstructions
10
7.1098407630
20
28.5530120374
40
0.3262218579
62
252
0
CIRCLE
8
Obstructions
10
13.9717994672
20
31.0109523147
40
0.3262218579
62
252
0
CIRCLE
8
Obstructions
10
-11.8312649604
20
32.4827947104
40
0.3262218579
62
252
0
CIRCLE
8
Obstructions
10
18.5328293911
20
15.3283437595
40
0.4908307629
62
252
0
CIRCLE
8
Obstructions
10
4.9897200767
20
54.3668632877
40
0.2687041470
62
252
0
LINE
8
Obstructions
10
7.2585700016
20
37.0772804039
11
8.0663738932
21
35.3169130715
62
252
0
LINE
8
Obstructions
10
8.0663738932
20
35.3169130715
11
10.3585538963
21
36.3687508123
62
252
0
LINE
8
Obstructions
10
10.3585538963
20
36.3687508123
11
9.5536662624
21
38.1291181446
62
252
0
LINE
8
Obstructions
10
9.5536662624
20
38.1291181446
11
7.2585700016
21
37.0772804039
62
252
0
LINE
8
Obstructions
10
-2.9512546561
20
19.9812648827
11
-2.2163572488
21
18.3925516276
62
252
0
LINE
8
Obstructions
10
-2.2163572488
20
18.3925516276
11
0.6474096180
21
19.7146532316
62
252
0
LINE
8
Obstructions
10
0.6474096180
20
19.7146532316
11
-0.0874877852
21
21.3070187040
62
252
0
LINE
8
Obstructions
10
-0.0874877852
20
21.3070187040
11
-2.9512546561
21
19.9812648827
62
252
0
LINE
8
Obstructions
10
0.3703649614
20
12.7133582638
11
1.1052623687
21
11.1246450060
62
252
0
LINE
8
Obstructions
10
1.1052623687
20
11.1246450060
11
3.9661129778
21
12.4467466126
62
252
0
LINE
8
Obstructions
10
3.9661129778
20
12.4467466126
11
3.2312155746
21
14.0391120824
62
252
0
LINE
8
Obstructions
10
3.2312155746
20
14.0391120824
11
0.3703649614
21
12.7133582638
62
252
0
LINE
8
Obstructions
10
12.2132949651
20
16.1354831397
11
12.9481923683
21
14.5467698820
62
252
0
LINE
8
Obstructions
10
12.9481923683
20
14.5467698820
11
15.8119592392
21
15.8688714886
62
252
0
LINE
8
Obstructions
10
15.8119592392
20
15.8688714886
11
15.0770618318
21
17.4612369584
62
252
0
LINE
8
Obstructions
10
15.0770618318
20
17.4612369584
11
12.2132949651
21
16.1354831397
62
252
0
LINE
8
Inverters
10
31.8610063706
20
46.3642203604
11
32.9014873741
21
44.1343999017
0
LINE
8
Inverters
10
32.9014873741
20
44.1343999017
11
35.1313078329
21
45.1748809052
0
LINE
8
Inverters
10
35.1313078329
20
45.1748809052
11
34.0908268293
21
47.4047013639
0
LINE
8
Inverters
10
34.0908268293
20
47.4047013639
11
31.8610063706
21
46.3642203604
0
LINE
8
Inverters
10
31.8610063706
20
46.3642203604
11
35.1313078329
21
45.1748809052
0
TEXT
8
Inverters
100
AcDbText
10
33.3277259250
20
46.8676004254
1
DC
7
NewTextStyle_4
40
0.7545932000000003
50
-64.98525617923002
0
TEXT
8
Inverters
100
AcDbText
10
32.4327900093
20
45.5267921074
1
AC
7
NewTextStyle_4
40
0.7545932000000003
50
-64.98525617923002
0
LINE
8
Strings
10
-1.2598241186
20
31.4455658258
11
-2.9279245778
21
35.0904757793
62
11
0
LINE
8
Strings
10
-2.9279245778
20
35.0904757793
11
-4.5989412948
21
38.7353857328
62
11
0
LINE
8
Strings
10
-4.5989412948
20
38.7353857328
11
-6.2670417540
21
42.3766434717
62
11
0
LINE
8
Strings
10
-6.2670417540
20
42.3766434717
11
-7.9351422133
21
46.0215534252
62
11
0
LINE
8
Strings
10
-6.1008149609
20
29.2286716969
11
-7.7689154201
21
32.8735816504
62
11
0
LINE
8
Strings
10
-7.7689154201
20
32.8735816504
11
-9.4399321371
21
36.5148393893
62
11
0
LINE
8
Strings
10
-9.4399321371
20
36.5148393893
11
-11.1080325922
21
40.1597493428
62
11
0
LINE
8
Strings
10
-11.1080325922
20
40.1597493428
11
-12.7761330514
21
43.8046592937
62
11
0
LINE
8
Strings
10
6.4624311450
20
39.5753950401
11
4.7914144281
21
43.2166527789
62
11
0
LINE
8
Strings
10
4.7914144281
20
43.2166527789
11
3.1233139730
21
46.8615627325
62
11
0
LINE
8
Strings
10
7.9643048111
20
49.0784568614
11
9.6324052704
21
45.4371991225
62
11
0
LINE
8
Strings
10
9.6324052704
20
45.4371991225
11
11.3034219873
21
41.7922891690
62
11
0
LINE
8
Strings
10
11.3034219873
20
41.7922891690
11
12.9715224424
21
38.1473792180
62
11
0
LINE
8
Connections
10
-7.9351422133
20
46.0215534252
11
-7.4877178364
21
46.2264910422
62
91
0
LINE
8
Connections
10
-7.4877178364
20
46.2264910422
11
-7.2827802194
21
45.7790666653
62
91
0
LINE
8
Connections
10
-7.2827802194
20
45.7790666653
11
-0.4123690987
21
30.7794318510
62
91
0
LINE
8
Connections
10
-0.4123690987
20
30.7794318510
11
32.8437951079
21
46.0120373927
62
91
0
LINE
8
Connections
10
32.8437951079
20
46.0120373927
11
33.2912194847
21
46.2169750097
62
91
0
LINE
8
Connections
10
33.2912194847
20
46.2169750097
11
33.4961571017
21
45.7695506328
62
91
0
LINE
8
Connections
10
-12.7761330514
20
43.8046592937
11
-12.3287086746
21
44.0095969107
62
91
0
LINE
8
Connections
10
-12.3287086746
20
44.0095969107
11
-12.1237710576
21
43.5621725339
62
91
0
LINE
8
Connections
10
-12.1237710576
20
43.5621725339
11
-5.2531833781
21
28.5621522525
62
91
0
LINE
8
Connections
10
-5.2531833781
20
28.5621522525
11
32.8437951079
21
46.0120373927
62
91
0
LINE
8
Connections
10
32.8437951079
20
46.0120373927
11
33.2912194847
21
46.2169750097
62
91
0
LINE
8
Connections
10
33.2912194847
20
46.2169750097
11
33.4961571017
21
45.7695506328
62
91
0
LINE
8
Connections
10
3.1233139730
20
46.8615627325
11
3.5707383498
21
47.0665003495
62
91
0
LINE
8
Connections
10
3.5707383498
20
47.0665003495
11
3.7756759668
21
46.6190759726
62
91
0
LINE
8
Connections
10
3.7756759668
20
46.6190759726
11
9.0464003292
21
35.1119129727
62
91
0
LINE
8
Connections
10
9.0464003292
20
35.1119129727
11
32.8437951079
21
46.0120373927
62
91
0
LINE
8
Connections
10
32.8437951079
20
46.0120373927
11
33.2912194847
21
46.2169750097
62
91
0
LINE
8
Connections
10
33.2912194847
20
46.2169750097
11
33.4961571017
21
45.7695506328
62
91
0
LINE
8
Connections
10
12.9715224424
20
38.1473792180
11
13.4189468193
21
38.3523168350
62
91
0
LINE
8
Connections
10
13.4189468193
20
38.3523168350
11
13.6238844363
21
37.9048924582
62
91
0
LINE
8
Connections
10
13.6238844363
20
37.9048924582
11
13.8875143067
21
37.3293298444
62
91
0
LINE
8
Connections
10
13.8875143067
20
37.3293298444
11
32.8437951079
21
46.0120373927
62
91
0
LINE
8
Connections
10
32.8437951079
20
46.0120373927
11
33.2912194847
21
46.2169750097
62
91
0
LINE
8
Connections
10
33.2912194847
20
46.2169750097
11
33.4961571017
21
45.7695506328
62
91
0
ENDSEC
0
EOF