999
Design created by Aurora
0
SECTION
2
HEADER
9
$ACADVER
1
AC1009
9
$INSUNITS
70
2
0
ENDSEC
0
SECTION
2
TABLES
0
TABLE
2
LTYPE
100
AcDbLinetypeTableRecord
2
LTYPE
0
LTYPE
2
DASHED
70
0
3
dashed line
72
65
73
2
40
4.0
49
2.0
49
-2.0
0
ENDTAB
0
TABLE
2
LAYER
70
7
0
LAYER
100
AcDbSymbolTable
100
AcDbLayerTable
2
Obstructions
70
0
62
7
6
CONTINUOUS
0
LAYER
100
AcDbSymbolTable
100
AcDbLayerTable
2
Inverters
70
0
62
7
6
CONTINUOUS
0
LAYER
100
AcDbSymbolTable
100
AcDbLayerTable
2
Setbacks
70
0
62
7
6
CONTINUOUS
0
LAYER
100
AcDbSymbolTable
100
AcDbLayerTable
2
Connections
70
0
62
7
6
CONTINUOUS
0
LAYER
100
AcDbSymbolTable
100
AcDbLayerTable
2
Strings
70
0
62
7
6
CONTINUOUS
0
LAYER
100
AcDbSymbolTable
100
AcDbLayerTable
2
Modules
70
0
62
7
6
CONTINUOUS
0
LAYER
100
AcDbSymbolTable
100
AcDbLayerTable
2
Buildings
70
0
62
7
6
CONTINUOUS
0
ENDTAB
0
ENDSEC
0
SECTION
2
ENTITIES
0
LINE
8
Modules
10
-6.6897890263
20
8.9823458187
11
-12.6711554095
21
9.0329535095
62
254
0
LINE
8
Modules
10
-12.6711554095
20
9.0329535095
11
-12.7001623493
21
5.6045984196
62
254
0
LINE
8
Modules
10
-12.7001623493
20
5.6045984196
11
-6.7187959660
21
5.5539907288
62
254
0
LINE
8
Modules
10
-6.7187959660
20
5.5539907288
11
-6.6897890263
21
8.9823458187
62
254
0
LINE
8
Modules
10
-10.1015962799
20
7.7070321705
11
-10.1085357392
21
6.8868515270
62
254
0
LINE
8
Modules
10
-10.1085357392
20
6.8868515270
11
-9.2883550956
21
6.8799120678
62
254
0
LINE
8
Modules
10
-9.2883550956
20
6.8799120678
11
-9.2814156364
21
7.7000927113
62
254
0
LINE
8
Modules
10
-9.2814156364
20
7.7000927113
11
-10.1015962799
21
7.7070321705
62
254
0
LINE
8
Modules
10
-10.1015962799
20
7.7070321705
11
-9.2883550956
21
6.8799120678
62
254
0
TEXT
8
Modules
100
AcDbText
10
-9.5935006485
20
7.6535188672
1
DC
7
NewTextStyle_4
40
0.2624672000000003
50
-90.48476179493518
0
TEXT
8
Modules
100
AcDbText
10
-10.0551612250
20
7.3785435456
1
DC
7
NewTextStyle_4
40
0.2624672000000003
50
-90.48476179493518
0
LINE
8
Modules
10
-6.7188594164
20
5.5127421570
11
-12.7002257996
21
5.5633498478
62
254
0
LINE
8
Modules
10
-12.7002257996
20
5.5633498478
11
-12.7292327394
21
2.1349947579
62
254
0
LINE
8
Modules
10
-12.7292327394
20
2.1349947579
11
-6.7478663562
21
2.0843870671
62
254
0
LINE
8
Modules
10
-6.7478663562
20
2.0843870671
11
-6.7188594164
21
5.5127421570
62
254
0
LINE
8
Modules
10
-10.1306666700
20
4.2374285089
11
-10.1376061293
21
3.4172478653
62
254
0
LINE
8
Modules
10
-10.1376061293
20
3.4172478653
11
-9.3174254858
21
3.4103084061
62
254
0
LINE
8
Modules
10
-9.3174254858
20
3.4103084061
11
-9.3104860265
21
4.2304890496
62
254
0
LINE
8
Modules
10
-9.3104860265
20
4.2304890496
11
-10.1306666700
21
4.2374285089
62
254
0
LINE
8
Modules
10
-10.1306666700
20
4.2374285089
11
-9.3174254858
21
3.4103084061
62
254
0
TEXT
8
Modules
100
AcDbText
10
-9.6225710386
20
4.1839152055
1
DC
7
NewTextStyle_4
40
0.2624672000000003
50
-90.48476179493518
0
TEXT
8
Modules
100
AcDbText
10
-10.0842316151
20
3.9089398839
1
DC
7
NewTextStyle_4
40
0.2624672000000003
50
-90.48476179493518
0
LINE
8
Modules
10
-6.7479298107
20
2.0431384928
11
-12.7292961939
21
2.0937461835
62
254
0
LINE
8
Modules
10
-12.7292961939
20
2.0937461835
11
-12.7583031337
21
-1.3346089064
62
254
0
LINE
8
Modules
10
-12.7583031337
20
-1.3346089064
11
-6.7769367504
21
-1.3852165971
62
254
0
LINE
8
Modules
10
-6.7769367504
20
-1.3852165971
11
-6.7479298107
21
2.0431384928
62
254
0
LINE
8
Modules
10
-10.1597370643
20
0.7678248446
11
-10.1666765236
21
-0.0523557989
62
254
0
LINE
8
Modules
10
-10.1666765236
20
-0.0523557989
11
-9.3464958800
21
-0.0592952582
62
254
0
LINE
8
Modules
10
-9.3464958800
20
-0.0592952582
11
-9.3395564208
21
0.7608853853
62
254
0
LINE
8
Modules
10
-9.3395564208
20
0.7608853853
11
-10.1597370643
21
0.7678248446
62
254
0
LINE
8
Modules
10
-10.1597370643
20
0.7678248446
11
-9.3464958800
21
-0.0592952582
62
254
0
TEXT
8
Modules
100
AcDbText
10
-9.6516414329
20
0.7143115412
1
DC
7
NewTextStyle_4
40
0.2624672000000003
50
-90.48476179493518
0
TEXT
8
Modules
100
AcDbText
10
-10.1133020094
20
0.4393362196
1
DC
7
NewTextStyle_4
40
0.2624672000000003
50
-90.48476179493518
0
LINE
8
Modules
10
-6.7770002008
20
-1.4264651689
11
-12.7583665840
21
-1.3758574781
62
254
0
LINE
8
Modules
10
-12.7583665840
20
-1.3758574781
11
-12.7873735238
21
-4.8042125681
62
254
0
LINE
8
Modules
10
-12.7873735238
20
-4.8042125681
11
-6.8060071405
21
-4.8548202588
62
254
0
LINE
8
Modules
10
-6.8060071405
20
-4.8548202588
11
-6.7770002008
21
-1.4264651689
62
254
0
LINE
8
Modules
10
-10.1888074544
20
-2.7017788171
11
-10.1957469137
21
-3.5219594606
62
254
0
LINE
8
Modules
10
-10.1957469137
20
-3.5219594606
11
-9.3755662702
21
-3.5288989199
62
254
0
LINE
8
Modules
10
-9.3755662702
20
-3.5288989199
11
-9.3686268109
21
-2.7087182764
62
254
0
LINE
8
Modules
10
-9.3686268109
20
-2.7087182764
11
-10.1888074544
21
-2.7017788171
62
254
0
LINE
8
Modules
10
-10.1888074544
20
-2.7017788171
11
-9.3755662702
21
-3.5288989199
62
254
0
TEXT
8
Modules
100
AcDbText
10
-9.6807118230
20
-2.7552921204
1
DC
7
NewTextStyle_4
40
0.2624672000000003
50
-90.48476179493518
0
TEXT
8
Modules
100
AcDbText
10
-10.1423723995
20
-3.0302674420
1
DC
7
NewTextStyle_4
40
0.2624672000000003
50
-90.48476179493518
0
LINE
8
Modules
10
-6.8060705909
20
-4.8997210453
11
-12.7874369742
21
-4.8491133545
62
254
0
LINE
8
Modules
10
-12.7874369742
20
-4.8491133545
11
-12.8164439139
21
-8.2774684444
62
254
0
LINE
8
Modules
10
-12.8164439139
20
-8.2774684444
11
-6.8350775307
21
-8.3280761352
62
254
0
LINE
8
Modules
10
-6.8350775307
20
-8.3280761352
11
-6.8060705909
21
-4.8997210453
62
254
0
LINE
8
Modules
10
-10.2178778446
20
-6.1750346934
11
-10.2248173038
21
-6.9952153370
62
254
0
LINE
8
Modules
10
-10.2248173038
20
-6.9952153370
11
-9.4046366603
21
-7.0021547962
62
254
0
LINE
8
Modules
10
-9.4046366603
20
-7.0021547962
11
-9.3976972010
21
-6.1819741527
62
254
0
LINE
8
Modules
10
-9.3976972010
20
-6.1819741527
11
-10.2178778446
21
-6.1750346934
62
254
0
LINE
8
Modules
10
-10.2178778446
20
-6.1750346934
11
-9.4046366603
21
-7.0021547962
62
254
0
TEXT
8
Modules
100
AcDbText
10
-9.7097822131
20
-6.2285479968
1
DC
7
NewTextStyle_4
40
0.2624672000000003
50
-90.48476179493518
0
TEXT
8
Modules
100
AcDbText
10
-10.1714427897
20
-6.5035233184
1
DC
7
NewTextStyle_4
40
0.2624672000000003
50
-90.48476179493518
0
LINE
8
Modules
10
-6.9397943963
20
-18.6320471202
11
-12.9211607795
21
-18.5814394294
62
254
0
LINE
8
Modules
10
-12.9211607795
20
-18.5814394294
11
-12.9501677193
21
-22.0097945193
62
254
0
LINE
8
Modules
10
-12.9501677193
20
-22.0097945193
11
-6.9688013360
21
-22.0604022101
62
254
0
LINE
8
Modules
10
-6.9688013360
20
-22.0604022101
11
-6.9397943963
21
-18.6320471202
62
254
0
LINE
8
Modules
10
-10.3516016499
20
-19.9073607684
11
-10.3585411092
21
-20.7275414119
62
254
0
LINE
8
Modules
10
-10.3585411092
20
-20.7275414119
11
-9.5383604657
21
-20.7344808712
62
254
0
LINE
8
Modules
10
-9.5383604657
20
-20.7344808712
11
-9.5314210064
21
-19.9143002277
62
254
0
LINE
8
Modules
10
-9.5314210064
20
-19.9143002277
11
-10.3516016499
21
-19.9073607684
62
254
0
LINE
8
Modules
10
-10.3516016499
20
-19.9073607684
11
-9.5383604657
21
-20.7344808712
62
254
0
TEXT
8
Modules
100
AcDbText
10
-9.8435060185
20
-19.9608740717
1
DC
7
NewTextStyle_4
40
0.2624672000000003
50
-90.48476179493518
0
TEXT
8
Modules
100
AcDbText
10
-10.3051665950
20
-20.2358493933
1
DC
7
NewTextStyle_4
40
0.2624672000000003
50
-90.48476179493518
0
LINE
8
Modules
10
-6.9107240020
20
-15.1587912438
11
-12.8920903853
21
-15.1081835531
62
254
0
LINE
8
Modules
10
-12.8920903853
20
-15.1081835531
11
-12.9210973250
21
-18.5365386430
62
254
0
LINE
8
Modules
10
-12.9210973250
20
-18.5365386430
11
-6.9397309418
21
-18.5871463338
62
254
0
LINE
8
Modules
10
-6.9397309418
20
-18.5871463338
11
-6.9107240020
21
-15.1587912438
62
254
0
LINE
8
Modules
10
-10.3225312556
20
-16.4341048920
11
-10.3294707149
21
-17.2542855355
62
254
0
LINE
8
Modules
10
-10.3294707149
20
-17.2542855355
11
-9.5092900714
21
-17.2612249948
62
254
0
LINE
8
Modules
10
-9.5092900714
20
-17.2612249948
11
-9.5023506121
21
-16.4410443513
62
254
0
LINE
8
Modules
10
-9.5023506121
20
-16.4410443513
11
-10.3225312556
21
-16.4341048920
62
254
0
LINE
8
Modules
10
-10.3225312556
20
-16.4341048920
11
-9.5092900714
21
-17.2612249948
62
254
0
TEXT
8
Modules
100
AcDbText
10
-9.8144356242
20
-16.4876181954
1
DC
7
NewTextStyle_4
40
0.2624672000000003
50
-90.48476179493518
0
TEXT
8
Modules
100
AcDbText
10
-10.2760962007
20
-16.7625935170
1
DC
7
NewTextStyle_4
40
0.2624672000000003
50
-90.48476179493518
0
LINE
8
Modules
10
-2.0700332239
20
-14.0431248145
11
-2.0887137479
21
-17.4194646558
62
254
0
LINE
8
Modules
10
-2.0887137479
20
-17.4194646558
11
4.0758902587
21
-17.4535720142
62
254
0
LINE
8
Modules
10
4.0758902587
20
-17.4535720142
11
4.0945707827
21
-14.0772321729
62
254
0
LINE
8
Modules
10
4.0945707827
20
-14.0772321729
11
-2.0700332239
21
-14.0431248145
62
254
0
LINE
8
Modules
10
0.5905608109
20
-16.1561781541
11
1.4107582572
21
-16.1607161209
62
254
0
LINE
8
Modules
10
1.4107582572
20
-16.1607161209
11
1.4152962240
21
-15.3405186746
62
254
0
LINE
8
Modules
10
1.4152962240
20
-15.3405186746
11
0.5950987777
21
-15.3359807078
62
254
0
LINE
8
Modules
10
0.5950987777
20
-15.3359807078
11
0.5905608109
21
-16.1561781541
62
254
0
LINE
8
Modules
10
0.5905608109
20
-16.1561781541
11
1.4152962240
21
-15.3405186746
62
254
0
TEXT
8
Modules
100
AcDbText
10
0.6425861971
20
-15.6479280154
1
DC
7
NewTextStyle_4
40
0.2624672000000003
50
-0.31700134276998615
0
TEXT
8
Modules
100
AcDbText
10
0.9189120674
20
-16.1087814941
1
DC
7
NewTextStyle_4
40
0.2624672000000003
50
-0.31700134276998615
0
LINE
8
Modules
10
4.1364954372
20
-14.0796469588
11
4.1178149132
21
-17.4559868001
62
254
0
LINE
8
Modules
10
4.1178149132
20
-17.4559868001
11
10.2824189198
21
-17.4900941585
62
254
0
LINE
8
Modules
10
10.2824189198
20
-17.4900941585
11
10.3010994438
21
-14.1137543172
62
254
0
LINE
8
Modules
10
10.3010994438
20
-14.1137543172
11
4.1364954372
21
-14.0796469588
62
254
0
LINE
8
Modules
10
6.7970894720
20
-16.1927002984
11
7.6172869183
21
-16.1972382652
62
254
0
LINE
8
Modules
10
7.6172869183
20
-16.1972382652
11
7.6218248851
21
-15.3770408189
62
254
0
LINE
8
Modules
10
7.6218248851
20
-15.3770408189
11
6.8016274388
21
-15.3725028521
62
254
0
LINE
8
Modules
10
6.8016274388
20
-15.3725028521
11
6.7970894720
21
-16.1927002984
62
254
0
LINE
8
Modules
10
6.7970894720
20
-16.1927002984
11
7.6218248851
21
-15.3770408189
62
254
0
TEXT
8
Modules
100
AcDbText
10
6.8491148582
20
-15.6844501597
1
DC
7
NewTextStyle_4
40
0.2624672000000003
50
-0.31700134276998615
0
TEXT
8
Modules
100
AcDbText
10
7.1254407285
20
-16.1453036383
1
DC
7
NewTextStyle_4
40
0.2624672000000003
50
-0.31700134276998615
0
LINE
8
Modules
10
10.3430240983
20
-14.1125168883
11
10.3243435743
21
-17.4888567296
62
254
0
LINE
8
Modules
10
10.3243435743
20
-17.4888567296
11
16.4889475809
21
-17.5229640880
62
254
0
LINE
8
Modules
10
16.4889475809
20
-17.5229640880
11
16.5076281049
21
-14.1466242467
62
254
0
LINE
8
Modules
10
16.5076281049
20
-14.1466242467
11
10.3430240983
21
-14.1125168883
62
254
0
LINE
8
Modules
10
13.0036181331
20
-16.2255702279
11
13.8238155794
21
-16.2301081947
62
254
0
LINE
8
Modules
10
13.8238155794
20
-16.2301081947
11
13.8283535462
21
-15.4099107484
62
254
0
LINE
8
Modules
10
13.8283535462
20
-15.4099107484
11
13.0081560999
21
-15.4053727816
62
254
0
LINE
8
Modules
10
13.0081560999
20
-15.4053727816
11
13.0036181331
21
-16.2255702279
62
254
0
LINE
8
Modules
10
13.0036181331
20
-16.2255702279
11
13.8283535462
21
-15.4099107484
62
254
0
TEXT
8
Modules
100
AcDbText
10
13.0556435193
20
-15.7173200892
1
DC
7
NewTextStyle_4
40
0.2624672000000003
50
-0.31700134276998615
0
TEXT
8
Modules
100
AcDbText
10
13.3319693896
20
-16.1781735679
1
DC
7
NewTextStyle_4
40
0.2624672000000003
50
-0.31700134276998615
0
LINE
8
Modules
10
16.5495527636
20
-14.1490390326
11
16.5308722396
21
-17.5253788739
62
254
0
LINE
8
Modules
10
16.5308722396
20
-17.5253788739
11
22.6954762461
21
-17.5594862323
62
254
0
LINE
8
Modules
10
22.6954762461
20
-17.5594862323
11
22.7141567701
21
-14.1831463910
62
254
0
LINE
8
Modules
10
22.7141567701
20
-14.1831463910
11
16.5495527636
21
-14.1490390326
62
254
0
LINE
8
Modules
10
19.2101467983
20
-16.2620923722
11
20.0303442446
21
-16.2666303390
62
254
0
LINE
8
Modules
10
20.0303442446
20
-16.2666303390
11
20.0348822114
21
-15.4464328927
62
254
0
LINE
8
Modules
10
20.0348822114
20
-15.4464328927
11
19.2146847651
21
-15.4418949259
62
254
0
LINE
8
Modules
10
19.2146847651
20
-15.4418949259
11
19.2101467983
21
-16.2620923722
62
254
0
LINE
8
Modules
10
19.2101467983
20
-16.2620923722
11
20.0348822114
21
-15.4464328927
62
254
0
TEXT
8
Modules
100
AcDbText
10
19.2621721845
20
-15.7538422335
1
DC
7
NewTextStyle_4
40
0.2624672000000003
50
-0.31700134276998615
0
TEXT
8
Modules
100
AcDbText
10
19.5384980548
20
-16.2146957121
1
DC
7
NewTextStyle_4
40
0.2624672000000003
50
-0.31700134276998615
0
LINE
8
Modules
10
22.7560814247
20
-14.1819089621
11
22.7374009007
21
-17.5582488034
62
254
0
LINE
8
Modules
10
22.7374009007
20
-17.5582488034
11
28.9020049072
21
-17.5923561619
62
254
0
LINE
8
Modules
10
28.9020049072
20
-17.5923561619
11
28.9206854312
21
-14.2160163205
62
254
0
LINE
8
Modules
10
28.9206854312
20
-14.2160163205
11
22.7560814247
21
-14.1819089621
62
254
0
LINE
8
Modules
10
25.4166754594
20
-16.2949623018
11
26.2368729057
21
-16.2995002685
62
254
0
LINE
8
Modules
10
26.2368729057
20
-16.2995002685
11
26.2414108725
21
-15.4793028222
62
254
0
LINE
8
Modules
10
26.2414108725
20
-15.4793028222
11
25.4212134262
21
-15.4747648554
62
254
0
LINE
8
Modules
10
25.4212134262
20
-15.4747648554
11
25.4166754594
21
-16.2949623018
62
254
0
LINE
8
Modules
10
25.4166754594
20
-16.2949623018
11
26.2414108725
21
-15.4793028222
62
254
0
TEXT
8
Modules
100
AcDbText
10
25.4687008456
20
-15.7867121630
1
DC
7
NewTextStyle_4
40
0.2624672000000003
50
-0.31700134276998615
0
TEXT
8
Modules
100
AcDbText
10
25.7450267159
20
-16.2475656417
1
DC
7
NewTextStyle_4
40
0.2624672000000003
50
-0.31700134276998615
0
LINE
8
Modules
10
28.9626100858
20
-14.2147788917
11
28.9439295618
21
-17.5911187330
62
254
0
LINE
8
Modules
10
28.9439295618
20
-17.5911187330
11
35.1085335683
21
-17.6252260914
62
254
0
LINE
8
Modules
10
35.1085335683
20
-17.6252260914
11
35.1272140923
21
-14.2488862501
62
254
0
LINE
8
Modules
10
35.1272140923
20
-14.2488862501
11
28.9626100858
21
-14.2147788917
62
254
0
LINE
8
Modules
10
31.6232041205
20
-16.3278322313
11
32.4434015668
21
-16.3323701981
62
254
0
LINE
8
Modules
10
32.4434015668
20
-16.3323701981
11
32.4479395336
21
-15.5121727518
62
254
0
LINE
8
Modules
10
32.4479395336
20
-15.5121727518
11
31.6277420873
21
-15.5076347850
62
254
0
LINE
8
Modules
10
31.6277420873
20
-15.5076347850
11
31.6232041205
21
-16.3278322313
62
254
0
LINE
8
Modules
10
31.6232041205
20
-16.3278322313
11
32.4479395336
21
-15.5121727518
62
254
0
TEXT
8
Modules
100
AcDbText
10
31.6752295067
20
-15.8195820926
1
DC
7
NewTextStyle_4
40
0.2624672000000003
50
-0.31700134276998615
0
TEXT
8
Modules
100
AcDbText
10
31.9515553770
20
-16.2804355713
1
DC
7
NewTextStyle_4
40
0.2624672000000003
50
-0.31700134276998615
0
LINE
8
Modules
10
35.1691387469
20
-14.2513010359
11
35.1504582229
21
-17.6276408772
62
254
0
LINE
8
Modules
10
35.1504582229
20
-17.6276408772
11
41.3150622294
21
-17.6617482357
62
254
0
LINE
8
Modules
10
41.3150622294
20
-17.6617482357
11
41.3337427534
21
-14.2854083943
62
254
0
LINE
8
Modules
10
41.3337427534
20
-14.2854083943
11
35.1691387469
21
-14.2513010359
62
254
0
LINE
8
Modules
10
37.8297327816
20
-16.3643543756
11
38.6499302279
21
-16.3688923424
62
254
0
LINE
8
Modules
10
38.6499302279
20
-16.3688923424
11
38.6544681947
21
-15.5486948960
62
254
0
LINE
8
Modules
10
38.6544681947
20
-15.5486948960
11
37.8342707484
21
-15.5441569292
62
254
0
LINE
8
Modules
10
37.8342707484
20
-15.5441569292
11
37.8297327816
21
-16.3643543756
62
254
0
LINE
8
Modules
10
37.8297327816
20
-16.3643543756
11
38.6544681947
21
-15.5486948960
62
254
0
TEXT
8
Modules
100
AcDbText
10
37.8817581678
20
-15.8561042368
1
DC
7
NewTextStyle_4
40
0.2624672000000003
50
-0.31700134276998615
0
TEXT
8
Modules
100
AcDbText
10
38.1580840381
20
-16.3169577155
1
DC
7
NewTextStyle_4
40
0.2624672000000003
50
-0.31700134276998615
0
LINE
8
Modules
10
-2.0409628337
20
-9.1674186163
11
-2.0596433577
21
-12.5437584576
62
254
0
LINE
8
Modules
10
-2.0596433577
20
-12.5437584576
11
4.1049606488
21
-12.5778658160
62
254
0
LINE
8
Modules
10
4.1049606488
20
-12.5778658160
11
4.1236411729
21
-9.2015259747
62
254
0
LINE
8
Modules
10
4.1236411729
20
-9.2015259747
11
-2.0409628337
21
-9.1674186163
62
254
0
LINE
8
Modules
10
0.6196312010
20
-11.2804719559
11
1.4398286473
21
-11.2850099227
62
254
0
LINE
8
Modules
10
1.4398286473
20
-11.2850099227
11
1.4443666141
21
-10.4648124764
62
254
0
LINE
8
Modules
10
1.4443666141
20
-10.4648124764
11
0.6241691678
21
-10.4602745096
62
254
0
LINE
8
Modules
10
0.6241691678
20
-10.4602745096
11
0.6196312010
21
-11.2804719559
62
254
0
LINE
8
Modules
10
0.6196312010
20
-11.2804719559
11
1.4443666141
21
-10.4648124764
62
254
0
TEXT
8
Modules
100
AcDbText
10
0.6716565872
20
-10.7722218172
1
DC
7
NewTextStyle_4
40
0.2624672000000003
50
-0.31700134276998615
0
TEXT
8
Modules
100
AcDbText
10
0.9479824575
20
-11.2330752959
1
DC
7
NewTextStyle_4
40
0.2624672000000003
50
-0.31700134276998615
0
LINE
8
Modules
10
4.1626587900
20
-9.2039407579
11
4.1439782660
21
-12.5802805993
62
254
0
LINE
8
Modules
10
4.1439782660
20
-12.5802805993
11
10.3085822726
21
-12.6143879577
62
254
0
LINE
8
Modules
10
10.3085822726
20
-12.6143879577
11
10.3272627966
21
-9.2380481164
62
254
0
LINE
8
Modules
10
10.3272627966
20
-9.2380481164
11
4.1626587900
21
-9.2039407579
62
254
0
LINE
8
Modules
10
6.8232528247
20
-11.3169940976
11
7.6434502711
21
-11.3215320644
62
254
0
LINE
8
Modules
10
7.6434502711
20
-11.3215320644
11
7.6479882379
21
-10.5013346180
62
254
0
LINE
8
Modules
10
7.6479882379
20
-10.5013346180
11
6.8277907915
21
-10.4967966513
62
254
0
LINE
8
Modules
10
6.8277907915
20
-10.4967966513
11
6.8232528247
21
-11.3169940976
62
254
0
LINE
8
Modules
10
6.8232528247
20
-11.3169940976
11
7.6479882379
21
-10.5013346180
62
254
0
TEXT
8
Modules
100
AcDbText
10
6.8752782109
20
-10.8087439589
1
DC
7
NewTextStyle_4
40
0.2624672000000003
50
-0.31700134276998615
0
TEXT
8
Modules
100
AcDbText
10
7.1516040813
20
-11.2695974375
1
DC
7
NewTextStyle_4
40
0.2624672000000003
50
-0.31700134276998615
0
LINE
8
Modules
10
10.3691874511
20
-9.2368106875
11
10.3505069271
21
-12.6131505288
62
254
0
LINE
8
Modules
10
10.3505069271
20
-12.6131505288
11
16.5151109337
21
-12.6472578872
62
254
0
LINE
8
Modules
10
16.5151109337
20
-12.6472578872
11
16.5337914577
21
-9.2709180459
62
254
0
LINE
8
Modules
10
16.5337914577
20
-9.2709180459
11
10.3691874511
21
-9.2368106875
62
254
0
LINE
8
Modules
10
13.0297814858
20
-11.3498640271
11
13.8499789322
21
-11.3544019939
62
254
0
LINE
8
Modules
10
13.8499789322
20
-11.3544019939
11
13.8545168990
21
-10.5342045476
62
254
0
LINE
8
Modules
10
13.8545168990
20
-10.5342045476
11
13.0343194526
21
-10.5296665808
62
254
0
LINE
8
Modules
10
13.0343194526
20
-10.5296665808
11
13.0297814858
21
-11.3498640271
62
254
0
LINE
8
Modules
10
13.0297814858
20
-11.3498640271
11
13.8545168990
21
-10.5342045476
62
254
0
TEXT
8
Modules
100
AcDbText
10
13.0818068720
20
-10.8416138884
1
DC
7
NewTextStyle_4
40
0.2624672000000003
50
-0.31700134276998615
0
TEXT
8
Modules
100
AcDbText
10
13.3581327424
20
-11.3024673671
1
DC
7
NewTextStyle_4
40
0.2624672000000003
50
-0.31700134276998615
0
LINE
8
Modules
10
16.5757161163
20
-9.2696806171
11
16.5570355923
21
-12.6460204584
62
254
0
LINE
8
Modules
10
16.5570355923
20
-12.6460204584
11
22.7216395989
21
-12.6801278168
62
254
0
LINE
8
Modules
10
22.7216395989
20
-12.6801278168
11
22.7403201229
21
-9.3037879755
62
254
0
LINE
8
Modules
10
22.7403201229
20
-9.3037879755
11
16.5757161163
21
-9.2696806171
62
254
0
LINE
8
Modules
10
19.2363101511
20
-11.3827339567
11
20.0565075974
21
-11.3872719235
62
254
0
LINE
8
Modules
10
20.0565075974
20
-11.3872719235
11
20.0610455642
21
-10.5670744772
62
254
0
LINE
8
Modules
10
20.0610455642
20
-10.5670744772
11
19.2408481179
21
-10.5625365104
62
254
0
LINE
8
Modules
10
19.2408481179
20
-10.5625365104
11
19.2363101511
21
-11.3827339567
62
254
0
LINE
8
Modules
10
19.2363101511
20
-11.3827339567
11
20.0610455642
21
-10.5670744772
62
254
0
TEXT
8
Modules
100
AcDbText
10
19.2883355373
20
-10.8744838180
1
DC
7
NewTextStyle_4
40
0.2624672000000003
50
-0.31700134276998615
0
TEXT
8
Modules
100
AcDbText
10
19.5646614076
20
-11.3353372966
1
DC
7
NewTextStyle_4
40
0.2624672000000003
50
-0.31700134276998615
0
LINE
8
Modules
10
22.7822447774
20
-9.3062027613
11
22.7635642534
21
-12.6825426026
62
254
0
LINE
8
Modules
10
22.7635642534
20
-12.6825426026
11
28.9281682600
21
-12.7166499610
62
254
0
LINE
8
Modules
10
28.9281682600
20
-12.7166499610
11
28.9468487840
21
-9.3403101197
62
254
0
LINE
8
Modules
10
28.9468487840
20
-9.3403101197
11
22.7822447774
21
-9.3062027613
62
254
0
LINE
8
Modules
10
25.4428388122
20
-11.4192561009
11
26.2630362585
21
-11.4237940677
62
254
0
LINE
8
Modules
10
26.2630362585
20
-11.4237940677
11
26.2675742253
21
-10.6035966214
62
254
0
LINE
8
Modules
10
26.2675742253
20
-10.6035966214
11
25.4473767790
21
-10.5990586546
62
254
0
LINE
8
Modules
10
25.4473767790
20
-10.5990586546
11
25.4428388122
21
-11.4192561009
62
254
0
LINE
8
Modules
10
25.4428388122
20
-11.4192561009
11
26.2675742253
21
-10.6035966214
62
254
0
TEXT
8
Modules
100
AcDbText
10
25.4948641984
20
-10.9110059622
1
DC
7
NewTextStyle_4
40
0.2624672000000003
50
-0.31700134276998615
0
TEXT
8
Modules
100
AcDbText
10
25.7711900687
20
-11.3718594409
1
DC
7
NewTextStyle_4
40
0.2624672000000003
50
-0.31700134276998615
0
LINE
8
Modules
10
28.9887734385
20
-9.3390726909
11
28.9700929145
21
-12.7154125322
62
254
0
LINE
8
Modules
10
28.9700929145
20
-12.7154125322
11
35.1346969211
21
-12.7495198906
62
254
0
LINE
8
Modules
10
35.1346969211
20
-12.7495198906
11
35.1533774451
21
-9.3731800493
62
254
0
LINE
8
Modules
10
35.1533774451
20
-9.3731800493
11
28.9887734385
21
-9.3390726909
62
254
0
LINE
8
Modules
10
31.6493674733
20
-11.4521260305
11
32.4695649196
21
-11.4566639973
62
254
0
LINE
8
Modules
10
32.4695649196
20
-11.4566639973
11
32.4741028864
21
-10.6364665510
62
254
0
LINE
8
Modules
10
32.4741028864
20
-10.6364665510
11
31.6539054401
21
-10.6319285842
62
254
0
LINE
8
Modules
10
31.6539054401
20
-10.6319285842
11
31.6493674733
21
-11.4521260305
62
254
0
LINE
8
Modules
10
31.6493674733
20
-11.4521260305
11
32.4741028864
21
-10.6364665510
62
254
0
TEXT
8
Modules
100
AcDbText
10
31.7013928595
20
-10.9438758918
1
DC
7
NewTextStyle_4
40
0.2624672000000003
50
-0.31700134276998615
0
TEXT
8
Modules
100
AcDbText
10
31.9777187298
20
-11.4047293704
1
DC
7
NewTextStyle_4
40
0.2624672000000003
50
-0.31700134276998615
0
LINE
8
Modules
10
-2.0147994810
20
-4.2917124155
11
-2.0334800050
21
-7.6680522568
62
254
0
LINE
8
Modules
10
-2.0334800050
20
-7.6680522568
11
4.1311240016
21
-7.7021596152
62
254
0
LINE
8
Modules
10
4.1311240016
20
-7.7021596152
11
4.1498045256
21
-4.3258197739
62
254
0
LINE
8
Modules
10
4.1498045256
20
-4.3258197739
11
-2.0147994810
21
-4.2917124155
62
254
0
LINE
8
Modules
10
0.6457945538
20
-6.4047657551
11
1.4659920001
21
-6.4093037219
62
254
0
LINE
8
Modules
10
1.4659920001
20
-6.4093037219
11
1.4705299669
21
-5.5891062756
62
254
0
LINE
8
Modules
10
1.4705299669
20
-5.5891062756
11
0.6503325206
21
-5.5845683088
62
254
0
LINE
8
Modules
10
0.6503325206
20
-5.5845683088
11
0.6457945538
21
-6.4047657551
62
254
0
LINE
8
Modules
10
0.6457945538
20
-6.4047657551
11
1.4705299669
21
-5.5891062756
62
254
0
TEXT
8
Modules
100
AcDbText
10
0.6978199400
20
-5.8965156164
1
DC
7
NewTextStyle_4
40
0.2624672000000003
50
-0.31700134276998615
0
TEXT
8
Modules
100
AcDbText
10
0.9741458103
20
-6.3573690951
1
DC
7
NewTextStyle_4
40
0.2624672000000003
50
-0.31700134276998615
0
LINE
8
Modules
10
4.1917291843
20
-4.3245823450
11
4.1730486603
21
-7.7009221864
62
254
0
LINE
8
Modules
10
4.1730486603
20
-7.7009221864
11
10.3376526669
21
-7.7350295448
62
254
0
LINE
8
Modules
10
10.3376526669
20
-7.7350295448
11
10.3563331909
21
-4.3586897035
62
254
0
LINE
8
Modules
10
10.3563331909
20
-4.3586897035
11
4.1917291843
21
-4.3245823450
62
254
0
LINE
8
Modules
10
6.8523232190
20
-6.4376356847
11
7.6725206653
21
-6.4421736515
62
254
0
LINE
8
Modules
10
7.6725206653
20
-6.4421736515
11
7.6770586321
21
-5.6219762051
62
254
0
LINE
8
Modules
10
7.6770586321
20
-5.6219762051
11
6.8568611858
21
-5.6174382384
62
254
0
LINE
8
Modules
10
6.8568611858
20
-5.6174382384
11
6.8523232190
21
-6.4376356847
62
254
0
LINE
8
Modules
10
6.8523232190
20
-6.4376356847
11
7.6770586321
21
-5.6219762051
62
254
0
TEXT
8
Modules
100
AcDbText
10
6.9043486052
20
-5.9293855460
1
DC
7
NewTextStyle_4
40
0.2624672000000003
50
-0.31700134276998615
0
TEXT
8
Modules
100
AcDbText
10
7.1806744755
20
-6.3902390246
1
DC
7
NewTextStyle_4
40
0.2624672000000003
50
-0.31700134276998615
0
LINE
8
Modules
10
10.3982578454
20
-4.3611044893
11
10.3795773214
21
-7.7374443306
62
254
0
LINE
8
Modules
10
10.3795773214
20
-7.7374443306
11
16.5441813280
21
-7.7715516890
62
254
0
LINE
8
Modules
10
16.5441813280
20
-7.7715516890
11
16.5628618520
21
-4.3952118477
62
254
0
LINE
8
Modules
10
16.5628618520
20
-4.3952118477
11
10.3982578454
21
-4.3611044893
62
254
0
LINE
8
Modules
10
13.0588518801
20
-6.4741578289
11
13.8790493264
21
-6.4786957957
62
254
0
LINE
8
Modules
10
13.8790493264
20
-6.4786957957
11
13.8835872932
21
-5.6584983494
62
254
0
LINE
8
Modules
10
13.8835872932
20
-5.6584983494
11
13.0633898469
21
-5.6539603826
62
254
0
LINE
8
Modules
10
13.0633898469
20
-5.6539603826
11
13.0588518801
21
-6.4741578289
62
254
0
LINE
8
Modules
10
13.0588518801
20
-6.4741578289
11
13.8835872932
21
-5.6584983494
62
254
0
TEXT
8
Modules
100
AcDbText
10
13.1108772663
20
-5.9659076902
1
DC
7
NewTextStyle_4
40
0.2624672000000003
50
-0.31700134276998615
0
TEXT
8
Modules
100
AcDbText
10
13.3872031366
20
-6.4267611689
1
DC
7
NewTextStyle_4
40
0.2624672000000003
50
-0.31700134276998615
0
LINE
8
Modules
10
16.6047865065
20
-4.3939744189
11
16.5861059825
21
-7.7703142602
62
254
0
LINE
8
Modules
10
16.5861059825
20
-7.7703142602
11
22.7507099891
21
-7.8044216186
62
254
0
LINE
8
Modules
10
22.7507099891
20
-7.8044216186
11
22.7693905131
21
-4.4280817773
62
254
0
LINE
8
Modules
10
22.7693905131
20
-4.4280817773
11
16.6047865065
21
-4.3939744189
62
254
0
LINE
8
Modules
10
19.2653805412
20
-6.5070277585
11
20.0855779875
21
-6.5115657253
62
254
0
LINE
8
Modules
10
20.0855779875
20
-6.5115657253
11
20.0901159543
21
-5.6913682790
62
254
0
LINE
8
Modules
10
20.0901159543
20
-5.6913682790
11
19.2699185080
21
-5.6868303122
62
254
0
LINE
8
Modules
10
19.2699185080
20
-5.6868303122
11
19.2653805412
21
-6.5070277585
62
254
0
LINE
8
Modules
10
19.2653805412
20
-6.5070277585
11
20.0901159543
21
-5.6913682790
62
254
0
TEXT
8
Modules
100
AcDbText
10
19.3174059274
20
-5.9987776198
1
DC
7
NewTextStyle_4
40
0.2624672000000003
50
-0.31700134276998615
0
TEXT
8
Modules
100
AcDbText
10
19.5937317977
20
-6.4596310984
1
DC
7
NewTextStyle_4
40
0.2624672000000003
50
-0.31700134276998615
0
LINE
8
Modules
10
22.8084081302
20
-4.4304965631
11
22.7897276062
21
-7.8068364044
62
254
0
LINE
8
Modules
10
22.7897276062
20
-7.8068364044
11
28.9543316128
21
-7.8409437628
62
254
0
LINE
8
Modules
10
28.9543316128
20
-7.8409437628
11
28.9730121368
21
-4.4646039215
62
254
0
LINE
8
Modules
10
28.9730121368
20
-4.4646039215
11
22.8084081302
21
-4.4304965631
62
254
0
LINE
8
Modules
10
25.4690021649
20
-6.5435499027
11
26.2891996113
21
-6.5480878695
62
254
0
LINE
8
Modules
10
26.2891996113
20
-6.5480878695
11
26.2937375781
21
-5.7278904232
62
254
0
LINE
8
Modules
10
26.2937375781
20
-5.7278904232
11
25.4735401317
21
-5.7233524564
62
254
0
LINE
8
Modules
10
25.4735401317
20
-5.7233524564
11
25.4690021649
21
-6.5435499027
62
254
0
LINE
8
Modules
10
25.4690021649
20
-6.5435499027
11
26.2937375781
21
-5.7278904232
62
254
0
TEXT
8
Modules
100
AcDbText
10
25.5210275511
20
-6.0352997640
1
DC
7
NewTextStyle_4
40
0.2624672000000003
50
-0.31700134276998615
0
TEXT
8
Modules
100
AcDbText
10
25.7973534215
20
-6.4961532427
1
DC
7
NewTextStyle_4
40
0.2624672000000003
50
-0.31700134276998615
0
LINE
8
Modules
10
29.0149367913
20
-4.4633664927
11
28.9962562673
21
-7.8397063340
62
254
0
LINE
8
Modules
10
28.9962562673
20
-7.8397063340
11
35.1608602739
21
-7.8738136924
62
254
0
LINE
8
Modules
10
35.1608602739
20
-7.8738136924
11
35.1795407979
21
-4.4974738511
62
254
0
LINE
8
Modules
10
35.1795407979
20
-4.4974738511
11
29.0149367913
21
-4.4633664927
62
254
0
LINE
8
Modules
10
31.6755308260
20
-6.5764198323
11
32.4957282724
21
-6.5809577991
62
254
0
LINE
8
Modules
10
32.4957282724
20
-6.5809577991
11
32.5002662392
21
-5.7607603528
62
254
0
LINE
8
Modules
10
32.5002662392
20
-5.7607603528
11
31.6800687928
21
-5.7562223860
62
254
0
LINE
8
Modules
10
31.6800687928
20
-5.7562223860
11
31.6755308260
21
-6.5764198323
62
254
0
LINE
8
Modules
10
31.6755308260
20
-6.5764198323
11
32.5002662392
21
-5.7607603528
62
254
0
TEXT
8
Modules
100
AcDbText
10
31.7275562122
20
-6.0681696936
1
DC
7
NewTextStyle_4
40
0.2624672000000003
50
-0.31700134276998615
0
TEXT
8
Modules
100
AcDbText
10
32.0038820826
20
-6.5290231722
1
DC
7
NewTextStyle_4
40
0.2624672000000003
50
-0.31700134276998615
0
LINE
8
Modules
10
-1.9886361282
20
0.5839937827
11
-2.0073166522
21
-2.7923460586
62
254
0
LINE
8
Modules
10
-2.0073166522
20
-2.7923460586
11
4.1572873544
21
-2.8264534170
62
254
0
LINE
8
Modules
10
4.1572873544
20
-2.8264534170
11
4.1759678784
21
0.5498864243
62
254
0
LINE
8
Modules
10
4.1759678784
20
0.5498864243
11
-1.9886361282
21
0.5839937827
62
254
0
LINE
8
Modules
10
0.6719579065
20
-1.5290595569
11
1.4921553529
21
-1.5335975237
62
254
0
LINE
8
Modules
10
1.4921553529
20
-1.5335975237
11
1.4966933197
21
-0.7134000774
62
254
0
LINE
8
Modules
10
1.4966933197
20
-0.7134000774
11
0.6764958733
21
-0.7088621106
62
254
0
LINE
8
Modules
10
0.6764958733
20
-0.7088621106
11
0.6719579065
21
-1.5290595569
62
254
0
LINE
8
Modules
10
0.6719579065
20
-1.5290595569
11
1.4966933197
21
-0.7134000774
62
254
0
TEXT
8
Modules
100
AcDbText
10
0.7239832927
20
-1.0208094182
1
DC
7
NewTextStyle_4
40
0.2624672000000003
50
-0.31700134276998615
0
TEXT
8
Modules
100
AcDbText
10
1.0003091631
20
-1.4816628968
1
DC
7
NewTextStyle_4
40
0.2624672000000003
50
-0.31700134276998615
0
LINE
8
Modules
10
4.2178925371
20
0.5511238558
11
4.1992120130
21
-2.8252159855
62
254
0
LINE
8
Modules
10
4.1992120130
20
-2.8252159855
11
10.3638160196
21
-2.8593233440
62
254
0
LINE
8
Modules
10
10.3638160196
20
-2.8593233440
11
10.3824965436
21
0.5170164973
62
254
0
LINE
8
Modules
10
10.3824965436
20
0.5170164973
11
4.2178925371
21
0.5511238558
62
254
0
LINE
8
Modules
10
6.8784865718
20
-1.5619294839
11
7.6986840181
21
-1.5664674507
62
254
0
LINE
8
Modules
10
7.6986840181
20
-1.5664674507
11
7.7032219849
21
-0.7462700043
62
254
0
LINE
8
Modules
10
7.7032219849
20
-0.7462700043
11
6.8830245386
21
-0.7417320375
62
254
0
LINE
8
Modules
10
6.8830245386
20
-0.7417320375
11
6.8784865718
21
-1.5619294839
62
254
0
LINE
8
Modules
10
6.8784865718
20
-1.5619294839
11
7.7032219849
21
-0.7462700043
62
254
0
TEXT
8
Modules
100
AcDbText
10
6.9305119580
20
-1.0536793452
1
DC
7
NewTextStyle_4
40
0.2624672000000003
50
-0.31700134276998615
0
TEXT
8
Modules
100
AcDbText
10
7.2068378283
20
-1.5145328238
1
DC
7
NewTextStyle_4
40
0.2624672000000003
50
-0.31700134276998615
0
LINE
8
Modules
10
10.4244211982
20
0.5146017115
11
10.4057406741
21
-2.8617381298
62
254
0
LINE
8
Modules
10
10.4057406741
20
-2.8617381298
11
16.5703446807
21
-2.8958454882
62
254
0
LINE
8
Modules
10
16.5703446807
20
-2.8958454882
11
16.5890252047
21
0.4804943531
62
254
0
LINE
8
Modules
10
16.5890252047
20
0.4804943531
11
10.4244211982
21
0.5146017115
62
254
0
LINE
8
Modules
10
13.0850152329
20
-1.5984516281
11
13.9052126792
21
-1.6029895949
62
254
0
LINE
8
Modules
10
13.9052126792
20
-1.6029895949
11
13.9097506460
21
-0.7827921486
62
254
0
LINE
8
Modules
10
13.9097506460
20
-0.7827921486
11
13.0895531997
21
-0.7782541818
62
254
0
LINE
8
Modules
10
13.0895531997
20
-0.7782541818
11
13.0850152329
21
-1.5984516281
62
254
0
LINE
8
Modules
10
13.0850152329
20
-1.5984516281
11
13.9097506460
21
-0.7827921486
62
254
0
TEXT
8
Modules
100
AcDbText
10
13.1370406191
20
-1.0902014894
1
DC
7
NewTextStyle_4
40
0.2624672000000003
50
-0.31700134276998615
0
TEXT
8
Modules
100
AcDbText
10
13.4133664894
20
-1.5510549681
1
DC
7
NewTextStyle_4
40
0.2624672000000003
50
-0.31700134276998615
0
LINE
8
Modules
10
16.6309498593
20
0.4817317820
11
16.6122693352
21
-2.8946080594
62
254
0
LINE
8
Modules
10
16.6122693352
20
-2.8946080594
11
22.7768733418
21
-2.9287154178
62
254
0
LINE
8
Modules
10
22.7768733418
20
-2.9287154178
11
22.7955538658
21
0.4476244235
62
254
0
LINE
8
Modules
10
22.7955538658
20
0.4476244235
11
16.6309498593
21
0.4817317820
62
254
0
LINE
8
Modules
10
19.2915438940
20
-1.6313215577
11
20.1117413403
21
-1.6358595245
62
254
0
LINE
8
Modules
10
20.1117413403
20
-1.6358595245
11
20.1162793071
21
-0.8156620781
62
254
0
LINE
8
Modules
10
20.1162793071
20
-0.8156620781
11
19.2960818608
21
-0.8111241113
62
254
0
LINE
8
Modules
10
19.2960818608
20
-0.8111241113
11
19.2915438940
21
-1.6313215577
62
254
0
LINE
8
Modules
10
19.2915438940
20
-1.6313215577
11
20.1162793071
21
-0.8156620781
62
254
0
TEXT
8
Modules
100
AcDbText
10
19.3435692802
20
-1.1230714190
1
DC
7
NewTextStyle_4
40
0.2624672000000003
50
-0.31700134276998615
0
TEXT
8
Modules
100
AcDbText
10
19.6198951505
20
-1.5839248976
1
DC
7
NewTextStyle_4
40
0.2624672000000003
50
-0.31700134276998615
0
LINE
8
Modules
10
22.8374785204
20
0.4488618524
11
22.8187979963
21
-2.9274779889
62
254
0
LINE
8
Modules
10
22.8187979963
20
-2.9274779889
11
28.9834020029
21
-2.9615853473
62
254
0
LINE
8
Modules
10
28.9834020029
20
-2.9615853473
11
29.0020825269
21
0.4147544940
62
254
0
LINE
8
Modules
10
29.0020825269
20
0.4147544940
11
22.8374785204
21
0.4488618524
62
254
0
LINE
8
Modules
10
25.4980725551
20
-1.6641914872
11
26.3182700014
21
-1.6687294540
62
254
0
LINE
8
Modules
10
26.3182700014
20
-1.6687294540
11
26.3228079682
21
-0.8485320077
62
254
0
LINE
8
Modules
10
26.3228079682
20
-0.8485320077
11
25.5026105219
21
-0.8439940409
62
254
0
LINE
8
Modules
10
25.5026105219
20
-0.8439940409
11
25.4980725551
21
-1.6641914872
62
254
0
LINE
8
Modules
10
25.4980725551
20
-1.6641914872
11
26.3228079682
21
-0.8485320077
62
254
0
TEXT
8
Modules
100
AcDbText
10
25.5500979413
20
-1.1559413485
1
DC
7
NewTextStyle_4
40
0.2624672000000003
50
-0.31700134276998615
0
TEXT
8
Modules
100
AcDbText
10
25.8264238116
20
-1.6167948272
1
DC
7
NewTextStyle_4
40
0.2624672000000003
50
-0.31700134276998615
0
LINE
8
Modules
10
29.0440071815
20
0.4123397082
11
29.0253266574
21
-2.9640001332
62
254
0
LINE
8
Modules
10
29.0253266574
20
-2.9640001332
11
35.1899306640
21
-2.9981074916
62
254
0
LINE
8
Modules
10
35.1899306640
20
-2.9981074916
11
35.2086111880
21
0.3782323497
62
254
0
LINE
8
Modules
10
35.2086111880
20
0.3782323497
11
29.0440071815
21
0.4123397082
62
254
0
LINE
8
Modules
10
31.7046012162
20
-1.7007136315
11
32.5247986625
21
-1.7052515983
62
254
0
LINE
8
Modules
10
32.5247986625
20
-1.7052515983
11
32.5293366293
21
-0.8850541519
62
254
0
LINE
8
Modules
10
32.5293366293
20
-0.8850541519
11
31.7091391830
21
-0.8805161852
62
254
0
LINE
8
Modules
10
31.7091391830
20
-0.8805161852
11
31.7046012162
21
-1.7007136315
62
254
0
LINE
8
Modules
10
31.7046012162
20
-1.7007136315
11
32.5293366293
21
-0.8850541519
62
254
0
TEXT
8
Modules
100
AcDbText
10
31.7566266024
20
-1.1924634928
1
DC
7
NewTextStyle_4
40
0.2624672000000003
50
-0.31700134276998615
0
TEXT
8
Modules
100
AcDbText
10
32.0329524727
20
-1.6533169714
1
DC
7
NewTextStyle_4
40
0.2624672000000003
50
-0.31700134276998615
0
LINE
8
Modules
10
10.4505845509
20
5.3939601244
11
10.4319040269
21
2.0176202831
62
254
0
LINE
8
Modules
10
10.4319040269
20
2.0176202831
11
16.5965080335
21
1.9835129247
62
254
0
LINE
8
Modules
10
16.5965080335
20
1.9835129247
11
16.6151885575
21
5.3598527660
62
254
0
LINE
8
Modules
10
16.6151885575
20
5.3598527660
11
10.4505845509
21
5.3939601244
62
254
0
LINE
8
Modules
10
13.1111785857
20
3.2809067848
11
13.9313760320
21
3.2763688180
62
254
0
LINE
8
Modules
10
13.9313760320
20
3.2763688180
11
13.9359139988
21
4.0965662643
62
254
0
LINE
8
Modules
10
13.9359139988
20
4.0965662643
11
13.1157165524
21
4.1011042311
62
254
0
LINE
8
Modules
10
13.1157165524
20
4.1011042311
11
13.1111785857
21
3.2809067848
62
254
0
LINE
8
Modules
10
13.1111785857
20
3.2809067848
11
13.9359139988
21
4.0965662643
62
254
0
TEXT
8
Modules
100
AcDbText
10
13.1632039718
20
3.7891569235
1
DC
7
NewTextStyle_4
40
0.2624672000000003
50
-0.31700134276998615
0
TEXT
8
Modules
100
AcDbText
10
13.4395298422
20
3.3283034448
1
DC
7
NewTextStyle_4
40
0.2624672000000003
50
-0.31700134276998615
0
LINE
8
Modules
10
16.6571132120
20
5.3574379802
11
16.6384326880
21
1.9810981389
62
254
0
LINE
8
Modules
10
16.6384326880
20
1.9810981389
11
22.8030366946
21
1.9469907804
62
254
0
LINE
8
Modules
10
22.8030366946
20
1.9469907804
11
22.8217172186
21
5.3233306218
62
254
0
LINE
8
Modules
10
22.8217172186
20
5.3233306218
11
16.6571132120
21
5.3574379802
62
254
0
LINE
8
Modules
10
19.3177072468
20
3.2443846405
11
20.1379046931
21
3.2398466737
62
254
0
LINE
8
Modules
10
20.1379046931
20
3.2398466737
11
20.1424426599
21
4.0600441201
62
254
0
LINE
8
Modules
10
20.1424426599
20
4.0600441201
11
19.3222452135
21
4.0645820869
62
254
0
LINE
8
Modules
10
19.3222452135
20
4.0645820869
11
19.3177072468
21
3.2443846405
62
254
0
LINE
8
Modules
10
19.3177072468
20
3.2443846405
11
20.1424426599
21
4.0600441201
62
254
0
TEXT
8
Modules
100
AcDbText
10
19.3697326329
20
3.7526347793
1
DC
7
NewTextStyle_4
40
0.2624672000000003
50
-0.31700134276998615
0
TEXT
8
Modules
100
AcDbText
10
19.6460585033
20
3.2917813006
1
DC
7
NewTextStyle_4
40
0.2624672000000003
50
-0.31700134276998615
0
LINE
8
Modules
10
22.8636418731
20
5.3245680506
11
22.8449613491
21
1.9482282093
62
254
0
LINE
8
Modules
10
22.8449613491
20
1.9482282093
11
29.0095653557
21
1.9141208509
62
254
0
LINE
8
Modules
10
29.0095653557
20
1.9141208509
11
29.0282458797
21
5.2904606922
62
254
0
LINE
8
Modules
10
29.0282458797
20
5.2904606922
11
22.8636418731
21
5.3245680506
62
254
0
LINE
8
Modules
10
25.5242359079
20
3.2115147110
11
26.3444333542
21
3.2069767442
62
254
0
LINE
8
Modules
10
26.3444333542
20
3.2069767442
11
26.3489713210
21
4.0271741905
62
254
0
LINE
8
Modules
10
26.3489713210
20
4.0271741905
11
25.5287738746
21
4.0317121573
62
254
0
LINE
8
Modules
10
25.5287738746
20
4.0317121573
11
25.5242359079
21
3.2115147110
62
254
0
LINE
8
Modules
10
25.5242359079
20
3.2115147110
11
26.3489713210
21
4.0271741905
62
254
0
TEXT
8
Modules
100
AcDbText
10
25.5762612940
20
3.7197648497
1
DC
7
NewTextStyle_4
40
0.2624672000000003
50
-0.31700134276998615
0
TEXT
8
Modules
100
AcDbText
10
25.8525871644
20
3.2589113710
1
DC
7
NewTextStyle_4
40
0.2624672000000003
50
-0.31700134276998615
0
LINE
8
Modules
10
29.0701705342
20
5.2880459064
11
29.0514900102
21
1.9117060651
62
254
0
LINE
8
Modules
10
29.0514900102
20
1.9117060651
11
35.2160940168
21
1.8775987066
62
254
0
LINE
8
Modules
10
35.2160940168
20
1.8775987066
11
35.2347745408
21
5.2539385479
62
254
0
LINE
8
Modules
10
35.2347745408
20
5.2539385479
11
29.0701705342
21
5.2880459064
62
254
0
LINE
8
Modules
10
31.7307645690
20
3.1749925667
11
32.5509620153
21
3.1704545999
62
254
0
LINE
8
Modules
10
32.5509620153
20
3.1704545999
11
32.5554999821
21
3.9906520463
62
254
0
LINE
8
Modules
10
32.5554999821
20
3.9906520463
11
31.7353025357
21
3.9951900131
62
254
0
LINE
8
Modules
10
31.7353025357
20
3.9951900131
11
31.7307645690
21
3.1749925667
62
254
0
LINE
8
Modules
10
31.7307645690
20
3.1749925667
11
32.5554999821
21
3.9906520463
62
254
0
TEXT
8
Modules
100
AcDbText
10
31.7827899551
20
3.6832427054
1
DC
7
NewTextStyle_4
40
0.2624672000000003
50
-0.31700134276998615
0
TEXT
8
Modules
100
AcDbText
10
32.0591158255
20
3.2223892268
1
DC
7
NewTextStyle_4
40
0.2624672000000003
50
-0.31700134276998615
0
LINE
8
Modules
10
10.4767479037
20
10.2696663252
11
10.4580673797
21
6.8933264839
62
254
0
LINE
8
Modules
10
10.4580673797
20
6.8933264839
11
16.6226713863
21
6.8592191255
62
254
0
LINE
8
Modules
10
16.6226713863
20
6.8592191255
11
16.6413519103
21
10.2355589668
62
254
0
LINE
8
Modules
10
16.6413519103
20
10.2355589668
11
10.4767479037
21
10.2696663252
62
254
0
LINE
8
Modules
10
13.1373419384
20
8.1566129856
11
13.9575393847
21
8.1520750188
62
254
0
LINE
8
Modules
10
13.9575393847
20
8.1520750188
11
13.9620773515
21
8.9722724651
62
254
0
LINE
8
Modules
10
13.9620773515
20
8.9722724651
11
13.1418799052
21
8.9768104319
62
254
0
LINE
8
Modules
10
13.1418799052
20
8.9768104319
11
13.1373419384
21
8.1566129856
62
254
0
LINE
8
Modules
10
13.1373419384
20
8.1566129856
11
13.9620773515
21
8.9722724651
62
254
0
TEXT
8
Modules
100
AcDbText
10
13.1893673246
20
8.6648631243
1
DC
7
NewTextStyle_4
40
0.2624672000000003
50
-0.31700134276998615
0
TEXT
8
Modules
100
AcDbText
10
13.4656931950
20
8.2040096457
1
DC
7
NewTextStyle_4
40
0.2624672000000003
50
-0.31700134276998615
0
LINE
8
Modules
10
16.6832765648
20
10.2331441810
11
16.6645960408
21
6.8568043397
62
254
0
LINE
8
Modules
10
16.6645960408
20
6.8568043397
11
22.8292000474
21
6.8226969813
62
254
0
LINE
8
Modules
10
22.8292000474
20
6.8226969813
11
22.8478805714
21
10.1990368226
62
254
0
LINE
8
Modules
10
22.8478805714
20
10.1990368226
11
16.6832765648
21
10.2331441810
62
254
0
LINE
8
Modules
10
19.3438705995
20
8.1200908414
11
20.1640680458
21
8.1155528746
62
254
0
LINE
8
Modules
10
20.1640680458
20
8.1155528746
11
20.1686060126
21
8.9357503209
62
254
0
LINE
8
Modules
10
20.1686060126
20
8.9357503209
11
19.3484085663
21
8.9402882877
62
254
0
LINE
8
Modules
10
19.3484085663
20
8.9402882877
11
19.3438705995
21
8.1200908414
62
254
0
LINE
8
Modules
10
19.3438705995
20
8.1200908414
11
20.1686060126
21
8.9357503209
62
254
0
TEXT
8
Modules
100
AcDbText
10
19.3958959857
20
8.6283409801
1
DC
7
NewTextStyle_4
40
0.2624672000000003
50
-0.31700134276998615
0
TEXT
8
Modules
100
AcDbText
10
19.6722218561
20
8.1674875014
1
DC
7
NewTextStyle_4
40
0.2624672000000003
50
-0.31700134276998615
0
LINE
8
Modules
10
22.8898052259
20
10.2002742514
11
22.8711247019
21
6.8239344101
62
254
0
LINE
8
Modules
10
22.8711247019
20
6.8239344101
11
29.0357287085
21
6.7898270517
62
254
0
LINE
8
Modules
10
29.0357287085
20
6.7898270517
11
29.0544092325
21
10.1661668930
62
254
0
LINE
8
Modules
10
29.0544092325
20
10.1661668930
11
22.8898052259
21
10.2002742514
62
254
0
LINE
8
Modules
10
25.5503992606
20
8.0872209118
11
26.3705967069
21
8.0826829450
62
254
0
LINE
8
Modules
10
26.3705967069
20
8.0826829450
11
26.3751346737
21
8.9028803913
62
254
0
LINE
8
Modules
10
26.3751346737
20
8.9028803913
11
25.5549372274
21
8.9074183581
62
254
0
LINE
8
Modules
10
25.5549372274
20
8.9074183581
11
25.5503992606
21
8.0872209118
62
254
0
LINE
8
Modules
10
25.5503992606
20
8.0872209118
11
26.3751346737
21
8.9028803913
62
254
0
TEXT
8
Modules
100
AcDbText
10
25.6024246468
20
8.5954710505
1
DC
7
NewTextStyle_4
40
0.2624672000000003
50
-0.31700134276998615
0
TEXT
8
Modules
100
AcDbText
10
25.8787505172
20
8.1346175719
1
DC
7
NewTextStyle_4
40
0.2624672000000003
50
-0.31700134276998615
0
LINE
8
Modules
10
29.0963338870
20
10.1674043219
11
29.0776533630
21
6.7910644806
62
254
0
LINE
8
Modules
10
29.0776533630
20
6.7910644806
11
35.2422573696
21
6.7569571221
62
254
0
LINE
8
Modules
10
35.2422573696
20
6.7569571221
11
35.2609378936
21
10.1332969634
62
254
0
LINE
8
Modules
10
35.2609378936
20
10.1332969634
11
29.0963338870
21
10.1674043219
62
254
0
LINE
8
Modules
10
31.7569279217
20
8.0543509822
11
32.5771253680
21
8.0498130154
62
254
0
LINE
8
Modules
10
32.5771253680
20
8.0498130154
11
32.5816633348
21
8.8700104618
62
254
0
LINE
8
Modules
10
32.5816633348
20
8.8700104618
11
31.7614658885
21
8.8745484286
62
254
0
LINE
8
Modules
10
31.7614658885
20
8.8745484286
11
31.7569279217
21
8.0543509822
62
254
0
LINE
8
Modules
10
31.7569279217
20
8.0543509822
11
32.5816633348
21
8.8700104618
62
254
0
TEXT
8
Modules
100
AcDbText
10
31.8089533079
20
8.5626011209
1
DC
7
NewTextStyle_4
40
0.2624672000000003
50
-0.31700134276998615
0
TEXT
8
Modules
100
AcDbText
10
32.0852791783
20
8.1017476423
1
DC
7
NewTextStyle_4
40
0.2624672000000003
50
-0.31700134276998615
0
LINE
8
Modules
10
35.3028625522
20
10.1308821776
11
35.2841820282
21
6.7545423363
62
254
0
LINE
8
Modules
10
35.2841820282
20
6.7545423363
11
41.4487860348
21
6.7204349779
62
254
0
LINE
8
Modules
10
41.4487860348
20
6.7204349779
11
41.4674665588
21
10.0967748192
62
254
0
LINE
8
Modules
10
41.4674665588
20
10.0967748192
11
35.3028625522
21
10.1308821776
62
254
0
LINE
8
Modules
10
37.9634565870
20
8.0178288380
11
38.7836540333
21
8.0132908712
62
254
0
LINE
8
Modules
10
38.7836540333
20
8.0132908712
11
38.7881920001
21
8.8334883175
62
254
0
LINE
8
Modules
10
38.7881920001
20
8.8334883175
11
37.9679945537
21
8.8380262843
62
254
0
LINE
8
Modules
10
37.9679945537
20
8.8380262843
11
37.9634565870
21
8.0178288380
62
254
0
LINE
8
Modules
10
37.9634565870
20
8.0178288380
11
38.7881920001
21
8.8334883175
62
254
0
TEXT
8
Modules
100
AcDbText
10
38.0154819731
20
8.5260789767
1
DC
7
NewTextStyle_4
40
0.2624672000000003
50
-0.31700134276998615
0
TEXT
8
Modules
100
AcDbText
10
38.2918078435
20
8.0652254980
1
DC
7
NewTextStyle_4
40
0.2624672000000003
50
-0.31700134276998615
0
LINE
8
Modules
10
41.5355545661
20
14.9737184489
11
41.5168740421
21
11.5973786076
62
254
0
LINE
8
Modules
10
41.5168740421
20
11.5973786076
11
47.6814780487
21
11.5632712491
62
254
0
LINE
8
Modules
10
47.6814780487
20
11.5632712491
11
47.7001585727
21
14.9396110904
62
254
0
LINE
8
Modules
10
47.7001585727
20
14.9396110904
11
41.5355545661
21
14.9737184489
62
254
0
LINE
8
Modules
10
44.1961486008
20
12.8606651092
11
45.0163460472
21
12.8561271424
62
254
0
LINE
8
Modules
10
45.0163460472
20
12.8561271424
11
45.0208840139
21
13.6763245888
62
254
0
LINE
8
Modules
10
45.0208840139
20
13.6763245888
11
44.2006865676
21
13.6808625556
62
254
0
LINE
8
Modules
10
44.2006865676
20
13.6808625556
11
44.1961486008
21
12.8606651092
62
254
0
LINE
8
Modules
10
44.1961486008
20
12.8606651092
11
45.0208840139
21
13.6763245888
62
254
0
TEXT
8
Modules
100
AcDbText
10
44.2481739870
20
13.3689152479
1
DC
7
NewTextStyle_4
40
0.2624672000000003
50
-0.31700134276998615
0
TEXT
8
Modules
100
AcDbText
10
44.5244998574
20
12.9080617693
1
DC
7
NewTextStyle_4
40
0.2624672000000003
50
-0.31700134276998615
0
LINE
8
Modules
10
35.3290259050
20
15.0065883784
11
35.3103453810
21
11.6302485371
62
254
0
LINE
8
Modules
10
35.3103453810
20
11.6302485371
11
41.4749493876
21
11.5961411787
62
254
0
LINE
8
Modules
10
41.4749493876
20
11.5961411787
11
41.4936299116
21
14.9724810200
62
254
0
LINE
8
Modules
10
41.4936299116
20
14.9724810200
11
35.3290259050
21
15.0065883784
62
254
0
LINE
8
Modules
10
37.9896199397
20
12.8935350388
11
38.8098173861
21
12.8889970720
62
254
0
LINE
8
Modules
10
38.8098173861
20
12.8889970720
11
38.8143553528
21
13.7091945183
62
254
0
LINE
8
Modules
10
38.8143553528
20
13.7091945183
11
37.9941579065
21
13.7137324851
62
254
0
LINE
8
Modules
10
37.9941579065
20
13.7137324851
11
37.9896199397
21
12.8935350388
62
254
0
LINE
8
Modules
10
37.9896199397
20
12.8935350388
11
38.8143553528
21
13.7091945183
62
254
0
TEXT
8
Modules
100
AcDbText
10
38.0416453259
20
13.4017851775
1
DC
7
NewTextStyle_4
40
0.2624672000000003
50
-0.31700134276998615
0
TEXT
8
Modules
100
AcDbText
10
38.3179711963
20
12.9409316989
1
DC
7
NewTextStyle_4
40
0.2624672000000003
50
-0.31700134276998615
0
LINE
8
Modules
10
29.1254042813
20
15.0431105201
11
29.1067237573
21
11.6667706788
62
254
0
LINE
8
Modules
10
29.1067237573
20
11.6667706788
11
35.2713277638
21
11.6326633203
62
254
0
LINE
8
Modules
10
35.2713277638
20
11.6326633203
11
35.2900082878
21
15.0090031617
62
254
0
LINE
8
Modules
10
35.2900082878
20
15.0090031617
11
29.1254042813
21
15.0431105201
62
254
0
LINE
8
Modules
10
31.7859983160
20
12.9300571804
11
32.6061957623
21
12.9255192137
62
254
0
LINE
8
Modules
10
32.6061957623
20
12.9255192137
11
32.6107337291
21
13.7457166600
62
254
0
LINE
8
Modules
10
32.6107337291
20
13.7457166600
11
31.7905362828
21
13.7502546268
62
254
0
LINE
8
Modules
10
31.7905362828
20
13.7502546268
11
31.7859983160
21
12.9300571804
62
254
0
LINE
8
Modules
10
31.7859983160
20
12.9300571804
11
32.6107337291
21
13.7457166600
62
254
0
TEXT
8
Modules
100
AcDbText
10
31.8380237022
20
13.4383073192
1
DC
7
NewTextStyle_4
40
0.2624672000000003
50
-0.31700134276998615
0
TEXT
8
Modules
100
AcDbText
10
32.1143495725
20
12.9774538405
1
DC
7
NewTextStyle_4
40
0.2624672000000003
50
-0.31700134276998615
0
LINE
8
Modules
10
22.9188756202
20
15.0759804496
11
22.9001950962
21
11.6996406083
62
254
0
LINE
8
Modules
10
22.9001950962
20
11.6996406083
11
29.0647991027
21
11.6655332499
62
254
0
LINE
8
Modules
10
29.0647991027
20
11.6655332499
11
29.0834796267
21
15.0418730912
62
254
0
LINE
8
Modules
10
29.0834796267
20
15.0418730912
11
22.9188756202
21
15.0759804496
62
254
0
LINE
8
Modules
10
25.5794696549
20
12.9629271100
11
26.3996671012
21
12.9583891432
62
254
0
LINE
8
Modules
10
26.3996671012
20
12.9583891432
11
26.4042050680
21
13.7785865895
62
254
0
LINE
8
Modules
10
26.4042050680
20
13.7785865895
11
25.5840076217
21
13.7831245563
62
254
0
LINE
8
Modules
10
25.5840076217
20
13.7831245563
11
25.5794696549
21
12.9629271100
62
254
0
LINE
8
Modules
10
25.5794696549
20
12.9629271100
11
26.4042050680
21
13.7785865895
62
254
0
TEXT
8
Modules
100
AcDbText
10
25.6314950411
20
13.4711772487
1
DC
7
NewTextStyle_4
40
0.2624672000000003
50
-0.31700134276998615
0
TEXT
8
Modules
100
AcDbText
10
25.9078209114
20
13.0103237701
1
DC
7
NewTextStyle_4
40
0.2624672000000003
50
-0.31700134276998615
0
LINE
8
Modules
10
16.7123469549
20
15.1125025939
11
16.6936664309
21
11.7361627526
62
254
0
LINE
8
Modules
10
16.6936664309
20
11.7361627526
11
22.8582704375
21
11.7020553941
62
254
0
LINE
8
Modules
10
22.8582704375
20
11.7020553941
11
22.8769509615
21
15.0783952355
62
254
0
LINE
8
Modules
10
22.8769509615
20
15.0783952355
11
16.7123469549
21
15.1125025939
62
254
0
LINE
8
Modules
10
19.3729409897
20
12.9994492542
11
20.1931384360
21
12.9949112875
62
254
0
LINE
8
Modules
10
20.1931384360
20
12.9949112875
11
20.1976764028
21
13.8151087338
62
254
0
LINE
8
Modules
10
20.1976764028
20
13.8151087338
11
19.3774789564
21
13.8196467006
62
254
0
LINE
8
Modules
10
19.3774789564
20
13.8196467006
11
19.3729409897
21
12.9994492542
62
254
0
LINE
8
Modules
10
19.3729409897
20
12.9994492542
11
20.1976764028
21
13.8151087338
62
254
0
TEXT
8
Modules
100
AcDbText
10
19.4249663758
20
13.5076993930
1
DC
7
NewTextStyle_4
40
0.2624672000000003
50
-0.31700134276998615
0
TEXT
8
Modules
100
AcDbText
10
19.7012922462
20
13.0468459143
1
DC
7
NewTextStyle_4
40
0.2624672000000003
50
-0.31700134276998615
0
LINE
8
Modules
10
10.5058182938
20
15.1453725234
11
10.4871377698
21
11.7690326821
62
254
0
LINE
8
Modules
10
10.4871377698
20
11.7690326821
11
16.6517417764
21
11.7349253237
62
254
0
LINE
8
Modules
10
16.6517417764
20
11.7349253237
11
16.6704223004
21
15.1112651650
62
254
0
LINE
8
Modules
10
16.6704223004
20
15.1112651650
11
10.5058182938
21
15.1453725234
62
254
0
LINE
8
Modules
10
13.1664123286
20
13.0323191838
11
13.9866097749
21
13.0277812170
62
254
0
LINE
8
Modules
10
13.9866097749
20
13.0277812170
11
13.9911477417
21
13.8479786633
62
254
0
LINE
8
Modules
10
13.9911477417
20
13.8479786633
11
13.1709502954
21
13.8525166301
62
254
0
LINE
8
Modules
10
13.1709502954
20
13.8525166301
11
13.1664123286
21
13.0323191838
62
254
0
LINE
8
Modules
10
13.1664123286
20
13.0323191838
11
13.9911477417
21
13.8479786633
62
254
0
TEXT
8
Modules
100
AcDbText
10
13.2184377147
20
13.5405693225
1
DC
7
NewTextStyle_4
40
0.2624672000000003
50
-0.31700134276998615
0
TEXT
8
Modules
100
AcDbText
10
13.4947635851
20
13.0797158439
1
DC
7
NewTextStyle_4
40
0.2624672000000003
50
-0.31700134276998615
0
LINE
8
Modules
10
4.2992896327
20
15.1782424530
11
4.2806091087
21
11.8019026117
62
254
0
LINE
8
Modules
10
4.2806091087
20
11.8019026117
11
10.4452131153
21
11.7677952533
62
254
0
LINE
8
Modules
10
10.4452131153
20
11.7677952533
11
10.4638936393
21
15.1441350946
62
254
0
LINE
8
Modules
10
10.4638936393
20
15.1441350946
11
4.2992896327
21
15.1782424530
62
254
0
LINE
8
Modules
10
6.9598836675
20
13.0651891134
11
7.7800811138
21
13.0606511466
62
254
0
LINE
8
Modules
10
7.7800811138
20
13.0606511466
11
7.7846190806
21
13.8808485929
62
254
0
LINE
8
Modules
10
7.7846190806
20
13.8808485929
11
6.9644216343
21
13.8853865597
62
254
0
LINE
8
Modules
10
6.9644216343
20
13.8853865597
11
6.9598836675
21
13.0651891134
62
254
0
LINE
8
Modules
10
6.9598836675
20
13.0651891134
11
7.7846190806
21
13.8808485929
62
254
0
TEXT
8
Modules
100
AcDbText
10
7.0119090536
20
13.5734392521
1
DC
7
NewTextStyle_4
40
0.2624672000000003
50
-0.31700134276998615
0
TEXT
8
Modules
100
AcDbText
10
7.2882349240
20
13.1125857734
1
DC
7
NewTextStyle_4
40
0.2624672000000003
50
-0.31700134276998615
0
LINE
8
Modules
10
-1.9072389849
20
15.2147646756
11
-1.9259195950
21
11.8384248348
62
254
0
LINE
8
Modules
10
-1.9259195950
20
11.8384248348
11
4.2386844107
21
11.8043173191
62
254
0
LINE
8
Modules
10
4.2386844107
20
11.8043173191
11
4.2573650208
21
15.1806571600
62
254
0
LINE
8
Modules
10
4.2573650208
20
15.1806571600
11
-1.9072389849
21
15.2147646756
62
254
0
LINE
8
Modules
10
0.7533549960
20
13.1017112681
11
1.5735524422
21
13.0971732804
62
254
0
LINE
8
Modules
10
1.5735524422
20
13.0971732804
11
1.5780904299
21
13.9173707266
62
254
0
LINE
8
Modules
10
1.5780904299
20
13.9173707266
11
0.7578929837
21
13.9219087143
62
254
0
LINE
8
Modules
10
0.7578929837
20
13.9219087143
11
0.7533549960
21
13.1017112681
62
254
0
LINE
8
Modules
10
0.7533549960
20
13.1017112681
11
1.5780904299
21
13.9173707266
62
254
0
TEXT
8
Modules
100
AcDbText
10
0.8053803951
20
13.6099614055
1
DC
7
NewTextStyle_4
40
0.2624672000000003
50
-0.31700280390998636
0
TEXT
8
Modules
100
AcDbText
10
1.0817062537
20
13.1491079198
1
DC
7
NewTextStyle_4
40
0.2624672000000003
50
-0.31700280390998636
0
LINE
8
Modules
10
-1.9334023377
20
10.3390584748
11
-1.9520829478
21
6.9627186340
62
254
0
LINE
8
Modules
10
-1.9520829478
20
6.9627186340
11
4.2125210579
21
6.9286111183
62
254
0
LINE
8
Modules
10
4.2125210579
20
6.9286111183
11
4.2312016680
21
10.3049509592
62
254
0
LINE
8
Modules
10
4.2312016680
20
10.3049509592
11
-1.9334023377
21
10.3390584748
62
254
0
LINE
8
Modules
10
0.7271916432
20
8.2260050673
11
1.5473890894
21
8.2214670796
62
254
0
LINE
8
Modules
10
1.5473890894
20
8.2214670796
11
1.5519270771
21
9.0416645258
62
254
0
LINE
8
Modules
10
1.5519270771
20
9.0416645258
11
0.7317296309
21
9.0462025135
62
254
0
LINE
8
Modules
10
0.7317296309
20
9.0462025135
11
0.7271916432
21
8.2260050673
62
254
0
LINE
8
Modules
10
0.7271916432
20
8.2260050673
11
1.5519270771
21
9.0416645258
62
254
0
TEXT
8
Modules
100
AcDbText
10
0.7792170423
20
8.7342552047
1
DC
7
NewTextStyle_4
40
0.2624672000000003
50
-0.31700280390998636
0
TEXT
8
Modules
100
AcDbText
10
1.0555429009
20
8.2734017190
1
DC
7
NewTextStyle_4
40
0.2624672000000003
50
-0.31700280390998636
0
LINE
8
Modules
10
-1.9624727319
20
5.4597000619
11
-1.9811533420
21
2.0833602211
62
254
0
LINE
8
Modules
10
-1.9811533420
20
2.0833602211
11
4.1834506637
21
2.0492527054
62
254
0
LINE
8
Modules
10
4.1834506637
20
2.0492527054
11
4.2021312738
21
5.4255925463
62
254
0
LINE
8
Modules
10
4.2021312738
20
5.4255925463
11
-1.9624727319
21
5.4597000619
62
254
0
LINE
8
Modules
10
0.6981212489
20
3.3466466544
11
1.5183186951
21
3.3421086667
62
254
0
LINE
8
Modules
10
1.5183186951
20
3.3421086667
11
1.5228566828
21
4.1623061129
62
254
0
LINE
8
Modules
10
1.5228566828
20
4.1623061129
11
0.7026592366
21
4.1668441006
62
254
0
LINE
8
Modules
10
0.7026592366
20
4.1668441006
11
0.6981212489
21
3.3466466544
62
254
0
LINE
8
Modules
10
0.6981212489
20
3.3466466544
11
1.5228566828
21
4.1623061129
62
254
0
TEXT
8
Modules
100
AcDbText
10
0.7501466481
20
3.8548967918
1
DC
7
NewTextStyle_4
40
0.2624672000000003
50
-0.31700280390998636
0
TEXT
8
Modules
100
AcDbText
10
1.0264725067
20
3.3940433061
1
DC
7
NewTextStyle_4
40
0.2624672000000003
50
-0.31700280390998636
0
LINE
8
Modules
10
4.2440559333
20
5.4268301323
11
4.2253753232
21
2.0504902915
62
254
0
LINE
8
Modules
10
4.2253753232
20
2.0504902915
11
10.3899793289
21
2.0163827759
62
254
0
LINE
8
Modules
10
10.3899793289
20
2.0163827759
11
10.4086599390
21
5.3927226167
62
254
0
LINE
8
Modules
10
10.4086599390
20
5.3927226167
11
4.2440559333
21
5.4268301323
62
254
0
LINE
8
Modules
10
6.9046499142
20
3.3137767249
11
7.7248473604
21
3.3092387372
62
254
0
LINE
8
Modules
10
7.7248473604
20
3.3092387372
11
7.7293853481
21
4.1294361834
62
254
0
LINE
8
Modules
10
7.7293853481
20
4.1294361834
11
6.9091879019
21
4.1339741711
62
254
0
LINE
8
Modules
10
6.9091879019
20
4.1339741711
11
6.9046499142
21
3.3137767249
62
254
0
LINE
8
Modules
10
6.9046499142
20
3.3137767249
11
7.7293853481
21
4.1294361834
62
254
0
TEXT
8
Modules
100
AcDbText
10
6.9566753133
20
3.8220268622
1
DC
7
NewTextStyle_4
40
0.2624672000000003
50
-0.31700280390998636
0
TEXT
8
Modules
100
AcDbText
10
7.2330011719
20
3.3611733765
1
DC
7
NewTextStyle_4
40
0.2624672000000003
50
-0.31700280390998636
0
LINE
8
Modules
10
41.3756674515
20
-14.2841708845
11
41.3569868414
21
-17.6605107254
62
254
0
LINE
8
Modules
10
41.3569868414
20
-17.6605107254
11
47.5215908471
21
-17.6946182410
62
254
0
LINE
8
Modules
10
47.5215908471
20
-17.6946182410
11
47.5402714572
21
-14.3182784002
62
254
0
LINE
8
Modules
10
47.5402714572
20
-14.3182784002
11
41.3756674515
21
-14.2841708845
62
254
0
LINE
8
Modules
10
44.0362614323
20
-16.3972242920
11
44.8564588785
21
-16.4017622797
62
254
0
LINE
8
Modules
10
44.8564588785
20
-16.4017622797
11
44.8609968662
21
-15.5815648335
62
254
0
LINE
8
Modules
10
44.8609968662
20
-15.5815648335
11
44.0407994200
21
-15.5770268458
62
254
0
LINE
8
Modules
10
44.0407994200
20
-15.5770268458
11
44.0362614323
21
-16.3972242920
62
254
0
LINE
8
Modules
10
44.0362614323
20
-16.3972242920
11
44.8609968662
21
-15.5815648335
62
254
0
TEXT
8
Modules
100
AcDbText
10
44.0882868315
20
-15.8889741546
1
DC
7
NewTextStyle_4
40
0.2624672000000003
50
-0.31700280390998636
0
TEXT
8
Modules
100
AcDbText
10
44.3646126900
20
-16.3498276403
1
DC
7
NewTextStyle_4
40
0.2624672000000003
50
-0.31700280390998636
0
LINE
8
Modules
10
35.1953021431
20
-9.3755947568
11
35.1766215330
21
-12.7519345976
62
254
0
LINE
8
Modules
10
35.1766215330
20
-12.7519345976
11
41.3412255387
21
-12.7860421132
62
254
0
LINE
8
Modules
10
41.3412255387
20
-12.7860421132
11
41.3599061488
21
-9.4097022724
62
254
0
LINE
8
Modules
10
41.3599061488
20
-9.4097022724
11
35.1953021431
21
-9.3755947568
62
254
0
LINE
8
Modules
10
37.8558961240
20
-11.4886481642
11
38.6760935702
21
-11.4931861519
62
254
0
LINE
8
Modules
10
38.6760935702
20
-11.4931861519
11
38.6806315579
21
-10.6729887057
62
254
0
LINE
8
Modules
10
38.6806315579
20
-10.6729887057
11
37.8604341117
21
-10.6684507180
62
254
0
LINE
8
Modules
10
37.8604341117
20
-10.6684507180
11
37.8558961240
21
-11.4886481642
62
254
0
LINE
8
Modules
10
37.8558961240
20
-11.4886481642
11
38.6806315579
21
-10.6729887057
62
254
0
TEXT
8
Modules
100
AcDbText
10
37.9079215231
20
-10.9803980268
1
DC
7
NewTextStyle_4
40
0.2624672000000003
50
-0.31700280390998636
0
TEXT
8
Modules
100
AcDbText
10
38.1842473817
20
-11.4412515125
1
DC
7
NewTextStyle_4
40
0.2624672000000003
50
-0.31700280390998636
0
LINE
8
Buildings
10
51.7835415252
20
18.2553823130
11
-12.2698312786
21
18.7990376053
62
252
0
LINE
8
Buildings
10
-12.2698312786
20
18.7990376053
11
-12.3209676280
21
9.5566363837
62
252
0
LINE
8
Buildings
10
-12.3209676280
20
9.5566363837
11
-6.2187123435
21
9.5228738310
62
252
0
LINE
8
Buildings
10
-6.2187123435
20
9.5228738310
11
-6.3887984825
21
-21.2185529231
62
252
0
LINE
8
Buildings
10
-6.3887984825
20
-21.2185529231
11
52.6543273296
21
-21.7721759185
62
252
0
LINE
8
Buildings
10
52.6543273296
20
-21.7721759185
11
52.3435325856
21
-7.4858213938
62
252
0
LINE
8
Buildings
10
52.3435325856
20
-7.4858213938
11
42.9330193819
21
-7.2740687071
62
252
0
LINE
8
Buildings
10
42.9330193819
20
-7.2740687071
11
43.2003492641
21
4.6063537981
62
252
0
LINE
8
Buildings
10
43.2003492641
20
4.6063537981
11
52.0848205611
21
4.4064379564
62
252
0
LINE
8
Buildings
10
52.0848205611
20
4.4064379564
11
51.7835415252
21
18.2553823130
62
252
0
LINE
8
Buildings
10
53.4436375204
20
4.1915459011
11
53.4477828554
21
4.3757689672
62
252
0
LINE
8
Buildings
10
53.4477828554
20
4.3757689672
11
43.2003492641
21
4.6063537981
62
252
0
LINE
8
Buildings
10
43.2003492641
20
4.6063537981
11
43.1963434010
21
4.4283290095
62
252
0
LINE
8
Buildings
10
43.1963434010
20
4.4283290095
11
48.2077971840
21
-0.8138490763
62
252
0
LINE
8
Buildings
10
48.2077971840
20
-0.8138490763
11
53.4436375204
21
4.1915459011
62
252
0
LINE
8
Buildings
10
53.1805924451
20
-7.4984552605
11
48.1751974677
21
-2.2626149241
62
252
0
LINE
8
Buildings
10
48.1751974677
20
-2.2626149241
11
42.9330193819
21
-7.2740687071
62
252
0
LINE
8
Buildings
10
42.9330193819
20
-7.2740687071
11
53.1804529732
21
-7.5046535380
62
252
0
LINE
8
Buildings
10
53.1804529732
20
-7.5046535380
11
53.1805924451
21
-7.4984552605
62
252
0
LINE
8
Buildings
10
48.2077971840
20
-0.8138490763
11
43.1963434010
21
4.4283290095
62
252
0
LINE
8
Buildings
10
43.1963434010
20
4.4283290095
11
42.9330193819
21
-7.2740687071
62
252
0
LINE
8
Buildings
10
42.9330193819
20
-7.2740687071
11
48.1751974677
21
-2.2626149241
62
252
0
LINE
8
Buildings
10
48.1751974677
20
-2.2626149241
11
48.2077971840
21
-0.8138490763
62
252
0
LINE
8
Buildings
10
53.1805924451
20
-7.4984552605
11
53.4436375204
21
4.1915459011
62
252
0
LINE
8
Buildings
10
53.4436375204
20
4.1915459011
11
48.2077971840
21
-0.8138490763
62
252
0
LINE
8
Buildings
10
48.2077971840
20
-0.8138490763
11
48.1751974677
21
-2.2626149241
62
252
0
LINE
8
Buildings
10
48.1751974677
20
-2.2626149241
11
53.1805924451
21
-7.4984552605
62
252
0
LINE
8
Buildings
10
-13.3633186217
20
-22.0676138980
11
-6.5532974569
21
-22.1252327468
62
252
0
LINE
8
Buildings
10
-6.5532974569
20
-22.1252327468
11
-6.2879606684
21
9.2351498903
62
252
0
LINE
8
Buildings
10
-6.2879606684
20
9.2351498903
11
-13.0979818332
21
9.2927687391
62
252
0
LINE
8
Buildings
10
-13.0979818332
20
9.2927687391
11
-13.3633186217
21
-22.0676138980
62
252
0
LINE
8
Setbacks
10
-2.3635148519
20
-17.2528394109
11
8.8168872513
21
-17.3576732800
62
2
0
LINE
8
Setbacks
10
8.8168872513
20
-17.3576732800
11
8.8417045597
21
-17.3450284670
62
2
0
LINE
8
Setbacks
10
8.8417045597
20
-17.3450284670
11
8.9324788915
21
-17.2715207447
62
2
0
LINE
8
Setbacks
10
8.9324788915
20
-17.2715207447
11
8.9329031735
21
-17.2712291436
62
2
0
LINE
8
Setbacks
10
8.9329031735
20
-17.2712291436
11
8.9333678485
21
-17.2710075054
62
2
0
LINE
8
Setbacks
10
8.9333678485
20
-17.2710075054
11
9.0495087124
21
-17.2264253523
62
2
0
LINE
8
Setbacks
10
9.0495087124
20
-17.2264253523
11
9.1461878866
21
-17.1481358992
62
2
0
LINE
8
Setbacks
10
9.1461878866
20
-17.1481358992
11
9.1466121675
21
-17.1478442984
62
2
0
LINE
8
Setbacks
10
9.1466121675
20
-17.1478442984
11
9.1470768414
21
-17.1476226602
62
2
0
LINE
8
Setbacks
10
9.1470768414
20
-17.1476226602
11
9.2561233564
21
-17.1057636235
62
2
0
LINE
8
Setbacks
10
9.2561233564
20
-17.1057636235
11
9.4061806188
21
-17.0083152736
62
2
0
LINE
8
Setbacks
10
9.4061806188
20
-17.0083152736
11
9.4066330542
21
-17.0080696211
62
2
0
LINE
8
Setbacks
10
9.4066330542
20
-17.0080696211
11
9.5199716405
21
-16.9576080053
62
2
0
LINE
8
Setbacks
10
9.5199716405
20
-16.9576080053
11
9.5204569360
21
-16.9574361532
62
2
0
LINE
8
Setbacks
10
9.5204569360
20
-16.9574361532
11
9.6932836377
21
-16.9111274344
62
2
0
LINE
8
Setbacks
10
9.6932836377
20
-16.9111274344
11
9.7973566441
21
-16.8580995993
62
2
0
LINE
8
Setbacks
10
9.7973566441
20
-16.8580995993
11
9.7978322779
21
-16.8579025853
62
2
0
LINE
8
Setbacks
10
9.7978322779
20
-16.8579025853
11
9.7983328755
21
-16.8577824022
62
2
0
LINE
8
Setbacks
10
9.7983328755
20
-16.8577824022
11
9.9212044873
21
-16.8383213675
62
2
0
LINE
8
Setbacks
10
9.9212044873
20
-16.8383213675
11
10.0320489097
21
-16.7818433629
62
2
0
LINE
8
Setbacks
10
10.0320489097
20
-16.7818433629
11
10.0325245451
21
-16.7816463485
62
2
0
LINE
8
Setbacks
10
10.0325245451
20
-16.7816463485
11
10.0330251444
21
-16.7815261655
62
2
0
LINE
8
Setbacks
10
10.0330251444
20
-16.7815261655
11
10.1483915828
21
-16.7632539928
62
2
0
LINE
8
Setbacks
10
10.1483915828
20
-16.7632539928
11
10.3154302242
21
-16.6991338011
62
2
0
LINE
8
Setbacks
10
10.3154302242
20
-16.6991338011
11
10.3159238457
21
-16.6989875835
62
2
0
LINE
8
Setbacks
10
10.3159238457
20
-16.6989875835
11
10.4372775241
21
-16.6731929632
62
2
0
LINE
8
Setbacks
10
10.4372775241
20
-16.6731929632
11
10.4377879447
21
-16.6731257648
62
2
0
LINE
8
Setbacks
10
10.4377879447
20
-16.6731257648
11
10.6164659040
21
-16.6637615937
62
2
0
LINE
8
Setbacks
10
10.6164659040
20
-16.6637615937
11
10.7292896528
21
-16.6335306308
62
2
0
LINE
8
Setbacks
10
10.7292896528
20
-16.6335306308
11
10.7297958559
21
-16.6334368119
62
2
0
LINE
8
Setbacks
10
10.7297958559
20
-16.6334368119
11
10.7303105034
21
-16.6334233358
62
2
0
LINE
8
Setbacks
10
10.7303105034
20
-16.6334233358
11
10.8545432227
21
-16.6399341976
62
2
0
LINE
8
Setbacks
10
10.8545432227
20
-16.6399341976
11
10.9747079624
21
-16.6077360119
62
2
0
LINE
8
Setbacks
10
10.9747079624
20
-16.6077360119
11
10.9752141681
21
-16.6076421919
62
2
0
LINE
8
Setbacks
10
10.9752141681
20
-16.6076421919
11
10.9757288182
21
-16.6076287155
62
2
0
LINE
8
Setbacks
10
10.9757288182
20
-16.6076287155
11
11.0923736356
21
-16.6137419019
62
2
0
LINE
8
Setbacks
10
11.0923736356
20
-16.6137419019
11
11.2690930939
21
-16.5857522096
62
2
0
LINE
8
Setbacks
10
11.2690930939
20
-16.5857522096
11
11.2696063318
21
-16.5857118168
62
2
0
LINE
8
Setbacks
10
11.2696063318
20
-16.5857118168
11
11.3936709683
21
-16.5857118168
62
2
0
LINE
8
Setbacks
10
11.3936709683
20
-16.5857118168
11
11.3941842061
21
-16.5857522096
62
2
0
LINE
8
Setbacks
10
11.3941842061
20
-16.5857522096
11
11.5709036645
21
-16.6137419019
62
2
0
LINE
8
Setbacks
10
11.5709036645
20
-16.6137419019
11
11.6875484818
21
-16.6076287155
62
2
0
LINE
8
Setbacks
10
11.6875484818
20
-16.6076287155
11
11.6880631320
21
-16.6076421919
62
2
0
LINE
8
Setbacks
10
11.6880631320
20
-16.6076421919
11
11.6885693376
21
-16.6077360119
62
2
0
LINE
8
Setbacks
10
11.6885693376
20
-16.6077360119
11
11.8087340773
21
-16.6399341976
62
2
0
LINE
8
Setbacks
10
11.8087340773
20
-16.6399341976
11
11.9329667967
21
-16.6334233358
62
2
0
LINE
8
Setbacks
10
11.9329667967
20
-16.6334233358
11
11.9334814441
21
-16.6334368119
62
2
0
LINE
8
Setbacks
10
11.9334814441
20
-16.6334368119
11
11.9339876473
21
-16.6335306308
62
2
0
LINE
8
Setbacks
10
11.9339876473
20
-16.6335306308
11
12.0468113959
21
-16.6637615936
62
2
0
LINE
8
Setbacks
10
12.0468113959
20
-16.6637615936
11
12.2254896831
21
-16.6731257648
62
2
0
LINE
8
Setbacks
10
12.2254896831
20
-16.6731257648
11
12.2260001040
21
-16.6731929632
62
2
0
LINE
8
Setbacks
10
12.2260001040
20
-16.6731929632
11
12.3473537824
21
-16.6989875835
62
2
0
LINE
8
Setbacks
10
12.3473537824
20
-16.6989875835
11
12.3478474039
21
-16.6991338011
62
2
0
LINE
8
Setbacks
10
12.3478474039
20
-16.6991338011
11
12.5148860454
21
-16.7632539928
62
2
0
LINE
8
Setbacks
10
12.5148860454
20
-16.7632539928
11
12.6302524837
21
-16.7815261655
62
2
0
LINE
8
Setbacks
10
12.6302524837
20
-16.7815261655
11
12.6307530831
21
-16.7816463485
62
2
0
LINE
8
Setbacks
10
12.6307530831
20
-16.7816463485
11
12.6312287184
21
-16.7818433629
62
2
0
LINE
8
Setbacks
10
12.6312287184
20
-16.7818433629
11
12.7420731409
21
-16.8383213675
62
2
0
LINE
8
Setbacks
10
12.7420731409
20
-16.8383213675
11
12.8649447526
21
-16.8577824022
62
2
0
LINE
8
Setbacks
10
12.8649447526
20
-16.8577824022
11
12.8654453483
21
-16.8579025847
62
2
0
LINE
8
Setbacks
10
12.8654453483
20
-16.8579025847
11
12.8659209803
21
-16.8580995974
62
2
0
LINE
8
Setbacks
10
12.8659209803
20
-16.8580995974
11
12.9699943178
21
-16.9111274346
62
2
0
LINE
8
Setbacks
10
12.9699943178
20
-16.9111274346
11
13.1428203670
21
-16.9574361540
62
2
0
LINE
8
Setbacks
10
13.1428203670
20
-16.9574361540
11
13.1433056563
21
-16.9576080039
62
2
0
LINE
8
Setbacks
10
13.1433056563
20
-16.9576080039
11
13.2566445707
21
-17.0080696197
62
2
0
LINE
8
Setbacks
10
13.2566445707
20
-17.0080696197
11
13.2570970108
21
-17.0083152745
62
2
0
LINE
8
Setbacks
10
13.2570970108
20
-17.0083152745
11
13.4071545998
21
-17.1057639513
62
2
0
LINE
8
Setbacks
10
13.4071545998
20
-17.1057639513
11
13.5162004568
21
-17.1476226595
62
2
0
LINE
8
Setbacks
10
13.5162004568
20
-17.1476226595
11
13.5166651287
21
-17.1478442963
62
2
0
LINE
8
Setbacks
10
13.5166651287
20
-17.1478442963
11
13.5170894082
21
-17.1481358950
62
2
0
LINE
8
Setbacks
10
13.5170894082
20
-17.1481358950
11
13.6137685864
21
-17.2264250246
62
2
0
LINE
8
Setbacks
10
13.6137685864
20
-17.2264250246
11
13.7299097843
21
-17.2710075071
62
2
0
LINE
8
Setbacks
10
13.7299097843
20
-17.2710075071
11
13.7303744568
21
-17.2712291448
62
2
0
LINE
8
Setbacks
10
13.7303744568
20
-17.2712291448
11
13.7307987366
21
-17.2715207447
62
2
0
LINE
8
Setbacks
10
13.7307987366
20
-17.2715207447
11
13.8215730753
21
-17.3450284726
62
2
0
LINE
8
Setbacks
10
13.8215730753
20
-17.3450284726
11
13.9406815176
21
-17.4057169236
62
2
0
LINE
8
Setbacks
10
13.9406815176
20
-17.4057169236
11
48.5621708428
21
-17.7303485703
62
2
0
LINE
8
Setbacks
10
48.5621708428
20
-17.7303485703
11
48.4244980862
21
-11.4019305649
62
2
0
LINE
8
Setbacks
10
48.4244980862
20
-11.4019305649
11
42.8429613578
21
-11.2763364728
62
2
0
LINE
8
Setbacks
10
42.8429613578
20
-11.2763364728
11
42.8424491603
21
-11.2762845448
62
2
0
LINE
8
Setbacks
10
42.8424491603
20
-11.2762845448
11
41.6110980710
21
-11.0527536977
62
2
0
LINE
8
Setbacks
10
41.6110980710
20
-11.0527536977
11
41.6106003022
21
-11.0526222835
62
2
0
LINE
8
Setbacks
10
41.6106003022
20
-11.0526222835
11
41.6101292194
21
-11.0524146189
62
2
0
LINE
8
Setbacks
10
41.6101292194
20
-11.0524146189
11
40.5081196697
21
-10.4593155185
62
2
0
LINE
8
Setbacks
10
40.5081196697
20
-10.4593155185
11
40.5076868731
21
-10.4590367173
62
2
0
LINE
8
Setbacks
10
40.5076868731
20
-10.4590367173
11
40.5073030190
21
-10.4586936443
62
2
0
LINE
8
Setbacks
10
40.5073030190
20
-10.4586936443
11
39.6425073876
21
-9.5540833791
62
2
0
LINE
8
Setbacks
10
39.6425073876
20
-9.5540833791
11
39.6421819276
21
-9.5536844816
62
2
0
LINE
8
Setbacks
10
39.6421819276
20
-9.5536844816
11
39.6419228759
21
-9.5532395820
62
2
0
LINE
8
Setbacks
10
39.6419228759
20
-9.5532395820
11
39.0989933966
21
-8.4256673674
62
2
0
LINE
8
Setbacks
10
39.0989933966
20
-8.4256673674
11
39.0988071321
21
-8.4251874212
62
2
0
LINE
8
Setbacks
10
39.0988071321
20
-8.4251874212
11
39.0986982409
21
-8.4246842458
62
2
0
LINE
8
Setbacks
10
39.0986982409
20
-8.4246842458
11
38.9307802565
21
-7.1845247573
62
2
0
LINE
8
Setbacks
10
38.9307802565
20
-7.1845247573
11
38.9307514199
21
-7.1840107416
62
2
0
LINE
8
Setbacks
10
38.9307514199
20
-7.1840107416
11
39.1980814809
21
4.6964115546
62
2
0
LINE
8
Setbacks
10
39.1980814809
20
4.6964115546
11
39.1981334090
21
4.6969237520
62
2
0
LINE
8
Setbacks
10
39.1981334090
20
4.6969237520
11
39.4216642561
21
5.9282748413
62
2
0
LINE
8
Setbacks
10
39.4216642561
20
5.9282748413
11
39.4217956703
21
5.9287726102
62
2
0
LINE
8
Setbacks
10
39.4217956703
20
5.9287726102
11
39.4220033349
21
5.9292436929
62
2
0
LINE
8
Setbacks
10
39.4220033349
20
5.9292436929
11
40.0151024352
21
7.0312532426
62
2
0
LINE
8
Setbacks
10
40.0151024352
20
7.0312532426
11
40.0153812363
21
7.0316860390
62
2
0
LINE
8
Setbacks
10
40.0153812363
20
7.0316860390
11
40.0157243091
21
7.0320698929
62
2
0
LINE
8
Setbacks
10
40.0157243091
20
7.0320698929
11
40.9203345742
21
7.8968658524
62
2
0
LINE
8
Setbacks
10
40.9203345742
20
7.8968658524
11
40.9207334719
21
7.8971913126
62
2
0
LINE
8
Setbacks
10
40.9207334719
20
7.8971913126
11
40.9211783718
21
7.8974503645
62
2
0
LINE
8
Setbacks
10
40.9211783718
20
7.8974503645
11
42.0487505864
21
8.4403798438
62
2
0
LINE
8
Setbacks
10
42.0487505864
20
8.4403798438
11
42.0492305325
21
8.4405661083
62
2
0
LINE
8
Setbacks
10
42.0492305325
20
8.4405661083
11
42.0497337079
21
8.4406749995
62
2
0
LINE
8
Setbacks
10
42.0497337079
20
8.4406749995
11
43.2898931964
21
8.6085929839
62
2
0
LINE
8
Setbacks
10
43.2898931964
20
8.6085929839
11
43.2904072121
21
8.6086218205
62
2
0
LINE
8
Setbacks
10
43.2904072121
20
8.6086218205
11
47.9914766102
21
8.5028397113
62
2
0
LINE
8
Setbacks
10
47.9914766102
20
8.5028397113
11
47.8656830873
21
14.2852103338
62
2
0
LINE
8
Setbacks
10
47.8656830873
20
14.2852103338
11
-8.2888262636
21
14.7618237128
62
2
0
LINE
8
Setbacks
10
-8.2888262636
20
14.7618237128
11
-8.2955989619
21
13.5377069688
62
2
0
LINE
8
Setbacks
10
-8.2955989619
20
13.5377069688
11
-6.1965634114
21
13.5260935585
62
2
0
LINE
8
Setbacks
10
-6.1965634114
20
13.5260935585
11
-6.1960504056
21
13.5260503268
62
2
0
LINE
8
Setbacks
10
-6.1960504056
20
13.5260503268
11
-4.9610844869
21
13.3234404122
62
2
0
LINE
8
Setbacks
10
-4.9610844869
20
13.3234404122
11
-4.9605845612
21
13.3233174614
62
2
0
LINE
8
Setbacks
10
-4.9605845612
20
13.3233174614
11
-4.9601100241
21
13.3231178187
62
2
0
LINE
8
Setbacks
10
-4.9601100241
20
13.3231178187
11
-3.8481972589
21
12.7487992308
62
2
0
LINE
8
Setbacks
10
-3.8481972589
20
12.7487992308
11
-3.8477597941
21
12.7485278115
62
2
0
LINE
8
Setbacks
10
-3.8477597941
20
12.7485278115
11
-3.8473701747
21
12.7481912992
62
2
0
LINE
8
Setbacks
10
-3.8473701747
20
12.7481912992
11
-2.9673527581
21
11.8583815594
62
2
0
LINE
8
Setbacks
10
-2.9673527581
20
11.8583815594
11
-2.9670205783
21
11.8579882409
62
2
0
LINE
8
Setbacks
10
-2.9670205783
20
11.8579882409
11
-2.9667540167
21
11.8575478005
62
2
0
LINE
8
Setbacks
10
-2.9667540167
20
11.8575478005
11
-2.4047740118
21
10.7393486177
62
2
0
LINE
8
Setbacks
10
-2.4047740118
20
10.7393486177
11
-2.4045796319
21
10.7388719000
62
2
0
LINE
8
Setbacks
10
-2.4045796319
20
10.7388719000
11
-2.4044622202
21
10.7383706436
62
2
0
LINE
8
Setbacks
10
-2.4044622202
20
10.7383706436
11
-2.2155301275
21
9.5012383862
62
2
0
LINE
8
Setbacks
10
-2.2155301275
20
9.5012383862
11
-2.2154925752
21
9.5007249342
62
2
0
LINE
8
Setbacks
10
-2.2154925752
20
9.5007249342
11
-2.3635148519
21
-17.2528394109
62
2
0
LINE
8
Setbacks
10
12.6972557876
20
7.4328686658
11
12.6907449254
21
7.3086359400
62
2
0
LINE
8
Setbacks
10
12.6907449254
20
7.3086359400
11
12.6906777273
21
7.3081255223
62
2
0
LINE
8
Setbacks
10
12.6906777273
20
7.3081255223
11
12.6905315098
21
7.3076319006
62
2
0
LINE
8
Setbacks
10
12.6905315098
20
7.3076319006
11
12.6486724730
21
7.1985853853
62
2
0
LINE
8
Setbacks
10
12.6486724730
20
7.1985853853
11
12.6206827802
21
7.0218655967
62
2
0
LINE
8
Setbacks
10
12.6206827802
20
7.0218655967
11
12.6205625957
21
7.0213649940
62
2
0
LINE
8
Setbacks
10
12.6205625957
20
7.0213649940
11
12.5822243399
21
6.9033725361
62
2
0
LINE
8
Setbacks
10
12.5822243399
20
6.9033725361
11
12.5820273256
21
6.9028969031
62
2
0
LINE
8
Setbacks
10
12.5820273256
20
6.9028969031
11
12.5007983760
21
6.7434764570
62
2
0
LINE
8
Setbacks
10
12.5007983760
20
6.7434764570
11
12.4705670861
21
6.6306510731
62
2
0
LINE
8
Setbacks
10
12.4705670861
20
6.6306510731
11
12.4703952340
21
6.6301657762
62
2
0
LINE
8
Setbacks
10
12.4703952340
20
6.6301657762
11
12.4701495802
21
6.6297133379
62
2
0
LINE
8
Setbacks
10
12.4701495802
20
6.6297133379
11
12.4023945343
21
6.5253797807
62
2
0
LINE
8
Setbacks
10
12.4023945343
20
6.5253797807
11
12.3701966755
21
6.4052153680
62
2
0
LINE
8
Setbacks
10
12.3701966755
20
6.4052153680
11
12.3700248229
21
6.4047300710
62
2
0
LINE
8
Setbacks
10
12.3700248229
20
6.4047300710
11
12.3697791685
21
6.4042776327
62
2
0
LINE
8
Setbacks
10
12.3697791685
20
6.4042776327
11
12.3061625146
21
6.3063168309
62
2
0
LINE
8
Setbacks
10
12.3061625146
20
6.3063168309
11
12.2420426512
21
6.1392785190
62
2
0
LINE
8
Setbacks
10
12.2420426512
20
6.1392785190
11
12.2418210120
21
6.1388138428
62
2
0
LINE
8
Setbacks
10
12.2418210120
20
6.1388138428
11
12.1797885297
21
6.0313705979
62
2
0
LINE
8
Setbacks
10
12.1797885297
20
6.0313705979
11
12.1794969311
21
6.0309463197
62
2
0
LINE
8
Setbacks
10
12.1794969311
20
6.0309463197
11
12.0668983199
21
5.8918986824
62
2
0
LINE
8
Setbacks
10
12.0668983199
20
5.8918986824
11
12.0138695007
21
5.7878237078
62
2
0
LINE
8
Setbacks
10
12.0138695007
20
5.7878237078
11
12.0136005042
21
5.7873847458
62
2
0
LINE
8
Setbacks
10
12.0136005042
20
5.7873847458
11
12.0132661504
21
5.7869932689
62
2
0
LINE
8
Setbacks
10
12.0132661504
20
5.7869932689
11
11.9252992714
21
5.6990267166
62
2
0
LINE
8
Setbacks
10
11.9252992714
20
5.6990267166
11
11.8688215977
21
5.5881826291
62
2
0
LINE
8
Setbacks
10
11.8688215977
20
5.5881826291
11
11.8685526024
21
5.5877436675
62
2
0
LINE
8
Setbacks
10
11.8685526024
20
5.5877436675
11
11.8682182498
21
5.5873521907
62
2
0
LINE
8
Setbacks
10
11.8682182498
20
5.5873521907
11
11.7856241524
21
5.5047580932
62
2
0
LINE
8
Setbacks
10
11.7856241524
20
5.5047580932
11
11.6881764585
21
5.3547018148
62
2
0
LINE
8
Setbacks
10
11.6881764585
20
5.3547018148
11
11.6878630562
21
5.3542933806
62
2
0
LINE
8
Setbacks
10
11.6878630562
20
5.3542933806
11
11.6048476336
21
5.2620952149
62
2
0
LINE
8
Setbacks
10
11.6048476336
20
5.2620952149
11
11.6044741913
21
5.2617408310
62
2
0
LINE
8
Setbacks
10
11.6044741913
20
5.2617408310
11
11.4654252407
21
5.1491412347
62
2
0
LINE
8
Setbacks
10
11.4654252407
20
5.1491412347
11
11.3919178374
21
5.0583672200
62
2
0
LINE
8
Setbacks
10
11.3919178374
20
5.0583672200
11
11.3915634578
21
5.0579937818
62
2
0
LINE
8
Setbacks
10
11.3915634578
20
5.0579937818
11
11.3911550227
21
5.0576803782
62
2
0
LINE
8
Setbacks
10
11.3911550227
20
5.0576803782
11
11.2868221182
21
4.9899256585
62
2
0
LINE
8
Setbacks
10
11.2868221182
20
4.9899256585
11
11.2085320047
21
4.8932454955
62
2
0
LINE
8
Setbacks
10
11.2085320047
20
4.8932454955
11
11.2081776236
21
4.8928720560
62
2
0
LINE
8
Setbacks
10
11.2081776236
20
4.8928720560
11
11.2077691866
21
4.8925586515
62
2
0
LINE
8
Setbacks
10
11.2077691866
20
4.8925586515
11
11.1098080548
21
4.8289419957
62
2
0
LINE
8
Setbacks
10
11.1098080548
20
4.8289419957
11
10.9832910561
21
4.7024249970
62
2
0
LINE
8
Setbacks
10
10.9832910561
20
4.7024249970
11
10.9828995788
21
4.7020906441
62
2
0
LINE
8
Setbacks
10
10.9828995788
20
4.7020906441
11
10.8825291688
21
4.6291674134
62
2
0
LINE
8
Setbacks
10
10.8825291688
20
4.6291674134
11
10.8820902145
21
4.6288984219
62
2
0
LINE
8
Setbacks
10
10.8820902145
20
4.6288984219
11
10.7226691055
21
4.5476691408
62
2
0
LINE
8
Setbacks
10
10.7226691055
20
4.5476691408
11
10.6318947605
21
4.4741617349
62
2
0
LINE
8
Setbacks
10
10.6318947605
20
4.4741617349
11
10.6314704850
21
4.4738701388
62
2
0
LINE
8
Setbacks
10
10.6314704850
20
4.4738701388
11
10.6310058177
21
4.4736485034
62
2
0
LINE
8
Setbacks
10
10.6310058177
20
4.4736485034
11
10.5148659285
21
4.4290663482
62
2
0
LINE
8
Setbacks
10
10.5148659285
20
4.4290663482
11
10.4181857635
21
4.3507765598
62
2
0
LINE
8
Setbacks
10
10.4181857635
20
4.3507765598
11
10.4177614853
21
4.3504849623
62
2
0
LINE
8
Setbacks
10
10.4177614853
20
4.3504849623
11
10.4172968150
21
4.3502633263
62
2
0
LINE
8
Setbacks
10
10.4172968150
20
4.3502633263
11
10.3082493163
21
4.3084039616
62
2
0
LINE
8
Setbacks
10
10.3082493163
20
4.3084039616
11
10.1581930385
21
4.2109562681
62
2
0
LINE
8
Setbacks
10
10.1581930385
20
4.2109562681
11
10.1577406033
21
4.2107106158
62
2
0
LINE
8
Setbacks
10
10.1577406033
20
4.2107106158
11
10.0444020170
21
4.1602490000
62
2
0
LINE
8
Setbacks
10
10.0444020170
20
4.1602490000
11
10.0439167234
21
4.1600771484
62
2
0
LINE
8
Setbacks
10
10.0439167234
20
4.1600771484
11
9.8710916610
21
4.1137687576
62
2
0
LINE
8
Setbacks
10
9.8710916610
20
4.1137687576
11
9.7670173412
21
4.0607402658
62
2
0
LINE
8
Setbacks
10
9.7670173412
20
4.0607402658
11
9.7665417070
21
4.0605432516
62
2
0
LINE
8
Setbacks
10
9.7665417070
20
4.0605432516
11
9.7660411088
21
4.0604230686
62
2
0
LINE
8
Setbacks
10
9.7660411088
20
4.0604230686
11
9.6431691697
21
4.0409620338
62
2
0
LINE
8
Setbacks
10
9.6431691697
20
4.0409620338
11
9.5323247479
21
3.9844840295
62
2
0
LINE
8
Setbacks
10
9.5323247479
20
3.9844840295
11
9.5318491125
21
3.9842870151
62
2
0
LINE
8
Setbacks
10
9.5318491125
20
3.9842870151
11
9.5313485131
21
3.9841668321
62
2
0
LINE
8
Setbacks
10
9.5313485131
20
3.9841668321
11
9.4159820748
21
3.9658946594
62
2
0
LINE
8
Setbacks
10
9.4159820748
20
3.9658946594
11
9.2489434333
21
3.9017744677
62
2
0
LINE
8
Setbacks
10
9.2489434333
20
3.9017744677
11
9.2484498036
21
3.9016282483
62
2
0
LINE
8
Setbacks
10
9.2484498036
20
3.9016282483
11
9.1270961252
21
3.8758339561
62
2
0
LINE
8
Setbacks
10
9.1270961252
20
3.8758339561
11
9.1265857141
21
3.8757667595
62
2
0
LINE
8
Setbacks
10
9.1265857141
20
3.8757667595
11
8.9479090662
21
3.8664025885
62
2
0
LINE
8
Setbacks
10
8.9479090662
20
3.8664025885
11
8.8350840042
21
3.8361712972
62
2
0
LINE
8
Setbacks
10
8.8350840042
20
3.8361712972
11
8.8345778013
21
3.8360774785
62
2
0
LINE
8
Setbacks
10
8.8345778013
20
3.8360774785
11
8.8340631542
21
3.8360640024
62
2
0
LINE
8
Setbacks
10
8.8340631542
20
3.8360640024
11
8.7098304348
21
3.8425748642
62
2
0
LINE
8
Setbacks
10
8.7098304348
20
3.8425748642
11
8.5896656951
21
3.8103766785
62
2
0
LINE
8
Setbacks
10
8.5896656951
20
3.8103766785
11
8.5891594895
21
3.8102828585
62
2
0
LINE
8
Setbacks
10
8.5891594895
20
3.8102828585
11
8.5886448394
21
3.8102693821
62
2
0
LINE
8
Setbacks
10
8.5886448394
20
3.8102693821
11
8.4720000220
21
3.8163825685
62
2
0
LINE
8
Setbacks
10
8.4720000220
20
3.8163825685
11
8.2952805637
21
3.7883928762
62
2
0
LINE
8
Setbacks
10
8.2952805637
20
3.7883928762
11
8.2947673258
21
3.7883524834
62
2
0
LINE
8
Setbacks
10
8.2947673258
20
3.7883524834
11
8.1707026893
21
3.7883524834
62
2
0
LINE
8
Setbacks
10
8.1707026893
20
3.7883524834
11
8.1701894514
21
3.7883928762
62
2
0
LINE
8
Setbacks
10
8.1701894514
20
3.7883928762
11
7.9934699931
21
3.8163825685
62
2
0
LINE
8
Setbacks
10
7.9934699931
20
3.8163825685
11
7.8768251757
21
3.8102693821
62
2
0
LINE
8
Setbacks
10
7.8768251757
20
3.8102693821
11
7.8763105256
21
3.8102828585
62
2
0
LINE
8
Setbacks
10
7.8763105256
20
3.8102828585
11
7.8758043199
21
3.8103766785
62
2
0
LINE
8
Setbacks
10
7.8758043199
20
3.8103766785
11
7.7556395803
21
3.8425748642
62
2
0
LINE
8
Setbacks
10
7.7556395803
20
3.8425748642
11
7.6314068609
21
3.8360640024
62
2
0
LINE
8
Setbacks
10
7.6314068609
20
3.8360640024
11
7.6308922137
21
3.8360774785
62
2
0
LINE
8
Setbacks
10
7.6308922137
20
3.8360774785
11
7.6303860109
21
3.8361712972
62
2
0
LINE
8
Setbacks
10
7.6303860109
20
3.8361712972
11
7.5175609490
21
3.8664025885
62
2
0
LINE
8
Setbacks
10
7.5175609490
20
3.8664025885
11
7.3388839732
21
3.8757667595
62
2
0
LINE
8
Setbacks
10
7.3388839732
20
3.8757667595
11
7.3383735601
21
3.8758339565
62
2
0
LINE
8
Setbacks
10
7.3383735601
20
3.8758339565
11
7.2170202097
21
3.9016282487
62
2
0
LINE
8
Setbacks
10
7.2170202097
20
3.9016282487
11
7.2165265818
21
3.9017744677
62
2
0
LINE
8
Setbacks
10
7.2165265818
20
3.9017744677
11
7.0494879403
21
3.9658946594
62
2
0
LINE
8
Setbacks
10
7.0494879403
20
3.9658946594
11
6.9341215020
21
3.9841668321
62
2
0
LINE
8
Setbacks
10
6.9341215020
20
3.9841668321
11
6.9336209026
21
3.9842870151
62
2
0
LINE
8
Setbacks
10
6.9336209026
20
3.9842870151
11
6.9331452672
21
3.9844840295
62
2
0
LINE
8
Setbacks
10
6.9331452672
20
3.9844840295
11
6.8223008454
21
4.0409620338
62
2
0
LINE
8
Setbacks
10
6.8223008454
20
4.0409620338
11
6.6994289063
21
4.0604230686
62
2
0
LINE
8
Setbacks
10
6.6994289063
20
4.0604230686
11
6.6989283081
21
4.0605432516
62
2
0
LINE
8
Setbacks
10
6.6989283081
20
4.0605432516
11
6.6984526738
21
4.0607402658
62
2
0
LINE
8
Setbacks
10
6.6984526738
20
4.0607402658
11
6.5943783541
21
4.1137687576
62
2
0
LINE
8
Setbacks
10
6.5943783541
20
4.1137687576
11
6.4215532917
21
4.1600771484
62
2
0
LINE
8
Setbacks
10
6.4215532917
20
4.1600771484
11
6.4210680013
21
4.1602489986
62
2
0
LINE
8
Setbacks
10
6.4210680013
20
4.1602489986
11
6.3077290869
21
4.2107106143
62
2
0
LINE
8
Setbacks
10
6.3077290869
20
4.2107106143
11
6.3072766470
21
4.2109562691
62
2
0
LINE
8
Setbacks
10
6.3072766470
20
4.2109562691
11
6.1572200426
21
4.3084042894
62
2
0
LINE
8
Setbacks
10
6.1572200426
20
4.3084042894
11
6.0481732020
21
4.3502633256
62
2
0
LINE
8
Setbacks
10
6.0481732020
20
4.3502633256
11
6.0477085283
21
4.3504849632
62
2
0
LINE
8
Setbacks
10
6.0477085283
20
4.3504849632
11
6.0472842474
21
4.3507765632
62
2
0
LINE
8
Setbacks
10
6.0472842474
20
4.3507765632
11
5.9506044145
21
4.4290663472
62
2
0
LINE
8
Setbacks
10
5.9506044145
20
4.4290663472
11
5.8344638750
21
4.4736485011
62
2
0
LINE
8
Setbacks
10
5.8344638750
20
4.4736485011
11
5.8339992041
21
4.4738701376
62
2
0
LINE
8
Setbacks
10
5.8339992041
20
4.4738701376
11
5.8335749254
21
4.4741617358
62
2
0
LINE
8
Setbacks
10
5.8335749254
20
4.4741617358
11
5.7428002528
21
4.5476694692
62
2
0
LINE
8
Setbacks
10
5.7428002528
20
4.5476694692
11
5.5833798005
21
4.6288984220
62
2
0
LINE
8
Setbacks
10
5.5833798005
20
4.6288984220
11
5.5829408463
21
4.6291674134
62
2
0
LINE
8
Setbacks
10
5.5829408463
20
4.6291674134
11
5.4825704362
21
4.7020906441
62
2
0
LINE
8
Setbacks
10
5.4825704362
20
4.7020906441
11
5.4821789590
21
4.7024249970
62
2
0
LINE
8
Setbacks
10
5.4821789590
20
4.7024249970
11
5.3556619603
21
4.8289419957
62
2
0
LINE
8
Setbacks
10
5.3556619603
20
4.8289419957
11
5.2577008285
21
4.8925586515
62
2
0
LINE
8
Setbacks
10
5.2577008285
20
4.8925586515
11
5.2572923915
21
4.8928720560
62
2
0
LINE
8
Setbacks
10
5.2572923915
20
4.8928720560
11
5.2569380103
21
4.8932454955
62
2
0
LINE
8
Setbacks
10
5.2569380103
20
4.8932454955
11
5.1786478969
21
4.9899256585
62
2
0
LINE
8
Setbacks
10
5.1786478969
20
4.9899256585
11
5.0743149924
21
5.0576803782
62
2
0
LINE
8
Setbacks
10
5.0743149924
20
5.0576803782
11
5.0739065573
21
5.0579937818
62
2
0
LINE
8
Setbacks
10
5.0739065573
20
5.0579937818
11
5.0735521777
21
5.0583672200
62
2
0
LINE
8
Setbacks
10
5.0735521777
20
5.0583672200
11
5.0000447744
21
5.1491412347
62
2
0
LINE
8
Setbacks
10
5.0000447744
20
5.1491412347
11
4.8609958238
21
5.2617408310
62
2
0
LINE
8
Setbacks
10
4.8609958238
20
5.2617408310
11
4.8606223858
21
5.2620952101
62
2
0
LINE
8
Setbacks
10
4.8606223858
20
5.2620952101
11
4.7776066351
21
5.3542933758
62
2
0
LINE
8
Setbacks
10
4.7776066351
20
5.3542933758
11
4.7772932286
21
5.3547018146
62
2
0
LINE
8
Setbacks
10
4.7772932286
20
5.3547018146
11
4.6798448786
21
5.5047590774
62
2
0
LINE
8
Setbacks
10
4.6798448786
20
5.5047590774
11
4.5972517653
21
5.5873521907
62
2
0
LINE
8
Setbacks
10
4.5972517653
20
5.5873521907
11
4.5969174127
21
5.5877436675
62
2
0
LINE
8
Setbacks
10
4.5969174127
20
5.5877436675
11
4.5966484174
21
5.5881826291
62
2
0
LINE
8
Setbacks
10
4.5966484174
20
5.5881826291
11
4.5401707437
21
5.6990267166
62
2
0
LINE
8
Setbacks
10
4.5401707437
20
5.6990267166
11
4.4522038647
21
5.7869932689
62
2
0
LINE
8
Setbacks
10
4.4522038647
20
5.7869932689
11
4.4518695121
21
5.7873847441
62
2
0
LINE
8
Setbacks
10
4.4518695121
20
5.7873847441
11
4.4516005164
21
5.7878237040
62
2
0
LINE
8
Setbacks
10
4.4516005164
20
5.7878237040
11
4.3985720242
21
5.8918976973
62
2
0
LINE
8
Setbacks
10
4.3985720242
20
5.8918976973
11
4.2859727546
21
6.0309463213
62
2
0
LINE
8
Setbacks
10
4.2859727546
20
6.0309463213
11
4.2856811535
21
6.0313706044
62
2
0
LINE
8
Setbacks
10
4.2856811535
20
6.0313706044
11
4.2236489993
21
6.1388138493
62
2
0
LINE
8
Setbacks
10
4.2236489993
20
6.1388138493
11
4.2234273639
21
6.1392785190
62
2
0
LINE
8
Setbacks
10
4.2234273639
20
6.1392785190
11
4.1593075005
21
6.3063168309
62
2
0
LINE
8
Setbacks
10
4.1593075005
20
6.3063168309
11
4.0956908465
21
6.4042776327
62
2
0
LINE
8
Setbacks
10
4.0956908465
20
6.4042776327
11
4.0954451922
21
6.4047300710
62
2
0
LINE
8
Setbacks
10
4.0954451922
20
6.4047300710
11
4.0952733396
21
6.4052153680
62
2
0
LINE
8
Setbacks
10
4.0952733396
20
6.4052153680
11
4.0630754808
21
6.5253797807
62
2
0
LINE
8
Setbacks
10
4.0630754808
20
6.5253797807
11
3.9953204349
21
6.6297133379
62
2
0
LINE
8
Setbacks
10
3.9953204349
20
6.6297133379
11
3.9950747830
21
6.6301657718
62
2
0
LINE
8
Setbacks
10
3.9950747830
20
6.6301657718
11
3.9949029314
21
6.6306510639
62
2
0
LINE
8
Setbacks
10
3.9949029314
20
6.6306510639
11
3.9646716405
21
6.7434751430
62
2
0
LINE
8
Setbacks
10
3.9646716405
20
6.7434751430
11
3.8834423589
21
6.9028969080
62
2
0
LINE
8
Setbacks
10
3.8834423589
20
6.9028969080
11
3.8832453445
21
6.9033725440
62
2
0
LINE
8
Setbacks
10
3.8832453445
20
6.9033725440
11
3.8449074168
21
7.0213650018
62
2
0
LINE
8
Setbacks
10
3.8449074168
20
7.0213650018
11
3.8447872349
21
7.0218655967
62
2
0
LINE
8
Setbacks
10
3.8447872349
20
7.0218655967
11
3.8167975421
21
7.1985853853
62
2
0
LINE
8
Setbacks
10
3.8167975421
20
7.1985853853
11
3.7749385052
21
7.3076319006
62
2
0
LINE
8
Setbacks
10
3.7749385052
20
7.3076319006
11
3.7747922877
21
7.3081255223
62
2
0
LINE
8
Setbacks
10
3.7747922877
20
7.3081255223
11
3.7747250896
21
7.3086359400
62
2
0
LINE
8
Setbacks
10
3.7747250896
20
7.3086359400
11
3.7682142275
21
7.4328686658
62
2
0
LINE
8
Setbacks
10
3.7682142275
20
7.4328686658
11
3.7236320718
21
7.5490095365
62
2
0
LINE
8
Setbacks
10
3.7236320718
20
7.5490095365
11
3.7234858553
21
7.5495031563
62
2
0
LINE
8
Setbacks
10
3.7234858553
20
7.5495031563
11
3.7234186576
21
7.5500135721
62
2
0
LINE
8
Setbacks
10
3.7234186576
20
7.5500135721
11
3.7173054710
21
7.6666580660
62
2
0
LINE
8
Setbacks
10
3.7173054710
20
7.6666580660
11
3.6709970794
21
7.8394837862
62
2
0
LINE
8
Setbacks
10
3.6709970794
20
7.8394837862
11
3.6709032605
21
7.8399899902
62
2
0
LINE
8
Setbacks
10
3.6709032605
20
7.8399899902
11
3.6579350842
21
7.9633751648
62
2
0
LINE
8
Setbacks
10
3.6579350842
20
7.9633751648
11
3.6579216082
21
7.9638898108
62
2
0
LINE
8
Setbacks
10
3.6579216082
20
7.9638898108
11
3.6672857789
21
8.1425664531
62
2
0
LINE
8
Setbacks
10
3.6672857789
20
8.1425664531
11
3.6490132790
21
8.2579335461
62
2
0
LINE
8
Setbacks
10
3.6490132790
20
8.2579335461
11
3.6489728858
21
8.2584467849
62
2
0
LINE
8
Setbacks
10
3.6489728858
20
8.2584467849
11
3.6490132785
21
8.2589600238
62
2
0
LINE
8
Setbacks
10
3.6490132785
20
8.2589600238
11
3.6684743130
21
8.3818319611
62
2
0
LINE
8
Setbacks
10
3.6684743130
20
8.3818319611
11
3.6490132785
21
8.5047038984
62
2
0
LINE
8
Setbacks
10
3.6490132785
20
8.5047038984
11
3.6489728858
21
8.5052171373
62
2
0
LINE
8
Setbacks
10
3.6489728858
20
8.5052171373
11
3.6490132790
21
8.5057303762
62
2
0
LINE
8
Setbacks
10
3.6490132790
20
8.5057303762
11
3.6672857789
21
8.6210974692
62
2
0
LINE
8
Setbacks
10
3.6672857789
20
8.6210974692
11
3.6579216082
21
8.7997741115
62
2
0
LINE
8
Setbacks
10
3.6579216082
20
8.7997741115
11
3.6579350842
21
8.8002887575
62
2
0
LINE
8
Setbacks
10
3.6579350842
20
8.8002887575
11
3.6709032605
21
8.9236739320
62
2
0
LINE
8
Setbacks
10
3.6709032605
20
8.9236739320
11
3.6709970794
21
8.9241801360
62
2
0
LINE
8
Setbacks
10
3.6709970794
20
8.9241801360
11
3.7173054710
21
9.0970058563
62
2
0
LINE
8
Setbacks
10
3.7173054710
20
9.0970058563
11
3.7234186576
21
9.2136503502
62
2
0
LINE
8
Setbacks
10
3.7234186576
20
9.2136503502
11
3.7234858553
21
9.2141607660
62
2
0
LINE
8
Setbacks
10
3.7234858553
20
9.2141607660
11
3.7236320718
21
9.2146543858
62
2
0
LINE
8
Setbacks
10
3.7236320718
20
9.2146543858
11
3.7682142275
21
9.3307952564
62
2
0
LINE
8
Setbacks
10
3.7682142275
20
9.3307952564
11
3.7747250896
21
9.4550279822
62
2
0
LINE
8
Setbacks
10
3.7747250896
20
9.4550279822
11
3.7747922877
21
9.4555384000
62
2
0
LINE
8
Setbacks
10
3.7747922877
20
9.4555384000
11
3.7749385052
21
9.4560320216
62
2
0
LINE
8
Setbacks
10
3.7749385052
20
9.4560320216
11
3.8167975421
21
9.5650785370
62
2
0
LINE
8
Setbacks
10
3.8167975421
20
9.5650785370
11
3.8447872349
21
9.7417983256
62
2
0
LINE
8
Setbacks
10
3.8447872349
20
9.7417983256
11
3.8449074168
21
9.7422989205
62
2
0
LINE
8
Setbacks
10
3.8449074168
20
9.7422989205
11
3.8832453445
21
9.8602913783
62
2
0
LINE
8
Setbacks
10
3.8832453445
20
9.8602913783
11
3.8834423589
21
9.8607670143
62
2
0
LINE
8
Setbacks
10
3.8834423589
20
9.8607670143
11
3.9646716405
21
10.0201887792
62
2
0
LINE
8
Setbacks
10
3.9646716405
20
10.0201887792
11
3.9949029314
21
10.1330128584
62
2
0
LINE
8
Setbacks
10
3.9949029314
20
10.1330128584
11
3.9950747830
21
10.1334981504
62
2
0
LINE
8
Setbacks
10
3.9950747830
20
10.1334981504
11
3.9953204349
21
10.1339505844
62
2
0
LINE
8
Setbacks
10
3.9953204349
20
10.1339505844
11
4.0630754808
21
10.2382841415
62
2
0
LINE
8
Setbacks
10
4.0630754808
20
10.2382841415
11
4.0952733396
21
10.3584485543
62
2
0
LINE
8
Setbacks
10
4.0952733396
20
10.3584485543
11
4.0954451922
21
10.3589338513
62
2
0
LINE
8
Setbacks
10
4.0954451922
20
10.3589338513
11
4.0956908465
21
10.3593862896
62
2
0
LINE
8
Setbacks
10
4.0956908465
20
10.3593862896
11
4.1593075005
21
10.4573470914
62
2
0
LINE
8
Setbacks
10
4.1593075005
20
10.4573470914
11
4.2234273639
21
10.6243854032
62
2
0
LINE
8
Setbacks
10
4.2234273639
20
10.6243854032
11
4.2236489993
21
10.6248500729
62
2
0
LINE
8
Setbacks
10
4.2236489993
20
10.6248500729
11
4.2856811535
21
10.7322933178
62
2
0
LINE
8
Setbacks
10
4.2856811535
20
10.7322933178
11
4.2859727576
21
10.7327176046
62
2
0
LINE
8
Setbacks
10
4.2859727576
20
10.7327176046
11
4.3985723507
21
10.8717662238
62
2
0
LINE
8
Setbacks
10
4.3985723507
20
10.8717662238
11
4.4516005127
21
10.9758402110
62
2
0
LINE
8
Setbacks
10
4.4516005127
20
10.9758402110
11
4.4518695097
21
10.9762791749
62
2
0
LINE
8
Setbacks
10
4.4518695097
20
10.9762791749
11
4.4522038647
21
10.9766706534
62
2
0
LINE
8
Setbacks
10
4.4522038647
20
10.9766706534
11
4.5401707437
21
11.0646372057
62
2
0
LINE
8
Setbacks
10
4.5401707437
20
11.0646372057
11
4.5966484174
21
11.1754812932
62
2
0
LINE
8
Setbacks
10
4.5966484174
20
11.1754812932
11
4.5969174127
21
11.1759202548
62
2
0
LINE
8
Setbacks
10
4.5969174127
20
11.1759202548
11
4.5972517653
21
11.1763117316
62
2
0
LINE
8
Setbacks
10
4.5972517653
20
11.1763117316
11
4.6798448786
21
11.2589048449
62
2
0
LINE
8
Setbacks
10
4.6798448786
20
11.2589048449
11
4.7772932286
21
11.4089621076
62
2
0
LINE
8
Setbacks
10
4.7772932286
20
11.4089621076
11
4.7776066351
21
11.4093705464
62
2
0
LINE
8
Setbacks
10
4.7776066351
20
11.4093705464
11
4.8606223858
21
11.5015687121
62
2
0
LINE
8
Setbacks
10
4.8606223858
20
11.5015687121
11
4.8609958216
21
11.5019230894
62
2
0
LINE
8
Setbacks
10
4.8609958216
20
11.5019230894
11
5.0000441183
21
11.6145223592
62
2
0
LINE
8
Setbacks
10
5.0000441183
20
11.6145223592
11
5.0735521794
21
11.7052970324
62
2
0
LINE
8
Setbacks
10
5.0735521794
20
11.7052970324
11
5.0739065601
21
11.7056704710
62
2
0
LINE
8
Setbacks
10
5.0739065601
20
11.7056704710
11
5.0743149963
21
11.7059838747
62
2
0
LINE
8
Setbacks
10
5.0743149963
20
11.7059838747
11
5.1786482259
21
11.7737385933
62
2
0
LINE
8
Setbacks
10
5.1786482259
20
11.7737385933
11
5.2569380095
21
11.8704184257
62
2
0
LINE
8
Setbacks
10
5.2569380095
20
11.8704184257
11
5.2572923911
21
11.8707918659
62
2
0
LINE
8
Setbacks
10
5.2572923911
20
11.8707918659
11
5.2577008285
21
11.8711052708
62
2
0
LINE
8
Setbacks
10
5.2577008285
20
11.8711052708
11
5.3556619603
21
11.9347219266
62
2
0
LINE
8
Setbacks
10
5.3556619603
20
11.9347219266
11
5.4821789590
21
12.0612389253
62
2
0
LINE
8
Setbacks
10
5.4821789590
20
12.0612389253
11
5.4825704362
21
12.0615732781
62
2
0
LINE
8
Setbacks
10
5.4825704362
20
12.0615732781
11
5.5829408463
21
12.1344965088
62
2
0
LINE
8
Setbacks
10
5.5829408463
20
12.1344965088
11
5.5833798005
21
12.1347655003
62
2
0
LINE
8
Setbacks
10
5.5833798005
20
12.1347655003
11
5.7428002528
21
12.2159944531
62
2
0
LINE
8
Setbacks
10
5.7428002528
20
12.2159944531
11
5.8335749254
21
12.2895021865
62
2
0
LINE
8
Setbacks
10
5.8335749254
20
12.2895021865
11
5.8339992041
21
12.2897937846
62
2
0
LINE
8
Setbacks
10
5.8339992041
20
12.2897937846
11
5.8344638750
21
12.2900154211
62
2
0
LINE
8
Setbacks
10
5.8344638750
20
12.2900154211
11
5.9506044145
21
12.3345975751
62
2
0
LINE
8
Setbacks
10
5.9506044145
20
12.3345975751
11
6.0472842474
21
12.4128873590
62
2
0
LINE
8
Setbacks
10
6.0472842474
20
12.4128873590
11
6.0477085283
21
12.4131789591
62
2
0
LINE
8
Setbacks
10
6.0477085283
20
12.4131789591
11
6.0481732020
21
12.4134005966
62
2
0
LINE
8
Setbacks
10
6.0481732020
20
12.4134005966
11
6.1572200426
21
12.4552596328
62
2
0
LINE
8
Setbacks
10
6.1572200426
20
12.4552596328
11
6.3072766470
21
12.5527076532
62
2
0
LINE
8
Setbacks
10
6.3072766470
20
12.5527076532
11
6.3077290797
21
12.5529533047
62
2
0
LINE
8
Setbacks
10
6.3077290797
20
12.5529533047
11
6.4210679940
21
12.6034152486
62
2
0
LINE
8
Setbacks
10
6.4210679940
20
12.6034152486
11
6.4215532906
21
12.6035871017
62
2
0
LINE
8
Setbacks
10
6.4215532906
20
12.6035871017
11
6.5943793397
21
12.6498958211
62
2
0
LINE
8
Setbacks
10
6.5943793397
20
12.6498958211
11
6.6984526773
21
12.7029236583
62
2
0
LINE
8
Setbacks
10
6.6984526773
20
12.7029236583
11
6.6989283099
21
12.7031206712
62
2
0
LINE
8
Setbacks
10
6.6989283099
20
12.7031206712
11
6.6994289063
21
12.7032408537
62
2
0
LINE
8
Setbacks
10
6.6994289063
20
12.7032408537
11
6.8223008454
21
12.7227018885
62
2
0
LINE
8
Setbacks
10
6.8223008454
20
12.7227018885
11
6.9331452672
21
12.7791798928
62
2
0
LINE
8
Setbacks
10
6.9331452672
20
12.7791798928
11
6.9336209026
21
12.7793769072
62
2
0
LINE
8
Setbacks
10
6.9336209026
20
12.7793769072
11
6.9341215020
21
12.7794970902
62
2
0
LINE
8
Setbacks
10
6.9341215020
20
12.7794970902
11
7.0494879403
21
12.7977692629
62
2
0
LINE
8
Setbacks
10
7.0494879403
20
12.7977692629
11
7.2165265818
21
12.8618894546
62
2
0
LINE
8
Setbacks
10
7.2165265818
20
12.8618894546
11
7.2170202014
21
12.8620356718
62
2
0
LINE
8
Setbacks
10
7.2170202014
20
12.8620356718
11
7.3383735518
21
12.8878302921
62
2
0
LINE
8
Setbacks
10
7.3383735518
20
12.8878302921
11
7.3388839744
21
12.8878974909
62
2
0
LINE
8
Setbacks
10
7.3388839744
20
12.8878974909
11
7.5175622617
21
12.8972616620
62
2
0
LINE
8
Setbacks
10
7.5175622617
20
12.8972616620
11
7.6303860103
21
12.9274926249
62
2
0
LINE
8
Setbacks
10
7.6303860103
20
12.9274926249
11
7.6308922134
21
12.9275864438
62
2
0
LINE
8
Setbacks
10
7.6308922134
20
12.9275864438
11
7.6314068609
21
12.9275999199
62
2
0
LINE
8
Setbacks
10
7.6314068609
20
12.9275999199
11
7.7556395803
21
12.9210890581
62
2
0
LINE
8
Setbacks
10
7.7556395803
20
12.9210890581
11
7.8758043199
21
12.9532872437
62
2
0
LINE
8
Setbacks
10
7.8758043199
20
12.9532872437
11
7.8763105256
21
12.9533810637
62
2
0
LINE
8
Setbacks
10
7.8763105256
20
12.9533810637
11
7.8768251757
21
12.9533945401
62
2
0
LINE
8
Setbacks
10
7.8768251757
20
12.9533945401
11
7.9934699931
21
12.9472813537
62
2
0
LINE
8
Setbacks
10
7.9934699931
20
12.9472813537
11
8.1701894514
21
12.9752710460
62
2
0
LINE
8
Setbacks
10
8.1701894514
20
12.9752710460
11
8.1707026893
21
12.9753114388
62
2
0
LINE
8
Setbacks
10
8.1707026893
20
12.9753114388
11
8.2947673258
21
12.9753114388
62
2
0
LINE
8
Setbacks
10
8.2947673258
20
12.9753114388
11
8.2952805637
21
12.9752710460
62
2
0
LINE
8
Setbacks
10
8.2952805637
20
12.9752710460
11
8.4720000220
21
12.9472813537
62
2
0
LINE
8
Setbacks
10
8.4720000220
20
12.9472813537
11
8.5886448394
21
12.9533945401
62
2
0
LINE
8
Setbacks
10
8.5886448394
20
12.9533945401
11
8.5891594895
21
12.9533810637
62
2
0
LINE
8
Setbacks
10
8.5891594895
20
12.9533810637
11
8.5896656951
21
12.9532872437
62
2
0
LINE
8
Setbacks
10
8.5896656951
20
12.9532872437
11
8.7098304348
21
12.9210890581
62
2
0
LINE
8
Setbacks
10
8.7098304348
20
12.9210890581
11
8.8340631542
21
12.9275999199
62
2
0
LINE
8
Setbacks
10
8.8340631542
20
12.9275999199
11
8.8345778017
21
12.9275864438
62
2
0
LINE
8
Setbacks
10
8.8345778017
20
12.9275864438
11
8.8350840048
21
12.9274926249
62
2
0
LINE
8
Setbacks
10
8.8350840048
20
12.9274926249
11
8.9479077536
21
12.8972616620
62
2
0
LINE
8
Setbacks
10
8.9479077536
20
12.8972616620
11
9.1265857129
21
12.8878974909
62
2
0
LINE
8
Setbacks
10
9.1265857129
20
12.8878974909
11
9.1270961335
21
12.8878302925
62
2
0
LINE
8
Setbacks
10
9.1270961335
20
12.8878302925
11
9.2484498119
21
12.8620356722
62
2
0
LINE
8
Setbacks
10
9.2484498119
20
12.8620356722
11
9.2489434333
21
12.8618894546
62
2
0
LINE
8
Setbacks
10
9.2489434333
20
12.8618894546
11
9.4159820748
21
12.7977692629
62
2
0
LINE
8
Setbacks
10
9.4159820748
20
12.7977692629
11
9.5313485131
21
12.7794970902
62
2
0
LINE
8
Setbacks
10
9.5313485131
20
12.7794970902
11
9.5318491125
21
12.7793769072
62
2
0
LINE
8
Setbacks
10
9.5318491125
20
12.7793769072
11
9.5323247479
21
12.7791798928
62
2
0
LINE
8
Setbacks
10
9.5323247479
20
12.7791798928
11
9.6431691697
21
12.7227018885
62
2
0
LINE
8
Setbacks
10
9.6431691697
20
12.7227018885
11
9.7660411088
21
12.7032408537
62
2
0
LINE
8
Setbacks
10
9.7660411088
20
12.7032408537
11
9.7665417052
21
12.7031206712
62
2
0
LINE
8
Setbacks
10
9.7665417052
20
12.7031206712
11
9.7670173378
21
12.7029236583
62
2
0
LINE
8
Setbacks
10
9.7670173378
20
12.7029236583
11
9.8710906754
21
12.6498958211
62
2
0
LINE
8
Setbacks
10
9.8710906754
20
12.6498958211
11
10.0439167245
21
12.6035871017
62
2
0
LINE
8
Setbacks
10
10.0439167245
20
12.6035871017
11
10.0444020243
21
12.6034152471
62
2
0
LINE
8
Setbacks
10
10.0444020243
20
12.6034152471
11
10.1577406106
21
12.5529533033
62
2
0
LINE
8
Setbacks
10
10.1577406106
20
12.5529533033
11
10.1581930385
21
12.5527076541
62
2
0
LINE
8
Setbacks
10
10.1581930385
20
12.5527076541
11
10.3082493163
21
12.4552599607
62
2
0
LINE
8
Setbacks
10
10.3082493163
20
12.4552599607
11
10.4172968150
21
12.4134005959
62
2
0
LINE
8
Setbacks
10
10.4172968150
20
12.4134005959
11
10.4177614882
21
12.4131789583
62
2
0
LINE
8
Setbacks
10
10.4177614882
20
12.4131789583
11
10.4181857687
21
12.4128873582
62
2
0
LINE
8
Setbacks
10
10.4181857687
20
12.4128873582
11
10.5148659285
21
12.3345972474
62
2
0
LINE
8
Setbacks
10
10.5148659285
20
12.3345972474
11
10.6310058102
21
12.2900154218
62
2
0
LINE
8
Setbacks
10
10.6310058102
20
12.2900154218
11
10.6314704815
21
12.2897937855
62
2
0
LINE
8
Setbacks
10
10.6314704815
20
12.2897937855
11
10.6318947605
21
12.2895021874
62
2
0
LINE
8
Setbacks
10
10.6318947605
20
12.2895021874
11
10.7226691055
21
12.2159947815
62
2
0
LINE
8
Setbacks
10
10.7226691055
20
12.2159947815
11
10.8820902145
21
12.1347655003
62
2
0
LINE
8
Setbacks
10
10.8820902145
20
12.1347655003
11
10.8825291688
21
12.1344965088
62
2
0
LINE
8
Setbacks
10
10.8825291688
20
12.1344965088
11
10.9828995788
21
12.0615732781
62
2
0
LINE
8
Setbacks
10
10.9828995788
20
12.0615732781
11
10.9832910561
21
12.0612389253
62
2
0
LINE
8
Setbacks
10
10.9832910561
20
12.0612389253
11
11.1098080548
21
11.9347219266
62
2
0
LINE
8
Setbacks
10
11.1098080548
20
11.9347219266
11
11.2077691866
21
11.8711052708
62
2
0
LINE
8
Setbacks
10
11.2077691866
20
11.8711052708
11
11.2081776240
21
11.8707918659
62
2
0
LINE
8
Setbacks
10
11.2081776240
20
11.8707918659
11
11.2085320055
21
11.8704184257
62
2
0
LINE
8
Setbacks
10
11.2085320055
20
11.8704184257
11
11.2868217892
21
11.7737385933
62
2
0
LINE
8
Setbacks
10
11.2868217892
20
11.7737385933
11
11.3911550188
21
11.7059838747
62
2
0
LINE
8
Setbacks
10
11.3911550188
20
11.7059838747
11
11.3915634550
21
11.7056704710
62
2
0
LINE
8
Setbacks
10
11.3915634550
20
11.7056704710
11
11.3919178357
21
11.7052970324
62
2
0
LINE
8
Setbacks
10
11.3919178357
20
11.7052970324
11
11.4654258967
21
11.6145223592
62
2
0
LINE
8
Setbacks
10
11.4654258967
20
11.6145223592
11
11.6044741935
21
11.5019230894
62
2
0
LINE
8
Setbacks
10
11.6044741935
20
11.5019230894
11
11.6048476336
21
11.5015687073
62
2
0
LINE
8
Setbacks
10
11.6048476336
20
11.5015687073
11
11.6878630562
21
11.4093705416
62
2
0
LINE
8
Setbacks
10
11.6878630562
20
11.4093705416
11
11.6881764585
21
11.4089621074
62
2
0
LINE
8
Setbacks
10
11.6881764585
20
11.4089621074
11
11.7856241524
21
11.2589058290
62
2
0
LINE
8
Setbacks
10
11.7856241524
20
11.2589058290
11
11.8682182498
21
11.1763117316
62
2
0
LINE
8
Setbacks
10
11.8682182498
20
11.1763117316
11
11.8685526024
21
11.1759202548
62
2
0
LINE
8
Setbacks
10
11.8685526024
20
11.1759202548
11
11.8688215977
21
11.1754812932
62
2
0
LINE
8
Setbacks
10
11.8688215977
20
11.1754812932
11
11.9252992714
21
11.0646372057
62
2
0
LINE
8
Setbacks
10
11.9252992714
20
11.0646372057
11
12.0132661504
21
10.9766706534
62
2
0
LINE
8
Setbacks
10
12.0132661504
20
10.9766706534
11
12.0136005030
21
10.9762791781
62
2
0
LINE
8
Setbacks
10
12.0136005030
20
10.9762791781
11
12.0138694988
21
10.9758402181
62
2
0
LINE
8
Setbacks
10
12.0138694988
20
10.9758402181
11
12.0668983195
21
10.8717655679
62
2
0
LINE
8
Setbacks
10
12.0668983195
20
10.8717655679
11
12.1794969335
21
10.7327175996
62
2
0
LINE
8
Setbacks
10
12.1794969335
20
10.7327175996
11
12.1797885297
21
10.7322933243
62
2
0
LINE
8
Setbacks
10
12.1797885297
20
10.7322933243
11
12.2418210120
21
10.6248500794
62
2
0
LINE
8
Setbacks
10
12.2418210120
20
10.6248500794
11
12.2420426512
21
10.6243854032
62
2
0
LINE
8
Setbacks
10
12.2420426512
20
10.6243854032
11
12.3061625146
21
10.4573470914
62
2
0
LINE
8
Setbacks
10
12.3061625146
20
10.4573470914
11
12.3697791685
21
10.3593862896
62
2
0
LINE
8
Setbacks
10
12.3697791685
20
10.3593862896
11
12.3700248229
21
10.3589338513
62
2
0
LINE
8
Setbacks
10
12.3700248229
20
10.3589338513
11
12.3701966755
21
10.3584485543
62
2
0
LINE
8
Setbacks
10
12.3701966755
20
10.3584485543
11
12.4023945343
21
10.2382841415
62
2
0
LINE
8
Setbacks
10
12.4023945343
20
10.2382841415
11
12.4701495802
21
10.1339505844
62
2
0
LINE
8
Setbacks
10
12.4701495802
20
10.1339505844
11
12.4703952340
21
10.1334981461
62
2
0
LINE
8
Setbacks
10
12.4703952340
20
10.1334981461
11
12.4705670861
21
10.1330128492
62
2
0
LINE
8
Setbacks
10
12.4705670861
20
10.1330128492
11
12.5007983760
21
10.0201874653
62
2
0
LINE
8
Setbacks
10
12.5007983760
20
10.0201874653
11
12.5820273256
21
9.8607670192
62
2
0
LINE
8
Setbacks
10
12.5820273256
20
9.8607670192
11
12.5822243399
21
9.8602913861
62
2
0
LINE
8
Setbacks
10
12.5822243399
20
9.8602913861
11
12.6205625957
21
9.7422989283
62
2
0
LINE
8
Setbacks
10
12.6205625957
20
9.7422989283
11
12.6206827802
21
9.7417983256
62
2
0
LINE
8
Setbacks
10
12.6206827802
20
9.7417983256
11
12.6486724730
21
9.5650785370
62
2
0
LINE
8
Setbacks
10
12.6486724730
20
9.5650785370
11
12.6905315098
21
9.4560320216
62
2
0
LINE
8
Setbacks
10
12.6905315098
20
9.4560320216
11
12.6906777273
21
9.4555384000
62
2
0
LINE
8
Setbacks
10
12.6906777273
20
9.4555384000
11
12.6907449254
21
9.4550279822
62
2
0
LINE
8
Setbacks
10
12.6907449254
20
9.4550279822
11
12.6972557876
21
9.3307952564
62
2
0
LINE
8
Setbacks
10
12.6972557876
20
9.3307952564
11
12.7418379432
21
9.2146543858
62
2
0
LINE
8
Setbacks
10
12.7418379432
20
9.2146543858
11
12.7419841598
21
9.2141607660
62
2
0
LINE
8
Setbacks
10
12.7419841598
20
9.2141607660
11
12.7420513575
21
9.2136503502
62
2
0
LINE
8
Setbacks
10
12.7420513575
20
9.2136503502
11
12.7481645441
21
9.0970058563
62
2
0
LINE
8
Setbacks
10
12.7481645441
20
9.0970058563
11
12.7944729357
21
8.9241801360
62
2
0
LINE
8
Setbacks
10
12.7944729357
20
8.9241801360
11
12.7945667546
21
8.9236739320
62
2
0
LINE
8
Setbacks
10
12.7945667546
20
8.9236739320
11
12.8075349308
21
8.8002887575
62
2
0
LINE
8
Setbacks
10
12.8075349308
20
8.8002887575
11
12.8075484069
21
8.7997741115
62
2
0
LINE
8
Setbacks
10
12.8075484069
20
8.7997741115
11
12.7981842362
21
8.6210974692
62
2
0
LINE
8
Setbacks
10
12.7981842362
20
8.6210974692
11
12.8164567361
21
8.5057303762
62
2
0
LINE
8
Setbacks
10
12.8164567361
20
8.5057303762
11
12.8164971293
21
8.5052171373
62
2
0
LINE
8
Setbacks
10
12.8164971293
20
8.5052171373
11
12.8164567366
21
8.5047038984
62
2
0
LINE
8
Setbacks
10
12.8164567366
20
8.5047038984
11
12.7969957020
21
8.3818319611
62
2
0
LINE
8
Setbacks
10
12.7969957020
20
8.3818319611
11
12.8164567366
21
8.2589600238
62
2
0
LINE
8
Setbacks
10
12.8164567366
20
8.2589600238
11
12.8164971293
21
8.2584467849
62
2
0
LINE
8
Setbacks
10
12.8164971293
20
8.2584467849
11
12.8164567361
21
8.2579335461
62
2
0
LINE
8
Setbacks
10
12.8164567361
20
8.2579335461
11
12.7981842362
21
8.1425664531
62
2
0
LINE
8
Setbacks
10
12.7981842362
20
8.1425664531
11
12.8075484069
21
7.9638898108
62
2
0
LINE
8
Setbacks
10
12.8075484069
20
7.9638898108
11
12.8075349308
21
7.9633751648
62
2
0
LINE
8
Setbacks
10
12.8075349308
20
7.9633751648
11
12.7945667546
21
7.8399899902
62
2
0
LINE
8
Setbacks
10
12.7945667546
20
7.8399899902
11
12.7944729357
21
7.8394837862
62
2
0
LINE
8
Setbacks
10
12.7944729357
20
7.8394837862
11
12.7481645441
21
7.6666580660
62
2
0
LINE
8
Setbacks
10
12.7481645441
20
7.6666580660
11
12.7420513575
21
7.5500135721
62
2
0
LINE
8
Setbacks
10
12.7420513575
20
7.5500135721
11
12.7419841598
21
7.5495031563
62
2
0
LINE
8
Setbacks
10
12.7419841598
20
7.5495031563
11
12.7418379432
21
7.5490095365
62
2
0
LINE
8
Setbacks
10
12.7418379432
20
7.5490095365
11
12.6972557876
21
7.4328686658
62
2
0
CIRCLE
8
Obstructions
10
8.2327349740
20
8.3818320041
40
0.5934494403
62
252
0
CIRCLE
8
Obstructions
10
11.3316387465
20
-21.1791912004
40
0.5934494403
62
252
0
CIRCLE
8
Obstructions
10
-1.7238742373
20
-22.5670326661
40
0.5934494403
62
252
0
LINE
8
Inverters
10
9.0344403658
20
-30.1704617628
11
11.4950703658
21
-30.1704617628
0
LINE
8
Inverters
10
11.4950703658
20
-30.1704617628
11
11.4950703658
21
-27.7098317628
0
LINE
8
Inverters
10
11.4950703658
20
-27.7098317628
11
9.0344403658
21
-27.7098317628
0
LINE
8
Inverters
10
9.0344403658
20
-27.7098317628
11
9.0344403658
21
-30.1704617628
0
LINE
8
Inverters
10
9.0344403658
20
-30.1704617628
11
11.4950703658
21
-27.7098317628
0
TEXT
8
Inverters
100
AcDbText
10
9.1984823658
20
-28.6284669628
1
DC
7
NewTextStyle_4
40
0.7545932000000003
50
0
0
TEXT
8
Inverters
100
AcDbText
10
10.0350965658
20
-30.0064197628
1
AC
7
NewTextStyle_4
40
0.7545932000000003
50
0
0
LINE
8
Strings
10
44.6085163074
20
13.2684948490
11
38.4019876463
21
13.3013647786
62
11
0
LINE
8
Strings
10
38.4019876463
20
13.3013647786
11
32.1983660225
21
13.3378869202
62
11
0
LINE
8
Strings
10
32.1983660225
20
13.3378869202
11
25.9918373614
21
13.3707568498
62
11
0
LINE
8
Strings
10
25.9918373614
20
13.3707568498
11
19.7853086962
21
13.4072789940
62
11
0
LINE
8
Strings
10
19.7853086962
20
13.4072789940
11
13.5787800351
21
13.4401489236
62
11
0
LINE
8
Strings
10
13.5787800351
20
13.4401489236
11
7.3722513740
21
13.4730188531
62
11
0
LINE
8
Strings
10
7.3722513740
20
13.4730188531
11
1.1657227129
21
13.5095409974
62
11
0
LINE
8
Strings
10
1.1657227129
20
13.5095409974
11
1.1395593601
21
8.6338347966
62
11
0
LINE
8
Strings
10
1.1395593601
20
8.6338347966
11
13.5497096450
21
8.5644427254
62
11
0
LINE
8
Strings
10
13.5497096450
20
8.5644427254
11
19.7562383061
21
8.5279205811
62
11
0
LINE
8
Strings
10
19.7562383061
20
8.5279205811
11
25.9627669672
21
8.4950506516
62
11
0
LINE
8
Strings
10
25.9627669672
20
8.4950506516
11
32.1692956283
21
8.4621807220
62
11
0
LINE
8
Strings
10
32.1692956283
20
8.4621807220
11
38.3758242935
21
8.4256585778
62
11
0
LINE
8
Strings
10
38.3758242935
20
8.4256585778
11
32.1431322755
21
3.5828223065
62
11
0
LINE
8
Strings
10
32.1431322755
20
3.5828223065
11
25.9366036144
21
3.6193444507
62
11
0
LINE
8
Strings
10
25.9366036144
20
3.6193444507
11
19.7300749533
21
3.6522143803
62
11
0
LINE
8
Strings
10
19.7300749533
20
3.6522143803
11
13.5235462922
21
3.6887365246
62
11
0
LINE
8
Strings
10
7.3170176311
20
3.7216064541
11
1.1104889659
21
3.7544763837
62
11
0
LINE
8
Strings
10
1.1104889659
20
3.7544763837
11
1.0843256131
21
-1.1212298171
62
11
0
LINE
8
Strings
10
1.0843256131
20
-1.1212298171
11
7.2908542783
21
-1.1540997441
62
11
0
LINE
8
Strings
10
7.2908542783
20
-1.1540997441
11
13.4973829394
21
-1.1906218883
62
11
0
LINE
8
Strings
10
13.4973829394
20
-1.1906218883
11
19.7039116005
21
-1.2234918179
62
11
0
LINE
8
Strings
10
19.7039116005
20
-1.2234918179
11
25.9104402616
21
-1.2563617475
62
11
0
LINE
8
Strings
10
25.9104402616
20
-1.2563617475
11
32.1169689227
21
-1.2928838917
62
11
0
LINE
8
Strings
10
32.1169689227
20
-1.2928838917
11
32.0878985326
21
-6.1685900925
62
11
0
LINE
8
Strings
10
32.0878985326
20
-6.1685900925
11
25.8813698715
21
-6.1357201630
62
11
0
LINE
8
Strings
10
25.8813698715
20
-6.1357201630
11
19.6777482478
21
-6.0991980187
62
11
0
LINE
8
Strings
10
19.6777482478
20
-6.0991980187
11
13.4712195867
21
-6.0663280892
62
11
0
LINE
8
Strings
10
13.4712195867
20
-6.0663280892
11
7.2646909256
21
-6.0298059449
62
11
0
LINE
8
Strings
10
7.2646909256
20
-6.0298059449
11
1.0581622603
21
-5.9969360154
62
11
0
LINE
8
Strings
10
1.0581622603
20
-5.9969360154
11
1.0319989076
21
-10.8726422162
62
11
0
LINE
8
Strings
10
1.0319989076
20
-10.8726422162
11
7.2356205313
21
-10.9091643578
62
11
0
LINE
8
Strings
10
7.2356205313
20
-10.9091643578
11
13.4421491924
21
-10.9420342874
62
11
0
LINE
8
Strings
10
13.4421491924
20
-10.9420342874
11
19.6486778576
21
-10.9749042169
62
11
0
LINE
8
Strings
10
25.8552065187
20
-11.0114263612
11
32.0617351798
21
-11.0442962907
62
11
0
LINE
8
Strings
10
32.0617351798
20
-11.0442962907
11
38.2682638409
21
-11.0808184350
62
11
0
LINE
8
Strings
10
38.2682638409
20
-11.0808184350
11
44.4486291493
21
-15.9893945628
62
11
0
LINE
8
Strings
10
44.4486291493
20
-15.9893945628
11
38.2421004882
21
-15.9565246358
62
11
0
LINE
8
Strings
10
38.2421004882
20
-15.9565246358
11
32.0355718271
21
-15.9200024915
62
11
0
LINE
8
Strings
10
32.0355718271
20
-15.9200024915
11
25.8290431660
21
-15.8871325620
62
11
0
LINE
8
Strings
10
25.8290431660
20
-15.8871325620
11
19.6225145049
21
-15.8542626324
62
11
0
LINE
8
Strings
10
19.6225145049
20
-15.8542626324
11
13.4159858396
21
-15.8177404882
62
11
0
LINE
8
Strings
10
13.4159858396
20
-15.8177404882
11
7.2094571785
21
-15.7848705586
62
11
0
LINE
8
Strings
10
7.2094571785
20
-15.7848705586
11
1.0029285174
21
-15.7483484144
62
11
0
LINE
8
Strings
10
1.0029285174
20
-15.7483484144
11
-9.6949756878
21
7.2934721192
62
11
0
LINE
8
Strings
10
-9.6949756878
20
7.2934721192
11
-9.7240460779
21
3.8238684575
62
11
0
LINE
8
Strings
10
-9.7240460779
20
3.8238684575
11
-9.7531164722
21
0.3542647932
62
11
0
LINE
8
Strings
10
-9.7531164722
20
0.3542647932
11
-9.7821868623
21
-3.1153388685
62
11
0
LINE
8
Strings
10
-9.7821868623
20
-3.1153388685
11
-9.8112572524
21
-6.5885947448
62
11
0
LINE
8
Strings
10
-9.8112572524
20
-6.5885947448
11
-9.9159106635
21
-16.8476649434
62
11
0
LINE
8
Strings
10
-9.9159106635
20
-16.8476649434
11
-9.9449810578
21
-20.3209208198
62
11
0
LINE
8
Connections
10
13.5235462922
20
3.6887365246
11
13.5208234996
21
3.1966180568
62
91
0
LINE
8
Connections
10
13.5208234996
20
3.1966180568
11
13.0287050319
21
3.1993408495
62
91
0
LINE
8
Connections
10
13.0287050319
20
3.1993408495
11
10.9347743261
21
3.2109261474
62
91
0
LINE
8
Connections
10
10.9347743261
20
3.2109261474
11
10.7595966261
21
-28.4507510877
62
91
0
LINE
8
Connections
10
10.7595966261
20
-28.4507510877
11
10.7568738335
21
-28.9428695554
62
91
0
LINE
8
Connections
10
10.7568738335
20
-28.9428695554
11
10.2647553658
21
-28.9401467628
62
91
0
LINE
8
Connections
10
19.6486778576
20
-10.9749042169
11
19.6459550650
21
-11.4670226847
62
91
0
LINE
8
Connections
10
19.6459550650
20
-11.4670226847
11
19.1538365973
21
-11.4642998920
62
91
0
LINE
8
Connections
10
19.1538365973
20
-11.4642998920
11
10.8538333270
21
-11.4183776412
62
91
0
LINE
8
Connections
10
10.8538333270
20
-11.4183776412
11
10.7595966261
21
-28.4507510877
62
91
0
LINE
8
Connections
10
10.7595966261
20
-28.4507510877
11
10.7568738335
21
-28.9428695554
62
91
0
LINE
8
Connections
10
10.7568738335
20
-28.9428695554
11
10.2647553658
21
-28.9401467628
62
91
0
LINE
8
Connections
10
-9.9449810578
20
-20.3209208198
11
-9.4528726717
21
-20.3250844953
62
91
0
LINE
8
Connections
10
-9.4528726717
20
-20.3250844953
11
-9.4570363472
21
-20.8171928815
62
91
0
LINE
8
Connections
10
-9.4570363472
20
-20.8171928815
11
-9.5201834653
21
-28.2806049315
62
91
0
LINE
8
Connections
10
-9.5201834653
20
-28.2806049315
11
9.7768106552
21
-28.4438747011
62
91
0
LINE
8
Connections
10
9.7768106552
20
-28.4438747011
11
10.2689190413
21
-28.4480383767
62
91
0
LINE
8
Connections
10
10.2689190413
20
-28.4480383767
11
10.2647553658
21
-28.9401467628
62
91
0
ENDSEC
0
EOF