999
Design created by Aurora
0
SECTION
2
HEADER
9
$ACADVER
1
AC1009
9
$INSUNITS
70
2
0
ENDSEC
0
SECTION
2
TABLES
0
TABLE
2
LTYPE
100
AcDbLinetypeTableRecord
2
LTYPE
0
LTYPE
2
DASHED
70
0
3
dashed line
72
65
73
2
40
4.0
49
2.0
49
-2.0
0
ENDTAB
0
TABLE
2
LAYER
70
6
0
LAYER
100
AcDbSymbolTable
100
AcDbLayerTable
2
Inverters
70
0
62
7
6
CONTINUOUS
0
LAYER
100
AcDbSymbolTable
100
AcDbLayerTable
2
Setbacks
70
0
62
7
6
CONTINUOUS
0
LAYER
100
AcDbSymbolTable
100
AcDbLayerTable
2
Connections
70
0
62
7
6
CONTINUOUS
0
LAYER
100
AcDbSymbolTable
100
AcDbLayerTable
2
Strings
70
0
62
7
6
CONTINUOUS
0
LAYER
100
AcDbSymbolTable
100
AcDbLayerTable
2
Modules
70
0
62
7
6
CONTINUOUS
0
LAYER
100
AcDbSymbolTable
100
AcDbLayerTable
2
Buildings
70
0
62
7
6
CONTINUOUS
0
ENDTAB
0
ENDSEC
0
SECTION
2
ENTITIES
0
LINE
8
Modules
10
-6.9279624139
20
34.3283998751
11
-13.0822958270
21
34.2665403637
62
254
0
LINE
8
Modules
10
-13.0822958270
20
34.2665403637
11
-13.0449348280
21
30.5495364036
62
254
0
LINE
8
Modules
10
-13.0449348280
20
30.5495364036
11
-6.8906014150
21
30.6113959151
62
254
0
LINE
8
Modules
10
-6.8906014150
20
30.6113959151
11
-6.9279624139
21
34.3283998751
62
254
0
LINE
8
Modules
10
-10.4006548169
20
32.8449305136
11
-10.3924109952
21
32.0247619434
62
254
0
LINE
8
Modules
10
-10.3924109952
20
32.0247619434
11
-9.5722424251
21
32.0330057651
62
254
0
LINE
8
Modules
10
-9.5722424251
20
32.0330057651
11
-9.5804862467
21
32.8531743353
62
254
0
LINE
8
Modules
10
-9.5804862467
20
32.8531743353
11
-10.4006548169
21
32.8449305136
62
254
0
LINE
8
Modules
10
-10.4006548169
20
32.8449305136
11
-9.5722424251
21
32.0330057651
62
254
0
TEXT
8
Modules
100
AcDbText
10
-9.8916556741
20
32.8008315688
1
DC
7
NewTextStyle_4
40
0.2624672000000003
50
-89.42411804197069
0
TEXT
8
Modules
100
AcDbText
10
-10.3481471740
20
32.5173577148
1
DC
7
NewTextStyle_4
40
0.2624672000000003
50
-89.42411804197069
0
LINE
8
Modules
10
-6.8900687083
20
30.5702712768
11
-13.0444021213
21
30.5084117653
62
254
0
LINE
8
Modules
10
-13.0444021213
20
30.5084117653
11
-13.0070411223
21
26.7914078053
62
254
0
LINE
8
Modules
10
-13.0070411223
20
26.7914078053
11
-6.8527077093
21
26.8532673167
62
254
0
LINE
8
Modules
10
-6.8527077093
20
26.8532673167
11
-6.8900687083
21
30.5702712768
62
254
0
LINE
8
Modules
10
-10.3627611112
20
29.0868019153
11
-10.3545172895
21
28.2666333451
62
254
0
LINE
8
Modules
10
-10.3545172895
20
28.2666333451
11
-9.5343487194
21
28.2748771667
62
254
0
LINE
8
Modules
10
-9.5343487194
20
28.2748771667
11
-9.5425925410
21
29.0950457369
62
254
0
LINE
8
Modules
10
-9.5425925410
20
29.0950457369
11
-10.3627611112
21
29.0868019153
62
254
0
LINE
8
Modules
10
-10.3627611112
20
29.0868019153
11
-9.5343487194
21
28.2748771667
62
254
0
TEXT
8
Modules
100
AcDbText
10
-9.8537619684
20
29.0427029705
1
DC
7
NewTextStyle_4
40
0.2624672000000003
50
-89.42411804197069
0
TEXT
8
Modules
100
AcDbText
10
-10.3102534683
20
28.7592291165
1
DC
7
NewTextStyle_4
40
0.2624672000000003
50
-89.42411804197069
0
LINE
8
Modules
10
-6.8550899052
20
26.8121426784
11
-13.0094233183
21
26.7502831669
62
254
0
LINE
8
Modules
10
-13.0094233183
20
26.7502831669
11
-12.9720623193
21
23.0332792069
62
254
0
LINE
8
Modules
10
-12.9720623193
20
23.0332792069
11
-6.8177289063
21
23.0951387184
62
254
0
LINE
8
Modules
10
-6.8177289063
20
23.0951387184
11
-6.8550899052
21
26.8121426784
62
254
0
LINE
8
Modules
10
-10.3277823082
20
25.3286733169
11
-10.3195384865
21
24.5085047467
62
254
0
LINE
8
Modules
10
-10.3195384865
20
24.5085047467
11
-9.4993699163
21
24.5167485684
62
254
0
LINE
8
Modules
10
-9.4993699163
20
24.5167485684
11
-9.5076137380
21
25.3369171386
62
254
0
LINE
8
Modules
10
-9.5076137380
20
25.3369171386
11
-10.3277823082
21
25.3286733169
62
254
0
LINE
8
Modules
10
-10.3277823082
20
25.3286733169
11
-9.4993699163
21
24.5167485684
62
254
0
TEXT
8
Modules
100
AcDbText
10
-9.8187831654
20
25.2845743721
1
DC
7
NewTextStyle_4
40
0.2624672000000003
50
-89.42411804197069
0
TEXT
8
Modules
100
AcDbText
10
-10.2752746653
20
25.0011005181
1
DC
7
NewTextStyle_4
40
0.2624672000000003
50
-89.42411804197069
0
LINE
8
Modules
10
-6.8171961995
20
23.0540140774
11
-12.9715296126
21
22.9921545660
62
254
0
LINE
8
Modules
10
-12.9715296126
20
22.9921545660
11
-12.9341686136
21
19.2751506059
62
254
0
LINE
8
Modules
10
-12.9341686136
20
19.2751506059
11
-6.7798352006
21
19.3370101174
62
254
0
LINE
8
Modules
10
-6.7798352006
20
19.3370101174
11
-6.8171961995
21
23.0540140774
62
254
0
LINE
8
Modules
10
-10.2898886025
20
21.5705447160
11
-10.2816447808
21
20.7503761458
62
254
0
LINE
8
Modules
10
-10.2816447808
20
20.7503761458
11
-9.4614762107
21
20.7586199674
62
254
0
LINE
8
Modules
10
-9.4614762107
20
20.7586199674
11
-9.4697200323
21
21.5787885376
62
254
0
LINE
8
Modules
10
-9.4697200323
20
21.5787885376
11
-10.2898886025
21
21.5705447160
62
254
0
LINE
8
Modules
10
-10.2898886025
20
21.5705447160
11
-9.4614762107
21
20.7586199674
62
254
0
TEXT
8
Modules
100
AcDbText
10
-9.7808894597
20
21.5264457712
1
DC
7
NewTextStyle_4
40
0.2624672000000003
50
-89.42411804197069
0
TEXT
8
Modules
100
AcDbText
10
-10.2373809596
20
21.2429719172
1
DC
7
NewTextStyle_4
40
0.2624672000000003
50
-89.42411804197069
0
LINE
8
Modules
10
-6.7793024938
20
19.2958854791
11
-12.9336359069
21
19.2340259676
62
254
0
LINE
8
Modules
10
-12.9336359069
20
19.2340259676
11
-12.8962749079
21
15.5170220076
62
254
0
LINE
8
Modules
10
-12.8962749079
20
15.5170220076
11
-6.7419414949
21
15.5788815190
62
254
0
LINE
8
Modules
10
-6.7419414949
20
15.5788815190
11
-6.7793024938
21
19.2958854791
62
254
0
LINE
8
Modules
10
-10.2519948968
20
17.8124161176
11
-10.2437510751
21
16.9922475474
62
254
0
LINE
8
Modules
10
-10.2437510751
20
16.9922475474
11
-9.4235825050
21
17.0004913691
62
254
0
LINE
8
Modules
10
-9.4235825050
20
17.0004913691
11
-9.4318263266
21
17.8206599393
62
254
0
LINE
8
Modules
10
-9.4318263266
20
17.8206599393
11
-10.2519948968
21
17.8124161176
62
254
0
LINE
8
Modules
10
-10.2519948968
20
17.8124161176
11
-9.4235825050
21
17.0004913691
62
254
0
TEXT
8
Modules
100
AcDbText
10
-9.7429957540
20
17.7683171728
1
DC
7
NewTextStyle_4
40
0.2624672000000003
50
-89.42411804197069
0
TEXT
8
Modules
100
AcDbText
10
-10.1994872539
20
17.4848433188
1
DC
7
NewTextStyle_4
40
0.2624672000000003
50
-89.42411804197069
0
LINE
8
Modules
10
-6.7414087882
20
15.5377568807
11
-12.8957422012
21
15.4758973693
62
254
0
LINE
8
Modules
10
-12.8957422012
20
15.4758973693
11
-12.8583812022
21
11.7588934092
62
254
0
LINE
8
Modules
10
-12.8583812022
20
11.7588934092
11
-6.7040477892
21
11.8207529207
62
254
0
LINE
8
Modules
10
-6.7040477892
20
11.8207529207
11
-6.7414087882
21
15.5377568807
62
254
0
LINE
8
Modules
10
-10.2141011911
20
14.0542875192
11
-10.2058573695
21
13.2341189491
62
254
0
LINE
8
Modules
10
-10.2058573695
20
13.2341189491
11
-9.3856887993
21
13.2423627707
62
254
0
LINE
8
Modules
10
-9.3856887993
20
13.2423627707
11
-9.3939326209
21
14.0625313409
62
254
0
LINE
8
Modules
10
-9.3939326209
20
14.0625313409
11
-10.2141011911
21
14.0542875192
62
254
0
LINE
8
Modules
10
-10.2141011911
20
14.0542875192
11
-9.3856887993
21
13.2423627707
62
254
0
TEXT
8
Modules
100
AcDbText
10
-9.7051020483
20
14.0101885745
1
DC
7
NewTextStyle_4
40
0.2624672000000003
50
-89.42411804197069
0
TEXT
8
Modules
100
AcDbText
10
-10.1615935482
20
13.7267147205
1
DC
7
NewTextStyle_4
40
0.2624672000000003
50
-89.42411804197069
0
LINE
8
Modules
10
-6.7035150866
20
11.7759760677
11
-12.8578484996
21
11.7141165562
62
254
0
LINE
8
Modules
10
-12.8578484996
20
11.7141165562
11
-12.8204875007
21
7.9971125962
62
254
0
LINE
8
Modules
10
-12.8204875007
20
7.9971125962
11
-6.6661540877
21
8.0589721077
62
254
0
LINE
8
Modules
10
-6.6661540877
20
8.0589721077
11
-6.7035150866
21
11.7759760677
62
254
0
LINE
8
Modules
10
-10.1762074896
20
10.2925067062
11
-10.1679636679
21
9.4723381360
62
254
0
LINE
8
Modules
10
-10.1679636679
20
9.4723381360
11
-9.3477950977
21
9.4805819577
62
254
0
LINE
8
Modules
10
-9.3477950977
20
9.4805819577
11
-9.3560389194
21
10.3007505279
62
254
0
LINE
8
Modules
10
-9.3560389194
20
10.3007505279
11
-10.1762074896
21
10.2925067062
62
254
0
LINE
8
Modules
10
-10.1762074896
20
10.2925067062
11
-9.3477950977
21
9.4805819577
62
254
0
TEXT
8
Modules
100
AcDbText
10
-9.6672083468
20
10.2484077614
1
DC
7
NewTextStyle_4
40
0.2624672000000003
50
-89.42411804197069
0
TEXT
8
Modules
100
AcDbText
10
-10.1236998467
20
9.9649339074
1
DC
7
NewTextStyle_4
40
0.2624672000000003
50
-89.42411804197069
0
LINE
8
Modules
10
-6.6656213809
20
8.0178474693
11
-12.8199547939
21
7.9559879579
62
254
0
LINE
8
Modules
10
-12.8199547939
20
7.9559879579
11
-12.7825937950
21
4.2389839978
62
254
0
LINE
8
Modules
10
-12.7825937950
20
4.2389839978
11
-6.6282603820
21
4.3008435093
62
254
0
LINE
8
Modules
10
-6.6282603820
20
4.3008435093
11
-6.6656213809
21
8.0178474693
62
254
0
LINE
8
Modules
10
-10.1383137839
20
6.5343781079
11
-10.1300699622
21
5.7142095377
62
254
0
LINE
8
Modules
10
-10.1300699622
20
5.7142095377
11
-9.3099013920
21
5.7224533593
62
254
0
LINE
8
Modules
10
-9.3099013920
20
5.7224533593
11
-9.3181452137
21
6.5426219295
62
254
0
LINE
8
Modules
10
-9.3181452137
20
6.5426219295
11
-10.1383137839
21
6.5343781079
62
254
0
LINE
8
Modules
10
-10.1383137839
20
6.5343781079
11
-9.3099013920
21
5.7224533593
62
254
0
TEXT
8
Modules
100
AcDbText
10
-9.6293146411
20
6.4902791631
1
DC
7
NewTextStyle_4
40
0.2624672000000003
50
-89.42411804197069
0
TEXT
8
Modules
100
AcDbText
10
-10.0858061410
20
6.2068053091
1
DC
7
NewTextStyle_4
40
0.2624672000000003
50
-89.42411804197069
0
LINE
8
Modules
10
-6.3478972428
20
-23.5263281451
11
-12.5022306558
21
-23.5881876566
62
254
0
LINE
8
Modules
10
-12.5022306558
20
-23.5881876566
11
-12.4648696568
21
-27.3051916166
62
254
0
LINE
8
Modules
10
-12.4648696568
20
-27.3051916166
11
-6.3105362438
21
-27.2433321052
62
254
0
LINE
8
Modules
10
-6.3105362438
20
-27.2433321052
11
-6.3478972428
21
-23.5263281451
62
254
0
LINE
8
Modules
10
-9.8205896457
20
-25.0097975066
11
-9.8123458241
21
-25.8299660768
62
254
0
LINE
8
Modules
10
-9.8123458241
20
-25.8299660768
11
-8.9921772539
21
-25.8217222551
62
254
0
LINE
8
Modules
10
-8.9921772539
20
-25.8217222551
11
-9.0004210756
21
-25.0015536849
62
254
0
LINE
8
Modules
10
-9.0004210756
20
-25.0015536849
11
-9.8205896457
21
-25.0097975066
62
254
0
LINE
8
Modules
10
-9.8205896457
20
-25.0097975066
11
-8.9921772539
21
-25.8217222551
62
254
0
TEXT
8
Modules
100
AcDbText
10
-9.3115905029
20
-25.0538964514
1
DC
7
NewTextStyle_4
40
0.2624672000000003
50
-89.42411804197069
0
TEXT
8
Modules
100
AcDbText
10
-9.7680820029
20
-25.3373703054
1
DC
7
NewTextStyle_4
40
0.2624672000000003
50
-89.42411804197069
0
LINE
8
Modules
10
-6.3100035371
20
-27.2844567461
11
-12.4643369501
21
-27.3463162575
62
254
0
LINE
8
Modules
10
-12.4643369501
20
-27.3463162575
11
-12.4269759512
21
-31.0633202176
62
254
0
LINE
8
Modules
10
-12.4269759512
20
-31.0633202176
11
-6.2726425381
21
-31.0014607061
62
254
0
LINE
8
Modules
10
-6.2726425381
20
-31.0014607061
11
-6.3100035371
21
-27.2844567461
62
254
0
LINE
8
Modules
10
-9.7826959400
20
-28.7679261076
11
-9.7744521184
21
-29.5880946777
62
254
0
LINE
8
Modules
10
-9.7744521184
20
-29.5880946777
11
-8.9542835482
21
-29.5798508561
62
254
0
LINE
8
Modules
10
-8.9542835482
20
-29.5798508561
11
-8.9625273699
21
-28.7596822859
62
254
0
LINE
8
Modules
10
-8.9625273699
20
-28.7596822859
11
-9.7826959400
21
-28.7679261076
62
254
0
LINE
8
Modules
10
-9.7826959400
20
-28.7679261076
11
-8.9542835482
21
-29.5798508561
62
254
0
TEXT
8
Modules
100
AcDbText
10
-9.2736967972
20
-28.8120250523
1
DC
7
NewTextStyle_4
40
0.2624672000000003
50
-89.42411804197069
0
TEXT
8
Modules
100
AcDbText
10
-9.7301882972
20
-29.0954989063
1
DC
7
NewTextStyle_4
40
0.2624672000000003
50
-89.42411804197069
0
LINE
8
Modules
10
-6.2721098314
20
-31.0425853444
11
-12.4264432444
21
-31.1044448559
62
254
0
LINE
8
Modules
10
-12.4264432444
20
-31.1044448559
11
-12.3890822455
21
-34.8214488159
62
254
0
LINE
8
Modules
10
-12.3890822455
20
-34.8214488159
11
-6.2347488324
21
-34.7595893045
62
254
0
LINE
8
Modules
10
-6.2347488324
20
-34.7595893045
11
-6.2721098314
21
-31.0425853444
62
254
0
LINE
8
Modules
10
-9.7448022343
20
-32.5260547059
11
-9.7365584127
21
-33.3462232761
62
254
0
LINE
8
Modules
10
-9.7365584127
20
-33.3462232761
11
-8.9163898425
21
-33.3379794544
62
254
0
LINE
8
Modules
10
-8.9163898425
20
-33.3379794544
11
-8.9246336642
21
-32.5178108843
62
254
0
LINE
8
Modules
10
-8.9246336642
20
-32.5178108843
11
-9.7448022343
21
-32.5260547059
62
254
0
LINE
8
Modules
10
-9.7448022343
20
-32.5260547059
11
-8.9163898425
21
-33.3379794544
62
254
0
TEXT
8
Modules
100
AcDbText
10
-9.2358030915
20
-32.5701536507
1
DC
7
NewTextStyle_4
40
0.2624672000000003
50
-89.42411804197069
0
TEXT
8
Modules
100
AcDbText
10
-9.6922945915
20
-32.8536275047
1
DC
7
NewTextStyle_4
40
0.2624672000000003
50
-89.42411804197069
0
LINE
8
Modules
10
-6.2342161298
20
-34.8007139428
11
-12.3885495429
21
-34.8625734542
62
254
0
LINE
8
Modules
10
-12.3885495429
20
-34.8625734542
11
-12.3511885439
21
-38.5795774143
62
254
0
LINE
8
Modules
10
-12.3511885439
20
-38.5795774143
11
-6.1968551309
21
-38.5177179028
62
254
0
LINE
8
Modules
10
-6.1968551309
20
-38.5177179028
11
-6.2342161298
21
-34.8007139428
62
254
0
LINE
8
Modules
10
-9.7069085328
20
-36.2841833043
11
-9.6986647111
21
-37.1043518744
62
254
0
LINE
8
Modules
10
-9.6986647111
20
-37.1043518744
11
-8.8784961410
21
-37.0961080528
62
254
0
LINE
8
Modules
10
-8.8784961410
20
-37.0961080528
11
-8.8867399626
21
-36.2759394826
62
254
0
LINE
8
Modules
10
-8.8867399626
20
-36.2759394826
11
-9.7069085328
21
-36.2841833043
62
254
0
LINE
8
Modules
10
-9.7069085328
20
-36.2841833043
11
-8.8784961410
21
-37.0961080528
62
254
0
TEXT
8
Modules
100
AcDbText
10
-9.1979093900
20
-36.3282822490
1
DC
7
NewTextStyle_4
40
0.2624672000000003
50
-89.42411804197069
0
TEXT
8
Modules
100
AcDbText
10
-9.6544008899
20
-36.6117561030
1
DC
7
NewTextStyle_4
40
0.2624672000000003
50
-89.42411804197069
0
LINE
8
Modules
10
-0.5501604338
20
15.5998445252
11
-6.7044938468
21
15.5379850137
62
254
0
LINE
8
Modules
10
-6.7044938468
20
15.5379850137
11
-6.6671328479
21
11.8209810537
62
254
0
LINE
8
Modules
10
-6.6671328479
20
11.8209810537
11
-0.5127994348
21
11.8828405651
62
254
0
LINE
8
Modules
10
-0.5127994348
20
11.8828405651
11
-0.5501604338
21
15.5998445252
62
254
0
LINE
8
Modules
10
-4.0228528367
20
14.1163751637
11
-4.0146090151
21
13.2962065935
62
254
0
LINE
8
Modules
10
-4.0146090151
20
13.2962065935
11
-3.1944404449
21
13.3044504152
62
254
0
LINE
8
Modules
10
-3.1944404449
20
13.3044504152
11
-3.2026842666
21
14.1246189853
62
254
0
LINE
8
Modules
10
-3.2026842666
20
14.1246189853
11
-4.0228528367
21
14.1163751637
62
254
0
LINE
8
Modules
10
-4.0228528367
20
14.1163751637
11
-3.1944404449
21
13.3044504152
62
254
0
TEXT
8
Modules
100
AcDbText
10
-3.5138536939
20
14.0722762189
1
DC
7
NewTextStyle_4
40
0.2624672000000003
50
-89.42411804197069
0
TEXT
8
Modules
100
AcDbText
10
-3.9703451939
20
13.7888023649
1
DC
7
NewTextStyle_4
40
0.2624672000000003
50
-89.42411804197069
0
LINE
8
Modules
10
-0.5122667281
20
11.8380637121
11
-6.6666001411
21
11.7762042007
62
254
0
LINE
8
Modules
10
-6.6666001411
20
11.7762042007
11
-6.6292391422
21
8.0592002406
62
254
0
LINE
8
Modules
10
-6.6292391422
20
8.0592002406
11
-0.4749057292
21
8.1210597521
62
254
0
LINE
8
Modules
10
-0.4749057292
20
8.1210597521
11
-0.5122667281
21
11.8380637121
62
254
0
LINE
8
Modules
10
-3.9849591311
20
10.3545943506
11
-3.9767153094
21
9.5344257805
62
254
0
LINE
8
Modules
10
-3.9767153094
20
9.5344257805
11
-3.1565467392
21
9.5426696021
62
254
0
LINE
8
Modules
10
-3.1565467392
20
9.5426696021
11
-3.1647905609
21
10.3628381723
62
254
0
LINE
8
Modules
10
-3.1647905609
20
10.3628381723
11
-3.9849591311
21
10.3545943506
62
254
0
LINE
8
Modules
10
-3.9849591311
20
10.3545943506
11
-3.1565467392
21
9.5426696021
62
254
0
TEXT
8
Modules
100
AcDbText
10
-3.4759599882
20
10.3104954059
1
DC
7
NewTextStyle_4
40
0.2624672000000003
50
-89.42411804197069
0
TEXT
8
Modules
100
AcDbText
10
-3.9324514882
20
10.0270215519
1
DC
7
NewTextStyle_4
40
0.2624672000000003
50
-89.42411804197069
0
LINE
8
Modules
10
-0.4743730266
20
8.0799351138
11
-6.6287064396
21
8.0180756023
62
254
0
LINE
8
Modules
10
-6.6287064396
20
8.0180756023
11
-6.5913454406
21
4.3010716423
62
254
0
LINE
8
Modules
10
-6.5913454406
20
4.3010716423
11
-0.4370120276
21
4.3629311537
62
254
0
LINE
8
Modules
10
-0.4370120276
20
4.3629311537
11
-0.4743730266
21
8.0799351138
62
254
0
LINE
8
Modules
10
-3.9470654295
20
6.5964657523
11
-3.9388216079
21
5.7762971821
62
254
0
LINE
8
Modules
10
-3.9388216079
20
5.7762971821
11
-3.1186530377
21
5.7845410038
62
254
0
LINE
8
Modules
10
-3.1186530377
20
5.7845410038
11
-3.1268968593
21
6.6047095739
62
254
0
LINE
8
Modules
10
-3.1268968593
20
6.6047095739
11
-3.9470654295
21
6.5964657523
62
254
0
LINE
8
Modules
10
-3.9470654295
20
6.5964657523
11
-3.1186530377
21
5.7845410038
62
254
0
TEXT
8
Modules
100
AcDbText
10
-3.4380662867
20
6.5523668075
1
DC
7
NewTextStyle_4
40
0.2624672000000003
50
-89.42411804197069
0
TEXT
8
Modules
100
AcDbText
10
-3.8945577866
20
6.2688929535
1
DC
7
NewTextStyle_4
40
0.2624672000000003
50
-89.42411804197069
0
LINE
8
Modules
10
-0.4364793209
20
4.3218065154
11
-6.5908127339
21
4.2599470040
62
254
0
LINE
8
Modules
10
-6.5908127339
20
4.2599470040
11
-6.5534517349
21
0.5429430439
62
254
0
LINE
8
Modules
10
-6.5534517349
20
0.5429430439
11
-0.3991183219
21
0.6048025554
62
254
0
LINE
8
Modules
10
-0.3991183219
20
0.6048025554
11
-0.4364793209
21
4.3218065154
62
254
0
LINE
8
Modules
10
-3.9091717238
20
2.8383371539
11
-3.9009279022
21
2.0181685838
62
254
0
LINE
8
Modules
10
-3.9009279022
20
2.0181685838
11
-3.0807593320
21
2.0264124054
62
254
0
LINE
8
Modules
10
-3.0807593320
20
2.0264124054
11
-3.0890031536
21
2.8465809756
62
254
0
LINE
8
Modules
10
-3.0890031536
20
2.8465809756
11
-3.9091717238
21
2.8383371539
62
254
0
LINE
8
Modules
10
-3.9091717238
20
2.8383371539
11
-3.0807593320
21
2.0264124054
62
254
0
TEXT
8
Modules
100
AcDbText
10
-3.4001725810
20
2.7942382092
1
DC
7
NewTextStyle_4
40
0.2624672000000003
50
-89.42411804197069
0
TEXT
8
Modules
100
AcDbText
10
-3.8566640809
20
2.5107643552
1
DC
7
NewTextStyle_4
40
0.2624672000000003
50
-89.42411804197069
0
LINE
8
Modules
10
-0.1945425900
20
-19.7061119023
11
-6.3488760030
21
-19.7679714138
62
254
0
LINE
8
Modules
10
-6.3488760030
20
-19.7679714138
11
-6.3115150040
21
-23.4849753738
62
254
0
LINE
8
Modules
10
-6.3115150040
20
-23.4849753738
11
-0.1571815910
21
-23.4231158624
62
254
0
LINE
8
Modules
10
-0.1571815910
20
-23.4231158624
11
-0.1945425900
21
-19.7061119023
62
254
0
LINE
8
Modules
10
-3.6672349929
20
-21.1895812638
11
-3.6589911713
21
-22.0097498340
62
254
0
LINE
8
Modules
10
-3.6589911713
20
-22.0097498340
11
-2.8388226011
21
-22.0015060123
62
254
0
LINE
8
Modules
10
-2.8388226011
20
-22.0015060123
11
-2.8470664227
21
-21.1813374422
62
254
0
LINE
8
Modules
10
-2.8470664227
20
-21.1813374422
11
-3.6672349929
21
-21.1895812638
62
254
0
LINE
8
Modules
10
-3.6672349929
20
-21.1895812638
11
-2.8388226011
21
-22.0015060123
62
254
0
TEXT
8
Modules
100
AcDbText
10
-3.1582358501
20
-21.2336802086
1
DC
7
NewTextStyle_4
40
0.2624672000000003
50
-89.42411804197069
0
TEXT
8
Modules
100
AcDbText
10
-3.6147273500
20
-21.5171540626
1
DC
7
NewTextStyle_4
40
0.2624672000000003
50
-89.42411804197069
0
LINE
8
Modules
10
-0.1566488884
20
-23.4642405007
11
-6.3109823014
21
-23.5261000121
62
254
0
LINE
8
Modules
10
-6.3109823014
20
-23.5261000121
11
-6.2736213025
21
-27.2431039722
62
254
0
LINE
8
Modules
10
-6.2736213025
20
-27.2431039722
11
-0.1192878895
21
-27.1812444607
62
254
0
LINE
8
Modules
10
-0.1192878895
20
-27.1812444607
11
-0.1566488884
21
-23.4642405007
62
254
0
LINE
8
Modules
10
-3.6293412914
20
-24.9477098622
11
-3.6210974697
21
-25.7678784323
62
254
0
LINE
8
Modules
10
-3.6210974697
20
-25.7678784323
11
-2.8009288995
21
-25.7596346107
62
254
0
LINE
8
Modules
10
-2.8009288995
20
-25.7596346107
11
-2.8091727212
21
-24.9394660405
62
254
0
LINE
8
Modules
10
-2.8091727212
20
-24.9394660405
11
-3.6293412914
21
-24.9477098622
62
254
0
LINE
8
Modules
10
-3.6293412914
20
-24.9477098622
11
-2.8009288995
21
-25.7596346107
62
254
0
TEXT
8
Modules
100
AcDbText
10
-3.1203421486
20
-24.9918088070
1
DC
7
NewTextStyle_4
40
0.2624672000000003
50
-89.42411804197069
0
TEXT
8
Modules
100
AcDbText
10
-3.5768336485
20
-25.2752826609
1
DC
7
NewTextStyle_4
40
0.2624672000000003
50
-89.42411804197069
0
LINE
8
Modules
10
-0.1187551827
20
-27.2223691016
11
-6.2730885957
21
-27.2842286131
62
254
0
LINE
8
Modules
10
-6.2730885957
20
-27.2842286131
11
-6.2357275968
21
-31.0012325731
62
254
0
LINE
8
Modules
10
-6.2357275968
20
-31.0012325731
11
-0.0813941838
21
-30.9393730617
62
254
0
LINE
8
Modules
10
-0.0813941838
20
-30.9393730617
11
-0.1187551827
21
-27.2223691016
62
254
0
LINE
8
Modules
10
-3.5914475857
20
-28.7058384631
11
-3.5832037640
21
-29.5260070333
62
254
0
LINE
8
Modules
10
-3.5832037640
20
-29.5260070333
11
-2.7630351938
21
-29.5177632116
62
254
0
LINE
8
Modules
10
-2.7630351938
20
-29.5177632116
11
-2.7712790155
21
-28.6975946415
62
254
0
LINE
8
Modules
10
-2.7712790155
20
-28.6975946415
11
-3.5914475857
21
-28.7058384631
62
254
0
LINE
8
Modules
10
-3.5914475857
20
-28.7058384631
11
-2.7630351938
21
-29.5177632116
62
254
0
TEXT
8
Modules
100
AcDbText
10
-3.0824484429
20
-28.7499374079
1
DC
7
NewTextStyle_4
40
0.2624672000000003
50
-89.42411804197069
0
TEXT
8
Modules
100
AcDbText
10
-3.5389399428
20
-29.0334112619
1
DC
7
NewTextStyle_4
40
0.2624672000000003
50
-89.42411804197069
0
LINE
8
Modules
10
-0.0808614770
20
-30.9804977000
11
-6.2351948901
21
-31.0423572114
62
254
0
LINE
8
Modules
10
-6.2351948901
20
-31.0423572114
11
-6.1978338911
21
-34.7593611715
62
254
0
LINE
8
Modules
10
-6.1978338911
20
-34.7593611715
11
-0.0435004781
21
-34.6975016600
62
254
0
LINE
8
Modules
10
-0.0435004781
20
-34.6975016600
11
-0.0808614770
21
-30.9804977000
62
254
0
LINE
8
Modules
10
-3.5535538800
20
-32.4639670615
11
-3.5453100583
21
-33.2841356316
62
254
0
LINE
8
Modules
10
-3.5453100583
20
-33.2841356316
11
-2.7251414882
21
-33.2758918100
62
254
0
LINE
8
Modules
10
-2.7251414882
20
-33.2758918100
11
-2.7333853098
21
-32.4557232398
62
254
0
LINE
8
Modules
10
-2.7333853098
20
-32.4557232398
11
-3.5535538800
21
-32.4639670615
62
254
0
LINE
8
Modules
10
-3.5535538800
20
-32.4639670615
11
-2.7251414882
21
-33.2758918100
62
254
0
TEXT
8
Modules
100
AcDbText
10
-3.0445547372
20
-32.5080660063
1
DC
7
NewTextStyle_4
40
0.2624672000000003
50
-89.42411804197069
0
TEXT
8
Modules
100
AcDbText
10
-3.5010462371
20
-32.7915398602
1
DC
7
NewTextStyle_4
40
0.2624672000000003
50
-89.42411804197069
0
LINE
8
Modules
10
-0.0429677713
20
-34.7386262983
11
-6.1973011844
21
-34.8004858098
62
254
0
LINE
8
Modules
10
-6.1973011844
20
-34.8004858098
11
-6.1599401854
21
-38.5174897698
62
254
0
LINE
8
Modules
10
-6.1599401854
20
-38.5174897698
11
-0.0056067724
21
-38.4556302584
62
254
0
LINE
8
Modules
10
-0.0056067724
20
-38.4556302584
11
-0.0429677713
21
-34.7386262983
62
254
0
LINE
8
Modules
10
-3.5156601743
20
-36.2220956598
11
-3.5074163526
21
-37.0422642300
62
254
0
LINE
8
Modules
10
-3.5074163526
20
-37.0422642300
11
-2.6872477825
21
-37.0340204083
62
254
0
LINE
8
Modules
10
-2.6872477825
20
-37.0340204083
11
-2.6954916041
21
-36.2138518382
62
254
0
LINE
8
Modules
10
-2.6954916041
20
-36.2138518382
11
-3.5156601743
21
-36.2220956598
62
254
0
LINE
8
Modules
10
-3.5156601743
20
-36.2220956598
11
-2.6872477825
21
-37.0340204083
62
254
0
TEXT
8
Modules
100
AcDbText
10
-3.0066610315
20
-36.2661946046
1
DC
7
NewTextStyle_4
40
0.2624672000000003
50
-89.42411804197069
0
TEXT
8
Modules
100
AcDbText
10
-3.4631525314
20
-36.5496684586
1
DC
7
NewTextStyle_4
40
0.2624672000000003
50
-89.42411804197069
0
LINE
8
Modules
10
5.6440028232
20
15.6619321696
11
-0.5103305898
21
15.6000726582
62
254
0
LINE
8
Modules
10
-0.5103305898
20
15.6000726582
11
-0.4729695908
21
11.8830686981
62
254
0
LINE
8
Modules
10
-0.4729695908
20
11.8830686981
11
5.6813638222
21
11.9449282096
62
254
0
LINE
8
Modules
10
5.6813638222
20
11.9449282096
11
5.6440028232
21
15.6619321696
62
254
0
LINE
8
Modules
10
2.1713104203
20
14.1784628081
11
2.1795542419
21
13.3582942379
62
254
0
LINE
8
Modules
10
2.1795542419
20
13.3582942379
11
2.9997228121
21
13.3665380596
62
254
0
LINE
8
Modules
10
2.9997228121
20
13.3665380596
11
2.9914789905
21
14.1867066298
62
254
0
LINE
8
Modules
10
2.9914789905
20
14.1867066298
11
2.1713104203
21
14.1784628081
62
254
0
LINE
8
Modules
10
2.1713104203
20
14.1784628081
11
2.9997228121
21
13.3665380596
62
254
0
TEXT
8
Modules
100
AcDbText
10
2.6803095631
20
14.1343638633
1
DC
7
NewTextStyle_4
40
0.2624672000000003
50
-89.42411804197069
0
TEXT
8
Modules
100
AcDbText
10
2.2238180632
20
13.8508900094
1
DC
7
NewTextStyle_4
40
0.2624672000000003
50
-89.42411804197069
0
LINE
8
Modules
10
5.6818965248
20
11.9001513566
11
-0.4724368882
21
11.8382918451
62
254
0
LINE
8
Modules
10
-0.4724368882
20
11.8382918451
11
-0.4350758893
21
8.1212878851
62
254
0
LINE
8
Modules
10
-0.4350758893
20
8.1212878851
11
5.7192575237
21
8.1831473965
62
254
0
LINE
8
Modules
10
5.7192575237
20
8.1831473965
11
5.6818965248
21
11.9001513566
62
254
0
LINE
8
Modules
10
2.2092041218
20
10.4166819951
11
2.2174479435
21
9.5965134249
62
254
0
LINE
8
Modules
10
2.2174479435
20
9.5965134249
11
3.0376165137
21
9.6047572466
62
254
0
LINE
8
Modules
10
3.0376165137
20
9.6047572466
11
3.0293726920
21
10.4249258167
62
254
0
LINE
8
Modules
10
3.0293726920
20
10.4249258167
11
2.2092041218
21
10.4166819951
62
254
0
LINE
8
Modules
10
2.2092041218
20
10.4166819951
11
3.0376165137
21
9.6047572466
62
254
0
TEXT
8
Modules
100
AcDbText
10
2.7182032646
20
10.3725830503
1
DC
7
NewTextStyle_4
40
0.2624672000000003
50
-89.42411804197069
0
TEXT
8
Modules
100
AcDbText
10
2.2617117647
20
10.0891091963
1
DC
7
NewTextStyle_4
40
0.2624672000000003
50
-89.42411804197069
0
LINE
8
Modules
10
5.7197902305
20
8.1420227582
11
-0.4345431825
21
8.0801632468
62
254
0
LINE
8
Modules
10
-0.4345431825
20
8.0801632468
11
-0.3971821836
21
4.3631592867
62
254
0
LINE
8
Modules
10
-0.3971821836
20
4.3631592867
11
5.7571512294
21
4.4250187982
62
254
0
LINE
8
Modules
10
5.7571512294
20
4.4250187982
11
5.7197902305
21
8.1420227582
62
254
0
LINE
8
Modules
10
2.2470978275
20
6.6585533967
11
2.2553416492
21
5.8383848266
62
254
0
LINE
8
Modules
10
2.2553416492
20
5.8383848266
11
3.0755102194
21
5.8466286482
62
254
0
LINE
8
Modules
10
3.0755102194
20
5.8466286482
11
3.0672663977
21
6.6667972184
62
254
0
LINE
8
Modules
10
3.0672663977
20
6.6667972184
11
2.2470978275
21
6.6585533967
62
254
0
LINE
8
Modules
10
2.2470978275
20
6.6585533967
11
3.0755102194
21
5.8466286482
62
254
0
TEXT
8
Modules
100
AcDbText
10
2.7560969703
20
6.6144544519
1
DC
7
NewTextStyle_4
40
0.2624672000000003
50
-89.42411804197069
0
TEXT
8
Modules
100
AcDbText
10
2.2996054704
20
6.3309805980
1
DC
7
NewTextStyle_4
40
0.2624672000000003
50
-89.42411804197069
0
LINE
8
Modules
10
5.7576839362
20
4.3838941599
11
-0.3966494769
21
4.3220346484
62
254
0
LINE
8
Modules
10
-0.3966494769
20
4.3220346484
11
-0.3592884779
21
0.6050306884
62
254
0
LINE
8
Modules
10
-0.3592884779
20
0.6050306884
11
5.7950449351
21
0.6668901998
62
254
0
LINE
8
Modules
10
5.7950449351
20
0.6668901998
11
5.7576839362
21
4.3838941599
62
254
0
LINE
8
Modules
10
2.2849915332
20
2.9004247984
11
2.2932353549
21
2.0802562282
62
254
0
LINE
8
Modules
10
2.2932353549
20
2.0802562282
11
3.1134039250
21
2.0885000499
62
254
0
LINE
8
Modules
10
3.1134039250
20
2.0885000499
11
3.1051601034
21
2.9086686200
62
254
0
LINE
8
Modules
10
3.1051601034
20
2.9086686200
11
2.2849915332
21
2.9004247984
62
254
0
LINE
8
Modules
10
2.2849915332
20
2.9004247984
11
3.1134039250
21
2.0885000499
62
254
0
TEXT
8
Modules
100
AcDbText
10
2.7939906760
20
2.8563258536
1
DC
7
NewTextStyle_4
40
0.2624672000000003
50
-89.42411804197069
0
TEXT
8
Modules
100
AcDbText
10
2.3374991761
20
2.5728519996
1
DC
7
NewTextStyle_4
40
0.2624672000000003
50
-89.42411804197069
0
LINE
8
Modules
10
5.7926627392
20
0.6257655615
11
-0.3616706738
21
0.5639060501
62
254
0
LINE
8
Modules
10
-0.3616706738
20
0.5639060501
11
-0.3243096749
21
-3.1530979100
62
254
0
LINE
8
Modules
10
-0.3243096749
20
-3.1530979100
11
5.8300237381
21
-3.0912383985
62
254
0
LINE
8
Modules
10
5.8300237381
20
-3.0912383985
11
5.7926627392
21
0.6257655615
62
254
0
LINE
8
Modules
10
2.3199703362
20
-0.8577038000
11
2.3282141579
21
-1.6778723702
62
254
0
LINE
8
Modules
10
2.3282141579
20
-1.6778723702
11
3.1483827281
21
-1.6696285485
62
254
0
LINE
8
Modules
10
3.1483827281
20
-1.6696285485
11
3.1401389064
21
-0.8494599783
62
254
0
LINE
8
Modules
10
3.1401389064
20
-0.8494599783
11
2.3199703362
21
-0.8577038000
62
254
0
LINE
8
Modules
10
2.3199703362
20
-0.8577038000
11
3.1483827281
21
-1.6696285485
62
254
0
TEXT
8
Modules
100
AcDbText
10
2.8289694790
20
-0.9018027448
1
DC
7
NewTextStyle_4
40
0.2624672000000003
50
-89.42411804197069
0
TEXT
8
Modules
100
AcDbText
10
2.3724779791
20
-1.1852765988
1
DC
7
NewTextStyle_4
40
0.2624672000000003
50
-89.42411804197069
0
LINE
8
Modules
10
5.9588120587
20
-15.8822434448
11
-0.1955213543
21
-15.9441029563
62
254
0
LINE
8
Modules
10
-0.1955213543
20
-15.9441029563
11
-0.1581603554
21
-19.6611069163
62
254
0
LINE
8
Modules
10
-0.1581603554
20
-19.6611069163
11
5.9961730577
21
-19.5992474049
62
254
0
LINE
8
Modules
10
5.9961730577
20
-19.5992474049
11
5.9588120587
21
-15.8822434448
62
254
0
LINE
8
Modules
10
2.4861196558
20
-17.3657128063
11
2.4943634774
21
-18.1858813765
62
254
0
LINE
8
Modules
10
2.4943634774
20
-18.1858813765
11
3.3145320476
21
-18.1776375549
62
254
0
LINE
8
Modules
10
3.3145320476
20
-18.1776375549
11
3.3062882259
21
-17.3574689847
62
254
0
LINE
8
Modules
10
3.3062882259
20
-17.3574689847
11
2.4861196558
21
-17.3657128063
62
254
0
LINE
8
Modules
10
2.4861196558
20
-17.3657128063
11
3.3145320476
21
-18.1776375549
62
254
0
TEXT
8
Modules
100
AcDbText
10
2.9951187986
20
-17.4098117511
1
DC
7
NewTextStyle_4
40
0.2624672000000003
50
-89.42411804197069
0
TEXT
8
Modules
100
AcDbText
10
2.5386272986
20
-17.6932856051
1
DC
7
NewTextStyle_4
40
0.2624672000000003
50
-89.42411804197069
0
LINE
8
Modules
10
5.9967057644
20
-19.6403720432
11
-0.1576276486
21
-19.7022315547
62
254
0
LINE
8
Modules
10
-0.1576276486
20
-19.7022315547
11
-0.1202666497
21
-23.4192355147
62
254
0
LINE
8
Modules
10
-0.1202666497
20
-23.4192355147
11
6.0340667634
21
-23.3573760032
62
254
0
LINE
8
Modules
10
6.0340667634
20
-23.3573760032
11
5.9967057644
21
-19.6403720432
62
254
0
LINE
8
Modules
10
2.5240133615
20
-21.1238414047
11
2.5322571831
21
-21.9440099749
62
254
0
LINE
8
Modules
10
2.5322571831
20
-21.9440099749
11
3.3524257533
21
-21.9357661532
62
254
0
LINE
8
Modules
10
3.3524257533
20
-21.9357661532
11
3.3441819316
21
-21.1155975830
62
254
0
LINE
8
Modules
10
3.3441819316
20
-21.1155975830
11
2.5240133615
21
-21.1238414047
62
254
0
LINE
8
Modules
10
2.5240133615
20
-21.1238414047
11
3.3524257533
21
-21.9357661532
62
254
0
TEXT
8
Modules
100
AcDbText
10
3.0330125043
20
-21.1679403495
1
DC
7
NewTextStyle_4
40
0.2624672000000003
50
-89.42411804197069
0
TEXT
8
Modules
100
AcDbText
10
2.5765210043
20
-21.4514142035
1
DC
7
NewTextStyle_4
40
0.2624672000000003
50
-89.42411804197069
0
LINE
8
Modules
10
6.0345994701
20
-23.4021528562
11
-0.1197339429
21
-23.4640123677
62
254
0
LINE
8
Modules
10
-0.1197339429
20
-23.4640123677
11
-0.0823729440
21
-27.1810163277
62
254
0
LINE
8
Modules
10
-0.0823729440
20
-27.1810163277
11
6.0719604690
21
-27.1191568163
62
254
0
LINE
8
Modules
10
6.0719604690
20
-27.1191568163
11
6.0345994701
21
-23.4021528562
62
254
0
LINE
8
Modules
10
2.5619070671
20
-24.8856222177
11
2.5701508888
21
-25.7057907879
62
254
0
LINE
8
Modules
10
2.5701508888
20
-25.7057907879
11
3.3903194590
21
-25.6975469663
62
254
0
LINE
8
Modules
10
3.3903194590
20
-25.6975469663
11
3.3820756373
21
-24.8773783961
62
254
0
LINE
8
Modules
10
3.3820756373
20
-24.8773783961
11
2.5619070671
21
-24.8856222177
62
254
0
LINE
8
Modules
10
2.5619070671
20
-24.8856222177
11
3.3903194590
21
-25.6975469663
62
254
0
TEXT
8
Modules
100
AcDbText
10
3.0709062100
20
-24.9297211625
1
DC
7
NewTextStyle_4
40
0.2624672000000003
50
-89.42411804197069
0
TEXT
8
Modules
100
AcDbText
10
2.6144147100
20
-25.2131950165
1
DC
7
NewTextStyle_4
40
0.2624672000000003
50
-89.42411804197069
0
LINE
8
Modules
10
6.0724931758
20
-27.1602814572
11
-0.0818402372
21
-27.2221409686
62
254
0
LINE
8
Modules
10
-0.0818402372
20
-27.2221409686
11
-0.0444792383
21
-30.9391449287
62
254
0
LINE
8
Modules
10
-0.0444792383
20
-30.9391449287
11
6.1098541747
21
-30.8772854172
62
254
0
LINE
8
Modules
10
6.1098541747
20
-30.8772854172
11
6.0724931758
21
-27.1602814572
62
254
0
LINE
8
Modules
10
2.5998007728
20
-28.6437508187
11
2.6080445945
21
-29.4639193889
62
254
0
LINE
8
Modules
10
2.6080445945
20
-29.4639193889
11
3.4282131647
21
-29.4556755672
62
254
0
LINE
8
Modules
10
3.4282131647
20
-29.4556755672
11
3.4199693430
21
-28.6355069970
62
254
0
LINE
8
Modules
10
3.4199693430
20
-28.6355069970
11
2.5998007728
21
-28.6437508187
62
254
0
LINE
8
Modules
10
2.5998007728
20
-28.6437508187
11
3.4282131647
21
-29.4556755672
62
254
0
TEXT
8
Modules
100
AcDbText
10
3.1087999156
20
-28.6878497635
1
DC
7
NewTextStyle_4
40
0.2624672000000003
50
-89.42411804197069
0
TEXT
8
Modules
100
AcDbText
10
2.6523084157
20
-28.9713236175
1
DC
7
NewTextStyle_4
40
0.2624672000000003
50
-89.42411804197069
0
LINE
8
Modules
10
6.1103868773
20
-30.9184100555
11
-0.0439465357
21
-30.9802695670
62
254
0
LINE
8
Modules
10
-0.0439465357
20
-30.9802695670
11
-0.0065855367
21
-34.6972735270
62
254
0
LINE
8
Modules
10
-0.0065855367
20
-34.6972735270
11
6.1477478763
21
-34.6354140156
62
254
0
LINE
8
Modules
10
6.1477478763
20
-34.6354140156
11
6.1103868773
21
-30.9184100555
62
254
0
LINE
8
Modules
10
2.6376944744
20
-32.4018794170
11
2.6459382960
21
-33.2220479872
62
254
0
LINE
8
Modules
10
2.6459382960
20
-33.2220479872
11
3.4661068662
21
-33.2138041656
62
254
0
LINE
8
Modules
10
3.4661068662
20
-33.2138041656
11
3.4578630446
21
-32.3936355954
62
254
0
LINE
8
Modules
10
3.4578630446
20
-32.3936355954
11
2.6376944744
21
-32.4018794170
62
254
0
LINE
8
Modules
10
2.6376944744
20
-32.4018794170
11
3.4661068662
21
-33.2138041656
62
254
0
TEXT
8
Modules
100
AcDbText
10
3.1466936172
20
-32.4459783618
1
DC
7
NewTextStyle_4
40
0.2624672000000003
50
-89.42411804197069
0
TEXT
8
Modules
100
AcDbText
10
2.6902021173
20
-32.7294522158
1
DC
7
NewTextStyle_4
40
0.2624672000000003
50
-89.42411804197069
0
LINE
8
Modules
10
6.1482805830
20
-34.6765386539
11
-0.0060528300
21
-34.7383981654
62
254
0
LINE
8
Modules
10
-0.0060528300
20
-34.7383981654
11
0.0313081690
21
-38.4554021254
62
254
0
LINE
8
Modules
10
0.0313081690
20
-38.4554021254
11
6.1856415820
21
-38.3935426139
62
254
0
LINE
8
Modules
10
6.1856415820
20
-38.3935426139
11
6.1482805830
21
-34.6765386539
62
254
0
LINE
8
Modules
10
2.6755881801
20
-36.1600080154
11
2.6838320017
21
-36.9801765856
62
254
0
LINE
8
Modules
10
2.6838320017
20
-36.9801765856
11
3.5040005719
21
-36.9719327639
62
254
0
LINE
8
Modules
10
3.5040005719
20
-36.9719327639
11
3.4957567502
21
-36.1517641937
62
254
0
LINE
8
Modules
10
3.4957567502
20
-36.1517641937
11
2.6755881801
21
-36.1600080154
62
254
0
LINE
8
Modules
10
2.6755881801
20
-36.1600080154
11
3.5040005719
21
-36.9719327639
62
254
0
TEXT
8
Modules
100
AcDbText
10
3.1845873229
20
-36.2041069602
1
DC
7
NewTextStyle_4
40
0.2624672000000003
50
-89.42411804197069
0
TEXT
8
Modules
100
AcDbText
10
2.7280958229
20
-36.4875808142
1
DC
7
NewTextStyle_4
40
0.2624672000000003
50
-89.42411804197069
0
LINE
8
Modules
10
6.1861742887
20
-38.4346672523
11
0.0318408757
21
-38.4965267637
62
254
0
LINE
8
Modules
10
0.0318408757
20
-38.4965267637
11
0.0692018746
21
-42.2135307238
62
254
0
LINE
8
Modules
10
0.0692018746
20
-42.2135307238
11
6.2235352877
21
-42.1516712123
62
254
0
LINE
8
Modules
10
6.2235352877
20
-42.1516712123
11
6.1861742887
21
-38.4346672523
62
254
0
LINE
8
Modules
10
2.7134818858
20
-39.9181366137
11
2.7217257074
21
-40.7383051839
62
254
0
LINE
8
Modules
10
2.7217257074
20
-40.7383051839
11
3.5418942776
21
-40.7300613623
62
254
0
LINE
8
Modules
10
3.5418942776
20
-40.7300613623
11
3.5336504559
21
-39.9098927921
62
254
0
LINE
8
Modules
10
3.5336504559
20
-39.9098927921
11
2.7134818858
21
-39.9181366137
62
254
0
LINE
8
Modules
10
2.7134818858
20
-39.9181366137
11
3.5418942776
21
-40.7300613623
62
254
0
TEXT
8
Modules
100
AcDbText
10
3.2224810286
20
-39.9622355585
1
DC
7
NewTextStyle_4
40
0.2624672000000003
50
-89.42411804197069
0
TEXT
8
Modules
100
AcDbText
10
2.7659895286
20
-40.2457094125
1
DC
7
NewTextStyle_4
40
0.2624672000000003
50
-89.42411804197069
0
LINE
8
Modules
10
21.4470809816
20
-38.3531401231
11
27.6014145998
21
-38.2912806096
62
254
0
LINE
8
Modules
10
27.6014145998
20
-38.2912806096
11
27.5640536009
21
-34.5742766495
62
254
0
LINE
8
Modules
10
27.5640536009
20
-34.5742766495
11
21.4097199827
21
-34.6361361630
62
254
0
LINE
8
Modules
10
21.4097199827
20
-34.6361361630
11
21.4470809816
21
-38.3531401231
62
254
0
LINE
8
Modules
10
24.9197734872
20
-36.8696707605
11
24.9115296655
21
-36.0495021904
62
254
0
LINE
8
Modules
10
24.9115296655
20
-36.0495021904
11
24.0913610953
21
-36.0577460120
62
254
0
LINE
8
Modules
10
24.0913610953
20
-36.0577460120
11
24.0996049170
21
-36.8779145822
62
254
0
LINE
8
Modules
10
24.0996049170
20
-36.8779145822
11
24.9197734872
21
-36.8696707605
62
254
0
LINE
8
Modules
10
24.9197734872
20
-36.8696707605
11
24.0913610953
21
-36.0577460120
62
254
0
TEXT
8
Modules
100
AcDbText
10
24.4107743444
20
-36.8255718158
1
DC
7
NewTextStyle_4
40
0.2624672000000003
50
90.57588195801094
0
TEXT
8
Modules
100
AcDbText
10
24.8672658443
20
-36.5420979618
1
DC
7
NewTextStyle_4
40
0.2624672000000003
50
90.57588195801094
0
LINE
8
Modules
10
21.4091872759
20
-34.5913593100
11
27.5635208941
21
-34.5294997965
62
254
0
LINE
8
Modules
10
27.5635208941
20
-34.5294997965
11
27.5261598952
21
-30.8124958365
62
254
0
LINE
8
Modules
10
27.5261598952
20
-30.8124958365
11
21.3718262770
21
-30.8743553500
62
254
0
LINE
8
Modules
10
21.3718262770
20
-30.8743553500
11
21.4091872759
21
-34.5913593100
62
254
0
LINE
8
Modules
10
24.8818797815
20
-33.1078899475
11
24.8736359598
21
-32.2877213773
62
254
0
LINE
8
Modules
10
24.8736359598
20
-32.2877213773
11
24.0534673896
21
-32.2959651990
62
254
0
LINE
8
Modules
10
24.0534673896
20
-32.2959651990
11
24.0617112113
21
-33.1161337692
62
254
0
LINE
8
Modules
10
24.0617112113
20
-33.1161337692
11
24.8818797815
21
-33.1078899475
62
254
0
LINE
8
Modules
10
24.8818797815
20
-33.1078899475
11
24.0534673896
21
-32.2959651990
62
254
0
TEXT
8
Modules
100
AcDbText
10
24.3728806387
20
-33.0637910027
1
DC
7
NewTextStyle_4
40
0.2624672000000003
50
90.57588195801094
0
TEXT
8
Modules
100
AcDbText
10
24.8293721386
20
-32.7803171487
1
DC
7
NewTextStyle_4
40
0.2624672000000003
50
90.57588195801094
0
LINE
8
Modules
10
21.3712935702
20
-30.8332307117
11
27.5256271885
21
-30.7713711982
62
254
0
LINE
8
Modules
10
27.5256271885
20
-30.7713711982
11
27.4882661895
21
-27.0543672381
62
254
0
LINE
8
Modules
10
27.4882661895
20
-27.0543672381
11
21.3339325713
21
-27.1162267516
62
254
0
LINE
8
Modules
10
21.3339325713
20
-27.1162267516
11
21.3712935702
21
-30.8332307117
62
254
0
LINE
8
Modules
10
24.8439860758
20
-29.3497613492
11
24.8357422541
21
-28.5295927790
62
254
0
LINE
8
Modules
10
24.8357422541
20
-28.5295927790
11
24.0155736840
21
-28.5378366006
62
254
0
LINE
8
Modules
10
24.0155736840
20
-28.5378366006
11
24.0238175056
21
-29.3580051708
62
254
0
LINE
8
Modules
10
24.0238175056
20
-29.3580051708
11
24.8439860758
21
-29.3497613492
62
254
0
LINE
8
Modules
10
24.8439860758
20
-29.3497613492
11
24.0155736840
21
-28.5378366006
62
254
0
TEXT
8
Modules
100
AcDbText
10
24.3349869330
20
-29.3056624044
1
DC
7
NewTextStyle_4
40
0.2624672000000003
50
90.57588195801094
0
TEXT
8
Modules
100
AcDbText
10
24.7914784329
20
-29.0221885504
1
DC
7
NewTextStyle_4
40
0.2624672000000003
50
90.57588195801094
0
LINE
8
Modules
10
21.3333998687
20
-27.0714498986
11
27.4877334869
21
-27.0095903851
62
254
0
LINE
8
Modules
10
27.4877334869
20
-27.0095903851
11
27.4503724880
21
-23.2925864251
62
254
0
LINE
8
Modules
10
27.4503724880
20
-23.2925864251
11
21.2960388697
21
-23.3544459386
62
254
0
LINE
8
Modules
10
21.2960388697
20
-23.3544459386
11
21.3333998687
21
-27.0714498986
62
254
0
LINE
8
Modules
10
24.8060923742
20
-25.5879805361
11
24.7978485526
21
-24.7678119659
62
254
0
LINE
8
Modules
10
24.7978485526
20
-24.7678119659
11
23.9776799824
21
-24.7760557876
62
254
0
LINE
8
Modules
10
23.9776799824
20
-24.7760557876
11
23.9859238041
21
-25.5962243578
62
254
0
LINE
8
Modules
10
23.9859238041
20
-25.5962243578
11
24.8060923742
21
-25.5879805361
62
254
0
LINE
8
Modules
10
24.8060923742
20
-25.5879805361
11
23.9776799824
21
-24.7760557876
62
254
0
TEXT
8
Modules
100
AcDbText
10
24.2970932314
20
-25.5438815913
1
DC
7
NewTextStyle_4
40
0.2624672000000003
50
90.57588195801094
0
TEXT
8
Modules
100
AcDbText
10
24.7535847314
20
-25.2604077373
1
DC
7
NewTextStyle_4
40
0.2624672000000003
50
90.57588195801094
0
LINE
8
Modules
10
20.9398883192
20
4.4471602156
11
27.0942219374
21
4.5090197291
62
254
0
LINE
8
Modules
10
27.0942219374
20
4.5090197291
11
27.0568609384
21
8.2260236892
62
254
0
LINE
8
Modules
10
27.0568609384
20
8.2260236892
11
20.9025273202
21
8.1641641757
62
254
0
LINE
8
Modules
10
20.9025273202
20
8.1641641757
11
20.9398883192
21
4.4471602156
62
254
0
LINE
8
Modules
10
24.4125808247
20
5.9306295782
11
24.4043370031
21
6.7507981483
62
254
0
LINE
8
Modules
10
24.4043370031
20
6.7507981483
11
23.5841684329
21
6.7425543267
62
254
0
LINE
8
Modules
10
23.5841684329
20
6.7425543267
11
23.5924122545
21
5.9223857565
62
254
0
LINE
8
Modules
10
23.5924122545
20
5.9223857565
11
24.4125808247
21
5.9306295782
62
254
0
LINE
8
Modules
10
24.4125808247
20
5.9306295782
11
23.5841684329
21
6.7425543267
62
254
0
TEXT
8
Modules
100
AcDbText
10
23.9035816819
20
5.9747285229
1
DC
7
NewTextStyle_4
40
0.2624672000000003
50
90.57588195801094
0
TEXT
8
Modules
100
AcDbText
10
24.3600731818
20
6.2582023769
1
DC
7
NewTextStyle_4
40
0.2624672000000003
50
90.57588195801094
0
LINE
8
Modules
10
20.9019946135
20
8.2089410287
11
27.0563282317
21
8.2708005422
62
254
0
LINE
8
Modules
10
27.0563282317
20
8.2708005422
11
27.0189672327
21
11.9878045022
62
254
0
LINE
8
Modules
10
27.0189672327
20
11.9878045022
11
20.8646336145
21
11.9259449887
62
254
0
LINE
8
Modules
10
20.8646336145
20
11.9259449887
11
20.9019946135
21
8.2089410287
62
254
0
LINE
8
Modules
10
24.3746871190
20
9.6924103912
11
24.3664432974
21
10.5125789614
62
254
0
LINE
8
Modules
10
24.3664432974
20
10.5125789614
11
23.5462747272
21
10.5043351397
62
254
0
LINE
8
Modules
10
23.5462747272
20
10.5043351397
11
23.5545185488
21
9.6841665695
62
254
0
LINE
8
Modules
10
23.5545185488
20
9.6841665695
11
24.3746871190
21
9.6924103912
62
254
0
LINE
8
Modules
10
24.3746871190
20
9.6924103912
11
23.5462747272
21
10.5043351397
62
254
0
TEXT
8
Modules
100
AcDbText
10
23.8656879762
20
9.7365093360
1
DC
7
NewTextStyle_4
40
0.2624672000000003
50
90.57588195801094
0
TEXT
8
Modules
100
AcDbText
10
24.3221794762
20
10.0199831900
1
DC
7
NewTextStyle_4
40
0.2624672000000003
50
90.57588195801094
0
LINE
8
Modules
10
20.8641009078
20
11.9670696270
11
27.0184345260
21
12.0289291405
62
254
0
LINE
8
Modules
10
27.0184345260
20
12.0289291405
11
26.9810735270
21
15.7459331006
62
254
0
LINE
8
Modules
10
26.9810735270
20
15.7459331006
11
20.8267399088
21
15.6840735871
62
254
0
LINE
8
Modules
10
20.8267399088
20
15.6840735871
11
20.8641009078
21
11.9670696270
62
254
0
LINE
8
Modules
10
24.3367934133
20
13.4505389895
11
24.3285495917
21
14.2707075597
62
254
0
LINE
8
Modules
10
24.3285495917
20
14.2707075597
11
23.5083810215
21
14.2624637381
62
254
0
LINE
8
Modules
10
23.5083810215
20
14.2624637381
11
23.5166248432
21
13.4422951679
62
254
0
LINE
8
Modules
10
23.5166248432
20
13.4422951679
11
24.3367934133
21
13.4505389895
62
254
0
LINE
8
Modules
10
24.3367934133
20
13.4505389895
11
23.5083810215
21
14.2624637381
62
254
0
TEXT
8
Modules
100
AcDbText
10
23.8277942705
20
13.4946379343
1
DC
7
NewTextStyle_4
40
0.2624672000000003
50
90.57588195801094
0
TEXT
8
Modules
100
AcDbText
10
24.2842857705
20
13.7781117883
1
DC
7
NewTextStyle_4
40
0.2624672000000003
50
90.57588195801094
0
LINE
8
Modules
10
20.8262072062
20
15.7251982280
11
26.9805408245
21
15.7870577415
62
254
0
LINE
8
Modules
10
26.9805408245
20
15.7870577415
11
26.9431798255
21
19.5040617015
62
254
0
LINE
8
Modules
10
26.9431798255
20
19.5040617015
11
20.7888462073
21
19.4422021880
62
254
0
LINE
8
Modules
10
20.7888462073
20
19.4422021880
11
20.8262072062
21
15.7251982280
62
254
0
LINE
8
Modules
10
24.2988997118
20
17.2086675905
11
24.2906558901
21
18.0288361607
62
254
0
LINE
8
Modules
10
24.2906558901
20
18.0288361607
11
23.4704873200
21
18.0205923390
62
254
0
LINE
8
Modules
10
23.4704873200
20
18.0205923390
11
23.4787311416
21
17.2004237688
62
254
0
LINE
8
Modules
10
23.4787311416
20
17.2004237688
11
24.2988997118
21
17.2086675905
62
254
0
LINE
8
Modules
10
24.2988997118
20
17.2086675905
11
23.4704873200
21
18.0205923390
62
254
0
TEXT
8
Modules
100
AcDbText
10
23.7899005690
20
17.2527665353
1
DC
7
NewTextStyle_4
40
0.2624672000000003
50
90.57588195801094
0
TEXT
8
Modules
100
AcDbText
10
24.2463920689
20
17.5362403893
1
DC
7
NewTextStyle_4
40
0.2624672000000003
50
90.57588195801094
0
LINE
8
Modules
10
20.7883135006
20
19.4833268263
11
26.9426471188
21
19.5451863398
62
254
0
LINE
8
Modules
10
26.9426471188
20
19.5451863398
11
26.9052861198
21
23.2621902999
62
254
0
LINE
8
Modules
10
26.9052861198
20
23.2621902999
11
20.7509525016
21
23.2003307864
62
254
0
LINE
8
Modules
10
20.7509525016
20
23.2003307864
11
20.7883135006
21
19.4833268263
62
254
0
LINE
8
Modules
10
24.2610060061
20
20.9667961889
11
24.2527621844
21
21.7869647590
62
254
0
LINE
8
Modules
10
24.2527621844
20
21.7869647590
11
23.4325936143
21
21.7787209374
62
254
0
LINE
8
Modules
10
23.4325936143
20
21.7787209374
11
23.4408374359
21
20.9585523672
62
254
0
LINE
8
Modules
10
23.4408374359
20
20.9585523672
11
24.2610060061
21
20.9667961889
62
254
0
LINE
8
Modules
10
24.2610060061
20
20.9667961889
11
23.4325936143
21
21.7787209374
62
254
0
TEXT
8
Modules
100
AcDbText
10
23.7520068633
20
21.0108951336
1
DC
7
NewTextStyle_4
40
0.2624672000000003
50
90.57588195801094
0
TEXT
8
Modules
100
AcDbText
10
24.2084983632
20
21.2943689876
1
DC
7
NewTextStyle_4
40
0.2624672000000003
50
90.57588195801094
0
LINE
8
Modules
10
20.7504197949
20
23.2414554247
11
26.9047534131
21
23.3033149382
62
254
0
LINE
8
Modules
10
26.9047534131
20
23.3033149382
11
26.8673924141
21
27.0203188982
62
254
0
LINE
8
Modules
10
26.8673924141
20
27.0203188982
11
20.7130587959
21
26.9584593847
62
254
0
LINE
8
Modules
10
20.7130587959
20
26.9584593847
11
20.7504197949
21
23.2414554247
62
254
0
LINE
8
Modules
10
24.2231123004
20
24.7249247872
11
24.2148684788
21
25.5450933574
62
254
0
LINE
8
Modules
10
24.2148684788
20
25.5450933574
11
23.3946999086
21
25.5368495357
62
254
0
LINE
8
Modules
10
23.3946999086
20
25.5368495357
11
23.4029437302
21
24.7166809656
62
254
0
LINE
8
Modules
10
23.4029437302
20
24.7166809656
11
24.2231123004
21
24.7249247872
62
254
0
LINE
8
Modules
10
24.2231123004
20
24.7249247872
11
23.3946999086
21
25.5368495357
62
254
0
TEXT
8
Modules
100
AcDbText
10
23.7141131576
20
24.7690237320
1
DC
7
NewTextStyle_4
40
0.2624672000000003
50
90.57588195801094
0
TEXT
8
Modules
100
AcDbText
10
24.1706046575
20
25.0524975860
1
DC
7
NewTextStyle_4
40
0.2624672000000003
50
90.57588195801094
0
LINE
8
Modules
10
20.7125260892
20
26.9995840230
11
26.8668597074
21
27.0614435366
62
254
0
LINE
8
Modules
10
26.8668597074
20
27.0614435366
11
26.8294987084
21
30.7784474966
62
254
0
LINE
8
Modules
10
26.8294987084
20
30.7784474966
11
20.6751650902
21
30.7165879831
62
254
0
LINE
8
Modules
10
20.6751650902
20
30.7165879831
11
20.7125260892
21
26.9995840230
62
254
0
LINE
8
Modules
10
24.1852185947
20
28.4830533856
11
24.1769747731
21
29.3032219557
62
254
0
LINE
8
Modules
10
24.1769747731
20
29.3032219557
11
23.3568062029
21
29.2949781341
62
254
0
LINE
8
Modules
10
23.3568062029
20
29.2949781341
11
23.3650500245
21
28.4748095639
62
254
0
LINE
8
Modules
10
23.3650500245
20
28.4748095639
11
24.1852185947
21
28.4830533856
62
254
0
LINE
8
Modules
10
24.1852185947
20
28.4830533856
11
23.3568062029
21
29.2949781341
62
254
0
TEXT
8
Modules
100
AcDbText
10
23.6762194519
20
28.5271523303
1
DC
7
NewTextStyle_4
40
0.2624672000000003
50
90.57588195801094
0
TEXT
8
Modules
100
AcDbText
10
24.1327109518
20
28.8106261843
1
DC
7
NewTextStyle_4
40
0.2624672000000003
50
90.57588195801094
0
LINE
8
Modules
10
15.2529177246
20
-38.4152277675
11
21.4072513428
21
-38.3533682540
62
254
0
LINE
8
Modules
10
21.4072513428
20
-38.3533682540
11
21.3698903438
21
-34.6363642939
62
254
0
LINE
8
Modules
10
21.3698903438
20
-34.6363642939
11
15.2155567256
21
-34.6982238075
62
254
0
LINE
8
Modules
10
15.2155567256
20
-34.6982238075
11
15.2529177246
21
-38.4152277675
62
254
0
LINE
8
Modules
10
18.7256102301
20
-36.9317584050
11
18.7173664085
21
-36.1115898348
62
254
0
LINE
8
Modules
10
18.7173664085
20
-36.1115898348
11
17.8971978383
21
-36.1198336565
62
254
0
LINE
8
Modules
10
17.8971978383
20
-36.1198336565
11
17.9054416600
21
-36.9400022266
62
254
0
LINE
8
Modules
10
17.9054416600
20
-36.9400022266
11
18.7256102301
21
-36.9317584050
62
254
0
LINE
8
Modules
10
18.7256102301
20
-36.9317584050
11
17.8971978383
21
-36.1198336565
62
254
0
TEXT
8
Modules
100
AcDbText
10
18.2166110873
20
-36.8876594602
1
DC
7
NewTextStyle_4
40
0.2624672000000003
50
90.57588195801094
0
TEXT
8
Modules
100
AcDbText
10
18.6731025873
20
-36.6041856062
1
DC
7
NewTextStyle_4
40
0.2624672000000003
50
90.57588195801094
0
LINE
8
Modules
10
15.2150240189
20
-34.6534469545
11
21.3693576371
21
-34.5915874409
62
254
0
LINE
8
Modules
10
21.3693576371
20
-34.5915874409
11
21.3319966382
21
-30.8745834809
62
254
0
LINE
8
Modules
10
21.3319966382
20
-30.8745834809
11
15.1776630200
21
-30.9364429944
62
254
0
LINE
8
Modules
10
15.1776630200
20
-30.9364429944
11
15.2150240189
21
-34.6534469545
62
254
0
LINE
8
Modules
10
18.6877165244
20
-33.1699775919
11
18.6794727028
21
-32.3498090218
62
254
0
LINE
8
Modules
10
18.6794727028
20
-32.3498090218
11
17.8593041326
21
-32.3580528434
62
254
0
LINE
8
Modules
10
17.8593041326
20
-32.3580528434
11
17.8675479543
21
-33.1782214136
62
254
0
LINE
8
Modules
10
17.8675479543
20
-33.1782214136
11
18.6877165244
21
-33.1699775919
62
254
0
LINE
8
Modules
10
18.6877165244
20
-33.1699775919
11
17.8593041326
21
-32.3580528434
62
254
0
TEXT
8
Modules
100
AcDbText
10
18.1787173816
20
-33.1258786472
1
DC
7
NewTextStyle_4
40
0.2624672000000003
50
90.57588195801094
0
TEXT
8
Modules
100
AcDbText
10
18.6352088816
20
-32.8424047932
1
DC
7
NewTextStyle_4
40
0.2624672000000003
50
90.57588195801094
0
LINE
8
Modules
10
15.1771303174
20
-30.8953183561
11
21.3314639356
21
-30.8334588426
62
254
0
LINE
8
Modules
10
21.3314639356
20
-30.8334588426
11
21.2941029366
21
-27.1164548825
62
254
0
LINE
8
Modules
10
21.2941029366
20
-27.1164548825
11
15.1397693184
21
-27.1783143961
62
254
0
LINE
8
Modules
10
15.1397693184
20
-27.1783143961
11
15.1771303174
21
-30.8953183561
62
254
0
LINE
8
Modules
10
18.6498228229
20
-29.4118489936
11
18.6415790012
21
-28.5916804234
62
254
0
LINE
8
Modules
10
18.6415790012
20
-28.5916804234
11
17.8214104311
21
-28.5999242451
62
254
0
LINE
8
Modules
10
17.8214104311
20
-28.5999242451
11
17.8296542527
21
-29.4200928152
62
254
0
LINE
8
Modules
10
17.8296542527
20
-29.4200928152
11
18.6498228229
21
-29.4118489936
62
254
0
LINE
8
Modules
10
18.6498228229
20
-29.4118489936
11
17.8214104311
21
-28.5999242451
62
254
0
TEXT
8
Modules
100
AcDbText
10
18.1408236801
20
-29.3677500488
1
DC
7
NewTextStyle_4
40
0.2624672000000003
50
90.57588195801094
0
TEXT
8
Modules
100
AcDbText
10
18.5973151800
20
-29.0842761948
1
DC
7
NewTextStyle_4
40
0.2624672000000003
50
90.57588195801094
0
LINE
8
Modules
10
15.1421515102
20
-27.1335375431
11
21.2964851284
21
-27.0716780296
62
254
0
LINE
8
Modules
10
21.2964851284
20
-27.0716780296
11
21.2591241294
21
-23.3546740695
62
254
0
LINE
8
Modules
10
21.2591241294
20
-23.3546740695
11
15.1047905112
21
-23.4165335830
62
254
0
LINE
8
Modules
10
15.1047905112
20
-23.4165335830
11
15.1421515102
21
-27.1335375431
62
254
0
LINE
8
Modules
10
18.6148440157
20
-25.6500681805
11
18.6066001941
21
-24.8298996104
62
254
0
LINE
8
Modules
10
18.6066001941
20
-24.8298996104
11
17.7864316239
21
-24.8381434320
62
254
0
LINE
8
Modules
10
17.7864316239
20
-24.8381434320
11
17.7946754456
21
-25.6583120022
62
254
0
LINE
8
Modules
10
17.7946754456
20
-25.6583120022
11
18.6148440157
21
-25.6500681805
62
254
0
LINE
8
Modules
10
18.6148440157
20
-25.6500681805
11
17.7864316239
21
-24.8381434320
62
254
0
TEXT
8
Modules
100
AcDbText
10
18.1058448729
20
-25.6059692358
1
DC
7
NewTextStyle_4
40
0.2624672000000003
50
90.57588195801094
0
TEXT
8
Modules
100
AcDbText
10
18.5623363729
20
-25.3224953818
1
DC
7
NewTextStyle_4
40
0.2624672000000003
50
90.57588195801094
0
LINE
8
Modules
10
15.1042578045
20
-23.3754089447
11
21.2585914227
21
-23.3135494312
62
254
0
LINE
8
Modules
10
21.2585914227
20
-23.3135494312
11
21.2212304238
21
-19.5965454712
62
254
0
LINE
8
Modules
10
21.2212304238
20
-19.5965454712
11
15.0668968056
21
-19.6584049847
62
254
0
LINE
8
Modules
10
15.0668968056
20
-19.6584049847
11
15.1042578045
21
-23.3754089447
62
254
0
LINE
8
Modules
10
18.5769503100
20
-21.8919395822
11
18.5687064884
21
-21.0717710120
62
254
0
LINE
8
Modules
10
18.5687064884
20
-21.0717710120
11
17.7485379182
21
-21.0800148337
62
254
0
LINE
8
Modules
10
17.7485379182
20
-21.0800148337
11
17.7567817399
21
-21.9001834038
62
254
0
LINE
8
Modules
10
17.7567817399
20
-21.9001834038
11
18.5769503100
21
-21.8919395822
62
254
0
LINE
8
Modules
10
18.5769503100
20
-21.8919395822
11
17.7485379182
21
-21.0800148337
62
254
0
TEXT
8
Modules
100
AcDbText
10
18.0679511672
20
-21.8478406374
1
DC
7
NewTextStyle_4
40
0.2624672000000003
50
90.57588195801094
0
TEXT
8
Modules
100
AcDbText
10
18.5244426672
20
-21.5643667834
1
DC
7
NewTextStyle_4
40
0.2624672000000003
50
90.57588195801094
0
LINE
8
Modules
10
14.7865336664
20
0.6269439728
11
20.9408672846
21
0.6888034864
62
254
0
LINE
8
Modules
10
20.9408672846
20
0.6888034864
11
20.9035062856
21
4.4058074464
62
254
0
LINE
8
Modules
10
20.9035062856
20
4.4058074464
11
14.7491726674
21
4.3439479329
62
254
0
LINE
8
Modules
10
14.7491726674
20
4.3439479329
11
14.7865336664
21
0.6269439728
62
254
0
LINE
8
Modules
10
18.2592261719
20
2.1104133354
11
18.2509823502
21
2.9305819055
62
254
0
LINE
8
Modules
10
18.2509823502
20
2.9305819055
11
17.4308137801
21
2.9223380839
62
254
0
LINE
8
Modules
10
17.4308137801
20
2.9223380839
11
17.4390576017
21
2.1021695137
62
254
0
LINE
8
Modules
10
17.4390576017
20
2.1021695137
11
18.2592261719
21
2.1104133354
62
254
0
LINE
8
Modules
10
18.2592261719
20
2.1104133354
11
17.4308137801
21
2.9223380839
62
254
0
TEXT
8
Modules
100
AcDbText
10
17.7502270291
20
2.1545122801
1
DC
7
NewTextStyle_4
40
0.2624672000000003
50
90.57588195801094
0
TEXT
8
Modules
100
AcDbText
10
18.2067185290
20
2.4379861341
1
DC
7
NewTextStyle_4
40
0.2624672000000003
50
90.57588195801094
0
LINE
8
Modules
10
14.7486399648
20
4.3850725712
11
20.9029735830
21
4.4469320847
62
254
0
LINE
8
Modules
10
20.9029735830
20
4.4469320847
11
20.8656125841
21
8.1639360448
62
254
0
LINE
8
Modules
10
20.8656125841
20
8.1639360448
11
14.7112789659
21
8.1020765312
62
254
0
LINE
8
Modules
10
14.7112789659
20
8.1020765312
11
14.7486399648
21
4.3850725712
62
254
0
LINE
8
Modules
10
18.2213324704
20
5.8685419337
11
18.2130886487
21
6.6887105039
62
254
0
LINE
8
Modules
10
18.2130886487
20
6.6887105039
11
17.3929200785
21
6.6804666822
62
254
0
LINE
8
Modules
10
17.3929200785
20
6.6804666822
11
17.4011639002
21
5.8602981121
62
254
0
LINE
8
Modules
10
17.4011639002
20
5.8602981121
11
18.2213324704
21
5.8685419337
62
254
0
LINE
8
Modules
10
18.2213324704
20
5.8685419337
11
17.3929200785
21
6.6804666822
62
254
0
TEXT
8
Modules
100
AcDbText
10
17.7123333275
20
5.9126408785
1
DC
7
NewTextStyle_4
40
0.2624672000000003
50
90.57588195801094
0
TEXT
8
Modules
100
AcDbText
10
18.1688248275
20
6.1961147325
1
DC
7
NewTextStyle_4
40
0.2624672000000003
50
90.57588195801094
0
LINE
8
Modules
10
14.7107462591
20
8.1468533842
11
20.8650798773
21
8.2087128977
62
254
0
LINE
8
Modules
10
20.8650798773
20
8.2087128977
11
20.8277188784
21
11.9257168578
62
254
0
LINE
8
Modules
10
20.8277188784
20
11.9257168578
11
14.6733852602
21
11.8638573443
62
254
0
LINE
8
Modules
10
14.6733852602
20
11.8638573443
11
14.7107462591
21
8.1468533842
62
254
0
LINE
8
Modules
10
18.1834387647
20
9.6303227468
11
18.1751949430
21
10.4504913169
62
254
0
LINE
8
Modules
10
18.1751949430
20
10.4504913169
11
17.3550263728
21
10.4422474953
62
254
0
LINE
8
Modules
10
17.3550263728
20
10.4422474953
11
17.3632701945
21
9.6220789251
62
254
0
LINE
8
Modules
10
17.3632701945
20
9.6220789251
11
18.1834387647
21
9.6303227468
62
254
0
LINE
8
Modules
10
18.1834387647
20
9.6303227468
11
17.3550263728
21
10.4422474953
62
254
0
TEXT
8
Modules
100
AcDbText
10
17.6744396219
20
9.6744216915
1
DC
7
NewTextStyle_4
40
0.2624672000000003
50
90.57588195801094
0
TEXT
8
Modules
100
AcDbText
10
18.1309311218
20
9.9578955455
1
DC
7
NewTextStyle_4
40
0.2624672000000003
50
90.57588195801094
0
LINE
8
Modules
10
14.6728525534
20
11.9049819826
11
20.8271861716
21
11.9668414961
62
254
0
LINE
8
Modules
10
20.8271861716
20
11.9668414961
11
20.7898251727
21
15.6838454562
62
254
0
LINE
8
Modules
10
20.7898251727
20
15.6838454562
11
14.6354915545
21
15.6219859426
62
254
0
LINE
8
Modules
10
14.6354915545
20
15.6219859426
11
14.6728525534
21
11.9049819826
62
254
0
LINE
8
Modules
10
18.1455450590
20
13.3884513451
11
18.1373012373
21
14.2086199153
62
254
0
LINE
8
Modules
10
18.1373012373
20
14.2086199153
11
17.3171326671
21
14.2003760936
62
254
0
LINE
8
Modules
10
17.3171326671
20
14.2003760936
11
17.3253764888
21
13.3802075235
62
254
0
LINE
8
Modules
10
17.3253764888
20
13.3802075235
11
18.1455450590
21
13.3884513451
62
254
0
LINE
8
Modules
10
18.1455450590
20
13.3884513451
11
17.3171326671
21
14.2003760936
62
254
0
TEXT
8
Modules
100
AcDbText
10
17.6365459162
20
13.4325502899
1
DC
7
NewTextStyle_4
40
0.2624672000000003
50
90.57588195801094
0
TEXT
8
Modules
100
AcDbText
10
18.0930374161
20
13.7160241439
1
DC
7
NewTextStyle_4
40
0.2624672000000003
50
90.57588195801094
0
LINE
8
Modules
10
14.4833840291
20
30.6992771916
11
20.6377176473
21
30.7611367052
62
254
0
LINE
8
Modules
10
20.6377176473
20
30.7611367052
11
20.6003566484
21
34.4781406652
62
254
0
LINE
8
Modules
10
20.6003566484
20
34.4781406652
11
14.4460230302
21
34.4162811517
62
254
0
LINE
8
Modules
10
14.4460230302
20
34.4162811517
11
14.4833840291
21
30.6992771916
62
254
0
LINE
8
Modules
10
17.9560765347
20
32.1827465542
11
17.9478327130
21
33.0029151243
62
254
0
LINE
8
Modules
10
17.9478327130
20
33.0029151243
11
17.1276641428
21
32.9946713027
62
254
0
LINE
8
Modules
10
17.1276641428
20
32.9946713027
11
17.1359079645
21
32.1745027325
62
254
0
LINE
8
Modules
10
17.1359079645
20
32.1745027325
11
17.9560765347
21
32.1827465542
62
254
0
LINE
8
Modules
10
17.9560765347
20
32.1827465542
11
17.1276641428
21
32.9946713027
62
254
0
TEXT
8
Modules
100
AcDbText
10
17.4470773919
20
32.2268454989
1
DC
7
NewTextStyle_4
40
0.2624672000000003
50
90.57588195801094
0
TEXT
8
Modules
100
AcDbText
10
17.9035688918
20
32.5103193529
1
DC
7
NewTextStyle_4
40
0.2624672000000003
50
90.57588195801094
0
LINE
8
Modules
10
-0.5851391342
20
19.3579731246
11
-6.7394727524
21
19.2961136110
62
254
0
LINE
8
Modules
10
-6.7394727524
20
19.2961136110
11
-6.7021117535
21
15.5791096510
62
254
0
LINE
8
Modules
10
-6.7021117535
20
15.5791096510
11
-0.5477781353
21
15.6409691645
62
254
0
LINE
8
Modules
10
-0.5477781353
20
15.6409691645
11
-0.5851391342
21
19.3579731246
62
254
0
LINE
8
Modules
10
-4.0578316398
20
17.8745037620
11
-4.0495878181
21
17.0543351919
62
254
0
LINE
8
Modules
10
-4.0495878181
20
17.0543351919
11
-3.2294192479
21
17.0625790135
62
254
0
LINE
8
Modules
10
-3.2294192479
20
17.0625790135
11
-3.2376630696
21
17.8827475837
62
254
0
LINE
8
Modules
10
-3.2376630696
20
17.8827475837
11
-4.0578316398
21
17.8745037620
62
254
0
LINE
8
Modules
10
-4.0578316398
20
17.8745037620
11
-3.2294192479
21
17.0625790135
62
254
0
TEXT
8
Modules
100
AcDbText
10
-3.5488324970
20
17.8304048173
1
DC
7
NewTextStyle_4
40
0.2624672000000003
50
-89.42411804198186
0
TEXT
8
Modules
100
AcDbText
10
-4.0053239969
20
17.5469309633
1
DC
7
NewTextStyle_4
40
0.2624672000000003
50
-89.42411804198186
0
LINE
8
Modules
10
9.0995630718
20
-42.2354440103
11
15.2538966900
21
-42.1735844968
62
254
0
LINE
8
Modules
10
15.2538966900
20
-42.1735844968
11
15.2165356910
21
-38.4565805367
62
254
0
LINE
8
Modules
10
15.2165356910
20
-38.4565805367
11
9.0622020728
21
-38.5184400502
62
254
0
LINE
8
Modules
10
9.0622020728
20
-38.5184400502
11
9.0995630718
21
-42.2354440103
62
254
0
LINE
8
Modules
10
12.5722555773
20
-40.7519746478
11
12.5640117557
21
-39.9318060776
62
254
0
LINE
8
Modules
10
12.5640117557
20
-39.9318060776
11
11.7438431855
21
-39.9400498993
62
254
0
LINE
8
Modules
10
11.7438431855
20
-39.9400498993
11
11.7520870071
21
-40.7602184694
62
254
0
LINE
8
Modules
10
11.7520870071
20
-40.7602184694
11
12.5722555773
21
-40.7519746478
62
254
0
LINE
8
Modules
10
12.5722555773
20
-40.7519746478
11
11.7438431855
21
-39.9400498993
62
254
0
TEXT
8
Modules
100
AcDbText
10
12.0632564345
20
-40.7078757030
1
DC
7
NewTextStyle_4
40
0.2624672000000003
50
90.57588195801094
0
TEXT
8
Modules
100
AcDbText
10
12.5197479344
20
-40.4244018490
1
DC
7
NewTextStyle_4
40
0.2624672000000003
50
90.57588195801094
0
LINE
8
Modules
10
9.0616693702
20
-38.4773154119
11
15.2160029884
21
-38.4154558984
62
254
0
LINE
8
Modules
10
15.2160029884
20
-38.4154558984
11
15.1786419895
21
-34.6984519384
62
254
0
LINE
8
Modules
10
15.1786419895
20
-34.6984519384
11
9.0243083713
21
-34.7603114519
62
254
0
LINE
8
Modules
10
9.0243083713
20
-34.7603114519
11
9.0616693702
21
-38.4773154119
62
254
0
LINE
8
Modules
10
12.5343618758
20
-36.9938460494
11
12.5261180541
21
-36.1736774792
62
254
0
LINE
8
Modules
10
12.5261180541
20
-36.1736774792
11
11.7059494839
21
-36.1819213009
62
254
0
LINE
8
Modules
10
11.7059494839
20
-36.1819213009
11
11.7141933056
21
-37.0020898711
62
254
0
LINE
8
Modules
10
11.7141933056
20
-37.0020898711
11
12.5343618758
21
-36.9938460494
62
254
0
LINE
8
Modules
10
12.5343618758
20
-36.9938460494
11
11.7059494839
21
-36.1819213009
62
254
0
TEXT
8
Modules
100
AcDbText
10
12.0253627330
20
-36.9497471046
1
DC
7
NewTextStyle_4
40
0.2624672000000003
50
90.57588195801094
0
TEXT
8
Modules
100
AcDbText
10
12.4818542329
20
-36.6662732506
1
DC
7
NewTextStyle_4
40
0.2624672000000003
50
90.57588195801094
0
LINE
8
Modules
10
9.0237756645
20
-34.7191868136
11
15.1781092827
21
-34.6573273001
62
254
0
LINE
8
Modules
10
15.1781092827
20
-34.6573273001
11
15.1407482838
21
-30.9403233400
62
254
0
LINE
8
Modules
10
15.1407482838
20
-30.9403233400
11
8.9864146656
21
-31.0021828535
62
254
0
LINE
8
Modules
10
8.9864146656
20
-31.0021828535
11
9.0237756645
21
-34.7191868136
62
254
0
LINE
8
Modules
10
12.4964681701
20
-33.2357174511
11
12.4882243484
21
-32.4155488809
62
254
0
LINE
8
Modules
10
12.4882243484
20
-32.4155488809
11
11.6680557783
21
-32.4237927025
62
254
0
LINE
8
Modules
10
11.6680557783
20
-32.4237927025
11
11.6762995999
21
-33.2439612727
62
254
0
LINE
8
Modules
10
11.6762995999
20
-33.2439612727
11
12.4964681701
21
-33.2357174511
62
254
0
LINE
8
Modules
10
12.4964681701
20
-33.2357174511
11
11.6680557783
21
-32.4237927025
62
254
0
TEXT
8
Modules
100
AcDbText
10
11.9874690273
20
-33.1916185063
1
DC
7
NewTextStyle_4
40
0.2624672000000003
50
90.57588195801094
0
TEXT
8
Modules
100
AcDbText
10
12.4439605272
20
-32.9081446523
1
DC
7
NewTextStyle_4
40
0.2624672000000003
50
90.57588195801094
0
LINE
8
Modules
10
8.9858819588
20
-30.9574060005
11
15.1402155771
21
-30.8955464870
62
254
0
LINE
8
Modules
10
15.1402155771
20
-30.8955464870
11
15.1028545781
21
-27.1785425270
62
254
0
LINE
8
Modules
10
15.1028545781
20
-27.1785425270
11
8.9485209599
21
-27.2404020405
62
254
0
LINE
8
Modules
10
8.9485209599
20
-27.2404020405
11
8.9858819588
21
-30.9574060005
62
254
0
LINE
8
Modules
10
12.4585744644
20
-29.4739366380
11
12.4503306427
21
-28.6537680678
62
254
0
LINE
8
Modules
10
12.4503306427
20
-28.6537680678
11
11.6301620726
21
-28.6620118895
62
254
0
LINE
8
Modules
10
11.6301620726
20
-28.6620118895
11
11.6384058942
21
-29.4821804597
62
254
0
LINE
8
Modules
10
11.6384058942
20
-29.4821804597
11
12.4585744644
21
-29.4739366380
62
254
0
LINE
8
Modules
10
12.4585744644
20
-29.4739366380
11
11.6301620726
21
-28.6620118895
62
254
0
TEXT
8
Modules
100
AcDbText
10
11.9495753216
20
-29.4298376932
1
DC
7
NewTextStyle_4
40
0.2624672000000003
50
90.57588195801094
0
TEXT
8
Modules
100
AcDbText
10
12.4060668215
20
-29.1463638393
1
DC
7
NewTextStyle_4
40
0.2624672000000003
50
90.57588195801094
0
LINE
8
Modules
10
8.9479882532
20
-27.1956251875
11
15.1023218714
21
-27.1337656740
62
254
0
LINE
8
Modules
10
15.1023218714
20
-27.1337656740
11
15.0649608724
21
-23.4167617139
62
254
0
LINE
8
Modules
10
15.0649608724
20
-23.4167617139
11
8.9106272542
21
-23.4786212275
62
254
0
LINE
8
Modules
10
8.9106272542
20
-23.4786212275
11
8.9479882532
21
-27.1956251875
62
254
0
LINE
8
Modules
10
12.4206807587
20
-25.7121558250
11
12.4124369370
21
-24.8919872548
62
254
0
LINE
8
Modules
10
12.4124369370
20
-24.8919872548
11
11.5922683669
21
-24.9002310765
62
254
0
LINE
8
Modules
10
11.5922683669
20
-24.9002310765
11
11.6005121885
21
-25.7203996466
62
254
0
LINE
8
Modules
10
11.6005121885
20
-25.7203996466
11
12.4206807587
21
-25.7121558250
62
254
0
LINE
8
Modules
10
12.4206807587
20
-25.7121558250
11
11.5922683669
21
-24.9002310765
62
254
0
TEXT
8
Modules
100
AcDbText
10
11.9116816159
20
-25.6680568802
1
DC
7
NewTextStyle_4
40
0.2624672000000003
50
90.57588195801094
0
TEXT
8
Modules
100
AcDbText
10
12.3681731158
20
-25.3845830262
1
DC
7
NewTextStyle_4
40
0.2624672000000003
50
90.57588195801094
0
LINE
8
Modules
10
8.9100945516
20
-23.4374965892
11
15.0644281698
21
-23.3756370756
62
254
0
LINE
8
Modules
10
15.0644281698
20
-23.3756370756
11
15.0270671709
21
-19.6586331156
62
254
0
LINE
8
Modules
10
15.0270671709
20
-19.6586331156
11
8.8727335527
21
-19.7204926291
62
254
0
LINE
8
Modules
10
8.8727335527
20
-19.7204926291
11
8.9100945516
21
-23.4374965892
62
254
0
LINE
8
Modules
10
12.3827870572
20
-21.9540272266
11
12.3745432355
21
-21.1338586565
62
254
0
LINE
8
Modules
10
12.3745432355
20
-21.1338586565
11
11.5543746653
21
-21.1421024781
62
254
0
LINE
8
Modules
10
11.5543746653
20
-21.1421024781
11
11.5626184870
21
-21.9622710483
62
254
0
LINE
8
Modules
10
11.5626184870
20
-21.9622710483
11
12.3827870572
21
-21.9540272266
62
254
0
LINE
8
Modules
10
12.3827870572
20
-21.9540272266
11
11.5543746653
21
-21.1421024781
62
254
0
TEXT
8
Modules
100
AcDbText
10
11.8737879143
20
-21.9099282818
1
DC
7
NewTextStyle_4
40
0.2624672000000003
50
90.57588195801094
0
TEXT
8
Modules
100
AcDbText
10
12.3302794143
20
-21.6264544279
1
DC
7
NewTextStyle_4
40
0.2624672000000003
50
90.57588195801094
0
LINE
8
Modules
10
8.8722008459
20
-19.6793679908
11
15.0265344641
21
-19.6175084773
62
254
0
LINE
8
Modules
10
15.0265344641
20
-19.6175084773
11
14.9891734652
21
-15.9005045172
62
254
0
LINE
8
Modules
10
14.9891734652
20
-15.9005045172
11
8.8348398470
21
-15.9623640307
62
254
0
LINE
8
Modules
10
8.8348398470
20
-15.9623640307
11
8.8722008459
21
-19.6793679908
62
254
0
LINE
8
Modules
10
12.3448933515
20
-18.1958986283
11
12.3366495298
21
-17.3757300581
62
254
0
LINE
8
Modules
10
12.3366495298
20
-17.3757300581
11
11.5164809596
21
-17.3839738798
62
254
0
LINE
8
Modules
10
11.5164809596
20
-17.3839738798
11
11.5247247813
21
-18.2041424499
62
254
0
LINE
8
Modules
10
11.5247247813
20
-18.2041424499
11
12.3448933515
21
-18.1958986283
62
254
0
LINE
8
Modules
10
12.3448933515
20
-18.1958986283
11
11.5164809596
21
-17.3839738798
62
254
0
TEXT
8
Modules
100
AcDbText
10
11.8358942087
20
-18.1517996835
1
DC
7
NewTextStyle_4
40
0.2624672000000003
50
90.57588195801094
0
TEXT
8
Modules
100
AcDbText
10
12.2923857086
20
-17.8683258295
1
DC
7
NewTextStyle_4
40
0.2624672000000003
50
90.57588195801094
0
LINE
8
Modules
10
8.6331790177
20
-3.1932722699
11
14.7875126359
21
-3.1314127564
62
254
0
LINE
8
Modules
10
14.7875126359
20
-3.1314127564
11
14.7501516369
21
0.5855912036
62
254
0
LINE
8
Modules
10
14.7501516369
20
0.5855912036
11
8.5958180187
21
0.5237316901
62
254
0
LINE
8
Modules
10
8.5958180187
20
0.5237316901
11
8.6331790177
21
-3.1932722699
62
254
0
LINE
8
Modules
10
12.1058715232
20
-1.7098029074
11
12.0976277016
21
-0.8896343373
62
254
0
LINE
8
Modules
10
12.0976277016
20
-0.8896343373
11
11.2774591314
21
-0.8978781589
62
254
0
LINE
8
Modules
10
11.2774591314
20
-0.8978781589
11
11.2857029530
21
-1.7180467291
62
254
0
LINE
8
Modules
10
11.2857029530
20
-1.7180467291
11
12.1058715232
21
-1.7098029074
62
254
0
LINE
8
Modules
10
12.1058715232
20
-1.7098029074
11
11.2774591314
21
-0.8978781589
62
254
0
TEXT
8
Modules
100
AcDbText
10
11.5968723804
20
-1.6657039626
1
DC
7
NewTextStyle_4
40
0.2624672000000003
50
90.57588195801094
0
TEXT
8
Modules
100
AcDbText
10
12.0533638803
20
-1.3822301087
1
DC
7
NewTextStyle_4
40
0.2624672000000003
50
90.57588195801094
0
LINE
8
Modules
10
8.5952853120
20
0.5648563284
11
14.7496189302
21
0.6267158419
62
254
0
LINE
8
Modules
10
14.7496189302
20
0.6267158419
11
14.7122579312
21
4.3437198020
62
254
0
LINE
8
Modules
10
14.7122579312
20
4.3437198020
11
8.5579243130
21
4.2818602885
62
254
0
LINE
8
Modules
10
8.5579243130
20
4.2818602885
11
8.5952853120
21
0.5648563284
62
254
0
LINE
8
Modules
10
12.0679778175
20
2.0483256909
11
12.0597339959
21
2.8684942611
62
254
0
LINE
8
Modules
10
12.0597339959
20
2.8684942611
11
11.2395654257
21
2.8602504394
62
254
0
LINE
8
Modules
10
11.2395654257
20
2.8602504394
11
11.2478092474
21
2.0400818693
62
254
0
LINE
8
Modules
10
11.2478092474
20
2.0400818693
11
12.0679778175
21
2.0483256909
62
254
0
LINE
8
Modules
10
12.0679778175
20
2.0483256909
11
11.2395654257
21
2.8602504394
62
254
0
TEXT
8
Modules
100
AcDbText
10
11.5589786747
20
2.0924246357
1
DC
7
NewTextStyle_4
40
0.2624672000000003
50
90.57588195801094
0
TEXT
8
Modules
100
AcDbText
10
12.0154701747
20
2.3758984897
1
DC
7
NewTextStyle_4
40
0.2624672000000003
50
90.57588195801094
0
LINE
8
Modules
10
8.5573916063
20
4.3229849268
11
14.7117252245
21
4.3848444403
62
254
0
LINE
8
Modules
10
14.7117252245
20
4.3848444403
11
14.6743642256
21
8.1018484003
62
254
0
LINE
8
Modules
10
14.6743642256
20
8.1018484003
11
8.5200306073
21
8.0399888868
62
254
0
LINE
8
Modules
10
8.5200306073
20
8.0399888868
11
8.5573916063
21
4.3229849268
62
254
0
LINE
8
Modules
10
12.0300841118
20
5.8064542893
11
12.0218402902
21
6.6266228595
62
254
0
LINE
8
Modules
10
12.0218402902
20
6.6266228595
11
11.2016717200
21
6.6183790378
62
254
0
LINE
8
Modules
10
11.2016717200
20
6.6183790378
11
11.2099155417
21
5.7982104676
62
254
0
LINE
8
Modules
10
11.2099155417
20
5.7982104676
11
12.0300841118
21
5.8064542893
62
254
0
LINE
8
Modules
10
12.0300841118
20
5.8064542893
11
11.2016717200
21
6.6183790378
62
254
0
TEXT
8
Modules
100
AcDbText
10
11.5210849690
20
5.8505532341
1
DC
7
NewTextStyle_4
40
0.2624672000000003
50
90.57588195801094
0
TEXT
8
Modules
100
AcDbText
10
11.9775764690
20
6.1340270881
1
DC
7
NewTextStyle_4
40
0.2624672000000003
50
90.57588195801094
0
LINE
8
Modules
10
8.5194979006
20
8.0847657398
11
14.6738315188
21
8.1466252533
62
254
0
LINE
8
Modules
10
14.6738315188
20
8.1466252533
11
14.6364705199
21
11.8636292134
62
254
0
LINE
8
Modules
10
14.6364705199
20
11.8636292134
11
8.4821369017
21
11.8017696998
62
254
0
LINE
8
Modules
10
8.4821369017
20
11.8017696998
11
8.5194979006
21
8.0847657398
62
254
0
LINE
8
Modules
10
11.9921904062
20
9.5682351023
11
11.9839465845
21
10.3884036725
62
254
0
LINE
8
Modules
10
11.9839465845
20
10.3884036725
11
11.1637780143
21
10.3801598508
62
254
0
LINE
8
Modules
10
11.1637780143
20
10.3801598508
11
11.1720218360
21
9.5599912807
62
254
0
LINE
8
Modules
10
11.1720218360
20
9.5599912807
11
11.9921904062
21
9.5682351023
62
254
0
LINE
8
Modules
10
11.9921904062
20
9.5682351023
11
11.1637780143
21
10.3801598508
62
254
0
TEXT
8
Modules
100
AcDbText
10
11.4831912633
20
9.6123340471
1
DC
7
NewTextStyle_4
40
0.2624672000000003
50
90.57588195801094
0
TEXT
8
Modules
100
AcDbText
10
11.9396827633
20
9.8958079011
1
DC
7
NewTextStyle_4
40
0.2624672000000003
50
90.57588195801094
0
LINE
8
Modules
10
8.4816041991
20
11.8428943382
11
14.6359378173
21
11.9047538517
62
254
0
LINE
8
Modules
10
14.6359378173
20
11.9047538517
11
14.5985768183
21
15.6217578117
62
254
0
LINE
8
Modules
10
14.5985768183
20
15.6217578117
11
8.4442432001
21
15.5598982982
62
254
0
LINE
8
Modules
10
8.4442432001
20
15.5598982982
11
8.4816041991
21
11.8428943382
62
254
0
LINE
8
Modules
10
11.9542967046
20
13.3263637007
11
11.9460528830
21
14.1465322708
62
254
0
LINE
8
Modules
10
11.9460528830
20
14.1465322708
11
11.1258843128
21
14.1382884492
62
254
0
LINE
8
Modules
10
11.1258843128
20
14.1382884492
11
11.1341281344
21
13.3181198790
62
254
0
LINE
8
Modules
10
11.1341281344
20
13.3181198790
11
11.9542967046
21
13.3263637007
62
254
0
LINE
8
Modules
10
11.9542967046
20
13.3263637007
11
11.1258843128
21
14.1382884492
62
254
0
TEXT
8
Modules
100
AcDbText
10
11.4452975618
20
13.3704626455
1
DC
7
NewTextStyle_4
40
0.2624672000000003
50
90.57588195801094
0
TEXT
8
Modules
100
AcDbText
10
11.9017890617
20
13.6539364994
1
DC
7
NewTextStyle_4
40
0.2624672000000003
50
90.57588195801094
0
LINE
8
Modules
10
8.8372221455
20
-15.9212393888
11
14.9915555585
21
-15.8593798774
62
254
0
LINE
8
Modules
10
14.9915555585
20
-15.8593798774
11
14.9541945596
21
-12.1423759173
62
254
0
LINE
8
Modules
10
14.9541945596
20
-12.1423759173
11
8.7998611465
21
-12.2042354288
62
254
0
LINE
8
Modules
10
8.7998611465
20
-12.2042354288
11
8.8372221455
21
-15.9212393888
62
254
0
LINE
8
Modules
10
12.3099145484
20
-14.4377700273
11
12.3016707268
21
-13.6176014572
62
254
0
LINE
8
Modules
10
12.3016707268
20
-13.6176014572
11
11.4815021566
21
-13.6258452788
62
254
0
LINE
8
Modules
10
11.4815021566
20
-13.6258452788
11
11.4897459783
21
-14.4460138490
62
254
0
LINE
8
Modules
10
11.4897459783
20
-14.4460138490
11
12.3099145484
21
-14.4377700273
62
254
0
LINE
8
Modules
10
12.3099145484
20
-14.4377700273
11
11.4815021566
21
-13.6258452788
62
254
0
TEXT
8
Modules
100
AcDbText
10
11.8009154056
20
-14.3936710825
1
DC
7
NewTextStyle_4
40
0.2624672000000003
50
90.57588195802207
0
TEXT
8
Modules
100
AcDbText
10
12.2574069056
20
-14.1101972286
1
DC
7
NewTextStyle_4
40
0.2624672000000003
50
90.57588195802207
0
LINE
8
Modules
10
5.9209183572
20
-12.1241148465
11
-0.2334150559
21
-12.1859743579
62
254
0
LINE
8
Modules
10
-0.2334150559
20
-12.1859743579
11
-0.1960540569
21
-15.9029783180
62
254
0
LINE
8
Modules
10
-0.1960540569
20
-15.9029783180
11
5.9582793561
21
-15.8411188065
62
254
0
LINE
8
Modules
10
5.9582793561
20
-15.8411188065
11
5.9209183572
21
-12.1241148465
62
254
0
LINE
8
Modules
10
2.4482259542
20
-13.6075842080
11
2.4564697759
21
-14.4277527782
62
254
0
LINE
8
Modules
10
2.4564697759
20
-14.4277527782
11
3.2766383461
21
-14.4195089565
62
254
0
LINE
8
Modules
10
3.2766383461
20
-14.4195089565
11
3.2683945244
21
-13.5993403863
62
254
0
LINE
8
Modules
10
3.2683945244
20
-13.5993403863
11
2.4482259542
21
-13.6075842080
62
254
0
LINE
8
Modules
10
2.4482259542
20
-13.6075842080
11
3.2766383461
21
-14.4195089565
62
254
0
TEXT
8
Modules
100
AcDbText
10
2.9572250970
20
-13.6516831528
1
DC
7
NewTextStyle_4
40
0.2624672000000003
50
-89.42411804197069
0
TEXT
8
Modules
100
AcDbText
10
2.5007335971
20
-13.9351570068
1
DC
7
NewTextStyle_4
40
0.2624672000000003
50
-89.42411804197069
0
LINE
8
Modules
10
5.8305564449
20
-3.1323630394
11
-0.3237769681
21
-3.1942225509
62
254
0
LINE
8
Modules
10
-0.3237769681
20
-3.1942225509
11
-0.2864159692
21
-6.9112265109
62
254
0
LINE
8
Modules
10
-0.2864159692
20
-6.9112265109
11
5.8679174438
21
-6.8493669995
62
254
0
LINE
8
Modules
10
5.8679174438
20
-6.8493669995
11
5.8305564449
21
-3.1323630394
62
254
0
LINE
8
Modules
10
2.3578640419
20
-4.6158324009
11
2.3661078636
21
-5.4360009711
62
254
0
LINE
8
Modules
10
2.3661078636
20
-5.4360009711
11
3.1862764338
21
-5.4277571495
62
254
0
LINE
8
Modules
10
3.1862764338
20
-5.4277571495
11
3.1780326121
21
-4.6075885793
62
254
0
LINE
8
Modules
10
3.1780326121
20
-4.6075885793
11
2.3578640419
21
-4.6158324009
62
254
0
LINE
8
Modules
10
2.3578640419
20
-4.6158324009
11
3.1862764338
21
-5.4277571495
62
254
0
TEXT
8
Modules
100
AcDbText
10
2.8668631847
20
-4.6599313457
1
DC
7
NewTextStyle_4
40
0.2624672000000003
50
-89.42411804197069
0
TEXT
8
Modules
100
AcDbText
10
2.4103716848
20
-4.9434051997
1
DC
7
NewTextStyle_4
40
0.2624672000000003
50
-89.42411804197069
0
LINE
8
Modules
10
8.6710728218
20
-6.9514008673
11
14.8254062348
21
-6.8895413558
62
254
0
LINE
8
Modules
10
14.8254062348
20
-6.8895413558
11
14.7880452359
21
-3.1725373958
62
254
0
LINE
8
Modules
10
14.7880452359
20
-3.1725373958
11
8.6337118229
21
-3.2343969072
62
254
0
LINE
8
Modules
10
8.6337118229
20
-3.2343969072
11
8.6710728218
21
-6.9514008673
62
254
0
LINE
8
Modules
10
12.1437652248
20
-5.4679315058
11
12.1355214031
21
-4.6477629356
62
254
0
LINE
8
Modules
10
12.1355214031
20
-4.6477629356
11
11.3153528329
21
-4.6560067573
62
254
0
LINE
8
Modules
10
11.3153528329
20
-4.6560067573
11
11.3235966546
21
-5.4761753274
62
254
0
LINE
8
Modules
10
11.3235966546
20
-5.4761753274
11
12.1437652248
21
-5.4679315058
62
254
0
LINE
8
Modules
10
12.1437652248
20
-5.4679315058
11
11.3153528329
21
-4.6560067573
62
254
0
TEXT
8
Modules
100
AcDbText
10
11.6347660820
20
-5.4238325610
1
DC
7
NewTextStyle_4
40
0.2624672000000003
50
90.57588195802207
0
TEXT
8
Modules
100
AcDbText
10
12.0912575819
20
-5.1403587070
1
DC
7
NewTextStyle_4
40
0.2624672000000003
50
90.57588195802207
0
LINE
8
Modules
10
20.6746324902
20
30.7613648371
11
26.8289659032
21
30.8232243486
62
254
0
LINE
8
Modules
10
26.8289659032
20
30.8232243486
11
26.7916049043
21
34.5402283086
62
254
0
LINE
8
Modules
10
26.7916049043
20
34.5402283086
11
20.6372714913
21
34.4783687972
62
254
0
LINE
8
Modules
10
20.6372714913
20
34.4783687972
11
20.6746324902
21
30.7613648371
62
254
0
LINE
8
Modules
10
24.1473248932
20
32.2448341986
11
24.1390810715
21
33.0650027688
62
254
0
LINE
8
Modules
10
24.1390810715
20
33.0650027688
11
23.3189125013
21
33.0567589471
62
254
0
LINE
8
Modules
10
23.3189125013
20
33.0567589471
11
23.3271563230
21
32.2365903769
62
254
0
LINE
8
Modules
10
23.3271563230
20
32.2365903769
11
24.1473248932
21
32.2448341986
62
254
0
LINE
8
Modules
10
24.1473248932
20
32.2448341986
11
23.3189125013
21
33.0567589471
62
254
0
TEXT
8
Modules
100
AcDbText
10
23.6383257504
20
32.2889331434
1
DC
7
NewTextStyle_4
40
0.2624672000000003
50
90.57588195802207
0
TEXT
8
Modules
100
AcDbText
10
24.0948172503
20
32.5724069974
1
DC
7
NewTextStyle_4
40
0.2624672000000003
50
90.57588195802207
0
LINE
8
Modules
10
14.5212777348
20
26.9374963786
11
20.6756113530
21
26.9993558921
62
254
0
LINE
8
Modules
10
20.6756113530
20
26.9993558921
11
20.6382503541
21
30.7163598522
62
254
0
LINE
8
Modules
10
20.6382503541
20
30.7163598522
11
14.4839167359
21
30.6545003387
62
254
0
LINE
8
Modules
10
14.4839167359
20
30.6545003387
11
14.5212777348
21
26.9374963786
62
254
0
LINE
8
Modules
10
17.9939702404
20
28.4209657411
11
17.9857264187
21
29.2411343113
62
254
0
LINE
8
Modules
10
17.9857264187
20
29.2411343113
11
17.1655578485
21
29.2328904896
62
254
0
LINE
8
Modules
10
17.1655578485
20
29.2328904896
11
17.1738016702
21
28.4127219195
62
254
0
LINE
8
Modules
10
17.1738016702
20
28.4127219195
11
17.9939702404
21
28.4209657411
62
254
0
LINE
8
Modules
10
17.9939702404
20
28.4209657411
11
17.1655578485
21
29.2328904896
62
254
0
TEXT
8
Modules
100
AcDbText
10
17.4849710975
20
28.4650646859
1
DC
7
NewTextStyle_4
40
0.2624672000000003
50
90.57588195801094
0
TEXT
8
Modules
100
AcDbText
10
17.9414625975
20
28.7485385399
1
DC
7
NewTextStyle_4
40
0.2624672000000003
50
90.57588195801094
0
LINE
8
Modules
10
-0.7367139528
20
34.3904875206
11
-6.8910475710
21
34.3286280071
62
254
0
LINE
8
Modules
10
-6.8910475710
20
34.3286280071
11
-6.8536865721
21
30.6116240470
62
254
0
LINE
8
Modules
10
-6.8536865721
20
30.6116240470
11
-0.6993529539
21
30.6734835605
62
254
0
LINE
8
Modules
10
-0.6993529539
20
30.6734835605
11
-0.7367139528
21
34.3904875206
62
254
0
LINE
8
Modules
10
-4.2094064584
20
32.9070181581
11
-4.2011626367
21
32.0868495879
62
254
0
LINE
8
Modules
10
-4.2011626367
20
32.0868495879
11
-3.3809940666
21
32.0950934095
62
254
0
LINE
8
Modules
10
-3.3809940666
20
32.0950934095
11
-3.3892378882
21
32.9152619797
62
254
0
LINE
8
Modules
10
-3.3892378882
20
32.9152619797
11
-4.2094064584
21
32.9070181581
62
254
0
LINE
8
Modules
10
-4.2094064584
20
32.9070181581
11
-3.3809940666
21
32.0950934095
62
254
0
TEXT
8
Modules
100
AcDbText
10
-3.7004073156
20
32.8629192133
1
DC
7
NewTextStyle_4
40
0.2624672000000003
50
-89.42411804198186
0
TEXT
8
Modules
100
AcDbText
10
-4.1568988155
20
32.5794453593
1
DC
7
NewTextStyle_4
40
0.2624672000000003
50
-89.42411804198186
0
LINE
8
Modules
10
-0.6988202513
20
30.6323589222
11
-6.8531538695
21
30.5704994087
62
254
0
LINE
8
Modules
10
-6.8531538695
20
30.5704994087
11
-6.8157928706
21
26.8534954487
62
254
0
LINE
8
Modules
10
-6.8157928706
20
26.8534954487
11
-0.6614592523
21
26.9153549622
62
254
0
LINE
8
Modules
10
-0.6614592523
20
26.9153549622
11
-0.6988202513
21
30.6323589222
62
254
0
LINE
8
Modules
10
-4.1715127568
20
29.1488895597
11
-4.1632689352
21
28.3287209895
62
254
0
LINE
8
Modules
10
-4.1632689352
20
28.3287209895
11
-3.3431003650
21
28.3369648112
62
254
0
LINE
8
Modules
10
-3.3431003650
20
28.3369648112
11
-3.3513441867
21
29.1571333814
62
254
0
LINE
8
Modules
10
-3.3513441867
20
29.1571333814
11
-4.1715127568
21
29.1488895597
62
254
0
LINE
8
Modules
10
-4.1715127568
20
29.1488895597
11
-3.3431003650
21
28.3369648112
62
254
0
TEXT
8
Modules
100
AcDbText
10
-3.6625136140
20
29.1047906149
1
DC
7
NewTextStyle_4
40
0.2624672000000003
50
-89.42411804198186
0
TEXT
8
Modules
100
AcDbText
10
-4.1190051140
20
28.8213167609
1
DC
7
NewTextStyle_4
40
0.2624672000000003
50
-89.42411804198186
0
LINE
8
Modules
10
-0.6609265456
20
26.8742303239
11
-6.8152601638
21
26.8123708104
62
254
0
LINE
8
Modules
10
-6.8152601638
20
26.8123708104
11
-6.7778991649
21
23.0953668503
62
254
0
LINE
8
Modules
10
-6.7778991649
20
23.0953668503
11
-0.6235655467
21
23.1572263638
62
254
0
LINE
8
Modules
10
-0.6235655467
20
23.1572263638
11
-0.6609265456
21
26.8742303239
62
254
0
LINE
8
Modules
10
-4.1336190511
20
25.3907609613
11
-4.1253752295
21
24.5705923912
62
254
0
LINE
8
Modules
10
-4.1253752295
20
24.5705923912
11
-3.3052066593
21
24.5788362128
62
254
0
LINE
8
Modules
10
-3.3052066593
20
24.5788362128
11
-3.3134504810
21
25.3990047830
62
254
0
LINE
8
Modules
10
-3.3134504810
20
25.3990047830
11
-4.1336190511
21
25.3907609613
62
254
0
LINE
8
Modules
10
-4.1336190511
20
25.3907609613
11
-3.3052066593
21
24.5788362128
62
254
0
TEXT
8
Modules
100
AcDbText
10
-3.6246199083
20
25.3466620166
1
DC
7
NewTextStyle_4
40
0.2624672000000003
50
-89.42411804198186
0
TEXT
8
Modules
100
AcDbText
10
-4.0811114083
20
25.0631881626
1
DC
7
NewTextStyle_4
40
0.2624672000000003
50
-89.42411804198186
0
LINE
8
Modules
10
-0.6230328399
20
23.1161017229
11
-6.7773664581
21
23.0542422094
62
254
0
LINE
8
Modules
10
-6.7773664581
20
23.0542422094
11
-6.7400054592
21
19.3372382494
62
254
0
LINE
8
Modules
10
-6.7400054592
20
19.3372382494
11
-0.5856718410
21
19.3990977629
62
254
0
LINE
8
Modules
10
-0.5856718410
20
19.3990977629
11
-0.6230328399
21
23.1161017229
62
254
0
LINE
8
Modules
10
-4.0957253455
20
21.6326323604
11
-4.0874815238
21
20.8124637902
62
254
0
LINE
8
Modules
10
-4.0874815238
20
20.8124637902
11
-3.2673129536
21
20.8207076119
62
254
0
LINE
8
Modules
10
-3.2673129536
20
20.8207076119
11
-3.2755567753
21
21.6408761821
62
254
0
LINE
8
Modules
10
-3.2755567753
20
21.6408761821
11
-4.0957253455
21
21.6326323604
62
254
0
LINE
8
Modules
10
-4.0957253455
20
21.6326323604
11
-3.2673129536
21
20.8207076119
62
254
0
TEXT
8
Modules
100
AcDbText
10
-3.5867262026
20
21.5885334156
1
DC
7
NewTextStyle_4
40
0.2624672000000003
50
-89.42411804198186
0
TEXT
8
Modules
100
AcDbText
10
-4.0432177026
20
21.3050595616
1
DC
7
NewTextStyle_4
40
0.2624672000000003
50
-89.42411804198186
0
LINE
8
Modules
10
14.5591714405
20
23.1793677803
11
20.7135050587
21
23.2412272938
62
254
0
LINE
8
Modules
10
20.7135050587
20
23.2412272938
11
20.6761440598
21
26.9582312538
62
254
0
LINE
8
Modules
10
20.6761440598
20
26.9582312538
11
14.5218104416
21
26.8963717403
62
254
0
LINE
8
Modules
10
14.5218104416
20
26.8963717403
11
14.5591714405
21
23.1793677803
62
254
0
LINE
8
Modules
10
18.0318639460
20
24.6628371428
11
18.0236201244
21
25.4830057129
62
254
0
LINE
8
Modules
10
18.0236201244
20
25.4830057129
11
17.2034515542
21
25.4747618913
62
254
0
LINE
8
Modules
10
17.2034515542
20
25.4747618913
11
17.2116953759
21
24.6545933211
62
254
0
LINE
8
Modules
10
17.2116953759
20
24.6545933211
11
18.0318639460
21
24.6628371428
62
254
0
LINE
8
Modules
10
18.0318639460
20
24.6628371428
11
17.2034515542
21
25.4747618913
62
254
0
TEXT
8
Modules
100
AcDbText
10
17.5228648032
20
24.7069360876
1
DC
7
NewTextStyle_4
40
0.2624672000000003
50
90.57588195801094
0
TEXT
8
Modules
100
AcDbText
10
17.9793563032
20
24.9904099415
1
DC
7
NewTextStyle_4
40
0.2624672000000003
50
90.57588195801094
0
LINE
8
Modules
10
14.5970651462
20
19.4212391819
11
20.7513987644
21
19.4830986954
62
254
0
LINE
8
Modules
10
20.7513987644
20
19.4830986954
11
20.7140377654
21
23.2001026555
62
254
0
LINE
8
Modules
10
20.7140377654
20
23.2001026555
11
14.5597041472
21
23.1382431419
62
254
0
LINE
8
Modules
10
14.5597041472
20
23.1382431419
11
14.5970651462
21
19.4212391819
62
254
0
LINE
8
Modules
10
18.0697576517
20
20.9047085444
11
18.0615138301
21
21.7248771146
62
254
0
LINE
8
Modules
10
18.0615138301
20
21.7248771146
11
17.2413452599
21
21.7166332929
62
254
0
LINE
8
Modules
10
17.2413452599
20
21.7166332929
11
17.2495890816
21
20.8964647228
62
254
0
LINE
8
Modules
10
17.2495890816
20
20.8964647228
11
18.0697576517
21
20.9047085444
62
254
0
LINE
8
Modules
10
18.0697576517
20
20.9047085444
11
17.2413452599
21
21.7166332929
62
254
0
TEXT
8
Modules
100
AcDbText
10
17.5607585089
20
20.9488074892
1
DC
7
NewTextStyle_4
40
0.2624672000000003
50
90.57588195801094
0
TEXT
8
Modules
100
AcDbText
10
18.0172500089
20
21.2322813432
1
DC
7
NewTextStyle_4
40
0.2624672000000003
50
90.57588195801094
0
LINE
8
Modules
10
14.6349588477
20
15.6631105835
11
20.7892924659
21
15.7249700971
62
254
0
LINE
8
Modules
10
20.7892924659
20
15.7249700971
11
20.7519314670
21
19.4419740571
62
254
0
LINE
8
Modules
10
20.7519314670
20
19.4419740571
11
14.5975978488
21
19.3801145436
62
254
0
LINE
8
Modules
10
14.5975978488
20
19.3801145436
11
14.6349588477
21
15.6631105835
62
254
0
LINE
8
Modules
10
18.1076513533
20
17.1465799461
11
18.0994075316
21
17.9667485162
62
254
0
LINE
8
Modules
10
18.0994075316
20
17.9667485162
11
17.2792389615
21
17.9585046946
62
254
0
LINE
8
Modules
10
17.2792389615
20
17.9585046946
11
17.2874827831
21
17.1383361244
62
254
0
LINE
8
Modules
10
17.2874827831
20
17.1383361244
11
18.1076513533
21
17.1465799461
62
254
0
LINE
8
Modules
10
18.1076513533
20
17.1465799461
11
17.2792389615
21
17.9585046946
62
254
0
TEXT
8
Modules
100
AcDbText
10
17.5986522105
20
17.1906788908
1
DC
7
NewTextStyle_4
40
0.2624672000000003
50
90.57588195801094
0
TEXT
8
Modules
100
AcDbText
10
18.0551437104
20
17.4741527448
1
DC
7
NewTextStyle_4
40
0.2624672000000003
50
90.57588195801094
0
LINE
8
Buildings
10
-6.6524463617
20
-41.6211754966
11
-6.6054565554
21
-46.2961391200
62
252
0
LINE
8
Buildings
10
-6.6054565554
20
-46.2961391200
11
7.6793499983
21
-46.1525571913
62
252
0
LINE
8
Buildings
10
7.6793499983
20
-46.1525571913
11
7.0261297163
21
18.8356028620
62
252
0
LINE
8
Buildings
10
7.0261297163
20
18.8356028620
11
3.9288182758
21
18.8199907752
62
252
0
LINE
8
Buildings
10
3.9288182758
20
18.8199907752
11
3.8917747628
21
26.1691234044
62
252
0
LINE
8
Buildings
10
3.8917747628
20
26.1691234044
11
6.9522627036
21
26.1845498813
62
252
0
LINE
8
Buildings
10
6.9522627036
20
26.1845498813
11
6.8395213317
21
37.4010637111
62
252
0
LINE
8
Buildings
10
6.8395213317
20
37.4010637111
11
-14.2860759446
21
37.1887224385
62
252
0
LINE
8
Buildings
10
-14.2860759446
20
37.1887224385
11
-13.4932370843
21
-41.6899348405
62
252
0
LINE
8
Buildings
10
-13.4932370843
20
-41.6899348405
11
-6.6524463617
21
-41.6211754966
62
252
0
LINE
8
Buildings
10
-13.4715960779
20
-9.8939552065
11
0.9766284696
21
-9.7487307024
62
252
0
LINE
8
Buildings
10
0.9766284696
20
-9.7487307024
11
-11.0207824586
21
-0.6518103036
62
252
0
LINE
8
Buildings
10
-11.0207824586
20
-0.6518103036
11
-13.5642353646
21
-0.6773754992
62
252
0
LINE
8
Buildings
10
-13.5642353646
20
-0.6773754992
11
-13.4715960779
21
-9.8939552065
62
252
0
LINE
8
Buildings
10
3.9288182758
20
18.8199907752
11
10.3815548776
21
18.8525159784
62
252
0
LINE
8
Buildings
10
10.3815548776
20
18.8525159784
11
7.1389239751
21
22.0626216777
62
252
0
LINE
8
Buildings
10
7.1389239751
20
22.0626216777
11
3.9288182758
21
18.8199907752
62
252
0
LINE
8
Buildings
10
7.1344056653
20
22.9590177051
11
7.1389239751
21
22.0626216777
62
252
0
LINE
8
Buildings
10
7.1389239751
20
22.0626216777
11
10.3815548776
21
18.8525159784
62
252
0
LINE
8
Buildings
10
10.3815548776
20
18.8525159784
11
10.3445113646
21
26.2016486076
62
252
0
LINE
8
Buildings
10
10.3445113646
20
26.2016486076
11
7.1344056653
21
22.9590177051
62
252
0
LINE
8
Buildings
10
10.3445113646
20
26.2016486076
11
3.8917747628
21
26.1691234044
62
252
0
LINE
8
Buildings
10
3.8917747628
20
26.1691234044
11
7.1344056653
21
22.9590177051
62
252
0
LINE
8
Buildings
10
7.1344056653
20
22.9590177051
11
10.3445113646
21
26.2016486076
62
252
0
LINE
8
Buildings
10
3.8917747628
20
26.1691234044
11
3.9288182758
21
18.8199907752
62
252
0
LINE
8
Buildings
10
3.9288182758
20
18.8199907752
11
7.1389239751
21
22.0626216777
62
252
0
LINE
8
Buildings
10
7.1389239751
20
22.0626216777
11
7.1344056653
21
22.9590177051
62
252
0
LINE
8
Buildings
10
7.1344056653
20
22.9590177051
11
3.8917747628
21
26.1691234044
62
252
0
LINE
8
Buildings
10
0.9766284696
20
-9.7487307024
11
-13.4715960779
21
-9.8939552065
62
252
0
LINE
8
Buildings
10
-13.4715960779
20
-9.8939552065
11
-13.3789567911
21
-19.1105349137
62
252
0
LINE
8
Buildings
10
-13.3789567911
20
-19.1105349137
11
-10.8355038851
21
-19.0849697181
62
252
0
LINE
8
Buildings
10
-10.8355038851
20
-19.0849697181
11
0.9766284696
21
-9.7487307024
62
252
0
LINE
8
Buildings
10
21.3761552373
20
-41.3394495480
11
28.7579574682
21
-41.2652522953
62
252
0
LINE
8
Buildings
10
28.7579574682
20
-41.2652522953
11
27.9651186079
21
37.6134049837
62
252
0
LINE
8
Buildings
10
27.9651186079
20
37.6134049837
11
6.8395213317
21
37.4010637111
62
252
0
LINE
8
Buildings
10
6.8395213317
20
37.4010637111
11
6.9522627036
21
26.1845498813
62
252
0
LINE
8
Buildings
10
6.9522627036
20
26.1845498813
11
10.3445113646
21
26.2016486076
62
252
0
LINE
8
Buildings
10
10.3445113646
20
26.2016486076
11
10.3815548776
21
18.8525159784
62
252
0
LINE
8
Buildings
10
10.3815548776
20
18.8525159784
11
7.0261297163
21
18.8356028620
62
252
0
LINE
8
Buildings
10
7.0261297163
20
18.8356028620
11
7.6793499983
21
-46.1525571913
62
252
0
LINE
8
Buildings
10
7.6793499983
20
-46.1525571913
11
21.4231450436
21
-46.0144131714
62
252
0
LINE
8
Buildings
10
21.4231450436
20
-46.0144131714
11
21.3761552373
21
-41.3394495480
62
252
0
LINE
8
Buildings
10
28.0783294526
20
-10.2195757529
11
13.6301049051
21
-10.3648002570
62
252
0
LINE
8
Buildings
10
13.6301049051
20
-10.3648002570
11
25.6275158333
21
-19.4617206558
62
252
0
LINE
8
Buildings
10
25.6275158333
20
-19.4617206558
11
28.1709687393
21
-19.4361554602
62
252
0
LINE
8
Buildings
10
28.1709687393
20
-19.4361554602
11
28.0783294526
21
-10.2195757529
62
252
0
LINE
8
Buildings
10
13.6301049051
20
-10.3648002570
11
28.0783294526
21
-10.2195757529
62
252
0
LINE
8
Buildings
10
28.0783294526
20
-10.2195757529
11
27.9856901658
21
-1.0029960457
62
252
0
LINE
8
Buildings
10
27.9856901658
20
-1.0029960457
11
25.4422372598
21
-1.0285612413
62
252
0
LINE
8
Buildings
10
25.4422372598
20
-1.0285612413
11
13.6301049051
21
-10.3648002570
62
252
0
LINE
8
Setbacks
10
-13.4906157712
20
-38.6864757854
11
-6.6826319423
21
-38.6180463490
62
2
0
LINE
8
Setbacks
10
-6.6826319423
20
-38.6180463490
11
-6.6820592286
21
-38.6180908846
62
2
0
LINE
8
Setbacks
10
-6.6820592286
20
-38.6180908846
11
-5.8516986377
21
-38.7565823589
62
2
0
LINE
8
Setbacks
10
-5.8516986377
20
-38.7565823589
11
-5.8511548419
21
-38.7567217469
62
2
0
LINE
8
Setbacks
10
-5.8511548419
20
-38.7567217469
11
-5.8506427696
21
-38.7569518008
62
2
0
LINE
8
Setbacks
10
-5.8506427696
20
-38.7569518008
11
-5.0986122337
21
-39.1755328509
62
2
0
LINE
8
Setbacks
10
-5.0986122337
20
-39.1755328509
11
-5.0981716852
21
-39.1758270036
62
2
0
LINE
8
Setbacks
10
-5.0981716852
20
-39.1758270036
11
-5.0977842180
21
-39.1761882210
62
2
0
LINE
8
Setbacks
10
-5.0977842180
20
-39.1761882210
11
-4.4976975846
21
-39.8338854205
62
2
0
LINE
8
Setbacks
10
-4.4976975846
20
-39.8338854205
11
-4.4973924473
21
-39.8342752694
62
2
0
LINE
8
Setbacks
10
-4.4973924473
20
-39.8342752694
11
-4.4971494429
21
-39.8347065927
62
2
0
LINE
8
Setbacks
10
-4.4971494429
20
-39.8347065927
11
-4.1077475276
21
-40.6671396902
62
2
0
LINE
8
Setbacks
10
-4.1077475276
20
-40.6671396902
11
-4.1074756534
21
-40.6680371762
62
2
0
LINE
8
Setbacks
10
-4.1074756534
20
-40.6680371762
11
-3.9668755833
21
-41.5937219171
62
2
0
LINE
8
Setbacks
10
-3.9668755833
20
-41.5937219171
11
-3.9668663356
21
-41.5946419548
62
2
0
LINE
8
Setbacks
10
-3.9668663356
20
-41.5946419548
11
-4.0888309065
21
-42.5229654753
62
2
0
LINE
8
Setbacks
10
-4.0888309065
20
-42.5229654753
11
-4.0890846860
21
-42.5238682460
62
2
0
LINE
8
Setbacks
10
-4.0890846860
20
-42.5238682460
11
-4.4203326275
21
-43.2707429417
62
2
0
LINE
8
Setbacks
10
-4.4203326275
20
-43.2707429417
11
6.3047200169
21
-43.1629416744
62
2
0
LINE
8
Setbacks
10
6.3047200169
20
-43.1629416744
11
5.7118035002
21
15.8256665086
62
2
0
LINE
8
Setbacks
10
5.7118035002
20
15.8256665086
11
3.9469697471
21
15.8167708890
62
2
0
LINE
8
Setbacks
10
3.9469697471
20
15.8167708890
11
3.9463973649
21
15.8168182763
62
2
0
LINE
8
Setbacks
10
3.9463973649
20
15.8168182763
11
3.1165915640
21
15.9594675591
62
2
0
LINE
8
Setbacks
10
3.1165915640
20
15.9594675591
11
3.1160488046
21
15.9596095338
62
2
0
LINE
8
Setbacks
10
3.1160488046
20
15.9596095338
11
3.1155381691
21
15.9598419044
62
2
0
LINE
8
Setbacks
10
3.1155381691
20
15.9598419044
11
2.3651844706
21
16.3821824691
62
2
0
LINE
8
Setbacks
10
2.3651844706
20
16.3821824691
11
2.3647457278
21
16.3824783969
62
2
0
LINE
8
Setbacks
10
2.3647457278
20
16.3824783969
11
2.3643602718
21
16.3828410155
62
2
0
LINE
8
Setbacks
10
2.3643602718
20
16.3828410155
11
1.7669084811
21
17.0435316534
62
2
0
LINE
8
Setbacks
10
1.7669084811
20
17.0435316534
11
1.7666053289
21
17.0439224823
62
2
0
LINE
8
Setbacks
10
1.7666053289
20
17.0439224823
11
1.7663643756
21
17.0443544429
62
2
0
LINE
8
Setbacks
10
1.7663643756
20
17.0443544429
11
1.3802971060
21
17.8787215956
62
2
0
LINE
8
Setbacks
10
1.3802971060
20
17.8787215956
11
1.3800290556
21
17.8796197169
62
2
0
LINE
8
Setbacks
10
1.3800290556
20
17.8796197169
11
1.2431373189
21
18.8059901534
62
2
0
LINE
8
Setbacks
10
1.2431373189
20
18.8059901534
11
1.2431317752
21
18.8069102253
62
2
0
LINE
8
Setbacks
10
1.2431317752
20
18.8069102253
11
1.3688155062
21
19.7346041527
62
2
0
LINE
8
Setbacks
10
1.3688155062
20
19.7346041527
11
1.3690731249
21
19.7355063541
62
2
0
LINE
8
Setbacks
10
1.3690731249
20
19.7355063541
11
1.7450295018
21
20.5737147143
62
2
0
LINE
8
Setbacks
10
1.7450295018
20
20.5737147143
11
1.7452658519
21
20.5741502297
62
2
0
LINE
8
Setbacks
10
1.7452658519
20
20.5741502297
11
1.7455650957
21
20.5745451831
62
2
0
LINE
8
Setbacks
10
1.7455650957
20
20.5745451831
11
2.3349929360
21
21.2412184328
62
2
0
LINE
8
Setbacks
10
2.3349929360
20
21.2412184328
11
2.3353750998
21
21.2415859922
62
2
0
LINE
8
Setbacks
10
2.3353750998
20
21.2415859922
11
2.3358114816
21
21.2418871897
62
2
0
LINE
8
Setbacks
10
2.3358114816
20
21.2418871897
11
2.5713920916
21
21.3777848451
62
2
0
LINE
8
Setbacks
10
2.5713920916
20
21.3777848451
11
2.5601875578
21
23.6007067161
62
2
0
LINE
8
Setbacks
10
2.5601875578
20
23.6007067161
11
2.3281408361
21
23.7313152492
62
2
0
LINE
8
Setbacks
10
2.3281408361
20
23.7313152492
11
2.3277020925
21
23.7316111771
62
2
0
LINE
8
Setbacks
10
2.3277020925
20
23.7316111771
11
2.3273166360
21
23.7319737960
62
2
0
LINE
8
Setbacks
10
2.3273166360
20
23.7319737960
11
1.7298648453
21
24.3926641058
62
2
0
LINE
8
Setbacks
10
1.7298648453
20
24.3926641058
11
1.7295616926
21
24.3930549352
62
2
0
LINE
8
Setbacks
10
1.7295616926
20
24.3930549352
11
1.7293207390
21
24.3934868964
62
2
0
LINE
8
Setbacks
10
1.7293207390
20
24.3934868964
11
1.3432534694
21
25.2278543772
62
2
0
LINE
8
Setbacks
10
1.3432534694
20
25.2278543772
11
1.3429854192
21
25.2287524980
62
2
0
LINE
8
Setbacks
10
1.3429854192
20
25.2287524980
11
1.2060936826
21
26.1551229345
62
2
0
LINE
8
Setbacks
10
1.2060936826
20
26.1551229345
11
1.2060881388
21
26.1560430064
62
2
0
LINE
8
Setbacks
10
1.2060881388
20
26.1560430064
11
1.3317718699
21
27.0837369338
62
2
0
LINE
8
Setbacks
10
1.3317718699
20
27.0837369338
11
1.3320294886
21
27.0846391352
62
2
0
LINE
8
Setbacks
10
1.3320294886
20
27.0846391352
11
1.7079858654
21
27.9228474954
62
2
0
LINE
8
Setbacks
10
1.7079858654
20
27.9228474954
11
1.7082222158
21
27.9232830111
62
2
0
LINE
8
Setbacks
10
1.7082222158
20
27.9232830111
11
1.7085214598
21
27.9236779648
62
2
0
LINE
8
Setbacks
10
1.7085214598
20
27.9236779648
11
2.2979493002
21
28.5903508864
62
2
0
LINE
8
Setbacks
10
2.2979493002
20
28.5903508864
11
2.2983314637
21
28.5907184455
62
2
0
LINE
8
Setbacks
10
2.2983314637
20
28.5907184455
11
2.2987678453
21
28.5910196427
62
2
0
LINE
8
Setbacks
10
2.2987678453
20
28.5910196427
11
3.0439699688
21
29.0208989216
62
2
0
LINE
8
Setbacks
10
3.0439699688
20
29.0208989216
11
3.0444787834
21
29.0211369224
62
2
0
LINE
8
Setbacks
10
3.0444787834
20
29.0211369224
11
3.0450207398
21
29.0212846384
62
2
0
LINE
8
Setbacks
10
3.0450207398
20
29.0212846384
11
3.8730512781
21
29.1722902206
62
2
0
LINE
8
Setbacks
10
3.8730512781
20
29.1722902206
11
3.8736233509
21
29.1723434115
62
2
0
LINE
8
Setbacks
10
3.8736233509
20
29.1723434115
11
5.5775646444
21
29.1809321069
62
2
0
LINE
8
Setbacks
10
5.5775646444
20
29.1809321069
11
5.5252626484
21
34.3844207186
62
2
0
LINE
8
Setbacks
10
5.5252626484
20
34.3844207186
11
-14.2230836037
21
34.1859228761
62
2
0
LINE
8
Setbacks
10
-13.3487712575
20
-22.1136642558
11
-13.3493439727
21
-22.1136197200
62
2
0
LINE
8
Setbacks
10
-13.3493439727
20
-22.1136197200
11
-13.6577127239
21
-22.0621883965
62
2
0
LINE
8
Setbacks
10
-13.9022653688
20
2.2680784709
11
-13.5949925811
21
2.3256978070
62
2
0
LINE
8
Setbacks
10
-13.5949925811
20
2.3256978070
11
-13.5944208772
21
2.3257538457
62
2
0
LINE
8
Setbacks
10
-13.5944208772
20
2.3257538457
11
-11.0509680399
21
2.3513188072
62
2
0
LINE
8
Setbacks
10
-11.0509680399
20
2.3513188072
11
-11.0503953264
21
2.3512742715
62
2
0
LINE
8
Setbacks
10
-11.0503953264
20
2.3512742715
11
-10.2200347355
21
2.2127827973
62
2
0
LINE
8
Setbacks
10
-10.2200347355
20
2.2127827973
11
-10.2194909397
21
2.2126434093
62
2
0
LINE
8
Setbacks
10
-10.2194909397
20
2.2126434093
11
-10.2189788674
21
2.2124133554
62
2
0
LINE
8
Setbacks
10
-10.2189788674
20
2.2124133554
11
-9.4669483315
21
1.7938323053
62
2
0
LINE
8
Setbacks
10
-9.4669483315
20
1.7938323053
11
-9.4665077830
21
1.7935381526
62
2
0
LINE
8
Setbacks
10
-9.4665077830
20
1.7935381526
11
-9.4661203158
21
1.7931769352
62
2
0
LINE
8
Setbacks
10
-9.4661203158
20
1.7931769352
11
-8.8660336824
21
1.1354797357
62
2
0
LINE
8
Setbacks
10
-8.8660336824
20
1.1354797357
11
-8.8657285451
21
1.1350898868
62
2
0
LINE
8
Setbacks
10
-8.8657285451
20
1.1350898868
11
-8.8654855407
21
1.1346585635
62
2
0
LINE
8
Setbacks
10
-8.8654855407
20
1.1346585635
11
-8.4760836254
21
0.3022254660
62
2
0
LINE
8
Setbacks
10
-8.4760836254
20
0.3022254660
11
-8.4758117513
21
0.3013279802
62
2
0
LINE
8
Setbacks
10
-8.4758117513
20
0.3013279802
11
-8.3352116811
21
-0.6243564326
62
2
0
LINE
8
Setbacks
10
-8.3352116811
20
-0.6243564326
11
-8.3352024335
21
-0.6252764714
62
2
0
LINE
8
Setbacks
10
-8.3352024335
20
-0.6252764714
11
-8.3648796539
21
-0.8511617876
62
2
0
LINE
8
Setbacks
10
-8.3648796539
20
-0.8511617876
11
1.7295731986
21
-8.5051825648
62
2
0
LINE
8
Setbacks
10
1.7295731986
20
-8.5051825648
11
1.7299636629
21
-8.5055310112
62
2
0
LINE
8
Setbacks
10
1.7299636629
20
-8.5055310112
11
1.7522119174
21
-8.5288287087
62
2
0
LINE
8
Setbacks
10
1.7522119174
20
-8.5288287087
11
1.7791649203
21
-8.5446973211
62
2
0
LINE
8
Setbacks
10
1.7791649203
20
-8.5446973211
11
1.7795962067
21
-8.5450003801
62
2
0
LINE
8
Setbacks
10
1.7795962067
20
-8.5450003801
11
1.7799733928
21
-8.5453685964
62
2
0
LINE
8
Setbacks
10
1.7799733928
20
-8.5453685964
11
1.9054343488
21
-8.6892797122
62
2
0
LINE
8
Setbacks
10
1.9054343488
20
-8.6892797122
11
2.0366218156
21
-8.8266560282
62
2
0
LINE
8
Setbacks
10
2.0366218156
20
-8.8266560282
11
2.0369370614
21
-8.8270407348
62
2
0
LINE
8
Setbacks
10
2.0369370614
20
-8.8270407348
11
2.0371905314
21
-8.8274686741
62
2
0
LINE
8
Setbacks
10
2.0371905314
20
-8.8274686741
11
2.0519477830
21
-8.8573391912
62
2
0
LINE
8
Setbacks
10
2.0519477830
20
-8.8573391912
11
2.0732460390
21
-8.8817695247
62
2
0
LINE
8
Setbacks
10
2.0732460390
20
-8.8817695247
11
2.0735410712
21
-8.8821642682
62
2
0
LINE
8
Setbacks
10
2.0735410712
20
-8.8821642682
11
2.0737736480
21
-8.8825987499
62
2
0
LINE
8
Setbacks
10
2.0737736480
20
-8.8825987499
11
2.1534189709
21
-9.0627294491
62
2
0
LINE
8
Setbacks
10
2.1534189709
20
-9.0627294491
11
2.2403211171
21
-9.2386307643
62
2
0
LINE
8
Setbacks
10
2.2403211171
20
-9.2386307643
11
2.2406125157
21
-9.2395248630
62
2
0
LINE
8
Setbacks
10
2.2406125157
20
-9.2395248630
11
2.2464091496
21
-9.2730427526
62
2
0
LINE
8
Setbacks
10
2.2464091496
20
-9.2730427526
11
2.2599435983
21
-9.3036528903
62
2
0
LINE
8
Setbacks
10
2.2599435983
20
-9.3036528903
11
2.2601960355
21
-9.3045535092
62
2
0
LINE
8
Setbacks
10
2.2601960355
20
-9.3045535092
11
2.2862263411
21
-9.5032722479
62
2
0
LINE
8
Setbacks
10
2.2862263411
20
-9.5032722479
11
2.3203320043
21
-9.7004769650
62
2
0
LINE
8
Setbacks
10
2.3203320043
20
-9.7004769650
11
2.3203601144
21
-9.7013967070
62
2
0
LINE
8
Setbacks
10
2.3203601144
20
-9.7013967070
11
2.3166149570
21
-9.7352613880
62
2
0
LINE
8
Setbacks
10
2.3166149570
20
-9.7352613880
11
2.3210401987
21
-9.7690450031
62
2
0
LINE
8
Setbacks
10
2.3210401987
20
-9.7690450031
11
2.3210305818
21
-9.7699651231
62
2
0
LINE
8
Setbacks
10
2.3210305818
20
-9.7699651231
11
2.2908953688
21
-9.9678185739
62
2
0
LINE
8
Setbacks
10
2.2908953688
20
-9.9678185739
11
2.2688650331
21
-10.1670174660
62
2
0
LINE
8
Setbacks
10
2.2688650331
20
-10.1670174660
11
2.2686307554
21
-10.1679229643
62
2
0
LINE
8
Setbacks
10
2.2686307554
20
-10.1679229643
11
2.2557144950
21
-10.1987989339
62
2
0
LINE
8
Setbacks
10
2.2557144950
20
-10.1987989339
11
2.2505925870
21
-10.2324267548
62
2
0
LINE
8
Setbacks
10
2.2505925870
20
-10.2324267548
11
2.2503192201
21
-10.2333265190
62
2
0
LINE
8
Setbacks
10
2.2503192201
20
-10.2333265190
11
2.1669702724
21
-10.4109388374
62
2
0
LINE
8
Setbacks
10
2.1669702724
20
-10.4109388374
11
2.0909617844
21
-10.5926342687
62
2
0
LINE
8
Setbacks
10
2.0909617844
20
-10.5926342687
11
2.0907379898
21
-10.5930733350
62
2
0
LINE
8
Setbacks
10
2.0907379898
20
-10.5930733350
11
2.0904509544
21
-10.5934739270
62
2
0
LINE
8
Setbacks
10
2.0904509544
20
-10.5934739270
11
2.0696478256
21
-10.6183278387
62
2
0
LINE
8
Setbacks
10
2.0696478256
20
-10.6183278387
11
2.0554940803
21
-10.6484886107
62
2
0
LINE
8
Setbacks
10
2.0554940803
20
-10.6484886107
11
2.0552492648
21
-10.6489215553
62
2
0
LINE
8
Setbacks
10
2.0552492648
20
-10.6489215553
11
2.0549418177
21
-10.6493125181
62
2
0
LINE
8
Setbacks
10
2.0549418177
20
-10.6493125181
11
1.9265432842
21
-10.7892970652
62
2
0
LINE
8
Setbacks
10
1.9265432842
20
-10.7892970652
11
1.8039994974
21
-10.9357019614
62
2
0
LINE
8
Setbacks
10
1.8039994974
20
-10.9357019614
11
1.8036297929
21
-10.9360776815
62
2
0
LINE
8
Setbacks
10
1.8036297929
20
-10.9360776815
11
1.8032046905
21
-10.9363893462
62
2
0
LINE
8
Setbacks
10
1.8032046905
20
-10.9363893462
11
1.7765760162
21
-10.9527966943
62
2
0
LINE
8
Setbacks
10
1.7765760162
20
-10.9527966943
11
1.7548007200
21
-10.9765366229
62
2
0
LINE
8
Setbacks
10
1.7548007200
20
-10.9765366229
11
1.7544173429
21
-10.9768928430
62
2
0
LINE
8
Setbacks
10
1.7544173429
20
-10.9768928430
11
-8.1841445904
21
-18.8322730906
62
2
0
LINE
8
Setbacks
10
-8.1841445904
20
-18.8322730906
11
-8.1499328042
21
-19.0575158125
62
2
0
LINE
8
Setbacks
10
-8.1499328042
20
-19.0575158125
11
-8.1499235562
21
-19.0584358540
62
2
0
LINE
8
Setbacks
10
-8.1499235562
20
-19.0584358540
11
-8.2718884551
21
-19.9867597026
62
2
0
LINE
8
Setbacks
10
-8.2718884551
20
-19.9867597026
11
-8.2721422344
21
-19.9876624719
62
2
0
LINE
8
Setbacks
10
-8.2721422344
20
-19.9876624719
11
-8.6447331255
21
-20.8277546904
62
2
0
LINE
8
Setbacks
10
-8.6447331255
20
-20.8277546904
11
-8.6449674108
21
-20.8281908110
62
2
0
LINE
8
Setbacks
10
-8.6449674108
20
-20.8281908110
11
-8.6452646502
21
-20.8285867144
62
2
0
LINE
8
Setbacks
10
-8.6452646502
20
-20.8285867144
11
-9.2320097477
21
-21.4982130482
62
2
0
LINE
8
Setbacks
10
-9.2320097477
20
-21.4982130482
11
-9.2323898759
21
-21.4985819809
62
2
0
LINE
8
Setbacks
10
-9.2323898759
20
-21.4985819809
11
-9.2328244227
21
-21.4988849295
62
2
0
LINE
8
Setbacks
10
-9.2328244227
20
-21.4988849295
11
-9.9762893415
21
-21.9324978043
62
2
0
LINE
8
Setbacks
10
-9.9762893415
20
-21.9324978043
11
-9.9767966858
21
-21.9327381045
62
2
0
LINE
8
Setbacks
10
-9.9767966858
20
-21.9327381045
11
-9.9773375696
21
-21.9328883951
62
2
0
LINE
8
Setbacks
10
-9.9773375696
20
-21.9328883951
11
-10.8047467168
21
-22.0880429276
62
2
0
LINE
8
Setbacks
10
-10.8047467168
20
-22.0880429276
11
-10.8053184202
21
-22.0880989663
62
2
0
LINE
8
Setbacks
10
-10.8053184202
20
-22.0880989663
11
-13.3487712575
21
-22.1136642558
62
2
0
LINE
8
Setbacks
10
-10.4811588044
20
-8.6010599854
11
-2.8851477263
21
-8.5247097584
62
2
0
LINE
8
Setbacks
10
-2.8851477263
20
-8.5247097584
11
-10.5402685731
21
-2.7202884780
62
2
0
LINE
8
Setbacks
10
-10.5402685731
20
-2.7202884780
11
-10.4811588044
21
-8.6010599854
62
2
0
LINE
8
Setbacks
10
8.2856187799
20
18.8747602688
11
7.1493221721
21
19.9996591192
62
2
0
LINE
8
Setbacks
10
7.1493221721
20
19.9996591192
11
6.0244232929
21
18.8633626560
62
2
0
LINE
8
Setbacks
10
10.3222672581
20
24.1057126044
11
8.7514293996
21
22.5189588188
62
2
0
LINE
8
Setbacks
10
8.7514293996
20
22.5189588188
11
10.3381832064
21
20.9481211400
62
2
0
LINE
8
Setbacks
10
5.9877107451
20
26.1468792952
11
7.1240073529
21
25.0219804449
62
2
0
LINE
8
Setbacks
10
7.1240073529
20
25.0219804449
11
8.2489062321
21
26.1582769080
62
2
0
LINE
8
Setbacks
10
3.9510625950
20
20.9159266315
11
5.5219004536
21
22.5026804173
62
2
0
LINE
8
Setbacks
10
5.5219004536
20
22.5026804173
11
3.9351466456
21
24.0735182979
62
2
0
LINE
8
Setbacks
10
-10.4557746119
20
-11.1264793542
11
-10.3966651707
21
-17.0072505335
62
2
0
LINE
8
Setbacks
10
-10.3966651707
20
-17.0072505335
11
-2.8597638621
21
-11.0501291272
62
2
0
LINE
8
Setbacks
10
-2.8597638621
20
-11.0501291272
11
-10.4557746119
21
-11.1264793542
62
2
0
LINE
8
Setbacks
10
27.9624974679
20
34.6099461264
11
8.2141511828
21
34.4114479561
62
2
0
LINE
8
Setbacks
10
8.2141511828
20
34.4114479561
11
8.2665890074
21
29.1944861791
62
2
0
LINE
8
Setbacks
10
8.2665890074
20
29.1944861791
11
10.3263597775
21
29.2048686750
62
2
0
LINE
8
Setbacks
10
10.3263597775
20
29.2048686750
11
10.3269321601
21
29.2048212877
62
2
0
LINE
8
Setbacks
10
10.3269321601
20
29.2048212877
11
11.1567379610
21
29.0621720050
62
2
0
LINE
8
Setbacks
10
11.1567379610
20
29.0621720050
11
11.1572807209
21
29.0620300300
62
2
0
LINE
8
Setbacks
10
11.1572807209
20
29.0620300300
11
11.1577913568
21
29.0617976591
62
2
0
LINE
8
Setbacks
10
11.1577913568
20
29.0617976591
11
11.9081450553
21
28.6394567663
62
2
0
LINE
8
Setbacks
10
11.9081450553
20
28.6394567663
11
11.9085837970
21
28.6391608393
62
2
0
LINE
8
Setbacks
10
11.9085837970
20
28.6391608393
11
11.9089692520
21
28.6387982218
62
2
0
LINE
8
Setbacks
10
11.9089692520
20
28.6387982218
11
12.5064213709
21
27.9781079119
62
2
0
LINE
8
Setbacks
10
12.5064213709
20
27.9781079119
11
12.5067245238
21
27.9777170822
62
2
0
LINE
8
Setbacks
10
12.5067245238
20
27.9777170822
11
12.5069654777
21
27.9772851207
62
2
0
LINE
8
Setbacks
10
12.5069654777
20
27.9772851207
11
12.8930327473
21
27.1429176399
62
2
0
LINE
8
Setbacks
10
12.8930327473
20
27.1429176399
11
12.8933007975
21
27.1420195190
62
2
0
LINE
8
Setbacks
10
12.8933007975
20
27.1420195190
11
13.0301925342
21
26.2156490826
62
2
0
LINE
8
Setbacks
10
13.0301925342
20
26.2156490826
11
13.0301980779
21
26.2147290106
62
2
0
LINE
8
Setbacks
10
13.0301980779
20
26.2147290106
11
12.9045143469
21
25.2870350833
62
2
0
LINE
8
Setbacks
10
12.9045143469
20
25.2870350833
11
12.9042567281
21
25.2861328818
62
2
0
LINE
8
Setbacks
10
12.9042567281
20
25.2861328818
11
12.5283003513
21
24.4479245217
62
2
0
LINE
8
Setbacks
10
12.5283003513
20
24.4479245217
11
12.5280640010
21
24.4474890060
62
2
0
LINE
8
Setbacks
10
12.5280640010
20
24.4474890060
11
12.5277647569
21
24.4470940523
62
2
0
LINE
8
Setbacks
10
12.5277647569
20
24.4470940523
11
11.9383369165
21
23.7804211307
62
2
0
LINE
8
Setbacks
10
11.9383369165
20
23.7804211307
11
11.9379547522
21
23.7800535710
62
2
0
LINE
8
Setbacks
10
11.9379547522
20
23.7800535710
11
11.9375183697
21
23.7797523734
62
2
0
LINE
8
Setbacks
10
11.9375183697
20
23.7797523734
11
11.7019374337
21
23.6438547178
62
2
0
LINE
8
Setbacks
10
11.7019374337
20
23.6438547178
11
11.7131422950
21
21.4209328468
62
2
0
LINE
8
Setbacks
10
11.7131422950
20
21.4209328468
11
11.9451886906
21
21.2903243139
62
2
0
LINE
8
Setbacks
10
11.9451886906
20
21.2903243139
11
11.9456274335
21
21.2900283861
62
2
0
LINE
8
Setbacks
10
11.9456274335
20
21.2900283861
11
11.9460128895
21
21.2896657675
62
2
0
LINE
8
Setbacks
10
11.9460128895
20
21.2896657675
11
12.5434646803
21
20.6289751295
62
2
0
LINE
8
Setbacks
10
12.5434646803
20
20.6289751295
11
12.5437678325
21
20.6285843006
62
2
0
LINE
8
Setbacks
10
12.5437678325
20
20.6285843006
11
12.5440087858
21
20.6281523400
62
2
0
LINE
8
Setbacks
10
12.5440087858
20
20.6281523400
11
12.9300760553
21
19.7937851873
62
2
0
LINE
8
Setbacks
10
12.9300760553
20
19.7937851873
11
12.9303441058
21
19.7928870660
62
2
0
LINE
8
Setbacks
10
12.9303441058
20
19.7928870660
11
13.0672358424
21
18.8665166295
62
2
0
LINE
8
Setbacks
10
13.0672358424
20
18.8665166295
11
13.0672413862
21
18.8655965578
62
2
0
LINE
8
Setbacks
10
13.0672413862
20
18.8655965578
11
12.9415576551
21
17.9379023024
62
2
0
LINE
8
Setbacks
10
12.9415576551
20
17.9379023024
11
12.9413000364
21
17.9370001007
62
2
0
LINE
8
Setbacks
10
12.9413000364
20
17.9370001007
11
12.5653436595
21
17.0987917406
62
2
0
LINE
8
Setbacks
10
12.5653436595
20
17.0987917406
11
12.5651073092
21
17.0983562248
62
2
0
LINE
8
Setbacks
10
12.5651073092
20
17.0983562248
11
12.5648080652
21
17.0979612712
62
2
0
LINE
8
Setbacks
10
12.5648080652
20
17.0979612712
11
11.9753802248
21
16.4312883496
62
2
0
LINE
8
Setbacks
10
11.9753802248
20
16.4312883496
11
11.9749980611
21
16.4309207904
62
2
0
LINE
8
Setbacks
10
11.9749980611
20
16.4309207904
11
11.9745616793
21
16.4306195930
62
2
0
LINE
8
Setbacks
10
11.9745616793
20
16.4306195930
11
11.2293598838
21
16.0007406422
62
2
0
LINE
8
Setbacks
10
11.2293598838
20
16.0007406422
11
11.2288510700
21
16.0005026418
62
2
0
LINE
8
Setbacks
10
11.2288510700
20
16.0005026418
11
11.2283091145
21
16.0003549259
62
2
0
LINE
8
Setbacks
10
11.2283091145
20
16.0003549259
11
10.4002785762
21
15.8493490155
62
2
0
LINE
8
Setbacks
10
10.4002785762
20
15.8493490155
11
10.3997065020
21
15.8492958244
62
2
0
LINE
8
Setbacks
10
10.3997065020
20
15.8492958244
11
8.4008275354
21
15.8392205804
62
2
0
LINE
8
Setbacks
10
8.4008275354
20
15.8392205804
11
8.9936088791
21
-43.1359144369
62
2
0
LINE
8
Setbacks
10
8.9936088791
20
-43.1359144369
11
19.1776500234
21
-43.0335508340
62
2
0
LINE
8
Setbacks
10
19.1776500234
20
-43.0335508340
11
18.8314563324
21
-42.2934853405
62
2
0
LINE
8
Setbacks
10
18.8314563324
20
-42.2934853405
11
18.8311844580
21
-42.2925878541
62
2
0
LINE
8
Setbacks
10
18.8311844580
20
-42.2925878541
11
18.6905843878
21
-41.3669034413
62
2
0
LINE
8
Setbacks
10
18.6905843878
20
-41.3669034413
11
18.6905751401
21
-41.3659834035
62
2
0
LINE
8
Setbacks
10
18.6905751401
20
-41.3659834035
11
18.8125397109
21
-40.4376595549
62
2
0
LINE
8
Setbacks
10
18.8125397109
20
-40.4376595549
11
18.8127934903
21
-40.4367567845
62
2
0
LINE
8
Setbacks
10
18.8127934903
20
-40.4367567845
11
19.1853843815
21
-39.5966645660
62
2
0
LINE
8
Setbacks
10
19.1853843815
20
-39.5966645660
11
19.1856186670
21
-39.5962284451
62
2
0
LINE
8
Setbacks
10
19.1856186670
20
-39.5962284451
11
19.1859159068
21
-39.5958325413
62
2
0
LINE
8
Setbacks
10
19.1859159068
20
-39.5958325413
11
19.7726613324
21
-38.9262062076
62
2
0
LINE
8
Setbacks
10
19.7726613324
20
-38.9262062076
11
19.7730414603
21
-38.9258372752
62
2
0
LINE
8
Setbacks
10
19.7730414603
20
-38.9258372752
11
19.7734760067
21
-38.9255343269
62
2
0
LINE
8
Setbacks
10
19.7734760067
20
-38.9255343269
11
20.5169409255
21
-38.4919214521
62
2
0
LINE
8
Setbacks
10
20.5169409255
20
-38.4919214521
11
20.5174482697
21
-38.4916811519
62
2
0
LINE
8
Setbacks
10
20.5174482697
20
-38.4916811519
11
20.5179891534
21
-38.4915308614
62
2
0
LINE
8
Setbacks
10
20.5179891534
20
-38.4915308614
11
21.3453979725
21
-38.3363763289
62
2
0
LINE
8
Setbacks
10
21.3453979725
20
-38.3363763289
11
21.3459696763
21
-38.3363202901
62
2
0
LINE
8
Setbacks
10
21.3459696763
20
-38.3363202901
11
28.6949653037
21
-38.2624528588
62
2
0
LINE
8
Setbacks
10
28.5352914268
20
-22.3766789147
11
28.2017259884
21
-22.4392286343
62
2
0
LINE
8
Setbacks
10
28.2017259884
20
-22.4392286343
11
28.2011542847
21
-22.4392846731
62
2
0
LINE
8
Setbacks
10
28.2011542847
20
-22.4392846731
11
25.6577014474
21
-22.4648499626
62
2
0
LINE
8
Setbacks
10
25.6577014474
20
-22.4648499626
11
25.6571287322
21
-22.4648054268
62
2
0
LINE
8
Setbacks
10
25.6571287322
20
-22.4648054268
11
24.8267681413
21
-22.3263136244
62
2
0
LINE
8
Setbacks
10
24.8267681413
20
-22.3263136244
11
24.8262243462
21
-22.3261742364
62
2
0
LINE
8
Setbacks
10
24.8262243462
20
-22.3261742364
11
24.8257122744
21
-22.3259441828
62
2
0
LINE
8
Setbacks
10
24.8257122744
20
-22.3259441828
11
24.0736817385
21
-21.9073631326
62
2
0
LINE
8
Setbacks
10
24.0736817385
20
-21.9073631326
11
24.0732411900
21
-21.9070689799
62
2
0
LINE
8
Setbacks
10
24.0732411900
20
-21.9070689799
11
24.0728537229
21
-21.9067077626
62
2
0
LINE
8
Setbacks
10
24.0728537229
20
-21.9067077626
11
23.4727670895
21
-21.2490105630
62
2
0
LINE
8
Setbacks
10
23.4727670895
20
-21.2490105630
11
23.4724619523
21
-21.2486207144
62
2
0
LINE
8
Setbacks
10
23.4724619523
20
-21.2486207144
11
23.4722189480
21
-21.2481893913
62
2
0
LINE
8
Setbacks
10
23.4722189480
20
-21.2481893913
11
23.0828170326
21
-20.4157566219
62
2
0
LINE
8
Setbacks
10
23.0828170326
20
-20.4157566219
11
23.0825451585
21
-20.4148591366
62
2
0
LINE
8
Setbacks
10
23.0825451585
20
-20.4148591366
11
22.9419447603
21
-19.4891743957
62
2
0
LINE
8
Setbacks
10
22.9419447603
20
-19.4891743957
11
22.9419355125
21
-19.4882543560
62
2
0
LINE
8
Setbacks
10
22.9419355125
20
-19.4882543560
11
22.9716127329
21
-19.2623690398
62
2
0
LINE
8
Setbacks
10
22.9716127329
20
-19.2623690398
11
12.8771598804
21
-11.6083482626
62
2
0
LINE
8
Setbacks
10
12.8771598804
20
-11.6083482626
11
12.8767694154
21
-11.6079998154
62
2
0
LINE
8
Setbacks
10
12.8767694154
20
-11.6079998154
11
12.8545214892
21
-11.5847024465
62
2
0
LINE
8
Setbacks
10
12.8545214892
20
-11.5847024465
11
12.8275684867
21
-11.5688338343
62
2
0
LINE
8
Setbacks
10
12.8275684867
20
-11.5688338343
11
12.8271372004
21
-11.5685307753
62
2
0
LINE
8
Setbacks
10
12.8271372004
20
-11.5685307753
11
12.8267600142
21
-11.5681625590
62
2
0
LINE
8
Setbacks
10
12.8267600142
20
-11.5681625590
11
12.7012990583
21
-11.4242514432
62
2
0
LINE
8
Setbacks
10
12.7012990583
20
-11.4242514432
11
12.5701115915
21
-11.2868751272
62
2
0
LINE
8
Setbacks
10
12.5701115915
20
-11.2868751272
11
12.5697963456
21
-11.2864904207
62
2
0
LINE
8
Setbacks
10
12.5697963456
20
-11.2864904207
11
12.5695428756
21
-11.2860624813
62
2
0
LINE
8
Setbacks
10
12.5695428756
20
-11.2860624813
11
12.5547856241
21
-11.2561919642
62
2
0
LINE
8
Setbacks
10
12.5547856241
20
-11.2561919642
11
12.5334873680
21
-11.2317616307
62
2
0
LINE
8
Setbacks
10
12.5334873680
20
-11.2317616307
11
12.5331923350
21
-11.2313668859
62
2
0
LINE
8
Setbacks
10
12.5331923350
20
-11.2313668859
11
12.5329597577
21
-11.2309324025
62
2
0
LINE
8
Setbacks
10
12.5329597577
20
-11.2309324025
11
12.4533137797
21
-11.0507997374
62
2
0
LINE
8
Setbacks
10
12.4533137797
20
-11.0507997374
11
12.3664122910
21
-10.8749000651
62
2
0
LINE
8
Setbacks
10
12.3664122910
20
-10.8749000651
11
12.3661208923
21
-10.8740059696
62
2
0
LINE
8
Setbacks
10
12.3661208923
20
-10.8740059696
11
12.3603242585
21
-10.8404884053
62
2
0
LINE
8
Setbacks
10
12.3603242585
20
-10.8404884053
11
12.3467898087
21
-10.8098782652
62
2
0
LINE
8
Setbacks
10
12.3467898087
20
-10.8098782652
11
12.3465373713
21
-10.8089776442
62
2
0
LINE
8
Setbacks
10
12.3465373713
20
-10.8089776442
11
12.3205070659
21
-10.6102579232
62
2
0
LINE
8
Setbacks
10
12.3205070659
20
-10.6102579232
11
12.2864014031
21
-10.4130538641
62
2
0
LINE
8
Setbacks
10
12.2864014031
20
-10.4130538641
11
12.2863732926
21
-10.4121341203
62
2
0
LINE
8
Setbacks
10
12.2863732926
20
-10.4121341203
11
12.2901184500
21
-10.3782694393
62
2
0
LINE
8
Setbacks
10
12.2901184500
20
-10.3782694393
11
12.2856932083
21
-10.3444858242
62
2
0
LINE
8
Setbacks
10
12.2856932083
20
-10.3444858242
11
12.2857028255
21
-10.3435657026
62
2
0
LINE
8
Setbacks
10
12.2857028255
20
-10.3435657026
11
12.3158380383
21
-10.1457129094
62
2
0
LINE
8
Setbacks
10
12.3158380383
20
-10.1457129094
11
12.3378683739
21
-9.9465133626
62
2
0
LINE
8
Setbacks
10
12.3378683739
20
-9.9465133626
11
12.3381026517
21
-9.9456078631
62
2
0
LINE
8
Setbacks
10
12.3381026517
20
-9.9456078631
11
12.3510189129
21
-9.9147318913
62
2
0
LINE
8
Setbacks
10
12.3510189129
20
-9.9147318913
11
12.3561408207
21
-9.8811043960
62
2
0
LINE
8
Setbacks
10
12.3561408207
20
-9.8811043960
11
12.3564141867
21
-9.8802046370
62
2
0
LINE
8
Setbacks
10
12.3564141867
20
-9.8802046370
11
12.4397624782
21
-9.7025936308
62
2
0
LINE
8
Setbacks
10
12.4397624782
20
-9.7025936308
11
12.5157716224
21
-9.5208965591
62
2
0
LINE
8
Setbacks
10
12.5157716224
20
-9.5208965591
11
12.5159954171
21
-9.5204574925
62
2
0
LINE
8
Setbacks
10
12.5159954171
20
-9.5204574925
11
12.5162824526
21
-9.5200569003
62
2
0
LINE
8
Setbacks
10
12.5162824526
20
-9.5200569003
11
12.5370855814
21
-9.4952029887
62
2
0
LINE
8
Setbacks
10
12.5370855814
20
-9.4952029887
11
12.5512393267
21
-9.4650422166
62
2
0
LINE
8
Setbacks
10
12.5512393267
20
-9.4650422166
11
12.5514841423
21
-9.4646092721
62
2
0
LINE
8
Setbacks
10
12.5514841423
20
-9.4646092721
11
12.5517915894
21
-9.4642183093
62
2
0
LINE
8
Setbacks
10
12.5517915894
20
-9.4642183093
11
12.6801901228
21
-9.3242337622
62
2
0
LINE
8
Setbacks
10
12.6801901228
20
-9.3242337622
11
12.8027339096
21
-9.1778288659
62
2
0
LINE
8
Setbacks
10
12.8027339096
20
-9.1778288659
11
12.8031036141
21
-9.1774531459
62
2
0
LINE
8
Setbacks
10
12.8031036141
20
-9.1774531459
11
12.8035287165
21
-9.1771414812
62
2
0
LINE
8
Setbacks
10
12.8035287165
20
-9.1771414812
11
12.8301573909
21
-9.1607341330
62
2
0
LINE
8
Setbacks
10
12.8301573909
20
-9.1607341330
11
12.8519326870
21
-9.1369942044
62
2
0
LINE
8
Setbacks
10
12.8519326870
20
-9.1369942044
11
12.8523160642
21
-9.1366379844
62
2
0
LINE
8
Setbacks
10
12.8523160642
20
-9.1366379844
11
22.7908779979
21
-1.2812580645
62
2
0
LINE
8
Setbacks
10
22.7908779979
20
-1.2812580645
11
22.7566662112
21
-1.0560150142
62
2
0
LINE
8
Setbacks
10
22.7566662112
20
-1.0560150142
11
22.7566569633
21
-1.0550949734
62
2
0
LINE
8
Setbacks
10
22.7566569633
20
-1.0550949734
11
22.8786218622
21
-0.1267711248
62
2
0
LINE
8
Setbacks
10
22.8786218622
20
-0.1267711248
11
22.8788756416
21
-0.1258683550
62
2
0
LINE
8
Setbacks
10
22.8788756416
20
-0.1258683550
11
23.2514665328
21
0.7142235354
62
2
0
LINE
8
Setbacks
10
23.2514665328
20
0.7142235354
11
23.2517008178
21
0.7146596554
62
2
0
LINE
8
Setbacks
10
23.2517008178
20
0.7146596554
11
23.2519980567
21
0.7150555584
62
2
0
LINE
8
Setbacks
10
23.2519980567
20
0.7150555584
11
23.8387431543
21
1.3846822202
62
2
0
LINE
8
Setbacks
10
23.8387431543
20
1.3846822202
11
23.8391232826
21
1.3850511533
62
2
0
LINE
8
Setbacks
10
23.8391232826
20
1.3850511533
11
23.8395578298
21
1.3853541021
62
2
0
LINE
8
Setbacks
10
23.8395578298
20
1.3853541021
11
24.5830227486
21
1.8189669769
62
2
0
LINE
8
Setbacks
10
24.5830227486
20
1.8189669769
11
24.5835300929
21
1.8192072772
62
2
0
LINE
8
Setbacks
10
24.5835300929
20
1.8192072772
11
24.5840709766
21
1.8193575677
62
2
0
LINE
8
Setbacks
10
24.5840709766
20
1.8193575677
11
25.4114801238
21
1.9745121002
62
2
0
LINE
8
Setbacks
10
25.4114801238
20
1.9745121002
11
25.4120518277
21
1.9745681389
62
2
0
LINE
8
Setbacks
10
25.4120518277
20
1.9745681389
11
27.9555046650
21
2.0001331004
62
2
0
LINE
8
Setbacks
10
27.9555046650
20
2.0001331004
11
27.9560773787
21
2.0000885647
62
2
0
LINE
8
Setbacks
10
27.9560773787
20
2.0000885647
11
28.2908325760
21
1.9442564845
62
2
0
LINE
8
Setbacks
10
17.4918811333
20
-11.5888213966
11
25.1470019801
21
-17.3932423496
62
2
0
LINE
8
Setbacks
10
25.1470019801
20
-17.3932423496
11
25.0878922115
21
-11.5124708421
62
2
0
LINE
8
Setbacks
10
25.0878922115
20
-11.5124708421
11
17.4918811333
21
-11.5888213966
62
2
0
LINE
8
Setbacks
10
17.4664972692
20
-9.0634020278
11
25.0625080189
21
-8.9870514733
62
2
0
LINE
8
Setbacks
10
25.0625080189
20
-8.9870514733
11
25.0033985778
21
-3.1062802941
62
2
0
LINE
8
Setbacks
10
25.0033985778
20
-3.1062802941
11
17.4664972692
21
-9.0634020278
62
2
0
LINE
8
Inverters
10
35.2525778522
20
14.7919494923
11
37.7132078522
21
14.7919494923
0
LINE
8
Inverters
10
37.7132078522
20
14.7919494923
11
37.7132078522
21
17.2525794923
0
LINE
8
Inverters
10
37.7132078522
20
17.2525794923
11
35.2525778522
21
17.2525794923
0
LINE
8
Inverters
10
35.2525778522
20
17.2525794923
11
35.2525778522
21
14.7919494923
0
LINE
8
Inverters
10
35.2525778522
20
14.7919494923
11
37.7132078522
21
17.2525794923
0
TEXT
8
Inverters
100
AcDbText
10
35.4166198522
20
16.3339442923
1
DC
7
NewTextStyle_4
40
0.7545932000000003
50
0
0
TEXT
8
Inverters
100
AcDbText
10
36.2532340522
20
14.9559914923
1
AC
7
NewTextStyle_4
40
0.7545932000000003
50
0
0
LINE
8
Inverters
10
-26.3446423651
20
15.8245636703
11
-28.8052723651
21
15.8245636703
0
LINE
8
Inverters
10
-28.8052723651
20
15.8245636703
11
-28.8052723651
21
13.3639336703
0
LINE
8
Inverters
10
-28.8052723651
20
13.3639336703
11
-26.3446423651
21
13.3639336703
0
LINE
8
Inverters
10
-26.3446423651
20
13.3639336703
11
-26.3446423651
21
15.8245636703
0
LINE
8
Inverters
10
-26.3446423651
20
15.8245636703
11
-28.8052723651
21
13.3639336703
0
TEXT
8
Inverters
100
AcDbText
10
-26.5086843651
20
14.2825688703
1
DC
7
NewTextStyle_4
40
0.7545932000000003
50
-180
0
TEXT
8
Inverters
100
AcDbText
10
-27.3452985651
20
15.6605216703
1
AC
7
NewTextStyle_4
40
0.7545932000000003
50
-180
0
LINE
8
Inverters
10
39.6807655916
20
-18.3857284429
11
37.2201355916
21
-18.3857284429
0
LINE
8
Inverters
10
37.2201355916
20
-18.3857284429
11
37.2201355916
21
-20.8463584429
0
LINE
8
Inverters
10
37.2201355916
20
-20.8463584429
11
39.6807655916
21
-20.8463584429
0
LINE
8
Inverters
10
39.6807655916
20
-20.8463584429
11
39.6807655916
21
-18.3857284429
0
LINE
8
Inverters
10
39.6807655916
20
-18.3857284429
11
37.2201355916
21
-20.8463584429
0
TEXT
8
Inverters
100
AcDbText
10
39.5167235916
20
-19.9277232429
1
DC
7
NewTextStyle_4
40
0.7545932000000003
50
-180
0
TEXT
8
Inverters
100
AcDbText
10
38.6801093916
20
-18.5497704429
1
AC
7
NewTextStyle_4
40
0.7545932000000003
50
-180
0
LINE
8
Strings
10
23.7331186973
20
32.6507965729
11
23.7710123988
21
28.8890157598
62
11
0
LINE
8
Strings
10
23.7710123988
20
28.8890157598
11
23.8089061045
21
25.1308871615
62
11
0
LINE
8
Strings
10
23.8089061045
20
25.1308871615
11
23.8467998102
21
21.3727585631
62
11
0
LINE
8
Strings
10
23.8467998102
20
21.3727585631
11
23.8846935159
21
17.6146299648
62
11
0
LINE
8
Strings
10
23.8846935159
20
17.6146299648
11
23.9225872174
21
13.8565013638
62
11
0
LINE
8
Strings
10
23.9225872174
20
13.8565013638
11
23.9604809231
21
10.0983727655
62
11
0
LINE
8
Strings
10
23.9604809231
20
10.0983727655
11
23.9983746288
21
6.3365919524
62
11
0
LINE
8
Strings
10
23.9983746288
20
6.3365919524
11
17.8450199760
21
2.5163757096
62
11
0
LINE
8
Strings
10
17.8450199760
20
2.5163757096
11
17.8071262744
21
6.2745043080
62
11
0
LINE
8
Strings
10
17.7692325687
20
10.0362851210
11
18.1627441141
21
-21.4859772079
62
11
0
LINE
8
Strings
10
18.1627441141
20
-21.4859772079
11
18.2006378198
21
-25.2441058063
62
11
0
LINE
8
Strings
10
18.2006378198
20
-25.2441058063
11
18.2356166270
21
-29.0058866193
62
11
0
LINE
8
Strings
10
18.2356166270
20
-29.0058866193
11
18.2735103285
21
-32.7640152177
62
11
0
LINE
8
Strings
10
18.2735103285
20
-32.7640152177
11
18.3114040342
21
-36.5257960307
62
11
0
LINE
8
Strings
10
18.3114040342
20
-36.5257960307
11
24.5055672913
21
-36.4637083863
62
11
0
LINE
8
Strings
10
24.5055672913
20
-36.4637083863
11
24.4676735856
21
-32.7019275732
62
11
0
LINE
8
Strings
10
24.4676735856
20
-32.7019275732
11
24.4297798799
21
-28.9437989749
62
11
0
LINE
8
Strings
10
24.4297798799
20
-28.9437989749
11
24.3918861783
21
-25.1820181619
62
11
0
LINE
8
Strings
10
-9.9864486210
20
32.4389681394
11
-9.9485549153
21
28.6808395410
62
11
0
LINE
8
Strings
10
-9.9485549153
20
28.6808395410
11
-9.9135761123
21
24.9227109426
62
11
0
LINE
8
Strings
10
-9.9135761123
20
24.9227109426
11
-9.8756824066
21
21.1645823417
62
11
0
LINE
8
Strings
10
-9.8756824066
20
21.1645823417
11
-9.8377887009
21
17.4064537433
62
11
0
LINE
8
Strings
10
-9.8377887009
20
17.4064537433
11
-9.7998949952
21
13.6483251450
62
11
0
LINE
8
Strings
10
-9.7998949952
20
13.6483251450
11
-9.7620012936
21
9.8865443319
62
11
0
LINE
8
Strings
10
-9.7620012936
20
9.8865443319
11
-9.7241075880
21
6.1284157336
62
11
0
LINE
8
Strings
10
-9.7241075880
20
6.1284157336
11
-3.5707529351
21
9.9486319764
62
11
0
LINE
8
Strings
10
-3.5707529351
20
9.9486319764
11
-3.5328592336
21
6.1905033780
62
11
0
LINE
8
Strings
10
-3.4949655279
20
2.4323747797
11
-3.2530287970
21
-21.5955436381
62
11
0
LINE
8
Strings
10
-3.2530287970
20
-21.5955436381
11
-3.2151350954
21
-25.3536722364
62
11
0
LINE
8
Strings
10
-3.2151350954
20
-25.3536722364
11
-3.1772413898
21
-29.1118008374
62
11
0
LINE
8
Strings
10
-3.1772413898
20
-29.1118008374
11
-3.1393476841
21
-32.8699294357
62
11
0
LINE
8
Strings
10
-3.1393476841
20
-32.8699294357
11
-3.1014539784
21
-36.6280580341
62
11
0
LINE
8
Strings
10
-3.1014539784
20
-36.6280580341
11
-9.2927023369
21
-36.6901456785
62
11
0
LINE
8
Strings
10
-9.2927023369
20
-36.6901456785
11
-9.3305960384
21
-32.9320170802
62
11
0
LINE
8
Strings
10
-9.3305960384
20
-32.9320170802
11
-9.3684897441
21
-29.1738884818
62
11
0
LINE
8
Strings
10
-9.3684897441
20
-29.1738884818
11
-9.4063834498
21
-25.4157598809
62
11
0
LINE
8
Strings
10
-3.7952002625
20
32.5010557838
11
-3.7573065609
21
28.7429271854
62
11
0
LINE
8
Strings
10
-3.7573065609
20
28.7429271854
11
-3.7194128552
21
24.9847985871
62
11
0
LINE
8
Strings
10
-3.7194128552
20
24.9847985871
11
-3.6815191495
21
21.2266699861
62
11
0
LINE
8
Strings
10
-3.6815191495
20
21.2266699861
11
-3.6436254439
21
17.4685413878
62
11
0
LINE
8
Strings
10
-3.6436254439
20
17.4685413878
11
-3.6086466408
21
13.7104127894
62
11
0
LINE
8
Strings
10
-3.6086466408
20
13.7104127894
11
2.5855166162
21
13.7725004339
62
11
0
LINE
8
Strings
10
2.5855166162
20
13.7725004339
11
2.6234103178
21
10.0107196208
62
11
0
LINE
8
Strings
10
2.6234103178
20
10.0107196208
11
2.6613040234
21
6.2525910225
62
11
0
LINE
8
Strings
10
2.6613040234
20
6.2525910225
11
2.6991977291
21
2.4944624241
62
11
0
LINE
8
Strings
10
2.7341765322
20
-1.2636661742
11
2.7720702378
21
-5.0217947752
62
11
0
LINE
8
Strings
10
2.7720702378
20
-5.0217947752
11
2.8624321501
21
-14.0135465822
62
11
0
LINE
8
Strings
10
2.8624321501
20
-14.0135465822
11
2.9003258517
21
-17.7716751806
62
11
0
LINE
8
Strings
10
2.9003258517
20
-17.7716751806
11
2.9382195574
21
-21.5298037790
62
11
0
LINE
8
Strings
10
2.9382195574
20
-21.5298037790
11
2.9761132631
21
-25.2915845920
62
11
0
LINE
8
Strings
10
2.9761132631
20
-25.2915845920
11
3.0140069688
21
-29.0497131929
62
11
0
LINE
8
Strings
10
3.0140069688
20
-29.0497131929
11
3.0519006703
21
-32.8078417913
62
11
0
LINE
8
Strings
10
3.0519006703
20
-32.8078417913
11
3.0897943760
21
-36.5659703896
62
11
0
LINE
8
Strings
10
3.0897943760
20
-36.5659703896
11
3.1276880817
21
-40.3240989880
62
11
0
LINE
8
Strings
10
17.5418703387
20
32.5887089284
11
17.5797640444
21
28.8269281154
62
11
0
LINE
8
Strings
10
17.5797640444
20
28.8269281154
11
17.6176577501
21
25.0687995170
62
11
0
LINE
8
Strings
10
17.6176577501
20
25.0687995170
11
17.6555514558
21
21.3106709187
62
11
0
LINE
8
Strings
10
17.6555514558
20
21.3106709187
11
17.6934451574
21
17.5525423203
62
11
0
LINE
8
Strings
10
17.6934451574
20
17.5525423203
11
17.7313388631
21
13.7944137194
62
11
0
LINE
8
Strings
10
17.7313388631
20
13.7944137194
11
11.5400905087
21
13.7323260749
62
11
0
LINE
8
Strings
10
11.5400905087
20
13.7323260749
11
11.5779842102
21
9.9741974766
62
11
0
LINE
8
Strings
10
11.5779842102
20
9.9741974766
11
11.6158779159
21
6.2124166635
62
11
0
LINE
8
Strings
10
11.6158779159
20
6.2124166635
11
11.6537716216
21
2.4542880652
62
11
0
LINE
8
Strings
10
11.6916653273
20
-1.3038405332
11
11.7295590289
21
-5.0619691315
62
11
0
LINE
8
Strings
10
11.7295590289
20
-5.0619691315
11
11.8957083525
21
-14.0318076531
62
11
0
LINE
8
Strings
10
11.8957083525
20
-14.0318076531
11
11.9306871555
21
-17.7899362540
62
11
0
LINE
8
Strings
10
11.9306871555
20
-17.7899362540
11
11.9685808612
21
-21.5480648524
62
11
0
LINE
8
Strings
10
11.9685808612
20
-21.5480648524
11
12.0064745628
21
-25.3061934507
62
11
0
LINE
8
Strings
10
12.0064745628
20
-25.3061934507
11
12.0443682685
21
-29.0679742638
62
11
0
LINE
8
Strings
10
12.0443682685
20
-29.0679742638
11
12.0822619742
21
-32.8297550768
62
11
0
LINE
8
Strings
10
12.0822619742
20
-32.8297550768
11
12.1201556799
21
-36.5878836752
62
11
0
LINE
8
Strings
10
12.1201556799
20
-36.5878836752
11
12.1580493814
21
-40.3460122735
62
11
0
LINE
8
Connections
10
17.8071262744
20
6.2745043080
11
18.2992274165
21
6.2794506004
62
91
0
LINE
8
Connections
10
18.2992274165
20
6.2794506004
11
18.2942811241
21
6.7715517426
62
91
0
LINE
8
Connections
10
18.2942811241
20
6.7715517426
11
18.2080918508
21
15.3464267792
62
91
0
LINE
8
Connections
10
18.2080918508
20
15.3464267792
11
35.9957380026
21
15.5252170577
62
91
0
LINE
8
Connections
10
35.9957380026
20
15.5252170577
11
36.4878391447
21
15.5301633502
62
91
0
LINE
8
Connections
10
36.4878391447
20
15.5301633502
11
36.4828928522
21
16.0222644923
62
91
0
LINE
8
Connections
10
24.3918861783
20
-25.1820181619
11
24.8839873204
21
-25.1770718694
62
91
0
LINE
8
Connections
10
24.8839873204
20
-25.1770718694
11
24.8790410280
21
-24.6849707273
62
91
0
LINE
8
Connections
10
24.8790410280
20
-24.6849707273
11
24.4760372412
21
15.4094282406
62
91
0
LINE
8
Connections
10
24.4760372412
20
15.4094282406
11
35.9957380026
21
15.5252170577
62
91
0
LINE
8
Connections
10
35.9957380026
20
15.5252170577
11
36.4878391447
21
15.5301633502
62
91
0
LINE
8
Connections
10
36.4878391447
20
15.5301633502
11
36.4828928522
21
16.0222644923
62
91
0
LINE
8
Connections
10
-3.5328592336
20
6.1905033780
11
-4.0249603757
21
6.1855570856
62
91
0
LINE
8
Connections
10
-4.0249603757
20
6.1855570856
11
-4.0299066682
21
6.6776582277
62
91
0
LINE
8
Connections
10
-4.0299066682
20
6.6776582277
11
-4.1069034650
21
14.3379839906
62
91
0
LINE
8
Connections
10
-4.1069034650
20
14.3379839906
11
-27.0779099306
21
14.1070938206
62
91
0
LINE
8
Connections
10
-27.0779099306
20
14.1070938206
11
-27.5700110727
21
14.1021475282
62
91
0
LINE
8
Connections
10
-27.5700110727
20
14.1021475282
11
-27.5749573651
21
14.5942486703
62
91
0
LINE
8
Connections
10
-9.4063834498
20
-25.4157598809
11
-9.8984845919
21
-25.4207061733
62
91
0
LINE
8
Connections
10
-9.8984845919
20
-25.4207061733
11
-9.9034308844
21
-24.9286050312
62
91
0
LINE
8
Connections
10
-9.9034308844
20
-24.9286050312
11
-10.2974886086
21
14.2757601060
62
91
0
LINE
8
Connections
10
-10.2974886086
20
14.2757601060
11
-27.0779099306
21
14.1070938206
62
91
0
LINE
8
Connections
10
-27.0779099306
20
14.1070938206
11
-27.5700110727
21
14.1021475282
62
91
0
LINE
8
Connections
10
-27.5700110727
20
14.1021475282
11
-27.5749573651
21
14.5942486703
62
91
0
LINE
8
Connections
10
2.6991977291
20
2.4944624241
11
3.1912988712
21
2.4994087166
62
91
0
LINE
8
Connections
10
3.1912988712
20
2.4994087166
11
3.1962451637
21
2.0073075745
62
91
0
LINE
8
Connections
10
3.1962451637
20
2.0073075745
11
3.4121826731
21
-19.4760753079
62
91
0
LINE
8
Connections
10
3.4121826731
20
-19.4760753079
11
37.9534031570
21
-19.1288885932
62
91
0
LINE
8
Connections
10
37.9534031570
20
-19.1288885932
11
38.4455042991
21
-19.1239423008
62
91
0
LINE
8
Connections
10
38.4455042991
20
-19.1239423008
11
38.4504505916
21
-19.6160434429
62
91
0
LINE
8
Connections
10
3.1276880817
20
-40.3240989880
11
3.6197892238
21
-40.3191526955
62
91
0
LINE
8
Connections
10
3.6197892238
20
-40.3191526955
11
3.6148429313
21
-39.8270515534
62
91
0
LINE
8
Connections
10
3.6148429313
20
-39.8270515534
11
3.4201804405
21
-20.4602966377
62
91
0
LINE
8
Connections
10
3.4201804405
20
-20.4602966377
11
37.9632957419
21
-20.1130908775
62
91
0
LINE
8
Connections
10
37.9632957419
20
-20.1130908775
11
38.4553968840
21
-20.1081445850
62
91
0
LINE
8
Connections
10
38.4553968840
20
-20.1081445850
11
38.4504505916
21
-19.6160434429
62
91
0
LINE
8
Connections
10
11.6537716216
20
2.4542880652
11
12.1458727637
21
2.4592343577
62
91
0
LINE
8
Connections
10
12.1458727637
20
2.4592343577
11
12.1409264713
21
2.9513354998
62
91
0
LINE
8
Connections
10
12.1409264713
20
2.9513354998
11
12.0169642672
21
15.2841974423
62
91
0
LINE
8
Connections
10
12.0169642672
20
15.2841974423
11
35.9957380026
21
15.5252170577
62
91
0
LINE
8
Connections
10
35.9957380026
20
15.5252170577
11
36.4878391447
21
15.5301633502
62
91
0
LINE
8
Connections
10
36.4878391447
20
15.5301633502
11
36.4828928522
21
16.0222644923
62
91
0
LINE
8
Connections
10
12.1580493814
20
-40.3460122735
11
11.6659482393
21
-40.3509585660
62
91
0
LINE
8
Connections
10
11.6659482393
20
-40.3509585660
11
11.6610019468
21
-39.8588574239
62
91
0
LINE
8
Connections
10
11.6610019468
20
-39.8588574239
11
11.1147113996
21
14.4909821297
62
91
0
LINE
8
Connections
10
11.1147113996
20
14.4909821297
11
-27.0779099306
21
14.1070938206
62
91
0
LINE
8
Connections
10
-27.0779099306
20
14.1070938206
11
-27.5700110727
21
14.1021475282
62
91
0
LINE
8
Connections
10
-27.5700110727
20
14.1021475282
11
-27.5749573651
21
14.5942486703
62
91
0
ENDSEC
0
EOF