999
Design created by Aurora
0
SECTION
2
HEADER
9
$ACADVER
1
AC1009
9
$INSUNITS
70
2
0
ENDSEC
0
SECTION
2
TABLES
0
TABLE
2
LTYPE
100
AcDbLinetypeTableRecord
2
LTYPE
0
LTYPE
2
DASHED
70
0
3
dashed line
72
65
73
2
40
4.0
49
2.0
49
-2.0
0
ENDTAB
0
TABLE
2
LAYER
70
4
0
LAYER
100
AcDbSymbolTable
100
AcDbLayerTable
2
Inverters
70
0
62
7
6
CONTINUOUS
0
LAYER
100
AcDbSymbolTable
100
AcDbLayerTable
2
Connections
70
0
62
7
6
CONTINUOUS
0
LAYER
100
AcDbSymbolTable
100
AcDbLayerTable
2
Strings
70
0
62
7
6
CONTINUOUS
0
LAYER
100
AcDbSymbolTable
100
AcDbLayerTable
2
Modules
70
0
62
7
6
CONTINUOUS
0
ENDTAB
0
ENDSEC
0
SECTION
2
ENTITIES
0
LINE
8
Modules
10
-196.1856612842
20
-18.2834427326
11
-194.4381910523
21
-24.5922128398
62
254
0
LINE
8
Modules
10
-194.4381910523
20
-24.5922128398
11
-190.8558840466
21
-23.5999473511
62
254
0
LINE
8
Modules
10
-190.8558840466
20
-23.5999473511
11
-192.6033542785
21
-17.2911772438
62
254
0
LINE
8
Modules
10
-192.6033542785
20
-17.2911772438
11
-196.1856612842
21
-18.2834427326
62
254
0
LINE
8
Modules
10
-192.6033542785
20
-17.2911772438
11
-190.8558840466
21
-23.5999473511
62
254
0
LINE
8
Modules
10
-190.8558840466
20
-23.5999473511
11
-187.2735770409
21
-22.6076818623
62
254
0
LINE
8
Modules
10
-187.2735770409
20
-22.6076818623
11
-189.0210472728
21
-16.2989117550
62
254
0
LINE
8
Modules
10
-189.0210472728
20
-16.2989117550
11
-192.6033542785
21
-17.2911772438
62
254
0
LINE
8
Modules
10
-189.0210472728
20
-16.2989117550
11
-187.2735770409
21
-22.6076818623
62
254
0
LINE
8
Modules
10
-187.2735770409
20
-22.6076818623
11
-183.6912700352
21
-21.6154163735
62
254
0
LINE
8
Modules
10
-183.6912700352
20
-21.6154163735
11
-185.4387402671
21
-15.3066462663
62
254
0
LINE
8
Modules
10
-185.4387402671
20
-15.3066462663
11
-189.0210472728
21
-16.2989117550
62
254
0
LINE
8
Modules
10
-185.4387402671
20
-15.3066462663
11
-183.6912700352
21
-21.6154163735
62
254
0
LINE
8
Modules
10
-183.6912700352
20
-21.6154163735
11
-180.1089630295
21
-20.6231508848
62
254
0
LINE
8
Modules
10
-180.1089630295
20
-20.6231508848
11
-181.8564332615
21
-14.3143807775
62
254
0
LINE
8
Modules
10
-181.8564332615
20
-14.3143807775
11
-185.4387402671
21
-15.3066462663
62
254
0
LINE
8
Modules
10
-181.8564332615
20
-14.3143807775
11
-180.1089630295
21
-20.6231508848
62
254
0
LINE
8
Modules
10
-180.1089630295
20
-20.6231508848
11
-176.5266560238
21
-19.6308853960
62
254
0
LINE
8
Modules
10
-176.5266560238
20
-19.6308853960
11
-178.2741262558
21
-13.3221152887
62
254
0
LINE
8
Modules
10
-178.2741262558
20
-13.3221152887
11
-181.8564332615
21
-14.3143807775
62
254
0
LINE
8
Modules
10
-178.2741262558
20
-13.3221152887
11
-176.5266560238
21
-19.6308853960
62
254
0
LINE
8
Modules
10
-176.5266560238
20
-19.6308853960
11
-172.9443490182
21
-18.6386199072
62
254
0
LINE
8
Modules
10
-172.9443490182
20
-18.6386199072
11
-174.6918192501
21
-12.3298498000
62
254
0
LINE
8
Modules
10
-174.6918192501
20
-12.3298498000
11
-178.2741262558
21
-13.3221152887
62
254
0
LINE
8
Modules
10
-174.6918192501
20
-12.3298498000
11
-172.9443490182
21
-18.6386199072
62
254
0
LINE
8
Modules
10
-172.9443490182
20
-18.6386199072
11
-169.3620420125
21
-17.6463544185
62
254
0
LINE
8
Modules
10
-169.3620420125
20
-17.6463544185
11
-171.1095122444
21
-11.3375843112
62
254
0
LINE
8
Modules
10
-171.1095122444
20
-11.3375843112
11
-174.6918192501
21
-12.3298498000
62
254
0
LINE
8
Modules
10
-171.1095122444
20
-11.3375843112
11
-169.3620420125
21
-17.6463544185
62
254
0
LINE
8
Modules
10
-169.3620420125
20
-17.6463544185
11
-165.7797350068
21
-16.6540889297
62
254
0
LINE
8
Modules
10
-165.7797350068
20
-16.6540889297
11
-167.5272052387
21
-10.3453188224
62
254
0
LINE
8
Modules
10
-167.5272052387
20
-10.3453188224
11
-171.1095122444
21
-11.3375843112
62
254
0
LINE
8
Modules
10
-167.5272052387
20
-10.3453188224
11
-165.7797350068
21
-16.6540889297
62
254
0
LINE
8
Modules
10
-165.7797350068
20
-16.6540889297
11
-162.1974280011
21
-15.6618234409
62
254
0
LINE
8
Modules
10
-162.1974280011
20
-15.6618234409
11
-163.9448982330
21
-9.3530533337
62
254
0
LINE
8
Modules
10
-163.9448982330
20
-9.3530533337
11
-167.5272052387
21
-10.3453188224
62
254
0
LINE
8
Modules
10
-163.9448982330
20
-9.3530533337
11
-162.1974280011
21
-15.6618234409
62
254
0
LINE
8
Modules
10
-162.1974280011
20
-15.6618234409
11
-158.6151209954
21
-14.6695579522
62
254
0
LINE
8
Modules
10
-158.6151209954
20
-14.6695579522
11
-160.3625912273
21
-8.3607878449
62
254
0
LINE
8
Modules
10
-160.3625912273
20
-8.3607878449
11
-163.9448982330
21
-9.3530533337
62
254
0
LINE
8
Modules
10
-160.3625912273
20
-8.3607878449
11
-158.6151209954
21
-14.6695579522
62
254
0
LINE
8
Modules
10
-158.6151209954
20
-14.6695579522
11
-155.0328139897
21
-13.6772924634
62
254
0
LINE
8
Modules
10
-155.0328139897
20
-13.6772924634
11
-156.7802842216
21
-7.3685223561
62
254
0
LINE
8
Modules
10
-156.7802842216
20
-7.3685223561
11
-160.3625912273
21
-8.3607878449
62
254
0
LINE
8
Modules
10
-156.7802842216
20
-7.3685223561
11
-155.0328139897
21
-13.6772924634
62
254
0
LINE
8
Modules
10
-155.0328139897
20
-13.6772924634
11
-151.4505069840
21
-12.6850269746
62
254
0
LINE
8
Modules
10
-151.4505069840
20
-12.6850269746
11
-153.1979772159
21
-6.3762568674
62
254
0
LINE
8
Modules
10
-153.1979772159
20
-6.3762568674
11
-156.7802842216
21
-7.3685223561
62
254
0
LINE
8
Modules
10
-153.1979772159
20
-6.3762568674
11
-151.4505069840
21
-12.6850269746
62
254
0
LINE
8
Modules
10
-151.4505069840
20
-12.6850269746
11
-147.8681999783
21
-11.6927614859
62
254
0
LINE
8
Modules
10
-147.8681999783
20
-11.6927614859
11
-149.6156702102
21
-5.3839913786
62
254
0
LINE
8
Modules
10
-149.6156702102
20
-5.3839913786
11
-153.1979772159
21
-6.3762568674
62
254
0
LINE
8
Modules
10
-149.6156702102
20
-5.3839913786
11
-147.8681999783
21
-11.6927614859
62
254
0
LINE
8
Modules
10
-147.8681999783
20
-11.6927614859
11
-144.2858929726
21
-10.7004959971
62
254
0
LINE
8
Modules
10
-144.2858929726
20
-10.7004959971
11
-146.0333632045
21
-4.3917258898
62
254
0
LINE
8
Modules
10
-146.0333632045
20
-4.3917258898
11
-149.6156702102
21
-5.3839913786
62
254
0
LINE
8
Modules
10
-146.0333632045
20
-4.3917258898
11
-144.2858929726
21
-10.7004959971
62
254
0
LINE
8
Modules
10
-144.2858929726
20
-10.7004959971
11
-140.7035859669
21
-9.7082305083
62
254
0
LINE
8
Modules
10
-140.7035859669
20
-9.7082305083
11
-142.4510561988
21
-3.3994604010
62
254
0
LINE
8
Modules
10
-142.4510561988
20
-3.3994604010
11
-146.0333632045
21
-4.3917258898
62
254
0
LINE
8
Modules
10
-142.4510561988
20
-3.3994604010
11
-140.7035859669
21
-9.7082305083
62
254
0
LINE
8
Modules
10
-140.7035859669
20
-9.7082305083
11
-137.1212789612
21
-8.7159650196
62
254
0
LINE
8
Modules
10
-137.1212789612
20
-8.7159650196
11
-138.8687491931
21
-2.4071949123
62
254
0
LINE
8
Modules
10
-138.8687491931
20
-2.4071949123
11
-142.4510561988
21
-3.3994604010
62
254
0
LINE
8
Modules
10
-138.8687491931
20
-2.4071949123
11
-137.1212789612
21
-8.7159650196
62
254
0
LINE
8
Modules
10
-137.1212789612
20
-8.7159650196
11
-133.5389719555
21
-7.7236995308
62
254
0
LINE
8
Modules
10
-133.5389719555
20
-7.7236995308
11
-135.2864421874
21
-1.4149294235
62
254
0
LINE
8
Modules
10
-135.2864421874
20
-1.4149294235
11
-138.8687491931
21
-2.4071949123
62
254
0
LINE
8
Modules
10
-135.2864421874
20
-1.4149294235
11
-133.5389719555
21
-7.7236995308
62
254
0
LINE
8
Modules
10
-133.5389719555
20
-7.7236995308
11
-129.9566649498
21
-6.7314340420
62
254
0
LINE
8
Modules
10
-129.9566649498
20
-6.7314340420
11
-131.7041351817
21
-0.4226639347
62
254
0
LINE
8
Modules
10
-131.7041351817
20
-0.4226639347
11
-135.2864421874
21
-1.4149294235
62
254
0
LINE
8
Modules
10
-194.4381910523
20
-24.5922128398
11
-192.6907208204
21
-30.9009829471
62
254
0
LINE
8
Modules
10
-192.6907208204
20
-30.9009829471
11
-189.1084138147
21
-29.9087174583
62
254
0
LINE
8
Modules
10
-189.1084138147
20
-29.9087174583
11
-190.8558840466
21
-23.5999473511
62
254
0
LINE
8
Modules
10
-190.8558840466
20
-23.5999473511
11
-194.4381910523
21
-24.5922128398
62
254
0
LINE
8
Modules
10
-190.8558840466
20
-23.5999473511
11
-189.1084138147
21
-29.9087174583
62
254
0
LINE
8
Modules
10
-189.1084138147
20
-29.9087174583
11
-185.5261068090
21
-28.9164519696
62
254
0
LINE
8
Modules
10
-185.5261068090
20
-28.9164519696
11
-187.2735770409
21
-22.6076818623
62
254
0
LINE
8
Modules
10
-187.2735770409
20
-22.6076818623
11
-190.8558840466
21
-23.5999473511
62
254
0
LINE
8
Modules
10
-187.2735770409
20
-22.6076818623
11
-185.5261068090
21
-28.9164519696
62
254
0
LINE
8
Modules
10
-185.5261068090
20
-28.9164519696
11
-181.9437998033
21
-27.9241864808
62
254
0
LINE
8
Modules
10
-181.9437998033
20
-27.9241864808
11
-183.6912700352
21
-21.6154163735
62
254
0
LINE
8
Modules
10
-183.6912700352
20
-21.6154163735
11
-187.2735770409
21
-22.6076818623
62
254
0
LINE
8
Modules
10
-183.6912700352
20
-21.6154163735
11
-181.9437998033
21
-27.9241864808
62
254
0
LINE
8
Modules
10
-181.9437998033
20
-27.9241864808
11
-178.3614927976
21
-26.9319209920
62
254
0
LINE
8
Modules
10
-178.3614927976
20
-26.9319209920
11
-180.1089630295
21
-20.6231508848
62
254
0
LINE
8
Modules
10
-180.1089630295
20
-20.6231508848
11
-183.6912700352
21
-21.6154163735
62
254
0
LINE
8
Modules
10
-180.1089630295
20
-20.6231508848
11
-178.3614927976
21
-26.9319209920
62
254
0
LINE
8
Modules
10
-178.3614927976
20
-26.9319209920
11
-174.7791857919
21
-25.9396555033
62
254
0
LINE
8
Modules
10
-174.7791857919
20
-25.9396555033
11
-176.5266560238
21
-19.6308853960
62
254
0
LINE
8
Modules
10
-176.5266560238
20
-19.6308853960
11
-180.1089630295
21
-20.6231508848
62
254
0
LINE
8
Modules
10
-176.5266560238
20
-19.6308853960
11
-174.7791857919
21
-25.9396555033
62
254
0
LINE
8
Modules
10
-174.7791857919
20
-25.9396555033
11
-171.1968787862
21
-24.9473900145
62
254
0
LINE
8
Modules
10
-171.1968787862
20
-24.9473900145
11
-172.9443490182
21
-18.6386199072
62
254
0
LINE
8
Modules
10
-172.9443490182
20
-18.6386199072
11
-176.5266560238
21
-19.6308853960
62
254
0
LINE
8
Modules
10
-172.9443490182
20
-18.6386199072
11
-171.1968787862
21
-24.9473900145
62
254
0
LINE
8
Modules
10
-171.1968787862
20
-24.9473900145
11
-167.6145717806
21
-23.9551245257
62
254
0
LINE
8
Modules
10
-167.6145717806
20
-23.9551245257
11
-169.3620420125
21
-17.6463544185
62
254
0
LINE
8
Modules
10
-169.3620420125
20
-17.6463544185
11
-172.9443490182
21
-18.6386199072
62
254
0
LINE
8
Modules
10
-169.3620420125
20
-17.6463544185
11
-167.6145717806
21
-23.9551245257
62
254
0
LINE
8
Modules
10
-167.6145717806
20
-23.9551245257
11
-164.0322647749
21
-22.9628590370
62
254
0
LINE
8
Modules
10
-164.0322647749
20
-22.9628590370
11
-165.7797350068
21
-16.6540889297
62
254
0
LINE
8
Modules
10
-165.7797350068
20
-16.6540889297
11
-169.3620420125
21
-17.6463544185
62
254
0
LINE
8
Modules
10
-165.7797350068
20
-16.6540889297
11
-164.0322647749
21
-22.9628590370
62
254
0
LINE
8
Modules
10
-164.0322647749
20
-22.9628590370
11
-160.4499577692
21
-21.9705935482
62
254
0
LINE
8
Modules
10
-160.4499577692
20
-21.9705935482
11
-162.1974280011
21
-15.6618234409
62
254
0
LINE
8
Modules
10
-162.1974280011
20
-15.6618234409
11
-165.7797350068
21
-16.6540889297
62
254
0
LINE
8
Modules
10
-162.1974280011
20
-15.6618234409
11
-160.4499577692
21
-21.9705935482
62
254
0
LINE
8
Modules
10
-160.4499577692
20
-21.9705935482
11
-156.8676507635
21
-20.9783280594
62
254
0
LINE
8
Modules
10
-156.8676507635
20
-20.9783280594
11
-158.6151209954
21
-14.6695579522
62
254
0
LINE
8
Modules
10
-158.6151209954
20
-14.6695579522
11
-162.1974280011
21
-15.6618234409
62
254
0
LINE
8
Modules
10
-158.6151209954
20
-14.6695579522
11
-156.8676507635
21
-20.9783280594
62
254
0
LINE
8
Modules
10
-156.8676507635
20
-20.9783280594
11
-153.2853437578
21
-19.9860625707
62
254
0
LINE
8
Modules
10
-153.2853437578
20
-19.9860625707
11
-155.0328139897
21
-13.6772924634
62
254
0
LINE
8
Modules
10
-155.0328139897
20
-13.6772924634
11
-158.6151209954
21
-14.6695579522
62
254
0
LINE
8
Modules
10
-155.0328139897
20
-13.6772924634
11
-153.2853437578
21
-19.9860625707
62
254
0
LINE
8
Modules
10
-153.2853437578
20
-19.9860625707
11
-149.7030367521
21
-18.9937970819
62
254
0
LINE
8
Modules
10
-149.7030367521
20
-18.9937970819
11
-151.4505069840
21
-12.6850269746
62
254
0
LINE
8
Modules
10
-151.4505069840
20
-12.6850269746
11
-155.0328139897
21
-13.6772924634
62
254
0
LINE
8
Modules
10
-151.4505069840
20
-12.6850269746
11
-149.7030367521
21
-18.9937970819
62
254
0
LINE
8
Modules
10
-149.7030367521
20
-18.9937970819
11
-146.1207297464
21
-18.0015315931
62
254
0
LINE
8
Modules
10
-146.1207297464
20
-18.0015315931
11
-147.8681999783
21
-11.6927614859
62
254
0
LINE
8
Modules
10
-147.8681999783
20
-11.6927614859
11
-151.4505069840
21
-12.6850269746
62
254
0
LINE
8
Modules
10
-147.8681999783
20
-11.6927614859
11
-146.1207297464
21
-18.0015315931
62
254
0
LINE
8
Modules
10
-146.1207297464
20
-18.0015315931
11
-142.5384227407
21
-17.0092661044
62
254
0
LINE
8
Modules
10
-142.5384227407
20
-17.0092661044
11
-144.2858929726
21
-10.7004959971
62
254
0
LINE
8
Modules
10
-144.2858929726
20
-10.7004959971
11
-147.8681999783
21
-11.6927614859
62
254
0
LINE
8
Modules
10
-144.2858929726
20
-10.7004959971
11
-142.5384227407
21
-17.0092661044
62
254
0
LINE
8
Modules
10
-142.5384227407
20
-17.0092661044
11
-138.9561157350
21
-16.0170006156
62
254
0
LINE
8
Modules
10
-138.9561157350
20
-16.0170006156
11
-140.7035859669
21
-9.7082305083
62
254
0
LINE
8
Modules
10
-140.7035859669
20
-9.7082305083
11
-144.2858929726
21
-10.7004959971
62
254
0
LINE
8
Modules
10
-140.7035859669
20
-9.7082305083
11
-138.9561157350
21
-16.0170006156
62
254
0
LINE
8
Modules
10
-138.9561157350
20
-16.0170006156
11
-135.3738087293
21
-15.0247351268
62
254
0
LINE
8
Modules
10
-135.3738087293
20
-15.0247351268
11
-137.1212789612
21
-8.7159650196
62
254
0
LINE
8
Modules
10
-137.1212789612
20
-8.7159650196
11
-140.7035859669
21
-9.7082305083
62
254
0
LINE
8
Modules
10
-137.1212789612
20
-8.7159650196
11
-135.3738087293
21
-15.0247351268
62
254
0
LINE
8
Modules
10
-135.3738087293
20
-15.0247351268
11
-131.7915017236
21
-14.0324696381
62
254
0
LINE
8
Modules
10
-131.7915017236
20
-14.0324696381
11
-133.5389719555
21
-7.7236995308
62
254
0
LINE
8
Modules
10
-133.5389719555
20
-7.7236995308
11
-137.1212789612
21
-8.7159650196
62
254
0
LINE
8
Modules
10
-133.5389719555
20
-7.7236995308
11
-131.7915017236
21
-14.0324696381
62
254
0
LINE
8
Modules
10
-131.7915017236
20
-14.0324696381
11
-128.2091947179
21
-13.0402041493
62
254
0
LINE
8
Modules
10
-128.2091947179
20
-13.0402041493
11
-129.9566649498
21
-6.7314340420
62
254
0
LINE
8
Modules
10
-129.9566649498
20
-6.7314340420
11
-133.5389719555
21
-7.7236995308
62
254
0
LINE
8
Modules
10
-192.6907208204
20
-30.9009829471
11
-190.9432505885
21
-37.2097530544
62
254
0
LINE
8
Modules
10
-190.9432505885
20
-37.2097530544
11
-187.3609435828
21
-36.2174875656
62
254
0
LINE
8
Modules
10
-187.3609435828
20
-36.2174875656
11
-189.1084138147
21
-29.9087174583
62
254
0
LINE
8
Modules
10
-189.1084138147
20
-29.9087174583
11
-192.6907208204
21
-30.9009829471
62
254
0
LINE
8
Modules
10
-189.1084138147
20
-29.9087174583
11
-187.3609435828
21
-36.2174875656
62
254
0
LINE
8
Modules
10
-187.3609435828
20
-36.2174875656
11
-183.7786365771
21
-35.2252220768
62
254
0
LINE
8
Modules
10
-183.7786365771
20
-35.2252220768
11
-185.5261068090
21
-28.9164519696
62
254
0
LINE
8
Modules
10
-185.5261068090
20
-28.9164519696
11
-189.1084138147
21
-29.9087174583
62
254
0
LINE
8
Modules
10
-185.5261068090
20
-28.9164519696
11
-183.7786365771
21
-35.2252220768
62
254
0
LINE
8
Modules
10
-183.7786365771
20
-35.2252220768
11
-180.1963295714
21
-34.2329565881
62
254
0
LINE
8
Modules
10
-180.1963295714
20
-34.2329565881
11
-181.9437998033
21
-27.9241864808
62
254
0
LINE
8
Modules
10
-181.9437998033
20
-27.9241864808
11
-185.5261068090
21
-28.9164519696
62
254
0
LINE
8
Modules
10
-181.9437998033
20
-27.9241864808
11
-180.1963295714
21
-34.2329565881
62
254
0
LINE
8
Modules
10
-180.1963295714
20
-34.2329565881
11
-176.6140225657
21
-33.2406910993
62
254
0
LINE
8
Modules
10
-176.6140225657
20
-33.2406910993
11
-178.3614927976
21
-26.9319209920
62
254
0
LINE
8
Modules
10
-178.3614927976
20
-26.9319209920
11
-181.9437998033
21
-27.9241864808
62
254
0
LINE
8
Modules
10
-178.3614927976
20
-26.9319209920
11
-176.6140225657
21
-33.2406910993
62
254
0
LINE
8
Modules
10
-176.6140225657
20
-33.2406910993
11
-173.0317155600
21
-32.2484256105
62
254
0
LINE
8
Modules
10
-173.0317155600
20
-32.2484256105
11
-174.7791857919
21
-25.9396555033
62
254
0
LINE
8
Modules
10
-174.7791857919
20
-25.9396555033
11
-178.3614927976
21
-26.9319209920
62
254
0
LINE
8
Modules
10
-174.7791857919
20
-25.9396555033
11
-173.0317155600
21
-32.2484256105
62
254
0
LINE
8
Modules
10
-173.0317155600
20
-32.2484256105
11
-169.4494085543
21
-31.2561601218
62
254
0
LINE
8
Modules
10
-169.4494085543
20
-31.2561601218
11
-171.1968787862
21
-24.9473900145
62
254
0
LINE
8
Modules
10
-171.1968787862
20
-24.9473900145
11
-174.7791857919
21
-25.9396555033
62
254
0
LINE
8
Modules
10
-171.1968787862
20
-24.9473900145
11
-169.4494085543
21
-31.2561601218
62
254
0
LINE
8
Modules
10
-169.4494085543
20
-31.2561601218
11
-165.8671015486
21
-30.2638946330
62
254
0
LINE
8
Modules
10
-165.8671015486
20
-30.2638946330
11
-167.6145717806
21
-23.9551245257
62
254
0
LINE
8
Modules
10
-167.6145717806
20
-23.9551245257
11
-171.1968787862
21
-24.9473900145
62
254
0
LINE
8
Modules
10
-167.6145717806
20
-23.9551245257
11
-165.8671015486
21
-30.2638946330
62
254
0
LINE
8
Modules
10
-165.8671015486
20
-30.2638946330
11
-162.2847945429
21
-29.2716291442
62
254
0
LINE
8
Modules
10
-162.2847945429
20
-29.2716291442
11
-164.0322647749
21
-22.9628590370
62
254
0
LINE
8
Modules
10
-164.0322647749
20
-22.9628590370
11
-167.6145717806
21
-23.9551245257
62
254
0
LINE
8
Modules
10
-164.0322647749
20
-22.9628590370
11
-162.2847945429
21
-29.2716291442
62
254
0
LINE
8
Modules
10
-162.2847945429
20
-29.2716291442
11
-158.7024875373
21
-28.2793636555
62
254
0
LINE
8
Modules
10
-158.7024875373
20
-28.2793636555
11
-160.4499577692
21
-21.9705935482
62
254
0
LINE
8
Modules
10
-160.4499577692
20
-21.9705935482
11
-164.0322647749
21
-22.9628590370
62
254
0
LINE
8
Modules
10
-160.4499577692
20
-21.9705935482
11
-158.7024875373
21
-28.2793636555
62
254
0
LINE
8
Modules
10
-158.7024875373
20
-28.2793636555
11
-155.1201805316
21
-27.2870981667
62
254
0
LINE
8
Modules
10
-155.1201805316
20
-27.2870981667
11
-156.8676507635
21
-20.9783280594
62
254
0
LINE
8
Modules
10
-156.8676507635
20
-20.9783280594
11
-160.4499577692
21
-21.9705935482
62
254
0
LINE
8
Modules
10
-156.8676507635
20
-20.9783280594
11
-155.1201805316
21
-27.2870981667
62
254
0
LINE
8
Modules
10
-155.1201805316
20
-27.2870981667
11
-151.5378735259
21
-26.2948326779
62
254
0
LINE
8
Modules
10
-151.5378735259
20
-26.2948326779
11
-153.2853437578
21
-19.9860625707
62
254
0
LINE
8
Modules
10
-153.2853437578
20
-19.9860625707
11
-156.8676507635
21
-20.9783280594
62
254
0
LINE
8
Modules
10
-153.2853437578
20
-19.9860625707
11
-151.5378735259
21
-26.2948326779
62
254
0
LINE
8
Modules
10
-151.5378735259
20
-26.2948326779
11
-147.9555665202
21
-25.3025671892
62
254
0
LINE
8
Modules
10
-147.9555665202
20
-25.3025671892
11
-149.7030367521
21
-18.9937970819
62
254
0
LINE
8
Modules
10
-149.7030367521
20
-18.9937970819
11
-153.2853437578
21
-19.9860625707
62
254
0
LINE
8
Modules
10
-149.7030367521
20
-18.9937970819
11
-147.9555665202
21
-25.3025671892
62
254
0
LINE
8
Modules
10
-147.9555665202
20
-25.3025671892
11
-144.3732595145
21
-24.3103017004
62
254
0
LINE
8
Modules
10
-144.3732595145
20
-24.3103017004
11
-146.1207297464
21
-18.0015315931
62
254
0
LINE
8
Modules
10
-146.1207297464
20
-18.0015315931
11
-149.7030367521
21
-18.9937970819
62
254
0
LINE
8
Modules
10
-146.1207297464
20
-18.0015315931
11
-144.3732595145
21
-24.3103017004
62
254
0
LINE
8
Modules
10
-144.3732595145
20
-24.3103017004
11
-140.7909525088
21
-23.3180362116
62
254
0
LINE
8
Modules
10
-140.7909525088
20
-23.3180362116
11
-142.5384227407
21
-17.0092661044
62
254
0
LINE
8
Modules
10
-142.5384227407
20
-17.0092661044
11
-146.1207297464
21
-18.0015315931
62
254
0
LINE
8
Modules
10
-142.5384227407
20
-17.0092661044
11
-140.7909525088
21
-23.3180362116
62
254
0
LINE
8
Modules
10
-140.7909525088
20
-23.3180362116
11
-137.2086455031
21
-22.3257707229
62
254
0
LINE
8
Modules
10
-137.2086455031
20
-22.3257707229
11
-138.9561157350
21
-16.0170006156
62
254
0
LINE
8
Modules
10
-138.9561157350
20
-16.0170006156
11
-142.5384227407
21
-17.0092661044
62
254
0
LINE
8
Modules
10
-138.9561157350
20
-16.0170006156
11
-137.2086455031
21
-22.3257707229
62
254
0
LINE
8
Modules
10
-137.2086455031
20
-22.3257707229
11
-133.6263384974
21
-21.3335052341
62
254
0
LINE
8
Modules
10
-133.6263384974
20
-21.3335052341
11
-135.3738087293
21
-15.0247351268
62
254
0
LINE
8
Modules
10
-135.3738087293
20
-15.0247351268
11
-138.9561157350
21
-16.0170006156
62
254
0
LINE
8
Modules
10
-135.3738087293
20
-15.0247351268
11
-133.6263384974
21
-21.3335052341
62
254
0
LINE
8
Modules
10
-133.6263384974
20
-21.3335052341
11
-130.0440314917
21
-20.3412397453
62
254
0
LINE
8
Modules
10
-130.0440314917
20
-20.3412397453
11
-131.7915017236
21
-14.0324696381
62
254
0
LINE
8
Modules
10
-131.7915017236
20
-14.0324696381
11
-135.3738087293
21
-15.0247351268
62
254
0
LINE
8
Modules
10
-131.7915017236
20
-14.0324696381
11
-130.0440314917
21
-20.3412397453
62
254
0
LINE
8
Modules
10
-130.0440314917
20
-20.3412397453
11
-126.4617244860
21
-19.3489742566
62
254
0
LINE
8
Modules
10
-126.4617244860
20
-19.3489742566
11
-128.2091947179
21
-13.0402041493
62
254
0
LINE
8
Modules
10
-128.2091947179
20
-13.0402041493
11
-131.7915017236
21
-14.0324696381
62
254
0
LINE
8
Inverters
10
-166.8710716401
20
-0.4089487993
11
-164.5008684475
21
0.2519875236
0
LINE
8
Inverters
10
-164.5008684475
20
0.2519875236
11
-165.1618047705
21
2.6221907162
0
LINE
8
Inverters
10
-165.1618047705
20
2.6221907162
11
-167.5320079630
21
1.9612543932
0
LINE
8
Inverters
10
-167.5320079630
20
1.9612543932
11
-166.8710716401
21
-0.4089487993
0
LINE
8
Inverters
10
-166.8710716401
20
-0.4089487993
11
-165.1618047705
21
2.6221907162
0
TEXT
8
Inverters
100
AcDbText
10
-167.1272448563
20
1.1204409562
1
DC
7
NewTextStyle_4
40
0.7545932000000003
50
15.58124411427005
0
TEXT
8
Inverters
100
AcDbText
10
-165.9512514300
20
0.0178455182
1
AC
7
NewTextStyle_4
40
0.7545932000000003
50
15.58124411427005
0
LINE
8
Inverters
10
-203.6630952073
20
-31.4420947233
11
-201.2748118129
21
-30.8498089603
0
LINE
8
Inverters
10
-201.2748118129
20
-30.8498089603
11
-201.8670975760
21
-28.4615255659
0
LINE
8
Inverters
10
-201.8670975760
20
-28.4615255659
11
-204.2553809704
21
-29.0538113290
0
LINE
8
Inverters
10
-204.2553809704
20
-29.0538113290
11
-203.6630952073
21
-31.4420947233
0
LINE
8
Inverters
10
-203.6630952073
20
-31.4420947233
11
-201.8670975760
21
-28.4615255659
0
TEXT
8
Inverters
100
AcDbText
10
-203.8750420592
20
-29.9059514120
1
DC
7
NewTextStyle_4
40
0.7545932000000003
50
13.92814941276999
0
TEXT
8
Inverters
100
AcDbText
10
-202.7313456778
20
-31.0420129534
1
AC
7
NewTextStyle_4
40
0.7545932000000003
50
13.92814941276999
0
LINE
8
Inverters
10
-155.9032108977
20
-36.6059521149
11
-153.5274172423
21
-35.9654019578
0
LINE
8
Inverters
10
-153.5274172423
20
-35.9654019578
11
-154.1679673994
21
-33.5896083024
0
LINE
8
Inverters
10
-154.1679673994
20
-33.5896083024
11
-156.5437610548
21
-34.2301584595
0
LINE
8
Inverters
10
-156.5437610548
20
-34.2301584595
11
-155.9032108977
21
-36.6059521149
0
LINE
8
Inverters
10
-155.9032108977
20
-36.6059521149
11
-154.1679673994
21
-33.5896083024
0
TEXT
8
Inverters
100
AcDbText
10
-156.1462360858
20
-35.0744180804
1
DC
7
NewTextStyle_4
40
0.7545932000000003
50
15.089025464880027
0
TEXT
8
Inverters
100
AcDbText
10
-154.9797581550
20
-36.1870754740
1
AC
7
NewTextStyle_4
40
0.7545932000000003
50
15.089025464880027
0
LINE
8
Strings
10
-193.5207726654
20
-20.9416950418
11
-189.9384656597
21
-19.9494295530
62
11
0
LINE
8
Strings
10
-189.9384656597
20
-19.9494295530
11
-186.3561586540
21
-18.9571640643
62
11
0
LINE
8
Strings
10
-186.3561586540
20
-18.9571640643
11
-179.1915446426
21
-16.9726330867
62
11
0
LINE
8
Strings
10
-179.1915446426
20
-16.9726330867
11
-175.6092376370
21
-15.9803675980
62
11
0
LINE
8
Strings
10
-175.6092376370
20
-15.9803675980
11
-172.0269306313
21
-14.9881021092
62
11
0
LINE
8
Strings
10
-172.0269306313
20
-14.9881021092
11
-168.4446236256
21
-13.9958366204
62
11
0
LINE
8
Strings
10
-168.4446236256
20
-13.9958366204
11
-164.8623166199
21
-13.0035711317
62
11
0
LINE
8
Strings
10
-132.6215535686
20
-4.0731817328
11
-136.2038605743
21
-5.0654472215
62
11
0
LINE
8
Strings
10
-136.2038605743
20
-5.0654472215
11
-139.7861675800
21
-6.0577127103
62
11
0
LINE
8
Strings
10
-139.7861675800
20
-6.0577127103
11
-143.3684745857
21
-7.0499781991
62
11
0
LINE
8
Strings
10
-143.3684745857
20
-7.0499781991
11
-146.9507815914
21
-8.0422436878
62
11
0
LINE
8
Strings
10
-146.9507815914
20
-8.0422436878
11
-150.5330885971
21
-9.0345091766
62
11
0
LINE
8
Strings
10
-150.5330885971
20
-9.0345091766
11
-154.1153956028
21
-10.0267746654
62
11
0
LINE
8
Strings
10
-154.1153956028
20
-10.0267746654
11
-157.6977026085
21
-11.0190401541
62
11
0
LINE
8
Strings
10
-157.6977026085
20
-11.0190401541
11
-161.2800096142
21
-12.0113056429
62
11
0
LINE
8
Strings
10
-191.7733024335
20
-27.2504651491
11
-188.1909954278
21
-26.2581996603
62
11
0
LINE
8
Strings
10
-188.1909954278
20
-26.2581996603
11
-184.6086884221
21
-25.2659341716
62
11
0
LINE
8
Strings
10
-184.6086884221
20
-25.2659341716
11
-181.0263814164
21
-24.2736686828
62
11
0
LINE
8
Strings
10
-181.0263814164
20
-24.2736686828
11
-177.4440744107
21
-23.2814031940
62
11
0
LINE
8
Strings
10
-177.4440744107
20
-23.2814031940
11
-173.8617674050
21
-22.2891377052
62
11
0
LINE
8
Strings
10
-173.8617674050
20
-22.2891377052
11
-166.6971533937
21
-20.3046067277
62
11
0
LINE
8
Strings
10
-166.6971533937
20
-20.3046067277
11
-163.1148463880
21
-19.3123412389
62
11
0
LINE
8
Strings
10
-159.5325393823
20
-18.3200757502
11
-155.9502323766
21
-17.3278102614
62
11
0
LINE
8
Strings
10
-155.9502323766
20
-17.3278102614
11
-148.7856183652
21
-15.3432792839
62
11
0
LINE
8
Strings
10
-148.7856183652
20
-15.3432792839
11
-145.2033113595
21
-14.3510137951
62
11
0
LINE
8
Strings
10
-145.2033113595
20
-14.3510137951
11
-141.6210043538
21
-13.3587483063
62
11
0
LINE
8
Strings
10
-141.6210043538
20
-13.3587483063
11
-138.0386973481
21
-12.3664828176
62
11
0
LINE
8
Strings
10
-138.0386973481
20
-12.3664828176
11
-134.4563903424
21
-11.3742173288
62
11
0
LINE
8
Strings
10
-134.4563903424
20
-11.3742173288
11
-130.8740833367
21
-10.3819518400
62
11
0
LINE
8
Strings
10
-129.1266131048
20
-16.6907219473
11
-132.7089201105
21
-17.6829874361
62
11
0
LINE
8
Strings
10
-132.7089201105
20
-17.6829874361
11
-136.2912271162
21
-18.6752529248
62
11
0
LINE
8
Strings
10
-136.2912271162
20
-18.6752529248
11
-139.8735341219
21
-19.6675184136
62
11
0
LINE
8
Strings
10
-139.8735341219
20
-19.6675184136
11
-147.0381481333
21
-21.6520493911
62
11
0
LINE
8
Strings
10
-147.0381481333
20
-21.6520493911
11
-150.6204551390
21
-22.6443148799
62
11
0
LINE
8
Strings
10
-150.6204551390
20
-22.6443148799
11
-154.2027621447
21
-23.6365803687
62
11
0
LINE
8
Strings
10
-154.2027621447
20
-23.6365803687
11
-157.7850691504
21
-24.6288458575
62
11
0
LINE
8
Strings
10
-190.0258322016
20
-33.5592352564
11
-172.1142971731
21
-28.5979078125
62
11
0
LINE
8
Strings
10
-172.1142971731
20
-28.5979078125
11
-168.5319901674
21
-27.6056423238
62
11
0
LINE
8
Strings
10
-168.5319901674
20
-27.6056423238
11
-164.9496831617
21
-26.6133768350
62
11
0
LINE
8
Strings
10
-164.9496831617
20
-26.6133768350
11
-161.3673761561
21
-25.6211113462
62
11
0
LINE
8
Connections
10
-164.8623166199
20
-13.0035711317
11
-164.8623166199
21
-12.5114451317
62
91
0
LINE
8
Connections
10
-164.8623166199
20
-12.5114451317
11
-165.3544426199
21
-12.5114451317
62
91
0
LINE
8
Connections
10
-165.3544426199
20
-12.5114451317
11
-165.5243122053
21
0.6144949584
62
91
0
LINE
8
Connections
10
-165.5243122053
20
0.6144949584
11
-165.5243122053
21
1.1066209584
62
91
0
LINE
8
Connections
10
-165.5243122053
20
1.1066209584
11
-166.0164382053
21
1.1066209584
62
91
0
LINE
8
Connections
10
-161.2800096142
20
-12.0113056429
11
-161.2800096142
21
-11.5191796429
62
91
0
LINE
8
Connections
10
-161.2800096142
20
-11.5191796429
11
-161.7721356142
21
-11.5191796429
62
91
0
LINE
8
Connections
10
-161.7721356142
20
-11.5191796429
11
-165.5243122053
21
0.6144949584
62
91
0
LINE
8
Connections
10
-165.5243122053
20
0.6144949584
11
-165.5243122053
21
1.1066209584
62
91
0
LINE
8
Connections
10
-165.5243122053
20
1.1066209584
11
-166.0164382053
21
1.1066209584
62
91
0
LINE
8
Connections
10
-163.1148463880
20
-19.3123412389
11
-163.1148463880
21
-19.8044672389
62
91
0
LINE
8
Connections
10
-163.1148463880
20
-19.8044672389
11
-163.6069723880
21
-19.8044672389
62
91
0
LINE
8
Connections
10
-163.6069723880
20
-19.8044672389
11
-202.2729703917
21
-29.4596841446
62
91
0
LINE
8
Connections
10
-202.2729703917
20
-29.4596841446
11
-202.2729703917
21
-29.9518101446
62
91
0
LINE
8
Connections
10
-202.2729703917
20
-29.9518101446
11
-202.7650963917
21
-29.9518101446
62
91
0
LINE
8
Connections
10
-130.8740833367
20
-10.3819518400
11
-130.8740833367
21
-10.8740778400
62
91
0
LINE
8
Connections
10
-130.8740833367
20
-10.8740778400
11
-131.3662093367
21
-10.8740778400
62
91
0
LINE
8
Connections
10
-131.3662093367
20
-10.8740778400
11
-202.2729703917
21
-29.4596841446
62
91
0
LINE
8
Connections
10
-202.2729703917
20
-29.4596841446
11
-202.2729703917
21
-29.9518101446
62
91
0
LINE
8
Connections
10
-202.2729703917
20
-29.9518101446
11
-202.7650963917
21
-29.9518101446
62
91
0
LINE
8
Connections
10
-157.7850691504
20
-24.6288458575
11
-157.7850691504
21
-25.1209718575
62
91
0
LINE
8
Connections
10
-157.7850691504
20
-25.1209718575
11
-157.2929431504
21
-25.1209718575
62
91
0
LINE
8
Connections
10
-157.2929431504
20
-25.1209718575
11
-155.5277151485
21
-34.6056542087
62
91
0
LINE
8
Connections
10
-155.5277151485
20
-34.6056542087
11
-155.5277151485
21
-35.0977802087
62
91
0
LINE
8
Connections
10
-155.5277151485
20
-35.0977802087
11
-155.0355891485
21
-35.0977802087
62
91
0
LINE
8
Connections
10
-161.3673761561
20
-25.6211113462
11
-161.3673761561
21
-26.1132373462
62
91
0
LINE
8
Connections
10
-161.3673761561
20
-26.1132373462
11
-160.8752501561
21
-26.1132373462
62
91
0
LINE
8
Connections
10
-160.8752501561
20
-26.1132373462
11
-155.5277151485
21
-34.6056542087
62
91
0
LINE
8
Connections
10
-155.5277151485
20
-34.6056542087
11
-155.5277151485
21
-35.0977802087
62
91
0
LINE
8
Connections
10
-155.5277151485
20
-35.0977802087
11
-155.0355891485
21
-35.0977802087
62
91
0
ENDSEC
0
EOF